<?xml version="1.0" encoding="UTF-8" standalone="no"?>
<!DOCTYPE svg PUBLIC "-//W3C//DTD SVG 1.1//EN"
 "http://www.w3.org/Graphics/SVG/1.1/DTD/svg11.dtd">
<!-- Generated by graphviz version 2.43.0 (0)
 -->
<!-- Title: egg&#45;toolbars&#45;model.h Pages: 1 -->
<!--zoomable 137 -->

<svg id="main" version="1.1" xmlns="http://www.w3.org/2000/svg" xmlns:xlink="http://www.w3.org/1999/xlink" xml:space="preserve" onload="init(evt)">

<style type="text/css"><![CDATA[
.node, .edge {opacity: 0.7;}
.node.selected, .edge.selected {opacity: 1;}
.edge:hover path { stroke: red; }
.edge:hover polygon { stroke: red; fill: red; }
]]></style>

<defs>
  <circle id="rim" cx="0" cy="0" r="7"/>
  <circle id="rim2" cx="0" cy="0" r="3.5"/>
  <g id="zoomPlus">
    <use xlink:href="#rim" fill="#404040"><set attributeName="fill" to="#808080" begin="zoomplus.mouseover" end="zoomplus.mouseout"/></use>
    <path d="M-4,0h8M0,-4v8" fill="none" stroke="white" stroke-width="1.5" pointer-events="none"/>
  </g>
  <g id="zoomMin">
    <use xlink:href="#rim" fill="#404040"><set attributeName="fill" to="#808080" begin="zoomminus.mouseover" end="zoomminus.mouseout"/></use>
    <path d="M-4,0h8" fill="none" stroke="white" stroke-width="1.5" pointer-events="none"/>
  </g>
  <g id="arrowUp" transform="translate(30 24)">
    <use xlink:href="#rim"/>
    <path pointer-events="none" fill="none" stroke="white" stroke-width="1.5" d="M0,-3.0v7 M-2.5,-0.5L0,-3.0L2.5,-0.5"/>
  </g>
  <g id="arrowRight" transform="rotate(90) translate(36 -43)">
    <use xlink:href="#rim"/>
    <path pointer-events="none" fill="none" stroke="white" stroke-width="1.5" d="M0,-3.0v7 M-2.5,-0.5L0,-3.0L2.5,-0.5"/>
  </g>
  <g id="arrowDown" transform="rotate(180) translate(-30 -48)">
    <use xlink:href="#rim"/>
    <path pointer-events="none" fill="none" stroke="white" stroke-width="1.5" d="M0,-3.0v7 M-2.5,-0.5L0,-3.0L2.5,-0.5"/>
  </g>
  <g id="arrowLeft" transform="rotate(270) translate(-36 17)">
    <use xlink:href="#rim"/>
    <path pointer-events="none" fill="none" stroke="white" stroke-width="1.5" d="M0,-3.0v7 M-2.5,-0.5L0,-3.0L2.5,-0.5"/>
  </g>
  <g id="resetDef">
    <use xlink:href="#rim2" fill="#404040"><set attributeName="fill" to="#808080" begin="reset.mouseover" end="reset.mouseout"/></use>
  </g>
</defs>
<script type="application/ecmascript">
var viewWidth = 535;
var viewHeight = 137;
var sectionId = 'dynsection-1';
</script>
<script type="application/ecmascript" xlink:href="svg.min.js"/>
<svg id="graph" class="graph">
<g id="viewport">
<title>egg&#45;toolbars&#45;model.h</title>
<!-- Node1 -->
<g id="Node000001" class="node">
<title>Node1</title>
<g id="a_Node000001"><a xlink:title=" ">
<polygon fill="#999999" stroke="#666666" points="267.68,-129 145.68,-129 145.68,-110 267.68,-110 267.68,-129"/>
<text text-anchor="middle" x="206.68" y="-117" font-family="Helvetica,sans-Serif" font-size="10.00">egg&#45;toolbars&#45;model.h</text>
</a>
</g>
</g>
<!-- Node2 -->
<g id="Node000002" class="node">
<title>Node2</title>
<g id="a_Node000002"><a xlink:href="atril_2cut-n-paste_2toolbar-editor_2egg-editable-toolbar_8c.html" target="_top" xlink:title=" ">
<polygon fill="white" stroke="#666666" points="131.68,-19 7.68,-19 7.68,0 131.68,0 131.68,-19"/>
<text text-anchor="middle" x="69.68" y="-7" font-family="Helvetica,sans-Serif" font-size="10.00">egg&#45;editable&#45;toolbar.c</text>
</a>
</g>
</g>
<!-- Node1&#45;&gt;Node2 -->
<g id="edge1_Node000001_Node000002" class="edge">
<title>Node1&#45;&gt;Node2</title>
<g id="a_edge1_Node000001_Node000002"><a xlink:title=" ">
<path fill="none" stroke="#63b8ff" d="M135.46,-112.17C84.11,-105.96 21.05,-94.37 4.68,-74 -12.61,-52.48 24.11,-30.71 49.09,-19.09"/>
<polygon fill="#63b8ff" stroke="#63b8ff" points="135.23,-115.67 145.56,-113.34 136.03,-108.71 135.23,-115.67"/>
</a>
</g>
</g>
<!-- Node3 -->
<g id="Node000003" class="node">
<title>Node3</title>
<g id="a_Node000003"><a xlink:href="atril_2cut-n-paste_2toolbar-editor_2egg-editable-toolbar_8h.html" target="_top" xlink:title=" ">
<polygon fill="white" stroke="#666666" points="269.18,-74 144.18,-74 144.18,-55 269.18,-55 269.18,-74"/>
<text text-anchor="middle" x="206.68" y="-62" font-family="Helvetica,sans-Serif" font-size="10.00">egg&#45;editable&#45;toolbar.h</text>
</a>
</g>
</g>
<!-- Node1&#45;&gt;Node3 -->
<g id="edge2_Node000001_Node000003" class="edge">
<title>Node1&#45;&gt;Node3</title>
<g id="a_edge2_Node000001_Node000003"><a xlink:title=" ">
<path fill="none" stroke="#63b8ff" d="M206.68,-99.66C206.68,-90.93 206.68,-80.99 206.68,-74.09"/>
<polygon fill="#63b8ff" stroke="#63b8ff" points="203.18,-99.75 206.68,-109.75 210.18,-99.75 203.18,-99.75"/>
</a>
</g>
</g>
<!-- Node5 -->
<g id="Node000005" class="node">
<title>Node5</title>
<g id="a_Node000005"><a xlink:href="atril_2cut-n-paste_2toolbar-editor_2egg-toolbar-editor_8h.html" target="_top" xlink:title=" ">
<polygon fill="white" stroke="#666666" points="126.18,-74 13.18,-74 13.18,-55 126.18,-55 126.18,-74"/>
<text text-anchor="middle" x="69.68" y="-62" font-family="Helvetica,sans-Serif" font-size="10.00">egg&#45;toolbar&#45;editor.h</text>
</a>
</g>
</g>
<!-- Node1&#45;&gt;Node5 -->
<g id="edge5_Node000001_Node000005" class="edge">
<title>Node1&#45;&gt;Node5</title>
<g id="a_edge5_Node000001_Node000005"><a xlink:title=" ">
<path fill="none" stroke="#63b8ff" d="M175.12,-106.29C149.73,-96.47 114.68,-82.91 92.1,-74.17"/>
<polygon fill="#63b8ff" stroke="#63b8ff" points="174.08,-109.64 184.67,-109.98 176.61,-103.11 174.08,-109.64"/>
</a>
</g>
</g>
<!-- Node6 -->
<g id="Node000006" class="node">
<title>Node6</title>
<g id="a_Node000006"><a xlink:href="atril_2cut-n-paste_2toolbar-editor_2egg-toolbars-model_8c.html" target="_top" xlink:title=" ">
<polygon fill="white" stroke="#666666" points="408.18,-74 287.18,-74 287.18,-55 408.18,-55 408.18,-74"/>
<text text-anchor="middle" x="347.68" y="-62" font-family="Helvetica,sans-Serif" font-size="10.00">egg&#45;toolbars&#45;model.c</text>
</a>
</g>
</g>
<!-- Node1&#45;&gt;Node6 -->
<g id="edge8_Node000001_Node000006" class="edge">
<title>Node1&#45;&gt;Node6</title>
<g id="a_edge8_Node000001_Node000006"><a xlink:title=" ">
<path fill="none" stroke="#63b8ff" d="M238.82,-106.42C264.98,-96.59 301.27,-82.95 324.62,-74.17"/>
<polygon fill="#63b8ff" stroke="#63b8ff" points="237.47,-103.19 229.34,-109.98 239.93,-109.74 237.47,-103.19"/>
</a>
</g>
</g>
<!-- Node7 -->
<g id="Node000007" class="node">
<title>Node7</title>
<g id="a_Node000007"><a xlink:href="eggtypebuiltins_8c.html" target="_top" xlink:title=" ">
<polygon fill="white" stroke="#666666" points="527.18,-74 426.18,-74 426.18,-55 527.18,-55 527.18,-74"/>
<text text-anchor="middle" x="476.68" y="-62" font-family="Helvetica,sans-Serif" font-size="10.00">eggtypebuiltins.c</text>
</a>
</g>
</g>
<!-- Node1&#45;&gt;Node7 -->
<g id="edge9_Node000001_Node000007" class="edge">
<title>Node1&#45;&gt;Node7</title>
<g id="a_edge9_Node000001_Node000007"><a xlink:title=" ">
<path fill="none" stroke="#63b8ff" d="M260.16,-108C310.77,-98.07 385.83,-83.33 432.96,-74.08"/>
<polygon fill="#63b8ff" stroke="#63b8ff" points="259.2,-104.62 250.06,-109.98 260.55,-111.49 259.2,-104.62"/>
</a>
</g>
</g>
<!-- Node3&#45;&gt;Node2 -->
<g id="edge3_Node000003_Node000002" class="edge">
<title>Node3&#45;&gt;Node2</title>
<g id="a_edge3_Node000003_Node000002"><a xlink:title=" ">
<path fill="none" stroke="#63b8ff" d="M175.12,-51.29C149.73,-41.47 114.68,-27.91 92.1,-19.17"/>
<polygon fill="#63b8ff" stroke="#63b8ff" points="174.08,-54.64 184.67,-54.98 176.61,-48.11 174.08,-54.64"/>
</a>
</g>
</g>
<!-- Node4 -->
<g id="Node000004" class="node">
<title>Node4</title>
<g id="a_Node000004"><a xlink:href="atril_2cut-n-paste_2toolbar-editor_2egg-toolbar-editor_8c.html" target="_top" xlink:title=" ">
<polygon fill="white" stroke="#666666" points="263.18,-19 150.18,-19 150.18,0 263.18,0 263.18,-19"/>
<text text-anchor="middle" x="206.68" y="-7" font-family="Helvetica,sans-Serif" font-size="10.00">egg&#45;toolbar&#45;editor.c</text>
</a>
</g>
</g>
<!-- Node3&#45;&gt;Node4 -->
<g id="edge4_Node000003_Node000004" class="edge">
<title>Node3&#45;&gt;Node4</title>
<g id="a_edge4_Node000003_Node000004"><a xlink:title=" ">
<path fill="none" stroke="#63b8ff" d="M206.68,-44.66C206.68,-35.93 206.68,-25.99 206.68,-19.09"/>
<polygon fill="#63b8ff" stroke="#63b8ff" points="203.18,-44.75 206.68,-54.75 210.18,-44.75 203.18,-44.75"/>
</a>
</g>
</g>
<!-- Node5&#45;&gt;Node2 -->
<g id="edge6_Node000005_Node000002" class="edge">
<title>Node5&#45;&gt;Node2</title>
<g id="a_edge6_Node000005_Node000002"><a xlink:title=" ">
<path fill="none" stroke="#63b8ff" d="M69.68,-44.66C69.68,-35.93 69.68,-25.99 69.68,-19.09"/>
<polygon fill="#63b8ff" stroke="#63b8ff" points="66.18,-44.75 69.68,-54.75 73.18,-44.75 66.18,-44.75"/>
</a>
</g>
</g>
<!-- Node5&#45;&gt;Node4 -->
<g id="edge7_Node000005_Node000004" class="edge">
<title>Node5&#45;&gt;Node4</title>
<g id="a_edge7_Node000005_Node000004"><a xlink:title=" ">
<path fill="none" stroke="#63b8ff" d="M101.24,-51.29C126.64,-41.47 161.69,-27.91 184.27,-19.17"/>
<polygon fill="#63b8ff" stroke="#63b8ff" points="99.76,-48.11 91.7,-54.98 102.28,-54.64 99.76,-48.11"/>
</a>
</g>
</g>
</g>
</svg>

<g id="navigator" transform="translate(0 0)" fill="#404254">
  <rect fill="#f2f5e9" fill-opacity="0.5" stroke="#606060" stroke-width=".5" x="0" y="0" width="60" height="60"/>
  <use id="zoomplus" xlink:href="#zoomPlus" x="17" y="9" onmousedown="handleZoom(evt,'in')"/>
  <use id="zoomminus" xlink:href="#zoomMin" x="42" y="9" onmousedown="handleZoom(evt,'out')"/>
  <use id="reset" xlink:href="#resetDef" x="30" y="36" onmousedown="handleReset()"/>
   <use id="arrowup" xlink:href="#arrowUp" x="0" y="0" onmousedown="handlePan(0,-1)"/>
  <use id="arrowright" xlink:href="#arrowRight" x="0" y="0" onmousedown="handlePan(1,0)"/>
  <use id="arrowdown" xlink:href="#arrowDown" x="0" y="0" onmousedown="handlePan(0,1)"/>
  <use id="arrowleft" xlink:href="#arrowLeft" x="0" y="0" onmousedown="handlePan(-1,0)"/>
</g>
<svg viewBox="0 0 15 15" width="100%" height="30px" preserveAspectRatio="xMaxYMin meet">
 <g id="arrow_out" transform="scale(0.3 0.3)">
  <a xlink:href="atril_2cut-n-paste_2toolbar-editor_2egg-toolbars-model_8h__dep__incl_org.svg" target="_base">
   <rect id="button" ry="5" rx="5" y="6" x="6" height="38" width="38"
        fill="#f2f5e9" fill-opacity="0.5" stroke="#606060" stroke-width="1.0"/>
   <path id="arrow"
     d="M 11.500037,31.436501 C 11.940474,20.09759 22.043105,11.32322 32.158766,21.979434 L 37.068811,17.246167 C 37.068811,17.246167 37.088388,32 37.088388,32 L 22.160133,31.978069 C 22.160133,31.978069 26.997745,27.140456 26.997745,27.140456 C 18.528582,18.264221 13.291696,25.230495 11.500037,31.436501 z"
     style="fill:#404040;"/>
  </a>
 </g>
</svg>

<style type='text/css'>
<![CDATA[
[data-mouse-over-selected='false'] { opacity: 0.7; }
[data-mouse-over-selected='true']  { opacity: 1.0; }
]]>
</style>
<script type="application/ecmascript"><![CDATA[
document.addEventListener('DOMContentLoaded', (event) => {
  highlightEdges();
  highlightAdjacentNodes();
});
]]></script>
</svg>
