<?xml version="1.0" encoding="UTF-8" standalone="no"?>
<!DOCTYPE svg PUBLIC "-//W3C//DTD SVG 1.1//EN"
 "http://www.w3.org/Graphics/SVG/1.1/DTD/svg11.dtd">
<!-- Generated by graphviz version 2.43.0 (0)
 -->
<!-- Title: button&#45;widget.c Pages: 1 -->
<!--zoomable 357 -->

<svg id="main" version="1.1" xmlns="http://www.w3.org/2000/svg" xmlns:xlink="http://www.w3.org/1999/xlink" xml:space="preserve" onload="init(evt)">

<style type="text/css"><![CDATA[
.node, .edge {opacity: 0.7;}
.node.selected, .edge.selected {opacity: 1;}
.edge:hover path { stroke: red; }
.edge:hover polygon { stroke: red; fill: red; }
]]></style>

<defs>
  <circle id="rim" cx="0" cy="0" r="7"/>
  <circle id="rim2" cx="0" cy="0" r="3.5"/>
  <g id="zoomPlus">
    <use xlink:href="#rim" fill="#404040"><set attributeName="fill" to="#808080" begin="zoomplus.mouseover" end="zoomplus.mouseout"/></use>
    <path d="M-4,0h8M0,-4v8" fill="none" stroke="white" stroke-width="1.5" pointer-events="none"/>
  </g>
  <g id="zoomMin">
    <use xlink:href="#rim" fill="#404040"><set attributeName="fill" to="#808080" begin="zoomminus.mouseover" end="zoomminus.mouseout"/></use>
    <path d="M-4,0h8" fill="none" stroke="white" stroke-width="1.5" pointer-events="none"/>
  </g>
  <g id="arrowUp" transform="translate(30 24)">
    <use xlink:href="#rim"/>
    <path pointer-events="none" fill="none" stroke="white" stroke-width="1.5" d="M0,-3.0v7 M-2.5,-0.5L0,-3.0L2.5,-0.5"/>
  </g>
  <g id="arrowRight" transform="rotate(90) translate(36 -43)">
    <use xlink:href="#rim"/>
    <path pointer-events="none" fill="none" stroke="white" stroke-width="1.5" d="M0,-3.0v7 M-2.5,-0.5L0,-3.0L2.5,-0.5"/>
  </g>
  <g id="arrowDown" transform="rotate(180) translate(-30 -48)">
    <use xlink:href="#rim"/>
    <path pointer-events="none" fill="none" stroke="white" stroke-width="1.5" d="M0,-3.0v7 M-2.5,-0.5L0,-3.0L2.5,-0.5"/>
  </g>
  <g id="arrowLeft" transform="rotate(270) translate(-36 17)">
    <use xlink:href="#rim"/>
    <path pointer-events="none" fill="none" stroke="white" stroke-width="1.5" d="M0,-3.0v7 M-2.5,-0.5L0,-3.0L2.5,-0.5"/>
  </g>
  <g id="resetDef">
    <use xlink:href="#rim2" fill="#404040"><set attributeName="fill" to="#808080" begin="reset.mouseover" end="reset.mouseout"/></use>
  </g>
</defs>
<script type="application/ecmascript">
var viewWidth = 1555;
var viewHeight = 357;
var sectionId = 'dynsection-0';
</script>
<script type="application/ecmascript" xlink:href="svg.min.js"/>
<svg id="graph" class="graph">
<g id="viewport">
<title>button&#45;widget.c</title>
<!-- Node1 -->
<g id="Node000001" class="node">
<title>Node1</title>
<g id="a_Node000001"><a xlink:title=" ">
<polygon fill="#999999" stroke="#666666" points="836.12,-349 743.12,-349 743.12,-330 836.12,-330 836.12,-349"/>
<text text-anchor="middle" x="789.62" y="-337" font-family="Helvetica,sans-Serif" font-size="10.00">button&#45;widget.c</text>
</a>
</g>
</g>
<!-- Node2 -->
<g id="Node000002" class="node">
<title>Node2</title>
<g id="a_Node000002"><a xlink:title=" ">
<polygon fill="#e0e0e0" stroke="#999999" points="114.12,-129 59.12,-129 59.12,-110 114.12,-110 114.12,-129"/>
<text text-anchor="middle" x="86.62" y="-117" font-family="Helvetica,sans-Serif" font-size="10.00">config.h</text>
</a>
</g>
</g>
<!-- Node1&#45;&gt;Node2 -->
<g id="edge1_Node000001_Node000002" class="edge">
<title>Node1&#45;&gt;Node2</title>
<g id="a_edge1_Node000001_Node000002"><a xlink:title=" ">
<path fill="none" stroke="#63b8ff" d="M742.93,-337.81C595.68,-335.34 147.49,-325.28 90.62,-294 31.51,-261.49 -22.93,-223.53 10.62,-165 19.11,-150.2 34.63,-139.85 49.44,-132.88"/>
<polygon fill="#63b8ff" stroke="#63b8ff" points="51.19,-135.94 59,-128.78 48.43,-129.51 51.19,-135.94"/>
</a>
</g>
</g>
<!-- Node3 -->
<g id="Node000003" class="node">
<title>Node3</title>
<g id="a_Node000003"><a xlink:title=" ">
<polygon fill="#e0e0e0" stroke="#999999" points="909.12,-294 856.12,-294 856.12,-275 909.12,-275 909.12,-294"/>
<text text-anchor="middle" x="882.62" y="-282" font-family="Helvetica,sans-Serif" font-size="10.00">string.h</text>
</a>
</g>
</g>
<!-- Node1&#45;&gt;Node3 -->
<g id="edge2_Node000001_Node000003" class="edge">
<title>Node1&#45;&gt;Node3</title>
<g id="a_edge2_Node000001_Node000003"><a xlink:title=" ">
<path fill="none" stroke="#63b8ff" d="M804.56,-329.98C819.12,-321.69 841.49,-308.94 858.56,-299.22"/>
<polygon fill="#63b8ff" stroke="#63b8ff" points="860.45,-302.16 867.41,-294.17 856.99,-296.08 860.45,-302.16"/>
</a>
</g>
</g>
<!-- Node4 -->
<g id="Node000004" class="node">
<title>Node4</title>
<g id="a_Node000004"><a xlink:title=" ">
<polygon fill="#e0e0e0" stroke="#999999" points="1001.62,-294 927.62,-294 927.62,-275 1001.62,-275 1001.62,-294"/>
<text text-anchor="middle" x="964.62" y="-282" font-family="Helvetica,sans-Serif" font-size="10.00">glib/gi18n.h</text>
</a>
</g>
</g>
<!-- Node1&#45;&gt;Node4 -->
<g id="edge3_Node000001_Node000004" class="edge">
<title>Node1&#45;&gt;Node4</title>
<g id="a_edge3_Node000001_Node000004"><a xlink:title=" ">
<path fill="none" stroke="#63b8ff" d="M817.74,-329.98C847.25,-321.05 893.81,-306.94 926.59,-297.02"/>
<polygon fill="#63b8ff" stroke="#63b8ff" points="927.73,-300.33 936.29,-294.08 925.7,-293.63 927.73,-300.33"/>
</a>
</g>
</g>
<!-- Node5 -->
<g id="Node000005" class="node">
<title>Node5</title>
<g id="a_Node000005"><a xlink:title=" ">
<polygon fill="#e0e0e0" stroke="#999999" points="1127.62,-294 1019.62,-294 1019.62,-275 1127.62,-275 1127.62,-294"/>
<text text-anchor="middle" x="1073.62" y="-282" font-family="Helvetica,sans-Serif" font-size="10.00">gdk/gdkkeysyms.h</text>
</a>
</g>
</g>
<!-- Node1&#45;&gt;Node5 -->
<g id="edge4_Node000001_Node000005" class="edge">
<title>Node1&#45;&gt;Node5</title>
<g id="a_edge4_Node000001_Node000005"><a xlink:title=" ">
<path fill="none" stroke="#63b8ff" d="M835.25,-329.98C884.89,-320.72 964.29,-305.9 1017.66,-295.94"/>
<polygon fill="#63b8ff" stroke="#63b8ff" points="1018.45,-299.36 1027.64,-294.08 1017.16,-292.48 1018.45,-299.36"/>
</a>
</g>
</g>
<!-- Node6 -->
<g id="Node000006" class="node">
<title>Node6</title>
<g id="a_Node000006"><a xlink:title=" ">
<polygon fill="#e0e0e0" stroke="#999999" points="287.62,-129 227.62,-129 227.62,-110 287.62,-110 287.62,-129"/>
<text text-anchor="middle" x="257.62" y="-117" font-family="Helvetica,sans-Serif" font-size="10.00">gtk/gtk.h</text>
</a>
</g>
</g>
<!-- Node1&#45;&gt;Node6 -->
<g id="edge5_Node000001_Node000006" class="edge">
<title>Node1&#45;&gt;Node6</title>
<g id="a_edge5_Node000001_Node000006"><a xlink:title=" ">
<path fill="none" stroke="#63b8ff" d="M742.83,-337.46C667.95,-334.87 517.07,-325.78 393.62,-294 331.68,-278.05 300.81,-288.77 260.62,-239 237.65,-210.55 245.12,-164.5 251.85,-138.99"/>
<polygon fill="#63b8ff" stroke="#63b8ff" points="255.28,-139.72 254.68,-129.14 248.55,-137.78 255.28,-139.72"/>
</a>
</g>
</g>
<!-- Node7 -->
<g id="Node000007" class="node">
<title>Node7</title>
<g id="a_Node000007"><a xlink:title=" ">
<polygon fill="#e0e0e0" stroke="#999999" points="1211.12,-294 1146.12,-294 1146.12,-275 1211.12,-275 1211.12,-294"/>
<text text-anchor="middle" x="1178.62" y="-282" font-family="Helvetica,sans-Serif" font-size="10.00">gdk/gdk.h</text>
</a>
</g>
</g>
<!-- Node1&#45;&gt;Node7 -->
<g id="edge6_Node000001_Node000007" class="edge">
<title>Node1&#45;&gt;Node7</title>
<g id="a_edge6_Node000001_Node000007"><a xlink:title=" ">
<path fill="none" stroke="#63b8ff" d="M836.36,-333.59C901.26,-326.53 1022.54,-312.48 1136.19,-293.95"/>
<polygon fill="#63b8ff" stroke="#63b8ff" points="1136.81,-297.4 1146.11,-292.32 1135.67,-290.49 1136.81,-297.4"/>
</a>
</g>
</g>
<!-- Node8 -->
<g id="Node000008" class="node">
<title>Node8</title>
<g id="a_Node000008"><a xlink:title=" ">
<polygon fill="#e0e0e0" stroke="#999999" points="1300.12,-294 1229.12,-294 1229.12,-275 1300.12,-275 1300.12,-294"/>
<text text-anchor="middle" x="1264.62" y="-282" font-family="Helvetica,sans-Serif" font-size="10.00">gdk/gdkx.h</text>
</a>
</g>
</g>
<!-- Node1&#45;&gt;Node8 -->
<g id="edge7_Node000001_Node000008" class="edge">
<title>Node1&#45;&gt;Node8</title>
<g id="a_edge7_Node000001_Node000008"><a xlink:title=" ">
<path fill="none" stroke="#63b8ff" d="M836.35,-335.03C913.85,-328.98 1074.06,-315.22 1218.7,-294.18"/>
<polygon fill="#63b8ff" stroke="#63b8ff" points="1219.26,-297.63 1228.65,-292.72 1218.25,-290.71 1219.26,-297.63"/>
</a>
</g>
</g>
<!-- Node9 -->
<g id="Node000009" class="node">
<title>Node9</title>
<g id="a_Node000009"><a xlink:href="button-widget_8h.html" target="_top" xlink:title=" ">
<polygon fill="white" stroke="#666666" points="587.62,-184 493.62,-184 493.62,-165 587.62,-165 587.62,-184"/>
<text text-anchor="middle" x="540.62" y="-172" font-family="Helvetica,sans-Serif" font-size="10.00">button&#45;widget.h</text>
</a>
</g>
</g>
<!-- Node1&#45;&gt;Node9 -->
<g id="edge8_Node000001_Node000009" class="edge">
<title>Node1&#45;&gt;Node9</title>
<g id="a_edge8_Node000001_Node000009"><a xlink:title=" ">
<path fill="none" stroke="#63b8ff" d="M768.33,-330C749.49,-322.01 721.64,-309.05 699.62,-294 659.37,-266.48 658.04,-248.7 618.62,-220 602.34,-208.14 582.63,-196.92 567.09,-188.71"/>
<polygon fill="#63b8ff" stroke="#63b8ff" points="568.52,-185.51 558.03,-184.01 565.3,-191.72 568.52,-185.51"/>
</a>
</g>
</g>
<!-- Node10 -->
<g id="Node000010" class="node">
<title>Node10</title>
<g id="a_Node000010"><a xlink:href="panel-enums_8h.html" target="_top" xlink:title=" ">
<polygon fill="white" stroke="#666666" points="585.12,-129 496.12,-129 496.12,-110 585.12,-110 585.12,-129"/>
<text text-anchor="middle" x="540.62" y="-117" font-family="Helvetica,sans-Serif" font-size="10.00">panel&#45;enums.h</text>
</a>
</g>
</g>
<!-- Node1&#45;&gt;Node10 -->
<g id="edge40_Node000001_Node000010" class="edge">
<title>Node1&#45;&gt;Node10</title>
<g id="a_edge40_Node000001_Node000010"><a xlink:title=" ">
<path fill="none" stroke="#63b8ff" d="M780.56,-329.99C753.26,-304.44 669.22,-226.38 596.62,-165 584.65,-154.88 570.87,-143.92 559.97,-135.41"/>
<polygon fill="#63b8ff" stroke="#63b8ff" points="561.98,-132.54 551.94,-129.17 557.69,-138.07 561.98,-132.54"/>
</a>
</g>
</g>
<!-- Node12 -->
<g id="Node000012" class="node">
<title>Node12</title>
<g id="a_Node000012"><a xlink:href="panel-enums-gsettings_8h.html" target="_top" xlink:title=" ">
<polygon fill="white" stroke="#666666" points="706.62,-74 568.62,-74 568.62,-55 706.62,-55 706.62,-74"/>
<text text-anchor="middle" x="637.62" y="-62" font-family="Helvetica,sans-Serif" font-size="10.00">panel&#45;enums&#45;gsettings.h</text>
</a>
</g>
</g>
<!-- Node1&#45;&gt;Node12 -->
<g id="edge41_Node000001_Node000012" class="edge">
<title>Node1&#45;&gt;Node12</title>
<g id="a_edge41_Node000001_Node000012"><a xlink:title=" ">
<path fill="none" stroke="#63b8ff" d="M789.62,-329.82C789.62,-311.48 789.62,-267.44 789.62,-230.5 789.62,-230.5 789.62,-230.5 789.62,-173.5 789.62,-120.83 728.23,-91.49 683.48,-77.09"/>
<polygon fill="#63b8ff" stroke="#63b8ff" points="684.23,-73.66 673.64,-74.08 682.18,-80.36 684.23,-73.66"/>
</a>
</g>
</g>
<!-- Node13 -->
<g id="Node000013" class="node">
<title>Node13</title>
<g id="a_Node000013"><a xlink:href="panel-widget_8h.html" target="_top" xlink:title=" ">
<polygon fill="white" stroke="#666666" points="492.12,-294 403.12,-294 403.12,-275 492.12,-275 492.12,-294"/>
<text text-anchor="middle" x="447.62" y="-282" font-family="Helvetica,sans-Serif" font-size="10.00">panel&#45;widget.h</text>
</a>
</g>
</g>
<!-- Node1&#45;&gt;Node13 -->
<g id="edge14_Node000001_Node000013" class="edge">
<title>Node1&#45;&gt;Node13</title>
<g id="a_edge14_Node000001_Node000013"><a xlink:title=" ">
<path fill="none" stroke="#63b8ff" d="M742.79,-331.24C680.1,-321.53 569.11,-304.33 502.55,-294.01"/>
<polygon fill="#63b8ff" stroke="#63b8ff" points="502.68,-290.49 492.27,-292.42 501.61,-297.41 502.68,-290.49"/>
</a>
</g>
</g>
<!-- Node15 -->
<g id="Node000015" class="node">
<title>Node15</title>
<g id="a_Node000015"><a xlink:href="panel-types_8h.html" target="_top" xlink:title=" ">
<polygon fill="white" stroke="#666666" points="695.12,-129 612.12,-129 612.12,-110 695.12,-110 695.12,-129"/>
<text text-anchor="middle" x="653.62" y="-117" font-family="Helvetica,sans-Serif" font-size="10.00">panel&#45;types.h</text>
</a>
</g>
</g>
<!-- Node1&#45;&gt;Node15 -->
<g id="edge29_Node000001_Node000015" class="edge">
<title>Node1&#45;&gt;Node15</title>
<g id="a_edge29_Node000001_Node000015"><a xlink:title=" ">
<path fill="none" stroke="#63b8ff" d="M785.7,-329.91C776.51,-310.03 752.44,-259.52 727.62,-220 708.46,-189.49 682.72,-156.34 667.2,-137.05"/>
<polygon fill="#63b8ff" stroke="#63b8ff" points="669.87,-134.78 660.85,-129.22 664.43,-139.19 669.87,-134.78"/>
</a>
</g>
</g>
<!-- Node18 -->
<g id="Node000018" class="node">
<title>Node18</title>
<g id="a_Node000018"><a xlink:href="panel-util_8h.html" target="_top" xlink:title=" ">
<polygon fill="white" stroke="#666666" points="191.62,-294 119.62,-294 119.62,-275 191.62,-275 191.62,-294"/>
<text text-anchor="middle" x="155.62" y="-282" font-family="Helvetica,sans-Serif" font-size="10.00">panel&#45;util.h</text>
</a>
</g>
</g>
<!-- Node1&#45;&gt;Node18 -->
<g id="edge30_Node000001_Node000018" class="edge">
<title>Node1&#45;&gt;Node18</title>
<g id="a_edge30_Node000001_Node000018"><a xlink:title=" ">
<path fill="none" stroke="#63b8ff" d="M742.92,-336.41C643.7,-331.64 404.7,-318.45 205.62,-294 204.37,-293.85 203.1,-293.68 201.82,-293.51"/>
<polygon fill="#63b8ff" stroke="#63b8ff" points="202.28,-290.04 191.89,-292.07 201.28,-296.97 202.28,-290.04"/>
</a>
</g>
</g>
<!-- Node20 -->
<g id="Node000020" class="node">
<title>Node20</title>
<g id="a_Node000020"><a xlink:href="panel-config-global_8h.html" target="_top" xlink:title=" ">
<polygon fill="white" stroke="#666666" points="937.12,-184 818.12,-184 818.12,-165 937.12,-165 937.12,-184"/>
<text text-anchor="middle" x="877.62" y="-172" font-family="Helvetica,sans-Serif" font-size="10.00">panel&#45;config&#45;global.h</text>
</a>
</g>
</g>
<!-- Node1&#45;&gt;Node20 -->
<g id="edge33_Node000001_Node000020" class="edge">
<title>Node1&#45;&gt;Node20</title>
<g id="a_edge33_Node000001_Node000020"><a xlink:title=" ">
<path fill="none" stroke="#63b8ff" d="M794.35,-329.74C808.26,-303.98 849.21,-228.13 868,-193.33"/>
<polygon fill="#63b8ff" stroke="#63b8ff" points="871.2,-194.77 872.87,-184.31 865.04,-191.44 871.2,-194.77"/>
</a>
</g>
</g>
<!-- Node21 -->
<g id="Node000021" class="node">
<title>Node21</title>
<g id="a_Node000021"><a xlink:href="panel-marshal_8h.html" target="_top" xlink:title=" ">
<polygon fill="white" stroke="#666666" points="1414.62,-294 1318.62,-294 1318.62,-275 1414.62,-275 1414.62,-294"/>
<text text-anchor="middle" x="1366.62" y="-282" font-family="Helvetica,sans-Serif" font-size="10.00">panel&#45;marshal.h</text>
</a>
</g>
</g>
<!-- Node1&#45;&gt;Node21 -->
<g id="edge35_Node000001_Node000021" class="edge">
<title>Node1&#45;&gt;Node21</title>
<g id="a_edge35_Node000001_Node000021"><a xlink:title=" ">
<path fill="none" stroke="#63b8ff" d="M836.33,-335.49C925.86,-329.5 1128.01,-314.95 1308.51,-294.06"/>
<polygon fill="#63b8ff" stroke="#63b8ff" points="1308.92,-297.54 1318.45,-292.9 1308.11,-290.58 1308.92,-297.54"/>
</a>
</g>
</g>
<!-- Node23 -->
<g id="Node000023" class="node">
<title>Node23</title>
<g id="a_Node000023"><a xlink:href="panel-typebuiltins_8h.html" target="_top" xlink:title=" ">
<polygon fill="white" stroke="#666666" points="1546.62,-294 1432.62,-294 1432.62,-275 1546.62,-275 1546.62,-294"/>
<text text-anchor="middle" x="1489.62" y="-282" font-family="Helvetica,sans-Serif" font-size="10.00">panel&#45;typebuiltins.h</text>
</a>
</g>
</g>
<!-- Node1&#45;&gt;Node23 -->
<g id="edge37_Node000001_Node000023" class="edge">
<title>Node1&#45;&gt;Node23</title>
<g id="a_edge37_Node000001_Node000023"><a xlink:title=" ">
<path fill="none" stroke="#63b8ff" d="M836.23,-336.16C939.71,-330.75 1196.63,-316.24 1422.36,-294.07"/>
<polygon fill="#63b8ff" stroke="#63b8ff" points="1422.8,-297.54 1432.41,-293.07 1422.11,-290.58 1422.8,-297.54"/>
</a>
</g>
</g>
<!-- Node24 -->
<g id="Node000024" class="node">
<title>Node24</title>
<g id="a_Node000024"><a xlink:href="panel-globals_8h.html" target="_top" xlink:title=" ">
<polygon fill="white" stroke="#666666" points="111.62,-184 19.62,-184 19.62,-165 111.62,-165 111.62,-184"/>
<text text-anchor="middle" x="65.62" y="-172" font-family="Helvetica,sans-Serif" font-size="10.00">panel&#45;globals.h</text>
</a>
</g>
</g>
<!-- Node1&#45;&gt;Node24 -->
<g id="edge38_Node000001_Node000024" class="edge">
<title>Node1&#45;&gt;Node24</title>
<g id="a_edge38_Node000001_Node000024"><a xlink:title=" ">
<path fill="none" stroke="#63b8ff" d="M742.87,-338.32C597.67,-337.37 161.21,-331.4 110.62,-294 78.73,-270.42 69.44,-221.3 66.73,-194.29"/>
<polygon fill="#63b8ff" stroke="#63b8ff" points="70.21,-193.9 65.93,-184.21 63.24,-194.46 70.21,-193.9"/>
</a>
</g>
</g>
<!-- Node9&#45;&gt;Node6 -->
<g id="edge9_Node000009_Node000006" class="edge">
<title>Node9&#45;&gt;Node6</title>
<g id="a_edge9_Node000009_Node000006"><a xlink:title=" ">
<path fill="none" stroke="#63b8ff" d="M495.15,-164.98C440.52,-154.75 349.71,-137.75 297.63,-127.99"/>
<polygon fill="#63b8ff" stroke="#63b8ff" points="298.22,-124.54 287.75,-126.14 296.94,-131.42 298.22,-124.54"/>
</a>
</g>
</g>
<!-- Node9&#45;&gt;Node10 -->
<g id="edge10_Node000009_Node000010" class="edge">
<title>Node9&#45;&gt;Node10</title>
<g id="a_edge10_Node000009_Node000010"><a xlink:title=" ">
<path fill="none" stroke="#63b8ff" d="M540.62,-164.75C540.62,-157.8 540.62,-147.85 540.62,-139.13"/>
<polygon fill="#63b8ff" stroke="#63b8ff" points="544.12,-139.09 540.62,-129.09 537.12,-139.09 544.12,-139.09"/>
</a>
</g>
</g>
<!-- Node11 -->
<g id="Node000011" class="node">
<title>Node11</title>
<g id="a_Node000011"><a xlink:title=" ">
<polygon fill="#e0e0e0" stroke="#999999" points="610.62,-19 566.62,-19 566.62,0 610.62,0 610.62,-19"/>
<text text-anchor="middle" x="588.62" y="-7" font-family="Helvetica,sans-Serif" font-size="10.00">glib.h</text>
</a>
</g>
</g>
<!-- Node10&#45;&gt;Node11 -->
<g id="edge11_Node000010_Node000011" class="edge">
<title>Node10&#45;&gt;Node11</title>
<g id="a_edge11_Node000010_Node000011"><a xlink:title=" ">
<path fill="none" stroke="#63b8ff" d="M542.44,-109.58C545.19,-97.02 551.01,-73.58 559.62,-55 564.08,-45.4 570.37,-35.46 575.95,-27.41"/>
<polygon fill="#63b8ff" stroke="#63b8ff" points="578.82,-29.42 581.82,-19.26 573.14,-25.33 578.82,-29.42"/>
</a>
</g>
</g>
<!-- Node10&#45;&gt;Node12 -->
<g id="edge12_Node000010_Node000012" class="edge">
<title>Node10&#45;&gt;Node12</title>
<g id="a_edge12_Node000010_Node000012"><a xlink:title=" ">
<path fill="none" stroke="#63b8ff" d="M556.21,-109.98C571.39,-101.69 594.72,-88.94 612.52,-79.22"/>
<polygon fill="#63b8ff" stroke="#63b8ff" points="614.66,-82.04 621.75,-74.17 611.3,-75.89 614.66,-82.04"/>
</a>
</g>
</g>
<!-- Node12&#45;&gt;Node11 -->
<g id="edge13_Node000012_Node000011" class="edge">
<title>Node12&#45;&gt;Node11</title>
<g id="a_edge13_Node000012_Node000011"><a xlink:title=" ">
<path fill="none" stroke="#63b8ff" d="M629.53,-54.75C622.47,-47.11 612.04,-35.82 603.47,-26.56"/>
<polygon fill="#63b8ff" stroke="#63b8ff" points="605.92,-24.06 596.56,-19.09 600.78,-28.81 605.92,-24.06"/>
</a>
</g>
</g>
<!-- Node13&#45;&gt;Node6 -->
<g id="edge15_Node000013_Node000006" class="edge">
<title>Node13&#45;&gt;Node6</title>
<g id="a_edge15_Node000013_Node000006"><a xlink:title=" ">
<path fill="none" stroke="#63b8ff" d="M402.97,-277.47C358.16,-270.48 293.44,-257.5 276.62,-239 251.72,-211.6 252.24,-165.14 254.88,-139.28"/>
<polygon fill="#63b8ff" stroke="#63b8ff" points="258.36,-139.64 256.12,-129.29 251.42,-138.78 258.36,-139.64"/>
</a>
</g>
</g>
<!-- Node13&#45;&gt;Node9 -->
<g id="edge17_Node000013_Node000009" class="edge">
<title>Node13&#45;&gt;Node9</title>
<g id="a_edge17_Node000013_Node000009"><a xlink:title=" ">
<path fill="none" stroke="#63b8ff" d="M448.25,-274.8C449.6,-261.66 453.78,-236.54 466.62,-220 477.33,-206.21 493.61,-195.75 508.18,-188.45"/>
<polygon fill="#63b8ff" stroke="#63b8ff" points="509.87,-191.53 517.43,-184.11 506.89,-185.19 509.87,-191.53"/>
</a>
</g>
</g>
<!-- Node14 -->
<g id="Node000014" class="node">
<title>Node14</title>
<g id="a_Node000014"><a xlink:title=" ">
<polygon fill="#e0e0e0" stroke="#999999" points="609.12,-239 476.12,-239 476.12,-220 609.12,-220 609.12,-239"/>
<text text-anchor="middle" x="542.62" y="-227" font-family="Helvetica,sans-Serif" font-size="10.00">gdk&#45;pixbuf/gdk&#45;pixbuf.h</text>
</a>
</g>
</g>
<!-- Node13&#45;&gt;Node14 -->
<g id="edge16_Node000013_Node000014" class="edge">
<title>Node13&#45;&gt;Node14</title>
<g id="a_edge16_Node000013_Node000014"><a xlink:title=" ">
<path fill="none" stroke="#63b8ff" d="M462.89,-274.98C477.76,-266.69 500.61,-253.94 518.04,-244.22"/>
<polygon fill="#63b8ff" stroke="#63b8ff" points="520.05,-247.1 527.08,-239.17 516.64,-240.99 520.05,-247.1"/>
</a>
</g>
</g>
<!-- Node13&#45;&gt;Node15 -->
<g id="edge18_Node000013_Node000015" class="edge">
<title>Node13&#45;&gt;Node15</title>
<g id="a_edge18_Node000013_Node000015"><a xlink:title=" ">
<path fill="none" stroke="#63b8ff" d="M492.39,-283.51C530.76,-281.1 585.01,-271.54 618.62,-239 646.15,-212.36 652.3,-165.22 653.51,-139.15"/>
<polygon fill="#63b8ff" stroke="#63b8ff" points="657.01,-139.18 653.77,-129.09 650.01,-139 657.01,-139.18"/>
</a>
</g>
</g>
<!-- Node16 -->
<g id="Node000016" class="node">
<title>Node16</title>
<g id="a_Node000016"><a xlink:href="panel-background_8h.html" target="_top" xlink:title=" ">
<polygon fill="white" stroke="#666666" points="437.12,-184 324.12,-184 324.12,-165 437.12,-165 437.12,-184"/>
<text text-anchor="middle" x="380.62" y="-172" font-family="Helvetica,sans-Serif" font-size="10.00">panel&#45;background.h</text>
</a>
</g>
</g>
<!-- Node13&#45;&gt;Node16 -->
<g id="edge19_Node000013_Node000016" class="edge">
<title>Node13&#45;&gt;Node16</title>
<g id="a_edge19_Node000013_Node000016"><a xlink:title=" ">
<path fill="none" stroke="#63b8ff" d="M442.14,-274.66C431.04,-256.77 405.75,-216 391.29,-192.69"/>
<polygon fill="#63b8ff" stroke="#63b8ff" points="394.24,-190.81 385.99,-184.16 388.29,-194.5 394.24,-190.81"/>
</a>
</g>
</g>
<!-- Node17 -->
<g id="Node000017" class="node">
<title>Node17</title>
<g id="a_Node000017"><a xlink:href="panel-toplevel_8h.html" target="_top" xlink:title=" ">
<polygon fill="white" stroke="#666666" points="381.62,-239 285.62,-239 285.62,-220 381.62,-220 381.62,-239"/>
<text text-anchor="middle" x="333.62" y="-227" font-family="Helvetica,sans-Serif" font-size="10.00">panel&#45;toplevel.h</text>
</a>
</g>
</g>
<!-- Node13&#45;&gt;Node17 -->
<g id="edge25_Node000013_Node000017" class="edge">
<title>Node13&#45;&gt;Node17</title>
<g id="a_edge25_Node000013_Node000017"><a xlink:title=" ">
<path fill="none" stroke="#63b8ff" d="M429.31,-274.98C410.97,-266.46 382.51,-253.23 361.4,-243.41"/>
<polygon fill="#63b8ff" stroke="#63b8ff" points="362.82,-240.21 352.27,-239.17 359.86,-246.56 362.82,-240.21"/>
</a>
</g>
</g>
<!-- Node16&#45;&gt;Node2 -->
<g id="edge20_Node000016_Node000002" class="edge">
<title>Node16&#45;&gt;Node2</title>
<g id="a_edge20_Node000016_Node000002"><a xlink:title=" ">
<path fill="none" stroke="#63b8ff" d="M333.39,-164.98C275.26,-154.51 177.72,-136.92 124.34,-127.3"/>
<polygon fill="#63b8ff" stroke="#63b8ff" points="124.74,-123.82 114.28,-125.49 123.5,-130.7 124.74,-123.82"/>
</a>
</g>
</g>
<!-- Node16&#45;&gt;Node6 -->
<g id="edge22_Node000016_Node000006" class="edge">
<title>Node16&#45;&gt;Node6</title>
<g id="a_edge22_Node000016_Node000006"><a xlink:title=" ">
<path fill="none" stroke="#63b8ff" d="M360.86,-164.98C340.9,-156.38 309.82,-142.99 286.97,-133.15"/>
<polygon fill="#63b8ff" stroke="#63b8ff" points="288.31,-129.91 277.74,-129.17 285.54,-136.34 288.31,-129.91"/>
</a>
</g>
</g>
<!-- Node16&#45;&gt;Node10 -->
<g id="edge23_Node000016_Node000010" class="edge">
<title>Node16&#45;&gt;Node10</title>
<g id="a_edge23_Node000016_Node000010"><a xlink:title=" ">
<path fill="none" stroke="#63b8ff" d="M406.33,-164.98C433.08,-156.13 475.15,-142.19 505.07,-132.28"/>
<polygon fill="#63b8ff" stroke="#63b8ff" points="506.32,-135.55 514.71,-129.08 504.12,-128.9 506.32,-135.55"/>
</a>
</g>
</g>
<!-- Node16&#45;&gt;Node11 -->
<g id="edge21_Node000016_Node000011" class="edge">
<title>Node16&#45;&gt;Node11</title>
<g id="a_edge21_Node000016_Node000011"><a xlink:title=" ">
<path fill="none" stroke="#63b8ff" d="M391.51,-164.97C425.06,-138.68 527.13,-58.69 569.68,-25.34"/>
<polygon fill="#63b8ff" stroke="#63b8ff" points="571.88,-28.07 577.59,-19.15 567.56,-22.56 571.88,-28.07"/>
</a>
</g>
</g>
<!-- Node16&#45;&gt;Node15 -->
<g id="edge24_Node000016_Node000015" class="edge">
<title>Node16&#45;&gt;Node15</title>
<g id="a_edge24_Node000016_Node000015"><a xlink:title=" ">
<path fill="none" stroke="#63b8ff" d="M424.48,-164.98C472.95,-155.58 550.92,-140.44 602.22,-130.48"/>
<polygon fill="#63b8ff" stroke="#63b8ff" points="602.96,-133.9 612.11,-128.56 601.62,-127.03 602.96,-133.9"/>
</a>
</g>
</g>
<!-- Node17&#45;&gt;Node6 -->
<g id="edge26_Node000017_Node000006" class="edge">
<title>Node17&#45;&gt;Node6</title>
<g id="a_edge26_Node000017_Node000006"><a xlink:title=" ">
<path fill="none" stroke="#63b8ff" d="M327.4,-219.66C314.76,-201.69 285.87,-160.64 269.5,-137.38"/>
<polygon fill="#63b8ff" stroke="#63b8ff" points="272.33,-135.32 263.72,-129.16 266.61,-139.35 272.33,-135.32"/>
</a>
</g>
</g>
<!-- Node17&#45;&gt;Node10 -->
<g id="edge28_Node000017_Node000010" class="edge">
<title>Node17&#45;&gt;Node10</title>
<g id="a_edge28_Node000017_Node000010"><a xlink:title=" ">
<path fill="none" stroke="#63b8ff" d="M359.66,-219.92C382.81,-211.88 417.28,-198.89 445.62,-184 473.09,-169.57 502.46,-149.07 521.15,-135.3"/>
<polygon fill="#63b8ff" stroke="#63b8ff" points="523.49,-137.92 529.41,-129.14 519.3,-132.31 523.49,-137.92"/>
</a>
</g>
</g>
<!-- Node17&#45;&gt;Node16 -->
<g id="edge27_Node000017_Node000016" class="edge">
<title>Node17&#45;&gt;Node16</title>
<g id="a_edge27_Node000017_Node000016"><a xlink:title=" ">
<path fill="none" stroke="#63b8ff" d="M341.38,-219.75C348.09,-212.18 357.96,-201.05 366.13,-191.84"/>
<polygon fill="#63b8ff" stroke="#63b8ff" points="368.99,-193.89 373.01,-184.09 363.75,-189.25 368.99,-193.89"/>
</a>
</g>
</g>
<!-- Node18&#45;&gt;Node6 -->
<g id="edge32_Node000018_Node000006" class="edge">
<title>Node18&#45;&gt;Node6</title>
<g id="a_edge32_Node000018_Node000006"><a xlink:title=" ">
<path fill="none" stroke="#63b8ff" d="M145.52,-274.9C132.5,-262.73 112.65,-239.74 122.62,-220 144.25,-177.19 193.95,-148.27 226.63,-133.1"/>
<polygon fill="#63b8ff" stroke="#63b8ff" points="228.07,-136.29 235.77,-129 225.21,-129.9 228.07,-136.29"/>
</a>
</g>
</g>
<!-- Node19 -->
<g id="Node000019" class="node">
<title>Node19</title>
<g id="a_Node000019"><a xlink:title=" ">
<polygon fill="#e0e0e0" stroke="#999999" points="191.12,-239 132.12,-239 132.12,-220 191.12,-220 191.12,-239"/>
<text text-anchor="middle" x="161.62" y="-227" font-family="Helvetica,sans-Serif" font-size="10.00">gio/gio.h</text>
</a>
</g>
</g>
<!-- Node18&#45;&gt;Node19 -->
<g id="edge31_Node000018_Node000019" class="edge">
<title>Node18&#45;&gt;Node19</title>
<g id="a_edge31_Node000018_Node000019"><a xlink:title=" ">
<path fill="none" stroke="#63b8ff" d="M156.61,-274.75C157.4,-267.8 158.53,-257.85 159.51,-249.13"/>
<polygon fill="#63b8ff" stroke="#63b8ff" points="163,-249.42 160.65,-239.09 156.05,-248.63 163,-249.42"/>
</a>
</g>
</g>
<!-- Node20&#45;&gt;Node11 -->
<g id="edge34_Node000020_Node000011" class="edge">
<title>Node20&#45;&gt;Node11</title>
<g id="a_edge34_Node000020_Node000011"><a xlink:title=" ">
<path fill="none" stroke="#63b8ff" d="M868.42,-164.81C854.78,-152.11 828.17,-128.05 803.62,-110 766.46,-82.68 757.2,-74.97 715.62,-55 684.39,-40 646.72,-27.44 620.55,-19.53"/>
<polygon fill="#63b8ff" stroke="#63b8ff" points="621.37,-16.12 610.78,-16.64 619.38,-22.83 621.37,-16.12"/>
</a>
</g>
</g>
<!-- Node22 -->
<g id="Node000022" class="node">
<title>Node22</title>
<g id="a_Node000022"><a xlink:title=" ">
<polygon fill="#e0e0e0" stroke="#999999" points="1405.12,-239 1328.12,-239 1328.12,-220 1405.12,-220 1405.12,-239"/>
<text text-anchor="middle" x="1366.62" y="-227" font-family="Helvetica,sans-Serif" font-size="10.00">glib&#45;object.h</text>
</a>
</g>
</g>
<!-- Node21&#45;&gt;Node22 -->
<g id="edge36_Node000021_Node000022" class="edge">
<title>Node21&#45;&gt;Node22</title>
<g id="a_edge36_Node000021_Node000022"><a xlink:title=" ">
<path fill="none" stroke="#63b8ff" d="M1366.62,-274.75C1366.62,-267.8 1366.62,-257.85 1366.62,-249.13"/>
<polygon fill="#63b8ff" stroke="#63b8ff" points="1370.12,-249.09 1366.62,-239.09 1363.12,-249.09 1370.12,-249.09"/>
</a>
</g>
</g>
<!-- Node24&#45;&gt;Node6 -->
<g id="edge39_Node000024_Node000006" class="edge">
<title>Node24&#45;&gt;Node6</title>
<g id="a_edge39_Node000024_Node000006"><a xlink:title=" ">
<path fill="none" stroke="#63b8ff" d="M96.47,-164.98C129.41,-155.89 181.74,-141.45 217.78,-131.5"/>
<polygon fill="#63b8ff" stroke="#63b8ff" points="218.78,-134.85 227.48,-128.82 216.91,-128.11 218.78,-134.85"/>
</a>
</g>
</g>
</g>
</svg>

<g id="navigator" transform="translate(0 0)" fill="#404254">
  <rect fill="#f2f5e9" fill-opacity="0.5" stroke="#606060" stroke-width=".5" x="0" y="0" width="60" height="60"/>
  <use id="zoomplus" xlink:href="#zoomPlus" x="17" y="9" onmousedown="handleZoom(evt,'in')"/>
  <use id="zoomminus" xlink:href="#zoomMin" x="42" y="9" onmousedown="handleZoom(evt,'out')"/>
  <use id="reset" xlink:href="#resetDef" x="30" y="36" onmousedown="handleReset()"/>
   <use id="arrowup" xlink:href="#arrowUp" x="0" y="0" onmousedown="handlePan(0,-1)"/>
  <use id="arrowright" xlink:href="#arrowRight" x="0" y="0" onmousedown="handlePan(1,0)"/>
  <use id="arrowdown" xlink:href="#arrowDown" x="0" y="0" onmousedown="handlePan(0,1)"/>
  <use id="arrowleft" xlink:href="#arrowLeft" x="0" y="0" onmousedown="handlePan(-1,0)"/>
</g>
<svg viewBox="0 0 15 15" width="100%" height="30px" preserveAspectRatio="xMaxYMin meet">
 <g id="arrow_out" transform="scale(0.3 0.3)">
  <a xlink:href="button-widget_8c__incl_org.svg" target="_base">
   <rect id="button" ry="5" rx="5" y="6" x="6" height="38" width="38"
        fill="#f2f5e9" fill-opacity="0.5" stroke="#606060" stroke-width="1.0"/>
   <path id="arrow"
     d="M 11.500037,31.436501 C 11.940474,20.09759 22.043105,11.32322 32.158766,21.979434 L 37.068811,17.246167 C 37.068811,17.246167 37.088388,32 37.088388,32 L 22.160133,31.978069 C 22.160133,31.978069 26.997745,27.140456 26.997745,27.140456 C 18.528582,18.264221 13.291696,25.230495 11.500037,31.436501 z"
     style="fill:#404040;"/>
  </a>
 </g>
</svg>

<style type='text/css'>
<![CDATA[
[data-mouse-over-selected='false'] { opacity: 0.7; }
[data-mouse-over-selected='true']  { opacity: 1.0; }
]]>
</style>
<script type="application/ecmascript"><![CDATA[
document.addEventListener('DOMContentLoaded', (event) => {
  highlightEdges();
  highlightAdjacentNodes();
});
]]></script>
</svg>
