<?xml version="1.0" encoding="UTF-8" standalone="no"?>
<!DOCTYPE svg PUBLIC "-//W3C//DTD SVG 1.1//EN"
 "http://www.w3.org/Graphics/SVG/1.1/DTD/svg11.dtd">
<!-- Generated by graphviz version 2.43.0 (0)
 -->
<!-- Title: caja&#45;directory&#45;async.c Pages: 1 -->
<svg width="1641pt" height="313pt"
 viewBox="0.00 0.00 1640.50 313.00" xmlns="http://www.w3.org/2000/svg" xmlns:xlink="http://www.w3.org/1999/xlink">
<g id="graph0" class="graph" transform="scale(1 1) rotate(0) translate(4 309)">
<title>caja&#45;directory&#45;async.c</title>
<!-- Node1 -->
<g id="Node000001" class="node">
<title>Node1</title>
<g id="a_Node000001"><a xlink:title=" ">
<polygon fill="#999999" stroke="#666666" points="863,-305 738,-305 738,-286 863,-286 863,-305"/>
<text text-anchor="middle" x="800.5" y="-293" font-family="Helvetica,sans-Serif" font-size="10.00">caja&#45;directory&#45;async.c</text>
</a>
</g>
</g>
<!-- Node2 -->
<g id="Node000002" class="node">
<title>Node2</title>
<g id="a_Node000002"><a xlink:title=" ">
<polygon fill="#e0e0e0" stroke="#999999" points="55,-250 0,-250 0,-231 55,-231 55,-250"/>
<text text-anchor="middle" x="27.5" y="-238" font-family="Helvetica,sans-Serif" font-size="10.00">config.h</text>
</a>
</g>
</g>
<!-- Node1&#45;&gt;Node2 -->
<g id="edge1_Node000001_Node000002" class="edge">
<title>Node1&#45;&gt;Node2</title>
<g id="a_edge1_Node000001_Node000002"><a xlink:title=" ">
<path fill="none" stroke="#63b8ff" d="M737.64,-293.61C610.79,-291.16 315.33,-282.2 69.5,-250 68.21,-249.83 66.91,-249.65 65.59,-249.45"/>
<polygon fill="#63b8ff" stroke="#63b8ff" points="65.87,-245.95 55.42,-247.71 64.69,-252.85 65.87,-245.95"/>
</a>
</g>
</g>
<!-- Node3 -->
<g id="Node000003" class="node">
<title>Node3</title>
<g id="a_Node000003"><a xlink:title=" ">
<polygon fill="#e0e0e0" stroke="#999999" points="659.5,-19 599.5,-19 599.5,0 659.5,0 659.5,-19"/>
<text text-anchor="middle" x="629.5" y="-7" font-family="Helvetica,sans-Serif" font-size="10.00">gtk/gtk.h</text>
</a>
</g>
</g>
<!-- Node1&#45;&gt;Node3 -->
<g id="edge2_Node000001_Node000003" class="edge">
<title>Node1&#45;&gt;Node3</title>
<g id="a_edge2_Node000001_Node000003"><a xlink:title=" ">
<path fill="none" stroke="#63b8ff" d="M737.85,-293.9C601.96,-291.95 284.19,-283.82 182.5,-250 132.9,-233.5 83.5,-238.77 83.5,-186.5 83.5,-186.5 83.5,-186.5 83.5,-124 83.5,-92.19 78.03,-75.32 102.5,-55 139.66,-24.14 471.81,-13.94 588.88,-11.29"/>
<polygon fill="#63b8ff" stroke="#63b8ff" points="589.28,-14.79 599.2,-11.07 589.13,-7.79 589.28,-14.79"/>
</a>
</g>
</g>
<!-- Node4 -->
<g id="Node000004" class="node">
<title>Node4</title>
<g id="a_Node000004"><a xlink:title=" ">
<polygon fill="#e0e0e0" stroke="#999999" points="1173,-250 1084,-250 1084,-231 1173,-231 1173,-250"/>
<text text-anchor="middle" x="1128.5" y="-238" font-family="Helvetica,sans-Serif" font-size="10.00">libxml/parser.h</text>
</a>
</g>
</g>
<!-- Node1&#45;&gt;Node4 -->
<g id="edge3_Node000001_Node000004" class="edge">
<title>Node1&#45;&gt;Node4</title>
<g id="a_edge3_Node000001_Node000004"><a xlink:title=" ">
<path fill="none" stroke="#63b8ff" d="M853.2,-285.98C913.75,-276.2 1012.64,-260.22 1073.96,-250.31"/>
<polygon fill="#63b8ff" stroke="#63b8ff" points="1074.52,-253.77 1083.83,-248.72 1073.4,-246.86 1074.52,-253.77"/>
</a>
</g>
</g>
<!-- Node5 -->
<g id="Node000005" class="node">
<title>Node5</title>
<g id="a_Node000005"><a xlink:title=" ">
<polygon fill="#e0e0e0" stroke="#999999" points="1241.5,-250 1191.5,-250 1191.5,-231 1241.5,-231 1241.5,-250"/>
<text text-anchor="middle" x="1216.5" y="-238" font-family="Helvetica,sans-Serif" font-size="10.00">stdio.h</text>
</a>
</g>
</g>
<!-- Node1&#45;&gt;Node5 -->
<g id="edge4_Node000001_Node000005" class="edge">
<title>Node1&#45;&gt;Node5</title>
<g id="a_edge4_Node000001_Node000005"><a xlink:title=" ">
<path fill="none" stroke="#63b8ff" d="M863.06,-289.71C936.95,-283.49 1063.67,-271.08 1181.42,-249.98"/>
<polygon fill="#63b8ff" stroke="#63b8ff" points="1182.11,-253.41 1191.33,-248.18 1180.86,-246.52 1182.11,-253.41"/>
</a>
</g>
</g>
<!-- Node6 -->
<g id="Node000006" class="node">
<title>Node6</title>
<g id="a_Node000006"><a xlink:title=" ">
<polygon fill="#e0e0e0" stroke="#999999" points="1313,-250 1260,-250 1260,-231 1313,-231 1313,-250"/>
<text text-anchor="middle" x="1286.5" y="-238" font-family="Helvetica,sans-Serif" font-size="10.00">stdlib.h</text>
</a>
</g>
</g>
<!-- Node1&#45;&gt;Node6 -->
<g id="edge5_Node000001_Node000006" class="edge">
<title>Node1&#45;&gt;Node6</title>
<g id="a_edge5_Node000001_Node000006"><a xlink:title=" ">
<path fill="none" stroke="#63b8ff" d="M863.08,-290.95C948.37,-285.54 1105.96,-273.44 1249.94,-249.86"/>
<polygon fill="#63b8ff" stroke="#63b8ff" points="1250.55,-253.3 1259.84,-248.21 1249.41,-246.4 1250.55,-253.3"/>
</a>
</g>
</g>
<!-- Node7 -->
<g id="Node000007" class="node">
<title>Node7</title>
<g id="a_Node000007"><a xlink:href="eel-glib-extensions_8h.html" target="_top" xlink:title=" ">
<polygon fill="white" stroke="#666666" points="552,-134.5 415,-134.5 415,-115.5 552,-115.5 552,-134.5"/>
<text text-anchor="middle" x="483.5" y="-122.5" font-family="Helvetica,sans-Serif" font-size="10.00">eel/eel&#45;glib&#45;extensions.h</text>
</a>
</g>
</g>
<!-- Node1&#45;&gt;Node7 -->
<g id="edge6_Node000001_Node000007" class="edge">
<title>Node1&#45;&gt;Node7</title>
<g id="a_edge6_Node000001_Node000007"><a xlink:title=" ">
<path fill="none" stroke="#63b8ff" d="M776.31,-285.88C734.12,-270.41 644.97,-235.7 575.5,-195 548.11,-178.96 519.26,-156.23 501.32,-141.3"/>
<polygon fill="#63b8ff" stroke="#63b8ff" points="503.35,-138.44 493.45,-134.67 498.84,-143.79 503.35,-138.44"/>
</a>
</g>
</g>
<!-- Node10 -->
<g id="Node000010" class="node">
<title>Node10</title>
<g id="a_Node000010"><a xlink:href="caja-directory-notify_8h.html" target="_top" xlink:title=" ">
<polygon fill="white" stroke="#666666" points="1271,-195 1148,-195 1148,-176 1271,-176 1271,-195"/>
<text text-anchor="middle" x="1209.5" y="-183" font-family="Helvetica,sans-Serif" font-size="10.00">caja&#45;directory&#45;notify.h</text>
</a>
</g>
</g>
<!-- Node1&#45;&gt;Node10 -->
<g id="edge9_Node000001_Node000010" class="edge">
<title>Node1&#45;&gt;Node10</title>
<g id="a_edge9_Node000001_Node000010"><a xlink:title=" ">
<path fill="none" stroke="#63b8ff" d="M825.45,-285.94C850.24,-277.32 889.25,-263.39 922.5,-250 941.88,-242.19 945.53,-237.14 965.5,-231 1022.3,-213.54 1088.76,-201.97 1137.96,-195.02"/>
<polygon fill="#63b8ff" stroke="#63b8ff" points="1138.45,-198.49 1147.88,-193.65 1137.49,-191.55 1138.45,-198.49"/>
</a>
</g>
</g>
<!-- Node13 -->
<g id="Node000013" class="node">
<title>Node13</title>
<g id="a_Node000013"><a xlink:href="caja-file-attributes_8h.html" target="_top" xlink:title=" ">
<polygon fill="white" stroke="#666666" points="907.5,-74 791.5,-74 791.5,-55 907.5,-55 907.5,-74"/>
<text text-anchor="middle" x="849.5" y="-62" font-family="Helvetica,sans-Serif" font-size="10.00">caja&#45;file&#45;attributes.h</text>
</a>
</g>
</g>
<!-- Node1&#45;&gt;Node13 -->
<g id="edge43_Node000001_Node000013" class="edge">
<title>Node1&#45;&gt;Node13</title>
<g id="a_edge43_Node000001_Node000013"><a xlink:title=" ">
<path fill="none" stroke="#63b8ff" d="M793.35,-285.97C786.73,-277.48 777.35,-263.75 773.5,-250 763.54,-214.39 781.39,-197.46 811.5,-176 859.97,-141.45 904.51,-187.41 940.5,-140 948.56,-129.38 947.56,-121.31 940.5,-110 930.85,-94.54 914.09,-84.3 897.57,-77.59"/>
<polygon fill="#63b8ff" stroke="#63b8ff" points="898.52,-74.21 887.92,-74.04 896.1,-80.78 898.52,-74.21"/>
</a>
</g>
</g>
<!-- Node17 -->
<g id="Node000017" class="node">
<title>Node17</title>
<g id="a_Node000017"><a xlink:href="caja-directory-private_8h.html" target="_top" xlink:title=" ">
<polygon fill="white" stroke="#666666" points="913,-250 782,-250 782,-231 913,-231 913,-250"/>
<text text-anchor="middle" x="847.5" y="-238" font-family="Helvetica,sans-Serif" font-size="10.00">caja&#45;directory&#45;private.h</text>
</a>
</g>
</g>
<!-- Node1&#45;&gt;Node17 -->
<g id="edge21_Node000001_Node000017" class="edge">
<title>Node1&#45;&gt;Node17</title>
<g id="a_edge21_Node000001_Node000017"><a xlink:title=" ">
<path fill="none" stroke="#63b8ff" d="M808.26,-285.75C814.97,-278.18 824.84,-267.05 833.01,-257.84"/>
<polygon fill="#63b8ff" stroke="#63b8ff" points="835.87,-259.89 839.88,-250.09 830.63,-255.25 835.87,-259.89"/>
</a>
</g>
</g>
<!-- Node26 -->
<g id="Node000026" class="node">
<title>Node26</title>
<g id="a_Node000026"><a xlink:href="caja-file-private_8h.html" target="_top" xlink:title=" ">
<polygon fill="white" stroke="#666666" points="687,-195 584,-195 584,-176 687,-176 687,-195"/>
<text text-anchor="middle" x="635.5" y="-183" font-family="Helvetica,sans-Serif" font-size="10.00">caja&#45;file&#45;private.h</text>
</a>
</g>
</g>
<!-- Node1&#45;&gt;Node26 -->
<g id="edge44_Node000001_Node000026" class="edge">
<title>Node1&#45;&gt;Node26</title>
<g id="a_edge44_Node000001_Node000026"><a xlink:title=" ">
<path fill="none" stroke="#63b8ff" d="M787.28,-285.84C758.92,-267.28 692.01,-223.49 657.28,-200.75"/>
<polygon fill="#63b8ff" stroke="#63b8ff" points="659.07,-197.74 648.79,-195.2 655.24,-203.6 659.07,-197.74"/>
</a>
</g>
</g>
<!-- Node31 -->
<g id="Node000031" class="node">
<title>Node31</title>
<g id="a_Node000031"><a xlink:href="caja-file-utilities_8h.html" target="_top" xlink:title=" ">
<polygon fill="white" stroke="#666666" points="217,-74 112,-74 112,-55 217,-55 217,-74"/>
<text text-anchor="middle" x="164.5" y="-62" font-family="Helvetica,sans-Serif" font-size="10.00">caja&#45;file&#45;utilities.h</text>
</a>
</g>
</g>
<!-- Node1&#45;&gt;Node31 -->
<g id="edge58_Node000001_Node000031" class="edge">
<title>Node1&#45;&gt;Node31</title>
<g id="a_edge58_Node000001_Node000031"><a xlink:title=" ">
<path fill="none" stroke="#63b8ff" d="M737.98,-294.04C592.79,-292.38 242.06,-284.77 202.5,-250 154.41,-207.74 157.65,-122.23 161.83,-84.33"/>
<polygon fill="#63b8ff" stroke="#63b8ff" points="165.33,-84.55 163.11,-74.19 158.39,-83.68 165.33,-84.55"/>
</a>
</g>
</g>
<!-- Node32 -->
<g id="Node000032" class="node">
<title>Node32</title>
<g id="a_Node000032"><a xlink:href="caja-metadata_8h.html" target="_top" xlink:title=" ">
<polygon fill="white" stroke="#666666" points="502,-250 405,-250 405,-231 502,-231 502,-250"/>
<text text-anchor="middle" x="453.5" y="-238" font-family="Helvetica,sans-Serif" font-size="10.00">caja&#45;metadata.h</text>
</a>
</g>
</g>
<!-- Node1&#45;&gt;Node32 -->
<g id="edge61_Node000001_Node000032" class="edge">
<title>Node1&#45;&gt;Node32</title>
<g id="a_edge61_Node000001_Node000032"><a xlink:title=" ">
<path fill="none" stroke="#63b8ff" d="M744.75,-285.98C681.01,-276.25 577.13,-260.38 512.19,-250.46"/>
<polygon fill="#63b8ff" stroke="#63b8ff" points="512.52,-246.97 502.11,-248.92 511.47,-253.89 512.52,-246.97"/>
</a>
</g>
</g>
<!-- Node33 -->
<g id="Node000033" class="node">
<title>Node33</title>
<g id="a_Node000033"><a xlink:href="caja-signaller_8h.html" target="_top" xlink:title=" ">
<polygon fill="white" stroke="#666666" points="1420,-195 1329,-195 1329,-176 1420,-176 1420,-195"/>
<text text-anchor="middle" x="1374.5" y="-183" font-family="Helvetica,sans-Serif" font-size="10.00">caja&#45;signaller.h</text>
</a>
</g>
</g>
<!-- Node1&#45;&gt;Node33 -->
<g id="edge63_Node000001_Node000033" class="edge">
<title>Node1&#45;&gt;Node33</title>
<g id="a_edge63_Node000001_Node000033"><a xlink:title=" ">
<path fill="none" stroke="#63b8ff" d="M834.85,-285.99C866.89,-277.76 915.88,-264.44 957.5,-250 978.4,-242.75 982.1,-236.59 1003.5,-231 1033.25,-223.23 1222.42,-202.56 1318.56,-192.36"/>
<polygon fill="#63b8ff" stroke="#63b8ff" points="1319.11,-195.82 1328.69,-191.29 1318.38,-188.86 1319.11,-195.82"/>
</a>
</g>
</g>
<!-- Node34 -->
<g id="Node000034" class="node">
<title>Node34</title>
<g id="a_Node000034"><a xlink:href="caja-global-preferences_8h.html" target="_top" xlink:title=" ">
<polygon fill="white" stroke="#666666" points="352,-250 211,-250 211,-231 352,-231 352,-250"/>
<text text-anchor="middle" x="281.5" y="-238" font-family="Helvetica,sans-Serif" font-size="10.00">caja&#45;global&#45;preferences.h</text>
</a>
</g>
</g>
<!-- Node1&#45;&gt;Node34 -->
<g id="edge65_Node000001_Node000034" class="edge">
<title>Node1&#45;&gt;Node34</title>
<g id="a_edge65_Node000001_Node000034"><a xlink:title=" ">
<path fill="none" stroke="#63b8ff" d="M737.9,-288.11C643.84,-278.5 466.05,-260.35 362.31,-249.75"/>
<polygon fill="#63b8ff" stroke="#63b8ff" points="362.51,-246.25 352.2,-248.72 361.8,-253.22 362.51,-246.25"/>
</a>
</g>
</g>
<!-- Node35 -->
<g id="Node000035" class="node">
<title>Node35</title>
<g id="a_Node000035"><a xlink:href="caja-link_8h.html" target="_top" xlink:title=" ">
<polygon fill="white" stroke="#666666" points="1632.5,-195 1564.5,-195 1564.5,-176 1632.5,-176 1632.5,-195"/>
<text text-anchor="middle" x="1598.5" y="-183" font-family="Helvetica,sans-Serif" font-size="10.00">caja&#45;link.h</text>
</a>
</g>
</g>
<!-- Node1&#45;&gt;Node35 -->
<g id="edge67_Node000001_Node000035" class="edge">
<title>Node1&#45;&gt;Node35</title>
<g id="a_edge67_Node000001_Node000035"><a xlink:title=" ">
<path fill="none" stroke="#63b8ff" d="M863.17,-286.2C910.15,-279.07 975.69,-267.2 1031.5,-250 1051.86,-243.73 1054.82,-236.1 1075.5,-231 1280.63,-180.43 1339.84,-221.09 1549.5,-195 1551,-194.81 1552.52,-194.61 1554.06,-194.4"/>
<polygon fill="#63b8ff" stroke="#63b8ff" points="1554.92,-197.81 1564.29,-192.86 1553.89,-190.89 1554.92,-197.81"/>
</a>
</g>
</g>
<!-- Node36 -->
<g id="Node000036" class="node">
<title>Node36</title>
<g id="a_Node000036"><a xlink:href="caja-marshal_8h.html" target="_top" xlink:title=" ">
<polygon fill="white" stroke="#666666" points="1540,-195 1451,-195 1451,-176 1540,-176 1540,-195"/>
<text text-anchor="middle" x="1495.5" y="-183" font-family="Helvetica,sans-Serif" font-size="10.00">caja&#45;marshal.h</text>
</a>
</g>
</g>
<!-- Node1&#45;&gt;Node36 -->
<g id="edge69_Node000001_Node000036" class="edge">
<title>Node1&#45;&gt;Node36</title>
<g id="a_edge69_Node000001_Node000036"><a xlink:title=" ">
<path fill="none" stroke="#63b8ff" d="M847.31,-285.93C886.95,-278.16 945.06,-265.56 994.5,-250 1015.99,-243.24 1019.61,-236.32 1041.5,-231 1209.79,-190.11 1257.37,-214.06 1429.5,-195 1433.16,-194.59 1436.93,-194.16 1440.73,-193.71"/>
<polygon fill="#63b8ff" stroke="#63b8ff" points="1441.29,-197.16 1450.79,-192.48 1440.44,-190.21 1441.29,-197.16"/>
</a>
</g>
</g>
<!-- Node8 -->
<g id="Node000008" class="node">
<title>Node8</title>
<g id="a_Node000008"><a xlink:title=" ">
<polygon fill="#e0e0e0" stroke="#999999" points="484.5,-74 440.5,-74 440.5,-55 484.5,-55 484.5,-74"/>
<text text-anchor="middle" x="462.5" y="-62" font-family="Helvetica,sans-Serif" font-size="10.00">glib.h</text>
</a>
</g>
</g>
<!-- Node7&#45;&gt;Node8 -->
<g id="edge7_Node000007_Node000008" class="edge">
<title>Node7&#45;&gt;Node8</title>
<g id="a_edge7_Node000007_Node000008"><a xlink:title=" ">
<path fill="none" stroke="#63b8ff" d="M480.4,-115.37C477.42,-107.07 472.83,-94.28 469.04,-83.72"/>
<polygon fill="#63b8ff" stroke="#63b8ff" points="472.28,-82.4 465.61,-74.17 465.7,-84.76 472.28,-82.4"/>
</a>
</g>
</g>
<!-- Node9 -->
<g id="Node000009" class="node">
<title>Node9</title>
<g id="a_Node000009"><a xlink:title=" ">
<polygon fill="#e0e0e0" stroke="#999999" points="755,-19 696,-19 696,0 755,0 755,-19"/>
<text text-anchor="middle" x="725.5" y="-7" font-family="Helvetica,sans-Serif" font-size="10.00">gio/gio.h</text>
</a>
</g>
</g>
<!-- Node7&#45;&gt;Node9 -->
<g id="edge8_Node000007_Node000009" class="edge">
<title>Node7&#45;&gt;Node9</title>
<g id="a_edge8_Node000007_Node000009"><a xlink:title=" ">
<path fill="none" stroke="#63b8ff" d="M501.69,-115.47C543.73,-95.75 647.87,-46.91 697.86,-23.46"/>
<polygon fill="#63b8ff" stroke="#63b8ff" points="699.53,-26.55 707.1,-19.13 696.56,-20.21 699.53,-26.55"/>
</a>
</g>
</g>
<!-- Node11 -->
<g id="Node000011" class="node">
<title>Node11</title>
<g id="a_Node000011"><a xlink:title=" ">
<polygon fill="#e0e0e0" stroke="#999999" points="1520,-19 1455,-19 1455,0 1520,0 1520,-19"/>
<text text-anchor="middle" x="1487.5" y="-7" font-family="Helvetica,sans-Serif" font-size="10.00">gdk/gdk.h</text>
</a>
</g>
</g>
<!-- Node10&#45;&gt;Node11 -->
<g id="edge10_Node000010_Node000011" class="edge">
<title>Node10&#45;&gt;Node11</title>
<g id="a_edge10_Node000010_Node000011"><a xlink:title=" ">
<path fill="none" stroke="#63b8ff" d="M1262.81,-176C1321.7,-163.78 1415.24,-135.56 1468.5,-74 1479.21,-61.63 1483.88,-43.41 1485.92,-29.66"/>
<polygon fill="#63b8ff" stroke="#63b8ff" points="1489.44,-29.71 1487.09,-19.38 1482.48,-28.92 1489.44,-29.71"/>
</a>
</g>
</g>
<!-- Node12 -->
<g id="Node000012" class="node">
<title>Node12</title>
<g id="a_Node000012"><a xlink:href="caja-file_8h.html" target="_top" xlink:title=" ">
<polygon fill="white" stroke="#666666" points="1053,-134.5 988,-134.5 988,-115.5 1053,-115.5 1053,-134.5"/>
<text text-anchor="middle" x="1020.5" y="-122.5" font-family="Helvetica,sans-Serif" font-size="10.00">caja&#45;file.h</text>
</a>
</g>
</g>
<!-- Node10&#45;&gt;Node12 -->
<g id="edge11_Node000010_Node000012" class="edge">
<title>Node10&#45;&gt;Node12</title>
<g id="a_edge11_Node000010_Node000012"><a xlink:title=" ">
<path fill="none" stroke="#63b8ff" d="M1182.02,-175.99C1149.26,-165.86 1094.38,-148.87 1057.81,-137.55"/>
<polygon fill="#63b8ff" stroke="#63b8ff" points="1058.6,-134.13 1048.02,-134.52 1056.53,-140.82 1058.6,-134.13"/>
</a>
</g>
</g>
<!-- Node12&#45;&gt;Node3 -->
<g id="edge12_Node000012_Node000003" class="edge">
<title>Node12&#45;&gt;Node3</title>
<g id="a_edge12_Node000012_Node000003"><a xlink:title=" ">
<path fill="none" stroke="#63b8ff" d="M1008.06,-115.31C982.67,-97.64 926.45,-58.86 916.5,-55 910.77,-52.78 747.26,-28.12 669.65,-16.5"/>
<polygon fill="#63b8ff" stroke="#63b8ff" points="670.15,-13.03 659.74,-15.01 669.11,-19.96 670.15,-13.03"/>
</a>
</g>
</g>
<!-- Node12&#45;&gt;Node9 -->
<g id="edge13_Node000012_Node000009" class="edge">
<title>Node12&#45;&gt;Node9</title>
<g id="a_edge13_Node000012_Node000009"><a xlink:title=" ">
<path fill="none" stroke="#63b8ff" d="M1014.19,-115.16C1002.99,-100.19 978.11,-70.03 949.5,-55 890.27,-23.89 811.8,-14.46 765.19,-11.64"/>
<polygon fill="#63b8ff" stroke="#63b8ff" points="765.36,-8.15 755.18,-11.11 764.98,-15.14 765.36,-8.15"/>
</a>
</g>
</g>
<!-- Node12&#45;&gt;Node13 -->
<g id="edge14_Node000012_Node000013" class="edge">
<title>Node12&#45;&gt;Node13</title>
<g id="a_edge14_Node000012_Node000013"><a xlink:title=" ">
<path fill="none" stroke="#63b8ff" d="M995.64,-115.49C966.25,-105.44 917.19,-88.66 884.11,-77.34"/>
<polygon fill="#63b8ff" stroke="#63b8ff" points="884.99,-73.94 874.39,-74.02 882.72,-80.57 884.99,-73.94"/>
</a>
</g>
</g>
<!-- Node14 -->
<g id="Node000014" class="node">
<title>Node14</title>
<g id="a_Node000014"><a xlink:href="caja-icon-info_8h.html" target="_top" xlink:title=" ">
<polygon fill="white" stroke="#666666" points="1131.5,-74 1039.5,-74 1039.5,-55 1131.5,-55 1131.5,-74"/>
<text text-anchor="middle" x="1085.5" y="-62" font-family="Helvetica,sans-Serif" font-size="10.00">caja&#45;icon&#45;info.h</text>
</a>
</g>
</g>
<!-- Node12&#45;&gt;Node14 -->
<g id="edge15_Node000012_Node000014" class="edge">
<title>Node12&#45;&gt;Node14</title>
<g id="a_edge15_Node000012_Node000014"><a xlink:title=" ">
<path fill="none" stroke="#63b8ff" d="M1030.09,-115.37C1040.08,-106.38 1055.93,-92.11 1068.13,-81.14"/>
<polygon fill="#63b8ff" stroke="#63b8ff" points="1070.78,-83.46 1075.87,-74.17 1066.1,-78.26 1070.78,-83.46"/>
</a>
</g>
</g>
<!-- Node14&#45;&gt;Node3 -->
<g id="edge20_Node000014_Node000003" class="edge">
<title>Node14&#45;&gt;Node3</title>
<g id="a_edge20_Node000014_Node000003"><a xlink:title=" ">
<path fill="none" stroke="#63b8ff" d="M1039.48,-58.87C965.29,-51.29 814.72,-35.43 687.5,-19 681.68,-18.25 675.54,-17.4 669.52,-16.55"/>
<polygon fill="#63b8ff" stroke="#63b8ff" points="669.97,-13.08 659.58,-15.11 668.97,-20 669.97,-13.08"/>
</a>
</g>
</g>
<!-- Node14&#45;&gt;Node9 -->
<g id="edge19_Node000014_Node000009" class="edge">
<title>Node14&#45;&gt;Node9</title>
<g id="a_edge19_Node000014_Node000009"><a xlink:title=" ">
<path fill="none" stroke="#63b8ff" d="M1039.17,-56.68C967.97,-46.2 832.84,-26.3 765.59,-16.4"/>
<polygon fill="#63b8ff" stroke="#63b8ff" points="765.81,-12.9 755.4,-14.9 764.79,-19.82 765.81,-12.9"/>
</a>
</g>
</g>
<!-- Node14&#45;&gt;Node11 -->
<g id="edge18_Node000014_Node000011" class="edge">
<title>Node14&#45;&gt;Node11</title>
<g id="a_edge18_Node000014_Node000011"><a xlink:title=" ">
<path fill="none" stroke="#63b8ff" d="M1131.63,-56.41C1134.97,-55.93 1138.29,-55.45 1141.5,-55 1250.52,-39.72 1379.17,-23.7 1444.6,-15.7"/>
<polygon fill="#63b8ff" stroke="#63b8ff" points="1445.05,-19.17 1454.55,-14.48 1444.2,-12.22 1445.05,-19.17"/>
</a>
</g>
</g>
<!-- Node15 -->
<g id="Node000015" class="node">
<title>Node15</title>
<g id="a_Node000015"><a xlink:title=" ">
<polygon fill="#e0e0e0" stroke="#999999" points="1342,-19 1265,-19 1265,0 1342,0 1342,-19"/>
<text text-anchor="middle" x="1303.5" y="-7" font-family="Helvetica,sans-Serif" font-size="10.00">glib&#45;object.h</text>
</a>
</g>
</g>
<!-- Node14&#45;&gt;Node15 -->
<g id="edge16_Node000014_Node000015" class="edge">
<title>Node14&#45;&gt;Node15</title>
<g id="a_edge16_Node000014_Node000015"><a xlink:title=" ">
<path fill="none" stroke="#63b8ff" d="M1120.53,-54.98C1158,-45.87 1217.55,-31.4 1258.48,-21.45"/>
<polygon fill="#63b8ff" stroke="#63b8ff" points="1259.31,-24.85 1268.2,-19.08 1257.66,-18.04 1259.31,-24.85"/>
</a>
</g>
</g>
<!-- Node16 -->
<g id="Node000016" class="node">
<title>Node16</title>
<g id="a_Node000016"><a xlink:title=" ">
<polygon fill="#e0e0e0" stroke="#999999" points="1152,-19 1019,-19 1019,0 1152,0 1152,-19"/>
<text text-anchor="middle" x="1085.5" y="-7" font-family="Helvetica,sans-Serif" font-size="10.00">gdk&#45;pixbuf/gdk&#45;pixbuf.h</text>
</a>
</g>
</g>
<!-- Node14&#45;&gt;Node16 -->
<g id="edge17_Node000014_Node000016" class="edge">
<title>Node14&#45;&gt;Node16</title>
<g id="a_edge17_Node000014_Node000016"><a xlink:title=" ">
<path fill="none" stroke="#63b8ff" d="M1085.5,-54.75C1085.5,-47.8 1085.5,-37.85 1085.5,-29.13"/>
<polygon fill="#63b8ff" stroke="#63b8ff" points="1089,-29.09 1085.5,-19.09 1082,-29.09 1089,-29.09"/>
</a>
</g>
</g>
<!-- Node17&#45;&gt;Node9 -->
<g id="edge22_Node000017_Node000009" class="edge">
<title>Node17&#45;&gt;Node9</title>
<g id="a_edge22_Node000017_Node000009"><a xlink:title=" ">
<path fill="none" stroke="#63b8ff" d="M907.85,-230.96C967.95,-221.84 1052.68,-207.06 1062.5,-195 1086.35,-165.7 1080.64,-143.14 1062.5,-110 1040.71,-70.2 1018.76,-71.5 976.5,-55 905.3,-27.2 815.92,-16.66 765.3,-12.74"/>
<polygon fill="#63b8ff" stroke="#63b8ff" points="765.34,-9.23 755.11,-12 764.83,-16.21 765.34,-9.23"/>
</a>
</g>
</g>
<!-- Node17&#45;&gt;Node12 -->
<g id="edge39_Node000017_Node000012" class="edge">
<title>Node17&#45;&gt;Node12</title>
<g id="a_edge39_Node000017_Node000012"><a xlink:title=" ">
<path fill="none" stroke="#63b8ff" d="M860.5,-230.97C890.06,-211.58 962.54,-164.03 998.92,-140.16"/>
<polygon fill="#63b8ff" stroke="#63b8ff" points="1000.9,-143.04 1007.35,-134.63 997.06,-137.19 1000.9,-143.04"/>
</a>
</g>
</g>
<!-- Node18 -->
<g id="Node000018" class="node">
<title>Node18</title>
<g id="a_Node000018"><a xlink:title=" ">
<polygon fill="#e0e0e0" stroke="#999999" points="899,-195 820,-195 820,-176 899,-176 899,-195"/>
<text text-anchor="middle" x="859.5" y="-183" font-family="Helvetica,sans-Serif" font-size="10.00">libxml/tree.h</text>
</a>
</g>
</g>
<!-- Node17&#45;&gt;Node18 -->
<g id="edge23_Node000017_Node000018" class="edge">
<title>Node17&#45;&gt;Node18</title>
<g id="a_edge23_Node000017_Node000018"><a xlink:title=" ">
<path fill="none" stroke="#63b8ff" d="M849.48,-230.75C851.07,-223.72 853.36,-213.62 855.35,-204.84"/>
<polygon fill="#63b8ff" stroke="#63b8ff" points="858.76,-205.62 857.56,-195.09 851.93,-204.07 858.76,-205.62"/>
</a>
</g>
</g>
<!-- Node19 -->
<g id="Node000019" class="node">
<title>Node19</title>
<g id="a_Node000019"><a xlink:href="eel-vfs-extensions_8h.html" target="_top" xlink:title=" ">
<polygon fill="white" stroke="#666666" points="515.5,-195 381.5,-195 381.5,-176 515.5,-176 515.5,-195"/>
<text text-anchor="middle" x="448.5" y="-183" font-family="Helvetica,sans-Serif" font-size="10.00">eel/eel&#45;vfs&#45;extensions.h</text>
</a>
</g>
</g>
<!-- Node17&#45;&gt;Node19 -->
<g id="edge24_Node000017_Node000019" class="edge">
<title>Node17&#45;&gt;Node19</title>
<g id="a_edge24_Node000017_Node000019"><a xlink:title=" ">
<path fill="none" stroke="#63b8ff" d="M783.39,-230.98C712.39,-221.55 598.05,-206.36 523.09,-196.41"/>
<polygon fill="#63b8ff" stroke="#63b8ff" points="523.15,-192.89 512.78,-195.04 522.23,-199.82 523.15,-192.89"/>
</a>
</g>
</g>
<!-- Node20 -->
<g id="Node000020" class="node">
<title>Node20</title>
<g id="a_Node000020"><a xlink:href="caja-info-provider_8h.html" target="_top" xlink:title=" ">
<polygon fill="white" stroke="#666666" points="1317.5,-140 1193.5,-140 1193.5,-110 1317.5,-110 1317.5,-140"/>
<text text-anchor="start" x="1201.5" y="-128" font-family="Helvetica,sans-Serif" font-size="10.00">libcaja&#45;extension/caja</text>
<text text-anchor="middle" x="1255.5" y="-117" font-family="Helvetica,sans-Serif" font-size="10.00">&#45;info&#45;provider.h</text>
</a>
</g>
</g>
<!-- Node17&#45;&gt;Node20 -->
<g id="edge26_Node000017_Node000020" class="edge">
<title>Node17&#45;&gt;Node20</title>
<g id="a_edge26_Node000017_Node000020"><a xlink:title=" ">
<path fill="none" stroke="#63b8ff" d="M913.21,-231.9C963.76,-225.06 1034.98,-213.23 1095.5,-195 1115.9,-188.86 1119.94,-184.44 1139.5,-176 1164.06,-165.41 1191.54,-153.56 1213.59,-144.06"/>
<polygon fill="#63b8ff" stroke="#63b8ff" points="1215.2,-147.17 1223,-140 1212.43,-140.75 1215.2,-147.17"/>
</a>
</g>
</g>
<!-- Node23 -->
<g id="Node000023" class="node">
<title>Node23</title>
<g id="a_Node000023"><a xlink:href="caja-directory_8h.html" target="_top" xlink:title=" ">
<polygon fill="white" stroke="#666666" points="931.5,-134.5 839.5,-134.5 839.5,-115.5 931.5,-115.5 931.5,-134.5"/>
<text text-anchor="middle" x="885.5" y="-122.5" font-family="Helvetica,sans-Serif" font-size="10.00">caja&#45;directory.h</text>
</a>
</g>
</g>
<!-- Node17&#45;&gt;Node23 -->
<g id="edge33_Node000017_Node000023" class="edge">
<title>Node17&#45;&gt;Node23</title>
<g id="a_edge33_Node000017_Node000023"><a xlink:title=" ">
<path fill="none" stroke="#63b8ff" d="M836.56,-230.96C822.46,-218.84 800.92,-195.92 811.5,-176 820.35,-159.33 837.52,-147.21 853.09,-139.08"/>
<polygon fill="#63b8ff" stroke="#63b8ff" points="855.02,-142.04 862.49,-134.53 851.97,-135.73 855.02,-142.04"/>
</a>
</g>
</g>
<!-- Node24 -->
<g id="Node000024" class="node">
<title>Node24</title>
<g id="a_Node000024"><a xlink:href="caja-file-queue_8h.html" target="_top" xlink:title=" ">
<polygon fill="white" stroke="#666666" points="1053.5,-195 955.5,-195 955.5,-176 1053.5,-176 1053.5,-195"/>
<text text-anchor="middle" x="1004.5" y="-183" font-family="Helvetica,sans-Serif" font-size="10.00">caja&#45;file&#45;queue.h</text>
</a>
</g>
</g>
<!-- Node17&#45;&gt;Node24 -->
<g id="edge37_Node000017_Node000024" class="edge">
<title>Node17&#45;&gt;Node24</title>
<g id="a_edge37_Node000017_Node000024"><a xlink:title=" ">
<path fill="none" stroke="#63b8ff" d="M872.72,-230.98C898.86,-222.16 939.9,-208.31 969.23,-198.41"/>
<polygon fill="#63b8ff" stroke="#63b8ff" points="970.72,-201.6 979.08,-195.08 968.48,-194.96 970.72,-201.6"/>
</a>
</g>
</g>
<!-- Node25 -->
<g id="Node000025" class="node">
<title>Node25</title>
<g id="a_Node000025"><a xlink:href="caja-monitor_8h.html" target="_top" xlink:title=" ">
<polygon fill="white" stroke="#666666" points="657,-134.5 570,-134.5 570,-115.5 657,-115.5 657,-134.5"/>
<text text-anchor="middle" x="613.5" y="-122.5" font-family="Helvetica,sans-Serif" font-size="10.00">caja&#45;monitor.h</text>
</a>
</g>
</g>
<!-- Node17&#45;&gt;Node25 -->
<g id="edge40_Node000017_Node000025" class="edge">
<title>Node17&#45;&gt;Node25</title>
<g id="a_edge40_Node000017_Node000025"><a xlink:title=" ">
<path fill="none" stroke="#63b8ff" d="M829.91,-230.97C789.34,-211.29 688.98,-162.61 640.53,-139.11"/>
<polygon fill="#63b8ff" stroke="#63b8ff" points="641.82,-135.85 631.29,-134.63 638.76,-142.14 641.82,-135.85"/>
</a>
</g>
</g>
<!-- Node19&#45;&gt;Node8 -->
<g id="edge25_Node000019_Node000008" class="edge">
<title>Node19&#45;&gt;Node8</title>
<g id="a_edge25_Node000019_Node000008"><a xlink:title=" ">
<path fill="none" stroke="#63b8ff" d="M436.29,-175.86C426.15,-167.88 412.46,-155.01 406.5,-140 401.58,-127.61 400.7,-122.01 406.5,-110 412.72,-97.12 424.68,-86.82 435.96,-79.38"/>
<polygon fill="#63b8ff" stroke="#63b8ff" points="438.01,-82.23 444.73,-74.04 434.37,-76.25 438.01,-82.23"/>
</a>
</g>
</g>
<!-- Node20&#45;&gt;Node15 -->
<g id="edge27_Node000020_Node000015" class="edge">
<title>Node20&#45;&gt;Node15</title>
<g id="a_edge27_Node000020_Node000015"><a xlink:title=" ">
<path fill="none" stroke="#63b8ff" d="M1262.76,-109.71C1267.71,-99.79 1274.27,-86.22 1279.5,-74 1285.95,-58.93 1292.47,-41.5 1297.09,-28.71"/>
<polygon fill="#63b8ff" stroke="#63b8ff" points="1300.41,-29.82 1300.47,-19.22 1293.82,-27.47 1300.41,-29.82"/>
</a>
</g>
</g>
<!-- Node21 -->
<g id="Node000021" class="node">
<title>Node21</title>
<g id="a_Node000021"><a xlink:href="caja-extension-types_8h.html" target="_top" xlink:title=" ">
<polygon fill="white" stroke="#666666" points="1459.5,-74 1331.5,-74 1331.5,-55 1459.5,-55 1459.5,-74"/>
<text text-anchor="middle" x="1395.5" y="-62" font-family="Helvetica,sans-Serif" font-size="10.00">caja&#45;extension&#45;types.h</text>
</a>
</g>
</g>
<!-- Node20&#45;&gt;Node21 -->
<g id="edge28_Node000020_Node000021" class="edge">
<title>Node20&#45;&gt;Node21</title>
<g id="a_edge28_Node000020_Node000021"><a xlink:title=" ">
<path fill="none" stroke="#63b8ff" d="M1289.03,-109.99C1312.29,-100.27 1342.99,-87.44 1365.45,-78.06"/>
<polygon fill="#63b8ff" stroke="#63b8ff" points="1366.95,-81.22 1374.82,-74.14 1364.25,-74.77 1366.95,-81.22"/>
</a>
</g>
</g>
<!-- Node22 -->
<g id="Node000022" class="node">
<title>Node22</title>
<g id="a_Node000022"><a xlink:href="caja-file-info_8h.html" target="_top" xlink:title=" ">
<polygon fill="white" stroke="#666666" points="1237,-74 1150,-74 1150,-55 1237,-55 1237,-74"/>
<text text-anchor="middle" x="1193.5" y="-62" font-family="Helvetica,sans-Serif" font-size="10.00">caja&#45;file&#45;info.h</text>
</a>
</g>
</g>
<!-- Node20&#45;&gt;Node22 -->
<g id="edge30_Node000020_Node000022" class="edge">
<title>Node20&#45;&gt;Node22</title>
<g id="a_edge30_Node000020_Node000022"><a xlink:title=" ">
<path fill="none" stroke="#63b8ff" d="M1240.49,-109.84C1231.31,-101.17 1219.55,-90.08 1210.09,-81.15"/>
<polygon fill="#63b8ff" stroke="#63b8ff" points="1212.47,-78.58 1202.79,-74.27 1207.66,-83.67 1212.47,-78.58"/>
</a>
</g>
</g>
<!-- Node21&#45;&gt;Node15 -->
<g id="edge29_Node000021_Node000015" class="edge">
<title>Node21&#45;&gt;Node15</title>
<g id="a_edge29_Node000021_Node000015"><a xlink:title=" ">
<path fill="none" stroke="#63b8ff" d="M1380.72,-54.98C1366.32,-46.69 1344.19,-33.94 1327.31,-24.22"/>
<polygon fill="#63b8ff" stroke="#63b8ff" points="1328.96,-21.13 1318.55,-19.17 1325.47,-27.19 1328.96,-21.13"/>
</a>
</g>
</g>
<!-- Node22&#45;&gt;Node9 -->
<g id="edge32_Node000022_Node000009" class="edge">
<title>Node22&#45;&gt;Node9</title>
<g id="a_edge32_Node000022_Node000009"><a xlink:title=" ">
<path fill="none" stroke="#63b8ff" d="M1149.85,-56.32C1146.69,-55.85 1143.55,-55.41 1140.5,-55 1003.25,-36.65 839.65,-20.9 765.53,-14.09"/>
<polygon fill="#63b8ff" stroke="#63b8ff" points="765.53,-10.58 755.25,-13.15 764.89,-17.55 765.53,-10.58"/>
</a>
</g>
</g>
<!-- Node22&#45;&gt;Node15 -->
<g id="edge31_Node000022_Node000015" class="edge">
<title>Node22&#45;&gt;Node15</title>
<g id="a_edge31_Node000022_Node000015"><a xlink:title=" ">
<path fill="none" stroke="#63b8ff" d="M1211.17,-54.98C1228.79,-46.5 1256.08,-33.35 1276.43,-23.54"/>
<polygon fill="#63b8ff" stroke="#63b8ff" points="1278.02,-26.66 1285.51,-19.17 1274.98,-20.36 1278.02,-26.66"/>
</a>
</g>
</g>
<!-- Node23&#45;&gt;Node3 -->
<g id="edge34_Node000023_Node000003" class="edge">
<title>Node23&#45;&gt;Node3</title>
<g id="a_edge34_Node000023_Node000003"><a xlink:title=" ">
<path fill="none" stroke="#63b8ff" d="M861.65,-115.4C835.75,-105.9 793.28,-89.83 757.5,-74 721.29,-57.98 680.48,-37.26 654.87,-23.92"/>
<polygon fill="#63b8ff" stroke="#63b8ff" points="656.33,-20.73 645.85,-19.19 653.08,-26.93 656.33,-20.73"/>
</a>
</g>
</g>
<!-- Node23&#45;&gt;Node9 -->
<g id="edge35_Node000023_Node000009" class="edge">
<title>Node23&#45;&gt;Node9</title>
<g id="a_edge35_Node000023_Node000009"><a xlink:title=" ">
<path fill="none" stroke="#63b8ff" d="M861.54,-115.45C839.68,-106.96 807.11,-92.54 782.5,-74 764.83,-60.69 748.39,-41.31 737.75,-27.46"/>
<polygon fill="#63b8ff" stroke="#63b8ff" points="740.42,-25.2 731.64,-19.28 734.82,-29.39 740.42,-25.2"/>
</a>
</g>
</g>
<!-- Node23&#45;&gt;Node13 -->
<g id="edge36_Node000023_Node000013" class="edge">
<title>Node23&#45;&gt;Node13</title>
<g id="a_edge36_Node000023_Node000013"><a xlink:title=" ">
<path fill="none" stroke="#63b8ff" d="M880.19,-115.37C874.92,-106.81 866.71,-93.47 860.11,-82.74"/>
<polygon fill="#63b8ff" stroke="#63b8ff" points="863.06,-80.85 854.83,-74.17 857.09,-84.52 863.06,-80.85"/>
</a>
</g>
</g>
<!-- Node24&#45;&gt;Node12 -->
<g id="edge38_Node000024_Node000012" class="edge">
<title>Node24&#45;&gt;Node12</title>
<g id="a_edge38_Node000024_Node000012"><a xlink:title=" ">
<path fill="none" stroke="#63b8ff" d="M1006.86,-175.87C1009.11,-167.66 1012.56,-155.04 1015.43,-144.55"/>
<polygon fill="#63b8ff" stroke="#63b8ff" points="1018.87,-145.24 1018.13,-134.67 1012.12,-143.39 1018.87,-145.24"/>
</a>
</g>
</g>
<!-- Node25&#45;&gt;Node8 -->
<g id="edge41_Node000025_Node000008" class="edge">
<title>Node25&#45;&gt;Node8</title>
<g id="a_edge41_Node000025_Node000008"><a xlink:title=" ">
<path fill="none" stroke="#63b8ff" d="M591.54,-115.49C565.82,-105.53 523.02,-88.95 493.82,-77.63"/>
<polygon fill="#63b8ff" stroke="#63b8ff" points="495.07,-74.37 484.48,-74.02 492.54,-80.89 495.07,-74.37"/>
</a>
</g>
</g>
<!-- Node25&#45;&gt;Node9 -->
<g id="edge42_Node000025_Node000009" class="edge">
<title>Node25&#45;&gt;Node9</title>
<g id="a_edge42_Node000025_Node000009"><a xlink:title=" ">
<path fill="none" stroke="#63b8ff" d="M621.92,-115.47C640.57,-96.57 685.61,-50.93 709.69,-26.52"/>
<polygon fill="#63b8ff" stroke="#63b8ff" points="712.45,-28.71 716.98,-19.13 707.47,-23.79 712.45,-28.71"/>
</a>
</g>
</g>
<!-- Node26&#45;&gt;Node7 -->
<g id="edge45_Node000026_Node000007" class="edge">
<title>Node26&#45;&gt;Node7</title>
<g id="a_edge45_Node000026_Node000007"><a xlink:title=" ">
<path fill="none" stroke="#63b8ff" d="M613.4,-175.99C587.51,-166.03 544.42,-149.45 515.03,-138.13"/>
<polygon fill="#63b8ff" stroke="#63b8ff" points="516.22,-134.84 505.63,-134.52 513.7,-141.38 516.22,-134.84"/>
</a>
</g>
</g>
<!-- Node26&#45;&gt;Node12 -->
<g id="edge51_Node000026_Node000012" class="edge">
<title>Node26&#45;&gt;Node12</title>
<g id="a_edge51_Node000026_Node000012"><a xlink:title=" ">
<path fill="none" stroke="#63b8ff" d="M687.11,-177.43C747.81,-169 851.6,-154.26 940.5,-140 952.68,-138.05 965.88,-135.79 977.98,-133.67"/>
<polygon fill="#63b8ff" stroke="#63b8ff" points="978.6,-137.12 987.84,-131.93 977.38,-130.22 978.6,-137.12"/>
</a>
</g>
</g>
<!-- Node26&#45;&gt;Node23 -->
<g id="edge50_Node000026_Node000023" class="edge">
<title>Node26&#45;&gt;Node23</title>
<g id="a_edge50_Node000026_Node000023"><a xlink:title=" ">
<path fill="none" stroke="#63b8ff" d="M674.41,-175.92C713.82,-167.16 776.49,-153.03 830.5,-140 834.38,-139.06 838.4,-138.07 842.43,-137.07"/>
<polygon fill="#63b8ff" stroke="#63b8ff" points="843.53,-140.4 852.38,-134.57 841.83,-133.62 843.53,-140.4"/>
</a>
</g>
</g>
<!-- Node26&#45;&gt;Node25 -->
<g id="edge52_Node000026_Node000025" class="edge">
<title>Node26&#45;&gt;Node25</title>
<g id="a_edge52_Node000026_Node000025"><a xlink:title=" ">
<path fill="none" stroke="#63b8ff" d="M632.25,-175.87C629.13,-167.57 624.32,-154.78 620.35,-144.22"/>
<polygon fill="#63b8ff" stroke="#63b8ff" points="623.56,-142.8 616.76,-134.67 617,-145.26 623.56,-142.8"/>
</a>
</g>
</g>
<!-- Node27 -->
<g id="Node000027" class="node">
<title>Node27</title>
<g id="a_Node000027"><a xlink:href="eel-string_8h.html" target="_top" xlink:title=" ">
<polygon fill="white" stroke="#666666" points="320.5,-134.5 230.5,-134.5 230.5,-115.5 320.5,-115.5 320.5,-134.5"/>
<text text-anchor="middle" x="275.5" y="-122.5" font-family="Helvetica,sans-Serif" font-size="10.00">eel/eel&#45;string.h</text>
</a>
</g>
</g>
<!-- Node26&#45;&gt;Node27 -->
<g id="edge46_Node000026_Node000027" class="edge">
<title>Node26&#45;&gt;Node27</title>
<g id="a_edge46_Node000026_Node000027"><a xlink:title=" ">
<path fill="none" stroke="#63b8ff" d="M583.92,-176.12C516.79,-165.21 399.94,-146.22 330.96,-135.01"/>
<polygon fill="#63b8ff" stroke="#63b8ff" points="331.16,-131.5 320.73,-133.35 330.04,-138.41 331.16,-131.5"/>
</a>
</g>
</g>
<!-- Node30 -->
<g id="Node000030" class="node">
<title>Node30</title>
<g id="a_Node000030"><a xlink:href="caja-undostack-manager_8h.html" target="_top" xlink:title=" ">
<polygon fill="white" stroke="#666666" points="821.5,-134.5 675.5,-134.5 675.5,-115.5 821.5,-115.5 821.5,-134.5"/>
<text text-anchor="middle" x="748.5" y="-122.5" font-family="Helvetica,sans-Serif" font-size="10.00">caja&#45;undostack&#45;manager.h</text>
</a>
</g>
</g>
<!-- Node26&#45;&gt;Node30 -->
<g id="edge53_Node000026_Node000030" class="edge">
<title>Node26&#45;&gt;Node30</title>
<g id="a_edge53_Node000026_Node000030"><a xlink:title=" ">
<path fill="none" stroke="#63b8ff" d="M652.17,-175.87C670.78,-166.23 701.12,-150.53 722.78,-139.31"/>
<polygon fill="#63b8ff" stroke="#63b8ff" points="724.49,-142.37 731.76,-134.67 721.27,-136.16 724.49,-142.37"/>
</a>
</g>
</g>
<!-- Node27&#45;&gt;Node8 -->
<g id="edge47_Node000027_Node000008" class="edge">
<title>Node27&#45;&gt;Node8</title>
<g id="a_edge47_Node000027_Node000008"><a xlink:title=" ">
<path fill="none" stroke="#63b8ff" d="M302.69,-115.49C336.53,-104.91 394.23,-86.86 430.26,-75.59"/>
<polygon fill="#63b8ff" stroke="#63b8ff" points="431.75,-78.79 440.25,-72.46 429.66,-72.11 431.75,-78.79"/>
</a>
</g>
</g>
<!-- Node28 -->
<g id="Node000028" class="node">
<title>Node28</title>
<g id="a_Node000028"><a xlink:title=" ">
<polygon fill="#e0e0e0" stroke="#999999" points="327,-74 274,-74 274,-55 327,-55 327,-74"/>
<text text-anchor="middle" x="300.5" y="-62" font-family="Helvetica,sans-Serif" font-size="10.00">string.h</text>
</a>
</g>
</g>
<!-- Node27&#45;&gt;Node28 -->
<g id="edge48_Node000027_Node000028" class="edge">
<title>Node27&#45;&gt;Node28</title>
<g id="a_edge48_Node000027_Node000028"><a xlink:title=" ">
<path fill="none" stroke="#63b8ff" d="M279.19,-115.37C282.77,-106.99 288.32,-94.01 292.85,-83.39"/>
<polygon fill="#63b8ff" stroke="#63b8ff" points="296.08,-84.74 296.8,-74.17 289.65,-81.99 296.08,-84.74"/>
</a>
</g>
</g>
<!-- Node29 -->
<g id="Node000029" class="node">
<title>Node29</title>
<g id="a_Node000029"><a xlink:title=" ">
<polygon fill="#e0e0e0" stroke="#999999" points="401.5,-74 345.5,-74 345.5,-55 401.5,-55 401.5,-74"/>
<text text-anchor="middle" x="373.5" y="-62" font-family="Helvetica,sans-Serif" font-size="10.00">stdarg.h</text>
</a>
</g>
</g>
<!-- Node27&#45;&gt;Node29 -->
<g id="edge49_Node000027_Node000029" class="edge">
<title>Node27&#45;&gt;Node29</title>
<g id="a_edge49_Node000027_Node000029"><a xlink:title=" ">
<path fill="none" stroke="#63b8ff" d="M289.96,-115.37C305.81,-105.91 331.47,-90.59 350.18,-79.42"/>
<polygon fill="#63b8ff" stroke="#63b8ff" points="352.19,-82.3 358.98,-74.17 348.6,-76.29 352.19,-82.3"/>
</a>
</g>
</g>
<!-- Node30&#45;&gt;Node3 -->
<g id="edge56_Node000030_Node000003" class="edge">
<title>Node30&#45;&gt;Node3</title>
<g id="a_edge56_Node000030_Node000003"><a xlink:title=" ">
<path fill="none" stroke="#63b8ff" d="M739.56,-115.47C719.66,-96.49 671.47,-50.53 645.97,-26.21"/>
<polygon fill="#63b8ff" stroke="#63b8ff" points="648.2,-23.5 638.55,-19.13 643.37,-28.56 648.2,-23.5"/>
</a>
</g>
</g>
<!-- Node30&#45;&gt;Node8 -->
<g id="edge54_Node000030_Node000008" class="edge">
<title>Node30&#45;&gt;Node8</title>
<g id="a_edge54_Node000030_Node000008"><a xlink:title=" ">
<path fill="none" stroke="#63b8ff" d="M706.91,-115.49C649.37,-103.72 546.7,-82.72 494.65,-72.08"/>
<polygon fill="#63b8ff" stroke="#63b8ff" points="495.14,-68.6 484.64,-70.03 493.74,-75.46 495.14,-68.6"/>
</a>
</g>
</g>
<!-- Node30&#45;&gt;Node9 -->
<g id="edge57_Node000030_Node000009" class="edge">
<title>Node30&#45;&gt;Node9</title>
<g id="a_edge57_Node000030_Node000009"><a xlink:title=" ">
<path fill="none" stroke="#63b8ff" d="M746.77,-115.47C743.07,-97.23 734.33,-54.07 729.28,-29.14"/>
<polygon fill="#63b8ff" stroke="#63b8ff" points="732.67,-28.24 727.25,-19.13 725.8,-29.63 732.67,-28.24"/>
</a>
</g>
</g>
<!-- Node30&#45;&gt;Node15 -->
<g id="edge55_Node000030_Node000015" class="edge">
<title>Node30&#45;&gt;Node15</title>
<g id="a_edge55_Node000030_Node000015"><a xlink:title=" ">
<path fill="none" stroke="#63b8ff" d="M794.37,-115.48C806.12,-113.49 818.75,-111.51 830.5,-110 922.53,-98.18 1163.47,-115.43 1246.5,-74 1266.73,-63.91 1283.09,-43.29 1293.01,-28.28"/>
<polygon fill="#63b8ff" stroke="#63b8ff" points="1296.24,-29.72 1298.58,-19.39 1290.3,-26.01 1296.24,-29.72"/>
</a>
</g>
</g>
<!-- Node31&#45;&gt;Node3 -->
<g id="edge60_Node000031_Node000003" class="edge">
<title>Node31&#45;&gt;Node3</title>
<g id="a_edge60_Node000031_Node000003"><a xlink:title=" ">
<path fill="none" stroke="#63b8ff" d="M217.16,-56.74C222.01,-56.15 226.84,-55.56 231.5,-55 362.28,-39.39 517.44,-22.52 589.29,-14.8"/>
<polygon fill="#63b8ff" stroke="#63b8ff" points="589.71,-18.27 599.28,-13.72 588.96,-11.31 589.71,-18.27"/>
</a>
</g>
</g>
<!-- Node31&#45;&gt;Node9 -->
<g id="edge59_Node000031_Node000009" class="edge">
<title>Node31&#45;&gt;Node9</title>
<g id="a_edge59_Node000031_Node000009"><a xlink:title=" ">
<path fill="none" stroke="#63b8ff" d="M217.14,-56.6C221.99,-56.03 226.84,-55.49 231.5,-55 425.32,-34.73 474.91,-41.38 668.5,-19 674.09,-18.35 679.98,-17.58 685.76,-16.77"/>
<polygon fill="#63b8ff" stroke="#63b8ff" points="686.57,-20.19 695.96,-15.28 685.56,-13.26 686.57,-20.19"/>
</a>
</g>
</g>
<!-- Node32&#45;&gt;Node8 -->
<g id="edge62_Node000032_Node000008" class="edge">
<title>Node32&#45;&gt;Node8</title>
<g id="a_edge62_Node000032_Node000008"><a xlink:title=" ">
<path fill="none" stroke="#63b8ff" d="M422.08,-230.97C404.16,-224.32 383.2,-213.09 372.5,-195 368.2,-187.73 370.98,-184.31 372.5,-176 378.15,-145.15 378.11,-134.66 397.5,-110 407.57,-97.2 422.33,-86.67 435.25,-79.08"/>
<polygon fill="#63b8ff" stroke="#63b8ff" points="437.2,-82 444.23,-74.08 433.79,-75.89 437.2,-82"/>
</a>
</g>
</g>
<!-- Node33&#45;&gt;Node15 -->
<g id="edge64_Node000033_Node000015" class="edge">
<title>Node33&#45;&gt;Node15</title>
<g id="a_edge64_Node000033_Node000015"><a xlink:title=" ">
<path fill="none" stroke="#63b8ff" d="M1389.33,-175.9C1423.59,-154.97 1502.8,-99.77 1468.5,-55 1454.34,-36.52 1395.55,-23.98 1352.15,-17.03"/>
<polygon fill="#63b8ff" stroke="#63b8ff" points="1352.46,-13.54 1342.05,-15.47 1351.39,-20.46 1352.46,-13.54"/>
</a>
</g>
</g>
<!-- Node34&#45;&gt;Node9 -->
<g id="edge66_Node000034_Node000009" class="edge">
<title>Node34&#45;&gt;Node9</title>
<g id="a_edge66_Node000034_Node000009"><a xlink:title=" ">
<path fill="none" stroke="#63b8ff" d="M274.07,-230.95C260.44,-214.63 231.88,-177.31 221.5,-140 210.1,-99.02 228.02,-75.12 265.5,-55 344.72,-12.48 579.22,-29.64 668.5,-19 674.09,-18.33 679.97,-17.55 685.75,-16.73"/>
<polygon fill="#63b8ff" stroke="#63b8ff" points="686.57,-20.15 695.96,-15.24 685.56,-13.22 686.57,-20.15"/>
</a>
</g>
</g>
<!-- Node35&#45;&gt;Node11 -->
<g id="edge68_Node000035_Node000011" class="edge">
<title>Node35&#45;&gt;Node11</title>
<g id="a_edge68_Node000035_Node000011"><a xlink:title=" ">
<path fill="none" stroke="#63b8ff" d="M1599.6,-175.93C1601.99,-153.6 1605.38,-92.74 1577.5,-55 1565.88,-39.27 1547.15,-28.78 1529.78,-21.95"/>
<polygon fill="#63b8ff" stroke="#63b8ff" points="1530.92,-18.64 1520.33,-18.53 1528.54,-25.23 1530.92,-18.64"/>
</a>
</g>
</g>
<!-- Node36&#45;&gt;Node15 -->
<g id="edge70_Node000036_Node000015" class="edge">
<title>Node36&#45;&gt;Node15</title>
<g id="a_edge70_Node000036_Node000015"><a xlink:title=" ">
<path fill="none" stroke="#63b8ff" d="M1497.86,-175.99C1503.6,-153.29 1515.71,-90.58 1485.5,-55 1468.48,-34.96 1400.4,-22.49 1352.52,-16.01"/>
<polygon fill="#63b8ff" stroke="#63b8ff" points="1352.7,-12.51 1342.33,-14.68 1351.79,-19.45 1352.7,-12.51"/>
</a>
</g>
</g>
</g>
</svg>
