<?xml version="1.0" encoding="UTF-8" standalone="no"?>
<!DOCTYPE svg PUBLIC "-//W3C//DTD SVG 1.1//EN"
 "http://www.w3.org/Graphics/SVG/1.1/DTD/svg11.dtd">
<!-- Generated by graphviz version 2.43.0 (0)
 -->
<!-- Title: caja&#45;freedesktop&#45;dbus.c Pages: 1 -->
<svg width="788pt" height="269pt"
 viewBox="0.00 0.00 787.50 269.00" xmlns="http://www.w3.org/2000/svg" xmlns:xlink="http://www.w3.org/1999/xlink">
<g id="graph0" class="graph" transform="scale(1 1) rotate(0) translate(4 265)">
<title>caja&#45;freedesktop&#45;dbus.c</title>
<!-- Node1 -->
<g id="Node000001" class="node">
<title>Node1</title>
<g id="a_Node000001"><a xlink:title=" ">
<polygon fill="#999999" stroke="#666666" points="565,-261 431,-261 431,-242 565,-242 565,-261"/>
<text text-anchor="middle" x="498" y="-249" font-family="Helvetica,sans-Serif" font-size="10.00">caja&#45;freedesktop&#45;dbus.c</text>
</a>
</g>
</g>
<!-- Node2 -->
<g id="Node000002" class="node">
<title>Node2</title>
<g id="a_Node000002"><a xlink:title=" ">
<polygon fill="#e0e0e0" stroke="#999999" points="779.5,-19 724.5,-19 724.5,0 779.5,0 779.5,-19"/>
<text text-anchor="middle" x="752" y="-7" font-family="Helvetica,sans-Serif" font-size="10.00">config.h</text>
</a>
</g>
</g>
<!-- Node1&#45;&gt;Node2 -->
<g id="edge1_Node000001_Node000002" class="edge">
<title>Node1&#45;&gt;Node2</title>
<g id="a_edge1_Node000001_Node000002"><a xlink:title=" ">
<path fill="none" stroke="#63b8ff" d="M565.2,-245.05C621.6,-239.06 696.19,-227.3 717,-206 764.39,-157.5 759.62,-68.15 754.87,-29.33"/>
<polygon fill="#63b8ff" stroke="#63b8ff" points="758.28,-28.43 753.45,-19 751.34,-29.39 758.28,-28.43"/>
</a>
</g>
</g>
<!-- Node3 -->
<g id="Node000003" class="node">
<title>Node3</title>
<g id="a_Node000003"><a xlink:title=" ">
<polygon fill="#e0e0e0" stroke="#999999" points="565.5,-19 506.5,-19 506.5,0 565.5,0 565.5,-19"/>
<text text-anchor="middle" x="536" y="-7" font-family="Helvetica,sans-Serif" font-size="10.00">gio/gio.h</text>
</a>
</g>
</g>
<!-- Node1&#45;&gt;Node3 -->
<g id="edge2_Node000001_Node000003" class="edge">
<title>Node1&#45;&gt;Node3</title>
<g id="a_edge2_Node000001_Node000003"><a xlink:title=" ">
<path fill="none" stroke="#63b8ff" d="M565.11,-244.4C616.24,-238.2 680.57,-226.52 697,-206 752.47,-136.76 620.49,-55.22 562.08,-23.78"/>
<polygon fill="#63b8ff" stroke="#63b8ff" points="563.53,-20.59 553.06,-19.01 560.26,-26.78 563.53,-20.59"/>
</a>
</g>
</g>
<!-- Node4 -->
<g id="Node000004" class="node">
<title>Node4</title>
<g id="a_Node000004"><a xlink:href="caja-debug-log_8h.html" target="_top" xlink:title=" ">
<polygon fill="white" stroke="#666666" points="110,-206 0,-206 0,-176 110,-176 110,-206"/>
<text text-anchor="start" x="8" y="-194" font-family="Helvetica,sans-Serif" font-size="10.00">libcaja&#45;private/caja</text>
<text text-anchor="middle" x="55" y="-183" font-family="Helvetica,sans-Serif" font-size="10.00">&#45;debug&#45;log.h</text>
</a>
</g>
</g>
<!-- Node1&#45;&gt;Node4 -->
<g id="edge3_Node000001_Node000004" class="edge">
<title>Node1&#45;&gt;Node4</title>
<g id="a_edge3_Node000001_Node000004"><a xlink:title=" ">
<path fill="none" stroke="#63b8ff" d="M432.69,-241.99C364.42,-233.08 254.18,-218.65 159,-206 146.46,-204.33 133.07,-202.54 120.22,-200.81"/>
<polygon fill="#63b8ff" stroke="#63b8ff" points="120.43,-197.31 110.05,-199.44 119.49,-204.25 120.43,-197.31"/>
</a>
</g>
</g>
<!-- Node6 -->
<g id="Node000006" class="node">
<title>Node6</title>
<g id="a_Node000006"><a xlink:href="fm-properties-window_8h.html" target="_top" xlink:title=" ">
<polygon fill="white" stroke="#666666" points="317.5,-206 168.5,-206 168.5,-176 317.5,-176 317.5,-206"/>
<text text-anchor="start" x="176.5" y="-194" font-family="Helvetica,sans-Serif" font-size="10.00">file&#45;manager/fm&#45;properties</text>
<text text-anchor="middle" x="243" y="-183" font-family="Helvetica,sans-Serif" font-size="10.00">&#45;window.h</text>
</a>
</g>
</g>
<!-- Node1&#45;&gt;Node6 -->
<g id="edge5_Node000001_Node000006" class="edge">
<title>Node1&#45;&gt;Node6</title>
<g id="a_edge5_Node000001_Node000006"><a xlink:title=" ">
<path fill="none" stroke="#63b8ff" d="M460.92,-241.99C422.62,-233.21 361.89,-219.27 314.26,-208.35"/>
<polygon fill="#63b8ff" stroke="#63b8ff" points="314.84,-204.89 304.31,-206.06 313.27,-211.71 314.84,-204.89"/>
</a>
</g>
</g>
<!-- Node14 -->
<g id="Node000014" class="node">
<title>Node14</title>
<g id="a_Node000014"><a xlink:href="caja-application_8h.html" target="_top" xlink:title=" ">
<polygon fill="white" stroke="#666666" points="581,-74 477,-74 477,-55 581,-55 581,-74"/>
<text text-anchor="middle" x="529" y="-62" font-family="Helvetica,sans-Serif" font-size="10.00">caja&#45;application.h</text>
</a>
</g>
</g>
<!-- Node1&#45;&gt;Node14 -->
<g id="edge17_Node000001_Node000014" class="edge">
<title>Node1&#45;&gt;Node14</title>
<g id="a_edge17_Node000001_Node000014"><a xlink:title=" ">
<path fill="none" stroke="#63b8ff" d="M499.5,-241.58C504.27,-213.07 519.24,-123.74 525.83,-84.41"/>
<polygon fill="#63b8ff" stroke="#63b8ff" points="529.32,-84.77 527.52,-74.33 522.42,-83.62 529.32,-84.77"/>
</a>
</g>
</g>
<!-- Node16 -->
<g id="Node000016" class="node">
<title>Node16</title>
<g id="a_Node000016"><a xlink:href="caja-freedesktop-dbus_8h.html" target="_top" xlink:title=" ">
<polygon fill="white" stroke="#666666" points="471.5,-134.5 336.5,-134.5 336.5,-115.5 471.5,-115.5 471.5,-134.5"/>
<text text-anchor="middle" x="404" y="-122.5" font-family="Helvetica,sans-Serif" font-size="10.00">caja&#45;freedesktop&#45;dbus.h</text>
</a>
</g>
</g>
<!-- Node1&#45;&gt;Node16 -->
<g id="edge23_Node000001_Node000016" class="edge">
<title>Node1&#45;&gt;Node16</title>
<g id="a_edge23_Node000001_Node000016"><a xlink:title=" ">
<path fill="none" stroke="#63b8ff" d="M491.54,-241.94C476.11,-221.51 436.9,-169.57 416.6,-142.69"/>
<polygon fill="#63b8ff" stroke="#63b8ff" points="419.33,-140.49 410.51,-134.62 413.74,-144.71 419.33,-140.49"/>
</a>
</g>
</g>
<!-- Node17 -->
<g id="Node000017" class="node">
<title>Node17</title>
<g id="a_Node000017"><a xlink:href="caja-freedesktop-generated_8h.html" target="_top" xlink:title=" ">
<polygon fill="white" stroke="#666666" points="687.5,-200.5 526.5,-200.5 526.5,-181.5 687.5,-181.5 687.5,-200.5"/>
<text text-anchor="middle" x="607" y="-188.5" font-family="Helvetica,sans-Serif" font-size="10.00">caja&#45;freedesktop&#45;generated.h</text>
</a>
</g>
</g>
<!-- Node1&#45;&gt;Node17 -->
<g id="edge26_Node000001_Node000017" class="edge">
<title>Node1&#45;&gt;Node17</title>
<g id="a_edge26_Node000001_Node000017"><a xlink:title=" ">
<path fill="none" stroke="#63b8ff" d="M514.08,-241.87C531.95,-232.28 561.04,-216.67 581.91,-205.47"/>
<polygon fill="#63b8ff" stroke="#63b8ff" points="583.69,-208.48 590.85,-200.67 580.38,-202.31 583.69,-208.48"/>
</a>
</g>
</g>
<!-- Node5 -->
<g id="Node000005" class="node">
<title>Node5</title>
<g id="a_Node000005"><a xlink:title=" ">
<polygon fill="#e0e0e0" stroke="#999999" points="63,-134.5 19,-134.5 19,-115.5 63,-115.5 63,-134.5"/>
<text text-anchor="middle" x="41" y="-122.5" font-family="Helvetica,sans-Serif" font-size="10.00">glib.h</text>
</a>
</g>
</g>
<!-- Node4&#45;&gt;Node5 -->
<g id="edge4_Node000004_Node000005" class="edge">
<title>Node4&#45;&gt;Node5</title>
<g id="a_edge4_Node000004_Node000005"><a xlink:title=" ">
<path fill="none" stroke="#63b8ff" d="M51.89,-175.8C49.9,-166.7 47.3,-154.79 45.13,-144.9"/>
<polygon fill="#63b8ff" stroke="#63b8ff" points="48.49,-143.87 42.93,-134.84 41.65,-145.36 48.49,-143.87"/>
</a>
</g>
</g>
<!-- Node7 -->
<g id="Node000007" class="node">
<title>Node7</title>
<g id="a_Node000007"><a xlink:title=" ">
<polygon fill="#e0e0e0" stroke="#999999" points="159,-19 99,-19 99,0 159,0 159,-19"/>
<text text-anchor="middle" x="129" y="-7" font-family="Helvetica,sans-Serif" font-size="10.00">gtk/gtk.h</text>
</a>
</g>
</g>
<!-- Node6&#45;&gt;Node7 -->
<g id="edge6_Node000006_Node000007" class="edge">
<title>Node6&#45;&gt;Node7</title>
<g id="a_edge6_Node000006_Node000007"><a xlink:title=" ">
<path fill="none" stroke="#63b8ff" d="M221.53,-175.88C194.58,-156.65 149.97,-119.36 134,-74 128.89,-59.48 127.86,-41.97 127.98,-29.02"/>
<polygon fill="#63b8ff" stroke="#63b8ff" points="131.48,-29.11 128.31,-19 124.48,-28.88 131.48,-29.11"/>
</a>
</g>
</g>
<!-- Node8 -->
<g id="Node000008" class="node">
<title>Node8</title>
<g id="a_Node000008"><a xlink:href="caja-file_8h.html" target="_top" xlink:title=" ">
<polygon fill="white" stroke="#666666" points="298,-140 188,-140 188,-110 298,-110 298,-140"/>
<text text-anchor="start" x="196" y="-128" font-family="Helvetica,sans-Serif" font-size="10.00">libcaja&#45;private/caja</text>
<text text-anchor="middle" x="243" y="-117" font-family="Helvetica,sans-Serif" font-size="10.00">&#45;file.h</text>
</a>
</g>
</g>
<!-- Node6&#45;&gt;Node8 -->
<g id="edge7_Node000006_Node000008" class="edge">
<title>Node6&#45;&gt;Node8</title>
<g id="a_edge7_Node000006_Node000008"><a xlink:title=" ">
<path fill="none" stroke="#63b8ff" d="M243,-175.8C243,-168.34 243,-158.99 243,-150.41"/>
<polygon fill="#63b8ff" stroke="#63b8ff" points="246.5,-150.16 243,-140.16 239.5,-150.16 246.5,-150.16"/>
</a>
</g>
</g>
<!-- Node8&#45;&gt;Node3 -->
<g id="edge9_Node000008_Node000003" class="edge">
<title>Node8&#45;&gt;Node3</title>
<g id="a_edge9_Node000008_Node000003"><a xlink:title=" ">
<path fill="none" stroke="#63b8ff" d="M288.37,-109.97C318.09,-100.48 357.65,-87.3 392,-74 433.25,-58.02 479.92,-36.85 508.66,-23.45"/>
<polygon fill="#63b8ff" stroke="#63b8ff" points="510.47,-26.47 518.04,-19.06 507.5,-20.13 510.47,-26.47"/>
</a>
</g>
</g>
<!-- Node8&#45;&gt;Node7 -->
<g id="edge8_Node000008_Node000007" class="edge">
<title>Node8&#45;&gt;Node7</title>
<g id="a_edge8_Node000008_Node000007"><a xlink:title=" ">
<path fill="none" stroke="#63b8ff" d="M199.72,-109.85C181.46,-101.91 161.38,-90.26 148,-74 137.6,-61.37 132.89,-43.18 130.76,-29.5"/>
<polygon fill="#63b8ff" stroke="#63b8ff" points="134.2,-28.8 129.51,-19.3 127.25,-29.65 134.2,-28.8"/>
</a>
</g>
</g>
<!-- Node9 -->
<g id="Node000009" class="node">
<title>Node9</title>
<g id="a_Node000009"><a xlink:href="caja-file-attributes_8h.html" target="_top" xlink:title=" ">
<polygon fill="white" stroke="#666666" points="273,-74 157,-74 157,-55 273,-55 273,-74"/>
<text text-anchor="middle" x="215" y="-62" font-family="Helvetica,sans-Serif" font-size="10.00">caja&#45;file&#45;attributes.h</text>
</a>
</g>
</g>
<!-- Node8&#45;&gt;Node9 -->
<g id="edge10_Node000008_Node000009" class="edge">
<title>Node8&#45;&gt;Node9</title>
<g id="a_edge10_Node000008_Node000009"><a xlink:title=" ">
<path fill="none" stroke="#63b8ff" d="M236.22,-109.84C232.41,-101.87 227.61,-91.84 223.54,-83.33"/>
<polygon fill="#63b8ff" stroke="#63b8ff" points="226.67,-81.77 219.2,-74.27 220.36,-84.8 226.67,-81.77"/>
</a>
</g>
</g>
<!-- Node10 -->
<g id="Node000010" class="node">
<title>Node10</title>
<g id="a_Node000010"><a xlink:href="caja-icon-info_8h.html" target="_top" xlink:title=" ">
<polygon fill="white" stroke="#666666" points="383,-74 291,-74 291,-55 383,-55 383,-74"/>
<text text-anchor="middle" x="337" y="-62" font-family="Helvetica,sans-Serif" font-size="10.00">caja&#45;icon&#45;info.h</text>
</a>
</g>
</g>
<!-- Node8&#45;&gt;Node10 -->
<g id="edge11_Node000008_Node000010" class="edge">
<title>Node8&#45;&gt;Node10</title>
<g id="a_edge11_Node000008_Node000010"><a xlink:title=" ">
<path fill="none" stroke="#63b8ff" d="M265.75,-109.84C280.6,-100.6 299.9,-88.59 314.66,-79.4"/>
<polygon fill="#63b8ff" stroke="#63b8ff" points="316.55,-82.35 323.19,-74.09 312.85,-76.41 316.55,-82.35"/>
</a>
</g>
</g>
<!-- Node10&#45;&gt;Node3 -->
<g id="edge15_Node000010_Node000003" class="edge">
<title>Node10&#45;&gt;Node3</title>
<g id="a_edge15_Node000010_Node000003"><a xlink:title=" ">
<path fill="none" stroke="#63b8ff" d="M368.97,-54.98C403.62,-45.76 458.95,-31.02 496.34,-21.06"/>
<polygon fill="#63b8ff" stroke="#63b8ff" points="497.62,-24.34 506.38,-18.39 495.82,-17.58 497.62,-24.34"/>
</a>
</g>
</g>
<!-- Node10&#45;&gt;Node7 -->
<g id="edge16_Node000010_Node000007" class="edge">
<title>Node10&#45;&gt;Node7</title>
<g id="a_edge16_Node000010_Node000007"><a xlink:title=" ">
<path fill="none" stroke="#63b8ff" d="M303.58,-54.98C266.92,-45.64 208.11,-30.66 169.02,-20.7"/>
<polygon fill="#63b8ff" stroke="#63b8ff" points="169.85,-17.3 159.29,-18.22 168.12,-24.08 169.85,-17.3"/>
</a>
</g>
</g>
<!-- Node11 -->
<g id="Node000011" class="node">
<title>Node11</title>
<g id="a_Node000011"><a xlink:title=" ">
<polygon fill="#e0e0e0" stroke="#999999" points="405.5,-19 328.5,-19 328.5,0 405.5,0 405.5,-19"/>
<text text-anchor="middle" x="367" y="-7" font-family="Helvetica,sans-Serif" font-size="10.00">glib&#45;object.h</text>
</a>
</g>
</g>
<!-- Node10&#45;&gt;Node11 -->
<g id="edge12_Node000010_Node000011" class="edge">
<title>Node10&#45;&gt;Node11</title>
<g id="a_edge12_Node000010_Node000011"><a xlink:title=" ">
<path fill="none" stroke="#63b8ff" d="M341.95,-54.75C346.06,-47.49 352.03,-36.95 357.1,-27.98"/>
<polygon fill="#63b8ff" stroke="#63b8ff" points="360.26,-29.52 362.14,-19.09 354.17,-26.07 360.26,-29.52"/>
</a>
</g>
</g>
<!-- Node12 -->
<g id="Node000012" class="node">
<title>Node12</title>
<g id="a_Node000012"><a xlink:title=" ">
<polygon fill="#e0e0e0" stroke="#999999" points="310.5,-19 177.5,-19 177.5,0 310.5,0 310.5,-19"/>
<text text-anchor="middle" x="244" y="-7" font-family="Helvetica,sans-Serif" font-size="10.00">gdk&#45;pixbuf/gdk&#45;pixbuf.h</text>
</a>
</g>
</g>
<!-- Node10&#45;&gt;Node12 -->
<g id="edge13_Node000010_Node000012" class="edge">
<title>Node10&#45;&gt;Node12</title>
<g id="a_edge13_Node000010_Node000012"><a xlink:title=" ">
<path fill="none" stroke="#63b8ff" d="M322.06,-54.98C307.5,-46.69 285.13,-33.94 268.07,-24.22"/>
<polygon fill="#63b8ff" stroke="#63b8ff" points="269.64,-21.08 259.21,-19.17 266.17,-27.16 269.64,-21.08"/>
</a>
</g>
</g>
<!-- Node13 -->
<g id="Node000013" class="node">
<title>Node13</title>
<g id="a_Node000013"><a xlink:title=" ">
<polygon fill="#e0e0e0" stroke="#999999" points="488.5,-19 423.5,-19 423.5,0 488.5,0 488.5,-19"/>
<text text-anchor="middle" x="456" y="-7" font-family="Helvetica,sans-Serif" font-size="10.00">gdk/gdk.h</text>
</a>
</g>
</g>
<!-- Node10&#45;&gt;Node13 -->
<g id="edge14_Node000010_Node000013" class="edge">
<title>Node10&#45;&gt;Node13</title>
<g id="a_edge14_Node000010_Node000013"><a xlink:title=" ">
<path fill="none" stroke="#63b8ff" d="M356.12,-54.98C375.35,-46.42 405.23,-33.11 427.31,-23.28"/>
<polygon fill="#63b8ff" stroke="#63b8ff" points="428.82,-26.44 436.53,-19.17 425.97,-20.04 428.82,-26.44"/>
</a>
</g>
</g>
<!-- Node14&#45;&gt;Node2 -->
<g id="edge18_Node000014_Node000002" class="edge">
<title>Node14&#45;&gt;Node2</title>
<g id="a_edge18_Node000014_Node000002"><a xlink:title=" ">
<path fill="none" stroke="#63b8ff" d="M564.83,-54.98C605.89,-45.23 672.87,-29.31 714.59,-19.39"/>
<polygon fill="#63b8ff" stroke="#63b8ff" points="715.44,-22.79 724.36,-17.07 713.82,-15.98 715.44,-22.79"/>
</a>
</g>
</g>
<!-- Node14&#45;&gt;Node3 -->
<g id="edge20_Node000014_Node000003" class="edge">
<title>Node14&#45;&gt;Node3</title>
<g id="a_edge20_Node000014_Node000003"><a xlink:title=" ">
<path fill="none" stroke="#63b8ff" d="M530.16,-54.75C531.07,-47.8 532.39,-37.85 533.54,-29.13"/>
<polygon fill="#63b8ff" stroke="#63b8ff" points="537.03,-29.46 534.87,-19.09 530.09,-28.54 537.03,-29.46"/>
</a>
</g>
</g>
<!-- Node14&#45;&gt;Node7 -->
<g id="edge21_Node000014_Node000007" class="edge">
<title>Node14&#45;&gt;Node7</title>
<g id="a_edge21_Node000014_Node000007"><a xlink:title=" ">
<path fill="none" stroke="#63b8ff" d="M476.77,-58.58C408.36,-51.81 284.52,-38.39 169.24,-19.07"/>
<polygon fill="#63b8ff" stroke="#63b8ff" points="169.62,-15.58 159.18,-17.36 168.45,-22.49 169.62,-15.58"/>
</a>
</g>
</g>
<!-- Node14&#45;&gt;Node13 -->
<g id="edge19_Node000014_Node000013" class="edge">
<title>Node14&#45;&gt;Node13</title>
<g id="a_edge19_Node000014_Node000013"><a xlink:title=" ">
<path fill="none" stroke="#63b8ff" d="M517.27,-54.98C506.27,-47 489.58,-34.88 476.4,-25.31"/>
<polygon fill="#63b8ff" stroke="#63b8ff" points="478.09,-22.21 467.94,-19.17 473.98,-27.88 478.09,-22.21"/>
</a>
</g>
</g>
<!-- Node15 -->
<g id="Node000015" class="node">
<title>Node15</title>
<g id="a_Node000015"><a xlink:title=" ">
<polygon fill="#e0e0e0" stroke="#999999" points="702.5,-19 583.5,-19 583.5,0 702.5,0 702.5,-19"/>
<text text-anchor="middle" x="643" y="-7" font-family="Helvetica,sans-Serif" font-size="10.00">libegg/eggsmclient.h</text>
</a>
</g>
</g>
<!-- Node14&#45;&gt;Node15 -->
<g id="edge22_Node000014_Node000015" class="edge">
<title>Node14&#45;&gt;Node15</title>
<g id="a_edge22_Node000014_Node000015"><a xlink:title=" ">
<path fill="none" stroke="#63b8ff" d="M547.32,-54.98C565.66,-46.46 594.11,-33.23 615.23,-23.41"/>
<polygon fill="#63b8ff" stroke="#63b8ff" points="616.76,-26.56 624.35,-19.17 613.81,-20.21 616.76,-26.56"/>
</a>
</g>
</g>
<!-- Node16&#45;&gt;Node11 -->
<g id="edge24_Node000016_Node000011" class="edge">
<title>Node16&#45;&gt;Node11</title>
<g id="a_edge24_Node000016_Node000011"><a xlink:title=" ">
<path fill="none" stroke="#63b8ff" d="M403.43,-115.26C402.36,-101.93 399.42,-75.85 392,-55 388.66,-45.62 383.44,-35.91 378.63,-27.96"/>
<polygon fill="#63b8ff" stroke="#63b8ff" points="381.43,-25.84 373.12,-19.27 375.52,-29.59 381.43,-25.84"/>
</a>
</g>
</g>
<!-- Node16&#45;&gt;Node14 -->
<g id="edge25_Node000016_Node000014" class="edge">
<title>Node16&#45;&gt;Node14</title>
<g id="a_edge25_Node000016_Node000014"><a xlink:title=" ">
<path fill="none" stroke="#63b8ff" d="M422.18,-115.49C443.01,-105.75 477.37,-89.66 501.48,-78.38"/>
<polygon fill="#63b8ff" stroke="#63b8ff" points="503.23,-81.43 510.8,-74.02 500.26,-75.09 503.23,-81.43"/>
</a>
</g>
</g>
<!-- Node17&#45;&gt;Node3 -->
<g id="edge27_Node000017_Node000003" class="edge">
<title>Node17&#45;&gt;Node3</title>
<g id="a_edge27_Node000017_Node000003"><a xlink:title=" ">
<path fill="none" stroke="#63b8ff" d="M607.99,-181.44C610.18,-159.07 613.48,-97.63 590,-55 583.11,-42.49 571.16,-32.08 560.25,-24.49"/>
<polygon fill="#63b8ff" stroke="#63b8ff" points="562.13,-21.54 551.84,-19.01 558.31,-27.4 562.13,-21.54"/>
</a>
</g>
</g>
</g>
</svg>
