<?xml version="1.0" encoding="UTF-8" standalone="no"?>
<!DOCTYPE svg PUBLIC "-//W3C//DTD SVG 1.1//EN"
 "http://www.w3.org/Graphics/SVG/1.1/DTD/svg11.dtd">
<!-- Generated by graphviz version 2.43.0 (0)
 -->
<!-- Title: caja&#45;marshal.h Pages: 1 -->
<svg width="507pt" height="93pt"
 viewBox="0.00 0.00 506.50 93.00" xmlns="http://www.w3.org/2000/svg" xmlns:xlink="http://www.w3.org/1999/xlink">
<g id="graph0" class="graph" transform="scale(1 1) rotate(0) translate(4 89)">
<title>caja&#45;marshal.h</title>
<!-- Node1 -->
<g id="Node000001" class="node">
<title>Node1</title>
<g id="a_Node000001"><a xlink:title=" ">
<polygon fill="#999999" stroke="#666666" points="308,-85 219,-85 219,-66 308,-66 308,-85"/>
<text text-anchor="middle" x="263.5" y="-73" font-family="Helvetica,sans-Serif" font-size="10.00">caja&#45;marshal.h</text>
</a>
</g>
</g>
<!-- Node2 -->
<g id="Node000002" class="node">
<title>Node2</title>
<g id="a_Node000002"><a xlink:href="caja-directory-async_8c.html" target="_top" xlink:title=" ">
<polygon fill="white" stroke="#666666" points="125,-24.5 0,-24.5 0,-5.5 125,-5.5 125,-24.5"/>
<text text-anchor="middle" x="62.5" y="-12.5" font-family="Helvetica,sans-Serif" font-size="10.00">caja&#45;directory&#45;async.c</text>
</a>
</g>
</g>
<!-- Node1&#45;&gt;Node2 -->
<g id="edge1_Node000001_Node000002" class="edge">
<title>Node1&#45;&gt;Node2</title>
<g id="a_edge1_Node000001_Node000002"><a xlink:title=" ">
<path fill="none" stroke="#63b8ff" d="M224.36,-63.11C185.48,-51.79 126.76,-34.7 91.76,-24.52"/>
<polygon fill="#63b8ff" stroke="#63b8ff" points="223.69,-66.56 234.27,-65.99 225.65,-59.84 223.69,-66.56"/>
</a>
</g>
</g>
<!-- Node3 -->
<g id="Node000003" class="node">
<title>Node3</title>
<g id="a_Node000003"><a xlink:href="caja-icon-container_8c.html" target="_top" xlink:title=" ">
<polygon fill="white" stroke="#666666" points="261.5,-24.5 143.5,-24.5 143.5,-5.5 261.5,-5.5 261.5,-24.5"/>
<text text-anchor="middle" x="202.5" y="-12.5" font-family="Helvetica,sans-Serif" font-size="10.00">caja&#45;icon&#45;container.c</text>
</a>
</g>
</g>
<!-- Node1&#45;&gt;Node3 -->
<g id="edge2_Node000001_Node000003" class="edge">
<title>Node1&#45;&gt;Node3</title>
<g id="a_edge2_Node000001_Node000003"><a xlink:title=" ">
<path fill="none" stroke="#63b8ff" d="M247.24,-58.91C235.8,-47.94 220.92,-33.67 211.54,-24.67"/>
<polygon fill="#63b8ff" stroke="#63b8ff" points="244.86,-61.47 254.5,-65.87 249.7,-56.42 244.86,-61.47"/>
</a>
</g>
</g>
<!-- Node4 -->
<g id="Node000004" class="node">
<title>Node4</title>
<g id="a_Node000004"><a xlink:href="caja-marshal_8c.html" target="_top" xlink:title=" ">
<polygon fill="white" stroke="#666666" points="369,-24.5 280,-24.5 280,-5.5 369,-5.5 369,-24.5"/>
<text text-anchor="middle" x="324.5" y="-12.5" font-family="Helvetica,sans-Serif" font-size="10.00">caja&#45;marshal.c</text>
</a>
</g>
</g>
<!-- Node1&#45;&gt;Node4 -->
<g id="edge3_Node000001_Node000004" class="edge">
<title>Node1&#45;&gt;Node4</title>
<g id="a_edge3_Node000001_Node000004"><a xlink:title=" ">
<path fill="none" stroke="#63b8ff" d="M279.76,-58.91C291.2,-47.94 306.08,-33.67 315.46,-24.67"/>
<polygon fill="#63b8ff" stroke="#63b8ff" points="277.3,-56.42 272.5,-65.87 282.14,-61.47 277.3,-56.42"/>
</a>
</g>
</g>
<!-- Node5 -->
<g id="Node000005" class="node">
<title>Node5</title>
<g id="a_Node000005"><a xlink:href="caja-tree-view-drag-dest_8c.html" target="_top" xlink:title=" ">
<polygon fill="white" stroke="#666666" points="498.5,-30 386.5,-30 386.5,0 498.5,0 498.5,-30"/>
<text text-anchor="start" x="394.5" y="-18" font-family="Helvetica,sans-Serif" font-size="10.00">caja&#45;tree&#45;view&#45;drag</text>
<text text-anchor="middle" x="442.5" y="-7" font-family="Helvetica,sans-Serif" font-size="10.00">&#45;dest.c</text>
</a>
</g>
</g>
<!-- Node1&#45;&gt;Node5 -->
<g id="edge4_Node000001_Node000005" class="edge">
<title>Node1&#45;&gt;Node5</title>
<g id="a_edge4_Node000001_Node000005"><a xlink:title=" ">
<path fill="none" stroke="#63b8ff" d="M299.21,-62.83C328.07,-53.4 368.8,-40.09 399.47,-30.06"/>
<polygon fill="#63b8ff" stroke="#63b8ff" points="297.95,-59.56 289.53,-65.99 300.12,-66.21 297.95,-59.56"/>
</a>
</g>
</g>
</g>
</svg>
