<?xml version="1.0" encoding="UTF-8" standalone="no"?>
<!DOCTYPE svg PUBLIC "-//W3C//DTD SVG 1.1//EN"
 "http://www.w3.org/Graphics/SVG/1.1/DTD/svg11.dtd">
<!-- Generated by graphviz version 2.43.0 (0)
 -->
<!-- Title: clock&#45;location.c Pages: 1 -->
<svg width="1371pt" height="192pt"
 viewBox="0.00 0.00 1371.00 192.00" xmlns="http://www.w3.org/2000/svg" xmlns:xlink="http://www.w3.org/1999/xlink">
<g id="graph0" class="graph" transform="scale(1 1) rotate(0) translate(4 188)">
<title>clock&#45;location.c</title>
<!-- Node1 -->
<g id="Node000001" class="node">
<title>Node1</title>
<g id="a_Node000001"><a xlink:title=" ">
<polygon fill="#999999" stroke="#666666" points="654.5,-184 561.5,-184 561.5,-165 654.5,-165 654.5,-184"/>
<text text-anchor="middle" x="608" y="-172" font-family="Helvetica,sans-Serif" font-size="10.00">clock&#45;location.c</text>
</a>
</g>
</g>
<!-- Node2 -->
<g id="Node000002" class="node">
<title>Node2</title>
<g id="a_Node000002"><a xlink:title=" ">
<polygon fill="#e0e0e0" stroke="#999999" points="54,-129 0,-129 0,-110 54,-110 54,-129"/>
<text text-anchor="middle" x="27" y="-117" font-family="Helvetica,sans-Serif" font-size="10.00">dirent.h</text>
</a>
</g>
</g>
<!-- Node1&#45;&gt;Node2 -->
<g id="edge1_Node000001_Node000002" class="edge">
<title>Node1&#45;&gt;Node2</title>
<g id="a_edge1_Node000001_Node000002"><a xlink:title=" ">
<path fill="none" stroke="#63b8ff" d="M561.42,-172.06C468.58,-168.67 253.81,-158.29 64.19,-128.94"/>
<polygon fill="#63b8ff" stroke="#63b8ff" points="64.46,-125.44 54.04,-127.34 63.38,-132.35 64.46,-125.44"/>
</a>
</g>
</g>
<!-- Node3 -->
<g id="Node000003" class="node">
<title>Node3</title>
<g id="a_Node000003"><a xlink:title=" ">
<polygon fill="#e0e0e0" stroke="#999999" points="123.5,-129 72.5,-129 72.5,-110 123.5,-110 123.5,-129"/>
<text text-anchor="middle" x="98" y="-117" font-family="Helvetica,sans-Serif" font-size="10.00">errno.h</text>
</a>
</g>
</g>
<!-- Node1&#45;&gt;Node3 -->
<g id="edge2_Node000001_Node000003" class="edge">
<title>Node1&#45;&gt;Node3</title>
<g id="a_edge2_Node000001_Node000003"><a xlink:title=" ">
<path fill="none" stroke="#63b8ff" d="M561.41,-171.49C477.59,-167.37 295.72,-156.12 133.68,-129.05"/>
<polygon fill="#63b8ff" stroke="#63b8ff" points="133.98,-125.55 123.53,-127.32 132.81,-132.45 133.98,-125.55"/>
</a>
</g>
</g>
<!-- Node4 -->
<g id="Node000004" class="node">
<title>Node4</title>
<g id="a_Node000004"><a xlink:title=" ">
<polygon fill="#e0e0e0" stroke="#999999" points="194.5,-129 141.5,-129 141.5,-110 194.5,-110 194.5,-129"/>
<text text-anchor="middle" x="168" y="-117" font-family="Helvetica,sans-Serif" font-size="10.00">stdlib.h</text>
</a>
</g>
</g>
<!-- Node1&#45;&gt;Node4 -->
<g id="edge3_Node000001_Node000004" class="edge">
<title>Node1&#45;&gt;Node4</title>
<g id="a_edge3_Node000001_Node000004"><a xlink:title=" ">
<path fill="none" stroke="#63b8ff" d="M561.39,-170.23C487.77,-164.65 339.92,-151.8 204.78,-128.92"/>
<polygon fill="#63b8ff" stroke="#63b8ff" points="205.11,-125.42 194.66,-127.18 203.93,-132.32 205.11,-125.42"/>
</a>
</g>
</g>
<!-- Node5 -->
<g id="Node000005" class="node">
<title>Node5</title>
<g id="a_Node000005"><a xlink:title=" ">
<polygon fill="#e0e0e0" stroke="#999999" points="263,-129 213,-129 213,-110 263,-110 263,-129"/>
<text text-anchor="middle" x="238" y="-117" font-family="Helvetica,sans-Serif" font-size="10.00">stdio.h</text>
</a>
</g>
</g>
<!-- Node1&#45;&gt;Node5 -->
<g id="edge4_Node000001_Node000005" class="edge">
<title>Node1&#45;&gt;Node5</title>
<g id="a_edge4_Node000001_Node000005"><a xlink:title=" ">
<path fill="none" stroke="#63b8ff" d="M561.26,-169C498.08,-162.55 381.77,-149.36 273.31,-129.05"/>
<polygon fill="#63b8ff" stroke="#63b8ff" points="273.66,-125.56 263.18,-127.13 272.35,-132.44 273.66,-125.56"/>
</a>
</g>
</g>
<!-- Node6 -->
<g id="Node000006" class="node">
<title>Node6</title>
<g id="a_Node000006"><a xlink:title=" ">
<polygon fill="#e0e0e0" stroke="#999999" points="334.5,-129 281.5,-129 281.5,-110 334.5,-110 334.5,-129"/>
<text text-anchor="middle" x="308" y="-117" font-family="Helvetica,sans-Serif" font-size="10.00">string.h</text>
</a>
</g>
</g>
<!-- Node1&#45;&gt;Node6 -->
<g id="edge5_Node000001_Node000006" class="edge">
<title>Node1&#45;&gt;Node6</title>
<g id="a_edge5_Node000001_Node000006"><a xlink:title=" ">
<path fill="none" stroke="#63b8ff" d="M561.1,-166.53C510.25,-158.77 426.49,-145.38 344.66,-129.02"/>
<polygon fill="#63b8ff" stroke="#63b8ff" points="345.19,-125.55 334.69,-127.01 343.8,-132.41 345.19,-125.55"/>
</a>
</g>
</g>
<!-- Node7 -->
<g id="Node000007" class="node">
<title>Node7</title>
<g id="a_Node000007"><a xlink:title=" ">
<polygon fill="#e0e0e0" stroke="#999999" points="425,-129 353,-129 353,-110 425,-110 425,-129"/>
<text text-anchor="middle" x="389" y="-117" font-family="Helvetica,sans-Serif" font-size="10.00">sys/types.h</text>
</a>
</g>
</g>
<!-- Node1&#45;&gt;Node7 -->
<g id="edge6_Node000001_Node000007" class="edge">
<title>Node1&#45;&gt;Node7</title>
<g id="a_edge6_Node000001_Node000007"><a xlink:title=" ">
<path fill="none" stroke="#63b8ff" d="M572.81,-164.98C535.17,-155.87 475.34,-141.4 434.23,-131.45"/>
<polygon fill="#63b8ff" stroke="#63b8ff" points="435,-128.03 424.46,-129.08 433.36,-134.84 435,-128.03"/>
</a>
</g>
</g>
<!-- Node8 -->
<g id="Node000008" class="node">
<title>Node8</title>
<g id="a_Node000008"><a xlink:title=" ">
<polygon fill="#e0e0e0" stroke="#999999" points="507,-129 443,-129 443,-110 507,-110 507,-129"/>
<text text-anchor="middle" x="475" y="-117" font-family="Helvetica,sans-Serif" font-size="10.00">sys/stat.h</text>
</a>
</g>
</g>
<!-- Node1&#45;&gt;Node8 -->
<g id="edge7_Node000001_Node000008" class="edge">
<title>Node1&#45;&gt;Node8</title>
<g id="a_edge7_Node000001_Node000008"><a xlink:title=" ">
<path fill="none" stroke="#63b8ff" d="M586.63,-164.98C564.85,-156.3 530.84,-142.75 506.08,-132.88"/>
<polygon fill="#63b8ff" stroke="#63b8ff" points="507.34,-129.62 496.76,-129.17 504.75,-136.12 507.34,-129.62"/>
</a>
</g>
</g>
<!-- Node9 -->
<g id="Node000009" class="node">
<title>Node9</title>
<g id="a_Node000009"><a xlink:title=" ">
<polygon fill="#e0e0e0" stroke="#999999" points="632,-74 584,-74 584,-55 632,-55 632,-74"/>
<text text-anchor="middle" x="608" y="-62" font-family="Helvetica,sans-Serif" font-size="10.00">time.h</text>
</a>
</g>
</g>
<!-- Node1&#45;&gt;Node9 -->
<g id="edge8_Node000001_Node000009" class="edge">
<title>Node1&#45;&gt;Node9</title>
<g id="a_edge8_Node000001_Node000009"><a xlink:title=" ">
<path fill="none" stroke="#63b8ff" d="M591.28,-164.94C571.73,-153.68 543.32,-132.64 554,-110 560.01,-97.26 571.66,-86.92 582.61,-79.44"/>
<polygon fill="#63b8ff" stroke="#63b8ff" points="584.54,-82.36 591.11,-74.05 580.79,-76.44 584.54,-82.36"/>
</a>
</g>
</g>
<!-- Node10 -->
<g id="Node000010" class="node">
<title>Node10</title>
<g id="a_Node000010"><a xlink:title=" ">
<polygon fill="#e0e0e0" stroke="#999999" points="1138,-129 1082,-129 1082,-110 1138,-110 1138,-129"/>
<text text-anchor="middle" x="1110" y="-117" font-family="Helvetica,sans-Serif" font-size="10.00">unistd.h</text>
</a>
</g>
</g>
<!-- Node1&#45;&gt;Node10 -->
<g id="edge9_Node000001_Node000010" class="edge">
<title>Node1&#45;&gt;Node10</title>
<g id="a_edge9_Node000001_Node000010"><a xlink:title=" ">
<path fill="none" stroke="#63b8ff" d="M654.79,-171.05C737.19,-166.28 913.67,-154.12 1071.88,-128.98"/>
<polygon fill="#63b8ff" stroke="#63b8ff" points="1072.48,-132.42 1081.79,-127.38 1071.36,-125.51 1072.48,-132.42"/>
</a>
</g>
</g>
<!-- Node11 -->
<g id="Node000011" class="node">
<title>Node11</title>
<g id="a_Node000011"><a xlink:title=" ">
<polygon fill="#e0e0e0" stroke="#999999" points="1207.5,-129 1156.5,-129 1156.5,-110 1207.5,-110 1207.5,-129"/>
<text text-anchor="middle" x="1182" y="-117" font-family="Helvetica,sans-Serif" font-size="10.00">math.h</text>
</a>
</g>
</g>
<!-- Node1&#45;&gt;Node11 -->
<g id="edge10_Node000001_Node000011" class="edge">
<title>Node1&#45;&gt;Node11</title>
<g id="a_edge10_Node000001_Node000011"><a xlink:title=" ">
<path fill="none" stroke="#63b8ff" d="M654.8,-172.09C747.04,-168.78 958.87,-158.56 1146.44,-128.8"/>
<polygon fill="#63b8ff" stroke="#63b8ff" points="1147.16,-132.23 1156.48,-127.18 1146.05,-125.32 1147.16,-132.23"/>
</a>
</g>
</g>
<!-- Node12 -->
<g id="Node000012" class="node">
<title>Node12</title>
<g id="a_Node000012"><a xlink:title=" ">
<polygon fill="#e0e0e0" stroke="#999999" points="698,-74 654,-74 654,-55 698,-55 698,-74"/>
<text text-anchor="middle" x="676" y="-62" font-family="Helvetica,sans-Serif" font-size="10.00">glib.h</text>
</a>
</g>
</g>
<!-- Node1&#45;&gt;Node12 -->
<g id="edge11_Node000001_Node000012" class="edge">
<title>Node1&#45;&gt;Node12</title>
<g id="a_edge11_Node000001_Node000012"><a xlink:title=" ">
<path fill="none" stroke="#63b8ff" d="M623.21,-164.92C635.58,-157.15 652.49,-144.54 662,-129 670.21,-115.6 673.63,-97.99 675.04,-84.72"/>
<polygon fill="#63b8ff" stroke="#63b8ff" points="678.56,-84.62 675.84,-74.38 671.58,-84.09 678.56,-84.62"/>
</a>
</g>
</g>
<!-- Node13 -->
<g id="Node000013" class="node">
<title>Node13</title>
<g id="a_Node000013"><a xlink:title=" ">
<polygon fill="#e0e0e0" stroke="#999999" points="1284.5,-129 1225.5,-129 1225.5,-110 1284.5,-110 1284.5,-129"/>
<text text-anchor="middle" x="1255" y="-117" font-family="Helvetica,sans-Serif" font-size="10.00">gio/gio.h</text>
</a>
</g>
</g>
<!-- Node1&#45;&gt;Node13 -->
<g id="edge12_Node000001_Node000013" class="edge">
<title>Node1&#45;&gt;Node13</title>
<g id="a_edge12_Node000001_Node000013"><a xlink:title=" ">
<path fill="none" stroke="#63b8ff" d="M654.86,-172.42C755.73,-169.6 1001,-160.02 1215.04,-129.09"/>
<polygon fill="#63b8ff" stroke="#63b8ff" points="1215.82,-132.51 1225.21,-127.6 1214.8,-125.59 1215.82,-132.51"/>
</a>
</g>
</g>
<!-- Node14 -->
<g id="Node000014" class="node">
<title>Node14</title>
<g id="a_Node000014"><a xlink:title=" ">
<polygon fill="#e0e0e0" stroke="#999999" points="1363,-129 1303,-129 1303,-110 1363,-110 1363,-129"/>
<text text-anchor="middle" x="1333" y="-117" font-family="Helvetica,sans-Serif" font-size="10.00">gtk/gtk.h</text>
</a>
</g>
</g>
<!-- Node1&#45;&gt;Node14 -->
<g id="edge13_Node000001_Node000014" class="edge">
<title>Node1&#45;&gt;Node14</title>
<g id="a_edge13_Node000001_Node000014"><a xlink:title=" ">
<path fill="none" stroke="#63b8ff" d="M654.83,-172.88C764.64,-170.89 1047.39,-162.79 1292.67,-128.96"/>
<polygon fill="#63b8ff" stroke="#63b8ff" points="1293.43,-132.39 1302.85,-127.54 1292.46,-125.46 1293.43,-132.39"/>
</a>
</g>
</g>
<!-- Node15 -->
<g id="Node000015" class="node">
<title>Node15</title>
<g id="a_Node000015"><a xlink:href="clock-location_8h.html" target="_top" xlink:title=" ">
<polygon fill="white" stroke="#666666" points="803,-129 709,-129 709,-110 803,-110 803,-129"/>
<text text-anchor="middle" x="756" y="-117" font-family="Helvetica,sans-Serif" font-size="10.00">clock&#45;location.h</text>
</a>
</g>
</g>
<!-- Node1&#45;&gt;Node15 -->
<g id="edge14_Node000001_Node000015" class="edge">
<title>Node1&#45;&gt;Node15</title>
<g id="a_edge14_Node000001_Node000015"><a xlink:title=" ">
<path fill="none" stroke="#63b8ff" d="M631.78,-164.98C656.23,-156.23 694.53,-142.51 722.15,-132.62"/>
<polygon fill="#63b8ff" stroke="#63b8ff" points="723.55,-135.84 731.79,-129.17 721.19,-129.25 723.55,-135.84"/>
</a>
</g>
</g>
<!-- Node19 -->
<g id="Node000019" class="node">
<title>Node19</title>
<g id="a_Node000019"><a xlink:href="clock-marshallers_8h.html" target="_top" xlink:title=" ">
<polygon fill="white" stroke="#666666" points="1063.5,-129 950.5,-129 950.5,-110 1063.5,-110 1063.5,-129"/>
<text text-anchor="middle" x="1007" y="-117" font-family="Helvetica,sans-Serif" font-size="10.00">clock&#45;marshallers.h</text>
</a>
</g>
</g>
<!-- Node1&#45;&gt;Node19 -->
<g id="edge20_Node000001_Node000019" class="edge">
<title>Node1&#45;&gt;Node19</title>
<g id="a_edge20_Node000001_Node000019"><a xlink:title=" ">
<path fill="none" stroke="#63b8ff" d="M654.55,-167.32C725.13,-157.94 859.52,-140.09 940.42,-129.34"/>
<polygon fill="#63b8ff" stroke="#63b8ff" points="941.05,-132.79 950.5,-128.01 940.12,-125.85 941.05,-132.79"/>
</a>
</g>
</g>
<!-- Node20 -->
<g id="Node000020" class="node">
<title>Node20</title>
<g id="a_Node000020"><a xlink:href="set-timezone_8h.html" target="_top" xlink:title=" ">
<polygon fill="white" stroke="#666666" points="653,-129 563,-129 563,-110 653,-110 653,-129"/>
<text text-anchor="middle" x="608" y="-117" font-family="Helvetica,sans-Serif" font-size="10.00">set&#45;timezone.h</text>
</a>
</g>
</g>
<!-- Node1&#45;&gt;Node20 -->
<g id="edge22_Node000001_Node000020" class="edge">
<title>Node1&#45;&gt;Node20</title>
<g id="a_edge22_Node000001_Node000020"><a xlink:title=" ">
<path fill="none" stroke="#63b8ff" d="M608,-164.75C608,-157.8 608,-147.85 608,-139.13"/>
<polygon fill="#63b8ff" stroke="#63b8ff" points="611.5,-139.09 608,-129.09 604.5,-139.09 611.5,-139.09"/>
</a>
</g>
</g>
<!-- Node21 -->
<g id="Node000021" class="node">
<title>Node21</title>
<g id="a_Node000021"><a xlink:href="mate-panel_2applets_2clock_2system-timezone_8h.html" target="_top" xlink:title=" ">
<polygon fill="white" stroke="#666666" points="932.5,-129 821.5,-129 821.5,-110 932.5,-110 932.5,-129"/>
<text text-anchor="middle" x="877" y="-117" font-family="Helvetica,sans-Serif" font-size="10.00">system&#45;timezone.h</text>
</a>
</g>
</g>
<!-- Node1&#45;&gt;Node21 -->
<g id="edge25_Node000001_Node000021" class="edge">
<title>Node1&#45;&gt;Node21</title>
<g id="a_edge25_Node000001_Node000021"><a xlink:title=" ">
<path fill="none" stroke="#63b8ff" d="M651.22,-164.98C698.04,-155.76 772.81,-141.03 823.36,-131.07"/>
<polygon fill="#63b8ff" stroke="#63b8ff" points="824.31,-134.45 833.44,-129.08 822.95,-127.58 824.31,-134.45"/>
</a>
</g>
</g>
<!-- Node15&#45;&gt;Node9 -->
<g id="edge15_Node000015_Node000009" class="edge">
<title>Node15&#45;&gt;Node9</title>
<g id="a_edge15_Node000015_Node000009"><a xlink:title=" ">
<path fill="none" stroke="#63b8ff" d="M732.22,-109.98C707.77,-101.23 669.47,-87.51 641.85,-77.62"/>
<polygon fill="#63b8ff" stroke="#63b8ff" points="642.81,-74.25 632.21,-74.17 640.45,-80.84 642.81,-74.25"/>
</a>
</g>
</g>
<!-- Node15&#45;&gt;Node12 -->
<g id="edge16_Node000015_Node000012" class="edge">
<title>Node15&#45;&gt;Node12</title>
<g id="a_edge16_Node000015_Node000012"><a xlink:title=" ">
<path fill="none" stroke="#63b8ff" d="M743.15,-109.98C730.86,-101.84 712.09,-89.41 697.52,-79.76"/>
<polygon fill="#63b8ff" stroke="#63b8ff" points="699.36,-76.78 689.09,-74.17 695.49,-82.61 699.36,-76.78"/>
</a>
</g>
</g>
<!-- Node16 -->
<g id="Node000016" class="node">
<title>Node16</title>
<g id="a_Node000016"><a xlink:title=" ">
<polygon fill="#e0e0e0" stroke="#999999" points="956.5,-74 879.5,-74 879.5,-55 956.5,-55 956.5,-74"/>
<text text-anchor="middle" x="918" y="-62" font-family="Helvetica,sans-Serif" font-size="10.00">glib&#45;object.h</text>
</a>
</g>
</g>
<!-- Node15&#45;&gt;Node16 -->
<g id="edge17_Node000015_Node000016" class="edge">
<title>Node15&#45;&gt;Node16</title>
<g id="a_edge17_Node000015_Node000016"><a xlink:title=" ">
<path fill="none" stroke="#63b8ff" d="M782.03,-109.98C809.11,-101.13 851.71,-87.19 882.01,-77.28"/>
<polygon fill="#63b8ff" stroke="#63b8ff" points="883.35,-80.52 891.77,-74.08 881.18,-73.87 883.35,-80.52"/>
</a>
</g>
</g>
<!-- Node17 -->
<g id="Node000017" class="node">
<title>Node17</title>
<g id="a_Node000017"><a xlink:href="weather_8h.html" target="_top" xlink:title=" ">
<polygon fill="white" stroke="#666666" points="861.5,-74 716.5,-74 716.5,-55 861.5,-55 861.5,-74"/>
<text text-anchor="middle" x="789" y="-62" font-family="Helvetica,sans-Serif" font-size="10.00">libmateweather/weather.h</text>
</a>
</g>
</g>
<!-- Node15&#45;&gt;Node17 -->
<g id="edge18_Node000015_Node000017" class="edge">
<title>Node15&#45;&gt;Node17</title>
<g id="a_edge18_Node000015_Node000017"><a xlink:title=" ">
<path fill="none" stroke="#63b8ff" d="M761.45,-109.75C766.01,-102.42 772.67,-91.73 778.29,-82.7"/>
<polygon fill="#63b8ff" stroke="#63b8ff" points="781.34,-84.43 783.65,-74.09 775.4,-80.73 781.34,-84.43"/>
</a>
</g>
</g>
<!-- Node18 -->
<g id="Node000018" class="node">
<title>Node18</title>
<g id="a_Node000018"><a xlink:title=" ">
<polygon fill="#e0e0e0" stroke="#999999" points="855.5,-19 722.5,-19 722.5,0 855.5,0 855.5,-19"/>
<text text-anchor="middle" x="789" y="-7" font-family="Helvetica,sans-Serif" font-size="10.00">gdk&#45;pixbuf/gdk&#45;pixbuf.h</text>
</a>
</g>
</g>
<!-- Node17&#45;&gt;Node18 -->
<g id="edge19_Node000017_Node000018" class="edge">
<title>Node17&#45;&gt;Node18</title>
<g id="a_edge19_Node000017_Node000018"><a xlink:title=" ">
<path fill="none" stroke="#63b8ff" d="M789,-54.75C789,-47.8 789,-37.85 789,-29.13"/>
<polygon fill="#63b8ff" stroke="#63b8ff" points="792.5,-29.09 789,-19.09 785.5,-29.09 792.5,-29.09"/>
</a>
</g>
</g>
<!-- Node19&#45;&gt;Node16 -->
<g id="edge21_Node000019_Node000016" class="edge">
<title>Node19&#45;&gt;Node16</title>
<g id="a_edge21_Node000019_Node000016"><a xlink:title=" ">
<path fill="none" stroke="#63b8ff" d="M992.7,-109.98C978.9,-101.77 957.76,-89.18 941.49,-79.49"/>
<polygon fill="#63b8ff" stroke="#63b8ff" points="942.94,-76.28 932.56,-74.17 939.36,-82.29 942.94,-76.28"/>
</a>
</g>
</g>
<!-- Node20&#45;&gt;Node9 -->
<g id="edge24_Node000020_Node000009" class="edge">
<title>Node20&#45;&gt;Node9</title>
<g id="a_edge24_Node000020_Node000009"><a xlink:title=" ">
<path fill="none" stroke="#63b8ff" d="M608,-109.75C608,-102.8 608,-92.85 608,-84.13"/>
<polygon fill="#63b8ff" stroke="#63b8ff" points="611.5,-84.09 608,-74.09 604.5,-84.09 611.5,-84.09"/>
</a>
</g>
</g>
<!-- Node20&#45;&gt;Node12 -->
<g id="edge23_Node000020_Node000012" class="edge">
<title>Node20&#45;&gt;Node12</title>
<g id="a_edge23_Node000020_Node000012"><a xlink:title=" ">
<path fill="none" stroke="#63b8ff" d="M618.93,-109.98C629.08,-102.07 644.42,-90.11 656.65,-80.58"/>
<polygon fill="#63b8ff" stroke="#63b8ff" points="659.14,-83.08 664.88,-74.17 654.84,-77.56 659.14,-83.08"/>
</a>
</g>
</g>
<!-- Node21&#45;&gt;Node12 -->
<g id="edge26_Node000021_Node000012" class="edge">
<title>Node21&#45;&gt;Node12</title>
<g id="a_edge26_Node000021_Node000012"><a xlink:title=" ">
<path fill="none" stroke="#63b8ff" d="M844.06,-110C811.8,-101.65 760.99,-88.42 707.94,-74.23"/>
<polygon fill="#63b8ff" stroke="#63b8ff" points="708.57,-70.78 698.01,-71.57 706.76,-77.54 708.57,-70.78"/>
</a>
</g>
</g>
<!-- Node21&#45;&gt;Node16 -->
<g id="edge27_Node000021_Node000016" class="edge">
<title>Node21&#45;&gt;Node16</title>
<g id="a_edge27_Node000021_Node000016"><a xlink:title=" ">
<path fill="none" stroke="#63b8ff" d="M883.77,-109.75C889.56,-102.26 898.06,-91.28 905.14,-82.13"/>
<polygon fill="#63b8ff" stroke="#63b8ff" points="908.01,-84.14 911.36,-74.09 902.47,-79.86 908.01,-84.14"/>
</a>
</g>
</g>
</g>
</svg>
