<?xml version="1.0" encoding="UTF-8" standalone="no"?>
<!DOCTYPE svg PUBLIC "-//W3C//DTD SVG 1.1//EN"
 "http://www.w3.org/Graphics/SVG/1.1/DTD/svg11.dtd">
<!-- Generated by graphviz version 2.43.0 (0)
 -->
<!-- Title: clock&#45;location&#45;tile.c Pages: 1 -->
<svg width="738pt" height="302pt"
 viewBox="0.00 0.00 737.50 302.00" xmlns="http://www.w3.org/2000/svg" xmlns:xlink="http://www.w3.org/1999/xlink">
<g id="graph0" class="graph" transform="scale(1 1) rotate(0) translate(4 298)">
<title>clock&#45;location&#45;tile.c</title>
<!-- Node1 -->
<g id="Node000001" class="node">
<title>Node1</title>
<g id="a_Node000001"><a xlink:title=" ">
<polygon fill="#999999" stroke="#666666" points="385,-294 272,-294 272,-275 385,-275 385,-294"/>
<text text-anchor="middle" x="328.5" y="-282" font-family="Helvetica,sans-Serif" font-size="10.00">clock&#45;location&#45;tile.c</text>
</a>
</g>
</g>
<!-- Node2 -->
<g id="Node000002" class="node">
<title>Node2</title>
<g id="a_Node000002"><a xlink:title=" ">
<polygon fill="#e0e0e0" stroke="#999999" points="53,-239 0,-239 0,-220 53,-220 53,-239"/>
<text text-anchor="middle" x="26.5" y="-227" font-family="Helvetica,sans-Serif" font-size="10.00">string.h</text>
</a>
</g>
</g>
<!-- Node1&#45;&gt;Node2 -->
<g id="edge1_Node000001_Node000002" class="edge">
<title>Node1&#45;&gt;Node2</title>
<g id="a_edge1_Node000001_Node000002"><a xlink:title=" ">
<path fill="none" stroke="#63b8ff" d="M271.76,-275.27C219.79,-267.46 140.5,-254.84 63.12,-239.22"/>
<polygon fill="#63b8ff" stroke="#63b8ff" points="63.71,-235.77 53.21,-237.2 62.31,-242.63 63.71,-235.77"/>
</a>
</g>
</g>
<!-- Node3 -->
<g id="Node000003" class="node">
<title>Node3</title>
<g id="a_Node000003"><a xlink:title=" ">
<polygon fill="#e0e0e0" stroke="#999999" points="124,-239 71,-239 71,-220 124,-220 124,-239"/>
<text text-anchor="middle" x="97.5" y="-227" font-family="Helvetica,sans-Serif" font-size="10.00">stdlib.h</text>
</a>
</g>
</g>
<!-- Node1&#45;&gt;Node3 -->
<g id="edge2_Node000001_Node000003" class="edge">
<title>Node1&#45;&gt;Node3</title>
<g id="a_edge2_Node000001_Node000003"><a xlink:title=" ">
<path fill="none" stroke="#63b8ff" d="M290.73,-274.97C253.51,-266.54 194.74,-253.18 134.33,-239.18"/>
<polygon fill="#63b8ff" stroke="#63b8ff" points="134.76,-235.69 124.23,-236.84 133.18,-242.51 134.76,-235.69"/>
</a>
</g>
</g>
<!-- Node4 -->
<g id="Node000004" class="node">
<title>Node4</title>
<g id="a_Node000004"><a xlink:title=" ">
<polygon fill="#e0e0e0" stroke="#999999" points="216.5,-239 142.5,-239 142.5,-220 216.5,-220 216.5,-239"/>
<text text-anchor="middle" x="179.5" y="-227" font-family="Helvetica,sans-Serif" font-size="10.00">glib/gi18n.h</text>
</a>
</g>
</g>
<!-- Node1&#45;&gt;Node4 -->
<g id="edge3_Node000001_Node000004" class="edge">
<title>Node1&#45;&gt;Node4</title>
<g id="a_edge3_Node000001_Node000004"><a xlink:title=" ">
<path fill="none" stroke="#63b8ff" d="M304.56,-274.98C279.94,-266.23 241.38,-252.51 213.58,-242.62"/>
<polygon fill="#63b8ff" stroke="#63b8ff" points="214.47,-239.22 203.88,-239.17 212.12,-245.82 214.47,-239.22"/>
</a>
</g>
</g>
<!-- Node5 -->
<g id="Node000005" class="node">
<title>Node5</title>
<g id="a_Node000005"><a xlink:title=" ">
<polygon fill="#e0e0e0" stroke="#999999" points="473.5,-129 413.5,-129 413.5,-110 473.5,-110 473.5,-129"/>
<text text-anchor="middle" x="443.5" y="-117" font-family="Helvetica,sans-Serif" font-size="10.00">gtk/gtk.h</text>
</a>
</g>
</g>
<!-- Node1&#45;&gt;Node5 -->
<g id="edge4_Node000001_Node000005" class="edge">
<title>Node1&#45;&gt;Node5</title>
<g id="a_edge4_Node000001_Node000005"><a xlink:title=" ">
<path fill="none" stroke="#63b8ff" d="M321.27,-274.85C304.72,-253.96 267.45,-199.9 293.5,-165 318.53,-131.46 367.76,-122.18 403,-120.1"/>
<polygon fill="#63b8ff" stroke="#63b8ff" points="403.59,-123.57 413.44,-119.66 403.3,-116.58 403.59,-123.57"/>
</a>
</g>
</g>
<!-- Node6 -->
<g id="Node000006" class="node">
<title>Node6</title>
<g id="a_Node000006"><a xlink:href="clock_8h.html" target="_top" xlink:title=" ">
<polygon fill="white" stroke="#666666" points="354,-184 303,-184 303,-165 354,-165 354,-184"/>
<text text-anchor="middle" x="328.5" y="-172" font-family="Helvetica,sans-Serif" font-size="10.00">clock.h</text>
</a>
</g>
</g>
<!-- Node1&#45;&gt;Node6 -->
<g id="edge5_Node000001_Node000006" class="edge">
<title>Node1&#45;&gt;Node6</title>
<g id="a_edge5_Node000001_Node000006"><a xlink:title=" ">
<path fill="none" stroke="#63b8ff" d="M328.5,-274.66C328.5,-257.17 328.5,-217.8 328.5,-194.27"/>
<polygon fill="#63b8ff" stroke="#63b8ff" points="332,-194.16 328.5,-184.16 325,-194.16 332,-194.16"/>
</a>
</g>
</g>
<!-- Node7 -->
<g id="Node000007" class="node">
<title>Node7</title>
<g id="a_Node000007"><a xlink:href="clock-face_8h.html" target="_top" xlink:title=" ">
<polygon fill="white" stroke="#666666" points="618.5,-184 542.5,-184 542.5,-165 618.5,-165 618.5,-184"/>
<text text-anchor="middle" x="580.5" y="-172" font-family="Helvetica,sans-Serif" font-size="10.00">clock&#45;face.h</text>
</a>
</g>
</g>
<!-- Node1&#45;&gt;Node7 -->
<g id="edge6_Node000001_Node000007" class="edge">
<title>Node1&#45;&gt;Node7</title>
<g id="a_edge6_Node000001_Node000007"><a xlink:title=" ">
<path fill="none" stroke="#63b8ff" d="M385.4,-282.51C429.87,-279.24 491.48,-269 536.5,-239 553.21,-227.87 565.42,-208.05 572.68,-193.5"/>
<polygon fill="#63b8ff" stroke="#63b8ff" points="576.04,-194.59 577.09,-184.04 569.69,-191.63 576.04,-194.59"/>
</a>
</g>
</g>
<!-- Node8 -->
<g id="Node000008" class="node">
<title>Node8</title>
<g id="a_Node000008"><a xlink:href="clock-location_8h.html" target="_top" xlink:title=" ">
<polygon fill="white" stroke="#666666" points="621.5,-129 527.5,-129 527.5,-110 621.5,-110 621.5,-129"/>
<text text-anchor="middle" x="574.5" y="-117" font-family="Helvetica,sans-Serif" font-size="10.00">clock&#45;location.h</text>
</a>
</g>
</g>
<!-- Node1&#45;&gt;Node8 -->
<g id="edge21_Node000001_Node000008" class="edge">
<title>Node1&#45;&gt;Node8</title>
<g id="a_edge21_Node000001_Node000008"><a xlink:title=" ">
<path fill="none" stroke="#63b8ff" d="M385.46,-280.26C433.72,-275.74 503.76,-264.91 559.5,-239 594.75,-222.61 610.76,-219.08 627.5,-184 636.7,-164.73 617.34,-146.43 599.49,-134.47"/>
<polygon fill="#63b8ff" stroke="#63b8ff" points="601.31,-131.48 590.98,-129.13 597.59,-137.41 601.31,-131.48"/>
</a>
</g>
</g>
<!-- Node14 -->
<g id="Node000014" class="node">
<title>Node14</title>
<g id="a_Node000014"><a xlink:href="clock-location-tile_8h.html" target="_top" xlink:title=" ">
<polygon fill="white" stroke="#666666" points="527,-239 414,-239 414,-220 527,-220 527,-239"/>
<text text-anchor="middle" x="470.5" y="-227" font-family="Helvetica,sans-Serif" font-size="10.00">clock&#45;location&#45;tile.h</text>
</a>
</g>
</g>
<!-- Node1&#45;&gt;Node14 -->
<g id="edge14_Node000001_Node000014" class="edge">
<title>Node1&#45;&gt;Node14</title>
<g id="a_edge14_Node000001_Node000014"><a xlink:title=" ">
<path fill="none" stroke="#63b8ff" d="M351.31,-274.98C374.67,-266.27 411.2,-252.63 437.67,-242.75"/>
<polygon fill="#63b8ff" stroke="#63b8ff" points="439.13,-245.95 447.27,-239.17 436.68,-239.39 439.13,-245.95"/>
</a>
</g>
</g>
<!-- Node15 -->
<g id="Node000015" class="node">
<title>Node15</title>
<g id="a_Node000015"><a xlink:href="clock-utils_8h.html" target="_top" xlink:title=" ">
<polygon fill="white" stroke="#666666" points="448.5,-184 372.5,-184 372.5,-165 448.5,-165 448.5,-184"/>
<text text-anchor="middle" x="410.5" y="-172" font-family="Helvetica,sans-Serif" font-size="10.00">clock&#45;utils.h</text>
</a>
</g>
</g>
<!-- Node1&#45;&gt;Node15 -->
<g id="edge22_Node000001_Node000015" class="edge">
<title>Node1&#45;&gt;Node15</title>
<g id="a_edge22_Node000001_Node000015"><a xlink:title=" ">
<path fill="none" stroke="#63b8ff" d="M335.21,-274.66C348.85,-256.69 380.02,-215.64 397.68,-192.38"/>
<polygon fill="#63b8ff" stroke="#63b8ff" points="400.67,-194.24 403.93,-184.16 395.09,-190.01 400.67,-194.24"/>
</a>
</g>
</g>
<!-- Node16 -->
<g id="Node000016" class="node">
<title>Node16</title>
<g id="a_Node000016"><a xlink:href="clock-marshallers_8h.html" target="_top" xlink:title=" ">
<polygon fill="white" stroke="#666666" points="246,-184 133,-184 133,-165 246,-165 246,-184"/>
<text text-anchor="middle" x="189.5" y="-172" font-family="Helvetica,sans-Serif" font-size="10.00">clock&#45;marshallers.h</text>
</a>
</g>
</g>
<!-- Node1&#45;&gt;Node16 -->
<g id="edge23_Node000001_Node000016" class="edge">
<title>Node1&#45;&gt;Node16</title>
<g id="a_edge23_Node000001_Node000016"><a xlink:title=" ">
<path fill="none" stroke="#63b8ff" d="M316.44,-274.77C304.25,-265.9 284.92,-251.68 268.5,-239 247.47,-222.76 223.75,-203.58 207.84,-190.58"/>
<polygon fill="#63b8ff" stroke="#63b8ff" points="209.83,-187.68 199.88,-184.05 205.39,-193.1 209.83,-187.68"/>
</a>
</g>
</g>
<!-- Node17 -->
<g id="Node000017" class="node">
<title>Node17</title>
<g id="a_Node000017"><a xlink:href="set-timezone_8h.html" target="_top" xlink:title=" ">
<polygon fill="white" stroke="#666666" points="729.5,-129 639.5,-129 639.5,-110 729.5,-110 729.5,-129"/>
<text text-anchor="middle" x="684.5" y="-117" font-family="Helvetica,sans-Serif" font-size="10.00">set&#45;timezone.h</text>
</a>
</g>
</g>
<!-- Node1&#45;&gt;Node17 -->
<g id="edge25_Node000001_Node000017" class="edge">
<title>Node1&#45;&gt;Node17</title>
<g id="a_edge25_Node000001_Node000017"><a xlink:title=" ">
<path fill="none" stroke="#63b8ff" d="M385.24,-278.31C451.86,-271.47 557.68,-258.02 592.5,-239 634.45,-216.08 663.54,-165.11 676.65,-138.09"/>
<polygon fill="#63b8ff" stroke="#63b8ff" points="679.82,-139.56 680.88,-129.02 673.48,-136.6 679.82,-139.56"/>
</a>
</g>
</g>
<!-- Node7&#45;&gt;Node5 -->
<g id="edge7_Node000007_Node000005" class="edge">
<title>Node7&#45;&gt;Node5</title>
<g id="a_edge7_Node000007_Node000005"><a xlink:title=" ">
<path fill="none" stroke="#63b8ff" d="M558.49,-164.98C536.05,-156.3 501.02,-142.75 475.51,-132.88"/>
<polygon fill="#63b8ff" stroke="#63b8ff" points="476.5,-129.51 465.91,-129.17 473.98,-136.04 476.5,-129.51"/>
</a>
</g>
</g>
<!-- Node7&#45;&gt;Node8 -->
<g id="edge8_Node000007_Node000008" class="edge">
<title>Node7&#45;&gt;Node8</title>
<g id="a_edge8_Node000007_Node000008"><a xlink:title=" ">
<path fill="none" stroke="#63b8ff" d="M579.51,-164.75C578.72,-157.8 577.6,-147.85 576.61,-139.13"/>
<polygon fill="#63b8ff" stroke="#63b8ff" points="580.08,-138.63 575.47,-129.09 573.12,-139.42 580.08,-138.63"/>
</a>
</g>
</g>
<!-- Node9 -->
<g id="Node000009" class="node">
<title>Node9</title>
<g id="a_Node000009"><a xlink:title=" ">
<polygon fill="#e0e0e0" stroke="#999999" points="708.5,-74 660.5,-74 660.5,-55 708.5,-55 708.5,-74"/>
<text text-anchor="middle" x="684.5" y="-62" font-family="Helvetica,sans-Serif" font-size="10.00">time.h</text>
</a>
</g>
</g>
<!-- Node8&#45;&gt;Node9 -->
<g id="edge9_Node000008_Node000009" class="edge">
<title>Node8&#45;&gt;Node9</title>
<g id="a_edge9_Node000008_Node000009"><a xlink:title=" ">
<path fill="none" stroke="#63b8ff" d="M592.17,-109.98C609.79,-101.5 637.08,-88.35 657.43,-78.54"/>
<polygon fill="#63b8ff" stroke="#63b8ff" points="659.02,-81.66 666.51,-74.17 655.98,-75.36 659.02,-81.66"/>
</a>
</g>
</g>
<!-- Node10 -->
<g id="Node000010" class="node">
<title>Node10</title>
<g id="a_Node000010"><a xlink:title=" ">
<polygon fill="#e0e0e0" stroke="#999999" points="642.5,-74 598.5,-74 598.5,-55 642.5,-55 642.5,-74"/>
<text text-anchor="middle" x="620.5" y="-62" font-family="Helvetica,sans-Serif" font-size="10.00">glib.h</text>
</a>
</g>
</g>
<!-- Node8&#45;&gt;Node10 -->
<g id="edge10_Node000008_Node000010" class="edge">
<title>Node8&#45;&gt;Node10</title>
<g id="a_edge10_Node000008_Node000010"><a xlink:title=" ">
<path fill="none" stroke="#63b8ff" d="M582.1,-109.75C588.66,-102.18 598.32,-91.05 606.31,-81.84"/>
<polygon fill="#63b8ff" stroke="#63b8ff" points="609.13,-83.94 613.05,-74.09 603.85,-79.35 609.13,-83.94"/>
</a>
</g>
</g>
<!-- Node11 -->
<g id="Node000011" class="node">
<title>Node11</title>
<g id="a_Node000011"><a xlink:title=" ">
<polygon fill="#e0e0e0" stroke="#999999" points="404,-74 327,-74 327,-55 404,-55 404,-74"/>
<text text-anchor="middle" x="365.5" y="-62" font-family="Helvetica,sans-Serif" font-size="10.00">glib&#45;object.h</text>
</a>
</g>
</g>
<!-- Node8&#45;&gt;Node11 -->
<g id="edge11_Node000008_Node000011" class="edge">
<title>Node8&#45;&gt;Node11</title>
<g id="a_edge11_Node000008_Node000011"><a xlink:title=" ">
<path fill="none" stroke="#63b8ff" d="M540.92,-109.98C505.15,-100.91 448.38,-86.52 409.16,-76.57"/>
<polygon fill="#63b8ff" stroke="#63b8ff" points="409.9,-73.15 399.34,-74.08 408.18,-79.93 409.9,-73.15"/>
</a>
</g>
</g>
<!-- Node12 -->
<g id="Node000012" class="node">
<title>Node12</title>
<g id="a_Node000012"><a xlink:href="weather_8h.html" target="_top" xlink:title=" ">
<polygon fill="white" stroke="#666666" points="580,-74 435,-74 435,-55 580,-55 580,-74"/>
<text text-anchor="middle" x="507.5" y="-62" font-family="Helvetica,sans-Serif" font-size="10.00">libmateweather/weather.h</text>
</a>
</g>
</g>
<!-- Node8&#45;&gt;Node12 -->
<g id="edge12_Node000008_Node000012" class="edge">
<title>Node8&#45;&gt;Node12</title>
<g id="a_edge12_Node000008_Node000012"><a xlink:title=" ">
<path fill="none" stroke="#63b8ff" d="M563.74,-109.98C553.73,-102.07 538.61,-90.11 526.57,-80.58"/>
<polygon fill="#63b8ff" stroke="#63b8ff" points="528.47,-77.63 518.46,-74.17 524.13,-83.12 528.47,-77.63"/>
</a>
</g>
</g>
<!-- Node13 -->
<g id="Node000013" class="node">
<title>Node13</title>
<g id="a_Node000013"><a xlink:title=" ">
<polygon fill="#e0e0e0" stroke="#999999" points="574,-19 441,-19 441,0 574,0 574,-19"/>
<text text-anchor="middle" x="507.5" y="-7" font-family="Helvetica,sans-Serif" font-size="10.00">gdk&#45;pixbuf/gdk&#45;pixbuf.h</text>
</a>
</g>
</g>
<!-- Node12&#45;&gt;Node13 -->
<g id="edge13_Node000012_Node000013" class="edge">
<title>Node12&#45;&gt;Node13</title>
<g id="a_edge13_Node000012_Node000013"><a xlink:title=" ">
<path fill="none" stroke="#63b8ff" d="M507.5,-54.75C507.5,-47.8 507.5,-37.85 507.5,-29.13"/>
<polygon fill="#63b8ff" stroke="#63b8ff" points="511,-29.09 507.5,-19.09 504,-29.09 511,-29.09"/>
</a>
</g>
</g>
<!-- Node14&#45;&gt;Node5 -->
<g id="edge15_Node000014_Node000005" class="edge">
<title>Node14&#45;&gt;Node5</title>
<g id="a_edge15_Node000014_Node000005"><a xlink:title=" ">
<path fill="none" stroke="#63b8ff" d="M469.01,-219.81C466.84,-207.52 462.52,-184.39 457.5,-165 455.27,-156.38 452.37,-146.95 449.79,-139"/>
<polygon fill="#63b8ff" stroke="#63b8ff" points="453.04,-137.67 446.56,-129.29 446.39,-139.88 453.04,-137.67"/>
</a>
</g>
</g>
<!-- Node14&#45;&gt;Node6 -->
<g id="edge16_Node000014_Node000006" class="edge">
<title>Node14&#45;&gt;Node6</title>
<g id="a_edge16_Node000014_Node000006"><a xlink:title=" ">
<path fill="none" stroke="#63b8ff" d="M447.69,-219.98C424.33,-211.27 387.8,-197.63 361.33,-187.75"/>
<polygon fill="#63b8ff" stroke="#63b8ff" points="362.32,-184.39 351.73,-184.17 359.87,-190.95 362.32,-184.39"/>
</a>
</g>
</g>
<!-- Node14&#45;&gt;Node7 -->
<g id="edge17_Node000014_Node000007" class="edge">
<title>Node14&#45;&gt;Node7</title>
<g id="a_edge17_Node000014_Node000007"><a xlink:title=" ">
<path fill="none" stroke="#63b8ff" d="M488.17,-219.98C505.79,-211.5 533.08,-198.35 553.43,-188.54"/>
<polygon fill="#63b8ff" stroke="#63b8ff" points="555.02,-191.66 562.51,-184.17 551.98,-185.36 555.02,-191.66"/>
</a>
</g>
</g>
<!-- Node14&#45;&gt;Node8 -->
<g id="edge18_Node000014_Node000008" class="edge">
<title>Node14&#45;&gt;Node8</title>
<g id="a_edge18_Node000014_Node000008"><a xlink:title=" ">
<path fill="none" stroke="#63b8ff" d="M479.01,-219.66C496.54,-201.46 536.9,-159.55 559.12,-136.47"/>
<polygon fill="#63b8ff" stroke="#63b8ff" points="561.75,-138.79 566.16,-129.16 556.7,-133.93 561.75,-138.79"/>
</a>
</g>
</g>
<!-- Node14&#45;&gt;Node15 -->
<g id="edge19_Node000014_Node000015" class="edge">
<title>Node14&#45;&gt;Node15</title>
<g id="a_edge19_Node000014_Node000015"><a xlink:title=" ">
<path fill="none" stroke="#63b8ff" d="M460.86,-219.98C451.99,-212.15 438.63,-200.34 427.89,-190.86"/>
<polygon fill="#63b8ff" stroke="#63b8ff" points="430.13,-188.17 420.32,-184.17 425.49,-193.41 430.13,-188.17"/>
</a>
</g>
</g>
<!-- Node15&#45;&gt;Node5 -->
<g id="edge20_Node000015_Node000005" class="edge">
<title>Node15&#45;&gt;Node5</title>
<g id="a_edge20_Node000015_Node000005"><a xlink:title=" ">
<path fill="none" stroke="#63b8ff" d="M415.95,-164.75C420.51,-157.42 427.17,-146.73 432.79,-137.7"/>
<polygon fill="#63b8ff" stroke="#63b8ff" points="435.84,-139.43 438.15,-129.09 429.9,-135.73 435.84,-139.43"/>
</a>
</g>
</g>
<!-- Node16&#45;&gt;Node11 -->
<g id="edge24_Node000016_Node000011" class="edge">
<title>Node16&#45;&gt;Node11</title>
<g id="a_edge24_Node000016_Node000011"><a xlink:title=" ">
<path fill="none" stroke="#63b8ff" d="M203.61,-164.84C233.99,-146.2 305.83,-102.11 342.74,-79.46"/>
<polygon fill="#63b8ff" stroke="#63b8ff" points="344.63,-82.41 351.33,-74.2 340.97,-76.44 344.63,-82.41"/>
</a>
</g>
</g>
<!-- Node17&#45;&gt;Node9 -->
<g id="edge27_Node000017_Node000009" class="edge">
<title>Node17&#45;&gt;Node9</title>
<g id="a_edge27_Node000017_Node000009"><a xlink:title=" ">
<path fill="none" stroke="#63b8ff" d="M684.5,-109.75C684.5,-102.8 684.5,-92.85 684.5,-84.13"/>
<polygon fill="#63b8ff" stroke="#63b8ff" points="688,-84.09 684.5,-74.09 681,-84.09 688,-84.09"/>
</a>
</g>
</g>
<!-- Node17&#45;&gt;Node10 -->
<g id="edge26_Node000017_Node000010" class="edge">
<title>Node17&#45;&gt;Node10</title>
<g id="a_edge26_Node000017_Node000010"><a xlink:title=" ">
<path fill="none" stroke="#63b8ff" d="M674.22,-109.98C664.66,-102.07 650.22,-90.11 638.72,-80.58"/>
<polygon fill="#63b8ff" stroke="#63b8ff" points="640.9,-77.85 630.97,-74.17 636.44,-83.24 640.9,-77.85"/>
</a>
</g>
</g>
</g>
</svg>
