<?xml version="1.0" encoding="UTF-8" standalone="no"?>
<!DOCTYPE svg PUBLIC "-//W3C//DTD SVG 1.1//EN"
 "http://www.w3.org/Graphics/SVG/1.1/DTD/svg11.dtd">
<!-- Generated by graphviz version 2.43.0 (0)
 -->
<!-- Title: clock&#45;typebuiltins.c Pages: 1 -->
<svg width="333pt" height="148pt"
 viewBox="0.00 0.00 333.00 148.00" xmlns="http://www.w3.org/2000/svg" xmlns:xlink="http://www.w3.org/1999/xlink">

<svg id="main" version="1.1" xmlns="http://www.w3.org/2000/svg" xmlns:xlink="http://www.w3.org/1999/xlink" xml:space="preserve">

<style type="text/css"><![CDATA[
.node, .edge {opacity: 0.7;}
.node.selected, .edge.selected {opacity: 1;}
.edge:hover path { stroke: red; }
.edge:hover polygon { stroke: red; fill: red; }
]]></style>
<script type="application/ecmascript" xlink:href="svg.min.js"/>
<svg id="graph" class="graph">
<g id="graph0" class="graph" transform="scale(1 1) rotate(0) translate(4 144)">
<title>clock&#45;typebuiltins.c</title>
<!-- Node1 -->
<g id="Node000001" class="node">
<title>Node1</title>
<g id="a_Node000001"><a xlink:title=" ">
<polygon fill="#999999" stroke="#666666" points="207.5,-140 95.5,-140 95.5,-121 207.5,-121 207.5,-140"/>
<text text-anchor="middle" x="151.5" y="-128" font-family="Helvetica,sans-Serif" font-size="10.00">clock&#45;typebuiltins.c</text>
</a>
</g>
</g>
<!-- Node2 -->
<g id="Node000002" class="node">
<title>Node2</title>
<g id="a_Node000002"><a xlink:title=" ">
<polygon fill="#e0e0e0" stroke="#999999" points="77,-79.5 0,-79.5 0,-60.5 77,-60.5 77,-79.5"/>
<text text-anchor="middle" x="38.5" y="-67.5" font-family="Helvetica,sans-Serif" font-size="10.00">glib&#45;object.h</text>
</a>
</g>
</g>
<!-- Node1&#45;&gt;Node2 -->
<g id="edge1_Node000001_Node000002" class="edge">
<title>Node1&#45;&gt;Node2</title>
<g id="a_edge1_Node000001_Node000002"><a xlink:title=" ">
<path fill="none" stroke="#63b8ff" d="M134.83,-120.87C116.22,-111.23 85.88,-95.53 64.22,-84.31"/>
<polygon fill="#63b8ff" stroke="#63b8ff" points="65.73,-81.16 55.24,-79.67 62.51,-87.37 65.73,-81.16"/>
</a>
</g>
</g>
<!-- Node3 -->
<g id="Node000003" class="node">
<title>Node3</title>
<g id="a_Node000003"><a xlink:href="clock-typebuiltins_8h.html" target="_top" xlink:title=" ">
<polygon fill="white" stroke="#666666" points="208,-79.5 95,-79.5 95,-60.5 208,-60.5 208,-79.5"/>
<text text-anchor="middle" x="151.5" y="-67.5" font-family="Helvetica,sans-Serif" font-size="10.00">clock&#45;typebuiltins.h</text>
</a>
</g>
</g>
<!-- Node1&#45;&gt;Node3 -->
<g id="edge2_Node000001_Node000003" class="edge">
<title>Node1&#45;&gt;Node3</title>
<g id="a_edge2_Node000001_Node000003"><a xlink:title=" ">
<path fill="none" stroke="#63b8ff" d="M151.5,-120.87C151.5,-112.75 151.5,-100.31 151.5,-89.89"/>
<polygon fill="#63b8ff" stroke="#63b8ff" points="155,-89.67 151.5,-79.67 148,-89.67 155,-89.67"/>
</a>
</g>
</g>
<!-- Node4 -->
<g id="Node000004" class="node">
<title>Node4</title>
<g id="a_Node000004"><a xlink:href="clock-utils_8h.html" target="_top" xlink:title=" ">
<polygon fill="white" stroke="#666666" points="325,-85 226,-85 226,-55 325,-55 325,-85"/>
<text text-anchor="start" x="234" y="-73" font-family="Helvetica,sans-Serif" font-size="10.00">../../applets/clock</text>
<text text-anchor="middle" x="275.5" y="-62" font-family="Helvetica,sans-Serif" font-size="10.00">/clock&#45;utils.h</text>
</a>
</g>
</g>
<!-- Node1&#45;&gt;Node4 -->
<g id="edge3_Node000001_Node000004" class="edge">
<title>Node1&#45;&gt;Node4</title>
<g id="a_edge3_Node000001_Node000004"><a xlink:title=" ">
<path fill="none" stroke="#63b8ff" d="M169.53,-120.99C186.93,-112.79 213.84,-100.09 236.19,-89.55"/>
<polygon fill="#63b8ff" stroke="#63b8ff" points="237.9,-92.61 245.45,-85.18 234.91,-86.28 237.9,-92.61"/>
</a>
</g>
</g>
<!-- Node5 -->
<g id="Node000005" class="node">
<title>Node5</title>
<g id="a_Node000005"><a xlink:title=" ">
<polygon fill="#e0e0e0" stroke="#999999" points="305.5,-19 245.5,-19 245.5,0 305.5,0 305.5,-19"/>
<text text-anchor="middle" x="275.5" y="-7" font-family="Helvetica,sans-Serif" font-size="10.00">gtk/gtk.h</text>
</a>
</g>
</g>
<!-- Node4&#45;&gt;Node5 -->
<g id="edge4_Node000004_Node000005" class="edge">
<title>Node4&#45;&gt;Node5</title>
<g id="a_edge4_Node000004_Node000005"><a xlink:title=" ">
<path fill="none" stroke="#63b8ff" d="M275.5,-54.84C275.5,-47.21 275.5,-37.7 275.5,-29.45"/>
<polygon fill="#63b8ff" stroke="#63b8ff" points="279,-29.27 275.5,-19.27 272,-29.27 279,-29.27"/>
</a>
</g>
</g>
</g>
</svg>
</svg>

<style type='text/css'>
<![CDATA[
[data-mouse-over-selected='false'] { opacity: 0.7; }
[data-mouse-over-selected='true']  { opacity: 1.0; }
]]>
</style>
<script type="application/ecmascript"><![CDATA[
document.addEventListener('DOMContentLoaded', (event) => {
  highlightEdges();
  highlightAdjacentNodes();
});
]]></script>
</svg>
