<?xml version="1.0" encoding="UTF-8" standalone="no"?>
<!DOCTYPE svg PUBLIC "-//W3C//DTD SVG 1.1//EN"
 "http://www.w3.org/Graphics/SVG/1.1/DTD/svg11.dtd">
<!-- Generated by graphviz version 2.43.0 (0)
 -->
<!-- Title: mate&#45;settings&#45;daemon Pages: 1 -->
<svg width="310pt" height="153pt"
 viewBox="0.00 0.00 310.00 153.00" xmlns="http://www.w3.org/2000/svg" xmlns:xlink="http://www.w3.org/1999/xlink">
<g id="graph0" class="graph" transform="scale(1 1) rotate(0) translate(4 149)">
<title>mate&#45;settings&#45;daemon</title>
<g id="clust1" class="cluster">
<title>clusterdir_7268b8cbd5c1d6ee8ebbfd11d011d0f6</title>
<g id="a_clust1"><a xlink:href="dir_7268b8cbd5c1d6ee8ebbfd11d011d0f6.html" target="_top">
<polygon fill="#edf0f7" stroke="#404040" stroke-width="2" points="8,-47 8,-137 222,-137 222,-47 8,-47"/>
</a>
</g>
</g>
<!-- dir_7268b8cbd5c1d6ee8ebbfd11d011d0f6 -->
<g id="node1" class="node">
<title>dir_7268b8cbd5c1d6ee8ebbfd11d011d0f6</title>
<text text-anchor="middle" x="150" y="-117" font-family="Helvetica,sans-Serif" font-size="10.00">mate&#45;settings&#45;daemon</text>
</g>
<!-- dir_a8f0de5e02e0d5a6239aa11469cf362d -->
<g id="node2" class="node">
<title>dir_a8f0de5e02e0d5a6239aa11469cf362d</title>
<g id="a_node2"><a xlink:href="dir_a8f0de5e02e0d5a6239aa11469cf362d.html" target="_top" xlink:title="mate&#45;settings&#45;daemon">
<polygon fill="#a2b4d6" stroke="#404040" points="144,-74 16,-74 16,-55 144,-55 144,-74"/>
<text text-anchor="middle" x="80" y="-62" font-family="Helvetica,sans-Serif" font-size="10.00">mate&#45;settings&#45;daemon</text>
</a>
</g>
</g>
<!-- dir_8cc4d8de6389f3ef5db2ddcabec2099b -->
<g id="node4" class="node">
<title>dir_8cc4d8de6389f3ef5db2ddcabec2099b</title>
<g id="a_node4"><a xlink:href="dir_8cc4d8de6389f3ef5db2ddcabec2099b.html" target="_top" xlink:title="mate&#45;desktop">
<polygon fill="#edf0f7" stroke="red" points="168.5,-19 83.5,-19 83.5,0 168.5,0 168.5,-19"/>
<text text-anchor="middle" x="126" y="-7" font-family="Helvetica,sans-Serif" font-size="10.00">mate&#45;desktop</text>
</a>
</g>
</g>
<!-- dir_a8f0de5e02e0d5a6239aa11469cf362d&#45;&gt;dir_8cc4d8de6389f3ef5db2ddcabec2099b -->
<g id="edge1" class="edge">
<title>dir_a8f0de5e02e0d5a6239aa11469cf362d&#45;&gt;dir_8cc4d8de6389f3ef5db2ddcabec2099b</title>
<g id="a_edge1"><a xlink:href="dir_000154_000135.html" target="_top">
<path fill="none" stroke="#63b8ff" d="M87.6,-54.75C94.16,-47.18 103.82,-36.05 111.81,-26.84"/>
<polygon fill="#63b8ff" stroke="#63b8ff" points="114.63,-28.94 118.55,-19.09 109.35,-24.35 114.63,-28.94"/>
</a>
</g>
<g id="a_edge1&#45;headlabel"><a xlink:href="dir_000154_000135.html" target="_top" xlink:title="1">
<text text-anchor="middle" x="114.42" y="-31.01" font-family="Helvetica,sans-Serif" font-size="10.00" fill="#63b8ff">1</text>
</a>
</g>
</g>
<!-- dir_45d3301dc801ba071ebb96c1494bc10d -->
<g id="node3" class="node">
<title>dir_45d3301dc801ba071ebb96c1494bc10d</title>
<g id="a_node3"><a xlink:href="dir_45d3301dc801ba071ebb96c1494bc10d.html" target="_top" xlink:title="plugins">
<polygon fill="#a2b4d6" stroke="#404040" points="68,-129 16,-129 16,-110 68,-110 68,-129"/>
<text text-anchor="middle" x="42" y="-117" font-family="Helvetica,sans-Serif" font-size="10.00">plugins</text>
</a>
</g>
</g>
<!-- dir_45d3301dc801ba071ebb96c1494bc10d&#45;&gt;dir_a8f0de5e02e0d5a6239aa11469cf362d -->
<g id="edge3" class="edge">
<title>dir_45d3301dc801ba071ebb96c1494bc10d&#45;&gt;dir_a8f0de5e02e0d5a6239aa11469cf362d</title>
<g id="a_edge3"><a xlink:href="dir_000199_000154.html" target="_top">
<path fill="none" stroke="#63b8ff" d="M48.27,-109.75C53.59,-102.34 61.36,-91.5 67.88,-82.41"/>
<polygon fill="#63b8ff" stroke="#63b8ff" points="70.86,-84.26 73.84,-74.09 65.17,-80.18 70.86,-84.26"/>
</a>
</g>
<g id="a_edge3&#45;headlabel"><a xlink:href="dir_000199_000154.html" target="_top" xlink:title="55">
<text text-anchor="middle" x="71.07" y="-86.33" font-family="Helvetica,sans-Serif" font-size="10.00" fill="#63b8ff">55</text>
</a>
</g>
</g>
<!-- dir_45d3301dc801ba071ebb96c1494bc10d&#45;&gt;dir_8cc4d8de6389f3ef5db2ddcabec2099b -->
<g id="edge2" class="edge">
<title>dir_45d3301dc801ba071ebb96c1494bc10d&#45;&gt;dir_8cc4d8de6389f3ef5db2ddcabec2099b</title>
<g id="a_edge2"><a xlink:href="dir_000199_000135.html" target="_top">
<path fill="none" stroke="#63b8ff" d="M68.08,-111.68C97.68,-103.36 143.14,-88.57 153,-74 162.91,-59.35 152.41,-40.47 141.74,-27.12"/>
<polygon fill="#63b8ff" stroke="#63b8ff" points="144.11,-24.51 134.92,-19.24 138.82,-29.1 144.11,-24.51"/>
</a>
</g>
<g id="a_edge2&#45;headlabel"><a xlink:href="dir_000199_000135.html" target="_top" xlink:title="6">
<text text-anchor="middle" x="148.61" y="-22.87" font-family="Helvetica,sans-Serif" font-size="10.00" fill="#63b8ff">6</text>
</a>
</g>
</g>
<!-- dir_bd3fe994398896db3a17ead8ff26a5be -->
<g id="node5" class="node">
<title>dir_bd3fe994398896db3a17ead8ff26a5be</title>
<g id="a_node5"><a xlink:href="dir_bd3fe994398896db3a17ead8ff26a5be.html" target="_top" xlink:title="libmatekbd">
<polygon fill="#edf0f7" stroke="red" points="302,-74 230,-74 230,-55 302,-55 302,-74"/>
<text text-anchor="middle" x="266" y="-62" font-family="Helvetica,sans-Serif" font-size="10.00">libmatekbd</text>
</a>
</g>
</g>
<!-- dir_45d3301dc801ba071ebb96c1494bc10d&#45;&gt;dir_bd3fe994398896db3a17ead8ff26a5be -->
<g id="edge4" class="edge">
<title>dir_45d3301dc801ba071ebb96c1494bc10d&#45;&gt;dir_bd3fe994398896db3a17ead8ff26a5be</title>
<g id="a_edge4"><a xlink:href="dir_000199_000115.html" target="_top">
<path fill="none" stroke="#63b8ff" d="M68.37,-112.08C71.28,-111.37 74.2,-110.67 77,-110 125.76,-98.34 181.64,-85.21 219.93,-76.25"/>
<polygon fill="#63b8ff" stroke="#63b8ff" points="220.81,-79.64 229.75,-73.96 219.22,-72.82 220.81,-79.64"/>
</a>
</g>
<g id="a_edge4&#45;headlabel"><a xlink:href="dir_000199_000115.html" target="_top" xlink:title="5">
<text text-anchor="middle" x="217.96" y="-80.72" font-family="Helvetica,sans-Serif" font-size="10.00" fill="#63b8ff">5</text>
</a>
</g>
</g>
</g>
</svg>
