<?xml version="1.0" encoding="UTF-8" standalone="no"?>
<!DOCTYPE svg PUBLIC "-//W3C//DTD SVG 1.1//EN"
 "http://www.w3.org/Graphics/SVG/1.1/DTD/svg11.dtd">
<!-- Generated by graphviz version 2.43.0 (0)
 -->
<!-- Title: backend Pages: 1 -->
<svg width="612pt" height="141pt"
 viewBox="0.00 0.00 612.00 141.00" xmlns="http://www.w3.org/2000/svg" xmlns:xlink="http://www.w3.org/1999/xlink">
<g id="graph0" class="graph" transform="scale(1 1) rotate(0) translate(4 137)">
<title>backend</title>
<g id="clust1" class="cluster">
<title>clusterdir_80dfdf04789b60c2c4f25a7e85665659</title>
<g id="a_clust1"><a xlink:href="dir_80dfdf04789b60c2c4f25a7e85665659.html" target="_top" xlink:title="atril">
<polygon fill="#edf0f7" stroke="#404040" stroke-dasharray="5,2" points="8,-8 8,-125 596,-125 596,-8 8,-8"/>
<text text-anchor="middle" x="302" y="-113" font-family="Helvetica,sans-Serif" font-size="10.00">atril</text>
</a>
</g>
</g>
<g id="clust2" class="cluster">
<title>clusterdir_c56ddc8ec910db7c6f16ac013c3aa2de</title>
<g id="a_clust2"><a xlink:href="dir_c56ddc8ec910db7c6f16ac013c3aa2de.html" target="_top">
<polygon fill="#edf0f7" stroke="#404040" stroke-width="2" points="16,-63 16,-98 588,-98 588,-63 16,-63"/>
</a>
</g>
</g>
<!-- dir_a6784df5f21200f1a83967c852bb9188 -->
<g id="node1" class="node">
<title>dir_a6784df5f21200f1a83967c852bb9188</title>
<g id="a_node1"><a xlink:href="dir_a6784df5f21200f1a83967c852bb9188.html" target="_top" xlink:title="libdocument">
<polygon fill="#a2b4d6" stroke="#404040" points="291.5,-35 214.5,-35 214.5,-16 291.5,-16 291.5,-35"/>
<text text-anchor="middle" x="253" y="-23" font-family="Helvetica,sans-Serif" font-size="10.00">libdocument</text>
</a>
</g>
</g>
<!-- dir_c56ddc8ec910db7c6f16ac013c3aa2de -->
<g id="node2" class="node">
<title>dir_c56ddc8ec910db7c6f16ac013c3aa2de</title>
<text text-anchor="middle" x="551" y="-78" font-family="Helvetica,sans-Serif" font-size="10.00">backend</text>
</g>
<!-- dir_478fadd6042a451d8bdf940c4af0c3ce -->
<g id="node3" class="node">
<title>dir_478fadd6042a451d8bdf940c4af0c3ce</title>
<g id="a_node3"><a xlink:href="dir_478fadd6042a451d8bdf940c4af0c3ce.html" target="_top" xlink:title="comics">
<polygon fill="#a2b4d6" stroke="#404040" points="504.5,-90 453.5,-90 453.5,-71 504.5,-71 504.5,-90"/>
<text text-anchor="middle" x="479" y="-78" font-family="Helvetica,sans-Serif" font-size="10.00">comics</text>
</a>
</g>
</g>
<!-- dir_478fadd6042a451d8bdf940c4af0c3ce&#45;&gt;dir_a6784df5f21200f1a83967c852bb9188 -->
<g id="edge1" class="edge">
<title>dir_478fadd6042a451d8bdf940c4af0c3ce&#45;&gt;dir_a6784df5f21200f1a83967c852bb9188</title>
<g id="a_edge1"><a xlink:href="dir_000040_000102.html" target="_top">
<path fill="none" stroke="#63b8ff" d="M462.97,-70.9C457.13,-68.05 450.39,-65.08 444,-63 396.85,-47.65 340.93,-37.9 301.83,-32.38"/>
<polygon fill="#63b8ff" stroke="#63b8ff" points="302.15,-28.89 291.76,-31 301.2,-35.82 302.15,-28.89"/>
</a>
</g>
<g id="a_edge1&#45;headlabel"><a xlink:href="dir_000040_000102.html" target="_top" xlink:title="5">
<text text-anchor="middle" x="306.09" y="-24.06" font-family="Helvetica,sans-Serif" font-size="10.00" fill="#63b8ff">5</text>
</a>
</g>
</g>
<!-- dir_5fad5d056e20f6f1c4cef457e2084db8 -->
<g id="node4" class="node">
<title>dir_5fad5d056e20f6f1c4cef457e2084db8</title>
<g id="a_node4"><a xlink:href="dir_5fad5d056e20f6f1c4cef457e2084db8.html" target="_top" xlink:title="djvu">
<polygon fill="#a2b4d6" stroke="#404040" points="435,-90 397,-90 397,-71 435,-71 435,-90"/>
<text text-anchor="middle" x="416" y="-78" font-family="Helvetica,sans-Serif" font-size="10.00">djvu</text>
</a>
</g>
</g>
<!-- dir_5fad5d056e20f6f1c4cef457e2084db8&#45;&gt;dir_a6784df5f21200f1a83967c852bb9188 -->
<g id="edge2" class="edge">
<title>dir_5fad5d056e20f6f1c4cef457e2084db8&#45;&gt;dir_a6784df5f21200f1a83967c852bb9188</title>
<g id="a_edge2"><a xlink:href="dir_000058_000102.html" target="_top">
<path fill="none" stroke="#63b8ff" d="M402.99,-70.85C398.39,-68.07 393.1,-65.14 388,-63 360.34,-51.36 327.92,-42.45 301.79,-36.35"/>
<polygon fill="#63b8ff" stroke="#63b8ff" points="302.26,-32.87 291.74,-34.07 300.71,-39.7 302.26,-32.87"/>
</a>
</g>
<g id="a_edge2&#45;headlabel"><a xlink:href="dir_000058_000102.html" target="_top" xlink:title="12">
<text text-anchor="middle" x="306.4" y="-28.4" font-family="Helvetica,sans-Serif" font-size="10.00" fill="#63b8ff">12</text>
</a>
</g>
</g>
<!-- dir_2c39aec9f46f8ce944ef78c84f3c03fb -->
<g id="node5" class="node">
<title>dir_2c39aec9f46f8ce944ef78c84f3c03fb</title>
<g id="a_node5"><a xlink:href="dir_2c39aec9f46f8ce944ef78c84f3c03fb.html" target="_top" xlink:title="dvi">
<polygon fill="#a2b4d6" stroke="#404040" points="379,-90 347,-90 347,-71 379,-71 379,-90"/>
<text text-anchor="middle" x="363" y="-78" font-family="Helvetica,sans-Serif" font-size="10.00">dvi</text>
</a>
</g>
</g>
<!-- dir_2c39aec9f46f8ce944ef78c84f3c03fb&#45;&gt;dir_a6784df5f21200f1a83967c852bb9188 -->
<g id="edge3" class="edge">
<title>dir_2c39aec9f46f8ce944ef78c84f3c03fb&#45;&gt;dir_a6784df5f21200f1a83967c852bb9188</title>
<g id="a_edge3"><a xlink:href="dir_000064_000102.html" target="_top">
<path fill="none" stroke="#63b8ff" d="M351.06,-71C347.01,-68.28 342.39,-65.37 338,-63 321.14,-53.91 301.55,-45.37 285.42,-38.84"/>
<polygon fill="#63b8ff" stroke="#63b8ff" points="286.47,-35.49 275.88,-35.04 283.88,-41.99 286.47,-35.49"/>
</a>
</g>
<g id="a_edge3&#45;headlabel"><a xlink:href="dir_000064_000102.html" target="_top" xlink:title="5">
<text text-anchor="middle" x="290.86" y="-31.68" font-family="Helvetica,sans-Serif" font-size="10.00" fill="#63b8ff">5</text>
</a>
</g>
</g>
<!-- dir_eeda1f269ca8b9c8aa37ffa7a7917149 -->
<g id="node6" class="node">
<title>dir_eeda1f269ca8b9c8aa37ffa7a7917149</title>
<g id="a_node6"><a xlink:href="dir_eeda1f269ca8b9c8aa37ffa7a7917149.html" target="_top" xlink:title="epub">
<polygon fill="#a2b4d6" stroke="#404040" points="328.5,-90 287.5,-90 287.5,-71 328.5,-71 328.5,-90"/>
<text text-anchor="middle" x="308" y="-78" font-family="Helvetica,sans-Serif" font-size="10.00">epub</text>
</a>
</g>
</g>
<!-- dir_eeda1f269ca8b9c8aa37ffa7a7917149&#45;&gt;dir_a6784df5f21200f1a83967c852bb9188 -->
<g id="edge4" class="edge">
<title>dir_eeda1f269ca8b9c8aa37ffa7a7917149&#45;&gt;dir_a6784df5f21200f1a83967c852bb9188</title>
<g id="a_edge4"><a xlink:href="dir_000069_000102.html" target="_top">
<path fill="none" stroke="#63b8ff" d="M298.92,-70.75C290.91,-63.03 279.04,-51.6 269.38,-42.28"/>
<polygon fill="#63b8ff" stroke="#63b8ff" points="271.54,-39.51 261.91,-35.09 266.69,-44.55 271.54,-39.51"/>
</a>
</g>
<g id="a_edge4&#45;headlabel"><a xlink:href="dir_000069_000102.html" target="_top" xlink:title="7">
<text text-anchor="middle" x="276.1" y="-37.46" font-family="Helvetica,sans-Serif" font-size="10.00" fill="#63b8ff">7</text>
</a>
</g>
</g>
<!-- dir_08c20e727df03a4a4ed908e3f5ce1d07 -->
<g id="node7" class="node">
<title>dir_08c20e727df03a4a4ed908e3f5ce1d07</title>
<g id="a_node7"><a xlink:href="dir_08c20e727df03a4a4ed908e3f5ce1d07.html" target="_top" xlink:title="pdf">
<polygon fill="#a2b4d6" stroke="#404040" points="269,-90 237,-90 237,-71 269,-71 269,-90"/>
<text text-anchor="middle" x="253" y="-78" font-family="Helvetica,sans-Serif" font-size="10.00">pdf</text>
</a>
</g>
</g>
<!-- dir_08c20e727df03a4a4ed908e3f5ce1d07&#45;&gt;dir_a6784df5f21200f1a83967c852bb9188 -->
<g id="edge5" class="edge">
<title>dir_08c20e727df03a4a4ed908e3f5ce1d07&#45;&gt;dir_a6784df5f21200f1a83967c852bb9188</title>
<g id="a_edge5"><a xlink:href="dir_000190_000102.html" target="_top">
<path fill="none" stroke="#63b8ff" d="M253,-70.75C253,-63.8 253,-53.85 253,-45.13"/>
<polygon fill="#63b8ff" stroke="#63b8ff" points="256.5,-45.09 253,-35.09 249.5,-45.09 256.5,-45.09"/>
</a>
</g>
<g id="a_edge5&#45;headlabel"><a xlink:href="dir_000190_000102.html" target="_top" xlink:title="1">
<text text-anchor="middle" x="259.34" y="-46.18" font-family="Helvetica,sans-Serif" font-size="10.00" fill="#63b8ff">1</text>
</a>
</g>
</g>
<!-- dir_d53c493ad6f7e8aa5f198221f67220a6 -->
<g id="node8" class="node">
<title>dir_d53c493ad6f7e8aa5f198221f67220a6</title>
<g id="a_node8"><a xlink:href="dir_d53c493ad6f7e8aa5f198221f67220a6.html" target="_top" xlink:title="pixbuf">
<polygon fill="#a2b4d6" stroke="#404040" points="218.5,-90 171.5,-90 171.5,-71 218.5,-71 218.5,-90"/>
<text text-anchor="middle" x="195" y="-78" font-family="Helvetica,sans-Serif" font-size="10.00">pixbuf</text>
</a>
</g>
</g>
<!-- dir_d53c493ad6f7e8aa5f198221f67220a6&#45;&gt;dir_a6784df5f21200f1a83967c852bb9188 -->
<g id="edge6" class="edge">
<title>dir_d53c493ad6f7e8aa5f198221f67220a6&#45;&gt;dir_a6784df5f21200f1a83967c852bb9188</title>
<g id="a_edge6"><a xlink:href="dir_000192_000102.html" target="_top">
<path fill="none" stroke="#63b8ff" d="M204.32,-70.98C212.81,-63.23 225.56,-51.58 235.88,-42.14"/>
<polygon fill="#63b8ff" stroke="#63b8ff" points="238.49,-44.5 243.51,-35.17 233.77,-39.33 238.49,-44.5"/>
</a>
</g>
<g id="a_edge6&#45;headlabel"><a xlink:href="dir_000192_000102.html" target="_top" xlink:title="4">
<text text-anchor="middle" x="237.75" y="-46.52" font-family="Helvetica,sans-Serif" font-size="10.00" fill="#63b8ff">4</text>
</a>
</g>
</g>
<!-- dir_a781eb591c40a09928f2cef8a2c15c49 -->
<g id="node9" class="node">
<title>dir_a781eb591c40a09928f2cef8a2c15c49</title>
<g id="a_node9"><a xlink:href="dir_a781eb591c40a09928f2cef8a2c15c49.html" target="_top" xlink:title="ps">
<polygon fill="#a2b4d6" stroke="#404040" points="153.5,-90 124.5,-90 124.5,-71 153.5,-71 153.5,-90"/>
<text text-anchor="middle" x="139" y="-78" font-family="Helvetica,sans-Serif" font-size="10.00">ps</text>
</a>
</g>
</g>
<!-- dir_a781eb591c40a09928f2cef8a2c15c49&#45;&gt;dir_a6784df5f21200f1a83967c852bb9188 -->
<g id="edge7" class="edge">
<title>dir_a781eb591c40a09928f2cef8a2c15c49&#45;&gt;dir_a6784df5f21200f1a83967c852bb9188</title>
<g id="a_edge7"><a xlink:href="dir_000209_000102.html" target="_top">
<path fill="none" stroke="#63b8ff" d="M150.4,-70.92C154.28,-68.2 158.73,-65.3 163,-63 180.62,-53.51 201.25,-44.98 218.31,-38.55"/>
<polygon fill="#63b8ff" stroke="#63b8ff" points="219.72,-41.76 227.9,-35.02 217.3,-35.19 219.72,-41.76"/>
</a>
</g>
<g id="a_edge7&#45;headlabel"><a xlink:href="dir_000209_000102.html" target="_top" xlink:title="4">
<text text-anchor="middle" x="217.33" y="-43.17" font-family="Helvetica,sans-Serif" font-size="10.00" fill="#63b8ff">4</text>
</a>
</g>
</g>
<!-- dir_eb029d872ab4b34a28230cc3e307ba4e -->
<g id="node10" class="node">
<title>dir_eb029d872ab4b34a28230cc3e307ba4e</title>
<g id="a_node10"><a xlink:href="dir_eb029d872ab4b34a28230cc3e307ba4e.html" target="_top" xlink:title="tiff">
<polygon fill="#a2b4d6" stroke="#404040" points="106,-90 76,-90 76,-71 106,-71 106,-90"/>
<text text-anchor="middle" x="91" y="-78" font-family="Helvetica,sans-Serif" font-size="10.00">tiff</text>
</a>
</g>
</g>
<!-- dir_eb029d872ab4b34a28230cc3e307ba4e&#45;&gt;dir_a6784df5f21200f1a83967c852bb9188 -->
<g id="edge8" class="edge">
<title>dir_eb029d872ab4b34a28230cc3e307ba4e&#45;&gt;dir_a6784df5f21200f1a83967c852bb9188</title>
<g id="a_edge8"><a xlink:href="dir_000281_000102.html" target="_top">
<path fill="none" stroke="#63b8ff" d="M102.25,-70.96C106.4,-68.11 111.26,-65.13 116,-63 144.18,-50.35 177.64,-41.34 204.45,-35.43"/>
<polygon fill="#63b8ff" stroke="#63b8ff" points="205.32,-38.82 214.37,-33.31 203.86,-31.97 205.32,-38.82"/>
</a>
</g>
<g id="a_edge8&#45;headlabel"><a xlink:href="dir_000281_000102.html" target="_top" xlink:title="5">
<text text-anchor="middle" x="202.39" y="-39.85" font-family="Helvetica,sans-Serif" font-size="10.00" fill="#63b8ff">5</text>
</a>
</g>
</g>
<!-- dir_d250682ded5bdd67b09195b4aed4d84b -->
<g id="node11" class="node">
<title>dir_d250682ded5bdd67b09195b4aed4d84b</title>
<g id="a_node11"><a xlink:href="dir_d250682ded5bdd67b09195b4aed4d84b.html" target="_top" xlink:title="xps">
<polygon fill="#a2b4d6" stroke="#404040" points="58,-90 24,-90 24,-71 58,-71 58,-90"/>
<text text-anchor="middle" x="41" y="-78" font-family="Helvetica,sans-Serif" font-size="10.00">xps</text>
</a>
</g>
</g>
<!-- dir_d250682ded5bdd67b09195b4aed4d84b&#45;&gt;dir_a6784df5f21200f1a83967c852bb9188 -->
<g id="edge9" class="edge">
<title>dir_d250682ded5bdd67b09195b4aed4d84b&#45;&gt;dir_a6784df5f21200f1a83967c852bb9188</title>
<g id="a_edge9"><a xlink:href="dir_000310_000102.html" target="_top">
<path fill="none" stroke="#63b8ff" d="M52.41,-70.96C56.78,-68.05 61.94,-65.02 67,-63 111.56,-45.22 165.69,-35.85 204.04,-31.08"/>
<polygon fill="#63b8ff" stroke="#63b8ff" points="204.9,-34.51 214.42,-29.86 204.08,-27.56 204.9,-34.51"/>
</a>
</g>
<g id="a_edge9&#45;headlabel"><a xlink:href="dir_000310_000102.html" target="_top" xlink:title="5">
<text text-anchor="middle" x="201.66" y="-35.25" font-family="Helvetica,sans-Serif" font-size="10.00" fill="#63b8ff">5</text>
</a>
</g>
</g>
</g>
</svg>
