<?xml version="1.0" encoding="UTF-8" standalone="no"?>
<!DOCTYPE svg PUBLIC "-//W3C//DTD SVG 1.1//EN"
 "http://www.w3.org/Graphics/SVG/1.1/DTD/svg11.dtd">
<!-- Generated by graphviz version 2.43.0 (0)
 -->
<!-- Title: caja Pages: 1 -->
<svg width="303pt" height="208pt"
 viewBox="0.00 0.00 303.00 208.00" xmlns="http://www.w3.org/2000/svg" xmlns:xlink="http://www.w3.org/1999/xlink">

<svg id="main" version="1.1" xmlns="http://www.w3.org/2000/svg" xmlns:xlink="http://www.w3.org/1999/xlink" xml:space="preserve">

<style type="text/css"><![CDATA[
.node, .edge {opacity: 0.7;}
.node.selected, .edge.selected {opacity: 1;}
.edge:hover path { stroke: red; }
.edge:hover polygon { stroke: red; fill: red; }
]]></style>
<script type="application/ecmascript" xlink:href="svg.min.js"/>
<svg id="graph" class="graph">
<g id="graph0" class="graph" transform="scale(1 1) rotate(0) translate(4 204)">
<title>caja</title>
<g id="clust1" class="cluster">
<title>clusterdir_271c6ffb8731629c353de5a8d6c88b3d</title>
<g id="a_clust1"><a xlink:href="dir_271c6ffb8731629c353de5a8d6c88b3d.html" target="_top">
<polygon fill="#edf0f7" stroke="#404040" stroke-width="2" points="8,-47 8,-192 287,-192 287,-47 8,-47"/>
</a>
</g>
</g>
<!-- dir_271c6ffb8731629c353de5a8d6c88b3d -->
<g id="node1" class="node">
<title>dir_271c6ffb8731629c353de5a8d6c88b3d</title>
<text text-anchor="middle" x="260" y="-172" font-family="Helvetica,sans-Serif" font-size="10.00">caja</text>
</g>
<!-- dir_4ffba841de2acd55a0ee401310395dd7 -->
<g id="node2" class="node">
<title>dir_4ffba841de2acd55a0ee401310395dd7</title>
<g id="a_node2"><a xlink:href="dir_4ffba841de2acd55a0ee401310395dd7.html" target="_top" xlink:title="eel">
<polygon fill="#a2b4d6" stroke="#404040" points="48,-74 16,-74 16,-55 48,-55 48,-74"/>
<text text-anchor="middle" x="32" y="-62" font-family="Helvetica,sans-Serif" font-size="10.00">eel</text>
</a>
</g>
</g>
<!-- dir_8cc4d8de6389f3ef5db2ddcabec2099b -->
<g id="node8" class="node">
<title>dir_8cc4d8de6389f3ef5db2ddcabec2099b</title>
<g id="a_node8"><a xlink:href="dir_8cc4d8de6389f3ef5db2ddcabec2099b.html" target="_top" xlink:title="mate&#45;desktop">
<polygon fill="#edf0f7" stroke="red" points="238.5,-19 153.5,-19 153.5,0 238.5,0 238.5,-19"/>
<text text-anchor="middle" x="196" y="-7" font-family="Helvetica,sans-Serif" font-size="10.00">mate&#45;desktop</text>
</a>
</g>
</g>
<!-- dir_4ffba841de2acd55a0ee401310395dd7&#45;&gt;dir_8cc4d8de6389f3ef5db2ddcabec2099b -->
<g id="edge1" class="edge">
<title>dir_4ffba841de2acd55a0ee401310395dd7&#45;&gt;dir_8cc4d8de6389f3ef5db2ddcabec2099b</title>
<g id="a_edge1"><a xlink:href="dir_000065_000135.html" target="_top">
<path fill="none" stroke="#63b8ff" d="M43.25,-54.95C47.4,-52.1 52.25,-49.12 57,-47 84.47,-34.73 116.91,-25.92 143.53,-20.03"/>
<polygon fill="#63b8ff" stroke="#63b8ff" points="144.38,-23.43 153.43,-17.92 142.92,-16.59 144.38,-23.43"/>
</a>
</g>
<g id="a_edge1&#45;headlabel"><a xlink:href="dir_000065_000135.html" target="_top" xlink:title="2">
<text text-anchor="middle" x="141.46" y="-24.46" font-family="Helvetica,sans-Serif" font-size="10.00" fill="#63b8ff">2</text>
</a>
</g>
</g>
<!-- dir_ccd797037c1db3deeb88323ea5dc2533 -->
<g id="node3" class="node">
<title>dir_ccd797037c1db3deeb88323ea5dc2533</title>
<g id="a_node3"><a xlink:href="dir_ccd797037c1db3deeb88323ea5dc2533.html" target="_top" xlink:title="libcaja&#45;extension">
<polygon fill="#a2b4d6" stroke="#404040" points="167.5,-74 66.5,-74 66.5,-55 167.5,-55 167.5,-74"/>
<text text-anchor="middle" x="117" y="-62" font-family="Helvetica,sans-Serif" font-size="10.00">libcaja&#45;extension</text>
</a>
</g>
</g>
<!-- dir_fd1a14a9cc4a28cd988191f93152fea8 -->
<g id="node4" class="node">
<title>dir_fd1a14a9cc4a28cd988191f93152fea8</title>
<g id="a_node4"><a xlink:href="dir_fd1a14a9cc4a28cd988191f93152fea8.html" target="_top" xlink:title="libcaja&#45;private">
<polygon fill="#a2b4d6" stroke="#404040" points="143.5,-129 56.5,-129 56.5,-110 143.5,-110 143.5,-129"/>
<text text-anchor="middle" x="100" y="-117" font-family="Helvetica,sans-Serif" font-size="10.00">libcaja&#45;private</text>
</a>
</g>
</g>
<!-- dir_fd1a14a9cc4a28cd988191f93152fea8&#45;&gt;dir_4ffba841de2acd55a0ee401310395dd7 -->
<g id="edge2" class="edge">
<title>dir_fd1a14a9cc4a28cd988191f93152fea8&#45;&gt;dir_4ffba841de2acd55a0ee401310395dd7</title>
<g id="a_edge2"><a xlink:href="dir_000101_000065.html" target="_top">
<path fill="none" stroke="#63b8ff" d="M89.07,-109.98C78.92,-102.07 63.58,-90.11 51.35,-80.58"/>
<polygon fill="#63b8ff" stroke="#63b8ff" points="53.16,-77.56 43.12,-74.17 48.86,-83.08 53.16,-77.56"/>
</a>
</g>
<g id="a_edge2&#45;headlabel"><a xlink:href="dir_000101_000065.html" target="_top" xlink:title="133">
<text text-anchor="middle" x="57.74" y="-75.03" font-family="Helvetica,sans-Serif" font-size="10.00" fill="#63b8ff">133</text>
</a>
</g>
</g>
<!-- dir_fd1a14a9cc4a28cd988191f93152fea8&#45;&gt;dir_ccd797037c1db3deeb88323ea5dc2533 -->
<g id="edge4" class="edge">
<title>dir_fd1a14a9cc4a28cd988191f93152fea8&#45;&gt;dir_ccd797037c1db3deeb88323ea5dc2533</title>
<g id="a_edge4"><a xlink:href="dir_000101_000100.html" target="_top">
<path fill="none" stroke="#63b8ff" d="M102.81,-109.75C105.06,-102.72 108.3,-92.62 111.12,-83.84"/>
<polygon fill="#63b8ff" stroke="#63b8ff" points="114.52,-84.68 114.25,-74.09 107.86,-82.54 114.52,-84.68"/>
</a>
</g>
<g id="a_edge4&#45;headlabel"><a xlink:href="dir_000101_000100.html" target="_top" xlink:title="6">
<text text-anchor="middle" x="116.13" y="-86.47" font-family="Helvetica,sans-Serif" font-size="10.00" fill="#63b8ff">6</text>
</a>
</g>
</g>
<!-- dir_fd1a14a9cc4a28cd988191f93152fea8&#45;&gt;dir_8cc4d8de6389f3ef5db2ddcabec2099b -->
<g id="edge3" class="edge">
<title>dir_fd1a14a9cc4a28cd988191f93152fea8&#45;&gt;dir_8cc4d8de6389f3ef5db2ddcabec2099b</title>
<g id="a_edge3"><a xlink:href="dir_000101_000135.html" target="_top">
<path fill="none" stroke="#63b8ff" d="M123.74,-109.99C140.56,-102.81 162.46,-90.98 176,-74 186.25,-61.15 191.28,-42.99 193.73,-29.37"/>
<polygon fill="#63b8ff" stroke="#63b8ff" points="197.23,-29.63 195.24,-19.23 190.31,-28.6 197.23,-29.63"/>
</a>
</g>
<g id="a_edge3&#45;headlabel"><a xlink:href="dir_000101_000135.html" target="_top" xlink:title="1">
<text text-anchor="middle" x="199.51" y="-31.11" font-family="Helvetica,sans-Serif" font-size="10.00" fill="#63b8ff">1</text>
</a>
</g>
</g>
<!-- dir_22bdef17ce0251bf8535c92612d0993e -->
<g id="node5" class="node">
<title>dir_22bdef17ce0251bf8535c92612d0993e</title>
<g id="a_node5"><a xlink:href="dir_22bdef17ce0251bf8535c92612d0993e.html" target="_top" xlink:title="mate&#45;submodules">
<polygon fill="#a2b4d6" stroke="#404040" points="223.5,-184 118.5,-184 118.5,-165 223.5,-165 223.5,-184"/>
<text text-anchor="middle" x="171" y="-172" font-family="Helvetica,sans-Serif" font-size="10.00">mate&#45;submodules</text>
</a>
</g>
</g>
<!-- dir_c98e2179636a276b9b8b329b749b68b7 -->
<g id="node6" class="node">
<title>dir_c98e2179636a276b9b8b329b749b68b7</title>
<g id="a_node6"><a xlink:href="dir_c98e2179636a276b9b8b329b749b68b7.html" target="_top" xlink:title="src">
<polygon fill="#a2b4d6" stroke="#404040" points="100.5,-184 69.5,-184 69.5,-165 100.5,-165 100.5,-184"/>
<text text-anchor="middle" x="85" y="-172" font-family="Helvetica,sans-Serif" font-size="10.00">src</text>
</a>
</g>
</g>
<!-- dir_c98e2179636a276b9b8b329b749b68b7&#45;&gt;dir_4ffba841de2acd55a0ee401310395dd7 -->
<g id="edge5" class="edge">
<title>dir_c98e2179636a276b9b8b329b749b68b7&#45;&gt;dir_4ffba841de2acd55a0ee401310395dd7</title>
<g id="a_edge5"><a xlink:href="dir_000233_000065.html" target="_top">
<path fill="none" stroke="#63b8ff" d="M75.42,-164.9C66.71,-156.57 54.17,-143.13 47,-129 39.87,-114.94 36.06,-97.39 34.06,-84.31"/>
<polygon fill="#63b8ff" stroke="#63b8ff" points="37.5,-83.62 32.74,-74.16 30.56,-84.53 37.5,-83.62"/>
</a>
</g>
<g id="a_edge5&#45;headlabel"><a xlink:href="dir_000233_000065.html" target="_top" xlink:title="166">
<text text-anchor="middle" x="40.78" y="-84.32" font-family="Helvetica,sans-Serif" font-size="10.00" fill="#63b8ff">166</text>
</a>
</g>
</g>
<!-- dir_c98e2179636a276b9b8b329b749b68b7&#45;&gt;dir_ccd797037c1db3deeb88323ea5dc2533 -->
<g id="edge7" class="edge">
<title>dir_c98e2179636a276b9b8b329b749b68b7&#45;&gt;dir_ccd797037c1db3deeb88323ea5dc2533</title>
<g id="a_edge7"><a xlink:href="dir_000233_000100.html" target="_top">
<path fill="none" stroke="#63b8ff" d="M100.55,-168.21C116.72,-161.77 141.18,-149.18 152,-129 160.77,-112.65 147.84,-94.07 135.28,-81.26"/>
<polygon fill="#63b8ff" stroke="#63b8ff" points="137.39,-78.43 127.72,-74.09 132.57,-83.51 137.39,-78.43"/>
</a>
</g>
<g id="a_edge7&#45;headlabel"><a xlink:href="dir_000233_000100.html" target="_top" xlink:title="14">
<text text-anchor="middle" x="141.95" y="-76.34" font-family="Helvetica,sans-Serif" font-size="10.00" fill="#63b8ff">14</text>
</a>
</g>
</g>
<!-- dir_c98e2179636a276b9b8b329b749b68b7&#45;&gt;dir_fd1a14a9cc4a28cd988191f93152fea8 -->
<g id="edge8" class="edge">
<title>dir_c98e2179636a276b9b8b329b749b68b7&#45;&gt;dir_fd1a14a9cc4a28cd988191f93152fea8</title>
<g id="a_edge8"><a xlink:href="dir_000233_000101.html" target="_top">
<path fill="none" stroke="#63b8ff" d="M87.48,-164.75C89.46,-157.72 92.32,-147.62 94.81,-138.84"/>
<polygon fill="#63b8ff" stroke="#63b8ff" points="98.21,-139.66 97.57,-129.09 91.48,-137.76 98.21,-139.66"/>
</a>
</g>
<g id="a_edge8&#45;headlabel"><a xlink:href="dir_000233_000101.html" target="_top" xlink:title="388">
<text text-anchor="middle" x="99.97" y="-141.4" font-family="Helvetica,sans-Serif" font-size="10.00" fill="#63b8ff">388</text>
</a>
</g>
</g>
<!-- dir_c98e2179636a276b9b8b329b749b68b7&#45;&gt;dir_8cc4d8de6389f3ef5db2ddcabec2099b -->
<g id="edge6" class="edge">
<title>dir_c98e2179636a276b9b8b329b749b68b7&#45;&gt;dir_8cc4d8de6389f3ef5db2ddcabec2099b</title>
<g id="a_edge6"><a xlink:href="dir_000233_000135.html" target="_top">
<path fill="none" stroke="#63b8ff" d="M100.74,-166.49C116.67,-158.86 141.4,-145.52 159,-129 180.66,-108.67 188.15,-102.36 197,-74 201.52,-59.51 200.89,-42.24 199.34,-29.37"/>
<polygon fill="#63b8ff" stroke="#63b8ff" points="202.79,-28.75 197.85,-19.37 195.86,-29.78 202.79,-28.75"/>
</a>
</g>
<g id="a_edge6&#45;headlabel"><a xlink:href="dir_000233_000135.html" target="_top" xlink:title="2">
<text text-anchor="middle" x="206.12" y="-29.39" font-family="Helvetica,sans-Serif" font-size="10.00" fill="#63b8ff">2</text>
</a>
</g>
</g>
<!-- dir_65c1102a623169b1e9deccb5222f69dc -->
<g id="node7" class="node">
<title>dir_65c1102a623169b1e9deccb5222f69dc</title>
<g id="a_node7"><a xlink:href="dir_65c1102a623169b1e9deccb5222f69dc.html" target="_top" xlink:title="test">
<polygon fill="#a2b4d6" stroke="#404040" points="51.5,-184 16.5,-184 16.5,-165 51.5,-165 51.5,-184"/>
<text text-anchor="middle" x="34" y="-172" font-family="Helvetica,sans-Serif" font-size="10.00">test</text>
</a>
</g>
</g>
<!-- dir_65c1102a623169b1e9deccb5222f69dc&#45;&gt;dir_4ffba841de2acd55a0ee401310395dd7 -->
<g id="edge9" class="edge">
<title>dir_65c1102a623169b1e9deccb5222f69dc&#45;&gt;dir_4ffba841de2acd55a0ee401310395dd7</title>
<g id="a_edge9"><a xlink:href="dir_000274_000065.html" target="_top">
<path fill="none" stroke="#63b8ff" d="M33.5,-164.97C33.01,-156.02 32.28,-141.53 32,-129 31.66,-113.98 31.68,-96.96 31.78,-84.32"/>
<polygon fill="#63b8ff" stroke="#63b8ff" points="35.28,-84.16 31.88,-74.13 28.28,-84.09 35.28,-84.16"/>
</a>
</g>
<g id="a_edge9&#45;headlabel"><a xlink:href="dir_000274_000065.html" target="_top" xlink:title="10">
<text text-anchor="middle" x="38.08" y="-85.28" font-family="Helvetica,sans-Serif" font-size="10.00" fill="#63b8ff">10</text>
</a>
</g>
</g>
<!-- dir_65c1102a623169b1e9deccb5222f69dc&#45;&gt;dir_fd1a14a9cc4a28cd988191f93152fea8 -->
<g id="edge10" class="edge">
<title>dir_65c1102a623169b1e9deccb5222f69dc&#45;&gt;dir_fd1a14a9cc4a28cd988191f93152fea8</title>
<g id="a_edge10"><a xlink:href="dir_000274_000101.html" target="_top">
<path fill="none" stroke="#63b8ff" d="M44.6,-164.98C54.46,-157.07 69.35,-145.11 81.22,-135.58"/>
<polygon fill="#63b8ff" stroke="#63b8ff" points="83.6,-138.16 89.2,-129.17 79.21,-132.7 83.6,-138.16"/>
</a>
</g>
<g id="a_edge10&#45;headlabel"><a xlink:href="dir_000274_000101.html" target="_top" xlink:title="9">
<text text-anchor="middle" x="82.57" y="-140.13" font-family="Helvetica,sans-Serif" font-size="10.00" fill="#63b8ff">9</text>
</a>
</g>
</g>
</g>
</svg>
</svg>

<style type='text/css'>
<![CDATA[
[data-mouse-over-selected='false'] { opacity: 0.7; }
[data-mouse-over-selected='true']  { opacity: 1.0; }
]]>
</style>
<script type="application/ecmascript"><![CDATA[
document.addEventListener('DOMContentLoaded', (event) => {
  highlightEdges();
  highlightAdjacentNodes();
});
]]></script>
</svg>
