<?xml version="1.0" encoding="UTF-8" standalone="no"?>
<!DOCTYPE svg PUBLIC "-//W3C//DTD SVG 1.1//EN"
 "http://www.w3.org/Graphics/SVG/1.1/DTD/svg11.dtd">
<!-- Generated by graphviz version 2.43.0 (0)
 -->
<!-- Title: src Pages: 1 -->
<svg width="491pt" height="204pt"
 viewBox="0.00 0.00 490.50 204.00" xmlns="http://www.w3.org/2000/svg" xmlns:xlink="http://www.w3.org/1999/xlink">
<g id="graph0" class="graph" transform="scale(1 1) rotate(0) translate(4 200)">
<title>src</title>
<g id="clust1" class="cluster">
<title>clusterdir_9c0f54de95f168b9c8fc57ea93a2a0eb</title>
<g id="a_clust1"><a xlink:href="dir_9c0f54de95f168b9c8fc57ea93a2a0eb.html" target="_top" xlink:title="caja&#45;actions">
<polygon fill="#edf0f7" stroke="#404040" stroke-dasharray="5,2" points="8,-8 8,-188 346,-188 346,-8 8,-8"/>
<text text-anchor="middle" x="177" y="-176" font-family="Helvetica,sans-Serif" font-size="10.00">caja&#45;actions</text>
</a>
</g>
</g>
<g id="clust2" class="cluster">
<title>clusterdir_bf9c8dfc29e267670963913ae9274acd</title>
<g id="a_clust2"><a xlink:href="dir_bf9c8dfc29e267670963913ae9274acd.html" target="_top">
<polygon fill="#edf0f7" stroke="#404040" stroke-width="2" points="16,-16 16,-161 338,-161 338,-16 16,-16"/>
</a>
</g>
</g>
<!-- dir_bf9c8dfc29e267670963913ae9274acd -->
<g id="node1" class="node">
<title>dir_bf9c8dfc29e267670963913ae9274acd</title>
<text text-anchor="middle" x="307" y="-141" font-family="Helvetica,sans-Serif" font-size="10.00">src</text>
</g>
<!-- dir_21b9c68b25bfbc66be08d978b47b94d3 -->
<g id="node2" class="node">
<title>dir_21b9c68b25bfbc66be08d978b47b94d3</title>
<g id="a_node2"><a xlink:href="dir_21b9c68b25bfbc66be08d978b47b94d3.html" target="_top" xlink:title="api">
<polygon fill="#a2b4d6" stroke="#404040" points="167,-43 135,-43 135,-24 167,-24 167,-43"/>
<text text-anchor="middle" x="151" y="-31" font-family="Helvetica,sans-Serif" font-size="10.00">api</text>
</a>
</g>
</g>
<!-- dir_d1d752142aaf304631dc19d028dcc1ab -->
<g id="node3" class="node">
<title>dir_d1d752142aaf304631dc19d028dcc1ab</title>
<g id="a_node3"><a xlink:href="dir_d1d752142aaf304631dc19d028dcc1ab.html" target="_top" xlink:title="cact">
<polygon fill="#a2b4d6" stroke="#404040" points="117.5,-153 80.5,-153 80.5,-134 117.5,-134 117.5,-153"/>
<text text-anchor="middle" x="99" y="-141" font-family="Helvetica,sans-Serif" font-size="10.00">cact</text>
</a>
</g>
</g>
<!-- dir_d1d752142aaf304631dc19d028dcc1ab&#45;&gt;dir_21b9c68b25bfbc66be08d978b47b94d3 -->
<g id="edge1" class="edge">
<title>dir_d1d752142aaf304631dc19d028dcc1ab&#45;&gt;dir_21b9c68b25bfbc66be08d978b47b94d3</title>
<g id="a_edge1"><a xlink:href="dir_000025_000009.html" target="_top">
<path fill="none" stroke="#63b8ff" d="M85.37,-133.81C68.15,-121.7 42.22,-99.01 55,-79 70.28,-55.08 102.09,-43.82 124.91,-38.66"/>
<polygon fill="#63b8ff" stroke="#63b8ff" points="125.86,-42.04 134.97,-36.63 124.48,-35.17 125.86,-42.04"/>
</a>
</g>
<g id="a_edge1&#45;headlabel"><a xlink:href="dir_000025_000009.html" target="_top" xlink:title="51">
<text text-anchor="middle" x="122.89" y="-43.03" font-family="Helvetica,sans-Serif" font-size="10.00" fill="#63b8ff">51</text>
</a>
</g>
</g>
<!-- dir_e945e7d57e553ac2a8e58ae6484b3f53 -->
<g id="node4" class="node">
<title>dir_e945e7d57e553ac2a8e58ae6484b3f53</title>
<g id="a_node4"><a xlink:href="dir_e945e7d57e553ac2a8e58ae6484b3f53.html" target="_top" xlink:title="core">
<polygon fill="#a2b4d6" stroke="#404040" points="208,-98 170,-98 170,-79 208,-79 208,-98"/>
<text text-anchor="middle" x="189" y="-86" font-family="Helvetica,sans-Serif" font-size="10.00">core</text>
</a>
</g>
</g>
<!-- dir_d1d752142aaf304631dc19d028dcc1ab&#45;&gt;dir_e945e7d57e553ac2a8e58ae6484b3f53 -->
<g id="edge2" class="edge">
<title>dir_d1d752142aaf304631dc19d028dcc1ab&#45;&gt;dir_e945e7d57e553ac2a8e58ae6484b3f53</title>
<g id="a_edge2"><a xlink:href="dir_000025_000047.html" target="_top">
<path fill="none" stroke="#63b8ff" d="M113.46,-133.98C127.42,-125.77 148.79,-113.18 165.25,-103.49"/>
<polygon fill="#63b8ff" stroke="#63b8ff" points="167.44,-106.26 174.28,-98.17 163.88,-100.23 167.44,-106.26"/>
</a>
</g>
<g id="a_edge2&#45;headlabel"><a xlink:href="dir_000025_000047.html" target="_top" xlink:title="55">
<text text-anchor="middle" x="165.78" y="-108.03" font-family="Helvetica,sans-Serif" font-size="10.00" fill="#63b8ff">55</text>
</a>
</g>
</g>
<!-- dir_e945e7d57e553ac2a8e58ae6484b3f53&#45;&gt;dir_21b9c68b25bfbc66be08d978b47b94d3 -->
<g id="edge4" class="edge">
<title>dir_e945e7d57e553ac2a8e58ae6484b3f53&#45;&gt;dir_21b9c68b25bfbc66be08d978b47b94d3</title>
<g id="a_edge4"><a xlink:href="dir_000047_000009.html" target="_top">
<path fill="none" stroke="#63b8ff" d="M182.73,-78.75C177.41,-71.34 169.64,-60.5 163.12,-51.41"/>
<polygon fill="#63b8ff" stroke="#63b8ff" points="165.83,-49.18 157.16,-43.09 160.14,-53.26 165.83,-49.18"/>
</a>
</g>
<g id="a_edge4&#45;headlabel"><a xlink:href="dir_000047_000009.html" target="_top" xlink:title="96">
<text text-anchor="middle" x="170.23" y="-47.94" font-family="Helvetica,sans-Serif" font-size="10.00" fill="#63b8ff">96</text>
</a>
</g>
</g>
<!-- dir_1a7ceb8b43f37d3610d8c76ebbb89cca -->
<g id="node10" class="node">
<title>dir_1a7ceb8b43f37d3610d8c76ebbb89cca</title>
<g id="a_node10"><a xlink:href="dir_1a7ceb8b43f37d3610d8c76ebbb89cca.html" target="_top" xlink:title="mate&#45;panel">
<polygon fill="#edf0f7" stroke="red" points="427.5,-43 354.5,-43 354.5,-24 427.5,-24 427.5,-43"/>
<text text-anchor="middle" x="391" y="-31" font-family="Helvetica,sans-Serif" font-size="10.00">mate&#45;panel</text>
</a>
</g>
</g>
<!-- dir_e945e7d57e553ac2a8e58ae6484b3f53&#45;&gt;dir_1a7ceb8b43f37d3610d8c76ebbb89cca -->
<g id="edge3" class="edge">
<title>dir_e945e7d57e553ac2a8e58ae6484b3f53&#45;&gt;dir_1a7ceb8b43f37d3610d8c76ebbb89cca</title>
<g id="a_edge3"><a xlink:href="dir_000047_000144.html" target="_top">
<path fill="none" stroke="#63b8ff" d="M208,-82.51C239.99,-74.12 305.31,-56.98 348.63,-45.62"/>
<polygon fill="#63b8ff" stroke="#63b8ff" points="349.54,-49 358.32,-43.07 347.76,-42.23 349.54,-49"/>
</a>
</g>
<g id="a_edge3&#45;headlabel"><a xlink:href="dir_000047_000144.html" target="_top" xlink:title="2">
<text text-anchor="middle" x="346.78" y="-50.16" font-family="Helvetica,sans-Serif" font-size="10.00" fill="#63b8ff">2</text>
</a>
</g>
</g>
<!-- dir_271c6ffb8731629c353de5a8d6c88b3d -->
<g id="node11" class="node">
<title>dir_271c6ffb8731629c353de5a8d6c88b3d</title>
<g id="a_node11"><a xlink:href="dir_271c6ffb8731629c353de5a8d6c88b3d.html" target="_top" xlink:title="caja">
<polygon fill="#edf0f7" stroke="red" points="482.5,-43 445.5,-43 445.5,-24 482.5,-24 482.5,-43"/>
<text text-anchor="middle" x="464" y="-31" font-family="Helvetica,sans-Serif" font-size="10.00">caja</text>
</a>
</g>
</g>
<!-- dir_e945e7d57e553ac2a8e58ae6484b3f53&#45;&gt;dir_271c6ffb8731629c353de5a8d6c88b3d -->
<g id="edge5" class="edge">
<title>dir_e945e7d57e553ac2a8e58ae6484b3f53&#45;&gt;dir_271c6ffb8731629c353de5a8d6c88b3d</title>
<g id="a_edge5"><a xlink:href="dir_000047_000026.html" target="_top">
<path fill="none" stroke="#63b8ff" d="M208.37,-84.06C259.38,-74.99 395.85,-50.71 435.51,-42.8"/>
<polygon fill="#63b8ff" stroke="#63b8ff" points="436.45,-46.18 445.5,-40.67 434.99,-39.34 436.45,-46.18"/>
</a>
</g>
<g id="a_edge5&#45;headlabel"><a xlink:href="dir_000047_000026.html" target="_top" xlink:title="3">
<text text-anchor="middle" x="433.53" y="-47.21" font-family="Helvetica,sans-Serif" font-size="10.00" fill="#63b8ff">3</text>
</a>
</g>
</g>
<!-- dir_9f10d1cc142747aefc7241dcfb2cf517 -->
<g id="node5" class="node">
<title>dir_9f10d1cc142747aefc7241dcfb2cf517</title>
<g id="a_node5"><a xlink:href="dir_9f10d1cc142747aefc7241dcfb2cf517.html" target="_top" xlink:title="io&#45;desktop">
<polygon fill="#a2b4d6" stroke="#404040" points="132,-98 64,-98 64,-79 132,-79 132,-98"/>
<text text-anchor="middle" x="98" y="-86" font-family="Helvetica,sans-Serif" font-size="10.00">io&#45;desktop</text>
</a>
</g>
</g>
<!-- dir_9f10d1cc142747aefc7241dcfb2cf517&#45;&gt;dir_21b9c68b25bfbc66be08d978b47b94d3 -->
<g id="edge6" class="edge">
<title>dir_9f10d1cc142747aefc7241dcfb2cf517&#45;&gt;dir_21b9c68b25bfbc66be08d978b47b94d3</title>
<g id="a_edge6"><a xlink:href="dir_000093_000009.html" target="_top">
<path fill="none" stroke="#63b8ff" d="M106.75,-78.75C114.47,-71.03 125.9,-59.6 135.22,-50.28"/>
<polygon fill="#63b8ff" stroke="#63b8ff" points="137.81,-52.64 142.41,-43.09 132.86,-47.69 137.81,-52.64"/>
</a>
</g>
<g id="a_edge6&#45;headlabel"><a xlink:href="dir_000093_000009.html" target="_top" xlink:title="26">
<text text-anchor="middle" x="137.28" y="-54.68" font-family="Helvetica,sans-Serif" font-size="10.00" fill="#63b8ff">26</text>
</a>
</g>
</g>
<!-- dir_82306e7ce48282ac886d96f2778e1d8d -->
<g id="node6" class="node">
<title>dir_82306e7ce48282ac886d96f2778e1d8d</title>
<g id="a_node6"><a xlink:href="dir_82306e7ce48282ac886d96f2778e1d8d.html" target="_top" xlink:title="plugin&#45;menu">
<polygon fill="#a2b4d6" stroke="#404040" points="267,-153 189,-153 189,-134 267,-134 267,-153"/>
<text text-anchor="middle" x="228" y="-141" font-family="Helvetica,sans-Serif" font-size="10.00">plugin&#45;menu</text>
</a>
</g>
</g>
<!-- dir_82306e7ce48282ac886d96f2778e1d8d&#45;&gt;dir_21b9c68b25bfbc66be08d978b47b94d3 -->
<g id="edge7" class="edge">
<title>dir_82306e7ce48282ac886d96f2778e1d8d&#45;&gt;dir_21b9c68b25bfbc66be08d978b47b94d3</title>
<g id="a_edge7"><a xlink:href="dir_000193_000009.html" target="_top">
<path fill="none" stroke="#63b8ff" d="M228.55,-133.93C228.96,-120.98 228.07,-96.09 217,-79 207.3,-64.01 190.58,-52.82 176.4,-45.41"/>
<polygon fill="#63b8ff" stroke="#63b8ff" points="177.63,-42.11 167.1,-40.88 174.56,-48.41 177.63,-42.11"/>
</a>
</g>
<g id="a_edge7&#45;headlabel"><a xlink:href="dir_000193_000009.html" target="_top" xlink:title="3">
<text text-anchor="middle" x="182.1" y="-38.63" font-family="Helvetica,sans-Serif" font-size="10.00" fill="#63b8ff">3</text>
</a>
</g>
</g>
<!-- dir_82306e7ce48282ac886d96f2778e1d8d&#45;&gt;dir_e945e7d57e553ac2a8e58ae6484b3f53 -->
<g id="edge9" class="edge">
<title>dir_82306e7ce48282ac886d96f2778e1d8d&#45;&gt;dir_e945e7d57e553ac2a8e58ae6484b3f53</title>
<g id="a_edge9"><a xlink:href="dir_000193_000047.html" target="_top">
<path fill="none" stroke="#63b8ff" d="M221.56,-133.75C216.11,-126.34 208.14,-115.5 201.44,-106.41"/>
<polygon fill="#63b8ff" stroke="#63b8ff" points="204.07,-104.07 195.32,-98.09 198.43,-108.22 204.07,-104.07"/>
</a>
</g>
<g id="a_edge9&#45;headlabel"><a xlink:href="dir_000193_000047.html" target="_top" xlink:title="5">
<text text-anchor="middle" x="208.48" y="-102.78" font-family="Helvetica,sans-Serif" font-size="10.00" fill="#63b8ff">5</text>
</a>
</g>
</g>
<!-- dir_82306e7ce48282ac886d96f2778e1d8d&#45;&gt;dir_271c6ffb8731629c353de5a8d6c88b3d -->
<g id="edge8" class="edge">
<title>dir_82306e7ce48282ac886d96f2778e1d8d&#45;&gt;dir_271c6ffb8731629c353de5a8d6c88b3d</title>
<g id="a_edge8"><a xlink:href="dir_000193_000026.html" target="_top">
<path fill="none" stroke="#63b8ff" d="M251.21,-133.88C273.84,-125.32 309.12,-111.55 339,-98 374.23,-82.03 413.88,-61.42 438.9,-48.08"/>
<polygon fill="#63b8ff" stroke="#63b8ff" points="440.88,-50.99 448.04,-43.18 437.57,-44.82 440.88,-50.99"/>
</a>
</g>
<g id="a_edge8&#45;headlabel"><a xlink:href="dir_000193_000026.html" target="_top" xlink:title="4">
<text text-anchor="middle" x="439.05" y="-52.69" font-family="Helvetica,sans-Serif" font-size="10.00" fill="#63b8ff">4</text>
</a>
</g>
</g>
<!-- dir_7d1a6ef111467e80d34b8452c15498be -->
<g id="node7" class="node">
<title>dir_7d1a6ef111467e80d34b8452c15498be</title>
<g id="a_node7"><a xlink:href="dir_7d1a6ef111467e80d34b8452c15498be.html" target="_top" xlink:title="plugin&#45;tracker">
<polygon fill="#a2b4d6" stroke="#404040" points="330,-98 246,-98 246,-79 330,-79 330,-98"/>
<text text-anchor="middle" x="288" y="-86" font-family="Helvetica,sans-Serif" font-size="10.00">plugin&#45;tracker</text>
</a>
</g>
</g>
<!-- dir_7d1a6ef111467e80d34b8452c15498be&#45;&gt;dir_21b9c68b25bfbc66be08d978b47b94d3 -->
<g id="edge10" class="edge">
<title>dir_7d1a6ef111467e80d34b8452c15498be&#45;&gt;dir_21b9c68b25bfbc66be08d978b47b94d3</title>
<g id="a_edge10"><a xlink:href="dir_000194_000009.html" target="_top">
<path fill="none" stroke="#63b8ff" d="M265.99,-78.98C241.68,-69.58 202.59,-54.46 176.85,-44.5"/>
<polygon fill="#63b8ff" stroke="#63b8ff" points="177.96,-41.18 167.37,-40.83 175.43,-47.7 177.96,-41.18"/>
</a>
</g>
<g id="a_edge10&#45;headlabel"><a xlink:href="dir_000194_000009.html" target="_top" xlink:title="1">
<text text-anchor="middle" x="182.33" y="-37.32" font-family="Helvetica,sans-Serif" font-size="10.00" fill="#63b8ff">1</text>
</a>
</g>
</g>
<!-- dir_7d1a6ef111467e80d34b8452c15498be&#45;&gt;dir_271c6ffb8731629c353de5a8d6c88b3d -->
<g id="edge11" class="edge">
<title>dir_7d1a6ef111467e80d34b8452c15498be&#45;&gt;dir_271c6ffb8731629c353de5a8d6c88b3d</title>
<g id="a_edge11"><a xlink:href="dir_000194_000026.html" target="_top">
<path fill="none" stroke="#63b8ff" d="M317.16,-78.93C345.29,-70.63 389.31,-57.57 435.78,-43.34"/>
<polygon fill="#63b8ff" stroke="#63b8ff" points="436.89,-46.67 445.42,-40.39 434.83,-39.97 436.89,-46.67"/>
</a>
</g>
<g id="a_edge11&#45;headlabel"><a xlink:href="dir_000194_000026.html" target="_top" xlink:title="4">
<text text-anchor="middle" x="434.28" y="-47.94" font-family="Helvetica,sans-Serif" font-size="10.00" fill="#63b8ff">4</text>
</a>
</g>
</g>
<!-- dir_fd57d14bee2787bccd5117ea267e17e4 -->
<g id="node8" class="node">
<title>dir_fd57d14bee2787bccd5117ea267e17e4</title>
<g id="a_node8"><a xlink:href="dir_fd57d14bee2787bccd5117ea267e17e4.html" target="_top" xlink:title="test">
<polygon fill="#a2b4d6" stroke="#404040" points="170.5,-153 135.5,-153 135.5,-134 170.5,-134 170.5,-153"/>
<text text-anchor="middle" x="153" y="-141" font-family="Helvetica,sans-Serif" font-size="10.00">test</text>
</a>
</g>
</g>
<!-- dir_fd57d14bee2787bccd5117ea267e17e4&#45;&gt;dir_21b9c68b25bfbc66be08d978b47b94d3 -->
<g id="edge12" class="edge">
<title>dir_fd57d14bee2787bccd5117ea267e17e4&#45;&gt;dir_21b9c68b25bfbc66be08d978b47b94d3</title>
<g id="a_edge12"><a xlink:href="dir_000273_000009.html" target="_top">
<path fill="none" stroke="#63b8ff" d="M152.84,-133.66C152.51,-116.17 151.78,-76.8 151.35,-53.27"/>
<polygon fill="#63b8ff" stroke="#63b8ff" points="154.84,-53.09 151.16,-43.16 147.85,-53.22 154.84,-53.09"/>
</a>
</g>
<g id="a_edge12&#45;headlabel"><a xlink:href="dir_000273_000009.html" target="_top" xlink:title="1">
<text text-anchor="middle" x="157.75" y="-54.13" font-family="Helvetica,sans-Serif" font-size="10.00" fill="#63b8ff">1</text>
</a>
</g>
</g>
<!-- dir_fd57d14bee2787bccd5117ea267e17e4&#45;&gt;dir_e945e7d57e553ac2a8e58ae6484b3f53 -->
<g id="edge13" class="edge">
<title>dir_fd57d14bee2787bccd5117ea267e17e4&#45;&gt;dir_e945e7d57e553ac2a8e58ae6484b3f53</title>
<g id="a_edge13"><a xlink:href="dir_000273_000047.html" target="_top">
<path fill="none" stroke="#63b8ff" d="M158.94,-133.75C163.98,-126.34 171.34,-115.5 177.51,-106.41"/>
<polygon fill="#63b8ff" stroke="#63b8ff" points="180.44,-108.33 183.17,-98.09 174.65,-104.39 180.44,-108.33"/>
</a>
</g>
<g id="a_edge13&#45;headlabel"><a xlink:href="dir_000273_000047.html" target="_top" xlink:title="2">
<text text-anchor="middle" x="180.77" y="-110.4" font-family="Helvetica,sans-Serif" font-size="10.00" fill="#63b8ff">2</text>
</a>
</g>
</g>
<!-- dir_96f412b113899b6b440746a86c11615c -->
<g id="node9" class="node">
<title>dir_96f412b113899b6b440746a86c11615c</title>
<g id="a_node9"><a xlink:href="dir_96f412b113899b6b440746a86c11615c.html" target="_top" xlink:title="utils">
<polygon fill="#a2b4d6" stroke="#404040" points="62,-153 24,-153 24,-134 62,-134 62,-153"/>
<text text-anchor="middle" x="43" y="-141" font-family="Helvetica,sans-Serif" font-size="10.00">utils</text>
</a>
</g>
</g>
<!-- dir_96f412b113899b6b440746a86c11615c&#45;&gt;dir_21b9c68b25bfbc66be08d978b47b94d3 -->
<g id="edge14" class="edge">
<title>dir_96f412b113899b6b440746a86c11615c&#45;&gt;dir_21b9c68b25bfbc66be08d978b47b94d3</title>
<g id="a_edge14"><a xlink:href="dir_000302_000009.html" target="_top">
<path fill="none" stroke="#63b8ff" d="M41.08,-133.75C38.7,-120.56 36.29,-95.37 48,-79 65.86,-54.02 100.79,-42.93 124.99,-38.09"/>
<polygon fill="#63b8ff" stroke="#63b8ff" points="125.7,-41.52 134.94,-36.34 124.48,-34.63 125.7,-41.52"/>
</a>
</g>
<g id="a_edge14&#45;headlabel"><a xlink:href="dir_000302_000009.html" target="_top" xlink:title="12">
<text text-anchor="middle" x="122.66" y="-42.45" font-family="Helvetica,sans-Serif" font-size="10.00" fill="#63b8ff">12</text>
</a>
</g>
</g>
<!-- dir_96f412b113899b6b440746a86c11615c&#45;&gt;dir_e945e7d57e553ac2a8e58ae6484b3f53 -->
<g id="edge15" class="edge">
<title>dir_96f412b113899b6b440746a86c11615c&#45;&gt;dir_e945e7d57e553ac2a8e58ae6484b3f53</title>
<g id="a_edge15"><a xlink:href="dir_000302_000047.html" target="_top">
<path fill="none" stroke="#63b8ff" d="M62.09,-135.57C87.12,-126.49 131.25,-110.46 160.31,-99.91"/>
<polygon fill="#63b8ff" stroke="#63b8ff" points="161.7,-103.13 169.91,-96.43 159.31,-96.55 161.7,-103.13"/>
</a>
</g>
<g id="a_edge15&#45;headlabel"><a xlink:href="dir_000302_000047.html" target="_top" xlink:title="10">
<text text-anchor="middle" x="159.29" y="-104.53" font-family="Helvetica,sans-Serif" font-size="10.00" fill="#63b8ff">10</text>
</a>
</g>
</g>
</g>
</svg>
