<?xml version="1.0" encoding="UTF-8" standalone="no"?>
<!DOCTYPE svg PUBLIC "-//W3C//DTD SVG 1.1//EN"
 "http://www.w3.org/Graphics/SVG/1.1/DTD/svg11.dtd">
<!-- Generated by graphviz version 2.43.0 (0)
 -->
<!-- Title: atril Pages: 1 -->
<!--zoomable 169 -->

<svg id="main" version="1.1" xmlns="http://www.w3.org/2000/svg" xmlns:xlink="http://www.w3.org/1999/xlink" xml:space="preserve" onload="init(evt)">

<style type="text/css"><![CDATA[
.node, .edge {opacity: 0.7;}
.node.selected, .edge.selected {opacity: 1;}
.edge:hover path { stroke: red; }
.edge:hover polygon { stroke: red; fill: red; }
]]></style>

<defs>
  <circle id="rim" cx="0" cy="0" r="7"/>
  <circle id="rim2" cx="0" cy="0" r="3.5"/>
  <g id="zoomPlus">
    <use xlink:href="#rim" fill="#404040"><set attributeName="fill" to="#808080" begin="zoomplus.mouseover" end="zoomplus.mouseout"/></use>
    <path d="M-4,0h8M0,-4v8" fill="none" stroke="white" stroke-width="1.5" pointer-events="none"/>
  </g>
  <g id="zoomMin">
    <use xlink:href="#rim" fill="#404040"><set attributeName="fill" to="#808080" begin="zoomminus.mouseover" end="zoomminus.mouseout"/></use>
    <path d="M-4,0h8" fill="none" stroke="white" stroke-width="1.5" pointer-events="none"/>
  </g>
  <g id="arrowUp" transform="translate(30 24)">
    <use xlink:href="#rim"/>
    <path pointer-events="none" fill="none" stroke="white" stroke-width="1.5" d="M0,-3.0v7 M-2.5,-0.5L0,-3.0L2.5,-0.5"/>
  </g>
  <g id="arrowRight" transform="rotate(90) translate(36 -43)">
    <use xlink:href="#rim"/>
    <path pointer-events="none" fill="none" stroke="white" stroke-width="1.5" d="M0,-3.0v7 M-2.5,-0.5L0,-3.0L2.5,-0.5"/>
  </g>
  <g id="arrowDown" transform="rotate(180) translate(-30 -48)">
    <use xlink:href="#rim"/>
    <path pointer-events="none" fill="none" stroke="white" stroke-width="1.5" d="M0,-3.0v7 M-2.5,-0.5L0,-3.0L2.5,-0.5"/>
  </g>
  <g id="arrowLeft" transform="rotate(270) translate(-36 17)">
    <use xlink:href="#rim"/>
    <path pointer-events="none" fill="none" stroke="white" stroke-width="1.5" d="M0,-3.0v7 M-2.5,-0.5L0,-3.0L2.5,-0.5"/>
  </g>
  <g id="resetDef">
    <use xlink:href="#rim2" fill="#404040"><set attributeName="fill" to="#808080" begin="reset.mouseover" end="reset.mouseout"/></use>
  </g>
</defs>
<script type="application/ecmascript">
var viewWidth = 540;
var viewHeight = 169;
var sectionId = 'dynsection-0';
</script>
<script type="application/ecmascript" xlink:href="svg.min.js"/>
<svg id="graph" class="graph">
<g id="viewport">
<title>atril</title>
<g id="clust1" class="cluster">
<title>clusterdir_80dfdf04789b60c2c4f25a7e85665659</title>
<g id="a_clust1"><a xlink:href="dir_80dfdf04789b60c2c4f25a7e85665659.html" target="_top">
<polygon fill="#edf0f7" stroke="#404040" stroke-width="2" points="8,-8 8,-153 436,-153 436,-8 8,-8"/>
</a>
</g>
</g>
<!-- dir_80dfdf04789b60c2c4f25a7e85665659 -->
<g id="node1" class="node">
<title>dir_80dfdf04789b60c2c4f25a7e85665659</title>
<text text-anchor="middle" x="133" y="-133" font-family="Helvetica,sans-Serif" font-size="10.00">atril</text>
</g>
<!-- dir_a6784df5f21200f1a83967c852bb9188 -->
<g id="node4" class="node">
<title>dir_a6784df5f21200f1a83967c852bb9188</title>
<g id="a_node4"><a xlink:href="dir_a6784df5f21200f1a83967c852bb9188.html" target="_top" xlink:title="libdocument">
<polygon fill="#a2b4d6" stroke="#404040" points="153.5,-35 76.5,-35 76.5,-16 153.5,-16 153.5,-35"/>
<text text-anchor="middle" x="115" y="-23" font-family="Helvetica,sans-Serif" font-size="10.00">libdocument</text>
</a>
</g>
</g>
<!-- dir_80dfdf04789b60c2c4f25a7e85665659&#45;&gt;dir_a6784df5f21200f1a83967c852bb9188 -->
<g id="edge2" class="edge">
<title>dir_80dfdf04789b60c2c4f25a7e85665659&#45;&gt;dir_a6784df5f21200f1a83967c852bb9188</title>
<g id="a_edge2"><a xlink:href="dir_000015_000102.html" target="_top">
<path fill="none" stroke="#63b8ff" d="M124.79,-125.8C117.46,-117.38 107.25,-103.9 103,-90 98.44,-75.08 102.38,-57.63 106.92,-44.8"/>
<polygon fill="#63b8ff" stroke="#63b8ff" points="110.27,-45.86 110.71,-35.27 103.76,-43.27 110.27,-45.86"/>
</a>
</g>
<g id="a_edge2&#45;headlabel"><a xlink:href="dir_000015_000102.html" target="_top" xlink:title="169">
<text text-anchor="middle" x="111.58" y="-47.75" font-family="Helvetica,sans-Serif" font-size="10.00" fill="#63b8ff">169</text>
</a>
</g>
</g>
<!-- dir_3caa10092bc2ba5a86290f44744ced7c -->
<g id="node6" class="node">
<title>dir_3caa10092bc2ba5a86290f44744ced7c</title>
<g id="a_node6"><a xlink:href="dir_3caa10092bc2ba5a86290f44744ced7c.html" target="_top" xlink:title="libview">
<polygon fill="#a2b4d6" stroke="#404040" points="164,-90 112,-90 112,-71 164,-71 164,-90"/>
<text text-anchor="middle" x="138" y="-78" font-family="Helvetica,sans-Serif" font-size="10.00">libview</text>
</a>
</g>
</g>
<!-- dir_80dfdf04789b60c2c4f25a7e85665659&#45;&gt;dir_3caa10092bc2ba5a86290f44744ced7c -->
<g id="edge1" class="edge">
<title>dir_80dfdf04789b60c2c4f25a7e85665659&#45;&gt;dir_3caa10092bc2ba5a86290f44744ced7c</title>
<g id="a_edge1"><a xlink:href="dir_000015_000128.html" target="_top">
<path fill="none" stroke="#63b8ff" d="M133.83,-125.75C134.48,-118.8 135.42,-108.85 136.24,-100.13"/>
<polygon fill="#63b8ff" stroke="#63b8ff" points="139.73,-100.37 137.19,-90.09 132.77,-99.72 139.73,-100.37"/>
</a>
</g>
<g id="a_edge1&#45;headlabel"><a xlink:href="dir_000015_000128.html" target="_top" xlink:title="32">
<text text-anchor="middle" x="142.22" y="-101.72" font-family="Helvetica,sans-Serif" font-size="10.00" fill="#63b8ff">32</text>
</a>
</g>
</g>
<!-- dir_c56ddc8ec910db7c6f16ac013c3aa2de -->
<g id="node2" class="node">
<title>dir_c56ddc8ec910db7c6f16ac013c3aa2de</title>
<g id="a_node2"><a xlink:href="dir_c56ddc8ec910db7c6f16ac013c3aa2de.html" target="_top" xlink:title="backend">
<polygon fill="#a2b4d6" stroke="#404040" points="73.5,-90 16.5,-90 16.5,-71 73.5,-71 73.5,-90"/>
<text text-anchor="middle" x="45" y="-78" font-family="Helvetica,sans-Serif" font-size="10.00">backend</text>
</a>
</g>
</g>
<!-- dir_c56ddc8ec910db7c6f16ac013c3aa2de&#45;&gt;dir_a6784df5f21200f1a83967c852bb9188 -->
<g id="edge3" class="edge">
<title>dir_c56ddc8ec910db7c6f16ac013c3aa2de&#45;&gt;dir_a6784df5f21200f1a83967c852bb9188</title>
<g id="a_edge3"><a xlink:href="dir_000017_000102.html" target="_top">
<path fill="none" stroke="#63b8ff" d="M56.25,-70.98C66.8,-63 82.8,-50.88 95.44,-41.31"/>
<polygon fill="#63b8ff" stroke="#63b8ff" points="97.69,-44 103.55,-35.17 93.46,-38.42 97.69,-44"/>
</a>
</g>
<g id="a_edge3&#45;headlabel"><a xlink:href="dir_000017_000102.html" target="_top" xlink:title="48">
<text text-anchor="middle" x="96.54" y="-45.93" font-family="Helvetica,sans-Serif" font-size="10.00" fill="#63b8ff">48</text>
</a>
</g>
</g>
<!-- dir_8dd6445ec989dc1186d975ec9c0ba8de -->
<g id="node3" class="node">
<title>dir_8dd6445ec989dc1186d975ec9c0ba8de</title>
<g id="a_node3"><a xlink:href="dir_8dd6445ec989dc1186d975ec9c0ba8de.html" target="_top" xlink:title="cut&#45;n&#45;paste">
<polygon fill="#a2b4d6" stroke="#404040" points="428,-90 356,-90 356,-71 428,-71 428,-90"/>
<text text-anchor="middle" x="392" y="-78" font-family="Helvetica,sans-Serif" font-size="10.00">cut&#45;n&#45;paste</text>
</a>
</g>
</g>
<!-- dir_4d26e54d471446ef426581b8eda063b0 -->
<g id="node5" class="node">
<title>dir_4d26e54d471446ef426581b8eda063b0</title>
<g id="a_node5"><a xlink:href="dir_4d26e54d471446ef426581b8eda063b0.html" target="_top" xlink:title="libmisc">
<polygon fill="#a2b4d6" stroke="#404040" points="234,-90 182,-90 182,-71 234,-71 234,-90"/>
<text text-anchor="middle" x="208" y="-78" font-family="Helvetica,sans-Serif" font-size="10.00">libmisc</text>
</a>
</g>
</g>
<!-- dir_3caa10092bc2ba5a86290f44744ced7c&#45;&gt;dir_a6784df5f21200f1a83967c852bb9188 -->
<g id="edge4" class="edge">
<title>dir_3caa10092bc2ba5a86290f44744ced7c&#45;&gt;dir_a6784df5f21200f1a83967c852bb9188</title>
<g id="a_edge4"><a xlink:href="dir_000128_000102.html" target="_top">
<path fill="none" stroke="#63b8ff" d="M134.2,-70.75C131.09,-63.57 126.58,-53.18 122.71,-44.27"/>
<polygon fill="#63b8ff" stroke="#63b8ff" points="125.92,-42.87 118.73,-35.09 119.5,-45.66 125.92,-42.87"/>
</a>
</g>
<g id="a_edge4&#45;headlabel"><a xlink:href="dir_000128_000102.html" target="_top" xlink:title="43">
<text text-anchor="middle" x="129.95" y="-42.54" font-family="Helvetica,sans-Serif" font-size="10.00" fill="#63b8ff">43</text>
</a>
</g>
</g>
<!-- dir_8848bc79d8effd4635e1740fc858b6c5 -->
<g id="node7" class="node">
<title>dir_8848bc79d8effd4635e1740fc858b6c5</title>
<g id="a_node7"><a xlink:href="dir_8848bc79d8effd4635e1740fc858b6c5.html" target="_top" xlink:title="previewer">
<polygon fill="#a2b4d6" stroke="#404040" points="240.5,-145 175.5,-145 175.5,-126 240.5,-126 240.5,-145"/>
<text text-anchor="middle" x="208" y="-133" font-family="Helvetica,sans-Serif" font-size="10.00">previewer</text>
</a>
</g>
</g>
<!-- dir_8848bc79d8effd4635e1740fc858b6c5&#45;&gt;dir_4d26e54d471446ef426581b8eda063b0 -->
<g id="edge5" class="edge">
<title>dir_8848bc79d8effd4635e1740fc858b6c5&#45;&gt;dir_4d26e54d471446ef426581b8eda063b0</title>
<g id="a_edge5"><a xlink:href="dir_000207_000124.html" target="_top">
<path fill="none" stroke="#63b8ff" d="M208,-125.75C208,-118.8 208,-108.85 208,-100.13"/>
<polygon fill="#63b8ff" stroke="#63b8ff" points="211.5,-100.09 208,-90.09 204.5,-100.09 211.5,-100.09"/>
</a>
</g>
<g id="a_edge5&#45;headlabel"><a xlink:href="dir_000207_000124.html" target="_top" xlink:title="1">
<text text-anchor="middle" x="214.34" y="-101.18" font-family="Helvetica,sans-Serif" font-size="10.00" fill="#63b8ff">1</text>
</a>
</g>
</g>
<!-- dir_c92e4a142834f3d838cae9f4b60a350e -->
<g id="node8" class="node">
<title>dir_c92e4a142834f3d838cae9f4b60a350e</title>
<g id="a_node8"><a xlink:href="dir_c92e4a142834f3d838cae9f4b60a350e.html" target="_top" xlink:title="properties">
<polygon fill="#a2b4d6" stroke="#404040" points="338,-90 272,-90 272,-71 338,-71 338,-90"/>
<text text-anchor="middle" x="305" y="-78" font-family="Helvetica,sans-Serif" font-size="10.00">properties</text>
</a>
</g>
</g>
<!-- dir_271c6ffb8731629c353de5a8d6c88b3d -->
<g id="node11" class="node">
<title>dir_271c6ffb8731629c353de5a8d6c88b3d</title>
<g id="a_node11"><a xlink:href="dir_271c6ffb8731629c353de5a8d6c88b3d.html" target="_top" xlink:title="caja">
<polygon fill="#edf0f7" stroke="red" points="481.5,-35 444.5,-35 444.5,-16 481.5,-16 481.5,-35"/>
<text text-anchor="middle" x="463" y="-23" font-family="Helvetica,sans-Serif" font-size="10.00">caja</text>
</a>
</g>
</g>
<!-- dir_c92e4a142834f3d838cae9f4b60a350e&#45;&gt;dir_271c6ffb8731629c353de5a8d6c88b3d -->
<g id="edge6" class="edge">
<title>dir_c92e4a142834f3d838cae9f4b60a350e&#45;&gt;dir_271c6ffb8731629c353de5a8d6c88b3d</title>
<g id="a_edge6"><a xlink:href="dir_000208_000026.html" target="_top">
<path fill="none" stroke="#63b8ff" d="M331.73,-71C356.91,-62.92 395.9,-50.25 434.61,-36.84"/>
<polygon fill="#63b8ff" stroke="#63b8ff" points="436.15,-40.02 444.44,-33.42 433.85,-33.41 436.15,-40.02"/>
</a>
</g>
<g id="a_edge6&#45;headlabel"><a xlink:href="dir_000208_000026.html" target="_top" xlink:title="2">
<text text-anchor="middle" x="433.69" y="-41.38" font-family="Helvetica,sans-Serif" font-size="10.00" fill="#63b8ff">2</text>
</a>
</g>
</g>
<!-- dir_486c17cf55a8941c4ef23f60ff068fe6 -->
<g id="node9" class="node">
<title>dir_486c17cf55a8941c4ef23f60ff068fe6</title>
<g id="a_node9"><a xlink:href="dir_486c17cf55a8941c4ef23f60ff068fe6.html" target="_top" xlink:title="shell">
<polygon fill="#a2b4d6" stroke="#404040" points="312,-145 272,-145 272,-126 312,-126 312,-145"/>
<text text-anchor="middle" x="292" y="-133" font-family="Helvetica,sans-Serif" font-size="10.00">shell</text>
</a>
</g>
</g>
<!-- dir_486c17cf55a8941c4ef23f60ff068fe6&#45;&gt;dir_8dd6445ec989dc1186d975ec9c0ba8de -->
<g id="edge10" class="edge">
<title>dir_486c17cf55a8941c4ef23f60ff068fe6&#45;&gt;dir_8dd6445ec989dc1186d975ec9c0ba8de</title>
<g id="a_edge10"><a xlink:href="dir_000220_000051.html" target="_top">
<path fill="none" stroke="#63b8ff" d="M308.07,-125.98C323.86,-117.61 348.22,-104.7 366.63,-94.95"/>
<polygon fill="#63b8ff" stroke="#63b8ff" points="368.44,-97.95 375.64,-90.17 365.17,-91.76 368.44,-97.95"/>
</a>
</g>
<g id="a_edge10&#45;headlabel"><a xlink:href="dir_000220_000051.html" target="_top" xlink:title="2">
<text text-anchor="middle" x="366.6" y="-99.64" font-family="Helvetica,sans-Serif" font-size="10.00" fill="#63b8ff">2</text>
</a>
</g>
</g>
<!-- dir_486c17cf55a8941c4ef23f60ff068fe6&#45;&gt;dir_a6784df5f21200f1a83967c852bb9188 -->
<g id="edge11" class="edge">
<title>dir_486c17cf55a8941c4ef23f60ff068fe6&#45;&gt;dir_a6784df5f21200f1a83967c852bb9188</title>
<g id="a_edge11"><a xlink:href="dir_000220_000102.html" target="_top">
<path fill="none" stroke="#63b8ff" d="M286.05,-125.56C275.53,-109.96 253.74,-78.73 243,-71 219.4,-54.01 188.76,-43.05 163.37,-36.26"/>
<polygon fill="#63b8ff" stroke="#63b8ff" points="164.12,-32.84 153.56,-33.77 162.39,-39.63 164.12,-32.84"/>
</a>
</g>
<g id="a_edge11&#45;headlabel"><a xlink:href="dir_000220_000102.html" target="_top" xlink:title="42">
<text text-anchor="middle" x="168.3" y="-28.47" font-family="Helvetica,sans-Serif" font-size="10.00" fill="#63b8ff">42</text>
</a>
</g>
</g>
<!-- dir_486c17cf55a8941c4ef23f60ff068fe6&#45;&gt;dir_4d26e54d471446ef426581b8eda063b0 -->
<g id="edge8" class="edge">
<title>dir_486c17cf55a8941c4ef23f60ff068fe6&#45;&gt;dir_4d26e54d471446ef426581b8eda063b0</title>
<g id="a_edge8"><a xlink:href="dir_000220_000124.html" target="_top">
<path fill="none" stroke="#63b8ff" d="M278.5,-125.98C265.6,-117.84 245.9,-105.41 230.6,-95.76"/>
<polygon fill="#63b8ff" stroke="#63b8ff" points="232.07,-92.55 221.74,-90.17 228.33,-98.47 232.07,-92.55"/>
</a>
</g>
<g id="a_edge8&#45;headlabel"><a xlink:href="dir_000220_000124.html" target="_top" xlink:title="1">
<text text-anchor="middle" x="236.62" y="-89.56" font-family="Helvetica,sans-Serif" font-size="10.00" fill="#63b8ff">1</text>
</a>
</g>
</g>
<!-- dir_486c17cf55a8941c4ef23f60ff068fe6&#45;&gt;dir_3caa10092bc2ba5a86290f44744ced7c -->
<g id="edge7" class="edge">
<title>dir_486c17cf55a8941c4ef23f60ff068fe6&#45;&gt;dir_3caa10092bc2ba5a86290f44744ced7c</title>
<g id="a_edge7"><a xlink:href="dir_000220_000128.html" target="_top">
<path fill="none" stroke="#63b8ff" d="M271.87,-127.57C246.67,-118.9 203.11,-103.91 172.55,-93.39"/>
<polygon fill="#63b8ff" stroke="#63b8ff" points="173.32,-89.95 162.72,-90.01 171.04,-96.57 173.32,-89.95"/>
</a>
</g>
<g id="a_edge7&#45;headlabel"><a xlink:href="dir_000220_000128.html" target="_top" xlink:title="24">
<text text-anchor="middle" x="177.64" y="-85.94" font-family="Helvetica,sans-Serif" font-size="10.00" fill="#63b8ff">24</text>
</a>
</g>
</g>
<!-- dir_486c17cf55a8941c4ef23f60ff068fe6&#45;&gt;dir_c92e4a142834f3d838cae9f4b60a350e -->
<g id="edge12" class="edge">
<title>dir_486c17cf55a8941c4ef23f60ff068fe6&#45;&gt;dir_c92e4a142834f3d838cae9f4b60a350e</title>
<g id="a_edge12"><a xlink:href="dir_000220_000208.html" target="_top">
<path fill="none" stroke="#63b8ff" d="M294.15,-125.75C295.87,-118.72 298.35,-108.62 300.5,-99.84"/>
<polygon fill="#63b8ff" stroke="#63b8ff" points="303.91,-100.63 302.89,-90.09 297.11,-98.97 303.91,-100.63"/>
</a>
</g>
<g id="a_edge12&#45;headlabel"><a xlink:href="dir_000220_000208.html" target="_top" xlink:title="1">
<text text-anchor="middle" x="305.81" y="-102.3" font-family="Helvetica,sans-Serif" font-size="10.00" fill="#63b8ff">1</text>
</a>
</g>
</g>
<!-- dir_8cc4d8de6389f3ef5db2ddcabec2099b -->
<g id="node12" class="node">
<title>dir_8cc4d8de6389f3ef5db2ddcabec2099b</title>
<g id="a_node12"><a xlink:href="dir_8cc4d8de6389f3ef5db2ddcabec2099b.html" target="_top" xlink:title="mate&#45;desktop">
<polygon fill="#edf0f7" stroke="red" points="531.5,-90 446.5,-90 446.5,-71 531.5,-71 531.5,-90"/>
<text text-anchor="middle" x="489" y="-78" font-family="Helvetica,sans-Serif" font-size="10.00">mate&#45;desktop</text>
</a>
</g>
</g>
<!-- dir_486c17cf55a8941c4ef23f60ff068fe6&#45;&gt;dir_8cc4d8de6389f3ef5db2ddcabec2099b -->
<g id="edge9" class="edge">
<title>dir_486c17cf55a8941c4ef23f60ff068fe6&#45;&gt;dir_8cc4d8de6389f3ef5db2ddcabec2099b</title>
<g id="a_edge9"><a xlink:href="dir_000220_000135.html" target="_top">
<path fill="none" stroke="#63b8ff" d="M312.34,-129.03C344.04,-120.5 405.87,-103.87 447.31,-92.72"/>
<polygon fill="#63b8ff" stroke="#63b8ff" points="448.37,-96.06 457.12,-90.08 446.55,-89.3 448.37,-96.06"/>
</a>
</g>
<g id="a_edge9&#45;headlabel"><a xlink:href="dir_000220_000135.html" target="_top" xlink:title="3">
<text text-anchor="middle" x="445.64" y="-97.23" font-family="Helvetica,sans-Serif" font-size="10.00" fill="#63b8ff">3</text>
</a>
</g>
</g>
<!-- dir_7a7d971314b4b1b7f33cb409f3490d6a -->
<g id="node10" class="node">
<title>dir_7a7d971314b4b1b7f33cb409f3490d6a</title>
<g id="a_node10"><a xlink:href="dir_7a7d971314b4b1b7f33cb409f3490d6a.html" target="_top" xlink:title="thumbnailer">
<polygon fill="#a2b4d6" stroke="#404040" points="95,-145 19,-145 19,-126 95,-126 95,-145"/>
<text text-anchor="middle" x="57" y="-133" font-family="Helvetica,sans-Serif" font-size="10.00">thumbnailer</text>
</a>
</g>
</g>
</g>
</svg>

<g id="navigator" transform="translate(0 0)" fill="#404254">
  <rect fill="#f2f5e9" fill-opacity="0.5" stroke="#606060" stroke-width=".5" x="0" y="0" width="60" height="60"/>
  <use id="zoomplus" xlink:href="#zoomPlus" x="17" y="9" onmousedown="handleZoom(evt,'in')"/>
  <use id="zoomminus" xlink:href="#zoomMin" x="42" y="9" onmousedown="handleZoom(evt,'out')"/>
  <use id="reset" xlink:href="#resetDef" x="30" y="36" onmousedown="handleReset()"/>
   <use id="arrowup" xlink:href="#arrowUp" x="0" y="0" onmousedown="handlePan(0,-1)"/>
  <use id="arrowright" xlink:href="#arrowRight" x="0" y="0" onmousedown="handlePan(1,0)"/>
  <use id="arrowdown" xlink:href="#arrowDown" x="0" y="0" onmousedown="handlePan(0,1)"/>
  <use id="arrowleft" xlink:href="#arrowLeft" x="0" y="0" onmousedown="handlePan(-1,0)"/>
</g>
<svg viewBox="0 0 15 15" width="100%" height="30px" preserveAspectRatio="xMaxYMin meet">
 <g id="arrow_out" transform="scale(0.3 0.3)">
  <a xlink:href="dir_80dfdf04789b60c2c4f25a7e85665659_dep_org.svg" target="_base">
   <rect id="button" ry="5" rx="5" y="6" x="6" height="38" width="38"
        fill="#f2f5e9" fill-opacity="0.5" stroke="#606060" stroke-width="1.0"/>
   <path id="arrow"
     d="M 11.500037,31.436501 C 11.940474,20.09759 22.043105,11.32322 32.158766,21.979434 L 37.068811,17.246167 C 37.068811,17.246167 37.088388,32 37.088388,32 L 22.160133,31.978069 C 22.160133,31.978069 26.997745,27.140456 26.997745,27.140456 C 18.528582,18.264221 13.291696,25.230495 11.500037,31.436501 z"
     style="fill:#404040;"/>
  </a>
 </g>
</svg>

<style type='text/css'>
<![CDATA[
[data-mouse-over-selected='false'] { opacity: 0.7; }
[data-mouse-over-selected='true']  { opacity: 1.0; }
]]>
</style>
<script type="application/ecmascript"><![CDATA[
document.addEventListener('DOMContentLoaded', (event) => {
  highlightEdges();
  highlightAdjacentNodes();
});
]]></script>
</svg>
