<?xml version="1.0" encoding="UTF-8" standalone="no"?>
<!DOCTYPE svg PUBLIC "-//W3C//DTD SVG 1.1//EN"
 "http://www.w3.org/Graphics/SVG/1.1/DTD/svg11.dtd">
<!-- Generated by graphviz version 2.43.0 (0)
 -->
<!-- Title: eel&#45;image&#45;table.c Pages: 1 -->
<svg width="737pt" height="247pt"
 viewBox="0.00 0.00 737.00 247.00" xmlns="http://www.w3.org/2000/svg" xmlns:xlink="http://www.w3.org/1999/xlink">
<g id="graph0" class="graph" transform="scale(1 1) rotate(0) translate(4 243)">
<title>eel&#45;image&#45;table.c</title>
<!-- Node1 -->
<g id="Node000001" class="node">
<title>Node1</title>
<g id="a_Node000001"><a xlink:title=" ">
<polygon fill="#999999" stroke="#666666" points="365,-239 262,-239 262,-220 365,-220 365,-239"/>
<text text-anchor="middle" x="313.5" y="-227" font-family="Helvetica,sans-Serif" font-size="10.00">eel&#45;image&#45;table.c</text>
</a>
</g>
</g>
<!-- Node2 -->
<g id="Node000002" class="node">
<title>Node2</title>
<g id="a_Node000002"><a xlink:title=" ">
<polygon fill="#e0e0e0" stroke="#999999" points="55,-184 0,-184 0,-165 55,-165 55,-184"/>
<text text-anchor="middle" x="27.5" y="-172" font-family="Helvetica,sans-Serif" font-size="10.00">config.h</text>
</a>
</g>
</g>
<!-- Node1&#45;&gt;Node2 -->
<g id="edge1_Node000001_Node000002" class="edge">
<title>Node1&#45;&gt;Node2</title>
<g id="a_edge1_Node000001_Node000002"><a xlink:title=" ">
<path fill="none" stroke="#63b8ff" d="M265.3,-219.99C216.04,-211.23 137.37,-197.05 69.5,-184 68.04,-183.72 66.55,-183.43 65.05,-183.14"/>
<polygon fill="#63b8ff" stroke="#63b8ff" points="65.54,-179.67 55.05,-181.15 64.18,-186.53 65.54,-179.67"/>
</a>
</g>
</g>
<!-- Node3 -->
<g id="Node000003" class="node">
<title>Node3</title>
<g id="a_Node000003"><a xlink:href="eel-image-table_8h.html" target="_top" xlink:title=" ">
<polygon fill="white" stroke="#666666" points="405.5,-184 301.5,-184 301.5,-165 405.5,-165 405.5,-184"/>
<text text-anchor="middle" x="353.5" y="-172" font-family="Helvetica,sans-Serif" font-size="10.00">eel&#45;image&#45;table.h</text>
</a>
</g>
</g>
<!-- Node1&#45;&gt;Node3 -->
<g id="edge2_Node000001_Node000003" class="edge">
<title>Node1&#45;&gt;Node3</title>
<g id="a_edge2_Node000001_Node000003"><a xlink:title=" ">
<path fill="none" stroke="#63b8ff" d="M320.11,-219.75C325.76,-212.26 334.04,-201.28 340.95,-192.13"/>
<polygon fill="#63b8ff" stroke="#63b8ff" points="343.79,-194.18 347.02,-184.09 338.2,-189.96 343.79,-194.18"/>
</a>
</g>
</g>
<!-- Node6 -->
<g id="Node000006" class="node">
<title>Node6</title>
<g id="a_Node000006"><a xlink:title=" ">
<polygon fill="#e0e0e0" stroke="#999999" points="424.5,-74 364.5,-74 364.5,-55 424.5,-55 424.5,-74"/>
<text text-anchor="middle" x="394.5" y="-62" font-family="Helvetica,sans-Serif" font-size="10.00">gtk/gtk.h</text>
</a>
</g>
</g>
<!-- Node1&#45;&gt;Node6 -->
<g id="edge21_Node000001_Node000006" class="edge">
<title>Node1&#45;&gt;Node6</title>
<g id="a_edge21_Node000001_Node000006"><a xlink:title=" ">
<path fill="none" stroke="#63b8ff" d="M359.66,-220C380.1,-213.69 402.25,-202.78 414.5,-184 434.83,-152.82 417.11,-107.54 404.5,-82.96"/>
<polygon fill="#63b8ff" stroke="#63b8ff" points="407.53,-81.2 399.69,-74.07 401.37,-84.53 407.53,-81.2"/>
</a>
</g>
</g>
<!-- Node7 -->
<g id="Node000007" class="node">
<title>Node7</title>
<g id="a_Node000007"><a xlink:href="eel-art-extensions_8h.html" target="_top" xlink:title=" ">
<polygon fill="white" stroke="#666666" points="290,-129 175,-129 175,-110 290,-110 290,-129"/>
<text text-anchor="middle" x="232.5" y="-117" font-family="Helvetica,sans-Serif" font-size="10.00">eel&#45;art&#45;extensions.h</text>
</a>
</g>
</g>
<!-- Node1&#45;&gt;Node7 -->
<g id="edge6_Node000001_Node000007" class="edge">
<title>Node1&#45;&gt;Node7</title>
<g id="a_edge6_Node000001_Node000007"><a xlink:title=" ">
<path fill="none" stroke="#63b8ff" d="M306.87,-219.66C293.4,-201.69 262.61,-160.64 245.16,-137.38"/>
<polygon fill="#63b8ff" stroke="#63b8ff" points="247.79,-135.06 238.99,-129.16 242.19,-139.26 247.79,-135.06"/>
</a>
</g>
</g>
<!-- Node8 -->
<g id="Node000008" class="node">
<title>Node8</title>
<g id="a_Node000008"><a xlink:href="eel-art-gtk-extensions_8h.html" target="_top" xlink:title=" ">
<polygon fill="white" stroke="#666666" points="245.5,-184 111.5,-184 111.5,-165 245.5,-165 245.5,-184"/>
<text text-anchor="middle" x="178.5" y="-172" font-family="Helvetica,sans-Serif" font-size="10.00">eel&#45;art&#45;gtk&#45;extensions.h</text>
</a>
</g>
</g>
<!-- Node1&#45;&gt;Node8 -->
<g id="edge8_Node000001_Node000008" class="edge">
<title>Node1&#45;&gt;Node8</title>
<g id="a_edge8_Node000001_Node000008"><a xlink:title=" ">
<path fill="none" stroke="#63b8ff" d="M291.81,-219.98C269.7,-211.3 235.18,-197.75 210.05,-187.88"/>
<polygon fill="#63b8ff" stroke="#63b8ff" points="211.17,-184.57 200.58,-184.17 208.61,-191.08 211.17,-184.57"/>
</a>
</g>
</g>
<!-- Node9 -->
<g id="Node000009" class="node">
<title>Node9</title>
<g id="a_Node000009"><a xlink:href="eel-gtk-extensions_8h.html" target="_top" xlink:title=" ">
<polygon fill="white" stroke="#666666" points="157,-129 40,-129 40,-110 157,-110 157,-129"/>
<text text-anchor="middle" x="98.5" y="-117" font-family="Helvetica,sans-Serif" font-size="10.00">eel&#45;gtk&#45;extensions.h</text>
</a>
</g>
</g>
<!-- Node1&#45;&gt;Node9 -->
<g id="edge14_Node000001_Node000009" class="edge">
<title>Node1&#45;&gt;Node9</title>
<g id="a_edge14_Node000001_Node000009"><a xlink:title=" ">
<path fill="none" stroke="#63b8ff" d="M261.89,-224.65C206.26,-219.34 122.92,-207.61 102.5,-184 92.01,-171.87 92.13,-153.07 94.2,-139.07"/>
<polygon fill="#63b8ff" stroke="#63b8ff" points="97.67,-139.58 96.12,-129.09 90.8,-138.26 97.67,-139.58"/>
</a>
</g>
</g>
<!-- Node12 -->
<g id="Node000012" class="node">
<title>Node12</title>
<g id="a_Node000012"><a xlink:href="eel-labeled-image_8h.html" target="_top" xlink:title=" ">
<polygon fill="white" stroke="#666666" points="582,-184 467,-184 467,-165 582,-165 582,-184"/>
<text text-anchor="middle" x="524.5" y="-172" font-family="Helvetica,sans-Serif" font-size="10.00">eel&#45;labeled&#45;image.h</text>
</a>
</g>
</g>
<!-- Node1&#45;&gt;Node12 -->
<g id="edge15_Node000001_Node000012" class="edge">
<title>Node1&#45;&gt;Node12</title>
<g id="a_edge15_Node000001_Node000012"><a xlink:title=" ">
<path fill="none" stroke="#63b8ff" d="M347.4,-219.98C383.52,-210.91 440.82,-196.52 480.42,-186.57"/>
<polygon fill="#63b8ff" stroke="#63b8ff" points="481.49,-189.91 490.33,-184.08 479.78,-183.12 481.49,-189.91"/>
</a>
</g>
</g>
<!-- Node14 -->
<g id="Node000014" class="node">
<title>Node14</title>
<g id="a_Node000014"><a xlink:href="eel-marshal_8h.html" target="_top" xlink:title=" ">
<polygon fill="white" stroke="#666666" points="710.5,-184 626.5,-184 626.5,-165 710.5,-165 710.5,-184"/>
<text text-anchor="middle" x="668.5" y="-172" font-family="Helvetica,sans-Serif" font-size="10.00">eel&#45;marshal.h</text>
</a>
</g>
</g>
<!-- Node1&#45;&gt;Node14 -->
<g id="edge19_Node000001_Node000014" class="edge">
<title>Node1&#45;&gt;Node14</title>
<g id="a_edge19_Node000001_Node000014"><a xlink:title=" ">
<path fill="none" stroke="#63b8ff" d="M365.12,-220.79C432.25,-210.77 548.87,-193.36 616.29,-183.3"/>
<polygon fill="#63b8ff" stroke="#63b8ff" points="616.89,-186.74 626.27,-181.81 615.86,-179.82 616.89,-186.74"/>
</a>
</g>
</g>
<!-- Node4 -->
<g id="Node000004" class="node">
<title>Node4</title>
<g id="a_Node000004"><a xlink:href="eel-wrap-table_8h.html" target="_top" xlink:title=" ">
<polygon fill="white" stroke="#666666" points="405,-129 308,-129 308,-110 405,-110 405,-129"/>
<text text-anchor="middle" x="356.5" y="-117" font-family="Helvetica,sans-Serif" font-size="10.00">eel&#45;wrap&#45;table.h</text>
</a>
</g>
</g>
<!-- Node3&#45;&gt;Node4 -->
<g id="edge3_Node000003_Node000004" class="edge">
<title>Node3&#45;&gt;Node4</title>
<g id="a_edge3_Node000003_Node000004"><a xlink:title=" ">
<path fill="none" stroke="#63b8ff" d="M354,-164.75C354.39,-157.8 354.95,-147.85 355.45,-139.13"/>
<polygon fill="#63b8ff" stroke="#63b8ff" points="358.94,-139.27 356.01,-129.09 351.95,-138.88 358.94,-139.27"/>
</a>
</g>
</g>
<!-- Node5 -->
<g id="Node000005" class="node">
<title>Node5</title>
<g id="a_Node000005"><a xlink:title=" ">
<polygon fill="#e0e0e0" stroke="#999999" points="300.5,-74 256.5,-74 256.5,-55 300.5,-55 300.5,-74"/>
<text text-anchor="middle" x="278.5" y="-62" font-family="Helvetica,sans-Serif" font-size="10.00">glib.h</text>
</a>
</g>
</g>
<!-- Node4&#45;&gt;Node5 -->
<g id="edge4_Node000004_Node000005" class="edge">
<title>Node4&#45;&gt;Node5</title>
<g id="a_edge4_Node000004_Node000005"><a xlink:title=" ">
<path fill="none" stroke="#63b8ff" d="M343.97,-109.98C332.1,-101.92 314.04,-89.65 299.89,-80.03"/>
<polygon fill="#63b8ff" stroke="#63b8ff" points="301.5,-76.9 291.26,-74.17 297.56,-82.69 301.5,-76.9"/>
</a>
</g>
</g>
<!-- Node4&#45;&gt;Node6 -->
<g id="edge5_Node000004_Node000006" class="edge">
<title>Node4&#45;&gt;Node6</title>
<g id="a_edge5_Node000004_Node000006"><a xlink:title=" ">
<path fill="none" stroke="#63b8ff" d="M362.77,-109.75C368.09,-102.34 375.86,-91.5 382.38,-82.41"/>
<polygon fill="#63b8ff" stroke="#63b8ff" points="385.36,-84.26 388.34,-74.09 379.67,-80.18 385.36,-84.26"/>
</a>
</g>
</g>
<!-- Node7&#45;&gt;Node5 -->
<g id="edge7_Node000007_Node000005" class="edge">
<title>Node7&#45;&gt;Node5</title>
<g id="a_edge7_Node000007_Node000005"><a xlink:title=" ">
<path fill="none" stroke="#63b8ff" d="M240.1,-109.75C246.66,-102.18 256.32,-91.05 264.31,-81.84"/>
<polygon fill="#63b8ff" stroke="#63b8ff" points="267.13,-83.94 271.05,-74.09 261.85,-79.35 267.13,-83.94"/>
</a>
</g>
</g>
<!-- Node8&#45;&gt;Node7 -->
<g id="edge13_Node000008_Node000007" class="edge">
<title>Node8&#45;&gt;Node7</title>
<g id="a_edge13_Node000008_Node000007"><a xlink:title=" ">
<path fill="none" stroke="#63b8ff" d="M187.42,-164.75C195.28,-157.03 206.93,-145.6 216.42,-136.28"/>
<polygon fill="#63b8ff" stroke="#63b8ff" points="219.06,-138.59 223.75,-129.09 214.16,-133.6 219.06,-138.59"/>
</a>
</g>
</g>
<!-- Node8&#45;&gt;Node9 -->
<g id="edge9_Node000008_Node000009" class="edge">
<title>Node8&#45;&gt;Node9</title>
<g id="a_edge9_Node000008_Node000009"><a xlink:title=" ">
<path fill="none" stroke="#63b8ff" d="M165.65,-164.98C153.36,-156.84 134.59,-144.41 120.02,-134.76"/>
<polygon fill="#63b8ff" stroke="#63b8ff" points="121.86,-131.78 111.59,-129.17 117.99,-137.61 121.86,-131.78"/>
</a>
</g>
</g>
<!-- Node9&#45;&gt;Node6 -->
<g id="edge10_Node000009_Node000006" class="edge">
<title>Node9&#45;&gt;Node6</title>
<g id="a_edge10_Node000009_Node000006"><a xlink:title=" ">
<path fill="none" stroke="#63b8ff" d="M146.06,-109.98C203.78,-99.65 300.11,-82.4 354.3,-72.7"/>
<polygon fill="#63b8ff" stroke="#63b8ff" points="355,-76.13 364.23,-70.92 353.77,-69.24 355,-76.13"/>
</a>
</g>
</g>
<!-- Node10 -->
<g id="Node000010" class="node">
<title>Node10</title>
<g id="a_Node000010"><a xlink:href="eel-gdk-extensions_8h.html" target="_top" xlink:title=" ">
<polygon fill="white" stroke="#666666" points="158,-74 39,-74 39,-55 158,-55 158,-74"/>
<text text-anchor="middle" x="98.5" y="-62" font-family="Helvetica,sans-Serif" font-size="10.00">eel&#45;gdk&#45;extensions.h</text>
</a>
</g>
</g>
<!-- Node9&#45;&gt;Node10 -->
<g id="edge11_Node000009_Node000010" class="edge">
<title>Node9&#45;&gt;Node10</title>
<g id="a_edge11_Node000009_Node000010"><a xlink:title=" ">
<path fill="none" stroke="#63b8ff" d="M98.5,-109.75C98.5,-102.8 98.5,-92.85 98.5,-84.13"/>
<polygon fill="#63b8ff" stroke="#63b8ff" points="102,-84.09 98.5,-74.09 95,-84.09 102,-84.09"/>
</a>
</g>
</g>
<!-- Node11 -->
<g id="Node000011" class="node">
<title>Node11</title>
<g id="a_Node000011"><a xlink:title=" ">
<polygon fill="#e0e0e0" stroke="#999999" points="131,-19 66,-19 66,0 131,0 131,-19"/>
<text text-anchor="middle" x="98.5" y="-7" font-family="Helvetica,sans-Serif" font-size="10.00">gdk/gdk.h</text>
</a>
</g>
</g>
<!-- Node10&#45;&gt;Node11 -->
<g id="edge12_Node000010_Node000011" class="edge">
<title>Node10&#45;&gt;Node11</title>
<g id="a_edge12_Node000010_Node000011"><a xlink:title=" ">
<path fill="none" stroke="#63b8ff" d="M98.5,-54.75C98.5,-47.8 98.5,-37.85 98.5,-29.13"/>
<polygon fill="#63b8ff" stroke="#63b8ff" points="102,-29.09 98.5,-19.09 95,-29.09 102,-29.09"/>
</a>
</g>
</g>
<!-- Node12&#45;&gt;Node6 -->
<g id="edge17_Node000012_Node000006" class="edge">
<title>Node12&#45;&gt;Node6</title>
<g id="a_edge17_Node000012_Node000006"><a xlink:title=" ">
<path fill="none" stroke="#63b8ff" d="M551.42,-164.94C581.48,-153.98 623.59,-133.56 604.5,-110 583.56,-84.16 489.73,-72.72 434.83,-68.16"/>
<polygon fill="#63b8ff" stroke="#63b8ff" points="434.98,-64.66 424.73,-67.36 434.43,-71.64 434.98,-64.66"/>
</a>
</g>
</g>
<!-- Node12&#45;&gt;Node7 -->
<g id="edge18_Node000012_Node000007" class="edge">
<title>Node12&#45;&gt;Node7</title>
<g id="a_edge18_Node000012_Node000007"><a xlink:title=" ">
<path fill="none" stroke="#63b8ff" d="M477.59,-164.98C426.44,-155.7 344.58,-140.84 289.7,-130.88"/>
<polygon fill="#63b8ff" stroke="#63b8ff" points="290.25,-127.42 279.78,-129.08 289,-134.31 290.25,-127.42"/>
</a>
</g>
</g>
<!-- Node13 -->
<g id="Node000013" class="node">
<title>Node13</title>
<g id="a_Node000013"><a xlink:title=" ">
<polygon fill="#e0e0e0" stroke="#999999" points="595,-129 462,-129 462,-110 595,-110 595,-129"/>
<text text-anchor="middle" x="528.5" y="-117" font-family="Helvetica,sans-Serif" font-size="10.00">gdk&#45;pixbuf/gdk&#45;pixbuf.h</text>
</a>
</g>
</g>
<!-- Node12&#45;&gt;Node13 -->
<g id="edge16_Node000012_Node000013" class="edge">
<title>Node12&#45;&gt;Node13</title>
<g id="a_edge16_Node000012_Node000013"><a xlink:title=" ">
<path fill="none" stroke="#63b8ff" d="M525.16,-164.75C525.68,-157.8 526.44,-147.85 527.09,-139.13"/>
<polygon fill="#63b8ff" stroke="#63b8ff" points="530.59,-139.32 527.85,-129.09 523.61,-138.8 530.59,-139.32"/>
</a>
</g>
</g>
<!-- Node15 -->
<g id="Node000015" class="node">
<title>Node15</title>
<g id="a_Node000015"><a xlink:title=" ">
<polygon fill="#e0e0e0" stroke="#999999" points="729,-129 652,-129 652,-110 729,-110 729,-129"/>
<text text-anchor="middle" x="690.5" y="-117" font-family="Helvetica,sans-Serif" font-size="10.00">glib&#45;object.h</text>
</a>
</g>
</g>
<!-- Node14&#45;&gt;Node15 -->
<g id="edge20_Node000014_Node000015" class="edge">
<title>Node14&#45;&gt;Node15</title>
<g id="a_edge20_Node000014_Node000015"><a xlink:title=" ">
<path fill="none" stroke="#63b8ff" d="M672.13,-164.75C675.08,-157.65 679.33,-147.4 683.01,-138.56"/>
<polygon fill="#63b8ff" stroke="#63b8ff" points="686.33,-139.67 686.93,-129.09 679.87,-136.98 686.33,-139.67"/>
</a>
</g>
</g>
</g>
</svg>
