<?xml version="1.0" encoding="UTF-8" standalone="no"?>
<!DOCTYPE svg PUBLIC "-//W3C//DTD SVG 1.1//EN"
 "http://www.w3.org/Graphics/SVG/1.1/DTD/svg11.dtd">
<!-- Generated by graphviz version 2.43.0 (0)
 -->
<!-- Title: eel&#45;gtk&#45;extensions.c Pages: 1 -->
<svg width="1486pt" height="192pt"
 viewBox="0.00 0.00 1486.00 192.00" xmlns="http://www.w3.org/2000/svg" xmlns:xlink="http://www.w3.org/1999/xlink">
<g id="graph0" class="graph" transform="scale(1 1) rotate(0) translate(4 188)">
<title>eel&#45;gtk&#45;extensions.c</title>
<!-- Node1 -->
<g id="Node000001" class="node">
<title>Node1</title>
<g id="a_Node000001"><a xlink:title=" ">
<polygon fill="#999999" stroke="#666666" points="833.5,-184 717.5,-184 717.5,-165 833.5,-165 833.5,-184"/>
<text text-anchor="middle" x="775.5" y="-172" font-family="Helvetica,sans-Serif" font-size="10.00">eel&#45;gtk&#45;extensions.c</text>
</a>
</g>
</g>
<!-- Node2 -->
<g id="Node000002" class="node">
<title>Node2</title>
<g id="a_Node000002"><a xlink:title=" ">
<polygon fill="#e0e0e0" stroke="#999999" points="55,-129 0,-129 0,-110 55,-110 55,-129"/>
<text text-anchor="middle" x="27.5" y="-117" font-family="Helvetica,sans-Serif" font-size="10.00">config.h</text>
</a>
</g>
</g>
<!-- Node1&#45;&gt;Node2 -->
<g id="edge1_Node000001_Node000002" class="edge">
<title>Node1&#45;&gt;Node2</title>
<g id="a_edge1_Node000001_Node000002"><a xlink:title=" ">
<path fill="none" stroke="#63b8ff" d="M717.12,-172.52C595.94,-169.88 308.44,-160.56 69.5,-129 68.21,-128.83 66.91,-128.64 65.59,-128.44"/>
<polygon fill="#63b8ff" stroke="#63b8ff" points="65.87,-124.94 55.42,-126.71 64.69,-131.84 65.87,-124.94"/>
</a>
</g>
</g>
<!-- Node3 -->
<g id="Node000003" class="node">
<title>Node3</title>
<g id="a_Node000003"><a xlink:href="eel-gtk-extensions_8h.html" target="_top" xlink:title=" ">
<polygon fill="white" stroke="#666666" points="374,-129 257,-129 257,-110 374,-110 374,-129"/>
<text text-anchor="middle" x="315.5" y="-117" font-family="Helvetica,sans-Serif" font-size="10.00">eel&#45;gtk&#45;extensions.h</text>
</a>
</g>
</g>
<!-- Node1&#45;&gt;Node3 -->
<g id="edge2_Node000001_Node000003" class="edge">
<title>Node1&#45;&gt;Node3</title>
<g id="a_edge2_Node000001_Node000003"><a xlink:title=" ">
<path fill="none" stroke="#63b8ff" d="M717.47,-166.85C641.78,-158.18 505.23,-142.51 388.5,-129 387.03,-128.83 385.55,-128.66 384.06,-128.49"/>
<polygon fill="#63b8ff" stroke="#63b8ff" points="384.41,-125 374.07,-127.33 383.6,-131.96 384.41,-125"/>
</a>
</g>
</g>
<!-- Node4 -->
<g id="Node000004" class="node">
<title>Node4</title>
<g id="a_Node000004"><a xlink:title=" ">
<polygon fill="#e0e0e0" stroke="#999999" points="205.5,-74 145.5,-74 145.5,-55 205.5,-55 205.5,-74"/>
<text text-anchor="middle" x="175.5" y="-62" font-family="Helvetica,sans-Serif" font-size="10.00">gtk/gtk.h</text>
</a>
</g>
</g>
<!-- Node1&#45;&gt;Node4 -->
<g id="edge26_Node000001_Node000004" class="edge">
<title>Node1&#45;&gt;Node4</title>
<g id="a_edge26_Node000001_Node000004"><a xlink:title=" ">
<path fill="none" stroke="#63b8ff" d="M717.22,-174.09C561.38,-175.04 144.06,-173.4 102.5,-129 84.53,-109.8 115.83,-90.34 142.87,-78.11"/>
<polygon fill="#63b8ff" stroke="#63b8ff" points="144.37,-81.28 152.17,-74.1 141.6,-74.85 144.37,-81.28"/>
</a>
</g>
</g>
<!-- Node6 -->
<g id="Node000006" class="node">
<title>Node6</title>
<g id="a_Node000006"><a xlink:title=" ">
<polygon fill="#e0e0e0" stroke="#999999" points="435,-19 370,-19 370,0 435,0 435,-19"/>
<text text-anchor="middle" x="402.5" y="-7" font-family="Helvetica,sans-Serif" font-size="10.00">gdk/gdk.h</text>
</a>
</g>
</g>
<!-- Node1&#45;&gt;Node6 -->
<g id="edge23_Node000001_Node000006" class="edge">
<title>Node1&#45;&gt;Node6</title>
<g id="a_edge23_Node000001_Node000006"><a xlink:title=" ">
<path fill="none" stroke="#63b8ff" d="M717.33,-174.32C627.87,-174.28 462.53,-168.66 421.5,-129 394.75,-103.14 396.07,-55.7 399.32,-29.37"/>
<polygon fill="#63b8ff" stroke="#63b8ff" points="402.82,-29.6 400.81,-19.2 395.9,-28.59 402.82,-29.6"/>
</a>
</g>
</g>
<!-- Node7 -->
<g id="Node000007" class="node">
<title>Node7</title>
<g id="a_Node000007"><a xlink:href="eel-gdk-pixbuf-extensions_8h.html" target="_top" xlink:title=" ">
<polygon fill="white" stroke="#666666" points="584,-129 431,-129 431,-110 584,-110 584,-129"/>
<text text-anchor="middle" x="507.5" y="-117" font-family="Helvetica,sans-Serif" font-size="10.00">eel&#45;gdk&#45;pixbuf&#45;extensions.h</text>
</a>
</g>
</g>
<!-- Node1&#45;&gt;Node7 -->
<g id="edge6_Node000001_Node000007" class="edge">
<title>Node1&#45;&gt;Node7</title>
<g id="a_edge6_Node000001_Node000007"><a xlink:title=" ">
<path fill="none" stroke="#63b8ff" d="M732.44,-164.98C685.79,-155.76 611.3,-141.03 560.94,-131.07"/>
<polygon fill="#63b8ff" stroke="#63b8ff" points="561.39,-127.59 550.9,-129.08 560.03,-134.46 561.39,-127.59"/>
</a>
</g>
</g>
<!-- Node10 -->
<g id="Node000010" class="node">
<title>Node10</title>
<g id="a_Node000010"><a xlink:href="eel-glib-extensions_8h.html" target="_top" xlink:title=" ">
<polygon fill="white" stroke="#666666" points="721,-129 602,-129 602,-110 721,-110 721,-129"/>
<text text-anchor="middle" x="661.5" y="-117" font-family="Helvetica,sans-Serif" font-size="10.00">eel&#45;glib&#45;extensions.h</text>
</a>
</g>
</g>
<!-- Node1&#45;&gt;Node10 -->
<g id="edge10_Node000001_Node000010" class="edge">
<title>Node1&#45;&gt;Node10</title>
<g id="a_edge10_Node000001_Node000010"><a xlink:title=" ">
<path fill="none" stroke="#63b8ff" d="M757.18,-164.98C738.84,-156.46 710.39,-143.23 689.27,-133.41"/>
<polygon fill="#63b8ff" stroke="#63b8ff" points="690.69,-130.21 680.15,-129.17 687.74,-136.56 690.69,-130.21"/>
</a>
</g>
</g>
<!-- Node12 -->
<g id="Node000012" class="node">
<title>Node12</title>
<g id="a_Node000012"><a xlink:href="eel-mate-extensions_8h.html" target="_top" xlink:title=" ">
<polygon fill="white" stroke="#666666" points="239,-129 112,-129 112,-110 239,-110 239,-129"/>
<text text-anchor="middle" x="175.5" y="-117" font-family="Helvetica,sans-Serif" font-size="10.00">eel&#45;mate&#45;extensions.h</text>
</a>
</g>
</g>
<!-- Node1&#45;&gt;Node12 -->
<g id="edge13_Node000001_Node000012" class="edge">
<title>Node1&#45;&gt;Node12</title>
<g id="a_edge13_Node000001_Node000012"><a xlink:title=" ">
<path fill="none" stroke="#63b8ff" d="M717.23,-169.23C621.67,-162.08 425.42,-146.82 249.07,-129.13"/>
<polygon fill="#63b8ff" stroke="#63b8ff" points="249.39,-125.64 239.09,-128.12 248.69,-132.61 249.39,-125.64"/>
</a>
</g>
</g>
<!-- Node13 -->
<g id="Node000013" class="node">
<title>Node13</title>
<g id="a_Node000013"><a xlink:href="eel-marshal_8h.html" target="_top" xlink:title=" ">
<polygon fill="white" stroke="#666666" points="913.5,-129 829.5,-129 829.5,-110 913.5,-110 913.5,-129"/>
<text text-anchor="middle" x="871.5" y="-117" font-family="Helvetica,sans-Serif" font-size="10.00">eel&#45;marshal.h</text>
</a>
</g>
</g>
<!-- Node1&#45;&gt;Node13 -->
<g id="edge15_Node000001_Node000013" class="edge">
<title>Node1&#45;&gt;Node13</title>
<g id="a_edge15_Node000001_Node000013"><a xlink:title=" ">
<path fill="none" stroke="#63b8ff" d="M790.92,-164.98C805.95,-156.69 829.04,-143.94 846.66,-134.22"/>
<polygon fill="#63b8ff" stroke="#63b8ff" points="848.73,-137.07 855.8,-129.17 845.35,-130.94 848.73,-137.07"/>
</a>
</g>
</g>
<!-- Node15 -->
<g id="Node000015" class="node">
<title>Node15</title>
<g id="a_Node000015"><a xlink:href="eel-string_8h.html" target="_top" xlink:title=" ">
<polygon fill="white" stroke="#666666" points="811.5,-129 739.5,-129 739.5,-110 811.5,-110 811.5,-129"/>
<text text-anchor="middle" x="775.5" y="-117" font-family="Helvetica,sans-Serif" font-size="10.00">eel&#45;string.h</text>
</a>
</g>
</g>
<!-- Node1&#45;&gt;Node15 -->
<g id="edge17_Node000001_Node000015" class="edge">
<title>Node1&#45;&gt;Node15</title>
<g id="a_edge17_Node000001_Node000015"><a xlink:title=" ">
<path fill="none" stroke="#63b8ff" d="M775.5,-164.75C775.5,-157.8 775.5,-147.85 775.5,-139.13"/>
<polygon fill="#63b8ff" stroke="#63b8ff" points="779,-139.09 775.5,-129.09 772,-139.09 779,-139.09"/>
</a>
</g>
</g>
<!-- Node18 -->
<g id="Node000018" class="node">
<title>Node18</title>
<g id="a_Node000018"><a xlink:title=" ">
<polygon fill="#e0e0e0" stroke="#999999" points="997.5,-129 931.5,-129 931.5,-110 997.5,-110 997.5,-129"/>
<text text-anchor="middle" x="964.5" y="-117" font-family="Helvetica,sans-Serif" font-size="10.00">X11/Xlib.h</text>
</a>
</g>
</g>
<!-- Node1&#45;&gt;Node18 -->
<g id="edge21_Node000001_Node000018" class="edge">
<title>Node1&#45;&gt;Node18</title>
<g id="a_edge21_Node000001_Node000018"><a xlink:title=" ">
<path fill="none" stroke="#63b8ff" d="M805.87,-164.98C837.87,-156.01 888.46,-141.82 923.88,-131.89"/>
<polygon fill="#63b8ff" stroke="#63b8ff" points="925.21,-135.15 933.9,-129.08 923.32,-128.41 925.21,-135.15"/>
</a>
</g>
</g>
<!-- Node19 -->
<g id="Node000019" class="node">
<title>Node19</title>
<g id="a_Node000019"><a xlink:title=" ">
<polygon fill="#e0e0e0" stroke="#999999" points="1095.5,-129 1015.5,-129 1015.5,-110 1095.5,-110 1095.5,-129"/>
<text text-anchor="middle" x="1055.5" y="-117" font-family="Helvetica,sans-Serif" font-size="10.00">X11/Xatom.h</text>
</a>
</g>
</g>
<!-- Node1&#45;&gt;Node19 -->
<g id="edge22_Node000001_Node000019" class="edge">
<title>Node1&#45;&gt;Node19</title>
<g id="a_edge22_Node000001_Node000019"><a xlink:title=" ">
<path fill="none" stroke="#63b8ff" d="M820.49,-164.98C870.92,-155.44 952.5,-140 1005.06,-130.05"/>
<polygon fill="#63b8ff" stroke="#63b8ff" points="1005.99,-133.43 1015.17,-128.13 1004.69,-126.56 1005.99,-133.43"/>
</a>
</g>
</g>
<!-- Node20 -->
<g id="Node000020" class="node">
<title>Node20</title>
<g id="a_Node000020"><a xlink:title=" ">
<polygon fill="#e0e0e0" stroke="#999999" points="1213,-129 1114,-129 1114,-110 1213,-110 1213,-129"/>
<text text-anchor="middle" x="1163.5" y="-117" font-family="Helvetica,sans-Serif" font-size="10.00">gdk/gdkprivate.h</text>
</a>
</g>
</g>
<!-- Node1&#45;&gt;Node20 -->
<g id="edge24_Node000001_Node000020" class="edge">
<title>Node1&#45;&gt;Node20</title>
<g id="a_edge24_Node000001_Node000020"><a xlink:title=" ">
<path fill="none" stroke="#63b8ff" d="M833.76,-165.77C897.42,-157.3 1002.68,-143.18 1103.84,-129.08"/>
<polygon fill="#63b8ff" stroke="#63b8ff" points="1104.51,-132.52 1113.93,-127.67 1103.54,-125.59 1104.51,-132.52"/>
</a>
</g>
</g>
<!-- Node21 -->
<g id="Node000021" class="node">
<title>Node21</title>
<g id="a_Node000021"><a xlink:title=" ">
<polygon fill="#e0e0e0" stroke="#999999" points="1302,-129 1231,-129 1231,-110 1302,-110 1302,-129"/>
<text text-anchor="middle" x="1266.5" y="-117" font-family="Helvetica,sans-Serif" font-size="10.00">gdk/gdkx.h</text>
</a>
</g>
</g>
<!-- Node1&#45;&gt;Node21 -->
<g id="edge25_Node000001_Node000021" class="edge">
<title>Node1&#45;&gt;Node21</title>
<g id="a_edge25_Node000001_Node000021"><a xlink:title=" ">
<path fill="none" stroke="#63b8ff" d="M833.57,-169.43C917.12,-163.19 1076.24,-149.9 1220.6,-129.17"/>
<polygon fill="#63b8ff" stroke="#63b8ff" points="1221.13,-132.63 1230.53,-127.73 1220.13,-125.7 1221.13,-132.63"/>
</a>
</g>
</g>
<!-- Node22 -->
<g id="Node000022" class="node">
<title>Node22</title>
<g id="a_Node000022"><a xlink:title=" ">
<polygon fill="#e0e0e0" stroke="#999999" points="1409,-129 1320,-129 1320,-110 1409,-110 1409,-129"/>
<text text-anchor="middle" x="1364.5" y="-117" font-family="Helvetica,sans-Serif" font-size="10.00">glib/gi18n&#45;lib.h</text>
</a>
</g>
</g>
<!-- Node1&#45;&gt;Node22 -->
<g id="edge27_Node000001_Node000022" class="edge">
<title>Node1&#45;&gt;Node22</title>
<g id="a_edge27_Node000001_Node000022"><a xlink:title=" ">
<path fill="none" stroke="#63b8ff" d="M833.55,-170.14C930.23,-164.21 1130.55,-150.58 1309.58,-129.15"/>
<polygon fill="#63b8ff" stroke="#63b8ff" points="1310.21,-132.6 1319.71,-127.93 1309.37,-125.65 1310.21,-132.6"/>
</a>
</g>
</g>
<!-- Node23 -->
<g id="Node000023" class="node">
<title>Node23</title>
<g id="a_Node000023"><a xlink:title=" ">
<polygon fill="#e0e0e0" stroke="#999999" points="1478,-129 1427,-129 1427,-110 1478,-110 1478,-129"/>
<text text-anchor="middle" x="1452.5" y="-117" font-family="Helvetica,sans-Serif" font-size="10.00">math.h</text>
</a>
</g>
</g>
<!-- Node1&#45;&gt;Node23 -->
<g id="edge28_Node000001_Node000023" class="edge">
<title>Node1&#45;&gt;Node23</title>
<g id="a_edge28_Node000001_Node000023"><a xlink:title=" ">
<path fill="none" stroke="#63b8ff" d="M833.52,-172.89C945,-170.99 1196.86,-163.11 1416.86,-128.98"/>
<polygon fill="#63b8ff" stroke="#63b8ff" points="1417.64,-132.4 1426.98,-127.39 1416.56,-125.49 1417.64,-132.4"/>
</a>
</g>
</g>
<!-- Node3&#45;&gt;Node4 -->
<g id="edge3_Node000003_Node000004" class="edge">
<title>Node3&#45;&gt;Node4</title>
<g id="a_edge3_Node000003_Node000004"><a xlink:title=" ">
<path fill="none" stroke="#63b8ff" d="M293.01,-109.98C269.98,-101.27 233.96,-87.63 207.87,-77.75"/>
<polygon fill="#63b8ff" stroke="#63b8ff" points="208.99,-74.44 198.4,-74.17 206.52,-80.98 208.99,-74.44"/>
</a>
</g>
</g>
<!-- Node5 -->
<g id="Node000005" class="node">
<title>Node5</title>
<g id="a_Node000005"><a xlink:href="eel-gdk-extensions_8h.html" target="_top" xlink:title=" ">
<polygon fill="white" stroke="#666666" points="374,-74 255,-74 255,-55 374,-55 374,-74"/>
<text text-anchor="middle" x="314.5" y="-62" font-family="Helvetica,sans-Serif" font-size="10.00">eel&#45;gdk&#45;extensions.h</text>
</a>
</g>
</g>
<!-- Node3&#45;&gt;Node5 -->
<g id="edge4_Node000003_Node000005" class="edge">
<title>Node3&#45;&gt;Node5</title>
<g id="a_edge4_Node000003_Node000005"><a xlink:title=" ">
<path fill="none" stroke="#63b8ff" d="M315.33,-109.75C315.2,-102.8 315.02,-92.85 314.85,-84.13"/>
<polygon fill="#63b8ff" stroke="#63b8ff" points="318.35,-84.02 314.66,-74.09 311.35,-84.15 318.35,-84.02"/>
</a>
</g>
</g>
<!-- Node5&#45;&gt;Node6 -->
<g id="edge5_Node000005_Node000006" class="edge">
<title>Node5&#45;&gt;Node6</title>
<g id="a_edge5_Node000005_Node000006"><a xlink:title=" ">
<path fill="none" stroke="#63b8ff" d="M328.64,-54.98C342.29,-46.77 363.19,-34.18 379.28,-24.49"/>
<polygon fill="#63b8ff" stroke="#63b8ff" points="381.34,-27.33 388.1,-19.17 377.73,-21.33 381.34,-27.33"/>
</a>
</g>
</g>
<!-- Node7&#45;&gt;Node6 -->
<g id="edge8_Node000007_Node000006" class="edge">
<title>Node7&#45;&gt;Node6</title>
<g id="a_edge8_Node000007_Node000006"><a xlink:title=" ">
<path fill="none" stroke="#63b8ff" d="M497.69,-109.89C487.81,-101.1 472.25,-86.96 459.5,-74 444.33,-58.58 427.92,-40.09 416.62,-27.05"/>
<polygon fill="#63b8ff" stroke="#63b8ff" points="419.17,-24.66 410,-19.36 413.87,-29.22 419.17,-24.66"/>
</a>
</g>
</g>
<!-- Node8 -->
<g id="Node000008" class="node">
<title>Node8</title>
<g id="a_Node000008"><a xlink:title=" ">
<polygon fill="#e0e0e0" stroke="#999999" points="602,-74 469,-74 469,-55 602,-55 602,-74"/>
<text text-anchor="middle" x="535.5" y="-62" font-family="Helvetica,sans-Serif" font-size="10.00">gdk&#45;pixbuf/gdk&#45;pixbuf.h</text>
</a>
</g>
</g>
<!-- Node7&#45;&gt;Node8 -->
<g id="edge7_Node000007_Node000008" class="edge">
<title>Node7&#45;&gt;Node8</title>
<g id="a_edge7_Node000007_Node000008"><a xlink:title=" ">
<path fill="none" stroke="#63b8ff" d="M512.12,-109.75C515.96,-102.49 521.52,-91.95 526.26,-82.98"/>
<polygon fill="#63b8ff" stroke="#63b8ff" points="529.39,-84.57 530.96,-74.09 523.2,-81.3 529.39,-84.57"/>
</a>
</g>
</g>
<!-- Node9 -->
<g id="Node000009" class="node">
<title>Node9</title>
<g id="a_Node000009"><a xlink:title=" ">
<polygon fill="#e0e0e0" stroke="#999999" points="679,-74 620,-74 620,-55 679,-55 679,-74"/>
<text text-anchor="middle" x="649.5" y="-62" font-family="Helvetica,sans-Serif" font-size="10.00">gio/gio.h</text>
</a>
</g>
</g>
<!-- Node7&#45;&gt;Node9 -->
<g id="edge9_Node000007_Node000009" class="edge">
<title>Node7&#45;&gt;Node9</title>
<g id="a_edge9_Node000007_Node000009"><a xlink:title=" ">
<path fill="none" stroke="#63b8ff" d="M530.31,-109.98C553.67,-101.27 590.2,-87.63 616.67,-77.75"/>
<polygon fill="#63b8ff" stroke="#63b8ff" points="618.13,-80.95 626.27,-74.17 615.68,-74.39 618.13,-80.95"/>
</a>
</g>
</g>
<!-- Node10&#45;&gt;Node9 -->
<g id="edge12_Node000010_Node000009" class="edge">
<title>Node10&#45;&gt;Node9</title>
<g id="a_edge12_Node000010_Node000009"><a xlink:title=" ">
<path fill="none" stroke="#63b8ff" d="M659.52,-109.75C657.93,-102.72 655.64,-92.62 653.65,-83.84"/>
<polygon fill="#63b8ff" stroke="#63b8ff" points="657.07,-83.07 651.44,-74.09 650.24,-84.62 657.07,-83.07"/>
</a>
</g>
</g>
<!-- Node11 -->
<g id="Node000011" class="node">
<title>Node11</title>
<g id="a_Node000011"><a xlink:title=" ">
<polygon fill="#e0e0e0" stroke="#999999" points="741.5,-74 697.5,-74 697.5,-55 741.5,-55 741.5,-74"/>
<text text-anchor="middle" x="719.5" y="-62" font-family="Helvetica,sans-Serif" font-size="10.00">glib.h</text>
</a>
</g>
</g>
<!-- Node10&#45;&gt;Node11 -->
<g id="edge11_Node000010_Node000011" class="edge">
<title>Node10&#45;&gt;Node11</title>
<g id="a_edge11_Node000010_Node000011"><a xlink:title=" ">
<path fill="none" stroke="#63b8ff" d="M670.82,-109.98C679.31,-102.23 692.06,-90.58 702.38,-81.14"/>
<polygon fill="#63b8ff" stroke="#63b8ff" points="704.99,-83.5 710.01,-74.17 700.27,-78.33 704.99,-83.5"/>
</a>
</g>
</g>
<!-- Node12&#45;&gt;Node4 -->
<g id="edge14_Node000012_Node000004" class="edge">
<title>Node12&#45;&gt;Node4</title>
<g id="a_edge14_Node000012_Node000004"><a xlink:title=" ">
<path fill="none" stroke="#63b8ff" d="M175.5,-109.75C175.5,-102.8 175.5,-92.85 175.5,-84.13"/>
<polygon fill="#63b8ff" stroke="#63b8ff" points="179,-84.09 175.5,-74.09 172,-84.09 179,-84.09"/>
</a>
</g>
</g>
<!-- Node14 -->
<g id="Node000014" class="node">
<title>Node14</title>
<g id="a_Node000014"><a xlink:title=" ">
<polygon fill="#e0e0e0" stroke="#999999" points="983,-74 906,-74 906,-55 983,-55 983,-74"/>
<text text-anchor="middle" x="944.5" y="-62" font-family="Helvetica,sans-Serif" font-size="10.00">glib&#45;object.h</text>
</a>
</g>
</g>
<!-- Node13&#45;&gt;Node14 -->
<g id="edge16_Node000013_Node000014" class="edge">
<title>Node13&#45;&gt;Node14</title>
<g id="a_edge16_Node000013_Node000014"><a xlink:title=" ">
<path fill="none" stroke="#63b8ff" d="M883.23,-109.98C894.23,-102 910.92,-89.88 924.1,-80.31"/>
<polygon fill="#63b8ff" stroke="#63b8ff" points="926.52,-82.88 932.56,-74.17 922.41,-77.21 926.52,-82.88"/>
</a>
</g>
</g>
<!-- Node15&#45;&gt;Node11 -->
<g id="edge18_Node000015_Node000011" class="edge">
<title>Node15&#45;&gt;Node11</title>
<g id="a_edge18_Node000015_Node000011"><a xlink:title=" ">
<path fill="none" stroke="#63b8ff" d="M766.5,-109.98C758.31,-102.23 745.99,-90.58 736.03,-81.14"/>
<polygon fill="#63b8ff" stroke="#63b8ff" points="738.33,-78.5 728.66,-74.17 733.52,-83.59 738.33,-78.5"/>
</a>
</g>
</g>
<!-- Node16 -->
<g id="Node000016" class="node">
<title>Node16</title>
<g id="a_Node000016"><a xlink:title=" ">
<polygon fill="#e0e0e0" stroke="#999999" points="813,-74 760,-74 760,-55 813,-55 813,-74"/>
<text text-anchor="middle" x="786.5" y="-62" font-family="Helvetica,sans-Serif" font-size="10.00">string.h</text>
</a>
</g>
</g>
<!-- Node15&#45;&gt;Node16 -->
<g id="edge19_Node000015_Node000016" class="edge">
<title>Node15&#45;&gt;Node16</title>
<g id="a_edge19_Node000015_Node000016"><a xlink:title=" ">
<path fill="none" stroke="#63b8ff" d="M777.32,-109.75C778.76,-102.8 780.82,-92.85 782.63,-84.13"/>
<polygon fill="#63b8ff" stroke="#63b8ff" points="786.11,-84.59 784.72,-74.09 779.26,-83.17 786.11,-84.59"/>
</a>
</g>
</g>
<!-- Node17 -->
<g id="Node000017" class="node">
<title>Node17</title>
<g id="a_Node000017"><a xlink:title=" ">
<polygon fill="#e0e0e0" stroke="#999999" points="887.5,-74 831.5,-74 831.5,-55 887.5,-55 887.5,-74"/>
<text text-anchor="middle" x="859.5" y="-62" font-family="Helvetica,sans-Serif" font-size="10.00">stdarg.h</text>
</a>
</g>
</g>
<!-- Node15&#45;&gt;Node17 -->
<g id="edge20_Node000015_Node000017" class="edge">
<title>Node15&#45;&gt;Node17</title>
<g id="a_edge20_Node000015_Node000017"><a xlink:title=" ">
<path fill="none" stroke="#63b8ff" d="M789,-109.98C801.9,-101.84 821.6,-89.41 836.9,-79.76"/>
<polygon fill="#63b8ff" stroke="#63b8ff" points="839.17,-82.47 845.76,-74.17 835.43,-76.55 839.17,-82.47"/>
</a>
</g>
</g>
</g>
</svg>
