<?xml version="1.0" encoding="UTF-8" standalone="no"?>
<!DOCTYPE svg PUBLIC "-//W3C//DTD SVG 1.1//EN"
 "http://www.w3.org/Graphics/SVG/1.1/DTD/svg11.dtd">
<!-- Generated by graphviz version 2.43.0 (0)
 -->
<!-- Title: eel&#45;editable&#45;label.c Pages: 1 -->
<svg width="1404pt" height="192pt"
 viewBox="0.00 0.00 1403.50 192.00" xmlns="http://www.w3.org/2000/svg" xmlns:xlink="http://www.w3.org/1999/xlink">
<g id="graph0" class="graph" transform="scale(1 1) rotate(0) translate(4 188)">
<title>eel&#45;editable&#45;label.c</title>
<!-- Node1 -->
<g id="Node000001" class="node">
<title>Node1</title>
<g id="a_Node000001"><a xlink:title=" ">
<polygon fill="#999999" stroke="#666666" points="671,-184 560,-184 560,-165 671,-165 671,-184"/>
<text text-anchor="middle" x="615.5" y="-172" font-family="Helvetica,sans-Serif" font-size="10.00">eel&#45;editable&#45;label.c</text>
</a>
</g>
</g>
<!-- Node2 -->
<g id="Node000002" class="node">
<title>Node2</title>
<g id="a_Node000002"><a xlink:title=" ">
<polygon fill="#e0e0e0" stroke="#999999" points="55,-129 0,-129 0,-110 55,-110 55,-129"/>
<text text-anchor="middle" x="27.5" y="-117" font-family="Helvetica,sans-Serif" font-size="10.00">config.h</text>
</a>
</g>
</g>
<!-- Node1&#45;&gt;Node2 -->
<g id="edge1_Node000001_Node000002" class="edge">
<title>Node1&#45;&gt;Node2</title>
<g id="a_edge1_Node000001_Node000002"><a xlink:title=" ">
<path fill="none" stroke="#63b8ff" d="M559.94,-171.8C461.8,-168.2 251.28,-157.75 65.29,-129.07"/>
<polygon fill="#63b8ff" stroke="#63b8ff" points="65.75,-125.6 55.33,-127.51 64.66,-132.51 65.75,-125.6"/>
</a>
</g>
</g>
<!-- Node3 -->
<g id="Node000003" class="node">
<title>Node3</title>
<g id="a_Node000003"><a xlink:title=" ">
<polygon fill="#e0e0e0" stroke="#999999" points="124,-129 73,-129 73,-110 124,-110 124,-129"/>
<text text-anchor="middle" x="98.5" y="-117" font-family="Helvetica,sans-Serif" font-size="10.00">math.h</text>
</a>
</g>
</g>
<!-- Node1&#45;&gt;Node3 -->
<g id="edge2_Node000001_Node000003" class="edge">
<title>Node1&#45;&gt;Node3</title>
<g id="a_edge2_Node000001_Node000003"><a xlink:title=" ">
<path fill="none" stroke="#63b8ff" d="M559.73,-171.14C471.28,-166.78 293.36,-155.55 134.01,-129.02"/>
<polygon fill="#63b8ff" stroke="#63b8ff" points="134.47,-125.54 124.03,-127.33 133.31,-132.45 134.47,-125.54"/>
</a>
</g>
</g>
<!-- Node4 -->
<g id="Node000004" class="node">
<title>Node4</title>
<g id="a_Node000004"><a xlink:title=" ">
<polygon fill="#e0e0e0" stroke="#999999" points="195,-129 142,-129 142,-110 195,-110 195,-129"/>
<text text-anchor="middle" x="168.5" y="-117" font-family="Helvetica,sans-Serif" font-size="10.00">string.h</text>
</a>
</g>
</g>
<!-- Node1&#45;&gt;Node4 -->
<g id="edge3_Node000001_Node000004" class="edge">
<title>Node1&#45;&gt;Node4</title>
<g id="a_edge3_Node000001_Node000004"><a xlink:title=" ">
<path fill="none" stroke="#63b8ff" d="M559.69,-169.66C482.29,-163.86 337.86,-151.26 205.1,-128.88"/>
<polygon fill="#63b8ff" stroke="#63b8ff" points="205.61,-125.42 195.16,-127.18 204.43,-132.32 205.61,-125.42"/>
</a>
</g>
</g>
<!-- Node5 -->
<g id="Node000005" class="node">
<title>Node5</title>
<g id="a_Node000005"><a xlink:href="eel-editable-label_8h.html" target="_top" xlink:title=" ">
<polygon fill="white" stroke="#666666" points="325.5,-129 213.5,-129 213.5,-110 325.5,-110 325.5,-129"/>
<text text-anchor="middle" x="269.5" y="-117" font-family="Helvetica,sans-Serif" font-size="10.00">eel&#45;editable&#45;label.h</text>
</a>
</g>
</g>
<!-- Node1&#45;&gt;Node5 -->
<g id="edge4_Node000001_Node000005" class="edge">
<title>Node1&#45;&gt;Node5</title>
<g id="a_edge4_Node000001_Node000005"><a xlink:title=" ">
<path fill="none" stroke="#63b8ff" d="M559.91,-164.98C498.71,-155.61 400.4,-140.55 335.38,-130.59"/>
<polygon fill="#63b8ff" stroke="#63b8ff" points="335.65,-127.09 325.24,-129.04 334.59,-134.01 335.65,-127.09"/>
</a>
</g>
</g>
<!-- Node7 -->
<g id="Node000007" class="node">
<title>Node7</title>
<g id="a_Node000007"><a xlink:title=" ">
<polygon fill="#e0e0e0" stroke="#999999" points="501.5,-74 441.5,-74 441.5,-55 501.5,-55 501.5,-74"/>
<text text-anchor="middle" x="471.5" y="-62" font-family="Helvetica,sans-Serif" font-size="10.00">gtk/gtk.h</text>
</a>
</g>
</g>
<!-- Node1&#45;&gt;Node7 -->
<g id="edge23_Node000001_Node000007" class="edge">
<title>Node1&#45;&gt;Node7</title>
<g id="a_edge23_Node000001_Node000007"><a xlink:title=" ">
<path fill="none" stroke="#63b8ff" d="M579.84,-164.98C557.37,-158.19 528.87,-146.82 508.5,-129 494.42,-116.68 484.33,-97.64 478.28,-83.62"/>
<polygon fill="#63b8ff" stroke="#63b8ff" points="481.42,-82.05 474.44,-74.08 474.92,-84.66 481.42,-82.05"/>
</a>
</g>
</g>
<!-- Node8 -->
<g id="Node000008" class="node">
<title>Node8</title>
<g id="a_Node000008"><a xlink:href="eel-marshal_8h.html" target="_top" xlink:title=" ">
<polygon fill="white" stroke="#666666" points="601.5,-129 517.5,-129 517.5,-110 601.5,-110 601.5,-129"/>
<text text-anchor="middle" x="559.5" y="-117" font-family="Helvetica,sans-Serif" font-size="10.00">eel&#45;marshal.h</text>
</a>
</g>
</g>
<!-- Node1&#45;&gt;Node8 -->
<g id="edge7_Node000001_Node000008" class="edge">
<title>Node1&#45;&gt;Node8</title>
<g id="a_edge7_Node000001_Node000008"><a xlink:title=" ">
<path fill="none" stroke="#63b8ff" d="M606.5,-164.98C598.31,-157.23 585.99,-145.58 576.03,-136.14"/>
<polygon fill="#63b8ff" stroke="#63b8ff" points="578.33,-133.5 568.66,-129.17 573.52,-138.59 578.33,-133.5"/>
</a>
</g>
</g>
<!-- Node10 -->
<g id="Node000010" class="node">
<title>Node10</title>
<g id="a_Node000010"><a xlink:href="eel-accessibility_8h.html" target="_top" xlink:title=" ">
<polygon fill="white" stroke="#666666" points="723.5,-129 619.5,-129 619.5,-110 723.5,-110 723.5,-129"/>
<text text-anchor="middle" x="671.5" y="-117" font-family="Helvetica,sans-Serif" font-size="10.00">eel&#45;accessibility.h</text>
</a>
</g>
</g>
<!-- Node1&#45;&gt;Node10 -->
<g id="edge9_Node000001_Node000010" class="edge">
<title>Node1&#45;&gt;Node10</title>
<g id="a_edge9_Node000001_Node000010"><a xlink:title=" ">
<path fill="none" stroke="#63b8ff" d="M624.5,-164.98C632.69,-157.23 645.01,-145.58 654.97,-136.14"/>
<polygon fill="#63b8ff" stroke="#63b8ff" points="657.48,-138.59 662.34,-129.17 652.67,-133.5 657.48,-138.59"/>
</a>
</g>
</g>
<!-- Node15 -->
<g id="Node000015" class="node">
<title>Node15</title>
<g id="a_Node000015"><a xlink:href="eel-gtk-extensions_8h.html" target="_top" xlink:title=" ">
<polygon fill="white" stroke="#666666" points="461,-129 344,-129 344,-110 461,-110 461,-129"/>
<text text-anchor="middle" x="402.5" y="-117" font-family="Helvetica,sans-Serif" font-size="10.00">eel&#45;gtk&#45;extensions.h</text>
</a>
</g>
</g>
<!-- Node1&#45;&gt;Node15 -->
<g id="edge16_Node000001_Node000015" class="edge">
<title>Node1&#45;&gt;Node15</title>
<g id="a_edge16_Node000001_Node000015"><a xlink:title=" ">
<path fill="none" stroke="#63b8ff" d="M581.28,-164.98C544.74,-155.89 486.72,-141.46 446.74,-131.51"/>
<polygon fill="#63b8ff" stroke="#63b8ff" points="447.54,-128.1 436.99,-129.08 445.85,-134.89 447.54,-128.1"/>
</a>
</g>
</g>
<!-- Node17 -->
<g id="Node000017" class="node">
<title>Node17</title>
<g id="a_Node000017"><a xlink:title=" ">
<polygon fill="#e0e0e0" stroke="#999999" points="861,-129 742,-129 742,-110 861,-110 861,-129"/>
<text text-anchor="middle" x="801.5" y="-117" font-family="Helvetica,sans-Serif" font-size="10.00">libgail&#45;util/gailmisc.h</text>
</a>
</g>
</g>
<!-- Node1&#45;&gt;Node17 -->
<g id="edge20_Node000001_Node000017" class="edge">
<title>Node1&#45;&gt;Node17</title>
<g id="a_edge20_Node000001_Node000017"><a xlink:title=" ">
<path fill="none" stroke="#63b8ff" d="M645.38,-164.98C676.88,-156.01 726.67,-141.82 761.53,-131.89"/>
<polygon fill="#63b8ff" stroke="#63b8ff" points="762.72,-135.19 771.38,-129.08 760.81,-128.46 762.72,-135.19"/>
</a>
</g>
</g>
<!-- Node18 -->
<g id="Node000018" class="node">
<title>Node18</title>
<g id="a_Node000018"><a xlink:title=" ">
<polygon fill="#e0e0e0" stroke="#999999" points="968,-129 879,-129 879,-110 968,-110 968,-129"/>
<text text-anchor="middle" x="923.5" y="-117" font-family="Helvetica,sans-Serif" font-size="10.00">glib/gi18n&#45;lib.h</text>
</a>
</g>
</g>
<!-- Node1&#45;&gt;Node18 -->
<g id="edge21_Node000001_Node000018" class="edge">
<title>Node1&#45;&gt;Node18</title>
<g id="a_edge21_Node000001_Node000018"><a xlink:title=" ">
<path fill="none" stroke="#63b8ff" d="M664.99,-164.98C720.65,-155.41 810.81,-139.89 868.6,-129.95"/>
<polygon fill="#63b8ff" stroke="#63b8ff" points="869.38,-133.36 878.64,-128.22 868.2,-126.47 869.38,-133.36"/>
</a>
</g>
</g>
<!-- Node19 -->
<g id="Node000019" class="node">
<title>Node19</title>
<g id="a_Node000019"><a xlink:title=" ">
<polygon fill="#e0e0e0" stroke="#999999" points="1075,-129 986,-129 986,-110 1075,-110 1075,-129"/>
<text text-anchor="middle" x="1030.5" y="-117" font-family="Helvetica,sans-Serif" font-size="10.00">pango/pango.h</text>
</a>
</g>
</g>
<!-- Node1&#45;&gt;Node19 -->
<g id="edge22_Node000001_Node000019" class="edge">
<title>Node1&#45;&gt;Node19</title>
<g id="a_edge22_Node000001_Node000019"><a xlink:title=" ">
<path fill="none" stroke="#63b8ff" d="M671.09,-167.31C740.2,-159.47 862.05,-145.18 976.04,-129.16"/>
<polygon fill="#63b8ff" stroke="#63b8ff" points="976.57,-132.62 985.98,-127.76 975.59,-125.69 976.57,-132.62"/>
</a>
</g>
</g>
<!-- Node20 -->
<g id="Node000020" class="node">
<title>Node20</title>
<g id="a_Node000020"><a xlink:title=" ">
<polygon fill="#e0e0e0" stroke="#999999" points="1179.5,-129 1093.5,-129 1093.5,-110 1179.5,-110 1179.5,-129"/>
<text text-anchor="middle" x="1136.5" y="-117" font-family="Helvetica,sans-Serif" font-size="10.00">gtk/gtk&#45;a11y.h</text>
</a>
</g>
</g>
<!-- Node1&#45;&gt;Node20 -->
<g id="edge24_Node000001_Node000020" class="edge">
<title>Node1&#45;&gt;Node20</title>
<g id="a_edge24_Node000001_Node000020"><a xlink:title=" ">
<path fill="none" stroke="#63b8ff" d="M671.23,-169.44C757.33,-162.89 928.11,-148.83 1083.21,-129.08"/>
<polygon fill="#63b8ff" stroke="#63b8ff" points="1083.93,-132.52 1093.4,-127.77 1083.04,-125.58 1083.93,-132.52"/>
</a>
</g>
</g>
<!-- Node21 -->
<g id="Node000021" class="node">
<title>Node21</title>
<g id="a_Node000021"><a xlink:title=" ">
<polygon fill="#e0e0e0" stroke="#999999" points="1269,-129 1198,-129 1198,-110 1269,-110 1269,-129"/>
<text text-anchor="middle" x="1233.5" y="-117" font-family="Helvetica,sans-Serif" font-size="10.00">gdk/gdkx.h</text>
</a>
</g>
</g>
<!-- Node1&#45;&gt;Node21 -->
<g id="edge25_Node000001_Node000021" class="edge">
<title>Node1&#45;&gt;Node21</title>
<g id="a_edge25_Node000001_Node000021"><a xlink:title=" ">
<path fill="none" stroke="#63b8ff" d="M671.02,-171.21C771.85,-166.6 991.9,-154.52 1187.51,-128.97"/>
<polygon fill="#63b8ff" stroke="#63b8ff" points="1188.24,-132.41 1197.7,-127.63 1187.32,-125.47 1188.24,-132.41"/>
</a>
</g>
</g>
<!-- Node22 -->
<g id="Node000022" class="node">
<title>Node22</title>
<g id="a_Node000022"><a xlink:title=" ">
<polygon fill="#e0e0e0" stroke="#999999" points="1395.5,-129 1287.5,-129 1287.5,-110 1395.5,-110 1395.5,-129"/>
<text text-anchor="middle" x="1341.5" y="-117" font-family="Helvetica,sans-Serif" font-size="10.00">gdk/gdkkeysyms.h</text>
</a>
</g>
</g>
<!-- Node1&#45;&gt;Node22 -->
<g id="edge26_Node000001_Node000022" class="edge">
<title>Node1&#45;&gt;Node22</title>
<g id="a_edge26_Node000001_Node000022"><a xlink:title=" ">
<path fill="none" stroke="#63b8ff" d="M671.05,-171.03C783.42,-165.77 1045.98,-152.08 1276.95,-129.09"/>
<polygon fill="#63b8ff" stroke="#63b8ff" points="1277.63,-132.54 1287.23,-128.06 1276.93,-125.57 1277.63,-132.54"/>
</a>
</g>
</g>
<!-- Node6 -->
<g id="Node000006" class="node">
<title>Node6</title>
<g id="a_Node000006"><a xlink:title=" ">
<polygon fill="#e0e0e0" stroke="#999999" points="349,-19 284,-19 284,0 349,0 349,-19"/>
<text text-anchor="middle" x="316.5" y="-7" font-family="Helvetica,sans-Serif" font-size="10.00">gdk/gdk.h</text>
</a>
</g>
</g>
<!-- Node5&#45;&gt;Node6 -->
<g id="edge5_Node000005_Node000006" class="edge">
<title>Node5&#45;&gt;Node6</title>
<g id="a_edge5_Node000005_Node000006"><a xlink:title=" ">
<path fill="none" stroke="#63b8ff" d="M272.45,-109.74C276.69,-97.38 284.96,-74.16 293.5,-55 297.53,-45.96 302.52,-36.17 306.82,-28.08"/>
<polygon fill="#63b8ff" stroke="#63b8ff" points="309.93,-29.68 311.61,-19.22 303.78,-26.35 309.93,-29.68"/>
</a>
</g>
</g>
<!-- Node5&#45;&gt;Node7 -->
<g id="edge6_Node000005_Node000007" class="edge">
<title>Node5&#45;&gt;Node7</title>
<g id="a_edge6_Node000005_Node000007"><a xlink:title=" ">
<path fill="none" stroke="#63b8ff" d="M301.95,-109.98C337.27,-100.72 393.77,-85.89 431.73,-75.93"/>
<polygon fill="#63b8ff" stroke="#63b8ff" points="432.65,-79.31 441.43,-73.39 430.87,-72.54 432.65,-79.31"/>
</a>
</g>
</g>
<!-- Node9 -->
<g id="Node000009" class="node">
<title>Node9</title>
<g id="a_Node000009"><a xlink:title=" ">
<polygon fill="#e0e0e0" stroke="#999999" points="597,-74 520,-74 520,-55 597,-55 597,-74"/>
<text text-anchor="middle" x="558.5" y="-62" font-family="Helvetica,sans-Serif" font-size="10.00">glib&#45;object.h</text>
</a>
</g>
</g>
<!-- Node8&#45;&gt;Node9 -->
<g id="edge8_Node000008_Node000009" class="edge">
<title>Node8&#45;&gt;Node9</title>
<g id="a_edge8_Node000008_Node000009"><a xlink:title=" ">
<path fill="none" stroke="#63b8ff" d="M559.33,-109.75C559.2,-102.8 559.02,-92.85 558.85,-84.13"/>
<polygon fill="#63b8ff" stroke="#63b8ff" points="562.35,-84.02 558.66,-74.09 555.35,-84.15 562.35,-84.02"/>
</a>
</g>
</g>
<!-- Node10&#45;&gt;Node7 -->
<g id="edge14_Node000010_Node000007" class="edge">
<title>Node10&#45;&gt;Node7</title>
<g id="a_edge14_Node000010_Node000007"><a xlink:title=" ">
<path fill="none" stroke="#63b8ff" d="M639.37,-109.98C604.65,-100.78 549.26,-86.11 511.68,-76.15"/>
<polygon fill="#63b8ff" stroke="#63b8ff" points="512.15,-72.65 501.59,-73.47 510.36,-79.42 512.15,-72.65"/>
</a>
</g>
</g>
<!-- Node10&#45;&gt;Node9 -->
<g id="edge10_Node000010_Node000009" class="edge">
<title>Node10&#45;&gt;Node9</title>
<g id="a_edge10_Node000010_Node000009"><a xlink:title=" ">
<path fill="none" stroke="#63b8ff" d="M653.34,-109.98C635.25,-101.5 607.22,-88.35 586.31,-78.54"/>
<polygon fill="#63b8ff" stroke="#63b8ff" points="587.53,-75.25 576.99,-74.17 584.55,-81.59 587.53,-75.25"/>
</a>
</g>
</g>
<!-- Node11 -->
<g id="Node000011" class="node">
<title>Node11</title>
<g id="a_Node000011"><a xlink:title=" ">
<polygon fill="#e0e0e0" stroke="#999999" points="704,-74 615,-74 615,-55 704,-55 704,-74"/>
<text text-anchor="middle" x="659.5" y="-62" font-family="Helvetica,sans-Serif" font-size="10.00">atk/atkobject.h</text>
</a>
</g>
</g>
<!-- Node10&#45;&gt;Node11 -->
<g id="edge11_Node000010_Node000011" class="edge">
<title>Node10&#45;&gt;Node11</title>
<g id="a_edge11_Node000010_Node000011"><a xlink:title=" ">
<path fill="none" stroke="#63b8ff" d="M669.52,-109.75C667.93,-102.72 665.64,-92.62 663.65,-83.84"/>
<polygon fill="#63b8ff" stroke="#63b8ff" points="667.07,-83.07 661.44,-74.09 660.24,-84.62 667.07,-83.07"/>
</a>
</g>
</g>
<!-- Node12 -->
<g id="Node000012" class="node">
<title>Node12</title>
<g id="a_Node000012"><a xlink:title=" ">
<polygon fill="#e0e0e0" stroke="#999999" points="818.5,-74 722.5,-74 722.5,-55 818.5,-55 818.5,-74"/>
<text text-anchor="middle" x="770.5" y="-62" font-family="Helvetica,sans-Serif" font-size="10.00">atk/atkregistry.h</text>
</a>
</g>
</g>
<!-- Node10&#45;&gt;Node12 -->
<g id="edge12_Node000010_Node000012" class="edge">
<title>Node10&#45;&gt;Node12</title>
<g id="a_edge12_Node000010_Node000012"><a xlink:title=" ">
<path fill="none" stroke="#63b8ff" d="M687.41,-109.98C703.05,-101.61 727.16,-88.7 745.38,-78.95"/>
<polygon fill="#63b8ff" stroke="#63b8ff" points="747.14,-81.98 754.3,-74.17 743.84,-75.8 747.14,-81.98"/>
</a>
</g>
</g>
<!-- Node13 -->
<g id="Node000013" class="node">
<title>Node13</title>
<g id="a_Node000013"><a xlink:title=" ">
<polygon fill="#e0e0e0" stroke="#999999" points="958.5,-74 836.5,-74 836.5,-55 958.5,-55 958.5,-74"/>
<text text-anchor="middle" x="897.5" y="-62" font-family="Helvetica,sans-Serif" font-size="10.00">atk/atkobjectfactory.h</text>
</a>
</g>
</g>
<!-- Node10&#45;&gt;Node13 -->
<g id="edge13_Node000010_Node000013" class="edge">
<title>Node10&#45;&gt;Node13</title>
<g id="a_edge13_Node000010_Node000013"><a xlink:title=" ">
<path fill="none" stroke="#63b8ff" d="M707.81,-109.98C746.74,-100.86 808.66,-86.33 851.1,-76.38"/>
<polygon fill="#63b8ff" stroke="#63b8ff" points="851.97,-79.77 860.9,-74.08 850.37,-72.96 851.97,-79.77"/>
</a>
</g>
</g>
<!-- Node14 -->
<g id="Node000014" class="node">
<title>Node14</title>
<g id="a_Node000014"><a xlink:title=" ">
<polygon fill="#e0e0e0" stroke="#999999" points="1108,-74 977,-74 977,-55 1108,-55 1108,-74"/>
<text text-anchor="middle" x="1042.5" y="-62" font-family="Helvetica,sans-Serif" font-size="10.00">libgail&#45;util/gailtextutil.h</text>
</a>
</g>
</g>
<!-- Node10&#45;&gt;Node14 -->
<g id="edge15_Node000010_Node000014" class="edge">
<title>Node10&#45;&gt;Node14</title>
<g id="a_edge15_Node000010_Node000014"><a xlink:title=" ">
<path fill="none" stroke="#63b8ff" d="M723.87,-111.02C789.02,-101.71 900.46,-85.79 972.79,-75.46"/>
<polygon fill="#63b8ff" stroke="#63b8ff" points="973.32,-78.92 982.72,-74.04 972.33,-71.99 973.32,-78.92"/>
</a>
</g>
</g>
<!-- Node15&#45;&gt;Node7 -->
<g id="edge17_Node000015_Node000007" class="edge">
<title>Node15&#45;&gt;Node7</title>
<g id="a_edge17_Node000015_Node000007"><a xlink:title=" ">
<path fill="none" stroke="#63b8ff" d="M413.59,-109.98C423.99,-102 439.76,-89.88 452.22,-80.31"/>
<polygon fill="#63b8ff" stroke="#63b8ff" points="454.41,-83.04 460.21,-74.17 450.15,-77.49 454.41,-83.04"/>
</a>
</g>
</g>
<!-- Node16 -->
<g id="Node000016" class="node">
<title>Node16</title>
<g id="a_Node000016"><a xlink:href="eel-gdk-extensions_8h.html" target="_top" xlink:title=" ">
<polygon fill="white" stroke="#666666" points="422,-74 303,-74 303,-55 422,-55 422,-74"/>
<text text-anchor="middle" x="362.5" y="-62" font-family="Helvetica,sans-Serif" font-size="10.00">eel&#45;gdk&#45;extensions.h</text>
</a>
</g>
</g>
<!-- Node15&#45;&gt;Node16 -->
<g id="edge18_Node000015_Node000016" class="edge">
<title>Node15&#45;&gt;Node16</title>
<g id="a_edge18_Node000015_Node000016"><a xlink:title=" ">
<path fill="none" stroke="#63b8ff" d="M395.89,-109.75C390.24,-102.26 381.96,-91.28 375.05,-82.13"/>
<polygon fill="#63b8ff" stroke="#63b8ff" points="377.8,-79.96 368.98,-74.09 372.21,-84.18 377.8,-79.96"/>
</a>
</g>
</g>
<!-- Node16&#45;&gt;Node6 -->
<g id="edge19_Node000016_Node000006" class="edge">
<title>Node16&#45;&gt;Node6</title>
<g id="a_edge19_Node000016_Node000006"><a xlink:title=" ">
<path fill="none" stroke="#63b8ff" d="M354.9,-54.75C348.34,-47.18 338.68,-36.05 330.69,-26.84"/>
<polygon fill="#63b8ff" stroke="#63b8ff" points="333.15,-24.35 323.95,-19.09 327.87,-28.94 333.15,-24.35"/>
</a>
</g>
</g>
</g>
</svg>
