<?xml version="1.0" encoding="UTF-8" standalone="no"?>
<!DOCTYPE svg PUBLIC "-//W3C//DTD SVG 1.1//EN"
 "http://www.w3.org/Graphics/SVG/1.1/DTD/svg11.dtd">
<!-- Generated by graphviz version 2.43.0 (0)
 -->
<!-- Title: eggtypebuiltins.c Pages: 1 -->
<svg width="393pt" height="137pt"
 viewBox="0.00 0.00 393.00 137.00" xmlns="http://www.w3.org/2000/svg" xmlns:xlink="http://www.w3.org/1999/xlink">
<g id="graph0" class="graph" transform="scale(1 1) rotate(0) translate(4 133)">
<title>eggtypebuiltins.c</title>
<!-- Node1 -->
<g id="Node000001" class="node">
<title>Node1</title>
<g id="a_Node000001"><a xlink:title=" ">
<polygon fill="#999999" stroke="#666666" points="174,-129 73,-129 73,-110 174,-110 174,-129"/>
<text text-anchor="middle" x="123.5" y="-117" font-family="Helvetica,sans-Serif" font-size="10.00">eggtypebuiltins.c</text>
</a>
</g>
</g>
<!-- Node2 -->
<g id="Node000002" class="node">
<title>Node2</title>
<g id="a_Node000002"><a xlink:title=" ">
<polygon fill="#e0e0e0" stroke="#999999" points="55,-74 0,-74 0,-55 55,-55 55,-74"/>
<text text-anchor="middle" x="27.5" y="-62" font-family="Helvetica,sans-Serif" font-size="10.00">config.h</text>
</a>
</g>
</g>
<!-- Node1&#45;&gt;Node2 -->
<g id="edge1_Node000001_Node000002" class="edge">
<title>Node1&#45;&gt;Node2</title>
<g id="a_edge1_Node000001_Node000002"><a xlink:title=" ">
<path fill="none" stroke="#63b8ff" d="M108.08,-109.98C93.05,-101.69 69.96,-88.94 52.34,-79.22"/>
<polygon fill="#63b8ff" stroke="#63b8ff" points="53.65,-75.94 43.2,-74.17 50.27,-82.07 53.65,-75.94"/>
</a>
</g>
</g>
<!-- Node3 -->
<g id="Node000003" class="node">
<title>Node3</title>
<g id="a_Node000003"><a xlink:href="eggtypebuiltins_8h.html" target="_top" xlink:title=" ">
<polygon fill="white" stroke="#666666" points="174,-74 73,-74 73,-55 174,-55 174,-74"/>
<text text-anchor="middle" x="123.5" y="-62" font-family="Helvetica,sans-Serif" font-size="10.00">eggtypebuiltins.h</text>
</a>
</g>
</g>
<!-- Node1&#45;&gt;Node3 -->
<g id="edge2_Node000001_Node000003" class="edge">
<title>Node1&#45;&gt;Node3</title>
<g id="a_edge2_Node000001_Node000003"><a xlink:title=" ">
<path fill="none" stroke="#63b8ff" d="M123.5,-109.75C123.5,-102.8 123.5,-92.85 123.5,-84.13"/>
<polygon fill="#63b8ff" stroke="#63b8ff" points="127,-84.09 123.5,-74.09 120,-84.09 127,-84.09"/>
</a>
</g>
</g>
<!-- Node5 -->
<g id="Node000005" class="node">
<title>Node5</title>
<g id="a_Node000005"><a xlink:href="atril_2cut-n-paste_2toolbar-editor_2egg-toolbars-model_8h.html" target="_top" xlink:title=" ">
<polygon fill="white" stroke="#666666" points="314.5,-74 192.5,-74 192.5,-55 314.5,-55 314.5,-74"/>
<text text-anchor="middle" x="253.5" y="-62" font-family="Helvetica,sans-Serif" font-size="10.00">egg&#45;toolbars&#45;model.h</text>
</a>
</g>
</g>
<!-- Node1&#45;&gt;Node5 -->
<g id="edge4_Node000001_Node000005" class="edge">
<title>Node1&#45;&gt;Node5</title>
<g id="a_edge4_Node000001_Node000005"><a xlink:title=" ">
<path fill="none" stroke="#63b8ff" d="M144.39,-109.98C165.58,-101.34 198.63,-87.87 222.8,-78.02"/>
<polygon fill="#63b8ff" stroke="#63b8ff" points="224.29,-81.19 232.23,-74.17 221.65,-74.7 224.29,-81.19"/>
</a>
</g>
</g>
<!-- Node4 -->
<g id="Node000004" class="node">
<title>Node4</title>
<g id="a_Node000004"><a xlink:title=" ">
<polygon fill="#e0e0e0" stroke="#999999" points="162,-19 85,-19 85,0 162,0 162,-19"/>
<text text-anchor="middle" x="123.5" y="-7" font-family="Helvetica,sans-Serif" font-size="10.00">glib&#45;object.h</text>
</a>
</g>
</g>
<!-- Node3&#45;&gt;Node4 -->
<g id="edge3_Node000003_Node000004" class="edge">
<title>Node3&#45;&gt;Node4</title>
<g id="a_edge3_Node000003_Node000004"><a xlink:title=" ">
<path fill="none" stroke="#63b8ff" d="M123.5,-54.75C123.5,-47.8 123.5,-37.85 123.5,-29.13"/>
<polygon fill="#63b8ff" stroke="#63b8ff" points="127,-29.09 123.5,-19.09 120,-29.09 127,-29.09"/>
</a>
</g>
</g>
<!-- Node5&#45;&gt;Node4 -->
<g id="edge6_Node000005_Node000004" class="edge">
<title>Node5&#45;&gt;Node4</title>
<g id="a_edge6_Node000005_Node000004"><a xlink:title=" ">
<path fill="none" stroke="#63b8ff" d="M232.61,-54.98C211.42,-46.34 178.37,-32.87 154.2,-23.02"/>
<polygon fill="#63b8ff" stroke="#63b8ff" points="155.35,-19.7 144.77,-19.17 152.71,-26.19 155.35,-19.7"/>
</a>
</g>
</g>
<!-- Node6 -->
<g id="Node000006" class="node">
<title>Node6</title>
<g id="a_Node000006"><a xlink:title=" ">
<polygon fill="#e0e0e0" stroke="#999999" points="224.5,-19 180.5,-19 180.5,0 224.5,0 224.5,-19"/>
<text text-anchor="middle" x="202.5" y="-7" font-family="Helvetica,sans-Serif" font-size="10.00">glib.h</text>
</a>
</g>
</g>
<!-- Node5&#45;&gt;Node6 -->
<g id="edge5_Node000005_Node000006" class="edge">
<title>Node5&#45;&gt;Node6</title>
<g id="a_edge5_Node000005_Node000006"><a xlink:title=" ">
<path fill="none" stroke="#63b8ff" d="M245.08,-54.75C237.73,-47.11 226.87,-35.82 217.96,-26.56"/>
<polygon fill="#63b8ff" stroke="#63b8ff" points="220.22,-23.87 210.76,-19.09 215.18,-28.72 220.22,-23.87"/>
</a>
</g>
</g>
<!-- Node7 -->
<g id="Node000007" class="node">
<title>Node7</title>
<g id="a_Node000007"><a xlink:title=" ">
<polygon fill="#e0e0e0" stroke="#999999" points="302,-19 243,-19 243,0 302,0 302,-19"/>
<text text-anchor="middle" x="272.5" y="-7" font-family="Helvetica,sans-Serif" font-size="10.00">gio/gio.h</text>
</a>
</g>
</g>
<!-- Node5&#45;&gt;Node7 -->
<g id="edge7_Node000005_Node000007" class="edge">
<title>Node5&#45;&gt;Node7</title>
<g id="a_edge7_Node000005_Node000007"><a xlink:title=" ">
<path fill="none" stroke="#63b8ff" d="M256.64,-54.75C259.18,-47.65 262.86,-37.4 266.03,-28.56"/>
<polygon fill="#63b8ff" stroke="#63b8ff" points="269.34,-29.68 269.42,-19.09 262.75,-27.32 269.34,-29.68"/>
</a>
</g>
</g>
<!-- Node8 -->
<g id="Node000008" class="node">
<title>Node8</title>
<g id="a_Node000008"><a xlink:title=" ">
<polygon fill="#e0e0e0" stroke="#999999" points="385,-19 320,-19 320,0 385,0 385,-19"/>
<text text-anchor="middle" x="352.5" y="-7" font-family="Helvetica,sans-Serif" font-size="10.00">gdk/gdk.h</text>
</a>
</g>
</g>
<!-- Node5&#45;&gt;Node8 -->
<g id="edge8_Node000005_Node000008" class="edge">
<title>Node5&#45;&gt;Node8</title>
<g id="a_edge8_Node000005_Node000008"><a xlink:title=" ">
<path fill="none" stroke="#63b8ff" d="M269.41,-54.98C285.05,-46.61 309.16,-33.7 327.38,-23.95"/>
<polygon fill="#63b8ff" stroke="#63b8ff" points="329.14,-26.98 336.3,-19.17 325.84,-20.8 329.14,-26.98"/>
</a>
</g>
</g>
</g>
</svg>
