<?xml version="1.0" encoding="UTF-8" standalone="no"?>
<!DOCTYPE svg PUBLIC "-//W3C//DTD SVG 1.1//EN"
 "http://www.w3.org/Graphics/SVG/1.1/DTD/svg11.dtd">
<!-- Generated by graphviz version 2.43.0 (0)
 -->
<!-- Title: ev&#45;annotation&#45;window.c Pages: 1 -->
<svg width="802pt" height="357pt"
 viewBox="0.00 0.00 801.50 357.00" xmlns="http://www.w3.org/2000/svg" xmlns:xlink="http://www.w3.org/1999/xlink">
<g id="graph0" class="graph" transform="scale(1 1) rotate(0) translate(4 353)">
<title>ev&#45;annotation&#45;window.c</title>
<!-- Node1 -->
<g id="Node000001" class="node">
<title>Node1</title>
<g id="a_Node000001"><a xlink:title=" ">
<polygon fill="#999999" stroke="#666666" points="484,-349 350,-349 350,-330 484,-330 484,-349"/>
<text text-anchor="middle" x="417" y="-337" font-family="Helvetica,sans-Serif" font-size="10.00">ev&#45;annotation&#45;window.c</text>
</a>
</g>
</g>
<!-- Node2 -->
<g id="Node000002" class="node">
<title>Node2</title>
<g id="a_Node000002"><a xlink:title=" ">
<polygon fill="#e0e0e0" stroke="#999999" points="197.5,-294 142.5,-294 142.5,-275 197.5,-275 197.5,-294"/>
<text text-anchor="middle" x="170" y="-282" font-family="Helvetica,sans-Serif" font-size="10.00">config.h</text>
</a>
</g>
</g>
<!-- Node1&#45;&gt;Node2 -->
<g id="edge1_Node000001_Node000002" class="edge">
<title>Node1&#45;&gt;Node2</title>
<g id="a_edge1_Node000001_Node000002"><a xlink:title=" ">
<path fill="none" stroke="#63b8ff" d="M374.9,-329.93C334.35,-321.61 271.02,-308.43 207.31,-294.26"/>
<polygon fill="#63b8ff" stroke="#63b8ff" points="208.02,-290.83 197.5,-292.07 206.5,-297.66 208.02,-290.83"/>
</a>
</g>
</g>
<!-- Node3 -->
<g id="Node000003" class="node">
<title>Node3</title>
<g id="a_Node000003"><a xlink:title=" ">
<polygon fill="#e0e0e0" stroke="#999999" points="268.5,-294 215.5,-294 215.5,-275 268.5,-275 268.5,-294"/>
<text text-anchor="middle" x="242" y="-282" font-family="Helvetica,sans-Serif" font-size="10.00">string.h</text>
</a>
</g>
</g>
<!-- Node1&#45;&gt;Node3 -->
<g id="edge2_Node000001_Node000003" class="edge">
<title>Node1&#45;&gt;Node3</title>
<g id="a_edge2_Node000001_Node000003"><a xlink:title=" ">
<path fill="none" stroke="#63b8ff" d="M388.88,-329.98C358.85,-320.89 311.14,-306.44 278.29,-296.49"/>
<polygon fill="#63b8ff" stroke="#63b8ff" points="279.2,-293.11 268.61,-293.56 277.17,-299.81 279.2,-293.11"/>
</a>
</g>
</g>
<!-- Node4 -->
<g id="Node000004" class="node">
<title>Node4</title>
<g id="a_Node000004"><a xlink:href="ev-annotation-window_8h.html" target="_top" xlink:title=" ">
<polygon fill="white" stroke="#666666" points="556,-294 422,-294 422,-275 556,-275 556,-294"/>
<text text-anchor="middle" x="489" y="-282" font-family="Helvetica,sans-Serif" font-size="10.00">ev&#45;annotation&#45;window.h</text>
</a>
</g>
</g>
<!-- Node1&#45;&gt;Node4 -->
<g id="edge3_Node000001_Node000004" class="edge">
<title>Node1&#45;&gt;Node4</title>
<g id="a_edge3_Node000001_Node000004"><a xlink:title=" ">
<path fill="none" stroke="#63b8ff" d="M428.57,-329.98C439.42,-322 455.88,-309.88 468.88,-300.31"/>
<polygon fill="#63b8ff" stroke="#63b8ff" points="471.24,-302.92 477.22,-294.17 467.09,-297.28 471.24,-302.92"/>
</a>
</g>
</g>
<!-- Node19 -->
<g id="Node000019" class="node">
<title>Node19</title>
<g id="a_Node000019"><a xlink:href="ev-stock-icons_8h.html" target="_top" xlink:title=" ">
<polygon fill="white" stroke="#666666" points="690.5,-239 593.5,-239 593.5,-220 690.5,-220 690.5,-239"/>
<text text-anchor="middle" x="642" y="-227" font-family="Helvetica,sans-Serif" font-size="10.00">ev&#45;stock&#45;icons.h</text>
</a>
</g>
</g>
<!-- Node1&#45;&gt;Node19 -->
<g id="edge25_Node000001_Node000019" class="edge">
<title>Node1&#45;&gt;Node19</title>
<g id="a_edge25_Node000001_Node000019"><a xlink:title=" ">
<path fill="none" stroke="#63b8ff" d="M461.53,-329.98C491.89,-323.02 532.35,-311.45 565,-294 588.72,-281.32 611.99,-260.67 626.63,-246.37"/>
<polygon fill="#63b8ff" stroke="#63b8ff" points="629.23,-248.72 633.83,-239.18 624.28,-243.77 629.23,-248.72"/>
</a>
</g>
</g>
<!-- Node20 -->
<g id="Node000020" class="node">
<title>Node20</title>
<g id="a_Node000020"><a xlink:href="ev-view-marshal_8h.html" target="_top" xlink:title=" ">
<polygon fill="white" stroke="#666666" points="793.5,-74 686.5,-74 686.5,-55 793.5,-55 793.5,-74"/>
<text text-anchor="middle" x="740" y="-62" font-family="Helvetica,sans-Serif" font-size="10.00">ev&#45;view&#45;marshal.h</text>
</a>
</g>
</g>
<!-- Node1&#45;&gt;Node20 -->
<g id="edge27_Node000001_Node000020" class="edge">
<title>Node1&#45;&gt;Node20</title>
<g id="a_edge27_Node000001_Node000020"><a xlink:title=" ">
<path fill="none" stroke="#63b8ff" d="M483.53,-329.96C578.09,-315.93 740,-284.08 740,-230.5 740,-230.5 740,-230.5 740,-173.5 740,-142.19 740,-105.77 740,-84.23"/>
<polygon fill="#63b8ff" stroke="#63b8ff" points="743.5,-84.18 740,-74.18 736.5,-84.18 743.5,-84.18"/>
</a>
</g>
</g>
<!-- Node21 -->
<g id="Node000021" class="node">
<title>Node21</title>
<g id="a_Node000021"><a xlink:href="ev-document-misc_8h.html" target="_top" xlink:title=" ">
<polygon fill="white" stroke="#666666" points="403.5,-294 286.5,-294 286.5,-275 403.5,-275 403.5,-294"/>
<text text-anchor="middle" x="345" y="-282" font-family="Helvetica,sans-Serif" font-size="10.00">ev&#45;document&#45;misc.h</text>
</a>
</g>
</g>
<!-- Node1&#45;&gt;Node21 -->
<g id="edge29_Node000001_Node000021" class="edge">
<title>Node1&#45;&gt;Node21</title>
<g id="a_edge29_Node000001_Node000021"><a xlink:title=" ">
<path fill="none" stroke="#63b8ff" d="M405.43,-329.98C394.58,-322 378.12,-309.88 365.12,-300.31"/>
<polygon fill="#63b8ff" stroke="#63b8ff" points="366.91,-297.28 356.78,-294.17 362.76,-302.92 366.91,-297.28"/>
</a>
</g>
</g>
<!-- Node5 -->
<g id="Node000005" class="node">
<title>Node5</title>
<g id="a_Node000005"><a xlink:title=" ">
<polygon fill="#e0e0e0" stroke="#999999" points="408,-239 348,-239 348,-220 408,-220 408,-239"/>
<text text-anchor="middle" x="378" y="-227" font-family="Helvetica,sans-Serif" font-size="10.00">gtk/gtk.h</text>
</a>
</g>
</g>
<!-- Node4&#45;&gt;Node5 -->
<g id="edge4_Node000004_Node000005" class="edge">
<title>Node4&#45;&gt;Node5</title>
<g id="a_edge4_Node000004_Node000005"><a xlink:title=" ">
<path fill="none" stroke="#63b8ff" d="M471.17,-274.98C453.39,-266.5 425.85,-253.35 405.32,-243.54"/>
<polygon fill="#63b8ff" stroke="#63b8ff" points="406.69,-240.32 396.16,-239.17 403.67,-246.64 406.69,-240.32"/>
</a>
</g>
</g>
<!-- Node6 -->
<g id="Node000006" class="node">
<title>Node6</title>
<g id="a_Node000006"><a xlink:href="ev-annotation_8h.html" target="_top" xlink:title=" ">
<polygon fill="white" stroke="#666666" points="553,-239 459,-239 459,-220 553,-220 553,-239"/>
<text text-anchor="middle" x="506" y="-227" font-family="Helvetica,sans-Serif" font-size="10.00">ev&#45;annotation.h</text>
</a>
</g>
</g>
<!-- Node4&#45;&gt;Node6 -->
<g id="edge5_Node000004_Node000006" class="edge">
<title>Node4&#45;&gt;Node6</title>
<g id="a_edge5_Node000004_Node000006"><a xlink:title=" ">
<path fill="none" stroke="#63b8ff" d="M491.81,-274.75C494.06,-267.72 497.3,-257.62 500.12,-248.84"/>
<polygon fill="#63b8ff" stroke="#63b8ff" points="503.52,-249.68 503.25,-239.09 496.86,-247.54 503.52,-249.68"/>
</a>
</g>
</g>
<!-- Node7 -->
<g id="Node000007" class="node">
<title>Node7</title>
<g id="a_Node000007"><a xlink:title=" ">
<polygon fill="#e0e0e0" stroke="#999999" points="409.5,-19 332.5,-19 332.5,0 409.5,0 409.5,-19"/>
<text text-anchor="middle" x="371" y="-7" font-family="Helvetica,sans-Serif" font-size="10.00">glib&#45;object.h</text>
</a>
</g>
</g>
<!-- Node6&#45;&gt;Node7 -->
<g id="edge6_Node000006_Node000007" class="edge">
<title>Node6&#45;&gt;Node7</title>
<g id="a_edge6_Node000006_Node000007"><a xlink:title=" ">
<path fill="none" stroke="#63b8ff" d="M530.75,-219.92C577.74,-202.26 672.26,-159.32 638,-110 588.68,-38.99 482.26,-18.56 419.69,-12.75"/>
<polygon fill="#63b8ff" stroke="#63b8ff" points="419.92,-9.26 409.67,-11.91 419.34,-16.23 419.92,-9.26"/>
</a>
</g>
</g>
<!-- Node8 -->
<g id="Node000008" class="node">
<title>Node8</title>
<g id="a_Node000008"><a xlink:title=" ">
<polygon fill="#e0e0e0" stroke="#999999" points="711.5,-184 646.5,-184 646.5,-165 711.5,-165 711.5,-184"/>
<text text-anchor="middle" x="679" y="-172" font-family="Helvetica,sans-Serif" font-size="10.00">gdk/gdk.h</text>
</a>
</g>
</g>
<!-- Node6&#45;&gt;Node8 -->
<g id="edge7_Node000006_Node000008" class="edge">
<title>Node6&#45;&gt;Node8</title>
<g id="a_edge7_Node000006_Node000008"><a xlink:title=" ">
<path fill="none" stroke="#63b8ff" d="M533.8,-219.98C562.97,-211.05 609,-196.94 641.4,-187.02"/>
<polygon fill="#63b8ff" stroke="#63b8ff" points="642.45,-190.36 650.99,-184.08 640.4,-183.66 642.45,-190.36"/>
</a>
</g>
</g>
<!-- Node9 -->
<g id="Node000009" class="node">
<title>Node9</title>
<g id="a_Node000009"><a xlink:href="ev-document_8h.html" target="_top" xlink:title=" ">
<polygon fill="white" stroke="#666666" points="416,-184 326,-184 326,-165 416,-165 416,-184"/>
<text text-anchor="middle" x="371" y="-172" font-family="Helvetica,sans-Serif" font-size="10.00">ev&#45;document.h</text>
</a>
</g>
</g>
<!-- Node6&#45;&gt;Node9 -->
<g id="edge8_Node000006_Node000009" class="edge">
<title>Node6&#45;&gt;Node9</title>
<g id="a_edge8_Node000006_Node000009"><a xlink:title=" ">
<path fill="none" stroke="#63b8ff" d="M484.31,-219.98C462.2,-211.3 427.68,-197.75 402.55,-187.88"/>
<polygon fill="#63b8ff" stroke="#63b8ff" points="403.67,-184.57 393.08,-184.17 401.11,-191.08 403.67,-184.57"/>
</a>
</g>
</g>
<!-- Node16 -->
<g id="Node000016" class="node">
<title>Node16</title>
<g id="a_Node000016"><a xlink:href="ev-attachment_8h.html" target="_top" xlink:title=" ">
<polygon fill="white" stroke="#666666" points="590,-184 492,-184 492,-165 590,-165 590,-184"/>
<text text-anchor="middle" x="541" y="-172" font-family="Helvetica,sans-Serif" font-size="10.00">ev&#45;attachment.h</text>
</a>
</g>
</g>
<!-- Node6&#45;&gt;Node16 -->
<g id="edge21_Node000006_Node000016" class="edge">
<title>Node6&#45;&gt;Node16</title>
<g id="a_edge21_Node000006_Node000016"><a xlink:title=" ">
<path fill="none" stroke="#63b8ff" d="M511.78,-219.75C516.62,-212.42 523.68,-201.73 529.64,-192.7"/>
<polygon fill="#63b8ff" stroke="#63b8ff" points="532.74,-194.36 535.33,-184.09 526.9,-190.5 532.74,-194.36"/>
</a>
</g>
</g>
<!-- Node18 -->
<g id="Node000018" class="node">
<title>Node18</title>
<g id="a_Node000018"><a xlink:href="ev-macros_8h.html" target="_top" xlink:title=" ">
<polygon fill="white" stroke="#666666" points="307.5,-184 230.5,-184 230.5,-165 307.5,-165 307.5,-184"/>
<text text-anchor="middle" x="269" y="-172" font-family="Helvetica,sans-Serif" font-size="10.00">ev&#45;macros.h</text>
</a>
</g>
</g>
<!-- Node6&#45;&gt;Node18 -->
<g id="edge24_Node000006_Node000018" class="edge">
<title>Node6&#45;&gt;Node18</title>
<g id="a_edge24_Node000006_Node000018"><a xlink:title=" ">
<path fill="none" stroke="#63b8ff" d="M467.92,-219.98C427.01,-210.84 361.89,-196.27 317.38,-186.32"/>
<polygon fill="#63b8ff" stroke="#63b8ff" points="317.9,-182.85 307.38,-184.08 316.37,-189.68 317.9,-182.85"/>
</a>
</g>
</g>
<!-- Node9&#45;&gt;Node7 -->
<g id="edge9_Node000009_Node000007" class="edge">
<title>Node9&#45;&gt;Node7</title>
<g id="a_edge9_Node000009_Node000007"><a xlink:title=" ">
<path fill="none" stroke="#63b8ff" d="M348.28,-164.94C331.88,-157.69 310.36,-145.77 297,-129 275.91,-102.53 261.02,-83.68 279,-55 288.77,-39.42 305.71,-29.16 322.42,-22.47"/>
<polygon fill="#63b8ff" stroke="#63b8ff" points="323.96,-25.63 332.17,-18.93 321.57,-19.05 323.96,-25.63"/>
</a>
</g>
</g>
<!-- Node10 -->
<g id="Node000010" class="node">
<title>Node10</title>
<g id="a_Node000010"><a xlink:title=" ">
<polygon fill="#e0e0e0" stroke="#999999" points="332,-74 288,-74 288,-55 332,-55 332,-74"/>
<text text-anchor="middle" x="310" y="-62" font-family="Helvetica,sans-Serif" font-size="10.00">glib.h</text>
</a>
</g>
</g>
<!-- Node9&#45;&gt;Node10 -->
<g id="edge10_Node000009_Node000010" class="edge">
<title>Node9&#45;&gt;Node10</title>
<g id="a_edge10_Node000009_Node000010"><a xlink:title=" ">
<path fill="none" stroke="#63b8ff" d="M348.22,-164.89C332.97,-157.79 314.08,-146.08 305,-129 297.7,-115.27 299.93,-97.46 303.42,-84.2"/>
<polygon fill="#63b8ff" stroke="#63b8ff" points="306.86,-84.91 306.47,-74.32 300.18,-82.84 306.86,-84.91"/>
</a>
</g>
</g>
<!-- Node11 -->
<g id="Node000011" class="node">
<title>Node11</title>
<g id="a_Node000011"><a xlink:title=" ">
<polygon fill="#e0e0e0" stroke="#999999" points="514,-129 446,-129 446,-110 514,-110 514,-129"/>
<text text-anchor="middle" x="480" y="-117" font-family="Helvetica,sans-Serif" font-size="10.00">gmodule.h</text>
</a>
</g>
</g>
<!-- Node9&#45;&gt;Node11 -->
<g id="edge11_Node000009_Node000011" class="edge">
<title>Node9&#45;&gt;Node11</title>
<g id="a_edge11_Node000009_Node000011"><a xlink:title=" ">
<path fill="none" stroke="#63b8ff" d="M388.51,-164.98C405.97,-156.5 433.01,-143.35 453.17,-133.54"/>
<polygon fill="#63b8ff" stroke="#63b8ff" points="454.71,-136.69 462.17,-129.17 451.64,-130.4 454.71,-136.69"/>
</a>
</g>
</g>
<!-- Node12 -->
<g id="Node000012" class="node">
<title>Node12</title>
<g id="a_Node000012"><a xlink:title=" ">
<polygon fill="#e0e0e0" stroke="#999999" points="50,-129 0,-129 0,-110 50,-110 50,-129"/>
<text text-anchor="middle" x="25" y="-117" font-family="Helvetica,sans-Serif" font-size="10.00">cairo.h</text>
</a>
</g>
</g>
<!-- Node9&#45;&gt;Node12 -->
<g id="edge12_Node000009_Node000012" class="edge">
<title>Node9&#45;&gt;Node12</title>
<g id="a_edge12_Node000009_Node000012"><a xlink:title=" ">
<path fill="none" stroke="#63b8ff" d="M325.98,-166.5C322.61,-165.99 319.25,-165.48 316,-165 204.09,-148.36 175.34,-149.06 64,-129 62.73,-128.77 61.45,-128.53 60.15,-128.28"/>
<polygon fill="#63b8ff" stroke="#63b8ff" points="60.62,-124.81 50.12,-126.26 59.23,-131.67 60.62,-124.81"/>
</a>
</g>
</g>
<!-- Node13 -->
<g id="Node000013" class="node">
<title>Node13</title>
<g id="a_Node000013"><a xlink:href="ev-document-info_8h.html" target="_top" xlink:title=" ">
<polygon fill="white" stroke="#666666" points="427.5,-129 314.5,-129 314.5,-110 427.5,-110 427.5,-129"/>
<text text-anchor="middle" x="371" y="-117" font-family="Helvetica,sans-Serif" font-size="10.00">ev&#45;document&#45;info.h</text>
</a>
</g>
</g>
<!-- Node9&#45;&gt;Node13 -->
<g id="edge13_Node000009_Node000013" class="edge">
<title>Node9&#45;&gt;Node13</title>
<g id="a_edge13_Node000009_Node000013"><a xlink:title=" ">
<path fill="none" stroke="#63b8ff" d="M371,-164.75C371,-157.8 371,-147.85 371,-139.13"/>
<polygon fill="#63b8ff" stroke="#63b8ff" points="374.5,-139.09 371,-129.09 367.5,-139.09 374.5,-139.09"/>
</a>
</g>
</g>
<!-- Node14 -->
<g id="Node000014" class="node">
<title>Node14</title>
<g id="a_Node000014"><a xlink:href="ev-page_8h.html" target="_top" xlink:title=" ">
<polygon fill="white" stroke="#666666" points="181.5,-74 116.5,-74 116.5,-55 181.5,-55 181.5,-74"/>
<text text-anchor="middle" x="149" y="-62" font-family="Helvetica,sans-Serif" font-size="10.00">ev&#45;page.h</text>
</a>
</g>
</g>
<!-- Node9&#45;&gt;Node14 -->
<g id="edge16_Node000009_Node000014" class="edge">
<title>Node9&#45;&gt;Node14</title>
<g id="a_edge16_Node000009_Node000014"><a xlink:title=" ">
<path fill="none" stroke="#63b8ff" d="M325.94,-166.37C248.41,-154.07 97.93,-130.09 97,-129 82.67,-112.15 104.84,-92.39 124.51,-79.44"/>
<polygon fill="#63b8ff" stroke="#63b8ff" points="126.59,-82.26 133.23,-74.01 122.89,-76.32 126.59,-82.26"/>
</a>
</g>
</g>
<!-- Node15 -->
<g id="Node000015" class="node">
<title>Node15</title>
<g id="a_Node000015"><a xlink:href="ev-render-context_8h.html" target="_top" xlink:title=" ">
<polygon fill="white" stroke="#666666" points="219.5,-129 106.5,-129 106.5,-110 219.5,-110 219.5,-129"/>
<text text-anchor="middle" x="163" y="-117" font-family="Helvetica,sans-Serif" font-size="10.00">ev&#45;render&#45;context.h</text>
</a>
</g>
</g>
<!-- Node9&#45;&gt;Node15 -->
<g id="edge18_Node000009_Node000015" class="edge">
<title>Node9&#45;&gt;Node15</title>
<g id="a_edge18_Node000009_Node000015"><a xlink:title=" ">
<path fill="none" stroke="#63b8ff" d="M337.58,-164.98C302.06,-155.93 245.73,-141.58 206.7,-131.64"/>
<polygon fill="#63b8ff" stroke="#63b8ff" points="207.24,-128.16 196.68,-129.08 205.51,-134.94 207.24,-128.16"/>
</a>
</g>
</g>
<!-- Node13&#45;&gt;Node7 -->
<g id="edge14_Node000013_Node000007" class="edge">
<title>Node13&#45;&gt;Node7</title>
<g id="a_edge14_Node000013_Node000007"><a xlink:title=" ">
<path fill="none" stroke="#63b8ff" d="M371,-109.66C371,-92.17 371,-52.8 371,-29.27"/>
<polygon fill="#63b8ff" stroke="#63b8ff" points="374.5,-29.16 371,-19.16 367.5,-29.16 374.5,-29.16"/>
</a>
</g>
</g>
<!-- Node13&#45;&gt;Node10 -->
<g id="edge15_Node000013_Node000010" class="edge">
<title>Node13&#45;&gt;Node10</title>
<g id="a_edge15_Node000013_Node000010"><a xlink:title=" ">
<path fill="none" stroke="#63b8ff" d="M361.2,-109.98C352.18,-102.15 338.59,-90.34 327.68,-80.86"/>
<polygon fill="#63b8ff" stroke="#63b8ff" points="329.82,-78.09 319.98,-74.17 325.23,-83.37 329.82,-78.09"/>
</a>
</g>
</g>
<!-- Node14&#45;&gt;Node7 -->
<g id="edge17_Node000014_Node000007" class="edge">
<title>Node14&#45;&gt;Node7</title>
<g id="a_edge17_Node000014_Node000007"><a xlink:title=" ">
<path fill="none" stroke="#63b8ff" d="M181.76,-55.68C219.72,-46.62 282.53,-31.62 325.29,-21.41"/>
<polygon fill="#63b8ff" stroke="#63b8ff" points="326.25,-24.78 335.16,-19.06 324.62,-17.97 326.25,-24.78"/>
</a>
</g>
</g>
<!-- Node15&#45;&gt;Node7 -->
<g id="edge19_Node000015_Node000007" class="edge">
<title>Node15&#45;&gt;Node7</title>
<g id="a_edge19_Node000015_Node000007"><a xlink:title=" ">
<path fill="none" stroke="#63b8ff" d="M170.43,-109.86C182.48,-96.34 207.62,-70.17 234,-55 261.39,-39.25 295.12,-28.2 322.26,-21.06"/>
<polygon fill="#63b8ff" stroke="#63b8ff" points="323.47,-24.36 332.31,-18.51 321.75,-17.58 323.47,-24.36"/>
</a>
</g>
</g>
<!-- Node15&#45;&gt;Node14 -->
<g id="edge20_Node000015_Node000014" class="edge">
<title>Node15&#45;&gt;Node14</title>
<g id="a_edge20_Node000015_Node000014"><a xlink:title=" ">
<path fill="none" stroke="#63b8ff" d="M160.69,-109.75C158.83,-102.72 156.16,-92.62 153.85,-83.84"/>
<polygon fill="#63b8ff" stroke="#63b8ff" points="157.21,-82.86 151.27,-74.09 150.44,-84.65 157.21,-82.86"/>
</a>
</g>
</g>
<!-- Node16&#45;&gt;Node7 -->
<g id="edge22_Node000016_Node000007" class="edge">
<title>Node16&#45;&gt;Node7</title>
<g id="a_edge22_Node000016_Node000007"><a xlink:title=" ">
<path fill="none" stroke="#63b8ff" d="M540.45,-164.86C539.24,-151.81 535.35,-126.81 523,-110 491.93,-67.72 437.05,-38.37 402.43,-23"/>
<polygon fill="#63b8ff" stroke="#63b8ff" points="403.81,-19.79 393.24,-19.04 401.04,-26.21 403.81,-19.79"/>
</a>
</g>
</g>
<!-- Node17 -->
<g id="Node000017" class="node">
<title>Node17</title>
<g id="a_Node000017"><a xlink:title=" ">
<polygon fill="#e0e0e0" stroke="#999999" points="629.5,-129 570.5,-129 570.5,-110 629.5,-110 629.5,-129"/>
<text text-anchor="middle" x="600" y="-117" font-family="Helvetica,sans-Serif" font-size="10.00">gio/gio.h</text>
</a>
</g>
</g>
<!-- Node16&#45;&gt;Node17 -->
<g id="edge23_Node000016_Node000017" class="edge">
<title>Node16&#45;&gt;Node17</title>
<g id="a_edge23_Node000016_Node000017"><a xlink:title=" ">
<path fill="none" stroke="#63b8ff" d="M550.48,-164.98C559.2,-157.15 572.34,-145.34 582.9,-135.86"/>
<polygon fill="#63b8ff" stroke="#63b8ff" points="585.25,-138.46 590.35,-129.17 580.57,-133.25 585.25,-138.46"/>
</a>
</g>
</g>
<!-- Node19&#45;&gt;Node8 -->
<g id="edge26_Node000019_Node000008" class="edge">
<title>Node19&#45;&gt;Node8</title>
<g id="a_edge26_Node000019_Node000008"><a xlink:title=" ">
<path fill="none" stroke="#63b8ff" d="M648.11,-219.75C653.28,-212.34 660.85,-201.5 667.19,-192.41"/>
<polygon fill="#63b8ff" stroke="#63b8ff" points="670.15,-194.29 673,-184.09 664.41,-190.29 670.15,-194.29"/>
</a>
</g>
</g>
<!-- Node20&#45;&gt;Node7 -->
<g id="edge28_Node000020_Node000007" class="edge">
<title>Node20&#45;&gt;Node7</title>
<g id="a_edge28_Node000020_Node000007"><a xlink:title=" ">
<path fill="none" stroke="#63b8ff" d="M686.34,-55.79C614.76,-45.51 489.04,-27.45 419.94,-17.53"/>
<polygon fill="#63b8ff" stroke="#63b8ff" points="420.15,-14.02 409.76,-16.07 419.16,-20.95 420.15,-14.02"/>
</a>
</g>
</g>
<!-- Node21&#45;&gt;Node5 -->
<g id="edge32_Node000021_Node000005" class="edge">
<title>Node21&#45;&gt;Node5</title>
<g id="a_edge32_Node000021_Node000005"><a xlink:title=" ">
<path fill="none" stroke="#63b8ff" d="M350.45,-274.75C355.01,-267.42 361.67,-256.73 367.29,-247.7"/>
<polygon fill="#63b8ff" stroke="#63b8ff" points="370.34,-249.43 372.65,-239.09 364.4,-245.73 370.34,-249.43"/>
</a>
</g>
</g>
<!-- Node21&#45;&gt;Node12 -->
<g id="edge30_Node000021_Node000012" class="edge">
<title>Node21&#45;&gt;Node12</title>
<g id="a_edge30_Node000021_Node000012"><a xlink:title=" ">
<path fill="none" stroke="#63b8ff" d="M328.25,-274.97C275.77,-248.24 114.32,-166 50.93,-133.71"/>
<polygon fill="#63b8ff" stroke="#63b8ff" points="52.47,-130.57 41.97,-129.15 49.3,-136.8 52.47,-130.57"/>
</a>
</g>
</g>
<!-- Node21&#45;&gt;Node18 -->
<g id="edge33_Node000021_Node000018" class="edge">
<title>Node21&#45;&gt;Node18</title>
<g id="a_edge33_Node000021_Node000018"><a xlink:title=" ">
<path fill="none" stroke="#63b8ff" d="M338.78,-274.66C326.14,-256.69 297.25,-215.64 280.88,-192.38"/>
<polygon fill="#63b8ff" stroke="#63b8ff" points="283.71,-190.32 275.09,-184.16 277.99,-194.35 283.71,-190.32"/>
</a>
</g>
</g>
<!-- Node22 -->
<g id="Node000022" class="node">
<title>Node22</title>
<g id="a_Node000022"><a xlink:title=" ">
<polygon fill="#e0e0e0" stroke="#999999" points="173.5,-239 40.5,-239 40.5,-220 173.5,-220 173.5,-239"/>
<text text-anchor="middle" x="107" y="-227" font-family="Helvetica,sans-Serif" font-size="10.00">gdk&#45;pixbuf/gdk&#45;pixbuf.h</text>
</a>
</g>
</g>
<!-- Node21&#45;&gt;Node22 -->
<g id="edge31_Node000021_Node000022" class="edge">
<title>Node21&#45;&gt;Node22</title>
<g id="a_edge31_Node000021_Node000022"><a xlink:title=" ">
<path fill="none" stroke="#63b8ff" d="M306.76,-274.98C265.59,-265.82 200.01,-251.21 155.3,-241.26"/>
<polygon fill="#63b8ff" stroke="#63b8ff" points="156.06,-237.84 145.54,-239.08 154.54,-244.67 156.06,-237.84"/>
</a>
</g>
</g>
</g>
</svg>
