<?xml version="1.0" encoding="UTF-8" standalone="no"?>
<!DOCTYPE svg PUBLIC "-//W3C//DTD SVG 1.1//EN"
 "http://www.w3.org/Graphics/SVG/1.1/DTD/svg11.dtd">
<!-- Generated by graphviz version 2.43.0 (0)
 -->
<!-- Title: ev&#45;annotation.c Pages: 1 -->
<svg width="738pt" height="302pt"
 viewBox="0.00 0.00 738.32 302.00" xmlns="http://www.w3.org/2000/svg" xmlns:xlink="http://www.w3.org/1999/xlink">
<g id="graph0" class="graph" transform="scale(1 1) rotate(0) translate(4 298)">
<title>ev&#45;annotation.c</title>
<!-- Node1 -->
<g id="Node000001" class="node">
<title>Node1</title>
<g id="a_Node000001"><a xlink:title=" ">
<polygon fill="#999999" stroke="#666666" points="406.32,-294 313.32,-294 313.32,-275 406.32,-275 406.32,-294"/>
<text text-anchor="middle" x="359.82" y="-282" font-family="Helvetica,sans-Serif" font-size="10.00">ev&#45;annotation.c</text>
</a>
</g>
</g>
<!-- Node2 -->
<g id="Node000002" class="node">
<title>Node2</title>
<g id="a_Node000002"><a xlink:title=" ">
<polygon fill="#e0e0e0" stroke="#999999" points="208.32,-239 153.32,-239 153.32,-220 208.32,-220 208.32,-239"/>
<text text-anchor="middle" x="180.82" y="-227" font-family="Helvetica,sans-Serif" font-size="10.00">config.h</text>
</a>
</g>
</g>
<!-- Node1&#45;&gt;Node2 -->
<g id="edge1_Node000001_Node000002" class="edge">
<title>Node1&#45;&gt;Node2</title>
<g id="a_edge1_Node000001_Node000002"><a xlink:title=" ">
<path fill="none" stroke="#63b8ff" d="M331.06,-274.98C300.43,-265.92 251.83,-251.53 218.24,-241.58"/>
<polygon fill="#63b8ff" stroke="#63b8ff" points="218.92,-238.13 208.34,-238.65 216.93,-244.84 218.92,-238.13"/>
</a>
</g>
</g>
<!-- Node3 -->
<g id="Node000003" class="node">
<title>Node3</title>
<g id="a_Node000003"><a xlink:href="ev-annotation_8h.html" target="_top" xlink:title=" ">
<polygon fill="white" stroke="#666666" points="320.82,-239 226.82,-239 226.82,-220 320.82,-220 320.82,-239"/>
<text text-anchor="middle" x="273.82" y="-227" font-family="Helvetica,sans-Serif" font-size="10.00">ev&#45;annotation.h</text>
</a>
</g>
</g>
<!-- Node1&#45;&gt;Node3 -->
<g id="edge2_Node000001_Node000003" class="edge">
<title>Node1&#45;&gt;Node3</title>
<g id="a_edge2_Node000001_Node000003"><a xlink:title=" ">
<path fill="none" stroke="#63b8ff" d="M346.01,-274.98C332.67,-266.77 312.24,-254.18 296.52,-244.49"/>
<polygon fill="#63b8ff" stroke="#63b8ff" points="298.24,-241.44 287.89,-239.17 294.57,-247.4 298.24,-241.44"/>
</a>
</g>
</g>
<!-- Node16 -->
<g id="Node000016" class="node">
<title>Node16</title>
<g id="a_Node000016"><a xlink:href="ev-document-misc_8h.html" target="_top" xlink:title=" ">
<polygon fill="white" stroke="#666666" points="505.32,-239 388.32,-239 388.32,-220 505.32,-220 505.32,-239"/>
<text text-anchor="middle" x="446.82" y="-227" font-family="Helvetica,sans-Serif" font-size="10.00">ev&#45;document&#45;misc.h</text>
</a>
</g>
</g>
<!-- Node1&#45;&gt;Node16 -->
<g id="edge22_Node000001_Node000016" class="edge">
<title>Node1&#45;&gt;Node16</title>
<g id="a_edge22_Node000001_Node000016"><a xlink:title=" ">
<path fill="none" stroke="#63b8ff" d="M373.8,-274.98C387.29,-266.77 407.96,-254.18 423.86,-244.49"/>
<polygon fill="#63b8ff" stroke="#63b8ff" points="425.87,-247.36 432.59,-239.17 422.23,-241.38 425.87,-247.36"/>
</a>
</g>
</g>
<!-- Node19 -->
<g id="Node000019" class="node">
<title>Node19</title>
<g id="a_Node000019"><a xlink:href="ev-document-type-builtins_8h.html" target="_top" xlink:title=" ">
<polygon fill="white" stroke="#666666" points="730.32,-74 575.32,-74 575.32,-55 730.32,-55 730.32,-74"/>
<text text-anchor="middle" x="652.82" y="-62" font-family="Helvetica,sans-Serif" font-size="10.00">ev&#45;document&#45;type&#45;builtins.h</text>
</a>
</g>
</g>
<!-- Node1&#45;&gt;Node19 -->
<g id="edge27_Node000001_Node000019" class="edge">
<title>Node1&#45;&gt;Node19</title>
<g id="a_edge27_Node000001_Node000019"><a xlink:title=" ">
<path fill="none" stroke="#63b8ff" d="M406.45,-276.64C490.31,-263.25 661.1,-230.77 695.82,-184 719.51,-152.09 687.96,-105.83 667.61,-81.63"/>
<polygon fill="#63b8ff" stroke="#63b8ff" points="670.21,-79.28 660.99,-74.05 664.94,-83.88 670.21,-79.28"/>
</a>
</g>
</g>
<!-- Node4 -->
<g id="Node000004" class="node">
<title>Node4</title>
<g id="a_Node000004"><a xlink:title=" ">
<polygon fill="#e0e0e0" stroke="#999999" points="299.32,-19 222.32,-19 222.32,0 299.32,0 299.32,-19"/>
<text text-anchor="middle" x="260.82" y="-7" font-family="Helvetica,sans-Serif" font-size="10.00">glib&#45;object.h</text>
</a>
</g>
</g>
<!-- Node3&#45;&gt;Node4 -->
<g id="edge3_Node000003_Node000004" class="edge">
<title>Node3&#45;&gt;Node4</title>
<g id="a_edge3_Node000003_Node000004"><a xlink:title=" ">
<path fill="none" stroke="#63b8ff" d="M226.6,-221.34C156.32,-210.5 31.55,-190.5 23.82,-184 3.91,-167.26 8.34,-154.62 3.82,-129 -2.05,-95.67 -3.64,-77.3 21.82,-55 49.51,-30.75 150.4,-18.89 211.9,-13.79"/>
<polygon fill="#63b8ff" stroke="#63b8ff" points="212.47,-17.26 222.16,-12.97 211.91,-10.28 212.47,-17.26"/>
</a>
</g>
</g>
<!-- Node5 -->
<g id="Node000005" class="node">
<title>Node5</title>
<g id="a_Node000005"><a xlink:title=" ">
<polygon fill="#e0e0e0" stroke="#999999" points="98.32,-184 33.32,-184 33.32,-165 98.32,-165 98.32,-184"/>
<text text-anchor="middle" x="65.82" y="-172" font-family="Helvetica,sans-Serif" font-size="10.00">gdk/gdk.h</text>
</a>
</g>
</g>
<!-- Node3&#45;&gt;Node5 -->
<g id="edge4_Node000003_Node000005" class="edge">
<title>Node3&#45;&gt;Node5</title>
<g id="a_edge4_Node000003_Node000005"><a xlink:title=" ">
<path fill="none" stroke="#63b8ff" d="M240.4,-219.98C204.56,-210.85 147.54,-196.32 108.49,-186.37"/>
<polygon fill="#63b8ff" stroke="#63b8ff" points="109.03,-182.9 98.47,-183.82 107.3,-189.68 109.03,-182.9"/>
</a>
</g>
</g>
<!-- Node6 -->
<g id="Node000006" class="node">
<title>Node6</title>
<g id="a_Node000006"><a xlink:href="ev-document_8h.html" target="_top" xlink:title=" ">
<polygon fill="white" stroke="#666666" points="206.82,-184 116.82,-184 116.82,-165 206.82,-165 206.82,-184"/>
<text text-anchor="middle" x="161.82" y="-172" font-family="Helvetica,sans-Serif" font-size="10.00">ev&#45;document.h</text>
</a>
</g>
</g>
<!-- Node3&#45;&gt;Node6 -->
<g id="edge5_Node000003_Node000006" class="edge">
<title>Node3&#45;&gt;Node6</title>
<g id="a_edge5_Node000003_Node000006"><a xlink:title=" ">
<path fill="none" stroke="#63b8ff" d="M255.83,-219.98C237.89,-211.5 210.11,-198.35 189.39,-188.54"/>
<polygon fill="#63b8ff" stroke="#63b8ff" points="190.68,-185.28 180.14,-184.17 187.69,-191.61 190.68,-185.28"/>
</a>
</g>
</g>
<!-- Node13 -->
<g id="Node000013" class="node">
<title>Node13</title>
<g id="a_Node000013"><a xlink:href="ev-attachment_8h.html" target="_top" xlink:title=" ">
<polygon fill="white" stroke="#666666" points="322.82,-184 224.82,-184 224.82,-165 322.82,-165 322.82,-184"/>
<text text-anchor="middle" x="273.82" y="-172" font-family="Helvetica,sans-Serif" font-size="10.00">ev&#45;attachment.h</text>
</a>
</g>
</g>
<!-- Node3&#45;&gt;Node13 -->
<g id="edge18_Node000003_Node000013" class="edge">
<title>Node3&#45;&gt;Node13</title>
<g id="a_edge18_Node000003_Node000013"><a xlink:title=" ">
<path fill="none" stroke="#63b8ff" d="M273.82,-219.75C273.82,-212.8 273.82,-202.85 273.82,-194.13"/>
<polygon fill="#63b8ff" stroke="#63b8ff" points="277.32,-194.09 273.82,-184.09 270.32,-194.09 277.32,-194.09"/>
</a>
</g>
</g>
<!-- Node15 -->
<g id="Node000015" class="node">
<title>Node15</title>
<g id="a_Node000015"><a xlink:href="ev-macros_8h.html" target="_top" xlink:title=" ">
<polygon fill="white" stroke="#666666" points="418.32,-184 341.32,-184 341.32,-165 418.32,-165 418.32,-184"/>
<text text-anchor="middle" x="379.82" y="-172" font-family="Helvetica,sans-Serif" font-size="10.00">ev&#45;macros.h</text>
</a>
</g>
</g>
<!-- Node3&#45;&gt;Node15 -->
<g id="edge21_Node000003_Node000015" class="edge">
<title>Node3&#45;&gt;Node15</title>
<g id="a_edge21_Node000003_Node000015"><a xlink:title=" ">
<path fill="none" stroke="#63b8ff" d="M290.85,-219.98C307.75,-211.54 333.89,-198.47 353.47,-188.68"/>
<polygon fill="#63b8ff" stroke="#63b8ff" points="355.1,-191.77 362.48,-184.17 351.97,-185.51 355.1,-191.77"/>
</a>
</g>
</g>
<!-- Node6&#45;&gt;Node4 -->
<g id="edge6_Node000006_Node000004" class="edge">
<title>Node6&#45;&gt;Node4</title>
<g id="a_edge6_Node000006_Node000004"><a xlink:title=" ">
<path fill="none" stroke="#63b8ff" d="M116.63,-166.36C76.66,-159.02 22.72,-146.22 9.82,-129 4.76,-122.24 7.36,-118.08 9.82,-110 18.42,-81.82 22.37,-71.44 46.82,-55 96.45,-21.64 166.07,-12.49 212.26,-10.38"/>
<polygon fill="#63b8ff" stroke="#63b8ff" points="212.45,-13.88 222.32,-10.02 212.2,-6.88 212.45,-13.88"/>
</a>
</g>
</g>
<!-- Node7 -->
<g id="Node000007" class="node">
<title>Node7</title>
<g id="a_Node000007"><a xlink:title=" ">
<polygon fill="#e0e0e0" stroke="#999999" points="99.82,-74 55.82,-74 55.82,-55 99.82,-55 99.82,-74"/>
<text text-anchor="middle" x="77.82" y="-62" font-family="Helvetica,sans-Serif" font-size="10.00">glib.h</text>
</a>
</g>
</g>
<!-- Node6&#45;&gt;Node7 -->
<g id="edge7_Node000006_Node000007" class="edge">
<title>Node6&#45;&gt;Node7</title>
<g id="a_edge7_Node000006_Node000007"><a xlink:title=" ">
<path fill="none" stroke="#63b8ff" d="M116.79,-165.58C79.14,-157.94 29.74,-145.16 17.82,-129 4.04,-110.31 28.21,-91.26 49.86,-78.97"/>
<polygon fill="#63b8ff" stroke="#63b8ff" points="51.71,-81.95 58.87,-74.13 48.41,-75.78 51.71,-81.95"/>
</a>
</g>
</g>
<!-- Node8 -->
<g id="Node000008" class="node">
<title>Node8</title>
<g id="a_Node000008"><a xlink:title=" ">
<polygon fill="#e0e0e0" stroke="#999999" points="94.82,-129 26.82,-129 26.82,-110 94.82,-110 94.82,-129"/>
<text text-anchor="middle" x="60.82" y="-117" font-family="Helvetica,sans-Serif" font-size="10.00">gmodule.h</text>
</a>
</g>
</g>
<!-- Node6&#45;&gt;Node8 -->
<g id="edge8_Node000006_Node000008" class="edge">
<title>Node6&#45;&gt;Node8</title>
<g id="a_edge8_Node000006_Node000008"><a xlink:title=" ">
<path fill="none" stroke="#63b8ff" d="M145.6,-164.98C129.64,-156.61 105.04,-143.7 86.45,-133.95"/>
<polygon fill="#63b8ff" stroke="#63b8ff" points="87.83,-130.72 77.35,-129.17 84.57,-136.92 87.83,-130.72"/>
</a>
</g>
</g>
<!-- Node9 -->
<g id="Node000009" class="node">
<title>Node9</title>
<g id="a_Node000009"><a xlink:title=" ">
<polygon fill="#e0e0e0" stroke="#999999" points="464.82,-129 414.82,-129 414.82,-110 464.82,-110 464.82,-129"/>
<text text-anchor="middle" x="439.82" y="-117" font-family="Helvetica,sans-Serif" font-size="10.00">cairo.h</text>
</a>
</g>
</g>
<!-- Node6&#45;&gt;Node9 -->
<g id="edge9_Node000006_Node000009" class="edge">
<title>Node6&#45;&gt;Node9</title>
<g id="a_edge9_Node000006_Node000009"><a xlink:title=" ">
<path fill="none" stroke="#63b8ff" d="M207.21,-165.99C256.14,-157.7 336.24,-143.6 404.82,-129 404.92,-128.98 405.02,-128.96 405.12,-128.94"/>
<polygon fill="#63b8ff" stroke="#63b8ff" points="405.64,-132.41 414.63,-126.8 404.1,-125.58 405.64,-132.41"/>
</a>
</g>
</g>
<!-- Node10 -->
<g id="Node000010" class="node">
<title>Node10</title>
<g id="a_Node000010"><a xlink:href="ev-document-info_8h.html" target="_top" xlink:title=" ">
<polygon fill="white" stroke="#666666" points="226.32,-129 113.32,-129 113.32,-110 226.32,-110 226.32,-129"/>
<text text-anchor="middle" x="169.82" y="-117" font-family="Helvetica,sans-Serif" font-size="10.00">ev&#45;document&#45;info.h</text>
</a>
</g>
</g>
<!-- Node6&#45;&gt;Node10 -->
<g id="edge10_Node000006_Node000010" class="edge">
<title>Node6&#45;&gt;Node10</title>
<g id="a_edge10_Node000006_Node000010"><a xlink:title=" ">
<path fill="none" stroke="#63b8ff" d="M163.14,-164.75C164.19,-157.8 165.7,-147.85 167.01,-139.13"/>
<polygon fill="#63b8ff" stroke="#63b8ff" points="170.49,-139.5 168.53,-129.09 163.57,-138.45 170.49,-139.5"/>
</a>
</g>
</g>
<!-- Node11 -->
<g id="Node000011" class="node">
<title>Node11</title>
<g id="a_Node000011"><a xlink:href="ev-page_8h.html" target="_top" xlink:title=" ">
<polygon fill="white" stroke="#666666" points="293.32,-74 228.32,-74 228.32,-55 293.32,-55 293.32,-74"/>
<text text-anchor="middle" x="260.82" y="-62" font-family="Helvetica,sans-Serif" font-size="10.00">ev&#45;page.h</text>
</a>
</g>
</g>
<!-- Node6&#45;&gt;Node11 -->
<g id="edge13_Node000006_Node000011" class="edge">
<title>Node6&#45;&gt;Node11</title>
<g id="a_edge13_Node000006_Node000011"><a xlink:title=" ">
<path fill="none" stroke="#63b8ff" d="M183.22,-164.89C199.29,-157.48 220.86,-145.38 234.82,-129 245.92,-115.98 252.75,-97.59 256.61,-83.94"/>
<polygon fill="#63b8ff" stroke="#63b8ff" points="260.01,-84.77 259.09,-74.21 253.23,-83.04 260.01,-84.77"/>
</a>
</g>
</g>
<!-- Node12 -->
<g id="Node000012" class="node">
<title>Node12</title>
<g id="a_Node000012"><a xlink:href="ev-render-context_8h.html" target="_top" xlink:title=" ">
<polygon fill="white" stroke="#666666" points="396.32,-129 283.32,-129 283.32,-110 396.32,-110 396.32,-129"/>
<text text-anchor="middle" x="339.82" y="-117" font-family="Helvetica,sans-Serif" font-size="10.00">ev&#45;render&#45;context.h</text>
</a>
</g>
</g>
<!-- Node6&#45;&gt;Node12 -->
<g id="edge15_Node000006_Node000012" class="edge">
<title>Node6&#45;&gt;Node12</title>
<g id="a_edge15_Node000006_Node000012"><a xlink:title=" ">
<path fill="none" stroke="#63b8ff" d="M190.42,-164.98C220.44,-156.05 267.8,-141.94 301.14,-132.02"/>
<polygon fill="#63b8ff" stroke="#63b8ff" points="302.41,-135.29 311,-129.08 300.42,-128.58 302.41,-135.29"/>
</a>
</g>
</g>
<!-- Node10&#45;&gt;Node4 -->
<g id="edge11_Node000010_Node000004" class="edge">
<title>Node10&#45;&gt;Node4</title>
<g id="a_edge11_Node000010_Node000004"><a xlink:title=" ">
<path fill="none" stroke="#63b8ff" d="M176.21,-109.66C185.32,-97.18 202.73,-73.85 218.82,-55 227.19,-45.21 237.05,-34.71 245.12,-26.37"/>
<polygon fill="#63b8ff" stroke="#63b8ff" points="247.71,-28.73 252.19,-19.13 242.7,-23.83 247.71,-28.73"/>
</a>
</g>
</g>
<!-- Node10&#45;&gt;Node7 -->
<g id="edge12_Node000010_Node000007" class="edge">
<title>Node10&#45;&gt;Node7</title>
<g id="a_edge12_Node000010_Node000007"><a xlink:title=" ">
<path fill="none" stroke="#63b8ff" d="M155.04,-109.98C140.64,-101.69 118.51,-88.94 101.63,-79.22"/>
<polygon fill="#63b8ff" stroke="#63b8ff" points="103.29,-76.13 92.87,-74.17 99.79,-82.19 103.29,-76.13"/>
</a>
</g>
</g>
<!-- Node11&#45;&gt;Node4 -->
<g id="edge14_Node000011_Node000004" class="edge">
<title>Node11&#45;&gt;Node4</title>
<g id="a_edge14_Node000011_Node000004"><a xlink:title=" ">
<path fill="none" stroke="#63b8ff" d="M260.82,-54.75C260.82,-47.8 260.82,-37.85 260.82,-29.13"/>
<polygon fill="#63b8ff" stroke="#63b8ff" points="264.32,-29.09 260.82,-19.09 257.32,-29.09 264.32,-29.09"/>
</a>
</g>
</g>
<!-- Node12&#45;&gt;Node4 -->
<g id="edge16_Node000012_Node000004" class="edge">
<title>Node12&#45;&gt;Node4</title>
<g id="a_edge16_Node000012_Node000004"><a xlink:title=" ">
<path fill="none" stroke="#63b8ff" d="M335.42,-109.93C328.83,-97.39 315.67,-73.52 301.82,-55 294.37,-45.03 285.03,-34.75 277.15,-26.59"/>
<polygon fill="#63b8ff" stroke="#63b8ff" points="279.39,-23.88 269.88,-19.23 274.41,-28.8 279.39,-23.88"/>
</a>
</g>
</g>
<!-- Node12&#45;&gt;Node11 -->
<g id="edge17_Node000012_Node000011" class="edge">
<title>Node12&#45;&gt;Node11</title>
<g id="a_edge17_Node000012_Node000011"><a xlink:title=" ">
<path fill="none" stroke="#63b8ff" d="M327.13,-109.98C314.99,-101.84 296.47,-89.41 282.08,-79.76"/>
<polygon fill="#63b8ff" stroke="#63b8ff" points="284,-76.84 273.75,-74.17 280.1,-82.65 284,-76.84"/>
</a>
</g>
</g>
<!-- Node13&#45;&gt;Node4 -->
<g id="edge19_Node000013_Node000004" class="edge">
<title>Node13&#45;&gt;Node4</title>
<g id="a_edge19_Node000013_Node000004"><a xlink:title=" ">
<path fill="none" stroke="#63b8ff" d="M323.17,-165.8C379.27,-156.55 464.36,-140.79 473.82,-129 523.36,-67.23 386.71,-32.46 309.57,-18.21"/>
<polygon fill="#63b8ff" stroke="#63b8ff" points="310.02,-14.73 299.56,-16.41 308.79,-21.62 310.02,-14.73"/>
</a>
</g>
</g>
<!-- Node14 -->
<g id="Node000014" class="node">
<title>Node14</title>
<g id="a_Node000014"><a xlink:title=" ">
<polygon fill="#e0e0e0" stroke="#999999" points="580.32,-129 521.32,-129 521.32,-110 580.32,-110 580.32,-129"/>
<text text-anchor="middle" x="550.82" y="-117" font-family="Helvetica,sans-Serif" font-size="10.00">gio/gio.h</text>
</a>
</g>
</g>
<!-- Node13&#45;&gt;Node14 -->
<g id="edge20_Node000013_Node000014" class="edge">
<title>Node13&#45;&gt;Node14</title>
<g id="a_edge20_Node000013_Node000014"><a xlink:title=" ">
<path fill="none" stroke="#63b8ff" d="M318.5,-165C365.4,-156.06 441.3,-141.58 506.82,-129 508.11,-128.75 509.42,-128.5 510.75,-128.25"/>
<polygon fill="#63b8ff" stroke="#63b8ff" points="511.85,-131.6 521,-126.27 510.52,-124.72 511.85,-131.6"/>
</a>
</g>
</g>
<!-- Node16&#45;&gt;Node9 -->
<g id="edge23_Node000016_Node000009" class="edge">
<title>Node16&#45;&gt;Node9</title>
<g id="a_edge23_Node000016_Node000009"><a xlink:title=" ">
<path fill="none" stroke="#63b8ff" d="M446.25,-219.66C445.12,-202.17 442.56,-162.8 441.04,-139.27"/>
<polygon fill="#63b8ff" stroke="#63b8ff" points="444.52,-138.91 440.38,-129.16 437.54,-139.36 444.52,-138.91"/>
</a>
</g>
</g>
<!-- Node16&#45;&gt;Node15 -->
<g id="edge26_Node000016_Node000015" class="edge">
<title>Node16&#45;&gt;Node15</title>
<g id="a_edge26_Node000016_Node000015"><a xlink:title=" ">
<path fill="none" stroke="#63b8ff" d="M436.06,-219.98C426.06,-212.07 410.94,-200.11 398.89,-190.58"/>
<polygon fill="#63b8ff" stroke="#63b8ff" points="400.8,-187.63 390.78,-184.17 396.45,-193.12 400.8,-187.63"/>
</a>
</g>
</g>
<!-- Node17 -->
<g id="Node000017" class="node">
<title>Node17</title>
<g id="a_Node000017"><a xlink:title=" ">
<polygon fill="#e0e0e0" stroke="#999999" points="608.32,-184 475.32,-184 475.32,-165 608.32,-165 608.32,-184"/>
<text text-anchor="middle" x="541.82" y="-172" font-family="Helvetica,sans-Serif" font-size="10.00">gdk&#45;pixbuf/gdk&#45;pixbuf.h</text>
</a>
</g>
</g>
<!-- Node16&#45;&gt;Node17 -->
<g id="edge24_Node000016_Node000017" class="edge">
<title>Node16&#45;&gt;Node17</title>
<g id="a_edge24_Node000016_Node000017"><a xlink:title=" ">
<path fill="none" stroke="#63b8ff" d="M462.09,-219.98C476.96,-211.69 499.81,-198.94 517.24,-189.22"/>
<polygon fill="#63b8ff" stroke="#63b8ff" points="519.25,-192.1 526.28,-184.17 515.84,-185.99 519.25,-192.1"/>
</a>
</g>
</g>
<!-- Node18 -->
<g id="Node000018" class="node">
<title>Node18</title>
<g id="a_Node000018"><a xlink:title=" ">
<polygon fill="#e0e0e0" stroke="#999999" points="686.82,-184 626.82,-184 626.82,-165 686.82,-165 686.82,-184"/>
<text text-anchor="middle" x="656.82" y="-172" font-family="Helvetica,sans-Serif" font-size="10.00">gtk/gtk.h</text>
</a>
</g>
</g>
<!-- Node16&#45;&gt;Node18 -->
<g id="edge25_Node000016_Node000018" class="edge">
<title>Node16&#45;&gt;Node18</title>
<g id="a_edge25_Node000016_Node000018"><a xlink:title=" ">
<path fill="none" stroke="#63b8ff" d="M480.56,-219.98C517.68,-210.62 577.29,-195.57 616.75,-185.61"/>
<polygon fill="#63b8ff" stroke="#63b8ff" points="617.73,-188.97 626.57,-183.13 616.02,-182.19 617.73,-188.97"/>
</a>
</g>
</g>
<!-- Node19&#45;&gt;Node4 -->
<g id="edge28_Node000019_Node000004" class="edge">
<title>Node19&#45;&gt;Node4</title>
<g id="a_edge28_Node000019_Node000004"><a xlink:title=" ">
<path fill="none" stroke="#63b8ff" d="M589.84,-54.98C511.76,-44.43 380.37,-26.66 309.55,-17.09"/>
<polygon fill="#63b8ff" stroke="#63b8ff" points="309.94,-13.61 299.56,-15.74 309,-20.55 309.94,-13.61"/>
</a>
</g>
</g>
</g>
</svg>
