<?xml version="1.0" encoding="UTF-8" standalone="no"?>
<!DOCTYPE svg PUBLIC "-//W3C//DTD SVG 1.1//EN"
 "http://www.w3.org/Graphics/SVG/1.1/DTD/svg11.dtd">
<!-- Generated by graphviz version 2.43.0 (0)
 -->
<!-- Title: ev&#45;document&#45;annotations.h Pages: 1 -->
<svg width="858pt" height="82pt"
 viewBox="0.00 0.00 858.00 82.00" xmlns="http://www.w3.org/2000/svg" xmlns:xlink="http://www.w3.org/1999/xlink">
<g id="graph0" class="graph" transform="scale(1 1) rotate(0) translate(4 78)">
<title>ev&#45;document&#45;annotations.h</title>
<!-- Node1 -->
<g id="Node000001" class="node">
<title>Node1</title>
<g id="a_Node000001"><a xlink:title=" ">
<polygon fill="#999999" stroke="#666666" points="545.5,-74 393.5,-74 393.5,-55 545.5,-55 545.5,-74"/>
<text text-anchor="middle" x="469.5" y="-62" font-family="Helvetica,sans-Serif" font-size="10.00">ev&#45;document&#45;annotations.h</text>
</a>
</g>
</g>
<!-- Node2 -->
<g id="Node000002" class="node">
<title>Node2</title>
<g id="a_Node000002"><a xlink:href="ev-document-annotations_8c.html" target="_top" xlink:title=" ">
<polygon fill="white" stroke="#666666" points="151,-19 0,-19 0,0 151,0 151,-19"/>
<text text-anchor="middle" x="75.5" y="-7" font-family="Helvetica,sans-Serif" font-size="10.00">ev&#45;document&#45;annotations.c</text>
</a>
</g>
</g>
<!-- Node1&#45;&gt;Node2 -->
<g id="edge1_Node000001_Node000002" class="edge">
<title>Node1&#45;&gt;Node2</title>
<g id="a_edge1_Node000001_Node000002"><a xlink:title=" ">
<path fill="none" stroke="#63b8ff" d="M396.03,-53.62C322.07,-43.67 209.16,-28.48 138.97,-19.04"/>
<polygon fill="#63b8ff" stroke="#63b8ff" points="395.82,-57.12 406.2,-54.98 396.75,-50.18 395.82,-57.12"/>
</a>
</g>
</g>
<!-- Node3 -->
<g id="Node000003" class="node">
<title>Node3</title>
<g id="a_Node000003"><a xlink:href="ev-document-type-builtins_8c.html" target="_top" xlink:title=" ">
<polygon fill="white" stroke="#666666" points="324,-19 169,-19 169,0 324,0 324,-19"/>
<text text-anchor="middle" x="246.5" y="-7" font-family="Helvetica,sans-Serif" font-size="10.00">ev&#45;document&#45;type&#45;builtins.c</text>
</a>
</g>
</g>
<!-- Node1&#45;&gt;Node3 -->
<g id="edge2_Node000001_Node000003" class="edge">
<title>Node1&#45;&gt;Node3</title>
<g id="a_edge2_Node000001_Node000003"><a xlink:title=" ">
<path fill="none" stroke="#63b8ff" d="M423.75,-52.63C381.98,-42.7 321.05,-28.22 282.61,-19.08"/>
<polygon fill="#63b8ff" stroke="#63b8ff" points="423.13,-56.08 433.67,-54.98 424.75,-49.27 423.13,-56.08"/>
</a>
</g>
</g>
<!-- Node4 -->
<g id="Node000004" class="node">
<title>Node4</title>
<g id="a_Node000004"><a xlink:href="ev-jobs_8c.html" target="_top" xlink:title=" ">
<polygon fill="white" stroke="#666666" points="403,-19 342,-19 342,0 403,0 403,-19"/>
<text text-anchor="middle" x="372.5" y="-7" font-family="Helvetica,sans-Serif" font-size="10.00">ev&#45;jobs.c</text>
</a>
</g>
</g>
<!-- Node1&#45;&gt;Node4 -->
<g id="edge3_Node000001_Node000004" class="edge">
<title>Node1&#45;&gt;Node4</title>
<g id="a_edge3_Node000001_Node000004"><a xlink:title=" ">
<path fill="none" stroke="#63b8ff" d="M444.73,-49.97C427,-40.28 403.65,-27.52 388.37,-19.17"/>
<polygon fill="#63b8ff" stroke="#63b8ff" points="443.46,-53.26 453.92,-54.98 446.82,-47.12 443.46,-53.26"/>
</a>
</g>
</g>
<!-- Node5 -->
<g id="Node000005" class="node">
<title>Node5</title>
<g id="a_Node000005"><a xlink:href="ev-page-cache_8c.html" target="_top" xlink:title=" ">
<polygon fill="white" stroke="#666666" points="518,-19 421,-19 421,0 518,0 518,-19"/>
<text text-anchor="middle" x="469.5" y="-7" font-family="Helvetica,sans-Serif" font-size="10.00">ev&#45;page&#45;cache.c</text>
</a>
</g>
</g>
<!-- Node1&#45;&gt;Node5 -->
<g id="edge4_Node000001_Node000005" class="edge">
<title>Node1&#45;&gt;Node5</title>
<g id="a_edge4_Node000001_Node000005"><a xlink:title=" ">
<path fill="none" stroke="#63b8ff" d="M469.5,-44.66C469.5,-35.93 469.5,-25.99 469.5,-19.09"/>
<polygon fill="#63b8ff" stroke="#63b8ff" points="466,-44.75 469.5,-54.75 473,-44.75 466,-44.75"/>
</a>
</g>
</g>
<!-- Node6 -->
<g id="Node000006" class="node">
<title>Node6</title>
<g id="a_Node000006"><a xlink:href="ev-sidebar-annotations_8c.html" target="_top" xlink:title=" ">
<polygon fill="white" stroke="#666666" points="674.5,-19 536.5,-19 536.5,0 674.5,0 674.5,-19"/>
<text text-anchor="middle" x="605.5" y="-7" font-family="Helvetica,sans-Serif" font-size="10.00">ev&#45;sidebar&#45;annotations.c</text>
</a>
</g>
</g>
<!-- Node1&#45;&gt;Node6 -->
<g id="edge5_Node000001_Node000006" class="edge">
<title>Node1&#45;&gt;Node6</title>
<g id="a_edge5_Node000001_Node000006"><a xlink:title=" ">
<path fill="none" stroke="#63b8ff" d="M500.83,-51.29C526.04,-41.47 560.83,-27.91 583.25,-19.17"/>
<polygon fill="#63b8ff" stroke="#63b8ff" points="499.4,-48.09 491.35,-54.98 501.94,-54.61 499.4,-48.09"/>
</a>
</g>
</g>
<!-- Node7 -->
<g id="Node000007" class="node">
<title>Node7</title>
<g id="a_Node000007"><a xlink:href="ev-view_8c.html" target="_top" xlink:title=" ">
<polygon fill="white" stroke="#666666" points="754.5,-19 692.5,-19 692.5,0 754.5,0 754.5,-19"/>
<text text-anchor="middle" x="723.5" y="-7" font-family="Helvetica,sans-Serif" font-size="10.00">ev&#45;view.c</text>
</a>
</g>
</g>
<!-- Node1&#45;&gt;Node7 -->
<g id="edge6_Node000001_Node000007" class="edge">
<title>Node1&#45;&gt;Node7</title>
<g id="a_edge6_Node000001_Node000007"><a xlink:title=" ">
<path fill="none" stroke="#63b8ff" d="M520.96,-52.87C564.31,-43.89 627.98,-30.67 683.5,-19 686.42,-18.39 689.46,-17.75 692.49,-17.1"/>
<polygon fill="#63b8ff" stroke="#63b8ff" points="520.02,-49.49 510.94,-54.94 521.44,-56.34 520.02,-49.49"/>
</a>
</g>
</g>
<!-- Node8 -->
<g id="Node000008" class="node">
<title>Node8</title>
<g id="a_Node000008"><a xlink:href="ev-window_8c.html" target="_top" xlink:title=" ">
<polygon fill="white" stroke="#666666" points="850,-19 773,-19 773,0 850,0 850,-19"/>
<text text-anchor="middle" x="811.5" y="-7" font-family="Helvetica,sans-Serif" font-size="10.00">ev&#45;window.c</text>
</a>
</g>
</g>
<!-- Node1&#45;&gt;Node8 -->
<g id="edge7_Node000001_Node000008" class="edge">
<title>Node1&#45;&gt;Node8</title>
<g id="a_edge7_Node000001_Node000008"><a xlink:title=" ">
<path fill="none" stroke="#63b8ff" d="M538.75,-53.52C598.37,-44.8 686.69,-31.61 763.5,-19 766.51,-18.51 769.62,-17.98 772.74,-17.45"/>
<polygon fill="#63b8ff" stroke="#63b8ff" points="538.09,-50.08 528.7,-54.98 539.1,-57 538.09,-50.08"/>
</a>
</g>
</g>
</g>
</svg>
