<?xml version="1.0" encoding="UTF-8" standalone="no"?>
<!DOCTYPE svg PUBLIC "-//W3C//DTD SVG 1.1//EN"
 "http://www.w3.org/Graphics/SVG/1.1/DTD/svg11.dtd">
<!-- Generated by graphviz version 2.43.0 (0)
 -->
<!-- Title: ev&#45;daemon.c Pages: 1 -->
<svg width="913pt" height="137pt"
 viewBox="0.00 0.00 913.00 137.00" xmlns="http://www.w3.org/2000/svg" xmlns:xlink="http://www.w3.org/1999/xlink">
<g id="graph0" class="graph" transform="scale(1 1) rotate(0) translate(4 133)">
<title>ev&#45;daemon.c</title>
<!-- Node1 -->
<g id="Node000001" class="node">
<title>Node1</title>
<g id="a_Node000001"><a xlink:title=" ">
<polygon fill="#999999" stroke="#666666" points="417.5,-129 337.5,-129 337.5,-110 417.5,-110 417.5,-129"/>
<text text-anchor="middle" x="377.5" y="-117" font-family="Helvetica,sans-Serif" font-size="10.00">ev&#45;daemon.c</text>
</a>
</g>
</g>
<!-- Node2 -->
<g id="Node000002" class="node">
<title>Node2</title>
<g id="a_Node000002"><a xlink:title=" ">
<polygon fill="#e0e0e0" stroke="#999999" points="55,-74 0,-74 0,-55 55,-55 55,-74"/>
<text text-anchor="middle" x="27.5" y="-62" font-family="Helvetica,sans-Serif" font-size="10.00">config.h</text>
</a>
</g>
</g>
<!-- Node1&#45;&gt;Node2 -->
<g id="edge1_Node000001_Node000002" class="edge">
<title>Node1&#45;&gt;Node2</title>
<g id="a_edge1_Node000001_Node000002"><a xlink:title=" ">
<path fill="none" stroke="#63b8ff" d="M337.3,-113.89C279.43,-107.01 169.08,-92.99 65.34,-74.01"/>
<polygon fill="#63b8ff" stroke="#63b8ff" points="65.8,-70.54 55.33,-72.16 64.52,-77.42 65.8,-70.54"/>
</a>
</g>
</g>
<!-- Node3 -->
<g id="Node000003" class="node">
<title>Node3</title>
<g id="a_Node000003"><a xlink:title=" ">
<polygon fill="#e0e0e0" stroke="#999999" points="117.5,-74 73.5,-74 73.5,-55 117.5,-55 117.5,-74"/>
<text text-anchor="middle" x="95.5" y="-62" font-family="Helvetica,sans-Serif" font-size="10.00">glib.h</text>
</a>
</g>
</g>
<!-- Node1&#45;&gt;Node3 -->
<g id="edge2_Node000001_Node000003" class="edge">
<title>Node1&#45;&gt;Node3</title>
<g id="a_edge2_Node000001_Node000003"><a xlink:title=" ">
<path fill="none" stroke="#63b8ff" d="M337.28,-112.54C289.56,-105.21 207.42,-91.79 127.97,-74.16"/>
<polygon fill="#63b8ff" stroke="#63b8ff" points="128.31,-70.65 117.79,-71.88 126.78,-77.48 128.31,-70.65"/>
</a>
</g>
</g>
<!-- Node4 -->
<g id="Node000004" class="node">
<title>Node4</title>
<g id="a_Node000004"><a xlink:title=" ">
<polygon fill="#e0e0e0" stroke="#999999" points="213,-74 136,-74 136,-55 213,-55 213,-74"/>
<text text-anchor="middle" x="174.5" y="-62" font-family="Helvetica,sans-Serif" font-size="10.00">glib/gstdio.h</text>
</a>
</g>
</g>
<!-- Node1&#45;&gt;Node4 -->
<g id="edge3_Node000001_Node000004" class="edge">
<title>Node1&#45;&gt;Node4</title>
<g id="a_edge3_Node000001_Node000004"><a xlink:title=" ">
<path fill="none" stroke="#63b8ff" d="M344.88,-109.98C310.21,-100.93 255.24,-86.58 217.15,-76.64"/>
<polygon fill="#63b8ff" stroke="#63b8ff" points="217.93,-73.22 207.37,-74.08 216.16,-79.99 217.93,-73.22"/>
</a>
</g>
</g>
<!-- Node5 -->
<g id="Node000005" class="node">
<title>Node5</title>
<g id="a_Node000005"><a xlink:title=" ">
<polygon fill="#e0e0e0" stroke="#999999" points="561,-19 502,-19 502,0 561,0 561,-19"/>
<text text-anchor="middle" x="531.5" y="-7" font-family="Helvetica,sans-Serif" font-size="10.00">gio/gio.h</text>
</a>
</g>
</g>
<!-- Node1&#45;&gt;Node5 -->
<g id="edge4_Node000001_Node000005" class="edge">
<title>Node1&#45;&gt;Node5</title>
<g id="a_edge4_Node000001_Node000005"><a xlink:title=" ">
<path fill="none" stroke="#63b8ff" d="M337.39,-111.8C294.31,-102.91 235.22,-84.77 260.5,-55 289.65,-20.68 423.33,-12.78 491.41,-10.99"/>
<polygon fill="#63b8ff" stroke="#63b8ff" points="491.83,-14.49 501.74,-10.76 491.67,-7.49 491.83,-14.49"/>
</a>
</g>
</g>
<!-- Node6 -->
<g id="Node000006" class="node">
<title>Node6</title>
<g id="a_Node000006"><a xlink:title=" ">
<polygon fill="#e0e0e0" stroke="#999999" points="323,-74 270,-74 270,-55 323,-55 323,-74"/>
<text text-anchor="middle" x="296.5" y="-62" font-family="Helvetica,sans-Serif" font-size="10.00">string.h</text>
</a>
</g>
</g>
<!-- Node1&#45;&gt;Node6 -->
<g id="edge5_Node000001_Node000006" class="edge">
<title>Node1&#45;&gt;Node6</title>
<g id="a_edge5_Node000001_Node000006"><a xlink:title=" ">
<path fill="none" stroke="#63b8ff" d="M364.49,-109.98C352.04,-101.84 333.04,-89.41 318.29,-79.76"/>
<polygon fill="#63b8ff" stroke="#63b8ff" points="320.04,-76.72 309.75,-74.17 316.2,-82.57 320.04,-76.72"/>
</a>
</g>
</g>
<!-- Node7 -->
<g id="Node000007" class="node">
<title>Node7</title>
<g id="a_Node000007"><a xlink:title=" ">
<polygon fill="#e0e0e0" stroke="#999999" points="413.5,-74 341.5,-74 341.5,-55 413.5,-55 413.5,-74"/>
<text text-anchor="middle" x="377.5" y="-62" font-family="Helvetica,sans-Serif" font-size="10.00">sys/types.h</text>
</a>
</g>
</g>
<!-- Node1&#45;&gt;Node7 -->
<g id="edge6_Node000001_Node000007" class="edge">
<title>Node1&#45;&gt;Node7</title>
<g id="a_edge6_Node000001_Node000007"><a xlink:title=" ">
<path fill="none" stroke="#63b8ff" d="M377.5,-109.75C377.5,-102.8 377.5,-92.85 377.5,-84.13"/>
<polygon fill="#63b8ff" stroke="#63b8ff" points="381,-84.09 377.5,-74.09 374,-84.09 381,-84.09"/>
</a>
</g>
</g>
<!-- Node8 -->
<g id="Node000008" class="node">
<title>Node8</title>
<g id="a_Node000008"><a xlink:title=" ">
<polygon fill="#e0e0e0" stroke="#999999" points="495.5,-74 431.5,-74 431.5,-55 495.5,-55 495.5,-74"/>
<text text-anchor="middle" x="463.5" y="-62" font-family="Helvetica,sans-Serif" font-size="10.00">sys/stat.h</text>
</a>
</g>
</g>
<!-- Node1&#45;&gt;Node8 -->
<g id="edge7_Node000001_Node000008" class="edge">
<title>Node1&#45;&gt;Node8</title>
<g id="a_edge7_Node000001_Node000008"><a xlink:title=" ">
<path fill="none" stroke="#63b8ff" d="M391.32,-109.98C404.65,-101.77 425.08,-89.18 440.81,-79.49"/>
<polygon fill="#63b8ff" stroke="#63b8ff" points="442.75,-82.4 449.43,-74.17 439.08,-76.44 442.75,-82.4"/>
</a>
</g>
</g>
<!-- Node9 -->
<g id="Node000009" class="node">
<title>Node9</title>
<g id="a_Node000009"><a xlink:title=" ">
<polygon fill="#e0e0e0" stroke="#999999" points="579.5,-74 513.5,-74 513.5,-55 579.5,-55 579.5,-74"/>
<text text-anchor="middle" x="546.5" y="-62" font-family="Helvetica,sans-Serif" font-size="10.00">sys/wait.h</text>
</a>
</g>
</g>
<!-- Node1&#45;&gt;Node9 -->
<g id="edge8_Node000001_Node000009" class="edge">
<title>Node1&#45;&gt;Node9</title>
<g id="a_edge8_Node000001_Node000009"><a xlink:title=" ">
<path fill="none" stroke="#63b8ff" d="M404.65,-109.98C433.03,-101.09 477.73,-87.07 509.36,-77.15"/>
<polygon fill="#63b8ff" stroke="#63b8ff" points="510.64,-80.41 519.13,-74.08 508.55,-73.73 510.64,-80.41"/>
</a>
</g>
</g>
<!-- Node10 -->
<g id="Node000010" class="node">
<title>Node10</title>
<g id="a_Node000010"><a xlink:title=" ">
<polygon fill="#e0e0e0" stroke="#999999" points="645,-74 598,-74 598,-55 645,-55 645,-74"/>
<text text-anchor="middle" x="621.5" y="-62" font-family="Helvetica,sans-Serif" font-size="10.00">fcntl.h</text>
</a>
</g>
</g>
<!-- Node1&#45;&gt;Node10 -->
<g id="edge9_Node000001_Node000010" class="edge">
<title>Node1&#45;&gt;Node10</title>
<g id="a_edge9_Node000001_Node000010"><a xlink:title=" ">
<path fill="none" stroke="#63b8ff" d="M417.67,-110.58C458.14,-102.48 522.59,-89.24 587.71,-74.1"/>
<polygon fill="#63b8ff" stroke="#63b8ff" points="588.8,-77.44 597.74,-71.75 587.2,-70.62 588.8,-77.44"/>
</a>
</g>
</g>
<!-- Node11 -->
<g id="Node000011" class="node">
<title>Node11</title>
<g id="a_Node000011"><a xlink:title=" ">
<polygon fill="#e0e0e0" stroke="#999999" points="719.5,-74 663.5,-74 663.5,-55 719.5,-55 719.5,-74"/>
<text text-anchor="middle" x="691.5" y="-62" font-family="Helvetica,sans-Serif" font-size="10.00">unistd.h</text>
</a>
</g>
</g>
<!-- Node1&#45;&gt;Node11 -->
<g id="edge10_Node000001_Node000011" class="edge">
<title>Node1&#45;&gt;Node11</title>
<g id="a_edge10_Node000001_Node000011"><a xlink:title=" ">
<path fill="none" stroke="#63b8ff" d="M417.56,-112.92C469.6,-105.48 563.5,-91.42 653.19,-74.15"/>
<polygon fill="#63b8ff" stroke="#63b8ff" points="654.11,-77.53 663.26,-72.19 652.78,-70.66 654.11,-77.53"/>
</a>
</g>
</g>
<!-- Node12 -->
<g id="Node000012" class="node">
<title>Node12</title>
<g id="a_Node000012"><a xlink:href="ev-daemon-gdbus-generated_8h.html" target="_top" xlink:title=" ">
<polygon fill="white" stroke="#666666" points="905,-74 738,-74 738,-55 905,-55 905,-74"/>
<text text-anchor="middle" x="821.5" y="-62" font-family="Helvetica,sans-Serif" font-size="10.00">ev&#45;daemon&#45;gdbus&#45;generated.h</text>
</a>
</g>
</g>
<!-- Node1&#45;&gt;Node12 -->
<g id="edge11_Node000001_Node000012" class="edge">
<title>Node1&#45;&gt;Node12</title>
<g id="a_edge11_Node000001_Node000012"><a xlink:title=" ">
<path fill="none" stroke="#63b8ff" d="M417.69,-113.7C490.29,-105.04 644.62,-86.61 740.07,-75.22"/>
<polygon fill="#63b8ff" stroke="#63b8ff" points="740.74,-78.66 750.26,-74 739.91,-71.71 740.74,-78.66"/>
</a>
</g>
</g>
<!-- Node12&#45;&gt;Node5 -->
<g id="edge12_Node000012_Node000005" class="edge">
<title>Node12&#45;&gt;Node5</title>
<g id="a_edge12_Node000012_Node000005"><a xlink:title=" ">
<path fill="none" stroke="#63b8ff" d="M774.91,-54.98C718.47,-44.67 624.37,-27.47 571.22,-17.76"/>
<polygon fill="#63b8ff" stroke="#63b8ff" points="571.62,-14.27 561.16,-15.92 570.36,-21.16 571.62,-14.27"/>
</a>
</g>
</g>
</g>
</svg>
