<?xml version="1.0" encoding="UTF-8" standalone="no"?>
<!DOCTYPE svg PUBLIC "-//W3C//DTD SVG 1.1//EN"
 "http://www.w3.org/Graphics/SVG/1.1/DTD/svg11.dtd">
<!-- Generated by graphviz version 2.43.0 (0)
 -->
<!-- Title: ev&#45;link&#45;action.c Pages: 1 -->
<svg width="343pt" height="192pt"
 viewBox="0.00 0.00 343.00 192.00" xmlns="http://www.w3.org/2000/svg" xmlns:xlink="http://www.w3.org/1999/xlink">

<svg id="main" version="1.1" xmlns="http://www.w3.org/2000/svg" xmlns:xlink="http://www.w3.org/1999/xlink" xml:space="preserve">

<style type="text/css"><![CDATA[
.node, .edge {opacity: 0.7;}
.node.selected, .edge.selected {opacity: 1;}
.edge:hover path { stroke: red; }
.edge:hover polygon { stroke: red; fill: red; }
]]></style>
<script type="application/ecmascript" xlink:href="svg.min.js"/>
<svg id="graph" class="graph">
<g id="graph0" class="graph" transform="scale(1 1) rotate(0) translate(4 188)">
<title>ev&#45;link&#45;action.c</title>
<!-- Node1 -->
<g id="Node000001" class="node">
<title>Node1</title>
<g id="a_Node000001"><a xlink:title=" ">
<polygon fill="#999999" stroke="#666666" points="165.5,-184 73.5,-184 73.5,-165 165.5,-165 165.5,-184"/>
<text text-anchor="middle" x="119.5" y="-172" font-family="Helvetica,sans-Serif" font-size="10.00">ev&#45;link&#45;action.c</text>
</a>
</g>
</g>
<!-- Node2 -->
<g id="Node000002" class="node">
<title>Node2</title>
<g id="a_Node000002"><a xlink:title=" ">
<polygon fill="#e0e0e0" stroke="#999999" points="55,-129 0,-129 0,-110 55,-110 55,-129"/>
<text text-anchor="middle" x="27.5" y="-117" font-family="Helvetica,sans-Serif" font-size="10.00">config.h</text>
</a>
</g>
</g>
<!-- Node1&#45;&gt;Node2 -->
<g id="edge1_Node000001_Node000002" class="edge">
<title>Node1&#45;&gt;Node2</title>
<g id="a_edge1_Node000001_Node000002"><a xlink:title=" ">
<path fill="none" stroke="#63b8ff" d="M104.72,-164.98C90.32,-156.69 68.19,-143.94 51.31,-134.22"/>
<polygon fill="#63b8ff" stroke="#63b8ff" points="52.96,-131.13 42.55,-129.17 49.47,-137.19 52.96,-131.13"/>
</a>
</g>
</g>
<!-- Node3 -->
<g id="Node000003" class="node">
<title>Node3</title>
<g id="a_Node000003"><a xlink:href="ev-link-action_8h.html" target="_top" xlink:title=" ">
<polygon fill="white" stroke="#666666" points="166,-129 73,-129 73,-110 166,-110 166,-129"/>
<text text-anchor="middle" x="119.5" y="-117" font-family="Helvetica,sans-Serif" font-size="10.00">ev&#45;link&#45;action.h</text>
</a>
</g>
</g>
<!-- Node1&#45;&gt;Node3 -->
<g id="edge2_Node000001_Node000003" class="edge">
<title>Node1&#45;&gt;Node3</title>
<g id="a_edge2_Node000001_Node000003"><a xlink:title=" ">
<path fill="none" stroke="#63b8ff" d="M119.5,-164.75C119.5,-157.8 119.5,-147.85 119.5,-139.13"/>
<polygon fill="#63b8ff" stroke="#63b8ff" points="123,-139.09 119.5,-129.09 116,-139.09 123,-139.09"/>
</a>
</g>
</g>
<!-- Node6 -->
<g id="Node000006" class="node">
<title>Node6</title>
<g id="a_Node000006"><a xlink:href="ev-document-type-builtins_8h.html" target="_top" xlink:title=" ">
<polygon fill="white" stroke="#666666" points="335,-74 180,-74 180,-55 335,-55 335,-74"/>
<text text-anchor="middle" x="257.5" y="-62" font-family="Helvetica,sans-Serif" font-size="10.00">ev&#45;document&#45;type&#45;builtins.h</text>
</a>
</g>
</g>
<!-- Node1&#45;&gt;Node6 -->
<g id="edge6_Node000001_Node000006" class="edge">
<title>Node1&#45;&gt;Node6</title>
<g id="a_edge6_Node000001_Node000006"><a xlink:title=" ">
<path fill="none" stroke="#63b8ff" d="M130.79,-164.66C154.36,-146.22 209.01,-103.45 238.24,-80.57"/>
<polygon fill="#63b8ff" stroke="#63b8ff" points="240.72,-83.08 246.44,-74.16 236.4,-77.57 240.72,-83.08"/>
</a>
</g>
</g>
<!-- Node4 -->
<g id="Node000004" class="node">
<title>Node4</title>
<g id="a_Node000004"><a xlink:title=" ">
<polygon fill="#e0e0e0" stroke="#999999" points="158,-19 81,-19 81,0 158,0 158,-19"/>
<text text-anchor="middle" x="119.5" y="-7" font-family="Helvetica,sans-Serif" font-size="10.00">glib&#45;object.h</text>
</a>
</g>
</g>
<!-- Node3&#45;&gt;Node4 -->
<g id="edge3_Node000003_Node000004" class="edge">
<title>Node3&#45;&gt;Node4</title>
<g id="a_edge3_Node000003_Node000004"><a xlink:title=" ">
<path fill="none" stroke="#63b8ff" d="M103.77,-109.88C91.62,-102.23 75.7,-89.83 68.5,-74 59.88,-55.04 78.07,-36.87 95.07,-24.86"/>
<polygon fill="#63b8ff" stroke="#63b8ff" points="97.28,-27.6 103.7,-19.17 93.42,-21.75 97.28,-27.6"/>
</a>
</g>
</g>
<!-- Node5 -->
<g id="Node000005" class="node">
<title>Node5</title>
<g id="a_Node000005"><a xlink:href="ev-link-dest_8h.html" target="_top" xlink:title=" ">
<polygon fill="white" stroke="#666666" points="161.5,-74 77.5,-74 77.5,-55 161.5,-55 161.5,-74"/>
<text text-anchor="middle" x="119.5" y="-62" font-family="Helvetica,sans-Serif" font-size="10.00">ev&#45;link&#45;dest.h</text>
</a>
</g>
</g>
<!-- Node3&#45;&gt;Node5 -->
<g id="edge4_Node000003_Node000005" class="edge">
<title>Node3&#45;&gt;Node5</title>
<g id="a_edge4_Node000003_Node000005"><a xlink:title=" ">
<path fill="none" stroke="#63b8ff" d="M119.5,-109.75C119.5,-102.8 119.5,-92.85 119.5,-84.13"/>
<polygon fill="#63b8ff" stroke="#63b8ff" points="123,-84.09 119.5,-74.09 116,-84.09 123,-84.09"/>
</a>
</g>
</g>
<!-- Node5&#45;&gt;Node4 -->
<g id="edge5_Node000005_Node000004" class="edge">
<title>Node5&#45;&gt;Node4</title>
<g id="a_edge5_Node000005_Node000004"><a xlink:title=" ">
<path fill="none" stroke="#63b8ff" d="M119.5,-54.75C119.5,-47.8 119.5,-37.85 119.5,-29.13"/>
<polygon fill="#63b8ff" stroke="#63b8ff" points="123,-29.09 119.5,-19.09 116,-29.09 123,-29.09"/>
</a>
</g>
</g>
<!-- Node6&#45;&gt;Node4 -->
<g id="edge7_Node000006_Node000004" class="edge">
<title>Node6&#45;&gt;Node4</title>
<g id="a_edge7_Node000006_Node000004"><a xlink:title=" ">
<path fill="none" stroke="#63b8ff" d="M235.33,-54.98C212.73,-46.3 177.44,-32.75 151.75,-22.88"/>
<polygon fill="#63b8ff" stroke="#63b8ff" points="152.67,-19.49 142.08,-19.17 150.16,-26.02 152.67,-19.49"/>
</a>
</g>
</g>
</g>
</svg>
</svg>

<style type='text/css'>
<![CDATA[
[data-mouse-over-selected='false'] { opacity: 0.7; }
[data-mouse-over-selected='true']  { opacity: 1.0; }
]]>
</style>
<script type="application/ecmascript"><![CDATA[
document.addEventListener('DOMContentLoaded', (event) => {
  highlightEdges();
  highlightAdjacentNodes();
});
]]></script>
</svg>
