<?xml version="1.0" encoding="UTF-8" standalone="no"?>
<!DOCTYPE svg PUBLIC "-//W3C//DTD SVG 1.1//EN"
 "http://www.w3.org/Graphics/SVG/1.1/DTD/svg11.dtd">
<!-- Generated by graphviz version 2.43.0 (0)
 -->
<!-- Title: ev&#45;link&#45;dest.c Pages: 1 -->
<svg width="339pt" height="137pt"
 viewBox="0.00 0.00 339.00 137.00" xmlns="http://www.w3.org/2000/svg" xmlns:xlink="http://www.w3.org/1999/xlink">
<g id="graph0" class="graph" transform="scale(1 1) rotate(0) translate(4 133)">
<title>ev&#45;link&#45;dest.c</title>
<!-- Node1 -->
<g id="Node000001" class="node">
<title>Node1</title>
<g id="a_Node000001"><a xlink:title=" ">
<polygon fill="#999999" stroke="#666666" points="157,-129 74,-129 74,-110 157,-110 157,-129"/>
<text text-anchor="middle" x="115.5" y="-117" font-family="Helvetica,sans-Serif" font-size="10.00">ev&#45;link&#45;dest.c</text>
</a>
</g>
</g>
<!-- Node2 -->
<g id="Node000002" class="node">
<title>Node2</title>
<g id="a_Node000002"><a xlink:title=" ">
<polygon fill="#e0e0e0" stroke="#999999" points="55,-74 0,-74 0,-55 55,-55 55,-74"/>
<text text-anchor="middle" x="27.5" y="-62" font-family="Helvetica,sans-Serif" font-size="10.00">config.h</text>
</a>
</g>
</g>
<!-- Node1&#45;&gt;Node2 -->
<g id="edge1_Node000001_Node000002" class="edge">
<title>Node1&#45;&gt;Node2</title>
<g id="a_edge1_Node000001_Node000002"><a xlink:title=" ">
<path fill="none" stroke="#63b8ff" d="M101.36,-109.98C87.71,-101.77 66.81,-89.18 50.72,-79.49"/>
<polygon fill="#63b8ff" stroke="#63b8ff" points="52.27,-76.33 41.9,-74.17 48.66,-82.33 52.27,-76.33"/>
</a>
</g>
</g>
<!-- Node3 -->
<g id="Node000003" class="node">
<title>Node3</title>
<g id="a_Node000003"><a xlink:href="ev-link-dest_8h.html" target="_top" xlink:title=" ">
<polygon fill="white" stroke="#666666" points="157.5,-74 73.5,-74 73.5,-55 157.5,-55 157.5,-74"/>
<text text-anchor="middle" x="115.5" y="-62" font-family="Helvetica,sans-Serif" font-size="10.00">ev&#45;link&#45;dest.h</text>
</a>
</g>
</g>
<!-- Node1&#45;&gt;Node3 -->
<g id="edge2_Node000001_Node000003" class="edge">
<title>Node1&#45;&gt;Node3</title>
<g id="a_edge2_Node000001_Node000003"><a xlink:title=" ">
<path fill="none" stroke="#63b8ff" d="M115.5,-109.75C115.5,-102.8 115.5,-92.85 115.5,-84.13"/>
<polygon fill="#63b8ff" stroke="#63b8ff" points="119,-84.09 115.5,-74.09 112,-84.09 119,-84.09"/>
</a>
</g>
</g>
<!-- Node5 -->
<g id="Node000005" class="node">
<title>Node5</title>
<g id="a_Node000005"><a xlink:href="ev-document-type-builtins_8h.html" target="_top" xlink:title=" ">
<polygon fill="white" stroke="#666666" points="331,-74 176,-74 176,-55 331,-55 331,-74"/>
<text text-anchor="middle" x="253.5" y="-62" font-family="Helvetica,sans-Serif" font-size="10.00">ev&#45;document&#45;type&#45;builtins.h</text>
</a>
</g>
</g>
<!-- Node1&#45;&gt;Node5 -->
<g id="edge4_Node000001_Node000005" class="edge">
<title>Node1&#45;&gt;Node5</title>
<g id="a_edge4_Node000001_Node000005"><a xlink:title=" ">
<path fill="none" stroke="#63b8ff" d="M137.67,-109.98C160.27,-101.3 195.56,-87.75 221.25,-77.88"/>
<polygon fill="#63b8ff" stroke="#63b8ff" points="222.84,-81.02 230.92,-74.17 220.33,-74.49 222.84,-81.02"/>
</a>
</g>
</g>
<!-- Node4 -->
<g id="Node000004" class="node">
<title>Node4</title>
<g id="a_Node000004"><a xlink:title=" ">
<polygon fill="#e0e0e0" stroke="#999999" points="223,-19 146,-19 146,0 223,0 223,-19"/>
<text text-anchor="middle" x="184.5" y="-7" font-family="Helvetica,sans-Serif" font-size="10.00">glib&#45;object.h</text>
</a>
</g>
</g>
<!-- Node3&#45;&gt;Node4 -->
<g id="edge3_Node000003_Node000004" class="edge">
<title>Node3&#45;&gt;Node4</title>
<g id="a_edge3_Node000003_Node000004"><a xlink:title=" ">
<path fill="none" stroke="#63b8ff" d="M126.59,-54.98C136.99,-47 152.76,-34.88 165.22,-25.31"/>
<polygon fill="#63b8ff" stroke="#63b8ff" points="167.41,-28.04 173.21,-19.17 163.15,-22.49 167.41,-28.04"/>
</a>
</g>
</g>
<!-- Node5&#45;&gt;Node4 -->
<g id="edge5_Node000005_Node000004" class="edge">
<title>Node5&#45;&gt;Node4</title>
<g id="a_edge5_Node000005_Node000004"><a xlink:title=" ">
<path fill="none" stroke="#63b8ff" d="M242.41,-54.98C232.01,-47 216.24,-34.88 203.78,-25.31"/>
<polygon fill="#63b8ff" stroke="#63b8ff" points="205.85,-22.49 195.79,-19.17 201.59,-28.04 205.85,-22.49"/>
</a>
</g>
</g>
</g>
</svg>
