<?xml version="1.0" encoding="UTF-8" standalone="no"?>
<!DOCTYPE svg PUBLIC "-//W3C//DTD SVG 1.1//EN"
 "http://www.w3.org/Graphics/SVG/1.1/DTD/svg11.dtd">
<!-- Generated by graphviz version 2.43.0 (0)
 -->
<!-- Title: ev&#45;view&#45;marshal.h Pages: 1 -->
<svg width="364pt" height="82pt"
 viewBox="0.00 0.00 364.00 82.00" xmlns="http://www.w3.org/2000/svg" xmlns:xlink="http://www.w3.org/1999/xlink">
<g id="graph0" class="graph" transform="scale(1 1) rotate(0) translate(4 78)">
<title>ev&#45;view&#45;marshal.h</title>
<!-- Node1 -->
<g id="Node000001" class="node">
<title>Node1</title>
<g id="a_Node000001"><a xlink:title=" ">
<polygon fill="#999999" stroke="#666666" points="267.5,-74 160.5,-74 160.5,-55 267.5,-55 267.5,-74"/>
<text text-anchor="middle" x="214" y="-62" font-family="Helvetica,sans-Serif" font-size="10.00">ev&#45;view&#45;marshal.h</text>
</a>
</g>
</g>
<!-- Node2 -->
<g id="Node000002" class="node">
<title>Node2</title>
<g id="a_Node000002"><a xlink:href="ev-annotation-window_8c.html" target="_top" xlink:title=" ">
<polygon fill="white" stroke="#666666" points="134,-19 0,-19 0,0 134,0 134,-19"/>
<text text-anchor="middle" x="67" y="-7" font-family="Helvetica,sans-Serif" font-size="10.00">ev&#45;annotation&#45;window.c</text>
</a>
</g>
</g>
<!-- Node1&#45;&gt;Node2 -->
<g id="edge1_Node000001_Node000002" class="edge">
<title>Node1&#45;&gt;Node2</title>
<g id="a_edge1_Node000001_Node000002"><a xlink:title=" ">
<path fill="none" stroke="#63b8ff" d="M180.86,-51.55C153.56,-41.71 115.5,-27.98 91.05,-19.17"/>
<polygon fill="#63b8ff" stroke="#63b8ff" points="179.79,-54.89 190.38,-54.98 182.16,-48.3 179.79,-54.89"/>
</a>
</g>
</g>
<!-- Node3 -->
<g id="Node000003" class="node">
<title>Node3</title>
<g id="a_Node000003"><a xlink:href="ev-document-model_8c.html" target="_top" xlink:title=" ">
<polygon fill="white" stroke="#666666" points="276,-19 152,-19 152,0 276,0 276,-19"/>
<text text-anchor="middle" x="214" y="-7" font-family="Helvetica,sans-Serif" font-size="10.00">ev&#45;document&#45;model.c</text>
</a>
</g>
</g>
<!-- Node1&#45;&gt;Node3 -->
<g id="edge2_Node000001_Node000003" class="edge">
<title>Node1&#45;&gt;Node3</title>
<g id="a_edge2_Node000001_Node000003"><a xlink:title=" ">
<path fill="none" stroke="#63b8ff" d="M214,-44.66C214,-35.93 214,-25.99 214,-19.09"/>
<polygon fill="#63b8ff" stroke="#63b8ff" points="210.5,-44.75 214,-54.75 217.5,-44.75 210.5,-44.75"/>
</a>
</g>
</g>
<!-- Node4 -->
<g id="Node000004" class="node">
<title>Node4</title>
<g id="a_Node000004"><a xlink:href="ev-view_8c.html" target="_top" xlink:title=" ">
<polygon fill="white" stroke="#666666" points="356,-19 294,-19 294,0 356,0 356,-19"/>
<text text-anchor="middle" x="325" y="-7" font-family="Helvetica,sans-Serif" font-size="10.00">ev&#45;view.c</text>
</a>
</g>
</g>
<!-- Node1&#45;&gt;Node4 -->
<g id="edge3_Node000001_Node000004" class="edge">
<title>Node1&#45;&gt;Node4</title>
<g id="a_edge3_Node000001_Node000004"><a xlink:title=" ">
<path fill="none" stroke="#63b8ff" d="M240.95,-50.63C261.39,-40.87 288.95,-27.71 306.84,-19.17"/>
<polygon fill="#63b8ff" stroke="#63b8ff" points="239.35,-47.52 231.83,-54.98 242.37,-53.83 239.35,-47.52"/>
</a>
</g>
</g>
</g>
</svg>
