<?xml version="1.0" encoding="UTF-8" standalone="no"?>
<!DOCTYPE svg PUBLIC "-//W3C//DTD SVG 1.1//EN"
 "http://www.w3.org/Graphics/SVG/1.1/DTD/svg11.dtd">
<!-- Generated by graphviz version 2.43.0 (0)
 -->
<!-- Title: gdict&#45;speller.c Pages: 1 -->
<svg width="963pt" height="192pt"
 viewBox="0.00 0.00 962.50 192.00" xmlns="http://www.w3.org/2000/svg" xmlns:xlink="http://www.w3.org/1999/xlink">
<g id="graph0" class="graph" transform="scale(1 1) rotate(0) translate(4 188)">
<title>gdict&#45;speller.c</title>
<!-- Node1 -->
<g id="Node000001" class="node">
<title>Node1</title>
<g id="a_Node000001"><a xlink:title=" ">
<polygon fill="#999999" stroke="#666666" points="534.5,-184 449.5,-184 449.5,-165 534.5,-165 534.5,-184"/>
<text text-anchor="middle" x="492" y="-172" font-family="Helvetica,sans-Serif" font-size="10.00">gdict&#45;speller.c</text>
</a>
</g>
</g>
<!-- Node2 -->
<g id="Node000002" class="node">
<title>Node2</title>
<g id="a_Node000002"><a xlink:title=" ">
<polygon fill="#e0e0e0" stroke="#999999" points="50,-129 0,-129 0,-110 50,-110 50,-129"/>
<text text-anchor="middle" x="25" y="-117" font-family="Helvetica,sans-Serif" font-size="10.00">stdio.h</text>
</a>
</g>
</g>
<!-- Node1&#45;&gt;Node2 -->
<g id="edge1_Node000001_Node000002" class="edge">
<title>Node1&#45;&gt;Node2</title>
<g id="a_edge1_Node000001_Node000002"><a xlink:title=" ">
<path fill="none" stroke="#63b8ff" d="M449.31,-171.14C373.08,-166.48 208.41,-154.44 60.34,-128.99"/>
<polygon fill="#63b8ff" stroke="#63b8ff" points="60.62,-125.49 50.17,-127.22 59.42,-132.38 60.62,-125.49"/>
</a>
</g>
</g>
<!-- Node3 -->
<g id="Node000003" class="node">
<title>Node3</title>
<g id="a_Node000003"><a xlink:title=" ">
<polygon fill="#e0e0e0" stroke="#999999" points="121.5,-129 68.5,-129 68.5,-110 121.5,-110 121.5,-129"/>
<text text-anchor="middle" x="95" y="-117" font-family="Helvetica,sans-Serif" font-size="10.00">stdlib.h</text>
</a>
</g>
</g>
<!-- Node1&#45;&gt;Node3 -->
<g id="edge2_Node000001_Node000003" class="edge">
<title>Node1&#45;&gt;Node3</title>
<g id="a_edge2_Node000001_Node000003"><a xlink:title=" ">
<path fill="none" stroke="#63b8ff" d="M449.4,-169.88C383.34,-163.91 252.05,-150.64 131.8,-129.15"/>
<polygon fill="#63b8ff" stroke="#63b8ff" points="132.15,-125.66 121.68,-127.32 130.9,-132.54 132.15,-125.66"/>
</a>
</g>
</g>
<!-- Node4 -->
<g id="Node000004" class="node">
<title>Node4</title>
<g id="a_Node000004"><a xlink:title=" ">
<polygon fill="#e0e0e0" stroke="#999999" points="192.5,-129 139.5,-129 139.5,-110 192.5,-110 192.5,-129"/>
<text text-anchor="middle" x="166" y="-117" font-family="Helvetica,sans-Serif" font-size="10.00">string.h</text>
</a>
</g>
</g>
<!-- Node1&#45;&gt;Node4 -->
<g id="edge3_Node000001_Node000004" class="edge">
<title>Node1&#45;&gt;Node4</title>
<g id="a_edge3_Node000001_Node000004"><a xlink:title=" ">
<path fill="none" stroke="#63b8ff" d="M449.07,-168C394.24,-160.74 296.24,-146.95 202.61,-128.97"/>
<polygon fill="#63b8ff" stroke="#63b8ff" points="203.17,-125.52 192.69,-127.05 201.84,-132.39 203.17,-125.52"/>
</a>
</g>
</g>
<!-- Node5 -->
<g id="Node000005" class="node">
<title>Node5</title>
<g id="a_Node000005"><a xlink:title=" ">
<polygon fill="#e0e0e0" stroke="#999999" points="267,-129 211,-129 211,-110 267,-110 267,-129"/>
<text text-anchor="middle" x="239" y="-117" font-family="Helvetica,sans-Serif" font-size="10.00">stdarg.h</text>
</a>
</g>
</g>
<!-- Node1&#45;&gt;Node5 -->
<g id="edge4_Node000001_Node000005" class="edge">
<title>Node1&#45;&gt;Node5</title>
<g id="a_edge4_Node000001_Node000005"><a xlink:title=" ">
<path fill="none" stroke="#63b8ff" d="M449.32,-165C407.83,-156.68 342.78,-143.45 277.34,-129.26"/>
<polygon fill="#63b8ff" stroke="#63b8ff" points="277.78,-125.77 267.27,-127.06 276.29,-132.61 277.78,-125.77"/>
</a>
</g>
</g>
<!-- Node6 -->
<g id="Node000006" class="node">
<title>Node6</title>
<g id="a_Node000006"><a xlink:title=" ">
<polygon fill="#e0e0e0" stroke="#999999" points="393,-129 285,-129 285,-110 393,-110 393,-129"/>
<text text-anchor="middle" x="339" y="-117" font-family="Helvetica,sans-Serif" font-size="10.00">gdk/gdkkeysyms.h</text>
</a>
</g>
</g>
<!-- Node1&#45;&gt;Node6 -->
<g id="edge5_Node000001_Node000006" class="edge">
<title>Node1&#45;&gt;Node6</title>
<g id="a_edge5_Node000001_Node000006"><a xlink:title=" ">
<path fill="none" stroke="#63b8ff" d="M467.42,-164.98C441.95,-156.16 401.96,-142.31 373.37,-132.41"/>
<polygon fill="#63b8ff" stroke="#63b8ff" points="374.37,-129.05 363.77,-129.08 372.08,-135.66 374.37,-129.05"/>
</a>
</g>
</g>
<!-- Node7 -->
<g id="Node000007" class="node">
<title>Node7</title>
<g id="a_Node000007"><a xlink:title=" ">
<polygon fill="#e0e0e0" stroke="#999999" points="608,-74 548,-74 548,-55 608,-55 608,-74"/>
<text text-anchor="middle" x="578" y="-62" font-family="Helvetica,sans-Serif" font-size="10.00">gtk/gtk.h</text>
</a>
</g>
</g>
<!-- Node1&#45;&gt;Node7 -->
<g id="edge6_Node000001_Node000007" class="edge">
<title>Node1&#45;&gt;Node7</title>
<g id="a_edge6_Node000001_Node000007"><a xlink:title=" ">
<path fill="none" stroke="#63b8ff" d="M504.73,-164.73C516.04,-156.47 532.53,-143.26 544,-129 555.13,-115.16 564.38,-97.13 570.4,-83.82"/>
<polygon fill="#63b8ff" stroke="#63b8ff" points="573.75,-84.9 574.52,-74.33 567.33,-82.11 573.75,-84.9"/>
</a>
</g>
</g>
<!-- Node8 -->
<g id="Node000008" class="node">
<title>Node8</title>
<g id="a_Node000008"><a xlink:title=" ">
<polygon fill="#e0e0e0" stroke="#999999" points="954.5,-129 865.5,-129 865.5,-110 954.5,-110 954.5,-129"/>
<text text-anchor="middle" x="910" y="-117" font-family="Helvetica,sans-Serif" font-size="10.00">glib/gi18n&#45;lib.h</text>
</a>
</g>
</g>
<!-- Node1&#45;&gt;Node8 -->
<g id="edge7_Node000001_Node000008" class="edge">
<title>Node1&#45;&gt;Node8</title>
<g id="a_edge7_Node000001_Node000008"><a xlink:title=" ">
<path fill="none" stroke="#63b8ff" d="M534.59,-168.5C601.85,-160.53 736.78,-144.31 851,-129 852.3,-128.83 853.61,-128.65 854.94,-128.47"/>
<polygon fill="#63b8ff" stroke="#63b8ff" points="855.81,-131.88 865.24,-127.04 854.85,-124.95 855.81,-131.88"/>
</a>
</g>
</g>
<!-- Node9 -->
<g id="Node000009" class="node">
<title>Node9</title>
<g id="a_Node000009"><a xlink:href="gdict-speller_8h.html" target="_top" xlink:title=" ">
<polygon fill="white" stroke="#666666" points="535,-129 449,-129 449,-110 535,-110 535,-129"/>
<text text-anchor="middle" x="492" y="-117" font-family="Helvetica,sans-Serif" font-size="10.00">gdict&#45;speller.h</text>
</a>
</g>
</g>
<!-- Node1&#45;&gt;Node9 -->
<g id="edge8_Node000001_Node000009" class="edge">
<title>Node1&#45;&gt;Node9</title>
<g id="a_edge8_Node000001_Node000009"><a xlink:title=" ">
<path fill="none" stroke="#63b8ff" d="M492,-164.75C492,-157.8 492,-147.85 492,-139.13"/>
<polygon fill="#63b8ff" stroke="#63b8ff" points="495.5,-139.09 492,-129.09 488.5,-139.09 495.5,-139.09"/>
</a>
</g>
</g>
<!-- Node12 -->
<g id="Node000012" class="node">
<title>Node12</title>
<g id="a_Node000012"><a xlink:href="gdict-utils_8h.html" target="_top" xlink:title=" ">
<polygon fill="white" stroke="#666666" points="665,-129 591,-129 591,-110 665,-110 665,-129"/>
<text text-anchor="middle" x="628" y="-117" font-family="Helvetica,sans-Serif" font-size="10.00">gdict&#45;utils.h</text>
</a>
</g>
</g>
<!-- Node1&#45;&gt;Node12 -->
<g id="edge12_Node000001_Node000012" class="edge">
<title>Node1&#45;&gt;Node12</title>
<g id="a_edge12_Node000001_Node000012"><a xlink:title=" ">
<path fill="none" stroke="#63b8ff" d="M513.85,-164.98C536.12,-156.3 570.9,-142.75 596.22,-132.88"/>
<polygon fill="#63b8ff" stroke="#63b8ff" points="597.71,-136.06 605.75,-129.17 595.16,-129.54 597.71,-136.06"/>
</a>
</g>
</g>
<!-- Node13 -->
<g id="Node000013" class="node">
<title>Node13</title>
<g id="a_Node000013"><a xlink:href="gdict-enum-types_8h.html" target="_top" xlink:title=" ">
<polygon fill="white" stroke="#666666" points="422,-74 310,-74 310,-55 422,-55 422,-74"/>
<text text-anchor="middle" x="366" y="-62" font-family="Helvetica,sans-Serif" font-size="10.00">gdict&#45;enum&#45;types.h</text>
</a>
</g>
</g>
<!-- Node1&#45;&gt;Node13 -->
<g id="edge15_Node000001_Node000013" class="edge">
<title>Node1&#45;&gt;Node13</title>
<g id="a_edge15_Node000001_Node000013"><a xlink:title=" ">
<path fill="none" stroke="#63b8ff" d="M482.03,-164.97C471.56,-156.02 454.62,-141.53 440,-129 420.87,-112.61 398.98,-93.82 384,-80.96"/>
<polygon fill="#63b8ff" stroke="#63b8ff" points="385.92,-77.99 376.05,-74.13 381.36,-83.3 385.92,-77.99"/>
</a>
</g>
</g>
<!-- Node14 -->
<g id="Node000014" class="node">
<title>Node14</title>
<g id="a_Node000014"><a xlink:href="gdict-marshal_8h.html" target="_top" xlink:title=" ">
<polygon fill="white" stroke="#666666" points="757.5,-74 664.5,-74 664.5,-55 757.5,-55 757.5,-74"/>
<text text-anchor="middle" x="711" y="-62" font-family="Helvetica,sans-Serif" font-size="10.00">gdict&#45;marshal.h</text>
</a>
</g>
</g>
<!-- Node1&#45;&gt;Node14 -->
<g id="edge17_Node000001_Node000014" class="edge">
<title>Node1&#45;&gt;Node14</title>
<g id="a_edge17_Node000001_Node000014"><a xlink:title=" ">
<path fill="none" stroke="#63b8ff" d="M534.63,-172.36C574.28,-169.31 633.21,-159.46 674,-129 689.14,-117.7 699.14,-98.23 704.89,-83.82"/>
<polygon fill="#63b8ff" stroke="#63b8ff" points="708.18,-85 708.33,-74.41 701.61,-82.6 708.18,-85"/>
</a>
</g>
</g>
<!-- Node15 -->
<g id="Node000015" class="node">
<title>Node15</title>
<g id="a_Node000015"><a xlink:href="gdict-debug_8h.html" target="_top" xlink:title=" ">
<polygon fill="white" stroke="#666666" points="864.5,-74 781.5,-74 781.5,-55 864.5,-55 864.5,-74"/>
<text text-anchor="middle" x="823" y="-62" font-family="Helvetica,sans-Serif" font-size="10.00">gdict&#45;debug.h</text>
</a>
</g>
</g>
<!-- Node1&#45;&gt;Node15 -->
<g id="edge19_Node000001_Node000015" class="edge">
<title>Node1&#45;&gt;Node15</title>
<g id="a_edge19_Node000001_Node000015"><a xlink:title=" ">
<path fill="none" stroke="#63b8ff" d="M534.64,-174.02C614.08,-174.02 780.15,-169.07 818,-129 829.02,-117.33 829.15,-98.47 827.2,-84.33"/>
<polygon fill="#63b8ff" stroke="#63b8ff" points="830.59,-83.44 825.35,-74.23 823.71,-84.7 830.59,-83.44"/>
</a>
</g>
</g>
<!-- Node17 -->
<g id="Node000017" class="node">
<title>Node17</title>
<g id="a_Node000017"><a xlink:href="gdict-private_8h.html" target="_top" xlink:title=" ">
<polygon fill="white" stroke="#666666" points="809,-129 721,-129 721,-110 809,-110 809,-129"/>
<text text-anchor="middle" x="765" y="-117" font-family="Helvetica,sans-Serif" font-size="10.00">gdict&#45;private.h</text>
</a>
</g>
</g>
<!-- Node1&#45;&gt;Node17 -->
<g id="edge21_Node000001_Node000017" class="edge">
<title>Node1&#45;&gt;Node17</title>
<g id="a_edge21_Node000001_Node000017"><a xlink:title=" ">
<path fill="none" stroke="#63b8ff" d="M534.66,-165.22C582.18,-155.99 659.11,-141.06 710.84,-131.01"/>
<polygon fill="#63b8ff" stroke="#63b8ff" points="711.68,-134.42 720.83,-129.07 710.35,-127.54 711.68,-134.42"/>
</a>
</g>
</g>
<!-- Node9&#45;&gt;Node7 -->
<g id="edge9_Node000009_Node000007" class="edge">
<title>Node9&#45;&gt;Node7</title>
<g id="a_edge9_Node000009_Node000007"><a xlink:title=" ">
<path fill="none" stroke="#63b8ff" d="M505.82,-109.98C519.15,-101.77 539.58,-89.18 555.31,-79.49"/>
<polygon fill="#63b8ff" stroke="#63b8ff" points="557.25,-82.4 563.93,-74.17 553.58,-76.44 557.25,-82.4"/>
</a>
</g>
</g>
<!-- Node10 -->
<g id="Node000010" class="node">
<title>Node10</title>
<g id="a_Node000010"><a xlink:href="gdict-context_8h.html" target="_top" xlink:title=" ">
<polygon fill="white" stroke="#666666" points="530,-74 440,-74 440,-55 530,-55 530,-74"/>
<text text-anchor="middle" x="485" y="-62" font-family="Helvetica,sans-Serif" font-size="10.00">gdict&#45;context.h</text>
</a>
</g>
</g>
<!-- Node9&#45;&gt;Node10 -->
<g id="edge10_Node000009_Node000010" class="edge">
<title>Node9&#45;&gt;Node10</title>
<g id="a_edge10_Node000009_Node000010"><a xlink:title=" ">
<path fill="none" stroke="#63b8ff" d="M490.84,-109.75C489.93,-102.8 488.61,-92.85 487.46,-84.13"/>
<polygon fill="#63b8ff" stroke="#63b8ff" points="490.91,-83.54 486.13,-74.09 483.97,-84.46 490.91,-83.54"/>
</a>
</g>
</g>
<!-- Node11 -->
<g id="Node000011" class="node">
<title>Node11</title>
<g id="a_Node000011"><a xlink:title=" ">
<polygon fill="#e0e0e0" stroke="#999999" points="599.5,-19 522.5,-19 522.5,0 599.5,0 599.5,-19"/>
<text text-anchor="middle" x="561" y="-7" font-family="Helvetica,sans-Serif" font-size="10.00">glib&#45;object.h</text>
</a>
</g>
</g>
<!-- Node10&#45;&gt;Node11 -->
<g id="edge11_Node000010_Node000011" class="edge">
<title>Node10&#45;&gt;Node11</title>
<g id="a_edge11_Node000010_Node000011"><a xlink:title=" ">
<path fill="none" stroke="#63b8ff" d="M497.21,-54.98C508.78,-46.92 526.38,-34.65 540.16,-25.03"/>
<polygon fill="#63b8ff" stroke="#63b8ff" points="542.37,-27.76 548.57,-19.17 538.36,-22.02 542.37,-27.76"/>
</a>
</g>
</g>
<!-- Node12&#45;&gt;Node7 -->
<g id="edge14_Node000012_Node000007" class="edge">
<title>Node12&#45;&gt;Node7</title>
<g id="a_edge14_Node000012_Node000007"><a xlink:title=" ">
<path fill="none" stroke="#63b8ff" d="M619.74,-109.75C612.54,-102.11 601.89,-90.82 593.15,-81.56"/>
<polygon fill="#63b8ff" stroke="#63b8ff" points="595.51,-78.96 586.1,-74.09 590.42,-83.76 595.51,-78.96"/>
</a>
</g>
</g>
<!-- Node12&#45;&gt;Node11 -->
<g id="edge13_Node000012_Node000011" class="edge">
<title>Node12&#45;&gt;Node11</title>
<g id="a_edge13_Node000012_Node000011"><a xlink:title=" ">
<path fill="none" stroke="#63b8ff" d="M628.38,-109.61C628.54,-96.68 627.28,-72.32 617,-55 609.6,-42.53 597.3,-32.17 586.11,-24.6"/>
<polygon fill="#63b8ff" stroke="#63b8ff" points="587.8,-21.53 577.48,-19.14 584.06,-27.45 587.8,-21.53"/>
</a>
</g>
</g>
<!-- Node13&#45;&gt;Node11 -->
<g id="edge16_Node000013_Node000011" class="edge">
<title>Node13&#45;&gt;Node11</title>
<g id="a_edge16_Node000013_Node000011"><a xlink:title=" ">
<path fill="none" stroke="#63b8ff" d="M397.33,-54.98C430.49,-45.97 483,-31.7 519.56,-21.76"/>
<polygon fill="#63b8ff" stroke="#63b8ff" points="520.69,-25.08 529.42,-19.08 518.86,-18.33 520.69,-25.08"/>
</a>
</g>
</g>
<!-- Node14&#45;&gt;Node11 -->
<g id="edge18_Node000014_Node000011" class="edge">
<title>Node14&#45;&gt;Node11</title>
<g id="a_edge18_Node000014_Node000011"><a xlink:title=" ">
<path fill="none" stroke="#63b8ff" d="M686.9,-54.98C662.12,-46.23 623.3,-32.51 595.31,-22.62"/>
<polygon fill="#63b8ff" stroke="#63b8ff" points="596.13,-19.2 585.54,-19.17 593.8,-25.8 596.13,-19.2"/>
</a>
</g>
</g>
<!-- Node16 -->
<g id="Node000016" class="node">
<title>Node16</title>
<g id="a_Node000016"><a xlink:title=" ">
<polygon fill="#e0e0e0" stroke="#999999" points="845,-19 801,-19 801,0 845,0 845,-19"/>
<text text-anchor="middle" x="823" y="-7" font-family="Helvetica,sans-Serif" font-size="10.00">glib.h</text>
</a>
</g>
</g>
<!-- Node15&#45;&gt;Node16 -->
<g id="edge20_Node000015_Node000016" class="edge">
<title>Node15&#45;&gt;Node16</title>
<g id="a_edge20_Node000015_Node000016"><a xlink:title=" ">
<path fill="none" stroke="#63b8ff" d="M823,-54.75C823,-47.8 823,-37.85 823,-29.13"/>
<polygon fill="#63b8ff" stroke="#63b8ff" points="826.5,-29.09 823,-19.09 819.5,-29.09 826.5,-29.09"/>
</a>
</g>
</g>
<!-- Node17&#45;&gt;Node7 -->
<g id="edge22_Node000017_Node000007" class="edge">
<title>Node17&#45;&gt;Node7</title>
<g id="a_edge22_Node000017_Node000007"><a xlink:title=" ">
<path fill="none" stroke="#63b8ff" d="M734.96,-109.98C703.29,-101.01 653.23,-86.82 618.19,-76.89"/>
<polygon fill="#63b8ff" stroke="#63b8ff" points="618.86,-73.44 608.28,-74.08 616.95,-80.18 618.86,-73.44"/>
</a>
</g>
</g>
<!-- Node17&#45;&gt;Node15 -->
<g id="edge23_Node000017_Node000015" class="edge">
<title>Node17&#45;&gt;Node15</title>
<g id="a_edge23_Node000017_Node000015"><a xlink:title=" ">
<path fill="none" stroke="#63b8ff" d="M774.32,-109.98C782.81,-102.23 795.56,-90.58 805.88,-81.14"/>
<polygon fill="#63b8ff" stroke="#63b8ff" points="808.49,-83.5 813.51,-74.17 803.77,-78.33 808.49,-83.5"/>
</a>
</g>
</g>
</g>
</svg>
