<?xml version="1.0" encoding="UTF-8" standalone="no"?>
<!DOCTYPE svg PUBLIC "-//W3C//DTD SVG 1.1//EN"
 "http://www.w3.org/Graphics/SVG/1.1/DTD/svg11.dtd">
<!-- Generated by graphviz version 2.43.0 (0)
 -->
<!-- Title: gdict&#45;pref&#45;dialog.h Pages: 1 -->
<!--zoomable 357 -->

<svg id="main" version="1.1" xmlns="http://www.w3.org/2000/svg" xmlns:xlink="http://www.w3.org/1999/xlink" xml:space="preserve" onload="init(evt)">

<style type="text/css"><![CDATA[
.node, .edge {opacity: 0.7;}
.node.selected, .edge.selected {opacity: 1;}
.edge:hover path { stroke: red; }
.edge:hover polygon { stroke: red; fill: red; }
]]></style>

<defs>
  <circle id="rim" cx="0" cy="0" r="7"/>
  <circle id="rim2" cx="0" cy="0" r="3.5"/>
  <g id="zoomPlus">
    <use xlink:href="#rim" fill="#404040"><set attributeName="fill" to="#808080" begin="zoomplus.mouseover" end="zoomplus.mouseout"/></use>
    <path d="M-4,0h8M0,-4v8" fill="none" stroke="white" stroke-width="1.5" pointer-events="none"/>
  </g>
  <g id="zoomMin">
    <use xlink:href="#rim" fill="#404040"><set attributeName="fill" to="#808080" begin="zoomminus.mouseover" end="zoomminus.mouseout"/></use>
    <path d="M-4,0h8" fill="none" stroke="white" stroke-width="1.5" pointer-events="none"/>
  </g>
  <g id="arrowUp" transform="translate(30 24)">
    <use xlink:href="#rim"/>
    <path pointer-events="none" fill="none" stroke="white" stroke-width="1.5" d="M0,-3.0v7 M-2.5,-0.5L0,-3.0L2.5,-0.5"/>
  </g>
  <g id="arrowRight" transform="rotate(90) translate(36 -43)">
    <use xlink:href="#rim"/>
    <path pointer-events="none" fill="none" stroke="white" stroke-width="1.5" d="M0,-3.0v7 M-2.5,-0.5L0,-3.0L2.5,-0.5"/>
  </g>
  <g id="arrowDown" transform="rotate(180) translate(-30 -48)">
    <use xlink:href="#rim"/>
    <path pointer-events="none" fill="none" stroke="white" stroke-width="1.5" d="M0,-3.0v7 M-2.5,-0.5L0,-3.0L2.5,-0.5"/>
  </g>
  <g id="arrowLeft" transform="rotate(270) translate(-36 17)">
    <use xlink:href="#rim"/>
    <path pointer-events="none" fill="none" stroke="white" stroke-width="1.5" d="M0,-3.0v7 M-2.5,-0.5L0,-3.0L2.5,-0.5"/>
  </g>
  <g id="resetDef">
    <use xlink:href="#rim2" fill="#404040"><set attributeName="fill" to="#808080" begin="reset.mouseover" end="reset.mouseout"/></use>
  </g>
</defs>
<script type="application/ecmascript">
var viewWidth = 1091;
var viewHeight = 357;
var sectionId = 'dynsection-0';
</script>
<script type="application/ecmascript" xlink:href="svg.min.js"/>
<svg id="graph" class="graph">
<g id="viewport">
<title>gdict&#45;pref&#45;dialog.h</title>
<!-- Node1 -->
<g id="Node000001" class="node">
<title>Node1</title>
<g id="a_Node000001"><a xlink:title=" ">
<polygon fill="#999999" stroke="#666666" points="497.5,-349 391.5,-349 391.5,-330 497.5,-330 497.5,-349"/>
<text text-anchor="middle" x="444.5" y="-337" font-family="Helvetica,sans-Serif" font-size="10.00">gdict&#45;pref&#45;dialog.h</text>
</a>
</g>
</g>
<!-- Node2 -->
<g id="Node000002" class="node">
<title>Node2</title>
<g id="a_Node000002"><a xlink:title=" ">
<polygon fill="#e0e0e0" stroke="#999999" points="495.5,-184 435.5,-184 435.5,-165 495.5,-165 495.5,-184"/>
<text text-anchor="middle" x="465.5" y="-172" font-family="Helvetica,sans-Serif" font-size="10.00">gtk/gtk.h</text>
</a>
</g>
</g>
<!-- Node1&#45;&gt;Node2 -->
<g id="edge1_Node000001_Node000002" class="edge">
<title>Node1&#45;&gt;Node2</title>
<g id="a_edge1_Node000001_Node000002"><a xlink:title=" ">
<path fill="none" stroke="#63b8ff" d="M400.01,-329.95C328.99,-314.38 202.57,-277.58 249.5,-220 271.25,-193.32 369,-182.16 425.27,-177.89"/>
<polygon fill="#63b8ff" stroke="#63b8ff" points="425.54,-181.38 435.26,-177.17 425.04,-174.4 425.54,-181.38"/>
</a>
</g>
</g>
<!-- Node3 -->
<g id="Node000003" class="node">
<title>Node3</title>
<g id="a_Node000003"><a xlink:href="gdict_8h.html" target="_top" xlink:title=" ">
<polygon fill="white" stroke="#666666" points="704,-294 615,-294 615,-275 704,-275 704,-294"/>
<text text-anchor="middle" x="659.5" y="-282" font-family="Helvetica,sans-Serif" font-size="10.00">libgdict/gdict.h</text>
</a>
</g>
</g>
<!-- Node1&#45;&gt;Node3 -->
<g id="edge2_Node000001_Node000003" class="edge">
<title>Node1&#45;&gt;Node3</title>
<g id="a_edge2_Node000001_Node000003"><a xlink:title=" ">
<path fill="none" stroke="#63b8ff" d="M479.04,-329.98C515.92,-320.89 574.49,-306.46 614.84,-296.51"/>
<polygon fill="#63b8ff" stroke="#63b8ff" points="615.81,-299.87 624.69,-294.08 614.14,-293.08 615.81,-299.87"/>
</a>
</g>
</g>
<!-- Node4 -->
<g id="Node000004" class="node">
<title>Node4</title>
<g id="a_Node000004"><a xlink:href="gdict-context_8h.html" target="_top" xlink:title=" ">
<polygon fill="white" stroke="#666666" points="514.5,-74 424.5,-74 424.5,-55 514.5,-55 514.5,-74"/>
<text text-anchor="middle" x="469.5" y="-62" font-family="Helvetica,sans-Serif" font-size="10.00">gdict&#45;context.h</text>
</a>
</g>
</g>
<!-- Node3&#45;&gt;Node4 -->
<g id="edge3_Node000003_Node000004" class="edge">
<title>Node3&#45;&gt;Node4</title>
<g id="a_edge3_Node000003_Node000004"><a xlink:title=" ">
<path fill="none" stroke="#63b8ff" d="M673.51,-274.95C690.88,-263.19 716.89,-241.08 705.5,-220 663.41,-142.13 563.11,-97.2 507.78,-77.52"/>
<polygon fill="#63b8ff" stroke="#63b8ff" points="508.59,-74.09 497.99,-74.13 506.3,-80.71 508.59,-74.09"/>
</a>
</g>
</g>
<!-- Node6 -->
<g id="Node000006" class="node">
<title>Node6</title>
<g id="a_Node000006"><a xlink:href="gdict-client-context_8h.html" target="_top" xlink:title=" ">
<polygon fill="white" stroke="#666666" points="121,-129 0,-129 0,-110 121,-110 121,-129"/>
<text text-anchor="middle" x="60.5" y="-117" font-family="Helvetica,sans-Serif" font-size="10.00">gdict&#45;client&#45;context.h</text>
</a>
</g>
</g>
<!-- Node3&#45;&gt;Node6 -->
<g id="edge5_Node000003_Node000006" class="edge">
<title>Node3&#45;&gt;Node6</title>
<g id="a_edge5_Node000003_Node000006"><a xlink:title=" ">
<path fill="none" stroke="#63b8ff" d="M614.85,-283.64C481.25,-283.59 91.51,-279.91 53.5,-239 28.22,-211.8 41.99,-164.19 52.37,-138.37"/>
<polygon fill="#63b8ff" stroke="#63b8ff" points="55.64,-139.62 56.35,-129.05 49.2,-136.87 55.64,-139.62"/>
</a>
</g>
</g>
<!-- Node7 -->
<g id="Node000007" class="node">
<title>Node7</title>
<g id="a_Node000007"><a xlink:href="gdict-source_8h.html" target="_top" xlink:title=" ">
<polygon fill="white" stroke="#666666" points="876.5,-129 790.5,-129 790.5,-110 876.5,-110 876.5,-129"/>
<text text-anchor="middle" x="833.5" y="-117" font-family="Helvetica,sans-Serif" font-size="10.00">gdict&#45;source.h</text>
</a>
</g>
</g>
<!-- Node3&#45;&gt;Node7 -->
<g id="edge7_Node000003_Node000007" class="edge">
<title>Node3&#45;&gt;Node7</title>
<g id="a_edge7_Node000003_Node000007"><a xlink:title=" ">
<path fill="none" stroke="#63b8ff" d="M704.25,-282.03C768.08,-278.88 880.35,-269.1 905.5,-239 916.82,-225.44 911.6,-191.75 894.5,-165 886.23,-152.06 872.75,-141.65 860.57,-134.16"/>
<polygon fill="#63b8ff" stroke="#63b8ff" points="862.03,-130.96 851.61,-129 858.54,-137.02 862.03,-130.96"/>
</a>
</g>
</g>
<!-- Node9 -->
<g id="Node000009" class="node">
<title>Node9</title>
<g id="a_Node000009"><a xlink:href="gdict-source-loader_8h.html" target="_top" xlink:title=" ">
<polygon fill="white" stroke="#666666" points="885,-184 766,-184 766,-165 885,-165 885,-184"/>
<text text-anchor="middle" x="825.5" y="-172" font-family="Helvetica,sans-Serif" font-size="10.00">gdict&#45;source&#45;loader.h</text>
</a>
</g>
</g>
<!-- Node3&#45;&gt;Node9 -->
<g id="edge11_Node000003_Node000009" class="edge">
<title>Node3&#45;&gt;Node9</title>
<g id="a_edge11_Node000003_Node000009"><a xlink:title=" ">
<path fill="none" stroke="#63b8ff" d="M704.13,-281.4C764.27,-277.53 866.46,-266.92 889.5,-239 904.98,-220.24 878.09,-200.86 854.56,-188.53"/>
<polygon fill="#63b8ff" stroke="#63b8ff" points="855.99,-185.33 845.48,-184 852.87,-191.59 855.99,-185.33"/>
</a>
</g>
</g>
<!-- Node10 -->
<g id="Node000010" class="node">
<title>Node10</title>
<g id="a_Node000010"><a xlink:href="gdict-source-chooser_8h.html" target="_top" xlink:title=" ">
<polygon fill="white" stroke="#666666" points="880,-239 753,-239 753,-220 880,-220 880,-239"/>
<text text-anchor="middle" x="816.5" y="-227" font-family="Helvetica,sans-Serif" font-size="10.00">gdict&#45;source&#45;chooser.h</text>
</a>
</g>
</g>
<!-- Node3&#45;&gt;Node10 -->
<g id="edge14_Node000003_Node000010" class="edge">
<title>Node3&#45;&gt;Node10</title>
<g id="a_edge14_Node000003_Node000010"><a xlink:title=" ">
<path fill="none" stroke="#63b8ff" d="M684.72,-274.98C710.86,-266.16 751.9,-252.31 781.23,-242.41"/>
<polygon fill="#63b8ff" stroke="#63b8ff" points="782.72,-245.6 791.08,-239.08 780.48,-238.96 782.72,-245.6"/>
</a>
</g>
</g>
<!-- Node11 -->
<g id="Node000011" class="node">
<title>Node11</title>
<g id="a_Node000011"><a xlink:href="gdict-database-chooser_8h.html" target="_top" xlink:title=" ">
<polygon fill="white" stroke="#666666" points="202.5,-239 62.5,-239 62.5,-220 202.5,-220 202.5,-239"/>
<text text-anchor="middle" x="132.5" y="-227" font-family="Helvetica,sans-Serif" font-size="10.00">gdict&#45;database&#45;chooser.h</text>
</a>
</g>
</g>
<!-- Node3&#45;&gt;Node11 -->
<g id="edge17_Node000003_Node000011" class="edge">
<title>Node3&#45;&gt;Node11</title>
<g id="a_edge17_Node000003_Node000011"><a xlink:title=" ">
<path fill="none" stroke="#63b8ff" d="M614.57,-278.98C525.5,-270.02 325.47,-249.91 213.08,-238.6"/>
<polygon fill="#63b8ff" stroke="#63b8ff" points="213.11,-235.09 202.81,-237.57 212.41,-242.05 213.11,-235.09"/>
</a>
</g>
</g>
<!-- Node12 -->
<g id="Node000012" class="node">
<title>Node12</title>
<g id="a_Node000012"><a xlink:href="gdict-defbox_8h.html" target="_top" xlink:title=" ">
<polygon fill="white" stroke="#666666" points="346,-239 259,-239 259,-220 346,-220 346,-239"/>
<text text-anchor="middle" x="302.5" y="-227" font-family="Helvetica,sans-Serif" font-size="10.00">gdict&#45;defbox.h</text>
</a>
</g>
</g>
<!-- Node3&#45;&gt;Node12 -->
<g id="edge20_Node000003_Node000012" class="edge">
<title>Node3&#45;&gt;Node12</title>
<g id="a_edge20_Node000003_Node000012"><a xlink:title=" ">
<path fill="none" stroke="#63b8ff" d="M614.91,-277.17C557.61,-268.99 454.75,-254.16 356.29,-239.1"/>
<polygon fill="#63b8ff" stroke="#63b8ff" points="356.58,-235.61 346.17,-237.55 355.52,-242.53 356.58,-235.61"/>
</a>
</g>
</g>
<!-- Node13 -->
<g id="Node000013" class="node">
<title>Node13</title>
<g id="a_Node000013"><a xlink:href="gdict-speller_8h.html" target="_top" xlink:title=" ">
<polygon fill="white" stroke="#666666" points="450.5,-239 364.5,-239 364.5,-220 450.5,-220 450.5,-239"/>
<text text-anchor="middle" x="407.5" y="-227" font-family="Helvetica,sans-Serif" font-size="10.00">gdict&#45;speller.h</text>
</a>
</g>
</g>
<!-- Node3&#45;&gt;Node13 -->
<g id="edge23_Node000003_Node000013" class="edge">
<title>Node3&#45;&gt;Node13</title>
<g id="a_edge23_Node000003_Node000013"><a xlink:title=" ">
<path fill="none" stroke="#63b8ff" d="M619.01,-274.98C575.33,-265.8 505.69,-251.15 458.35,-241.19"/>
<polygon fill="#63b8ff" stroke="#63b8ff" points="458.81,-237.72 448.31,-239.08 457.37,-244.57 458.81,-237.72"/>
</a>
</g>
</g>
<!-- Node14 -->
<g id="Node000014" class="node">
<title>Node14</title>
<g id="a_Node000014"><a xlink:href="gdict-strategy-chooser_8h.html" target="_top" xlink:title=" ">
<polygon fill="white" stroke="#666666" points="604,-239 469,-239 469,-220 604,-220 604,-239"/>
<text text-anchor="middle" x="536.5" y="-227" font-family="Helvetica,sans-Serif" font-size="10.00">gdict&#45;strategy&#45;chooser.h</text>
</a>
</g>
</g>
<!-- Node3&#45;&gt;Node14 -->
<g id="edge26_Node000003_Node000014" class="edge">
<title>Node3&#45;&gt;Node14</title>
<g id="a_edge26_Node000003_Node000014"><a xlink:title=" ">
<path fill="none" stroke="#63b8ff" d="M639.74,-274.98C619.77,-266.38 588.7,-252.99 565.85,-243.15"/>
<polygon fill="#63b8ff" stroke="#63b8ff" points="567.19,-239.91 556.62,-239.17 564.42,-246.34 567.19,-239.91"/>
</a>
</g>
</g>
<!-- Node15 -->
<g id="Node000015" class="node">
<title>Node15</title>
<g id="a_Node000015"><a xlink:href="gdict-utils_8h.html" target="_top" xlink:title=" ">
<polygon fill="white" stroke="#666666" points="696.5,-239 622.5,-239 622.5,-220 696.5,-220 696.5,-239"/>
<text text-anchor="middle" x="659.5" y="-227" font-family="Helvetica,sans-Serif" font-size="10.00">gdict&#45;utils.h</text>
</a>
</g>
</g>
<!-- Node3&#45;&gt;Node15 -->
<g id="edge29_Node000003_Node000015" class="edge">
<title>Node3&#45;&gt;Node15</title>
<g id="a_edge29_Node000003_Node000015"><a xlink:title=" ">
<path fill="none" stroke="#63b8ff" d="M659.5,-274.75C659.5,-267.8 659.5,-257.85 659.5,-249.13"/>
<polygon fill="#63b8ff" stroke="#63b8ff" points="663,-249.09 659.5,-239.09 656,-249.09 663,-249.09"/>
</a>
</g>
</g>
<!-- Node16 -->
<g id="Node000016" class="node">
<title>Node16</title>
<g id="a_Node000016"><a xlink:href="gdict-enum-types_8h.html" target="_top" xlink:title=" ">
<polygon fill="white" stroke="#666666" points="1077.5,-129 965.5,-129 965.5,-110 1077.5,-110 1077.5,-129"/>
<text text-anchor="middle" x="1021.5" y="-117" font-family="Helvetica,sans-Serif" font-size="10.00">gdict&#45;enum&#45;types.h</text>
</a>
</g>
</g>
<!-- Node3&#45;&gt;Node16 -->
<g id="edge32_Node000003_Node000016" class="edge">
<title>Node3&#45;&gt;Node16</title>
<g id="a_edge32_Node000003_Node000016"><a xlink:title=" ">
<path fill="none" stroke="#63b8ff" d="M704.11,-282.01C806.05,-278.13 1049.13,-266.12 1073.5,-239 1101,-208.38 1062.52,-160.91 1038.41,-136.38"/>
<polygon fill="#63b8ff" stroke="#63b8ff" points="1040.77,-133.79 1031.18,-129.27 1035.86,-138.78 1040.77,-133.79"/>
</a>
</g>
</g>
<!-- Node17 -->
<g id="Node000017" class="node">
<title>Node17</title>
<g id="a_Node000017"><a xlink:href="gdict-version_8h.html" target="_top" xlink:title=" ">
<polygon fill="white" stroke="#666666" points="1064,-239 975,-239 975,-220 1064,-220 1064,-239"/>
<text text-anchor="middle" x="1019.5" y="-227" font-family="Helvetica,sans-Serif" font-size="10.00">gdict&#45;version.h</text>
</a>
</g>
</g>
<!-- Node3&#45;&gt;Node17 -->
<g id="edge34_Node000003_Node000017" class="edge">
<title>Node3&#45;&gt;Node17</title>
<g id="a_edge34_Node000003_Node000017"><a xlink:title=" ">
<path fill="none" stroke="#63b8ff" d="M704,-276.95C769.9,-267.25 893.29,-249.08 964.67,-238.57"/>
<polygon fill="#63b8ff" stroke="#63b8ff" points="965.43,-242 974.82,-237.08 964.41,-235.07 965.43,-242"/>
</a>
</g>
</g>
<!-- Node5 -->
<g id="Node000005" class="node">
<title>Node5</title>
<g id="a_Node000005"><a xlink:title=" ">
<polygon fill="#e0e0e0" stroke="#999999" points="801,-19 724,-19 724,0 801,0 801,-19"/>
<text text-anchor="middle" x="762.5" y="-7" font-family="Helvetica,sans-Serif" font-size="10.00">glib&#45;object.h</text>
</a>
</g>
</g>
<!-- Node4&#45;&gt;Node5 -->
<g id="edge4_Node000004_Node000005" class="edge">
<title>Node4&#45;&gt;Node5</title>
<g id="a_edge4_Node000004_Node000005"><a xlink:title=" ">
<path fill="none" stroke="#63b8ff" d="M514.64,-55.33C568.59,-45.58 658.51,-29.31 713.93,-19.29"/>
<polygon fill="#63b8ff" stroke="#63b8ff" points="714.64,-22.71 723.86,-17.49 713.4,-15.83 714.64,-22.71"/>
</a>
</g>
</g>
<!-- Node6&#45;&gt;Node4 -->
<g id="edge6_Node000006_Node000004" class="edge">
<title>Node6&#45;&gt;Node4</title>
<g id="a_edge6_Node000006_Node000004"><a xlink:title=" ">
<path fill="none" stroke="#63b8ff" d="M121.29,-110.62C200.46,-100.36 337.73,-82.58 414.13,-72.67"/>
<polygon fill="#63b8ff" stroke="#63b8ff" points="415.03,-76.09 424.5,-71.33 414.13,-69.15 415.03,-76.09"/>
</a>
</g>
</g>
<!-- Node7&#45;&gt;Node4 -->
<g id="edge10_Node000007_Node000004" class="edge">
<title>Node7&#45;&gt;Node4</title>
<g id="a_edge10_Node000007_Node000004"><a xlink:title=" ">
<path fill="none" stroke="#63b8ff" d="M790.32,-112.21C724.04,-102.56 597.29,-84.11 524.52,-73.51"/>
<polygon fill="#63b8ff" stroke="#63b8ff" points="525.02,-70.05 514.62,-72.07 524.01,-76.97 525.02,-70.05"/>
</a>
</g>
</g>
<!-- Node7&#45;&gt;Node5 -->
<g id="edge9_Node000007_Node000005" class="edge">
<title>Node7&#45;&gt;Node5</title>
<g id="a_edge9_Node000007_Node000005"><a xlink:title=" ">
<path fill="none" stroke="#63b8ff" d="M841.13,-109.73C851.27,-96.94 866.7,-72.77 855.5,-55 845.44,-39.03 827.88,-28.66 810.71,-22"/>
<polygon fill="#63b8ff" stroke="#63b8ff" points="811.86,-18.69 801.26,-18.66 809.53,-25.29 811.86,-18.69"/>
</a>
</g>
</g>
<!-- Node8 -->
<g id="Node000008" class="node">
<title>Node8</title>
<g id="a_Node000008"><a xlink:title=" ">
<polygon fill="#e0e0e0" stroke="#999999" points="846.5,-74 790.5,-74 790.5,-55 846.5,-55 846.5,-74"/>
<text text-anchor="middle" x="818.5" y="-62" font-family="Helvetica,sans-Serif" font-size="10.00">stdarg.h</text>
</a>
</g>
</g>
<!-- Node7&#45;&gt;Node8 -->
<g id="edge8_Node000007_Node000008" class="edge">
<title>Node7&#45;&gt;Node8</title>
<g id="a_edge8_Node000007_Node000008"><a xlink:title=" ">
<path fill="none" stroke="#63b8ff" d="M831.02,-109.75C829.04,-102.72 826.18,-92.62 823.69,-83.84"/>
<polygon fill="#63b8ff" stroke="#63b8ff" points="827.02,-82.76 820.93,-74.09 820.29,-84.66 827.02,-82.76"/>
</a>
</g>
</g>
<!-- Node9&#45;&gt;Node5 -->
<g id="edge12_Node000009_Node000005" class="edge">
<title>Node9&#45;&gt;Node5</title>
<g id="a_edge12_Node000009_Node000005"><a xlink:title=" ">
<path fill="none" stroke="#63b8ff" d="M813.31,-164.73C803.08,-156.65 788.97,-143.73 781.5,-129 765.14,-96.74 762.23,-53.74 762.05,-29.4"/>
<polygon fill="#63b8ff" stroke="#63b8ff" points="765.56,-29.11 762.14,-19.08 758.56,-29.05 765.56,-29.11"/>
</a>
</g>
</g>
<!-- Node9&#45;&gt;Node7 -->
<g id="edge13_Node000009_Node000007" class="edge">
<title>Node9&#45;&gt;Node7</title>
<g id="a_edge13_Node000009_Node000007"><a xlink:title=" ">
<path fill="none" stroke="#63b8ff" d="M826.82,-164.75C827.87,-157.8 829.37,-147.85 830.69,-139.13"/>
<polygon fill="#63b8ff" stroke="#63b8ff" points="834.17,-139.5 832.2,-129.09 827.25,-138.45 834.17,-139.5"/>
</a>
</g>
</g>
<!-- Node10&#45;&gt;Node2 -->
<g id="edge15_Node000010_Node000002" class="edge">
<title>Node10&#45;&gt;Node2</title>
<g id="a_edge15_Node000010_Node000002"><a xlink:title=" ">
<path fill="none" stroke="#63b8ff" d="M760.11,-219.98C689.03,-209.25 568.6,-191.07 506,-181.62"/>
<polygon fill="#63b8ff" stroke="#63b8ff" points="506.15,-178.1 495.74,-180.07 505.1,-185.02 506.15,-178.1"/>
</a>
</g>
</g>
<!-- Node10&#45;&gt;Node9 -->
<g id="edge16_Node000010_Node000009" class="edge">
<title>Node10&#45;&gt;Node9</title>
<g id="a_edge16_Node000010_Node000009"><a xlink:title=" ">
<path fill="none" stroke="#63b8ff" d="M817.99,-219.75C819.17,-212.8 820.86,-202.85 822.34,-194.13"/>
<polygon fill="#63b8ff" stroke="#63b8ff" points="825.82,-194.53 824.04,-184.09 818.92,-193.36 825.82,-194.53"/>
</a>
</g>
</g>
<!-- Node11&#45;&gt;Node2 -->
<g id="edge18_Node000011_Node000002" class="edge">
<title>Node11&#45;&gt;Node2</title>
<g id="a_edge18_Node000011_Node000002"><a xlink:title=" ">
<path fill="none" stroke="#63b8ff" d="M186,-219.98C252.6,-209.38 364.87,-191.52 424.85,-181.97"/>
<polygon fill="#63b8ff" stroke="#63b8ff" points="425.74,-185.37 435.07,-180.34 424.64,-178.46 425.74,-185.37"/>
</a>
</g>
</g>
<!-- Node11&#45;&gt;Node4 -->
<g id="edge19_Node000011_Node000004" class="edge">
<title>Node11&#45;&gt;Node4</title>
<g id="a_edge19_Node000011_Node000004"><a xlink:title=" ">
<path fill="none" stroke="#63b8ff" d="M150.14,-219.97C205.52,-193.18 376.13,-110.66 442.6,-78.51"/>
<polygon fill="#63b8ff" stroke="#63b8ff" points="444.15,-81.65 451.62,-74.15 441.1,-75.35 444.15,-81.65"/>
</a>
</g>
</g>
<!-- Node12&#45;&gt;Node2 -->
<g id="edge21_Node000012_Node000002" class="edge">
<title>Node12&#45;&gt;Node2</title>
<g id="a_edge21_Node000012_Node000002"><a xlink:title=" ">
<path fill="none" stroke="#63b8ff" d="M328.69,-219.98C355.94,-211.13 398.8,-197.19 429.28,-187.28"/>
<polygon fill="#63b8ff" stroke="#63b8ff" points="430.68,-190.5 439.11,-184.08 428.51,-183.85 430.68,-190.5"/>
</a>
</g>
</g>
<!-- Node12&#45;&gt;Node4 -->
<g id="edge22_Node000012_Node000004" class="edge">
<title>Node12&#45;&gt;Node4</title>
<g id="a_edge22_Node000012_Node000004"><a xlink:title=" ">
<path fill="none" stroke="#63b8ff" d="M311.48,-219.74C338.32,-193.53 418.26,-115.51 453.03,-81.57"/>
<polygon fill="#63b8ff" stroke="#63b8ff" points="455.77,-83.8 460.48,-74.31 450.88,-78.79 455.77,-83.8"/>
</a>
</g>
</g>
<!-- Node13&#45;&gt;Node2 -->
<g id="edge24_Node000013_Node000002" class="edge">
<title>Node13&#45;&gt;Node2</title>
<g id="a_edge24_Node000013_Node000002"><a xlink:title=" ">
<path fill="none" stroke="#63b8ff" d="M416.82,-219.98C425.31,-212.23 438.06,-200.58 448.38,-191.14"/>
<polygon fill="#63b8ff" stroke="#63b8ff" points="450.99,-193.5 456.01,-184.17 446.27,-188.33 450.99,-193.5"/>
</a>
</g>
</g>
<!-- Node13&#45;&gt;Node4 -->
<g id="edge25_Node000013_Node000004" class="edge">
<title>Node13&#45;&gt;Node4</title>
<g id="a_edge25_Node000013_Node000004"><a xlink:title=" ">
<path fill="none" stroke="#63b8ff" d="M409.76,-219.77C413.04,-207.43 419.49,-184.25 426.5,-165 437.09,-135.92 451.82,-103.15 461,-83.42"/>
<polygon fill="#63b8ff" stroke="#63b8ff" points="464.27,-84.68 465.35,-74.15 457.93,-81.71 464.27,-84.68"/>
</a>
</g>
</g>
<!-- Node14&#45;&gt;Node2 -->
<g id="edge27_Node000014_Node000002" class="edge">
<title>Node14&#45;&gt;Node2</title>
<g id="a_edge27_Node000014_Node000002"><a xlink:title=" ">
<path fill="none" stroke="#63b8ff" d="M525.09,-219.98C514.39,-212 498.16,-199.88 485.34,-190.31"/>
<polygon fill="#63b8ff" stroke="#63b8ff" points="487.22,-187.35 477.11,-184.17 483.03,-192.96 487.22,-187.35"/>
</a>
</g>
</g>
<!-- Node14&#45;&gt;Node4 -->
<g id="edge28_Node000014_Node000004" class="edge">
<title>Node14&#45;&gt;Node4</title>
<g id="a_edge28_Node000014_Node000004"><a xlink:title=" ">
<path fill="none" stroke="#63b8ff" d="M532.9,-219.74C522.36,-194.09 491.4,-118.78 477.01,-83.78"/>
<polygon fill="#63b8ff" stroke="#63b8ff" points="480.16,-82.23 473.12,-74.31 473.68,-84.89 480.16,-82.23"/>
</a>
</g>
</g>
<!-- Node15&#45;&gt;Node2 -->
<g id="edge31_Node000015_Node000002" class="edge">
<title>Node15&#45;&gt;Node2</title>
<g id="a_edge31_Node000015_Node000002"><a xlink:title=" ">
<path fill="none" stroke="#63b8ff" d="M628.33,-219.98C594.95,-210.86 541.86,-196.36 505.44,-186.41"/>
<polygon fill="#63b8ff" stroke="#63b8ff" points="506.2,-182.99 495.63,-183.73 504.36,-189.74 506.2,-182.99"/>
</a>
</g>
</g>
<!-- Node15&#45;&gt;Node5 -->
<g id="edge30_Node000015_Node000005" class="edge">
<title>Node15&#45;&gt;Node5</title>
<g id="a_edge30_Node000015_Node000005"><a xlink:title=" ">
<path fill="none" stroke="#63b8ff" d="M663.54,-219.95C678.76,-187.74 732.86,-73.23 753.97,-28.55"/>
<polygon fill="#63b8ff" stroke="#63b8ff" points="757.27,-29.76 758.38,-19.22 750.94,-26.77 757.27,-29.76"/>
</a>
</g>
</g>
<!-- Node16&#45;&gt;Node5 -->
<g id="edge33_Node000016_Node000005" class="edge">
<title>Node16&#45;&gt;Node5</title>
<g id="a_edge33_Node000016_Node000005"><a xlink:title=" ">
<path fill="none" stroke="#63b8ff" d="M1001,-109.83C971.98,-97.55 917.23,-74.45 870.5,-55 844.36,-44.12 814.61,-31.87 792.96,-22.98"/>
<polygon fill="#63b8ff" stroke="#63b8ff" points="794.21,-19.71 783.63,-19.15 791.55,-26.19 794.21,-19.71"/>
</a>
</g>
</g>
<!-- Node18 -->
<g id="Node000018" class="node">
<title>Node18</title>
<g id="a_Node000018"><a xlink:title=" ">
<polygon fill="#e0e0e0" stroke="#999999" points="1041.5,-184 997.5,-184 997.5,-165 1041.5,-165 1041.5,-184"/>
<text text-anchor="middle" x="1019.5" y="-172" font-family="Helvetica,sans-Serif" font-size="10.00">glib.h</text>
</a>
</g>
</g>
<!-- Node17&#45;&gt;Node18 -->
<g id="edge35_Node000017_Node000018" class="edge">
<title>Node17&#45;&gt;Node18</title>
<g id="a_edge35_Node000017_Node000018"><a xlink:title=" ">
<path fill="none" stroke="#63b8ff" d="M1019.5,-219.75C1019.5,-212.8 1019.5,-202.85 1019.5,-194.13"/>
<polygon fill="#63b8ff" stroke="#63b8ff" points="1023,-194.09 1019.5,-184.09 1016,-194.09 1023,-194.09"/>
</a>
</g>
</g>
</g>
</svg>

<g id="navigator" transform="translate(0 0)" fill="#404254">
  <rect fill="#f2f5e9" fill-opacity="0.5" stroke="#606060" stroke-width=".5" x="0" y="0" width="60" height="60"/>
  <use id="zoomplus" xlink:href="#zoomPlus" x="17" y="9" onmousedown="handleZoom(evt,'in')"/>
  <use id="zoomminus" xlink:href="#zoomMin" x="42" y="9" onmousedown="handleZoom(evt,'out')"/>
  <use id="reset" xlink:href="#resetDef" x="30" y="36" onmousedown="handleReset()"/>
   <use id="arrowup" xlink:href="#arrowUp" x="0" y="0" onmousedown="handlePan(0,-1)"/>
  <use id="arrowright" xlink:href="#arrowRight" x="0" y="0" onmousedown="handlePan(1,0)"/>
  <use id="arrowdown" xlink:href="#arrowDown" x="0" y="0" onmousedown="handlePan(0,1)"/>
  <use id="arrowleft" xlink:href="#arrowLeft" x="0" y="0" onmousedown="handlePan(-1,0)"/>
</g>
<svg viewBox="0 0 15 15" width="100%" height="30px" preserveAspectRatio="xMaxYMin meet">
 <g id="arrow_out" transform="scale(0.3 0.3)">
  <a xlink:href="gdict-pref-dialog_8h__incl_org.svg" target="_base">
   <rect id="button" ry="5" rx="5" y="6" x="6" height="38" width="38"
        fill="#f2f5e9" fill-opacity="0.5" stroke="#606060" stroke-width="1.0"/>
   <path id="arrow"
     d="M 11.500037,31.436501 C 11.940474,20.09759 22.043105,11.32322 32.158766,21.979434 L 37.068811,17.246167 C 37.068811,17.246167 37.088388,32 37.088388,32 L 22.160133,31.978069 C 22.160133,31.978069 26.997745,27.140456 26.997745,27.140456 C 18.528582,18.264221 13.291696,25.230495 11.500037,31.436501 z"
     style="fill:#404040;"/>
  </a>
 </g>
</svg>

<style type='text/css'>
<![CDATA[
[data-mouse-over-selected='false'] { opacity: 0.7; }
[data-mouse-over-selected='true']  { opacity: 1.0; }
]]>
</style>
<script type="application/ecmascript"><![CDATA[
document.addEventListener('DOMContentLoaded', (event) => {
  highlightEdges();
  highlightAdjacentNodes();
});
]]></script>
</svg>
