<?xml version="1.0" encoding="UTF-8" standalone="no"?>
<!DOCTYPE svg PUBLIC "-//W3C//DTD SVG 1.1//EN"
 "http://www.w3.org/Graphics/SVG/1.1/DTD/svg11.dtd">
<!-- Generated by graphviz version 2.43.0 (0)
 -->
<!-- Title: gdict&#45;source&#45;chooser.c Pages: 1 -->
<svg width="828pt" height="302pt"
 viewBox="0.00 0.00 828.00 302.00" xmlns="http://www.w3.org/2000/svg" xmlns:xlink="http://www.w3.org/1999/xlink">
<g id="graph0" class="graph" transform="scale(1 1) rotate(0) translate(4 298)">
<title>gdict&#45;source&#45;chooser.c</title>
<!-- Node1 -->
<g id="Node000001" class="node">
<title>Node1</title>
<g id="a_Node000001"><a xlink:title=" ">
<polygon fill="#999999" stroke="#666666" points="451.5,-294 325.5,-294 325.5,-275 451.5,-275 451.5,-294"/>
<text text-anchor="middle" x="388.5" y="-282" font-family="Helvetica,sans-Serif" font-size="10.00">gdict&#45;source&#45;chooser.c</text>
</a>
</g>
</g>
<!-- Node2 -->
<g id="Node000002" class="node">
<title>Node2</title>
<g id="a_Node000002"><a xlink:title=" ">
<polygon fill="#e0e0e0" stroke="#999999" points="53,-239 0,-239 0,-220 53,-220 53,-239"/>
<text text-anchor="middle" x="26.5" y="-227" font-family="Helvetica,sans-Serif" font-size="10.00">stdlib.h</text>
</a>
</g>
</g>
<!-- Node1&#45;&gt;Node2 -->
<g id="edge1_Node000001_Node000002" class="edge">
<title>Node1&#45;&gt;Node2</title>
<g id="a_edge1_Node000001_Node000002"><a xlink:title=" ">
<path fill="none" stroke="#63b8ff" d="M325.2,-276.84C261.29,-269.68 159.59,-257.08 63.11,-239.15"/>
<polygon fill="#63b8ff" stroke="#63b8ff" points="63.67,-235.69 53.19,-237.28 62.37,-242.57 63.67,-235.69"/>
</a>
</g>
</g>
<!-- Node3 -->
<g id="Node000003" class="node">
<title>Node3</title>
<g id="a_Node000003"><a xlink:title=" ">
<polygon fill="#e0e0e0" stroke="#999999" points="124,-239 71,-239 71,-220 124,-220 124,-239"/>
<text text-anchor="middle" x="97.5" y="-227" font-family="Helvetica,sans-Serif" font-size="10.00">string.h</text>
</a>
</g>
</g>
<!-- Node1&#45;&gt;Node3 -->
<g id="edge2_Node000001_Node000003" class="edge">
<title>Node1&#45;&gt;Node3</title>
<g id="a_edge2_Node000001_Node000003"><a xlink:title=" ">
<path fill="none" stroke="#63b8ff" d="M333.37,-275C283.62,-267.08 208.22,-254.48 134.17,-239.25"/>
<polygon fill="#63b8ff" stroke="#63b8ff" points="134.71,-235.78 124.21,-237.18 133.29,-242.64 134.71,-235.78"/>
</a>
</g>
</g>
<!-- Node4 -->
<g id="Node000004" class="node">
<title>Node4</title>
<g id="a_Node000004"><a xlink:title=" ">
<polygon fill="#e0e0e0" stroke="#999999" points="231,-239 142,-239 142,-220 231,-220 231,-239"/>
<text text-anchor="middle" x="186.5" y="-227" font-family="Helvetica,sans-Serif" font-size="10.00">glib/gi18n&#45;lib.h</text>
</a>
</g>
</g>
<!-- Node1&#45;&gt;Node4 -->
<g id="edge3_Node000001_Node000004" class="edge">
<title>Node1&#45;&gt;Node4</title>
<g id="a_edge3_Node000001_Node000004"><a xlink:title=" ">
<path fill="none" stroke="#63b8ff" d="M356.05,-274.98C321.54,-265.93 266.84,-251.58 228.94,-241.64"/>
<polygon fill="#63b8ff" stroke="#63b8ff" points="229.77,-238.23 219.21,-239.08 227.99,-245.01 229.77,-238.23"/>
</a>
</g>
</g>
<!-- Node5 -->
<g id="Node000005" class="node">
<title>Node5</title>
<g id="a_Node000005"><a xlink:title=" ">
<polygon fill="#e0e0e0" stroke="#999999" points="314,-239 249,-239 249,-220 314,-220 314,-239"/>
<text text-anchor="middle" x="281.5" y="-227" font-family="Helvetica,sans-Serif" font-size="10.00">gdk/gdk.h</text>
</a>
</g>
</g>
<!-- Node1&#45;&gt;Node5 -->
<g id="edge4_Node000001_Node000005" class="edge">
<title>Node1&#45;&gt;Node5</title>
<g id="a_edge4_Node000001_Node000005"><a xlink:title=" ">
<path fill="none" stroke="#63b8ff" d="M371.31,-274.98C354.25,-266.54 327.87,-253.47 308.1,-243.68"/>
<polygon fill="#63b8ff" stroke="#63b8ff" points="309.52,-240.47 299,-239.17 306.41,-246.75 309.52,-240.47"/>
</a>
</g>
</g>
<!-- Node6 -->
<g id="Node000006" class="node">
<title>Node6</title>
<g id="a_Node000006"><a xlink:title=" ">
<polygon fill="#e0e0e0" stroke="#999999" points="568.5,-184 508.5,-184 508.5,-165 568.5,-165 568.5,-184"/>
<text text-anchor="middle" x="538.5" y="-172" font-family="Helvetica,sans-Serif" font-size="10.00">gtk/gtk.h</text>
</a>
</g>
</g>
<!-- Node1&#45;&gt;Node6 -->
<g id="edge5_Node000001_Node000006" class="edge">
<title>Node1&#45;&gt;Node6</title>
<g id="a_edge5_Node000001_Node000006"><a xlink:title=" ">
<path fill="none" stroke="#63b8ff" d="M433.01,-275C457.08,-268.51 485.99,-257.44 506.5,-239 519.96,-226.9 528.5,-207.83 533.34,-193.74"/>
<polygon fill="#63b8ff" stroke="#63b8ff" points="536.7,-194.73 536.34,-184.14 530.02,-192.64 536.7,-194.73"/>
</a>
</g>
</g>
<!-- Node7 -->
<g id="Node000007" class="node">
<title>Node7</title>
<g id="a_Node000007"><a xlink:href="gdict-source-chooser_8h.html" target="_top" xlink:title=" ">
<polygon fill="white" stroke="#666666" points="498,-239 371,-239 371,-220 498,-220 498,-239"/>
<text text-anchor="middle" x="434.5" y="-227" font-family="Helvetica,sans-Serif" font-size="10.00">gdict&#45;source&#45;chooser.h</text>
</a>
</g>
</g>
<!-- Node1&#45;&gt;Node7 -->
<g id="edge6_Node000001_Node000007" class="edge">
<title>Node1&#45;&gt;Node7</title>
<g id="a_edge6_Node000001_Node000007"><a xlink:title=" ">
<path fill="none" stroke="#63b8ff" d="M396.1,-274.75C402.66,-267.18 412.32,-256.05 420.31,-246.84"/>
<polygon fill="#63b8ff" stroke="#63b8ff" points="423.13,-248.94 427.05,-239.09 417.85,-244.35 423.13,-248.94"/>
</a>
</g>
</g>
<!-- Node13 -->
<g id="Node000013" class="node">
<title>Node13</title>
<g id="a_Node000013"><a xlink:href="gdict-utils_8h.html" target="_top" xlink:title=" ">
<polygon fill="white" stroke="#666666" points="734.5,-239 660.5,-239 660.5,-220 734.5,-220 734.5,-239"/>
<text text-anchor="middle" x="697.5" y="-227" font-family="Helvetica,sans-Serif" font-size="10.00">gdict&#45;utils.h</text>
</a>
</g>
</g>
<!-- Node1&#45;&gt;Node13 -->
<g id="edge15_Node000001_Node000013" class="edge">
<title>Node1&#45;&gt;Node13</title>
<g id="a_edge15_Node000001_Node000013"><a xlink:title=" ">
<path fill="none" stroke="#63b8ff" d="M440.44,-274.95C491.34,-266.52 571.41,-253.11 650.25,-239.2"/>
<polygon fill="#63b8ff" stroke="#63b8ff" points="651.11,-242.6 660.35,-237.41 649.89,-235.71 651.11,-242.6"/>
</a>
</g>
</g>
<!-- Node14 -->
<g id="Node000014" class="node">
<title>Node14</title>
<g id="a_Node000014"><a xlink:href="gdict-private_8h.html" target="_top" xlink:title=" ">
<polygon fill="white" stroke="#666666" points="642.5,-239 554.5,-239 554.5,-220 642.5,-220 642.5,-239"/>
<text text-anchor="middle" x="598.5" y="-227" font-family="Helvetica,sans-Serif" font-size="10.00">gdict&#45;private.h</text>
</a>
</g>
</g>
<!-- Node1&#45;&gt;Node14 -->
<g id="edge18_Node000001_Node000014" class="edge">
<title>Node1&#45;&gt;Node14</title>
<g id="a_edge18_Node000001_Node000014"><a xlink:title=" ">
<path fill="none" stroke="#63b8ff" d="M422.24,-274.98C458.18,-265.91 515.22,-251.52 554.63,-241.57"/>
<polygon fill="#63b8ff" stroke="#63b8ff" points="555.66,-244.92 564.5,-239.08 553.94,-238.14 555.66,-244.92"/>
</a>
</g>
</g>
<!-- Node17 -->
<g id="Node000017" class="node">
<title>Node17</title>
<g id="a_Node000017"><a xlink:href="gdict-enum-types_8h.html" target="_top" xlink:title=" ">
<polygon fill="white" stroke="#666666" points="397.5,-129 285.5,-129 285.5,-110 397.5,-110 397.5,-129"/>
<text text-anchor="middle" x="341.5" y="-117" font-family="Helvetica,sans-Serif" font-size="10.00">gdict&#45;enum&#45;types.h</text>
</a>
</g>
</g>
<!-- Node1&#45;&gt;Node17 -->
<g id="edge22_Node000001_Node000017" class="edge">
<title>Node1&#45;&gt;Node17</title>
<g id="a_edge22_Node000001_Node000017"><a xlink:title=" ">
<path fill="none" stroke="#63b8ff" d="M381.85,-274.81C375.6,-266.2 366.48,-252.38 361.5,-239 348.93,-205.22 344.22,-163.08 342.48,-139.23"/>
<polygon fill="#63b8ff" stroke="#63b8ff" points="345.97,-138.88 341.85,-129.12 338.98,-139.32 345.97,-138.88"/>
</a>
</g>
</g>
<!-- Node18 -->
<g id="Node000018" class="node">
<title>Node18</title>
<g id="a_Node000018"><a xlink:href="gdict-marshal_8h.html" target="_top" xlink:title=" ">
<polygon fill="white" stroke="#666666" points="820,-74 727,-74 727,-55 820,-55 820,-74"/>
<text text-anchor="middle" x="773.5" y="-62" font-family="Helvetica,sans-Serif" font-size="10.00">gdict&#45;marshal.h</text>
</a>
</g>
</g>
<!-- Node1&#45;&gt;Node18 -->
<g id="edge24_Node000001_Node000018" class="edge">
<title>Node1&#45;&gt;Node18</title>
<g id="a_edge24_Node000001_Node000018"><a xlink:title=" ">
<path fill="none" stroke="#63b8ff" d="M451.59,-284.27C542.21,-283.99 702.84,-277.81 743.5,-239 786.2,-198.24 781.55,-120.26 776.69,-84.39"/>
<polygon fill="#63b8ff" stroke="#63b8ff" points="780.12,-83.69 775.16,-74.33 773.2,-84.74 780.12,-83.69"/>
</a>
</g>
</g>
<!-- Node7&#45;&gt;Node6 -->
<g id="edge7_Node000007_Node000006" class="edge">
<title>Node7&#45;&gt;Node6</title>
<g id="a_edge7_Node000007_Node000006"><a xlink:title=" ">
<path fill="none" stroke="#63b8ff" d="M451.21,-219.98C467.71,-211.57 493.2,-198.59 512.38,-188.81"/>
<polygon fill="#63b8ff" stroke="#63b8ff" points="514.17,-191.83 521.49,-184.17 510.99,-185.59 514.17,-191.83"/>
</a>
</g>
</g>
<!-- Node8 -->
<g id="Node000008" class="node">
<title>Node8</title>
<g id="a_Node000008"><a xlink:href="gdict-source-loader_8h.html" target="_top" xlink:title=" ">
<polygon fill="white" stroke="#666666" points="490,-184 371,-184 371,-165 490,-165 490,-184"/>
<text text-anchor="middle" x="430.5" y="-172" font-family="Helvetica,sans-Serif" font-size="10.00">gdict&#45;source&#45;loader.h</text>
</a>
</g>
</g>
<!-- Node7&#45;&gt;Node8 -->
<g id="edge8_Node000007_Node000008" class="edge">
<title>Node7&#45;&gt;Node8</title>
<g id="a_edge8_Node000007_Node000008"><a xlink:title=" ">
<path fill="none" stroke="#63b8ff" d="M433.84,-219.75C433.32,-212.8 432.56,-202.85 431.91,-194.13"/>
<polygon fill="#63b8ff" stroke="#63b8ff" points="435.39,-193.8 431.15,-184.09 428.41,-194.32 435.39,-193.8"/>
</a>
</g>
</g>
<!-- Node9 -->
<g id="Node000009" class="node">
<title>Node9</title>
<g id="a_Node000009"><a xlink:title=" ">
<polygon fill="#e0e0e0" stroke="#999999" points="608,-19 531,-19 531,0 608,0 608,-19"/>
<text text-anchor="middle" x="569.5" y="-7" font-family="Helvetica,sans-Serif" font-size="10.00">glib&#45;object.h</text>
</a>
</g>
</g>
<!-- Node8&#45;&gt;Node9 -->
<g id="edge9_Node000008_Node000009" class="edge">
<title>Node8&#45;&gt;Node9</title>
<g id="a_edge9_Node000008_Node000009"><a xlink:title=" ">
<path fill="none" stroke="#63b8ff" d="M464.08,-164.97C484.9,-158.19 510.93,-146.84 528.5,-129 555.65,-101.44 564.86,-55.05 567.96,-29.24"/>
<polygon fill="#63b8ff" stroke="#63b8ff" points="571.44,-29.57 568.97,-19.27 564.48,-28.86 571.44,-29.57"/>
</a>
</g>
</g>
<!-- Node10 -->
<g id="Node000010" class="node">
<title>Node10</title>
<g id="a_Node000010"><a xlink:href="gdict-source_8h.html" target="_top" xlink:title=" ">
<polygon fill="white" stroke="#666666" points="519.5,-129 433.5,-129 433.5,-110 519.5,-110 519.5,-129"/>
<text text-anchor="middle" x="476.5" y="-117" font-family="Helvetica,sans-Serif" font-size="10.00">gdict&#45;source.h</text>
</a>
</g>
</g>
<!-- Node8&#45;&gt;Node10 -->
<g id="edge10_Node000008_Node000010" class="edge">
<title>Node8&#45;&gt;Node10</title>
<g id="a_edge10_Node000008_Node000010"><a xlink:title=" ">
<path fill="none" stroke="#63b8ff" d="M438.1,-164.75C444.66,-157.18 454.32,-146.05 462.31,-136.84"/>
<polygon fill="#63b8ff" stroke="#63b8ff" points="465.13,-138.94 469.05,-129.09 459.85,-134.35 465.13,-138.94"/>
</a>
</g>
</g>
<!-- Node10&#45;&gt;Node9 -->
<g id="edge12_Node000010_Node000009" class="edge">
<title>Node10&#45;&gt;Node9</title>
<g id="a_edge12_Node000010_Node000009"><a xlink:title=" ">
<path fill="none" stroke="#63b8ff" d="M489.83,-109.74C501.72,-101.49 519.1,-88.28 531.5,-74 543.58,-60.08 554.05,-41.83 560.93,-28.46"/>
<polygon fill="#63b8ff" stroke="#63b8ff" points="564.14,-29.86 565.45,-19.35 557.87,-26.75 564.14,-29.86"/>
</a>
</g>
</g>
<!-- Node11 -->
<g id="Node000011" class="node">
<title>Node11</title>
<g id="a_Node000011"><a xlink:title=" ">
<polygon fill="#e0e0e0" stroke="#999999" points="522.5,-74 466.5,-74 466.5,-55 522.5,-55 522.5,-74"/>
<text text-anchor="middle" x="494.5" y="-62" font-family="Helvetica,sans-Serif" font-size="10.00">stdarg.h</text>
</a>
</g>
</g>
<!-- Node10&#45;&gt;Node11 -->
<g id="edge11_Node000010_Node000011" class="edge">
<title>Node10&#45;&gt;Node11</title>
<g id="a_edge11_Node000010_Node000011"><a xlink:title=" ">
<path fill="none" stroke="#63b8ff" d="M479.47,-109.75C481.86,-102.72 485.29,-92.62 488.27,-83.84"/>
<polygon fill="#63b8ff" stroke="#63b8ff" points="491.68,-84.68 491.58,-74.09 485.05,-82.43 491.68,-84.68"/>
</a>
</g>
</g>
<!-- Node12 -->
<g id="Node000012" class="node">
<title>Node12</title>
<g id="a_Node000012"><a xlink:href="gdict-context_8h.html" target="_top" xlink:title=" ">
<polygon fill="white" stroke="#666666" points="448.5,-74 358.5,-74 358.5,-55 448.5,-55 448.5,-74"/>
<text text-anchor="middle" x="403.5" y="-62" font-family="Helvetica,sans-Serif" font-size="10.00">gdict&#45;context.h</text>
</a>
</g>
</g>
<!-- Node10&#45;&gt;Node12 -->
<g id="edge13_Node000010_Node000012" class="edge">
<title>Node10&#45;&gt;Node12</title>
<g id="a_edge13_Node000010_Node000012"><a xlink:title=" ">
<path fill="none" stroke="#63b8ff" d="M464.77,-109.98C453.77,-102 437.08,-89.88 423.9,-80.31"/>
<polygon fill="#63b8ff" stroke="#63b8ff" points="425.59,-77.21 415.44,-74.17 421.48,-82.88 425.59,-77.21"/>
</a>
</g>
</g>
<!-- Node12&#45;&gt;Node9 -->
<g id="edge14_Node000012_Node000009" class="edge">
<title>Node12&#45;&gt;Node9</title>
<g id="a_edge14_Node000012_Node000009"><a xlink:title=" ">
<path fill="none" stroke="#63b8ff" d="M430.17,-54.98C458.04,-46.09 501.95,-32.07 533.02,-22.15"/>
<polygon fill="#63b8ff" stroke="#63b8ff" points="534.16,-25.46 542.62,-19.08 532.03,-18.79 534.16,-25.46"/>
</a>
</g>
</g>
<!-- Node13&#45;&gt;Node6 -->
<g id="edge17_Node000013_Node000006" class="edge">
<title>Node13&#45;&gt;Node6</title>
<g id="a_edge17_Node000013_Node000006"><a xlink:title=" ">
<path fill="none" stroke="#63b8ff" d="M671.95,-219.98C645.38,-211.13 603.56,-197.19 573.83,-187.28"/>
<polygon fill="#63b8ff" stroke="#63b8ff" points="574.84,-183.92 564.25,-184.08 572.63,-190.56 574.84,-183.92"/>
</a>
</g>
</g>
<!-- Node13&#45;&gt;Node9 -->
<g id="edge16_Node000013_Node000009" class="edge">
<title>Node13&#45;&gt;Node9</title>
<g id="a_edge16_Node000013_Node000009"><a xlink:title=" ">
<path fill="none" stroke="#63b8ff" d="M697.07,-219.88C695.73,-199.5 690.34,-147.27 669.5,-110 649.46,-74.18 612.8,-42.62 589.87,-25.09"/>
<polygon fill="#63b8ff" stroke="#63b8ff" points="591.93,-22.25 581.82,-19.08 587.74,-27.86 591.93,-22.25"/>
</a>
</g>
</g>
<!-- Node14&#45;&gt;Node6 -->
<g id="edge19_Node000014_Node000006" class="edge">
<title>Node14&#45;&gt;Node6</title>
<g id="a_edge19_Node000014_Node000006"><a xlink:title=" ">
<path fill="none" stroke="#63b8ff" d="M588.86,-219.98C579.99,-212.15 566.63,-200.34 555.89,-190.86"/>
<polygon fill="#63b8ff" stroke="#63b8ff" points="558.13,-188.17 548.32,-184.17 553.49,-193.41 558.13,-188.17"/>
</a>
</g>
</g>
<!-- Node15 -->
<g id="Node000015" class="node">
<title>Node15</title>
<g id="a_Node000015"><a xlink:href="gdict-debug_8h.html" target="_top" xlink:title=" ">
<polygon fill="white" stroke="#666666" points="670,-184 587,-184 587,-165 670,-165 670,-184"/>
<text text-anchor="middle" x="628.5" y="-172" font-family="Helvetica,sans-Serif" font-size="10.00">gdict&#45;debug.h</text>
</a>
</g>
</g>
<!-- Node14&#45;&gt;Node15 -->
<g id="edge20_Node000014_Node000015" class="edge">
<title>Node14&#45;&gt;Node15</title>
<g id="a_edge20_Node000014_Node000015"><a xlink:title=" ">
<path fill="none" stroke="#63b8ff" d="M603.45,-219.75C607.56,-212.49 613.53,-201.95 618.6,-192.98"/>
<polygon fill="#63b8ff" stroke="#63b8ff" points="621.76,-194.52 623.64,-184.09 615.67,-191.07 621.76,-194.52"/>
</a>
</g>
</g>
<!-- Node16 -->
<g id="Node000016" class="node">
<title>Node16</title>
<g id="a_Node000016"><a xlink:title=" ">
<polygon fill="#e0e0e0" stroke="#999999" points="660.5,-129 616.5,-129 616.5,-110 660.5,-110 660.5,-129"/>
<text text-anchor="middle" x="638.5" y="-117" font-family="Helvetica,sans-Serif" font-size="10.00">glib.h</text>
</a>
</g>
</g>
<!-- Node15&#45;&gt;Node16 -->
<g id="edge21_Node000015_Node000016" class="edge">
<title>Node15&#45;&gt;Node16</title>
<g id="a_edge21_Node000015_Node000016"><a xlink:title=" ">
<path fill="none" stroke="#63b8ff" d="M630.15,-164.75C631.46,-157.8 633.34,-147.85 634.98,-139.13"/>
<polygon fill="#63b8ff" stroke="#63b8ff" points="638.46,-139.56 636.88,-129.09 631.59,-138.27 638.46,-139.56"/>
</a>
</g>
</g>
<!-- Node17&#45;&gt;Node9 -->
<g id="edge23_Node000017_Node000009" class="edge">
<title>Node17&#45;&gt;Node9</title>
<g id="a_edge23_Node000017_Node000009"><a xlink:title=" ">
<path fill="none" stroke="#63b8ff" d="M339.74,-109.81C337.54,-96.23 335.59,-69.98 349.5,-55 372.2,-30.55 462.95,-18.9 520.56,-13.86"/>
<polygon fill="#63b8ff" stroke="#63b8ff" points="520.89,-17.35 530.56,-13.03 520.3,-10.37 520.89,-17.35"/>
</a>
</g>
</g>
<!-- Node18&#45;&gt;Node9 -->
<g id="edge25_Node000018_Node000009" class="edge">
<title>Node18&#45;&gt;Node9</title>
<g id="a_edge25_Node000018_Node000009"><a xlink:title=" ">
<path fill="none" stroke="#63b8ff" d="M740.72,-54.98C705.88,-45.93 650.63,-31.58 612.36,-21.64"/>
<polygon fill="#63b8ff" stroke="#63b8ff" points="613.09,-18.21 602.53,-19.08 611.33,-24.98 613.09,-18.21"/>
</a>
</g>
</g>
</g>
</svg>
