<?xml version="1.0" encoding="UTF-8" standalone="no"?>
<!DOCTYPE svg PUBLIC "-//W3C//DTD SVG 1.1//EN"
 "http://www.w3.org/Graphics/SVG/1.1/DTD/svg11.dtd">
<!-- Generated by graphviz version 2.43.0 (0)
 -->
<!-- Title: gdict&#45;marshal.h Pages: 1 -->
<svg width="1144pt" height="82pt"
 viewBox="0.00 0.00 1144.00 82.00" xmlns="http://www.w3.org/2000/svg" xmlns:xlink="http://www.w3.org/1999/xlink">
<g id="graph0" class="graph" transform="scale(1 1) rotate(0) translate(4 78)">
<title>gdict&#45;marshal.h</title>
<!-- Node1 -->
<g id="Node000001" class="node">
<title>Node1</title>
<g id="a_Node000001"><a xlink:title=" ">
<polygon fill="#999999" stroke="#666666" points="599.5,-74 506.5,-74 506.5,-55 599.5,-55 599.5,-74"/>
<text text-anchor="middle" x="553" y="-62" font-family="Helvetica,sans-Serif" font-size="10.00">gdict&#45;marshal.h</text>
</a>
</g>
</g>
<!-- Node2 -->
<g id="Node000002" class="node">
<title>Node2</title>
<g id="a_Node000002"><a xlink:href="gdict-client-context_8c.html" target="_top" xlink:title=" ">
<polygon fill="white" stroke="#666666" points="120,-19 0,-19 0,0 120,0 120,-19"/>
<text text-anchor="middle" x="60" y="-7" font-family="Helvetica,sans-Serif" font-size="10.00">gdict&#45;client&#45;context.c</text>
</a>
</g>
</g>
<!-- Node1&#45;&gt;Node2 -->
<g id="edge1_Node000001_Node000002" class="edge">
<title>Node1&#45;&gt;Node2</title>
<g id="a_edge1_Node000001_Node000002"><a xlink:title=" ">
<path fill="none" stroke="#63b8ff" d="M496.19,-57.87C414.81,-49.72 260.35,-33.98 129,-19 126.12,-18.67 123.18,-18.33 120.2,-17.98"/>
<polygon fill="#63b8ff" stroke="#63b8ff" points="495.93,-61.36 506.23,-58.87 496.63,-54.39 495.93,-61.36"/>
</a>
</g>
</g>
<!-- Node3 -->
<g id="Node000003" class="node">
<title>Node3</title>
<g id="a_Node000003"><a xlink:href="gdict-context_8c.html" target="_top" xlink:title=" ">
<polygon fill="white" stroke="#666666" points="227.5,-19 138.5,-19 138.5,0 227.5,0 227.5,-19"/>
<text text-anchor="middle" x="183" y="-7" font-family="Helvetica,sans-Serif" font-size="10.00">gdict&#45;context.c</text>
</a>
</g>
</g>
<!-- Node1&#45;&gt;Node3 -->
<g id="edge2_Node000001_Node000003" class="edge">
<title>Node1&#45;&gt;Node3</title>
<g id="a_edge2_Node000001_Node000003"><a xlink:title=" ">
<path fill="none" stroke="#63b8ff" d="M496.3,-55.88C432.84,-47.27 326.97,-32.68 236,-19 233.24,-18.58 230.39,-18.15 227.52,-17.71"/>
<polygon fill="#63b8ff" stroke="#63b8ff" points="496.12,-59.39 506.5,-57.26 497.06,-52.45 496.12,-59.39"/>
</a>
</g>
</g>
<!-- Node4 -->
<g id="Node000004" class="node">
<title>Node4</title>
<g id="a_Node000004"><a xlink:href="gdict-database-chooser_8c.html" target="_top" xlink:title=" ">
<polygon fill="white" stroke="#666666" points="384.5,-19 245.5,-19 245.5,0 384.5,0 384.5,-19"/>
<text text-anchor="middle" x="315" y="-7" font-family="Helvetica,sans-Serif" font-size="10.00">gdict&#45;database&#45;chooser.c</text>
</a>
</g>
</g>
<!-- Node1&#45;&gt;Node4 -->
<g id="edge3_Node000001_Node000004" class="edge">
<title>Node1&#45;&gt;Node4</title>
<g id="a_edge3_Node000001_Node000004"><a xlink:title=" ">
<path fill="none" stroke="#63b8ff" d="M504.74,-52.75C460.14,-42.82 394.74,-28.26 353.54,-19.08"/>
<polygon fill="#63b8ff" stroke="#63b8ff" points="504.24,-56.23 514.76,-54.98 505.76,-49.39 504.24,-56.23"/>
</a>
</g>
</g>
<!-- Node5 -->
<g id="Node000005" class="node">
<title>Node5</title>
<g id="a_Node000005"><a xlink:href="gdict-defbox_8c.html" target="_top" xlink:title=" ">
<polygon fill="white" stroke="#666666" points="489,-19 403,-19 403,0 489,0 489,-19"/>
<text text-anchor="middle" x="446" y="-7" font-family="Helvetica,sans-Serif" font-size="10.00">gdict&#45;defbox.c</text>
</a>
</g>
</g>
<!-- Node1&#45;&gt;Node5 -->
<g id="edge4_Node000001_Node000005" class="edge">
<title>Node1&#45;&gt;Node5</title>
<g id="a_edge4_Node000001_Node000005"><a xlink:title=" ">
<path fill="none" stroke="#63b8ff" d="M526.76,-50.5C507.07,-40.75 480.68,-27.68 463.5,-19.17"/>
<polygon fill="#63b8ff" stroke="#63b8ff" points="525.29,-53.68 535.81,-54.98 528.4,-47.41 525.29,-53.68"/>
</a>
</g>
</g>
<!-- Node6 -->
<g id="Node000006" class="node">
<title>Node6</title>
<g id="a_Node000006"><a xlink:href="gdict-marshal_8c.html" target="_top" xlink:title=" ">
<polygon fill="white" stroke="#666666" points="599,-19 507,-19 507,0 599,0 599,-19"/>
<text text-anchor="middle" x="553" y="-7" font-family="Helvetica,sans-Serif" font-size="10.00">gdict&#45;marshal.c</text>
</a>
</g>
</g>
<!-- Node1&#45;&gt;Node6 -->
<g id="edge5_Node000001_Node000006" class="edge">
<title>Node1&#45;&gt;Node6</title>
<g id="a_edge5_Node000001_Node000006"><a xlink:title=" ">
<path fill="none" stroke="#63b8ff" d="M553,-44.66C553,-35.93 553,-25.99 553,-19.09"/>
<polygon fill="#63b8ff" stroke="#63b8ff" points="549.5,-44.75 553,-54.75 556.5,-44.75 549.5,-44.75"/>
</a>
</g>
</g>
<!-- Node7 -->
<g id="Node000007" class="node">
<title>Node7</title>
<g id="a_Node000007"><a xlink:href="gdict-source-chooser_8c.html" target="_top" xlink:title=" ">
<polygon fill="white" stroke="#666666" points="743,-19 617,-19 617,0 743,0 743,-19"/>
<text text-anchor="middle" x="680" y="-7" font-family="Helvetica,sans-Serif" font-size="10.00">gdict&#45;source&#45;chooser.c</text>
</a>
</g>
</g>
<!-- Node1&#45;&gt;Node7 -->
<g id="edge6_Node000001_Node000007" class="edge">
<title>Node1&#45;&gt;Node7</title>
<g id="a_edge6_Node000001_Node000007"><a xlink:title=" ">
<path fill="none" stroke="#63b8ff" d="M582.88,-51.03C606.37,-41.23 638.47,-27.83 659.22,-19.17"/>
<polygon fill="#63b8ff" stroke="#63b8ff" points="581.29,-47.9 573.4,-54.98 583.98,-54.36 581.29,-47.9"/>
</a>
</g>
</g>
<!-- Node8 -->
<g id="Node000008" class="node">
<title>Node8</title>
<g id="a_Node000008"><a xlink:href="gdict-source-loader_8c.html" target="_top" xlink:title=" ">
<polygon fill="white" stroke="#666666" points="880.5,-19 761.5,-19 761.5,0 880.5,0 880.5,-19"/>
<text text-anchor="middle" x="821" y="-7" font-family="Helvetica,sans-Serif" font-size="10.00">gdict&#45;source&#45;loader.c</text>
</a>
</g>
</g>
<!-- Node1&#45;&gt;Node8 -->
<g id="edge7_Node000001_Node000008" class="edge">
<title>Node1&#45;&gt;Node8</title>
<g id="a_edge7_Node000001_Node000008"><a xlink:title=" ">
<path fill="none" stroke="#63b8ff" d="M606.08,-53C656.32,-43.07 730.82,-28.33 777.6,-19.08"/>
<polygon fill="#63b8ff" stroke="#63b8ff" points="605.19,-49.61 596.06,-54.98 606.55,-56.48 605.19,-49.61"/>
</a>
</g>
</g>
<!-- Node9 -->
<g id="Node000009" class="node">
<title>Node9</title>
<g id="a_Node000009"><a xlink:href="gdict-speller_8c.html" target="_top" xlink:title=" ">
<polygon fill="white" stroke="#666666" points="983.5,-19 898.5,-19 898.5,0 983.5,0 983.5,-19"/>
<text text-anchor="middle" x="941" y="-7" font-family="Helvetica,sans-Serif" font-size="10.00">gdict&#45;speller.c</text>
</a>
</g>
</g>
<!-- Node1&#45;&gt;Node9 -->
<g id="edge8_Node000001_Node000009" class="edge">
<title>Node1&#45;&gt;Node9</title>
<g id="a_edge8_Node000001_Node000009"><a xlink:title=" ">
<path fill="none" stroke="#63b8ff" d="M609.61,-56.62C676.64,-48.33 791.59,-33.69 890,-19 892.75,-18.59 895.59,-18.15 898.44,-17.7"/>
<polygon fill="#63b8ff" stroke="#63b8ff" points="609.18,-53.15 599.68,-57.84 610.03,-60.09 609.18,-53.15"/>
</a>
</g>
</g>
<!-- Node10 -->
<g id="Node000010" class="node">
<title>Node10</title>
<g id="a_Node000010"><a xlink:href="gdict-strategy-chooser_8c.html" target="_top" xlink:title=" ">
<polygon fill="white" stroke="#666666" points="1136,-19 1002,-19 1002,0 1136,0 1136,-19"/>
<text text-anchor="middle" x="1069" y="-7" font-family="Helvetica,sans-Serif" font-size="10.00">gdict&#45;strategy&#45;chooser.c</text>
</a>
</g>
</g>
<!-- Node1&#45;&gt;Node10 -->
<g id="edge9_Node000001_Node000010" class="edge">
<title>Node1&#45;&gt;Node10</title>
<g id="a_edge9_Node000001_Node000010"><a xlink:title=" ">
<path fill="none" stroke="#63b8ff" d="M609.65,-57.96C693.46,-49.73 855.4,-33.65 993,-19 995.9,-18.69 998.87,-18.37 1001.87,-18.05"/>
<polygon fill="#63b8ff" stroke="#63b8ff" points="609.19,-54.49 599.58,-58.95 609.88,-61.46 609.19,-54.49"/>
</a>
</g>
</g>
</g>
</svg>
