<?xml version="1.0" encoding="UTF-8" standalone="no"?>
<!DOCTYPE svg PUBLIC "-//W3C//DTD SVG 1.1//EN"
 "http://www.w3.org/Graphics/SVG/1.1/DTD/svg11.dtd">
<!-- Generated by graphviz version 2.43.0 (0)
 -->
<!-- Title: gdict&#45;strategy&#45;chooser.c Pages: 1 -->
<!--zoomable 192 -->

<svg id="main" version="1.1" xmlns="http://www.w3.org/2000/svg" xmlns:xlink="http://www.w3.org/1999/xlink" xml:space="preserve" onload="init(evt)">

<style type="text/css"><![CDATA[
.node, .edge {opacity: 0.7;}
.node.selected, .edge.selected {opacity: 1;}
.edge:hover path { stroke: red; }
.edge:hover polygon { stroke: red; fill: red; }
]]></style>

<defs>
  <circle id="rim" cx="0" cy="0" r="7"/>
  <circle id="rim2" cx="0" cy="0" r="3.5"/>
  <g id="zoomPlus">
    <use xlink:href="#rim" fill="#404040"><set attributeName="fill" to="#808080" begin="zoomplus.mouseover" end="zoomplus.mouseout"/></use>
    <path d="M-4,0h8M0,-4v8" fill="none" stroke="white" stroke-width="1.5" pointer-events="none"/>
  </g>
  <g id="zoomMin">
    <use xlink:href="#rim" fill="#404040"><set attributeName="fill" to="#808080" begin="zoomminus.mouseover" end="zoomminus.mouseout"/></use>
    <path d="M-4,0h8" fill="none" stroke="white" stroke-width="1.5" pointer-events="none"/>
  </g>
  <g id="arrowUp" transform="translate(30 24)">
    <use xlink:href="#rim"/>
    <path pointer-events="none" fill="none" stroke="white" stroke-width="1.5" d="M0,-3.0v7 M-2.5,-0.5L0,-3.0L2.5,-0.5"/>
  </g>
  <g id="arrowRight" transform="rotate(90) translate(36 -43)">
    <use xlink:href="#rim"/>
    <path pointer-events="none" fill="none" stroke="white" stroke-width="1.5" d="M0,-3.0v7 M-2.5,-0.5L0,-3.0L2.5,-0.5"/>
  </g>
  <g id="arrowDown" transform="rotate(180) translate(-30 -48)">
    <use xlink:href="#rim"/>
    <path pointer-events="none" fill="none" stroke="white" stroke-width="1.5" d="M0,-3.0v7 M-2.5,-0.5L0,-3.0L2.5,-0.5"/>
  </g>
  <g id="arrowLeft" transform="rotate(270) translate(-36 17)">
    <use xlink:href="#rim"/>
    <path pointer-events="none" fill="none" stroke="white" stroke-width="1.5" d="M0,-3.0v7 M-2.5,-0.5L0,-3.0L2.5,-0.5"/>
  </g>
  <g id="resetDef">
    <use xlink:href="#rim2" fill="#404040"><set attributeName="fill" to="#808080" begin="reset.mouseover" end="reset.mouseout"/></use>
  </g>
</defs>
<script type="application/ecmascript">
var viewWidth = 998;
var viewHeight = 192;
var sectionId = 'dynsection-0';
</script>
<script type="application/ecmascript" xlink:href="svg.min.js"/>
<svg id="graph" class="graph">
<g id="viewport">
<title>gdict&#45;strategy&#45;chooser.c</title>
<!-- Node1 -->
<g id="Node000001" class="node">
<title>Node1</title>
<g id="a_Node000001"><a xlink:title=" ">
<polygon fill="#999999" stroke="#666666" points="488,-184 354,-184 354,-165 488,-165 488,-184"/>
<text text-anchor="middle" x="421" y="-172" font-family="Helvetica,sans-Serif" font-size="10.00">gdict&#45;strategy&#45;chooser.c</text>
</a>
</g>
</g>
<!-- Node2 -->
<g id="Node000002" class="node">
<title>Node2</title>
<g id="a_Node000002"><a xlink:title=" ">
<polygon fill="#e0e0e0" stroke="#999999" points="50,-129 0,-129 0,-110 50,-110 50,-129"/>
<text text-anchor="middle" x="25" y="-117" font-family="Helvetica,sans-Serif" font-size="10.00">stdio.h</text>
</a>
</g>
</g>
<!-- Node1&#45;&gt;Node2 -->
<g id="edge1_Node000001_Node000002" class="edge">
<title>Node1&#45;&gt;Node2</title>
<g id="a_edge1_Node000001_Node000002"><a xlink:title=" ">
<path fill="none" stroke="#63b8ff" d="M353.9,-167.74C283.16,-161.1 168.31,-148.74 60.27,-129.03"/>
<polygon fill="#63b8ff" stroke="#63b8ff" points="60.65,-125.54 50.18,-127.16 59.37,-132.42 60.65,-125.54"/>
</a>
</g>
</g>
<!-- Node3 -->
<g id="Node000003" class="node">
<title>Node3</title>
<g id="a_Node000003"><a xlink:title=" ">
<polygon fill="#e0e0e0" stroke="#999999" points="121.5,-129 68.5,-129 68.5,-110 121.5,-110 121.5,-129"/>
<text text-anchor="middle" x="95" y="-117" font-family="Helvetica,sans-Serif" font-size="10.00">stdlib.h</text>
</a>
</g>
</g>
<!-- Node1&#45;&gt;Node3 -->
<g id="edge2_Node000001_Node000003" class="edge">
<title>Node1&#45;&gt;Node3</title>
<g id="a_edge2_Node000001_Node000003"><a xlink:title=" ">
<path fill="none" stroke="#63b8ff" d="M354.26,-164.97C297.4,-157.31 213.34,-145.1 131.65,-129.19"/>
<polygon fill="#63b8ff" stroke="#63b8ff" points="132.19,-125.73 121.7,-127.24 130.84,-132.6 132.19,-125.73"/>
</a>
</g>
</g>
<!-- Node4 -->
<g id="Node000004" class="node">
<title>Node4</title>
<g id="a_Node000004"><a xlink:title=" ">
<polygon fill="#e0e0e0" stroke="#999999" points="192.5,-129 139.5,-129 139.5,-110 192.5,-110 192.5,-129"/>
<text text-anchor="middle" x="166" y="-117" font-family="Helvetica,sans-Serif" font-size="10.00">string.h</text>
</a>
</g>
</g>
<!-- Node1&#45;&gt;Node4 -->
<g id="edge3_Node000001_Node000004" class="edge">
<title>Node1&#45;&gt;Node4</title>
<g id="a_edge3_Node000001_Node000004"><a xlink:title=" ">
<path fill="none" stroke="#63b8ff" d="M376.87,-164.96C334.66,-156.69 268.96,-143.57 202.52,-129.06"/>
<polygon fill="#63b8ff" stroke="#63b8ff" points="203.23,-125.63 192.72,-126.91 201.73,-132.47 203.23,-125.63"/>
</a>
</g>
</g>
<!-- Node5 -->
<g id="Node000005" class="node">
<title>Node5</title>
<g id="a_Node000005"><a xlink:title=" ">
<polygon fill="#e0e0e0" stroke="#999999" points="267,-129 211,-129 211,-110 267,-110 267,-129"/>
<text text-anchor="middle" x="239" y="-117" font-family="Helvetica,sans-Serif" font-size="10.00">stdarg.h</text>
</a>
</g>
</g>
<!-- Node1&#45;&gt;Node5 -->
<g id="edge4_Node000001_Node000005" class="edge">
<title>Node1&#45;&gt;Node5</title>
<g id="a_edge4_Node000001_Node000005"><a xlink:title=" ">
<path fill="none" stroke="#63b8ff" d="M391.76,-164.98C360.57,-155.9 311.06,-141.49 276.91,-131.54"/>
<polygon fill="#63b8ff" stroke="#63b8ff" points="277.85,-128.17 267.27,-128.73 275.89,-134.89 277.85,-128.17"/>
</a>
</g>
</g>
<!-- Node6 -->
<g id="Node000006" class="node">
<title>Node6</title>
<g id="a_Node000006"><a xlink:title=" ">
<polygon fill="#e0e0e0" stroke="#999999" points="577,-74 517,-74 517,-55 577,-55 577,-74"/>
<text text-anchor="middle" x="547" y="-62" font-family="Helvetica,sans-Serif" font-size="10.00">gtk/gtk.h</text>
</a>
</g>
</g>
<!-- Node1&#45;&gt;Node6 -->
<g id="edge5_Node000001_Node000006" class="edge">
<title>Node1&#45;&gt;Node6</title>
<g id="a_edge5_Node000001_Node000006"><a xlink:title=" ">
<path fill="none" stroke="#63b8ff" d="M462.66,-164.95C484.53,-158.48 510.19,-147.44 527,-129 538.19,-116.72 543.12,-98.21 545.29,-84.34"/>
<polygon fill="#63b8ff" stroke="#63b8ff" points="548.82,-84.36 546.54,-74.01 541.87,-83.52 548.82,-84.36"/>
</a>
</g>
</g>
<!-- Node7 -->
<g id="Node000007" class="node">
<title>Node7</title>
<g id="a_Node000007"><a xlink:title=" ">
<polygon fill="#e0e0e0" stroke="#999999" points="412.5,-129 323.5,-129 323.5,-110 412.5,-110 412.5,-129"/>
<text text-anchor="middle" x="368" y="-117" font-family="Helvetica,sans-Serif" font-size="10.00">glib/gi18n&#45;lib.h</text>
</a>
</g>
</g>
<!-- Node1&#45;&gt;Node7 -->
<g id="edge6_Node000001_Node000007" class="edge">
<title>Node1&#45;&gt;Node7</title>
<g id="a_edge6_Node000001_Node000007"><a xlink:title=" ">
<path fill="none" stroke="#63b8ff" d="M412.25,-164.75C404.53,-157.03 393.1,-145.6 383.78,-136.28"/>
<polygon fill="#63b8ff" stroke="#63b8ff" points="386.14,-133.69 376.59,-129.09 381.19,-138.64 386.14,-133.69"/>
</a>
</g>
</g>
<!-- Node8 -->
<g id="Node000008" class="node">
<title>Node8</title>
<g id="a_Node000008"><a xlink:href="gdict-strategy-chooser_8h.html" target="_top" xlink:title=" ">
<polygon fill="white" stroke="#666666" points="709.5,-129 574.5,-129 574.5,-110 709.5,-110 709.5,-129"/>
<text text-anchor="middle" x="642" y="-117" font-family="Helvetica,sans-Serif" font-size="10.00">gdict&#45;strategy&#45;chooser.h</text>
</a>
</g>
</g>
<!-- Node1&#45;&gt;Node8 -->
<g id="edge7_Node000001_Node000008" class="edge">
<title>Node1&#45;&gt;Node8</title>
<g id="a_edge7_Node000001_Node000008"><a xlink:title=" ">
<path fill="none" stroke="#63b8ff" d="M456.51,-164.98C494.49,-155.87 554.87,-141.4 596.36,-131.45"/>
<polygon fill="#63b8ff" stroke="#63b8ff" points="597.31,-134.82 606.21,-129.08 595.67,-128.01 597.31,-134.82"/>
</a>
</g>
</g>
<!-- Node11 -->
<g id="Node000011" class="node">
<title>Node11</title>
<g id="a_Node000011"><a xlink:href="gdict-utils_8h.html" target="_top" xlink:title=" ">
<polygon fill="white" stroke="#666666" points="802,-129 728,-129 728,-110 802,-110 802,-129"/>
<text text-anchor="middle" x="765" y="-117" font-family="Helvetica,sans-Serif" font-size="10.00">gdict&#45;utils.h</text>
</a>
</g>
</g>
<!-- Node1&#45;&gt;Node11 -->
<g id="edge11_Node000001_Node000011" class="edge">
<title>Node1&#45;&gt;Node11</title>
<g id="a_edge11_Node000001_Node000011"><a xlink:title=" ">
<path fill="none" stroke="#63b8ff" d="M482.17,-165C540.24,-156.78 630.24,-143.67 717.76,-129.16"/>
<polygon fill="#63b8ff" stroke="#63b8ff" points="718.57,-132.57 727.86,-127.48 717.42,-125.67 718.57,-132.57"/>
</a>
</g>
</g>
<!-- Node12 -->
<g id="Node000012" class="node">
<title>Node12</title>
<g id="a_Node000012"><a xlink:href="gdict-debug_8h.html" target="_top" xlink:title=" ">
<polygon fill="white" stroke="#666666" points="418.5,-74 335.5,-74 335.5,-55 418.5,-55 418.5,-74"/>
<text text-anchor="middle" x="377" y="-62" font-family="Helvetica,sans-Serif" font-size="10.00">gdict&#45;debug.h</text>
</a>
</g>
</g>
<!-- Node1&#45;&gt;Node12 -->
<g id="edge14_Node000001_Node000012" class="edge">
<title>Node1&#45;&gt;Node12</title>
<g id="a_edge14_Node000001_Node000012"><a xlink:title=" ">
<path fill="none" stroke="#63b8ff" d="M369.67,-164.98C348.75,-158.7 326.56,-147.83 314,-129 300.9,-109.36 325.58,-90.65 347.79,-78.69"/>
<polygon fill="#63b8ff" stroke="#63b8ff" points="349.4,-81.8 356.73,-74.15 346.22,-75.56 349.4,-81.8"/>
</a>
</g>
</g>
<!-- Node14 -->
<g id="Node000014" class="node">
<title>Node14</title>
<g id="a_Node000014"><a xlink:href="gdict-private_8h.html" target="_top" xlink:title=" ">
<polygon fill="white" stroke="#666666" points="518,-129 430,-129 430,-110 518,-110 518,-129"/>
<text text-anchor="middle" x="474" y="-117" font-family="Helvetica,sans-Serif" font-size="10.00">gdict&#45;private.h</text>
</a>
</g>
</g>
<!-- Node1&#45;&gt;Node14 -->
<g id="edge16_Node000001_Node000014" class="edge">
<title>Node1&#45;&gt;Node14</title>
<g id="a_edge16_Node000001_Node000014"><a xlink:title=" ">
<path fill="none" stroke="#63b8ff" d="M429.75,-164.75C437.47,-157.03 448.9,-145.6 458.22,-136.28"/>
<polygon fill="#63b8ff" stroke="#63b8ff" points="460.81,-138.64 465.41,-129.09 455.86,-133.69 460.81,-138.64"/>
</a>
</g>
</g>
<!-- Node15 -->
<g id="Node000015" class="node">
<title>Node15</title>
<g id="a_Node000015"><a xlink:href="gdict-enum-types_8h.html" target="_top" xlink:title=" ">
<polygon fill="white" stroke="#666666" points="878,-74 766,-74 766,-55 878,-55 878,-74"/>
<text text-anchor="middle" x="822" y="-62" font-family="Helvetica,sans-Serif" font-size="10.00">gdict&#45;enum&#45;types.h</text>
</a>
</g>
</g>
<!-- Node1&#45;&gt;Node15 -->
<g id="edge19_Node000001_Node000015" class="edge">
<title>Node1&#45;&gt;Node15</title>
<g id="a_edge19_Node000001_Node000015"><a xlink:title=" ">
<path fill="none" stroke="#63b8ff" d="M488.21,-170.17C593.57,-164.31 788.02,-150.69 811,-129 822.81,-117.85 824.77,-98.92 824.24,-84.63"/>
<polygon fill="#63b8ff" stroke="#63b8ff" points="827.71,-84.08 823.43,-74.39 820.73,-84.64 827.71,-84.08"/>
</a>
</g>
</g>
<!-- Node16 -->
<g id="Node000016" class="node">
<title>Node16</title>
<g id="a_Node000016"><a xlink:href="gdict-marshal_8h.html" target="_top" xlink:title=" ">
<polygon fill="white" stroke="#666666" points="989.5,-74 896.5,-74 896.5,-55 989.5,-55 989.5,-74"/>
<text text-anchor="middle" x="943" y="-62" font-family="Helvetica,sans-Serif" font-size="10.00">gdict&#45;marshal.h</text>
</a>
</g>
</g>
<!-- Node1&#45;&gt;Node16 -->
<g id="edge21_Node000001_Node000016" class="edge">
<title>Node1&#45;&gt;Node16</title>
<g id="a_edge21_Node000001_Node000016"><a xlink:title=" ">
<path fill="none" stroke="#63b8ff" d="M488.22,-174.37C570.69,-173.59 713.86,-166.22 830,-129 865.06,-117.76 901.47,-94.95 923.18,-79.95"/>
<polygon fill="#63b8ff" stroke="#63b8ff" points="925.38,-82.68 931.53,-74.05 921.34,-76.96 925.38,-82.68"/>
</a>
</g>
</g>
<!-- Node8&#45;&gt;Node6 -->
<g id="edge8_Node000008_Node000006" class="edge">
<title>Node8&#45;&gt;Node6</title>
<g id="a_edge8_Node000008_Node000006"><a xlink:title=" ">
<path fill="none" stroke="#63b8ff" d="M626.74,-109.98C611.87,-101.69 589.02,-88.94 571.58,-79.22"/>
<polygon fill="#63b8ff" stroke="#63b8ff" points="572.98,-75.99 562.54,-74.17 569.57,-82.1 572.98,-75.99"/>
</a>
</g>
</g>
<!-- Node9 -->
<g id="Node000009" class="node">
<title>Node9</title>
<g id="a_Node000009"><a xlink:href="gdict-context_8h.html" target="_top" xlink:title=" ">
<polygon fill="white" stroke="#666666" points="695,-74 605,-74 605,-55 695,-55 695,-74"/>
<text text-anchor="middle" x="650" y="-62" font-family="Helvetica,sans-Serif" font-size="10.00">gdict&#45;context.h</text>
</a>
</g>
</g>
<!-- Node8&#45;&gt;Node9 -->
<g id="edge9_Node000008_Node000009" class="edge">
<title>Node8&#45;&gt;Node9</title>
<g id="a_edge9_Node000008_Node000009"><a xlink:title=" ">
<path fill="none" stroke="#63b8ff" d="M643.32,-109.75C644.37,-102.8 645.87,-92.85 647.19,-84.13"/>
<polygon fill="#63b8ff" stroke="#63b8ff" points="650.67,-84.5 648.7,-74.09 643.75,-83.45 650.67,-84.5"/>
</a>
</g>
</g>
<!-- Node10 -->
<g id="Node000010" class="node">
<title>Node10</title>
<g id="a_Node000010"><a xlink:title=" ">
<polygon fill="#e0e0e0" stroke="#999999" points="818.5,-19 741.5,-19 741.5,0 818.5,0 818.5,-19"/>
<text text-anchor="middle" x="780" y="-7" font-family="Helvetica,sans-Serif" font-size="10.00">glib&#45;object.h</text>
</a>
</g>
</g>
<!-- Node9&#45;&gt;Node10 -->
<g id="edge10_Node000009_Node000010" class="edge">
<title>Node9&#45;&gt;Node10</title>
<g id="a_edge10_Node000009_Node000010"><a xlink:title=" ">
<path fill="none" stroke="#63b8ff" d="M670.89,-54.98C692.08,-46.34 725.13,-32.87 749.3,-23.02"/>
<polygon fill="#63b8ff" stroke="#63b8ff" points="750.79,-26.19 758.73,-19.17 748.15,-19.7 750.79,-26.19"/>
</a>
</g>
</g>
<!-- Node11&#45;&gt;Node6 -->
<g id="edge13_Node000011_Node000006" class="edge">
<title>Node11&#45;&gt;Node6</title>
<g id="a_edge13_Node000011_Node000006"><a xlink:title=" ">
<path fill="none" stroke="#63b8ff" d="M729.97,-109.98C690.92,-100.49 627.87,-85.16 586.93,-75.21"/>
<polygon fill="#63b8ff" stroke="#63b8ff" points="587.57,-71.76 577.03,-72.8 585.92,-78.56 587.57,-71.76"/>
</a>
</g>
</g>
<!-- Node11&#45;&gt;Node10 -->
<g id="edge12_Node000011_Node000010" class="edge">
<title>Node11&#45;&gt;Node10</title>
<g id="a_edge12_Node000011_Node000010"><a xlink:title=" ">
<path fill="none" stroke="#63b8ff" d="M761.92,-109.76C758.02,-97.41 752.33,-74.22 757,-55 759.31,-45.51 764.02,-35.78 768.58,-27.85"/>
<polygon fill="#63b8ff" stroke="#63b8ff" points="771.64,-29.55 773.9,-19.2 765.68,-25.89 771.64,-29.55"/>
</a>
</g>
</g>
<!-- Node13 -->
<g id="Node000013" class="node">
<title>Node13</title>
<g id="a_Node000013"><a xlink:title=" ">
<polygon fill="#e0e0e0" stroke="#999999" points="399,-19 355,-19 355,0 399,0 399,-19"/>
<text text-anchor="middle" x="377" y="-7" font-family="Helvetica,sans-Serif" font-size="10.00">glib.h</text>
</a>
</g>
</g>
<!-- Node12&#45;&gt;Node13 -->
<g id="edge15_Node000012_Node000013" class="edge">
<title>Node12&#45;&gt;Node13</title>
<g id="a_edge15_Node000012_Node000013"><a xlink:title=" ">
<path fill="none" stroke="#63b8ff" d="M377,-54.75C377,-47.8 377,-37.85 377,-29.13"/>
<polygon fill="#63b8ff" stroke="#63b8ff" points="380.5,-29.09 377,-19.09 373.5,-29.09 380.5,-29.09"/>
</a>
</g>
</g>
<!-- Node14&#45;&gt;Node6 -->
<g id="edge17_Node000014_Node000006" class="edge">
<title>Node14&#45;&gt;Node6</title>
<g id="a_edge17_Node000014_Node000006"><a xlink:title=" ">
<path fill="none" stroke="#63b8ff" d="M485.73,-109.98C496.73,-102 513.42,-89.88 526.6,-80.31"/>
<polygon fill="#63b8ff" stroke="#63b8ff" points="529.02,-82.88 535.06,-74.17 524.91,-77.21 529.02,-82.88"/>
</a>
</g>
</g>
<!-- Node14&#45;&gt;Node12 -->
<g id="edge18_Node000014_Node000012" class="edge">
<title>Node14&#45;&gt;Node12</title>
<g id="a_edge18_Node000014_Node000012"><a xlink:title=" ">
<path fill="none" stroke="#63b8ff" d="M458.42,-109.98C443.23,-101.69 419.9,-88.94 402.1,-79.22"/>
<polygon fill="#63b8ff" stroke="#63b8ff" points="403.32,-75.89 392.87,-74.17 399.97,-82.04 403.32,-75.89"/>
</a>
</g>
</g>
<!-- Node15&#45;&gt;Node10 -->
<g id="edge20_Node000015_Node000010" class="edge">
<title>Node15&#45;&gt;Node10</title>
<g id="a_edge20_Node000015_Node000010"><a xlink:title=" ">
<path fill="none" stroke="#63b8ff" d="M815.06,-54.75C809.13,-47.26 800.43,-36.28 793.18,-27.13"/>
<polygon fill="#63b8ff" stroke="#63b8ff" points="795.76,-24.75 786.81,-19.09 790.27,-29.1 795.76,-24.75"/>
</a>
</g>
</g>
<!-- Node16&#45;&gt;Node10 -->
<g id="edge22_Node000016_Node000010" class="edge">
<title>Node16&#45;&gt;Node10</title>
<g id="a_edge22_Node000016_Node000010"><a xlink:title=" ">
<path fill="none" stroke="#63b8ff" d="M916.81,-54.98C889.56,-46.13 846.7,-32.19 816.22,-22.28"/>
<polygon fill="#63b8ff" stroke="#63b8ff" points="816.99,-18.85 806.39,-19.08 814.82,-25.5 816.99,-18.85"/>
</a>
</g>
</g>
</g>
</svg>

<g id="navigator" transform="translate(0 0)" fill="#404254">
  <rect fill="#f2f5e9" fill-opacity="0.5" stroke="#606060" stroke-width=".5" x="0" y="0" width="60" height="60"/>
  <use id="zoomplus" xlink:href="#zoomPlus" x="17" y="9" onmousedown="handleZoom(evt,'in')"/>
  <use id="zoomminus" xlink:href="#zoomMin" x="42" y="9" onmousedown="handleZoom(evt,'out')"/>
  <use id="reset" xlink:href="#resetDef" x="30" y="36" onmousedown="handleReset()"/>
   <use id="arrowup" xlink:href="#arrowUp" x="0" y="0" onmousedown="handlePan(0,-1)"/>
  <use id="arrowright" xlink:href="#arrowRight" x="0" y="0" onmousedown="handlePan(1,0)"/>
  <use id="arrowdown" xlink:href="#arrowDown" x="0" y="0" onmousedown="handlePan(0,1)"/>
  <use id="arrowleft" xlink:href="#arrowLeft" x="0" y="0" onmousedown="handlePan(-1,0)"/>
</g>
<svg viewBox="0 0 15 15" width="100%" height="30px" preserveAspectRatio="xMaxYMin meet">
 <g id="arrow_out" transform="scale(0.3 0.3)">
  <a xlink:href="gdict-strategy-chooser_8c__incl_org.svg" target="_base">
   <rect id="button" ry="5" rx="5" y="6" x="6" height="38" width="38"
        fill="#f2f5e9" fill-opacity="0.5" stroke="#606060" stroke-width="1.0"/>
   <path id="arrow"
     d="M 11.500037,31.436501 C 11.940474,20.09759 22.043105,11.32322 32.158766,21.979434 L 37.068811,17.246167 C 37.068811,17.246167 37.088388,32 37.088388,32 L 22.160133,31.978069 C 22.160133,31.978069 26.997745,27.140456 26.997745,27.140456 C 18.528582,18.264221 13.291696,25.230495 11.500037,31.436501 z"
     style="fill:#404040;"/>
  </a>
 </g>
</svg>

<style type='text/css'>
<![CDATA[
[data-mouse-over-selected='false'] { opacity: 0.7; }
[data-mouse-over-selected='true']  { opacity: 1.0; }
]]>
</style>
<script type="application/ecmascript"><![CDATA[
document.addEventListener('DOMContentLoaded', (event) => {
  highlightEdges();
  highlightAdjacentNodes();
});
]]></script>
</svg>
