<?xml version="1.0" encoding="UTF-8" standalone="no"?>
<!DOCTYPE svg PUBLIC "-//W3C//DTD SVG 1.1//EN"
 "http://www.w3.org/Graphics/SVG/1.1/DTD/svg11.dtd">
<!-- Generated by graphviz version 2.43.0 (0)
 -->
<!-- Title: gdict&#45;context.c Pages: 1 -->
<svg width="668pt" height="192pt"
 viewBox="0.00 0.00 668.00 192.00" xmlns="http://www.w3.org/2000/svg" xmlns:xlink="http://www.w3.org/1999/xlink">
<g id="graph0" class="graph" transform="scale(1 1) rotate(0) translate(4 188)">
<title>gdict&#45;context.c</title>
<!-- Node1 -->
<g id="Node000001" class="node">
<title>Node1</title>
<g id="a_Node000001"><a xlink:title=" ">
<polygon fill="#999999" stroke="#666666" points="346,-184 257,-184 257,-165 346,-165 346,-184"/>
<text text-anchor="middle" x="301.5" y="-172" font-family="Helvetica,sans-Serif" font-size="10.00">gdict&#45;context.c</text>
</a>
</g>
</g>
<!-- Node2 -->
<g id="Node000002" class="node">
<title>Node2</title>
<g id="a_Node000002"><a xlink:title=" ">
<polygon fill="#e0e0e0" stroke="#999999" points="89,-129 0,-129 0,-110 89,-110 89,-129"/>
<text text-anchor="middle" x="44.5" y="-117" font-family="Helvetica,sans-Serif" font-size="10.00">glib/gi18n&#45;lib.h</text>
</a>
</g>
</g>
<!-- Node1&#45;&gt;Node2 -->
<g id="edge1_Node000001_Node000002" class="edge">
<title>Node1&#45;&gt;Node2</title>
<g id="a_edge1_Node000001_Node000002"><a xlink:title=" ">
<path fill="none" stroke="#63b8ff" d="M260.21,-164.98C215.57,-155.78 144.34,-141.09 96.05,-131.13"/>
<polygon fill="#63b8ff" stroke="#63b8ff" points="96.62,-127.67 86.12,-129.08 95.2,-134.53 96.62,-127.67"/>
</a>
</g>
</g>
<!-- Node3 -->
<g id="Node000003" class="node">
<title>Node3</title>
<g id="a_Node000003"><a xlink:href="gdict-context_8h.html" target="_top" xlink:title=" ">
<polygon fill="white" stroke="#666666" points="162.5,-74 72.5,-74 72.5,-55 162.5,-55 162.5,-74"/>
<text text-anchor="middle" x="117.5" y="-62" font-family="Helvetica,sans-Serif" font-size="10.00">gdict&#45;context.h</text>
</a>
</g>
</g>
<!-- Node1&#45;&gt;Node3 -->
<g id="edge2_Node000001_Node000003" class="edge">
<title>Node1&#45;&gt;Node3</title>
<g id="a_edge2_Node000001_Node000003"><a xlink:title=" ">
<path fill="none" stroke="#63b8ff" d="M256.83,-172.92C219.9,-170.05 168.5,-160.14 136.5,-129 124.53,-117.35 120.02,-98.49 118.37,-84.34"/>
<polygon fill="#63b8ff" stroke="#63b8ff" points="121.85,-83.93 117.56,-74.24 114.87,-84.49 121.85,-83.93"/>
</a>
</g>
</g>
<!-- Node5 -->
<g id="Node000005" class="node">
<title>Node5</title>
<g id="a_Node000005"><a xlink:href="gdict-enum-types_8h.html" target="_top" xlink:title=" ">
<polygon fill="white" stroke="#666666" points="442.5,-74 330.5,-74 330.5,-55 442.5,-55 442.5,-74"/>
<text text-anchor="middle" x="386.5" y="-62" font-family="Helvetica,sans-Serif" font-size="10.00">gdict&#45;enum&#45;types.h</text>
</a>
</g>
</g>
<!-- Node1&#45;&gt;Node5 -->
<g id="edge4_Node000001_Node000005" class="edge">
<title>Node1&#45;&gt;Node5</title>
<g id="a_edge4_Node000001_Node000005"><a xlink:title=" ">
<path fill="none" stroke="#63b8ff" d="M308.46,-164.66C322.66,-146.61 355.19,-105.28 373.45,-82.08"/>
<polygon fill="#63b8ff" stroke="#63b8ff" points="376.25,-84.18 379.69,-74.16 370.75,-79.85 376.25,-84.18"/>
</a>
</g>
</g>
<!-- Node6 -->
<g id="Node000006" class="node">
<title>Node6</title>
<g id="a_Node000006"><a xlink:href="gdict-utils_8h.html" target="_top" xlink:title=" ">
<polygon fill="white" stroke="#666666" points="487.5,-129 413.5,-129 413.5,-110 487.5,-110 487.5,-129"/>
<text text-anchor="middle" x="450.5" y="-117" font-family="Helvetica,sans-Serif" font-size="10.00">gdict&#45;utils.h</text>
</a>
</g>
</g>
<!-- Node1&#45;&gt;Node6 -->
<g id="edge6_Node000001_Node000006" class="edge">
<title>Node1&#45;&gt;Node6</title>
<g id="a_edge6_Node000001_Node000006"><a xlink:title=" ">
<path fill="none" stroke="#63b8ff" d="M325.44,-164.98C350.06,-156.23 388.62,-142.51 416.42,-132.62"/>
<polygon fill="#63b8ff" stroke="#63b8ff" points="417.88,-135.82 426.12,-129.17 415.53,-129.22 417.88,-135.82"/>
</a>
</g>
</g>
<!-- Node8 -->
<g id="Node000008" class="node">
<title>Node8</title>
<g id="a_Node000008"><a xlink:href="gdict-marshal_8h.html" target="_top" xlink:title=" ">
<polygon fill="white" stroke="#666666" points="312,-74 219,-74 219,-55 312,-55 312,-74"/>
<text text-anchor="middle" x="265.5" y="-62" font-family="Helvetica,sans-Serif" font-size="10.00">gdict&#45;marshal.h</text>
</a>
</g>
</g>
<!-- Node1&#45;&gt;Node8 -->
<g id="edge9_Node000001_Node000008" class="edge">
<title>Node1&#45;&gt;Node8</title>
<g id="a_edge9_Node000001_Node000008"><a xlink:title=" ">
<path fill="none" stroke="#63b8ff" d="M299.12,-164.81C295.7,-152.52 289.1,-129.39 282.5,-110 279.54,-101.29 275.94,-91.75 272.82,-83.74"/>
<polygon fill="#63b8ff" stroke="#63b8ff" points="276.02,-82.31 269.08,-74.29 269.51,-84.88 276.02,-82.31"/>
</a>
</g>
</g>
<!-- Node9 -->
<g id="Node000009" class="node">
<title>Node9</title>
<g id="a_Node000009"><a xlink:href="gdict-context-private_8h.html" target="_top" xlink:title=" ">
<polygon fill="white" stroke="#666666" points="273.5,-129 145.5,-129 145.5,-110 273.5,-110 273.5,-129"/>
<text text-anchor="middle" x="209.5" y="-117" font-family="Helvetica,sans-Serif" font-size="10.00">gdict&#45;context&#45;private.h</text>
</a>
</g>
</g>
<!-- Node1&#45;&gt;Node9 -->
<g id="edge11_Node000001_Node000009" class="edge">
<title>Node1&#45;&gt;Node9</title>
<g id="a_edge11_Node000001_Node000009"><a xlink:title=" ">
<path fill="none" stroke="#63b8ff" d="M286.72,-164.98C272.32,-156.69 250.19,-143.94 233.31,-134.22"/>
<polygon fill="#63b8ff" stroke="#63b8ff" points="234.96,-131.13 224.55,-129.17 231.47,-137.19 234.96,-131.13"/>
</a>
</g>
</g>
<!-- Node10 -->
<g id="Node000010" class="node">
<title>Node10</title>
<g id="a_Node000010"><a xlink:href="gdict-private_8h.html" target="_top" xlink:title=" ">
<polygon fill="white" stroke="#666666" points="593.5,-129 505.5,-129 505.5,-110 593.5,-110 593.5,-129"/>
<text text-anchor="middle" x="549.5" y="-117" font-family="Helvetica,sans-Serif" font-size="10.00">gdict&#45;private.h</text>
</a>
</g>
</g>
<!-- Node1&#45;&gt;Node10 -->
<g id="edge14_Node000001_Node000010" class="edge">
<title>Node1&#45;&gt;Node10</title>
<g id="a_edge14_Node000001_Node000010"><a xlink:title=" ">
<path fill="none" stroke="#63b8ff" d="M341.35,-164.98C384.33,-155.8 452.87,-141.15 499.46,-131.19"/>
<polygon fill="#63b8ff" stroke="#63b8ff" points="500.29,-134.59 509.34,-129.08 498.83,-127.75 500.29,-134.59"/>
</a>
</g>
</g>
<!-- Node4 -->
<g id="Node000004" class="node">
<title>Node4</title>
<g id="a_Node000004"><a xlink:title=" ">
<polygon fill="#e0e0e0" stroke="#999999" points="304,-19 227,-19 227,0 304,0 304,-19"/>
<text text-anchor="middle" x="265.5" y="-7" font-family="Helvetica,sans-Serif" font-size="10.00">glib&#45;object.h</text>
</a>
</g>
</g>
<!-- Node3&#45;&gt;Node4 -->
<g id="edge3_Node000003_Node000004" class="edge">
<title>Node3&#45;&gt;Node4</title>
<g id="a_edge3_Node000003_Node000004"><a xlink:title=" ">
<path fill="none" stroke="#63b8ff" d="M141.28,-54.98C165.73,-46.23 204.03,-32.51 231.65,-22.62"/>
<polygon fill="#63b8ff" stroke="#63b8ff" points="233.05,-25.84 241.29,-19.17 230.69,-19.25 233.05,-25.84"/>
</a>
</g>
</g>
<!-- Node5&#45;&gt;Node4 -->
<g id="edge5_Node000005_Node000004" class="edge">
<title>Node5&#45;&gt;Node4</title>
<g id="a_edge5_Node000005_Node000004"><a xlink:title=" ">
<path fill="none" stroke="#63b8ff" d="M367.06,-54.98C347.51,-46.42 317.12,-33.11 294.68,-23.28"/>
<polygon fill="#63b8ff" stroke="#63b8ff" points="295.86,-19.98 285.29,-19.17 293.05,-26.39 295.86,-19.98"/>
</a>
</g>
</g>
<!-- Node6&#45;&gt;Node4 -->
<g id="edge7_Node000006_Node000004" class="edge">
<title>Node6&#45;&gt;Node4</title>
<g id="a_edge7_Node000006_Node000004"><a xlink:title=" ">
<path fill="none" stroke="#63b8ff" d="M453.82,-109.6C458.18,-96.2 463.93,-70.75 451.5,-55 434.7,-33.71 363.59,-21.47 314.33,-15.4"/>
<polygon fill="#63b8ff" stroke="#63b8ff" points="314.52,-11.9 304.17,-14.2 313.69,-18.85 314.52,-11.9"/>
</a>
</g>
</g>
<!-- Node7 -->
<g id="Node000007" class="node">
<title>Node7</title>
<g id="a_Node000007"><a xlink:title=" ">
<polygon fill="#e0e0e0" stroke="#999999" points="558.5,-74 498.5,-74 498.5,-55 558.5,-55 558.5,-74"/>
<text text-anchor="middle" x="528.5" y="-62" font-family="Helvetica,sans-Serif" font-size="10.00">gtk/gtk.h</text>
</a>
</g>
</g>
<!-- Node6&#45;&gt;Node7 -->
<g id="edge8_Node000006_Node000007" class="edge">
<title>Node6&#45;&gt;Node7</title>
<g id="a_edge8_Node000006_Node000007"><a xlink:title=" ">
<path fill="none" stroke="#63b8ff" d="M463.03,-109.98C474.9,-101.92 492.96,-89.65 507.11,-80.03"/>
<polygon fill="#63b8ff" stroke="#63b8ff" points="509.44,-82.69 515.74,-74.17 505.5,-76.9 509.44,-82.69"/>
</a>
</g>
</g>
<!-- Node8&#45;&gt;Node4 -->
<g id="edge10_Node000008_Node000004" class="edge">
<title>Node8&#45;&gt;Node4</title>
<g id="a_edge10_Node000008_Node000004"><a xlink:title=" ">
<path fill="none" stroke="#63b8ff" d="M265.5,-54.75C265.5,-47.8 265.5,-37.85 265.5,-29.13"/>
<polygon fill="#63b8ff" stroke="#63b8ff" points="269,-29.09 265.5,-19.09 262,-29.09 269,-29.09"/>
</a>
</g>
</g>
<!-- Node9&#45;&gt;Node3 -->
<g id="edge13_Node000009_Node000003" class="edge">
<title>Node9&#45;&gt;Node3</title>
<g id="a_edge13_Node000009_Node000003"><a xlink:title=" ">
<path fill="none" stroke="#63b8ff" d="M194.72,-109.98C180.32,-101.69 158.19,-88.94 141.31,-79.22"/>
<polygon fill="#63b8ff" stroke="#63b8ff" points="142.96,-76.13 132.55,-74.17 139.47,-82.19 142.96,-76.13"/>
</a>
</g>
</g>
<!-- Node9&#45;&gt;Node4 -->
<g id="edge12_Node000009_Node000004" class="edge">
<title>Node9&#45;&gt;Node4</title>
<g id="a_edge12_Node000009_Node000004"><a xlink:title=" ">
<path fill="none" stroke="#63b8ff" d="M207.41,-109.75C204.85,-96.99 201.81,-72.84 210.5,-55 216.74,-42.19 228.61,-31.85 239.74,-24.38"/>
<polygon fill="#63b8ff" stroke="#63b8ff" points="241.74,-27.26 248.38,-19 238.04,-21.31 241.74,-27.26"/>
</a>
</g>
</g>
<!-- Node10&#45;&gt;Node7 -->
<g id="edge15_Node000010_Node000007" class="edge">
<title>Node10&#45;&gt;Node7</title>
<g id="a_edge15_Node000010_Node000007"><a xlink:title=" ">
<path fill="none" stroke="#63b8ff" d="M546.03,-109.75C543.22,-102.65 539.16,-92.4 535.65,-83.56"/>
<polygon fill="#63b8ff" stroke="#63b8ff" points="538.84,-82.1 531.9,-74.09 532.33,-84.68 538.84,-82.1"/>
</a>
</g>
</g>
<!-- Node11 -->
<g id="Node000011" class="node">
<title>Node11</title>
<g id="a_Node000011"><a xlink:href="gdict-debug_8h.html" target="_top" xlink:title=" ">
<polygon fill="white" stroke="#666666" points="660,-74 577,-74 577,-55 660,-55 660,-74"/>
<text text-anchor="middle" x="618.5" y="-62" font-family="Helvetica,sans-Serif" font-size="10.00">gdict&#45;debug.h</text>
</a>
</g>
</g>
<!-- Node10&#45;&gt;Node11 -->
<g id="edge16_Node000010_Node000011" class="edge">
<title>Node10&#45;&gt;Node11</title>
<g id="a_edge16_Node000010_Node000011"><a xlink:title=" ">
<path fill="none" stroke="#63b8ff" d="M560.59,-109.98C570.99,-102 586.76,-89.88 599.22,-80.31"/>
<polygon fill="#63b8ff" stroke="#63b8ff" points="601.41,-83.04 607.21,-74.17 597.15,-77.49 601.41,-83.04"/>
</a>
</g>
</g>
<!-- Node12 -->
<g id="Node000012" class="node">
<title>Node12</title>
<g id="a_Node000012"><a xlink:title=" ">
<polygon fill="#e0e0e0" stroke="#999999" points="640.5,-19 596.5,-19 596.5,0 640.5,0 640.5,-19"/>
<text text-anchor="middle" x="618.5" y="-7" font-family="Helvetica,sans-Serif" font-size="10.00">glib.h</text>
</a>
</g>
</g>
<!-- Node11&#45;&gt;Node12 -->
<g id="edge17_Node000011_Node000012" class="edge">
<title>Node11&#45;&gt;Node12</title>
<g id="a_edge17_Node000011_Node000012"><a xlink:title=" ">
<path fill="none" stroke="#63b8ff" d="M618.5,-54.75C618.5,-47.8 618.5,-37.85 618.5,-29.13"/>
<polygon fill="#63b8ff" stroke="#63b8ff" points="622,-29.09 618.5,-19.09 615,-29.09 622,-29.09"/>
</a>
</g>
</g>
</g>
</svg>
