<?xml version="1.0" encoding="UTF-8" standalone="no"?>
<!DOCTYPE svg PUBLIC "-//W3C//DTD SVG 1.1//EN"
 "http://www.w3.org/Graphics/SVG/1.1/DTD/svg11.dtd">
<!-- Generated by graphviz version 2.43.0 (0)
 -->
<!-- Title: gdict&#45;enum&#45;types.h Pages: 1 -->
<!--zoomable 247 -->

<svg id="main" version="1.1" xmlns="http://www.w3.org/2000/svg" xmlns:xlink="http://www.w3.org/1999/xlink" xml:space="preserve" onload="init(evt)">

<style type="text/css"><![CDATA[
.node, .edge {opacity: 0.7;}
.node.selected, .edge.selected {opacity: 1;}
.edge:hover path { stroke: red; }
.edge:hover polygon { stroke: red; fill: red; }
]]></style>

<defs>
  <circle id="rim" cx="0" cy="0" r="7"/>
  <circle id="rim2" cx="0" cy="0" r="3.5"/>
  <g id="zoomPlus">
    <use xlink:href="#rim" fill="#404040"><set attributeName="fill" to="#808080" begin="zoomplus.mouseover" end="zoomplus.mouseout"/></use>
    <path d="M-4,0h8M0,-4v8" fill="none" stroke="white" stroke-width="1.5" pointer-events="none"/>
  </g>
  <g id="zoomMin">
    <use xlink:href="#rim" fill="#404040"><set attributeName="fill" to="#808080" begin="zoomminus.mouseover" end="zoomminus.mouseout"/></use>
    <path d="M-4,0h8" fill="none" stroke="white" stroke-width="1.5" pointer-events="none"/>
  </g>
  <g id="arrowUp" transform="translate(30 24)">
    <use xlink:href="#rim"/>
    <path pointer-events="none" fill="none" stroke="white" stroke-width="1.5" d="M0,-3.0v7 M-2.5,-0.5L0,-3.0L2.5,-0.5"/>
  </g>
  <g id="arrowRight" transform="rotate(90) translate(36 -43)">
    <use xlink:href="#rim"/>
    <path pointer-events="none" fill="none" stroke="white" stroke-width="1.5" d="M0,-3.0v7 M-2.5,-0.5L0,-3.0L2.5,-0.5"/>
  </g>
  <g id="arrowDown" transform="rotate(180) translate(-30 -48)">
    <use xlink:href="#rim"/>
    <path pointer-events="none" fill="none" stroke="white" stroke-width="1.5" d="M0,-3.0v7 M-2.5,-0.5L0,-3.0L2.5,-0.5"/>
  </g>
  <g id="arrowLeft" transform="rotate(270) translate(-36 17)">
    <use xlink:href="#rim"/>
    <path pointer-events="none" fill="none" stroke="white" stroke-width="1.5" d="M0,-3.0v7 M-2.5,-0.5L0,-3.0L2.5,-0.5"/>
  </g>
  <g id="resetDef">
    <use xlink:href="#rim2" fill="#404040"><set attributeName="fill" to="#808080" begin="reset.mouseover" end="reset.mouseout"/></use>
  </g>
</defs>
<script type="application/ecmascript">
var viewWidth = 1778;
var viewHeight = 247;
var sectionId = 'dynsection-1';
</script>
<script type="application/ecmascript" xlink:href="svg.min.js"/>
<svg id="graph" class="graph">
<g id="viewport">
<title>gdict&#45;enum&#45;types.h</title>
<!-- Node1 -->
<g id="Node000001" class="node">
<title>Node1</title>
<g id="a_Node000001"><a xlink:title=" ">
<polygon fill="#999999" stroke="#666666" points="756,-239 644,-239 644,-220 756,-220 756,-239"/>
<text text-anchor="middle" x="700" y="-227" font-family="Helvetica,sans-Serif" font-size="10.00">gdict&#45;enum&#45;types.h</text>
</a>
</g>
</g>
<!-- Node2 -->
<g id="Node000002" class="node">
<title>Node2</title>
<g id="a_Node000002"><a xlink:href="gdict-client-context_8c.html" target="_top" xlink:title=" ">
<polygon fill="white" stroke="#666666" points="120,-184 0,-184 0,-165 120,-165 120,-184"/>
<text text-anchor="middle" x="60" y="-172" font-family="Helvetica,sans-Serif" font-size="10.00">gdict&#45;client&#45;context.c</text>
</a>
</g>
</g>
<!-- Node1&#45;&gt;Node2 -->
<g id="edge1_Node000001_Node000002" class="edge">
<title>Node1&#45;&gt;Node2</title>
<g id="a_edge1_Node000001_Node000002"><a xlink:title=" ">
<path fill="none" stroke="#63b8ff" d="M633.31,-224.28C526.65,-217.3 311.16,-202.31 129,-184 126.12,-183.71 123.17,-183.4 120.19,-183.08"/>
<polygon fill="#63b8ff" stroke="#63b8ff" points="633.39,-227.79 643.6,-224.95 633.85,-220.8 633.39,-227.79"/>
</a>
</g>
</g>
<!-- Node3 -->
<g id="Node000003" class="node">
<title>Node3</title>
<g id="a_Node000003"><a xlink:href="gdict-context_8c.html" target="_top" xlink:title=" ">
<polygon fill="white" stroke="#666666" points="227.5,-184 138.5,-184 138.5,-165 227.5,-165 227.5,-184"/>
<text text-anchor="middle" x="183" y="-172" font-family="Helvetica,sans-Serif" font-size="10.00">gdict&#45;context.c</text>
</a>
</g>
</g>
<!-- Node1&#45;&gt;Node3 -->
<g id="edge2_Node000001_Node000003" class="edge">
<title>Node1&#45;&gt;Node3</title>
<g id="a_edge2_Node000001_Node000003"><a xlink:title=" ">
<path fill="none" stroke="#63b8ff" d="M633.72,-223.47C543.55,-216.33 377.25,-202.08 236,-184 233.23,-183.65 230.38,-183.26 227.5,-182.85"/>
<polygon fill="#63b8ff" stroke="#63b8ff" points="633.56,-226.97 643.8,-224.27 634.11,-219.99 633.56,-226.97"/>
</a>
</g>
</g>
<!-- Node4 -->
<g id="Node000004" class="node">
<title>Node4</title>
<g id="a_Node000004"><a xlink:href="gdict-database-chooser_8c.html" target="_top" xlink:title=" ">
<polygon fill="white" stroke="#666666" points="384.5,-184 245.5,-184 245.5,-165 384.5,-165 384.5,-184"/>
<text text-anchor="middle" x="315" y="-172" font-family="Helvetica,sans-Serif" font-size="10.00">gdict&#45;database&#45;chooser.c</text>
</a>
</g>
</g>
<!-- Node1&#45;&gt;Node4 -->
<g id="edge3_Node000001_Node000004" class="edge">
<title>Node1&#45;&gt;Node4</title>
<g id="a_edge3_Node000001_Node000004"><a xlink:title=" ">
<path fill="none" stroke="#63b8ff" d="M633.28,-219.32C561.17,-209.39 447.17,-193.7 376.97,-184.03"/>
<polygon fill="#63b8ff" stroke="#63b8ff" points="633.22,-222.84 643.61,-220.74 634.18,-215.91 633.22,-222.84"/>
</a>
</g>
</g>
<!-- Node5 -->
<g id="Node000005" class="node">
<title>Node5</title>
<g id="a_Node000005"><a xlink:href="gdict-defbox_8c.html" target="_top" xlink:title=" ">
<polygon fill="white" stroke="#666666" points="489,-184 403,-184 403,-165 489,-165 489,-184"/>
<text text-anchor="middle" x="446" y="-172" font-family="Helvetica,sans-Serif" font-size="10.00">gdict&#45;defbox.c</text>
</a>
</g>
</g>
<!-- Node1&#45;&gt;Node5 -->
<g id="edge4_Node000001_Node000005" class="edge">
<title>Node1&#45;&gt;Node5</title>
<g id="a_edge4_Node000001_Node000005"><a xlink:title=" ">
<path fill="none" stroke="#63b8ff" d="M649.39,-217.94C601.78,-208.01 531.38,-193.31 487.13,-184.08"/>
<polygon fill="#63b8ff" stroke="#63b8ff" points="648.69,-221.37 659.19,-219.98 650.12,-214.52 648.69,-221.37"/>
</a>
</g>
</g>
<!-- Node6 -->
<g id="Node000006" class="node">
<title>Node6</title>
<g id="a_Node000006"><a xlink:href="gdict-enum-types_8c.html" target="_top" xlink:title=" ">
<polygon fill="white" stroke="#666666" points="618.5,-184 507.5,-184 507.5,-165 618.5,-165 618.5,-184"/>
<text text-anchor="middle" x="563" y="-172" font-family="Helvetica,sans-Serif" font-size="10.00">gdict&#45;enum&#45;types.c</text>
</a>
</g>
</g>
<!-- Node1&#45;&gt;Node6 -->
<g id="edge5_Node000001_Node000006" class="edge">
<title>Node1&#45;&gt;Node6</title>
<g id="a_edge5_Node000001_Node000006"><a xlink:title=" ">
<path fill="none" stroke="#63b8ff" d="M668.44,-216.29C643.05,-206.47 608,-192.91 585.41,-184.17"/>
<polygon fill="#63b8ff" stroke="#63b8ff" points="667.4,-219.64 677.99,-219.98 669.92,-213.11 667.4,-219.64"/>
</a>
</g>
</g>
<!-- Node7 -->
<g id="Node000007" class="node">
<title>Node7</title>
<g id="a_Node000007"><a xlink:href="gdict-source-chooser_8c.html" target="_top" xlink:title=" ">
<polygon fill="white" stroke="#666666" points="763,-184 637,-184 637,-165 763,-165 763,-184"/>
<text text-anchor="middle" x="700" y="-172" font-family="Helvetica,sans-Serif" font-size="10.00">gdict&#45;source&#45;chooser.c</text>
</a>
</g>
</g>
<!-- Node1&#45;&gt;Node7 -->
<g id="edge6_Node000001_Node000007" class="edge">
<title>Node1&#45;&gt;Node7</title>
<g id="a_edge6_Node000001_Node000007"><a xlink:title=" ">
<path fill="none" stroke="#63b8ff" d="M700,-209.66C700,-200.93 700,-190.99 700,-184.09"/>
<polygon fill="#63b8ff" stroke="#63b8ff" points="696.5,-209.75 700,-219.75 703.5,-209.75 696.5,-209.75"/>
</a>
</g>
</g>
<!-- Node8 -->
<g id="Node000008" class="node">
<title>Node8</title>
<g id="a_Node000008"><a xlink:href="gdict-source-loader_8c.html" target="_top" xlink:title=" ">
<polygon fill="white" stroke="#666666" points="900.5,-184 781.5,-184 781.5,-165 900.5,-165 900.5,-184"/>
<text text-anchor="middle" x="841" y="-172" font-family="Helvetica,sans-Serif" font-size="10.00">gdict&#45;source&#45;loader.c</text>
</a>
</g>
</g>
<!-- Node1&#45;&gt;Node8 -->
<g id="edge7_Node000001_Node000008" class="edge">
<title>Node1&#45;&gt;Node8</title>
<g id="a_edge7_Node000001_Node000008"><a xlink:title=" ">
<path fill="none" stroke="#63b8ff" d="M732.14,-216.42C758.29,-206.59 794.59,-192.95 817.93,-184.17"/>
<polygon fill="#63b8ff" stroke="#63b8ff" points="730.78,-213.19 722.65,-219.98 733.25,-219.74 730.78,-213.19"/>
</a>
</g>
</g>
<!-- Node9 -->
<g id="Node000009" class="node">
<title>Node9</title>
<g id="a_Node000009"><a xlink:href="gdict-source_8c.html" target="_top" xlink:title=" ">
<polygon fill="white" stroke="#666666" points="1003.5,-184 918.5,-184 918.5,-165 1003.5,-165 1003.5,-184"/>
<text text-anchor="middle" x="961" y="-172" font-family="Helvetica,sans-Serif" font-size="10.00">gdict&#45;source.c</text>
</a>
</g>
</g>
<!-- Node1&#45;&gt;Node9 -->
<g id="edge8_Node000001_Node000009" class="edge">
<title>Node1&#45;&gt;Node9</title>
<g id="a_edge8_Node000001_Node000009"><a xlink:title=" ">
<path fill="none" stroke="#63b8ff" d="M752,-217.94C800.92,-208.01 873.27,-193.31 918.74,-184.08"/>
<polygon fill="#63b8ff" stroke="#63b8ff" points="751.04,-214.56 741.93,-219.98 752.43,-221.42 751.04,-214.56"/>
</a>
</g>
</g>
<!-- Node10 -->
<g id="Node000010" class="node">
<title>Node10</title>
<g id="a_Node000010"><a xlink:href="gdict-speller_8c.html" target="_top" xlink:title=" ">
<polygon fill="white" stroke="#666666" points="1106.5,-184 1021.5,-184 1021.5,-165 1106.5,-165 1106.5,-184"/>
<text text-anchor="middle" x="1064" y="-172" font-family="Helvetica,sans-Serif" font-size="10.00">gdict&#45;speller.c</text>
</a>
</g>
</g>
<!-- Node1&#45;&gt;Node10 -->
<g id="edge9_Node000001_Node000010" class="edge">
<title>Node1&#45;&gt;Node10</title>
<g id="a_edge9_Node000001_Node000010"><a xlink:title=" ">
<path fill="none" stroke="#63b8ff" d="M766.36,-219.43C829.56,-210.71 927.34,-196.96 1012,-184 1015.07,-183.53 1018.25,-183.03 1021.44,-182.53"/>
<polygon fill="#63b8ff" stroke="#63b8ff" points="765.56,-216.01 756.13,-220.84 766.51,-222.95 765.56,-216.01"/>
</a>
</g>
</g>
<!-- Node11 -->
<g id="Node000011" class="node">
<title>Node11</title>
<g id="a_Node000011"><a xlink:href="gdict-strategy-chooser_8c.html" target="_top" xlink:title=" ">
<polygon fill="white" stroke="#666666" points="1259,-184 1125,-184 1125,-165 1259,-165 1259,-184"/>
<text text-anchor="middle" x="1192" y="-172" font-family="Helvetica,sans-Serif" font-size="10.00">gdict&#45;strategy&#45;chooser.c</text>
</a>
</g>
</g>
<!-- Node1&#45;&gt;Node11 -->
<g id="edge10_Node000001_Node000011" class="edge">
<title>Node1&#45;&gt;Node11</title>
<g id="a_edge10_Node000001_Node000011"><a xlink:title=" ">
<path fill="none" stroke="#63b8ff" d="M766.38,-221.5C848.5,-212.81 992.58,-197.5 1116,-184 1118.9,-183.68 1121.87,-183.36 1124.87,-183.03"/>
<polygon fill="#63b8ff" stroke="#63b8ff" points="765.77,-218.04 756.19,-222.58 766.51,-225 765.77,-218.04"/>
</a>
</g>
</g>
<!-- Node12 -->
<g id="Node000012" class="node">
<title>Node12</title>
<g id="a_Node000012"><a xlink:href="gdict_8h.html" target="_top" xlink:title=" ">
<polygon fill="white" stroke="#666666" points="1327,-184 1277,-184 1277,-165 1327,-165 1327,-184"/>
<text text-anchor="middle" x="1302" y="-172" font-family="Helvetica,sans-Serif" font-size="10.00">gdict.h</text>
</a>
</g>
</g>
<!-- Node1&#45;&gt;Node12 -->
<g id="edge11_Node000001_Node000012" class="edge">
<title>Node1&#45;&gt;Node12</title>
<g id="a_edge11_Node000001_Node000012"><a xlink:title=" ">
<path fill="none" stroke="#63b8ff" d="M766.68,-226.87C873.25,-223.47 1088.25,-213.3 1268,-184 1270.88,-183.53 1273.88,-182.94 1276.85,-182.29"/>
<polygon fill="#63b8ff" stroke="#63b8ff" points="766.29,-223.39 756.4,-227.19 766.51,-230.38 766.29,-223.39"/>
</a>
</g>
</g>
<!-- Node13 -->
<g id="Node000013" class="node">
<title>Node13</title>
<g id="a_Node000013"><a xlink:href="gdict-app_8h.html" target="_top" xlink:title=" ">
<polygon fill="white" stroke="#666666" points="1169.5,-74 1098.5,-74 1098.5,-55 1169.5,-55 1169.5,-74"/>
<text text-anchor="middle" x="1134" y="-62" font-family="Helvetica,sans-Serif" font-size="10.00">gdict&#45;app.h</text>
</a>
</g>
</g>
<!-- Node12&#45;&gt;Node13 -->
<g id="edge12_Node000012_Node000013" class="edge">
<title>Node12&#45;&gt;Node13</title>
<g id="a_edge12_Node000012_Node000013"><a xlink:title=" ">
<path fill="none" stroke="#63b8ff" d="M1266.53,-164.96C1191.97,-151.16 1149.46,-184.36 1105,-129 1091.19,-111.8 1111.67,-86.96 1124.67,-74.04"/>
<polygon fill="#63b8ff" stroke="#63b8ff" points="1266.26,-168.48 1276.77,-167.11 1267.7,-161.63 1266.26,-168.48"/>
</a>
</g>
</g>
<!-- Node16 -->
<g id="Node000016" class="node">
<title>Node16</title>
<g id="a_Node000016"><a xlink:href="gdict-applet_8h.html" target="_top" xlink:title=" ">
<polygon fill="white" stroke="#666666" points="1344,-129 1260,-129 1260,-110 1344,-110 1344,-129"/>
<text text-anchor="middle" x="1302" y="-117" font-family="Helvetica,sans-Serif" font-size="10.00">gdict&#45;applet.h</text>
</a>
</g>
</g>
<!-- Node12&#45;&gt;Node16 -->
<g id="edge15_Node000012_Node000016" class="edge">
<title>Node12&#45;&gt;Node16</title>
<g id="a_edge15_Node000012_Node000016"><a xlink:title=" ">
<path fill="none" stroke="#63b8ff" d="M1302,-154.66C1302,-145.93 1302,-135.99 1302,-129.09"/>
<polygon fill="#63b8ff" stroke="#63b8ff" points="1298.5,-154.75 1302,-164.75 1305.5,-154.75 1298.5,-154.75"/>
</a>
</g>
</g>
<!-- Node18 -->
<g id="Node000018" class="node">
<title>Node18</title>
<g id="a_Node000018"><a xlink:href="gdict-pref-dialog_8h.html" target="_top" xlink:title=" ">
<polygon fill="white" stroke="#666666" points="1468,-129 1362,-129 1362,-110 1468,-110 1468,-129"/>
<text text-anchor="middle" x="1415" y="-117" font-family="Helvetica,sans-Serif" font-size="10.00">gdict&#45;pref&#45;dialog.h</text>
</a>
</g>
</g>
<!-- Node12&#45;&gt;Node18 -->
<g id="edge17_Node000012_Node000018" class="edge">
<title>Node12&#45;&gt;Node18</title>
<g id="a_edge17_Node000012_Node000018"><a xlink:title=" ">
<path fill="none" stroke="#63b8ff" d="M1329.43,-160.63C1350.25,-150.87 1378.3,-137.71 1396.51,-129.17"/>
<polygon fill="#63b8ff" stroke="#63b8ff" points="1327.72,-157.57 1320.16,-164.98 1330.7,-163.91 1327.72,-157.57"/>
</a>
</g>
</g>
<!-- Node20 -->
<g id="Node000020" class="node">
<title>Node20</title>
<g id="a_Node000020"><a xlink:href="gdict-print_8c.html" target="_top" xlink:title=" ">
<polygon fill="white" stroke="#666666" points="1509.5,-74 1434.5,-74 1434.5,-55 1509.5,-55 1509.5,-74"/>
<text text-anchor="middle" x="1472" y="-62" font-family="Helvetica,sans-Serif" font-size="10.00">gdict&#45;print.c</text>
</a>
</g>
</g>
<!-- Node12&#45;&gt;Node20 -->
<g id="edge23_Node000012_Node000020" class="edge">
<title>Node12&#45;&gt;Node20</title>
<g id="a_edge23_Node000012_Node000020"><a xlink:title=" ">
<path fill="none" stroke="#63b8ff" d="M1337.42,-169.59C1383.47,-163.68 1460.04,-150.81 1477,-129 1489.35,-113.11 1481.62,-87.72 1476.11,-74.37"/>
<polygon fill="#63b8ff" stroke="#63b8ff" points="1336.75,-166.14 1327.25,-170.84 1337.61,-173.09 1336.75,-166.14"/>
</a>
</g>
</g>
<!-- Node21 -->
<g id="Node000021" class="node">
<title>Node21</title>
<g id="a_Node000021"><a xlink:href="gdict-window_8c.html" target="_top" xlink:title=" ">
<polygon fill="white" stroke="#666666" points="1276.5,-74 1187.5,-74 1187.5,-55 1276.5,-55 1276.5,-74"/>
<text text-anchor="middle" x="1232" y="-62" font-family="Helvetica,sans-Serif" font-size="10.00">gdict&#45;window.c</text>
</a>
</g>
</g>
<!-- Node12&#45;&gt;Node21 -->
<g id="edge27_Node000012_Node000021" class="edge">
<title>Node12&#45;&gt;Node21</title>
<g id="a_edge27_Node000012_Node000021"><a xlink:title=" ">
<path fill="none" stroke="#63b8ff" d="M1280.25,-158.96C1270.07,-151.16 1258.55,-140.73 1251,-129 1239.79,-111.58 1234.95,-87.27 1233.06,-74.36"/>
<polygon fill="#63b8ff" stroke="#63b8ff" points="1278.23,-161.82 1288.38,-164.87 1282.35,-156.16 1278.23,-161.82"/>
</a>
</g>
</g>
<!-- Node22 -->
<g id="Node000022" class="node">
<title>Node22</title>
<g id="a_Node000022"><a xlink:href="gdict-source-dialog_8h.html" target="_top" xlink:title=" ">
<polygon fill="white" stroke="#666666" points="1643.5,-129 1524.5,-129 1524.5,-110 1643.5,-110 1643.5,-129"/>
<text text-anchor="middle" x="1584" y="-117" font-family="Helvetica,sans-Serif" font-size="10.00">gdict&#45;source&#45;dialog.h</text>
</a>
</g>
</g>
<!-- Node12&#45;&gt;Node22 -->
<g id="edge24_Node000012_Node000022" class="edge">
<title>Node12&#45;&gt;Node22</title>
<g id="a_edge24_Node000012_Node000022"><a xlink:title=" ">
<path fill="none" stroke="#63b8ff" d="M1336.89,-166.94C1387.75,-157.38 1482.31,-139.61 1538.56,-129.04"/>
<polygon fill="#63b8ff" stroke="#63b8ff" points="1336.21,-163.51 1327.03,-168.8 1337.5,-170.39 1336.21,-163.51"/>
</a>
</g>
</g>
<!-- Node24 -->
<g id="Node000024" class="node">
<title>Node24</title>
<g id="a_Node000024"><a xlink:href="gdict-window_8h.html" target="_top" xlink:title=" ">
<polygon fill="white" stroke="#666666" points="1204,-129 1114,-129 1114,-110 1204,-110 1204,-129"/>
<text text-anchor="middle" x="1159" y="-117" font-family="Helvetica,sans-Serif" font-size="10.00">gdict&#45;window.h</text>
</a>
</g>
</g>
<!-- Node12&#45;&gt;Node24 -->
<g id="edge28_Node000012_Node000024" class="edge">
<title>Node12&#45;&gt;Node24</title>
<g id="a_edge28_Node000012_Node000024"><a xlink:title=" ">
<path fill="none" stroke="#63b8ff" d="M1269.41,-161.42C1242.88,-151.59 1206.07,-137.95 1182.39,-129.17"/>
<polygon fill="#63b8ff" stroke="#63b8ff" points="1268.43,-164.79 1279.02,-164.98 1270.86,-158.23 1268.43,-164.79"/>
</a>
</g>
</g>
<!-- Node14 -->
<g id="Node000014" class="node">
<title>Node14</title>
<g id="a_Node000014"><a xlink:href="gdict-app_8c.html" target="_top" xlink:title=" ">
<polygon fill="white" stroke="#666666" points="1344.5,-19 1273.5,-19 1273.5,0 1344.5,0 1344.5,-19"/>
<text text-anchor="middle" x="1309" y="-7" font-family="Helvetica,sans-Serif" font-size="10.00">gdict&#45;app.c</text>
</a>
</g>
</g>
<!-- Node13&#45;&gt;Node14 -->
<g id="edge13_Node000013_Node000014" class="edge">
<title>Node13&#45;&gt;Node14</title>
<g id="a_edge13_Node000013_Node000014"><a xlink:title=" ">
<path fill="none" stroke="#63b8ff" d="M1171.79,-52.06C1204.5,-42.15 1251.07,-28.04 1280.66,-19.08"/>
<polygon fill="#63b8ff" stroke="#63b8ff" points="1170.67,-48.74 1162.12,-54.98 1172.7,-55.44 1170.67,-48.74"/>
</a>
</g>
</g>
<!-- Node15 -->
<g id="Node000015" class="node">
<title>Node15</title>
<g id="a_Node000015"><a xlink:href="mate-utils_2mate-dictionary_2src_2main_8c.html" target="_top" xlink:title=" ">
<polygon fill="white" stroke="#666666" points="1159,-19 1109,-19 1109,0 1159,0 1159,-19"/>
<text text-anchor="middle" x="1134" y="-7" font-family="Helvetica,sans-Serif" font-size="10.00">main.c</text>
</a>
</g>
</g>
<!-- Node13&#45;&gt;Node15 -->
<g id="edge14_Node000013_Node000015" class="edge">
<title>Node13&#45;&gt;Node15</title>
<g id="a_edge14_Node000013_Node000015"><a xlink:title=" ">
<path fill="none" stroke="#63b8ff" d="M1134,-44.66C1134,-35.93 1134,-25.99 1134,-19.09"/>
<polygon fill="#63b8ff" stroke="#63b8ff" points="1130.5,-44.75 1134,-54.75 1137.5,-44.75 1130.5,-44.75"/>
</a>
</g>
</g>
<!-- Node17 -->
<g id="Node000017" class="node">
<title>Node17</title>
<g id="a_Node000017"><a xlink:href="gdict-applet_8c.html" target="_top" xlink:title=" ">
<polygon fill="white" stroke="#666666" points="1377.5,-74 1294.5,-74 1294.5,-55 1377.5,-55 1377.5,-74"/>
<text text-anchor="middle" x="1336" y="-62" font-family="Helvetica,sans-Serif" font-size="10.00">gdict&#45;applet.c</text>
</a>
</g>
</g>
<!-- Node16&#45;&gt;Node17 -->
<g id="edge16_Node000016_Node000017" class="edge">
<title>Node16&#45;&gt;Node17</title>
<g id="a_edge16_Node000016_Node000017"><a xlink:title=" ">
<path fill="none" stroke="#63b8ff" d="M1313.16,-101.1C1318.97,-92.04 1325.82,-81.37 1330.49,-74.09"/>
<polygon fill="#63b8ff" stroke="#63b8ff" points="1310.07,-99.44 1307.61,-109.75 1315.96,-103.22 1310.07,-99.44"/>
</a>
</g>
</g>
<!-- Node18&#45;&gt;Node14 -->
<g id="edge18_Node000018_Node000014" class="edge">
<title>Node18&#45;&gt;Node14</title>
<g id="a_edge18_Node000018_Node000014"><a xlink:title=" ">
<path fill="none" stroke="#63b8ff" d="M1410.25,-99.96C1405.99,-86.27 1398.59,-67.85 1387,-55 1371.96,-38.33 1349.16,-26.33 1332.09,-19.03"/>
<polygon fill="#63b8ff" stroke="#63b8ff" points="1406.92,-101.06 1413.02,-109.73 1413.66,-99.16 1406.92,-101.06"/>
</a>
</g>
</g>
<!-- Node18&#45;&gt;Node17 -->
<g id="edge19_Node000018_Node000017" class="edge">
<title>Node18&#45;&gt;Node17</title>
<g id="a_edge19_Node000018_Node000017"><a xlink:title=" ">
<path fill="none" stroke="#63b8ff" d="M1393.61,-104.15C1379.33,-94.57 1361.03,-82.29 1348.92,-74.17"/>
<polygon fill="#63b8ff" stroke="#63b8ff" points="1392.05,-107.32 1402.31,-109.98 1395.95,-101.51 1392.05,-107.32"/>
</a>
</g>
</g>
<!-- Node19 -->
<g id="Node000019" class="node">
<title>Node19</title>
<g id="a_Node000019"><a xlink:href="gdict-pref-dialog_8c.html" target="_top" xlink:title=" ">
<polygon fill="white" stroke="#666666" points="1632.5,-74 1527.5,-74 1527.5,-55 1632.5,-55 1632.5,-74"/>
<text text-anchor="middle" x="1580" y="-62" font-family="Helvetica,sans-Serif" font-size="10.00">gdict&#45;pref&#45;dialog.c</text>
</a>
</g>
</g>
<!-- Node18&#45;&gt;Node19 -->
<g id="edge20_Node000018_Node000019" class="edge">
<title>Node18&#45;&gt;Node19</title>
<g id="a_edge20_Node000018_Node000019"><a xlink:title=" ">
<path fill="none" stroke="#63b8ff" d="M1451.43,-106.8C1482.22,-96.91 1525.62,-82.97 1553.28,-74.08"/>
<polygon fill="#63b8ff" stroke="#63b8ff" points="1449.96,-103.59 1441.51,-109.98 1452.1,-110.26 1449.96,-103.59"/>
</a>
</g>
</g>
<!-- Node18&#45;&gt;Node20 -->
<g id="edge21_Node000018_Node000020" class="edge">
<title>Node18&#45;&gt;Node20</title>
<g id="a_edge21_Node000018_Node000020"><a xlink:title=" ">
<path fill="none" stroke="#63b8ff" d="M1431.62,-103.04C1441.73,-93.64 1454.28,-81.98 1462.68,-74.17"/>
<polygon fill="#63b8ff" stroke="#63b8ff" points="1429.1,-100.61 1424.16,-109.98 1433.86,-105.74 1429.1,-100.61"/>
</a>
</g>
</g>
<!-- Node18&#45;&gt;Node21 -->
<g id="edge22_Node000018_Node000021" class="edge">
<title>Node18&#45;&gt;Node21</title>
<g id="a_edge22_Node000018_Node000021"><a xlink:title=" ">
<path fill="none" stroke="#63b8ff" d="M1375.93,-107.18C1341.7,-97.27 1292.71,-83.08 1261.63,-74.08"/>
<polygon fill="#63b8ff" stroke="#63b8ff" points="1375.02,-110.56 1385.6,-109.98 1376.97,-103.84 1375.02,-110.56"/>
</a>
</g>
</g>
<!-- Node22&#45;&gt;Node19 -->
<g id="edge25_Node000022_Node000019" class="edge">
<title>Node22&#45;&gt;Node19</title>
<g id="a_edge25_Node000022_Node000019"><a xlink:title=" ">
<path fill="none" stroke="#63b8ff" d="M1582.58,-99.66C1581.92,-90.93 1581.17,-80.99 1580.65,-74.09"/>
<polygon fill="#63b8ff" stroke="#63b8ff" points="1579.1,-100.04 1583.34,-109.75 1586.08,-99.51 1579.1,-100.04"/>
</a>
</g>
</g>
<!-- Node23 -->
<g id="Node000023" class="node">
<title>Node23</title>
<g id="a_Node000023"><a xlink:href="gdict-source-dialog_8c.html" target="_top" xlink:title=" ">
<polygon fill="white" stroke="#666666" points="1769.5,-74 1650.5,-74 1650.5,-55 1769.5,-55 1769.5,-74"/>
<text text-anchor="middle" x="1710" y="-62" font-family="Helvetica,sans-Serif" font-size="10.00">gdict&#45;source&#45;dialog.c</text>
</a>
</g>
</g>
<!-- Node22&#45;&gt;Node23 -->
<g id="edge26_Node000022_Node000023" class="edge">
<title>Node22&#45;&gt;Node23</title>
<g id="a_edge26_Node000022_Node000023"><a xlink:title=" ">
<path fill="none" stroke="#63b8ff" d="M1613.65,-106.03C1636.95,-96.23 1668.8,-82.83 1689.39,-74.17"/>
<polygon fill="#63b8ff" stroke="#63b8ff" points="1612.1,-102.88 1604.24,-109.98 1614.82,-109.33 1612.1,-102.88"/>
</a>
</g>
</g>
<!-- Node24&#45;&gt;Node13 -->
<g id="edge29_Node000024_Node000013" class="edge">
<title>Node24&#45;&gt;Node13</title>
<g id="a_edge29_Node000024_Node000013"><a xlink:title=" ">
<path fill="none" stroke="#63b8ff" d="M1150.52,-100.53C1146.31,-91.6 1141.41,-81.22 1138.05,-74.09"/>
<polygon fill="#63b8ff" stroke="#63b8ff" points="1147.44,-102.2 1154.87,-109.75 1153.77,-99.21 1147.44,-102.2"/>
</a>
</g>
</g>
<!-- Node24&#45;&gt;Node21 -->
<g id="edge30_Node000024_Node000021" class="edge">
<title>Node24&#45;&gt;Node21</title>
<g id="a_edge30_Node000024_Node000021"><a xlink:title=" ">
<path fill="none" stroke="#63b8ff" d="M1179.14,-103.88C1192.28,-94.34 1208.98,-82.21 1220.06,-74.17"/>
<polygon fill="#63b8ff" stroke="#63b8ff" points="1176.76,-101.28 1170.73,-109.98 1180.88,-106.94 1176.76,-101.28"/>
</a>
</g>
</g>
</g>
</svg>

<g id="navigator" transform="translate(0 0)" fill="#404254">
  <rect fill="#f2f5e9" fill-opacity="0.5" stroke="#606060" stroke-width=".5" x="0" y="0" width="60" height="60"/>
  <use id="zoomplus" xlink:href="#zoomPlus" x="17" y="9" onmousedown="handleZoom(evt,'in')"/>
  <use id="zoomminus" xlink:href="#zoomMin" x="42" y="9" onmousedown="handleZoom(evt,'out')"/>
  <use id="reset" xlink:href="#resetDef" x="30" y="36" onmousedown="handleReset()"/>
   <use id="arrowup" xlink:href="#arrowUp" x="0" y="0" onmousedown="handlePan(0,-1)"/>
  <use id="arrowright" xlink:href="#arrowRight" x="0" y="0" onmousedown="handlePan(1,0)"/>
  <use id="arrowdown" xlink:href="#arrowDown" x="0" y="0" onmousedown="handlePan(0,1)"/>
  <use id="arrowleft" xlink:href="#arrowLeft" x="0" y="0" onmousedown="handlePan(-1,0)"/>
</g>
<svg viewBox="0 0 15 15" width="100%" height="30px" preserveAspectRatio="xMaxYMin meet">
 <g id="arrow_out" transform="scale(0.3 0.3)">
  <a xlink:href="gdict-enum-types_8h__dep__incl_org.svg" target="_base">
   <rect id="button" ry="5" rx="5" y="6" x="6" height="38" width="38"
        fill="#f2f5e9" fill-opacity="0.5" stroke="#606060" stroke-width="1.0"/>
   <path id="arrow"
     d="M 11.500037,31.436501 C 11.940474,20.09759 22.043105,11.32322 32.158766,21.979434 L 37.068811,17.246167 C 37.068811,17.246167 37.088388,32 37.088388,32 L 22.160133,31.978069 C 22.160133,31.978069 26.997745,27.140456 26.997745,27.140456 C 18.528582,18.264221 13.291696,25.230495 11.500037,31.436501 z"
     style="fill:#404040;"/>
  </a>
 </g>
</svg>

<style type='text/css'>
<![CDATA[
[data-mouse-over-selected='false'] { opacity: 0.7; }
[data-mouse-over-selected='true']  { opacity: 1.0; }
]]>
</style>
<script type="application/ecmascript"><![CDATA[
document.addEventListener('DOMContentLoaded', (event) => {
  highlightEdges();
  highlightAdjacentNodes();
});
]]></script>
</svg>
