<?xml version="1.0" encoding="UTF-8" standalone="no"?>
<!DOCTYPE svg PUBLIC "-//W3C//DTD SVG 1.1//EN"
 "http://www.w3.org/Graphics/SVG/1.1/DTD/svg11.dtd">
<!-- Generated by graphviz version 2.43.0 (0)
 -->
<!-- Title: gdict&#45;window.h Pages: 1 -->
<!--zoomable 357 -->

<svg id="main" version="1.1" xmlns="http://www.w3.org/2000/svg" xmlns:xlink="http://www.w3.org/1999/xlink" xml:space="preserve" onload="init(evt)">

<style type="text/css"><![CDATA[
.node, .edge {opacity: 0.7;}
.node.selected, .edge.selected {opacity: 1;}
.edge:hover path { stroke: red; }
.edge:hover polygon { stroke: red; fill: red; }
]]></style>

<defs>
  <circle id="rim" cx="0" cy="0" r="7"/>
  <circle id="rim2" cx="0" cy="0" r="3.5"/>
  <g id="zoomPlus">
    <use xlink:href="#rim" fill="#404040"><set attributeName="fill" to="#808080" begin="zoomplus.mouseover" end="zoomplus.mouseout"/></use>
    <path d="M-4,0h8M0,-4v8" fill="none" stroke="white" stroke-width="1.5" pointer-events="none"/>
  </g>
  <g id="zoomMin">
    <use xlink:href="#rim" fill="#404040"><set attributeName="fill" to="#808080" begin="zoomminus.mouseover" end="zoomminus.mouseout"/></use>
    <path d="M-4,0h8" fill="none" stroke="white" stroke-width="1.5" pointer-events="none"/>
  </g>
  <g id="arrowUp" transform="translate(30 24)">
    <use xlink:href="#rim"/>
    <path pointer-events="none" fill="none" stroke="white" stroke-width="1.5" d="M0,-3.0v7 M-2.5,-0.5L0,-3.0L2.5,-0.5"/>
  </g>
  <g id="arrowRight" transform="rotate(90) translate(36 -43)">
    <use xlink:href="#rim"/>
    <path pointer-events="none" fill="none" stroke="white" stroke-width="1.5" d="M0,-3.0v7 M-2.5,-0.5L0,-3.0L2.5,-0.5"/>
  </g>
  <g id="arrowDown" transform="rotate(180) translate(-30 -48)">
    <use xlink:href="#rim"/>
    <path pointer-events="none" fill="none" stroke="white" stroke-width="1.5" d="M0,-3.0v7 M-2.5,-0.5L0,-3.0L2.5,-0.5"/>
  </g>
  <g id="arrowLeft" transform="rotate(270) translate(-36 17)">
    <use xlink:href="#rim"/>
    <path pointer-events="none" fill="none" stroke="white" stroke-width="1.5" d="M0,-3.0v7 M-2.5,-0.5L0,-3.0L2.5,-0.5"/>
  </g>
  <g id="resetDef">
    <use xlink:href="#rim2" fill="#404040"><set attributeName="fill" to="#808080" begin="reset.mouseover" end="reset.mouseout"/></use>
  </g>
</defs>
<script type="application/ecmascript">
var viewWidth = 1099;
var viewHeight = 357;
var sectionId = 'dynsection-0';
</script>
<script type="application/ecmascript" xlink:href="svg.min.js"/>
<svg id="graph" class="graph">
<g id="viewport">
<title>gdict&#45;window.h</title>
<!-- Node1 -->
<g id="Node000001" class="node">
<title>Node1</title>
<g id="a_Node000001"><a xlink:title=" ">
<polygon fill="#999999" stroke="#666666" points="235.5,-349 145.5,-349 145.5,-330 235.5,-330 235.5,-349"/>
<text text-anchor="middle" x="190.5" y="-337" font-family="Helvetica,sans-Serif" font-size="10.00">gdict&#45;window.h</text>
</a>
</g>
</g>
<!-- Node2 -->
<g id="Node000002" class="node">
<title>Node2</title>
<g id="a_Node000002"><a xlink:title=" ">
<polygon fill="#e0e0e0" stroke="#999999" points="59,-294 0,-294 0,-275 59,-275 59,-294"/>
<text text-anchor="middle" x="29.5" y="-282" font-family="Helvetica,sans-Serif" font-size="10.00">gio/gio.h</text>
</a>
</g>
</g>
<!-- Node1&#45;&gt;Node2 -->
<g id="edge1_Node000001_Node000002" class="edge">
<title>Node1&#45;&gt;Node2</title>
<g id="a_edge1_Node000001_Node000002"><a xlink:title=" ">
<path fill="none" stroke="#63b8ff" d="M164.63,-329.98C137.72,-321.13 95.38,-307.19 65.27,-297.28"/>
<polygon fill="#63b8ff" stroke="#63b8ff" points="66.16,-293.88 55.57,-294.08 63.97,-300.53 66.16,-293.88"/>
</a>
</g>
</g>
<!-- Node3 -->
<g id="Node000003" class="node">
<title>Node3</title>
<g id="a_Node000003"><a xlink:title=" ">
<polygon fill="#e0e0e0" stroke="#999999" points="210,-294 77,-294 77,-275 210,-275 210,-294"/>
<text text-anchor="middle" x="143.5" y="-282" font-family="Helvetica,sans-Serif" font-size="10.00">gdk&#45;pixbuf/gdk&#45;pixbuf.h</text>
</a>
</g>
</g>
<!-- Node1&#45;&gt;Node3 -->
<g id="edge2_Node000001_Node000003" class="edge">
<title>Node1&#45;&gt;Node3</title>
<g id="a_edge2_Node000001_Node000003"><a xlink:title=" ">
<path fill="none" stroke="#63b8ff" d="M182.74,-329.75C176.03,-322.18 166.16,-311.05 157.99,-301.84"/>
<polygon fill="#63b8ff" stroke="#63b8ff" points="160.37,-299.25 151.12,-294.09 155.13,-303.89 160.37,-299.25"/>
</a>
</g>
</g>
<!-- Node4 -->
<g id="Node000004" class="node">
<title>Node4</title>
<g id="a_Node000004"><a xlink:title=" ">
<polygon fill="#e0e0e0" stroke="#999999" points="503.5,-184 443.5,-184 443.5,-165 503.5,-165 503.5,-184"/>
<text text-anchor="middle" x="473.5" y="-172" font-family="Helvetica,sans-Serif" font-size="10.00">gtk/gtk.h</text>
</a>
</g>
</g>
<!-- Node1&#45;&gt;Node4 -->
<g id="edge3_Node000001_Node000004" class="edge">
<title>Node1&#45;&gt;Node4</title>
<g id="a_edge3_Node000001_Node000004"><a xlink:title=" ">
<path fill="none" stroke="#63b8ff" d="M196.28,-329.76C202.09,-320.87 211.2,-306.65 218.5,-294 237.08,-261.8 227.78,-242.33 257.5,-220 284.74,-199.53 378.55,-186.01 433.17,-179.67"/>
<polygon fill="#63b8ff" stroke="#63b8ff" points="433.67,-183.14 443.22,-178.54 432.89,-176.18 433.67,-183.14"/>
</a>
</g>
</g>
<!-- Node5 -->
<g id="Node000005" class="node">
<title>Node5</title>
<g id="a_Node000005"><a xlink:href="gdict_8h.html" target="_top" xlink:title=" ">
<polygon fill="white" stroke="#666666" points="712,-294 623,-294 623,-275 712,-275 712,-294"/>
<text text-anchor="middle" x="667.5" y="-282" font-family="Helvetica,sans-Serif" font-size="10.00">libgdict/gdict.h</text>
</a>
</g>
</g>
<!-- Node1&#45;&gt;Node5 -->
<g id="edge4_Node000001_Node000005" class="edge">
<title>Node1&#45;&gt;Node5</title>
<g id="a_edge4_Node000001_Node000005"><a xlink:title=" ">
<path fill="none" stroke="#63b8ff" d="M235.81,-333.47C323.87,-323.68 517.84,-302.13 612.86,-291.57"/>
<polygon fill="#63b8ff" stroke="#63b8ff" points="613.29,-295.04 622.84,-290.46 612.52,-288.09 613.29,-295.04"/>
</a>
</g>
</g>
<!-- Node6 -->
<g id="Node000006" class="node">
<title>Node6</title>
<g id="a_Node000006"><a xlink:href="gdict-context_8h.html" target="_top" xlink:title=" ">
<polygon fill="white" stroke="#666666" points="522.5,-74 432.5,-74 432.5,-55 522.5,-55 522.5,-74"/>
<text text-anchor="middle" x="477.5" y="-62" font-family="Helvetica,sans-Serif" font-size="10.00">gdict&#45;context.h</text>
</a>
</g>
</g>
<!-- Node5&#45;&gt;Node6 -->
<g id="edge5_Node000005_Node000006" class="edge">
<title>Node5&#45;&gt;Node6</title>
<g id="a_edge5_Node000005_Node000006"><a xlink:title=" ">
<path fill="none" stroke="#63b8ff" d="M681.51,-274.95C698.88,-263.19 724.89,-241.08 713.5,-220 671.41,-142.13 571.11,-97.2 515.78,-77.52"/>
<polygon fill="#63b8ff" stroke="#63b8ff" points="516.59,-74.09 505.99,-74.13 514.3,-80.71 516.59,-74.09"/>
</a>
</g>
</g>
<!-- Node8 -->
<g id="Node000008" class="node">
<title>Node8</title>
<g id="a_Node000008"><a xlink:href="gdict-client-context_8h.html" target="_top" xlink:title=" ">
<polygon fill="white" stroke="#666666" points="129,-129 8,-129 8,-110 129,-110 129,-129"/>
<text text-anchor="middle" x="68.5" y="-117" font-family="Helvetica,sans-Serif" font-size="10.00">gdict&#45;client&#45;context.h</text>
</a>
</g>
</g>
<!-- Node5&#45;&gt;Node8 -->
<g id="edge7_Node000005_Node000008" class="edge">
<title>Node5&#45;&gt;Node8</title>
<g id="a_edge7_Node000005_Node000008"><a xlink:title=" ">
<path fill="none" stroke="#63b8ff" d="M622.85,-283.64C489.25,-283.59 99.51,-279.91 61.5,-239 36.22,-211.8 49.99,-164.19 60.37,-138.37"/>
<polygon fill="#63b8ff" stroke="#63b8ff" points="63.64,-139.62 64.35,-129.05 57.2,-136.87 63.64,-139.62"/>
</a>
</g>
</g>
<!-- Node9 -->
<g id="Node000009" class="node">
<title>Node9</title>
<g id="a_Node000009"><a xlink:href="gdict-source_8h.html" target="_top" xlink:title=" ">
<polygon fill="white" stroke="#666666" points="884.5,-129 798.5,-129 798.5,-110 884.5,-110 884.5,-129"/>
<text text-anchor="middle" x="841.5" y="-117" font-family="Helvetica,sans-Serif" font-size="10.00">gdict&#45;source.h</text>
</a>
</g>
</g>
<!-- Node5&#45;&gt;Node9 -->
<g id="edge9_Node000005_Node000009" class="edge">
<title>Node5&#45;&gt;Node9</title>
<g id="a_edge9_Node000005_Node000009"><a xlink:title=" ">
<path fill="none" stroke="#63b8ff" d="M712.25,-282.03C776.08,-278.88 888.35,-269.1 913.5,-239 924.82,-225.44 919.6,-191.75 902.5,-165 894.23,-152.06 880.75,-141.65 868.57,-134.16"/>
<polygon fill="#63b8ff" stroke="#63b8ff" points="870.03,-130.96 859.61,-129 866.54,-137.02 870.03,-130.96"/>
</a>
</g>
</g>
<!-- Node11 -->
<g id="Node000011" class="node">
<title>Node11</title>
<g id="a_Node000011"><a xlink:href="gdict-source-loader_8h.html" target="_top" xlink:title=" ">
<polygon fill="white" stroke="#666666" points="893,-184 774,-184 774,-165 893,-165 893,-184"/>
<text text-anchor="middle" x="833.5" y="-172" font-family="Helvetica,sans-Serif" font-size="10.00">gdict&#45;source&#45;loader.h</text>
</a>
</g>
</g>
<!-- Node5&#45;&gt;Node11 -->
<g id="edge13_Node000005_Node000011" class="edge">
<title>Node5&#45;&gt;Node11</title>
<g id="a_edge13_Node000005_Node000011"><a xlink:title=" ">
<path fill="none" stroke="#63b8ff" d="M712.13,-281.4C772.27,-277.53 874.46,-266.92 897.5,-239 912.98,-220.24 886.09,-200.86 862.56,-188.53"/>
<polygon fill="#63b8ff" stroke="#63b8ff" points="863.99,-185.33 853.48,-184 860.87,-191.59 863.99,-185.33"/>
</a>
</g>
</g>
<!-- Node12 -->
<g id="Node000012" class="node">
<title>Node12</title>
<g id="a_Node000012"><a xlink:href="gdict-source-chooser_8h.html" target="_top" xlink:title=" ">
<polygon fill="white" stroke="#666666" points="888,-239 761,-239 761,-220 888,-220 888,-239"/>
<text text-anchor="middle" x="824.5" y="-227" font-family="Helvetica,sans-Serif" font-size="10.00">gdict&#45;source&#45;chooser.h</text>
</a>
</g>
</g>
<!-- Node5&#45;&gt;Node12 -->
<g id="edge16_Node000005_Node000012" class="edge">
<title>Node5&#45;&gt;Node12</title>
<g id="a_edge16_Node000005_Node000012"><a xlink:title=" ">
<path fill="none" stroke="#63b8ff" d="M692.72,-274.98C718.86,-266.16 759.9,-252.31 789.23,-242.41"/>
<polygon fill="#63b8ff" stroke="#63b8ff" points="790.72,-245.6 799.08,-239.08 788.48,-238.96 790.72,-245.6"/>
</a>
</g>
</g>
<!-- Node13 -->
<g id="Node000013" class="node">
<title>Node13</title>
<g id="a_Node000013"><a xlink:href="gdict-database-chooser_8h.html" target="_top" xlink:title=" ">
<polygon fill="white" stroke="#666666" points="210.5,-239 70.5,-239 70.5,-220 210.5,-220 210.5,-239"/>
<text text-anchor="middle" x="140.5" y="-227" font-family="Helvetica,sans-Serif" font-size="10.00">gdict&#45;database&#45;chooser.h</text>
</a>
</g>
</g>
<!-- Node5&#45;&gt;Node13 -->
<g id="edge19_Node000005_Node000013" class="edge">
<title>Node5&#45;&gt;Node13</title>
<g id="a_edge19_Node000005_Node000013"><a xlink:title=" ">
<path fill="none" stroke="#63b8ff" d="M622.57,-278.98C533.5,-270.02 333.47,-249.91 221.08,-238.6"/>
<polygon fill="#63b8ff" stroke="#63b8ff" points="221.11,-235.09 210.81,-237.57 220.41,-242.05 221.11,-235.09"/>
</a>
</g>
</g>
<!-- Node14 -->
<g id="Node000014" class="node">
<title>Node14</title>
<g id="a_Node000014"><a xlink:href="gdict-defbox_8h.html" target="_top" xlink:title=" ">
<polygon fill="white" stroke="#666666" points="354,-239 267,-239 267,-220 354,-220 354,-239"/>
<text text-anchor="middle" x="310.5" y="-227" font-family="Helvetica,sans-Serif" font-size="10.00">gdict&#45;defbox.h</text>
</a>
</g>
</g>
<!-- Node5&#45;&gt;Node14 -->
<g id="edge22_Node000005_Node000014" class="edge">
<title>Node5&#45;&gt;Node14</title>
<g id="a_edge22_Node000005_Node000014"><a xlink:title=" ">
<path fill="none" stroke="#63b8ff" d="M622.91,-277.17C565.61,-268.99 462.75,-254.16 364.29,-239.1"/>
<polygon fill="#63b8ff" stroke="#63b8ff" points="364.58,-235.61 354.17,-237.55 363.52,-242.53 364.58,-235.61"/>
</a>
</g>
</g>
<!-- Node15 -->
<g id="Node000015" class="node">
<title>Node15</title>
<g id="a_Node000015"><a xlink:href="gdict-speller_8h.html" target="_top" xlink:title=" ">
<polygon fill="white" stroke="#666666" points="458.5,-239 372.5,-239 372.5,-220 458.5,-220 458.5,-239"/>
<text text-anchor="middle" x="415.5" y="-227" font-family="Helvetica,sans-Serif" font-size="10.00">gdict&#45;speller.h</text>
</a>
</g>
</g>
<!-- Node5&#45;&gt;Node15 -->
<g id="edge25_Node000005_Node000015" class="edge">
<title>Node5&#45;&gt;Node15</title>
<g id="a_edge25_Node000005_Node000015"><a xlink:title=" ">
<path fill="none" stroke="#63b8ff" d="M627.01,-274.98C583.33,-265.8 513.69,-251.15 466.35,-241.19"/>
<polygon fill="#63b8ff" stroke="#63b8ff" points="466.81,-237.72 456.31,-239.08 465.37,-244.57 466.81,-237.72"/>
</a>
</g>
</g>
<!-- Node16 -->
<g id="Node000016" class="node">
<title>Node16</title>
<g id="a_Node000016"><a xlink:href="gdict-strategy-chooser_8h.html" target="_top" xlink:title=" ">
<polygon fill="white" stroke="#666666" points="612,-239 477,-239 477,-220 612,-220 612,-239"/>
<text text-anchor="middle" x="544.5" y="-227" font-family="Helvetica,sans-Serif" font-size="10.00">gdict&#45;strategy&#45;chooser.h</text>
</a>
</g>
</g>
<!-- Node5&#45;&gt;Node16 -->
<g id="edge28_Node000005_Node000016" class="edge">
<title>Node5&#45;&gt;Node16</title>
<g id="a_edge28_Node000005_Node000016"><a xlink:title=" ">
<path fill="none" stroke="#63b8ff" d="M647.74,-274.98C627.77,-266.38 596.7,-252.99 573.85,-243.15"/>
<polygon fill="#63b8ff" stroke="#63b8ff" points="575.19,-239.91 564.62,-239.17 572.42,-246.34 575.19,-239.91"/>
</a>
</g>
</g>
<!-- Node17 -->
<g id="Node000017" class="node">
<title>Node17</title>
<g id="a_Node000017"><a xlink:href="gdict-utils_8h.html" target="_top" xlink:title=" ">
<polygon fill="white" stroke="#666666" points="704.5,-239 630.5,-239 630.5,-220 704.5,-220 704.5,-239"/>
<text text-anchor="middle" x="667.5" y="-227" font-family="Helvetica,sans-Serif" font-size="10.00">gdict&#45;utils.h</text>
</a>
</g>
</g>
<!-- Node5&#45;&gt;Node17 -->
<g id="edge31_Node000005_Node000017" class="edge">
<title>Node5&#45;&gt;Node17</title>
<g id="a_edge31_Node000005_Node000017"><a xlink:title=" ">
<path fill="none" stroke="#63b8ff" d="M667.5,-274.75C667.5,-267.8 667.5,-257.85 667.5,-249.13"/>
<polygon fill="#63b8ff" stroke="#63b8ff" points="671,-249.09 667.5,-239.09 664,-249.09 671,-249.09"/>
</a>
</g>
</g>
<!-- Node18 -->
<g id="Node000018" class="node">
<title>Node18</title>
<g id="a_Node000018"><a xlink:href="gdict-enum-types_8h.html" target="_top" xlink:title=" ">
<polygon fill="white" stroke="#666666" points="1085.5,-129 973.5,-129 973.5,-110 1085.5,-110 1085.5,-129"/>
<text text-anchor="middle" x="1029.5" y="-117" font-family="Helvetica,sans-Serif" font-size="10.00">gdict&#45;enum&#45;types.h</text>
</a>
</g>
</g>
<!-- Node5&#45;&gt;Node18 -->
<g id="edge34_Node000005_Node000018" class="edge">
<title>Node5&#45;&gt;Node18</title>
<g id="a_edge34_Node000005_Node000018"><a xlink:title=" ">
<path fill="none" stroke="#63b8ff" d="M712.11,-282.01C814.05,-278.13 1057.13,-266.12 1081.5,-239 1109,-208.38 1070.52,-160.91 1046.41,-136.38"/>
<polygon fill="#63b8ff" stroke="#63b8ff" points="1048.77,-133.79 1039.18,-129.27 1043.86,-138.78 1048.77,-133.79"/>
</a>
</g>
</g>
<!-- Node19 -->
<g id="Node000019" class="node">
<title>Node19</title>
<g id="a_Node000019"><a xlink:href="gdict-version_8h.html" target="_top" xlink:title=" ">
<polygon fill="white" stroke="#666666" points="1072,-239 983,-239 983,-220 1072,-220 1072,-239"/>
<text text-anchor="middle" x="1027.5" y="-227" font-family="Helvetica,sans-Serif" font-size="10.00">gdict&#45;version.h</text>
</a>
</g>
</g>
<!-- Node5&#45;&gt;Node19 -->
<g id="edge36_Node000005_Node000019" class="edge">
<title>Node5&#45;&gt;Node19</title>
<g id="a_edge36_Node000005_Node000019"><a xlink:title=" ">
<path fill="none" stroke="#63b8ff" d="M712,-276.95C777.9,-267.25 901.29,-249.08 972.67,-238.57"/>
<polygon fill="#63b8ff" stroke="#63b8ff" points="973.43,-242 982.82,-237.08 972.41,-235.07 973.43,-242"/>
</a>
</g>
</g>
<!-- Node7 -->
<g id="Node000007" class="node">
<title>Node7</title>
<g id="a_Node000007"><a xlink:title=" ">
<polygon fill="#e0e0e0" stroke="#999999" points="809,-19 732,-19 732,0 809,0 809,-19"/>
<text text-anchor="middle" x="770.5" y="-7" font-family="Helvetica,sans-Serif" font-size="10.00">glib&#45;object.h</text>
</a>
</g>
</g>
<!-- Node6&#45;&gt;Node7 -->
<g id="edge6_Node000006_Node000007" class="edge">
<title>Node6&#45;&gt;Node7</title>
<g id="a_edge6_Node000006_Node000007"><a xlink:title=" ">
<path fill="none" stroke="#63b8ff" d="M522.64,-55.33C576.59,-45.58 666.51,-29.31 721.93,-19.29"/>
<polygon fill="#63b8ff" stroke="#63b8ff" points="722.64,-22.71 731.86,-17.49 721.4,-15.83 722.64,-22.71"/>
</a>
</g>
</g>
<!-- Node8&#45;&gt;Node6 -->
<g id="edge8_Node000008_Node000006" class="edge">
<title>Node8&#45;&gt;Node6</title>
<g id="a_edge8_Node000008_Node000006"><a xlink:title=" ">
<path fill="none" stroke="#63b8ff" d="M129.29,-110.62C208.46,-100.36 345.73,-82.58 422.13,-72.67"/>
<polygon fill="#63b8ff" stroke="#63b8ff" points="423.03,-76.09 432.5,-71.33 422.13,-69.15 423.03,-76.09"/>
</a>
</g>
</g>
<!-- Node9&#45;&gt;Node6 -->
<g id="edge12_Node000009_Node000006" class="edge">
<title>Node9&#45;&gt;Node6</title>
<g id="a_edge12_Node000009_Node000006"><a xlink:title=" ">
<path fill="none" stroke="#63b8ff" d="M798.32,-112.21C732.04,-102.56 605.29,-84.11 532.52,-73.51"/>
<polygon fill="#63b8ff" stroke="#63b8ff" points="533.02,-70.05 522.62,-72.07 532.01,-76.97 533.02,-70.05"/>
</a>
</g>
</g>
<!-- Node9&#45;&gt;Node7 -->
<g id="edge11_Node000009_Node000007" class="edge">
<title>Node9&#45;&gt;Node7</title>
<g id="a_edge11_Node000009_Node000007"><a xlink:title=" ">
<path fill="none" stroke="#63b8ff" d="M849.13,-109.73C859.27,-96.94 874.7,-72.77 863.5,-55 853.44,-39.03 835.88,-28.66 818.71,-22"/>
<polygon fill="#63b8ff" stroke="#63b8ff" points="819.86,-18.69 809.26,-18.66 817.53,-25.29 819.86,-18.69"/>
</a>
</g>
</g>
<!-- Node10 -->
<g id="Node000010" class="node">
<title>Node10</title>
<g id="a_Node000010"><a xlink:title=" ">
<polygon fill="#e0e0e0" stroke="#999999" points="854.5,-74 798.5,-74 798.5,-55 854.5,-55 854.5,-74"/>
<text text-anchor="middle" x="826.5" y="-62" font-family="Helvetica,sans-Serif" font-size="10.00">stdarg.h</text>
</a>
</g>
</g>
<!-- Node9&#45;&gt;Node10 -->
<g id="edge10_Node000009_Node000010" class="edge">
<title>Node9&#45;&gt;Node10</title>
<g id="a_edge10_Node000009_Node000010"><a xlink:title=" ">
<path fill="none" stroke="#63b8ff" d="M839.02,-109.75C837.04,-102.72 834.18,-92.62 831.69,-83.84"/>
<polygon fill="#63b8ff" stroke="#63b8ff" points="835.02,-82.76 828.93,-74.09 828.29,-84.66 835.02,-82.76"/>
</a>
</g>
</g>
<!-- Node11&#45;&gt;Node7 -->
<g id="edge14_Node000011_Node000007" class="edge">
<title>Node11&#45;&gt;Node7</title>
<g id="a_edge14_Node000011_Node000007"><a xlink:title=" ">
<path fill="none" stroke="#63b8ff" d="M821.31,-164.73C811.08,-156.65 796.97,-143.73 789.5,-129 773.14,-96.74 770.23,-53.74 770.05,-29.4"/>
<polygon fill="#63b8ff" stroke="#63b8ff" points="773.56,-29.11 770.14,-19.08 766.56,-29.05 773.56,-29.11"/>
</a>
</g>
</g>
<!-- Node11&#45;&gt;Node9 -->
<g id="edge15_Node000011_Node000009" class="edge">
<title>Node11&#45;&gt;Node9</title>
<g id="a_edge15_Node000011_Node000009"><a xlink:title=" ">
<path fill="none" stroke="#63b8ff" d="M834.82,-164.75C835.87,-157.8 837.37,-147.85 838.69,-139.13"/>
<polygon fill="#63b8ff" stroke="#63b8ff" points="842.17,-139.5 840.2,-129.09 835.25,-138.45 842.17,-139.5"/>
</a>
</g>
</g>
<!-- Node12&#45;&gt;Node4 -->
<g id="edge17_Node000012_Node000004" class="edge">
<title>Node12&#45;&gt;Node4</title>
<g id="a_edge17_Node000012_Node000004"><a xlink:title=" ">
<path fill="none" stroke="#63b8ff" d="M768.11,-219.98C697.03,-209.25 576.6,-191.07 514,-181.62"/>
<polygon fill="#63b8ff" stroke="#63b8ff" points="514.15,-178.1 503.74,-180.07 513.1,-185.02 514.15,-178.1"/>
</a>
</g>
</g>
<!-- Node12&#45;&gt;Node11 -->
<g id="edge18_Node000012_Node000011" class="edge">
<title>Node12&#45;&gt;Node11</title>
<g id="a_edge18_Node000012_Node000011"><a xlink:title=" ">
<path fill="none" stroke="#63b8ff" d="M825.99,-219.75C827.17,-212.8 828.86,-202.85 830.34,-194.13"/>
<polygon fill="#63b8ff" stroke="#63b8ff" points="833.82,-194.53 832.04,-184.09 826.92,-193.36 833.82,-194.53"/>
</a>
</g>
</g>
<!-- Node13&#45;&gt;Node4 -->
<g id="edge20_Node000013_Node000004" class="edge">
<title>Node13&#45;&gt;Node4</title>
<g id="a_edge20_Node000013_Node000004"><a xlink:title=" ">
<path fill="none" stroke="#63b8ff" d="M194,-219.98C260.6,-209.38 372.87,-191.52 432.85,-181.97"/>
<polygon fill="#63b8ff" stroke="#63b8ff" points="433.74,-185.37 443.07,-180.34 432.64,-178.46 433.74,-185.37"/>
</a>
</g>
</g>
<!-- Node13&#45;&gt;Node6 -->
<g id="edge21_Node000013_Node000006" class="edge">
<title>Node13&#45;&gt;Node6</title>
<g id="a_edge21_Node000013_Node000006"><a xlink:title=" ">
<path fill="none" stroke="#63b8ff" d="M158.14,-219.97C213.52,-193.18 384.13,-110.66 450.6,-78.51"/>
<polygon fill="#63b8ff" stroke="#63b8ff" points="452.15,-81.65 459.62,-74.15 449.1,-75.35 452.15,-81.65"/>
</a>
</g>
</g>
<!-- Node14&#45;&gt;Node4 -->
<g id="edge23_Node000014_Node000004" class="edge">
<title>Node14&#45;&gt;Node4</title>
<g id="a_edge23_Node000014_Node000004"><a xlink:title=" ">
<path fill="none" stroke="#63b8ff" d="M336.69,-219.98C363.94,-211.13 406.8,-197.19 437.28,-187.28"/>
<polygon fill="#63b8ff" stroke="#63b8ff" points="438.68,-190.5 447.11,-184.08 436.51,-183.85 438.68,-190.5"/>
</a>
</g>
</g>
<!-- Node14&#45;&gt;Node6 -->
<g id="edge24_Node000014_Node000006" class="edge">
<title>Node14&#45;&gt;Node6</title>
<g id="a_edge24_Node000014_Node000006"><a xlink:title=" ">
<path fill="none" stroke="#63b8ff" d="M319.48,-219.74C346.32,-193.53 426.26,-115.51 461.03,-81.57"/>
<polygon fill="#63b8ff" stroke="#63b8ff" points="463.77,-83.8 468.48,-74.31 458.88,-78.79 463.77,-83.8"/>
</a>
</g>
</g>
<!-- Node15&#45;&gt;Node4 -->
<g id="edge26_Node000015_Node000004" class="edge">
<title>Node15&#45;&gt;Node4</title>
<g id="a_edge26_Node000015_Node000004"><a xlink:title=" ">
<path fill="none" stroke="#63b8ff" d="M424.82,-219.98C433.31,-212.23 446.06,-200.58 456.38,-191.14"/>
<polygon fill="#63b8ff" stroke="#63b8ff" points="458.99,-193.5 464.01,-184.17 454.27,-188.33 458.99,-193.5"/>
</a>
</g>
</g>
<!-- Node15&#45;&gt;Node6 -->
<g id="edge27_Node000015_Node000006" class="edge">
<title>Node15&#45;&gt;Node6</title>
<g id="a_edge27_Node000015_Node000006"><a xlink:title=" ">
<path fill="none" stroke="#63b8ff" d="M417.76,-219.77C421.04,-207.43 427.49,-184.25 434.5,-165 445.09,-135.92 459.82,-103.15 469,-83.42"/>
<polygon fill="#63b8ff" stroke="#63b8ff" points="472.27,-84.68 473.35,-74.15 465.93,-81.71 472.27,-84.68"/>
</a>
</g>
</g>
<!-- Node16&#45;&gt;Node4 -->
<g id="edge29_Node000016_Node000004" class="edge">
<title>Node16&#45;&gt;Node4</title>
<g id="a_edge29_Node000016_Node000004"><a xlink:title=" ">
<path fill="none" stroke="#63b8ff" d="M533.09,-219.98C522.39,-212 506.16,-199.88 493.34,-190.31"/>
<polygon fill="#63b8ff" stroke="#63b8ff" points="495.22,-187.35 485.11,-184.17 491.03,-192.96 495.22,-187.35"/>
</a>
</g>
</g>
<!-- Node16&#45;&gt;Node6 -->
<g id="edge30_Node000016_Node000006" class="edge">
<title>Node16&#45;&gt;Node6</title>
<g id="a_edge30_Node000016_Node000006"><a xlink:title=" ">
<path fill="none" stroke="#63b8ff" d="M540.9,-219.74C530.36,-194.09 499.4,-118.78 485.01,-83.78"/>
<polygon fill="#63b8ff" stroke="#63b8ff" points="488.16,-82.23 481.12,-74.31 481.68,-84.89 488.16,-82.23"/>
</a>
</g>
</g>
<!-- Node17&#45;&gt;Node4 -->
<g id="edge33_Node000017_Node000004" class="edge">
<title>Node17&#45;&gt;Node4</title>
<g id="a_edge33_Node000017_Node000004"><a xlink:title=" ">
<path fill="none" stroke="#63b8ff" d="M636.33,-219.98C602.95,-210.86 549.86,-196.36 513.44,-186.41"/>
<polygon fill="#63b8ff" stroke="#63b8ff" points="514.2,-182.99 503.63,-183.73 512.36,-189.74 514.2,-182.99"/>
</a>
</g>
</g>
<!-- Node17&#45;&gt;Node7 -->
<g id="edge32_Node000017_Node000007" class="edge">
<title>Node17&#45;&gt;Node7</title>
<g id="a_edge32_Node000017_Node000007"><a xlink:title=" ">
<path fill="none" stroke="#63b8ff" d="M671.54,-219.95C686.76,-187.74 740.86,-73.23 761.97,-28.55"/>
<polygon fill="#63b8ff" stroke="#63b8ff" points="765.27,-29.76 766.38,-19.22 758.94,-26.77 765.27,-29.76"/>
</a>
</g>
</g>
<!-- Node18&#45;&gt;Node7 -->
<g id="edge35_Node000018_Node000007" class="edge">
<title>Node18&#45;&gt;Node7</title>
<g id="a_edge35_Node000018_Node000007"><a xlink:title=" ">
<path fill="none" stroke="#63b8ff" d="M1009,-109.83C979.98,-97.55 925.23,-74.45 878.5,-55 852.36,-44.12 822.61,-31.87 800.96,-22.98"/>
<polygon fill="#63b8ff" stroke="#63b8ff" points="802.21,-19.71 791.63,-19.15 799.55,-26.19 802.21,-19.71"/>
</a>
</g>
</g>
<!-- Node20 -->
<g id="Node000020" class="node">
<title>Node20</title>
<g id="a_Node000020"><a xlink:title=" ">
<polygon fill="#e0e0e0" stroke="#999999" points="1049.5,-184 1005.5,-184 1005.5,-165 1049.5,-165 1049.5,-184"/>
<text text-anchor="middle" x="1027.5" y="-172" font-family="Helvetica,sans-Serif" font-size="10.00">glib.h</text>
</a>
</g>
</g>
<!-- Node19&#45;&gt;Node20 -->
<g id="edge37_Node000019_Node000020" class="edge">
<title>Node19&#45;&gt;Node20</title>
<g id="a_edge37_Node000019_Node000020"><a xlink:title=" ">
<path fill="none" stroke="#63b8ff" d="M1027.5,-219.75C1027.5,-212.8 1027.5,-202.85 1027.5,-194.13"/>
<polygon fill="#63b8ff" stroke="#63b8ff" points="1031,-194.09 1027.5,-184.09 1024,-194.09 1031,-194.09"/>
</a>
</g>
</g>
</g>
</svg>

<g id="navigator" transform="translate(0 0)" fill="#404254">
  <rect fill="#f2f5e9" fill-opacity="0.5" stroke="#606060" stroke-width=".5" x="0" y="0" width="60" height="60"/>
  <use id="zoomplus" xlink:href="#zoomPlus" x="17" y="9" onmousedown="handleZoom(evt,'in')"/>
  <use id="zoomminus" xlink:href="#zoomMin" x="42" y="9" onmousedown="handleZoom(evt,'out')"/>
  <use id="reset" xlink:href="#resetDef" x="30" y="36" onmousedown="handleReset()"/>
   <use id="arrowup" xlink:href="#arrowUp" x="0" y="0" onmousedown="handlePan(0,-1)"/>
  <use id="arrowright" xlink:href="#arrowRight" x="0" y="0" onmousedown="handlePan(1,0)"/>
  <use id="arrowdown" xlink:href="#arrowDown" x="0" y="0" onmousedown="handlePan(0,1)"/>
  <use id="arrowleft" xlink:href="#arrowLeft" x="0" y="0" onmousedown="handlePan(-1,0)"/>
</g>
<svg viewBox="0 0 15 15" width="100%" height="30px" preserveAspectRatio="xMaxYMin meet">
 <g id="arrow_out" transform="scale(0.3 0.3)">
  <a xlink:href="gdict-window_8h__incl_org.svg" target="_base">
   <rect id="button" ry="5" rx="5" y="6" x="6" height="38" width="38"
        fill="#f2f5e9" fill-opacity="0.5" stroke="#606060" stroke-width="1.0"/>
   <path id="arrow"
     d="M 11.500037,31.436501 C 11.940474,20.09759 22.043105,11.32322 32.158766,21.979434 L 37.068811,17.246167 C 37.068811,17.246167 37.088388,32 37.088388,32 L 22.160133,31.978069 C 22.160133,31.978069 26.997745,27.140456 26.997745,27.140456 C 18.528582,18.264221 13.291696,25.230495 11.500037,31.436501 z"
     style="fill:#404040;"/>
  </a>
 </g>
</svg>

<style type='text/css'>
<![CDATA[
[data-mouse-over-selected='false'] { opacity: 0.7; }
[data-mouse-over-selected='true']  { opacity: 1.0; }
]]>
</style>
<script type="application/ecmascript"><![CDATA[
document.addEventListener('DOMContentLoaded', (event) => {
  highlightEdges();
  highlightAdjacentNodes();
});
]]></script>
</svg>
