<?xml version="1.0" encoding="UTF-8" standalone="no"?>
<!DOCTYPE svg PUBLIC "-//W3C//DTD SVG 1.1//EN"
 "http://www.w3.org/Graphics/SVG/1.1/DTD/svg11.dtd">
<!-- Generated by graphviz version 2.43.0 (0)
 -->
<!-- Title: gdict&#45;source.h Pages: 1 -->
<svg width="679pt" height="357pt"
 viewBox="0.00 0.00 679.00 357.00" xmlns="http://www.w3.org/2000/svg" xmlns:xlink="http://www.w3.org/1999/xlink">
<g id="graph0" class="graph" transform="scale(1 1) rotate(0) translate(4 353)">
<title>gdict&#45;source.h</title>
<!-- Node1 -->
<g id="Node000001" class="node">
<title>Node1</title>
<g id="a_Node000001"><a xlink:title=" ">
<polygon fill="#999999" stroke="#666666" points="259.5,-349 173.5,-349 173.5,-330 259.5,-330 259.5,-349"/>
<text text-anchor="middle" x="216.5" y="-337" font-family="Helvetica,sans-Serif" font-size="10.00">gdict&#45;source.h</text>
</a>
</g>
</g>
<!-- Node2 -->
<g id="Node000002" class="node">
<title>Node2</title>
<g id="a_Node000002"><a xlink:href="gdict-enum-types_8c.html" target="_top" xlink:title=" ">
<polygon fill="white" stroke="#666666" points="144,-294 33,-294 33,-275 144,-275 144,-294"/>
<text text-anchor="middle" x="88.5" y="-282" font-family="Helvetica,sans-Serif" font-size="10.00">gdict&#45;enum&#45;types.c</text>
</a>
</g>
</g>
<!-- Node1&#45;&gt;Node2 -->
<g id="edge1_Node000001_Node000002" class="edge">
<title>Node1&#45;&gt;Node2</title>
<g id="a_edge1_Node000001_Node000002"><a xlink:title=" ">
<path fill="none" stroke="#63b8ff" d="M186.38,-326.03C162.71,-316.23 130.35,-302.83 109.44,-294.17"/>
<polygon fill="#63b8ff" stroke="#63b8ff" points="185.36,-329.39 195.93,-329.98 188.03,-322.93 185.36,-329.39"/>
</a>
</g>
</g>
<!-- Node3 -->
<g id="Node000003" class="node">
<title>Node3</title>
<g id="a_Node000003"><a xlink:href="gdict-source-loader_8h.html" target="_top" xlink:title=" ">
<polygon fill="white" stroke="#666666" points="320,-294 201,-294 201,-275 320,-275 320,-294"/>
<text text-anchor="middle" x="260.5" y="-282" font-family="Helvetica,sans-Serif" font-size="10.00">gdict&#45;source&#45;loader.h</text>
</a>
</g>
</g>
<!-- Node1&#45;&gt;Node3 -->
<g id="edge2_Node000001_Node000003" class="edge">
<title>Node1&#45;&gt;Node3</title>
<g id="a_edge2_Node000001_Node000003"><a xlink:title=" ">
<path fill="none" stroke="#63b8ff" d="M230.23,-321.96C237.9,-312.72 247.13,-301.6 253.37,-294.09"/>
<polygon fill="#63b8ff" stroke="#63b8ff" points="227.46,-319.82 223.77,-329.75 232.85,-324.29 227.46,-319.82"/>
</a>
</g>
</g>
<!-- Node6 -->
<g id="Node000006" class="node">
<title>Node6</title>
<g id="a_Node000006"><a xlink:href="gdict_8h.html" target="_top" xlink:title=" ">
<polygon fill="white" stroke="#666666" points="228.5,-184 178.5,-184 178.5,-165 228.5,-165 228.5,-184"/>
<text text-anchor="middle" x="203.5" y="-172" font-family="Helvetica,sans-Serif" font-size="10.00">gdict.h</text>
</a>
</g>
</g>
<!-- Node1&#45;&gt;Node6 -->
<g id="edge28_Node000001_Node000006" class="edge">
<title>Node1&#45;&gt;Node6</title>
<g id="a_edge28_Node000001_Node000006"><a xlink:title=" ">
<path fill="none" stroke="#63b8ff" d="M204.26,-321.54C199.25,-313.59 194.05,-303.74 191.5,-294 181.03,-253.99 194.24,-204.17 200.53,-184.29"/>
<polygon fill="#63b8ff" stroke="#63b8ff" points="201.39,-323.54 209.87,-329.88 207.19,-319.63 201.39,-323.54"/>
</a>
</g>
</g>
<!-- Node20 -->
<g id="Node000020" class="node">
<title>Node20</title>
<g id="a_Node000020"><a xlink:href="gdict-source_8c.html" target="_top" xlink:title=" ">
<polygon fill="white" stroke="#666666" points="423,-294 338,-294 338,-275 423,-275 423,-294"/>
<text text-anchor="middle" x="380.5" y="-282" font-family="Helvetica,sans-Serif" font-size="10.00">gdict&#45;source.c</text>
</a>
</g>
</g>
<!-- Node1&#45;&gt;Node20 -->
<g id="edge27_Node000001_Node000020" class="edge">
<title>Node1&#45;&gt;Node20</title>
<g id="a_edge27_Node000001_Node000020"><a xlink:title=" ">
<path fill="none" stroke="#63b8ff" d="M252.71,-326.8C283.32,-316.91 326.45,-302.97 353.94,-294.08"/>
<polygon fill="#63b8ff" stroke="#63b8ff" points="251.29,-323.58 242.85,-329.98 253.44,-330.24 251.29,-323.58"/>
</a>
</g>
</g>
<!-- Node4 -->
<g id="Node000004" class="node">
<title>Node4</title>
<g id="a_Node000004"><a xlink:href="gdict-source-chooser_8h.html" target="_top" xlink:title=" ">
<polygon fill="white" stroke="#666666" points="366,-239 239,-239 239,-220 366,-220 366,-239"/>
<text text-anchor="middle" x="302.5" y="-227" font-family="Helvetica,sans-Serif" font-size="10.00">gdict&#45;source&#45;chooser.h</text>
</a>
</g>
</g>
<!-- Node3&#45;&gt;Node4 -->
<g id="edge3_Node000003_Node000004" class="edge">
<title>Node3&#45;&gt;Node4</title>
<g id="a_edge3_Node000003_Node000004"><a xlink:title=" ">
<path fill="none" stroke="#63b8ff" d="M273.83,-266.67C281.11,-257.5 289.8,-246.52 295.69,-239.09"/>
<polygon fill="#63b8ff" stroke="#63b8ff" points="270.9,-264.74 267.44,-274.75 276.39,-269.08 270.9,-264.74"/>
</a>
</g>
</g>
<!-- Node3&#45;&gt;Node6 -->
<g id="edge26_Node000003_Node000006" class="edge">
<title>Node3&#45;&gt;Node6</title>
<g id="a_edge26_Node000003_Node000006"><a xlink:title=" ">
<path fill="none" stroke="#63b8ff" d="M247.33,-266.48C241.43,-258.42 234.67,-248.49 229.5,-239 219.36,-220.38 210.75,-196.95 206.45,-184.41"/>
<polygon fill="#63b8ff" stroke="#63b8ff" points="244.67,-268.78 253.48,-274.67 250.27,-264.58 244.67,-268.78"/>
</a>
</g>
</g>
<!-- Node19 -->
<g id="Node000019" class="node">
<title>Node19</title>
<g id="a_Node000019"><a xlink:href="gdict-source-loader_8c.html" target="_top" xlink:title=" ">
<polygon fill="white" stroke="#666666" points="503,-239 384,-239 384,-220 503,-220 503,-239"/>
<text text-anchor="middle" x="443.5" y="-227" font-family="Helvetica,sans-Serif" font-size="10.00">gdict&#45;source&#45;loader.c</text>
</a>
</g>
</g>
<!-- Node3&#45;&gt;Node19 -->
<g id="edge25_Node000003_Node000019" class="edge">
<title>Node3&#45;&gt;Node19</title>
<g id="a_edge25_Node000003_Node000019"><a xlink:title=" ">
<path fill="none" stroke="#63b8ff" d="M299.57,-272.18C333.8,-262.27 382.79,-248.08 413.87,-239.08"/>
<polygon fill="#63b8ff" stroke="#63b8ff" points="298.53,-268.84 289.9,-274.98 300.48,-275.56 298.53,-268.84"/>
</a>
</g>
</g>
<!-- Node5 -->
<g id="Node000005" class="node">
<title>Node5</title>
<g id="a_Node000005"><a xlink:href="gdict-source-chooser_8c.html" target="_top" xlink:title=" ">
<polygon fill="white" stroke="#666666" points="372.5,-184 246.5,-184 246.5,-165 372.5,-165 372.5,-184"/>
<text text-anchor="middle" x="309.5" y="-172" font-family="Helvetica,sans-Serif" font-size="10.00">gdict&#45;source&#45;chooser.c</text>
</a>
</g>
</g>
<!-- Node4&#45;&gt;Node5 -->
<g id="edge4_Node000004_Node000005" class="edge">
<title>Node4&#45;&gt;Node5</title>
<g id="a_edge4_Node000004_Node000005"><a xlink:title=" ">
<path fill="none" stroke="#63b8ff" d="M304.99,-209.66C306.14,-200.93 307.45,-190.99 308.37,-184.09"/>
<polygon fill="#63b8ff" stroke="#63b8ff" points="301.5,-209.38 303.66,-219.75 308.44,-210.29 301.5,-209.38"/>
</a>
</g>
</g>
<!-- Node4&#45;&gt;Node6 -->
<g id="edge5_Node000004_Node000006" class="edge">
<title>Node4&#45;&gt;Node6</title>
<g id="a_edge5_Node000004_Node000006"><a xlink:title=" ">
<path fill="none" stroke="#63b8ff" d="M277.72,-215.23C259.56,-205.51 235.44,-192.6 219.7,-184.17"/>
<polygon fill="#63b8ff" stroke="#63b8ff" points="276.13,-218.35 286.59,-219.98 279.43,-212.18 276.13,-218.35"/>
</a>
</g>
</g>
<!-- Node7 -->
<g id="Node000007" class="node">
<title>Node7</title>
<g id="a_Node000007"><a xlink:href="gdict-app_8h.html" target="_top" xlink:title=" ">
<polygon fill="white" stroke="#666666" points="71,-74 0,-74 0,-55 71,-55 71,-74"/>
<text text-anchor="middle" x="35.5" y="-62" font-family="Helvetica,sans-Serif" font-size="10.00">gdict&#45;app.h</text>
</a>
</g>
</g>
<!-- Node6&#45;&gt;Node7 -->
<g id="edge6_Node000006_Node000007" class="edge">
<title>Node6&#45;&gt;Node7</title>
<g id="a_edge6_Node000006_Node000007"><a xlink:title=" ">
<path fill="none" stroke="#63b8ff" d="M168.2,-170.7C117.08,-165.83 26.37,-153.85 6.5,-129 -7.27,-111.77 13.2,-86.94 26.18,-74.03"/>
<polygon fill="#63b8ff" stroke="#63b8ff" points="167.89,-174.19 178.17,-171.61 168.53,-167.22 167.89,-174.19"/>
</a>
</g>
</g>
<!-- Node10 -->
<g id="Node000010" class="node">
<title>Node10</title>
<g id="a_Node000010"><a xlink:href="gdict-applet_8h.html" target="_top" xlink:title=" ">
<polygon fill="white" stroke="#666666" points="245.5,-129 161.5,-129 161.5,-110 245.5,-110 245.5,-129"/>
<text text-anchor="middle" x="203.5" y="-117" font-family="Helvetica,sans-Serif" font-size="10.00">gdict&#45;applet.h</text>
</a>
</g>
</g>
<!-- Node6&#45;&gt;Node10 -->
<g id="edge9_Node000006_Node000010" class="edge">
<title>Node6&#45;&gt;Node10</title>
<g id="a_edge9_Node000006_Node000010"><a xlink:title=" ">
<path fill="none" stroke="#63b8ff" d="M203.5,-154.66C203.5,-145.93 203.5,-135.99 203.5,-129.09"/>
<polygon fill="#63b8ff" stroke="#63b8ff" points="200,-154.75 203.5,-164.75 207,-154.75 200,-154.75"/>
</a>
</g>
</g>
<!-- Node12 -->
<g id="Node000012" class="node">
<title>Node12</title>
<g id="a_Node000012"><a xlink:href="gdict-pref-dialog_8h.html" target="_top" xlink:title=" ">
<polygon fill="white" stroke="#666666" points="369.5,-129 263.5,-129 263.5,-110 369.5,-110 369.5,-129"/>
<text text-anchor="middle" x="316.5" y="-117" font-family="Helvetica,sans-Serif" font-size="10.00">gdict&#45;pref&#45;dialog.h</text>
</a>
</g>
</g>
<!-- Node6&#45;&gt;Node12 -->
<g id="edge11_Node000006_Node000012" class="edge">
<title>Node6&#45;&gt;Node12</title>
<g id="a_edge11_Node000006_Node000012"><a xlink:title=" ">
<path fill="none" stroke="#63b8ff" d="M230.93,-160.63C251.75,-150.87 279.8,-137.71 298.01,-129.17"/>
<polygon fill="#63b8ff" stroke="#63b8ff" points="229.22,-157.57 221.66,-164.98 232.2,-163.91 229.22,-157.57"/>
</a>
</g>
</g>
<!-- Node14 -->
<g id="Node000014" class="node">
<title>Node14</title>
<g id="a_Node000014"><a xlink:href="gdict-print_8c.html" target="_top" xlink:title=" ">
<polygon fill="white" stroke="#666666" points="411,-74 336,-74 336,-55 411,-55 411,-74"/>
<text text-anchor="middle" x="373.5" y="-62" font-family="Helvetica,sans-Serif" font-size="10.00">gdict&#45;print.c</text>
</a>
</g>
</g>
<!-- Node6&#45;&gt;Node14 -->
<g id="edge17_Node000006_Node000014" class="edge">
<title>Node6&#45;&gt;Node14</title>
<g id="a_edge17_Node000006_Node000014"><a xlink:title=" ">
<path fill="none" stroke="#63b8ff" d="M238.81,-164.66C289.77,-151.89 377.95,-129.7 378.5,-129 390.85,-113.11 383.12,-87.72 377.61,-74.37"/>
<polygon fill="#63b8ff" stroke="#63b8ff" points="237.69,-161.33 228.85,-167.16 239.4,-168.12 237.69,-161.33"/>
</a>
</g>
</g>
<!-- Node15 -->
<g id="Node000015" class="node">
<title>Node15</title>
<g id="a_Node000015"><a xlink:href="gdict-window_8c.html" target="_top" xlink:title=" ">
<polygon fill="white" stroke="#666666" points="178,-74 89,-74 89,-55 178,-55 178,-74"/>
<text text-anchor="middle" x="133.5" y="-62" font-family="Helvetica,sans-Serif" font-size="10.00">gdict&#45;window.c</text>
</a>
</g>
</g>
<!-- Node6&#45;&gt;Node15 -->
<g id="edge21_Node000006_Node000015" class="edge">
<title>Node6&#45;&gt;Node15</title>
<g id="a_edge21_Node000006_Node000015"><a xlink:title=" ">
<path fill="none" stroke="#63b8ff" d="M181.75,-158.96C171.57,-151.16 160.05,-140.73 152.5,-129 141.29,-111.58 136.45,-87.27 134.56,-74.36"/>
<polygon fill="#63b8ff" stroke="#63b8ff" points="179.73,-161.82 189.88,-164.87 183.85,-156.16 179.73,-161.82"/>
</a>
</g>
</g>
<!-- Node16 -->
<g id="Node000016" class="node">
<title>Node16</title>
<g id="a_Node000016"><a xlink:href="gdict-source-dialog_8h.html" target="_top" xlink:title=" ">
<polygon fill="white" stroke="#666666" points="545,-129 426,-129 426,-110 545,-110 545,-129"/>
<text text-anchor="middle" x="485.5" y="-117" font-family="Helvetica,sans-Serif" font-size="10.00">gdict&#45;source&#45;dialog.h</text>
</a>
</g>
</g>
<!-- Node6&#45;&gt;Node16 -->
<g id="edge18_Node000006_Node000016" class="edge">
<title>Node6&#45;&gt;Node16</title>
<g id="a_edge18_Node000006_Node000016"><a xlink:title=" ">
<path fill="none" stroke="#63b8ff" d="M238.89,-164.82C311.13,-149.5 383.98,-136.92 432.08,-129.02"/>
<polygon fill="#63b8ff" stroke="#63b8ff" points="237.75,-161.48 228.71,-167 239.22,-168.33 237.75,-161.48"/>
</a>
</g>
</g>
<!-- Node18 -->
<g id="Node000018" class="node">
<title>Node18</title>
<g id="a_Node000018"><a xlink:href="gdict-window_8h.html" target="_top" xlink:title=" ">
<polygon fill="white" stroke="#666666" points="105.5,-129 15.5,-129 15.5,-110 105.5,-110 105.5,-129"/>
<text text-anchor="middle" x="60.5" y="-117" font-family="Helvetica,sans-Serif" font-size="10.00">gdict&#45;window.h</text>
</a>
</g>
</g>
<!-- Node6&#45;&gt;Node18 -->
<g id="edge22_Node000006_Node000018" class="edge">
<title>Node6&#45;&gt;Node18</title>
<g id="a_edge22_Node000006_Node000018"><a xlink:title=" ">
<path fill="none" stroke="#63b8ff" d="M170.91,-161.42C144.38,-151.59 107.57,-137.95 83.89,-129.17"/>
<polygon fill="#63b8ff" stroke="#63b8ff" points="169.93,-164.79 180.52,-164.98 172.36,-158.23 169.93,-164.79"/>
</a>
</g>
</g>
<!-- Node8 -->
<g id="Node000008" class="node">
<title>Node8</title>
<g id="a_Node000008"><a xlink:href="gdict-app_8c.html" target="_top" xlink:title=" ">
<polygon fill="white" stroke="#666666" points="246,-19 175,-19 175,0 246,0 246,-19"/>
<text text-anchor="middle" x="210.5" y="-7" font-family="Helvetica,sans-Serif" font-size="10.00">gdict&#45;app.c</text>
</a>
</g>
</g>
<!-- Node7&#45;&gt;Node8 -->
<g id="edge7_Node000007_Node000008" class="edge">
<title>Node7&#45;&gt;Node8</title>
<g id="a_edge7_Node000007_Node000008"><a xlink:title=" ">
<path fill="none" stroke="#63b8ff" d="M73.29,-52.06C106,-42.15 152.57,-28.04 182.16,-19.08"/>
<polygon fill="#63b8ff" stroke="#63b8ff" points="72.17,-48.74 63.62,-54.98 74.2,-55.44 72.17,-48.74"/>
</a>
</g>
</g>
<!-- Node9 -->
<g id="Node000009" class="node">
<title>Node9</title>
<g id="a_Node000009"><a xlink:href="mate-utils_2mate-dictionary_2src_2main_8c.html" target="_top" xlink:title=" ">
<polygon fill="white" stroke="#666666" points="60.5,-19 10.5,-19 10.5,0 60.5,0 60.5,-19"/>
<text text-anchor="middle" x="35.5" y="-7" font-family="Helvetica,sans-Serif" font-size="10.00">main.c</text>
</a>
</g>
</g>
<!-- Node7&#45;&gt;Node9 -->
<g id="edge8_Node000007_Node000009" class="edge">
<title>Node7&#45;&gt;Node9</title>
<g id="a_edge8_Node000007_Node000009"><a xlink:title=" ">
<path fill="none" stroke="#63b8ff" d="M35.5,-44.66C35.5,-35.93 35.5,-25.99 35.5,-19.09"/>
<polygon fill="#63b8ff" stroke="#63b8ff" points="32,-44.75 35.5,-54.75 39,-44.75 32,-44.75"/>
</a>
</g>
</g>
<!-- Node11 -->
<g id="Node000011" class="node">
<title>Node11</title>
<g id="a_Node000011"><a xlink:href="gdict-applet_8c.html" target="_top" xlink:title=" ">
<polygon fill="white" stroke="#666666" points="279,-74 196,-74 196,-55 279,-55 279,-74"/>
<text text-anchor="middle" x="237.5" y="-62" font-family="Helvetica,sans-Serif" font-size="10.00">gdict&#45;applet.c</text>
</a>
</g>
</g>
<!-- Node10&#45;&gt;Node11 -->
<g id="edge10_Node000010_Node000011" class="edge">
<title>Node10&#45;&gt;Node11</title>
<g id="a_edge10_Node000010_Node000011"><a xlink:title=" ">
<path fill="none" stroke="#63b8ff" d="M214.66,-101.1C220.47,-92.04 227.32,-81.37 231.99,-74.09"/>
<polygon fill="#63b8ff" stroke="#63b8ff" points="211.57,-99.44 209.11,-109.75 217.46,-103.22 211.57,-99.44"/>
</a>
</g>
</g>
<!-- Node12&#45;&gt;Node8 -->
<g id="edge12_Node000012_Node000008" class="edge">
<title>Node12&#45;&gt;Node8</title>
<g id="a_edge12_Node000012_Node000008"><a xlink:title=" ">
<path fill="none" stroke="#63b8ff" d="M311.75,-99.96C307.49,-86.27 300.09,-67.85 288.5,-55 273.46,-38.33 250.66,-26.33 233.59,-19.03"/>
<polygon fill="#63b8ff" stroke="#63b8ff" points="308.42,-101.06 314.52,-109.73 315.16,-99.16 308.42,-101.06"/>
</a>
</g>
</g>
<!-- Node12&#45;&gt;Node11 -->
<g id="edge13_Node000012_Node000011" class="edge">
<title>Node12&#45;&gt;Node11</title>
<g id="a_edge13_Node000012_Node000011"><a xlink:title=" ">
<path fill="none" stroke="#63b8ff" d="M295.11,-104.15C280.83,-94.57 262.53,-82.29 250.42,-74.17"/>
<polygon fill="#63b8ff" stroke="#63b8ff" points="293.55,-107.32 303.81,-109.98 297.45,-101.51 293.55,-107.32"/>
</a>
</g>
</g>
<!-- Node13 -->
<g id="Node000013" class="node">
<title>Node13</title>
<g id="a_Node000013"><a xlink:href="gdict-pref-dialog_8c.html" target="_top" xlink:title=" ">
<polygon fill="white" stroke="#666666" points="534,-74 429,-74 429,-55 534,-55 534,-74"/>
<text text-anchor="middle" x="481.5" y="-62" font-family="Helvetica,sans-Serif" font-size="10.00">gdict&#45;pref&#45;dialog.c</text>
</a>
</g>
</g>
<!-- Node12&#45;&gt;Node13 -->
<g id="edge14_Node000012_Node000013" class="edge">
<title>Node12&#45;&gt;Node13</title>
<g id="a_edge14_Node000012_Node000013"><a xlink:title=" ">
<path fill="none" stroke="#63b8ff" d="M352.93,-106.8C383.72,-96.91 427.12,-82.97 454.78,-74.08"/>
<polygon fill="#63b8ff" stroke="#63b8ff" points="351.46,-103.59 343.01,-109.98 353.6,-110.26 351.46,-103.59"/>
</a>
</g>
</g>
<!-- Node12&#45;&gt;Node14 -->
<g id="edge15_Node000012_Node000014" class="edge">
<title>Node12&#45;&gt;Node14</title>
<g id="a_edge15_Node000012_Node000014"><a xlink:title=" ">
<path fill="none" stroke="#63b8ff" d="M333.12,-103.04C343.23,-93.64 355.78,-81.98 364.18,-74.17"/>
<polygon fill="#63b8ff" stroke="#63b8ff" points="330.6,-100.61 325.66,-109.98 335.36,-105.74 330.6,-100.61"/>
</a>
</g>
</g>
<!-- Node12&#45;&gt;Node15 -->
<g id="edge16_Node000012_Node000015" class="edge">
<title>Node12&#45;&gt;Node15</title>
<g id="a_edge16_Node000012_Node000015"><a xlink:title=" ">
<path fill="none" stroke="#63b8ff" d="M277.43,-107.18C243.2,-97.27 194.21,-83.08 163.13,-74.08"/>
<polygon fill="#63b8ff" stroke="#63b8ff" points="276.52,-110.56 287.1,-109.98 278.47,-103.84 276.52,-110.56"/>
</a>
</g>
</g>
<!-- Node16&#45;&gt;Node13 -->
<g id="edge19_Node000016_Node000013" class="edge">
<title>Node16&#45;&gt;Node13</title>
<g id="a_edge19_Node000016_Node000013"><a xlink:title=" ">
<path fill="none" stroke="#63b8ff" d="M484.08,-99.66C483.42,-90.93 482.67,-80.99 482.15,-74.09"/>
<polygon fill="#63b8ff" stroke="#63b8ff" points="480.6,-100.04 484.84,-109.75 487.58,-99.51 480.6,-100.04"/>
</a>
</g>
</g>
<!-- Node17 -->
<g id="Node000017" class="node">
<title>Node17</title>
<g id="a_Node000017"><a xlink:href="gdict-source-dialog_8c.html" target="_top" xlink:title=" ">
<polygon fill="white" stroke="#666666" points="671,-74 552,-74 552,-55 671,-55 671,-74"/>
<text text-anchor="middle" x="611.5" y="-62" font-family="Helvetica,sans-Serif" font-size="10.00">gdict&#45;source&#45;dialog.c</text>
</a>
</g>
</g>
<!-- Node16&#45;&gt;Node17 -->
<g id="edge20_Node000016_Node000017" class="edge">
<title>Node16&#45;&gt;Node17</title>
<g id="a_edge20_Node000016_Node000017"><a xlink:title=" ">
<path fill="none" stroke="#63b8ff" d="M515.15,-106.03C538.45,-96.23 570.3,-82.83 590.89,-74.17"/>
<polygon fill="#63b8ff" stroke="#63b8ff" points="513.6,-102.88 505.74,-109.98 516.32,-109.33 513.6,-102.88"/>
</a>
</g>
</g>
<!-- Node18&#45;&gt;Node7 -->
<g id="edge23_Node000018_Node000007" class="edge">
<title>Node18&#45;&gt;Node7</title>
<g id="a_edge23_Node000018_Node000007"><a xlink:title=" ">
<path fill="none" stroke="#63b8ff" d="M52.02,-100.53C47.81,-91.6 42.91,-81.22 39.55,-74.09"/>
<polygon fill="#63b8ff" stroke="#63b8ff" points="48.94,-102.2 56.37,-109.75 55.27,-99.21 48.94,-102.2"/>
</a>
</g>
</g>
<!-- Node18&#45;&gt;Node15 -->
<g id="edge24_Node000018_Node000015" class="edge">
<title>Node18&#45;&gt;Node15</title>
<g id="a_edge24_Node000018_Node000015"><a xlink:title=" ">
<path fill="none" stroke="#63b8ff" d="M80.64,-103.88C93.78,-94.34 110.48,-82.21 121.56,-74.17"/>
<polygon fill="#63b8ff" stroke="#63b8ff" points="78.26,-101.28 72.23,-109.98 82.38,-106.94 78.26,-101.28"/>
</a>
</g>
</g>
</g>
</svg>
