<?xml version="1.0" encoding="UTF-8" standalone="no"?>
<!DOCTYPE svg PUBLIC "-//W3C//DTD SVG 1.1//EN"
 "http://www.w3.org/Graphics/SVG/1.1/DTD/svg11.dtd">
<!-- Generated by graphviz version 2.43.0 (0)
 -->
<!-- Title: gdict&#45;pref&#45;dialog.c Pages: 1 -->
<svg width="1599pt" height="412pt"
 viewBox="0.00 0.00 1599.00 412.00" xmlns="http://www.w3.org/2000/svg" xmlns:xlink="http://www.w3.org/1999/xlink">
<g id="graph0" class="graph" transform="scale(1 1) rotate(0) translate(4 408)">
<title>gdict&#45;pref&#45;dialog.c</title>
<!-- Node1 -->
<g id="Node000001" class="node">
<title>Node1</title>
<g id="a_Node000001"><a xlink:title=" ">
<polygon fill="#999999" stroke="#666666" points="410.5,-404 305.5,-404 305.5,-385 410.5,-385 410.5,-404"/>
<text text-anchor="middle" x="358" y="-392" font-family="Helvetica,sans-Serif" font-size="10.00">gdict&#45;pref&#45;dialog.c</text>
</a>
</g>
</g>
<!-- Node2 -->
<g id="Node000002" class="node">
<title>Node2</title>
<g id="a_Node000002"><a xlink:title=" ">
<polygon fill="#e0e0e0" stroke="#999999" points="50,-349 0,-349 0,-330 50,-330 50,-349"/>
<text text-anchor="middle" x="25" y="-337" font-family="Helvetica,sans-Serif" font-size="10.00">stdio.h</text>
</a>
</g>
</g>
<!-- Node1&#45;&gt;Node2 -->
<g id="edge1_Node000001_Node000002" class="edge">
<title>Node1&#45;&gt;Node2</title>
<g id="a_edge1_Node000001_Node000002"><a xlink:title=" ">
<path fill="none" stroke="#63b8ff" d="M305.34,-387.24C247.51,-380.01 151.73,-367 60.18,-349.07"/>
<polygon fill="#63b8ff" stroke="#63b8ff" points="60.68,-345.6 50.19,-347.09 59.32,-352.46 60.68,-345.6"/>
</a>
</g>
</g>
<!-- Node3 -->
<g id="Node000003" class="node">
<title>Node3</title>
<g id="a_Node000003"><a xlink:title=" ">
<polygon fill="#e0e0e0" stroke="#999999" points="121.5,-349 68.5,-349 68.5,-330 121.5,-330 121.5,-349"/>
<text text-anchor="middle" x="95" y="-337" font-family="Helvetica,sans-Serif" font-size="10.00">stdlib.h</text>
</a>
</g>
</g>
<!-- Node1&#45;&gt;Node3 -->
<g id="edge2_Node000001_Node000003" class="edge">
<title>Node1&#45;&gt;Node3</title>
<g id="a_edge2_Node000001_Node000003"><a xlink:title=" ">
<path fill="none" stroke="#63b8ff" d="M310.71,-384.92C266.67,-376.78 198.97,-363.9 131.65,-349.29"/>
<polygon fill="#63b8ff" stroke="#63b8ff" points="132.24,-345.84 121.72,-347.12 130.75,-352.68 132.24,-345.84"/>
</a>
</g>
</g>
<!-- Node4 -->
<g id="Node000004" class="node">
<title>Node4</title>
<g id="a_Node000004"><a xlink:title=" ">
<polygon fill="#e0e0e0" stroke="#999999" points="192.5,-349 139.5,-349 139.5,-330 192.5,-330 192.5,-349"/>
<text text-anchor="middle" x="166" y="-337" font-family="Helvetica,sans-Serif" font-size="10.00">string.h</text>
</a>
</g>
</g>
<!-- Node1&#45;&gt;Node4 -->
<g id="edge3_Node000001_Node000004" class="edge">
<title>Node1&#45;&gt;Node4</title>
<g id="a_edge3_Node000001_Node000004"><a xlink:title=" ">
<path fill="none" stroke="#63b8ff" d="M327.15,-384.98C293.14,-375.6 238.48,-360.51 202.4,-350.55"/>
<polygon fill="#63b8ff" stroke="#63b8ff" points="203.32,-347.17 192.75,-347.88 201.45,-353.92 203.32,-347.17"/>
</a>
</g>
</g>
<!-- Node5 -->
<g id="Node000005" class="node">
<title>Node5</title>
<g id="a_Node000005"><a xlink:title=" ">
<polygon fill="#e0e0e0" stroke="#999999" points="259,-349 211,-349 211,-330 259,-330 259,-349"/>
<text text-anchor="middle" x="235" y="-337" font-family="Helvetica,sans-Serif" font-size="10.00">time.h</text>
</a>
</g>
</g>
<!-- Node1&#45;&gt;Node5 -->
<g id="edge4_Node000001_Node000005" class="edge">
<title>Node1&#45;&gt;Node5</title>
<g id="a_edge4_Node000001_Node000005"><a xlink:title=" ">
<path fill="none" stroke="#63b8ff" d="M338.24,-384.98C318.27,-376.38 287.2,-362.99 264.35,-353.15"/>
<polygon fill="#63b8ff" stroke="#63b8ff" points="265.69,-349.91 255.12,-349.17 262.92,-356.34 265.69,-349.91"/>
</a>
</g>
</g>
<!-- Node6 -->
<g id="Node000006" class="node">
<title>Node6</title>
<g id="a_Node000006"><a xlink:title=" ">
<polygon fill="#e0e0e0" stroke="#999999" points="349,-349 277,-349 277,-330 349,-330 349,-349"/>
<text text-anchor="middle" x="313" y="-337" font-family="Helvetica,sans-Serif" font-size="10.00">sys/types.h</text>
</a>
</g>
</g>
<!-- Node1&#45;&gt;Node6 -->
<g id="edge5_Node000001_Node000006" class="edge">
<title>Node1&#45;&gt;Node6</title>
<g id="a_edge5_Node000001_Node000006"><a xlink:title=" ">
<path fill="none" stroke="#63b8ff" d="M350.57,-384.75C344.15,-377.18 334.69,-366.05 326.88,-356.84"/>
<polygon fill="#63b8ff" stroke="#63b8ff" points="329.43,-354.45 320.29,-349.09 324.1,-358.98 329.43,-354.45"/>
</a>
</g>
</g>
<!-- Node7 -->
<g id="Node000007" class="node">
<title>Node7</title>
<g id="a_Node000007"><a xlink:title=" ">
<polygon fill="#e0e0e0" stroke="#999999" points="441,-349 367,-349 367,-330 441,-330 441,-349"/>
<text text-anchor="middle" x="404" y="-337" font-family="Helvetica,sans-Serif" font-size="10.00">glib/gi18n.h</text>
</a>
</g>
</g>
<!-- Node1&#45;&gt;Node7 -->
<g id="edge6_Node000001_Node000007" class="edge">
<title>Node1&#45;&gt;Node7</title>
<g id="a_edge6_Node000001_Node000007"><a xlink:title=" ">
<path fill="none" stroke="#63b8ff" d="M365.6,-384.75C372.16,-377.18 381.82,-366.05 389.81,-356.84"/>
<polygon fill="#63b8ff" stroke="#63b8ff" points="392.63,-358.94 396.55,-349.09 387.35,-354.35 392.63,-358.94"/>
</a>
</g>
</g>
<!-- Node8 -->
<g id="Node000008" class="node">
<title>Node8</title>
<g id="a_Node000008"><a xlink:title=" ">
<polygon fill="#e0e0e0" stroke="#999999" points="518.5,-349 459.5,-349 459.5,-330 518.5,-330 518.5,-349"/>
<text text-anchor="middle" x="489" y="-337" font-family="Helvetica,sans-Serif" font-size="10.00">gio/gio.h</text>
</a>
</g>
</g>
<!-- Node1&#45;&gt;Node8 -->
<g id="edge7_Node000001_Node000008" class="edge">
<title>Node1&#45;&gt;Node8</title>
<g id="a_edge7_Node000001_Node000008"><a xlink:title=" ">
<path fill="none" stroke="#63b8ff" d="M379.05,-384.98C400.41,-376.34 433.7,-362.87 458.06,-353.02"/>
<polygon fill="#63b8ff" stroke="#63b8ff" points="459.61,-356.17 467.57,-349.17 456.99,-349.68 459.61,-356.17"/>
</a>
</g>
</g>
<!-- Node9 -->
<g id="Node000009" class="node">
<title>Node9</title>
<g id="a_Node000009"><a xlink:href="gdict-source-dialog_8h.html" target="_top" xlink:title=" ">
<polygon fill="white" stroke="#666666" points="818.5,-349 699.5,-349 699.5,-330 818.5,-330 818.5,-349"/>
<text text-anchor="middle" x="759" y="-337" font-family="Helvetica,sans-Serif" font-size="10.00">gdict&#45;source&#45;dialog.h</text>
</a>
</g>
</g>
<!-- Node1&#45;&gt;Node9 -->
<g id="edge8_Node000001_Node000009" class="edge">
<title>Node1&#45;&gt;Node9</title>
<g id="a_edge8_Node000001_Node000009"><a xlink:title=" ">
<path fill="none" stroke="#63b8ff" d="M410.84,-386.52C482.18,-377.09 609.48,-360.26 688.8,-349.78"/>
<polygon fill="#63b8ff" stroke="#63b8ff" points="689.73,-353.19 699.18,-348.41 688.81,-346.25 689.73,-353.19"/>
</a>
</g>
</g>
<!-- Node27 -->
<g id="Node000027" class="node">
<title>Node27</title>
<g id="a_Node000027"><a xlink:href="gdict-pref-dialog_8h.html" target="_top" xlink:title=" ">
<polygon fill="white" stroke="#666666" points="681,-349 575,-349 575,-330 681,-330 681,-349"/>
<text text-anchor="middle" x="628" y="-337" font-family="Helvetica,sans-Serif" font-size="10.00">gdict&#45;pref&#45;dialog.h</text>
</a>
</g>
</g>
<!-- Node1&#45;&gt;Node27 -->
<g id="edge44_Node000001_Node000027" class="edge">
<title>Node1&#45;&gt;Node27</title>
<g id="a_edge44_Node000001_Node000027"><a xlink:title=" ">
<path fill="none" stroke="#63b8ff" d="M401.38,-384.98C448.38,-375.76 523.43,-361.03 574.16,-351.07"/>
<polygon fill="#63b8ff" stroke="#63b8ff" points="575.14,-354.44 584.28,-349.08 573.79,-347.57 575.14,-354.44"/>
</a>
</g>
</g>
<!-- Node28 -->
<g id="Node000028" class="node">
<title>Node28</title>
<g id="a_Node000028"><a xlink:href="gdict-common_8h.html" target="_top" xlink:title=" ">
<polygon fill="white" stroke="#666666" points="595,-294 499,-294 499,-275 595,-275 595,-294"/>
<text text-anchor="middle" x="547" y="-282" font-family="Helvetica,sans-Serif" font-size="10.00">gdict&#45;common.h</text>
</a>
</g>
</g>
<!-- Node1&#45;&gt;Node28 -->
<g id="edge47_Node000001_Node000028" class="edge">
<title>Node1&#45;&gt;Node28</title>
<g id="a_edge47_Node000001_Node000028"><a xlink:title=" ">
<path fill="none" stroke="#63b8ff" d="M410.53,-392.54C447.57,-389.1 495.93,-378.63 527,-349 539.15,-337.42 543.95,-318.55 545.83,-304.38"/>
<polygon fill="#63b8ff" stroke="#63b8ff" points="549.33,-304.55 546.8,-294.26 542.36,-303.88 549.33,-304.55"/>
</a>
</g>
</g>
<!-- Node10 -->
<g id="Node000010" class="node">
<title>Node10</title>
<g id="a_Node000010"><a xlink:title=" ">
<polygon fill="#e0e0e0" stroke="#999999" points="789,-184 729,-184 729,-165 789,-165 789,-184"/>
<text text-anchor="middle" x="759" y="-172" font-family="Helvetica,sans-Serif" font-size="10.00">gtk/gtk.h</text>
</a>
</g>
</g>
<!-- Node9&#45;&gt;Node10 -->
<g id="edge9_Node000009_Node000010" class="edge">
<title>Node9&#45;&gt;Node10</title>
<g id="a_edge9_Node000009_Node000010"><a xlink:title=" ">
<path fill="none" stroke="#63b8ff" d="M748.71,-329.96C730.63,-314.21 693.8,-278.57 680,-239 677.22,-231.03 675.74,-227.29 680,-220 688.68,-205.14 704.35,-194.86 719.46,-187.95"/>
<polygon fill="#63b8ff" stroke="#63b8ff" points="720.85,-191.17 728.73,-184.08 718.15,-184.71 720.85,-191.17"/>
</a>
</g>
</g>
<!-- Node11 -->
<g id="Node000011" class="node">
<title>Node11</title>
<g id="a_Node000011"><a xlink:href="gdict_8h.html" target="_top" xlink:title=" ">
<polygon fill="white" stroke="#666666" points="1170.5,-294 1081.5,-294 1081.5,-275 1170.5,-275 1170.5,-294"/>
<text text-anchor="middle" x="1126" y="-282" font-family="Helvetica,sans-Serif" font-size="10.00">libgdict/gdict.h</text>
</a>
</g>
</g>
<!-- Node9&#45;&gt;Node11 -->
<g id="edge10_Node000009_Node000011" class="edge">
<title>Node9&#45;&gt;Node11</title>
<g id="a_edge10_Node000009_Node000011"><a xlink:title=" ">
<path fill="none" stroke="#63b8ff" d="M817.96,-329.98C887.83,-319.9 1003.29,-303.22 1071.26,-293.41"/>
<polygon fill="#63b8ff" stroke="#63b8ff" points="1071.94,-296.84 1081.34,-291.95 1070.94,-289.92 1071.94,-296.84"/>
</a>
</g>
</g>
<!-- Node12 -->
<g id="Node000012" class="node">
<title>Node12</title>
<g id="a_Node000012"><a xlink:href="gdict-context_8h.html" target="_top" xlink:title=" ">
<polygon fill="white" stroke="#666666" points="1061,-74 971,-74 971,-55 1061,-55 1061,-74"/>
<text text-anchor="middle" x="1016" y="-62" font-family="Helvetica,sans-Serif" font-size="10.00">gdict&#45;context.h</text>
</a>
</g>
</g>
<!-- Node11&#45;&gt;Node12 -->
<g id="edge11_Node000011_Node000012" class="edge">
<title>Node11&#45;&gt;Node12</title>
<g id="a_edge11_Node000011_Node000012"><a xlink:title=" ">
<path fill="none" stroke="#63b8ff" d="M1130.96,-274.69C1137.29,-262.25 1146.67,-238.96 1140,-220 1118.92,-160.05 1063.68,-106.16 1034.56,-80.81"/>
<polygon fill="#63b8ff" stroke="#63b8ff" points="1036.65,-77.98 1026.77,-74.16 1032.1,-83.31 1036.65,-77.98"/>
</a>
</g>
</g>
<!-- Node14 -->
<g id="Node000014" class="node">
<title>Node14</title>
<g id="a_Node000014"><a xlink:href="gdict-client-context_8h.html" target="_top" xlink:title=" ">
<polygon fill="white" stroke="#666666" points="1284.5,-129 1163.5,-129 1163.5,-110 1284.5,-110 1284.5,-129"/>
<text text-anchor="middle" x="1224" y="-117" font-family="Helvetica,sans-Serif" font-size="10.00">gdict&#45;client&#45;context.h</text>
</a>
</g>
</g>
<!-- Node11&#45;&gt;Node14 -->
<g id="edge13_Node000011_Node000014" class="edge">
<title>Node11&#45;&gt;Node14</title>
<g id="a_edge13_Node000011_Node000014"><a xlink:title=" ">
<path fill="none" stroke="#63b8ff" d="M1137.72,-274.69C1148.1,-266.41 1163.09,-253.19 1173,-239 1195.46,-206.83 1211.06,-163.2 1218.68,-138.86"/>
<polygon fill="#63b8ff" stroke="#63b8ff" points="1222.07,-139.73 1221.61,-129.14 1215.37,-137.7 1222.07,-139.73"/>
</a>
</g>
</g>
<!-- Node15 -->
<g id="Node000015" class="node">
<title>Node15</title>
<g id="a_Node000015"><a xlink:href="gdict-source_8h.html" target="_top" xlink:title=" ">
<polygon fill="white" stroke="#666666" points="1389,-129 1303,-129 1303,-110 1389,-110 1389,-129"/>
<text text-anchor="middle" x="1346" y="-117" font-family="Helvetica,sans-Serif" font-size="10.00">gdict&#45;source.h</text>
</a>
</g>
</g>
<!-- Node11&#45;&gt;Node15 -->
<g id="edge15_Node000011_Node000015" class="edge">
<title>Node11&#45;&gt;Node15</title>
<g id="a_edge15_Node000011_Node000015"><a xlink:title=" ">
<path fill="none" stroke="#63b8ff" d="M1170.74,-281.64C1232.29,-278.04 1338.18,-267.73 1362,-239 1371.8,-227.18 1350.91,-188.66 1350,-184 1347.12,-169.22 1346.18,-152.18 1345.92,-139.48"/>
<polygon fill="#63b8ff" stroke="#63b8ff" points="1349.42,-139.19 1345.84,-129.22 1342.42,-139.24 1349.42,-139.19"/>
</a>
</g>
</g>
<!-- Node17 -->
<g id="Node000017" class="node">
<title>Node17</title>
<g id="a_Node000017"><a xlink:href="gdict-source-loader_8h.html" target="_top" xlink:title=" ">
<polygon fill="white" stroke="#666666" points="1477.5,-184 1358.5,-184 1358.5,-165 1477.5,-165 1477.5,-184"/>
<text text-anchor="middle" x="1418" y="-172" font-family="Helvetica,sans-Serif" font-size="10.00">gdict&#45;source&#45;loader.h</text>
</a>
</g>
</g>
<!-- Node11&#45;&gt;Node17 -->
<g id="edge19_Node000011_Node000017" class="edge">
<title>Node11&#45;&gt;Node17</title>
<g id="a_edge19_Node000011_Node000017"><a xlink:title=" ">
<path fill="none" stroke="#63b8ff" d="M1170.74,-281.48C1238.21,-277.56 1361.65,-266.73 1395,-239 1408.23,-228 1413.85,-208.74 1416.24,-194.31"/>
<polygon fill="#63b8ff" stroke="#63b8ff" points="1419.76,-194.38 1417.54,-184.02 1412.81,-193.5 1419.76,-194.38"/>
</a>
</g>
</g>
<!-- Node18 -->
<g id="Node000018" class="node">
<title>Node18</title>
<g id="a_Node000018"><a xlink:href="gdict-source-chooser_8h.html" target="_top" xlink:title=" ">
<polygon fill="white" stroke="#666666" points="1352.5,-239 1225.5,-239 1225.5,-220 1352.5,-220 1352.5,-239"/>
<text text-anchor="middle" x="1289" y="-227" font-family="Helvetica,sans-Serif" font-size="10.00">gdict&#45;source&#45;chooser.h</text>
</a>
</g>
</g>
<!-- Node11&#45;&gt;Node18 -->
<g id="edge22_Node000011_Node000018" class="edge">
<title>Node11&#45;&gt;Node18</title>
<g id="a_edge22_Node000011_Node000018"><a xlink:title=" ">
<path fill="none" stroke="#63b8ff" d="M1152.19,-274.98C1179.44,-266.13 1222.3,-252.19 1252.78,-242.28"/>
<polygon fill="#63b8ff" stroke="#63b8ff" points="1254.18,-245.5 1262.61,-239.08 1252.01,-238.85 1254.18,-245.5"/>
</a>
</g>
</g>
<!-- Node19 -->
<g id="Node000019" class="node">
<title>Node19</title>
<g id="a_Node000019"><a xlink:href="gdict-database-chooser_8h.html" target="_top" xlink:title=" ">
<polygon fill="white" stroke="#666666" points="829,-239 689,-239 689,-220 829,-220 829,-239"/>
<text text-anchor="middle" x="759" y="-227" font-family="Helvetica,sans-Serif" font-size="10.00">gdict&#45;database&#45;chooser.h</text>
</a>
</g>
</g>
<!-- Node11&#45;&gt;Node19 -->
<g id="edge25_Node000011_Node000019" class="edge">
<title>Node11&#45;&gt;Node19</title>
<g id="a_edge25_Node000011_Node000019"><a xlink:title=" ">
<path fill="none" stroke="#63b8ff" d="M1081.37,-277.05C1018.33,-267.95 902.65,-251.24 828.36,-240.52"/>
<polygon fill="#63b8ff" stroke="#63b8ff" points="828.56,-237.01 818.16,-239.04 827.56,-243.94 828.56,-237.01"/>
</a>
</g>
</g>
<!-- Node20 -->
<g id="Node000020" class="node">
<title>Node20</title>
<g id="a_Node000020"><a xlink:href="gdict-defbox_8h.html" target="_top" xlink:title=" ">
<polygon fill="white" stroke="#666666" points="934.5,-239 847.5,-239 847.5,-220 934.5,-220 934.5,-239"/>
<text text-anchor="middle" x="891" y="-227" font-family="Helvetica,sans-Serif" font-size="10.00">gdict&#45;defbox.h</text>
</a>
</g>
</g>
<!-- Node11&#45;&gt;Node20 -->
<g id="edge28_Node000011_Node000020" class="edge">
<title>Node11&#45;&gt;Node20</title>
<g id="a_edge28_Node000011_Node000020"><a xlink:title=" ">
<path fill="none" stroke="#63b8ff" d="M1088.24,-274.98C1047.68,-265.84 983.11,-251.27 938.97,-241.32"/>
<polygon fill="#63b8ff" stroke="#63b8ff" points="939.58,-237.87 929.05,-239.08 938.04,-244.7 939.58,-237.87"/>
</a>
</g>
</g>
<!-- Node21 -->
<g id="Node000021" class="node">
<title>Node21</title>
<g id="a_Node000021"><a xlink:href="gdict-speller_8h.html" target="_top" xlink:title=" ">
<polygon fill="white" stroke="#666666" points="1039,-239 953,-239 953,-220 1039,-220 1039,-239"/>
<text text-anchor="middle" x="996" y="-227" font-family="Helvetica,sans-Serif" font-size="10.00">gdict&#45;speller.h</text>
</a>
</g>
</g>
<!-- Node11&#45;&gt;Node21 -->
<g id="edge31_Node000011_Node000021" class="edge">
<title>Node11&#45;&gt;Node21</title>
<g id="a_edge31_Node000011_Node000021"><a xlink:title=" ">
<path fill="none" stroke="#63b8ff" d="M1105.11,-274.98C1083.92,-266.34 1050.87,-252.87 1026.7,-243.02"/>
<polygon fill="#63b8ff" stroke="#63b8ff" points="1027.85,-239.7 1017.27,-239.17 1025.21,-246.19 1027.85,-239.7"/>
</a>
</g>
</g>
<!-- Node22 -->
<g id="Node000022" class="node">
<title>Node22</title>
<g id="a_Node000022"><a xlink:href="gdict-strategy-chooser_8h.html" target="_top" xlink:title=" ">
<polygon fill="white" stroke="#666666" points="556.5,-239 421.5,-239 421.5,-220 556.5,-220 556.5,-239"/>
<text text-anchor="middle" x="489" y="-227" font-family="Helvetica,sans-Serif" font-size="10.00">gdict&#45;strategy&#45;chooser.h</text>
</a>
</g>
</g>
<!-- Node11&#45;&gt;Node22 -->
<g id="edge34_Node000011_Node000022" class="edge">
<title>Node11&#45;&gt;Node22</title>
<g id="a_edge34_Node000011_Node000022"><a xlink:title=" ">
<path fill="none" stroke="#63b8ff" d="M1081.46,-279.79C974.43,-270.89 701.69,-248.2 566.87,-236.98"/>
<polygon fill="#63b8ff" stroke="#63b8ff" points="566.87,-233.47 556.62,-236.13 566.29,-240.44 566.87,-233.47"/>
</a>
</g>
</g>
<!-- Node23 -->
<g id="Node000023" class="node">
<title>Node23</title>
<g id="a_Node000023"><a xlink:href="gdict-utils_8h.html" target="_top" xlink:title=" ">
<polygon fill="white" stroke="#666666" points="1131,-239 1057,-239 1057,-220 1131,-220 1131,-239"/>
<text text-anchor="middle" x="1094" y="-227" font-family="Helvetica,sans-Serif" font-size="10.00">gdict&#45;utils.h</text>
</a>
</g>
</g>
<!-- Node11&#45;&gt;Node23 -->
<g id="edge37_Node000011_Node000023" class="edge">
<title>Node11&#45;&gt;Node23</title>
<g id="a_edge37_Node000011_Node000023"><a xlink:title=" ">
<path fill="none" stroke="#63b8ff" d="M1120.72,-274.75C1116.29,-267.42 1109.84,-256.73 1104.38,-247.7"/>
<polygon fill="#63b8ff" stroke="#63b8ff" points="1107.35,-245.84 1099.19,-239.09 1101.36,-249.46 1107.35,-245.84"/>
</a>
</g>
</g>
<!-- Node24 -->
<g id="Node000024" class="node">
<title>Node24</title>
<g id="a_Node000024"><a xlink:href="gdict-enum-types_8h.html" target="_top" xlink:title=" ">
<polygon fill="white" stroke="#666666" points="1591,-129 1479,-129 1479,-110 1591,-110 1591,-129"/>
<text text-anchor="middle" x="1535" y="-117" font-family="Helvetica,sans-Serif" font-size="10.00">gdict&#45;enum&#45;types.h</text>
</a>
</g>
</g>
<!-- Node11&#45;&gt;Node24 -->
<g id="edge40_Node000011_Node000024" class="edge">
<title>Node11&#45;&gt;Node24</title>
<g id="a_edge40_Node000011_Node000024"><a xlink:title=" ">
<path fill="none" stroke="#63b8ff" d="M1170.67,-282.07C1274.03,-278.31 1522.83,-266.46 1548,-239 1573.2,-211.51 1556.49,-164.02 1544.38,-138.29"/>
<polygon fill="#63b8ff" stroke="#63b8ff" points="1547.35,-136.4 1539.76,-129.01 1541.08,-139.52 1547.35,-136.4"/>
</a>
</g>
</g>
<!-- Node25 -->
<g id="Node000025" class="node">
<title>Node25</title>
<g id="a_Node000025"><a xlink:href="gdict-version_8h.html" target="_top" xlink:title=" ">
<polygon fill="white" stroke="#666666" points="1538.5,-239 1449.5,-239 1449.5,-220 1538.5,-220 1538.5,-239"/>
<text text-anchor="middle" x="1494" y="-227" font-family="Helvetica,sans-Serif" font-size="10.00">gdict&#45;version.h</text>
</a>
</g>
</g>
<!-- Node11&#45;&gt;Node25 -->
<g id="edge42_Node000011_Node000025" class="edge">
<title>Node11&#45;&gt;Node25</title>
<g id="a_edge42_Node000011_Node000025"><a xlink:title=" ">
<path fill="none" stroke="#63b8ff" d="M1170.76,-277.05C1238.35,-267.32 1366.33,-248.89 1439.34,-238.37"/>
<polygon fill="#63b8ff" stroke="#63b8ff" points="1439.87,-241.83 1449.27,-236.94 1438.87,-234.9 1439.87,-241.83"/>
</a>
</g>
</g>
<!-- Node13 -->
<g id="Node000013" class="node">
<title>Node13</title>
<g id="a_Node000013"><a xlink:title=" ">
<polygon fill="#e0e0e0" stroke="#999999" points="1336.5,-19 1259.5,-19 1259.5,0 1336.5,0 1336.5,-19"/>
<text text-anchor="middle" x="1298" y="-7" font-family="Helvetica,sans-Serif" font-size="10.00">glib&#45;object.h</text>
</a>
</g>
</g>
<!-- Node12&#45;&gt;Node13 -->
<g id="edge12_Node000012_Node000013" class="edge">
<title>Node12&#45;&gt;Node13</title>
<g id="a_edge12_Node000012_Node000013"><a xlink:title=" ">
<path fill="none" stroke="#63b8ff" d="M1061.31,-54.98C1112.69,-45.33 1196.16,-29.64 1249.02,-19.71"/>
<polygon fill="#63b8ff" stroke="#63b8ff" points="1249.98,-23.09 1259.16,-17.8 1248.68,-16.21 1249.98,-23.09"/>
</a>
</g>
</g>
<!-- Node14&#45;&gt;Node12 -->
<g id="edge14_Node000014_Node000012" class="edge">
<title>Node14&#45;&gt;Node12</title>
<g id="a_edge14_Node000014_Node000012"><a xlink:title=" ">
<path fill="none" stroke="#63b8ff" d="M1190.58,-109.98C1155.06,-100.93 1098.73,-86.58 1059.7,-76.64"/>
<polygon fill="#63b8ff" stroke="#63b8ff" points="1060.24,-73.16 1049.68,-74.08 1058.51,-79.94 1060.24,-73.16"/>
</a>
</g>
</g>
<!-- Node15&#45;&gt;Node12 -->
<g id="edge18_Node000015_Node000012" class="edge">
<title>Node15&#45;&gt;Node12</title>
<g id="a_edge18_Node000015_Node000012"><a xlink:title=" ">
<path fill="none" stroke="#63b8ff" d="M1302.87,-111.44C1299.87,-110.95 1296.89,-110.47 1294,-110 1216.78,-97.51 1127.46,-83.24 1071.35,-74.3"/>
<polygon fill="#63b8ff" stroke="#63b8ff" points="1071.7,-70.82 1061.27,-72.7 1070.6,-77.73 1071.7,-70.82"/>
</a>
</g>
</g>
<!-- Node15&#45;&gt;Node13 -->
<g id="edge17_Node000015_Node000013" class="edge">
<title>Node15&#45;&gt;Node13</title>
<g id="a_edge17_Node000015_Node000013"><a xlink:title=" ">
<path fill="none" stroke="#63b8ff" d="M1339.2,-109.74C1332.74,-101.07 1323.13,-87.22 1317,-74 1310.34,-59.63 1305.34,-42.35 1302.15,-29.45"/>
<polygon fill="#63b8ff" stroke="#63b8ff" points="1305.5,-28.36 1299.82,-19.42 1298.68,-29.95 1305.5,-28.36"/>
</a>
</g>
</g>
<!-- Node16 -->
<g id="Node000016" class="node">
<title>Node16</title>
<g id="a_Node000016"><a xlink:title=" ">
<polygon fill="#e0e0e0" stroke="#999999" points="1382,-74 1326,-74 1326,-55 1382,-55 1382,-74"/>
<text text-anchor="middle" x="1354" y="-62" font-family="Helvetica,sans-Serif" font-size="10.00">stdarg.h</text>
</a>
</g>
</g>
<!-- Node15&#45;&gt;Node16 -->
<g id="edge16_Node000015_Node000016" class="edge">
<title>Node15&#45;&gt;Node16</title>
<g id="a_edge16_Node000015_Node000016"><a xlink:title=" ">
<path fill="none" stroke="#63b8ff" d="M1347.32,-109.75C1348.37,-102.8 1349.87,-92.85 1351.19,-84.13"/>
<polygon fill="#63b8ff" stroke="#63b8ff" points="1354.67,-84.5 1352.7,-74.09 1347.75,-83.45 1354.67,-84.5"/>
</a>
</g>
</g>
<!-- Node17&#45;&gt;Node13 -->
<g id="edge20_Node000017_Node000013" class="edge">
<title>Node17&#45;&gt;Node13</title>
<g id="a_edge20_Node000017_Node000013"><a xlink:title=" ">
<path fill="none" stroke="#63b8ff" d="M1418.44,-164.98C1419.06,-143.91 1417.87,-88.62 1391,-55 1378.74,-39.66 1359.92,-29.3 1342.4,-22.46"/>
<polygon fill="#63b8ff" stroke="#63b8ff" points="1343.45,-19.12 1332.85,-19.02 1341.07,-25.7 1343.45,-19.12"/>
</a>
</g>
</g>
<!-- Node17&#45;&gt;Node15 -->
<g id="edge21_Node000017_Node000015" class="edge">
<title>Node17&#45;&gt;Node15</title>
<g id="a_edge21_Node000017_Node000015"><a xlink:title=" ">
<path fill="none" stroke="#63b8ff" d="M1406.43,-164.98C1395.58,-157 1379.12,-144.88 1366.12,-135.31"/>
<polygon fill="#63b8ff" stroke="#63b8ff" points="1367.91,-132.28 1357.78,-129.17 1363.76,-137.92 1367.91,-132.28"/>
</a>
</g>
</g>
<!-- Node18&#45;&gt;Node10 -->
<g id="edge23_Node000018_Node000010" class="edge">
<title>Node18&#45;&gt;Node10</title>
<g id="a_edge23_Node000018_Node000010"><a xlink:title=" ">
<path fill="none" stroke="#63b8ff" d="M1225.33,-222.13C1114.76,-211.08 890.34,-188.63 799.01,-179.5"/>
<polygon fill="#63b8ff" stroke="#63b8ff" points="799.36,-176.02 789.06,-178.51 798.66,-182.98 799.36,-176.02"/>
</a>
</g>
</g>
<!-- Node18&#45;&gt;Node17 -->
<g id="edge24_Node000018_Node000017" class="edge">
<title>Node18&#45;&gt;Node17</title>
<g id="a_edge24_Node000018_Node000017"><a xlink:title=" ">
<path fill="none" stroke="#63b8ff" d="M1309.73,-219.98C1330.76,-211.34 1363.55,-197.87 1387.54,-188.02"/>
<polygon fill="#63b8ff" stroke="#63b8ff" points="1388.98,-191.21 1396.9,-184.17 1386.32,-184.73 1388.98,-191.21"/>
</a>
</g>
</g>
<!-- Node19&#45;&gt;Node10 -->
<g id="edge26_Node000019_Node000010" class="edge">
<title>Node19&#45;&gt;Node10</title>
<g id="a_edge26_Node000019_Node000010"><a xlink:title=" ">
<path fill="none" stroke="#63b8ff" d="M759,-219.75C759,-212.8 759,-202.85 759,-194.13"/>
<polygon fill="#63b8ff" stroke="#63b8ff" points="762.5,-194.09 759,-184.09 755.5,-194.09 762.5,-194.09"/>
</a>
</g>
</g>
<!-- Node19&#45;&gt;Node12 -->
<g id="edge27_Node000019_Node000012" class="edge">
<title>Node19&#45;&gt;Node12</title>
<g id="a_edge27_Node000019_Node000012"><a xlink:title=" ">
<path fill="none" stroke="#63b8ff" d="M772.46,-219.97C814.25,-193.46 942.14,-112.35 993.9,-79.52"/>
<polygon fill="#63b8ff" stroke="#63b8ff" points="995.8,-82.46 1002.37,-74.15 992.05,-76.55 995.8,-82.46"/>
</a>
</g>
</g>
<!-- Node20&#45;&gt;Node10 -->
<g id="edge29_Node000020_Node000010" class="edge">
<title>Node20&#45;&gt;Node10</title>
<g id="a_edge29_Node000020_Node000010"><a xlink:title=" ">
<path fill="none" stroke="#63b8ff" d="M869.79,-219.98C848.27,-211.34 814.72,-197.87 790.17,-188.02"/>
<polygon fill="#63b8ff" stroke="#63b8ff" points="791.18,-184.65 780.59,-184.17 788.57,-191.14 791.18,-184.65"/>
</a>
</g>
</g>
<!-- Node20&#45;&gt;Node12 -->
<g id="edge30_Node000020_Node000012" class="edge">
<title>Node20&#45;&gt;Node12</title>
<g id="a_edge30_Node000020_Node000012"><a xlink:title=" ">
<path fill="none" stroke="#63b8ff" d="M897.72,-219.74C917.64,-193.76 976.64,-116.83 1003.01,-82.44"/>
<polygon fill="#63b8ff" stroke="#63b8ff" points="1005.94,-84.37 1009.25,-74.31 1000.38,-80.11 1005.94,-84.37"/>
</a>
</g>
</g>
<!-- Node21&#45;&gt;Node10 -->
<g id="edge32_Node000021_Node000010" class="edge">
<title>Node21&#45;&gt;Node10</title>
<g id="a_edge32_Node000021_Node000010"><a xlink:title=" ">
<path fill="none" stroke="#63b8ff" d="M957.92,-219.98C914.34,-210.24 843.29,-194.35 798.94,-184.43"/>
<polygon fill="#63b8ff" stroke="#63b8ff" points="799.61,-181 789.09,-182.23 798.08,-187.83 799.61,-181"/>
</a>
</g>
</g>
<!-- Node21&#45;&gt;Node12 -->
<g id="edge33_Node000021_Node000012" class="edge">
<title>Node21&#45;&gt;Node12</title>
<g id="a_edge33_Node000021_Node000012"><a xlink:title=" ">
<path fill="none" stroke="#63b8ff" d="M997.08,-219.74C1000.2,-194.31 1009.3,-120.08 1013.65,-84.69"/>
<polygon fill="#63b8ff" stroke="#63b8ff" points="1017.18,-84.66 1014.92,-74.31 1010.23,-83.81 1017.18,-84.66"/>
</a>
</g>
</g>
<!-- Node22&#45;&gt;Node10 -->
<g id="edge35_Node000022_Node000010" class="edge">
<title>Node22&#45;&gt;Node10</title>
<g id="a_edge35_Node000022_Node000010"><a xlink:title=" ">
<path fill="none" stroke="#63b8ff" d="M532.38,-219.98C583.73,-209.9 668.58,-193.25 718.59,-183.43"/>
<polygon fill="#63b8ff" stroke="#63b8ff" points="719.58,-186.81 728.71,-181.45 718.23,-179.94 719.58,-186.81"/>
</a>
</g>
</g>
<!-- Node22&#45;&gt;Node12 -->
<g id="edge36_Node000022_Node000012" class="edge">
<title>Node22&#45;&gt;Node12</title>
<g id="a_edge36_Node000022_Node000012"><a xlink:title=" ">
<path fill="none" stroke="#63b8ff" d="M516.59,-219.97C604.53,-192.77 878.31,-108.09 978.65,-77.05"/>
<polygon fill="#63b8ff" stroke="#63b8ff" points="979.84,-80.35 988.36,-74.05 977.78,-73.66 979.84,-80.35"/>
</a>
</g>
</g>
<!-- Node23&#45;&gt;Node10 -->
<g id="edge39_Node000023_Node000010" class="edge">
<title>Node23&#45;&gt;Node10</title>
<g id="a_edge39_Node000023_Node000010"><a xlink:title=" ">
<path fill="none" stroke="#63b8ff" d="M1056.86,-221.54C1053.86,-221.01 1050.88,-220.49 1048,-220 959.36,-204.99 855.07,-189.45 799.19,-181.3"/>
<polygon fill="#63b8ff" stroke="#63b8ff" points="799.4,-177.79 789,-179.82 798.39,-184.72 799.4,-177.79"/>
</a>
</g>
</g>
<!-- Node23&#45;&gt;Node13 -->
<g id="edge38_Node000023_Node000013" class="edge">
<title>Node23&#45;&gt;Node13</title>
<g id="a_edge38_Node000023_Node000013"><a xlink:title=" ">
<path fill="none" stroke="#63b8ff" d="M1096.78,-219.91C1103.83,-199.15 1124.06,-145.34 1155,-110 1188.76,-71.44 1240.49,-40.33 1271.6,-23.7"/>
<polygon fill="#63b8ff" stroke="#63b8ff" points="1273.32,-26.75 1280.55,-19.01 1270.07,-20.55 1273.32,-26.75"/>
</a>
</g>
</g>
<!-- Node24&#45;&gt;Node13 -->
<g id="edge41_Node000024_Node000013" class="edge">
<title>Node24&#45;&gt;Node13</title>
<g id="a_edge41_Node000024_Node000013"><a xlink:title=" ">
<path fill="none" stroke="#63b8ff" d="M1523.15,-109.92C1504.5,-96.72 1466.84,-71.25 1432,-55 1402.45,-41.21 1367.44,-29.74 1340.61,-21.9"/>
<polygon fill="#63b8ff" stroke="#63b8ff" points="1341.34,-18.47 1330.76,-19.07 1339.41,-25.19 1341.34,-18.47"/>
</a>
</g>
</g>
<!-- Node26 -->
<g id="Node000026" class="node">
<title>Node26</title>
<g id="a_Node000026"><a xlink:title=" ">
<polygon fill="#e0e0e0" stroke="#999999" points="1540,-184 1496,-184 1496,-165 1540,-165 1540,-184"/>
<text text-anchor="middle" x="1518" y="-172" font-family="Helvetica,sans-Serif" font-size="10.00">glib.h</text>
</a>
</g>
</g>
<!-- Node25&#45;&gt;Node26 -->
<g id="edge43_Node000025_Node000026" class="edge">
<title>Node25&#45;&gt;Node26</title>
<g id="a_edge43_Node000025_Node000026"><a xlink:title=" ">
<path fill="none" stroke="#63b8ff" d="M1497.96,-219.75C1501.21,-212.57 1505.92,-202.18 1509.95,-193.27"/>
<polygon fill="#63b8ff" stroke="#63b8ff" points="1513.17,-194.64 1514.11,-184.09 1506.8,-191.75 1513.17,-194.64"/>
</a>
</g>
</g>
<!-- Node27&#45;&gt;Node10 -->
<g id="edge45_Node000027_Node000010" class="edge">
<title>Node27&#45;&gt;Node10</title>
<g id="a_edge45_Node000027_Node000010"><a xlink:title=" ">
<path fill="none" stroke="#63b8ff" d="M629.12,-329.97C632.29,-308.86 643.13,-253.51 673,-220 685.91,-205.52 704.64,-195.06 721.34,-187.93"/>
<polygon fill="#63b8ff" stroke="#63b8ff" points="722.89,-191.08 730.87,-184.11 720.28,-184.58 722.89,-191.08"/>
</a>
</g>
</g>
<!-- Node27&#45;&gt;Node11 -->
<g id="edge46_Node000027_Node000011" class="edge">
<title>Node27&#45;&gt;Node11</title>
<g id="a_edge46_Node000027_Node000011"><a xlink:title=" ">
<path fill="none" stroke="#63b8ff" d="M681.26,-331.19C684.55,-330.78 687.82,-330.38 691,-330 827.64,-313.8 988.85,-298.23 1071.34,-290.52"/>
<polygon fill="#63b8ff" stroke="#63b8ff" points="1071.85,-293.99 1081.49,-289.58 1071.2,-287.02 1071.85,-293.99"/>
</a>
</g>
</g>
<!-- Node28&#45;&gt;Node10 -->
<g id="edge48_Node000028_Node000010" class="edge">
<title>Node28&#45;&gt;Node10</title>
<g id="a_edge48_Node000028_Node000010"><a xlink:title=" ">
<path fill="none" stroke="#63b8ff" d="M553.19,-274.73C563.32,-261.04 584.73,-234.65 609,-220 642.96,-199.51 686.97,-187.92 718.52,-181.74"/>
<polygon fill="#63b8ff" stroke="#63b8ff" points="719.52,-185.11 728.71,-179.85 718.24,-178.23 719.52,-185.11"/>
</a>
</g>
</g>
</g>
</svg>
