<?xml version="1.0" encoding="UTF-8" standalone="no"?>
<!DOCTYPE svg PUBLIC "-//W3C//DTD SVG 1.1//EN"
 "http://www.w3.org/Graphics/SVG/1.1/DTD/svg11.dtd">
<!-- Generated by graphviz version 2.43.0 (0)
 -->
<!-- Title: gdict&#45;defbox.c Pages: 1 -->
<svg width="1094pt" height="192pt"
 viewBox="0.00 0.00 1093.50 192.00" xmlns="http://www.w3.org/2000/svg" xmlns:xlink="http://www.w3.org/1999/xlink">
<g id="graph0" class="graph" transform="scale(1 1) rotate(0) translate(4 188)">
<title>gdict&#45;defbox.c</title>
<!-- Node1 -->
<g id="Node000001" class="node">
<title>Node1</title>
<g id="a_Node000001"><a xlink:title=" ">
<polygon fill="#999999" stroke="#666666" points="537,-184 451,-184 451,-165 537,-165 537,-184"/>
<text text-anchor="middle" x="494" y="-172" font-family="Helvetica,sans-Serif" font-size="10.00">gdict&#45;defbox.c</text>
</a>
</g>
</g>
<!-- Node2 -->
<g id="Node000002" class="node">
<title>Node2</title>
<g id="a_Node000002"><a xlink:title=" ">
<polygon fill="#e0e0e0" stroke="#999999" points="50,-129 0,-129 0,-110 50,-110 50,-129"/>
<text text-anchor="middle" x="25" y="-117" font-family="Helvetica,sans-Serif" font-size="10.00">stdio.h</text>
</a>
</g>
</g>
<!-- Node1&#45;&gt;Node2 -->
<g id="edge1_Node000001_Node000002" class="edge">
<title>Node1&#45;&gt;Node2</title>
<g id="a_edge1_Node000001_Node000002"><a xlink:title=" ">
<path fill="none" stroke="#63b8ff" d="M450.81,-171.13C374.09,-166.49 208.9,-154.48 60.38,-129"/>
<polygon fill="#63b8ff" stroke="#63b8ff" points="60.62,-125.49 50.17,-127.22 59.42,-132.38 60.62,-125.49"/>
</a>
</g>
</g>
<!-- Node3 -->
<g id="Node000003" class="node">
<title>Node3</title>
<g id="a_Node000003"><a xlink:title=" ">
<polygon fill="#e0e0e0" stroke="#999999" points="121.5,-129 68.5,-129 68.5,-110 121.5,-110 121.5,-129"/>
<text text-anchor="middle" x="95" y="-117" font-family="Helvetica,sans-Serif" font-size="10.00">stdlib.h</text>
</a>
</g>
</g>
<!-- Node1&#45;&gt;Node3 -->
<g id="edge2_Node000001_Node000003" class="edge">
<title>Node1&#45;&gt;Node3</title>
<g id="a_edge2_Node000001_Node000003"><a xlink:title=" ">
<path fill="none" stroke="#63b8ff" d="M450.89,-169.87C384.37,-163.91 252.56,-150.69 131.84,-129.16"/>
<polygon fill="#63b8ff" stroke="#63b8ff" points="132.15,-125.65 121.68,-127.32 130.9,-132.54 132.15,-125.65"/>
</a>
</g>
</g>
<!-- Node4 -->
<g id="Node000004" class="node">
<title>Node4</title>
<g id="a_Node000004"><a xlink:title=" ">
<polygon fill="#e0e0e0" stroke="#999999" points="192.5,-129 139.5,-129 139.5,-110 192.5,-110 192.5,-129"/>
<text text-anchor="middle" x="166" y="-117" font-family="Helvetica,sans-Serif" font-size="10.00">string.h</text>
</a>
</g>
</g>
<!-- Node1&#45;&gt;Node4 -->
<g id="edge3_Node000001_Node000004" class="edge">
<title>Node1&#45;&gt;Node4</title>
<g id="a_edge3_Node000001_Node000004"><a xlink:title=" ">
<path fill="none" stroke="#63b8ff" d="M450.77,-168.02C395.56,-160.78 296.89,-147.02 202.67,-128.98"/>
<polygon fill="#63b8ff" stroke="#63b8ff" points="203.17,-125.52 192.68,-127.05 201.84,-132.39 203.17,-125.52"/>
</a>
</g>
</g>
<!-- Node5 -->
<g id="Node000005" class="node">
<title>Node5</title>
<g id="a_Node000005"><a xlink:title=" ">
<polygon fill="#e0e0e0" stroke="#999999" points="267,-129 211,-129 211,-110 267,-110 267,-129"/>
<text text-anchor="middle" x="239" y="-117" font-family="Helvetica,sans-Serif" font-size="10.00">stdarg.h</text>
</a>
</g>
</g>
<!-- Node1&#45;&gt;Node5 -->
<g id="edge4_Node000001_Node000005" class="edge">
<title>Node1&#45;&gt;Node5</title>
<g id="a_edge4_Node000001_Node000005"><a xlink:title=" ">
<path fill="none" stroke="#63b8ff" d="M453.03,-164.98C404.5,-154.9 324.3,-138.23 277.07,-128.41"/>
<polygon fill="#63b8ff" stroke="#63b8ff" points="277.74,-124.98 267.24,-126.37 276.32,-131.83 277.74,-124.98"/>
</a>
</g>
</g>
<!-- Node6 -->
<g id="Node000006" class="node">
<title>Node6</title>
<g id="a_Node000006"><a xlink:title=" ">
<polygon fill="#e0e0e0" stroke="#999999" points="698,-74 638,-74 638,-55 698,-55 698,-74"/>
<text text-anchor="middle" x="668" y="-62" font-family="Helvetica,sans-Serif" font-size="10.00">gtk/gtk.h</text>
</a>
</g>
</g>
<!-- Node1&#45;&gt;Node6 -->
<g id="edge5_Node000001_Node000006" class="edge">
<title>Node1&#45;&gt;Node6</title>
<g id="a_edge5_Node000001_Node000006"><a xlink:title=" ">
<path fill="none" stroke="#63b8ff" d="M537.18,-172.94C573.09,-170.1 623.03,-160.23 653,-129 664.39,-117.14 667.68,-98.3 668.4,-84.22"/>
<polygon fill="#63b8ff" stroke="#63b8ff" points="671.9,-84.22 668.53,-74.18 664.9,-84.13 671.9,-84.22"/>
</a>
</g>
</g>
<!-- Node7 -->
<g id="Node000007" class="node">
<title>Node7</title>
<g id="a_Node000007"><a xlink:title=" ">
<polygon fill="#e0e0e0" stroke="#999999" points="431,-129 323,-129 323,-110 431,-110 431,-129"/>
<text text-anchor="middle" x="377" y="-117" font-family="Helvetica,sans-Serif" font-size="10.00">gdk/gdkkeysyms.h</text>
</a>
</g>
</g>
<!-- Node1&#45;&gt;Node7 -->
<g id="edge6_Node000001_Node000007" class="edge">
<title>Node1&#45;&gt;Node7</title>
<g id="a_edge6_Node000001_Node000007"><a xlink:title=" ">
<path fill="none" stroke="#63b8ff" d="M475.2,-164.98C456.38,-156.46 427.18,-143.23 405.5,-133.41"/>
<polygon fill="#63b8ff" stroke="#63b8ff" points="406.69,-130.11 396.14,-129.17 403.8,-136.48 406.69,-130.11"/>
</a>
</g>
</g>
<!-- Node8 -->
<g id="Node000008" class="node">
<title>Node8</title>
<g id="a_Node000008"><a xlink:title=" ">
<polygon fill="#e0e0e0" stroke="#999999" points="538.5,-129 449.5,-129 449.5,-110 538.5,-110 538.5,-129"/>
<text text-anchor="middle" x="494" y="-117" font-family="Helvetica,sans-Serif" font-size="10.00">glib/gi18n&#45;lib.h</text>
</a>
</g>
</g>
<!-- Node1&#45;&gt;Node8 -->
<g id="edge7_Node000001_Node000008" class="edge">
<title>Node1&#45;&gt;Node8</title>
<g id="a_edge7_Node000001_Node000008"><a xlink:title=" ">
<path fill="none" stroke="#63b8ff" d="M494,-164.75C494,-157.8 494,-147.85 494,-139.13"/>
<polygon fill="#63b8ff" stroke="#63b8ff" points="497.5,-139.09 494,-129.09 490.5,-139.09 497.5,-139.09"/>
</a>
</g>
</g>
<!-- Node9 -->
<g id="Node000009" class="node">
<title>Node9</title>
<g id="a_Node000009"><a xlink:href="gdict-defbox_8h.html" target="_top" xlink:title=" ">
<polygon fill="white" stroke="#666666" points="787.5,-129 700.5,-129 700.5,-110 787.5,-110 787.5,-129"/>
<text text-anchor="middle" x="744" y="-117" font-family="Helvetica,sans-Serif" font-size="10.00">gdict&#45;defbox.h</text>
</a>
</g>
</g>
<!-- Node1&#45;&gt;Node9 -->
<g id="edge8_Node000001_Node000009" class="edge">
<title>Node1&#45;&gt;Node9</title>
<g id="a_edge8_Node000001_Node000009"><a xlink:title=" ">
<path fill="none" stroke="#63b8ff" d="M534.17,-164.98C577.5,-155.8 646.59,-141.15 693.56,-131.19"/>
<polygon fill="#63b8ff" stroke="#63b8ff" points="694.46,-134.58 703.52,-129.08 693.01,-127.73 694.46,-134.58"/>
</a>
</g>
</g>
<!-- Node12 -->
<g id="Node000012" class="node">
<title>Node12</title>
<g id="a_Node000012"><a xlink:href="gdict-utils_8h.html" target="_top" xlink:title=" ">
<polygon fill="white" stroke="#666666" points="880,-129 806,-129 806,-110 880,-110 880,-129"/>
<text text-anchor="middle" x="843" y="-117" font-family="Helvetica,sans-Serif" font-size="10.00">gdict&#45;utils.h</text>
</a>
</g>
</g>
<!-- Node1&#45;&gt;Node12 -->
<g id="edge12_Node000001_Node000012" class="edge">
<title>Node1&#45;&gt;Node12</title>
<g id="a_edge12_Node000001_Node000012"><a xlink:title=" ">
<path fill="none" stroke="#63b8ff" d="M537.23,-167.66C594.13,-159.87 697.53,-145.31 795.76,-129.15"/>
<polygon fill="#63b8ff" stroke="#63b8ff" points="796.57,-132.57 805.86,-127.48 795.43,-125.66 796.57,-132.57"/>
</a>
</g>
</g>
<!-- Node13 -->
<g id="Node000013" class="node">
<title>Node13</title>
<g id="a_Node000013"><a xlink:href="gdict-debug_8h.html" target="_top" xlink:title=" ">
<polygon fill="white" stroke="#666666" points="483.5,-74 400.5,-74 400.5,-55 483.5,-55 483.5,-74"/>
<text text-anchor="middle" x="442" y="-62" font-family="Helvetica,sans-Serif" font-size="10.00">gdict&#45;debug.h</text>
</a>
</g>
</g>
<!-- Node1&#45;&gt;Node13 -->
<g id="edge15_Node000001_Node000013" class="edge">
<title>Node1&#45;&gt;Node13</title>
<g id="a_edge15_Node000001_Node000013"><a xlink:title=" ">
<path fill="none" stroke="#63b8ff" d="M450.72,-168.89C402.98,-162.8 330.67,-150.29 314,-129 289.69,-97.95 344.94,-80.97 390.3,-72.57"/>
<polygon fill="#63b8ff" stroke="#63b8ff" points="391.14,-75.98 400.39,-70.81 389.94,-69.08 391.14,-75.98"/>
</a>
</g>
</g>
<!-- Node15 -->
<g id="Node000015" class="node">
<title>Node15</title>
<g id="a_Node000015"><a xlink:href="gdict-private_8h.html" target="_top" xlink:title=" ">
<polygon fill="white" stroke="#666666" points="644,-129 556,-129 556,-110 644,-110 644,-129"/>
<text text-anchor="middle" x="600" y="-117" font-family="Helvetica,sans-Serif" font-size="10.00">gdict&#45;private.h</text>
</a>
</g>
</g>
<!-- Node1&#45;&gt;Node15 -->
<g id="edge17_Node000001_Node000015" class="edge">
<title>Node1&#45;&gt;Node15</title>
<g id="a_edge17_Node000001_Node000015"><a xlink:title=" ">
<path fill="none" stroke="#63b8ff" d="M511.03,-164.98C527.93,-156.54 554.06,-143.47 573.64,-133.68"/>
<polygon fill="#63b8ff" stroke="#63b8ff" points="575.28,-136.77 582.66,-129.17 572.15,-130.51 575.28,-136.77"/>
</a>
</g>
</g>
<!-- Node16 -->
<g id="Node000016" class="node">
<title>Node16</title>
<g id="a_Node000016"><a xlink:href="gdict-enum-types_8h.html" target="_top" xlink:title=" ">
<polygon fill="white" stroke="#666666" points="974,-74 862,-74 862,-55 974,-55 974,-74"/>
<text text-anchor="middle" x="918" y="-62" font-family="Helvetica,sans-Serif" font-size="10.00">gdict&#45;enum&#45;types.h</text>
</a>
</g>
</g>
<!-- Node1&#45;&gt;Node16 -->
<g id="edge20_Node000001_Node000016" class="edge">
<title>Node1&#45;&gt;Node16</title>
<g id="a_edge20_Node000001_Node000016"><a xlink:title=" ">
<path fill="none" stroke="#63b8ff" d="M537.12,-173.86C627.64,-173.79 833.69,-169.1 889,-129 903.54,-118.46 910.97,-98.84 914.64,-84.18"/>
<polygon fill="#63b8ff" stroke="#63b8ff" points="918.11,-84.69 916.77,-74.18 911.27,-83.23 918.11,-84.69"/>
</a>
</g>
</g>
<!-- Node17 -->
<g id="Node000017" class="node">
<title>Node17</title>
<g id="a_Node000017"><a xlink:href="gdict-marshal_8h.html" target="_top" xlink:title=" ">
<polygon fill="white" stroke="#666666" points="1085.5,-74 992.5,-74 992.5,-55 1085.5,-55 1085.5,-74"/>
<text text-anchor="middle" x="1039" y="-62" font-family="Helvetica,sans-Serif" font-size="10.00">gdict&#45;marshal.h</text>
</a>
</g>
</g>
<!-- Node1&#45;&gt;Node17 -->
<g id="edge22_Node000001_Node000017" class="edge">
<title>Node1&#45;&gt;Node17</title>
<g id="a_edge22_Node000001_Node000017"><a xlink:title=" ">
<path fill="none" stroke="#63b8ff" d="M537.17,-173.8C613.8,-173.27 777.97,-167.25 910,-129 949.76,-117.48 992.13,-94.24 1017.05,-79.3"/>
<polygon fill="#63b8ff" stroke="#63b8ff" points="1018.99,-82.22 1025.71,-74.02 1015.35,-76.24 1018.99,-82.22"/>
</a>
</g>
</g>
<!-- Node9&#45;&gt;Node6 -->
<g id="edge9_Node000009_Node000006" class="edge">
<title>Node9&#45;&gt;Node6</title>
<g id="a_edge9_Node000009_Node000006"><a xlink:title=" ">
<path fill="none" stroke="#63b8ff" d="M731.79,-109.98C720.22,-101.92 702.62,-89.65 688.84,-80.03"/>
<polygon fill="#63b8ff" stroke="#63b8ff" points="690.64,-77.02 680.43,-74.17 686.63,-82.76 690.64,-77.02"/>
</a>
</g>
</g>
<!-- Node10 -->
<g id="Node000010" class="node">
<title>Node10</title>
<g id="a_Node000010"><a xlink:href="gdict-context_8h.html" target="_top" xlink:title=" ">
<polygon fill="white" stroke="#666666" points="806,-74 716,-74 716,-55 806,-55 806,-74"/>
<text text-anchor="middle" x="761" y="-62" font-family="Helvetica,sans-Serif" font-size="10.00">gdict&#45;context.h</text>
</a>
</g>
</g>
<!-- Node9&#45;&gt;Node10 -->
<g id="edge10_Node000009_Node000010" class="edge">
<title>Node9&#45;&gt;Node10</title>
<g id="a_edge10_Node000009_Node000010"><a xlink:title=" ">
<path fill="none" stroke="#63b8ff" d="M746.81,-109.75C749.06,-102.72 752.3,-92.62 755.12,-83.84"/>
<polygon fill="#63b8ff" stroke="#63b8ff" points="758.52,-84.68 758.25,-74.09 751.86,-82.54 758.52,-84.68"/>
</a>
</g>
</g>
<!-- Node11 -->
<g id="Node000011" class="node">
<title>Node11</title>
<g id="a_Node000011"><a xlink:title=" ">
<polygon fill="#e0e0e0" stroke="#999999" points="914.5,-19 837.5,-19 837.5,0 914.5,0 914.5,-19"/>
<text text-anchor="middle" x="876" y="-7" font-family="Helvetica,sans-Serif" font-size="10.00">glib&#45;object.h</text>
</a>
</g>
</g>
<!-- Node10&#45;&gt;Node11 -->
<g id="edge11_Node000010_Node000011" class="edge">
<title>Node10&#45;&gt;Node11</title>
<g id="a_edge11_Node000010_Node000011"><a xlink:title=" ">
<path fill="none" stroke="#63b8ff" d="M779.48,-54.98C797.98,-46.46 826.68,-33.23 847.98,-23.41"/>
<polygon fill="#63b8ff" stroke="#63b8ff" points="849.57,-26.53 857.19,-19.17 846.64,-20.18 849.57,-26.53"/>
</a>
</g>
</g>
<!-- Node12&#45;&gt;Node6 -->
<g id="edge14_Node000012_Node000006" class="edge">
<title>Node12&#45;&gt;Node6</title>
<g id="a_edge14_Node000012_Node000006"><a xlink:title=" ">
<path fill="none" stroke="#63b8ff" d="M814.88,-109.98C785.38,-101.05 738.81,-86.94 706.03,-77.02"/>
<polygon fill="#63b8ff" stroke="#63b8ff" points="706.92,-73.63 696.34,-74.08 704.89,-80.33 706.92,-73.63"/>
</a>
</g>
</g>
<!-- Node12&#45;&gt;Node11 -->
<g id="edge13_Node000012_Node000011" class="edge">
<title>Node12&#45;&gt;Node11</title>
<g id="a_edge13_Node000012_Node000011"><a xlink:title=" ">
<path fill="none" stroke="#63b8ff" d="M843.5,-109.66C844.4,-97.2 846.81,-73.88 853,-55 856.08,-45.6 860.96,-35.77 865.44,-27.74"/>
<polygon fill="#63b8ff" stroke="#63b8ff" points="868.53,-29.4 870.55,-19 862.48,-25.87 868.53,-29.4"/>
</a>
</g>
</g>
<!-- Node14 -->
<g id="Node000014" class="node">
<title>Node14</title>
<g id="a_Node000014"><a xlink:title=" ">
<polygon fill="#e0e0e0" stroke="#999999" points="464,-19 420,-19 420,0 464,0 464,-19"/>
<text text-anchor="middle" x="442" y="-7" font-family="Helvetica,sans-Serif" font-size="10.00">glib.h</text>
</a>
</g>
</g>
<!-- Node13&#45;&gt;Node14 -->
<g id="edge16_Node000013_Node000014" class="edge">
<title>Node13&#45;&gt;Node14</title>
<g id="a_edge16_Node000013_Node000014"><a xlink:title=" ">
<path fill="none" stroke="#63b8ff" d="M442,-54.75C442,-47.8 442,-37.85 442,-29.13"/>
<polygon fill="#63b8ff" stroke="#63b8ff" points="445.5,-29.09 442,-19.09 438.5,-29.09 445.5,-29.09"/>
</a>
</g>
</g>
<!-- Node15&#45;&gt;Node6 -->
<g id="edge18_Node000015_Node000006" class="edge">
<title>Node15&#45;&gt;Node6</title>
<g id="a_edge18_Node000015_Node000006"><a xlink:title=" ">
<path fill="none" stroke="#63b8ff" d="M610.93,-109.98C621.08,-102.07 636.42,-90.11 648.65,-80.58"/>
<polygon fill="#63b8ff" stroke="#63b8ff" points="651.14,-83.08 656.88,-74.17 646.84,-77.56 651.14,-83.08"/>
</a>
</g>
</g>
<!-- Node15&#45;&gt;Node13 -->
<g id="edge19_Node000015_Node000013" class="edge">
<title>Node15&#45;&gt;Node13</title>
<g id="a_edge19_Node000015_Node000013"><a xlink:title=" ">
<path fill="none" stroke="#63b8ff" d="M574.61,-109.98C548.2,-101.13 506.65,-87.19 477.11,-77.28"/>
<polygon fill="#63b8ff" stroke="#63b8ff" points="478.18,-73.94 467.58,-74.08 475.95,-80.58 478.18,-73.94"/>
</a>
</g>
</g>
<!-- Node16&#45;&gt;Node11 -->
<g id="edge21_Node000016_Node000011" class="edge">
<title>Node16&#45;&gt;Node11</title>
<g id="a_edge21_Node000016_Node000011"><a xlink:title=" ">
<path fill="none" stroke="#63b8ff" d="M911.06,-54.75C905.13,-47.26 896.43,-36.28 889.18,-27.13"/>
<polygon fill="#63b8ff" stroke="#63b8ff" points="891.76,-24.75 882.81,-19.09 886.27,-29.1 891.76,-24.75"/>
</a>
</g>
</g>
<!-- Node17&#45;&gt;Node11 -->
<g id="edge23_Node000017_Node000011" class="edge">
<title>Node17&#45;&gt;Node11</title>
<g id="a_edge23_Node000017_Node000011"><a xlink:title=" ">
<path fill="none" stroke="#63b8ff" d="M1012.81,-54.98C985.56,-46.13 942.7,-32.19 912.22,-22.28"/>
<polygon fill="#63b8ff" stroke="#63b8ff" points="912.99,-18.85 902.39,-19.08 910.82,-25.5 912.99,-18.85"/>
</a>
</g>
</g>
</g>
</svg>
