<?xml version="1.0" encoding="UTF-8" standalone="no"?>
<!DOCTYPE svg PUBLIC "-//W3C//DTD SVG 1.1//EN"
 "http://www.w3.org/Graphics/SVG/1.1/DTD/svg11.dtd">
<!-- Generated by graphviz version 2.43.0 (0)
 -->
<!-- Title: gdict&#45;context.h Pages: 1 -->
<!--zoomable 412 -->

<svg id="main" version="1.1" xmlns="http://www.w3.org/2000/svg" xmlns:xlink="http://www.w3.org/1999/xlink" xml:space="preserve" onload="init(evt)">

<style type="text/css"><![CDATA[
.node, .edge {opacity: 0.7;}
.node.selected, .edge.selected {opacity: 1;}
.edge:hover path { stroke: red; }
.edge:hover polygon { stroke: red; fill: red; }
]]></style>

<defs>
  <circle id="rim" cx="0" cy="0" r="7"/>
  <circle id="rim2" cx="0" cy="0" r="3.5"/>
  <g id="zoomPlus">
    <use xlink:href="#rim" fill="#404040"><set attributeName="fill" to="#808080" begin="zoomplus.mouseover" end="zoomplus.mouseout"/></use>
    <path d="M-4,0h8M0,-4v8" fill="none" stroke="white" stroke-width="1.5" pointer-events="none"/>
  </g>
  <g id="zoomMin">
    <use xlink:href="#rim" fill="#404040"><set attributeName="fill" to="#808080" begin="zoomminus.mouseover" end="zoomminus.mouseout"/></use>
    <path d="M-4,0h8" fill="none" stroke="white" stroke-width="1.5" pointer-events="none"/>
  </g>
  <g id="arrowUp" transform="translate(30 24)">
    <use xlink:href="#rim"/>
    <path pointer-events="none" fill="none" stroke="white" stroke-width="1.5" d="M0,-3.0v7 M-2.5,-0.5L0,-3.0L2.5,-0.5"/>
  </g>
  <g id="arrowRight" transform="rotate(90) translate(36 -43)">
    <use xlink:href="#rim"/>
    <path pointer-events="none" fill="none" stroke="white" stroke-width="1.5" d="M0,-3.0v7 M-2.5,-0.5L0,-3.0L2.5,-0.5"/>
  </g>
  <g id="arrowDown" transform="rotate(180) translate(-30 -48)">
    <use xlink:href="#rim"/>
    <path pointer-events="none" fill="none" stroke="white" stroke-width="1.5" d="M0,-3.0v7 M-2.5,-0.5L0,-3.0L2.5,-0.5"/>
  </g>
  <g id="arrowLeft" transform="rotate(270) translate(-36 17)">
    <use xlink:href="#rim"/>
    <path pointer-events="none" fill="none" stroke="white" stroke-width="1.5" d="M0,-3.0v7 M-2.5,-0.5L0,-3.0L2.5,-0.5"/>
  </g>
  <g id="resetDef">
    <use xlink:href="#rim2" fill="#404040"><set attributeName="fill" to="#808080" begin="reset.mouseover" end="reset.mouseout"/></use>
  </g>
</defs>
<script type="application/ecmascript">
var viewWidth = 1353;
var viewHeight = 412;
var sectionId = 'dynsection-1';
</script>
<script type="application/ecmascript" xlink:href="svg.min.js"/>
<svg id="graph" class="graph">
<g id="viewport">
<title>gdict&#45;context.h</title>
<!-- Node1 -->
<g id="Node000001" class="node">
<title>Node1</title>
<g id="a_Node000001"><a xlink:title=" ">
<polygon fill="#999999" stroke="#666666" points="578.75,-404 488.75,-404 488.75,-385 578.75,-385 578.75,-404"/>
<text text-anchor="middle" x="533.75" y="-392" font-family="Helvetica,sans-Serif" font-size="10.00">gdict&#45;context.h</text>
</a>
</g>
</g>
<!-- Node2 -->
<g id="Node000002" class="node">
<title>Node2</title>
<g id="a_Node000002"><a xlink:href="gdict-client-context_8c.html" target="_top" xlink:title=" ">
<polygon fill="white" stroke="#666666" points="332.75,-294 212.75,-294 212.75,-275 332.75,-275 332.75,-294"/>
<text text-anchor="middle" x="272.75" y="-282" font-family="Helvetica,sans-Serif" font-size="10.00">gdict&#45;client&#45;context.c</text>
</a>
</g>
</g>
<!-- Node1&#45;&gt;Node2 -->
<g id="edge1_Node000001_Node000002" class="edge">
<title>Node1&#45;&gt;Node2</title>
<g id="a_edge1_Node000001_Node000002"><a xlink:title=" ">
<path fill="none" stroke="#63b8ff" d="M478.8,-384.43C444.39,-377.5 399.73,-366.16 362.75,-349 330.84,-334.19 298.3,-307.86 282.53,-294.23"/>
<polygon fill="#63b8ff" stroke="#63b8ff" points="478.18,-387.88 488.67,-386.36 479.53,-381.01 478.18,-387.88"/>
</a>
</g>
</g>
<!-- Node3 -->
<g id="Node000003" class="node">
<title>Node3</title>
<g id="a_Node000003"><a xlink:href="gdict-client-context_8h.html" target="_top" xlink:title=" ">
<polygon fill="white" stroke="#666666" points="492.25,-349 371.25,-349 371.25,-330 492.25,-330 492.25,-349"/>
<text text-anchor="middle" x="431.75" y="-337" font-family="Helvetica,sans-Serif" font-size="10.00">gdict&#45;client&#45;context.h</text>
</a>
</g>
</g>
<!-- Node1&#45;&gt;Node3 -->
<g id="edge2_Node000001_Node000003" class="edge">
<title>Node1&#45;&gt;Node3</title>
<g id="a_edge2_Node000001_Node000003"><a xlink:title=" ">
<path fill="none" stroke="#63b8ff" d="M508.48,-380.37C489.74,-370.63 464.73,-357.64 448.44,-349.17"/>
<polygon fill="#63b8ff" stroke="#63b8ff" points="506.88,-383.48 517.36,-384.98 510.1,-377.27 506.88,-383.48"/>
</a>
</g>
</g>
<!-- Node4 -->
<g id="Node000004" class="node">
<title>Node4</title>
<g id="a_Node000004"><a xlink:href="gdict-enum-types_8c.html" target="_top" xlink:title=" ">
<polygon fill="white" stroke="#666666" points="603.25,-294 492.25,-294 492.25,-275 603.25,-275 603.25,-294"/>
<text text-anchor="middle" x="547.75" y="-282" font-family="Helvetica,sans-Serif" font-size="10.00">gdict&#45;enum&#45;types.c</text>
</a>
</g>
</g>
<!-- Node1&#45;&gt;Node4 -->
<g id="edge41_Node000001_Node000004" class="edge">
<title>Node1&#45;&gt;Node4</title>
<g id="a_edge41_Node000001_Node000004"><a xlink:title=" ">
<path fill="none" stroke="#63b8ff" d="M536.22,-374.48C539.28,-350.84 544.38,-311.5 546.63,-294.16"/>
<polygon fill="#63b8ff" stroke="#63b8ff" points="532.71,-374.29 534.9,-384.66 539.65,-375.19 532.71,-374.29"/>
</a>
</g>
</g>
<!-- Node6 -->
<g id="Node000006" class="node">
<title>Node6</title>
<g id="a_Node000006"><a xlink:href="gdict_8h.html" target="_top" xlink:title=" ">
<polygon fill="white" stroke="#666666" points="774.75,-184 724.75,-184 724.75,-165 774.75,-165 774.75,-184"/>
<text text-anchor="middle" x="749.75" y="-172" font-family="Helvetica,sans-Serif" font-size="10.00">gdict.h</text>
</a>
</g>
</g>
<!-- Node1&#45;&gt;Node6 -->
<g id="edge58_Node000001_Node000006" class="edge">
<title>Node1&#45;&gt;Node6</title>
<g id="a_edge58_Node000001_Node000006"><a xlink:title=" ">
<path fill="none" stroke="#63b8ff" d="M588.8,-386.42C643.77,-376.19 725.9,-351.69 767.75,-294 787.18,-267.22 784.4,-251.93 775.75,-220 772.06,-206.35 763.02,-192.6 756.64,-184.07"/>
<polygon fill="#63b8ff" stroke="#63b8ff" points="588.12,-382.98 578.87,-388.16 589.33,-389.88 588.12,-382.98"/>
</a>
</g>
</g>
<!-- Node19 -->
<g id="Node000019" class="node">
<title>Node19</title>
<g id="a_Node000019"><a xlink:href="gdict-context-private_8h.html" target="_top" xlink:title=" ">
<polygon fill="white" stroke="#666666" points="276.75,-349 148.75,-349 148.75,-330 276.75,-330 276.75,-349"/>
<text text-anchor="middle" x="212.75" y="-337" font-family="Helvetica,sans-Serif" font-size="10.00">gdict&#45;context&#45;private.h</text>
</a>
</g>
</g>
<!-- Node1&#45;&gt;Node19 -->
<g id="edge26_Node000001_Node000019" class="edge">
<title>Node1&#45;&gt;Node19</title>
<g id="a_edge26_Node000001_Node000019"><a xlink:title=" ">
<path fill="none" stroke="#63b8ff" d="M478.38,-384.36C418.29,-374.44 323.09,-358.72 264.47,-349.04"/>
<polygon fill="#63b8ff" stroke="#63b8ff" points="478,-387.84 488.44,-386.02 479.14,-380.94 478,-387.84"/>
</a>
</g>
</g>
<!-- Node20 -->
<g id="Node000020" class="node">
<title>Node20</title>
<g id="a_Node000020"><a xlink:href="gdict-context_8c.html" target="_top" xlink:title=" ">
<polygon fill="white" stroke="#666666" points="102.25,-294 13.25,-294 13.25,-275 102.25,-275 102.25,-294"/>
<text text-anchor="middle" x="57.75" y="-282" font-family="Helvetica,sans-Serif" font-size="10.00">gdict&#45;context.c</text>
</a>
</g>
</g>
<!-- Node1&#45;&gt;Node20 -->
<g id="edge30_Node000001_Node000020" class="edge">
<title>Node1&#45;&gt;Node20</title>
<g id="a_edge30_Node000001_Node000020"><a xlink:title=" ">
<path fill="none" stroke="#63b8ff" d="M478.46,-390.94C384.94,-385.99 199.84,-373.4 139.75,-349 108.72,-336.4 79.49,-308.59 65.83,-294.32"/>
<polygon fill="#63b8ff" stroke="#63b8ff" points="478.42,-394.44 488.58,-391.46 478.78,-387.45 478.42,-394.44"/>
</a>
</g>
</g>
<!-- Node22 -->
<g id="Node000022" class="node">
<title>Node22</title>
<g id="a_Node000022"><a xlink:href="gdict-database-chooser_8h.html" target="_top" xlink:title=" ">
<polygon fill="white" stroke="#666666" points="974.75,-349 834.75,-349 834.75,-330 974.75,-330 974.75,-349"/>
<text text-anchor="middle" x="904.75" y="-337" font-family="Helvetica,sans-Serif" font-size="10.00">gdict&#45;database&#45;chooser.h</text>
</a>
</g>
</g>
<!-- Node1&#45;&gt;Node22 -->
<g id="edge31_Node000001_Node000022" class="edge">
<title>Node1&#45;&gt;Node22</title>
<g id="a_edge31_Node000001_Node000022"><a xlink:title=" ">
<path fill="none" stroke="#63b8ff" d="M589.05,-385.6C657.68,-375.8 774.29,-359.14 844.95,-349.04"/>
<polygon fill="#63b8ff" stroke="#63b8ff" points="588.28,-382.18 578.87,-387.05 589.27,-389.1 588.28,-382.18"/>
</a>
</g>
</g>
<!-- Node24 -->
<g id="Node000024" class="node">
<title>Node24</title>
<g id="a_Node000024"><a xlink:href="gdict-defbox_8h.html" target="_top" xlink:title=" ">
<polygon fill="white" stroke="#666666" points="267.25,-239 180.25,-239 180.25,-220 267.25,-220 267.25,-239"/>
<text text-anchor="middle" x="223.75" y="-227" font-family="Helvetica,sans-Serif" font-size="10.00">gdict&#45;defbox.h</text>
</a>
</g>
</g>
<!-- Node1&#45;&gt;Node24 -->
<g id="edge34_Node000001_Node000024" class="edge">
<title>Node1&#45;&gt;Node24</title>
<g id="a_edge34_Node000001_Node000024"><a xlink:title=" ">
<path fill="none" stroke="#63b8ff" d="M478.17,-392.91C352.14,-390.15 51.89,-375.03 3.75,-294 -0.56,-286.74 -1.59,-281.54 3.75,-275 25.59,-248.31 122.4,-237.25 180.07,-232.97"/>
<polygon fill="#63b8ff" stroke="#63b8ff" points="478.3,-396.41 488.37,-393.12 478.44,-389.42 478.3,-396.41"/>
</a>
</g>
</g>
<!-- Node27 -->
<g id="Node000027" class="node">
<title>Node27</title>
<g id="a_Node000027"><a xlink:href="gdict-source_8h.html" target="_top" xlink:title=" ">
<polygon fill="white" stroke="#666666" points="647.75,-349 561.75,-349 561.75,-330 647.75,-330 647.75,-349"/>
<text text-anchor="middle" x="604.75" y="-337" font-family="Helvetica,sans-Serif" font-size="10.00">gdict&#45;source.h</text>
</a>
</g>
</g>
<!-- Node1&#45;&gt;Node27 -->
<g id="edge42_Node000001_Node000027" class="edge">
<title>Node1&#45;&gt;Node27</title>
<g id="a_edge42_Node000001_Node000027"><a xlink:title=" ">
<path fill="none" stroke="#63b8ff" d="M553.34,-378.88C566.12,-369.34 582.36,-357.21 593.14,-349.17"/>
<polygon fill="#63b8ff" stroke="#63b8ff" points="551.08,-376.2 545.16,-384.98 555.27,-381.81 551.08,-376.2"/>
</a>
</g>
</g>
<!-- Node32 -->
<g id="Node000032" class="node">
<title>Node32</title>
<g id="a_Node000032"><a xlink:href="gdict-speller_8h.html" target="_top" xlink:title=" ">
<polygon fill="white" stroke="#666666" points="1083.75,-349 997.75,-349 997.75,-330 1083.75,-330 1083.75,-349"/>
<text text-anchor="middle" x="1040.75" y="-337" font-family="Helvetica,sans-Serif" font-size="10.00">gdict&#45;speller.h</text>
</a>
</g>
</g>
<!-- Node1&#45;&gt;Node32 -->
<g id="edge52_Node000001_Node000032" class="edge">
<title>Node1&#45;&gt;Node32</title>
<g id="a_edge52_Node000001_Node000032"><a xlink:title=" ">
<path fill="none" stroke="#63b8ff" d="M589.06,-388.92C674.05,-381.68 841.84,-366.59 983.75,-349 988.22,-348.45 992.88,-347.82 997.52,-347.18"/>
<polygon fill="#63b8ff" stroke="#63b8ff" points="588.53,-385.45 578.86,-389.78 589.12,-392.42 588.53,-385.45"/>
</a>
</g>
</g>
<!-- Node34 -->
<g id="Node000034" class="node">
<title>Node34</title>
<g id="a_Node000034"><a xlink:href="gdict-strategy-chooser_8h.html" target="_top" xlink:title=" ">
<polygon fill="white" stroke="#666666" points="1250.25,-349 1115.25,-349 1115.25,-330 1250.25,-330 1250.25,-349"/>
<text text-anchor="middle" x="1182.75" y="-337" font-family="Helvetica,sans-Serif" font-size="10.00">gdict&#45;strategy&#45;chooser.h</text>
</a>
</g>
</g>
<!-- Node1&#45;&gt;Node34 -->
<g id="edge55_Node000001_Node000034" class="edge">
<title>Node1&#45;&gt;Node34</title>
<g id="a_edge55_Node000001_Node000034"><a xlink:title=" ">
<path fill="none" stroke="#63b8ff" d="M589.27,-389.35C689.75,-381.79 908.45,-365.04 1092.75,-349 1099.94,-348.37 1107.46,-347.7 1114.94,-347.01"/>
<polygon fill="#63b8ff" stroke="#63b8ff" points="588.77,-385.88 579.06,-390.12 589.29,-392.86 588.77,-385.88"/>
</a>
</g>
</g>
<!-- Node3&#45;&gt;Node2 -->
<g id="edge3_Node000003_Node000002" class="edge">
<title>Node3&#45;&gt;Node2</title>
<g id="a_edge3_Node000003_Node000002"><a xlink:title=" ">
<path fill="none" stroke="#63b8ff" d="M396.65,-326.8C366.97,-316.91 325.15,-302.97 298.5,-294.08"/>
<polygon fill="#63b8ff" stroke="#63b8ff" points="395.61,-330.14 406.21,-329.98 397.83,-323.5 395.61,-330.14"/>
</a>
</g>
</g>
<!-- Node3&#45;&gt;Node4 -->
<g id="edge4_Node000003_Node000004" class="edge">
<title>Node3&#45;&gt;Node4</title>
<g id="a_edge4_Node000003_Node000004"><a xlink:title=" ">
<path fill="none" stroke="#63b8ff" d="M459.62,-325.77C481.02,-315.99 509.99,-302.75 528.78,-294.17"/>
<polygon fill="#63b8ff" stroke="#63b8ff" points="458.03,-322.65 450.39,-329.98 460.94,-329.01 458.03,-322.65"/>
</a>
</g>
</g>
<!-- Node5 -->
<g id="Node000005" class="node">
<title>Node5</title>
<g id="a_Node000005"><a xlink:href="gdict-source_8c.html" target="_top" xlink:title=" ">
<polygon fill="white" stroke="#666666" points="474.25,-294 389.25,-294 389.25,-275 474.25,-275 474.25,-294"/>
<text text-anchor="middle" x="431.75" y="-282" font-family="Helvetica,sans-Serif" font-size="10.00">gdict&#45;source.c</text>
</a>
</g>
</g>
<!-- Node3&#45;&gt;Node5 -->
<g id="edge5_Node000003_Node000005" class="edge">
<title>Node3&#45;&gt;Node5</title>
<g id="a_edge5_Node000003_Node000005"><a xlink:title=" ">
<path fill="none" stroke="#63b8ff" d="M431.75,-319.66C431.75,-310.93 431.75,-300.99 431.75,-294.09"/>
<polygon fill="#63b8ff" stroke="#63b8ff" points="428.25,-319.75 431.75,-329.75 435.25,-319.75 428.25,-319.75"/>
</a>
</g>
</g>
<!-- Node3&#45;&gt;Node6 -->
<g id="edge6_Node000003_Node000006" class="edge">
<title>Node3&#45;&gt;Node6</title>
<g id="a_edge6_Node000003_Node000006"><a xlink:title=" ">
<path fill="none" stroke="#63b8ff" d="M407.54,-324.48C388.65,-311.74 367.65,-292.33 380.75,-275 402.13,-246.72 645.06,-196.3 724.66,-180.42"/>
<polygon fill="#63b8ff" stroke="#63b8ff" points="405.89,-327.58 416.21,-330 409.65,-321.68 405.89,-327.58"/>
</a>
</g>
</g>
<!-- Node7 -->
<g id="Node000007" class="node">
<title>Node7</title>
<g id="a_Node000007"><a xlink:href="gdict-app_8h.html" target="_top" xlink:title=" ">
<polygon fill="white" stroke="#666666" points="1057.25,-74 986.25,-74 986.25,-55 1057.25,-55 1057.25,-74"/>
<text text-anchor="middle" x="1021.75" y="-62" font-family="Helvetica,sans-Serif" font-size="10.00">gdict&#45;app.h</text>
</a>
</g>
</g>
<!-- Node6&#45;&gt;Node7 -->
<g id="edge7_Node000006_Node000007" class="edge">
<title>Node6&#45;&gt;Node7</title>
<g id="a_edge7_Node000006_Node000007"><a xlink:title=" ">
<path fill="none" stroke="#63b8ff" d="M785.12,-169.95C841.2,-163.77 947.4,-149.71 978.75,-129 999.41,-115.35 1012.75,-88.01 1018.5,-74.09"/>
<polygon fill="#63b8ff" stroke="#63b8ff" points="784.5,-166.49 774.93,-171.04 785.25,-173.45 784.5,-166.49"/>
</a>
</g>
</g>
<!-- Node10 -->
<g id="Node000010" class="node">
<title>Node10</title>
<g id="a_Node000010"><a xlink:href="gdict-applet_8h.html" target="_top" xlink:title=" ">
<polygon fill="white" stroke="#666666" points="561.75,-129 477.75,-129 477.75,-110 561.75,-110 561.75,-129"/>
<text text-anchor="middle" x="519.75" y="-117" font-family="Helvetica,sans-Serif" font-size="10.00">gdict&#45;applet.h</text>
</a>
</g>
</g>
<!-- Node6&#45;&gt;Node10 -->
<g id="edge10_Node000006_Node000010" class="edge">
<title>Node6&#45;&gt;Node10</title>
<g id="a_edge10_Node000006_Node000010"><a xlink:title=" ">
<path fill="none" stroke="#63b8ff" d="M714.78,-165.44C672.17,-155.62 600.47,-139.1 556.89,-129.06"/>
<polygon fill="#63b8ff" stroke="#63b8ff" points="714.17,-168.89 724.7,-167.73 715.74,-162.07 714.17,-168.89"/>
</a>
</g>
</g>
<!-- Node12 -->
<g id="Node000012" class="node">
<title>Node12</title>
<g id="a_Node000012"><a xlink:href="gdict-pref-dialog_8h.html" target="_top" xlink:title=" ">
<polygon fill="white" stroke="#666666" points="685.75,-129 579.75,-129 579.75,-110 685.75,-110 685.75,-129"/>
<text text-anchor="middle" x="632.75" y="-117" font-family="Helvetica,sans-Serif" font-size="10.00">gdict&#45;pref&#45;dialog.h</text>
</a>
</g>
</g>
<!-- Node6&#45;&gt;Node12 -->
<g id="edge12_Node000006_Node000012" class="edge">
<title>Node6&#45;&gt;Node12</title>
<g id="a_edge12_Node000006_Node000012"><a xlink:title=" ">
<path fill="none" stroke="#63b8ff" d="M721.64,-160.77C700.06,-150.99 670.84,-137.75 651.89,-129.17"/>
<polygon fill="#63b8ff" stroke="#63b8ff" points="720.4,-164.05 730.95,-164.98 723.29,-157.67 720.4,-164.05"/>
</a>
</g>
</g>
<!-- Node14 -->
<g id="Node000014" class="node">
<title>Node14</title>
<g id="a_Node000014"><a xlink:href="gdict-print_8c.html" target="_top" xlink:title=" ">
<polygon fill="white" stroke="#666666" points="459.25,-74 384.25,-74 384.25,-55 459.25,-55 459.25,-74"/>
<text text-anchor="middle" x="421.75" y="-62" font-family="Helvetica,sans-Serif" font-size="10.00">gdict&#45;print.c</text>
</a>
</g>
</g>
<!-- Node6&#45;&gt;Node14 -->
<g id="edge18_Node000006_Node000014" class="edge">
<title>Node6&#45;&gt;Node14</title>
<g id="a_edge18_Node000006_Node000014"><a xlink:title=" ">
<path fill="none" stroke="#63b8ff" d="M714.53,-171.94C625.53,-167.63 397.14,-154.2 374.75,-129 358.36,-110.54 388.25,-86.65 407.45,-74.09"/>
<polygon fill="#63b8ff" stroke="#63b8ff" points="714.51,-175.44 724.66,-172.42 714.84,-168.45 714.51,-175.44"/>
</a>
</g>
</g>
<!-- Node15 -->
<g id="Node000015" class="node">
<title>Node15</title>
<g id="a_Node000015"><a xlink:href="gdict-window_8c.html" target="_top" xlink:title=" ">
<polygon fill="white" stroke="#666666" points="708.25,-74 619.25,-74 619.25,-55 708.25,-55 708.25,-74"/>
<text text-anchor="middle" x="663.75" y="-62" font-family="Helvetica,sans-Serif" font-size="10.00">gdict&#45;window.c</text>
</a>
</g>
</g>
<!-- Node6&#45;&gt;Node15 -->
<g id="edge22_Node000006_Node000015" class="edge">
<title>Node6&#45;&gt;Node15</title>
<g id="a_edge22_Node000006_Node000015"><a xlink:title=" ">
<path fill="none" stroke="#63b8ff" d="M736.37,-156.69C717.8,-133.37 684.89,-92.05 670.65,-74.16"/>
<polygon fill="#63b8ff" stroke="#63b8ff" points="733.75,-159.02 742.71,-164.66 739.22,-154.66 733.75,-159.02"/>
</a>
</g>
</g>
<!-- Node16 -->
<g id="Node000016" class="node">
<title>Node16</title>
<g id="a_Node000016"><a xlink:href="gdict-source-dialog_8h.html" target="_top" xlink:title=" ">
<polygon fill="white" stroke="#666666" points="969.25,-129 850.25,-129 850.25,-110 969.25,-110 969.25,-129"/>
<text text-anchor="middle" x="909.75" y="-117" font-family="Helvetica,sans-Serif" font-size="10.00">gdict&#45;source&#45;dialog.h</text>
</a>
</g>
</g>
<!-- Node6&#45;&gt;Node16 -->
<g id="edge19_Node000006_Node000016" class="edge">
<title>Node6&#45;&gt;Node16</title>
<g id="a_edge19_Node000006_Node000016"><a xlink:title=" ">
<path fill="none" stroke="#63b8ff" d="M784.74,-161.91C814.67,-152 857.07,-137.95 883.99,-129.03"/>
<polygon fill="#63b8ff" stroke="#63b8ff" points="783.5,-158.63 775.1,-165.1 785.7,-165.28 783.5,-158.63"/>
</a>
</g>
</g>
<!-- Node18 -->
<g id="Node000018" class="node">
<title>Node18</title>
<g id="a_Node000018"><a xlink:href="gdict-window_8h.html" target="_top" xlink:title=" ">
<polygon fill="white" stroke="#666666" points="831.75,-129 741.75,-129 741.75,-110 831.75,-110 831.75,-129"/>
<text text-anchor="middle" x="786.75" y="-117" font-family="Helvetica,sans-Serif" font-size="10.00">gdict&#45;window.h</text>
</a>
</g>
</g>
<!-- Node6&#45;&gt;Node18 -->
<g id="edge23_Node000006_Node000018" class="edge">
<title>Node6&#45;&gt;Node18</title>
<g id="a_edge23_Node000006_Node000018"><a xlink:title=" ">
<path fill="none" stroke="#63b8ff" d="M761.7,-156.39C768.06,-147.27 775.62,-136.45 780.76,-129.09"/>
<polygon fill="#63b8ff" stroke="#63b8ff" points="758.72,-154.55 755.86,-164.75 764.46,-158.55 758.72,-154.55"/>
</a>
</g>
</g>
<!-- Node8 -->
<g id="Node000008" class="node">
<title>Node8</title>
<g id="a_Node000008"><a xlink:href="gdict-app_8c.html" target="_top" xlink:title=" ">
<polygon fill="white" stroke="#666666" points="802.25,-19 731.25,-19 731.25,0 802.25,0 802.25,-19"/>
<text text-anchor="middle" x="766.75" y="-7" font-family="Helvetica,sans-Serif" font-size="10.00">gdict&#45;app.c</text>
</a>
</g>
</g>
<!-- Node7&#45;&gt;Node8 -->
<g id="edge8_Node000007_Node000008" class="edge">
<title>Node7&#45;&gt;Node8</title>
<g id="a_edge8_Node000007_Node000008"><a xlink:title=" ">
<path fill="none" stroke="#63b8ff" d="M976.19,-54.03C926.54,-43.71 848.12,-27.41 802.65,-17.96"/>
<polygon fill="#63b8ff" stroke="#63b8ff" points="975.52,-57.47 986.03,-56.07 976.95,-50.61 975.52,-57.47"/>
</a>
</g>
</g>
<!-- Node9 -->
<g id="Node000009" class="node">
<title>Node9</title>
<g id="a_Node000009"><a xlink:href="mate-utils_2mate-dictionary_2src_2main_8c.html" target="_top" xlink:title=" ">
<polygon fill="white" stroke="#666666" points="1046.75,-19 996.75,-19 996.75,0 1046.75,0 1046.75,-19"/>
<text text-anchor="middle" x="1021.75" y="-7" font-family="Helvetica,sans-Serif" font-size="10.00">main.c</text>
</a>
</g>
</g>
<!-- Node7&#45;&gt;Node9 -->
<g id="edge9_Node000007_Node000009" class="edge">
<title>Node7&#45;&gt;Node9</title>
<g id="a_edge9_Node000007_Node000009"><a xlink:title=" ">
<path fill="none" stroke="#63b8ff" d="M1021.75,-44.66C1021.75,-35.93 1021.75,-25.99 1021.75,-19.09"/>
<polygon fill="#63b8ff" stroke="#63b8ff" points="1018.25,-44.75 1021.75,-54.75 1025.25,-44.75 1018.25,-44.75"/>
</a>
</g>
</g>
<!-- Node11 -->
<g id="Node000011" class="node">
<title>Node11</title>
<g id="a_Node000011"><a xlink:href="gdict-applet_8c.html" target="_top" xlink:title=" ">
<polygon fill="white" stroke="#666666" points="561.25,-74 478.25,-74 478.25,-55 561.25,-55 561.25,-74"/>
<text text-anchor="middle" x="519.75" y="-62" font-family="Helvetica,sans-Serif" font-size="10.00">gdict&#45;applet.c</text>
</a>
</g>
</g>
<!-- Node10&#45;&gt;Node11 -->
<g id="edge11_Node000010_Node000011" class="edge">
<title>Node10&#45;&gt;Node11</title>
<g id="a_edge11_Node000010_Node000011"><a xlink:title=" ">
<path fill="none" stroke="#63b8ff" d="M519.75,-99.66C519.75,-90.93 519.75,-80.99 519.75,-74.09"/>
<polygon fill="#63b8ff" stroke="#63b8ff" points="516.25,-99.75 519.75,-109.75 523.25,-99.75 516.25,-99.75"/>
</a>
</g>
</g>
<!-- Node12&#45;&gt;Node8 -->
<g id="edge13_Node000012_Node000008" class="edge">
<title>Node12&#45;&gt;Node8</title>
<g id="a_edge13_Node000012_Node000008"><a xlink:title=" ">
<path fill="none" stroke="#63b8ff" d="M619,-101.85C609.49,-88.19 600.26,-68.9 610.75,-55 625.21,-35.84 689.61,-22.46 731.01,-15.66"/>
<polygon fill="#63b8ff" stroke="#63b8ff" points="616.27,-104.03 625.09,-109.9 621.85,-99.81 616.27,-104.03"/>
</a>
</g>
</g>
<!-- Node12&#45;&gt;Node11 -->
<g id="edge14_Node000012_Node000011" class="edge">
<title>Node12&#45;&gt;Node11</title>
<g id="a_edge14_Node000012_Node000011"><a xlink:title=" ">
<path fill="none" stroke="#63b8ff" d="M605.32,-105.63C584.5,-95.87 556.45,-82.71 538.24,-74.17"/>
<polygon fill="#63b8ff" stroke="#63b8ff" points="604.06,-108.91 614.6,-109.98 607.03,-102.57 604.06,-108.91"/>
</a>
</g>
</g>
<!-- Node13 -->
<g id="Node000013" class="node">
<title>Node13</title>
<g id="a_Node000013"><a xlink:href="gdict-pref-dialog_8c.html" target="_top" xlink:title=" ">
<polygon fill="white" stroke="#666666" points="831.25,-74 726.25,-74 726.25,-55 831.25,-55 831.25,-74"/>
<text text-anchor="middle" x="778.75" y="-62" font-family="Helvetica,sans-Serif" font-size="10.00">gdict&#45;pref&#45;dialog.c</text>
</a>
</g>
</g>
<!-- Node12&#45;&gt;Node13 -->
<g id="edge15_Node000012_Node000013" class="edge">
<title>Node12&#45;&gt;Node13</title>
<g id="a_edge15_Node000012_Node000013"><a xlink:title=" ">
<path fill="none" stroke="#63b8ff" d="M665.67,-106.55C692.78,-96.71 730.59,-82.98 754.87,-74.17"/>
<polygon fill="#63b8ff" stroke="#63b8ff" points="664.41,-103.28 656.21,-109.98 666.8,-109.86 664.41,-103.28"/>
</a>
</g>
</g>
<!-- Node12&#45;&gt;Node14 -->
<g id="edge16_Node000012_Node000014" class="edge">
<title>Node12&#45;&gt;Node14</title>
<g id="a_edge16_Node000012_Node000014"><a xlink:title=" ">
<path fill="none" stroke="#63b8ff" d="M588.96,-107.5C549.45,-97.58 492.14,-83.18 455.92,-74.08"/>
<polygon fill="#63b8ff" stroke="#63b8ff" points="588.3,-110.94 598.85,-109.98 590,-104.15 588.3,-110.94"/>
</a>
</g>
</g>
<!-- Node12&#45;&gt;Node15 -->
<g id="edge17_Node000012_Node000015" class="edge">
<title>Node12&#45;&gt;Node15</title>
<g id="a_edge17_Node000012_Node000015"><a xlink:title=" ">
<path fill="none" stroke="#63b8ff" d="M642.93,-101.1C648.23,-92.04 654.47,-81.37 658.73,-74.09"/>
<polygon fill="#63b8ff" stroke="#63b8ff" points="639.9,-99.35 637.87,-109.75 645.94,-102.88 639.9,-99.35"/>
</a>
</g>
</g>
<!-- Node16&#45;&gt;Node13 -->
<g id="edge20_Node000016_Node000013" class="edge">
<title>Node16&#45;&gt;Node13</title>
<g id="a_edge20_Node000016_Node000013"><a xlink:title=" ">
<path fill="none" stroke="#63b8ff" d="M879.25,-106.16C855,-96.35 821.68,-82.87 800.18,-74.17"/>
<polygon fill="#63b8ff" stroke="#63b8ff" points="878.12,-109.48 888.7,-109.98 880.75,-102.99 878.12,-109.48"/>
</a>
</g>
</g>
<!-- Node17 -->
<g id="Node000017" class="node">
<title>Node17</title>
<g id="a_Node000017"><a xlink:href="gdict-source-dialog_8c.html" target="_top" xlink:title=" ">
<polygon fill="white" stroke="#666666" points="968.25,-74 849.25,-74 849.25,-55 968.25,-55 968.25,-74"/>
<text text-anchor="middle" x="908.75" y="-62" font-family="Helvetica,sans-Serif" font-size="10.00">gdict&#45;source&#45;dialog.c</text>
</a>
</g>
</g>
<!-- Node16&#45;&gt;Node17 -->
<g id="edge21_Node000016_Node000017" class="edge">
<title>Node16&#45;&gt;Node17</title>
<g id="a_edge21_Node000016_Node000017"><a xlink:title=" ">
<path fill="none" stroke="#63b8ff" d="M909.4,-99.66C909.23,-90.93 909.04,-80.99 908.91,-74.09"/>
<polygon fill="#63b8ff" stroke="#63b8ff" points="905.9,-99.82 909.59,-109.75 912.9,-99.68 905.9,-99.82"/>
</a>
</g>
</g>
<!-- Node18&#45;&gt;Node7 -->
<g id="edge24_Node000018_Node000007" class="edge">
<title>Node18&#45;&gt;Node7</title>
<g id="a_edge24_Node000018_Node000007"><a xlink:title=" ">
<path fill="none" stroke="#63b8ff" d="M834.3,-107.78C879.18,-97.65 945.47,-82.7 986.01,-73.56"/>
<polygon fill="#63b8ff" stroke="#63b8ff" points="833.49,-104.37 824.51,-109.98 835.03,-111.2 833.49,-104.37"/>
</a>
</g>
</g>
<!-- Node18&#45;&gt;Node15 -->
<g id="edge25_Node000018_Node000015" class="edge">
<title>Node18&#45;&gt;Node15</title>
<g id="a_edge25_Node000018_Node000015"><a xlink:title=" ">
<path fill="none" stroke="#63b8ff" d="M757.5,-105.9C734.79,-96.11 703.88,-82.79 683.87,-74.17"/>
<polygon fill="#63b8ff" stroke="#63b8ff" points="756.42,-109.24 766.99,-109.98 759.19,-102.81 756.42,-109.24"/>
</a>
</g>
</g>
<!-- Node19&#45;&gt;Node2 -->
<g id="edge27_Node000019_Node000002" class="edge">
<title>Node19&#45;&gt;Node2</title>
<g id="a_edge27_Node000019_Node000002"><a xlink:title=" ">
<path fill="none" stroke="#63b8ff" d="M229.93,-323.32C240.63,-313.87 254.01,-302.06 262.94,-294.17"/>
<polygon fill="#63b8ff" stroke="#63b8ff" points="227.57,-320.74 222.39,-329.98 232.2,-325.99 227.57,-320.74"/>
</a>
</g>
</g>
<!-- Node19&#45;&gt;Node20 -->
<g id="edge28_Node000019_Node000020" class="edge">
<title>Node19&#45;&gt;Node20</title>
<g id="a_edge28_Node000019_Node000020"><a xlink:title=" ">
<path fill="none" stroke="#63b8ff" d="M178.15,-326.67C149.25,-316.79 108.72,-302.93 82.85,-294.08"/>
<polygon fill="#63b8ff" stroke="#63b8ff" points="177.25,-330.06 187.85,-329.98 179.52,-323.44 177.25,-330.06"/>
</a>
</g>
</g>
<!-- Node21 -->
<g id="Node000021" class="node">
<title>Node21</title>
<g id="a_Node000021"><a xlink:href="gdict-utils_8c.html" target="_top" xlink:title=" ">
<polygon fill="white" stroke="#666666" points="194.75,-294 120.75,-294 120.75,-275 194.75,-275 194.75,-294"/>
<text text-anchor="middle" x="157.75" y="-282" font-family="Helvetica,sans-Serif" font-size="10.00">gdict&#45;utils.c</text>
</a>
</g>
</g>
<!-- Node19&#45;&gt;Node21 -->
<g id="edge29_Node000019_Node000021" class="edge">
<title>Node19&#45;&gt;Node21</title>
<g id="a_edge29_Node000019_Node000021"><a xlink:title=" ">
<path fill="none" stroke="#63b8ff" d="M196.46,-322.8C186.71,-313.41 174.7,-301.83 166.66,-294.09"/>
<polygon fill="#63b8ff" stroke="#63b8ff" points="194.04,-325.33 203.67,-329.75 198.9,-320.29 194.04,-325.33"/>
</a>
</g>
</g>
<!-- Node22&#45;&gt;Node6 -->
<g id="edge33_Node000022_Node000006" class="edge">
<title>Node22&#45;&gt;Node6</title>
<g id="a_edge33_Node000022_Node000006"><a xlink:title=" ">
<path fill="none" stroke="#63b8ff" d="M888.84,-322.36C881.16,-314.19 872.05,-303.92 864.75,-294 842.08,-263.18 847.49,-247.37 820.75,-220 805.5,-204.39 783.75,-191.8 768.35,-184.04"/>
<polygon fill="#63b8ff" stroke="#63b8ff" points="886.48,-324.95 895.93,-329.74 891.53,-320.1 886.48,-324.95"/>
</a>
</g>
</g>
<!-- Node23 -->
<g id="Node000023" class="node">
<title>Node23</title>
<g id="a_Node000023"><a xlink:href="gdict-database-chooser_8c.html" target="_top" xlink:title=" ">
<polygon fill="white" stroke="#666666" points="1012.25,-294 873.25,-294 873.25,-275 1012.25,-275 1012.25,-294"/>
<text text-anchor="middle" x="942.75" y="-282" font-family="Helvetica,sans-Serif" font-size="10.00">gdict&#45;database&#45;chooser.c</text>
</a>
</g>
</g>
<!-- Node22&#45;&gt;Node23 -->
<g id="edge32_Node000022_Node000023" class="edge">
<title>Node22&#45;&gt;Node23</title>
<g id="a_edge32_Node000022_Node000023"><a xlink:title=" ">
<path fill="none" stroke="#63b8ff" d="M917.02,-321.39C923.56,-312.27 931.32,-301.45 936.59,-294.09"/>
<polygon fill="#63b8ff" stroke="#63b8ff" points="914.01,-319.58 911.03,-329.75 919.7,-323.66 914.01,-319.58"/>
</a>
</g>
</g>
<!-- Node24&#45;&gt;Node6 -->
<g id="edge40_Node000024_Node000006" class="edge">
<title>Node24&#45;&gt;Node6</title>
<g id="a_edge40_Node000024_Node000006"><a xlink:title=" ">
<path fill="none" stroke="#63b8ff" d="M277.75,-221.81C283.16,-221.18 288.56,-220.57 293.75,-220 457.82,-202.04 655.5,-183.96 724.52,-177.75"/>
<polygon fill="#63b8ff" stroke="#63b8ff" points="276.94,-218.39 267.42,-223.04 277.76,-225.34 276.94,-218.39"/>
</a>
</g>
</g>
<!-- Node25 -->
<g id="Node000025" class="node">
<title>Node25</title>
<g id="a_Node000025"><a xlink:href="gdict-defbox_8c.html" target="_top" xlink:title=" ">
<polygon fill="white" stroke="#666666" points="302.75,-184 216.75,-184 216.75,-165 302.75,-165 302.75,-184"/>
<text text-anchor="middle" x="259.75" y="-172" font-family="Helvetica,sans-Serif" font-size="10.00">gdict&#45;defbox.c</text>
</a>
</g>
</g>
<!-- Node24&#45;&gt;Node25 -->
<g id="edge35_Node000024_Node000025" class="edge">
<title>Node24&#45;&gt;Node25</title>
<g id="a_edge35_Node000024_Node000025"><a xlink:title=" ">
<path fill="none" stroke="#63b8ff" d="M235.37,-211.39C241.57,-202.27 248.92,-191.45 253.92,-184.09"/>
<polygon fill="#63b8ff" stroke="#63b8ff" points="232.42,-209.51 229.7,-219.75 238.21,-213.44 232.42,-209.51"/>
</a>
</g>
</g>
<!-- Node26 -->
<g id="Node000026" class="node">
<title>Node26</title>
<g id="a_Node000026"><a xlink:href="gdict-print_8h.html" target="_top" xlink:title=" ">
<polygon fill="white" stroke="#666666" points="459.75,-129 383.75,-129 383.75,-110 459.75,-110 459.75,-129"/>
<text text-anchor="middle" x="421.75" y="-117" font-family="Helvetica,sans-Serif" font-size="10.00">gdict&#45;print.h</text>
</a>
</g>
</g>
<!-- Node24&#45;&gt;Node26 -->
<g id="edge36_Node000024_Node000026" class="edge">
<title>Node24&#45;&gt;Node26</title>
<g id="a_edge36_Node000024_Node000026"><a xlink:title=" ">
<path fill="none" stroke="#63b8ff" d="M211.92,-211.07C204.13,-197.2 197.14,-178.04 207.75,-165 229.48,-138.29 327.97,-127.08 383.45,-122.83"/>
<polygon fill="#63b8ff" stroke="#63b8ff" points="209.01,-213.01 217.24,-219.67 214.96,-209.33 209.01,-213.01"/>
</a>
</g>
</g>
<!-- Node26&#45;&gt;Node11 -->
<g id="edge37_Node000026_Node000011" class="edge">
<title>Node26&#45;&gt;Node11</title>
<g id="a_edge37_Node000026_Node000011"><a xlink:title=" ">
<path fill="none" stroke="#63b8ff" d="M446.78,-104.97C464.69,-95.28 488.28,-82.52 503.72,-74.17"/>
<polygon fill="#63b8ff" stroke="#63b8ff" points="444.63,-102.15 437.5,-109.98 447.96,-108.31 444.63,-102.15"/>
</a>
</g>
</g>
<!-- Node26&#45;&gt;Node14 -->
<g id="edge38_Node000026_Node000014" class="edge">
<title>Node26&#45;&gt;Node14</title>
<g id="a_edge38_Node000026_Node000014"><a xlink:title=" ">
<path fill="none" stroke="#63b8ff" d="M421.75,-99.66C421.75,-90.93 421.75,-80.99 421.75,-74.09"/>
<polygon fill="#63b8ff" stroke="#63b8ff" points="418.25,-99.75 421.75,-109.75 425.25,-99.75 418.25,-99.75"/>
</a>
</g>
</g>
<!-- Node26&#45;&gt;Node15 -->
<g id="edge39_Node000026_Node000015" class="edge">
<title>Node26&#45;&gt;Node15</title>
<g id="a_edge39_Node000026_Node000015"><a xlink:title=" ">
<path fill="none" stroke="#63b8ff" d="M469.74,-107.99C515.15,-98.05 582.47,-83.3 624.69,-74.05"/>
<polygon fill="#63b8ff" stroke="#63b8ff" points="468.85,-104.6 459.83,-110.16 470.35,-111.44 468.85,-104.6"/>
</a>
</g>
</g>
<!-- Node27&#45;&gt;Node4 -->
<g id="edge43_Node000027_Node000004" class="edge">
<title>Node27&#45;&gt;Node4</title>
<g id="a_edge43_Node000027_Node000004"><a xlink:title=" ">
<path fill="none" stroke="#63b8ff" d="M588.13,-323.04C578.02,-313.64 565.47,-301.98 557.08,-294.17"/>
<polygon fill="#63b8ff" stroke="#63b8ff" points="585.89,-325.74 595.59,-329.98 590.65,-320.61 585.89,-325.74"/>
</a>
</g>
</g>
<!-- Node27&#45;&gt;Node5 -->
<g id="edge50_Node000027_Node000005" class="edge">
<title>Node27&#45;&gt;Node5</title>
<g id="a_edge50_Node000027_Node000005"><a xlink:title=" ">
<path fill="none" stroke="#63b8ff" d="M566.98,-326.93C534.67,-317.03 488.89,-303.01 459.76,-294.08"/>
<polygon fill="#63b8ff" stroke="#63b8ff" points="566.37,-330.4 576.96,-329.98 568.42,-323.71 566.37,-330.4"/>
</a>
</g>
</g>
<!-- Node27&#45;&gt;Node6 -->
<g id="edge51_Node000027_Node000006" class="edge">
<title>Node27&#45;&gt;Node6</title>
<g id="a_edge51_Node000027_Node000006"><a xlink:title=" ">
<path fill="none" stroke="#63b8ff" d="M658.19,-337.11C690.29,-333.16 728.85,-322.28 749.75,-294 774.7,-260.25 759.89,-205.04 752.84,-184"/>
<polygon fill="#63b8ff" stroke="#63b8ff" points="657.62,-333.65 648.03,-338.16 658.34,-340.61 657.62,-333.65"/>
</a>
</g>
</g>
<!-- Node28 -->
<g id="Node000028" class="node">
<title>Node28</title>
<g id="a_Node000028"><a xlink:href="gdict-source-loader_8h.html" target="_top" xlink:title=" ">
<polygon fill="white" stroke="#666666" points="740.25,-294 621.25,-294 621.25,-275 740.25,-275 740.25,-294"/>
<text text-anchor="middle" x="680.75" y="-282" font-family="Helvetica,sans-Serif" font-size="10.00">gdict&#45;source&#45;loader.h</text>
</a>
</g>
</g>
<!-- Node27&#45;&gt;Node28 -->
<g id="edge44_Node000027_Node000028" class="edge">
<title>Node27&#45;&gt;Node28</title>
<g id="a_edge44_Node000027_Node000028"><a xlink:title=" ">
<path fill="none" stroke="#63b8ff" d="M625.33,-324.15C639.06,-314.57 656.68,-302.29 668.32,-294.17"/>
<polygon fill="#63b8ff" stroke="#63b8ff" points="623.16,-321.39 616.96,-329.98 627.17,-327.14 623.16,-321.39"/>
</a>
</g>
</g>
<!-- Node28&#45;&gt;Node6 -->
<g id="edge49_Node000028_Node000006" class="edge">
<title>Node28&#45;&gt;Node6</title>
<g id="a_edge49_Node000028_Node000006"><a xlink:title=" ">
<path fill="none" stroke="#63b8ff" d="M693.07,-266.41C698.87,-258.21 705.81,-248.19 711.75,-239 724.17,-219.79 737.69,-196.6 744.78,-184.24"/>
<polygon fill="#63b8ff" stroke="#63b8ff" points="690.07,-264.58 687.11,-274.76 695.77,-268.65 690.07,-264.58"/>
</a>
</g>
</g>
<!-- Node29 -->
<g id="Node000029" class="node">
<title>Node29</title>
<g id="a_Node000029"><a xlink:href="gdict-source-chooser_8h.html" target="_top" xlink:title=" ">
<polygon fill="white" stroke="#666666" points="429.25,-239 302.25,-239 302.25,-220 429.25,-220 429.25,-239"/>
<text text-anchor="middle" x="365.75" y="-227" font-family="Helvetica,sans-Serif" font-size="10.00">gdict&#45;source&#45;chooser.h</text>
</a>
</g>
</g>
<!-- Node28&#45;&gt;Node29 -->
<g id="edge45_Node000028_Node000029" class="edge">
<title>Node28&#45;&gt;Node29</title>
<g id="a_edge45_Node000028_Node000029"><a xlink:title=" ">
<path fill="none" stroke="#63b8ff" d="M620.19,-273.31C561.04,-263.36 472.04,-248.38 416.5,-239.04"/>
<polygon fill="#63b8ff" stroke="#63b8ff" points="619.7,-276.78 630.14,-274.98 620.86,-269.87 619.7,-276.78"/>
</a>
</g>
</g>
<!-- Node31 -->
<g id="Node000031" class="node">
<title>Node31</title>
<g id="a_Node000031"><a xlink:href="gdict-source-loader_8c.html" target="_top" xlink:title=" ">
<polygon fill="white" stroke="#666666" points="702.25,-239 583.25,-239 583.25,-220 702.25,-220 702.25,-239"/>
<text text-anchor="middle" x="642.75" y="-227" font-family="Helvetica,sans-Serif" font-size="10.00">gdict&#45;source&#45;loader.c</text>
</a>
</g>
</g>
<!-- Node28&#45;&gt;Node31 -->
<g id="edge48_Node000028_Node000031" class="edge">
<title>Node28&#45;&gt;Node31</title>
<g id="a_edge48_Node000028_Node000031"><a xlink:title=" ">
<path fill="none" stroke="#63b8ff" d="M668.48,-266.39C661.94,-257.27 654.19,-246.45 648.91,-239.09"/>
<polygon fill="#63b8ff" stroke="#63b8ff" points="665.81,-268.66 674.48,-274.75 671.49,-264.58 665.81,-268.66"/>
</a>
</g>
</g>
<!-- Node29&#45;&gt;Node6 -->
<g id="edge47_Node000029_Node000006" class="edge">
<title>Node29&#45;&gt;Node6</title>
<g id="a_edge47_Node000029_Node000006"><a xlink:title=" ">
<path fill="none" stroke="#63b8ff" d="M437.54,-218.59C524.73,-206.56 667.28,-186.88 724.66,-178.96"/>
<polygon fill="#63b8ff" stroke="#63b8ff" points="436.88,-215.15 427.45,-219.98 437.83,-222.08 436.88,-215.15"/>
</a>
</g>
</g>
<!-- Node30 -->
<g id="Node000030" class="node">
<title>Node30</title>
<g id="a_Node000030"><a xlink:href="gdict-source-chooser_8c.html" target="_top" xlink:title=" ">
<polygon fill="white" stroke="#666666" points="446.75,-184 320.75,-184 320.75,-165 446.75,-165 446.75,-184"/>
<text text-anchor="middle" x="383.75" y="-172" font-family="Helvetica,sans-Serif" font-size="10.00">gdict&#45;source&#45;chooser.c</text>
</a>
</g>
</g>
<!-- Node29&#45;&gt;Node30 -->
<g id="edge46_Node000029_Node000030" class="edge">
<title>Node29&#45;&gt;Node30</title>
<g id="a_edge46_Node000029_Node000030"><a xlink:title=" ">
<path fill="none" stroke="#63b8ff" d="M371.95,-210.24C374.96,-201.37 378.44,-191.14 380.83,-184.09"/>
<polygon fill="#63b8ff" stroke="#63b8ff" points="368.63,-209.15 368.72,-219.75 375.25,-211.4 368.63,-209.15"/>
</a>
</g>
</g>
<!-- Node32&#45;&gt;Node6 -->
<g id="edge54_Node000032_Node000006" class="edge">
<title>Node32&#45;&gt;Node6</title>
<g id="a_edge54_Node000032_Node000006"><a xlink:title=" ">
<path fill="none" stroke="#63b8ff" d="M1039.59,-319.94C1037.78,-305.95 1033.21,-287.16 1021.75,-275 953.49,-202.52 828.11,-182.64 774.8,-177.35"/>
<polygon fill="#63b8ff" stroke="#63b8ff" points="1036.11,-320.29 1040.53,-329.91 1043.08,-319.63 1036.11,-320.29"/>
</a>
</g>
</g>
<!-- Node33 -->
<g id="Node000033" class="node">
<title>Node33</title>
<g id="a_Node000033"><a xlink:href="gdict-speller_8c.html" target="_top" xlink:title=" ">
<polygon fill="white" stroke="#666666" points="1154.25,-294 1069.25,-294 1069.25,-275 1154.25,-275 1154.25,-294"/>
<text text-anchor="middle" x="1111.75" y="-282" font-family="Helvetica,sans-Serif" font-size="10.00">gdict&#45;speller.c</text>
</a>
</g>
</g>
<!-- Node32&#45;&gt;Node33 -->
<g id="edge53_Node000032_Node000033" class="edge">
<title>Node32&#45;&gt;Node33</title>
<g id="a_edge53_Node000032_Node000033"><a xlink:title=" ">
<path fill="none" stroke="#63b8ff" d="M1060.34,-323.88C1073.12,-314.34 1089.36,-302.21 1100.14,-294.17"/>
<polygon fill="#63b8ff" stroke="#63b8ff" points="1058.08,-321.2 1052.16,-329.98 1062.27,-326.81 1058.08,-321.2"/>
</a>
</g>
</g>
<!-- Node34&#45;&gt;Node6 -->
<g id="edge57_Node000034_Node000006" class="edge">
<title>Node34&#45;&gt;Node6</title>
<g id="a_edge57_Node000034_Node000006"><a xlink:title=" ">
<path fill="none" stroke="#63b8ff" d="M1181.83,-319.71C1180.14,-305.6 1175.63,-286.75 1163.75,-275 1107.53,-219.36 856.01,-187.21 774.99,-178.16"/>
<polygon fill="#63b8ff" stroke="#63b8ff" points="1178.35,-320.11 1182.66,-329.79 1185.33,-319.54 1178.35,-320.11"/>
</a>
</g>
</g>
<!-- Node35 -->
<g id="Node000035" class="node">
<title>Node35</title>
<g id="a_Node000035"><a xlink:href="gdict-strategy-chooser_8c.html" target="_top" xlink:title=" ">
<polygon fill="white" stroke="#666666" points="1344.75,-294 1210.75,-294 1210.75,-275 1344.75,-275 1344.75,-294"/>
<text text-anchor="middle" x="1277.75" y="-282" font-family="Helvetica,sans-Serif" font-size="10.00">gdict&#45;strategy&#45;chooser.c</text>
</a>
</g>
</g>
<!-- Node34&#45;&gt;Node35 -->
<g id="edge56_Node000034_Node000035" class="edge">
<title>Node34&#45;&gt;Node35</title>
<g id="a_edge56_Node000034_Node000035"><a xlink:title=" ">
<path fill="none" stroke="#63b8ff" d="M1207.01,-324.97C1224.38,-315.28 1247.24,-302.52 1262.21,-294.17"/>
<polygon fill="#63b8ff" stroke="#63b8ff" points="1205.04,-322.06 1198.01,-329.98 1208.45,-328.17 1205.04,-322.06"/>
</a>
</g>
</g>
</g>
</svg>

<g id="navigator" transform="translate(0 0)" fill="#404254">
  <rect fill="#f2f5e9" fill-opacity="0.5" stroke="#606060" stroke-width=".5" x="0" y="0" width="60" height="60"/>
  <use id="zoomplus" xlink:href="#zoomPlus" x="17" y="9" onmousedown="handleZoom(evt,'in')"/>
  <use id="zoomminus" xlink:href="#zoomMin" x="42" y="9" onmousedown="handleZoom(evt,'out')"/>
  <use id="reset" xlink:href="#resetDef" x="30" y="36" onmousedown="handleReset()"/>
   <use id="arrowup" xlink:href="#arrowUp" x="0" y="0" onmousedown="handlePan(0,-1)"/>
  <use id="arrowright" xlink:href="#arrowRight" x="0" y="0" onmousedown="handlePan(1,0)"/>
  <use id="arrowdown" xlink:href="#arrowDown" x="0" y="0" onmousedown="handlePan(0,1)"/>
  <use id="arrowleft" xlink:href="#arrowLeft" x="0" y="0" onmousedown="handlePan(-1,0)"/>
</g>
<svg viewBox="0 0 15 15" width="100%" height="30px" preserveAspectRatio="xMaxYMin meet">
 <g id="arrow_out" transform="scale(0.3 0.3)">
  <a xlink:href="gdict-context_8h__dep__incl_org.svg" target="_base">
   <rect id="button" ry="5" rx="5" y="6" x="6" height="38" width="38"
        fill="#f2f5e9" fill-opacity="0.5" stroke="#606060" stroke-width="1.0"/>
   <path id="arrow"
     d="M 11.500037,31.436501 C 11.940474,20.09759 22.043105,11.32322 32.158766,21.979434 L 37.068811,17.246167 C 37.068811,17.246167 37.088388,32 37.088388,32 L 22.160133,31.978069 C 22.160133,31.978069 26.997745,27.140456 26.997745,27.140456 C 18.528582,18.264221 13.291696,25.230495 11.500037,31.436501 z"
     style="fill:#404040;"/>
  </a>
 </g>
</svg>

<style type='text/css'>
<![CDATA[
[data-mouse-over-selected='false'] { opacity: 0.7; }
[data-mouse-over-selected='true']  { opacity: 1.0; }
]]>
</style>
<script type="application/ecmascript"><![CDATA[
document.addEventListener('DOMContentLoaded', (event) => {
  highlightEdges();
  highlightAdjacentNodes();
});
]]></script>
</svg>
