<?xml version="1.0" encoding="UTF-8" standalone="no"?>
<!DOCTYPE svg PUBLIC "-//W3C//DTD SVG 1.1//EN"
 "http://www.w3.org/Graphics/SVG/1.1/DTD/svg11.dtd">
<!-- Generated by graphviz version 2.43.0 (0)
 -->
<!-- Title: gdict&#45;print.c Pages: 1 -->
<svg width="1517pt" height="412pt"
 viewBox="0.00 0.00 1517.00 412.00" xmlns="http://www.w3.org/2000/svg" xmlns:xlink="http://www.w3.org/1999/xlink">
<g id="graph0" class="graph" transform="scale(1 1) rotate(0) translate(4 408)">
<title>gdict&#45;print.c</title>
<!-- Node1 -->
<g id="Node000001" class="node">
<title>Node1</title>
<g id="a_Node000001"><a xlink:title=" ">
<polygon fill="#999999" stroke="#666666" points="368.5,-404 293.5,-404 293.5,-385 368.5,-385 368.5,-404"/>
<text text-anchor="middle" x="331" y="-392" font-family="Helvetica,sans-Serif" font-size="10.00">gdict&#45;print.c</text>
</a>
</g>
</g>
<!-- Node2 -->
<g id="Node000002" class="node">
<title>Node2</title>
<g id="a_Node000002"><a xlink:title=" ">
<polygon fill="#e0e0e0" stroke="#999999" points="50,-349 0,-349 0,-330 50,-330 50,-349"/>
<text text-anchor="middle" x="25" y="-337" font-family="Helvetica,sans-Serif" font-size="10.00">stdio.h</text>
</a>
</g>
</g>
<!-- Node1&#45;&gt;Node2 -->
<g id="edge1_Node000001_Node000002" class="edge">
<title>Node1&#45;&gt;Node2</title>
<g id="a_edge1_Node000001_Node000002"><a xlink:title=" ">
<path fill="none" stroke="#63b8ff" d="M293.42,-388.36C242.68,-381.19 149.25,-367.23 60.19,-349.1"/>
<polygon fill="#63b8ff" stroke="#63b8ff" points="60.7,-345.63 50.2,-347.05 59.29,-352.49 60.7,-345.63"/>
</a>
</g>
</g>
<!-- Node3 -->
<g id="Node000003" class="node">
<title>Node3</title>
<g id="a_Node000003"><a xlink:title=" ">
<polygon fill="#e0e0e0" stroke="#999999" points="121.5,-349 68.5,-349 68.5,-330 121.5,-330 121.5,-349"/>
<text text-anchor="middle" x="95" y="-337" font-family="Helvetica,sans-Serif" font-size="10.00">string.h</text>
</a>
</g>
</g>
<!-- Node1&#45;&gt;Node3 -->
<g id="edge2_Node000001_Node000003" class="edge">
<title>Node1&#45;&gt;Node3</title>
<g id="a_edge2_Node000001_Node000003"><a xlink:title=" ">
<path fill="none" stroke="#63b8ff" d="M293.16,-385.36C254.77,-377.06 193.38,-363.62 131.65,-349.35"/>
<polygon fill="#63b8ff" stroke="#63b8ff" points="132.27,-345.9 121.74,-347.05 130.69,-352.72 132.27,-345.9"/>
</a>
</g>
</g>
<!-- Node4 -->
<g id="Node000004" class="node">
<title>Node4</title>
<g id="a_Node000004"><a xlink:title=" ">
<polygon fill="#e0e0e0" stroke="#999999" points="190.5,-349 139.5,-349 139.5,-330 190.5,-330 190.5,-349"/>
<text text-anchor="middle" x="165" y="-337" font-family="Helvetica,sans-Serif" font-size="10.00">math.h</text>
</a>
</g>
</g>
<!-- Node1&#45;&gt;Node4 -->
<g id="edge3_Node000001_Node000004" class="edge">
<title>Node1&#45;&gt;Node4</title>
<g id="a_edge3_Node000001_Node000004"><a xlink:title=" ">
<path fill="none" stroke="#63b8ff" d="M304.33,-384.98C276.05,-375.95 231.24,-361.65 200.1,-351.71"/>
<polygon fill="#63b8ff" stroke="#63b8ff" points="201.1,-348.35 190.51,-348.65 198.98,-355.02 201.1,-348.35"/>
</a>
</g>
</g>
<!-- Node5 -->
<g id="Node000005" class="node">
<title>Node5</title>
<g id="a_Node000005"><a xlink:title=" ">
<polygon fill="#e0e0e0" stroke="#999999" points="283,-349 209,-349 209,-330 283,-330 283,-349"/>
<text text-anchor="middle" x="246" y="-337" font-family="Helvetica,sans-Serif" font-size="10.00">glib/gi18n.h</text>
</a>
</g>
</g>
<!-- Node1&#45;&gt;Node5 -->
<g id="edge4_Node000001_Node000005" class="edge">
<title>Node1&#45;&gt;Node5</title>
<g id="a_edge4_Node000001_Node000005"><a xlink:title=" ">
<path fill="none" stroke="#63b8ff" d="M317.34,-384.98C304.16,-376.77 283.97,-364.18 268.43,-354.49"/>
<polygon fill="#63b8ff" stroke="#63b8ff" points="270.24,-351.49 259.91,-349.17 266.54,-357.43 270.24,-351.49"/>
</a>
</g>
</g>
<!-- Node6 -->
<g id="Node000006" class="node">
<title>Node6</title>
<g id="a_Node000006"><a xlink:title=" ">
<polygon fill="#e0e0e0" stroke="#999999" points="360.5,-349 301.5,-349 301.5,-330 360.5,-330 360.5,-349"/>
<text text-anchor="middle" x="331" y="-337" font-family="Helvetica,sans-Serif" font-size="10.00">gio/gio.h</text>
</a>
</g>
</g>
<!-- Node1&#45;&gt;Node6 -->
<g id="edge5_Node000001_Node000006" class="edge">
<title>Node1&#45;&gt;Node6</title>
<g id="a_edge5_Node000001_Node000006"><a xlink:title=" ">
<path fill="none" stroke="#63b8ff" d="M331,-384.75C331,-377.8 331,-367.85 331,-359.13"/>
<polygon fill="#63b8ff" stroke="#63b8ff" points="334.5,-359.09 331,-349.09 327.5,-359.09 334.5,-359.09"/>
</a>
</g>
</g>
<!-- Node7 -->
<g id="Node000007" class="node">
<title>Node7</title>
<g id="a_Node000007"><a xlink:title=" ">
<polygon fill="#e0e0e0" stroke="#999999" points="784,-184 724,-184 724,-165 784,-165 784,-184"/>
<text text-anchor="middle" x="754" y="-172" font-family="Helvetica,sans-Serif" font-size="10.00">gtk/gtk.h</text>
</a>
</g>
</g>
<!-- Node1&#45;&gt;Node7 -->
<g id="edge6_Node000001_Node000007" class="edge">
<title>Node1&#45;&gt;Node7</title>
<g id="a_edge6_Node000001_Node000007"><a xlink:title=" ">
<path fill="none" stroke="#63b8ff" d="M339.48,-384.77C347.63,-376.12 359.99,-362.28 369,-349 409.11,-289.85 400.97,-251.74 465,-220 507.94,-198.72 644.74,-184.62 713.6,-178.69"/>
<polygon fill="#63b8ff" stroke="#63b8ff" points="713.97,-182.17 723.64,-177.84 713.38,-175.19 713.97,-182.17"/>
</a>
</g>
</g>
<!-- Node8 -->
<g id="Node000008" class="node">
<title>Node8</title>
<g id="a_Node000008"><a xlink:href="gdict_8h.html" target="_top" xlink:title=" ">
<polygon fill="white" stroke="#666666" points="961.5,-294 872.5,-294 872.5,-275 961.5,-275 961.5,-294"/>
<text text-anchor="middle" x="917" y="-282" font-family="Helvetica,sans-Serif" font-size="10.00">libgdict/gdict.h</text>
</a>
</g>
</g>
<!-- Node1&#45;&gt;Node8 -->
<g id="edge7_Node000001_Node000008" class="edge">
<title>Node1&#45;&gt;Node8</title>
<g id="a_edge7_Node000001_Node000008"><a xlink:title=" ">
<path fill="none" stroke="#63b8ff" d="M368.75,-392.3C467.8,-388.81 733.21,-377.02 816,-349 847.81,-338.23 879.85,-315.63 899.06,-300.5"/>
<polygon fill="#63b8ff" stroke="#63b8ff" points="901.35,-303.15 906.94,-294.15 896.96,-297.7 901.35,-303.15"/>
</a>
</g>
</g>
<!-- Node24 -->
<g id="Node000024" class="node">
<title>Node24</title>
<g id="a_Node000024"><a xlink:href="gdict-pref-dialog_8h.html" target="_top" xlink:title=" ">
<polygon fill="white" stroke="#666666" points="807,-349 701,-349 701,-330 807,-330 807,-349"/>
<text text-anchor="middle" x="754" y="-337" font-family="Helvetica,sans-Serif" font-size="10.00">gdict&#45;pref&#45;dialog.h</text>
</a>
</g>
</g>
<!-- Node1&#45;&gt;Node24 -->
<g id="edge41_Node000001_Node000024" class="edge">
<title>Node1&#45;&gt;Node24</title>
<g id="a_edge41_Node000001_Node000024"><a xlink:title=" ">
<path fill="none" stroke="#63b8ff" d="M368.54,-388.8C441.16,-379.7 601.57,-359.6 690.87,-348.41"/>
<polygon fill="#63b8ff" stroke="#63b8ff" points="691.38,-351.87 700.87,-347.16 690.51,-344.93 691.38,-351.87"/>
</a>
</g>
</g>
<!-- Node25 -->
<g id="Node000025" class="node">
<title>Node25</title>
<g id="a_Node000025"><a xlink:href="gdict-print_8h.html" target="_top" xlink:title=" ">
<polygon fill="white" stroke="#666666" points="493,-294 417,-294 417,-275 493,-275 493,-294"/>
<text text-anchor="middle" x="455" y="-282" font-family="Helvetica,sans-Serif" font-size="10.00">gdict&#45;print.h</text>
</a>
</g>
</g>
<!-- Node1&#45;&gt;Node25 -->
<g id="edge44_Node000001_Node000025" class="edge">
<title>Node1&#45;&gt;Node25</title>
<g id="a_edge44_Node000001_Node000025"><a xlink:title=" ">
<path fill="none" stroke="#63b8ff" d="M348.37,-384.88C363.67,-376.81 386.08,-363.81 403,-349 418.85,-335.12 433.74,-316.09 443.49,-302.49"/>
<polygon fill="#63b8ff" stroke="#63b8ff" points="446.51,-304.27 449.37,-294.07 440.77,-300.26 446.51,-304.27"/>
</a>
</g>
</g>
<!-- Node9 -->
<g id="Node000009" class="node">
<title>Node9</title>
<g id="a_Node000009"><a xlink:href="gdict-context_8h.html" target="_top" xlink:title=" ">
<polygon fill="white" stroke="#666666" points="1028,-74 938,-74 938,-55 1028,-55 1028,-74"/>
<text text-anchor="middle" x="983" y="-62" font-family="Helvetica,sans-Serif" font-size="10.00">gdict&#45;context.h</text>
</a>
</g>
</g>
<!-- Node8&#45;&gt;Node9 -->
<g id="edge8_Node000008_Node000009" class="edge">
<title>Node8&#45;&gt;Node9</title>
<g id="a_edge8_Node000008_Node000009"><a xlink:title=" ">
<path fill="none" stroke="#63b8ff" d="M961.81,-281.85C1061.65,-277.7 1295.49,-265.25 1319,-239 1365.92,-186.6 1451.5,-240.52 1225,-110 1167.35,-76.78 1090.26,-67.51 1038.73,-65.34"/>
<polygon fill="#63b8ff" stroke="#63b8ff" points="1038.57,-61.84 1028.46,-64.99 1038.33,-68.83 1038.57,-61.84"/>
</a>
</g>
</g>
<!-- Node11 -->
<g id="Node000011" class="node">
<title>Node11</title>
<g id="a_Node000011"><a xlink:href="gdict-client-context_8h.html" target="_top" xlink:title=" ">
<polygon fill="white" stroke="#666666" points="1215.5,-129 1094.5,-129 1094.5,-110 1215.5,-110 1215.5,-129"/>
<text text-anchor="middle" x="1155" y="-117" font-family="Helvetica,sans-Serif" font-size="10.00">gdict&#45;client&#45;context.h</text>
</a>
</g>
</g>
<!-- Node8&#45;&gt;Node11 -->
<g id="edge10_Node000008_Node000011" class="edge">
<title>Node8&#45;&gt;Node11</title>
<g id="a_edge10_Node000008_Node000011"><a xlink:title=" ">
<path fill="none" stroke="#63b8ff" d="M961.55,-282.91C1031.06,-280.95 1160.34,-272.73 1189,-239 1214.18,-209.37 1186.49,-162.11 1168.3,-137.17"/>
<polygon fill="#63b8ff" stroke="#63b8ff" points="1170.98,-134.91 1162.14,-129.06 1165.4,-139.14 1170.98,-134.91"/>
</a>
</g>
</g>
<!-- Node12 -->
<g id="Node000012" class="node">
<title>Node12</title>
<g id="a_Node000012"><a xlink:href="gdict-source_8h.html" target="_top" xlink:title=" ">
<polygon fill="white" stroke="#666666" points="565,-129 479,-129 479,-110 565,-110 565,-129"/>
<text text-anchor="middle" x="522" y="-117" font-family="Helvetica,sans-Serif" font-size="10.00">gdict&#45;source.h</text>
</a>
</g>
</g>
<!-- Node8&#45;&gt;Node12 -->
<g id="edge12_Node000008_Node000012" class="edge">
<title>Node8&#45;&gt;Node12</title>
<g id="a_edge12_Node000008_Node000012"><a xlink:title=" ">
<path fill="none" stroke="#63b8ff" d="M872.31,-282.23C766.91,-278.77 509.7,-267.47 484,-239 457.59,-209.73 488.14,-161.98 507.86,-136.96"/>
<polygon fill="#63b8ff" stroke="#63b8ff" points="510.65,-139.09 514.28,-129.13 505.23,-134.65 510.65,-139.09"/>
</a>
</g>
</g>
<!-- Node14 -->
<g id="Node000014" class="node">
<title>Node14</title>
<g id="a_Node000014"><a xlink:href="gdict-source-loader_8h.html" target="_top" xlink:title=" ">
<polygon fill="white" stroke="#666666" points="436.5,-184 317.5,-184 317.5,-165 436.5,-165 436.5,-184"/>
<text text-anchor="middle" x="377" y="-172" font-family="Helvetica,sans-Serif" font-size="10.00">gdict&#45;source&#45;loader.h</text>
</a>
</g>
</g>
<!-- Node8&#45;&gt;Node14 -->
<g id="edge16_Node000008_Node000014" class="edge">
<title>Node8&#45;&gt;Node14</title>
<g id="a_edge16_Node000008_Node000014"><a xlink:title=" ">
<path fill="none" stroke="#63b8ff" d="M872.5,-282.66C771.18,-280.19 526.25,-271.01 451,-239 426.55,-228.6 404.27,-207.09 390.68,-191.99"/>
<polygon fill="#63b8ff" stroke="#63b8ff" points="393.27,-189.64 384.07,-184.38 387.99,-194.23 393.27,-189.64"/>
</a>
</g>
</g>
<!-- Node15 -->
<g id="Node000015" class="node">
<title>Node15</title>
<g id="a_Node000015"><a xlink:href="gdict-source-chooser_8h.html" target="_top" xlink:title=" ">
<polygon fill="white" stroke="#666666" points="725.5,-239 598.5,-239 598.5,-220 725.5,-220 725.5,-239"/>
<text text-anchor="middle" x="662" y="-227" font-family="Helvetica,sans-Serif" font-size="10.00">gdict&#45;source&#45;chooser.h</text>
</a>
</g>
</g>
<!-- Node8&#45;&gt;Node15 -->
<g id="edge19_Node000008_Node000015" class="edge">
<title>Node8&#45;&gt;Node15</title>
<g id="a_edge19_Node000008_Node000015"><a xlink:title=" ">
<path fill="none" stroke="#63b8ff" d="M876.03,-274.98C831.74,-265.78 761.06,-251.09 713.15,-241.13"/>
<polygon fill="#63b8ff" stroke="#63b8ff" points="713.79,-237.69 703.29,-239.08 712.37,-244.54 713.79,-237.69"/>
</a>
</g>
</g>
<!-- Node16 -->
<g id="Node000016" class="node">
<title>Node16</title>
<g id="a_Node000016"><a xlink:href="gdict-database-chooser_8h.html" target="_top" xlink:title=" ">
<polygon fill="white" stroke="#666666" points="922,-239 782,-239 782,-220 922,-220 922,-239"/>
<text text-anchor="middle" x="852" y="-227" font-family="Helvetica,sans-Serif" font-size="10.00">gdict&#45;database&#45;chooser.h</text>
</a>
</g>
</g>
<!-- Node8&#45;&gt;Node16 -->
<g id="edge22_Node000008_Node000016" class="edge">
<title>Node8&#45;&gt;Node16</title>
<g id="a_edge22_Node000008_Node000016"><a xlink:title=" ">
<path fill="none" stroke="#63b8ff" d="M906.56,-274.98C896.85,-267.07 882.18,-255.11 870.5,-245.58"/>
<polygon fill="#63b8ff" stroke="#63b8ff" points="872.6,-242.78 862.63,-239.17 868.17,-248.2 872.6,-242.78"/>
</a>
</g>
</g>
<!-- Node17 -->
<g id="Node000017" class="node">
<title>Node17</title>
<g id="a_Node000017"><a xlink:href="gdict-defbox_8h.html" target="_top" xlink:title=" ">
<polygon fill="white" stroke="#666666" points="580.5,-239 493.5,-239 493.5,-220 580.5,-220 580.5,-239"/>
<text text-anchor="middle" x="537" y="-227" font-family="Helvetica,sans-Serif" font-size="10.00">gdict&#45;defbox.h</text>
</a>
</g>
</g>
<!-- Node8&#45;&gt;Node17 -->
<g id="edge25_Node000008_Node000017" class="edge">
<title>Node8&#45;&gt;Node17</title>
<g id="a_edge25_Node000008_Node000017"><a xlink:title=" ">
<path fill="none" stroke="#63b8ff" d="M872.38,-277.84C811.13,-269.98 697.32,-255.07 590.65,-239.22"/>
<polygon fill="#63b8ff" stroke="#63b8ff" points="591.09,-235.74 580.68,-237.73 590.05,-242.67 591.09,-235.74"/>
</a>
</g>
</g>
<!-- Node18 -->
<g id="Node000018" class="node">
<title>Node18</title>
<g id="a_Node000018"><a xlink:href="gdict-speller_8h.html" target="_top" xlink:title=" ">
<polygon fill="white" stroke="#666666" points="1026,-239 940,-239 940,-220 1026,-220 1026,-239"/>
<text text-anchor="middle" x="983" y="-227" font-family="Helvetica,sans-Serif" font-size="10.00">gdict&#45;speller.h</text>
</a>
</g>
</g>
<!-- Node8&#45;&gt;Node18 -->
<g id="edge28_Node000008_Node000018" class="edge">
<title>Node8&#45;&gt;Node18</title>
<g id="a_edge28_Node000008_Node000018"><a xlink:title=" ">
<path fill="none" stroke="#63b8ff" d="M927.6,-274.98C937.46,-267.07 952.35,-255.11 964.22,-245.58"/>
<polygon fill="#63b8ff" stroke="#63b8ff" points="966.6,-248.16 972.2,-239.17 962.21,-242.7 966.6,-248.16"/>
</a>
</g>
</g>
<!-- Node19 -->
<g id="Node000019" class="node">
<title>Node19</title>
<g id="a_Node000019"><a xlink:href="gdict-strategy-chooser_8h.html" target="_top" xlink:title=" ">
<polygon fill="white" stroke="#666666" points="1179.5,-239 1044.5,-239 1044.5,-220 1179.5,-220 1179.5,-239"/>
<text text-anchor="middle" x="1112" y="-227" font-family="Helvetica,sans-Serif" font-size="10.00">gdict&#45;strategy&#45;chooser.h</text>
</a>
</g>
</g>
<!-- Node8&#45;&gt;Node19 -->
<g id="edge31_Node000008_Node000019" class="edge">
<title>Node8&#45;&gt;Node19</title>
<g id="a_edge31_Node000008_Node000019"><a xlink:title=" ">
<path fill="none" stroke="#63b8ff" d="M948.33,-274.98C981.49,-265.97 1034,-251.7 1070.56,-241.76"/>
<polygon fill="#63b8ff" stroke="#63b8ff" points="1071.69,-245.08 1080.42,-239.08 1069.86,-238.33 1071.69,-245.08"/>
</a>
</g>
</g>
<!-- Node20 -->
<g id="Node000020" class="node">
<title>Node20</title>
<g id="a_Node000020"><a xlink:href="gdict-utils_8h.html" target="_top" xlink:title=" ">
<polygon fill="white" stroke="#666666" points="1310,-239 1236,-239 1236,-220 1310,-220 1310,-239"/>
<text text-anchor="middle" x="1273" y="-227" font-family="Helvetica,sans-Serif" font-size="10.00">gdict&#45;utils.h</text>
</a>
</g>
</g>
<!-- Node8&#45;&gt;Node20 -->
<g id="edge34_Node000008_Node000020" class="edge">
<title>Node8&#45;&gt;Node20</title>
<g id="a_edge34_Node000008_Node000020"><a xlink:title=" ">
<path fill="none" stroke="#63b8ff" d="M961.75,-277.26C1021.23,-268.9 1129.61,-253.44 1222,-239 1223.27,-238.8 1224.56,-238.6 1225.86,-238.39"/>
<polygon fill="#63b8ff" stroke="#63b8ff" points="1226.65,-241.81 1235.97,-236.76 1225.54,-234.9 1226.65,-241.81"/>
</a>
</g>
</g>
<!-- Node21 -->
<g id="Node000021" class="node">
<title>Node21</title>
<g id="a_Node000021"><a xlink:href="gdict-enum-types_8h.html" target="_top" xlink:title=" ">
<polygon fill="white" stroke="#666666" points="1509,-129 1397,-129 1397,-110 1509,-110 1509,-129"/>
<text text-anchor="middle" x="1453" y="-117" font-family="Helvetica,sans-Serif" font-size="10.00">gdict&#45;enum&#45;types.h</text>
</a>
</g>
</g>
<!-- Node8&#45;&gt;Node21 -->
<g id="edge37_Node000008_Node000021" class="edge">
<title>Node8&#45;&gt;Node21</title>
<g id="a_edge37_Node000008_Node000021"><a xlink:title=" ">
<path fill="none" stroke="#63b8ff" d="M961.76,-283.26C1086.51,-282.14 1431.15,-275.71 1465,-239 1490.26,-211.61 1474.02,-164.08 1462.18,-138.32"/>
<polygon fill="#63b8ff" stroke="#63b8ff" points="1465.18,-136.49 1457.66,-129.02 1458.89,-139.55 1465.18,-136.49"/>
</a>
</g>
</g>
<!-- Node22 -->
<g id="Node000022" class="node">
<title>Node22</title>
<g id="a_Node000022"><a xlink:href="gdict-version_8h.html" target="_top" xlink:title=" ">
<polygon fill="white" stroke="#666666" points="1455.5,-239 1366.5,-239 1366.5,-220 1455.5,-220 1455.5,-239"/>
<text text-anchor="middle" x="1411" y="-227" font-family="Helvetica,sans-Serif" font-size="10.00">gdict&#45;version.h</text>
</a>
</g>
</g>
<!-- Node8&#45;&gt;Node22 -->
<g id="edge39_Node000008_Node000022" class="edge">
<title>Node8&#45;&gt;Node22</title>
<g id="a_edge39_Node000008_Node000022"><a xlink:title=" ">
<path fill="none" stroke="#63b8ff" d="M961.53,-279.55C1040.36,-272.43 1209.6,-256.53 1352,-239 1353.3,-238.84 1354.62,-238.67 1355.94,-238.51"/>
<polygon fill="#63b8ff" stroke="#63b8ff" points="1356.79,-241.92 1366.25,-237.14 1355.88,-234.98 1356.79,-241.92"/>
</a>
</g>
</g>
<!-- Node10 -->
<g id="Node000010" class="node">
<title>Node10</title>
<g id="a_Node000010"><a xlink:title=" ">
<polygon fill="#e0e0e0" stroke="#999999" points="1021.5,-19 944.5,-19 944.5,0 1021.5,0 1021.5,-19"/>
<text text-anchor="middle" x="983" y="-7" font-family="Helvetica,sans-Serif" font-size="10.00">glib&#45;object.h</text>
</a>
</g>
</g>
<!-- Node9&#45;&gt;Node10 -->
<g id="edge9_Node000009_Node000010" class="edge">
<title>Node9&#45;&gt;Node10</title>
<g id="a_edge9_Node000009_Node000010"><a xlink:title=" ">
<path fill="none" stroke="#63b8ff" d="M983,-54.75C983,-47.8 983,-37.85 983,-29.13"/>
<polygon fill="#63b8ff" stroke="#63b8ff" points="986.5,-29.09 983,-19.09 979.5,-29.09 986.5,-29.09"/>
</a>
</g>
</g>
<!-- Node11&#45;&gt;Node9 -->
<g id="edge11_Node000011_Node000009" class="edge">
<title>Node11&#45;&gt;Node9</title>
<g id="a_edge11_Node000011_Node000009"><a xlink:title=" ">
<path fill="none" stroke="#63b8ff" d="M1127.37,-109.98C1098.49,-101.09 1052.99,-87.07 1020.8,-77.15"/>
<polygon fill="#63b8ff" stroke="#63b8ff" points="1021.44,-73.68 1010.85,-74.08 1019.38,-80.37 1021.44,-73.68"/>
</a>
</g>
</g>
<!-- Node12&#45;&gt;Node9 -->
<g id="edge15_Node000012_Node000009" class="edge">
<title>Node12&#45;&gt;Node9</title>
<g id="a_edge15_Node000012_Node000009"><a xlink:title=" ">
<path fill="none" stroke="#63b8ff" d="M565.37,-113.51C649.52,-103.84 834.81,-82.54 927.67,-71.86"/>
<polygon fill="#63b8ff" stroke="#63b8ff" points="928.18,-75.33 937.71,-70.71 927.38,-68.37 928.18,-75.33"/>
</a>
</g>
</g>
<!-- Node12&#45;&gt;Node10 -->
<g id="edge14_Node000012_Node000010" class="edge">
<title>Node12&#45;&gt;Node10</title>
<g id="a_edge14_Node000012_Node000010"><a xlink:title=" ">
<path fill="none" stroke="#63b8ff" d="M521.78,-109.91C521.94,-95.97 524.5,-68.63 541,-55 570.85,-30.35 825.75,-16.99 934.33,-12.38"/>
<polygon fill="#63b8ff" stroke="#63b8ff" points="934.53,-15.87 944.37,-11.96 934.23,-8.88 934.53,-15.87"/>
</a>
</g>
</g>
<!-- Node13 -->
<g id="Node000013" class="node">
<title>Node13</title>
<g id="a_Node000013"><a xlink:title=" ">
<polygon fill="#e0e0e0" stroke="#999999" points="606,-74 550,-74 550,-55 606,-55 606,-74"/>
<text text-anchor="middle" x="578" y="-62" font-family="Helvetica,sans-Serif" font-size="10.00">stdarg.h</text>
</a>
</g>
</g>
<!-- Node12&#45;&gt;Node13 -->
<g id="edge13_Node000012_Node000013" class="edge">
<title>Node12&#45;&gt;Node13</title>
<g id="a_edge13_Node000012_Node000013"><a xlink:title=" ">
<path fill="none" stroke="#63b8ff" d="M531,-109.98C539.19,-102.23 551.51,-90.58 561.47,-81.14"/>
<polygon fill="#63b8ff" stroke="#63b8ff" points="563.98,-83.59 568.84,-74.17 559.17,-78.5 563.98,-83.59"/>
</a>
</g>
</g>
<!-- Node14&#45;&gt;Node10 -->
<g id="edge17_Node000014_Node000010" class="edge">
<title>Node14&#45;&gt;Node10</title>
<g id="a_edge17_Node000014_Node000010"><a xlink:title=" ">
<path fill="none" stroke="#63b8ff" d="M384.25,-164.96C404.07,-142.3 461.88,-80.65 525,-55 598.25,-25.23 832.06,-14.89 934.33,-11.73"/>
<polygon fill="#63b8ff" stroke="#63b8ff" points="934.5,-15.23 944.39,-11.43 934.29,-8.23 934.5,-15.23"/>
</a>
</g>
</g>
<!-- Node14&#45;&gt;Node12 -->
<g id="edge18_Node000014_Node000012" class="edge">
<title>Node14&#45;&gt;Node12</title>
<g id="a_edge18_Node000014_Node000012"><a xlink:title=" ">
<path fill="none" stroke="#63b8ff" d="M400.3,-164.98C424.25,-156.23 461.78,-142.51 488.83,-132.62"/>
<polygon fill="#63b8ff" stroke="#63b8ff" points="490.09,-135.89 498.28,-129.17 487.69,-129.32 490.09,-135.89"/>
</a>
</g>
</g>
<!-- Node15&#45;&gt;Node7 -->
<g id="edge20_Node000015_Node000007" class="edge">
<title>Node15&#45;&gt;Node7</title>
<g id="a_edge20_Node000015_Node000007"><a xlink:title=" ">
<path fill="none" stroke="#63b8ff" d="M676.78,-219.98C691.18,-211.69 713.31,-198.94 730.19,-189.22"/>
<polygon fill="#63b8ff" stroke="#63b8ff" points="732.03,-192.19 738.95,-184.17 728.54,-186.13 732.03,-192.19"/>
</a>
</g>
</g>
<!-- Node15&#45;&gt;Node14 -->
<g id="edge21_Node000015_Node000014" class="edge">
<title>Node15&#45;&gt;Node14</title>
<g id="a_edge21_Node000015_Node000014"><a xlink:title=" ">
<path fill="none" stroke="#63b8ff" d="M616.21,-219.98C566.39,-210.72 486.72,-195.9 433.16,-185.94"/>
<polygon fill="#63b8ff" stroke="#63b8ff" points="433.62,-182.47 423.15,-184.08 432.34,-189.35 433.62,-182.47"/>
</a>
</g>
</g>
<!-- Node16&#45;&gt;Node7 -->
<g id="edge23_Node000016_Node000007" class="edge">
<title>Node16&#45;&gt;Node7</title>
<g id="a_edge23_Node000016_Node000007"><a xlink:title=" ">
<path fill="none" stroke="#63b8ff" d="M836.25,-219.98C820.77,-211.61 796.91,-198.7 778.86,-188.95"/>
<polygon fill="#63b8ff" stroke="#63b8ff" points="780.49,-185.85 770.03,-184.17 777.16,-192.01 780.49,-185.85"/>
</a>
</g>
</g>
<!-- Node16&#45;&gt;Node9 -->
<g id="edge24_Node000016_Node000009" class="edge">
<title>Node16&#45;&gt;Node9</title>
<g id="a_edge24_Node000016_Node000009"><a xlink:title=" ">
<path fill="none" stroke="#63b8ff" d="M859.04,-219.74C879.92,-193.76 941.75,-116.83 969.39,-82.44"/>
<polygon fill="#63b8ff" stroke="#63b8ff" points="972.39,-84.29 975.92,-74.31 966.93,-79.91 972.39,-84.29"/>
</a>
</g>
</g>
<!-- Node17&#45;&gt;Node7 -->
<g id="edge26_Node000017_Node000007" class="edge">
<title>Node17&#45;&gt;Node7</title>
<g id="a_edge26_Node000017_Node000007"><a xlink:title=" ">
<path fill="none" stroke="#63b8ff" d="M571.86,-219.98C610.63,-210.52 673.14,-195.25 713.91,-185.29"/>
<polygon fill="#63b8ff" stroke="#63b8ff" points="714.89,-188.66 723.77,-182.88 713.23,-181.86 714.89,-188.66"/>
</a>
</g>
</g>
<!-- Node17&#45;&gt;Node9 -->
<g id="edge27_Node000017_Node000009" class="edge">
<title>Node17&#45;&gt;Node9</title>
<g id="a_edge27_Node000017_Node000009"><a xlink:title=" ">
<path fill="none" stroke="#63b8ff" d="M560.35,-219.97C634.4,-192.9 864.14,-108.94 950.1,-77.53"/>
<polygon fill="#63b8ff" stroke="#63b8ff" points="951.42,-80.77 959.61,-74.05 949.02,-74.19 951.42,-80.77"/>
</a>
</g>
</g>
<!-- Node18&#45;&gt;Node7 -->
<g id="edge29_Node000018_Node000007" class="edge">
<title>Node18&#45;&gt;Node7</title>
<g id="a_edge29_Node000018_Node000007"><a xlink:title=" ">
<path fill="none" stroke="#63b8ff" d="M946.21,-219.98C904.54,-210.34 836.87,-194.68 793.94,-184.74"/>
<polygon fill="#63b8ff" stroke="#63b8ff" points="794.65,-181.32 784.12,-182.47 793.07,-188.14 794.65,-181.32"/>
</a>
</g>
</g>
<!-- Node18&#45;&gt;Node9 -->
<g id="edge30_Node000018_Node000009" class="edge">
<title>Node18&#45;&gt;Node9</title>
<g id="a_edge30_Node000018_Node000009"><a xlink:title=" ">
<path fill="none" stroke="#63b8ff" d="M983,-219.74C983,-194.31 983,-120.08 983,-84.69"/>
<polygon fill="#63b8ff" stroke="#63b8ff" points="986.5,-84.31 983,-74.31 979.5,-84.31 986.5,-84.31"/>
</a>
</g>
</g>
<!-- Node19&#45;&gt;Node7 -->
<g id="edge32_Node000019_Node000007" class="edge">
<title>Node19&#45;&gt;Node7</title>
<g id="a_edge32_Node000019_Node000007"><a xlink:title=" ">
<path fill="none" stroke="#63b8ff" d="M1054.48,-219.98C981.65,-209.2 858.01,-190.9 794.42,-181.48"/>
<polygon fill="#63b8ff" stroke="#63b8ff" points="794.79,-178 784.38,-180 793.76,-184.92 794.79,-178"/>
</a>
</g>
</g>
<!-- Node19&#45;&gt;Node9 -->
<g id="edge33_Node000019_Node000009" class="edge">
<title>Node19&#45;&gt;Node9</title>
<g id="a_edge33_Node000019_Node000009"><a xlink:title=" ">
<path fill="none" stroke="#63b8ff" d="M1105.06,-219.74C1084.5,-193.76 1023.62,-116.83 996.41,-82.44"/>
<polygon fill="#63b8ff" stroke="#63b8ff" points="998.92,-79.98 989.97,-74.31 993.43,-84.32 998.92,-79.98"/>
</a>
</g>
</g>
<!-- Node20&#45;&gt;Node7 -->
<g id="edge36_Node000020_Node000007" class="edge">
<title>Node20&#45;&gt;Node7</title>
<g id="a_edge36_Node000020_Node000007"><a xlink:title=" ">
<path fill="none" stroke="#63b8ff" d="M1235.67,-224.69C1140.93,-215.01 891.71,-189.56 794.06,-179.59"/>
<polygon fill="#63b8ff" stroke="#63b8ff" points="794.31,-176.1 784.01,-178.56 793.6,-183.06 794.31,-176.1"/>
</a>
</g>
</g>
<!-- Node20&#45;&gt;Node10 -->
<g id="edge35_Node000020_Node000010" class="edge">
<title>Node20&#45;&gt;Node10</title>
<g id="a_edge35_Node000020_Node000010"><a xlink:title=" ">
<path fill="none" stroke="#63b8ff" d="M1271.82,-219.79C1268.45,-198.29 1256.93,-142.1 1225,-110 1171.73,-56.45 1085.56,-30.49 1031.71,-18.86"/>
<polygon fill="#63b8ff" stroke="#63b8ff" points="1032.22,-15.4 1021.71,-16.79 1030.79,-22.25 1032.22,-15.4"/>
</a>
</g>
</g>
<!-- Node21&#45;&gt;Node10 -->
<g id="edge38_Node000021_Node000010" class="edge">
<title>Node21&#45;&gt;Node10</title>
<g id="a_edge38_Node000021_Node000010"><a xlink:title=" ">
<path fill="none" stroke="#63b8ff" d="M1432.87,-110C1399.99,-96.43 1332.46,-69.91 1273,-55 1189.57,-34.08 1090.03,-21.4 1031.93,-15.19"/>
<polygon fill="#63b8ff" stroke="#63b8ff" points="1032.23,-11.7 1021.92,-14.14 1031.5,-18.66 1032.23,-11.7"/>
</a>
</g>
</g>
<!-- Node23 -->
<g id="Node000023" class="node">
<title>Node23</title>
<g id="a_Node000023"><a xlink:title=" ">
<polygon fill="#e0e0e0" stroke="#999999" points="1433,-184 1389,-184 1389,-165 1433,-165 1433,-184"/>
<text text-anchor="middle" x="1411" y="-172" font-family="Helvetica,sans-Serif" font-size="10.00">glib.h</text>
</a>
</g>
</g>
<!-- Node22&#45;&gt;Node23 -->
<g id="edge40_Node000022_Node000023" class="edge">
<title>Node22&#45;&gt;Node23</title>
<g id="a_edge40_Node000022_Node000023"><a xlink:title=" ">
<path fill="none" stroke="#63b8ff" d="M1411,-219.75C1411,-212.8 1411,-202.85 1411,-194.13"/>
<polygon fill="#63b8ff" stroke="#63b8ff" points="1414.5,-194.09 1411,-184.09 1407.5,-194.09 1414.5,-194.09"/>
</a>
</g>
</g>
<!-- Node24&#45;&gt;Node7 -->
<g id="edge42_Node000024_Node000007" class="edge">
<title>Node24&#45;&gt;Node7</title>
<g id="a_edge42_Node000024_Node000007"><a xlink:title=" ">
<path fill="none" stroke="#63b8ff" d="M754,-329.74C754,-304.31 754,-230.08 754,-194.69"/>
<polygon fill="#63b8ff" stroke="#63b8ff" points="757.5,-194.31 754,-184.31 750.5,-194.31 757.5,-194.31"/>
</a>
</g>
</g>
<!-- Node24&#45;&gt;Node8 -->
<g id="edge43_Node000024_Node000008" class="edge">
<title>Node24&#45;&gt;Node8</title>
<g id="a_edge43_Node000024_Node000008"><a xlink:title=" ">
<path fill="none" stroke="#63b8ff" d="M780.19,-329.98C807.44,-321.13 850.3,-307.19 880.78,-297.28"/>
<polygon fill="#63b8ff" stroke="#63b8ff" points="882.18,-300.5 890.61,-294.08 880.01,-293.85 882.18,-300.5"/>
</a>
</g>
</g>
<!-- Node25&#45;&gt;Node7 -->
<g id="edge45_Node000025_Node000007" class="edge">
<title>Node25&#45;&gt;Node7</title>
<g id="a_edge45_Node000025_Node000007"><a xlink:title=" ">
<path fill="none" stroke="#63b8ff" d="M456.3,-274.92C458.9,-261.01 466.09,-233.69 484,-220 519.37,-192.95 647.73,-181.65 713.92,-177.54"/>
<polygon fill="#63b8ff" stroke="#63b8ff" points="714.21,-181.03 723.98,-176.94 713.79,-174.05 714.21,-181.03"/>
</a>
</g>
</g>
<!-- Node25&#45;&gt;Node17 -->
<g id="edge46_Node000025_Node000017" class="edge">
<title>Node25&#45;&gt;Node17</title>
<g id="a_edge46_Node000025_Node000017"><a xlink:title=" ">
<path fill="none" stroke="#63b8ff" d="M468.17,-274.98C480.77,-266.84 500,-254.41 514.94,-244.76"/>
<polygon fill="#63b8ff" stroke="#63b8ff" points="517.09,-247.54 523.59,-239.17 513.29,-241.66 517.09,-247.54"/>
</a>
</g>
</g>
</g>
</svg>
