<?xml version="1.0" encoding="UTF-8" standalone="no"?>
<!DOCTYPE svg PUBLIC "-//W3C//DTD SVG 1.1//EN"
 "http://www.w3.org/Graphics/SVG/1.1/DTD/svg11.dtd">
<!-- Generated by graphviz version 2.43.0 (0)
 -->
<!-- Title: gsm&#45;xsmp&#45;client.c Pages: 1 -->
<!--zoomable 302 -->

<svg id="main" version="1.1" xmlns="http://www.w3.org/2000/svg" xmlns:xlink="http://www.w3.org/1999/xlink" xml:space="preserve" onload="init(evt)">

<style type="text/css"><![CDATA[
.node, .edge {opacity: 0.7;}
.node.selected, .edge.selected {opacity: 1;}
.edge:hover path { stroke: red; }
.edge:hover polygon { stroke: red; fill: red; }
]]></style>

<defs>
  <circle id="rim" cx="0" cy="0" r="7"/>
  <circle id="rim2" cx="0" cy="0" r="3.5"/>
  <g id="zoomPlus">
    <use xlink:href="#rim" fill="#404040"><set attributeName="fill" to="#808080" begin="zoomplus.mouseover" end="zoomplus.mouseout"/></use>
    <path d="M-4,0h8M0,-4v8" fill="none" stroke="white" stroke-width="1.5" pointer-events="none"/>
  </g>
  <g id="zoomMin">
    <use xlink:href="#rim" fill="#404040"><set attributeName="fill" to="#808080" begin="zoomminus.mouseover" end="zoomminus.mouseout"/></use>
    <path d="M-4,0h8" fill="none" stroke="white" stroke-width="1.5" pointer-events="none"/>
  </g>
  <g id="arrowUp" transform="translate(30 24)">
    <use xlink:href="#rim"/>
    <path pointer-events="none" fill="none" stroke="white" stroke-width="1.5" d="M0,-3.0v7 M-2.5,-0.5L0,-3.0L2.5,-0.5"/>
  </g>
  <g id="arrowRight" transform="rotate(90) translate(36 -43)">
    <use xlink:href="#rim"/>
    <path pointer-events="none" fill="none" stroke="white" stroke-width="1.5" d="M0,-3.0v7 M-2.5,-0.5L0,-3.0L2.5,-0.5"/>
  </g>
  <g id="arrowDown" transform="rotate(180) translate(-30 -48)">
    <use xlink:href="#rim"/>
    <path pointer-events="none" fill="none" stroke="white" stroke-width="1.5" d="M0,-3.0v7 M-2.5,-0.5L0,-3.0L2.5,-0.5"/>
  </g>
  <g id="arrowLeft" transform="rotate(270) translate(-36 17)">
    <use xlink:href="#rim"/>
    <path pointer-events="none" fill="none" stroke="white" stroke-width="1.5" d="M0,-3.0v7 M-2.5,-0.5L0,-3.0L2.5,-0.5"/>
  </g>
  <g id="resetDef">
    <use xlink:href="#rim2" fill="#404040"><set attributeName="fill" to="#808080" begin="reset.mouseover" end="reset.mouseout"/></use>
  </g>
</defs>
<script type="application/ecmascript">
var viewWidth = 1152;
var viewHeight = 302;
var sectionId = 'dynsection-0';
</script>
<script type="application/ecmascript" xlink:href="svg.min.js"/>
<svg id="graph" class="graph">
<g id="viewport">
<title>gsm&#45;xsmp&#45;client.c</title>
<!-- Node1 -->
<g id="Node000001" class="node">
<title>Node1</title>
<g id="a_Node000001"><a xlink:title=" ">
<polygon fill="#999999" stroke="#666666" points="536,-294 429,-294 429,-275 536,-275 536,-294"/>
<text text-anchor="middle" x="482.5" y="-282" font-family="Helvetica,sans-Serif" font-size="10.00">gsm&#45;xsmp&#45;client.c</text>
</a>
</g>
</g>
<!-- Node2 -->
<g id="Node000002" class="node">
<title>Node2</title>
<g id="a_Node000002"><a xlink:title=" ">
<polygon fill="#e0e0e0" stroke="#999999" points="55,-239 0,-239 0,-220 55,-220 55,-239"/>
<text text-anchor="middle" x="27.5" y="-227" font-family="Helvetica,sans-Serif" font-size="10.00">config.h</text>
</a>
</g>
</g>
<!-- Node1&#45;&gt;Node2 -->
<g id="edge1_Node000001_Node000002" class="edge">
<title>Node1&#45;&gt;Node2</title>
<g id="a_edge1_Node000001_Node000002"><a xlink:title=" ">
<path fill="none" stroke="#63b8ff" d="M428.96,-279.98C350.96,-274.39 201.37,-261.85 65.51,-239.16"/>
<polygon fill="#63b8ff" stroke="#63b8ff" points="65.78,-235.66 55.34,-237.44 64.61,-242.56 65.78,-235.66"/>
</a>
</g>
</g>
<!-- Node3 -->
<g id="Node000003" class="node">
<title>Node3</title>
<g id="a_Node000003"><a xlink:title=" ">
<polygon fill="#e0e0e0" stroke="#999999" points="120,-239 73,-239 73,-220 120,-220 120,-239"/>
<text text-anchor="middle" x="96.5" y="-227" font-family="Helvetica,sans-Serif" font-size="10.00">fcntl.h</text>
</a>
</g>
</g>
<!-- Node1&#45;&gt;Node3 -->
<g id="edge2_Node000001_Node000003" class="edge">
<title>Node1&#45;&gt;Node3</title>
<g id="a_edge2_Node000001_Node000003"><a xlink:title=" ">
<path fill="none" stroke="#63b8ff" d="M428.77,-279.01C361.13,-272.87 241.27,-260.31 130.21,-239.11"/>
<polygon fill="#63b8ff" stroke="#63b8ff" points="130.67,-235.64 120.18,-237.17 129.34,-242.51 130.67,-235.64"/>
</a>
</g>
</g>
<!-- Node4 -->
<g id="Node000004" class="node">
<title>Node4</title>
<g id="a_Node000004"><a xlink:title=" ">
<polygon fill="#e0e0e0" stroke="#999999" points="191,-239 138,-239 138,-220 191,-220 191,-239"/>
<text text-anchor="middle" x="164.5" y="-227" font-family="Helvetica,sans-Serif" font-size="10.00">stdlib.h</text>
</a>
</g>
</g>
<!-- Node1&#45;&gt;Node4 -->
<g id="edge3_Node000001_Node000004" class="edge">
<title>Node1&#45;&gt;Node4</title>
<g id="a_edge3_Node000001_Node000004"><a xlink:title=" ">
<path fill="none" stroke="#63b8ff" d="M428.8,-276.4C373.88,-268.83 285.9,-255.89 201.24,-239.22"/>
<polygon fill="#63b8ff" stroke="#63b8ff" points="201.69,-235.74 191.2,-237.22 200.33,-242.61 201.69,-235.74"/>
</a>
</g>
</g>
<!-- Node5 -->
<g id="Node000005" class="node">
<title>Node5</title>
<g id="a_Node000005"><a xlink:title=" ">
<polygon fill="#e0e0e0" stroke="#999999" points="262,-239 209,-239 209,-220 262,-220 262,-239"/>
<text text-anchor="middle" x="235.5" y="-227" font-family="Helvetica,sans-Serif" font-size="10.00">string.h</text>
</a>
</g>
</g>
<!-- Node1&#45;&gt;Node5 -->
<g id="edge4_Node000001_Node000005" class="edge">
<title>Node1&#45;&gt;Node5</title>
<g id="a_edge4_Node000001_Node000005"><a xlink:title=" ">
<path fill="none" stroke="#63b8ff" d="M440.4,-274.93C399.85,-266.61 336.52,-253.43 272.14,-239.1"/>
<polygon fill="#63b8ff" stroke="#63b8ff" points="272.74,-235.65 262.22,-236.88 271.22,-242.48 272.74,-235.65"/>
</a>
</g>
</g>
<!-- Node6 -->
<g id="Node000006" class="node">
<title>Node6</title>
<g id="a_Node000006"><a xlink:title=" ">
<polygon fill="#e0e0e0" stroke="#999999" points="328.5,-239 280.5,-239 280.5,-220 328.5,-220 328.5,-239"/>
<text text-anchor="middle" x="304.5" y="-227" font-family="Helvetica,sans-Serif" font-size="10.00">time.h</text>
</a>
</g>
</g>
<!-- Node1&#45;&gt;Node6 -->
<g id="edge5_Node000001_Node000006" class="edge">
<title>Node1&#45;&gt;Node6</title>
<g id="a_edge5_Node000001_Node000006"><a xlink:title=" ">
<path fill="none" stroke="#63b8ff" d="M453.9,-274.98C422.46,-265.62 371.99,-250.59 338.53,-240.63"/>
<polygon fill="#63b8ff" stroke="#63b8ff" points="339.32,-237.22 328.74,-237.72 337.32,-243.93 339.32,-237.22"/>
</a>
</g>
</g>
<!-- Node7 -->
<g id="Node000007" class="node">
<title>Node7</title>
<g id="a_Node000007"><a xlink:title=" ">
<polygon fill="#e0e0e0" stroke="#999999" points="402.5,-239 346.5,-239 346.5,-220 402.5,-220 402.5,-239"/>
<text text-anchor="middle" x="374.5" y="-227" font-family="Helvetica,sans-Serif" font-size="10.00">unistd.h</text>
</a>
</g>
</g>
<!-- Node1&#45;&gt;Node7 -->
<g id="edge6_Node000001_Node000007" class="edge">
<title>Node1&#45;&gt;Node7</title>
<g id="a_edge6_Node000001_Node000007"><a xlink:title=" ">
<path fill="none" stroke="#63b8ff" d="M465.15,-274.98C447.93,-266.54 421.3,-253.47 401.35,-243.68"/>
<polygon fill="#63b8ff" stroke="#63b8ff" points="402.69,-240.43 392.17,-239.17 399.6,-246.72 402.69,-240.43"/>
</a>
</g>
</g>
<!-- Node8 -->
<g id="Node000008" class="node">
<title>Node8</title>
<g id="a_Node000008"><a xlink:title=" ">
<polygon fill="#e0e0e0" stroke="#999999" points="472,-239 421,-239 421,-220 472,-220 472,-239"/>
<text text-anchor="middle" x="446.5" y="-227" font-family="Helvetica,sans-Serif" font-size="10.00">errno.h</text>
</a>
</g>
</g>
<!-- Node1&#45;&gt;Node8 -->
<g id="edge7_Node000001_Node000008" class="edge">
<title>Node1&#45;&gt;Node8</title>
<g id="a_edge7_Node000001_Node000008"><a xlink:title=" ">
<path fill="none" stroke="#63b8ff" d="M476.56,-274.75C471.52,-267.34 464.16,-256.5 457.99,-247.41"/>
<polygon fill="#63b8ff" stroke="#63b8ff" points="460.85,-245.39 452.33,-239.09 455.06,-249.33 460.85,-245.39"/>
</a>
</g>
</g>
<!-- Node9 -->
<g id="Node000009" class="node">
<title>Node9</title>
<g id="a_Node000009"><a xlink:title=" ">
<polygon fill="#e0e0e0" stroke="#999999" points="549,-239 490,-239 490,-220 549,-220 549,-239"/>
<text text-anchor="middle" x="519.5" y="-227" font-family="Helvetica,sans-Serif" font-size="10.00">gio/gio.h</text>
</a>
</g>
</g>
<!-- Node1&#45;&gt;Node9 -->
<g id="edge8_Node000001_Node000009" class="edge">
<title>Node1&#45;&gt;Node9</title>
<g id="a_edge8_Node000001_Node000009"><a xlink:title=" ">
<path fill="none" stroke="#63b8ff" d="M488.61,-274.75C493.78,-267.34 501.35,-256.5 507.69,-247.41"/>
<polygon fill="#63b8ff" stroke="#63b8ff" points="510.65,-249.29 513.5,-239.09 504.91,-245.29 510.65,-249.29"/>
</a>
</g>
</g>
<!-- Node10 -->
<g id="Node000010" class="node">
<title>Node10</title>
<g id="a_Node000010"><a xlink:title=" ">
<polygon fill="#e0e0e0" stroke="#999999" points="641.5,-239 567.5,-239 567.5,-220 641.5,-220 641.5,-239"/>
<text text-anchor="middle" x="604.5" y="-227" font-family="Helvetica,sans-Serif" font-size="10.00">glib/gi18n.h</text>
</a>
</g>
</g>
<!-- Node1&#45;&gt;Node10 -->
<g id="edge9_Node000001_Node000010" class="edge">
<title>Node1&#45;&gt;Node10</title>
<g id="a_edge9_Node000001_Node000010"><a xlink:title=" ">
<path fill="none" stroke="#63b8ff" d="M502.1,-274.98C521.82,-266.42 552.45,-253.11 575.08,-243.28"/>
<polygon fill="#63b8ff" stroke="#63b8ff" points="576.76,-246.37 584.54,-239.17 573.98,-239.94 576.76,-246.37"/>
</a>
</g>
</g>
<!-- Node11 -->
<g id="Node000011" class="node">
<title>Node11</title>
<g id="a_Node000011"><a xlink:href="gsm-xsmp-client_8h.html" target="_top" xlink:title=" ">
<polygon fill="white" stroke="#666666" points="889.5,-239 781.5,-239 781.5,-220 889.5,-220 889.5,-239"/>
<text text-anchor="middle" x="835.5" y="-227" font-family="Helvetica,sans-Serif" font-size="10.00">gsm&#45;xsmp&#45;client.h</text>
</a>
</g>
</g>
<!-- Node1&#45;&gt;Node11 -->
<g id="edge10_Node000001_Node000011" class="edge">
<title>Node1&#45;&gt;Node11</title>
<g id="a_edge10_Node000001_Node000011"><a xlink:title=" ">
<path fill="none" stroke="#63b8ff" d="M536.11,-275.45C599.22,-265.98 703.94,-250.25 771.31,-240.14"/>
<polygon fill="#63b8ff" stroke="#63b8ff" points="772.01,-243.57 781.38,-238.63 770.97,-236.65 772.01,-243.57"/>
</a>
</g>
</g>
<!-- Node17 -->
<g id="Node000017" class="node">
<title>Node17</title>
<g id="a_Node000017"><a xlink:href="gsm-marshal_8h.html" target="_top" xlink:title=" ">
<polygon fill="white" stroke="#666666" points="1143.5,-184 1053.5,-184 1053.5,-165 1143.5,-165 1143.5,-184"/>
<text text-anchor="middle" x="1098.5" y="-172" font-family="Helvetica,sans-Serif" font-size="10.00">gsm&#45;marshal.h</text>
</a>
</g>
</g>
<!-- Node1&#45;&gt;Node17 -->
<g id="edge16_Node000001_Node000017" class="edge">
<title>Node1&#45;&gt;Node17</title>
<g id="a_edge16_Node000001_Node000017"><a xlink:title=" ">
<path fill="none" stroke="#63b8ff" d="M536.05,-283.7C656.44,-283.42 944.83,-278.51 1032.5,-239 1055.04,-228.84 1074.55,-207.6 1086.39,-192.48"/>
<polygon fill="#63b8ff" stroke="#63b8ff" points="1089.24,-194.52 1092.44,-184.42 1083.64,-190.32 1089.24,-194.52"/>
</a>
</g>
</g>
<!-- Node18 -->
<g id="Node000018" class="node">
<title>Node18</title>
<g id="a_Node000018"><a xlink:href="gsm-util_8h.html" target="_top" xlink:title=" ">
<polygon fill="white" stroke="#666666" points="763.5,-239 697.5,-239 697.5,-220 763.5,-220 763.5,-239"/>
<text text-anchor="middle" x="730.5" y="-227" font-family="Helvetica,sans-Serif" font-size="10.00">gsm&#45;util.h</text>
</a>
</g>
</g>
<!-- Node1&#45;&gt;Node18 -->
<g id="edge18_Node000001_Node000018" class="edge">
<title>Node1&#45;&gt;Node18</title>
<g id="a_edge18_Node000001_Node000018"><a xlink:title=" ">
<path fill="none" stroke="#63b8ff" d="M522.35,-274.98C567.53,-265.33 640.96,-249.64 687.44,-239.7"/>
<polygon fill="#63b8ff" stroke="#63b8ff" points="688.45,-243.07 697.5,-237.55 686.99,-236.22 688.45,-243.07"/>
</a>
</g>
</g>
<!-- Node20 -->
<g id="Node000020" class="node">
<title>Node20</title>
<g id="a_Node000020"><a xlink:href="gsm-autostart-app_8h.html" target="_top" xlink:title=" ">
<polygon fill="white" stroke="#666666" points="1023.5,-239 907.5,-239 907.5,-220 1023.5,-220 1023.5,-239"/>
<text text-anchor="middle" x="965.5" y="-227" font-family="Helvetica,sans-Serif" font-size="10.00">gsm&#45;autostart&#45;app.h</text>
</a>
</g>
</g>
<!-- Node1&#45;&gt;Node20 -->
<g id="edge21_Node000001_Node000020" class="edge">
<title>Node1&#45;&gt;Node20</title>
<g id="a_edge21_Node000001_Node000020"><a xlink:title=" ">
<path fill="none" stroke="#63b8ff" d="M536.06,-278.11C613.37,-270.25 761.03,-254.97 897.2,-239.13"/>
<polygon fill="#63b8ff" stroke="#63b8ff" points="897.88,-242.58 907.4,-237.94 897.07,-235.62 897.88,-242.58"/>
</a>
</g>
</g>
<!-- Node23 -->
<g id="Node000023" class="node">
<title>Node23</title>
<g id="a_Node000023"><a xlink:href="gsm-manager_8h.html" target="_top" xlink:title=" ">
<polygon fill="white" stroke="#666666" points="685,-129 592,-129 592,-110 685,-110 685,-129"/>
<text text-anchor="middle" x="638.5" y="-117" font-family="Helvetica,sans-Serif" font-size="10.00">gsm&#45;manager.h</text>
</a>
</g>
</g>
<!-- Node1&#45;&gt;Node23 -->
<g id="edge33_Node000001_Node000023" class="edge">
<title>Node1&#45;&gt;Node23</title>
<g id="a_edge33_Node000001_Node000023"><a xlink:title=" ">
<path fill="none" stroke="#63b8ff" d="M536.23,-276.43C579.91,-269.45 636.51,-257.17 650.5,-239 673.11,-209.62 658.16,-163.27 647.18,-138.13"/>
<polygon fill="#63b8ff" stroke="#63b8ff" points="650.35,-136.65 642.97,-129.04 644,-139.59 650.35,-136.65"/>
</a>
</g>
</g>
<!-- Node12 -->
<g id="Node000012" class="node">
<title>Node12</title>
<g id="a_Node000012"><a xlink:href="gsm-client_8h.html" target="_top" xlink:title=" ">
<polygon fill="white" stroke="#666666" points="868,-129 791,-129 791,-110 868,-110 868,-129"/>
<text text-anchor="middle" x="829.5" y="-117" font-family="Helvetica,sans-Serif" font-size="10.00">gsm&#45;client.h</text>
</a>
</g>
</g>
<!-- Node11&#45;&gt;Node12 -->
<g id="edge11_Node000011_Node000012" class="edge">
<title>Node11&#45;&gt;Node12</title>
<g id="a_edge11_Node000011_Node000012"><a xlink:title=" ">
<path fill="none" stroke="#63b8ff" d="M835.01,-219.66C834.04,-202.17 831.85,-162.8 830.54,-139.27"/>
<polygon fill="#63b8ff" stroke="#63b8ff" points="834.03,-138.95 829.98,-129.16 827.04,-139.34 834.03,-138.95"/>
</a>
</g>
</g>
<!-- Node16 -->
<g id="Node000016" class="node">
<title>Node16</title>
<g id="a_Node000016"><a xlink:title=" ">
<polygon fill="#e0e0e0" stroke="#999999" points="949.5,-184 857.5,-184 857.5,-165 949.5,-165 949.5,-184"/>
<text text-anchor="middle" x="903.5" y="-172" font-family="Helvetica,sans-Serif" font-size="10.00">X11/SM/SMlib.h</text>
</a>
</g>
</g>
<!-- Node11&#45;&gt;Node16 -->
<g id="edge15_Node000011_Node000016" class="edge">
<title>Node11&#45;&gt;Node16</title>
<g id="a_edge15_Node000011_Node000016"><a xlink:title=" ">
<path fill="none" stroke="#63b8ff" d="M846.43,-219.98C856.58,-212.07 871.92,-200.11 884.15,-190.58"/>
<polygon fill="#63b8ff" stroke="#63b8ff" points="886.64,-193.08 892.38,-184.17 882.34,-187.56 886.64,-193.08"/>
</a>
</g>
</g>
<!-- Node13 -->
<g id="Node000013" class="node">
<title>Node13</title>
<g id="a_Node000013"><a xlink:title=" ">
<polygon fill="#e0e0e0" stroke="#999999" points="852.5,-74 808.5,-74 808.5,-55 852.5,-55 852.5,-74"/>
<text text-anchor="middle" x="830.5" y="-62" font-family="Helvetica,sans-Serif" font-size="10.00">glib.h</text>
</a>
</g>
</g>
<!-- Node12&#45;&gt;Node13 -->
<g id="edge12_Node000012_Node000013" class="edge">
<title>Node12&#45;&gt;Node13</title>
<g id="a_edge12_Node000012_Node000013"><a xlink:title=" ">
<path fill="none" stroke="#63b8ff" d="M829.67,-109.75C829.8,-102.8 829.98,-92.85 830.15,-84.13"/>
<polygon fill="#63b8ff" stroke="#63b8ff" points="833.65,-84.15 830.34,-74.09 826.65,-84.02 833.65,-84.15"/>
</a>
</g>
</g>
<!-- Node14 -->
<g id="Node000014" class="node">
<title>Node14</title>
<g id="a_Node000014"><a xlink:title=" ">
<polygon fill="#e0e0e0" stroke="#999999" points="919,-19 842,-19 842,0 919,0 919,-19"/>
<text text-anchor="middle" x="880.5" y="-7" font-family="Helvetica,sans-Serif" font-size="10.00">glib&#45;object.h</text>
</a>
</g>
</g>
<!-- Node12&#45;&gt;Node14 -->
<g id="edge13_Node000012_Node000014" class="edge">
<title>Node12&#45;&gt;Node14</title>
<g id="a_edge13_Node000012_Node000014"><a xlink:title=" ">
<path fill="none" stroke="#63b8ff" d="M837.06,-109.86C844.23,-101.28 854.86,-87.49 861.5,-74 868.57,-59.62 873.57,-42.1 876.66,-29.11"/>
<polygon fill="#63b8ff" stroke="#63b8ff" points="880.14,-29.57 878.89,-19.05 873.31,-28.06 880.14,-29.57"/>
</a>
</g>
</g>
<!-- Node15 -->
<g id="Node000015" class="node">
<title>Node15</title>
<g id="a_Node000015"><a xlink:title=" ">
<polygon fill="#e0e0e0" stroke="#999999" points="1002.5,-74 930.5,-74 930.5,-55 1002.5,-55 1002.5,-74"/>
<text text-anchor="middle" x="966.5" y="-62" font-family="Helvetica,sans-Serif" font-size="10.00">sys/types.h</text>
</a>
</g>
</g>
<!-- Node12&#45;&gt;Node15 -->
<g id="edge14_Node000012_Node000015" class="edge">
<title>Node12&#45;&gt;Node15</title>
<g id="a_edge14_Node000012_Node000015"><a xlink:title=" ">
<path fill="none" stroke="#63b8ff" d="M851.51,-109.98C873.95,-101.3 908.98,-87.75 934.49,-77.88"/>
<polygon fill="#63b8ff" stroke="#63b8ff" points="936.02,-81.04 944.09,-74.17 933.5,-74.51 936.02,-81.04"/>
</a>
</g>
</g>
<!-- Node17&#45;&gt;Node14 -->
<g id="edge17_Node000017_Node000014" class="edge">
<title>Node17&#45;&gt;Node14</title>
<g id="a_edge17_Node000017_Node000014"><a xlink:title=" ">
<path fill="none" stroke="#63b8ff" d="M1095.94,-164.86C1089.03,-143.02 1067.85,-85.19 1029.5,-55 1000.82,-32.42 960.87,-21.28 929.55,-15.79"/>
<polygon fill="#63b8ff" stroke="#63b8ff" points="929.72,-12.27 919.29,-14.14 928.61,-19.19 929.72,-12.27"/>
</a>
</g>
</g>
<!-- Node18&#45;&gt;Node13 -->
<g id="edge19_Node000018_Node000013" class="edge">
<title>Node18&#45;&gt;Node13</title>
<g id="a_edge19_Node000018_Node000013"><a xlink:title=" ">
<path fill="none" stroke="#63b8ff" d="M728.98,-219.91C727.14,-207.34 725.14,-183.44 732.5,-165 747.4,-127.66 784.11,-96.95 808.13,-79.94"/>
<polygon fill="#63b8ff" stroke="#63b8ff" points="810.37,-82.65 816.64,-74.11 806.41,-76.88 810.37,-82.65"/>
</a>
</g>
</g>
<!-- Node19 -->
<g id="Node000019" class="node">
<title>Node19</title>
<g id="a_Node000019"><a xlink:title=" ">
<polygon fill="#e0e0e0" stroke="#999999" points="801.5,-184 741.5,-184 741.5,-165 801.5,-165 801.5,-184"/>
<text text-anchor="middle" x="771.5" y="-172" font-family="Helvetica,sans-Serif" font-size="10.00">gtk/gtk.h</text>
</a>
</g>
</g>
<!-- Node18&#45;&gt;Node19 -->
<g id="edge20_Node000018_Node000019" class="edge">
<title>Node18&#45;&gt;Node19</title>
<g id="a_edge20_Node000018_Node000019"><a xlink:title=" ">
<path fill="none" stroke="#63b8ff" d="M737.27,-219.75C743.06,-212.26 751.56,-201.28 758.64,-192.13"/>
<polygon fill="#63b8ff" stroke="#63b8ff" points="761.51,-194.14 764.86,-184.09 755.97,-189.86 761.51,-194.14"/>
</a>
</g>
</g>
<!-- Node20&#45;&gt;Node16 -->
<g id="edge32_Node000020_Node000016" class="edge">
<title>Node20&#45;&gt;Node16</title>
<g id="a_edge32_Node000020_Node000016"><a xlink:title=" ">
<path fill="none" stroke="#63b8ff" d="M955.54,-219.98C946.37,-212.15 932.56,-200.34 921.47,-190.86"/>
<polygon fill="#63b8ff" stroke="#63b8ff" points="923.52,-188.01 913.64,-184.17 918.97,-193.33 923.52,-188.01"/>
</a>
</g>
</g>
<!-- Node21 -->
<g id="Node000021" class="node">
<title>Node21</title>
<g id="a_Node000021"><a xlink:href="gsm-app_8h.html" target="_top" xlink:title=" ">
<polygon fill="white" stroke="#666666" points="1035.5,-184 967.5,-184 967.5,-165 1035.5,-165 1035.5,-184"/>
<text text-anchor="middle" x="1001.5" y="-172" font-family="Helvetica,sans-Serif" font-size="10.00">gsm&#45;app.h</text>
</a>
</g>
</g>
<!-- Node20&#45;&gt;Node21 -->
<g id="edge22_Node000020_Node000021" class="edge">
<title>Node20&#45;&gt;Node21</title>
<g id="a_edge22_Node000020_Node000021"><a xlink:title=" ">
<path fill="none" stroke="#63b8ff" d="M971.44,-219.75C976.48,-212.34 983.84,-201.5 990.01,-192.41"/>
<polygon fill="#63b8ff" stroke="#63b8ff" points="992.94,-194.33 995.67,-184.09 987.15,-190.39 992.94,-194.33"/>
</a>
</g>
</g>
<!-- Node21&#45;&gt;Node12 -->
<g id="edge31_Node000021_Node000012" class="edge">
<title>Node21&#45;&gt;Node12</title>
<g id="a_edge31_Node000021_Node000012"><a xlink:title=" ">
<path fill="none" stroke="#63b8ff" d="M973.87,-164.98C944.99,-156.09 899.49,-142.07 867.3,-132.15"/>
<polygon fill="#63b8ff" stroke="#63b8ff" points="867.94,-128.68 857.35,-129.08 865.88,-135.37 867.94,-128.68"/>
</a>
</g>
</g>
<!-- Node21&#45;&gt;Node14 -->
<g id="edge23_Node000021_Node000014" class="edge">
<title>Node21&#45;&gt;Node14</title>
<g id="a_edge23_Node000021_Node000014"><a xlink:title=" ">
<path fill="none" stroke="#63b8ff" d="M1005.75,-164.75C1015.32,-143.62 1035.91,-89.07 1011.5,-55 992.86,-28.98 958.11,-17.99 929.09,-13.43"/>
<polygon fill="#63b8ff" stroke="#63b8ff" points="929.48,-9.95 919.1,-12.08 928.54,-16.89 929.48,-9.95"/>
</a>
</g>
</g>
<!-- Node21&#45;&gt;Node15 -->
<g id="edge24_Node000021_Node000015" class="edge">
<title>Node21&#45;&gt;Node15</title>
<g id="a_edge24_Node000021_Node000015"><a xlink:title=" ">
<path fill="none" stroke="#63b8ff" d="M1001.54,-164.61C1001.33,-152.08 1000.01,-128.68 993.5,-110 990.12,-100.31 984.43,-90.46 979.14,-82.5"/>
<polygon fill="#63b8ff" stroke="#63b8ff" points="981.88,-80.32 973.28,-74.14 976.15,-84.34 981.88,-80.32"/>
</a>
</g>
</g>
<!-- Node22 -->
<g id="Node000022" class="node">
<title>Node22</title>
<g id="a_Node000022"><a xlink:title=" ">
<polygon fill="#e0e0e0" stroke="#999999" points="984.5,-129 886.5,-129 886.5,-110 984.5,-110 984.5,-129"/>
<text text-anchor="middle" x="935.5" y="-117" font-family="Helvetica,sans-Serif" font-size="10.00">eggdesktopfile.h</text>
</a>
</g>
</g>
<!-- Node21&#45;&gt;Node22 -->
<g id="edge25_Node000021_Node000022" class="edge">
<title>Node21&#45;&gt;Node22</title>
<g id="a_edge25_Node000021_Node000022"><a xlink:title=" ">
<path fill="none" stroke="#63b8ff" d="M990.9,-164.98C981.04,-157.07 966.15,-145.11 954.28,-135.58"/>
<polygon fill="#63b8ff" stroke="#63b8ff" points="956.29,-132.7 946.3,-129.17 951.9,-138.16 956.29,-132.7"/>
</a>
</g>
</g>
<!-- Node21&#45;&gt;Node23 -->
<g id="edge26_Node000021_Node000023" class="edge">
<title>Node21&#45;&gt;Node23</title>
<g id="a_edge26_Node000021_Node000023"><a xlink:title=" ">
<path fill="none" stroke="#63b8ff" d="M967.26,-166.55C964.3,-166 961.35,-165.48 958.5,-165 866.81,-149.57 759.68,-135.47 695.56,-127.44"/>
<polygon fill="#63b8ff" stroke="#63b8ff" points="695.62,-123.92 685.26,-126.16 694.75,-130.87 695.62,-123.92"/>
</a>
</g>
</g>
<!-- Node23&#45;&gt;Node14 -->
<g id="edge27_Node000023_Node000014" class="edge">
<title>Node23&#45;&gt;Node14</title>
<g id="a_edge27_Node000023_Node000014"><a xlink:title=" ">
<path fill="none" stroke="#63b8ff" d="M623.71,-109.82C604.28,-97.34 574.39,-73.77 590.5,-55 621.04,-19.42 757.62,-12 831.94,-10.64"/>
<polygon fill="#63b8ff" stroke="#63b8ff" points="832.05,-14.14 841.99,-10.49 831.94,-7.14 832.05,-14.14"/>
</a>
</g>
</g>
<!-- Node24 -->
<g id="Node000024" class="node">
<title>Node24</title>
<g id="a_Node000024"><a xlink:title=" ">
<polygon fill="#e0e0e0" stroke="#999999" points="790,-74 693,-74 693,-55 790,-55 790,-74"/>
<text text-anchor="middle" x="741.5" y="-62" font-family="Helvetica,sans-Serif" font-size="10.00">dbus/dbus&#45;glib.h</text>
</a>
</g>
</g>
<!-- Node23&#45;&gt;Node24 -->
<g id="edge28_Node000023_Node000024" class="edge">
<title>Node23&#45;&gt;Node24</title>
<g id="a_edge28_Node000023_Node000024"><a xlink:title=" ">
<path fill="none" stroke="#63b8ff" d="M655.05,-109.98C671.39,-101.57 696.63,-88.59 715.63,-78.81"/>
<polygon fill="#63b8ff" stroke="#63b8ff" points="717.36,-81.86 724.65,-74.17 714.16,-75.63 717.36,-81.86"/>
</a>
</g>
</g>
<!-- Node25 -->
<g id="Node000025" class="node">
<title>Node25</title>
<g id="a_Node000025"><a xlink:href="gsm-store_8h.html" target="_top" xlink:title=" ">
<polygon fill="white" stroke="#666666" points="675,-74 600,-74 600,-55 675,-55 675,-74"/>
<text text-anchor="middle" x="637.5" y="-62" font-family="Helvetica,sans-Serif" font-size="10.00">gsm&#45;store.h</text>
</a>
</g>
</g>
<!-- Node23&#45;&gt;Node25 -->
<g id="edge29_Node000023_Node000025" class="edge">
<title>Node23&#45;&gt;Node25</title>
<g id="a_edge29_Node000023_Node000025"><a xlink:title=" ">
<path fill="none" stroke="#63b8ff" d="M638.33,-109.75C638.2,-102.8 638.02,-92.85 637.85,-84.13"/>
<polygon fill="#63b8ff" stroke="#63b8ff" points="641.35,-84.02 637.66,-74.09 634.35,-84.15 641.35,-84.02"/>
</a>
</g>
</g>
<!-- Node25&#45;&gt;Node14 -->
<g id="edge30_Node000025_Node000014" class="edge">
<title>Node25&#45;&gt;Node14</title>
<g id="a_edge30_Node000025_Node000014"><a xlink:title=" ">
<path fill="none" stroke="#63b8ff" d="M675.2,-55.28C717.43,-46.07 785.98,-31.11 832.13,-21.05"/>
<polygon fill="#63b8ff" stroke="#63b8ff" points="832.88,-24.47 841.91,-18.92 831.39,-17.63 832.88,-24.47"/>
</a>
</g>
</g>
</g>
</svg>

<g id="navigator" transform="translate(0 0)" fill="#404254">
  <rect fill="#f2f5e9" fill-opacity="0.5" stroke="#606060" stroke-width=".5" x="0" y="0" width="60" height="60"/>
  <use id="zoomplus" xlink:href="#zoomPlus" x="17" y="9" onmousedown="handleZoom(evt,'in')"/>
  <use id="zoomminus" xlink:href="#zoomMin" x="42" y="9" onmousedown="handleZoom(evt,'out')"/>
  <use id="reset" xlink:href="#resetDef" x="30" y="36" onmousedown="handleReset()"/>
   <use id="arrowup" xlink:href="#arrowUp" x="0" y="0" onmousedown="handlePan(0,-1)"/>
  <use id="arrowright" xlink:href="#arrowRight" x="0" y="0" onmousedown="handlePan(1,0)"/>
  <use id="arrowdown" xlink:href="#arrowDown" x="0" y="0" onmousedown="handlePan(0,1)"/>
  <use id="arrowleft" xlink:href="#arrowLeft" x="0" y="0" onmousedown="handlePan(-1,0)"/>
</g>
<svg viewBox="0 0 15 15" width="100%" height="30px" preserveAspectRatio="xMaxYMin meet">
 <g id="arrow_out" transform="scale(0.3 0.3)">
  <a xlink:href="gsm-xsmp-client_8c__incl_org.svg" target="_base">
   <rect id="button" ry="5" rx="5" y="6" x="6" height="38" width="38"
        fill="#f2f5e9" fill-opacity="0.5" stroke="#606060" stroke-width="1.0"/>
   <path id="arrow"
     d="M 11.500037,31.436501 C 11.940474,20.09759 22.043105,11.32322 32.158766,21.979434 L 37.068811,17.246167 C 37.068811,17.246167 37.088388,32 37.088388,32 L 22.160133,31.978069 C 22.160133,31.978069 26.997745,27.140456 26.997745,27.140456 C 18.528582,18.264221 13.291696,25.230495 11.500037,31.436501 z"
     style="fill:#404040;"/>
  </a>
 </g>
</svg>

<style type='text/css'>
<![CDATA[
[data-mouse-over-selected='false'] { opacity: 0.7; }
[data-mouse-over-selected='true']  { opacity: 1.0; }
]]>
</style>
<script type="application/ecmascript"><![CDATA[
document.addEventListener('DOMContentLoaded', (event) => {
  highlightEdges();
  highlightAdjacentNodes();
});
]]></script>
</svg>
