<?xml version="1.0" encoding="UTF-8" standalone="no"?>
<!DOCTYPE svg PUBLIC "-//W3C//DTD SVG 1.1//EN"
 "http://www.w3.org/Graphics/SVG/1.1/DTD/svg11.dtd">
<!-- Generated by graphviz version 2.43.0 (0)
 -->
<!-- Title: gsm&#45;marshal.h Pages: 1 -->
<svg width="669pt" height="82pt"
 viewBox="0.00 0.00 669.00 82.00" xmlns="http://www.w3.org/2000/svg" xmlns:xlink="http://www.w3.org/1999/xlink">
<g id="graph0" class="graph" transform="scale(1 1) rotate(0) translate(4 78)">
<title>gsm&#45;marshal.h</title>
<!-- Node1 -->
<g id="Node000001" class="node">
<title>Node1</title>
<g id="a_Node000001"><a xlink:title=" ">
<polygon fill="#999999" stroke="#666666" points="367.5,-74 277.5,-74 277.5,-55 367.5,-55 367.5,-74"/>
<text text-anchor="middle" x="322.5" y="-62" font-family="Helvetica,sans-Serif" font-size="10.00">gsm&#45;marshal.h</text>
</a>
</g>
</g>
<!-- Node2 -->
<g id="Node000002" class="node">
<title>Node2</title>
<g id="a_Node000002"><a xlink:href="gsm-client_8c.html" target="_top" xlink:title=" ">
<polygon fill="white" stroke="#666666" points="77,-19 0,-19 0,0 77,0 77,-19"/>
<text text-anchor="middle" x="38.5" y="-7" font-family="Helvetica,sans-Serif" font-size="10.00">gsm&#45;client.c</text>
</a>
</g>
</g>
<!-- Node1&#45;&gt;Node2 -->
<g id="edge1_Node000001_Node000002" class="edge">
<title>Node1&#45;&gt;Node2</title>
<g id="a_edge1_Node000001_Node000002"><a xlink:title=" ">
<path fill="none" stroke="#63b8ff" d="M267.42,-53.22C211.56,-42.8 126.54,-26.93 77.36,-17.75"/>
<polygon fill="#63b8ff" stroke="#63b8ff" points="267.03,-56.71 277.5,-55.1 268.31,-49.83 267.03,-56.71"/>
</a>
</g>
</g>
<!-- Node3 -->
<g id="Node000003" class="node">
<title>Node3</title>
<g id="a_Node000003"><a xlink:href="gsm-consolekit_8c.html" target="_top" xlink:title=" ">
<polygon fill="white" stroke="#666666" points="195.5,-19 95.5,-19 95.5,0 195.5,0 195.5,-19"/>
<text text-anchor="middle" x="145.5" y="-7" font-family="Helvetica,sans-Serif" font-size="10.00">gsm&#45;consolekit.c</text>
</a>
</g>
</g>
<!-- Node1&#45;&gt;Node3 -->
<g id="edge2_Node000001_Node000003" class="edge">
<title>Node1&#45;&gt;Node3</title>
<g id="a_edge2_Node000001_Node000003"><a xlink:title=" ">
<path fill="none" stroke="#63b8ff" d="M284.28,-52.06C251.2,-42.15 204.09,-28.04 174.16,-19.08"/>
<polygon fill="#63b8ff" stroke="#63b8ff" points="283.48,-55.47 294.06,-54.98 285.49,-48.76 283.48,-55.47"/>
</a>
</g>
</g>
<!-- Node4 -->
<g id="Node000004" class="node">
<title>Node4</title>
<g id="a_Node000004"><a xlink:href="gsm-dbus-client_8c.html" target="_top" xlink:title=" ">
<polygon fill="white" stroke="#666666" points="317.5,-19 213.5,-19 213.5,0 317.5,0 317.5,-19"/>
<text text-anchor="middle" x="265.5" y="-7" font-family="Helvetica,sans-Serif" font-size="10.00">gsm&#45;dbus&#45;client.c</text>
</a>
</g>
</g>
<!-- Node1&#45;&gt;Node4 -->
<g id="edge3_Node000001_Node000004" class="edge">
<title>Node1&#45;&gt;Node4</title>
<g id="a_edge3_Node000001_Node000004"><a xlink:title=" ">
<path fill="none" stroke="#63b8ff" d="M305.88,-48.04C295.77,-38.64 283.22,-26.98 274.82,-19.17"/>
<polygon fill="#63b8ff" stroke="#63b8ff" points="303.64,-50.74 313.34,-54.98 308.4,-45.61 303.64,-50.74"/>
</a>
</g>
</g>
<!-- Node5 -->
<g id="Node000005" class="node">
<title>Node5</title>
<g id="a_Node000005"><a xlink:href="gsm-marshal_8c.html" target="_top" xlink:title=" ">
<polygon fill="white" stroke="#666666" points="425,-19 336,-19 336,0 425,0 425,-19"/>
<text text-anchor="middle" x="380.5" y="-7" font-family="Helvetica,sans-Serif" font-size="10.00">gsm&#45;marshal.c</text>
</a>
</g>
</g>
<!-- Node1&#45;&gt;Node5 -->
<g id="edge4_Node000001_Node000005" class="edge">
<title>Node1&#45;&gt;Node5</title>
<g id="a_edge4_Node000001_Node000005"><a xlink:title=" ">
<path fill="none" stroke="#63b8ff" d="M339.41,-48.04C349.7,-38.64 362.47,-26.98 371.01,-19.17"/>
<polygon fill="#63b8ff" stroke="#63b8ff" points="336.84,-45.66 331.82,-54.98 341.56,-50.82 336.84,-45.66"/>
</a>
</g>
</g>
<!-- Node6 -->
<g id="Node000006" class="node">
<title>Node6</title>
<g id="a_Node000006"><a xlink:href="gsm-systemd_8c.html" target="_top" xlink:title=" ">
<polygon fill="white" stroke="#666666" points="535.5,-19 443.5,-19 443.5,0 535.5,0 535.5,-19"/>
<text text-anchor="middle" x="489.5" y="-7" font-family="Helvetica,sans-Serif" font-size="10.00">gsm&#45;systemd.c</text>
</a>
</g>
</g>
<!-- Node1&#45;&gt;Node6 -->
<g id="edge5_Node000001_Node000006" class="edge">
<title>Node1&#45;&gt;Node6</title>
<g id="a_edge5_Node000001_Node000006"><a xlink:title=" ">
<path fill="none" stroke="#63b8ff" d="M358.96,-51.93C390.16,-42.03 434.34,-28.01 462.46,-19.08"/>
<polygon fill="#63b8ff" stroke="#63b8ff" points="357.8,-48.62 349.33,-54.98 359.92,-55.3 357.8,-48.62"/>
</a>
</g>
</g>
<!-- Node7 -->
<g id="Node000007" class="node">
<title>Node7</title>
<g id="a_Node000007"><a xlink:href="gsm-xsmp-client_8c.html" target="_top" xlink:title=" ">
<polygon fill="white" stroke="#666666" points="661,-19 554,-19 554,0 661,0 661,-19"/>
<text text-anchor="middle" x="607.5" y="-7" font-family="Helvetica,sans-Serif" font-size="10.00">gsm&#45;xsmp&#45;client.c</text>
</a>
</g>
</g>
<!-- Node1&#45;&gt;Node7 -->
<g id="edge6_Node000001_Node000007" class="edge">
<title>Node1&#45;&gt;Node7</title>
<g id="a_edge6_Node000001_Node000007"><a xlink:title=" ">
<path fill="none" stroke="#63b8ff" d="M377.66,-53.24C431.18,-43.29 511.47,-28.36 561.61,-19.03"/>
<polygon fill="#63b8ff" stroke="#63b8ff" points="376.85,-49.83 367.66,-55.1 378.13,-56.71 376.85,-49.83"/>
</a>
</g>
</g>
</g>
</svg>
