<?xml version="1.0" encoding="UTF-8" standalone="no"?>
<!DOCTYPE svg PUBLIC "-//W3C//DTD SVG 1.1//EN"
 "http://www.w3.org/Graphics/SVG/1.1/DTD/svg11.dtd">
<!-- Generated by graphviz version 2.43.0 (0)
 -->
<!-- Title: mate&#45;ui&#45;window.h Pages: 1 -->
<svg width="199pt" height="137pt"
 viewBox="0.00 0.00 199.00 137.00" xmlns="http://www.w3.org/2000/svg" xmlns:xlink="http://www.w3.org/1999/xlink">
<g id="graph0" class="graph" transform="scale(1 1) rotate(0) translate(4 133)">
<title>mate&#45;ui&#45;window.h</title>
<!-- Node1 -->
<g id="Node000001" class="node">
<title>Node1</title>
<g id="a_Node000001"><a xlink:title=" ">
<polygon fill="#999999" stroke="#666666" points="155,-129 51,-129 51,-110 155,-110 155,-129"/>
<text text-anchor="middle" x="103" y="-117" font-family="Helvetica,sans-Serif" font-size="10.00">mate&#45;ui&#45;window.h</text>
</a>
</g>
</g>
<!-- Node2 -->
<g id="Node000002" class="node">
<title>Node2</title>
<g id="a_Node000002"><a xlink:href="mate-ui-window_8c.html" target="_top" xlink:title=" ">
<polygon fill="white" stroke="#666666" points="104,-74 0,-74 0,-55 104,-55 104,-74"/>
<text text-anchor="middle" x="52" y="-62" font-family="Helvetica,sans-Serif" font-size="10.00">mate&#45;ui&#45;window.c</text>
</a>
</g>
</g>
<!-- Node1&#45;&gt;Node2 -->
<g id="edge1_Node000001_Node000002" class="edge">
<title>Node1&#45;&gt;Node2</title>
<g id="a_edge1_Node000001_Node000002"><a xlink:title=" ">
<path fill="none" stroke="#63b8ff" d="M87.62,-102.52C78.63,-93.18 67.64,-81.75 60.26,-74.09"/>
<polygon fill="#63b8ff" stroke="#63b8ff" points="85.12,-104.97 94.58,-109.75 90.17,-100.12 85.12,-104.97"/>
</a>
</g>
</g>
<!-- Node3 -->
<g id="Node000003" class="node">
<title>Node3</title>
<g id="a_Node000003"><a xlink:href="mate-ui_8h.html" target="_top" xlink:title=" ">
<polygon fill="white" stroke="#666666" points="186,-74 122,-74 122,-55 186,-55 186,-74"/>
<text text-anchor="middle" x="154" y="-62" font-family="Helvetica,sans-Serif" font-size="10.00">mate&#45;ui.h</text>
</a>
</g>
</g>
<!-- Node1&#45;&gt;Node3 -->
<g id="edge2_Node000001_Node000003" class="edge">
<title>Node1&#45;&gt;Node3</title>
<g id="a_edge2_Node000001_Node000003"><a xlink:title=" ">
<path fill="none" stroke="#63b8ff" d="M118.38,-102.52C127.37,-93.18 138.36,-81.75 145.74,-74.09"/>
<polygon fill="#63b8ff" stroke="#63b8ff" points="115.83,-100.12 111.42,-109.75 120.88,-104.97 115.83,-100.12"/>
</a>
</g>
</g>
<!-- Node4 -->
<g id="Node000004" class="node">
<title>Node4</title>
<g id="a_Node000004"><a xlink:href="demo-app_8c.html" target="_top" xlink:title=" ">
<polygon fill="white" stroke="#666666" points="191,-19 117,-19 117,0 191,0 191,-19"/>
<text text-anchor="middle" x="154" y="-7" font-family="Helvetica,sans-Serif" font-size="10.00">demo&#45;app.c</text>
</a>
</g>
</g>
<!-- Node3&#45;&gt;Node4 -->
<g id="edge3_Node000003_Node000004" class="edge">
<title>Node3&#45;&gt;Node4</title>
<g id="a_edge3_Node000003_Node000004"><a xlink:title=" ">
<path fill="none" stroke="#63b8ff" d="M154,-44.66C154,-35.93 154,-25.99 154,-19.09"/>
<polygon fill="#63b8ff" stroke="#63b8ff" points="150.5,-44.75 154,-54.75 157.5,-44.75 150.5,-44.75"/>
</a>
</g>
</g>
</g>
</svg>
