<?xml version="1.0" encoding="UTF-8" standalone="no"?>
<!DOCTYPE svg PUBLIC "-//W3C//DTD SVG 1.1//EN"
 "http://www.w3.org/Graphics/SVG/1.1/DTD/svg11.dtd">
<!-- Generated by graphviz version 2.43.0 (0)
 -->
<!-- Title: mateweather&#45;xml.c Pages: 1 -->
<svg width="868pt" height="258pt"
 viewBox="0.00 0.00 867.50 258.00" xmlns="http://www.w3.org/2000/svg" xmlns:xlink="http://www.w3.org/1999/xlink">
<g id="graph0" class="graph" transform="scale(1 1) rotate(0) translate(4 254)">
<title>mateweather&#45;xml.c</title>
<!-- Node1 -->
<g id="Node000001" class="node">
<title>Node1</title>
<g id="a_Node000001"><a xlink:title=" ">
<polygon fill="#999999" stroke="#666666" points="296,-250 183,-250 183,-231 296,-231 296,-250"/>
<text text-anchor="middle" x="239.5" y="-238" font-family="Helvetica,sans-Serif" font-size="10.00">mateweather&#45;xml.c</text>
</a>
</g>
</g>
<!-- Node2 -->
<g id="Node000002" class="node">
<title>Node2</title>
<g id="a_Node000002"><a xlink:title=" ">
<polygon fill="#e0e0e0" stroke="#999999" points="53,-195 0,-195 0,-176 53,-176 53,-195"/>
<text text-anchor="middle" x="26.5" y="-183" font-family="Helvetica,sans-Serif" font-size="10.00">string.h</text>
</a>
</g>
</g>
<!-- Node1&#45;&gt;Node2 -->
<g id="edge1_Node000001_Node000002" class="edge">
<title>Node1&#45;&gt;Node2</title>
<g id="a_edge1_Node000001_Node000002"><a xlink:title=" ">
<path fill="none" stroke="#63b8ff" d="M205.28,-230.98C166.33,-221.29 102.97,-205.53 63.07,-195.6"/>
<polygon fill="#63b8ff" stroke="#63b8ff" points="63.77,-192.17 53.22,-193.15 62.08,-198.96 63.77,-192.17"/>
</a>
</g>
</g>
<!-- Node3 -->
<g id="Node000003" class="node">
<title>Node3</title>
<g id="a_Node000003"><a xlink:title=" ">
<polygon fill="#e0e0e0" stroke="#999999" points="352,-140 301,-140 301,-121 352,-121 352,-140"/>
<text text-anchor="middle" x="326.5" y="-128" font-family="Helvetica,sans-Serif" font-size="10.00">math.h</text>
</a>
</g>
</g>
<!-- Node1&#45;&gt;Node3 -->
<g id="edge2_Node000001_Node000003" class="edge">
<title>Node1&#45;&gt;Node3</title>
<g id="a_edge2_Node000001_Node000003"><a xlink:title=" ">
<path fill="none" stroke="#63b8ff" d="M296.42,-234.06C346.8,-227.92 414.84,-215.96 431.5,-195 436.75,-188.39 436.16,-183.04 431.5,-176 423.35,-163.69 389.04,-150.61 361.83,-141.85"/>
<polygon fill="#63b8ff" stroke="#63b8ff" points="362.78,-138.48 352.19,-138.82 360.68,-145.15 362.78,-138.48"/>
</a>
</g>
</g>
<!-- Node4 -->
<g id="Node000004" class="node">
<title>Node4</title>
<g id="a_Node000004"><a xlink:title=" ">
<polygon fill="#e0e0e0" stroke="#999999" points="165,-195 110,-195 110,-176 165,-176 165,-195"/>
<text text-anchor="middle" x="137.5" y="-183" font-family="Helvetica,sans-Serif" font-size="10.00">locale.h</text>
</a>
</g>
</g>
<!-- Node1&#45;&gt;Node4 -->
<g id="edge3_Node000001_Node000004" class="edge">
<title>Node1&#45;&gt;Node4</title>
<g id="a_edge3_Node000001_Node000004"><a xlink:title=" ">
<path fill="none" stroke="#63b8ff" d="M223.11,-230.98C206.93,-222.57 181.93,-209.59 163.12,-199.81"/>
<polygon fill="#63b8ff" stroke="#63b8ff" points="164.67,-196.68 154.19,-195.17 161.45,-202.89 164.67,-196.68"/>
</a>
</g>
</g>
<!-- Node5 -->
<g id="Node000005" class="node">
<title>Node5</title>
<g id="a_Node000005"><a xlink:title=" ">
<polygon fill="#e0e0e0" stroke="#999999" points="177.5,-140 117.5,-140 117.5,-121 177.5,-121 177.5,-140"/>
<text text-anchor="middle" x="147.5" y="-128" font-family="Helvetica,sans-Serif" font-size="10.00">gtk/gtk.h</text>
</a>
</g>
</g>
<!-- Node1&#45;&gt;Node5 -->
<g id="edge4_Node000001_Node000005" class="edge">
<title>Node1&#45;&gt;Node5</title>
<g id="a_edge4_Node000001_Node000005"><a xlink:title=" ">
<path fill="none" stroke="#63b8ff" d="M182.93,-236.68C153.29,-231.97 119.32,-220.79 100.5,-195 88.13,-178.05 107.33,-158.69 124.78,-145.84"/>
<polygon fill="#63b8ff" stroke="#63b8ff" points="126.84,-148.67 133.06,-140.1 122.85,-142.92 126.84,-148.67"/>
</a>
</g>
</g>
<!-- Node6 -->
<g id="Node000006" class="node">
<title>Node6</title>
<g id="a_Node000006"><a xlink:title=" ">
<polygon fill="#e0e0e0" stroke="#999999" points="423,-195 314,-195 314,-176 423,-176 423,-195"/>
<text text-anchor="middle" x="368.5" y="-183" font-family="Helvetica,sans-Serif" font-size="10.00">libxml/xmlreader.h</text>
</a>
</g>
</g>
<!-- Node1&#45;&gt;Node6 -->
<g id="edge5_Node000001_Node000006" class="edge">
<title>Node1&#45;&gt;Node6</title>
<g id="a_edge5_Node000001_Node000006"><a xlink:title=" ">
<path fill="none" stroke="#63b8ff" d="M260.23,-230.98C281.26,-222.34 314.05,-208.87 338.04,-199.02"/>
<polygon fill="#63b8ff" stroke="#63b8ff" points="339.48,-202.21 347.4,-195.17 336.82,-195.73 339.48,-202.21"/>
</a>
</g>
</g>
<!-- Node7 -->
<g id="Node000007" class="node">
<title>Node7</title>
<g id="a_Node000007"><a xlink:href="mateweather-xml_8h.html" target="_top" xlink:title=" ">
<polygon fill="white" stroke="#666666" points="296,-195 183,-195 183,-176 296,-176 296,-195"/>
<text text-anchor="middle" x="239.5" y="-183" font-family="Helvetica,sans-Serif" font-size="10.00">mateweather&#45;xml.h</text>
</a>
</g>
</g>
<!-- Node1&#45;&gt;Node7 -->
<g id="edge6_Node000001_Node000007" class="edge">
<title>Node1&#45;&gt;Node7</title>
<g id="a_edge6_Node000001_Node000007"><a xlink:title=" ">
<path fill="none" stroke="#63b8ff" d="M239.5,-230.75C239.5,-223.8 239.5,-213.85 239.5,-205.13"/>
<polygon fill="#63b8ff" stroke="#63b8ff" points="243,-205.09 239.5,-195.09 236,-205.09 243,-205.09"/>
</a>
</g>
</g>
<!-- Node10 -->
<g id="Node000010" class="node">
<title>Node10</title>
<g id="a_Node000010"><a xlink:href="weather-priv_8h.html" target="_top" xlink:title=" ">
<polygon fill="white" stroke="#666666" points="567,-195 480,-195 480,-176 567,-176 567,-195"/>
<text text-anchor="middle" x="523.5" y="-183" font-family="Helvetica,sans-Serif" font-size="10.00">weather&#45;priv.h</text>
</a>
</g>
</g>
<!-- Node1&#45;&gt;Node10 -->
<g id="edge10_Node000001_Node000010" class="edge">
<title>Node1&#45;&gt;Node10</title>
<g id="a_edge10_Node000001_Node000010"><a xlink:title=" ">
<path fill="none" stroke="#63b8ff" d="M285.13,-230.98C335.51,-221.58 416.53,-206.46 469.89,-196.5"/>
<polygon fill="#63b8ff" stroke="#63b8ff" points="470.66,-199.92 479.85,-194.65 469.38,-193.04 470.66,-199.92"/>
</a>
</g>
</g>
<!-- Node7&#45;&gt;Node5 -->
<g id="edge7_Node000007_Node000005" class="edge">
<title>Node7&#45;&gt;Node5</title>
<g id="a_edge7_Node000007_Node000005"><a xlink:title=" ">
<path fill="none" stroke="#63b8ff" d="M224.72,-175.98C210.32,-167.69 188.19,-154.94 171.31,-145.22"/>
<polygon fill="#63b8ff" stroke="#63b8ff" points="172.96,-142.13 162.55,-140.17 169.47,-148.19 172.96,-142.13"/>
</a>
</g>
</g>
<!-- Node8 -->
<g id="Node000008" class="node">
<title>Node8</title>
<g id="a_Node000008"><a xlink:href="weather_8h.html" target="_top" xlink:title=" ">
<polygon fill="white" stroke="#666666" points="453,-79.5 308,-79.5 308,-60.5 453,-60.5 453,-79.5"/>
<text text-anchor="middle" x="380.5" y="-67.5" font-family="Helvetica,sans-Serif" font-size="10.00">libmateweather/weather.h</text>
</a>
</g>
</g>
<!-- Node7&#45;&gt;Node8 -->
<g id="edge8_Node000007_Node000008" class="edge">
<title>Node7&#45;&gt;Node8</title>
<g id="a_edge8_Node000007_Node000008"><a xlink:title=" ">
<path fill="none" stroke="#63b8ff" d="M245.04,-175.83C253.73,-162.73 271.64,-137.67 291.5,-121 309.57,-105.84 332.9,-92.93 351.14,-84.02"/>
<polygon fill="#63b8ff" stroke="#63b8ff" points="352.89,-87.07 360.43,-79.62 349.89,-80.75 352.89,-87.07"/>
</a>
</g>
</g>
<!-- Node9 -->
<g id="Node000009" class="node">
<title>Node9</title>
<g id="a_Node000009"><a xlink:title=" ">
<polygon fill="#e0e0e0" stroke="#999999" points="447,-19 314,-19 314,0 447,0 447,-19"/>
<text text-anchor="middle" x="380.5" y="-7" font-family="Helvetica,sans-Serif" font-size="10.00">gdk&#45;pixbuf/gdk&#45;pixbuf.h</text>
</a>
</g>
</g>
<!-- Node8&#45;&gt;Node9 -->
<g id="edge9_Node000008_Node000009" class="edge">
<title>Node8&#45;&gt;Node9</title>
<g id="a_edge9_Node000008_Node000009"><a xlink:title=" ">
<path fill="none" stroke="#63b8ff" d="M380.5,-60.37C380.5,-52.25 380.5,-39.81 380.5,-29.39"/>
<polygon fill="#63b8ff" stroke="#63b8ff" points="384,-29.17 380.5,-19.17 377,-29.17 384,-29.17"/>
</a>
</g>
</g>
<!-- Node10&#45;&gt;Node3 -->
<g id="edge14_Node000010_Node000003" class="edge">
<title>Node10&#45;&gt;Node3</title>
<g id="a_edge14_Node000010_Node000003"><a xlink:title=" ">
<path fill="none" stroke="#63b8ff" d="M491.85,-175.98C456.36,-166.44 398.94,-150.99 361.96,-141.04"/>
<polygon fill="#63b8ff" stroke="#63b8ff" points="362.68,-137.61 352.11,-138.39 360.86,-144.37 362.68,-137.61"/>
</a>
</g>
</g>
<!-- Node10&#45;&gt;Node8 -->
<g id="edge16_Node000010_Node000008" class="edge">
<title>Node10&#45;&gt;Node8</title>
<g id="a_edge16_Node000010_Node000008"><a xlink:title=" ">
<path fill="none" stroke="#63b8ff" d="M479.75,-179.07C453.09,-173.53 420.26,-162.39 399.5,-140 386.98,-126.49 382.59,-105.5 381.11,-90.21"/>
<polygon fill="#63b8ff" stroke="#63b8ff" points="384.58,-89.62 380.46,-79.85 377.59,-90.05 384.58,-89.62"/>
</a>
</g>
</g>
<!-- Node11 -->
<g id="Node000011" class="node">
<title>Node11</title>
<g id="a_Node000011"><a xlink:title=" ">
<polygon fill="#e0e0e0" stroke="#999999" points="793,-140 738,-140 738,-121 793,-121 793,-140"/>
<text text-anchor="middle" x="765.5" y="-128" font-family="Helvetica,sans-Serif" font-size="10.00">config.h</text>
</a>
</g>
</g>
<!-- Node10&#45;&gt;Node11 -->
<g id="edge11_Node000010_Node000011" class="edge">
<title>Node10&#45;&gt;Node11</title>
<g id="a_edge11_Node000010_Node000011"><a xlink:title=" ">
<path fill="none" stroke="#63b8ff" d="M563.6,-175.95C602.85,-167.54 664.6,-154.22 727.52,-140.2"/>
<polygon fill="#63b8ff" stroke="#63b8ff" points="728.63,-143.54 737.63,-137.94 727.11,-136.7 728.63,-143.54"/>
</a>
</g>
</g>
<!-- Node12 -->
<g id="Node000012" class="node">
<title>Node12</title>
<g id="a_Node000012"><a xlink:title=" ">
<polygon fill="#e0e0e0" stroke="#999999" points="859.5,-140 811.5,-140 811.5,-121 859.5,-121 859.5,-140"/>
<text text-anchor="middle" x="835.5" y="-128" font-family="Helvetica,sans-Serif" font-size="10.00">time.h</text>
</a>
</g>
</g>
<!-- Node10&#45;&gt;Node12 -->
<g id="edge12_Node000010_Node000012" class="edge">
<title>Node10&#45;&gt;Node12</title>
<g id="a_edge12_Node000010_Node000012"><a xlink:title=" ">
<path fill="none" stroke="#63b8ff" d="M567.05,-178.71C621.96,-171.15 719.14,-156.85 801.5,-140 801.6,-139.98 801.7,-139.96 801.8,-139.94"/>
<polygon fill="#63b8ff" stroke="#63b8ff" points="802.41,-143.39 811.41,-137.79 800.89,-136.56 802.41,-143.39"/>
</a>
</g>
</g>
<!-- Node13 -->
<g id="Node000013" class="node">
<title>Node13</title>
<g id="a_Node000013"><a xlink:title=" ">
<polygon fill="#e0e0e0" stroke="#999999" points="462,-140 409,-140 409,-121 462,-121 462,-140"/>
<text text-anchor="middle" x="435.5" y="-128" font-family="Helvetica,sans-Serif" font-size="10.00">libintl.h</text>
</a>
</g>
</g>
<!-- Node10&#45;&gt;Node13 -->
<g id="edge13_Node000010_Node000013" class="edge">
<title>Node10&#45;&gt;Node13</title>
<g id="a_edge13_Node000010_Node000013"><a xlink:title=" ">
<path fill="none" stroke="#63b8ff" d="M509.36,-175.98C495.71,-167.77 474.81,-155.18 458.72,-145.49"/>
<polygon fill="#63b8ff" stroke="#63b8ff" points="460.27,-142.33 449.9,-140.17 456.66,-148.33 460.27,-142.33"/>
</a>
</g>
</g>
<!-- Node14 -->
<g id="Node000014" class="node">
<title>Node14</title>
<g id="a_Node000014"><a xlink:title=" ">
<polygon fill="#e0e0e0" stroke="#999999" points="567,-140 480,-140 480,-121 567,-121 567,-140"/>
<text text-anchor="middle" x="523.5" y="-128" font-family="Helvetica,sans-Serif" font-size="10.00">libsoup/soup.h</text>
</a>
</g>
</g>
<!-- Node10&#45;&gt;Node14 -->
<g id="edge15_Node000010_Node000014" class="edge">
<title>Node10&#45;&gt;Node14</title>
<g id="a_edge15_Node000010_Node000014"><a xlink:title=" ">
<path fill="none" stroke="#63b8ff" d="M523.5,-175.75C523.5,-168.8 523.5,-158.85 523.5,-150.13"/>
<polygon fill="#63b8ff" stroke="#63b8ff" points="527,-150.09 523.5,-140.09 520,-150.09 527,-150.09"/>
</a>
</g>
</g>
<!-- Node15 -->
<g id="Node000015" class="node">
<title>Node15</title>
<g id="a_Node000015"><a xlink:href="mateweather-location_8h.html" target="_top" xlink:title=" ">
<polygon fill="white" stroke="#666666" points="719.5,-140 585.5,-140 585.5,-121 719.5,-121 719.5,-140"/>
<text text-anchor="middle" x="652.5" y="-128" font-family="Helvetica,sans-Serif" font-size="10.00">mateweather&#45;location.h</text>
</a>
</g>
</g>
<!-- Node10&#45;&gt;Node15 -->
<g id="edge17_Node000010_Node000015" class="edge">
<title>Node10&#45;&gt;Node15</title>
<g id="a_edge17_Node000010_Node000015"><a xlink:title=" ">
<path fill="none" stroke="#63b8ff" d="M544.23,-175.98C565.26,-167.34 598.05,-153.87 622.04,-144.02"/>
<polygon fill="#63b8ff" stroke="#63b8ff" points="623.48,-147.21 631.4,-140.17 620.82,-140.73 623.48,-147.21"/>
</a>
</g>
</g>
<!-- Node15&#45;&gt;Node8 -->
<g id="edge21_Node000015_Node000008" class="edge">
<title>Node15&#45;&gt;Node8</title>
<g id="a_edge21_Node000015_Node000008"><a xlink:title=" ">
<path fill="none" stroke="#63b8ff" d="M612.95,-120.99C564.6,-110.6 482.75,-92.99 430.2,-81.69"/>
<polygon fill="#63b8ff" stroke="#63b8ff" points="430.61,-78.2 420.1,-79.52 429.14,-85.04 430.61,-78.2"/>
</a>
</g>
</g>
<!-- Node16 -->
<g id="Node000016" class="node">
<title>Node16</title>
<g id="a_Node000016"><a xlink:title=" ">
<polygon fill="#e0e0e0" stroke="#999999" points="613.5,-79.5 569.5,-79.5 569.5,-60.5 613.5,-60.5 613.5,-79.5"/>
<text text-anchor="middle" x="591.5" y="-67.5" font-family="Helvetica,sans-Serif" font-size="10.00">glib.h</text>
</a>
</g>
</g>
<!-- Node15&#45;&gt;Node16 -->
<g id="edge18_Node000015_Node000016" class="edge">
<title>Node15&#45;&gt;Node16</title>
<g id="a_edge18_Node000015_Node000016"><a xlink:title=" ">
<path fill="none" stroke="#63b8ff" d="M643.5,-120.87C634.13,-111.88 619.25,-97.61 607.8,-86.64"/>
<polygon fill="#63b8ff" stroke="#63b8ff" points="610.18,-84.06 600.54,-79.67 605.33,-89.12 610.18,-84.06"/>
</a>
</g>
</g>
<!-- Node17 -->
<g id="Node000017" class="node">
<title>Node17</title>
<g id="a_Node000017"><a xlink:href="mateweather-timezone_8h.html" target="_top" xlink:title=" ">
<polygon fill="white" stroke="#666666" points="793.5,-85 631.5,-85 631.5,-55 793.5,-55 793.5,-85"/>
<text text-anchor="start" x="639.5" y="-73" font-family="Helvetica,sans-Serif" font-size="10.00">libmateweather/mateweather</text>
<text text-anchor="middle" x="712.5" y="-62" font-family="Helvetica,sans-Serif" font-size="10.00">&#45;timezone.h</text>
</a>
</g>
</g>
<!-- Node15&#45;&gt;Node17 -->
<g id="edge19_Node000015_Node000017" class="edge">
<title>Node15&#45;&gt;Node17</title>
<g id="a_edge19_Node000015_Node000017"><a xlink:title=" ">
<path fill="none" stroke="#63b8ff" d="M661.35,-120.87C669.04,-113.37 680.5,-102.2 690.63,-92.33"/>
<polygon fill="#63b8ff" stroke="#63b8ff" points="693.31,-94.6 698.02,-85.11 688.42,-89.59 693.31,-94.6"/>
</a>
</g>
</g>
<!-- Node18 -->
<g id="Node000018" class="node">
<title>Node18</title>
<g id="a_Node000018"><a xlink:title=" ">
<polygon fill="#e0e0e0" stroke="#999999" points="751,-19 674,-19 674,0 751,0 751,-19"/>
<text text-anchor="middle" x="712.5" y="-7" font-family="Helvetica,sans-Serif" font-size="10.00">glib&#45;object.h</text>
</a>
</g>
</g>
<!-- Node17&#45;&gt;Node18 -->
<g id="edge20_Node000017_Node000018" class="edge">
<title>Node17&#45;&gt;Node18</title>
<g id="a_edge20_Node000017_Node000018"><a xlink:title=" ">
<path fill="none" stroke="#63b8ff" d="M712.5,-54.84C712.5,-47.21 712.5,-37.7 712.5,-29.45"/>
<polygon fill="#63b8ff" stroke="#63b8ff" points="716,-29.27 712.5,-19.27 709,-29.27 716,-29.27"/>
</a>
</g>
</g>
</g>
</svg>
