<?xml version="1.0" encoding="UTF-8" standalone="no"?>
<!DOCTYPE svg PUBLIC "-//W3C//DTD SVG 1.1//EN"
 "http://www.w3.org/Graphics/SVG/1.1/DTD/svg11.dtd">
<!-- Generated by graphviz version 2.43.0 (0)
 -->
<!-- Title: na&#45;grid.c Pages: 1 -->
<svg width="434pt" height="258pt"
 viewBox="0.00 0.00 433.88 258.00" xmlns="http://www.w3.org/2000/svg" xmlns:xlink="http://www.w3.org/1999/xlink">
<g id="graph0" class="graph" transform="scale(1 1) rotate(0) translate(4 254)">
<title>na&#45;grid.c</title>
<!-- Node1 -->
<g id="Node000001" class="node">
<title>Node1</title>
<g id="a_Node000001"><a xlink:title=" ">
<polygon fill="#999999" stroke="#666666" points="225,-250 166,-250 166,-231 225,-231 225,-250"/>
<text text-anchor="middle" x="195.5" y="-238" font-family="Helvetica,sans-Serif" font-size="10.00">na&#45;grid.c</text>
</a>
</g>
</g>
<!-- Node2 -->
<g id="Node000002" class="node">
<title>Node2</title>
<g id="a_Node000002"><a xlink:title=" ">
<polygon fill="#e0e0e0" stroke="#999999" points="55,-129 0,-129 0,-110 55,-110 55,-129"/>
<text text-anchor="middle" x="27.5" y="-117" font-family="Helvetica,sans-Serif" font-size="10.00">config.h</text>
</a>
</g>
</g>
<!-- Node1&#45;&gt;Node2 -->
<g id="edge1_Node000001_Node000002" class="edge">
<title>Node1&#45;&gt;Node2</title>
<g id="a_edge1_Node000001_Node000002"><a xlink:title=" ">
<path fill="none" stroke="#63b8ff" d="M165.64,-231.84C142.46,-224.88 110.36,-212.92 86.5,-195 65.55,-179.26 47.88,-154.37 37.49,-137.75"/>
<polygon fill="#63b8ff" stroke="#63b8ff" points="40.41,-135.8 32.25,-129.05 34.41,-139.42 40.41,-135.8"/>
</a>
</g>
</g>
<!-- Node3 -->
<g id="Node000003" class="node">
<title>Node3</title>
<g id="a_Node000003"><a xlink:title=" ">
<polygon fill="#e0e0e0" stroke="#999999" points="296.5,-19 236.5,-19 236.5,0 296.5,0 296.5,-19"/>
<text text-anchor="middle" x="266.5" y="-7" font-family="Helvetica,sans-Serif" font-size="10.00">gtk/gtk.h</text>
</a>
</g>
</g>
<!-- Node1&#45;&gt;Node3 -->
<g id="edge2_Node000001_Node000003" class="edge">
<title>Node1&#45;&gt;Node3</title>
<g id="a_edge2_Node000001_Node000003"><a xlink:title=" ">
<path fill="none" stroke="#63b8ff" d="M225.22,-235.93C277.38,-227.82 383.55,-202.61 422.5,-129 434.22,-106.85 411.3,-62.65 403.5,-55 377.64,-29.61 337.16,-18.71 306.89,-14.02"/>
<polygon fill="#63b8ff" stroke="#63b8ff" points="307.04,-10.51 296.65,-12.61 306.08,-17.45 307.04,-10.51"/>
</a>
</g>
</g>
<!-- Node4 -->
<g id="Node000004" class="node">
<title>Node4</title>
<g id="a_Node000004"><a xlink:href="na-grid_8h.html" target="_top" xlink:title=" ">
<polygon fill="white" stroke="#666666" points="155.5,-189.5 95.5,-189.5 95.5,-170.5 155.5,-170.5 155.5,-189.5"/>
<text text-anchor="middle" x="125.5" y="-177.5" font-family="Helvetica,sans-Serif" font-size="10.00">na&#45;grid.h</text>
</a>
</g>
</g>
<!-- Node1&#45;&gt;Node4 -->
<g id="edge3_Node000001_Node000004" class="edge">
<title>Node1&#45;&gt;Node4</title>
<g id="a_edge3_Node000001_Node000004"><a xlink:title=" ">
<path fill="none" stroke="#63b8ff" d="M185.17,-230.87C174.31,-221.8 157.01,-207.34 143.83,-196.32"/>
<polygon fill="#63b8ff" stroke="#63b8ff" points="145.79,-193.39 135.87,-189.67 141.3,-198.77 145.79,-193.39"/>
</a>
</g>
</g>
<!-- Node6 -->
<g id="Node000006" class="node">
<title>Node6</title>
<g id="a_Node000006"><a xlink:href="sn-host-v0_8h.html" target="_top" xlink:title=" ">
<polygon fill="white" stroke="#666666" points="316,-195 217,-195 217,-165 316,-165 316,-195"/>
<text text-anchor="start" x="225" y="-183" font-family="Helvetica,sans-Serif" font-size="10.00">status&#45;notifier/sn</text>
<text text-anchor="middle" x="266.5" y="-172" font-family="Helvetica,sans-Serif" font-size="10.00">&#45;host&#45;v0.h</text>
</a>
</g>
</g>
<!-- Node1&#45;&gt;Node6 -->
<g id="edge7_Node000001_Node000006" class="edge">
<title>Node1&#45;&gt;Node6</title>
<g id="a_edge7_Node000001_Node000006"><a xlink:title=" ">
<path fill="none" stroke="#63b8ff" d="M205.98,-230.87C215.25,-223.22 229.17,-211.76 241.32,-201.75"/>
<polygon fill="#63b8ff" stroke="#63b8ff" points="243.88,-204.17 249.37,-195.11 239.43,-198.77 243.88,-204.17"/>
</a>
</g>
</g>
<!-- Node4&#45;&gt;Node2 -->
<g id="edge4_Node000004_Node000002" class="edge">
<title>Node4&#45;&gt;Node2</title>
<g id="a_edge4_Node000004_Node000002"><a xlink:title=" ">
<path fill="none" stroke="#63b8ff" d="M111.04,-170.37C95.19,-160.91 69.53,-145.59 50.82,-134.42"/>
<polygon fill="#63b8ff" stroke="#63b8ff" points="52.4,-131.29 42.02,-129.17 48.81,-137.3 52.4,-131.29"/>
</a>
</g>
</g>
<!-- Node4&#45;&gt;Node3 -->
<g id="edge6_Node000004_Node000003" class="edge">
<title>Node4&#45;&gt;Node3</title>
<g id="a_edge6_Node000004_Node000003"><a xlink:title=" ">
<path fill="none" stroke="#63b8ff" d="M118.02,-170.06C107.61,-156.45 91.23,-130.03 102.5,-110 128.86,-63.18 187.12,-35.86 226.62,-22.05"/>
<polygon fill="#63b8ff" stroke="#63b8ff" points="227.85,-25.33 236.22,-18.83 225.63,-18.69 227.85,-25.33"/>
</a>
</g>
</g>
<!-- Node5 -->
<g id="Node000005" class="node">
<title>Node5</title>
<g id="a_Node000005"><a xlink:title=" ">
<polygon fill="#e0e0e0" stroke="#999999" points="217.5,-129 111.5,-129 111.5,-110 217.5,-110 217.5,-129"/>
<text text-anchor="middle" x="164.5" y="-117" font-family="Helvetica,sans-Serif" font-size="10.00">gdk/gdkwayland.h</text>
</a>
</g>
</g>
<!-- Node4&#45;&gt;Node5 -->
<g id="edge5_Node000004_Node000005" class="edge">
<title>Node4&#45;&gt;Node5</title>
<g id="a_edge5_Node000004_Node000005"><a xlink:title=" ">
<path fill="none" stroke="#63b8ff" d="M131.25,-170.37C136.96,-161.81 145.85,-148.47 153.01,-137.74"/>
<polygon fill="#63b8ff" stroke="#63b8ff" points="156.09,-139.43 158.72,-129.17 150.26,-135.55 156.09,-139.43"/>
</a>
</g>
</g>
<!-- Node7 -->
<g id="Node000007" class="node">
<title>Node7</title>
<g id="a_Node000007"><a xlink:href="na-host_8h.html" target="_top" xlink:title=" ">
<polygon fill="white" stroke="#666666" points="297.5,-129 235.5,-129 235.5,-110 297.5,-110 297.5,-129"/>
<text text-anchor="middle" x="266.5" y="-117" font-family="Helvetica,sans-Serif" font-size="10.00">na&#45;host.h</text>
</a>
</g>
</g>
<!-- Node6&#45;&gt;Node7 -->
<g id="edge8_Node000006_Node000007" class="edge">
<title>Node6&#45;&gt;Node7</title>
<g id="a_edge8_Node000006_Node000007"><a xlink:title=" ">
<path fill="none" stroke="#63b8ff" d="M266.5,-164.84C266.5,-157.21 266.5,-147.7 266.5,-139.45"/>
<polygon fill="#63b8ff" stroke="#63b8ff" points="270,-139.27 266.5,-129.27 263,-139.27 270,-139.27"/>
</a>
</g>
</g>
<!-- Node9 -->
<g id="Node000009" class="node">
<title>Node9</title>
<g id="a_Node000009"><a xlink:href="sn-host-v0-gen_8h.html" target="_top" xlink:title=" ">
<polygon fill="white" stroke="#666666" points="413.5,-129 315.5,-129 315.5,-110 413.5,-110 413.5,-129"/>
<text text-anchor="middle" x="364.5" y="-117" font-family="Helvetica,sans-Serif" font-size="10.00">sn&#45;host&#45;v0&#45;gen.h</text>
</a>
</g>
</g>
<!-- Node6&#45;&gt;Node9 -->
<g id="edge11_Node000006_Node000009" class="edge">
<title>Node6&#45;&gt;Node9</title>
<g id="a_edge11_Node000006_Node000009"><a xlink:title=" ">
<path fill="none" stroke="#63b8ff" d="M290.22,-164.84C305.7,-155.6 325.82,-143.59 341.21,-134.4"/>
<polygon fill="#63b8ff" stroke="#63b8ff" points="343.31,-137.23 350.1,-129.09 339.72,-131.21 343.31,-137.23"/>
</a>
</g>
</g>
<!-- Node8 -->
<g id="Node000008" class="node">
<title>Node8</title>
<g id="a_Node000008"><a xlink:href="na-item_8h.html" target="_top" xlink:title=" ">
<polygon fill="white" stroke="#666666" points="298.5,-74 234.5,-74 234.5,-55 298.5,-55 298.5,-74"/>
<text text-anchor="middle" x="266.5" y="-62" font-family="Helvetica,sans-Serif" font-size="10.00">na&#45;item.h</text>
</a>
</g>
</g>
<!-- Node7&#45;&gt;Node8 -->
<g id="edge9_Node000007_Node000008" class="edge">
<title>Node7&#45;&gt;Node8</title>
<g id="a_edge9_Node000007_Node000008"><a xlink:title=" ">
<path fill="none" stroke="#63b8ff" d="M266.5,-109.75C266.5,-102.8 266.5,-92.85 266.5,-84.13"/>
<polygon fill="#63b8ff" stroke="#63b8ff" points="270,-84.09 266.5,-74.09 263,-84.09 270,-84.09"/>
</a>
</g>
</g>
<!-- Node8&#45;&gt;Node3 -->
<g id="edge10_Node000008_Node000003" class="edge">
<title>Node8&#45;&gt;Node3</title>
<g id="a_edge10_Node000008_Node000003"><a xlink:title=" ">
<path fill="none" stroke="#63b8ff" d="M266.5,-54.75C266.5,-47.8 266.5,-37.85 266.5,-29.13"/>
<polygon fill="#63b8ff" stroke="#63b8ff" points="270,-29.09 266.5,-19.09 263,-29.09 270,-29.09"/>
</a>
</g>
</g>
<!-- Node10 -->
<g id="Node000010" class="node">
<title>Node10</title>
<g id="a_Node000010"><a xlink:title=" ">
<polygon fill="#e0e0e0" stroke="#999999" points="394,-74 335,-74 335,-55 394,-55 394,-74"/>
<text text-anchor="middle" x="364.5" y="-62" font-family="Helvetica,sans-Serif" font-size="10.00">gio/gio.h</text>
</a>
</g>
</g>
<!-- Node9&#45;&gt;Node10 -->
<g id="edge12_Node000009_Node000010" class="edge">
<title>Node9&#45;&gt;Node10</title>
<g id="a_edge12_Node000009_Node000010"><a xlink:title=" ">
<path fill="none" stroke="#63b8ff" d="M364.5,-109.75C364.5,-102.8 364.5,-92.85 364.5,-84.13"/>
<polygon fill="#63b8ff" stroke="#63b8ff" points="368,-84.09 364.5,-74.09 361,-84.09 368,-84.09"/>
</a>
</g>
</g>
</g>
</svg>
