<?xml version="1.0" encoding="UTF-8" standalone="no"?>
<!DOCTYPE svg PUBLIC "-//W3C//DTD SVG 1.1//EN"
 "http://www.w3.org/Graphics/SVG/1.1/DTD/svg11.dtd">
<!-- Generated by graphviz version 2.43.0 (0)
 -->
<!-- Title: na&#45;settings.c Pages: 1 -->
<svg width="960pt" height="137pt"
 viewBox="0.00 0.00 960.00 137.00" xmlns="http://www.w3.org/2000/svg" xmlns:xlink="http://www.w3.org/1999/xlink">
<g id="graph0" class="graph" transform="scale(1 1) rotate(0) translate(4 133)">
<title>na&#45;settings.c</title>
<!-- Node1 -->
<g id="Node000001" class="node">
<title>Node1</title>
<g id="a_Node000001"><a xlink:title=" ">
<polygon fill="#999999" stroke="#666666" points="435.5,-129 355.5,-129 355.5,-110 435.5,-110 435.5,-129"/>
<text text-anchor="middle" x="395.5" y="-117" font-family="Helvetica,sans-Serif" font-size="10.00">na&#45;settings.c</text>
</a>
</g>
</g>
<!-- Node2 -->
<g id="Node000002" class="node">
<title>Node2</title>
<g id="a_Node000002"><a xlink:title=" ">
<polygon fill="#e0e0e0" stroke="#999999" points="59,-74 0,-74 0,-55 59,-55 59,-74"/>
<text text-anchor="middle" x="29.5" y="-62" font-family="Helvetica,sans-Serif" font-size="10.00">gio/gio.h</text>
</a>
</g>
</g>
<!-- Node1&#45;&gt;Node2 -->
<g id="edge1_Node000001_Node000002" class="edge">
<title>Node1&#45;&gt;Node2</title>
<g id="a_edge1_Node000001_Node000002"><a xlink:title=" ">
<path fill="none" stroke="#63b8ff" d="M355.44,-114.18C295.35,-107.46 178.1,-93.4 69.47,-74.23"/>
<polygon fill="#63b8ff" stroke="#63b8ff" points="69.78,-70.73 59.32,-72.42 68.55,-77.62 69.78,-70.73"/>
</a>
</g>
</g>
<!-- Node3 -->
<g id="Node000003" class="node">
<title>Node3</title>
<g id="a_Node000003"><a xlink:title=" ">
<polygon fill="#e0e0e0" stroke="#999999" points="130,-74 77,-74 77,-55 130,-55 130,-74"/>
<text text-anchor="middle" x="103.5" y="-62" font-family="Helvetica,sans-Serif" font-size="10.00">stdlib.h</text>
</a>
</g>
</g>
<!-- Node1&#45;&gt;Node3 -->
<g id="edge2_Node000001_Node000003" class="edge">
<title>Node1&#45;&gt;Node3</title>
<g id="a_edge2_Node000001_Node000003"><a xlink:title=" ">
<path fill="none" stroke="#63b8ff" d="M355.28,-112.39C306.54,-104.79 221.71,-90.98 140.14,-74.24"/>
<polygon fill="#63b8ff" stroke="#63b8ff" points="140.71,-70.78 130.21,-72.18 139.29,-77.64 140.71,-70.78"/>
</a>
</g>
</g>
<!-- Node4 -->
<g id="Node000004" class="node">
<title>Node4</title>
<g id="a_Node000004"><a xlink:title=" ">
<polygon fill="#e0e0e0" stroke="#999999" points="201,-74 148,-74 148,-55 201,-55 201,-74"/>
<text text-anchor="middle" x="174.5" y="-62" font-family="Helvetica,sans-Serif" font-size="10.00">string.h</text>
</a>
</g>
</g>
<!-- Node1&#45;&gt;Node4 -->
<g id="edge3_Node000001_Node000004" class="edge">
<title>Node1&#45;&gt;Node4</title>
<g id="a_edge3_Node000001_Node000004"><a xlink:title=" ">
<path fill="none" stroke="#63b8ff" d="M359.49,-109.92C324.06,-101.48 268.17,-88.13 211.15,-74.39"/>
<polygon fill="#63b8ff" stroke="#63b8ff" points="211.79,-70.95 201.25,-72.01 210.15,-77.75 211.79,-70.95"/>
</a>
</g>
</g>
<!-- Node5 -->
<g id="Node000005" class="node">
<title>Node5</title>
<g id="a_Node000005"><a xlink:title=" ">
<polygon fill="#e0e0e0" stroke="#999999" points="278,-74 219,-74 219,-55 278,-55 278,-74"/>
<text text-anchor="middle" x="248.5" y="-62" font-family="Helvetica,sans-Serif" font-size="10.00">strings.h</text>
</a>
</g>
</g>
<!-- Node1&#45;&gt;Node5 -->
<g id="edge4_Node000001_Node000005" class="edge">
<title>Node1&#45;&gt;Node5</title>
<g id="a_edge4_Node000001_Node000005"><a xlink:title=" ">
<path fill="none" stroke="#63b8ff" d="M371.88,-109.98C347.6,-101.23 309.55,-87.51 282.13,-77.62"/>
<polygon fill="#63b8ff" stroke="#63b8ff" points="283.14,-74.27 272.55,-74.17 280.77,-80.85 283.14,-74.27"/>
</a>
</g>
</g>
<!-- Node6 -->
<g id="Node000006" class="node">
<title>Node6</title>
<g id="a_Node000006"><a xlink:href="na-boxed_8h.html" target="_top" xlink:title=" ">
<polygon fill="white" stroke="#666666" points="385,-74 296,-74 296,-55 385,-55 385,-74"/>
<text text-anchor="middle" x="340.5" y="-62" font-family="Helvetica,sans-Serif" font-size="10.00">api/na&#45;boxed.h</text>
</a>
</g>
</g>
<!-- Node1&#45;&gt;Node6 -->
<g id="edge5_Node000001_Node000006" class="edge">
<title>Node1&#45;&gt;Node6</title>
<g id="a_edge5_Node000001_Node000006"><a xlink:title=" ">
<path fill="none" stroke="#63b8ff" d="M386.42,-109.75C378.41,-102.03 366.54,-90.6 356.88,-81.28"/>
<polygon fill="#63b8ff" stroke="#63b8ff" points="359.04,-78.51 349.41,-74.09 354.19,-83.55 359.04,-78.51"/>
</a>
</g>
</g>
<!-- Node8 -->
<g id="Node000008" class="node">
<title>Node8</title>
<g id="a_Node000008"><a xlink:href="na-data-types_8h.html" target="_top" xlink:title=" ">
<polygon fill="white" stroke="#666666" points="828.5,-74 716.5,-74 716.5,-55 828.5,-55 828.5,-74"/>
<text text-anchor="middle" x="772.5" y="-62" font-family="Helvetica,sans-Serif" font-size="10.00">api/na&#45;data&#45;types.h</text>
</a>
</g>
</g>
<!-- Node1&#45;&gt;Node8 -->
<g id="edge7_Node000001_Node000008" class="edge">
<title>Node1&#45;&gt;Node8</title>
<g id="a_edge7_Node000001_Node000008"><a xlink:title=" ">
<path fill="none" stroke="#63b8ff" d="M435.85,-112.83C500.47,-103.74 627.86,-85.83 706.07,-74.84"/>
<polygon fill="#63b8ff" stroke="#63b8ff" points="706.88,-78.26 716.29,-73.4 705.9,-71.33 706.88,-78.26"/>
</a>
</g>
</g>
<!-- Node10 -->
<g id="Node000010" class="node">
<title>Node10</title>
<g id="a_Node000010"><a xlink:href="na-core-utils_8h.html" target="_top" xlink:title=" ">
<polygon fill="white" stroke="#666666" points="952,-74 847,-74 847,-55 952,-55 952,-74"/>
<text text-anchor="middle" x="899.5" y="-62" font-family="Helvetica,sans-Serif" font-size="10.00">api/na&#45;core&#45;utils.h</text>
</a>
</g>
</g>
<!-- Node1&#45;&gt;Node10 -->
<g id="edge9_Node000001_Node000010" class="edge">
<title>Node1&#45;&gt;Node10</title>
<g id="a_edge9_Node000001_Node000010"><a xlink:title=" ">
<path fill="none" stroke="#63b8ff" d="M435.78,-114.93C511.86,-108.09 682.17,-92.27 836.6,-74.07"/>
<polygon fill="#63b8ff" stroke="#63b8ff" points="837.23,-77.52 846.75,-72.86 836.41,-70.56 837.23,-77.52"/>
</a>
</g>
</g>
<!-- Node11 -->
<g id="Node000011" class="node">
<title>Node11</title>
<g id="a_Node000011"><a xlink:href="na-timeout_8h.html" target="_top" xlink:title=" ">
<polygon fill="white" stroke="#666666" points="500.5,-74 402.5,-74 402.5,-55 500.5,-55 500.5,-74"/>
<text text-anchor="middle" x="451.5" y="-62" font-family="Helvetica,sans-Serif" font-size="10.00">api/na&#45;timeout.h</text>
</a>
</g>
</g>
<!-- Node1&#45;&gt;Node11 -->
<g id="edge11_Node000001_Node000011" class="edge">
<title>Node1&#45;&gt;Node11</title>
<g id="a_edge11_Node000001_Node000011"><a xlink:title=" ">
<path fill="none" stroke="#63b8ff" d="M404.5,-109.98C412.69,-102.23 425.01,-90.58 434.97,-81.14"/>
<polygon fill="#63b8ff" stroke="#63b8ff" points="437.48,-83.59 442.34,-74.17 432.67,-78.5 437.48,-83.59"/>
</a>
</g>
</g>
<!-- Node12 -->
<g id="Node000012" class="node">
<title>Node12</title>
<g id="a_Node000012"><a xlink:href="na-settings_8h.html" target="_top" xlink:title=" ">
<polygon fill="white" stroke="#666666" points="598.5,-74 518.5,-74 518.5,-55 598.5,-55 598.5,-74"/>
<text text-anchor="middle" x="558.5" y="-62" font-family="Helvetica,sans-Serif" font-size="10.00">na&#45;settings.h</text>
</a>
</g>
</g>
<!-- Node1&#45;&gt;Node12 -->
<g id="edge13_Node000001_Node000012" class="edge">
<title>Node1&#45;&gt;Node12</title>
<g id="a_edge13_Node000001_Node000012"><a xlink:title=" ">
<path fill="none" stroke="#63b8ff" d="M421.69,-109.98C448.94,-101.13 491.8,-87.19 522.28,-77.28"/>
<polygon fill="#63b8ff" stroke="#63b8ff" points="523.68,-80.5 532.11,-74.08 521.51,-73.85 523.68,-80.5"/>
</a>
</g>
</g>
<!-- Node13 -->
<g id="Node000013" class="node">
<title>Node13</title>
<g id="a_Node000013"><a xlink:href="na-marshal_8h.html" target="_top" xlink:title=" ">
<polygon fill="white" stroke="#666666" points="698,-74 617,-74 617,-55 698,-55 698,-74"/>
<text text-anchor="middle" x="657.5" y="-62" font-family="Helvetica,sans-Serif" font-size="10.00">na&#45;marshal.h</text>
</a>
</g>
</g>
<!-- Node1&#45;&gt;Node13 -->
<g id="edge15_Node000001_Node000013" class="edge">
<title>Node1&#45;&gt;Node13</title>
<g id="a_edge15_Node000001_Node000013"><a xlink:title=" ">
<path fill="none" stroke="#63b8ff" d="M435.58,-110.39C481.58,-101.09 557.09,-85.81 607.05,-75.71"/>
<polygon fill="#63b8ff" stroke="#63b8ff" points="607.89,-79.11 617,-73.69 606.5,-72.25 607.89,-79.11"/>
</a>
</g>
</g>
<!-- Node7 -->
<g id="Node000007" class="node">
<title>Node7</title>
<g id="a_Node000007"><a xlink:title=" ">
<polygon fill="#e0e0e0" stroke="#999999" points="544,-19 467,-19 467,0 544,0 544,-19"/>
<text text-anchor="middle" x="505.5" y="-7" font-family="Helvetica,sans-Serif" font-size="10.00">glib&#45;object.h</text>
</a>
</g>
</g>
<!-- Node6&#45;&gt;Node7 -->
<g id="edge6_Node000006_Node000007" class="edge">
<title>Node6&#45;&gt;Node7</title>
<g id="a_edge6_Node000006_Node000007"><a xlink:title=" ">
<path fill="none" stroke="#63b8ff" d="M367.01,-54.98C394.71,-46.09 438.36,-32.07 469.24,-22.15"/>
<polygon fill="#63b8ff" stroke="#63b8ff" points="470.33,-25.47 478.78,-19.08 468.19,-18.81 470.33,-25.47"/>
</a>
</g>
</g>
<!-- Node9 -->
<g id="Node000009" class="node">
<title>Node9</title>
<g id="a_Node000009"><a xlink:title=" ">
<polygon fill="#e0e0e0" stroke="#999999" points="857.5,-19 813.5,-19 813.5,0 857.5,0 857.5,-19"/>
<text text-anchor="middle" x="835.5" y="-7" font-family="Helvetica,sans-Serif" font-size="10.00">glib.h</text>
</a>
</g>
</g>
<!-- Node8&#45;&gt;Node9 -->
<g id="edge8_Node000008_Node000009" class="edge">
<title>Node8&#45;&gt;Node9</title>
<g id="a_edge8_Node000008_Node000009"><a xlink:title=" ">
<path fill="none" stroke="#63b8ff" d="M782.62,-54.98C791.94,-47.15 805.97,-35.34 817.24,-25.86"/>
<polygon fill="#63b8ff" stroke="#63b8ff" points="819.79,-28.29 825.19,-19.17 815.29,-22.93 819.79,-28.29"/>
</a>
</g>
</g>
<!-- Node10&#45;&gt;Node9 -->
<g id="edge10_Node000010_Node000009" class="edge">
<title>Node10&#45;&gt;Node9</title>
<g id="a_edge10_Node000010_Node000009"><a xlink:title=" ">
<path fill="none" stroke="#63b8ff" d="M889.22,-54.98C879.66,-47.07 865.22,-35.11 853.72,-25.58"/>
<polygon fill="#63b8ff" stroke="#63b8ff" points="855.9,-22.85 845.97,-19.17 851.44,-28.24 855.9,-22.85"/>
</a>
</g>
</g>
<!-- Node11&#45;&gt;Node7 -->
<g id="edge12_Node000011_Node000007" class="edge">
<title>Node11&#45;&gt;Node7</title>
<g id="a_edge12_Node000011_Node000007"><a xlink:title=" ">
<path fill="none" stroke="#63b8ff" d="M460.42,-54.75C468.28,-47.03 479.93,-35.6 489.42,-26.28"/>
<polygon fill="#63b8ff" stroke="#63b8ff" points="492.06,-28.59 496.75,-19.09 487.16,-23.6 492.06,-28.59"/>
</a>
</g>
</g>
<!-- Node12&#45;&gt;Node7 -->
<g id="edge14_Node000012_Node000007" class="edge">
<title>Node12&#45;&gt;Node7</title>
<g id="a_edge14_Node000012_Node000007"><a xlink:title=" ">
<path fill="none" stroke="#63b8ff" d="M549.75,-54.75C542.03,-47.03 530.6,-35.6 521.28,-26.28"/>
<polygon fill="#63b8ff" stroke="#63b8ff" points="523.64,-23.69 514.09,-19.09 518.69,-28.64 523.64,-23.69"/>
</a>
</g>
</g>
<!-- Node13&#45;&gt;Node7 -->
<g id="edge16_Node000013_Node000007" class="edge">
<title>Node13&#45;&gt;Node7</title>
<g id="a_edge16_Node000013_Node000007"><a xlink:title=" ">
<path fill="none" stroke="#63b8ff" d="M633.08,-54.98C607.78,-46.16 568.05,-32.31 539.64,-22.41"/>
<polygon fill="#63b8ff" stroke="#63b8ff" points="540.71,-19.07 530.11,-19.08 538.4,-25.68 540.71,-19.07"/>
</a>
</g>
</g>
</g>
</svg>
