<?xml version="1.0" encoding="UTF-8" standalone="no"?>
<!DOCTYPE svg PUBLIC "-//W3C//DTD SVG 1.1//EN"
 "http://www.w3.org/Graphics/SVG/1.1/DTD/svg11.dtd">
<!-- Generated by graphviz version 2.43.0 (0)
 -->
<!-- Title: na&#45;tray&#45;manager.c Pages: 1 -->
<svg width="702pt" height="192pt"
 viewBox="0.00 0.00 702.00 192.00" xmlns="http://www.w3.org/2000/svg" xmlns:xlink="http://www.w3.org/1999/xlink">
<g id="graph0" class="graph" transform="scale(1 1) rotate(0) translate(4 188)">
<title>na&#45;tray&#45;manager.c</title>
<!-- Node1 -->
<g id="Node000001" class="node">
<title>Node1</title>
<g id="a_Node000001"><a xlink:title=" ">
<polygon fill="#999999" stroke="#666666" points="360,-184 253,-184 253,-165 360,-165 360,-184"/>
<text text-anchor="middle" x="306.5" y="-172" font-family="Helvetica,sans-Serif" font-size="10.00">na&#45;tray&#45;manager.c</text>
</a>
</g>
</g>
<!-- Node2 -->
<g id="Node000002" class="node">
<title>Node2</title>
<g id="a_Node000002"><a xlink:title=" ">
<polygon fill="#e0e0e0" stroke="#999999" points="55,-19 0,-19 0,0 55,0 55,-19"/>
<text text-anchor="middle" x="27.5" y="-7" font-family="Helvetica,sans-Serif" font-size="10.00">config.h</text>
</a>
</g>
</g>
<!-- Node1&#45;&gt;Node2 -->
<g id="edge1_Node000001_Node000002" class="edge">
<title>Node1&#45;&gt;Node2</title>
<g id="a_edge1_Node000001_Node000002"><a xlink:title=" ">
<path fill="none" stroke="#63b8ff" d="M252.91,-167.44C198.36,-160.38 118.38,-147.3 93.5,-129 59.31,-103.85 40.55,-55.37 32.44,-28.88"/>
<polygon fill="#63b8ff" stroke="#63b8ff" points="35.72,-27.65 29.6,-19.01 29,-29.58 35.72,-27.65"/>
</a>
</g>
</g>
<!-- Node3 -->
<g id="Node000003" class="node">
<title>Node3</title>
<g id="a_Node000003"><a xlink:title=" ">
<polygon fill="#e0e0e0" stroke="#999999" points="333,-129 280,-129 280,-110 333,-110 333,-129"/>
<text text-anchor="middle" x="306.5" y="-117" font-family="Helvetica,sans-Serif" font-size="10.00">string.h</text>
</a>
</g>
</g>
<!-- Node1&#45;&gt;Node3 -->
<g id="edge2_Node000001_Node000003" class="edge">
<title>Node1&#45;&gt;Node3</title>
<g id="a_edge2_Node000001_Node000003"><a xlink:title=" ">
<path fill="none" stroke="#63b8ff" d="M306.5,-164.75C306.5,-157.8 306.5,-147.85 306.5,-139.13"/>
<polygon fill="#63b8ff" stroke="#63b8ff" points="310,-139.09 306.5,-129.09 303,-139.09 310,-139.09"/>
</a>
</g>
</g>
<!-- Node4 -->
<g id="Node000004" class="node">
<title>Node4</title>
<g id="a_Node000004"><a xlink:title=" ">
<polygon fill="#e0e0e0" stroke="#999999" points="404,-129 351,-129 351,-110 404,-110 404,-129"/>
<text text-anchor="middle" x="377.5" y="-117" font-family="Helvetica,sans-Serif" font-size="10.00">libintl.h</text>
</a>
</g>
</g>
<!-- Node1&#45;&gt;Node4 -->
<g id="edge3_Node000001_Node000004" class="edge">
<title>Node1&#45;&gt;Node4</title>
<g id="a_edge3_Node000001_Node000004"><a xlink:title=" ">
<path fill="none" stroke="#63b8ff" d="M317.91,-164.98C328.61,-157 344.84,-144.88 357.66,-135.31"/>
<polygon fill="#63b8ff" stroke="#63b8ff" points="359.97,-137.96 365.89,-129.17 355.78,-132.35 359.97,-137.96"/>
</a>
</g>
</g>
<!-- Node5 -->
<g id="Node000005" class="node">
<title>Node5</title>
<g id="a_Node000005"><a xlink:href="na-tray-manager_8h.html" target="_top" xlink:title=" ">
<polygon fill="white" stroke="#666666" points="223,-129 116,-129 116,-110 223,-110 223,-129"/>
<text text-anchor="middle" x="169.5" y="-117" font-family="Helvetica,sans-Serif" font-size="10.00">na&#45;tray&#45;manager.h</text>
</a>
</g>
</g>
<!-- Node1&#45;&gt;Node5 -->
<g id="edge4_Node000001_Node000005" class="edge">
<title>Node1&#45;&gt;Node5</title>
<g id="a_edge4_Node000001_Node000005"><a xlink:title=" ">
<path fill="none" stroke="#63b8ff" d="M284.49,-164.98C262.05,-156.3 227.02,-142.75 201.51,-132.88"/>
<polygon fill="#63b8ff" stroke="#63b8ff" points="202.5,-129.51 191.91,-129.17 199.98,-136.04 202.5,-129.51"/>
</a>
</g>
</g>
<!-- Node6 -->
<g id="Node000006" class="node">
<title>Node6</title>
<g id="a_Node000006"><a xlink:title=" ">
<polygon fill="#e0e0e0" stroke="#999999" points="133.5,-19 73.5,-19 73.5,0 133.5,0 133.5,-19"/>
<text text-anchor="middle" x="103.5" y="-7" font-family="Helvetica,sans-Serif" font-size="10.00">gtk/gtk.h</text>
</a>
</g>
</g>
<!-- Node1&#45;&gt;Node6 -->
<g id="edge11_Node000001_Node000006" class="edge">
<title>Node1&#45;&gt;Node6</title>
<g id="a_edge11_Node000001_Node000006"><a xlink:title=" ">
<path fill="none" stroke="#63b8ff" d="M252.81,-168.91C200.04,-163.16 124.81,-151.25 106.5,-129 83.26,-100.76 90.84,-54.63 97.65,-29.05"/>
<polygon fill="#63b8ff" stroke="#63b8ff" points="101.09,-29.75 100.52,-19.17 94.37,-27.8 101.09,-29.75"/>
</a>
</g>
</g>
<!-- Node8 -->
<g id="Node000008" class="node">
<title>Node8</title>
<g id="a_Node000008"><a xlink:title=" ">
<polygon fill="#e0e0e0" stroke="#999999" points="307,-19 236,-19 236,0 307,0 307,-19"/>
<text text-anchor="middle" x="271.5" y="-7" font-family="Helvetica,sans-Serif" font-size="10.00">gdk/gdkx.h</text>
</a>
</g>
</g>
<!-- Node1&#45;&gt;Node8 -->
<g id="edge13_Node000001_Node000008" class="edge">
<title>Node1&#45;&gt;Node8</title>
<g id="a_edge13_Node000001_Node000008"><a xlink:title=" ">
<path fill="none" stroke="#63b8ff" d="M296.34,-164.81C287.6,-156.6 275.6,-143.43 270.5,-129 258.59,-95.35 263.29,-52.87 267.55,-29"/>
<polygon fill="#63b8ff" stroke="#63b8ff" points="270.99,-29.65 269.47,-19.16 264.12,-28.3 270.99,-29.65"/>
</a>
</g>
</g>
<!-- Node10 -->
<g id="Node000010" class="node">
<title>Node10</title>
<g id="a_Node000010"><a xlink:title=" ">
<polygon fill="#e0e0e0" stroke="#999999" points="496.5,-129 422.5,-129 422.5,-110 496.5,-110 496.5,-129"/>
<text text-anchor="middle" x="459.5" y="-117" font-family="Helvetica,sans-Serif" font-size="10.00">glib/gi18n.h</text>
</a>
</g>
</g>
<!-- Node1&#45;&gt;Node10 -->
<g id="edge12_Node000001_Node000010" class="edge">
<title>Node1&#45;&gt;Node10</title>
<g id="a_edge12_Node000001_Node000010"><a xlink:title=" ">
<path fill="none" stroke="#63b8ff" d="M331.08,-164.98C356.55,-156.16 396.54,-142.31 425.13,-132.41"/>
<polygon fill="#63b8ff" stroke="#63b8ff" points="426.42,-135.66 434.73,-129.08 424.13,-129.05 426.42,-135.66"/>
</a>
</g>
</g>
<!-- Node11 -->
<g id="Node000011" class="node">
<title>Node11</title>
<g id="a_Node000011"><a xlink:title=" ">
<polygon fill="#e0e0e0" stroke="#999999" points="594.5,-129 514.5,-129 514.5,-110 594.5,-110 594.5,-129"/>
<text text-anchor="middle" x="554.5" y="-117" font-family="Helvetica,sans-Serif" font-size="10.00">X11/Xatom.h</text>
</a>
</g>
</g>
<!-- Node1&#45;&gt;Node11 -->
<g id="edge14_Node000001_Node000011" class="edge">
<title>Node1&#45;&gt;Node11</title>
<g id="a_edge14_Node000001_Node000011"><a xlink:title=" ">
<path fill="none" stroke="#63b8ff" d="M346.35,-164.98C389.33,-155.8 457.87,-141.15 504.46,-131.19"/>
<polygon fill="#63b8ff" stroke="#63b8ff" points="505.29,-134.59 514.34,-129.08 503.83,-127.75 505.29,-134.59"/>
</a>
</g>
</g>
<!-- Node12 -->
<g id="Node000012" class="node">
<title>Node12</title>
<g id="a_Node000012"><a xlink:href="na-marshal_8h.html" target="_top" xlink:title=" ">
<polygon fill="white" stroke="#666666" points="694,-129 613,-129 613,-110 694,-110 694,-129"/>
<text text-anchor="middle" x="653.5" y="-117" font-family="Helvetica,sans-Serif" font-size="10.00">na&#45;marshal.h</text>
</a>
</g>
</g>
<!-- Node1&#45;&gt;Node12 -->
<g id="edge15_Node000001_Node000012" class="edge">
<title>Node1&#45;&gt;Node12</title>
<g id="a_edge15_Node000001_Node000012"><a xlink:title=" ">
<path fill="none" stroke="#63b8ff" d="M360.2,-165.78C417.63,-157.45 511.65,-143.6 602.89,-129.07"/>
<polygon fill="#63b8ff" stroke="#63b8ff" points="603.53,-132.51 612.85,-127.48 602.43,-125.6 603.53,-132.51"/>
</a>
</g>
</g>
<!-- Node5&#45;&gt;Node6 -->
<g id="edge5_Node000005_Node000006" class="edge">
<title>Node5&#45;&gt;Node6</title>
<g id="a_edge5_Node000005_Node000006"><a xlink:title=" ">
<path fill="none" stroke="#63b8ff" d="M159,-109.94C149.4,-101.63 135.37,-88.22 126.5,-74 117.77,-60.01 111.69,-42.23 107.99,-29.04"/>
<polygon fill="#63b8ff" stroke="#63b8ff" points="111.34,-28.02 105.42,-19.23 104.56,-29.79 111.34,-28.02"/>
</a>
</g>
</g>
<!-- Node7 -->
<g id="Node000007" class="node">
<title>Node7</title>
<g id="a_Node000007"><a xlink:href="na-tray-child_8h.html" target="_top" xlink:title=" ">
<polygon fill="white" stroke="#666666" points="223.5,-74 135.5,-74 135.5,-55 223.5,-55 223.5,-74"/>
<text text-anchor="middle" x="179.5" y="-62" font-family="Helvetica,sans-Serif" font-size="10.00">na&#45;tray&#45;child.h</text>
</a>
</g>
</g>
<!-- Node5&#45;&gt;Node7 -->
<g id="edge6_Node000005_Node000007" class="edge">
<title>Node5&#45;&gt;Node7</title>
<g id="a_edge6_Node000005_Node000007"><a xlink:title=" ">
<path fill="none" stroke="#63b8ff" d="M171.15,-109.75C172.46,-102.8 174.34,-92.85 175.98,-84.13"/>
<polygon fill="#63b8ff" stroke="#63b8ff" points="179.46,-84.56 177.88,-74.09 172.59,-83.27 179.46,-84.56"/>
</a>
</g>
</g>
<!-- Node7&#45;&gt;Node2 -->
<g id="edge7_Node000007_Node000002" class="edge">
<title>Node7&#45;&gt;Node2</title>
<g id="a_edge7_Node000007_Node000002"><a xlink:title=" ">
<path fill="none" stroke="#63b8ff" d="M155.08,-54.98C129.78,-46.16 90.05,-32.31 61.64,-22.41"/>
<polygon fill="#63b8ff" stroke="#63b8ff" points="62.71,-19.07 52.11,-19.08 60.4,-25.68 62.71,-19.07"/>
</a>
</g>
</g>
<!-- Node7&#45;&gt;Node6 -->
<g id="edge8_Node000007_Node000006" class="edge">
<title>Node7&#45;&gt;Node6</title>
<g id="a_edge8_Node000007_Node000006"><a xlink:title=" ">
<path fill="none" stroke="#63b8ff" d="M167.29,-54.98C155.72,-46.92 138.12,-34.65 124.34,-25.03"/>
<polygon fill="#63b8ff" stroke="#63b8ff" points="126.14,-22.02 115.93,-19.17 122.13,-27.76 126.14,-22.02"/>
</a>
</g>
</g>
<!-- Node7&#45;&gt;Node8 -->
<g id="edge9_Node000007_Node000008" class="edge">
<title>Node7&#45;&gt;Node8</title>
<g id="a_edge9_Node000007_Node000008"><a xlink:title=" ">
<path fill="none" stroke="#63b8ff" d="M194.28,-54.98C208.68,-46.69 230.81,-33.94 247.69,-24.22"/>
<polygon fill="#63b8ff" stroke="#63b8ff" points="249.53,-27.19 256.45,-19.17 246.04,-21.13 249.53,-27.19"/>
</a>
</g>
</g>
<!-- Node9 -->
<g id="Node000009" class="node">
<title>Node9</title>
<g id="a_Node000009"><a xlink:title=" ">
<polygon fill="#e0e0e0" stroke="#999999" points="217.5,-19 151.5,-19 151.5,0 217.5,0 217.5,-19"/>
<text text-anchor="middle" x="184.5" y="-7" font-family="Helvetica,sans-Serif" font-size="10.00">gtk/gtkx.h</text>
</a>
</g>
</g>
<!-- Node7&#45;&gt;Node9 -->
<g id="edge10_Node000007_Node000009" class="edge">
<title>Node7&#45;&gt;Node9</title>
<g id="a_edge10_Node000007_Node000009"><a xlink:title=" ">
<path fill="none" stroke="#63b8ff" d="M180.33,-54.75C180.98,-47.8 181.92,-37.85 182.74,-29.13"/>
<polygon fill="#63b8ff" stroke="#63b8ff" points="186.23,-29.37 183.69,-19.09 179.27,-28.72 186.23,-29.37"/>
</a>
</g>
</g>
<!-- Node13 -->
<g id="Node000013" class="node">
<title>Node13</title>
<g id="a_Node000013"><a xlink:title=" ">
<polygon fill="#e0e0e0" stroke="#999999" points="692,-74 615,-74 615,-55 692,-55 692,-74"/>
<text text-anchor="middle" x="653.5" y="-62" font-family="Helvetica,sans-Serif" font-size="10.00">glib&#45;object.h</text>
</a>
</g>
</g>
<!-- Node12&#45;&gt;Node13 -->
<g id="edge16_Node000012_Node000013" class="edge">
<title>Node12&#45;&gt;Node13</title>
<g id="a_edge16_Node000012_Node000013"><a xlink:title=" ">
<path fill="none" stroke="#63b8ff" d="M653.5,-109.75C653.5,-102.8 653.5,-92.85 653.5,-84.13"/>
<polygon fill="#63b8ff" stroke="#63b8ff" points="657,-84.09 653.5,-74.09 650,-84.09 657,-84.09"/>
</a>
</g>
</g>
</g>
</svg>
