<?xml version="1.0" encoding="UTF-8" standalone="no"?>
<!DOCTYPE svg PUBLIC "-//W3C//DTD SVG 1.1//EN"
 "http://www.w3.org/Graphics/SVG/1.1/DTD/svg11.dtd">
<!-- Generated by graphviz version 2.43.0 (0)
 -->
<!-- Title: obexpush.c Pages: 1 -->
<svg width="1348pt" height="137pt"
 viewBox="0.00 0.00 1348.00 137.00" xmlns="http://www.w3.org/2000/svg" xmlns:xlink="http://www.w3.org/1999/xlink">
<g id="graph0" class="graph" transform="scale(1 1) rotate(0) translate(4 133)">
<title>obexpush.c</title>
<!-- Node1 -->
<g id="Node000001" class="node">
<title>Node1</title>
<g id="a_Node000001"><a xlink:title=" ">
<polygon fill="#999999" stroke="#666666" points="646.5,-129 574.5,-129 574.5,-110 646.5,-110 646.5,-129"/>
<text text-anchor="middle" x="610.5" y="-117" font-family="Helvetica,sans-Serif" font-size="10.00">obexpush.c</text>
</a>
</g>
</g>
<!-- Node2 -->
<g id="Node000002" class="node">
<title>Node2</title>
<g id="a_Node000002"><a xlink:title=" ">
<polygon fill="#e0e0e0" stroke="#999999" points="55,-74 0,-74 0,-55 55,-55 55,-74"/>
<text text-anchor="middle" x="27.5" y="-62" font-family="Helvetica,sans-Serif" font-size="10.00">config.h</text>
</a>
</g>
</g>
<!-- Node1&#45;&gt;Node2 -->
<g id="edge1_Node000001_Node000002" class="edge">
<title>Node1&#45;&gt;Node2</title>
<g id="a_edge1_Node000001_Node000002"><a xlink:title=" ">
<path fill="none" stroke="#63b8ff" d="M574.44,-117.44C488.02,-114.51 262.22,-104.49 65.27,-74.07"/>
<polygon fill="#63b8ff" stroke="#63b8ff" points="65.75,-70.6 55.33,-72.51 64.66,-77.51 65.75,-70.6"/>
</a>
</g>
</g>
<!-- Node3 -->
<g id="Node000003" class="node">
<title>Node3</title>
<g id="a_Node000003"><a xlink:title=" ">
<polygon fill="#e0e0e0" stroke="#999999" points="1189.5,-19 1145.5,-19 1145.5,0 1189.5,0 1189.5,-19"/>
<text text-anchor="middle" x="1167.5" y="-7" font-family="Helvetica,sans-Serif" font-size="10.00">glib.h</text>
</a>
</g>
</g>
<!-- Node1&#45;&gt;Node3 -->
<g id="edge2_Node000001_Node000003" class="edge">
<title>Node1&#45;&gt;Node3</title>
<g id="a_edge2_Node000001_Node000003"><a xlink:title=" ">
<path fill="none" stroke="#63b8ff" d="M646.85,-117.83C761.4,-115.41 1109.64,-105.51 1148.5,-74 1161.62,-63.36 1165.94,-44.05 1167.24,-29.51"/>
<polygon fill="#63b8ff" stroke="#63b8ff" points="1170.75,-29.28 1167.74,-19.12 1163.76,-28.94 1170.75,-29.28"/>
</a>
</g>
</g>
<!-- Node4 -->
<g id="Node000004" class="node">
<title>Node4</title>
<g id="a_Node000004"><a xlink:title=" ">
<polygon fill="#e0e0e0" stroke="#999999" points="230.5,-74 156.5,-74 156.5,-55 230.5,-55 230.5,-74"/>
<text text-anchor="middle" x="193.5" y="-62" font-family="Helvetica,sans-Serif" font-size="10.00">glib/gi18n.h</text>
</a>
</g>
</g>
<!-- Node1&#45;&gt;Node4 -->
<g id="edge3_Node000001_Node000004" class="edge">
<title>Node1&#45;&gt;Node4</title>
<g id="a_edge3_Node000001_Node000004"><a xlink:title=" ">
<path fill="none" stroke="#63b8ff" d="M574.33,-114.64C508.55,-107.5 365.03,-91.36 244.5,-74 243.23,-73.82 241.93,-73.63 240.63,-73.43"/>
<polygon fill="#63b8ff" stroke="#63b8ff" points="240.94,-69.94 230.52,-71.87 239.86,-76.86 240.94,-69.94"/>
</a>
</g>
</g>
<!-- Node5 -->
<g id="Node000005" class="node">
<title>Node5</title>
<g id="a_Node000005"><a xlink:title=" ">
<polygon fill="#e0e0e0" stroke="#999999" points="697,-19 638,-19 638,0 697,0 697,-19"/>
<text text-anchor="middle" x="667.5" y="-7" font-family="Helvetica,sans-Serif" font-size="10.00">gio/gio.h</text>
</a>
</g>
</g>
<!-- Node1&#45;&gt;Node5 -->
<g id="edge4_Node000001_Node000005" class="edge">
<title>Node1&#45;&gt;Node5</title>
<g id="a_edge4_Node000001_Node000005"><a xlink:title=" ">
<path fill="none" stroke="#63b8ff" d="M574.41,-119.34C496.53,-120.29 316.65,-117.6 278.5,-74 272.94,-67.64 272.88,-61.3 278.5,-55 301.51,-29.21 533.47,-16.31 627.86,-12.1"/>
<polygon fill="#63b8ff" stroke="#63b8ff" points="628.04,-15.59 637.88,-11.66 627.74,-8.6 628.04,-15.59"/>
</a>
</g>
</g>
<!-- Node6 -->
<g id="Node000006" class="node">
<title>Node6</title>
<g id="a_Node000006"><a xlink:title=" ">
<polygon fill="#e0e0e0" stroke="#999999" points="352,-74 287,-74 287,-55 352,-55 352,-74"/>
<text text-anchor="middle" x="319.5" y="-62" font-family="Helvetica,sans-Serif" font-size="10.00">gdk/gdk.h</text>
</a>
</g>
</g>
<!-- Node1&#45;&gt;Node6 -->
<g id="edge5_Node000001_Node000006" class="edge">
<title>Node1&#45;&gt;Node6</title>
<g id="a_edge5_Node000001_Node000006"><a xlink:title=" ">
<path fill="none" stroke="#63b8ff" d="M574.16,-112.27C527.53,-104.22 443.86,-89.58 362.01,-74.06"/>
<polygon fill="#63b8ff" stroke="#63b8ff" points="362.52,-70.59 352.04,-72.16 361.21,-77.47 362.52,-70.59"/>
</a>
</g>
</g>
<!-- Node7 -->
<g id="Node000007" class="node">
<title>Node7</title>
<g id="a_Node000007"><a xlink:title=" ">
<polygon fill="#e0e0e0" stroke="#999999" points="430.5,-74 370.5,-74 370.5,-55 430.5,-55 430.5,-74"/>
<text text-anchor="middle" x="400.5" y="-62" font-family="Helvetica,sans-Serif" font-size="10.00">gtk/gtk.h</text>
</a>
</g>
</g>
<!-- Node1&#45;&gt;Node7 -->
<g id="edge6_Node000001_Node000007" class="edge">
<title>Node1&#45;&gt;Node7</title>
<g id="a_edge6_Node000001_Node000007"><a xlink:title=" ">
<path fill="none" stroke="#63b8ff" d="M576.76,-109.98C539.64,-100.62 480.03,-85.57 440.57,-75.61"/>
<polygon fill="#63b8ff" stroke="#63b8ff" points="441.3,-72.19 430.75,-73.13 439.59,-78.97 441.3,-72.19"/>
</a>
</g>
</g>
<!-- Node8 -->
<g id="Node000008" class="node">
<title>Node8</title>
<g id="a_Node000008"><a xlink:title=" ">
<polygon fill="#e0e0e0" stroke="#999999" points="544,-74 449,-74 449,-55 544,-55 544,-74"/>
<text text-anchor="middle" x="496.5" y="-62" font-family="Helvetica,sans-Serif" font-size="10.00">libnotify/notify.h</text>
</a>
</g>
</g>
<!-- Node1&#45;&gt;Node8 -->
<g id="edge7_Node000001_Node000008" class="edge">
<title>Node1&#45;&gt;Node8</title>
<g id="a_edge7_Node000001_Node000008"><a xlink:title=" ">
<path fill="none" stroke="#63b8ff" d="M592.18,-109.98C573.84,-101.46 545.39,-88.23 524.27,-78.41"/>
<polygon fill="#63b8ff" stroke="#63b8ff" points="525.69,-75.21 515.15,-74.17 522.74,-81.56 525.69,-75.21"/>
</a>
</g>
</g>
<!-- Node9 -->
<g id="Node000009" class="node">
<title>Node9</title>
<g id="a_Node000009"><a xlink:title=" ">
<polygon fill="#e0e0e0" stroke="#999999" points="659,-74 562,-74 562,-55 659,-55 659,-74"/>
<text text-anchor="middle" x="610.5" y="-62" font-family="Helvetica,sans-Serif" font-size="10.00">dbus/dbus&#45;glib.h</text>
</a>
</g>
</g>
<!-- Node1&#45;&gt;Node9 -->
<g id="edge8_Node000001_Node000009" class="edge">
<title>Node1&#45;&gt;Node9</title>
<g id="a_edge8_Node000001_Node000009"><a xlink:title=" ">
<path fill="none" stroke="#63b8ff" d="M610.5,-109.75C610.5,-102.8 610.5,-92.85 610.5,-84.13"/>
<polygon fill="#63b8ff" stroke="#63b8ff" points="614,-84.09 610.5,-74.09 607,-84.09 614,-84.09"/>
</a>
</g>
</g>
<!-- Node10 -->
<g id="Node000010" class="node">
<title>Node10</title>
<g id="a_Node000010"><a xlink:title=" ">
<polygon fill="#e0e0e0" stroke="#999999" points="819.5,-74 677.5,-74 677.5,-55 819.5,-55 819.5,-74"/>
<text text-anchor="middle" x="748.5" y="-62" font-family="Helvetica,sans-Serif" font-size="10.00">dbus/dbus&#45;glib&#45;lowlevel.h</text>
</a>
</g>
</g>
<!-- Node1&#45;&gt;Node10 -->
<g id="edge9_Node000001_Node000010" class="edge">
<title>Node1&#45;&gt;Node10</title>
<g id="a_edge9_Node000001_Node000010"><a xlink:title=" ">
<path fill="none" stroke="#63b8ff" d="M632.67,-109.98C655.27,-101.3 690.56,-87.75 716.25,-77.88"/>
<polygon fill="#63b8ff" stroke="#63b8ff" points="717.84,-81.02 725.92,-74.17 715.33,-74.49 717.84,-81.02"/>
</a>
</g>
</g>
<!-- Node11 -->
<g id="Node000011" class="node">
<title>Node11</title>
<g id="a_Node000011"><a xlink:title=" ">
<polygon fill="#e0e0e0" stroke="#999999" points="925.5,-74 837.5,-74 837.5,-55 925.5,-55 925.5,-74"/>
<text text-anchor="middle" x="881.5" y="-62" font-family="Helvetica,sans-Serif" font-size="10.00">canberra&#45;gtk.h</text>
</a>
</g>
</g>
<!-- Node1&#45;&gt;Node11 -->
<g id="edge10_Node000001_Node000011" class="edge">
<title>Node1&#45;&gt;Node11</title>
<g id="a_edge10_Node000001_Node000011"><a xlink:title=" ">
<path fill="none" stroke="#63b8ff" d="M646.77,-111.41C693.24,-102.32 774.19,-86.49 827.82,-76"/>
<polygon fill="#63b8ff" stroke="#63b8ff" points="828.69,-79.4 837.83,-74.04 827.34,-72.53 828.69,-79.4"/>
</a>
</g>
</g>
<!-- Node12 -->
<g id="Node000012" class="node">
<title>Node12</title>
<g id="a_Node000012"><a xlink:title=" ">
<polygon fill="#e0e0e0" stroke="#999999" points="996,-74 943,-74 943,-55 996,-55 996,-74"/>
<text text-anchor="middle" x="969.5" y="-62" font-family="Helvetica,sans-Serif" font-size="10.00">string.h</text>
</a>
</g>
</g>
<!-- Node1&#45;&gt;Node12 -->
<g id="edge11_Node000001_Node000012" class="edge">
<title>Node1&#45;&gt;Node12</title>
<g id="a_edge11_Node000001_Node000012"><a xlink:title=" ">
<path fill="none" stroke="#63b8ff" d="M646.65,-114.75C704.96,-108.44 823.53,-94.52 932.93,-74.14"/>
<polygon fill="#63b8ff" stroke="#63b8ff" points="933.63,-77.57 942.81,-72.28 932.33,-70.69 933.63,-77.57"/>
</a>
</g>
</g>
<!-- Node13 -->
<g id="Node000013" class="node">
<title>Node13</title>
<g id="a_Node000013"><a xlink:href="marshal_8h.html" target="_top" xlink:title=" ">
<polygon fill="white" stroke="#666666" points="138,-74 73,-74 73,-55 138,-55 138,-74"/>
<text text-anchor="middle" x="105.5" y="-62" font-family="Helvetica,sans-Serif" font-size="10.00">marshal.h</text>
</a>
</g>
</g>
<!-- Node1&#45;&gt;Node13 -->
<g id="edge12_Node000001_Node000013" class="edge">
<title>Node1&#45;&gt;Node13</title>
<g id="a_edge12_Node000001_Node000013"><a xlink:title=" ">
<path fill="none" stroke="#63b8ff" d="M574.32,-116.31C497.73,-111.39 313.41,-98.1 148.34,-73.96"/>
<polygon fill="#63b8ff" stroke="#63b8ff" points="148.41,-70.43 138,-72.42 147.38,-77.35 148.41,-70.43"/>
</a>
</g>
</g>
<!-- Node15 -->
<g id="Node000015" class="node">
<title>Node15</title>
<g id="a_Node000015"><a xlink:href="obexpush_8h.html" target="_top" xlink:title=" ">
<polygon fill="white" stroke="#666666" points="1269,-74 1196,-74 1196,-55 1269,-55 1269,-74"/>
<text text-anchor="middle" x="1232.5" y="-62" font-family="Helvetica,sans-Serif" font-size="10.00">obexpush.h</text>
</a>
</g>
</g>
<!-- Node1&#45;&gt;Node15 -->
<g id="edge14_Node000001_Node000015" class="edge">
<title>Node1&#45;&gt;Node15</title>
<g id="a_edge14_Node000001_Node000015"><a xlink:title=" ">
<path fill="none" stroke="#63b8ff" d="M646.68,-116.78C737.11,-112.24 980.15,-98.58 1181.5,-74 1182.8,-73.84 1184.12,-73.67 1185.46,-73.5"/>
<polygon fill="#63b8ff" stroke="#63b8ff" points="1186.38,-76.9 1195.78,-72.01 1185.39,-69.97 1186.38,-76.9"/>
</a>
</g>
</g>
<!-- Node16 -->
<g id="Node000016" class="node">
<title>Node16</title>
<g id="a_Node000016"><a xlink:href="user__share-private_8h.html" target="_top" xlink:title=" ">
<polygon fill="white" stroke="#666666" points="1340,-19 1223,-19 1223,0 1340,0 1340,-19"/>
<text text-anchor="middle" x="1281.5" y="-7" font-family="Helvetica,sans-Serif" font-size="10.00">user_share&#45;private.h</text>
</a>
</g>
</g>
<!-- Node1&#45;&gt;Node16 -->
<g id="edge20_Node000001_Node000016" class="edge">
<title>Node1&#45;&gt;Node16</title>
<g id="a_edge20_Node000001_Node000016"><a xlink:title=" ">
<path fill="none" stroke="#63b8ff" d="M646.9,-118.84C779.89,-119.7 1234.09,-119.27 1278.5,-74 1289.72,-62.56 1289.18,-43.67 1286.61,-29.46"/>
<polygon fill="#63b8ff" stroke="#63b8ff" points="1289.93,-28.28 1284.3,-19.3 1283.1,-29.83 1289.93,-28.28"/>
</a>
</g>
</g>
<!-- Node17 -->
<g id="Node000017" class="node">
<title>Node17</title>
<g id="a_Node000017"><a xlink:href="user__share-common_8h.html" target="_top" xlink:title=" ">
<polygon fill="white" stroke="#666666" points="1139,-74 1014,-74 1014,-55 1139,-55 1139,-74"/>
<text text-anchor="middle" x="1076.5" y="-62" font-family="Helvetica,sans-Serif" font-size="10.00">user_share&#45;common.h</text>
</a>
</g>
</g>
<!-- Node1&#45;&gt;Node17 -->
<g id="edge17_Node000001_Node000017" class="edge">
<title>Node1&#45;&gt;Node17</title>
<g id="a_edge17_Node000001_Node000017"><a xlink:title=" ">
<path fill="none" stroke="#63b8ff" d="M646.73,-114.5C714.59,-107 865.75,-90.2 1003.47,-74.23"/>
<polygon fill="#63b8ff" stroke="#63b8ff" points="1004.25,-77.66 1013.78,-73.03 1003.45,-70.71 1004.25,-77.66"/>
</a>
</g>
</g>
<!-- Node14 -->
<g id="Node000014" class="node">
<title>Node14</title>
<g id="a_Node000014"><a xlink:title=" ">
<polygon fill="#e0e0e0" stroke="#999999" points="144,-19 67,-19 67,0 144,0 144,-19"/>
<text text-anchor="middle" x="105.5" y="-7" font-family="Helvetica,sans-Serif" font-size="10.00">glib&#45;object.h</text>
</a>
</g>
</g>
<!-- Node13&#45;&gt;Node14 -->
<g id="edge13_Node000013_Node000014" class="edge">
<title>Node13&#45;&gt;Node14</title>
<g id="a_edge13_Node000013_Node000014"><a xlink:title=" ">
<path fill="none" stroke="#63b8ff" d="M105.5,-54.75C105.5,-47.8 105.5,-37.85 105.5,-29.13"/>
<polygon fill="#63b8ff" stroke="#63b8ff" points="109,-29.09 105.5,-19.09 102,-29.09 109,-29.09"/>
</a>
</g>
</g>
<!-- Node15&#45;&gt;Node3 -->
<g id="edge15_Node000015_Node000003" class="edge">
<title>Node15&#45;&gt;Node3</title>
<g id="a_edge15_Node000015_Node000003"><a xlink:title=" ">
<path fill="none" stroke="#63b8ff" d="M1222.06,-54.98C1212.35,-47.07 1197.68,-35.11 1186,-25.58"/>
<polygon fill="#63b8ff" stroke="#63b8ff" points="1188.1,-22.78 1178.13,-19.17 1183.67,-28.2 1188.1,-22.78"/>
</a>
</g>
</g>
<!-- Node15&#45;&gt;Node16 -->
<g id="edge16_Node000015_Node000016" class="edge">
<title>Node15&#45;&gt;Node16</title>
<g id="a_edge16_Node000015_Node000016"><a xlink:title=" ">
<path fill="none" stroke="#63b8ff" d="M1240.59,-54.75C1247.66,-47.11 1258.09,-35.82 1266.65,-26.56"/>
<polygon fill="#63b8ff" stroke="#63b8ff" points="1269.34,-28.81 1273.56,-19.09 1264.2,-24.06 1269.34,-28.81"/>
</a>
</g>
</g>
<!-- Node17&#45;&gt;Node3 -->
<g id="edge18_Node000017_Node000003" class="edge">
<title>Node17&#45;&gt;Node3</title>
<g id="a_edge18_Node000017_Node000003"><a xlink:title=" ">
<path fill="none" stroke="#63b8ff" d="M1091.12,-54.98C1105.36,-46.69 1127.25,-33.94 1143.95,-24.22"/>
<polygon fill="#63b8ff" stroke="#63b8ff" points="1145.73,-27.23 1152.61,-19.17 1142.21,-21.18 1145.73,-27.23"/>
</a>
</g>
</g>
<!-- Node17&#45;&gt;Node5 -->
<g id="edge19_Node000017_Node000005" class="edge">
<title>Node17&#45;&gt;Node5</title>
<g id="a_edge19_Node000017_Node000005"><a xlink:title=" ">
<path fill="none" stroke="#63b8ff" d="M1013.94,-55.39C928.62,-44.34 778.27,-24.85 707.05,-15.62"/>
<polygon fill="#63b8ff" stroke="#63b8ff" points="707.5,-12.15 697.13,-14.34 706.6,-19.1 707.5,-12.15"/>
</a>
</g>
</g>
</g>
</svg>
