<?xml version="1.0" encoding="UTF-8" standalone="no"?>
<!DOCTYPE svg PUBLIC "-//W3C//DTD SVG 1.1//EN"
 "http://www.w3.org/Graphics/SVG/1.1/DTD/svg11.dtd">
<!-- Generated by graphviz version 2.43.0 (0)
 -->
<!-- Title: panel&#45;applet&#45;container.c Pages: 1 -->
<svg width="874pt" height="522pt"
 viewBox="0.00 0.00 873.50 522.00" xmlns="http://www.w3.org/2000/svg" xmlns:xlink="http://www.w3.org/1999/xlink">
<g id="graph0" class="graph" transform="scale(1 1) rotate(0) translate(4 518)">
<title>panel&#45;applet&#45;container.c</title>
<!-- Node1 -->
<g id="Node000001" class="node">
<title>Node1</title>
<g id="a_Node000001"><a xlink:title=" ">
<polygon fill="#999999" stroke="#666666" points="686.5,-514 551.5,-514 551.5,-495 686.5,-495 686.5,-514"/>
<text text-anchor="middle" x="619" y="-502" font-family="Helvetica,sans-Serif" font-size="10.00">panel&#45;applet&#45;container.c</text>
</a>
</g>
</g>
<!-- Node2 -->
<g id="Node000002" class="node">
<title>Node2</title>
<g id="a_Node000002"><a xlink:title=" ">
<polygon fill="#e0e0e0" stroke="#999999" points="183.5,-129 128.5,-129 128.5,-110 183.5,-110 183.5,-129"/>
<text text-anchor="middle" x="156" y="-117" font-family="Helvetica,sans-Serif" font-size="10.00">config.h</text>
</a>
</g>
</g>
<!-- Node1&#45;&gt;Node2 -->
<g id="edge1_Node000001_Node000002" class="edge">
<title>Node1&#45;&gt;Node2</title>
<g id="a_edge1_Node000001_Node000002"><a xlink:title=" ">
<path fill="none" stroke="#63b8ff" d="M551.36,-502.28C418.88,-498.05 138,-479.21 138,-395.5 138,-395.5 138,-395.5 138,-228.5 138,-196.61 145.73,-160.14 151.06,-138.78"/>
<polygon fill="#63b8ff" stroke="#63b8ff" points="154.45,-139.66 153.57,-129.1 147.67,-137.9 154.45,-139.66"/>
</a>
</g>
</g>
<!-- Node3 -->
<g id="Node000003" class="node">
<title>Node3</title>
<g id="a_Node000003"><a xlink:title=" ">
<polygon fill="#e0e0e0" stroke="#999999" points="865.5,-459 812.5,-459 812.5,-440 865.5,-440 865.5,-459"/>
<text text-anchor="middle" x="839" y="-447" font-family="Helvetica,sans-Serif" font-size="10.00">string.h</text>
</a>
</g>
</g>
<!-- Node1&#45;&gt;Node3 -->
<g id="edge2_Node000001_Node000003" class="edge">
<title>Node1&#45;&gt;Node3</title>
<g id="a_edge2_Node000001_Node000003"><a xlink:title=" ">
<path fill="none" stroke="#63b8ff" d="M654.35,-494.98C694.99,-485.19 761.39,-469.2 802.51,-459.29"/>
<polygon fill="#63b8ff" stroke="#63b8ff" points="803.49,-462.66 812.39,-456.91 801.85,-455.85 803.49,-462.66"/>
</a>
</g>
</g>
<!-- Node4 -->
<g id="Node000004" class="node">
<title>Node4</title>
<g id="a_Node000004"><a xlink:title=" ">
<polygon fill="#e0e0e0" stroke="#999999" points="681,-129 621,-129 621,-110 681,-110 681,-129"/>
<text text-anchor="middle" x="651" y="-117" font-family="Helvetica,sans-Serif" font-size="10.00">gtk/gtk.h</text>
</a>
</g>
</g>
<!-- Node1&#45;&gt;Node4 -->
<g id="edge3_Node000001_Node000004" class="edge">
<title>Node1&#45;&gt;Node4</title>
<g id="a_edge3_Node000001_Node000004"><a xlink:title=" ">
<path fill="none" stroke="#63b8ff" d="M686.77,-496.08C713.51,-490 742.63,-478.97 763,-459 784.22,-438.19 784,-425.23 784,-395.5 784,-395.5 784,-395.5 784,-228.5 784,-178.87 727.5,-148.05 688.15,-132.61"/>
<polygon fill="#63b8ff" stroke="#63b8ff" points="689.15,-129.25 678.56,-129.02 686.69,-135.8 689.15,-129.25"/>
</a>
</g>
</g>
<!-- Node5 -->
<g id="Node000005" class="node">
<title>Node5</title>
<g id="a_Node000005"><a xlink:href="panel-applets-manager_8h.html" target="_top" xlink:title=" ">
<polygon fill="white" stroke="#666666" points="485.5,-459 346.5,-459 346.5,-440 485.5,-440 485.5,-459"/>
<text text-anchor="middle" x="416" y="-447" font-family="Helvetica,sans-Serif" font-size="10.00">panel&#45;applets&#45;manager.h</text>
</a>
</g>
</g>
<!-- Node1&#45;&gt;Node5 -->
<g id="edge4_Node000001_Node000005" class="edge">
<title>Node1&#45;&gt;Node5</title>
<g id="a_edge4_Node000001_Node000005"><a xlink:title=" ">
<path fill="none" stroke="#63b8ff" d="M586.38,-494.98C551.71,-485.93 496.74,-471.58 458.65,-461.64"/>
<polygon fill="#63b8ff" stroke="#63b8ff" points="459.43,-458.22 448.87,-459.08 457.66,-464.99 459.43,-458.22"/>
</a>
</g>
</g>
<!-- Node21 -->
<g id="Node000021" class="node">
<title>Node21</title>
<g id="a_Node000021"><a xlink:href="panel-applet-container_8h.html" target="_top" xlink:title=" ">
<polygon fill="white" stroke="#666666" points="754,-459 618,-459 618,-440 754,-440 754,-459"/>
<text text-anchor="middle" x="686" y="-447" font-family="Helvetica,sans-Serif" font-size="10.00">panel&#45;applet&#45;container.h</text>
</a>
</g>
</g>
<!-- Node1&#45;&gt;Node21 -->
<g id="edge36_Node000001_Node000021" class="edge">
<title>Node1&#45;&gt;Node21</title>
<g id="a_edge36_Node000001_Node000021"><a xlink:title=" ">
<path fill="none" stroke="#63b8ff" d="M629.76,-494.98C639.77,-487.07 654.89,-475.11 666.93,-465.58"/>
<polygon fill="#63b8ff" stroke="#63b8ff" points="669.37,-468.12 675.04,-459.17 665.03,-462.63 669.37,-468.12"/>
</a>
</g>
</g>
<!-- Node23 -->
<g id="Node000023" class="node">
<title>Node23</title>
<g id="a_Node000023"><a xlink:href="panel-marshal_8h.html" target="_top" xlink:title=" ">
<polygon fill="white" stroke="#666666" points="600,-459 504,-459 504,-440 600,-440 600,-459"/>
<text text-anchor="middle" x="552" y="-447" font-family="Helvetica,sans-Serif" font-size="10.00">panel&#45;marshal.h</text>
</a>
</g>
</g>
<!-- Node1&#45;&gt;Node23 -->
<g id="edge44_Node000001_Node000023" class="edge">
<title>Node1&#45;&gt;Node23</title>
<g id="a_edge44_Node000001_Node000023"><a xlink:title=" ">
<path fill="none" stroke="#63b8ff" d="M608.24,-494.98C598.23,-487.07 583.11,-475.11 571.07,-465.58"/>
<polygon fill="#63b8ff" stroke="#63b8ff" points="572.97,-462.63 562.96,-459.17 568.63,-468.12 572.97,-462.63"/>
</a>
</g>
</g>
<!-- Node6 -->
<g id="Node000006" class="node">
<title>Node6</title>
<g id="a_Node000006"><a xlink:title=" ">
<polygon fill="#e0e0e0" stroke="#999999" points="589.5,-404 512.5,-404 512.5,-385 589.5,-385 589.5,-404"/>
<text text-anchor="middle" x="551" y="-392" font-family="Helvetica,sans-Serif" font-size="10.00">glib&#45;object.h</text>
</a>
</g>
</g>
<!-- Node5&#45;&gt;Node6 -->
<g id="edge5_Node000005_Node000006" class="edge">
<title>Node5&#45;&gt;Node6</title>
<g id="a_edge5_Node000005_Node000006"><a xlink:title=" ">
<path fill="none" stroke="#63b8ff" d="M437.69,-439.98C459.8,-431.3 494.32,-417.75 519.45,-407.88"/>
<polygon fill="#63b8ff" stroke="#63b8ff" points="520.89,-411.08 528.92,-404.17 518.33,-404.57 520.89,-411.08"/>
</a>
</g>
</g>
<!-- Node7 -->
<g id="Node000007" class="node">
<title>Node7</title>
<g id="a_Node000007"><a xlink:href="panel-applet-frame_8h.html" target="_top" xlink:title=" ">
<polygon fill="white" stroke="#666666" points="485,-404 365,-404 365,-385 485,-385 485,-404"/>
<text text-anchor="middle" x="425" y="-392" font-family="Helvetica,sans-Serif" font-size="10.00">panel&#45;applet&#45;frame.h</text>
</a>
</g>
</g>
<!-- Node5&#45;&gt;Node7 -->
<g id="edge6_Node000005_Node000007" class="edge">
<title>Node5&#45;&gt;Node7</title>
<g id="a_edge6_Node000005_Node000007"><a xlink:title=" ">
<path fill="none" stroke="#63b8ff" d="M417.49,-439.75C418.67,-432.8 420.36,-422.85 421.84,-414.13"/>
<polygon fill="#63b8ff" stroke="#63b8ff" points="425.32,-414.53 423.54,-404.09 418.42,-413.36 425.32,-414.53"/>
</a>
</g>
</g>
<!-- Node20 -->
<g id="Node000020" class="node">
<title>Node20</title>
<g id="a_Node000020"><a xlink:href="panel-applet-info_8h.html" target="_top" xlink:title=" ">
<polygon fill="white" stroke="#666666" points="110,-349 0,-349 0,-330 110,-330 110,-349"/>
<text text-anchor="middle" x="55" y="-337" font-family="Helvetica,sans-Serif" font-size="10.00">panel&#45;applet&#45;info.h</text>
</a>
</g>
</g>
<!-- Node5&#45;&gt;Node20 -->
<g id="edge34_Node000005_Node000020" class="edge">
<title>Node5&#45;&gt;Node20</title>
<g id="a_edge34_Node000005_Node000020"><a xlink:title=" ">
<path fill="none" stroke="#63b8ff" d="M387.37,-439.94C322.87,-420.64 166.12,-373.74 93.33,-351.97"/>
<polygon fill="#63b8ff" stroke="#63b8ff" points="94.22,-348.58 83.63,-349.07 92.21,-355.29 94.22,-348.58"/>
</a>
</g>
</g>
<!-- Node7&#45;&gt;Node4 -->
<g id="edge7_Node000007_Node000004" class="edge">
<title>Node7&#45;&gt;Node4</title>
<g id="a_edge7_Node000007_Node000004"><a xlink:title=" ">
<path fill="none" stroke="#63b8ff" d="M442.25,-384.88C481.31,-364.57 577.42,-310.03 633,-239 654.23,-211.88 657.93,-199.39 656,-165 655.52,-156.45 654.53,-147.03 653.55,-139.06"/>
<polygon fill="#63b8ff" stroke="#63b8ff" points="657.01,-138.47 652.24,-129.01 650.07,-139.38 657.01,-138.47"/>
</a>
</g>
</g>
<!-- Node8 -->
<g id="Node000008" class="node">
<title>Node8</title>
<g id="a_Node000008"><a xlink:href="panel-widget_8h.html" target="_top" xlink:title=" ">
<polygon fill="white" stroke="#666666" points="529.5,-294 440.5,-294 440.5,-275 529.5,-275 529.5,-294"/>
<text text-anchor="middle" x="485" y="-282" font-family="Helvetica,sans-Serif" font-size="10.00">panel&#45;widget.h</text>
</a>
</g>
</g>
<!-- Node7&#45;&gt;Node8 -->
<g id="edge8_Node000007_Node000008" class="edge">
<title>Node7&#45;&gt;Node8</title>
<g id="a_edge8_Node000007_Node000008"><a xlink:title=" ">
<path fill="none" stroke="#63b8ff" d="M429.91,-384.66C439.8,-366.85 462.3,-326.37 475.27,-303.01"/>
<polygon fill="#63b8ff" stroke="#63b8ff" points="478.39,-304.6 480.19,-294.16 472.27,-301.2 478.39,-304.6"/>
</a>
</g>
</g>
<!-- Node17 -->
<g id="Node000017" class="node">
<title>Node17</title>
<g id="a_Node000017"><a xlink:href="mate-panel_2mate-panel_2applet_8h.html" target="_top" xlink:title=" ">
<polygon fill="white" stroke="#666666" points="421,-349 365,-349 365,-330 421,-330 421,-349"/>
<text text-anchor="middle" x="393" y="-337" font-family="Helvetica,sans-Serif" font-size="10.00">applet.h</text>
</a>
</g>
</g>
<!-- Node7&#45;&gt;Node17 -->
<g id="edge28_Node000007_Node000017" class="edge">
<title>Node7&#45;&gt;Node17</title>
<g id="a_edge28_Node000007_Node000017"><a xlink:title=" ">
<path fill="none" stroke="#63b8ff" d="M419.72,-384.75C415.29,-377.42 408.84,-366.73 403.38,-357.7"/>
<polygon fill="#63b8ff" stroke="#63b8ff" points="406.35,-355.84 398.19,-349.09 400.36,-359.46 406.35,-355.84"/>
</a>
</g>
</g>
<!-- Node8&#45;&gt;Node4 -->
<g id="edge9_Node000008_Node000004" class="edge">
<title>Node8&#45;&gt;Node4</title>
<g id="a_edge9_Node000008_Node000004"><a xlink:title=" ">
<path fill="none" stroke="#63b8ff" d="M529.5,-278.18C556.94,-272.7 590.98,-261.56 613,-239 639.82,-211.53 647.71,-165.09 650.04,-139.26"/>
<polygon fill="#63b8ff" stroke="#63b8ff" points="653.53,-139.5 650.74,-129.28 646.55,-139 653.53,-139.5"/>
</a>
</g>
</g>
<!-- Node9 -->
<g id="Node000009" class="node">
<title>Node9</title>
<g id="a_Node000009"><a xlink:title=" ">
<polygon fill="#e0e0e0" stroke="#999999" points="489.5,-239 356.5,-239 356.5,-220 489.5,-220 489.5,-239"/>
<text text-anchor="middle" x="423" y="-227" font-family="Helvetica,sans-Serif" font-size="10.00">gdk&#45;pixbuf/gdk&#45;pixbuf.h</text>
</a>
</g>
</g>
<!-- Node8&#45;&gt;Node9 -->
<g id="edge10_Node000008_Node000009" class="edge">
<title>Node8&#45;&gt;Node9</title>
<g id="a_edge10_Node000008_Node000009"><a xlink:title=" ">
<path fill="none" stroke="#63b8ff" d="M475.04,-274.98C465.87,-267.15 452.06,-255.34 440.97,-245.86"/>
<polygon fill="#63b8ff" stroke="#63b8ff" points="443.02,-243.01 433.14,-239.17 438.47,-248.33 443.02,-243.01"/>
</a>
</g>
</g>
<!-- Node10 -->
<g id="Node000010" class="node">
<title>Node10</title>
<g id="a_Node000010"><a xlink:href="button-widget_8h.html" target="_top" xlink:title=" ">
<polygon fill="white" stroke="#666666" points="511,-184 417,-184 417,-165 511,-165 511,-184"/>
<text text-anchor="middle" x="464" y="-172" font-family="Helvetica,sans-Serif" font-size="10.00">button&#45;widget.h</text>
</a>
</g>
</g>
<!-- Node8&#45;&gt;Node10 -->
<g id="edge11_Node000008_Node000010" class="edge">
<title>Node8&#45;&gt;Node10</title>
<g id="a_edge11_Node000008_Node000010"><a xlink:title=" ">
<path fill="none" stroke="#63b8ff" d="M440.72,-274.97C405.07,-267.1 359.14,-254.33 348,-239 328.43,-212.06 368.27,-195.26 406.48,-185.76"/>
<polygon fill="#63b8ff" stroke="#63b8ff" points="407.7,-189.07 416.64,-183.39 406.11,-182.26 407.7,-189.07"/>
</a>
</g>
</g>
<!-- Node14 -->
<g id="Node000014" class="node">
<title>Node14</title>
<g id="a_Node000014"><a xlink:href="panel-types_8h.html" target="_top" xlink:title=" ">
<polygon fill="white" stroke="#666666" points="284.5,-129 201.5,-129 201.5,-110 284.5,-110 284.5,-129"/>
<text text-anchor="middle" x="243" y="-117" font-family="Helvetica,sans-Serif" font-size="10.00">panel&#45;types.h</text>
</a>
</g>
</g>
<!-- Node8&#45;&gt;Node14 -->
<g id="edge17_Node000008_Node000014" class="edge">
<title>Node8&#45;&gt;Node14</title>
<g id="a_edge17_Node000008_Node000014"><a xlink:title=" ">
<path fill="none" stroke="#63b8ff" d="M445.42,-274.98C405.41,-265.92 346.75,-251.21 327,-239 287.99,-214.88 262.02,-165.23 250.24,-138.49"/>
<polygon fill="#63b8ff" stroke="#63b8ff" points="253.42,-137.02 246.3,-129.17 246.97,-139.74 253.42,-137.02"/>
</a>
</g>
</g>
<!-- Node15 -->
<g id="Node000015" class="node">
<title>Node15</title>
<g id="a_Node000015"><a xlink:href="panel-background_8h.html" target="_top" xlink:title=" ">
<polygon fill="white" stroke="#666666" points="398.5,-184 285.5,-184 285.5,-165 398.5,-165 398.5,-184"/>
<text text-anchor="middle" x="342" y="-172" font-family="Helvetica,sans-Serif" font-size="10.00">panel&#45;background.h</text>
</a>
</g>
</g>
<!-- Node8&#45;&gt;Node15 -->
<g id="edge18_Node000008_Node000015" class="edge">
<title>Node8&#45;&gt;Node15</title>
<g id="a_edge18_Node000008_Node000015"><a xlink:title=" ">
<path fill="none" stroke="#63b8ff" d="M440.16,-275.93C401.61,-268.41 350.31,-255.59 338,-239 328.55,-226.26 330.96,-207.83 334.9,-194.11"/>
<polygon fill="#63b8ff" stroke="#63b8ff" points="338.32,-194.9 338.19,-184.3 331.69,-192.67 338.32,-194.9"/>
</a>
</g>
</g>
<!-- Node16 -->
<g id="Node000016" class="node">
<title>Node16</title>
<g id="a_Node000016"><a xlink:href="panel-toplevel_8h.html" target="_top" xlink:title=" ">
<polygon fill="white" stroke="#666666" points="604,-239 508,-239 508,-220 604,-220 604,-239"/>
<text text-anchor="middle" x="556" y="-227" font-family="Helvetica,sans-Serif" font-size="10.00">panel&#45;toplevel.h</text>
</a>
</g>
</g>
<!-- Node8&#45;&gt;Node16 -->
<g id="edge24_Node000008_Node000016" class="edge">
<title>Node8&#45;&gt;Node16</title>
<g id="a_edge24_Node000008_Node000016"><a xlink:title=" ">
<path fill="none" stroke="#63b8ff" d="M496.41,-274.98C507.11,-267 523.34,-254.88 536.16,-245.31"/>
<polygon fill="#63b8ff" stroke="#63b8ff" points="538.47,-247.96 544.39,-239.17 534.28,-242.35 538.47,-247.96"/>
</a>
</g>
</g>
<!-- Node10&#45;&gt;Node4 -->
<g id="edge12_Node000010_Node000004" class="edge">
<title>Node10&#45;&gt;Node4</title>
<g id="a_edge12_Node000010_Node000004"><a xlink:title=" ">
<path fill="none" stroke="#63b8ff" d="M494.04,-164.98C525.71,-156.01 575.77,-141.82 610.81,-131.89"/>
<polygon fill="#63b8ff" stroke="#63b8ff" points="612.05,-135.18 620.72,-129.08 610.14,-128.44 612.05,-135.18"/>
</a>
</g>
</g>
<!-- Node11 -->
<g id="Node000011" class="node">
<title>Node11</title>
<g id="a_Node000011"><a xlink:href="panel-enums_8h.html" target="_top" xlink:title=" ">
<polygon fill="white" stroke="#666666" points="391.5,-129 302.5,-129 302.5,-110 391.5,-110 391.5,-129"/>
<text text-anchor="middle" x="347" y="-117" font-family="Helvetica,sans-Serif" font-size="10.00">panel&#45;enums.h</text>
</a>
</g>
</g>
<!-- Node10&#45;&gt;Node11 -->
<g id="edge13_Node000010_Node000011" class="edge">
<title>Node10&#45;&gt;Node11</title>
<g id="a_edge13_Node000010_Node000011"><a xlink:title=" ">
<path fill="none" stroke="#63b8ff" d="M445.2,-164.98C426.38,-156.46 397.18,-143.23 375.5,-133.41"/>
<polygon fill="#63b8ff" stroke="#63b8ff" points="376.69,-130.11 366.14,-129.17 373.8,-136.48 376.69,-130.11"/>
</a>
</g>
</g>
<!-- Node12 -->
<g id="Node000012" class="node">
<title>Node12</title>
<g id="a_Node000012"><a xlink:title=" ">
<polygon fill="#e0e0e0" stroke="#999999" points="248,-19 204,-19 204,0 248,0 248,-19"/>
<text text-anchor="middle" x="226" y="-7" font-family="Helvetica,sans-Serif" font-size="10.00">glib.h</text>
</a>
</g>
</g>
<!-- Node11&#45;&gt;Node12 -->
<g id="edge14_Node000011_Node000012" class="edge">
<title>Node11&#45;&gt;Node12</title>
<g id="a_edge14_Node000011_Node000012"><a xlink:title=" ">
<path fill="none" stroke="#63b8ff" d="M307.8,-109.98C286.5,-103.46 261.27,-92.36 245,-74 234.15,-61.75 229.49,-43.52 227.49,-29.73"/>
<polygon fill="#63b8ff" stroke="#63b8ff" points="230.93,-28.98 226.36,-19.42 223.97,-29.74 230.93,-28.98"/>
</a>
</g>
</g>
<!-- Node13 -->
<g id="Node000013" class="node">
<title>Node13</title>
<g id="a_Node000013"><a xlink:href="panel-enums-gsettings_8h.html" target="_top" xlink:title=" ">
<polygon fill="white" stroke="#666666" points="392,-74 254,-74 254,-55 392,-55 392,-74"/>
<text text-anchor="middle" x="323" y="-62" font-family="Helvetica,sans-Serif" font-size="10.00">panel&#45;enums&#45;gsettings.h</text>
</a>
</g>
</g>
<!-- Node11&#45;&gt;Node13 -->
<g id="edge15_Node000011_Node000013" class="edge">
<title>Node11&#45;&gt;Node13</title>
<g id="a_edge15_Node000011_Node000013"><a xlink:title=" ">
<path fill="none" stroke="#63b8ff" d="M343.04,-109.75C339.79,-102.57 335.08,-92.18 331.05,-83.27"/>
<polygon fill="#63b8ff" stroke="#63b8ff" points="334.2,-81.75 326.89,-74.09 327.83,-84.64 334.2,-81.75"/>
</a>
</g>
</g>
<!-- Node13&#45;&gt;Node12 -->
<g id="edge16_Node000013_Node000012" class="edge">
<title>Node13&#45;&gt;Node12</title>
<g id="a_edge16_Node000013_Node000012"><a xlink:title=" ">
<path fill="none" stroke="#63b8ff" d="M307.42,-54.98C292.23,-46.69 268.9,-33.94 251.1,-24.22"/>
<polygon fill="#63b8ff" stroke="#63b8ff" points="252.32,-20.89 241.87,-19.17 248.97,-27.04 252.32,-20.89"/>
</a>
</g>
</g>
<!-- Node15&#45;&gt;Node2 -->
<g id="edge19_Node000015_Node000002" class="edge">
<title>Node15&#45;&gt;Node2</title>
<g id="a_edge19_Node000015_Node000002"><a xlink:title=" ">
<path fill="none" stroke="#63b8ff" d="M312.12,-164.98C279.87,-155.8 228.46,-141.15 193.52,-131.19"/>
<polygon fill="#63b8ff" stroke="#63b8ff" points="194.26,-127.76 183.68,-128.39 192.34,-134.5 194.26,-127.76"/>
</a>
</g>
</g>
<!-- Node15&#45;&gt;Node4 -->
<g id="edge21_Node000015_Node000004" class="edge">
<title>Node15&#45;&gt;Node4</title>
<g id="a_edge21_Node000015_Node000004"><a xlink:title=" ">
<path fill="none" stroke="#63b8ff" d="M391.65,-164.98C452.52,-154.54 554.5,-137.05 610.73,-127.41"/>
<polygon fill="#63b8ff" stroke="#63b8ff" points="611.41,-130.84 620.68,-125.7 610.23,-123.94 611.41,-130.84"/>
</a>
</g>
</g>
<!-- Node15&#45;&gt;Node11 -->
<g id="edge22_Node000015_Node000011" class="edge">
<title>Node15&#45;&gt;Node11</title>
<g id="a_edge22_Node000015_Node000011"><a xlink:title=" ">
<path fill="none" stroke="#63b8ff" d="M342.83,-164.75C343.48,-157.8 344.42,-147.85 345.24,-139.13"/>
<polygon fill="#63b8ff" stroke="#63b8ff" points="348.73,-139.37 346.19,-129.09 341.77,-138.72 348.73,-139.37"/>
</a>
</g>
</g>
<!-- Node15&#45;&gt;Node12 -->
<g id="edge20_Node000015_Node000012" class="edge">
<title>Node15&#45;&gt;Node12</title>
<g id="a_edge20_Node000015_Node000012"><a xlink:title=" ">
<path fill="none" stroke="#63b8ff" d="M361.27,-164.9C375.12,-157.55 392.76,-145.54 401,-129 415.67,-99.56 421.19,-80.96 401,-55 383.64,-32.67 303.81,-19.71 258.2,-14.01"/>
<polygon fill="#63b8ff" stroke="#63b8ff" points="258.55,-10.52 248.21,-12.8 257.72,-17.47 258.55,-10.52"/>
</a>
</g>
</g>
<!-- Node15&#45;&gt;Node14 -->
<g id="edge23_Node000015_Node000014" class="edge">
<title>Node15&#45;&gt;Node14</title>
<g id="a_edge23_Node000015_Node000014"><a xlink:title=" ">
<path fill="none" stroke="#63b8ff" d="M326.09,-164.98C310.45,-156.61 286.34,-143.7 268.12,-133.95"/>
<polygon fill="#63b8ff" stroke="#63b8ff" points="269.66,-130.8 259.2,-129.17 266.36,-136.98 269.66,-130.8"/>
</a>
</g>
</g>
<!-- Node16&#45;&gt;Node4 -->
<g id="edge25_Node000016_Node000004" class="edge">
<title>Node16&#45;&gt;Node4</title>
<g id="a_edge25_Node000016_Node000004"><a xlink:title=" ">
<path fill="none" stroke="#63b8ff" d="M563.77,-219.66C579.72,-201.54 616.33,-159.91 636.69,-136.77"/>
<polygon fill="#63b8ff" stroke="#63b8ff" points="639.41,-138.98 643.38,-129.16 634.15,-134.36 639.41,-138.98"/>
</a>
</g>
</g>
<!-- Node16&#45;&gt;Node11 -->
<g id="edge27_Node000016_Node000011" class="edge">
<title>Node16&#45;&gt;Node11</title>
<g id="a_edge27_Node000016_Node000011"><a xlink:title=" ">
<path fill="none" stroke="#63b8ff" d="M553.45,-219.62C549.01,-205.78 538.51,-179.17 520,-165 486.01,-138.98 438.39,-128.08 401.71,-123.56"/>
<polygon fill="#63b8ff" stroke="#63b8ff" points="402,-120.07 391.67,-122.45 401.22,-127.03 402,-120.07"/>
</a>
</g>
</g>
<!-- Node16&#45;&gt;Node15 -->
<g id="edge26_Node000016_Node000015" class="edge">
<title>Node16&#45;&gt;Node15</title>
<g id="a_edge26_Node000016_Node000015"><a xlink:title=" ">
<path fill="none" stroke="#63b8ff" d="M521.62,-219.98C484.91,-210.89 426.62,-196.46 386.45,-186.51"/>
<polygon fill="#63b8ff" stroke="#63b8ff" points="387.2,-183.09 376.65,-184.08 385.52,-189.88 387.2,-183.09"/>
</a>
</g>
</g>
<!-- Node17&#45;&gt;Node8 -->
<g id="edge32_Node000017_Node000008" class="edge">
<title>Node17&#45;&gt;Node8</title>
<g id="a_edge32_Node000017_Node000008"><a xlink:title=" ">
<path fill="none" stroke="#63b8ff" d="M407.78,-329.98C422.18,-321.69 444.31,-308.94 461.19,-299.22"/>
<polygon fill="#63b8ff" stroke="#63b8ff" points="463.03,-302.19 469.95,-294.17 459.54,-296.13 463.03,-302.19"/>
</a>
</g>
</g>
<!-- Node17&#45;&gt;Node11 -->
<g id="edge33_Node000017_Node000011" class="edge">
<title>Node17&#45;&gt;Node11</title>
<g id="a_edge33_Node000017_Node000011"><a xlink:title=" ">
<path fill="none" stroke="#63b8ff" d="M364.96,-336.99C336.22,-333.78 292.88,-323.92 272,-294 256.3,-271.5 193.06,-309.93 277,-165 285.15,-150.93 299.73,-140.61 313.49,-133.47"/>
<polygon fill="#63b8ff" stroke="#63b8ff" points="315.27,-136.5 322.79,-129.03 312.25,-130.18 315.27,-136.5"/>
</a>
</g>
</g>
<!-- Node17&#45;&gt;Node12 -->
<g id="edge29_Node000017_Node000012" class="edge">
<title>Node17&#45;&gt;Node12</title>
<g id="a_edge29_Node000017_Node000012"><a xlink:title=" ">
<path fill="none" stroke="#63b8ff" d="M364.78,-336.47C330.72,-332.78 273.05,-322.51 233,-294 160.39,-242.3 145.54,-214.09 119,-129 104.34,-82 161.54,-43.17 197.93,-23.8"/>
<polygon fill="#63b8ff" stroke="#63b8ff" points="199.83,-26.76 207.13,-19.08 196.63,-20.54 199.83,-26.76"/>
</a>
</g>
</g>
<!-- Node18 -->
<g id="Node000018" class="node">
<title>Node18</title>
<g id="a_Node000018"><a xlink:title=" ">
<polygon fill="#e0e0e0" stroke="#999999" points="345.5,-294 280.5,-294 280.5,-275 345.5,-275 345.5,-294"/>
<text text-anchor="middle" x="313" y="-282" font-family="Helvetica,sans-Serif" font-size="10.00">gdk/gdk.h</text>
</a>
</g>
</g>
<!-- Node17&#45;&gt;Node18 -->
<g id="edge30_Node000017_Node000018" class="edge">
<title>Node17&#45;&gt;Node18</title>
<g id="a_edge30_Node000017_Node000018"><a xlink:title=" ">
<path fill="none" stroke="#63b8ff" d="M380.15,-329.98C367.86,-321.84 349.09,-309.41 334.52,-299.76"/>
<polygon fill="#63b8ff" stroke="#63b8ff" points="336.36,-296.78 326.09,-294.17 332.49,-302.61 336.36,-296.78"/>
</a>
</g>
</g>
<!-- Node19 -->
<g id="Node000019" class="node">
<title>Node19</title>
<g id="a_Node000019"><a xlink:title=" ">
<polygon fill="#e0e0e0" stroke="#999999" points="422.5,-294 363.5,-294 363.5,-275 422.5,-275 422.5,-294"/>
<text text-anchor="middle" x="393" y="-282" font-family="Helvetica,sans-Serif" font-size="10.00">gio/gio.h</text>
</a>
</g>
</g>
<!-- Node17&#45;&gt;Node19 -->
<g id="edge31_Node000017_Node000019" class="edge">
<title>Node17&#45;&gt;Node19</title>
<g id="a_edge31_Node000017_Node000019"><a xlink:title=" ">
<path fill="none" stroke="#63b8ff" d="M393,-329.75C393,-322.8 393,-312.85 393,-304.13"/>
<polygon fill="#63b8ff" stroke="#63b8ff" points="396.5,-304.09 393,-294.09 389.5,-304.09 396.5,-304.09"/>
</a>
</g>
</g>
<!-- Node20&#45;&gt;Node12 -->
<g id="edge35_Node000020_Node000012" class="edge">
<title>Node20&#45;&gt;Node12</title>
<g id="a_edge35_Node000020_Node000012"><a xlink:title=" ">
<path fill="none" stroke="#63b8ff" d="M55.4,-329.82C56.22,-311.49 58,-267.45 58,-230.5 58,-230.5 58,-230.5 58,-118.5 58,-54.7 144.79,-26.82 193.61,-16.18"/>
<polygon fill="#63b8ff" stroke="#63b8ff" points="194.6,-19.55 203.69,-14.11 193.19,-12.7 194.6,-19.55"/>
</a>
</g>
</g>
<!-- Node21&#45;&gt;Node4 -->
<g id="edge38_Node000021_Node000004" class="edge">
<title>Node21&#45;&gt;Node4</title>
<g id="a_edge38_Node000021_Node000004"><a xlink:title=" ">
<path fill="none" stroke="#63b8ff" d="M694.85,-439.89C711.54,-422.68 746,-382.11 746,-340.5 746,-340.5 746,-340.5 746,-228.5 746,-185.91 703.84,-152.14 675.69,-134.33"/>
<polygon fill="#63b8ff" stroke="#63b8ff" points="677.48,-131.32 667.12,-129.12 673.84,-137.31 677.48,-131.32"/>
</a>
</g>
</g>
<!-- Node21&#45;&gt;Node6 -->
<g id="edge37_Node000021_Node000006" class="edge">
<title>Node21&#45;&gt;Node6</title>
<g id="a_edge37_Node000021_Node000006"><a xlink:title=" ">
<path fill="none" stroke="#63b8ff" d="M664.31,-439.98C642.2,-431.3 607.68,-417.75 582.55,-407.88"/>
<polygon fill="#63b8ff" stroke="#63b8ff" points="583.67,-404.57 573.08,-404.17 581.11,-411.08 583.67,-404.57"/>
</a>
</g>
</g>
<!-- Node22 -->
<g id="Node000022" class="node">
<title>Node22</title>
<g id="a_Node000022"><a xlink:href="panel_8h.html" target="_top" xlink:title=" ">
<polygon fill="white" stroke="#666666" points="660.5,-404 607.5,-404 607.5,-385 660.5,-385 660.5,-404"/>
<text text-anchor="middle" x="634" y="-392" font-family="Helvetica,sans-Serif" font-size="10.00">panel.h</text>
</a>
</g>
</g>
<!-- Node21&#45;&gt;Node22 -->
<g id="edge39_Node000021_Node000022" class="edge">
<title>Node21&#45;&gt;Node22</title>
<g id="a_edge39_Node000021_Node000022"><a xlink:title=" ">
<path fill="none" stroke="#63b8ff" d="M677.41,-439.75C669.84,-432.03 658.62,-420.6 649.49,-411.28"/>
<polygon fill="#63b8ff" stroke="#63b8ff" points="651.93,-408.78 642.43,-404.09 646.93,-413.68 651.93,-408.78"/>
</a>
</g>
</g>
<!-- Node22&#45;&gt;Node4 -->
<g id="edge40_Node000022_Node000004" class="edge">
<title>Node22&#45;&gt;Node4</title>
<g id="a_edge40_Node000022_Node000004"><a xlink:title=" ">
<path fill="none" stroke="#63b8ff" d="M645.56,-384.81C666.38,-368.07 708,-329.14 708,-285.5 708,-285.5 708,-285.5 708,-228.5 708,-192.51 682.94,-156.76 666.05,-136.76"/>
<polygon fill="#63b8ff" stroke="#63b8ff" points="668.64,-134.4 659.41,-129.2 663.38,-139.02 668.64,-134.4"/>
</a>
</g>
</g>
<!-- Node22&#45;&gt;Node8 -->
<g id="edge42_Node000022_Node000008" class="edge">
<title>Node22&#45;&gt;Node8</title>
<g id="a_edge42_Node000022_Node000008"><a xlink:title=" ">
<path fill="none" stroke="#63b8ff" d="M622.06,-384.84C596.67,-366.44 537.06,-323.23 505.47,-300.34"/>
<polygon fill="#63b8ff" stroke="#63b8ff" points="507.15,-297.23 497,-294.2 503.04,-302.9 507.15,-297.23"/>
</a>
</g>
</g>
<!-- Node22&#45;&gt;Node16 -->
<g id="edge41_Node000022_Node000016" class="edge">
<title>Node22&#45;&gt;Node16</title>
<g id="a_edge41_Node000022_Node000016"><a xlink:title=" ">
<path fill="none" stroke="#63b8ff" d="M629.81,-384.74C617.53,-359.09 581.5,-283.78 564.75,-248.78"/>
<polygon fill="#63b8ff" stroke="#63b8ff" points="567.69,-246.82 560.21,-239.31 561.37,-249.84 567.69,-246.82"/>
</a>
</g>
</g>
<!-- Node22&#45;&gt;Node17 -->
<g id="edge43_Node000022_Node000017" class="edge">
<title>Node22&#45;&gt;Node17</title>
<g id="a_edge43_Node000022_Node000017"><a xlink:title=" ">
<path fill="none" stroke="#63b8ff" d="M607.26,-386.93C604.48,-386.27 601.68,-385.62 599,-385 540.48,-371.58 472.34,-357.08 430.96,-348.4"/>
<polygon fill="#63b8ff" stroke="#63b8ff" points="431.54,-344.94 421.04,-346.32 430.11,-351.8 431.54,-344.94"/>
</a>
</g>
</g>
<!-- Node23&#45;&gt;Node6 -->
<g id="edge45_Node000023_Node000006" class="edge">
<title>Node23&#45;&gt;Node6</title>
<g id="a_edge45_Node000023_Node000006"><a xlink:title=" ">
<path fill="none" stroke="#63b8ff" d="M551.83,-439.75C551.7,-432.8 551.52,-422.85 551.35,-414.13"/>
<polygon fill="#63b8ff" stroke="#63b8ff" points="554.85,-414.02 551.16,-404.09 547.85,-414.15 554.85,-414.02"/>
</a>
</g>
</g>
</g>
</svg>
