<?xml version="1.0" encoding="UTF-8" standalone="no"?>
<!DOCTYPE svg PUBLIC "-//W3C//DTD SVG 1.1//EN"
 "http://www.w3.org/Graphics/SVG/1.1/DTD/svg11.dtd">
<!-- Generated by graphviz version 2.43.0 (0)
 -->
<!-- Title: panel&#45;typebuiltins.h Pages: 1 -->
<svg width="815pt" height="82pt"
 viewBox="0.00 0.00 815.00 82.00" xmlns="http://www.w3.org/2000/svg" xmlns:xlink="http://www.w3.org/1999/xlink">
<g id="graph0" class="graph" transform="scale(1 1) rotate(0) translate(4 78)">
<title>panel&#45;typebuiltins.h</title>
<!-- Node1 -->
<g id="Node000001" class="node">
<title>Node1</title>
<g id="a_Node000001"><a xlink:title=" ">
<polygon fill="#999999" stroke="#666666" points="461.5,-74 347.5,-74 347.5,-55 461.5,-55 461.5,-74"/>
<text text-anchor="middle" x="404.5" y="-62" font-family="Helvetica,sans-Serif" font-size="10.00">panel&#45;typebuiltins.h</text>
</a>
</g>
</g>
<!-- Node2 -->
<g id="Node000002" class="node">
<title>Node2</title>
<g id="a_Node000002"><a xlink:href="button-widget_8c.html" target="_top" xlink:title=" ">
<polygon fill="white" stroke="#666666" points="93,-19 0,-19 0,0 93,0 93,-19"/>
<text text-anchor="middle" x="46.5" y="-7" font-family="Helvetica,sans-Serif" font-size="10.00">button&#45;widget.c</text>
</a>
</g>
</g>
<!-- Node1&#45;&gt;Node2 -->
<g id="edge1_Node000001_Node000002" class="edge">
<title>Node1&#45;&gt;Node2</title>
<g id="a_edge1_Node000001_Node000002"><a xlink:title=" ">
<path fill="none" stroke="#63b8ff" d="M337.29,-53.78C275.87,-44.86 182.55,-31.21 101.5,-19 98.73,-18.58 95.88,-18.15 93.01,-17.71"/>
<polygon fill="#63b8ff" stroke="#63b8ff" points="336.84,-57.25 347.24,-55.22 337.85,-50.32 336.84,-57.25"/>
</a>
</g>
</g>
<!-- Node3 -->
<g id="Node000003" class="node">
<title>Node3</title>
<g id="a_Node000003"><a xlink:href="panel-action-button_8c.html" target="_top" xlink:title=" ">
<polygon fill="white" stroke="#666666" points="232,-19 111,-19 111,0 232,0 232,-19"/>
<text text-anchor="middle" x="171.5" y="-7" font-family="Helvetica,sans-Serif" font-size="10.00">panel&#45;action&#45;button.c</text>
</a>
</g>
</g>
<!-- Node1&#45;&gt;Node3 -->
<g id="edge2_Node000001_Node000003" class="edge">
<title>Node1&#45;&gt;Node3</title>
<g id="a_edge2_Node000001_Node000003"><a xlink:title=" ">
<path fill="none" stroke="#63b8ff" d="M357.25,-52.75C313.59,-42.82 249.56,-28.26 209.23,-19.08"/>
<polygon fill="#63b8ff" stroke="#63b8ff" points="356.54,-56.18 367.06,-54.98 358.09,-49.35 356.54,-56.18"/>
</a>
</g>
</g>
<!-- Node4 -->
<g id="Node000004" class="node">
<title>Node4</title>
<g id="a_Node000004"><a xlink:href="panel-frame_8c.html" target="_top" xlink:title=" ">
<polygon fill="white" stroke="#666666" points="335,-19 250,-19 250,0 335,0 335,-19"/>
<text text-anchor="middle" x="292.5" y="-7" font-family="Helvetica,sans-Serif" font-size="10.00">panel&#45;frame.c</text>
</a>
</g>
</g>
<!-- Node1&#45;&gt;Node4 -->
<g id="edge3_Node000001_Node000004" class="edge">
<title>Node1&#45;&gt;Node4</title>
<g id="a_edge3_Node000001_Node000004"><a xlink:title=" ">
<path fill="none" stroke="#63b8ff" d="M377.31,-50.63C356.68,-40.87 328.88,-27.71 310.82,-19.17"/>
<polygon fill="#63b8ff" stroke="#63b8ff" points="375.97,-53.87 386.51,-54.98 378.96,-47.54 375.97,-53.87"/>
</a>
</g>
</g>
<!-- Node5 -->
<g id="Node000005" class="node">
<title>Node5</title>
<g id="a_Node000005"><a xlink:href="panel-menu-bar_8c.html" target="_top" xlink:title=" ">
<polygon fill="white" stroke="#666666" points="455.5,-19 353.5,-19 353.5,0 455.5,0 455.5,-19"/>
<text text-anchor="middle" x="404.5" y="-7" font-family="Helvetica,sans-Serif" font-size="10.00">panel&#45;menu&#45;bar.c</text>
</a>
</g>
</g>
<!-- Node1&#45;&gt;Node5 -->
<g id="edge4_Node000001_Node000005" class="edge">
<title>Node1&#45;&gt;Node5</title>
<g id="a_edge4_Node000001_Node000005"><a xlink:title=" ">
<path fill="none" stroke="#63b8ff" d="M404.5,-44.66C404.5,-35.93 404.5,-25.99 404.5,-19.09"/>
<polygon fill="#63b8ff" stroke="#63b8ff" points="401,-44.75 404.5,-54.75 408,-44.75 401,-44.75"/>
</a>
</g>
</g>
<!-- Node6 -->
<g id="Node000006" class="node">
<title>Node6</title>
<g id="a_Node000006"><a xlink:href="panel-toplevel_8c.html" target="_top" xlink:title=" ">
<polygon fill="white" stroke="#666666" points="569,-19 474,-19 474,0 569,0 569,-19"/>
<text text-anchor="middle" x="521.5" y="-7" font-family="Helvetica,sans-Serif" font-size="10.00">panel&#45;toplevel.c</text>
</a>
</g>
</g>
<!-- Node1&#45;&gt;Node6 -->
<g id="edge5_Node000001_Node000006" class="edge">
<title>Node1&#45;&gt;Node6</title>
<g id="a_edge5_Node000001_Node000006"><a xlink:title=" ">
<path fill="none" stroke="#63b8ff" d="M432.61,-50.77C454.19,-40.99 483.41,-27.75 502.36,-19.17"/>
<polygon fill="#63b8ff" stroke="#63b8ff" points="430.96,-47.67 423.3,-54.98 433.85,-54.05 430.96,-47.67"/>
</a>
</g>
</g>
<!-- Node7 -->
<g id="Node000007" class="node">
<title>Node7</title>
<g id="a_Node000007"><a xlink:href="panel-typebuiltins_8c.html" target="_top" xlink:title=" ">
<polygon fill="white" stroke="#666666" points="700,-19 587,-19 587,0 700,0 700,-19"/>
<text text-anchor="middle" x="643.5" y="-7" font-family="Helvetica,sans-Serif" font-size="10.00">panel&#45;typebuiltins.c</text>
</a>
</g>
</g>
<!-- Node1&#45;&gt;Node7 -->
<g id="edge6_Node000001_Node000007" class="edge">
<title>Node1&#45;&gt;Node7</title>
<g id="a_edge6_Node000001_Node000007"><a xlink:title=" ">
<path fill="none" stroke="#63b8ff" d="M452.68,-52.82C497.47,-42.88 563.34,-28.28 604.8,-19.08"/>
<polygon fill="#63b8ff" stroke="#63b8ff" points="451.9,-49.4 442.9,-54.98 453.42,-56.24 451.9,-49.4"/>
</a>
</g>
</g>
<!-- Node8 -->
<g id="Node000008" class="node">
<title>Node8</title>
<g id="a_Node000008"><a xlink:href="panel-widget_8c.html" target="_top" xlink:title=" ">
<polygon fill="white" stroke="#666666" points="807,-19 718,-19 718,0 807,0 807,-19"/>
<text text-anchor="middle" x="762.5" y="-7" font-family="Helvetica,sans-Serif" font-size="10.00">panel&#45;widget.c</text>
</a>
</g>
</g>
<!-- Node1&#45;&gt;Node8 -->
<g id="edge7_Node000001_Node000008" class="edge">
<title>Node1&#45;&gt;Node8</title>
<g id="a_edge7_Node000001_Node000008"><a xlink:title=" ">
<path fill="none" stroke="#63b8ff" d="M471.61,-53.99C533.43,-45.16 627.7,-31.53 709.5,-19 712.26,-18.58 715.11,-18.14 717.97,-17.69"/>
<polygon fill="#63b8ff" stroke="#63b8ff" points="471,-50.54 461.59,-55.42 471.99,-57.47 471,-50.54"/>
</a>
</g>
</g>
</g>
</svg>
