<?xml version="1.0" encoding="UTF-8" standalone="no"?>
<!DOCTYPE svg PUBLIC "-//W3C//DTD SVG 1.1//EN"
 "http://www.w3.org/Graphics/SVG/1.1/DTD/svg11.dtd">
<!-- Generated by graphviz version 2.43.0 (0)
 -->
<!-- Title: panel&#45;applet&#45;frame.c Pages: 1 -->
<svg width="1670pt" height="533pt"
 viewBox="0.00 0.00 1669.62 533.00" xmlns="http://www.w3.org/2000/svg" xmlns:xlink="http://www.w3.org/1999/xlink">
<g id="graph0" class="graph" transform="scale(1 1) rotate(0) translate(4 529)">
<title>panel&#45;applet&#45;frame.c</title>
<!-- Node1 -->
<g id="Node000001" class="node">
<title>Node1</title>
<g id="a_Node000001"><a xlink:title=" ">
<polygon fill="#999999" stroke="#666666" points="979.12,-525 860.12,-525 860.12,-506 979.12,-506 979.12,-525"/>
<text text-anchor="middle" x="919.62" y="-513" font-family="Helvetica,sans-Serif" font-size="10.00">panel&#45;applet&#45;frame.c</text>
</a>
</g>
</g>
<!-- Node2 -->
<g id="Node000002" class="node">
<title>Node2</title>
<g id="a_Node000002"><a xlink:title=" ">
<polygon fill="#e0e0e0" stroke="#999999" points="239.12,-129 184.12,-129 184.12,-110 239.12,-110 239.12,-129"/>
<text text-anchor="middle" x="211.62" y="-117" font-family="Helvetica,sans-Serif" font-size="10.00">config.h</text>
</a>
</g>
</g>
<!-- Node1&#45;&gt;Node2 -->
<g id="edge1_Node000001_Node000002" class="edge">
<title>Node1&#45;&gt;Node2</title>
<g id="a_edge1_Node000001_Node000002"><a xlink:title=" ">
<path fill="none" stroke="#63b8ff" d="M860.08,-514.66C698.48,-514.55 254.45,-510.47 114.62,-470 58.91,-453.88 0.62,-464.5 0.62,-406.5 0.62,-406.5 0.62,-406.5 0.62,-228.5 0.62,-199.04 -1.86,-185.16 19.62,-165 41.63,-144.34 124.51,-131.02 173.9,-124.73"/>
<polygon fill="#63b8ff" stroke="#63b8ff" points="174.4,-128.2 183.89,-123.5 173.54,-121.25 174.4,-128.2"/>
</a>
</g>
</g>
<!-- Node3 -->
<g id="Node000003" class="node">
<title>Node3</title>
<g id="a_Node000003"><a xlink:title=" ">
<polygon fill="#e0e0e0" stroke="#999999" points="1451.12,-470 1398.12,-470 1398.12,-451 1451.12,-451 1451.12,-470"/>
<text text-anchor="middle" x="1424.62" y="-458" font-family="Helvetica,sans-Serif" font-size="10.00">string.h</text>
</a>
</g>
</g>
<!-- Node1&#45;&gt;Node3 -->
<g id="edge2_Node000001_Node000003" class="edge">
<title>Node1&#45;&gt;Node3</title>
<g id="a_edge2_Node000001_Node000003"><a xlink:title=" ">
<path fill="none" stroke="#63b8ff" d="M979.33,-511.6C1067.02,-506.74 1235.86,-495.08 1387.95,-470.06"/>
<polygon fill="#63b8ff" stroke="#63b8ff" points="1388.66,-473.49 1397.95,-468.4 1387.51,-466.59 1388.66,-473.49"/>
</a>
</g>
</g>
<!-- Node4 -->
<g id="Node000004" class="node">
<title>Node4</title>
<g id="a_Node000004"><a xlink:title=" ">
<polygon fill="#e0e0e0" stroke="#999999" points="1543.62,-470 1469.62,-470 1469.62,-451 1543.62,-451 1543.62,-470"/>
<text text-anchor="middle" x="1506.62" y="-458" font-family="Helvetica,sans-Serif" font-size="10.00">glib/gi18n.h</text>
</a>
</g>
</g>
<!-- Node1&#45;&gt;Node4 -->
<g id="edge3_Node000001_Node000004" class="edge">
<title>Node1&#45;&gt;Node4</title>
<g id="a_edge3_Node000001_Node000004"><a xlink:title=" ">
<path fill="none" stroke="#63b8ff" d="M979.47,-511.55C1077.64,-506.28 1279.18,-493.64 1459.58,-470"/>
<polygon fill="#63b8ff" stroke="#63b8ff" points="1460.06,-473.47 1469.51,-468.69 1459.14,-466.53 1460.06,-473.47"/>
</a>
</g>
</g>
<!-- Node5 -->
<g id="Node000005" class="node">
<title>Node5</title>
<g id="a_Node000005"><a xlink:title=" ">
<polygon fill="#e0e0e0" stroke="#999999" points="978.12,-294 919.12,-294 919.12,-275 978.12,-275 978.12,-294"/>
<text text-anchor="middle" x="948.62" y="-282" font-family="Helvetica,sans-Serif" font-size="10.00">gio/gio.h</text>
</a>
</g>
</g>
<!-- Node1&#45;&gt;Node5 -->
<g id="edge4_Node000001_Node000005" class="edge">
<title>Node1&#45;&gt;Node5</title>
<g id="a_edge4_Node000001_Node000005"><a xlink:title=" ">
<path fill="none" stroke="#63b8ff" d="M920.72,-505.8C924.96,-472.29 940.31,-351.08 946.25,-304.2"/>
<polygon fill="#63b8ff" stroke="#63b8ff" points="949.73,-304.57 947.52,-294.21 942.79,-303.69 949.73,-304.57"/>
</a>
</g>
</g>
<!-- Node6 -->
<g id="Node000006" class="node">
<title>Node6</title>
<g id="a_Node000006"><a xlink:title=" ">
<polygon fill="#e0e0e0" stroke="#999999" points="1061.12,-294 996.12,-294 996.12,-275 1061.12,-275 1061.12,-294"/>
<text text-anchor="middle" x="1028.62" y="-282" font-family="Helvetica,sans-Serif" font-size="10.00">gdk/gdk.h</text>
</a>
</g>
</g>
<!-- Node1&#45;&gt;Node6 -->
<g id="edge5_Node000001_Node000006" class="edge">
<title>Node1&#45;&gt;Node6</title>
<g id="a_edge5_Node000001_Node000006"><a xlink:title=" ">
<path fill="none" stroke="#63b8ff" d="M923.76,-505.8C939.81,-472.08 998.14,-349.54 1020.14,-303.31"/>
<polygon fill="#63b8ff" stroke="#63b8ff" points="1023.34,-304.74 1024.48,-294.21 1017.02,-301.73 1023.34,-304.74"/>
</a>
</g>
</g>
<!-- Node7 -->
<g id="Node000007" class="node">
<title>Node7</title>
<g id="a_Node000007"><a xlink:href="panel-gtk_8h.html" target="_top" xlink:title=" ">
<polygon fill="white" stroke="#666666" points="238.12,-360 133.12,-360 133.12,-330 238.12,-330 238.12,-360"/>
<text text-anchor="start" x="141.12" y="-348" font-family="Helvetica,sans-Serif" font-size="10.00">libpanel&#45;util/panel</text>
<text text-anchor="middle" x="185.62" y="-337" font-family="Helvetica,sans-Serif" font-size="10.00">&#45;gtk.h</text>
</a>
</g>
</g>
<!-- Node1&#45;&gt;Node7 -->
<g id="edge6_Node000001_Node000007" class="edge">
<title>Node1&#45;&gt;Node7</title>
<g id="a_edge6_Node000001_Node000007"><a xlink:title=" ">
<path fill="none" stroke="#63b8ff" d="M860.05,-513.4C708.93,-510.2 319.05,-499.19 268.62,-470 229.91,-447.6 205.66,-399.02 193.98,-369.75"/>
<polygon fill="#63b8ff" stroke="#63b8ff" points="197.2,-368.38 190.36,-360.28 190.66,-370.87 197.2,-368.38"/>
</a>
</g>
</g>
<!-- Node9 -->
<g id="Node000009" class="node">
<title>Node9</title>
<g id="a_Node000009"><a xlink:href="panel-applets-manager_8h.html" target="_top" xlink:title=" ">
<polygon fill="white" stroke="#666666" points="1144.12,-470 1005.12,-470 1005.12,-451 1144.12,-451 1144.12,-470"/>
<text text-anchor="middle" x="1074.62" y="-458" font-family="Helvetica,sans-Serif" font-size="10.00">panel&#45;applets&#45;manager.h</text>
</a>
</g>
</g>
<!-- Node1&#45;&gt;Node9 -->
<g id="edge8_Node000001_Node000009" class="edge">
<title>Node1&#45;&gt;Node9</title>
<g id="a_edge8_Node000001_Node000009"><a xlink:title=" ">
<path fill="none" stroke="#63b8ff" d="M944.52,-505.98C970.32,-497.16 1010.84,-483.31 1039.8,-473.41"/>
<polygon fill="#63b8ff" stroke="#63b8ff" points="1041.19,-476.63 1049.52,-470.08 1038.93,-470.01 1041.19,-476.63"/>
</a>
</g>
</g>
<!-- Node11 -->
<g id="Node000011" class="node">
<title>Node11</title>
<g id="a_Node000011"><a xlink:href="panel-applet-frame_8h.html" target="_top" xlink:title=" ">
<polygon fill="white" stroke="#666666" points="766.62,-415 646.62,-415 646.62,-396 766.62,-396 766.62,-415"/>
<text text-anchor="middle" x="706.62" y="-403" font-family="Helvetica,sans-Serif" font-size="10.00">panel&#45;applet&#45;frame.h</text>
</a>
</g>
</g>
<!-- Node1&#45;&gt;Node11 -->
<g id="edge64_Node000001_Node000011" class="edge">
<title>Node1&#45;&gt;Node11</title>
<g id="a_edge64_Node000001_Node000011"><a xlink:title=" ">
<path fill="none" stroke="#63b8ff" d="M902.55,-505.84C865.3,-486.96 776.55,-441.96 732.43,-419.59"/>
<polygon fill="#63b8ff" stroke="#63b8ff" points="733.98,-416.45 723.48,-415.05 730.81,-422.69 733.98,-416.45"/>
</a>
</g>
</g>
<!-- Node19 -->
<g id="Node000019" class="node">
<title>Node19</title>
<g id="a_Node000019"><a xlink:href="panel-background_8h.html" target="_top" xlink:title=" ">
<polygon fill="white" stroke="#666666" points="522.12,-184 409.12,-184 409.12,-165 522.12,-165 522.12,-184"/>
<text text-anchor="middle" x="465.62" y="-172" font-family="Helvetica,sans-Serif" font-size="10.00">panel&#45;background.h</text>
</a>
</g>
</g>
<!-- Node1&#45;&gt;Node19 -->
<g id="edge56_Node000001_Node000019" class="edge">
<title>Node1&#45;&gt;Node19</title>
<g id="a_edge56_Node000001_Node000019"><a xlink:title=" ">
<path fill="none" stroke="#63b8ff" d="M859.98,-510.63C701.62,-499.54 282.62,-464.72 282.62,-406.5 282.62,-406.5 282.62,-406.5 282.62,-283.5 282.62,-254.04 280.52,-240.56 301.62,-220 327.37,-194.9 365.78,-183.62 398.96,-178.68"/>
<polygon fill="#63b8ff" stroke="#63b8ff" points="399.61,-182.12 409.06,-177.34 398.69,-175.18 399.61,-182.12"/>
</a>
</g>
</g>
<!-- Node21 -->
<g id="Node000021" class="node">
<title>Node21</title>
<g id="a_Node000021"><a xlink:href="mate-panel_2mate-panel_2applet_8h.html" target="_top" xlink:title=" ">
<polygon fill="white" stroke="#666666" points="898.62,-354.5 842.62,-354.5 842.62,-335.5 898.62,-335.5 898.62,-354.5"/>
<text text-anchor="middle" x="870.62" y="-342.5" font-family="Helvetica,sans-Serif" font-size="10.00">applet.h</text>
</a>
</g>
</g>
<!-- Node1&#45;&gt;Node21 -->
<g id="edge53_Node000001_Node000021" class="edge">
<title>Node1&#45;&gt;Node21</title>
<g id="a_edge53_Node000001_Node000021"><a xlink:title=" ">
<path fill="none" stroke="#63b8ff" d="M917.12,-505.91C909.52,-479.78 886.55,-400.79 876.01,-364.54"/>
<polygon fill="#63b8ff" stroke="#63b8ff" points="879.32,-363.4 873.17,-354.77 872.6,-365.35 879.32,-363.4"/>
</a>
</g>
</g>
<!-- Node23 -->
<g id="Node000023" class="node">
<title>Node23</title>
<g id="a_Node000023"><a xlink:href="panel-profile_8h.html" target="_top" xlink:title=" ">
<polygon fill="white" stroke="#666666" points="872.12,-415 785.12,-415 785.12,-396 872.12,-396 872.12,-415"/>
<text text-anchor="middle" x="828.62" y="-403" font-family="Helvetica,sans-Serif" font-size="10.00">panel&#45;profile.h</text>
</a>
</g>
</g>
<!-- Node1&#45;&gt;Node23 -->
<g id="edge40_Node000001_Node000023" class="edge">
<title>Node1&#45;&gt;Node23</title>
<g id="a_edge40_Node000001_Node000023"><a xlink:title=" ">
<path fill="none" stroke="#63b8ff" d="M912.17,-505.66C896.97,-487.61 862.14,-446.28 842.59,-423.08"/>
<polygon fill="#63b8ff" stroke="#63b8ff" points="845.03,-420.55 835.91,-415.16 839.68,-425.06 845.03,-420.55"/>
</a>
</g>
</g>
<!-- Node24 -->
<g id="Node000024" class="node">
<title>Node24</title>
<g id="a_Node000024"><a xlink:href="panel_8h.html" target="_top" xlink:title=" ">
<polygon fill="white" stroke="#666666" points="564.12,-415 511.12,-415 511.12,-396 564.12,-396 564.12,-415"/>
<text text-anchor="middle" x="537.62" y="-403" font-family="Helvetica,sans-Serif" font-size="10.00">panel.h</text>
</a>
</g>
</g>
<!-- Node1&#45;&gt;Node24 -->
<g id="edge48_Node000001_Node000024" class="edge">
<title>Node1&#45;&gt;Node24</title>
<g id="a_edge48_Node000001_Node000024"><a xlink:title=" ">
<path fill="none" stroke="#63b8ff" d="M889.32,-505.94C819.89,-486.3 649.44,-438.12 574.26,-416.86"/>
<polygon fill="#63b8ff" stroke="#63b8ff" points="574.88,-413.4 564.31,-414.05 572.98,-420.13 574.88,-413.4"/>
</a>
</g>
</g>
<!-- Node25 -->
<g id="Node000025" class="node">
<title>Node25</title>
<g id="a_Node000025"><a xlink:href="panel-marshal_8h.html" target="_top" xlink:title=" ">
<polygon fill="white" stroke="#666666" points="1258.62,-470 1162.62,-470 1162.62,-451 1258.62,-451 1258.62,-470"/>
<text text-anchor="middle" x="1210.62" y="-458" font-family="Helvetica,sans-Serif" font-size="10.00">panel&#45;marshal.h</text>
</a>
</g>
</g>
<!-- Node1&#45;&gt;Node25 -->
<g id="edge54_Node000001_Node000025" class="edge">
<title>Node1&#45;&gt;Node25</title>
<g id="a_edge54_Node000001_Node000025"><a xlink:title=" ">
<path fill="none" stroke="#63b8ff" d="M966.37,-505.98C1017.34,-496.7 1098.93,-481.84 1153.61,-471.88"/>
<polygon fill="#63b8ff" stroke="#63b8ff" points="1154.29,-475.32 1163.5,-470.08 1153.03,-468.43 1154.29,-475.32"/>
</a>
</g>
</g>
<!-- Node26 -->
<g id="Node000026" class="node">
<title>Node26</title>
<g id="a_Node000026"><a xlink:href="panel-lockdown_8h.html" target="_top" xlink:title=" ">
<polygon fill="white" stroke="#666666" points="1380.12,-470 1277.12,-470 1277.12,-451 1380.12,-451 1380.12,-470"/>
<text text-anchor="middle" x="1328.62" y="-458" font-family="Helvetica,sans-Serif" font-size="10.00">panel&#45;lockdown.h</text>
</a>
</g>
</g>
<!-- Node1&#45;&gt;Node26 -->
<g id="edge57_Node000001_Node000026" class="edge">
<title>Node1&#45;&gt;Node26</title>
<g id="a_edge57_Node000001_Node000026"><a xlink:title=" ">
<path fill="none" stroke="#63b8ff" d="M979.38,-507.07C1046.62,-498.65 1159.41,-484.41 1266.98,-470.07"/>
<polygon fill="#63b8ff" stroke="#63b8ff" points="1267.59,-473.52 1277.04,-468.73 1266.66,-466.58 1267.59,-473.52"/>
</a>
</g>
</g>
<!-- Node27 -->
<g id="Node000027" class="node">
<title>Node27</title>
<g id="a_Node000027"><a xlink:href="panel-stock-icons_8h.html" target="_top" xlink:title=" ">
<polygon fill="white" stroke="#666666" points="140.62,-184 28.62,-184 28.62,-165 140.62,-165 140.62,-184"/>
<text text-anchor="middle" x="84.62" y="-172" font-family="Helvetica,sans-Serif" font-size="10.00">panel&#45;stock&#45;icons.h</text>
</a>
</g>
</g>
<!-- Node1&#45;&gt;Node27 -->
<g id="edge60_Node000001_Node000027" class="edge">
<title>Node1&#45;&gt;Node27</title>
<g id="a_edge60_Node000001_Node000027"><a xlink:title=" ">
<path fill="none" stroke="#63b8ff" d="M860.06,-513.17C717.33,-509.56 359.02,-497.93 242.62,-470 173.02,-453.3 94.62,-478.08 94.62,-406.5 94.62,-406.5 94.62,-406.5 94.62,-283.5 94.62,-252.06 90.36,-215.68 87.41,-194.19"/>
<polygon fill="#63b8ff" stroke="#63b8ff" points="90.85,-193.56 85.97,-184.15 83.92,-194.55 90.85,-193.56"/>
</a>
</g>
</g>
<!-- Node28 -->
<g id="Node000028" class="node">
<title>Node28</title>
<g id="a_Node000028"><a xlink:href="panel-schemas_8h.html" target="_top" xlink:title=" ">
<polygon fill="white" stroke="#666666" points="1661.62,-470 1561.62,-470 1561.62,-451 1661.62,-451 1661.62,-470"/>
<text text-anchor="middle" x="1611.62" y="-458" font-family="Helvetica,sans-Serif" font-size="10.00">panel&#45;schemas.h</text>
</a>
</g>
</g>
<!-- Node1&#45;&gt;Node28 -->
<g id="edge63_Node000001_Node000028" class="edge">
<title>Node1&#45;&gt;Node28</title>
<g id="a_edge63_Node000001_Node000028"><a xlink:title=" ">
<path fill="none" stroke="#63b8ff" d="M979.53,-511.75C1090.35,-506.33 1335.02,-492.9 1551.48,-470.04"/>
<polygon fill="#63b8ff" stroke="#63b8ff" points="1551.87,-473.52 1561.44,-468.98 1551.12,-466.56 1551.87,-473.52"/>
</a>
</g>
</g>
<!-- Node8 -->
<g id="Node000008" class="node">
<title>Node8</title>
<g id="a_Node000008"><a xlink:title=" ">
<polygon fill="#e0e0e0" stroke="#999999" points="348.62,-129 288.62,-129 288.62,-110 348.62,-110 348.62,-129"/>
<text text-anchor="middle" x="318.62" y="-117" font-family="Helvetica,sans-Serif" font-size="10.00">gtk/gtk.h</text>
</a>
</g>
</g>
<!-- Node7&#45;&gt;Node8 -->
<g id="edge7_Node000007_Node000008" class="edge">
<title>Node7&#45;&gt;Node8</title>
<g id="a_edge7_Node000007_Node000008"><a xlink:title=" ">
<path fill="none" stroke="#63b8ff" d="M181.31,-329.73C172.37,-296.97 155.53,-215.32 192.62,-165 212.36,-138.22 249.51,-127.48 278.38,-123.21"/>
<polygon fill="#63b8ff" stroke="#63b8ff" points="279.12,-126.65 288.6,-121.92 278.24,-119.7 279.12,-126.65"/>
</a>
</g>
</g>
<!-- Node10 -->
<g id="Node000010" class="node">
<title>Node10</title>
<g id="a_Node000010"><a xlink:title=" ">
<polygon fill="#e0e0e0" stroke="#999999" points="1249.12,-415 1172.12,-415 1172.12,-396 1249.12,-396 1249.12,-415"/>
<text text-anchor="middle" x="1210.62" y="-403" font-family="Helvetica,sans-Serif" font-size="10.00">glib&#45;object.h</text>
</a>
</g>
</g>
<!-- Node9&#45;&gt;Node10 -->
<g id="edge9_Node000009_Node000010" class="edge">
<title>Node9&#45;&gt;Node10</title>
<g id="a_edge9_Node000009_Node000010"><a xlink:title=" ">
<path fill="none" stroke="#63b8ff" d="M1096.47,-450.98C1118.74,-442.3 1153.52,-428.75 1178.84,-418.88"/>
<polygon fill="#63b8ff" stroke="#63b8ff" points="1180.32,-422.06 1188.37,-415.17 1177.78,-415.54 1180.32,-422.06"/>
</a>
</g>
</g>
<!-- Node9&#45;&gt;Node11 -->
<g id="edge10_Node000009_Node000011" class="edge">
<title>Node9&#45;&gt;Node11</title>
<g id="a_edge10_Node000009_Node000011"><a xlink:title=" ">
<path fill="none" stroke="#63b8ff" d="M1015.49,-450.98C950.14,-441.57 844.98,-426.43 775.83,-416.47"/>
<polygon fill="#63b8ff" stroke="#63b8ff" points="776.3,-413 765.9,-415.04 775.3,-419.93 776.3,-413"/>
</a>
</g>
</g>
<!-- Node22 -->
<g id="Node000022" class="node">
<title>Node22</title>
<g id="a_Node000022"><a xlink:href="panel-applet-info_8h.html" target="_top" xlink:title=" ">
<polygon fill="white" stroke="#666666" points="1086.62,-74 976.62,-74 976.62,-55 1086.62,-55 1086.62,-74"/>
<text text-anchor="middle" x="1031.62" y="-62" font-family="Helvetica,sans-Serif" font-size="10.00">panel&#45;applet&#45;info.h</text>
</a>
</g>
</g>
<!-- Node9&#45;&gt;Node22 -->
<g id="edge38_Node000009_Node000022" class="edge">
<title>Node9&#45;&gt;Node22</title>
<g id="a_edge38_Node000009_Node000022"><a xlink:title=" ">
<path fill="none" stroke="#63b8ff" d="M1076.58,-450.72C1080.65,-431.73 1089.62,-385.35 1089.62,-346 1089.62,-346 1089.62,-346 1089.62,-173.5 1089.62,-137.37 1064.12,-101.67 1046.93,-81.71"/>
<polygon fill="#63b8ff" stroke="#63b8ff" points="1049.46,-79.28 1040.18,-74.17 1044.24,-83.95 1049.46,-79.28"/>
</a>
</g>
</g>
<!-- Node11&#45;&gt;Node8 -->
<g id="edge11_Node000011_Node000008" class="edge">
<title>Node11&#45;&gt;Node8</title>
<g id="a_edge11_Node000011_Node000008"><a xlink:title=" ">
<path fill="none" stroke="#63b8ff" d="M646.33,-400.29C553.46,-390.16 378.12,-355.73 301.62,-239 281.38,-208.12 297.41,-163.05 309.12,-138.34"/>
<polygon fill="#63b8ff" stroke="#63b8ff" points="312.4,-139.6 313.76,-129.1 306.15,-136.47 312.4,-139.6"/>
</a>
</g>
</g>
<!-- Node12 -->
<g id="Node000012" class="node">
<title>Node12</title>
<g id="a_Node000012"><a xlink:href="panel-widget_8h.html" target="_top" xlink:title=" ">
<polygon fill="white" stroke="#666666" points="582.12,-294 493.12,-294 493.12,-275 582.12,-275 582.12,-294"/>
<text text-anchor="middle" x="537.62" y="-282" font-family="Helvetica,sans-Serif" font-size="10.00">panel&#45;widget.h</text>
</a>
</g>
</g>
<!-- Node11&#45;&gt;Node12 -->
<g id="edge12_Node000011_Node000012" class="edge">
<title>Node11&#45;&gt;Node12</title>
<g id="a_edge12_Node000011_Node000012"><a xlink:title=" ">
<path fill="none" stroke="#63b8ff" d="M694.46,-395.94C665.86,-375.8 594.01,-325.21 558.36,-300.1"/>
<polygon fill="#63b8ff" stroke="#63b8ff" points="560.31,-297.2 550.12,-294.3 556.28,-302.92 560.31,-297.2"/>
</a>
</g>
</g>
<!-- Node11&#45;&gt;Node21 -->
<g id="edge32_Node000011_Node000021" class="edge">
<title>Node11&#45;&gt;Node21</title>
<g id="a_edge32_Node000011_Node000021"><a xlink:title=" ">
<path fill="none" stroke="#63b8ff" d="M730.47,-395.99C758.52,-385.99 805.29,-369.3 837.02,-357.99"/>
<polygon fill="#63b8ff" stroke="#63b8ff" points="838.5,-361.17 846.74,-354.52 836.15,-354.58 838.5,-361.17"/>
</a>
</g>
</g>
<!-- Node12&#45;&gt;Node8 -->
<g id="edge13_Node000012_Node000008" class="edge">
<title>Node12&#45;&gt;Node8</title>
<g id="a_edge13_Node000012_Node000008"><a xlink:title=" ">
<path fill="none" stroke="#63b8ff" d="M525.43,-274.84C501.39,-257.72 446.24,-218.22 400.62,-184 378.86,-167.68 354.24,-148.52 337.7,-135.54"/>
<polygon fill="#63b8ff" stroke="#63b8ff" points="339.44,-132.46 329.41,-129.03 335.11,-137.96 339.44,-132.46"/>
</a>
</g>
</g>
<!-- Node13 -->
<g id="Node000013" class="node">
<title>Node13</title>
<g id="a_Node000013"><a xlink:title=" ">
<polygon fill="#e0e0e0" stroke="#999999" points="672.12,-239 539.12,-239 539.12,-220 672.12,-220 672.12,-239"/>
<text text-anchor="middle" x="605.62" y="-227" font-family="Helvetica,sans-Serif" font-size="10.00">gdk&#45;pixbuf/gdk&#45;pixbuf.h</text>
</a>
</g>
</g>
<!-- Node12&#45;&gt;Node13 -->
<g id="edge14_Node000012_Node000013" class="edge">
<title>Node12&#45;&gt;Node13</title>
<g id="a_edge14_Node000012_Node000013"><a xlink:title=" ">
<path fill="none" stroke="#63b8ff" d="M548.54,-274.98C558.7,-267.07 574.04,-255.11 586.26,-245.58"/>
<polygon fill="#63b8ff" stroke="#63b8ff" points="588.76,-248.08 594.49,-239.17 584.46,-242.56 588.76,-248.08"/>
</a>
</g>
</g>
<!-- Node14 -->
<g id="Node000014" class="node">
<title>Node14</title>
<g id="a_Node000014"><a xlink:href="button-widget_8h.html" target="_top" xlink:title=" ">
<polygon fill="white" stroke="#666666" points="672.62,-184 578.62,-184 578.62,-165 672.62,-165 672.62,-184"/>
<text text-anchor="middle" x="625.62" y="-172" font-family="Helvetica,sans-Serif" font-size="10.00">button&#45;widget.h</text>
</a>
</g>
</g>
<!-- Node12&#45;&gt;Node14 -->
<g id="edge15_Node000012_Node000014" class="edge">
<title>Node12&#45;&gt;Node14</title>
<g id="a_edge15_Node000012_Node000014"><a xlink:title=" ">
<path fill="none" stroke="#63b8ff" d="M533.49,-274.92C527.9,-261.94 519.79,-237.03 530.62,-220 540.5,-204.45 557.41,-194.25 574.24,-187.58"/>
<polygon fill="#63b8ff" stroke="#63b8ff" points="575.86,-190.72 584.09,-184.06 573.5,-184.13 575.86,-190.72"/>
</a>
</g>
</g>
<!-- Node18 -->
<g id="Node000018" class="node">
<title>Node18</title>
<g id="a_Node000018"><a xlink:href="panel-types_8h.html" target="_top" xlink:title=" ">
<polygon fill="white" stroke="#666666" points="664.12,-129 581.12,-129 581.12,-110 664.12,-110 664.12,-129"/>
<text text-anchor="middle" x="622.62" y="-117" font-family="Helvetica,sans-Serif" font-size="10.00">panel&#45;types.h</text>
</a>
</g>
</g>
<!-- Node12&#45;&gt;Node18 -->
<g id="edge21_Node000012_Node000018" class="edge">
<title>Node12&#45;&gt;Node18</title>
<g id="a_edge21_Node000012_Node000018"><a xlink:title=" ">
<path fill="none" stroke="#63b8ff" d="M582.31,-282.91C615.59,-279.82 659.02,-269.64 681.62,-239 701.14,-212.53 696.29,-194.44 681.62,-165 675.05,-151.82 662.52,-141.52 650.69,-134.16"/>
<polygon fill="#63b8ff" stroke="#63b8ff" points="652.3,-131.05 641.88,-129.1 648.81,-137.12 652.3,-131.05"/>
</a>
</g>
</g>
<!-- Node12&#45;&gt;Node19 -->
<g id="edge22_Node000012_Node000019" class="edge">
<title>Node12&#45;&gt;Node19</title>
<g id="a_edge22_Node000012_Node000019"><a xlink:title=" ">
<path fill="none" stroke="#63b8ff" d="M528.31,-274.95C519.4,-266.44 505.98,-252.71 496.62,-239 486.79,-224.61 478.33,-206.64 472.74,-193.5"/>
<polygon fill="#63b8ff" stroke="#63b8ff" points="475.93,-192.07 468.9,-184.15 469.46,-194.73 475.93,-192.07"/>
</a>
</g>
</g>
<!-- Node20 -->
<g id="Node000020" class="node">
<title>Node20</title>
<g id="a_Node000020"><a xlink:href="panel-toplevel_8h.html" target="_top" xlink:title=" ">
<polygon fill="white" stroke="#666666" points="406.62,-239 310.62,-239 310.62,-220 406.62,-220 406.62,-239"/>
<text text-anchor="middle" x="358.62" y="-227" font-family="Helvetica,sans-Serif" font-size="10.00">panel&#45;toplevel.h</text>
</a>
</g>
</g>
<!-- Node12&#45;&gt;Node20 -->
<g id="edge28_Node000012_Node000020" class="edge">
<title>Node12&#45;&gt;Node20</title>
<g id="a_edge28_Node000012_Node000020"><a xlink:title=" ">
<path fill="none" stroke="#63b8ff" d="M508.86,-274.98C478.68,-266.05 431.05,-251.94 397.52,-242.02"/>
<polygon fill="#63b8ff" stroke="#63b8ff" points="398.19,-238.57 387.6,-239.08 396.2,-245.28 398.19,-238.57"/>
</a>
</g>
</g>
<!-- Node14&#45;&gt;Node8 -->
<g id="edge16_Node000014_Node000008" class="edge">
<title>Node14&#45;&gt;Node8</title>
<g id="a_edge16_Node000014_Node000008"><a xlink:title=" ">
<path fill="none" stroke="#63b8ff" d="M578.32,-165.33C518.15,-154.95 415.28,-137.19 358.75,-127.43"/>
<polygon fill="#63b8ff" stroke="#63b8ff" points="359.21,-123.96 348.76,-125.7 358.02,-130.85 359.21,-123.96"/>
</a>
</g>
</g>
<!-- Node15 -->
<g id="Node000015" class="node">
<title>Node15</title>
<g id="a_Node000015"><a xlink:href="panel-enums_8h.html" target="_top" xlink:title=" ">
<polygon fill="white" stroke="#666666" points="771.12,-129 682.12,-129 682.12,-110 771.12,-110 771.12,-129"/>
<text text-anchor="middle" x="726.62" y="-117" font-family="Helvetica,sans-Serif" font-size="10.00">panel&#45;enums.h</text>
</a>
</g>
</g>
<!-- Node14&#45;&gt;Node15 -->
<g id="edge17_Node000014_Node000015" class="edge">
<title>Node14&#45;&gt;Node15</title>
<g id="a_edge17_Node000014_Node000015"><a xlink:title=" ">
<path fill="none" stroke="#63b8ff" d="M641.85,-164.98C657.8,-156.61 682.4,-143.7 701,-133.95"/>
<polygon fill="#63b8ff" stroke="#63b8ff" points="702.87,-136.92 710.1,-129.17 699.62,-130.72 702.87,-136.92"/>
</a>
</g>
</g>
<!-- Node16 -->
<g id="Node000016" class="node">
<title>Node16</title>
<g id="a_Node000016"><a xlink:title=" ">
<polygon fill="#e0e0e0" stroke="#999999" points="825.62,-19 781.62,-19 781.62,0 825.62,0 825.62,-19"/>
<text text-anchor="middle" x="803.62" y="-7" font-family="Helvetica,sans-Serif" font-size="10.00">glib.h</text>
</a>
</g>
</g>
<!-- Node15&#45;&gt;Node16 -->
<g id="edge18_Node000015_Node000016" class="edge">
<title>Node15&#45;&gt;Node16</title>
<g id="a_edge18_Node000015_Node000016"><a xlink:title=" ">
<path fill="none" stroke="#63b8ff" d="M711.43,-109.84C692.26,-97.77 663.39,-75.12 677.62,-55 698.62,-25.31 741.14,-15.3 770.96,-11.99"/>
<polygon fill="#63b8ff" stroke="#63b8ff" points="771.66,-15.44 781.3,-11.06 771.03,-8.47 771.66,-15.44"/>
</a>
</g>
</g>
<!-- Node17 -->
<g id="Node000017" class="node">
<title>Node17</title>
<g id="a_Node000017"><a xlink:href="panel-enums-gsettings_8h.html" target="_top" xlink:title=" ">
<polygon fill="white" stroke="#666666" points="824.62,-74 686.62,-74 686.62,-55 824.62,-55 824.62,-74"/>
<text text-anchor="middle" x="755.62" y="-62" font-family="Helvetica,sans-Serif" font-size="10.00">panel&#45;enums&#45;gsettings.h</text>
</a>
</g>
</g>
<!-- Node15&#45;&gt;Node17 -->
<g id="edge19_Node000015_Node000017" class="edge">
<title>Node15&#45;&gt;Node17</title>
<g id="a_edge19_Node000015_Node000017"><a xlink:title=" ">
<path fill="none" stroke="#63b8ff" d="M731.41,-109.75C735.38,-102.49 741.14,-91.95 746.05,-82.98"/>
<polygon fill="#63b8ff" stroke="#63b8ff" points="749.19,-84.54 750.92,-74.09 743.05,-81.18 749.19,-84.54"/>
</a>
</g>
</g>
<!-- Node17&#45;&gt;Node16 -->
<g id="edge20_Node000017_Node000016" class="edge">
<title>Node17&#45;&gt;Node16</title>
<g id="a_edge20_Node000017_Node000016"><a xlink:title=" ">
<path fill="none" stroke="#63b8ff" d="M763.55,-54.75C770.47,-47.11 780.68,-35.82 789.07,-26.56"/>
<polygon fill="#63b8ff" stroke="#63b8ff" points="791.72,-28.85 795.84,-19.09 786.53,-24.15 791.72,-28.85"/>
</a>
</g>
</g>
<!-- Node19&#45;&gt;Node2 -->
<g id="edge23_Node000019_Node000002" class="edge">
<title>Node19&#45;&gt;Node2</title>
<g id="a_edge23_Node000019_Node000002"><a xlink:title=" ">
<path fill="none" stroke="#63b8ff" d="M424.81,-164.98C376.44,-154.89 296.49,-138.21 249.46,-128.4"/>
<polygon fill="#63b8ff" stroke="#63b8ff" points="249.89,-124.91 239.38,-126.29 248.46,-131.76 249.89,-124.91"/>
</a>
</g>
</g>
<!-- Node19&#45;&gt;Node8 -->
<g id="edge25_Node000019_Node000008" class="edge">
<title>Node19&#45;&gt;Node8</title>
<g id="a_edge25_Node000019_Node000008"><a xlink:title=" ">
<path fill="none" stroke="#63b8ff" d="M442,-164.98C417.71,-156.23 379.67,-142.51 352.24,-132.62"/>
<polygon fill="#63b8ff" stroke="#63b8ff" points="353.26,-129.27 342.67,-129.17 350.89,-135.85 353.26,-129.27"/>
</a>
</g>
</g>
<!-- Node19&#45;&gt;Node15 -->
<g id="edge26_Node000019_Node000015" class="edge">
<title>Node19&#45;&gt;Node15</title>
<g id="a_edge26_Node000019_Node000015"><a xlink:title=" ">
<path fill="none" stroke="#63b8ff" d="M507.55,-164.98C552.89,-155.78 625.23,-141.09 674.26,-131.13"/>
<polygon fill="#63b8ff" stroke="#63b8ff" points="675.25,-134.5 684.36,-129.08 673.86,-127.64 675.25,-134.5"/>
</a>
</g>
</g>
<!-- Node19&#45;&gt;Node16 -->
<g id="edge24_Node000019_Node000016" class="edge">
<title>Node19&#45;&gt;Node16</title>
<g id="a_edge24_Node000019_Node000016"><a xlink:title=" ">
<path fill="none" stroke="#63b8ff" d="M479.76,-164.99C500.19,-152.72 539.17,-129.4 572.62,-110 615.49,-85.13 624.33,-75.13 669.62,-55 703.39,-39.99 743.85,-27.23 771.41,-19.27"/>
<polygon fill="#63b8ff" stroke="#63b8ff" points="772.64,-22.56 781.3,-16.46 770.73,-15.83 772.64,-22.56"/>
</a>
</g>
</g>
<!-- Node19&#45;&gt;Node18 -->
<g id="edge27_Node000019_Node000018" class="edge">
<title>Node19&#45;&gt;Node18</title>
<g id="a_edge27_Node000019_Node000018"><a xlink:title=" ">
<path fill="none" stroke="#63b8ff" d="M490.84,-164.98C516.97,-156.16 558.02,-142.31 587.35,-132.41"/>
<polygon fill="#63b8ff" stroke="#63b8ff" points="588.84,-135.6 597.2,-129.08 586.6,-128.96 588.84,-135.6"/>
</a>
</g>
</g>
<!-- Node20&#45;&gt;Node8 -->
<g id="edge29_Node000020_Node000008" class="edge">
<title>Node20&#45;&gt;Node8</title>
<g id="a_edge29_Node000020_Node000008"><a xlink:title=" ">
<path fill="none" stroke="#63b8ff" d="M355.35,-219.66C348.81,-202.01 334.02,-162.09 325.34,-138.64"/>
<polygon fill="#63b8ff" stroke="#63b8ff" points="328.58,-137.32 321.83,-129.16 322.02,-139.75 328.58,-137.32"/>
</a>
</g>
</g>
<!-- Node20&#45;&gt;Node15 -->
<g id="edge31_Node000020_Node000015" class="edge">
<title>Node20&#45;&gt;Node15</title>
<g id="a_edge31_Node000020_Node000015"><a xlink:title=" ">
<path fill="none" stroke="#63b8ff" d="M402.41,-219.93C437.87,-212.35 488.77,-200.02 531.62,-184 549.31,-177.39 552.01,-171.83 569.62,-165 605.61,-151.04 647.76,-139.34 679.33,-131.44"/>
<polygon fill="#63b8ff" stroke="#63b8ff" points="680.31,-134.8 689.18,-129.01 678.63,-128.01 680.31,-134.8"/>
</a>
</g>
</g>
<!-- Node20&#45;&gt;Node19 -->
<g id="edge30_Node000020_Node000019" class="edge">
<title>Node20&#45;&gt;Node19</title>
<g id="a_edge30_Node000020_Node000019"><a xlink:title=" ">
<path fill="none" stroke="#63b8ff" d="M375.81,-219.98C392.87,-211.54 419.25,-198.47 439.01,-188.68"/>
<polygon fill="#63b8ff" stroke="#63b8ff" points="440.71,-191.75 448.11,-184.17 437.6,-185.47 440.71,-191.75"/>
</a>
</g>
</g>
<!-- Node21&#45;&gt;Node5 -->
<g id="edge35_Node000021_Node000005" class="edge">
<title>Node21&#45;&gt;Node5</title>
<g id="a_edge35_Node000021_Node000005"><a xlink:title=" ">
<path fill="none" stroke="#63b8ff" d="M882.13,-335.37C894.46,-326.12 914.24,-311.28 929.03,-300.19"/>
<polygon fill="#63b8ff" stroke="#63b8ff" points="931.16,-302.97 937.06,-294.17 926.96,-297.37 931.16,-302.97"/>
</a>
</g>
</g>
<!-- Node21&#45;&gt;Node6 -->
<g id="edge34_Node000021_Node000006" class="edge">
<title>Node21&#45;&gt;Node6</title>
<g id="a_edge34_Node000021_Node000006"><a xlink:title=" ">
<path fill="none" stroke="#63b8ff" d="M893.59,-335.49C920.51,-325.53 965.29,-308.95 995.85,-297.63"/>
<polygon fill="#63b8ff" stroke="#63b8ff" points="997.45,-300.77 1005.62,-294.02 995.02,-294.21 997.45,-300.77"/>
</a>
</g>
</g>
<!-- Node21&#45;&gt;Node12 -->
<g id="edge36_Node000021_Node000012" class="edge">
<title>Node21&#45;&gt;Node12</title>
<g id="a_edge36_Node000021_Node000012"><a xlink:title=" ">
<path fill="none" stroke="#63b8ff" d="M842.51,-339.06C787.37,-329.37 664.12,-307.72 592.35,-295.11"/>
<polygon fill="#63b8ff" stroke="#63b8ff" points="592.6,-291.61 582.14,-293.32 591.39,-298.5 592.6,-291.61"/>
</a>
</g>
</g>
<!-- Node21&#45;&gt;Node15 -->
<g id="edge37_Node000021_Node000015" class="edge">
<title>Node21&#45;&gt;Node15</title>
<g id="a_edge37_Node000021_Node000015"><a xlink:title=" ">
<path fill="none" stroke="#63b8ff" d="M868.52,-335.27C861.54,-307.67 836.87,-220.84 790.62,-165 780.2,-152.42 765.38,-141.81 752.62,-134.11"/>
<polygon fill="#63b8ff" stroke="#63b8ff" points="754.2,-130.98 743.79,-129.03 750.71,-137.05 754.2,-130.98"/>
</a>
</g>
</g>
<!-- Node21&#45;&gt;Node16 -->
<g id="edge33_Node000021_Node000016" class="edge">
<title>Node21&#45;&gt;Node16</title>
<g id="a_edge33_Node000021_Node000016"><a xlink:title=" ">
<path fill="none" stroke="#63b8ff" d="M873.23,-335.26C878.65,-316.35 890.62,-270.12 890.62,-230.5 890.62,-230.5 890.62,-230.5 890.62,-118.5 890.62,-88.33 885.08,-78.86 866.62,-55 856.79,-42.3 842.35,-31.74 829.77,-24.09"/>
<polygon fill="#63b8ff" stroke="#63b8ff" points="831.45,-21.02 821.04,-19.05 827.95,-27.08 831.45,-21.02"/>
</a>
</g>
</g>
<!-- Node22&#45;&gt;Node16 -->
<g id="edge39_Node000022_Node000016" class="edge">
<title>Node22&#45;&gt;Node16</title>
<g id="a_edge39_Node000022_Node000016"><a xlink:title=" ">
<path fill="none" stroke="#63b8ff" d="M994.99,-54.98C950.89,-44.73 877.55,-27.69 835.63,-17.94"/>
<polygon fill="#63b8ff" stroke="#63b8ff" points="836.21,-14.48 825.68,-15.63 834.63,-21.3 836.21,-14.48"/>
</a>
</g>
</g>
<!-- Node23&#45;&gt;Node5 -->
<g id="edge43_Node000023_Node000005" class="edge">
<title>Node23&#45;&gt;Node5</title>
<g id="a_edge43_Node000023_Node000005"><a xlink:title=" ">
<path fill="none" stroke="#63b8ff" d="M850.89,-395.96C868.03,-388.51 891.45,-376.33 907.62,-360 923.64,-343.82 935.24,-320.1 941.93,-303.79"/>
<polygon fill="#63b8ff" stroke="#63b8ff" points="945.25,-304.89 945.61,-294.3 938.73,-302.36 945.25,-304.89"/>
</a>
</g>
</g>
<!-- Node23&#45;&gt;Node6 -->
<g id="edge42_Node000023_Node000006" class="edge">
<title>Node23&#45;&gt;Node6</title>
<g id="a_edge42_Node000023_Node000006"><a xlink:title=" ">
<path fill="none" stroke="#63b8ff" d="M853.17,-395.86C874.57,-387.88 906.09,-375 931.62,-360 961.46,-342.46 992.64,-317.04 1011.34,-300.9"/>
<polygon fill="#63b8ff" stroke="#63b8ff" points="1013.78,-303.41 1019.01,-294.2 1009.18,-298.14 1013.78,-303.41"/>
</a>
</g>
</g>
<!-- Node23&#45;&gt;Node15 -->
<g id="edge45_Node000023_Node000015" class="edge">
<title>Node23&#45;&gt;Node15</title>
<g id="a_edge45_Node000023_Node000015"><a xlink:title=" ">
<path fill="none" stroke="#63b8ff" d="M821.82,-395.82C807.73,-376.91 776.62,-330.14 776.62,-285.5 776.62,-285.5 776.62,-285.5 776.62,-228.5 776.62,-193.56 754.8,-157.66 739.99,-137.31"/>
<polygon fill="#63b8ff" stroke="#63b8ff" points="742.61,-134.97 733.78,-129.11 737.03,-139.2 742.61,-134.97"/>
</a>
</g>
</g>
<!-- Node23&#45;&gt;Node16 -->
<g id="edge41_Node000023_Node000016" class="edge">
<title>Node23&#45;&gt;Node16</title>
<g id="a_edge41_Node000023_Node000016"><a xlink:title=" ">
<path fill="none" stroke="#63b8ff" d="M828.8,-395.82C829.58,-357.78 832.65,-201.96 833.62,-74 833.68,-65.56 836.09,-63.08 833.62,-55 830.53,-44.9 824.3,-35.02 818.31,-27.15"/>
<polygon fill="#63b8ff" stroke="#63b8ff" points="820.86,-24.74 811.83,-19.2 815.44,-29.16 820.86,-24.74"/>
</a>
</g>
</g>
<!-- Node23&#45;&gt;Node18 -->
<g id="edge46_Node000023_Node000018" class="edge">
<title>Node23&#45;&gt;Node18</title>
<g id="a_edge46_Node000023_Node000018"><a xlink:title=" ">
<path fill="none" stroke="#63b8ff" d="M815.34,-395.78C790.3,-378.18 738.62,-335.75 738.62,-285.5 738.62,-285.5 738.62,-285.5 738.62,-228.5 738.62,-181.97 688,-149.79 653.64,-133.3"/>
<polygon fill="#63b8ff" stroke="#63b8ff" points="654.99,-130.07 644.44,-129.07 652.06,-136.43 654.99,-130.07"/>
</a>
</g>
</g>
<!-- Node23&#45;&gt;Node20 -->
<g id="edge44_Node000023_Node000020" class="edge">
<title>Node23&#45;&gt;Node20</title>
<g id="a_edge44_Node000023_Node000020"><a xlink:title=" ">
<path fill="none" stroke="#63b8ff" d="M796.25,-395.93C734.56,-379.19 596.36,-339.78 484.62,-294 448.04,-279.01 407.5,-257.69 382.54,-243.97"/>
<polygon fill="#63b8ff" stroke="#63b8ff" points="384.22,-240.9 373.78,-239.11 380.83,-247.02 384.22,-240.9"/>
</a>
</g>
</g>
<!-- Node23&#45;&gt;Node21 -->
<g id="edge47_Node000023_Node000021" class="edge">
<title>Node23&#45;&gt;Node21</title>
<g id="a_edge47_Node000023_Node000021"><a xlink:title=" ">
<path fill="none" stroke="#63b8ff" d="M834.82,-395.87C841.02,-387.23 850.73,-373.7 858.47,-362.92"/>
<polygon fill="#63b8ff" stroke="#63b8ff" points="861.41,-364.83 864.4,-354.67 855.72,-360.75 861.41,-364.83"/>
</a>
</g>
</g>
<!-- Node24&#45;&gt;Node8 -->
<g id="edge49_Node000024_Node000008" class="edge">
<title>Node24&#45;&gt;Node8</title>
<g id="a_edge49_Node000024_Node000008"><a xlink:title=" ">
<path fill="none" stroke="#63b8ff" d="M510.68,-399.95C447.2,-387.57 289.21,-346.71 230.62,-239 214.9,-210.11 213.39,-193.02 230.62,-165 241.21,-147.77 260.77,-136.97 278.76,-130.33"/>
<polygon fill="#63b8ff" stroke="#63b8ff" points="280.15,-133.55 288.52,-127.05 277.93,-126.92 280.15,-133.55"/>
</a>
</g>
</g>
<!-- Node24&#45;&gt;Node12 -->
<g id="edge51_Node000024_Node000012" class="edge">
<title>Node24&#45;&gt;Node12</title>
<g id="a_edge51_Node000024_Node000012"><a xlink:title=" ">
<path fill="none" stroke="#63b8ff" d="M537.62,-395.94C537.62,-376.91 537.62,-330.69 537.62,-304.47"/>
<polygon fill="#63b8ff" stroke="#63b8ff" points="541.12,-304.3 537.62,-294.3 534.12,-304.3 541.12,-304.3"/>
</a>
</g>
</g>
<!-- Node24&#45;&gt;Node20 -->
<g id="edge50_Node000024_Node000020" class="edge">
<title>Node24&#45;&gt;Node20</title>
<g id="a_edge50_Node000024_Node000020"><a xlink:title=" ">
<path fill="none" stroke="#63b8ff" d="M513.31,-395.97C494.49,-388.53 468.52,-376.35 449.62,-360 411.66,-327.16 381.54,-275.25 367.4,-248.21"/>
<polygon fill="#63b8ff" stroke="#63b8ff" points="370.44,-246.47 362.78,-239.15 364.21,-249.65 370.44,-246.47"/>
</a>
</g>
</g>
<!-- Node24&#45;&gt;Node21 -->
<g id="edge52_Node000024_Node000021" class="edge">
<title>Node24&#45;&gt;Node21</title>
<g id="a_edge52_Node000024_Node000021"><a xlink:title=" ">
<path fill="none" stroke="#63b8ff" d="M564.31,-399.81C623.17,-389.47 764.33,-364.67 832.5,-352.7"/>
<polygon fill="#63b8ff" stroke="#63b8ff" points="833.15,-356.14 842.4,-350.96 831.94,-349.24 833.15,-356.14"/>
</a>
</g>
</g>
<!-- Node25&#45;&gt;Node10 -->
<g id="edge55_Node000025_Node000010" class="edge">
<title>Node25&#45;&gt;Node10</title>
<g id="a_edge55_Node000025_Node000010"><a xlink:title=" ">
<path fill="none" stroke="#63b8ff" d="M1210.62,-450.75C1210.62,-443.8 1210.62,-433.85 1210.62,-425.13"/>
<polygon fill="#63b8ff" stroke="#63b8ff" points="1214.12,-425.09 1210.62,-415.09 1207.12,-425.09 1214.12,-425.09"/>
</a>
</g>
</g>
<!-- Node26&#45;&gt;Node10 -->
<g id="edge59_Node000026_Node000010" class="edge">
<title>Node26&#45;&gt;Node10</title>
<g id="a_edge59_Node000026_Node000010"><a xlink:title=" ">
<path fill="none" stroke="#63b8ff" d="M1309.66,-450.98C1290.59,-442.42 1260.96,-429.11 1239.07,-419.28"/>
<polygon fill="#63b8ff" stroke="#63b8ff" points="1240.48,-416.07 1229.92,-415.17 1237.61,-422.46 1240.48,-416.07"/>
</a>
</g>
</g>
<!-- Node26&#45;&gt;Node16 -->
<g id="edge58_Node000026_Node000016" class="edge">
<title>Node26&#45;&gt;Node16</title>
<g id="a_edge58_Node000026_Node000016"><a xlink:title=" ">
<path fill="none" stroke="#63b8ff" d="M1325.35,-450.81C1318.57,-432 1303.62,-385.95 1303.62,-346 1303.62,-346 1303.62,-346 1303.62,-118.5 1303.62,-22.46 946.68,-11.61 835.97,-10.56"/>
<polygon fill="#63b8ff" stroke="#63b8ff" points="835.77,-7.06 825.75,-10.48 835.72,-14.06 835.77,-7.06"/>
</a>
</g>
</g>
<!-- Node27&#45;&gt;Node8 -->
<g id="edge62_Node000027_Node000008" class="edge">
<title>Node27&#45;&gt;Node8</title>
<g id="a_edge62_Node000027_Node000008"><a xlink:title=" ">
<path fill="none" stroke="#63b8ff" d="M122.22,-164.98C165.03,-155.29 234.72,-139.5 278.54,-129.58"/>
<polygon fill="#63b8ff" stroke="#63b8ff" points="279.58,-132.93 288.56,-127.31 278.03,-126.1 279.58,-132.93"/>
</a>
</g>
</g>
<!-- Node27&#45;&gt;Node16 -->
<g id="edge61_Node000027_Node000016" class="edge">
<title>Node27&#45;&gt;Node16</title>
<g id="a_edge61_Node000027_Node000016"><a xlink:title=" ">
<path fill="none" stroke="#63b8ff" d="M93.73,-164.85C109.09,-150.84 141.66,-123.38 174.62,-110 390.14,-22.5 676.25,-11.62 771.36,-10.52"/>
<polygon fill="#63b8ff" stroke="#63b8ff" points="771.52,-14.02 781.49,-10.43 771.46,-7.02 771.52,-14.02"/>
</a>
</g>
</g>
</g>
</svg>
