<?xml version="1.0" encoding="UTF-8" standalone="no"?>
<!DOCTYPE svg PUBLIC "-//W3C//DTD SVG 1.1//EN"
 "http://www.w3.org/Graphics/SVG/1.1/DTD/svg11.dtd">
<!-- Generated by graphviz version 2.43.0 (0)
 -->
<!-- Title: panel&#45;marshal.h Pages: 1 -->
<svg width="859pt" height="82pt"
 viewBox="0.00 0.00 859.00 82.00" xmlns="http://www.w3.org/2000/svg" xmlns:xlink="http://www.w3.org/1999/xlink">
<g id="graph0" class="graph" transform="scale(1 1) rotate(0) translate(4 78)">
<title>panel&#45;marshal.h</title>
<!-- Node1 -->
<g id="Node000001" class="node">
<title>Node1</title>
<g id="a_Node000001"><a xlink:title=" ">
<polygon fill="#999999" stroke="#666666" points="507.5,-74 411.5,-74 411.5,-55 507.5,-55 507.5,-74"/>
<text text-anchor="middle" x="459.5" y="-62" font-family="Helvetica,sans-Serif" font-size="10.00">panel&#45;marshal.h</text>
</a>
</g>
</g>
<!-- Node2 -->
<g id="Node000002" class="node">
<title>Node2</title>
<g id="a_Node000002"><a xlink:href="button-widget_8c.html" target="_top" xlink:title=" ">
<polygon fill="white" stroke="#666666" points="93,-19 0,-19 0,0 93,0 93,-19"/>
<text text-anchor="middle" x="46.5" y="-7" font-family="Helvetica,sans-Serif" font-size="10.00">button&#45;widget.c</text>
</a>
</g>
</g>
<!-- Node1&#45;&gt;Node2 -->
<g id="edge1_Node000001_Node000002" class="edge">
<title>Node1&#45;&gt;Node2</title>
<g id="a_edge1_Node000001_Node000002"><a xlink:title=" ">
<path fill="none" stroke="#63b8ff" d="M401.31,-56.8C330.41,-48.52 207.04,-33.71 101.5,-19 98.82,-18.63 96.07,-18.23 93.29,-17.83"/>
<polygon fill="#63b8ff" stroke="#63b8ff" points="401.04,-60.3 411.38,-57.98 401.85,-53.34 401.04,-60.3"/>
</a>
</g>
</g>
<!-- Node3 -->
<g id="Node000003" class="node">
<title>Node3</title>
<g id="a_Node000003"><a xlink:href="panel-applet-container_8c.html" target="_top" xlink:title=" ">
<polygon fill="white" stroke="#666666" points="246,-19 111,-19 111,0 246,0 246,-19"/>
<text text-anchor="middle" x="178.5" y="-7" font-family="Helvetica,sans-Serif" font-size="10.00">panel&#45;applet&#45;container.c</text>
</a>
</g>
</g>
<!-- Node1&#45;&gt;Node3 -->
<g id="edge2_Node000001_Node000003" class="edge">
<title>Node1&#45;&gt;Node3</title>
<g id="a_edge2_Node000001_Node000003"><a xlink:title=" ">
<path fill="none" stroke="#63b8ff" d="M404.5,-53.13C351.82,-43.19 273.26,-28.37 224,-19.08"/>
<polygon fill="#63b8ff" stroke="#63b8ff" points="403.88,-56.57 414.35,-54.98 405.17,-49.69 403.88,-56.57"/>
</a>
</g>
</g>
<!-- Node4 -->
<g id="Node000004" class="node">
<title>Node4</title>
<g id="a_Node000004"><a xlink:href="panel-applet-frame_8c.html" target="_top" xlink:title=" ">
<polygon fill="white" stroke="#666666" points="383,-19 264,-19 264,0 383,0 383,-19"/>
<text text-anchor="middle" x="323.5" y="-7" font-family="Helvetica,sans-Serif" font-size="10.00">panel&#45;applet&#45;frame.c</text>
</a>
</g>
</g>
<!-- Node1&#45;&gt;Node4 -->
<g id="edge3_Node000001_Node000004" class="edge">
<title>Node1&#45;&gt;Node4</title>
<g id="a_edge3_Node000001_Node000004"><a xlink:title=" ">
<path fill="none" stroke="#63b8ff" d="M428.17,-51.29C402.96,-41.47 368.17,-27.91 345.75,-19.17"/>
<polygon fill="#63b8ff" stroke="#63b8ff" points="427.06,-54.61 437.65,-54.98 429.6,-48.09 427.06,-54.61"/>
</a>
</g>
</g>
<!-- Node5 -->
<g id="Node000005" class="node">
<title>Node5</title>
<g id="a_Node000005"><a xlink:href="panel-ditem-editor_8c.html" target="_top" xlink:title=" ">
<polygon fill="white" stroke="#666666" points="517.5,-19 401.5,-19 401.5,0 517.5,0 517.5,-19"/>
<text text-anchor="middle" x="459.5" y="-7" font-family="Helvetica,sans-Serif" font-size="10.00">panel&#45;ditem&#45;editor.c</text>
</a>
</g>
</g>
<!-- Node1&#45;&gt;Node5 -->
<g id="edge4_Node000001_Node000005" class="edge">
<title>Node1&#45;&gt;Node5</title>
<g id="a_edge4_Node000001_Node000005"><a xlink:title=" ">
<path fill="none" stroke="#63b8ff" d="M459.5,-44.66C459.5,-35.93 459.5,-25.99 459.5,-19.09"/>
<polygon fill="#63b8ff" stroke="#63b8ff" points="456,-44.75 459.5,-54.75 463,-44.75 456,-44.75"/>
</a>
</g>
</g>
<!-- Node6 -->
<g id="Node000006" class="node">
<title>Node6</title>
<g id="a_Node000006"><a xlink:href="panel-marshal_8c.html" target="_top" xlink:title=" ">
<polygon fill="white" stroke="#666666" points="631,-19 536,-19 536,0 631,0 631,-19"/>
<text text-anchor="middle" x="583.5" y="-7" font-family="Helvetica,sans-Serif" font-size="10.00">panel&#45;marshal.c</text>
</a>
</g>
</g>
<!-- Node1&#45;&gt;Node6 -->
<g id="edge5_Node000001_Node000006" class="edge">
<title>Node1&#45;&gt;Node6</title>
<g id="a_edge5_Node000001_Node000006"><a xlink:title=" ">
<path fill="none" stroke="#63b8ff" d="M488.68,-51.03C511.61,-41.23 542.95,-27.83 563.21,-19.17"/>
<polygon fill="#63b8ff" stroke="#63b8ff" points="487.24,-47.84 479.42,-54.98 489.99,-54.27 487.24,-47.84"/>
</a>
</g>
</g>
<!-- Node7 -->
<g id="Node000007" class="node">
<title>Node7</title>
<g id="a_Node000007"><a xlink:href="panel-toplevel_8c.html" target="_top" xlink:title=" ">
<polygon fill="white" stroke="#666666" points="744,-19 649,-19 649,0 744,0 744,-19"/>
<text text-anchor="middle" x="696.5" y="-7" font-family="Helvetica,sans-Serif" font-size="10.00">panel&#45;toplevel.c</text>
</a>
</g>
</g>
<!-- Node1&#45;&gt;Node7 -->
<g id="edge6_Node000001_Node000007" class="edge">
<title>Node1&#45;&gt;Node7</title>
<g id="a_edge6_Node000001_Node000007"><a xlink:title=" ">
<path fill="none" stroke="#63b8ff" d="M507.56,-52.75C551.97,-42.82 617.1,-28.26 658.12,-19.08"/>
<polygon fill="#63b8ff" stroke="#63b8ff" points="506.57,-49.39 497.58,-54.98 508.1,-56.22 506.57,-49.39"/>
</a>
</g>
</g>
<!-- Node8 -->
<g id="Node000008" class="node">
<title>Node8</title>
<g id="a_Node000008"><a xlink:href="panel-widget_8c.html" target="_top" xlink:title=" ">
<polygon fill="white" stroke="#666666" points="851,-19 762,-19 762,0 851,0 851,-19"/>
<text text-anchor="middle" x="806.5" y="-7" font-family="Helvetica,sans-Serif" font-size="10.00">panel&#45;widget.c</text>
</a>
</g>
</g>
<!-- Node1&#45;&gt;Node8 -->
<g id="edge7_Node000001_Node000008" class="edge">
<title>Node1&#45;&gt;Node8</title>
<g id="a_edge7_Node000001_Node000008"><a xlink:title=" ">
<path fill="none" stroke="#63b8ff" d="M517.58,-54.86C576.9,-46.01 671.65,-31.76 753.5,-19 756.26,-18.57 759.11,-18.12 761.97,-17.67"/>
<polygon fill="#63b8ff" stroke="#63b8ff" points="517.02,-51.41 507.64,-56.35 518.05,-58.33 517.02,-51.41"/>
</a>
</g>
</g>
</g>
</svg>
