<?xml version="1.0" encoding="UTF-8" standalone="no"?>
<!DOCTYPE svg PUBLIC "-//W3C//DTD SVG 1.1//EN"
 "http://www.w3.org/Graphics/SVG/1.1/DTD/svg11.dtd">
<!-- Generated by graphviz version 2.43.0 (0)
 -->
<!-- Title: panel&#45;widget.c Pages: 1 -->
<svg width="1364pt" height="478pt"
 viewBox="0.00 0.00 1363.96 478.00" xmlns="http://www.w3.org/2000/svg" xmlns:xlink="http://www.w3.org/1999/xlink">
<g id="graph0" class="graph" transform="scale(1 1) rotate(0) translate(4 474)">
<title>panel&#45;widget.c</title>
<!-- Node1 -->
<g id="Node000001" class="node">
<title>Node1</title>
<g id="a_Node000001"><a xlink:title=" ">
<polygon fill="#999999" stroke="#666666" points="578.46,-470 489.46,-470 489.46,-451 578.46,-451 578.46,-470"/>
<text text-anchor="middle" x="533.96" y="-458" font-family="Helvetica,sans-Serif" font-size="10.00">panel&#45;widget.c</text>
</a>
</g>
</g>
<!-- Node2 -->
<g id="Node000002" class="node">
<title>Node2</title>
<g id="a_Node000002"><a xlink:title=" ">
<polygon fill="#e0e0e0" stroke="#999999" points="410.46,-129 355.46,-129 355.46,-110 410.46,-110 410.46,-129"/>
<text text-anchor="middle" x="382.96" y="-117" font-family="Helvetica,sans-Serif" font-size="10.00">config.h</text>
</a>
</g>
</g>
<!-- Node1&#45;&gt;Node2 -->
<g id="edge1_Node000001_Node000002" class="edge">
<title>Node1&#45;&gt;Node2</title>
<g id="a_edge1_Node000001_Node000002"><a xlink:title=" ">
<path fill="none" stroke="#63b8ff" d="M489.41,-457.6C422.63,-453.85 300.96,-443.25 268.96,-415 246.88,-395.5 249.96,-380.96 249.96,-351.5 249.96,-351.5 249.96,-351.5 249.96,-239.5 249.96,-185.94 310.6,-150.46 349.98,-133.06"/>
<polygon fill="#63b8ff" stroke="#63b8ff" points="351.65,-136.15 359.49,-129.02 348.92,-129.71 351.65,-136.15"/>
</a>
</g>
</g>
<!-- Node3 -->
<g id="Node000003" class="node">
<title>Node3</title>
<g id="a_Node000003"><a xlink:title=" ">
<polygon fill="#e0e0e0" stroke="#999999" points="78.96,-415 28.96,-415 28.96,-396 78.96,-396 78.96,-415"/>
<text text-anchor="middle" x="53.96" y="-403" font-family="Helvetica,sans-Serif" font-size="10.00">stdio.h</text>
</a>
</g>
</g>
<!-- Node1&#45;&gt;Node3 -->
<g id="edge2_Node000001_Node000003" class="edge">
<title>Node1&#45;&gt;Node3</title>
<g id="a_edge2_Node000001_Node000003"><a xlink:title=" ">
<path fill="none" stroke="#63b8ff" d="M489.36,-457.2C410.48,-452.68 241.1,-440.86 89.11,-414.95"/>
<polygon fill="#63b8ff" stroke="#63b8ff" points="89.58,-411.48 79.13,-413.22 88.38,-418.38 89.58,-411.48"/>
</a>
</g>
</g>
<!-- Node4 -->
<g id="Node000004" class="node">
<title>Node4</title>
<g id="a_Node000004"><a xlink:title=" ">
<polygon fill="#e0e0e0" stroke="#999999" points="150.46,-415 97.46,-415 97.46,-396 150.46,-396 150.46,-415"/>
<text text-anchor="middle" x="123.96" y="-403" font-family="Helvetica,sans-Serif" font-size="10.00">string.h</text>
</a>
</g>
</g>
<!-- Node1&#45;&gt;Node4 -->
<g id="edge3_Node000001_Node000004" class="edge">
<title>Node1&#45;&gt;Node4</title>
<g id="a_edge3_Node000001_Node000004"><a xlink:title=" ">
<path fill="none" stroke="#63b8ff" d="M489.26,-455.94C420.56,-450.1 284.77,-437.04 160.7,-415.13"/>
<polygon fill="#63b8ff" stroke="#63b8ff" points="161.1,-411.65 150.64,-413.33 159.87,-418.54 161.1,-411.65"/>
</a>
</g>
</g>
<!-- Node5 -->
<g id="Node000005" class="node">
<title>Node5</title>
<g id="a_Node000005"><a xlink:title=" ">
<polygon fill="#e0e0e0" stroke="#999999" points="221.46,-415 168.46,-415 168.46,-396 221.46,-396 221.46,-415"/>
<text text-anchor="middle" x="194.96" y="-403" font-family="Helvetica,sans-Serif" font-size="10.00">stdlib.h</text>
</a>
</g>
</g>
<!-- Node1&#45;&gt;Node5 -->
<g id="edge4_Node000001_Node000005" class="edge">
<title>Node1&#45;&gt;Node5</title>
<g id="a_edge4_Node000001_Node000005"><a xlink:title=" ">
<path fill="none" stroke="#63b8ff" d="M489.41,-453.64C431.04,-445.79 325.57,-430.97 235.96,-415 234.67,-414.77 233.36,-414.53 232.04,-414.28"/>
<polygon fill="#63b8ff" stroke="#63b8ff" points="232.31,-410.77 221.83,-412.29 230.97,-417.64 232.31,-410.77"/>
</a>
</g>
</g>
<!-- Node6 -->
<g id="Node000006" class="node">
<title>Node6</title>
<g id="a_Node000006"><a xlink:title=" ">
<polygon fill="#e0e0e0" stroke="#999999" points="569.96,-129 509.96,-129 509.96,-110 569.96,-110 569.96,-129"/>
<text text-anchor="middle" x="539.96" y="-117" font-family="Helvetica,sans-Serif" font-size="10.00">gtk/gtk.h</text>
</a>
</g>
</g>
<!-- Node1&#45;&gt;Node6 -->
<g id="edge5_Node000001_Node000006" class="edge">
<title>Node1&#45;&gt;Node6</title>
<g id="a_edge5_Node000001_Node000006"><a xlink:title=" ">
<path fill="none" stroke="#63b8ff" d="M519.81,-450.94C461.77,-414.8 248.98,-271.65 334.96,-165 355.21,-139.88 445.64,-128.22 499.39,-123.41"/>
<polygon fill="#63b8ff" stroke="#63b8ff" points="499.96,-126.88 509.62,-122.54 499.36,-119.9 499.96,-126.88"/>
</a>
</g>
</g>
<!-- Node7 -->
<g id="Node000007" class="node">
<title>Node7</title>
<g id="a_Node000007"><a xlink:title=" ">
<polygon fill="#e0e0e0" stroke="#999999" points="385.96,-415 277.96,-415 277.96,-396 385.96,-396 385.96,-415"/>
<text text-anchor="middle" x="331.96" y="-403" font-family="Helvetica,sans-Serif" font-size="10.00">gdk/gdkkeysyms.h</text>
</a>
</g>
</g>
<!-- Node1&#45;&gt;Node7 -->
<g id="edge6_Node000001_Node000007" class="edge">
<title>Node1&#45;&gt;Node7</title>
<g id="a_edge6_Node000001_Node000007"><a xlink:title=" ">
<path fill="none" stroke="#63b8ff" d="M501.51,-450.98C467.01,-441.93 412.3,-427.58 374.4,-417.64"/>
<polygon fill="#63b8ff" stroke="#63b8ff" points="375.23,-414.23 364.67,-415.08 373.46,-421.01 375.23,-414.23"/>
</a>
</g>
</g>
<!-- Node8 -->
<g id="Node000008" class="node">
<title>Node8</title>
<g id="a_Node000008"><a xlink:href="panel-list_8h.html" target="_top" xlink:title=" ">
<polygon fill="white" stroke="#666666" points="137.46,-195 32.46,-195 32.46,-165 137.46,-165 137.46,-195"/>
<text text-anchor="start" x="40.46" y="-183" font-family="Helvetica,sans-Serif" font-size="10.00">libpanel&#45;util/panel</text>
<text text-anchor="middle" x="84.96" y="-172" font-family="Helvetica,sans-Serif" font-size="10.00">&#45;list.h</text>
</a>
</g>
</g>
<!-- Node1&#45;&gt;Node8 -->
<g id="edge7_Node000001_Node000008" class="edge">
<title>Node1&#45;&gt;Node8</title>
<g id="a_edge7_Node000001_Node000008"><a xlink:title=" ">
<path fill="none" stroke="#63b8ff" d="M489.06,-458.46C370.55,-455.32 55.95,-444.3 19.96,-415 -2.88,-396.4 0.96,-380.96 0.96,-351.5 0.96,-351.5 0.96,-351.5 0.96,-294.5 0.96,-255.96 32.65,-221.95 57.1,-201.44"/>
<polygon fill="#63b8ff" stroke="#63b8ff" points="59.47,-204.02 65.05,-195.01 55.08,-198.57 59.47,-204.02"/>
</a>
</g>
</g>
<!-- Node10 -->
<g id="Node000010" class="node">
<title>Node10</title>
<g id="a_Node000010"><a xlink:href="mate-panel_2mate-panel_2applet_8h.html" target="_top" xlink:title=" ">
<polygon fill="white" stroke="#666666" points="973.96,-360 917.96,-360 917.96,-341 973.96,-341 973.96,-360"/>
<text text-anchor="middle" x="945.96" y="-348" font-family="Helvetica,sans-Serif" font-size="10.00">applet.h</text>
</a>
</g>
</g>
<!-- Node1&#45;&gt;Node10 -->
<g id="edge9_Node000001_Node000010" class="edge">
<title>Node1&#45;&gt;Node10</title>
<g id="a_edge9_Node000001_Node000010"><a xlink:title=" ">
<path fill="none" stroke="#63b8ff" d="M578.74,-457.18C676.13,-451.76 900.66,-437 926.96,-415 939.92,-404.17 944.26,-384.88 945.61,-370.4"/>
<polygon fill="#63b8ff" stroke="#63b8ff" points="949.13,-370.24 946.16,-360.07 942.14,-369.87 949.13,-370.24"/>
</a>
</g>
</g>
<!-- Node13 -->
<g id="Node000013" class="node">
<title>Node13</title>
<g id="a_Node000013"><a xlink:href="panel-widget_8h.html" target="_top" xlink:title=" ">
<polygon fill="white" stroke="#666666" points="803.46,-305 714.46,-305 714.46,-286 803.46,-286 803.46,-305"/>
<text text-anchor="middle" x="758.96" y="-293" font-family="Helvetica,sans-Serif" font-size="10.00">panel&#45;widget.h</text>
</a>
</g>
</g>
<!-- Node1&#45;&gt;Node13 -->
<g id="edge34_Node000001_Node000013" class="edge">
<title>Node1&#45;&gt;Node13</title>
<g id="a_edge34_Node000001_Node000013"><a xlink:title=" ">
<path fill="none" stroke="#63b8ff" d="M574.91,-450.99C598.26,-444.41 626.8,-433.25 646.96,-415 674.37,-390.19 659.71,-368 684.96,-341 697.31,-327.8 714.44,-317.16 729.11,-309.6"/>
<polygon fill="#63b8ff" stroke="#63b8ff" points="730.89,-312.63 738.33,-305.08 727.81,-306.34 730.89,-312.63"/>
</a>
</g>
</g>
<!-- Node15 -->
<g id="Node000015" class="node">
<title>Node15</title>
<g id="a_Node000015"><a xlink:href="button-widget_8h.html" target="_top" xlink:title=" ">
<polygon fill="white" stroke="#666666" points="699.96,-250 605.96,-250 605.96,-231 699.96,-231 699.96,-250"/>
<text text-anchor="middle" x="652.96" y="-238" font-family="Helvetica,sans-Serif" font-size="10.00">button&#45;widget.h</text>
</a>
</g>
</g>
<!-- Node1&#45;&gt;Node15 -->
<g id="edge35_Node000001_Node000015" class="edge">
<title>Node1&#45;&gt;Node15</title>
<g id="a_edge35_Node000001_Node000015"><a xlink:title=" ">
<path fill="none" stroke="#63b8ff" d="M526.26,-450.87C516.34,-438.66 501.23,-415.62 508.96,-396 533.87,-332.74 598.25,-280.06 631.85,-255.83"/>
<polygon fill="#63b8ff" stroke="#63b8ff" points="633.91,-258.65 640.07,-250.02 629.88,-252.93 633.91,-258.65"/>
</a>
</g>
</g>
<!-- Node21 -->
<g id="Node000021" class="node">
<title>Node21</title>
<g id="a_Node000021"><a xlink:href="panel_8h.html" target="_top" xlink:title=" ">
<polygon fill="white" stroke="#666666" points="785.46,-415 732.46,-415 732.46,-396 785.46,-396 785.46,-415"/>
<text text-anchor="middle" x="758.96" y="-403" font-family="Helvetica,sans-Serif" font-size="10.00">panel.h</text>
</a>
</g>
</g>
<!-- Node1&#45;&gt;Node21 -->
<g id="edge36_Node000001_Node000021" class="edge">
<title>Node1&#45;&gt;Node21</title>
<g id="a_edge36_Node000001_Node000021"><a xlink:title=" ">
<path fill="none" stroke="#63b8ff" d="M570.11,-450.98C612,-441.12 680.63,-424.95 722.6,-415.06"/>
<polygon fill="#63b8ff" stroke="#63b8ff" points="723.48,-418.45 732.41,-412.75 721.88,-411.64 723.48,-418.45"/>
</a>
</g>
</g>
<!-- Node22 -->
<g id="Node000022" class="node">
<title>Node22</title>
<g id="a_Node000022"><a xlink:href="panel-util_8h.html" target="_top" xlink:title=" ">
<polygon fill="white" stroke="#666666" points="765.96,-360 693.96,-360 693.96,-341 765.96,-341 765.96,-360"/>
<text text-anchor="middle" x="729.96" y="-348" font-family="Helvetica,sans-Serif" font-size="10.00">panel&#45;util.h</text>
</a>
</g>
</g>
<!-- Node1&#45;&gt;Node22 -->
<g id="edge41_Node000001_Node000022" class="edge">
<title>Node1&#45;&gt;Node22</title>
<g id="a_edge41_Node000001_Node000022"><a xlink:title=" ">
<path fill="none" stroke="#63b8ff" d="M578.52,-453.14C609.13,-447.12 649.56,-435.79 679.96,-415 697.28,-403.16 711.42,-383.49 720.19,-369.18"/>
<polygon fill="#63b8ff" stroke="#63b8ff" points="723.36,-370.69 725.38,-360.28 717.32,-367.16 723.36,-370.69"/>
</a>
</g>
</g>
<!-- Node23 -->
<g id="Node000023" class="node">
<title>Node23</title>
<g id="a_Node000023"><a xlink:href="panel-marshal_8h.html" target="_top" xlink:title=" ">
<polygon fill="white" stroke="#666666" points="1215.96,-415 1119.96,-415 1119.96,-396 1215.96,-396 1215.96,-415"/>
<text text-anchor="middle" x="1167.96" y="-403" font-family="Helvetica,sans-Serif" font-size="10.00">panel&#45;marshal.h</text>
</a>
</g>
</g>
<!-- Node1&#45;&gt;Node23 -->
<g id="edge44_Node000001_Node000023" class="edge">
<title>Node1&#45;&gt;Node23</title>
<g id="a_edge44_Node000001_Node000023"><a xlink:title=" ">
<path fill="none" stroke="#63b8ff" d="M578.75,-456.83C675.01,-450.91 908.76,-435.57 1103.96,-415 1105.88,-414.8 1107.84,-414.58 1109.81,-414.36"/>
<polygon fill="#63b8ff" stroke="#63b8ff" points="1110.25,-417.83 1119.77,-413.18 1109.43,-410.88 1110.25,-417.83"/>
</a>
</g>
</g>
<!-- Node25 -->
<g id="Node000025" class="node">
<title>Node25</title>
<g id="a_Node000025"><a xlink:href="panel-typebuiltins_8h.html" target="_top" xlink:title=" ">
<polygon fill="white" stroke="#666666" points="917.96,-415 803.96,-415 803.96,-396 917.96,-396 917.96,-415"/>
<text text-anchor="middle" x="860.96" y="-403" font-family="Helvetica,sans-Serif" font-size="10.00">panel&#45;typebuiltins.h</text>
</a>
</g>
</g>
<!-- Node1&#45;&gt;Node25 -->
<g id="edge46_Node000001_Node000025" class="edge">
<title>Node1&#45;&gt;Node25</title>
<g id="a_edge46_Node000001_Node000025"><a xlink:title=" ">
<path fill="none" stroke="#63b8ff" d="M578.74,-452.24C635.61,-443.02 734.05,-427.07 798.33,-416.65"/>
<polygon fill="#63b8ff" stroke="#63b8ff" points="799.04,-420.08 808.35,-415.03 797.92,-413.17 799.04,-420.08"/>
</a>
</g>
</g>
<!-- Node26 -->
<g id="Node000026" class="node">
<title>Node26</title>
<g id="a_Node000026"><a xlink:href="panel-applet-frame_8h.html" target="_top" xlink:title=" ">
<polygon fill="white" stroke="#666666" points="637.96,-415 517.96,-415 517.96,-396 637.96,-396 637.96,-415"/>
<text text-anchor="middle" x="577.96" y="-403" font-family="Helvetica,sans-Serif" font-size="10.00">panel&#45;applet&#45;frame.h</text>
</a>
</g>
</g>
<!-- Node1&#45;&gt;Node26 -->
<g id="edge47_Node000001_Node000026" class="edge">
<title>Node1&#45;&gt;Node26</title>
<g id="a_edge47_Node000001_Node000026"><a xlink:title=" ">
<path fill="none" stroke="#63b8ff" d="M541.23,-450.75C547.51,-443.18 556.75,-432.05 564.39,-422.84"/>
<polygon fill="#63b8ff" stroke="#63b8ff" points="567.14,-425.02 570.83,-415.09 561.75,-420.55 567.14,-425.02"/>
</a>
</g>
</g>
<!-- Node27 -->
<g id="Node000027" class="node">
<title>Node27</title>
<g id="a_Node000027"><a xlink:href="panel-globals_8h.html" target="_top" xlink:title=" ">
<polygon fill="white" stroke="#666666" points="435.96,-189.5 343.96,-189.5 343.96,-170.5 435.96,-170.5 435.96,-189.5"/>
<text text-anchor="middle" x="389.96" y="-177.5" font-family="Helvetica,sans-Serif" font-size="10.00">panel&#45;globals.h</text>
</a>
</g>
</g>
<!-- Node1&#45;&gt;Node27 -->
<g id="edge51_Node000001_Node000027" class="edge">
<title>Node1&#45;&gt;Node27</title>
<g id="a_edge51_Node000001_Node000027"><a xlink:title=" ">
<path fill="none" stroke="#63b8ff" d="M527.11,-450.95C520.28,-442.21 509.72,-428.1 501.96,-415 456.23,-337.82 413.85,-239.07 397.3,-199.05"/>
<polygon fill="#63b8ff" stroke="#63b8ff" points="400.53,-197.71 393.5,-189.78 394.06,-200.36 400.53,-197.71"/>
</a>
</g>
</g>
<!-- Node28 -->
<g id="Node000028" class="node">
<title>Node28</title>
<g id="a_Node000028"><a xlink:href="panel-profile_8h.html" target="_top" xlink:title=" ">
<polygon fill="white" stroke="#666666" points="1094.46,-415 1007.46,-415 1007.46,-396 1094.46,-396 1094.46,-415"/>
<text text-anchor="middle" x="1050.96" y="-403" font-family="Helvetica,sans-Serif" font-size="10.00">panel&#45;profile.h</text>
</a>
</g>
</g>
<!-- Node1&#45;&gt;Node28 -->
<g id="edge53_Node000001_Node000028" class="edge">
<title>Node1&#45;&gt;Node28</title>
<g id="a_edge53_Node000001_Node000028"><a xlink:title=" ">
<path fill="none" stroke="#63b8ff" d="M578.49,-454.94C673.33,-445.21 894.94,-422.49 997.34,-412"/>
<polygon fill="#63b8ff" stroke="#63b8ff" points="997.87,-415.46 1007.46,-410.96 997.15,-408.5 997.87,-415.46"/>
</a>
</g>
</g>
<!-- Node29 -->
<g id="Node000029" class="node">
<title>Node29</title>
<g id="a_Node000029"><a xlink:href="panel-lockdown_8h.html" target="_top" xlink:title=" ">
<polygon fill="white" stroke="#666666" points="1340.46,-415 1237.46,-415 1237.46,-396 1340.46,-396 1340.46,-415"/>
<text text-anchor="middle" x="1288.96" y="-403" font-family="Helvetica,sans-Serif" font-size="10.00">panel&#45;lockdown.h</text>
</a>
</g>
</g>
<!-- Node1&#45;&gt;Node29 -->
<g id="edge61_Node000001_Node000029" class="edge">
<title>Node1&#45;&gt;Node29</title>
<g id="a_edge61_Node000001_Node000029"><a xlink:title=" ">
<path fill="none" stroke="#63b8ff" d="M578.51,-457.68C688.46,-452.95 981.5,-438.98 1224.96,-415 1225.71,-414.93 1226.47,-414.85 1227.23,-414.77"/>
<polygon fill="#63b8ff" stroke="#63b8ff" points="1227.74,-418.24 1237.3,-413.67 1226.98,-411.28 1227.74,-418.24"/>
</a>
</g>
</g>
<!-- Node9 -->
<g id="Node000009" class="node">
<title>Node9</title>
<g id="a_Node000009"><a xlink:title=" ">
<polygon fill="#e0e0e0" stroke="#999999" points="1070.96,-19 1026.96,-19 1026.96,0 1070.96,0 1070.96,-19"/>
<text text-anchor="middle" x="1048.96" y="-7" font-family="Helvetica,sans-Serif" font-size="10.00">glib.h</text>
</a>
</g>
</g>
<!-- Node8&#45;&gt;Node9 -->
<g id="edge8_Node000008_Node000009" class="edge">
<title>Node8&#45;&gt;Node9</title>
<g id="a_edge8_Node000008_Node000009"><a xlink:title=" ">
<path fill="none" stroke="#63b8ff" d="M131.25,-164.99C183.12,-149.71 269.93,-125.37 345.96,-110 602.42,-58.14 916.91,-23.87 1016.87,-13.68"/>
<polygon fill="#63b8ff" stroke="#63b8ff" points="1017.34,-17.15 1026.93,-12.66 1016.63,-10.19 1017.34,-17.15"/>
</a>
</g>
</g>
<!-- Node10&#45;&gt;Node9 -->
<g id="edge10_Node000010_Node000009" class="edge">
<title>Node10&#45;&gt;Node9</title>
<g id="a_edge10_Node000010_Node000009"><a xlink:title=" ">
<path fill="none" stroke="#63b8ff" d="M952.68,-340.95C963.13,-328 984.32,-303.14 1005.96,-286 1030.94,-266.22 1047.82,-274.69 1067.96,-250 1120.1,-186.06 1113.68,-155.42 1126.96,-74 1128.32,-65.67 1131.2,-62.3 1126.96,-55 1117.01,-37.87 1097.72,-26.78 1080.82,-19.96"/>
<polygon fill="#63b8ff" stroke="#63b8ff" points="1081.82,-16.6 1071.23,-16.42 1079.4,-23.16 1081.82,-16.6"/>
</a>
</g>
</g>
<!-- Node11 -->
<g id="Node000011" class="node">
<title>Node11</title>
<g id="a_Node000011"><a xlink:title=" ">
<polygon fill="#e0e0e0" stroke="#999999" points="1079.46,-305 1014.46,-305 1014.46,-286 1079.46,-286 1079.46,-305"/>
<text text-anchor="middle" x="1046.96" y="-293" font-family="Helvetica,sans-Serif" font-size="10.00">gdk/gdk.h</text>
</a>
</g>
</g>
<!-- Node10&#45;&gt;Node11 -->
<g id="edge11_Node000010_Node000011" class="edge">
<title>Node10&#45;&gt;Node11</title>
<g id="a_edge11_Node000010_Node000011"><a xlink:title=" ">
<path fill="none" stroke="#63b8ff" d="M962.19,-340.98C978.14,-332.61 1002.74,-319.7 1021.34,-309.95"/>
<polygon fill="#63b8ff" stroke="#63b8ff" points="1023.21,-312.92 1030.44,-305.17 1019.96,-306.72 1023.21,-312.92"/>
</a>
</g>
</g>
<!-- Node12 -->
<g id="Node000012" class="node">
<title>Node12</title>
<g id="a_Node000012"><a xlink:title=" ">
<polygon fill="#e0e0e0" stroke="#999999" points="919.46,-305 860.46,-305 860.46,-286 919.46,-286 919.46,-305"/>
<text text-anchor="middle" x="889.96" y="-293" font-family="Helvetica,sans-Serif" font-size="10.00">gio/gio.h</text>
</a>
</g>
</g>
<!-- Node10&#45;&gt;Node12 -->
<g id="edge12_Node000010_Node000012" class="edge">
<title>Node10&#45;&gt;Node12</title>
<g id="a_edge12_Node000010_Node000012"><a xlink:title=" ">
<path fill="none" stroke="#63b8ff" d="M936.96,-340.98C928.77,-333.23 916.46,-321.58 906.49,-312.14"/>
<polygon fill="#63b8ff" stroke="#63b8ff" points="908.79,-309.5 899.12,-305.17 903.98,-314.59 908.79,-309.5"/>
</a>
</g>
</g>
<!-- Node10&#45;&gt;Node13 -->
<g id="edge13_Node000010_Node000013" class="edge">
<title>Node10&#45;&gt;Node13</title>
<g id="a_edge13_Node000010_Node000013"><a xlink:title=" ">
<path fill="none" stroke="#63b8ff" d="M917.56,-341.45C886.04,-332.52 834.91,-318.03 799.26,-307.92"/>
<polygon fill="#63b8ff" stroke="#63b8ff" points="799.76,-304.43 789.18,-305.07 797.85,-311.16 799.76,-304.43"/>
</a>
</g>
</g>
<!-- Node16 -->
<g id="Node000016" class="node">
<title>Node16</title>
<g id="a_Node000016"><a xlink:href="panel-enums_8h.html" target="_top" xlink:title=" ">
<polygon fill="white" stroke="#666666" points="1076.46,-129 987.46,-129 987.46,-110 1076.46,-110 1076.46,-129"/>
<text text-anchor="middle" x="1031.96" y="-117" font-family="Helvetica,sans-Serif" font-size="10.00">panel&#45;enums.h</text>
</a>
</g>
</g>
<!-- Node10&#45;&gt;Node16 -->
<g id="edge33_Node000010_Node000016" class="edge">
<title>Node10&#45;&gt;Node16</title>
<g id="a_edge33_Node000010_Node000016"><a xlink:title=" ">
<path fill="none" stroke="#63b8ff" d="M947.46,-340.57C950.13,-327.13 956.93,-301.63 971.96,-286 998.71,-258.19 1030.09,-282.45 1050.96,-250 1073.21,-215.41 1054.51,-165.01 1041.63,-138.44"/>
<polygon fill="#63b8ff" stroke="#63b8ff" points="1044.59,-136.52 1036.92,-129.21 1038.35,-139.7 1044.59,-136.52"/>
</a>
</g>
</g>
<!-- Node13&#45;&gt;Node6 -->
<g id="edge14_Node000013_Node000006" class="edge">
<title>Node13&#45;&gt;Node6</title>
<g id="a_edge14_Node000013_Node000006"><a xlink:title=" ">
<path fill="none" stroke="#63b8ff" d="M714.24,-292.48C678.68,-288.67 629.64,-278.21 596.96,-250 579.33,-234.78 556.54,-171.05 545.91,-139.03"/>
<polygon fill="#63b8ff" stroke="#63b8ff" points="549.12,-137.57 542.69,-129.15 542.47,-139.75 549.12,-137.57"/>
</a>
</g>
</g>
<!-- Node14 -->
<g id="Node000014" class="node">
<title>Node14</title>
<g id="a_Node000014"><a xlink:title=" ">
<polygon fill="#e0e0e0" stroke="#999999" points="851.46,-250 718.46,-250 718.46,-231 851.46,-231 851.46,-250"/>
<text text-anchor="middle" x="784.96" y="-238" font-family="Helvetica,sans-Serif" font-size="10.00">gdk&#45;pixbuf/gdk&#45;pixbuf.h</text>
</a>
</g>
</g>
<!-- Node13&#45;&gt;Node14 -->
<g id="edge15_Node000013_Node000014" class="edge">
<title>Node13&#45;&gt;Node14</title>
<g id="a_edge15_Node000013_Node000014"><a xlink:title=" ">
<path fill="none" stroke="#63b8ff" d="M763.25,-285.75C766.78,-278.57 771.87,-268.18 776.25,-259.27"/>
<polygon fill="#63b8ff" stroke="#63b8ff" points="779.49,-260.61 780.75,-250.09 773.2,-257.53 779.49,-260.61"/>
</a>
</g>
</g>
<!-- Node13&#45;&gt;Node15 -->
<g id="edge16_Node000013_Node000015" class="edge">
<title>Node13&#45;&gt;Node15</title>
<g id="a_edge16_Node000013_Node000015"><a xlink:title=" ">
<path fill="none" stroke="#63b8ff" d="M741.93,-285.98C725.03,-277.54 698.9,-264.47 679.32,-254.68"/>
<polygon fill="#63b8ff" stroke="#63b8ff" points="680.81,-251.51 670.3,-250.17 677.68,-257.77 680.81,-251.51"/>
</a>
</g>
</g>
<!-- Node18 -->
<g id="Node000018" class="node">
<title>Node18</title>
<g id="a_Node000018"><a xlink:href="panel-types_8h.html" target="_top" xlink:title=" ">
<polygon fill="white" stroke="#666666" points="959.46,-129 876.46,-129 876.46,-110 959.46,-110 959.46,-129"/>
<text text-anchor="middle" x="917.96" y="-117" font-family="Helvetica,sans-Serif" font-size="10.00">panel&#45;types.h</text>
</a>
</g>
</g>
<!-- Node13&#45;&gt;Node18 -->
<g id="edge22_Node000013_Node000018" class="edge">
<title>Node13&#45;&gt;Node18</title>
<g id="a_edge22_Node000013_Node000018"><a xlink:title=" ">
<path fill="none" stroke="#63b8ff" d="M803.53,-286.82C827.91,-280.57 857.11,-269.47 876.96,-250 907.6,-219.96 915.4,-167.21 917.35,-139.21"/>
<polygon fill="#63b8ff" stroke="#63b8ff" points="920.84,-139.33 917.86,-129.16 913.85,-138.97 920.84,-139.33"/>
</a>
</g>
</g>
<!-- Node19 -->
<g id="Node000019" class="node">
<title>Node19</title>
<g id="a_Node000019"><a xlink:href="panel-background_8h.html" target="_top" xlink:title=" ">
<polygon fill="white" stroke="#666666" points="889.46,-189.5 776.46,-189.5 776.46,-170.5 889.46,-170.5 889.46,-189.5"/>
<text text-anchor="middle" x="832.96" y="-177.5" font-family="Helvetica,sans-Serif" font-size="10.00">panel&#45;background.h</text>
</a>
</g>
</g>
<!-- Node13&#45;&gt;Node19 -->
<g id="edge23_Node000013_Node000019" class="edge">
<title>Node13&#45;&gt;Node19</title>
<g id="a_edge23_Node000013_Node000019"><a xlink:title=" ">
<path fill="none" stroke="#63b8ff" d="M803.72,-286.67C824.86,-280.48 848.21,-269.48 860.96,-250 871.85,-233.36 859.55,-211.81 847.99,-197.25"/>
<polygon fill="#63b8ff" stroke="#63b8ff" points="850.6,-194.92 841.45,-189.58 845.27,-199.46 850.6,-194.92"/>
</a>
</g>
</g>
<!-- Node20 -->
<g id="Node000020" class="node">
<title>Node20</title>
<g id="a_Node000020"><a xlink:href="panel-toplevel_8h.html" target="_top" xlink:title=" ">
<polygon fill="white" stroke="#666666" points="1041.96,-250 945.96,-250 945.96,-231 1041.96,-231 1041.96,-250"/>
<text text-anchor="middle" x="993.96" y="-238" font-family="Helvetica,sans-Serif" font-size="10.00">panel&#45;toplevel.h</text>
</a>
</g>
</g>
<!-- Node13&#45;&gt;Node20 -->
<g id="edge29_Node000013_Node000020" class="edge">
<title>Node13&#45;&gt;Node20</title>
<g id="a_edge29_Node000013_Node000020"><a xlink:title=" ">
<path fill="none" stroke="#63b8ff" d="M796.72,-285.98C837.28,-276.84 901.85,-262.27 945.99,-252.32"/>
<polygon fill="#63b8ff" stroke="#63b8ff" points="946.92,-255.7 955.91,-250.08 945.38,-248.87 946.92,-255.7"/>
</a>
</g>
</g>
<!-- Node15&#45;&gt;Node6 -->
<g id="edge17_Node000015_Node000006" class="edge">
<title>Node15&#45;&gt;Node6</title>
<g id="a_edge17_Node000015_Node000006"><a xlink:title=" ">
<path fill="none" stroke="#63b8ff" d="M646.65,-230.82C636.06,-216.48 613.71,-187.22 591.96,-165 581.7,-154.52 569.25,-143.8 559.1,-135.51"/>
<polygon fill="#63b8ff" stroke="#63b8ff" points="561.2,-132.71 551.22,-129.17 556.82,-138.16 561.2,-132.71"/>
</a>
</g>
</g>
<!-- Node15&#45;&gt;Node16 -->
<g id="edge18_Node000015_Node000016" class="edge">
<title>Node15&#45;&gt;Node16</title>
<g id="a_edge18_Node000015_Node000016"><a xlink:title=" ">
<path fill="none" stroke="#63b8ff" d="M700,-231.85C766.11,-220.97 880.55,-201.61 898.96,-195 941.33,-179.78 986.12,-151.89 1011.4,-134.89"/>
<polygon fill="#63b8ff" stroke="#63b8ff" points="1013.51,-137.69 1019.79,-129.17 1009.56,-131.91 1013.51,-137.69"/>
</a>
</g>
</g>
<!-- Node16&#45;&gt;Node9 -->
<g id="edge19_Node000016_Node000009" class="edge">
<title>Node16&#45;&gt;Node9</title>
<g id="a_edge19_Node000016_Node000009"><a xlink:title=" ">
<path fill="none" stroke="#63b8ff" d="M1012.3,-109.82C989.83,-98.59 957.76,-77.74 970.96,-55 980.91,-37.87 1000.2,-26.78 1017.1,-19.96"/>
<polygon fill="#63b8ff" stroke="#63b8ff" points="1018.52,-23.16 1026.69,-16.42 1016.1,-16.6 1018.52,-23.16"/>
</a>
</g>
</g>
<!-- Node17 -->
<g id="Node000017" class="node">
<title>Node17</title>
<g id="a_Node000017"><a xlink:href="panel-enums-gsettings_8h.html" target="_top" xlink:title=" ">
<polygon fill="white" stroke="#666666" points="1117.96,-74 979.96,-74 979.96,-55 1117.96,-55 1117.96,-74"/>
<text text-anchor="middle" x="1048.96" y="-62" font-family="Helvetica,sans-Serif" font-size="10.00">panel&#45;enums&#45;gsettings.h</text>
</a>
</g>
</g>
<!-- Node16&#45;&gt;Node17 -->
<g id="edge20_Node000016_Node000017" class="edge">
<title>Node16&#45;&gt;Node17</title>
<g id="a_edge20_Node000016_Node000017"><a xlink:title=" ">
<path fill="none" stroke="#63b8ff" d="M1034.77,-109.75C1037.02,-102.72 1040.26,-92.62 1043.08,-83.84"/>
<polygon fill="#63b8ff" stroke="#63b8ff" points="1046.49,-84.68 1046.21,-74.09 1039.82,-82.54 1046.49,-84.68"/>
</a>
</g>
</g>
<!-- Node17&#45;&gt;Node9 -->
<g id="edge21_Node000017_Node000009" class="edge">
<title>Node17&#45;&gt;Node9</title>
<g id="a_edge21_Node000017_Node000009"><a xlink:title=" ">
<path fill="none" stroke="#63b8ff" d="M1048.96,-54.75C1048.96,-47.8 1048.96,-37.85 1048.96,-29.13"/>
<polygon fill="#63b8ff" stroke="#63b8ff" points="1052.46,-29.09 1048.96,-19.09 1045.46,-29.09 1052.46,-29.09"/>
</a>
</g>
</g>
<!-- Node19&#45;&gt;Node2 -->
<g id="edge24_Node000019_Node000002" class="edge">
<title>Node19&#45;&gt;Node2</title>
<g id="a_edge24_Node000019_Node000002"><a xlink:title=" ">
<path fill="none" stroke="#63b8ff" d="M776.42,-171.65C683.12,-159.52 499.39,-135.64 420.45,-125.37"/>
<polygon fill="#63b8ff" stroke="#63b8ff" points="420.84,-121.89 410.47,-124.08 419.94,-128.84 420.84,-121.89"/>
</a>
</g>
</g>
<!-- Node19&#45;&gt;Node6 -->
<g id="edge26_Node000019_Node000006" class="edge">
<title>Node19&#45;&gt;Node6</title>
<g id="a_edge26_Node000019_Node000006"><a xlink:title=" ">
<path fill="none" stroke="#63b8ff" d="M790.36,-170.49C733.99,-159.24 635.36,-139.55 580.21,-128.54"/>
<polygon fill="#63b8ff" stroke="#63b8ff" points="580.6,-125.05 570.11,-126.52 579.23,-131.91 580.6,-125.05"/>
</a>
</g>
</g>
<!-- Node19&#45;&gt;Node9 -->
<g id="edge25_Node000019_Node000009" class="edge">
<title>Node19&#45;&gt;Node9</title>
<g id="a_edge25_Node000019_Node000009"><a xlink:title=" ">
<path fill="none" stroke="#63b8ff" d="M835.53,-170.42C840.1,-156.35 850.79,-128.15 867.96,-110 910.47,-65.07 977.86,-35.52 1017.31,-21.01"/>
<polygon fill="#63b8ff" stroke="#63b8ff" points="1018.71,-24.23 1026.94,-17.57 1016.35,-17.64 1018.71,-24.23"/>
</a>
</g>
</g>
<!-- Node19&#45;&gt;Node16 -->
<g id="edge27_Node000019_Node000016" class="edge">
<title>Node19&#45;&gt;Node16</title>
<g id="a_edge27_Node000019_Node000016"><a xlink:title=" ">
<path fill="none" stroke="#63b8ff" d="M861.9,-170.49C896.53,-160.31 954.67,-143.22 993.17,-131.9"/>
<polygon fill="#63b8ff" stroke="#63b8ff" points="994.38,-135.2 1002.99,-129.02 992.41,-128.48 994.38,-135.2"/>
</a>
</g>
</g>
<!-- Node19&#45;&gt;Node18 -->
<g id="edge28_Node000019_Node000018" class="edge">
<title>Node19&#45;&gt;Node18</title>
<g id="a_edge28_Node000019_Node000018"><a xlink:title=" ">
<path fill="none" stroke="#63b8ff" d="M845.5,-170.37C859.06,-161.04 880.9,-146.01 897.06,-134.88"/>
<polygon fill="#63b8ff" stroke="#63b8ff" points="899.11,-137.72 905.37,-129.17 895.15,-131.95 899.11,-137.72"/>
</a>
</g>
</g>
<!-- Node20&#45;&gt;Node6 -->
<g id="edge30_Node000020_Node000006" class="edge">
<title>Node20&#45;&gt;Node6</title>
<g id="a_edge30_Node000020_Node000006"><a xlink:title=" ">
<path fill="none" stroke="#63b8ff" d="M945.52,-231.72C899.5,-223.91 828.52,-210.79 767.96,-195 697.31,-176.57 616.48,-148.44 572.56,-132.54"/>
<polygon fill="#63b8ff" stroke="#63b8ff" points="573.58,-129.19 562.99,-129.06 571.19,-135.77 573.58,-129.19"/>
</a>
</g>
</g>
<!-- Node20&#45;&gt;Node16 -->
<g id="edge32_Node000020_Node000016" class="edge">
<title>Node20&#45;&gt;Node16</title>
<g id="a_edge32_Node000020_Node000016"><a xlink:title=" ">
<path fill="none" stroke="#63b8ff" d="M996.69,-230.94C1002.8,-211.82 1017.66,-165.27 1026.02,-139.12"/>
<polygon fill="#63b8ff" stroke="#63b8ff" points="1029.44,-139.89 1029.15,-129.3 1022.77,-137.76 1029.44,-139.89"/>
</a>
</g>
</g>
<!-- Node20&#45;&gt;Node19 -->
<g id="edge31_Node000020_Node000019" class="edge">
<title>Node20&#45;&gt;Node19</title>
<g id="a_edge31_Node000020_Node000019"><a xlink:title=" ">
<path fill="none" stroke="#63b8ff" d="M970.55,-230.99C943.01,-220.99 897.09,-204.3 865.95,-192.99"/>
<polygon fill="#63b8ff" stroke="#63b8ff" points="866.99,-189.64 856.4,-189.52 864.6,-196.22 866.99,-189.64"/>
</a>
</g>
</g>
<!-- Node21&#45;&gt;Node6 -->
<g id="edge37_Node000021_Node000006" class="edge">
<title>Node21&#45;&gt;Node6</title>
<g id="a_edge37_Node000021_Node000006"><a xlink:title=" ">
<path fill="none" stroke="#63b8ff" d="M741.76,-395.95C703.41,-375.98 610.56,-322.41 562.96,-250 548.41,-227.86 545.17,-220.98 539.96,-195 536.23,-176.41 536.77,-154.67 537.92,-139.49"/>
<polygon fill="#63b8ff" stroke="#63b8ff" points="541.42,-139.61 538.85,-129.33 534.45,-138.97 541.42,-139.61"/>
</a>
</g>
</g>
<!-- Node21&#45;&gt;Node10 -->
<g id="edge40_Node000021_Node000010" class="edge">
<title>Node21&#45;&gt;Node10</title>
<g id="a_edge40_Node000021_Node000010"><a xlink:title=" ">
<path fill="none" stroke="#63b8ff" d="M785.75,-396.91C817.79,-387.83 871.61,-372.57 907.94,-362.28"/>
<polygon fill="#63b8ff" stroke="#63b8ff" points="909.02,-365.61 917.69,-359.51 907.11,-358.87 909.02,-365.61"/>
</a>
</g>
</g>
<!-- Node21&#45;&gt;Node13 -->
<g id="edge39_Node000021_Node000013" class="edge">
<title>Node21&#45;&gt;Node13</title>
<g id="a_edge39_Node000021_Node000013"><a xlink:title=" ">
<path fill="none" stroke="#63b8ff" d="M763.48,-395.96C769.34,-383.85 778.44,-360.94 774.96,-341 773.39,-332 770.17,-322.42 767.02,-314.46"/>
<polygon fill="#63b8ff" stroke="#63b8ff" points="770.19,-312.97 763.07,-305.12 763.74,-315.69 770.19,-312.97"/>
</a>
</g>
</g>
<!-- Node21&#45;&gt;Node20 -->
<g id="edge38_Node000021_Node000020" class="edge">
<title>Node21&#45;&gt;Node20</title>
<g id="a_edge38_Node000021_Node000020"><a xlink:title=" ">
<path fill="none" stroke="#63b8ff" d="M764.7,-395.91C781.26,-371.35 829.37,-301.61 851.96,-286 876.86,-268.8 908.69,-258.03 935.91,-251.4"/>
<polygon fill="#63b8ff" stroke="#63b8ff" points="936.75,-254.79 945.71,-249.14 935.18,-247.97 936.75,-254.79"/>
</a>
</g>
</g>
<!-- Node22&#45;&gt;Node6 -->
<g id="edge43_Node000022_Node000006" class="edge">
<title>Node22&#45;&gt;Node6</title>
<g id="a_edge43_Node000022_Node000006"><a xlink:title=" ">
<path fill="none" stroke="#63b8ff" d="M710.73,-340.99C679.61,-326.39 617.89,-293.83 579.96,-250 552.21,-217.93 543.71,-166.82 541.11,-139.38"/>
<polygon fill="#63b8ff" stroke="#63b8ff" points="544.58,-138.89 540.31,-129.2 537.6,-139.44 544.58,-138.89"/>
</a>
</g>
</g>
<!-- Node22&#45;&gt;Node12 -->
<g id="edge42_Node000022_Node000012" class="edge">
<title>Node22&#45;&gt;Node12</title>
<g id="a_edge42_Node000022_Node000012"><a xlink:title=" ">
<path fill="none" stroke="#63b8ff" d="M755.67,-340.98C782.41,-332.13 824.49,-318.19 854.41,-308.28"/>
<polygon fill="#63b8ff" stroke="#63b8ff" points="855.66,-311.55 864.05,-305.08 853.46,-304.9 855.66,-311.55"/>
</a>
</g>
</g>
<!-- Node24 -->
<g id="Node000024" class="node">
<title>Node24</title>
<g id="a_Node000024"><a xlink:title=" ">
<polygon fill="#e0e0e0" stroke="#999999" points="1327.46,-360 1250.46,-360 1250.46,-341 1327.46,-341 1327.46,-360"/>
<text text-anchor="middle" x="1288.96" y="-348" font-family="Helvetica,sans-Serif" font-size="10.00">glib&#45;object.h</text>
</a>
</g>
</g>
<!-- Node23&#45;&gt;Node24 -->
<g id="edge45_Node000023_Node000024" class="edge">
<title>Node23&#45;&gt;Node24</title>
<g id="a_edge45_Node000023_Node000024"><a xlink:title=" ">
<path fill="none" stroke="#63b8ff" d="M1187.4,-395.98C1206.96,-387.42 1237.34,-374.11 1259.79,-364.28"/>
<polygon fill="#63b8ff" stroke="#63b8ff" points="1261.41,-367.39 1269.17,-360.17 1258.6,-360.98 1261.41,-367.39"/>
</a>
</g>
</g>
<!-- Node26&#45;&gt;Node6 -->
<g id="edge48_Node000026_Node000006" class="edge">
<title>Node26&#45;&gt;Node6</title>
<g id="a_edge48_Node000026_Node000006"><a xlink:title=" ">
<path fill="none" stroke="#63b8ff" d="M556.79,-395.95C523.82,-381.06 463.96,-347.07 463.96,-296.5 463.96,-296.5 463.96,-296.5 463.96,-239.5 463.96,-204.71 468.69,-193.96 487.96,-165 495.78,-153.25 507.53,-142.83 517.89,-135.03"/>
<polygon fill="#63b8ff" stroke="#63b8ff" points="520.05,-137.79 526.14,-129.12 515.97,-132.1 520.05,-137.79"/>
</a>
</g>
</g>
<!-- Node26&#45;&gt;Node10 -->
<g id="edge50_Node000026_Node000010" class="edge">
<title>Node26&#45;&gt;Node10</title>
<g id="a_edge50_Node000026_Node000010"><a xlink:title=" ">
<path fill="none" stroke="#63b8ff" d="M637.09,-395.98C713.11,-385.04 842.98,-366.33 907.39,-357.06"/>
<polygon fill="#63b8ff" stroke="#63b8ff" points="908.12,-360.49 917.52,-355.6 907.12,-353.56 908.12,-360.49"/>
</a>
</g>
</g>
<!-- Node26&#45;&gt;Node13 -->
<g id="edge49_Node000026_Node000013" class="edge">
<title>Node26&#45;&gt;Node13</title>
<g id="a_edge49_Node000026_Node000013"><a xlink:title=" ">
<path fill="none" stroke="#63b8ff" d="M586.36,-395.7C599.39,-382.43 625.72,-357.15 651.96,-341 674,-327.44 700.91,-316.27 722.22,-308.51"/>
<polygon fill="#63b8ff" stroke="#63b8ff" points="723.63,-311.73 731.89,-305.09 721.29,-305.13 723.63,-311.73"/>
</a>
</g>
</g>
<!-- Node27&#45;&gt;Node6 -->
<g id="edge52_Node000027_Node000006" class="edge">
<title>Node27&#45;&gt;Node6</title>
<g id="a_edge52_Node000027_Node000006"><a xlink:title=" ">
<path fill="none" stroke="#63b8ff" d="M411.77,-170.49C437.21,-160.57 479.47,-144.09 508.47,-132.78"/>
<polygon fill="#63b8ff" stroke="#63b8ff" points="510.08,-135.91 518.12,-129.02 507.54,-129.39 510.08,-135.91"/>
</a>
</g>
</g>
<!-- Node28&#45;&gt;Node9 -->
<g id="edge54_Node000028_Node000009" class="edge">
<title>Node28&#45;&gt;Node9</title>
<g id="a_edge54_Node000028_Node000009"><a xlink:title=" ">
<path fill="none" stroke="#63b8ff" d="M1094.55,-396.65C1145.22,-384.72 1221.96,-356.72 1221.96,-296.5 1221.96,-296.5 1221.96,-296.5 1221.96,-118.5 1221.96,-52.88 1131.3,-25.67 1081.24,-15.65"/>
<polygon fill="#63b8ff" stroke="#63b8ff" points="1081.7,-12.17 1071.22,-13.76 1080.4,-19.05 1081.7,-12.17"/>
</a>
</g>
</g>
<!-- Node28&#45;&gt;Node10 -->
<g id="edge60_Node000028_Node000010" class="edge">
<title>Node28&#45;&gt;Node10</title>
<g id="a_edge60_Node000028_Node000010"><a xlink:title=" ">
<path fill="none" stroke="#63b8ff" d="M1034.09,-395.98C1017.35,-387.54 991.46,-374.47 972.07,-364.68"/>
<polygon fill="#63b8ff" stroke="#63b8ff" points="973.64,-361.55 963.14,-360.17 970.49,-367.8 973.64,-361.55"/>
</a>
</g>
</g>
<!-- Node28&#45;&gt;Node11 -->
<g id="edge55_Node000028_Node000011" class="edge">
<title>Node28&#45;&gt;Node11</title>
<g id="a_edge55_Node000028_Node000011"><a xlink:title=" ">
<path fill="none" stroke="#63b8ff" d="M1050.63,-395.66C1049.99,-378.17 1048.53,-338.8 1047.66,-315.27"/>
<polygon fill="#63b8ff" stroke="#63b8ff" points="1051.15,-315.02 1047.28,-305.16 1044.15,-315.28 1051.15,-315.02"/>
</a>
</g>
</g>
<!-- Node28&#45;&gt;Node12 -->
<g id="edge56_Node000028_Node000012" class="edge">
<title>Node28&#45;&gt;Node12</title>
<g id="a_edge56_Node000028_Node000012"><a xlink:title=" ">
<path fill="none" stroke="#63b8ff" d="M1043.29,-395.8C1031.37,-382.67 1007.25,-357.57 982.96,-341 964.04,-328.09 940.79,-316.96 922.27,-309.07"/>
<polygon fill="#63b8ff" stroke="#63b8ff" points="923.37,-305.73 912.8,-305.13 920.69,-312.2 923.37,-305.73"/>
</a>
</g>
</g>
<!-- Node28&#45;&gt;Node16 -->
<g id="edge58_Node000028_Node000016" class="edge">
<title>Node28&#45;&gt;Node16</title>
<g id="a_edge58_Node000028_Node000016"><a xlink:title=" ">
<path fill="none" stroke="#63b8ff" d="M1094.52,-398.54C1118.12,-392.84 1145.37,-381.72 1159.96,-360 1191.94,-312.41 1183.83,-283.13 1159.96,-231 1139.14,-185.52 1089.34,-151.63 1058.35,-134.05"/>
<polygon fill="#63b8ff" stroke="#63b8ff" points="1059.84,-130.88 1049.39,-129.13 1056.47,-137.01 1059.84,-130.88"/>
</a>
</g>
</g>
<!-- Node28&#45;&gt;Node18 -->
<g id="edge59_Node000028_Node000018" class="edge">
<title>Node28&#45;&gt;Node18</title>
<g id="a_edge59_Node000028_Node000018"><a xlink:title=" ">
<path fill="none" stroke="#63b8ff" d="M1065.54,-395.93C1077.3,-388.17 1093.11,-375.56 1100.96,-360 1115.81,-330.57 1118.58,-316.45 1105.96,-286 1074.88,-210.96 989.06,-157.31 944.94,-133.79"/>
<polygon fill="#63b8ff" stroke="#63b8ff" points="946.42,-130.62 935.93,-129.11 943.19,-136.83 946.42,-130.62"/>
</a>
</g>
</g>
<!-- Node28&#45;&gt;Node20 -->
<g id="edge57_Node000028_Node000020" class="edge">
<title>Node28&#45;&gt;Node20</title>
<g id="a_edge57_Node000028_Node000020"><a xlink:title=" ">
<path fill="none" stroke="#63b8ff" d="M1058.45,-395.82C1075.18,-375.32 1112.38,-322.83 1088.96,-286 1079.08,-270.45 1062.17,-260.25 1045.34,-253.58"/>
<polygon fill="#63b8ff" stroke="#63b8ff" points="1046.08,-250.13 1035.49,-250.06 1043.72,-256.72 1046.08,-250.13"/>
</a>
</g>
</g>
<!-- Node29&#45;&gt;Node9 -->
<g id="edge62_Node000029_Node000009" class="edge">
<title>Node29&#45;&gt;Node9</title>
<g id="a_edge62_Node000029_Node000009"><a xlink:title=" ">
<path fill="none" stroke="#63b8ff" d="M1301.77,-395.69C1312.62,-387.6 1327.83,-374.66 1336.96,-360 1352.53,-334.99 1355.96,-325.96 1355.96,-296.5 1355.96,-296.5 1355.96,-296.5 1355.96,-118.5 1355.96,-60.76 1160.27,-26.38 1081.37,-14.86"/>
<polygon fill="#63b8ff" stroke="#63b8ff" points="1081.43,-11.33 1071.04,-13.39 1080.45,-18.26 1081.43,-11.33"/>
</a>
</g>
</g>
<!-- Node29&#45;&gt;Node24 -->
<g id="edge63_Node000029_Node000024" class="edge">
<title>Node29&#45;&gt;Node24</title>
<g id="a_edge63_Node000029_Node000024"><a xlink:title=" ">
<path fill="none" stroke="#63b8ff" d="M1288.96,-395.75C1288.96,-388.8 1288.96,-378.85 1288.96,-370.13"/>
<polygon fill="#63b8ff" stroke="#63b8ff" points="1292.46,-370.09 1288.96,-360.09 1285.46,-370.09 1292.46,-370.09"/>
</a>
</g>
</g>
</g>
</svg>
