<?xml version="1.0" encoding="UTF-8" standalone="no"?>
<!DOCTYPE svg PUBLIC "-//W3C//DTD SVG 1.1//EN"
 "http://www.w3.org/Graphics/SVG/1.1/DTD/svg11.dtd">
<!-- Generated by graphviz version 2.43.0 (0)
 -->
<!-- Title: panel&#45;toplevel.c Pages: 1 -->
<svg width="1660pt" height="467pt"
 viewBox="0.00 0.00 1660.00 467.00" xmlns="http://www.w3.org/2000/svg" xmlns:xlink="http://www.w3.org/1999/xlink">
<g id="graph0" class="graph" transform="scale(1 1) rotate(0) translate(4 463)">
<title>panel&#45;toplevel.c</title>
<!-- Node1 -->
<g id="Node000001" class="node">
<title>Node1</title>
<g id="a_Node000001"><a xlink:title=" ">
<polygon fill="#999999" stroke="#666666" points="770.5,-459 675.5,-459 675.5,-440 770.5,-440 770.5,-459"/>
<text text-anchor="middle" x="723" y="-447" font-family="Helvetica,sans-Serif" font-size="10.00">panel&#45;toplevel.c</text>
</a>
</g>
</g>
<!-- Node2 -->
<g id="Node000002" class="node">
<title>Node2</title>
<g id="a_Node000002"><a xlink:title=" ">
<polygon fill="#e0e0e0" stroke="#999999" points="242.5,-129 187.5,-129 187.5,-110 242.5,-110 242.5,-129"/>
<text text-anchor="middle" x="215" y="-117" font-family="Helvetica,sans-Serif" font-size="10.00">config.h</text>
</a>
</g>
</g>
<!-- Node1&#45;&gt;Node2 -->
<g id="edge1_Node000001_Node000002" class="edge">
<title>Node1&#45;&gt;Node2</title>
<g id="a_edge1_Node000001_Node000002"><a xlink:title=" ">
<path fill="none" stroke="#63b8ff" d="M675.45,-447.28C533.03,-443.35 116.27,-429.77 61,-404 25.53,-387.46 0,-379.63 0,-340.5 0,-340.5 0,-340.5 0,-228.5 0,-150.12 115.51,-128.62 177.2,-122.72"/>
<polygon fill="#63b8ff" stroke="#63b8ff" points="177.67,-126.2 187.33,-121.85 177.07,-119.22 177.67,-126.2"/>
</a>
</g>
</g>
<!-- Node3 -->
<g id="Node000003" class="node">
<title>Node3</title>
<g id="a_Node000003"><a xlink:href="panel-toplevel_8h.html" target="_top" xlink:title=" ">
<polygon fill="white" stroke="#666666" points="457,-239 361,-239 361,-220 457,-220 457,-239"/>
<text text-anchor="middle" x="409" y="-227" font-family="Helvetica,sans-Serif" font-size="10.00">panel&#45;toplevel.h</text>
</a>
</g>
</g>
<!-- Node1&#45;&gt;Node3 -->
<g id="edge2_Node000001_Node000003" class="edge">
<title>Node1&#45;&gt;Node3</title>
<g id="a_edge2_Node000001_Node000003"><a xlink:title=" ">
<path fill="none" stroke="#63b8ff" d="M675.28,-445.28C629.5,-440.73 559.37,-429.85 504,-404 468.46,-387.41 455.73,-382.29 435,-349 415.59,-317.82 410.56,-274.13 409.32,-249.45"/>
<polygon fill="#63b8ff" stroke="#63b8ff" points="412.82,-249.15 408.98,-239.27 405.82,-249.38 412.82,-249.15"/>
</a>
</g>
</g>
<!-- Node4 -->
<g id="Node000004" class="node">
<title>Node4</title>
<g id="a_Node000004"><a xlink:title=" ">
<polygon fill="#e0e0e0" stroke="#999999" points="345,-129 285,-129 285,-110 345,-110 345,-129"/>
<text text-anchor="middle" x="315" y="-117" font-family="Helvetica,sans-Serif" font-size="10.00">gtk/gtk.h</text>
</a>
</g>
</g>
<!-- Node1&#45;&gt;Node4 -->
<g id="edge16_Node000001_Node000004" class="edge">
<title>Node1&#45;&gt;Node4</title>
<g id="a_edge16_Node000001_Node000004"><a xlink:title=" ">
<path fill="none" stroke="#63b8ff" d="M675.31,-447.14C591.02,-444 419.8,-434.01 369,-404 278.18,-350.36 300.21,-193.22 310.91,-139.08"/>
<polygon fill="#63b8ff" stroke="#63b8ff" points="314.36,-139.67 312.97,-129.17 307.51,-138.24 314.36,-139.67"/>
</a>
</g>
</g>
<!-- Node10 -->
<g id="Node000010" class="node">
<title>Node10</title>
<g id="a_Node000010"><a xlink:title=" ">
<polygon fill="#e0e0e0" stroke="#999999" points="1112.5,-404 1059.5,-404 1059.5,-385 1112.5,-385 1112.5,-404"/>
<text text-anchor="middle" x="1086" y="-392" font-family="Helvetica,sans-Serif" font-size="10.00">stdlib.h</text>
</a>
</g>
</g>
<!-- Node1&#45;&gt;Node10 -->
<g id="edge14_Node000001_Node000010" class="edge">
<title>Node1&#45;&gt;Node10</title>
<g id="a_edge14_Node000001_Node000010"><a xlink:title=" ">
<path fill="none" stroke="#63b8ff" d="M770.61,-443.48C832.54,-436.63 944.26,-423.17 1049.49,-403.92"/>
<polygon fill="#63b8ff" stroke="#63b8ff" points="1050.13,-407.36 1059.32,-402.1 1048.85,-400.48 1050.13,-407.36"/>
</a>
</g>
</g>
<!-- Node11 -->
<g id="Node000011" class="node">
<title>Node11</title>
<g id="a_Node000011"><a xlink:title=" ">
<polygon fill="#e0e0e0" stroke="#999999" points="1183.5,-404 1130.5,-404 1130.5,-385 1183.5,-385 1183.5,-404"/>
<text text-anchor="middle" x="1157" y="-392" font-family="Helvetica,sans-Serif" font-size="10.00">string.h</text>
</a>
</g>
</g>
<!-- Node1&#45;&gt;Node11 -->
<g id="edge15_Node000001_Node000011" class="edge">
<title>Node1&#45;&gt;Node11</title>
<g id="a_edge15_Node000001_Node000011"><a xlink:title=" ">
<path fill="none" stroke="#63b8ff" d="M770.57,-445.16C843.82,-439.59 988.75,-426.87 1120.46,-404.08"/>
<polygon fill="#63b8ff" stroke="#63b8ff" points="1121.08,-407.52 1130.32,-402.35 1119.87,-400.63 1121.08,-407.52"/>
</a>
</g>
</g>
<!-- Node12 -->
<g id="Node000012" class="node">
<title>Node12</title>
<g id="a_Node000012"><a xlink:title=" ">
<polygon fill="#e0e0e0" stroke="#999999" points="1310,-404 1202,-404 1202,-385 1310,-385 1310,-404"/>
<text text-anchor="middle" x="1256" y="-392" font-family="Helvetica,sans-Serif" font-size="10.00">gdk/gdkkeysyms.h</text>
</a>
</g>
</g>
<!-- Node1&#45;&gt;Node12 -->
<g id="edge17_Node000001_Node000012" class="edge">
<title>Node1&#45;&gt;Node12</title>
<g id="a_edge17_Node000001_Node000012"><a xlink:title=" ">
<path fill="none" stroke="#63b8ff" d="M770.77,-444.61C854.04,-437.69 1031.43,-422.33 1191.68,-404.11"/>
<polygon fill="#63b8ff" stroke="#63b8ff" points="1192.18,-407.58 1201.72,-402.96 1191.39,-400.62 1192.18,-407.58"/>
</a>
</g>
</g>
<!-- Node13 -->
<g id="Node000013" class="node">
<title>Node13</title>
<g id="a_Node000013"><a xlink:title=" ">
<polygon fill="#e0e0e0" stroke="#999999" points="1402,-404 1328,-404 1328,-385 1402,-385 1402,-404"/>
<text text-anchor="middle" x="1365" y="-392" font-family="Helvetica,sans-Serif" font-size="10.00">glib/gi18n.h</text>
</a>
</g>
</g>
<!-- Node1&#45;&gt;Node13 -->
<g id="edge18_Node000001_Node000013" class="edge">
<title>Node1&#45;&gt;Node13</title>
<g id="a_edge18_Node000001_Node000013"><a xlink:title=" ">
<path fill="none" stroke="#63b8ff" d="M770.69,-446.69C870.42,-442.53 1108.43,-430.63 1317.94,-403.99"/>
<polygon fill="#63b8ff" stroke="#63b8ff" points="1318.43,-407.46 1327.9,-402.71 1317.53,-400.52 1318.43,-407.46"/>
</a>
</g>
</g>
<!-- Node14 -->
<g id="Node000014" class="node">
<title>Node14</title>
<g id="a_Node000014"><a xlink:href="panel-util_8h.html" target="_top" xlink:title=" ">
<polygon fill="white" stroke="#666666" points="516,-349 444,-349 444,-330 516,-330 516,-349"/>
<text text-anchor="middle" x="480" y="-337" font-family="Helvetica,sans-Serif" font-size="10.00">panel&#45;util.h</text>
</a>
</g>
</g>
<!-- Node1&#45;&gt;Node14 -->
<g id="edge19_Node000001_Node000014" class="edge">
<title>Node1&#45;&gt;Node14</title>
<g id="a_edge19_Node000001_Node000014"><a xlink:title=" ">
<path fill="none" stroke="#63b8ff" d="M675.18,-446.29C633.9,-442.43 574.14,-431.99 530,-404 512.09,-392.64 497.9,-372.57 489.28,-358.02"/>
<polygon fill="#63b8ff" stroke="#63b8ff" points="492.17,-356.02 484.23,-349.01 486.07,-359.45 492.17,-356.02"/>
</a>
</g>
</g>
<!-- Node16 -->
<g id="Node000016" class="node">
<title>Node16</title>
<g id="a_Node000016"><a xlink:href="panel-profile_8h.html" target="_top" xlink:title=" ">
<polygon fill="white" stroke="#666666" points="766.5,-404 679.5,-404 679.5,-385 766.5,-385 766.5,-404"/>
<text text-anchor="middle" x="723" y="-392" font-family="Helvetica,sans-Serif" font-size="10.00">panel&#45;profile.h</text>
</a>
</g>
</g>
<!-- Node1&#45;&gt;Node16 -->
<g id="edge22_Node000001_Node000016" class="edge">
<title>Node1&#45;&gt;Node16</title>
<g id="a_edge22_Node000001_Node000016"><a xlink:title=" ">
<path fill="none" stroke="#63b8ff" d="M723,-439.75C723,-432.8 723,-422.85 723,-414.13"/>
<polygon fill="#63b8ff" stroke="#63b8ff" points="726.5,-414.09 723,-404.09 719.5,-414.09 726.5,-414.09"/>
</a>
</g>
</g>
<!-- Node19 -->
<g id="Node000019" class="node">
<title>Node19</title>
<g id="a_Node000019"><a xlink:href="panel-widget_8h.html" target="_top" xlink:title=" ">
<polygon fill="white" stroke="#666666" points="636.5,-294 547.5,-294 547.5,-275 636.5,-275 636.5,-294"/>
<text text-anchor="middle" x="592" y="-282" font-family="Helvetica,sans-Serif" font-size="10.00">panel&#45;widget.h</text>
</a>
</g>
</g>
<!-- Node1&#45;&gt;Node19 -->
<g id="edge53_Node000001_Node000019" class="edge">
<title>Node1&#45;&gt;Node19</title>
<g id="a_edge53_Node000001_Node000019"><a xlink:title=" ">
<path fill="none" stroke="#63b8ff" d="M711.03,-439.78C699.92,-431.36 683.3,-417.87 671,-404 642,-371.3 615.39,-327.27 601.69,-303.14"/>
<polygon fill="#63b8ff" stroke="#63b8ff" points="604.57,-301.13 596.64,-294.11 598.46,-304.54 604.57,-301.13"/>
</a>
</g>
</g>
<!-- Node22 -->
<g id="Node000022" class="node">
<title>Node22</title>
<g id="a_Node000022"><a xlink:href="panel-frame_8h.html" target="_top" xlink:title=" ">
<polygon fill="white" stroke="#666666" points="479,-184 393,-184 393,-165 479,-165 479,-184"/>
<text text-anchor="middle" x="436" y="-172" font-family="Helvetica,sans-Serif" font-size="10.00">panel&#45;frame.h</text>
</a>
</g>
</g>
<!-- Node1&#45;&gt;Node22 -->
<g id="edge43_Node000001_Node000022" class="edge">
<title>Node1&#45;&gt;Node22</title>
<g id="a_edge43_Node000001_Node000022"><a xlink:title=" ">
<path fill="none" stroke="#63b8ff" d="M675.18,-445.34C571.04,-437.16 333,-410.76 333,-340.5 333,-340.5 333,-340.5 333,-283.5 333,-254.04 333.31,-242.77 352,-220 363.99,-205.39 382.06,-194.95 398.38,-187.86"/>
<polygon fill="#63b8ff" stroke="#63b8ff" points="399.77,-191.08 407.72,-184.08 397.14,-184.59 399.77,-191.08"/>
</a>
</g>
</g>
<!-- Node23 -->
<g id="Node000023" class="node">
<title>Node23</title>
<g id="a_Node000023"><a xlink:href="panel-multimonitor_8h.html" target="_top" xlink:title=" ">
<polygon fill="white" stroke="#666666" points="185.5,-239 66.5,-239 66.5,-220 185.5,-220 185.5,-239"/>
<text text-anchor="middle" x="126" y="-227" font-family="Helvetica,sans-Serif" font-size="10.00">panel&#45;multimonitor.h</text>
</a>
</g>
</g>
<!-- Node1&#45;&gt;Node23 -->
<g id="edge46_Node000001_Node000023" class="edge">
<title>Node1&#45;&gt;Node23</title>
<g id="a_edge46_Node000001_Node000023"><a xlink:title=" ">
<path fill="none" stroke="#63b8ff" d="M675.13,-447.57C566.12,-444.92 302.44,-435.38 220,-404 181.7,-389.42 167.4,-383.95 146,-349 127,-317.97 124.61,-274.23 125.01,-249.49"/>
<polygon fill="#63b8ff" stroke="#63b8ff" points="128.51,-249.41 125.36,-239.3 121.52,-249.17 128.51,-249.41"/>
</a>
</g>
</g>
<!-- Node24 -->
<g id="Node000024" class="node">
<title>Node24</title>
<g id="a_Node000024"><a xlink:href="panel-a11y_8h.html" target="_top" xlink:title=" ">
<polygon fill="white" stroke="#666666" points="233.5,-349 154.5,-349 154.5,-330 233.5,-330 233.5,-349"/>
<text text-anchor="middle" x="194" y="-337" font-family="Helvetica,sans-Serif" font-size="10.00">panel&#45;a11y.h</text>
</a>
</g>
</g>
<!-- Node1&#45;&gt;Node24 -->
<g id="edge48_Node000001_Node000024" class="edge">
<title>Node1&#45;&gt;Node24</title>
<g id="a_edge48_Node000001_Node000024"><a xlink:title=" ">
<path fill="none" stroke="#63b8ff" d="M675.3,-448.53C570.06,-447.89 321.48,-442.23 248,-404 228.41,-393.81 212.99,-373.21 203.73,-358.23"/>
<polygon fill="#63b8ff" stroke="#63b8ff" points="206.61,-356.23 198.55,-349.36 200.57,-359.76 206.61,-356.23"/>
</a>
</g>
</g>
<!-- Node25 -->
<g id="Node000025" class="node">
<title>Node25</title>
<g id="a_Node000025"><a xlink:href="panel-typebuiltins_8h.html" target="_top" xlink:title=" ">
<polygon fill="white" stroke="#666666" points="1534,-404 1420,-404 1420,-385 1534,-385 1534,-404"/>
<text text-anchor="middle" x="1477" y="-392" font-family="Helvetica,sans-Serif" font-size="10.00">panel&#45;typebuiltins.h</text>
</a>
</g>
</g>
<!-- Node1&#45;&gt;Node25 -->
<g id="edge50_Node000001_Node000025" class="edge">
<title>Node1&#45;&gt;Node25</title>
<g id="a_edge50_Node000001_Node000025"><a xlink:title=" ">
<path fill="none" stroke="#63b8ff" d="M770.63,-446.46C881.01,-441.52 1163.08,-427.59 1409.56,-404.08"/>
<polygon fill="#63b8ff" stroke="#63b8ff" points="1410.17,-407.53 1419.79,-403.09 1409.5,-400.57 1410.17,-407.53"/>
</a>
</g>
</g>
<!-- Node26 -->
<g id="Node000026" class="node">
<title>Node26</title>
<g id="a_Node000026"><a xlink:href="panel-marshal_8h.html" target="_top" xlink:title=" ">
<polygon fill="white" stroke="#666666" points="1041,-404 945,-404 945,-385 1041,-385 1041,-404"/>
<text text-anchor="middle" x="993" y="-392" font-family="Helvetica,sans-Serif" font-size="10.00">panel&#45;marshal.h</text>
</a>
</g>
</g>
<!-- Node1&#45;&gt;Node26 -->
<g id="edge51_Node000001_Node000026" class="edge">
<title>Node1&#45;&gt;Node26</title>
<g id="a_edge51_Node000001_Node000026"><a xlink:title=" ">
<path fill="none" stroke="#63b8ff" d="M766.38,-439.98C813.38,-430.76 888.43,-416.03 939.16,-406.07"/>
<polygon fill="#63b8ff" stroke="#63b8ff" points="940.14,-409.44 949.28,-404.08 938.79,-402.57 940.14,-409.44"/>
</a>
</g>
</g>
<!-- Node28 -->
<g id="Node000028" class="node">
<title>Node28</title>
<g id="a_Node000028"><a xlink:href="panel-bindings_8h.html" target="_top" xlink:title=" ">
<polygon fill="white" stroke="#666666" points="147,-184 49,-184 49,-165 147,-165 147,-184"/>
<text text-anchor="middle" x="98" y="-172" font-family="Helvetica,sans-Serif" font-size="10.00">panel&#45;bindings.h</text>
</a>
</g>
</g>
<!-- Node1&#45;&gt;Node28 -->
<g id="edge54_Node000001_Node000028" class="edge">
<title>Node1&#45;&gt;Node28</title>
<g id="a_edge54_Node000001_Node000028"><a xlink:title=" ">
<path fill="none" stroke="#63b8ff" d="M675.16,-446.77C559.8,-442.27 268.92,-428.74 175,-404 110.1,-386.91 38,-407.61 38,-340.5 38,-340.5 38,-340.5 38,-283.5 38,-254.04 42.42,-245.6 57,-220 63.14,-209.21 72.36,-198.89 80.49,-190.92"/>
<polygon fill="#63b8ff" stroke="#63b8ff" points="82.92,-193.44 87.83,-184.05 78.14,-188.33 82.92,-193.44"/>
</a>
</g>
</g>
<!-- Node29 -->
<g id="Node000029" class="node">
<title>Node29</title>
<g id="a_Node000029"><a xlink:href="panel-config-global_8h.html" target="_top" xlink:title=" ">
<polygon fill="white" stroke="#666666" points="1121.5,-74 1002.5,-74 1002.5,-55 1121.5,-55 1121.5,-74"/>
<text text-anchor="middle" x="1062" y="-62" font-family="Helvetica,sans-Serif" font-size="10.00">panel&#45;config&#45;global.h</text>
</a>
</g>
</g>
<!-- Node1&#45;&gt;Node29 -->
<g id="edge57_Node000001_Node000029" class="edge">
<title>Node1&#45;&gt;Node29</title>
<g id="a_edge57_Node000001_Node000029"><a xlink:title=" ">
<path fill="none" stroke="#63b8ff" d="M733.11,-439.94C749.39,-426.54 782.85,-400.54 815,-385 905.11,-341.46 1017,-385.58 1017,-285.5 1017,-285.5 1017,-285.5 1017,-173.5 1017,-139.31 1036.46,-103.38 1049.78,-82.79"/>
<polygon fill="#63b8ff" stroke="#63b8ff" points="1052.87,-84.48 1055.55,-74.23 1047.06,-80.57 1052.87,-84.48"/>
</a>
</g>
</g>
<!-- Node30 -->
<g id="Node000030" class="node">
<title>Node30</title>
<g id="a_Node000030"><a xlink:href="panel-lockdown_8h.html" target="_top" xlink:title=" ">
<polygon fill="white" stroke="#666666" points="926.5,-404 823.5,-404 823.5,-385 926.5,-385 926.5,-404"/>
<text text-anchor="middle" x="875" y="-392" font-family="Helvetica,sans-Serif" font-size="10.00">panel&#45;lockdown.h</text>
</a>
</g>
</g>
<!-- Node1&#45;&gt;Node30 -->
<g id="edge59_Node000001_Node000030" class="edge">
<title>Node1&#45;&gt;Node30</title>
<g id="a_edge59_Node000001_Node000030"><a xlink:title=" ">
<path fill="none" stroke="#63b8ff" d="M747.42,-439.98C772.72,-431.16 812.45,-417.31 840.86,-407.41"/>
<polygon fill="#63b8ff" stroke="#63b8ff" points="842.1,-410.68 850.39,-404.08 839.79,-404.07 842.1,-410.68"/>
</a>
</g>
</g>
<!-- Node31 -->
<g id="Node000031" class="node">
<title>Node31</title>
<g id="a_Node000031"><a xlink:href="panel-schemas_8h.html" target="_top" xlink:title=" ">
<polygon fill="white" stroke="#666666" points="1652,-404 1552,-404 1552,-385 1652,-385 1652,-404"/>
<text text-anchor="middle" x="1602" y="-392" font-family="Helvetica,sans-Serif" font-size="10.00">panel&#45;schemas.h</text>
</a>
</g>
</g>
<!-- Node1&#45;&gt;Node31 -->
<g id="edge62_Node000001_Node000031" class="edge">
<title>Node1&#45;&gt;Node31</title>
<g id="a_edge62_Node000001_Node000031"><a xlink:title=" ">
<path fill="none" stroke="#63b8ff" d="M770.71,-447.39C895.59,-444.18 1242.47,-433.21 1541.65,-404.04"/>
<polygon fill="#63b8ff" stroke="#63b8ff" points="1542.22,-407.5 1551.82,-403.04 1541.53,-400.53 1542.22,-407.5"/>
</a>
</g>
</g>
<!-- Node3&#45;&gt;Node4 -->
<g id="edge3_Node000003_Node000004" class="edge">
<title>Node3&#45;&gt;Node4</title>
<g id="a_edge3_Node000003_Node000004"><a xlink:title=" ">
<path fill="none" stroke="#63b8ff" d="M394.82,-219.96C382.21,-211.85 363.83,-198.75 351,-184 339.07,-170.29 329.21,-152.01 322.84,-138.58"/>
<polygon fill="#63b8ff" stroke="#63b8ff" points="326,-137.07 318.68,-129.42 319.63,-139.97 326,-137.07"/>
</a>
</g>
</g>
<!-- Node5 -->
<g id="Node000005" class="node">
<title>Node5</title>
<g id="a_Node000005"><a xlink:href="panel-background_8h.html" target="_top" xlink:title=" ">
<polygon fill="white" stroke="#666666" points="610.5,-184 497.5,-184 497.5,-165 610.5,-165 610.5,-184"/>
<text text-anchor="middle" x="554" y="-172" font-family="Helvetica,sans-Serif" font-size="10.00">panel&#45;background.h</text>
</a>
</g>
</g>
<!-- Node3&#45;&gt;Node5 -->
<g id="edge4_Node000003_Node000005" class="edge">
<title>Node3&#45;&gt;Node5</title>
<g id="a_edge4_Node000003_Node000005"><a xlink:title=" ">
<path fill="none" stroke="#63b8ff" d="M432.3,-219.98C456.25,-211.23 493.78,-197.51 520.83,-187.62"/>
<polygon fill="#63b8ff" stroke="#63b8ff" points="522.09,-190.89 530.28,-184.17 519.69,-184.32 522.09,-190.89"/>
</a>
</g>
</g>
<!-- Node7 -->
<g id="Node000007" class="node">
<title>Node7</title>
<g id="a_Node000007"><a xlink:href="panel-enums_8h.html" target="_top" xlink:title=" ">
<polygon fill="white" stroke="#666666" points="760.5,-129 671.5,-129 671.5,-110 760.5,-110 760.5,-129"/>
<text text-anchor="middle" x="716" y="-117" font-family="Helvetica,sans-Serif" font-size="10.00">panel&#45;enums.h</text>
</a>
</g>
</g>
<!-- Node3&#45;&gt;Node7 -->
<g id="edge13_Node000003_Node000007" class="edge">
<title>Node3&#45;&gt;Node7</title>
<g id="a_edge13_Node000003_Node000007"><a xlink:title=" ">
<path fill="none" stroke="#63b8ff" d="M457.04,-223.59C500.83,-217.91 566.64,-206.32 620,-184 649.44,-171.69 679.51,-150.02 697.97,-135.47"/>
<polygon fill="#63b8ff" stroke="#63b8ff" points="700.22,-138.15 705.81,-129.15 695.83,-132.7 700.22,-138.15"/>
</a>
</g>
</g>
<!-- Node5&#45;&gt;Node2 -->
<g id="edge5_Node000005_Node000002" class="edge">
<title>Node5&#45;&gt;Node2</title>
<g id="a_edge5_Node000005_Node000002"><a xlink:title=" ">
<path fill="none" stroke="#63b8ff" d="M499.53,-164.98C430.5,-154.19 313.26,-135.86 253.1,-126.46"/>
<polygon fill="#63b8ff" stroke="#63b8ff" points="253.32,-122.95 242.9,-124.86 252.24,-129.86 253.32,-122.95"/>
</a>
</g>
</g>
<!-- Node5&#45;&gt;Node4 -->
<g id="edge7_Node000005_Node000004" class="edge">
<title>Node5&#45;&gt;Node4</title>
<g id="a_edge7_Node000005_Node000004"><a xlink:title=" ">
<path fill="none" stroke="#63b8ff" d="M515.6,-164.98C471.65,-155.24 400,-139.35 355.28,-129.43"/>
<polygon fill="#63b8ff" stroke="#63b8ff" points="355.86,-125.98 345.34,-127.23 354.35,-132.81 355.86,-125.98"/>
</a>
</g>
</g>
<!-- Node6 -->
<g id="Node000006" class="node">
<title>Node6</title>
<g id="a_Node000006"><a xlink:title=" ">
<polygon fill="#e0e0e0" stroke="#999999" points="906,-19 862,-19 862,0 906,0 906,-19"/>
<text text-anchor="middle" x="884" y="-7" font-family="Helvetica,sans-Serif" font-size="10.00">glib.h</text>
</a>
</g>
</g>
<!-- Node5&#45;&gt;Node6 -->
<g id="edge6_Node000005_Node000006" class="edge">
<title>Node5&#45;&gt;Node6</title>
<g id="a_edge6_Node000005_Node000006"><a xlink:title=" ">
<path fill="none" stroke="#63b8ff" d="M564.84,-164.83C592.09,-143.41 666.23,-87.39 736,-55 774.21,-37.26 821.21,-24.55 851.85,-17.36"/>
<polygon fill="#63b8ff" stroke="#63b8ff" points="853,-20.69 861.97,-15.05 851.44,-13.87 853,-20.69"/>
</a>
</g>
</g>
<!-- Node5&#45;&gt;Node7 -->
<g id="edge8_Node000005_Node000007" class="edge">
<title>Node5&#45;&gt;Node7</title>
<g id="a_edge8_Node000005_Node000007"><a xlink:title=" ">
<path fill="none" stroke="#63b8ff" d="M580.03,-164.98C607.11,-156.13 649.71,-142.19 680.01,-132.28"/>
<polygon fill="#63b8ff" stroke="#63b8ff" points="681.35,-135.52 689.77,-129.08 679.18,-128.87 681.35,-135.52"/>
</a>
</g>
</g>
<!-- Node9 -->
<g id="Node000009" class="node">
<title>Node9</title>
<g id="a_Node000009"><a xlink:href="panel-types_8h.html" target="_top" xlink:title=" ">
<polygon fill="white" stroke="#666666" points="906.5,-129 823.5,-129 823.5,-110 906.5,-110 906.5,-129"/>
<text text-anchor="middle" x="865" y="-117" font-family="Helvetica,sans-Serif" font-size="10.00">panel&#45;types.h</text>
</a>
</g>
</g>
<!-- Node5&#45;&gt;Node9 -->
<g id="edge12_Node000005_Node000009" class="edge">
<title>Node5&#45;&gt;Node9</title>
<g id="a_edge12_Node000005_Node000009"><a xlink:title=" ">
<path fill="none" stroke="#63b8ff" d="M603.97,-164.98C661.31,-155.21 754.9,-139.26 813.06,-129.35"/>
<polygon fill="#63b8ff" stroke="#63b8ff" points="813.86,-132.77 823.13,-127.63 812.69,-125.86 813.86,-132.77"/>
</a>
</g>
</g>
<!-- Node7&#45;&gt;Node6 -->
<g id="edge9_Node000007_Node000006" class="edge">
<title>Node7&#45;&gt;Node6</title>
<g id="a_edge9_Node000007_Node000006"><a xlink:title=" ">
<path fill="none" stroke="#63b8ff" d="M719.55,-109.81C725.52,-96.22 738.83,-69.97 758,-55 785.73,-33.35 824.81,-21.74 852.07,-15.86"/>
<polygon fill="#63b8ff" stroke="#63b8ff" points="852.78,-19.29 861.89,-13.88 851.4,-12.43 852.78,-19.29"/>
</a>
</g>
</g>
<!-- Node8 -->
<g id="Node000008" class="node">
<title>Node8</title>
<g id="a_Node000008"><a xlink:href="panel-enums-gsettings_8h.html" target="_top" xlink:title=" ">
<polygon fill="white" stroke="#666666" points="905,-74 767,-74 767,-55 905,-55 905,-74"/>
<text text-anchor="middle" x="836" y="-62" font-family="Helvetica,sans-Serif" font-size="10.00">panel&#45;enums&#45;gsettings.h</text>
</a>
</g>
</g>
<!-- Node7&#45;&gt;Node8 -->
<g id="edge10_Node000007_Node000008" class="edge">
<title>Node7&#45;&gt;Node8</title>
<g id="a_edge10_Node000007_Node000008"><a xlink:title=" ">
<path fill="none" stroke="#63b8ff" d="M735.28,-109.98C754.67,-101.42 784.81,-88.11 807.07,-78.28"/>
<polygon fill="#63b8ff" stroke="#63b8ff" points="808.64,-81.41 816.37,-74.17 805.81,-75.01 808.64,-81.41"/>
</a>
</g>
</g>
<!-- Node8&#45;&gt;Node6 -->
<g id="edge11_Node000008_Node000006" class="edge">
<title>Node8&#45;&gt;Node6</title>
<g id="a_edge11_Node000008_Node000006"><a xlink:title=" ">
<path fill="none" stroke="#63b8ff" d="M843.93,-54.75C850.85,-47.11 861.07,-35.82 869.45,-26.56"/>
<polygon fill="#63b8ff" stroke="#63b8ff" points="872.1,-28.85 876.22,-19.09 866.91,-24.15 872.1,-28.85"/>
</a>
</g>
</g>
<!-- Node14&#45;&gt;Node4 -->
<g id="edge21_Node000014_Node000004" class="edge">
<title>Node14&#45;&gt;Node4</title>
<g id="a_edge21_Node000014_Node000004"><a xlink:title=" ">
<path fill="none" stroke="#63b8ff" d="M463.36,-329.8C436.24,-314.8 382.47,-281.57 352,-239 330.01,-208.29 320.79,-164.09 317.16,-139.27"/>
<polygon fill="#63b8ff" stroke="#63b8ff" points="320.59,-138.52 315.83,-129.06 313.65,-139.43 320.59,-138.52"/>
</a>
</g>
</g>
<!-- Node15 -->
<g id="Node000015" class="node">
<title>Node15</title>
<g id="a_Node000015"><a xlink:title=" ">
<polygon fill="#e0e0e0" stroke="#999999" points="752.5,-294 693.5,-294 693.5,-275 752.5,-275 752.5,-294"/>
<text text-anchor="middle" x="723" y="-282" font-family="Helvetica,sans-Serif" font-size="10.00">gio/gio.h</text>
</a>
</g>
</g>
<!-- Node14&#45;&gt;Node15 -->
<g id="edge20_Node000014_Node000015" class="edge">
<title>Node14&#45;&gt;Node15</title>
<g id="a_edge20_Node000014_Node000015"><a xlink:title=" ">
<path fill="none" stroke="#63b8ff" d="M516.12,-330.62C560.86,-320.86 636.83,-304.29 683.21,-294.18"/>
<polygon fill="#63b8ff" stroke="#63b8ff" points="684.17,-297.55 693.2,-292 682.68,-290.71 684.17,-297.55"/>
</a>
</g>
</g>
<!-- Node16&#45;&gt;Node3 -->
<g id="edge26_Node000016_Node000003" class="edge">
<title>Node16&#45;&gt;Node3</title>
<g id="a_edge26_Node000016_Node000003"><a xlink:title=" ">
<path fill="none" stroke="#63b8ff" d="M706.56,-384.97C655.17,-358.29 497.3,-276.34 434.83,-243.91"/>
<polygon fill="#63b8ff" stroke="#63b8ff" points="436.14,-240.65 425.66,-239.15 432.92,-246.86 436.14,-240.65"/>
</a>
</g>
</g>
<!-- Node16&#45;&gt;Node6 -->
<g id="edge23_Node000016_Node000006" class="edge">
<title>Node16&#45;&gt;Node6</title>
<g id="a_edge23_Node000016_Node000006"><a xlink:title=" ">
<path fill="none" stroke="#63b8ff" d="M766.78,-386.93C802.32,-380.47 853.08,-368.67 894,-349 936.5,-328.57 979,-332.66 979,-285.5 979,-285.5 979,-285.5 979,-228.5 979,-148.37 971.1,-123.78 930,-55 923.28,-43.75 912.99,-33.43 903.85,-25.56"/>
<polygon fill="#63b8ff" stroke="#63b8ff" points="905.87,-22.69 895.91,-19.07 901.44,-28.11 905.87,-22.69"/>
</a>
</g>
</g>
<!-- Node16&#45;&gt;Node7 -->
<g id="edge27_Node000016_Node000007" class="edge">
<title>Node16&#45;&gt;Node7</title>
<g id="a_edge27_Node000016_Node000007"><a xlink:title=" ">
<path fill="none" stroke="#63b8ff" d="M715.83,-384.83C700.17,-364.78 665.78,-313.94 685,-275 696.65,-251.41 713.86,-258.06 732,-239 752.49,-217.48 761.15,-212.36 770,-184 772.51,-175.94 773.6,-172.64 770,-165 763.99,-152.26 752.34,-141.92 741.39,-134.44"/>
<polygon fill="#63b8ff" stroke="#63b8ff" points="743.21,-131.44 732.89,-129.05 739.46,-137.36 743.21,-131.44"/>
</a>
</g>
</g>
<!-- Node16&#45;&gt;Node9 -->
<g id="edge28_Node000016_Node000009" class="edge">
<title>Node16&#45;&gt;Node9</title>
<g id="a_edge28_Node000016_Node000009"><a xlink:title=" ">
<path fill="none" stroke="#63b8ff" d="M766.67,-386.67C815.53,-376.34 891.79,-351.43 922,-294 950.47,-239.88 903.69,-168.83 878.88,-137.08"/>
<polygon fill="#63b8ff" stroke="#63b8ff" points="881.55,-134.81 872.55,-129.21 876.1,-139.19 881.55,-134.81"/>
</a>
</g>
</g>
<!-- Node16&#45;&gt;Node15 -->
<g id="edge25_Node000016_Node000015" class="edge">
<title>Node16&#45;&gt;Node15</title>
<g id="a_edge25_Node000016_Node000015"><a xlink:title=" ">
<path fill="none" stroke="#63b8ff" d="M723,-384.66C723,-367.17 723,-327.8 723,-304.27"/>
<polygon fill="#63b8ff" stroke="#63b8ff" points="726.5,-304.16 723,-294.16 719.5,-304.16 726.5,-304.16"/>
</a>
</g>
</g>
<!-- Node17 -->
<g id="Node000017" class="node">
<title>Node17</title>
<g id="a_Node000017"><a xlink:title=" ">
<polygon fill="#e0e0e0" stroke="#999999" points="912.5,-294 847.5,-294 847.5,-275 912.5,-275 912.5,-294"/>
<text text-anchor="middle" x="880" y="-282" font-family="Helvetica,sans-Serif" font-size="10.00">gdk/gdk.h</text>
</a>
</g>
</g>
<!-- Node16&#45;&gt;Node17 -->
<g id="edge24_Node000016_Node000017" class="edge">
<title>Node16&#45;&gt;Node17</title>
<g id="a_edge24_Node000016_Node000017"><a xlink:title=" ">
<path fill="none" stroke="#63b8ff" d="M746.63,-384.98C766.42,-377.23 794.89,-364.64 817,-349 836.11,-335.48 854.55,-315.87 866.49,-302.03"/>
<polygon fill="#63b8ff" stroke="#63b8ff" points="869.27,-304.16 873.03,-294.26 863.92,-299.65 869.27,-304.16"/>
</a>
</g>
</g>
<!-- Node18 -->
<g id="Node000018" class="node">
<title>Node18</title>
<g id="a_Node000018"><a xlink:href="mate-panel_2mate-panel_2applet_8h.html" target="_top" xlink:title=" ">
<polygon fill="white" stroke="#666666" points="808,-349 752,-349 752,-330 808,-330 808,-349"/>
<text text-anchor="middle" x="780" y="-337" font-family="Helvetica,sans-Serif" font-size="10.00">applet.h</text>
</a>
</g>
</g>
<!-- Node16&#45;&gt;Node18 -->
<g id="edge29_Node000016_Node000018" class="edge">
<title>Node16&#45;&gt;Node18</title>
<g id="a_edge29_Node000016_Node000018"><a xlink:title=" ">
<path fill="none" stroke="#63b8ff" d="M732.16,-384.98C740.5,-377.23 753.03,-365.58 763.18,-356.14"/>
<polygon fill="#63b8ff" stroke="#63b8ff" points="765.74,-358.54 770.68,-349.17 760.97,-353.42 765.74,-358.54"/>
</a>
</g>
</g>
<!-- Node18&#45;&gt;Node6 -->
<g id="edge30_Node000018_Node000006" class="edge">
<title>Node18&#45;&gt;Node6</title>
<g id="a_edge30_Node000018_Node000006"><a xlink:title=" ">
<path fill="none" stroke="#63b8ff" d="M788.36,-329.87C813.76,-302.97 889.9,-217.15 916,-129 919.83,-116.06 922.13,-79.97 914,-55 910.73,-44.96 904.48,-35.09 898.52,-27.2"/>
<polygon fill="#63b8ff" stroke="#63b8ff" points="901.1,-24.82 892.1,-19.24 895.65,-29.22 901.1,-24.82"/>
</a>
</g>
</g>
<!-- Node18&#45;&gt;Node7 -->
<g id="edge42_Node000018_Node000007" class="edge">
<title>Node18&#45;&gt;Node7</title>
<g id="a_edge42_Node000018_Node000007"><a xlink:title=" ">
<path fill="none" stroke="#63b8ff" d="M782.64,-329.6C791.72,-298.23 820.2,-193.12 803,-165 793.6,-149.64 777.04,-139.36 760.86,-132.6"/>
<polygon fill="#63b8ff" stroke="#63b8ff" points="762.04,-129.3 751.44,-129.01 759.54,-135.84 762.04,-129.3"/>
</a>
</g>
</g>
<!-- Node18&#45;&gt;Node15 -->
<g id="edge32_Node000018_Node000015" class="edge">
<title>Node18&#45;&gt;Node15</title>
<g id="a_edge32_Node000018_Node000015"><a xlink:title=" ">
<path fill="none" stroke="#63b8ff" d="M770.84,-329.98C762.5,-322.23 749.97,-310.58 739.82,-301.14"/>
<polygon fill="#63b8ff" stroke="#63b8ff" points="742.03,-298.42 732.32,-294.17 737.26,-303.54 742.03,-298.42"/>
</a>
</g>
</g>
<!-- Node18&#45;&gt;Node17 -->
<g id="edge31_Node000018_Node000017" class="edge">
<title>Node18&#45;&gt;Node17</title>
<g id="a_edge31_Node000018_Node000017"><a xlink:title=" ">
<path fill="none" stroke="#63b8ff" d="M796.07,-329.98C811.86,-321.61 836.22,-308.7 854.63,-298.95"/>
<polygon fill="#63b8ff" stroke="#63b8ff" points="856.44,-301.95 863.64,-294.17 853.17,-295.76 856.44,-301.95"/>
</a>
</g>
</g>
<!-- Node18&#45;&gt;Node19 -->
<g id="edge33_Node000018_Node000019" class="edge">
<title>Node18&#45;&gt;Node19</title>
<g id="a_edge33_Node000018_Node000019"><a xlink:title=" ">
<path fill="none" stroke="#63b8ff" d="M751.85,-330.57C720.02,-321.59 667.94,-306.91 631.91,-296.75"/>
<polygon fill="#63b8ff" stroke="#63b8ff" points="632.78,-293.36 622.21,-294.02 630.88,-300.1 632.78,-293.36"/>
</a>
</g>
</g>
<!-- Node19&#45;&gt;Node3 -->
<g id="edge41_Node000019_Node000003" class="edge">
<title>Node19&#45;&gt;Node3</title>
<g id="a_edge41_Node000019_Node000003"><a xlink:title=" ">
<path fill="none" stroke="#63b8ff" d="M562.6,-274.98C531.61,-266.01 482.62,-251.82 448.33,-241.89"/>
<polygon fill="#63b8ff" stroke="#63b8ff" points="449.21,-238.5 438.63,-239.08 447.26,-245.23 449.21,-238.5"/>
</a>
</g>
</g>
<!-- Node19&#45;&gt;Node4 -->
<g id="edge34_Node000019_Node000004" class="edge">
<title>Node19&#45;&gt;Node4</title>
<g id="a_edge34_Node000019_Node000004"><a xlink:title=" ">
<path fill="none" stroke="#63b8ff" d="M575.43,-274.79C551.46,-262.29 505.67,-238.69 466,-220 429.99,-203.04 417.32,-205.77 384,-184 363.27,-170.45 342.81,-150.58 329.62,-136.68"/>
<polygon fill="#63b8ff" stroke="#63b8ff" points="332.12,-134.23 322.75,-129.29 326.99,-139 332.12,-134.23"/>
</a>
</g>
</g>
<!-- Node19&#45;&gt;Node5 -->
<g id="edge40_Node000019_Node000005" class="edge">
<title>Node19&#45;&gt;Node5</title>
<g id="a_edge40_Node000019_Node000005"><a xlink:title=" ">
<path fill="none" stroke="#63b8ff" d="M578.51,-274.75C567.71,-266.87 553.35,-254.21 547,-239 540.99,-224.61 543.7,-206.87 547.35,-193.8"/>
<polygon fill="#63b8ff" stroke="#63b8ff" points="550.75,-194.69 550.48,-184.1 544.08,-192.54 550.75,-194.69"/>
</a>
</g>
</g>
<!-- Node19&#45;&gt;Node9 -->
<g id="edge39_Node000019_Node000009" class="edge">
<title>Node19&#45;&gt;Node9</title>
<g id="a_edge39_Node000019_Node000009"><a xlink:title=" ">
<path fill="none" stroke="#63b8ff" d="M634.32,-274.96C663.12,-267.99 701.42,-256.42 732,-239 781.25,-210.95 828.15,-162.32 850.82,-136.96"/>
<polygon fill="#63b8ff" stroke="#63b8ff" points="853.57,-139.14 857.55,-129.32 848.32,-134.51 853.57,-139.14"/>
</a>
</g>
</g>
<!-- Node20 -->
<g id="Node000020" class="node">
<title>Node20</title>
<g id="a_Node000020"><a xlink:title=" ">
<polygon fill="#e0e0e0" stroke="#999999" points="722.5,-239 589.5,-239 589.5,-220 722.5,-220 722.5,-239"/>
<text text-anchor="middle" x="656" y="-227" font-family="Helvetica,sans-Serif" font-size="10.00">gdk&#45;pixbuf/gdk&#45;pixbuf.h</text>
</a>
</g>
</g>
<!-- Node19&#45;&gt;Node20 -->
<g id="edge35_Node000019_Node000020" class="edge">
<title>Node19&#45;&gt;Node20</title>
<g id="a_edge35_Node000019_Node000020"><a xlink:title=" ">
<path fill="none" stroke="#63b8ff" d="M602.28,-274.98C611.84,-267.07 626.28,-255.11 637.78,-245.58"/>
<polygon fill="#63b8ff" stroke="#63b8ff" points="640.06,-248.24 645.53,-239.17 635.6,-242.85 640.06,-248.24"/>
</a>
</g>
</g>
<!-- Node21 -->
<g id="Node000021" class="node">
<title>Node21</title>
<g id="a_Node000021"><a xlink:href="button-widget_8h.html" target="_top" xlink:title=" ">
<polygon fill="white" stroke="#666666" points="761,-184 667,-184 667,-165 761,-165 761,-184"/>
<text text-anchor="middle" x="714" y="-172" font-family="Helvetica,sans-Serif" font-size="10.00">button&#45;widget.h</text>
</a>
</g>
</g>
<!-- Node19&#45;&gt;Node21 -->
<g id="edge36_Node000019_Node000021" class="edge">
<title>Node19&#45;&gt;Node21</title>
<g id="a_edge36_Node000019_Node000021"><a xlink:title=" ">
<path fill="none" stroke="#63b8ff" d="M586.79,-274.79C579.68,-261.65 569.1,-236.53 581,-220 590.83,-206.35 628.81,-194.46 661.68,-186.42"/>
<polygon fill="#63b8ff" stroke="#63b8ff" points="662.76,-189.76 671.68,-184.05 661.14,-182.95 662.76,-189.76"/>
</a>
</g>
</g>
<!-- Node21&#45;&gt;Node4 -->
<g id="edge37_Node000021_Node000004" class="edge">
<title>Node21&#45;&gt;Node4</title>
<g id="a_edge37_Node000021_Node000004"><a xlink:title=" ">
<path fill="none" stroke="#63b8ff" d="M666.66,-167.21C587.57,-156.71 429.91,-135.76 355.57,-125.89"/>
<polygon fill="#63b8ff" stroke="#63b8ff" points="355.6,-122.36 345.23,-124.52 354.68,-129.3 355.6,-122.36"/>
</a>
</g>
</g>
<!-- Node21&#45;&gt;Node7 -->
<g id="edge38_Node000021_Node000007" class="edge">
<title>Node21&#45;&gt;Node7</title>
<g id="a_edge38_Node000021_Node000007"><a xlink:title=" ">
<path fill="none" stroke="#63b8ff" d="M714.33,-164.75C714.59,-157.8 714.97,-147.85 715.3,-139.13"/>
<polygon fill="#63b8ff" stroke="#63b8ff" points="718.8,-139.21 715.68,-129.09 711.8,-138.95 718.8,-139.21"/>
</a>
</g>
</g>
<!-- Node22&#45;&gt;Node4 -->
<g id="edge44_Node000022_Node000004" class="edge">
<title>Node22&#45;&gt;Node4</title>
<g id="a_edge44_Node000022_Node000004"><a xlink:title=" ">
<path fill="none" stroke="#63b8ff" d="M416.56,-164.98C397.01,-156.42 366.62,-143.11 344.18,-133.28"/>
<polygon fill="#63b8ff" stroke="#63b8ff" points="345.36,-129.98 334.79,-129.17 342.55,-136.39 345.36,-129.98"/>
</a>
</g>
</g>
<!-- Node22&#45;&gt;Node7 -->
<g id="edge45_Node000022_Node000007" class="edge">
<title>Node22&#45;&gt;Node7</title>
<g id="a_edge45_Node000022_Node000007"><a xlink:title=" ">
<path fill="none" stroke="#63b8ff" d="M479.14,-165.33C528.14,-156.06 608.18,-140.91 661.47,-130.82"/>
<polygon fill="#63b8ff" stroke="#63b8ff" points="662.25,-134.24 671.43,-128.94 660.95,-127.36 662.25,-134.24"/>
</a>
</g>
</g>
<!-- Node23&#45;&gt;Node4 -->
<g id="edge47_Node000023_Node000004" class="edge">
<title>Node23&#45;&gt;Node4</title>
<g id="a_edge47_Node000023_Node000004"><a xlink:title=" ">
<path fill="none" stroke="#63b8ff" d="M134.2,-219.6C146.95,-206.2 172.8,-180.75 199,-165 222.67,-150.77 251.69,-139.64 274.78,-132.08"/>
<polygon fill="#63b8ff" stroke="#63b8ff" points="276.13,-135.32 284.6,-128.95 274.01,-128.65 276.13,-135.32"/>
</a>
</g>
</g>
<!-- Node24&#45;&gt;Node4 -->
<g id="edge49_Node000024_Node000004" class="edge">
<title>Node24&#45;&gt;Node4</title>
<g id="a_edge49_Node000024_Node000004"><a xlink:title=" ">
<path fill="none" stroke="#63b8ff" d="M193.86,-329.92C193.84,-302.82 197.12,-217.72 237,-165 247.83,-150.69 264.69,-140.25 279.97,-133.09"/>
<polygon fill="#63b8ff" stroke="#63b8ff" points="281.44,-136.27 289.21,-129.06 278.64,-129.85 281.44,-136.27"/>
</a>
</g>
</g>
<!-- Node27 -->
<g id="Node000027" class="node">
<title>Node27</title>
<g id="a_Node000027"><a xlink:title=" ">
<polygon fill="#e0e0e0" stroke="#999999" points="1255.5,-349 1178.5,-349 1178.5,-330 1255.5,-330 1255.5,-349"/>
<text text-anchor="middle" x="1217" y="-337" font-family="Helvetica,sans-Serif" font-size="10.00">glib&#45;object.h</text>
</a>
</g>
</g>
<!-- Node26&#45;&gt;Node27 -->
<g id="edge52_Node000026_Node000027" class="edge">
<title>Node26&#45;&gt;Node27</title>
<g id="a_edge52_Node000026_Node000027"><a xlink:title=" ">
<path fill="none" stroke="#63b8ff" d="M1028.99,-384.98C1067.49,-375.87 1128.69,-361.4 1170.74,-351.45"/>
<polygon fill="#63b8ff" stroke="#63b8ff" points="1171.8,-354.79 1180.73,-349.08 1170.19,-347.98 1171.8,-354.79"/>
</a>
</g>
</g>
<!-- Node28&#45;&gt;Node4 -->
<g id="edge56_Node000028_Node000004" class="edge">
<title>Node28&#45;&gt;Node4</title>
<g id="a_edge56_Node000028_Node000004"><a xlink:title=" ">
<path fill="none" stroke="#63b8ff" d="M132.86,-164.98C171.63,-155.52 234.14,-140.25 274.91,-130.29"/>
<polygon fill="#63b8ff" stroke="#63b8ff" points="275.89,-133.66 284.77,-127.88 274.23,-126.86 275.89,-133.66"/>
</a>
</g>
</g>
<!-- Node28&#45;&gt;Node6 -->
<g id="edge55_Node000028_Node000006" class="edge">
<title>Node28&#45;&gt;Node6</title>
<g id="a_edge55_Node000028_Node000006"><a xlink:title=" ">
<path fill="none" stroke="#63b8ff" d="M105.88,-164.77C119.19,-150.64 147.69,-123.01 178,-110 302.49,-56.56 730.26,-21.76 851.65,-12.8"/>
<polygon fill="#63b8ff" stroke="#63b8ff" points="852.07,-16.28 861.79,-12.06 851.56,-9.29 852.07,-16.28"/>
</a>
</g>
</g>
<!-- Node29&#45;&gt;Node6 -->
<g id="edge58_Node000029_Node000006" class="edge">
<title>Node29&#45;&gt;Node6</title>
<g id="a_edge58_Node000029_Node000006"><a xlink:title=" ">
<path fill="none" stroke="#63b8ff" d="M1033.4,-54.98C1001.25,-45.41 949.19,-29.91 915.79,-19.96"/>
<polygon fill="#63b8ff" stroke="#63b8ff" points="916.65,-16.57 906.06,-17.07 914.65,-23.28 916.65,-16.57"/>
</a>
</g>
</g>
<!-- Node30&#45;&gt;Node6 -->
<g id="edge60_Node000030_Node000006" class="edge">
<title>Node30&#45;&gt;Node6</title>
<g id="a_edge60_Node000030_Node000006"><a xlink:title=" ">
<path fill="none" stroke="#63b8ff" d="M922.59,-384.96C1001.3,-369.45 1150,-333.78 1150,-285.5 1150,-285.5 1150,-285.5 1150,-118.5 1150,-89.04 1152.97,-74.63 1131,-55 1099.73,-27.07 975.89,-15.98 916.33,-12.2"/>
<polygon fill="#63b8ff" stroke="#63b8ff" points="916.52,-8.71 906.33,-11.6 916.1,-15.69 916.52,-8.71"/>
</a>
</g>
</g>
<!-- Node30&#45;&gt;Node27 -->
<g id="edge61_Node000030_Node000027" class="edge">
<title>Node30&#45;&gt;Node27</title>
<g id="a_edge61_Node000030_Node000027"><a xlink:title=" ">
<path fill="none" stroke="#63b8ff" d="M926.7,-385.64C984.53,-376.82 1081,-362.05 1164,-349 1165.29,-348.8 1166.61,-348.59 1167.93,-348.38"/>
<polygon fill="#63b8ff" stroke="#63b8ff" points="1168.89,-351.77 1178.22,-346.75 1167.79,-344.86 1168.89,-351.77"/>
</a>
</g>
</g>
</g>
</svg>
