<?xml version="1.0" encoding="UTF-8" standalone="no"?>
<!DOCTYPE svg PUBLIC "-//W3C//DTD SVG 1.1//EN"
 "http://www.w3.org/Graphics/SVG/1.1/DTD/svg11.dtd">
<!-- Generated by graphviz version 2.43.0 (0)
 -->
<!-- Title: pluma&#45;file&#45;chooser&#45;dialog.h Pages: 1 -->
<svg width="539pt" height="203pt"
 viewBox="0.00 0.00 539.00 203.00" xmlns="http://www.w3.org/2000/svg" xmlns:xlink="http://www.w3.org/1999/xlink">
<g id="graph0" class="graph" transform="scale(1 1) rotate(0) translate(4 199)">
<title>pluma&#45;file&#45;chooser&#45;dialog.h</title>
<!-- Node1 -->
<g id="Node000001" class="node">
<title>Node1</title>
<g id="a_Node000001"><a xlink:title=" ">
<polygon fill="#999999" stroke="#666666" points="254,-195 146,-195 146,-165 254,-165 254,-195"/>
<text text-anchor="start" x="154" y="-183" font-family="Helvetica,sans-Serif" font-size="10.00">pluma&#45;file&#45;chooser</text>
<text text-anchor="middle" x="200" y="-172" font-family="Helvetica,sans-Serif" font-size="10.00">&#45;dialog.h</text>
</a>
</g>
</g>
<!-- Node2 -->
<g id="Node000002" class="node">
<title>Node2</title>
<g id="a_Node000002"><a xlink:title=" ">
<polygon fill="#e0e0e0" stroke="#999999" points="60,-74 0,-74 0,-55 60,-55 60,-74"/>
<text text-anchor="middle" x="30" y="-62" font-family="Helvetica,sans-Serif" font-size="10.00">gtk/gtk.h</text>
</a>
</g>
</g>
<!-- Node1&#45;&gt;Node2 -->
<g id="edge1_Node000001_Node000002" class="edge">
<title>Node1&#45;&gt;Node2</title>
<g id="a_edge1_Node000001_Node000002"><a xlink:title=" ">
<path fill="none" stroke="#63b8ff" d="M178.81,-164.85C146.27,-143.13 84.32,-101.77 51.55,-79.89"/>
<polygon fill="#63b8ff" stroke="#63b8ff" points="53.4,-76.91 43.14,-74.27 49.51,-82.73 53.4,-76.91"/>
</a>
</g>
</g>
<!-- Node3 -->
<g id="Node000003" class="node">
<title>Node3</title>
<g id="a_Node000003"><a xlink:href="pluma-encodings_8h.html" target="_top" xlink:title=" ">
<polygon fill="white" stroke="#666666" points="221.5,-74 78.5,-74 78.5,-55 221.5,-55 221.5,-74"/>
<text text-anchor="middle" x="150" y="-62" font-family="Helvetica,sans-Serif" font-size="10.00">pluma/pluma&#45;encodings.h</text>
</a>
</g>
</g>
<!-- Node1&#45;&gt;Node3 -->
<g id="edge2_Node000001_Node000003" class="edge">
<title>Node1&#45;&gt;Node3</title>
<g id="a_edge2_Node000001_Node000003"><a xlink:title=" ">
<path fill="none" stroke="#63b8ff" d="M189.71,-164.69C183.09,-154.99 174.7,-141.67 169,-129 162.5,-114.55 157.5,-97.28 154.26,-84.4"/>
<polygon fill="#63b8ff" stroke="#63b8ff" points="157.6,-83.31 151.88,-74.39 150.79,-84.93 157.6,-83.31"/>
</a>
</g>
</g>
<!-- Node6 -->
<g id="Node000006" class="node">
<title>Node6</title>
<g id="a_Node000006"><a xlink:href="pluma-enum-types_8h.html" target="_top" xlink:title=" ">
<polygon fill="white" stroke="#666666" points="531,-129 379,-129 379,-110 531,-110 531,-129"/>
<text text-anchor="middle" x="455" y="-117" font-family="Helvetica,sans-Serif" font-size="10.00">pluma/pluma&#45;enum&#45;types.h</text>
</a>
</g>
</g>
<!-- Node1&#45;&gt;Node6 -->
<g id="edge5_Node000001_Node000006" class="edge">
<title>Node1&#45;&gt;Node6</title>
<g id="a_edge5_Node000001_Node000006"><a xlink:title=" ">
<path fill="none" stroke="#63b8ff" d="M254.08,-166.59C299.79,-156.11 364.59,-141.24 408.13,-131.25"/>
<polygon fill="#63b8ff" stroke="#63b8ff" points="408.93,-134.66 417.9,-129.01 407.37,-127.84 408.93,-134.66"/>
</a>
</g>
</g>
<!-- Node7 -->
<g id="Node000007" class="node">
<title>Node7</title>
<g id="a_Node000007"><a xlink:href="pluma-document_8h.html" target="_top" xlink:title=" ">
<polygon fill="white" stroke="#666666" points="321.5,-129 178.5,-129 178.5,-110 321.5,-110 321.5,-129"/>
<text text-anchor="middle" x="250" y="-117" font-family="Helvetica,sans-Serif" font-size="10.00">pluma/pluma&#45;document.h</text>
</a>
</g>
</g>
<!-- Node1&#45;&gt;Node7 -->
<g id="edge7_Node000001_Node000007" class="edge">
<title>Node1&#45;&gt;Node7</title>
<g id="a_edge7_Node000001_Node000007"><a xlink:title=" ">
<path fill="none" stroke="#63b8ff" d="M212.1,-164.84C219.29,-156.43 228.43,-145.74 235.93,-136.96"/>
<polygon fill="#63b8ff" stroke="#63b8ff" points="238.67,-139.14 242.51,-129.27 233.35,-134.59 238.67,-139.14"/>
</a>
</g>
</g>
<!-- Node4 -->
<g id="Node000004" class="node">
<title>Node4</title>
<g id="a_Node000004"><a xlink:title=" ">
<polygon fill="#e0e0e0" stroke="#999999" points="172,-19 128,-19 128,0 172,0 172,-19"/>
<text text-anchor="middle" x="150" y="-7" font-family="Helvetica,sans-Serif" font-size="10.00">glib.h</text>
</a>
</g>
</g>
<!-- Node3&#45;&gt;Node4 -->
<g id="edge3_Node000003_Node000004" class="edge">
<title>Node3&#45;&gt;Node4</title>
<g id="a_edge3_Node000003_Node000004"><a xlink:title=" ">
<path fill="none" stroke="#63b8ff" d="M150,-54.75C150,-47.8 150,-37.85 150,-29.13"/>
<polygon fill="#63b8ff" stroke="#63b8ff" points="153.5,-29.09 150,-19.09 146.5,-29.09 153.5,-29.09"/>
</a>
</g>
</g>
<!-- Node5 -->
<g id="Node000005" class="node">
<title>Node5</title>
<g id="a_Node000005"><a xlink:title=" ">
<polygon fill="#e0e0e0" stroke="#999999" points="399.5,-19 322.5,-19 322.5,0 399.5,0 399.5,-19"/>
<text text-anchor="middle" x="361" y="-7" font-family="Helvetica,sans-Serif" font-size="10.00">glib&#45;object.h</text>
</a>
</g>
</g>
<!-- Node3&#45;&gt;Node5 -->
<g id="edge4_Node000003_Node000005" class="edge">
<title>Node3&#45;&gt;Node5</title>
<g id="a_edge4_Node000003_Node000005"><a xlink:title=" ">
<path fill="none" stroke="#63b8ff" d="M183.9,-54.98C220.02,-45.91 277.32,-31.52 316.92,-21.57"/>
<polygon fill="#63b8ff" stroke="#63b8ff" points="317.99,-24.91 326.83,-19.08 316.28,-18.12 317.99,-24.91"/>
</a>
</g>
</g>
<!-- Node6&#45;&gt;Node5 -->
<g id="edge6_Node000006_Node000005" class="edge">
<title>Node6&#45;&gt;Node5</title>
<g id="a_edge6_Node000006_Node000005"><a xlink:title=" ">
<path fill="none" stroke="#63b8ff" d="M462.34,-109.58C472.08,-96.59 486.74,-72.18 475,-55 460.32,-33.51 433.58,-22.4 409.69,-16.65"/>
<polygon fill="#63b8ff" stroke="#63b8ff" points="410.18,-13.18 399.67,-14.5 408.72,-20.02 410.18,-13.18"/>
</a>
</g>
</g>
<!-- Node7&#45;&gt;Node2 -->
<g id="edge9_Node000007_Node000002" class="edge">
<title>Node7&#45;&gt;Node2</title>
<g id="a_edge9_Node000007_Node000002"><a xlink:title=" ">
<path fill="none" stroke="#63b8ff" d="M214.65,-109.98C175.16,-100.47 111.34,-85.1 70.03,-75.14"/>
<polygon fill="#63b8ff" stroke="#63b8ff" points="70.84,-71.74 60.3,-72.8 69.2,-78.54 70.84,-71.74"/>
</a>
</g>
</g>
<!-- Node7&#45;&gt;Node3 -->
<g id="edge11_Node000007_Node000003" class="edge">
<title>Node7&#45;&gt;Node3</title>
<g id="a_edge11_Node000007_Node000003"><a xlink:title=" ">
<path fill="none" stroke="#63b8ff" d="M233.93,-109.98C218.14,-101.61 193.78,-88.7 175.37,-78.95"/>
<polygon fill="#63b8ff" stroke="#63b8ff" points="176.83,-75.76 166.36,-74.17 173.56,-81.95 176.83,-75.76"/>
</a>
</g>
</g>
<!-- Node8 -->
<g id="Node000008" class="node">
<title>Node8</title>
<g id="a_Node000008"><a xlink:title=" ">
<polygon fill="#e0e0e0" stroke="#999999" points="465.5,-74 406.5,-74 406.5,-55 465.5,-55 465.5,-74"/>
<text text-anchor="middle" x="436" y="-62" font-family="Helvetica,sans-Serif" font-size="10.00">gio/gio.h</text>
</a>
</g>
</g>
<!-- Node7&#45;&gt;Node8 -->
<g id="edge8_Node000007_Node000008" class="edge">
<title>Node7&#45;&gt;Node8</title>
<g id="a_edge8_Node000007_Node000008"><a xlink:title=" ">
<path fill="none" stroke="#63b8ff" d="M279.88,-109.98C311.57,-100.96 361.76,-86.65 396.65,-76.71"/>
<polygon fill="#63b8ff" stroke="#63b8ff" points="397.84,-80.01 406.5,-73.91 395.92,-73.28 397.84,-80.01"/>
</a>
</g>
</g>
<!-- Node9 -->
<g id="Node000009" class="node">
<title>Node9</title>
<g id="a_Node000009"><a xlink:title=" ">
<polygon fill="#e0e0e0" stroke="#999999" points="388,-74 240,-74 240,-55 388,-55 388,-74"/>
<text text-anchor="middle" x="314" y="-62" font-family="Helvetica,sans-Serif" font-size="10.00">gtksourceview/gtksource.h</text>
</a>
</g>
</g>
<!-- Node7&#45;&gt;Node9 -->
<g id="edge10_Node000007_Node000009" class="edge">
<title>Node7&#45;&gt;Node9</title>
<g id="a_edge10_Node000007_Node000009"><a xlink:title=" ">
<path fill="none" stroke="#63b8ff" d="M260.28,-109.98C269.84,-102.07 284.28,-90.11 295.78,-80.58"/>
<polygon fill="#63b8ff" stroke="#63b8ff" points="298.06,-83.24 303.53,-74.17 293.6,-77.85 298.06,-83.24"/>
</a>
</g>
</g>
</g>
</svg>
