<?xml version="1.0" encoding="UTF-8" standalone="no"?>
<!DOCTYPE svg PUBLIC "-//W3C//DTD SVG 1.1//EN"
 "http://www.w3.org/Graphics/SVG/1.1/DTD/svg11.dtd">
<!-- Generated by graphviz version 2.43.0 (0)
 -->
<!-- Title: pluma&#45;enum&#45;types.c Pages: 1 -->
<svg width="921pt" height="434pt"
 viewBox="0.00 0.00 920.91 434.00" xmlns="http://www.w3.org/2000/svg" xmlns:xlink="http://www.w3.org/1999/xlink">
<g id="graph0" class="graph" transform="scale(1 1) rotate(0) translate(4 430)">
<title>pluma&#45;enum&#45;types.c</title>
<!-- Node1 -->
<g id="Node000001" class="node">
<title>Node1</title>
<g id="a_Node000001"><a xlink:title=" ">
<polygon fill="#999999" stroke="#666666" points="670.91,-426 552.91,-426 552.91,-407 670.91,-407 670.91,-426"/>
<text text-anchor="middle" x="611.91" y="-414" font-family="Helvetica,sans-Serif" font-size="10.00">pluma&#45;enum&#45;types.c</text>
</a>
</g>
</g>
<!-- Node2 -->
<g id="Node000002" class="node">
<title>Node2</title>
<g id="a_Node000002"><a xlink:href="pluma-enum-types_8h.html" target="_top" xlink:title=" ">
<polygon fill="white" stroke="#666666" points="301.41,-316 182.41,-316 182.41,-297 301.41,-297 301.41,-316"/>
<text text-anchor="middle" x="241.91" y="-304" font-family="Helvetica,sans-Serif" font-size="10.00">pluma&#45;enum&#45;types.h</text>
</a>
</g>
</g>
<!-- Node1&#45;&gt;Node2 -->
<g id="edge1_Node000001_Node000002" class="edge">
<title>Node1&#45;&gt;Node2</title>
<g id="a_edge1_Node000001_Node000002"><a xlink:title=" ">
<path fill="none" stroke="#63b8ff" d="M582.56,-406.94C516.45,-387.64 355.8,-340.74 281.19,-318.97"/>
<polygon fill="#63b8ff" stroke="#63b8ff" points="281.83,-315.51 271.25,-316.07 279.87,-322.23 281.83,-315.51"/>
</a>
</g>
</g>
<!-- Node4 -->
<g id="Node000004" class="node">
<title>Node4</title>
<g id="a_Node000004"><a xlink:href="pluma-app_8h.html" target="_top" xlink:title=" ">
<polygon fill="white" stroke="#666666" points="548.91,-371 470.91,-371 470.91,-352 548.91,-352 548.91,-371"/>
<text text-anchor="middle" x="509.91" y="-359" font-family="Helvetica,sans-Serif" font-size="10.00">pluma&#45;app.h</text>
</a>
</g>
</g>
<!-- Node1&#45;&gt;Node4 -->
<g id="edge3_Node000001_Node000004" class="edge">
<title>Node1&#45;&gt;Node4</title>
<g id="a_edge3_Node000001_Node000004"><a xlink:title=" ">
<path fill="none" stroke="#63b8ff" d="M595.52,-406.98C579.33,-398.57 554.34,-385.59 535.52,-375.81"/>
<polygon fill="#63b8ff" stroke="#63b8ff" points="537.08,-372.68 526.59,-371.17 533.85,-378.89 537.08,-372.68"/>
</a>
</g>
</g>
<!-- Node6 -->
<g id="Node000006" class="node">
<title>Node6</title>
<g id="a_Node000006"><a xlink:href="pluma-window_8h.html" target="_top" xlink:title=" ">
<polygon fill="white" stroke="#666666" points="575.41,-316 444.41,-316 444.41,-297 575.41,-297 575.41,-316"/>
<text text-anchor="middle" x="509.91" y="-304" font-family="Helvetica,sans-Serif" font-size="10.00">pluma/pluma&#45;window.h</text>
</a>
</g>
</g>
<!-- Node1&#45;&gt;Node6 -->
<g id="edge36_Node000001_Node000006" class="edge">
<title>Node1&#45;&gt;Node6</title>
<g id="a_edge36_Node000001_Node000006"><a xlink:title=" ">
<path fill="none" stroke="#63b8ff" d="M604.88,-406.59C594.87,-394.03 575.73,-370.6 557.91,-352 548.18,-341.85 536.64,-331.11 527.31,-322.73"/>
<polygon fill="#63b8ff" stroke="#63b8ff" points="529.59,-320.07 519.79,-316.04 524.94,-325.3 529.59,-320.07"/>
</a>
</g>
</g>
<!-- Node8 -->
<g id="Node000008" class="node">
<title>Node8</title>
<g id="a_Node000008"><a xlink:href="pluma-tab_8h.html" target="_top" xlink:title=" ">
<polygon fill="white" stroke="#666666" points="683.91,-261 573.91,-261 573.91,-242 683.91,-242 683.91,-261"/>
<text text-anchor="middle" x="628.91" y="-249" font-family="Helvetica,sans-Serif" font-size="10.00">pluma/pluma&#45;tab.h</text>
</a>
</g>
</g>
<!-- Node1&#45;&gt;Node8 -->
<g id="edge35_Node000001_Node000008" class="edge">
<title>Node1&#45;&gt;Node8</title>
<g id="a_edge35_Node000001_Node000008"><a xlink:title=" ">
<path fill="none" stroke="#63b8ff" d="M612.82,-406.74C615.47,-381.31 623.21,-307.08 626.9,-271.69"/>
<polygon fill="#63b8ff" stroke="#63b8ff" points="630.43,-271.62 627.99,-261.31 623.47,-270.89 630.43,-271.62"/>
</a>
</g>
</g>
<!-- Node10 -->
<g id="Node000010" class="node">
<title>Node10</title>
<g id="a_Node000010"><a xlink:href="pluma-document_8h.html" target="_top" xlink:title=" ">
<polygon fill="white" stroke="#666666" points="729.41,-134.5 586.41,-134.5 586.41,-115.5 729.41,-115.5 729.41,-134.5"/>
<text text-anchor="middle" x="657.91" y="-122.5" font-family="Helvetica,sans-Serif" font-size="10.00">pluma/pluma&#45;document.h</text>
</a>
</g>
</g>
<!-- Node1&#45;&gt;Node10 -->
<g id="edge34_Node000001_Node000010" class="edge">
<title>Node1&#45;&gt;Node10</title>
<g id="a_edge34_Node000001_Node000010"><a xlink:title=" ">
<path fill="none" stroke="#63b8ff" d="M644.22,-406.91C686.68,-393.44 755.91,-362.97 755.91,-307.5 755.91,-307.5 755.91,-307.5 755.91,-250.5 755.91,-201.89 709.21,-161.06 680.28,-140.44"/>
<polygon fill="#63b8ff" stroke="#63b8ff" points="682.17,-137.49 671.95,-134.7 678.2,-143.25 682.17,-137.49"/>
</a>
</g>
</g>
<!-- Node19 -->
<g id="Node000019" class="node">
<title>Node19</title>
<g id="a_Node000019"><a xlink:href="pluma-debug_8h.html" target="_top" xlink:title=" ">
<polygon fill="white" stroke="#666666" points="912.91,-371 822.91,-371 822.91,-352 912.91,-352 912.91,-371"/>
<text text-anchor="middle" x="867.91" y="-359" font-family="Helvetica,sans-Serif" font-size="10.00">pluma&#45;debug.h</text>
</a>
</g>
</g>
<!-- Node1&#45;&gt;Node19 -->
<g id="edge32_Node000001_Node000019" class="edge">
<title>Node1&#45;&gt;Node19</title>
<g id="a_edge32_Node000001_Node000019"><a xlink:title=" ">
<path fill="none" stroke="#63b8ff" d="M653.04,-406.98C697.5,-397.78 768.46,-383.09 816.55,-373.13"/>
<polygon fill="#63b8ff" stroke="#63b8ff" points="817.37,-376.54 826.45,-371.08 815.95,-369.68 817.37,-376.54"/>
</a>
</g>
</g>
<!-- Node3 -->
<g id="Node000003" class="node">
<title>Node3</title>
<g id="a_Node000003"><a xlink:title=" ">
<polygon fill="#e0e0e0" stroke="#999999" points="254.41,-19 177.41,-19 177.41,0 254.41,0 254.41,-19"/>
<text text-anchor="middle" x="215.91" y="-7" font-family="Helvetica,sans-Serif" font-size="10.00">glib&#45;object.h</text>
</a>
</g>
</g>
<!-- Node2&#45;&gt;Node3 -->
<g id="edge2_Node000002_Node000003" class="edge">
<title>Node2&#45;&gt;Node3</title>
<g id="a_edge2_Node000002_Node000003"><a xlink:title=" ">
<path fill="none" stroke="#63b8ff" d="M243.42,-296.99C246.65,-278.14 253.91,-231.43 253.91,-192 253.91,-192 253.91,-192 253.91,-124 253.91,-88.48 236.96,-49.79 225.7,-28"/>
<polygon fill="#63b8ff" stroke="#63b8ff" points="228.69,-26.16 220.87,-19 222.52,-29.47 228.69,-26.16"/>
</a>
</g>
</g>
<!-- Node5 -->
<g id="Node000005" class="node">
<title>Node5</title>
<g id="a_Node000005"><a xlink:title=" ">
<polygon fill="#e0e0e0" stroke="#999999" points="473.91,-74 413.91,-74 413.91,-55 473.91,-55 473.91,-74"/>
<text text-anchor="middle" x="443.91" y="-62" font-family="Helvetica,sans-Serif" font-size="10.00">gtk/gtk.h</text>
</a>
</g>
</g>
<!-- Node4&#45;&gt;Node5 -->
<g id="edge4_Node000004_Node000005" class="edge">
<title>Node4&#45;&gt;Node5</title>
<g id="a_edge4_Node000004_Node000005"><a xlink:title=" ">
<path fill="none" stroke="#63b8ff" d="M470.85,-354.77C417.91,-344.54 329.91,-317.73 329.91,-252.5 329.91,-252.5 329.91,-252.5 329.91,-190 329.91,-138.3 384.04,-98.73 417.7,-79.13"/>
<polygon fill="#63b8ff" stroke="#63b8ff" points="419.59,-82.08 426.59,-74.13 416.16,-75.98 419.59,-82.08"/>
</a>
</g>
</g>
<!-- Node4&#45;&gt;Node6 -->
<g id="edge5_Node000004_Node000006" class="edge">
<title>Node4&#45;&gt;Node6</title>
<g id="a_edge5_Node000004_Node000006"><a xlink:title=" ">
<path fill="none" stroke="#63b8ff" d="M509.91,-351.75C509.91,-344.8 509.91,-334.85 509.91,-326.13"/>
<polygon fill="#63b8ff" stroke="#63b8ff" points="513.41,-326.09 509.91,-316.09 506.41,-326.09 513.41,-326.09"/>
</a>
</g>
</g>
<!-- Node6&#45;&gt;Node5 -->
<g id="edge7_Node000006_Node000005" class="edge">
<title>Node6&#45;&gt;Node5</title>
<g id="a_edge7_Node000006_Node000005"><a xlink:title=" ">
<path fill="none" stroke="#63b8ff" d="M507.56,-296.96C498.05,-262.41 462.34,-132.54 448.99,-83.97"/>
<polygon fill="#63b8ff" stroke="#63b8ff" points="452.32,-82.9 446.29,-74.19 445.57,-84.76 452.32,-82.9"/>
</a>
</g>
</g>
<!-- Node7 -->
<g id="Node000007" class="node">
<title>Node7</title>
<g id="a_Node000007"><a xlink:title=" ">
<polygon fill="#e0e0e0" stroke="#999999" points="551.41,-74 492.41,-74 492.41,-55 551.41,-55 551.41,-74"/>
<text text-anchor="middle" x="521.91" y="-62" font-family="Helvetica,sans-Serif" font-size="10.00">gio/gio.h</text>
</a>
</g>
</g>
<!-- Node6&#45;&gt;Node7 -->
<g id="edge6_Node000006_Node000007" class="edge">
<title>Node6&#45;&gt;Node7</title>
<g id="a_edge6_Node000006_Node000007"><a xlink:title=" ">
<path fill="none" stroke="#63b8ff" d="M512.99,-296.77C515.96,-287.9 520.22,-273.69 521.91,-261 530.43,-196.61 526.21,-119.24 523.54,-84.28"/>
<polygon fill="#63b8ff" stroke="#63b8ff" points="527.01,-83.81 522.71,-74.13 520.03,-84.38 527.01,-83.81"/>
</a>
</g>
</g>
<!-- Node6&#45;&gt;Node8 -->
<g id="edge8_Node000006_Node000008" class="edge">
<title>Node6&#45;&gt;Node8</title>
<g id="a_edge8_Node000006_Node000008"><a xlink:title=" ">
<path fill="none" stroke="#63b8ff" d="M529.02,-296.98C548.25,-288.42 578.14,-275.11 600.21,-265.28"/>
<polygon fill="#63b8ff" stroke="#63b8ff" points="601.73,-268.44 609.44,-261.17 598.88,-262.04 601.73,-268.44"/>
</a>
</g>
</g>
<!-- Node14 -->
<g id="Node000014" class="node">
<title>Node14</title>
<g id="a_Node000014"><a xlink:href="pluma-panel_8h.html" target="_top" xlink:title=" ">
<polygon fill="white" stroke="#666666" points="479.41,-261 358.41,-261 358.41,-242 479.41,-242 479.41,-261"/>
<text text-anchor="middle" x="418.91" y="-249" font-family="Helvetica,sans-Serif" font-size="10.00">pluma/pluma&#45;panel.h</text>
</a>
</g>
</g>
<!-- Node6&#45;&gt;Node14 -->
<g id="edge21_Node000006_Node000014" class="edge">
<title>Node6&#45;&gt;Node14</title>
<g id="a_edge21_Node000006_Node000014"><a xlink:title=" ">
<path fill="none" stroke="#63b8ff" d="M495.28,-296.98C481.04,-288.69 459.15,-275.94 442.45,-266.22"/>
<polygon fill="#63b8ff" stroke="#63b8ff" points="444.19,-263.18 433.79,-261.17 440.67,-269.23 444.19,-263.18"/>
</a>
</g>
</g>
<!-- Node15 -->
<g id="Node000015" class="node">
<title>Node15</title>
<g id="a_Node000015"><a xlink:href="pluma-message-bus_8h.html" target="_top" xlink:title=" ">
<polygon fill="white" stroke="#666666" points="225.41,-206 96.41,-206 96.41,-176 225.41,-176 225.41,-206"/>
<text text-anchor="start" x="104.41" y="-194" font-family="Helvetica,sans-Serif" font-size="10.00">pluma/pluma&#45;message</text>
<text text-anchor="middle" x="160.91" y="-183" font-family="Helvetica,sans-Serif" font-size="10.00">&#45;bus.h</text>
</a>
</g>
</g>
<!-- Node6&#45;&gt;Node15 -->
<g id="edge23_Node000006_Node000015" class="edge">
<title>Node6&#45;&gt;Node15</title>
<g id="a_edge23_Node000006_Node000015"><a xlink:title=" ">
<path fill="none" stroke="#63b8ff" d="M475.74,-296.93C442.99,-288.5 392.25,-274.92 348.91,-261 299.68,-245.19 244.2,-224.47 206.35,-209.87"/>
<polygon fill="#63b8ff" stroke="#63b8ff" points="207.23,-206.46 196.64,-206.11 204.7,-212.99 207.23,-206.46"/>
</a>
</g>
</g>
<!-- Node8&#45;&gt;Node5 -->
<g id="edge9_Node000008_Node000005" class="edge">
<title>Node8&#45;&gt;Node5</title>
<g id="a_edge9_Node000008_Node000005"><a xlink:title=" ">
<path fill="none" stroke="#63b8ff" d="M614.42,-241.91C600.92,-233.57 580.58,-220.14 564.91,-206 520.44,-165.91 476.72,-109.92 456.13,-82.29"/>
<polygon fill="#63b8ff" stroke="#63b8ff" points="458.82,-80.04 450.07,-74.07 453.19,-84.19 458.82,-80.04"/>
</a>
</g>
</g>
<!-- Node9 -->
<g id="Node000009" class="node">
<title>Node9</title>
<g id="a_Node000009"><a xlink:href="pluma-view_8h.html" target="_top" xlink:title=" ">
<polygon fill="white" stroke="#666666" points="689.91,-200.5 573.91,-200.5 573.91,-181.5 689.91,-181.5 689.91,-200.5"/>
<text text-anchor="middle" x="631.91" y="-188.5" font-family="Helvetica,sans-Serif" font-size="10.00">pluma/pluma&#45;view.h</text>
</a>
</g>
</g>
<!-- Node8&#45;&gt;Node9 -->
<g id="edge10_Node000008_Node000009" class="edge">
<title>Node8&#45;&gt;Node9</title>
<g id="a_edge10_Node000008_Node000009"><a xlink:title=" ">
<path fill="none" stroke="#63b8ff" d="M629.35,-241.87C629.76,-233.75 630.4,-221.31 630.94,-210.89"/>
<polygon fill="#63b8ff" stroke="#63b8ff" points="634.44,-210.83 631.46,-200.67 627.45,-210.47 634.44,-210.83"/>
</a>
</g>
</g>
<!-- Node8&#45;&gt;Node10 -->
<g id="edge20_Node000008_Node000010" class="edge">
<title>Node8&#45;&gt;Node10</title>
<g id="a_edge20_Node000008_Node000010"><a xlink:title=" ">
<path fill="none" stroke="#63b8ff" d="M653.71,-241.95C669.74,-234.99 689.34,-223.42 698.91,-206 710.98,-184.02 691.74,-158.11 675.74,-141.87"/>
<polygon fill="#63b8ff" stroke="#63b8ff" points="677.94,-139.12 668.3,-134.73 673.09,-144.18 677.94,-139.12"/>
</a>
</g>
</g>
<!-- Node9&#45;&gt;Node5 -->
<g id="edge11_Node000009_Node000005" class="edge">
<title>Node9&#45;&gt;Node5</title>
<g id="a_edge11_Node000009_Node000005"><a xlink:title=" ">
<path fill="none" stroke="#63b8ff" d="M618.98,-181.44C587.19,-160.39 504.89,-105.88 465.51,-79.81"/>
<polygon fill="#63b8ff" stroke="#63b8ff" points="467.19,-76.72 456.92,-74.12 463.32,-82.56 467.19,-76.72"/>
</a>
</g>
</g>
<!-- Node9&#45;&gt;Node10 -->
<g id="edge12_Node000009_Node000010" class="edge">
<title>Node9&#45;&gt;Node10</title>
<g id="a_edge12_Node000009_Node000010"><a xlink:title=" ">
<path fill="none" stroke="#63b8ff" d="M635.41,-181.37C639.23,-171.97 645.45,-156.67 650.38,-144.53"/>
<polygon fill="#63b8ff" stroke="#63b8ff" points="653.77,-145.49 654.29,-134.91 647.28,-142.85 653.77,-145.49"/>
</a>
</g>
</g>
<!-- Node11 -->
<g id="Node000011" class="node">
<title>Node11</title>
<g id="a_Node000011"><a xlink:title=" ">
<polygon fill="#e0e0e0" stroke="#999999" points="878.91,-74 730.91,-74 730.91,-55 878.91,-55 878.91,-74"/>
<text text-anchor="middle" x="804.91" y="-62" font-family="Helvetica,sans-Serif" font-size="10.00">gtksourceview/gtksource.h</text>
</a>
</g>
</g>
<!-- Node9&#45;&gt;Node11 -->
<g id="edge19_Node000009_Node000011" class="edge">
<title>Node9&#45;&gt;Node11</title>
<g id="a_edge19_Node000009_Node000011"><a xlink:title=" ">
<path fill="none" stroke="#63b8ff" d="M657,-181.42C679.51,-173 712.76,-158.7 737.91,-140 760.04,-123.53 780.47,-98.87 792.81,-82.49"/>
<polygon fill="#63b8ff" stroke="#63b8ff" points="795.69,-84.48 798.79,-74.35 790.05,-80.33 795.69,-84.48"/>
</a>
</g>
</g>
<!-- Node10&#45;&gt;Node5 -->
<g id="edge14_Node000010_Node000005" class="edge">
<title>Node10&#45;&gt;Node5</title>
<g id="a_edge14_Node000010_Node000005"><a xlink:title=" ">
<path fill="none" stroke="#63b8ff" d="M626.79,-115.49C588.98,-105.16 525.14,-87.71 483.77,-76.4"/>
<polygon fill="#63b8ff" stroke="#63b8ff" points="484.59,-72.99 474.02,-73.73 482.75,-79.75 484.59,-72.99"/>
</a>
</g>
</g>
<!-- Node10&#45;&gt;Node7 -->
<g id="edge13_Node000010_Node000007" class="edge">
<title>Node10&#45;&gt;Node7</title>
<g id="a_edge13_Node000010_Node000007"><a xlink:title=" ">
<path fill="none" stroke="#63b8ff" d="M638.13,-115.49C615.27,-105.66 577.42,-89.38 551.15,-78.08"/>
<polygon fill="#63b8ff" stroke="#63b8ff" points="552.27,-74.75 541.7,-74.02 549.51,-81.18 552.27,-74.75"/>
</a>
</g>
</g>
<!-- Node10&#45;&gt;Node11 -->
<g id="edge15_Node000010_Node000011" class="edge">
<title>Node10&#45;&gt;Node11</title>
<g id="a_edge15_Node000010_Node000011"><a xlink:title=" ">
<path fill="none" stroke="#63b8ff" d="M679.28,-115.49C704.21,-105.57 745.63,-89.09 774.04,-77.78"/>
<polygon fill="#63b8ff" stroke="#63b8ff" points="775.51,-80.97 783.5,-74.02 772.92,-74.46 775.51,-80.97"/>
</a>
</g>
</g>
<!-- Node12 -->
<g id="Node000012" class="node">
<title>Node12</title>
<g id="a_Node000012"><a xlink:href="pluma-encodings_8h.html" target="_top" xlink:title=" ">
<polygon fill="white" stroke="#666666" points="712.41,-74 569.41,-74 569.41,-55 712.41,-55 712.41,-74"/>
<text text-anchor="middle" x="640.91" y="-62" font-family="Helvetica,sans-Serif" font-size="10.00">pluma/pluma&#45;encodings.h</text>
</a>
</g>
</g>
<!-- Node10&#45;&gt;Node12 -->
<g id="edge16_Node000010_Node000012" class="edge">
<title>Node10&#45;&gt;Node12</title>
<g id="a_edge16_Node000010_Node000012"><a xlink:title=" ">
<path fill="none" stroke="#63b8ff" d="M655.4,-115.37C653.01,-107.16 649.34,-94.54 646.3,-84.05"/>
<polygon fill="#63b8ff" stroke="#63b8ff" points="649.58,-82.79 643.42,-74.17 642.85,-84.75 649.58,-82.79"/>
</a>
</g>
</g>
<!-- Node12&#45;&gt;Node3 -->
<g id="edge18_Node000012_Node000003" class="edge">
<title>Node12&#45;&gt;Node3</title>
<g id="a_edge18_Node000012_Node000003"><a xlink:title=" ">
<path fill="none" stroke="#63b8ff" d="M572.62,-54.98C486.45,-44.24 340.38,-26.02 264.67,-16.58"/>
<polygon fill="#63b8ff" stroke="#63b8ff" points="264.82,-13.07 254.47,-15.31 263.96,-20.02 264.82,-13.07"/>
</a>
</g>
</g>
<!-- Node13 -->
<g id="Node000013" class="node">
<title>Node13</title>
<g id="a_Node000013"><a xlink:title=" ">
<polygon fill="#e0e0e0" stroke="#999999" points="795.91,-19 751.91,-19 751.91,0 795.91,0 795.91,-19"/>
<text text-anchor="middle" x="773.91" y="-7" font-family="Helvetica,sans-Serif" font-size="10.00">glib.h</text>
</a>
</g>
</g>
<!-- Node12&#45;&gt;Node13 -->
<g id="edge17_Node000012_Node000013" class="edge">
<title>Node12&#45;&gt;Node13</title>
<g id="a_edge17_Node000012_Node000013"><a xlink:title=" ">
<path fill="none" stroke="#63b8ff" d="M662.27,-54.98C684.05,-46.3 718.07,-32.75 742.83,-22.88"/>
<polygon fill="#63b8ff" stroke="#63b8ff" points="744.15,-26.12 752.15,-19.17 741.56,-19.62 744.15,-26.12"/>
</a>
</g>
</g>
<!-- Node14&#45;&gt;Node5 -->
<g id="edge22_Node000014_Node000005" class="edge">
<title>Node14&#45;&gt;Node5</title>
<g id="a_edge22_Node000014_Node000005"><a xlink:title=" ">
<path fill="none" stroke="#63b8ff" d="M418.9,-241.86C419.05,-219.72 420.36,-159.24 429.91,-110 431.6,-101.25 434.42,-91.81 437.09,-83.88"/>
<polygon fill="#63b8ff" stroke="#63b8ff" points="440.48,-84.81 440.52,-74.21 433.88,-82.47 440.48,-84.81"/>
</a>
</g>
</g>
<!-- Node15&#45;&gt;Node3 -->
<g id="edge24_Node000015_Node000003" class="edge">
<title>Node15&#45;&gt;Node3</title>
<g id="a_edge24_Node000015_Node000003"><a xlink:title=" ">
<path fill="none" stroke="#63b8ff" d="M165.22,-175.91C175.09,-143.71 199.3,-64.7 210.3,-28.8"/>
<polygon fill="#63b8ff" stroke="#63b8ff" points="213.68,-29.72 213.26,-19.13 206.98,-27.67 213.68,-29.72"/>
</a>
</g>
</g>
<!-- Node16 -->
<g id="Node000016" class="node">
<title>Node16</title>
<g id="a_Node000016"><a xlink:href="pluma-message_8h.html" target="_top" xlink:title=" ">
<polygon fill="white" stroke="#666666" points="149.91,-74 11.91,-74 11.91,-55 149.91,-55 149.91,-74"/>
<text text-anchor="middle" x="80.91" y="-62" font-family="Helvetica,sans-Serif" font-size="10.00">pluma/pluma&#45;message.h</text>
</a>
</g>
</g>
<!-- Node15&#45;&gt;Node16 -->
<g id="edge25_Node000015_Node000016" class="edge">
<title>Node15&#45;&gt;Node16</title>
<g id="a_edge25_Node000015_Node000016"><a xlink:title=" ">
<path fill="none" stroke="#63b8ff" d="M161.64,-175.79C161.84,-158.79 159.95,-130.11 146.91,-110 138.19,-96.57 123.84,-86.18 110.75,-78.83"/>
<polygon fill="#63b8ff" stroke="#63b8ff" points="112.02,-75.54 101.53,-74.01 108.77,-81.74 112.02,-75.54"/>
</a>
</g>
</g>
<!-- Node18 -->
<g id="Node000018" class="node">
<title>Node18</title>
<g id="a_Node000018"><a xlink:href="pluma-message-type_8h.html" target="_top" xlink:title=" ">
<polygon fill="white" stroke="#666666" points="138.41,-140 9.41,-140 9.41,-110 138.41,-110 138.41,-140"/>
<text text-anchor="start" x="17.41" y="-128" font-family="Helvetica,sans-Serif" font-size="10.00">pluma/pluma&#45;message</text>
<text text-anchor="middle" x="73.91" y="-117" font-family="Helvetica,sans-Serif" font-size="10.00">&#45;type.h</text>
</a>
</g>
</g>
<!-- Node15&#45;&gt;Node18 -->
<g id="edge28_Node000015_Node000018" class="edge">
<title>Node15&#45;&gt;Node18</title>
<g id="a_edge28_Node000015_Node000018"><a xlink:title=" ">
<path fill="none" stroke="#63b8ff" d="M141.6,-175.8C129.77,-167.1 114.45,-155.82 101.37,-146.2"/>
<polygon fill="#63b8ff" stroke="#63b8ff" points="103.29,-143.27 93.16,-140.16 99.14,-148.91 103.29,-143.27"/>
</a>
</g>
</g>
<!-- Node16&#45;&gt;Node3 -->
<g id="edge26_Node000016_Node000003" class="edge">
<title>Node16&#45;&gt;Node3</title>
<g id="a_edge26_Node000016_Node000003"><a xlink:title=" ">
<path fill="none" stroke="#63b8ff" d="M102.6,-54.98C124.7,-46.3 159.23,-32.75 184.36,-22.88"/>
<polygon fill="#63b8ff" stroke="#63b8ff" points="185.79,-26.08 193.82,-19.17 183.23,-19.57 185.79,-26.08"/>
</a>
</g>
</g>
<!-- Node17 -->
<g id="Node000017" class="node">
<title>Node17</title>
<g id="a_Node000017"><a xlink:title=" ">
<polygon fill="#e0e0e0" stroke="#999999" points="60.91,-19 4.91,-19 4.91,0 60.91,0 60.91,-19"/>
<text text-anchor="middle" x="32.91" y="-7" font-family="Helvetica,sans-Serif" font-size="10.00">stdarg.h</text>
</a>
</g>
</g>
<!-- Node16&#45;&gt;Node17 -->
<g id="edge27_Node000016_Node000017" class="edge">
<title>Node16&#45;&gt;Node17</title>
<g id="a_edge27_Node000016_Node000017"><a xlink:title=" ">
<path fill="none" stroke="#63b8ff" d="M72.98,-54.75C66.06,-47.11 55.84,-35.82 47.45,-26.56"/>
<polygon fill="#63b8ff" stroke="#63b8ff" points="49.99,-24.15 40.68,-19.09 44.8,-28.85 49.99,-24.15"/>
</a>
</g>
</g>
<!-- Node18&#45;&gt;Node3 -->
<g id="edge29_Node000018_Node000003" class="edge">
<title>Node18&#45;&gt;Node3</title>
<g id="a_edge29_Node000018_Node000003"><a xlink:title=" ">
<path fill="none" stroke="#63b8ff" d="M102.89,-109.83C120.03,-100.76 141.68,-88.09 158.91,-74 176.03,-60 192.56,-40.73 203.38,-27.1"/>
<polygon fill="#63b8ff" stroke="#63b8ff" points="206.24,-29.12 209.6,-19.07 200.71,-24.83 206.24,-29.12"/>
</a>
</g>
</g>
<!-- Node18&#45;&gt;Node16 -->
<g id="edge31_Node000018_Node000016" class="edge">
<title>Node18&#45;&gt;Node16</title>
<g id="a_edge31_Node000018_Node000016"><a xlink:title=" ">
<path fill="none" stroke="#63b8ff" d="M75.6,-109.84C76.51,-102.21 77.65,-92.7 78.64,-84.45"/>
<polygon fill="#63b8ff" stroke="#63b8ff" points="82.14,-84.61 79.86,-74.27 75.19,-83.78 82.14,-84.61"/>
</a>
</g>
</g>
<!-- Node18&#45;&gt;Node17 -->
<g id="edge30_Node000018_Node000017" class="edge">
<title>Node18&#45;&gt;Node17</title>
<g id="a_edge30_Node000018_Node000017"><a xlink:title=" ">
<path fill="none" stroke="#63b8ff" d="M41.4,-109.84C26.82,-101.65 11.1,-89.79 2.91,-74 -5.29,-58.2 5.62,-39.76 16.51,-26.84"/>
<polygon fill="#63b8ff" stroke="#63b8ff" points="19.3,-28.97 23.46,-19.23 14.14,-24.25 19.3,-28.97"/>
</a>
</g>
</g>
<!-- Node19&#45;&gt;Node13 -->
<g id="edge33_Node000019_Node000013" class="edge">
<title>Node19&#45;&gt;Node13</title>
<g id="a_edge33_Node000019_Node000013"><a xlink:title=" ">
<path fill="none" stroke="#63b8ff" d="M873.33,-351.92C884.04,-334.12 906.91,-291.57 906.91,-252.5 906.91,-252.5 906.91,-252.5 906.91,-124 906.91,-92.19 909.2,-78.62 887.91,-55 866.77,-31.56 831.79,-20.34 806.13,-15.05"/>
<polygon fill="#63b8ff" stroke="#63b8ff" points="806.6,-11.58 796.12,-13.19 805.31,-18.46 806.6,-11.58"/>
</a>
</g>
</g>
</g>
</svg>
