<?xml version="1.0" encoding="UTF-8" standalone="no"?>
<!DOCTYPE svg PUBLIC "-//W3C//DTD SVG 1.1//EN"
 "http://www.w3.org/Graphics/SVG/1.1/DTD/svg11.dtd">
<!-- Generated by graphviz version 2.43.0 (0)
 -->
<!-- Title: pluma&#45;file&#45;chooser&#45;dialog.c Pages: 1 -->
<svg width="1545pt" height="500pt"
 viewBox="0.00 0.00 1544.55 500.00" xmlns="http://www.w3.org/2000/svg" xmlns:xlink="http://www.w3.org/1999/xlink">
<g id="graph0" class="graph" transform="scale(1 1) rotate(0) translate(4 496)">
<title>pluma&#45;file&#45;chooser&#45;dialog.c</title>
<!-- Node1 -->
<g id="Node000001" class="node">
<title>Node1</title>
<g id="a_Node000001"><a xlink:title=" ">
<polygon fill="#999999" stroke="#666666" points="417.5,-492 309.5,-492 309.5,-462 417.5,-462 417.5,-492"/>
<text text-anchor="start" x="317.5" y="-480" font-family="Helvetica,sans-Serif" font-size="10.00">pluma&#45;file&#45;chooser</text>
<text text-anchor="middle" x="363.5" y="-469" font-family="Helvetica,sans-Serif" font-size="10.00">&#45;dialog.c</text>
</a>
</g>
</g>
<!-- Node2 -->
<g id="Node000002" class="node">
<title>Node2</title>
<g id="a_Node000002"><a xlink:title=" ">
<polygon fill="#e0e0e0" stroke="#999999" points="53,-426 0,-426 0,-407 53,-407 53,-426"/>
<text text-anchor="middle" x="26.5" y="-414" font-family="Helvetica,sans-Serif" font-size="10.00">string.h</text>
</a>
</g>
</g>
<!-- Node1&#45;&gt;Node2 -->
<g id="edge1_Node000001_Node000002" class="edge">
<title>Node1&#45;&gt;Node2</title>
<g id="a_edge1_Node000001_Node000002"><a xlink:title=" ">
<path fill="none" stroke="#63b8ff" d="M309.47,-468.15C251.2,-459.42 155.48,-444.37 63.26,-426.03"/>
<polygon fill="#63b8ff" stroke="#63b8ff" points="63.69,-422.55 53.19,-424.01 62.31,-429.41 63.69,-422.55"/>
</a>
</g>
</g>
<!-- Node3 -->
<g id="Node000003" class="node">
<title>Node3</title>
<g id="a_Node000003"><a xlink:title=" ">
<polygon fill="#e0e0e0" stroke="#999999" points="145.5,-426 71.5,-426 71.5,-407 145.5,-407 145.5,-426"/>
<text text-anchor="middle" x="108.5" y="-414" font-family="Helvetica,sans-Serif" font-size="10.00">glib/gi18n.h</text>
</a>
</g>
</g>
<!-- Node1&#45;&gt;Node3 -->
<g id="edge2_Node000001_Node000003" class="edge">
<title>Node1&#45;&gt;Node3</title>
<g id="a_edge2_Node000001_Node000003"><a xlink:title=" ">
<path fill="none" stroke="#63b8ff" d="M309.42,-463.59C263.71,-453.11 198.91,-438.24 155.37,-428.25"/>
<polygon fill="#63b8ff" stroke="#63b8ff" points="156.13,-424.84 145.6,-426.01 154.57,-431.66 156.13,-424.84"/>
</a>
</g>
</g>
<!-- Node4 -->
<g id="Node000004" class="node">
<title>Node4</title>
<g id="a_Node000004"><a xlink:title=" ">
<polygon fill="#e0e0e0" stroke="#999999" points="699.5,-74 639.5,-74 639.5,-55 699.5,-55 699.5,-74"/>
<text text-anchor="middle" x="669.5" y="-62" font-family="Helvetica,sans-Serif" font-size="10.00">gtk/gtk.h</text>
</a>
</g>
</g>
<!-- Node1&#45;&gt;Node4 -->
<g id="edge3_Node000001_Node000004" class="edge">
<title>Node1&#45;&gt;Node4</title>
<g id="a_edge3_Node000001_Node000004"><a xlink:title=" ">
<path fill="none" stroke="#63b8ff" d="M417.76,-472.62C578.41,-461.88 1040.5,-425.51 1040.5,-362.5 1040.5,-362.5 1040.5,-362.5 1040.5,-190 1040.5,-127.37 982.47,-133.71 924.5,-110 852.51,-80.55 761.31,-70.58 709.77,-67.21"/>
<polygon fill="#63b8ff" stroke="#63b8ff" points="709.9,-63.72 699.71,-66.61 709.48,-70.7 709.9,-63.72"/>
</a>
</g>
</g>
<!-- Node5 -->
<g id="Node000005" class="node">
<title>Node5</title>
<g id="a_Node000005"><a xlink:title=" ">
<polygon fill="#e0e0e0" stroke="#999999" points="1076.5,-74 928.5,-74 928.5,-55 1076.5,-55 1076.5,-74"/>
<text text-anchor="middle" x="1002.5" y="-62" font-family="Helvetica,sans-Serif" font-size="10.00">gtksourceview/gtksource.h</text>
</a>
</g>
</g>
<!-- Node1&#45;&gt;Node5 -->
<g id="edge4_Node000001_Node000005" class="edge">
<title>Node1&#45;&gt;Node5</title>
<g id="a_edge4_Node000001_Node000005"><a xlink:title=" ">
<path fill="none" stroke="#63b8ff" d="M417.6,-476.87C519.57,-477.29 746.51,-472.32 930.5,-426 999.91,-408.53 1078.5,-434.08 1078.5,-362.5 1078.5,-362.5 1078.5,-362.5 1078.5,-190 1078.5,-145.34 1042.44,-103.13 1020,-81.19"/>
<polygon fill="#63b8ff" stroke="#63b8ff" points="1022.11,-78.37 1012.44,-74.05 1017.31,-83.46 1022.11,-78.37"/>
</a>
</g>
</g>
<!-- Node6 -->
<g id="Node000006" class="node">
<title>Node6</title>
<g id="a_Node000006"><a xlink:href="pluma-file-chooser-dialog_8h.html" target="_top" xlink:title=" ">
<polygon fill="white" stroke="#666666" points="434.5,-206 326.5,-206 326.5,-176 434.5,-176 434.5,-206"/>
<text text-anchor="start" x="334.5" y="-194" font-family="Helvetica,sans-Serif" font-size="10.00">pluma&#45;file&#45;chooser</text>
<text text-anchor="middle" x="380.5" y="-183" font-family="Helvetica,sans-Serif" font-size="10.00">&#45;dialog.h</text>
</a>
</g>
</g>
<!-- Node1&#45;&gt;Node6 -->
<g id="edge5_Node000001_Node000006" class="edge">
<title>Node1&#45;&gt;Node6</title>
<g id="a_edge5_Node000001_Node000006"><a xlink:title=" ">
<path fill="none" stroke="#63b8ff" d="M363.5,-461.67C363.5,-440.14 363.5,-398.17 363.5,-362.5 363.5,-362.5 363.5,-362.5 363.5,-305.5 363.5,-274.37 369.83,-238.95 374.77,-216.09"/>
<polygon fill="#63b8ff" stroke="#63b8ff" points="378.21,-216.75 376.98,-206.23 371.38,-215.22 378.21,-216.75"/>
</a>
</g>
</g>
<!-- Node10 -->
<g id="Node000010" class="node">
<title>Node10</title>
<g id="a_Node000010"><a xlink:href="pluma-enum-types_8h.html" target="_top" xlink:title=" ">
<polygon fill="white" stroke="#666666" points="352.5,-134.5 200.5,-134.5 200.5,-115.5 352.5,-115.5 352.5,-134.5"/>
<text text-anchor="middle" x="276.5" y="-122.5" font-family="Helvetica,sans-Serif" font-size="10.00">pluma/pluma&#45;enum&#45;types.h</text>
</a>
</g>
</g>
<!-- Node1&#45;&gt;Node10 -->
<g id="edge25_Node000001_Node000010" class="edge">
<title>Node1&#45;&gt;Node10</title>
<g id="a_edge25_Node000001_Node000010"><a xlink:title=" ">
<path fill="none" stroke="#63b8ff" d="M345.87,-461.9C323.42,-442.23 287.5,-404.24 287.5,-362.5 287.5,-362.5 287.5,-362.5 287.5,-250.5 287.5,-212.85 282.45,-169.04 279.19,-144.72"/>
<polygon fill="#63b8ff" stroke="#63b8ff" points="282.65,-144.16 277.81,-134.73 275.71,-145.12 282.65,-144.16"/>
</a>
</g>
</g>
<!-- Node13 -->
<g id="Node000013" class="node">
<title>Node13</title>
<g id="a_Node000013"><a xlink:href="pluma-encodings-combo-box_8h.html" target="_top" xlink:title=" ">
<polygon fill="white" stroke="#666666" points="546,-140 409,-140 409,-110 546,-110 546,-140"/>
<text text-anchor="start" x="417" y="-128" font-family="Helvetica,sans-Serif" font-size="10.00">pluma&#45;encodings&#45;combo</text>
<text text-anchor="middle" x="477.5" y="-117" font-family="Helvetica,sans-Serif" font-size="10.00">&#45;box.h</text>
</a>
</g>
</g>
<!-- Node1&#45;&gt;Node13 -->
<g id="edge17_Node000001_Node000013" class="edge">
<title>Node1&#45;&gt;Node13</title>
<g id="a_edge17_Node000001_Node000013"><a xlink:title=" ">
<path fill="none" stroke="#63b8ff" d="M391.07,-461.86C422.48,-443.55 469.5,-408.47 469.5,-362.5 469.5,-362.5 469.5,-362.5 469.5,-250.5 469.5,-215.6 472.67,-175.3 475.02,-150.23"/>
<polygon fill="#63b8ff" stroke="#63b8ff" points="478.51,-150.46 476,-140.17 471.55,-149.79 478.51,-150.46"/>
</a>
</g>
</g>
<!-- Node14 -->
<g id="Node000014" class="node">
<title>Node14</title>
<g id="a_Node000014"><a xlink:href="pluma-language-manager_8h.html" target="_top" xlink:title=" ">
<polygon fill="white" stroke="#666666" points="1296.5,-134.5 1144.5,-134.5 1144.5,-115.5 1296.5,-115.5 1296.5,-134.5"/>
<text text-anchor="middle" x="1220.5" y="-122.5" font-family="Helvetica,sans-Serif" font-size="10.00">pluma&#45;language&#45;manager.h</text>
</a>
</g>
</g>
<!-- Node1&#45;&gt;Node14 -->
<g id="edge20_Node000001_Node000014" class="edge">
<title>Node1&#45;&gt;Node14</title>
<g id="a_edge20_Node000001_Node000014"><a xlink:title=" ">
<path fill="none" stroke="#63b8ff" d="M417.61,-475.88C564.42,-474.99 967.64,-468.61 1092.5,-426 1140.56,-409.6 1187.5,-413.29 1187.5,-362.5 1187.5,-362.5 1187.5,-362.5 1187.5,-250.5 1187.5,-211.52 1202.8,-167.91 1212.56,-144.04"/>
<polygon fill="#63b8ff" stroke="#63b8ff" points="1215.91,-145.12 1216.58,-134.55 1209.46,-142.39 1215.91,-145.12"/>
</a>
</g>
</g>
<!-- Node15 -->
<g id="Node000015" class="node">
<title>Node15</title>
<g id="a_Node000015"><a xlink:href="pluma-debug_8h.html" target="_top" xlink:title=" ">
<polygon fill="white" stroke="#666666" points="126.5,-371 36.5,-371 36.5,-352 126.5,-352 126.5,-371"/>
<text text-anchor="middle" x="81.5" y="-359" font-family="Helvetica,sans-Serif" font-size="10.00">pluma&#45;debug.h</text>
</a>
</g>
</g>
<!-- Node1&#45;&gt;Node15 -->
<g id="edge23_Node000001_Node000015" class="edge">
<title>Node1&#45;&gt;Node15</title>
<g id="a_edge23_Node000001_Node000015"><a xlink:title=" ">
<path fill="none" stroke="#63b8ff" d="M309.43,-462.78C276.48,-453.97 233.87,-441.23 197.5,-426 163.44,-411.73 126.39,-390.33 103.55,-376.38"/>
<polygon fill="#63b8ff" stroke="#63b8ff" points="105.31,-373.36 94.96,-371.09 101.64,-379.32 105.31,-373.36"/>
</a>
</g>
</g>
<!-- Node16 -->
<g id="Node000016" class="node">
<title>Node16</title>
<g id="a_Node000016"><a xlink:href="pluma-utils_8h.html" target="_top" xlink:title=" ">
<polygon fill="white" stroke="#666666" points="182,-134.5 101,-134.5 101,-115.5 182,-115.5 182,-134.5"/>
<text text-anchor="middle" x="141.5" y="-122.5" font-family="Helvetica,sans-Serif" font-size="10.00">pluma&#45;utils.h</text>
</a>
</g>
</g>
<!-- Node1&#45;&gt;Node16 -->
<g id="edge26_Node000001_Node000016" class="edge">
<title>Node1&#45;&gt;Node16</title>
<g id="a_edge26_Node000001_Node000016"><a xlink:title=" ">
<path fill="none" stroke="#63b8ff" d="M314.15,-461.87C269.77,-445.77 211.5,-414.7 211.5,-362.5 211.5,-362.5 211.5,-362.5 211.5,-250.5 211.5,-206.77 178.28,-164.21 157.61,-141.96"/>
<polygon fill="#63b8ff" stroke="#63b8ff" points="160.1,-139.5 150.65,-134.72 155.06,-144.35 160.1,-139.5"/>
</a>
</g>
</g>
<!-- Node18 -->
<g id="Node000018" class="node">
<title>Node18</title>
<g id="a_Node000018"><a xlink:href="pluma-settings_8h.html" target="_top" xlink:title=" ">
<polygon fill="white" stroke="#666666" points="604,-426 505,-426 505,-407 604,-407 604,-426"/>
<text text-anchor="middle" x="554.5" y="-414" font-family="Helvetica,sans-Serif" font-size="10.00">pluma&#45;settings.h</text>
</a>
</g>
</g>
<!-- Node1&#45;&gt;Node18 -->
<g id="edge32_Node000001_Node000018" class="edge">
<title>Node1&#45;&gt;Node18</title>
<g id="a_edge32_Node000001_Node000018"><a xlink:title=" ">
<path fill="none" stroke="#63b8ff" d="M409.25,-461.99C442.07,-451.94 485.77,-438.55 516.63,-429.1"/>
<polygon fill="#63b8ff" stroke="#63b8ff" points="518.04,-432.33 526.57,-426.05 515.99,-425.64 518.04,-432.33"/>
</a>
</g>
</g>
<!-- Node6&#45;&gt;Node4 -->
<g id="edge6_Node000006_Node000004" class="edge">
<title>Node6&#45;&gt;Node4</title>
<g id="a_edge6_Node000006_Node000004"><a xlink:title=" ">
<path fill="none" stroke="#63b8ff" d="M434.62,-179.41C470.07,-171.31 516.83,-158.38 555.5,-140 576.55,-130 579.07,-122.86 598.5,-110 614.42,-99.46 632.68,-88.03 646.7,-79.4"/>
<polygon fill="#63b8ff" stroke="#63b8ff" points="648.53,-82.38 655.22,-74.16 644.87,-76.41 648.53,-82.38"/>
</a>
</g>
</g>
<!-- Node7 -->
<g id="Node000007" class="node">
<title>Node7</title>
<g id="a_Node000007"><a xlink:href="pluma-encodings_8h.html" target="_top" xlink:title=" ">
<polygon fill="white" stroke="#666666" points="524,-74 381,-74 381,-55 524,-55 524,-74"/>
<text text-anchor="middle" x="452.5" y="-62" font-family="Helvetica,sans-Serif" font-size="10.00">pluma/pluma&#45;encodings.h</text>
</a>
</g>
</g>
<!-- Node6&#45;&gt;Node7 -->
<g id="edge7_Node000006_Node000007" class="edge">
<title>Node6&#45;&gt;Node7</title>
<g id="a_edge7_Node000006_Node000007"><a xlink:title=" ">
<path fill="none" stroke="#63b8ff" d="M381.42,-175.99C383.08,-159.18 387.7,-130.7 400.5,-110 407.83,-98.16 419.34,-87.83 429.67,-80.12"/>
<polygon fill="#63b8ff" stroke="#63b8ff" points="431.81,-82.9 437.96,-74.27 427.77,-77.18 431.81,-82.9"/>
</a>
</g>
</g>
<!-- Node6&#45;&gt;Node10 -->
<g id="edge10_Node000006_Node000010" class="edge">
<title>Node6&#45;&gt;Node10</title>
<g id="a_edge10_Node000006_Node000010"><a xlink:title=" ">
<path fill="none" stroke="#63b8ff" d="M357.68,-175.95C340.32,-165.27 316.56,-150.65 299.23,-139.98"/>
<polygon fill="#63b8ff" stroke="#63b8ff" points="300.69,-136.78 290.34,-134.52 297.02,-142.74 300.69,-136.78"/>
</a>
</g>
</g>
<!-- Node11 -->
<g id="Node000011" class="node">
<title>Node11</title>
<g id="a_Node000011"><a xlink:href="pluma-document_8h.html" target="_top" xlink:title=" ">
<polygon fill="white" stroke="#666666" points="898,-134.5 755,-134.5 755,-115.5 898,-115.5 898,-134.5"/>
<text text-anchor="middle" x="826.5" y="-122.5" font-family="Helvetica,sans-Serif" font-size="10.00">pluma/pluma&#45;document.h</text>
</a>
</g>
</g>
<!-- Node6&#45;&gt;Node11 -->
<g id="edge12_Node000006_Node000011" class="edge">
<title>Node6&#45;&gt;Node11</title>
<g id="a_edge12_Node000006_Node000011"><a xlink:title=" ">
<path fill="none" stroke="#63b8ff" d="M434.74,-182.22C515.66,-170.6 667.97,-148.75 756.97,-135.98"/>
<polygon fill="#63b8ff" stroke="#63b8ff" points="757.57,-139.43 766.97,-134.54 756.57,-132.5 757.57,-139.43"/>
</a>
</g>
</g>
<!-- Node8 -->
<g id="Node000008" class="node">
<title>Node8</title>
<g id="a_Node000008"><a xlink:title=" ">
<polygon fill="#e0e0e0" stroke="#999999" points="113.5,-19 69.5,-19 69.5,0 113.5,0 113.5,-19"/>
<text text-anchor="middle" x="91.5" y="-7" font-family="Helvetica,sans-Serif" font-size="10.00">glib.h</text>
</a>
</g>
</g>
<!-- Node7&#45;&gt;Node8 -->
<g id="edge8_Node000007_Node000008" class="edge">
<title>Node7&#45;&gt;Node8</title>
<g id="a_edge8_Node000007_Node000008"><a xlink:title=" ">
<path fill="none" stroke="#63b8ff" d="M394.5,-54.98C317.79,-43.72 185.18,-24.25 124.07,-15.28"/>
<polygon fill="#63b8ff" stroke="#63b8ff" points="124.26,-11.77 113.86,-13.78 123.25,-18.7 124.26,-11.77"/>
</a>
</g>
</g>
<!-- Node9 -->
<g id="Node000009" class="node">
<title>Node9</title>
<g id="a_Node000009"><a xlink:title=" ">
<polygon fill="#e0e0e0" stroke="#999999" points="1259,-19 1182,-19 1182,0 1259,0 1259,-19"/>
<text text-anchor="middle" x="1220.5" y="-7" font-family="Helvetica,sans-Serif" font-size="10.00">glib&#45;object.h</text>
</a>
</g>
</g>
<!-- Node7&#45;&gt;Node9 -->
<g id="edge9_Node000007_Node000009" class="edge">
<title>Node7&#45;&gt;Node9</title>
<g id="a_edge9_Node000007_Node000009"><a xlink:title=" ">
<path fill="none" stroke="#63b8ff" d="M524.06,-58.56C678.51,-47.9 1039.76,-22.97 1171.4,-13.89"/>
<polygon fill="#63b8ff" stroke="#63b8ff" points="1171.85,-17.37 1181.58,-13.19 1171.36,-10.38 1171.85,-17.37"/>
</a>
</g>
</g>
<!-- Node10&#45;&gt;Node9 -->
<g id="edge11_Node000010_Node000009" class="edge">
<title>Node10&#45;&gt;Node9</title>
<g id="a_edge11_Node000010_Node000009"><a xlink:title=" ">
<path fill="none" stroke="#63b8ff" d="M284.77,-115.43C300.28,-100.01 335.51,-67.99 372.5,-55 447.82,-28.54 1002.7,-15 1171.75,-11.46"/>
<polygon fill="#63b8ff" stroke="#63b8ff" points="1171.93,-14.96 1181.86,-11.25 1171.79,-7.96 1171.93,-14.96"/>
</a>
</g>
</g>
<!-- Node11&#45;&gt;Node4 -->
<g id="edge14_Node000011_Node000004" class="edge">
<title>Node11&#45;&gt;Node4</title>
<g id="a_edge14_Node000011_Node000004"><a xlink:title=" ">
<path fill="none" stroke="#63b8ff" d="M803.67,-115.49C776.93,-105.53 732.42,-88.95 702.06,-77.63"/>
<polygon fill="#63b8ff" stroke="#63b8ff" points="702.95,-74.23 692.36,-74.02 700.51,-80.79 702.95,-74.23"/>
</a>
</g>
</g>
<!-- Node11&#45;&gt;Node5 -->
<g id="edge15_Node000011_Node000005" class="edge">
<title>Node11&#45;&gt;Node5</title>
<g id="a_edge15_Node000011_Node000005"><a xlink:title=" ">
<path fill="none" stroke="#63b8ff" d="M852.09,-115.49C882.46,-105.4 933.26,-88.51 967.32,-77.19"/>
<polygon fill="#63b8ff" stroke="#63b8ff" points="968.49,-80.49 976.88,-74.02 966.28,-73.85 968.49,-80.49"/>
</a>
</g>
</g>
<!-- Node11&#45;&gt;Node7 -->
<g id="edge16_Node000011_Node000007" class="edge">
<title>Node11&#45;&gt;Node7</title>
<g id="a_edge16_Node000011_Node000007"><a xlink:title=" ">
<path fill="none" stroke="#63b8ff" d="M772.12,-115.49C704.53,-104.92 589.33,-86.9 517.26,-75.63"/>
<polygon fill="#63b8ff" stroke="#63b8ff" points="517.37,-72.1 506.95,-74.02 516.29,-79.02 517.37,-72.1"/>
</a>
</g>
</g>
<!-- Node12 -->
<g id="Node000012" class="node">
<title>Node12</title>
<g id="a_Node000012"><a xlink:title=" ">
<polygon fill="#e0e0e0" stroke="#999999" points="883,-74 824,-74 824,-55 883,-55 883,-74"/>
<text text-anchor="middle" x="853.5" y="-62" font-family="Helvetica,sans-Serif" font-size="10.00">gio/gio.h</text>
</a>
</g>
</g>
<!-- Node11&#45;&gt;Node12 -->
<g id="edge13_Node000011_Node000012" class="edge">
<title>Node11&#45;&gt;Node12</title>
<g id="a_edge13_Node000011_Node000012"><a xlink:title=" ">
<path fill="none" stroke="#63b8ff" d="M830.48,-115.37C834.35,-106.99 840.34,-94.01 845.24,-83.39"/>
<polygon fill="#63b8ff" stroke="#63b8ff" points="848.49,-84.71 849.5,-74.17 842.13,-81.78 848.49,-84.71"/>
</a>
</g>
</g>
<!-- Node13&#45;&gt;Node4 -->
<g id="edge18_Node000013_Node000004" class="edge">
<title>Node13&#45;&gt;Node4</title>
<g id="a_edge18_Node000013_Node000004"><a xlink:title=" ">
<path fill="none" stroke="#63b8ff" d="M523.49,-109.99C556.62,-99.89 600.79,-86.44 631.84,-76.98"/>
<polygon fill="#63b8ff" stroke="#63b8ff" points="632.88,-80.32 641.43,-74.05 630.84,-73.62 632.88,-80.32"/>
</a>
</g>
</g>
<!-- Node13&#45;&gt;Node7 -->
<g id="edge19_Node000013_Node000007" class="edge">
<title>Node13&#45;&gt;Node7</title>
<g id="a_edge19_Node000013_Node000007"><a xlink:title=" ">
<path fill="none" stroke="#63b8ff" d="M471.45,-109.84C468.08,-101.95 463.85,-92.05 460.24,-83.61"/>
<polygon fill="#63b8ff" stroke="#63b8ff" points="463.39,-82.09 456.25,-74.27 456.96,-84.84 463.39,-82.09"/>
</a>
</g>
</g>
<!-- Node14&#45;&gt;Node5 -->
<g id="edge22_Node000014_Node000005" class="edge">
<title>Node14&#45;&gt;Node5</title>
<g id="a_edge22_Node000014_Node000005"><a xlink:title=" ">
<path fill="none" stroke="#63b8ff" d="M1188.8,-115.49C1150.54,-105.23 1086.09,-87.93 1043.92,-76.62"/>
<polygon fill="#63b8ff" stroke="#63b8ff" points="1044.8,-73.23 1034.24,-74.02 1042.99,-79.99 1044.8,-73.23"/>
</a>
</g>
</g>
<!-- Node14&#45;&gt;Node9 -->
<g id="edge21_Node000014_Node000009" class="edge">
<title>Node14&#45;&gt;Node9</title>
<g id="a_edge21_Node000014_Node000009"><a xlink:title=" ">
<path fill="none" stroke="#63b8ff" d="M1220.5,-115.47C1220.5,-97.23 1220.5,-54.07 1220.5,-29.14"/>
<polygon fill="#63b8ff" stroke="#63b8ff" points="1224,-29.13 1220.5,-19.13 1217,-29.13 1224,-29.13"/>
</a>
</g>
</g>
<!-- Node15&#45;&gt;Node8 -->
<g id="edge24_Node000015_Node000008" class="edge">
<title>Node15&#45;&gt;Node8</title>
<g id="a_edge24_Node000015_Node000008"><a xlink:title=" ">
<path fill="none" stroke="#63b8ff" d="M74.77,-351.82C61.77,-334.17 34.5,-292.37 34.5,-252.5 34.5,-252.5 34.5,-252.5 34.5,-124 34.5,-86.18 60.08,-48.1 76.97,-27.07"/>
<polygon fill="#63b8ff" stroke="#63b8ff" points="79.85,-29.08 83.57,-19.16 74.48,-24.59 79.85,-29.08"/>
</a>
</g>
</g>
<!-- Node16&#45;&gt;Node4 -->
<g id="edge28_Node000016_Node000004" class="edge">
<title>Node16&#45;&gt;Node4</title>
<g id="a_edge28_Node000016_Node000004"><a xlink:title=" ">
<path fill="none" stroke="#63b8ff" d="M168.54,-115.47C175.92,-113.41 183.97,-111.39 191.5,-110 275.22,-94.51 529.76,-75.4 629.14,-68.32"/>
<polygon fill="#63b8ff" stroke="#63b8ff" points="629.64,-71.79 639.37,-67.59 629.15,-64.81 629.64,-71.79"/>
</a>
</g>
</g>
<!-- Node16&#45;&gt;Node5 -->
<g id="edge31_Node000016_Node000005" class="edge">
<title>Node16&#45;&gt;Node5</title>
<g id="a_edge31_Node000016_Node000005"><a xlink:title=" ">
<path fill="none" stroke="#63b8ff" d="M167.72,-115.48C175.32,-113.34 183.67,-111.28 191.5,-110 499.37,-59.63 581.18,-94.02 892.5,-74 900.81,-73.47 909.47,-72.87 918.13,-72.24"/>
<polygon fill="#63b8ff" stroke="#63b8ff" points="918.54,-75.72 928.26,-71.5 918.03,-68.74 918.54,-75.72"/>
</a>
</g>
</g>
<!-- Node16&#45;&gt;Node7 -->
<g id="edge30_Node000016_Node000007" class="edge">
<title>Node16&#45;&gt;Node7</title>
<g id="a_edge30_Node000016_Node000007"><a xlink:title=" ">
<path fill="none" stroke="#63b8ff" d="M169.93,-115.49C176.94,-113.54 184.46,-111.58 191.5,-110 255.44,-95.64 329.1,-83.47 381.84,-75.51"/>
<polygon fill="#63b8ff" stroke="#63b8ff" points="382.39,-78.97 391.76,-74.02 381.35,-72.04 382.39,-78.97"/>
</a>
</g>
</g>
<!-- Node16&#45;&gt;Node8 -->
<g id="edge27_Node000016_Node000008" class="edge">
<title>Node16&#45;&gt;Node8</title>
<g id="a_edge27_Node000016_Node000008"><a xlink:title=" ">
<path fill="none" stroke="#63b8ff" d="M137.74,-115.47C129.63,-97.06 110.35,-53.29 99.42,-28.48"/>
<polygon fill="#63b8ff" stroke="#63b8ff" points="102.54,-26.87 95.3,-19.13 96.13,-29.69 102.54,-26.87"/>
</a>
</g>
</g>
<!-- Node17 -->
<g id="Node000017" class="node">
<title>Node17</title>
<g id="a_Node000017"><a xlink:title=" ">
<polygon fill="#e0e0e0" stroke="#999999" points="198.5,-74 138.5,-74 138.5,-55 198.5,-55 198.5,-74"/>
<text text-anchor="middle" x="168.5" y="-62" font-family="Helvetica,sans-Serif" font-size="10.00">atk/atk.h</text>
</a>
</g>
</g>
<!-- Node16&#45;&gt;Node17 -->
<g id="edge29_Node000016_Node000017" class="edge">
<title>Node16&#45;&gt;Node17</title>
<g id="a_edge29_Node000016_Node000017"><a xlink:title=" ">
<path fill="none" stroke="#63b8ff" d="M145.48,-115.37C149.35,-106.99 155.34,-94.01 160.24,-83.39"/>
<polygon fill="#63b8ff" stroke="#63b8ff" points="163.49,-84.71 164.5,-74.17 157.13,-81.78 163.49,-84.71"/>
</a>
</g>
</g>
<!-- Node18&#45;&gt;Node8 -->
<g id="edge34_Node000018_Node000008" class="edge">
<title>Node18&#45;&gt;Node8</title>
<g id="a_edge34_Node000018_Node000008"><a xlink:title=" ">
<path fill="none" stroke="#63b8ff" d="M518.31,-406.99C426.75,-383.26 186.4,-306.89 91.5,-140 71.57,-104.94 79.57,-55.43 86.14,-28.94"/>
<polygon fill="#63b8ff" stroke="#63b8ff" points="89.57,-29.67 88.79,-19.1 82.81,-27.85 89.57,-29.67"/>
</a>
</g>
</g>
<!-- Node18&#45;&gt;Node9 -->
<g id="edge33_Node000018_Node000009" class="edge">
<title>Node18&#45;&gt;Node9</title>
<g id="a_edge33_Node000018_Node000009"><a xlink:title=" ">
<path fill="none" stroke="#63b8ff" d="M603.39,-406.94C740.12,-381.64 1116.5,-301.99 1116.5,-192 1116.5,-192 1116.5,-192 1116.5,-124 1116.5,-77.98 1163.55,-42.52 1194.36,-24.23"/>
<polygon fill="#63b8ff" stroke="#63b8ff" points="1196.37,-27.11 1203.33,-19.12 1192.91,-21.03 1196.37,-27.11"/>
</a>
</g>
</g>
<!-- Node19 -->
<g id="Node000019" class="node">
<title>Node19</title>
<g id="a_Node000019"><a xlink:href="pluma-app_8h.html" target="_top" xlink:title=" ">
<polygon fill="white" stroke="#666666" points="600.5,-371 522.5,-371 522.5,-352 600.5,-352 600.5,-371"/>
<text text-anchor="middle" x="561.5" y="-359" font-family="Helvetica,sans-Serif" font-size="10.00">pluma&#45;app.h</text>
</a>
</g>
</g>
<!-- Node18&#45;&gt;Node19 -->
<g id="edge35_Node000018_Node000019" class="edge">
<title>Node18&#45;&gt;Node19</title>
<g id="a_edge35_Node000018_Node000019"><a xlink:title=" ">
<path fill="none" stroke="#63b8ff" d="M555.66,-406.75C556.57,-399.8 557.89,-389.85 559.04,-381.13"/>
<polygon fill="#63b8ff" stroke="#63b8ff" points="562.53,-381.46 560.37,-371.09 555.59,-380.54 562.53,-381.46"/>
</a>
</g>
</g>
<!-- Node19&#45;&gt;Node4 -->
<g id="edge36_Node000019_Node000004" class="edge">
<title>Node19&#45;&gt;Node4</title>
<g id="a_edge36_Node000019_Node000004"><a xlink:title=" ">
<path fill="none" stroke="#63b8ff" d="M562.07,-351.96C563.59,-332.19 568.51,-281.87 581.5,-242 601.5,-180.6 639.79,-113.88 658.57,-83"/>
<polygon fill="#63b8ff" stroke="#63b8ff" points="661.67,-84.63 663.93,-74.28 655.71,-80.96 661.67,-84.63"/>
</a>
</g>
</g>
<!-- Node20 -->
<g id="Node000020" class="node">
<title>Node20</title>
<g id="a_Node000020"><a xlink:href="pluma-window_8h.html" target="_top" xlink:title=" ">
<polygon fill="white" stroke="#666666" points="847,-316 716,-316 716,-297 847,-297 847,-316"/>
<text text-anchor="middle" x="781.5" y="-304" font-family="Helvetica,sans-Serif" font-size="10.00">pluma/pluma&#45;window.h</text>
</a>
</g>
</g>
<!-- Node19&#45;&gt;Node20 -->
<g id="edge37_Node000019_Node000020" class="edge">
<title>Node19&#45;&gt;Node20</title>
<g id="a_edge37_Node000019_Node000020"><a xlink:title=" ">
<path fill="none" stroke="#63b8ff" d="M596.85,-351.98C634.66,-342.87 694.76,-328.4 736.07,-318.45"/>
<polygon fill="#63b8ff" stroke="#63b8ff" points="736.97,-321.83 745.88,-316.08 735.33,-315.02 736.97,-321.83"/>
</a>
</g>
</g>
<!-- Node20&#45;&gt;Node4 -->
<g id="edge39_Node000020_Node000004" class="edge">
<title>Node20&#45;&gt;Node4</title>
<g id="a_edge39_Node000020_Node000004"><a xlink:title=" ">
<path fill="none" stroke="#63b8ff" d="M776.79,-296.7C772.04,-287.77 764.58,-273.52 758.5,-261 727.05,-196.25 692.43,-117.99 677.3,-83.41"/>
<polygon fill="#63b8ff" stroke="#63b8ff" points="680.46,-81.91 673.25,-74.15 674.05,-84.71 680.46,-81.91"/>
</a>
</g>
</g>
<!-- Node20&#45;&gt;Node12 -->
<g id="edge38_Node000020_Node000012" class="edge">
<title>Node20&#45;&gt;Node12</title>
<g id="a_edge38_Node000020_Node000012"><a xlink:title=" ">
<path fill="none" stroke="#63b8ff" d="M816.94,-296.93C858.01,-284.76 922.92,-257.92 945.5,-206 962.92,-165.95 951.26,-144.52 924.5,-110 914.07,-96.55 898.34,-86.1 884.34,-78.71"/>
<polygon fill="#63b8ff" stroke="#63b8ff" points="885.52,-75.39 875.01,-74.09 882.42,-81.67 885.52,-75.39"/>
</a>
</g>
</g>
<!-- Node21 -->
<g id="Node000021" class="node">
<title>Node21</title>
<g id="a_Node000021"><a xlink:href="pluma-tab_8h.html" target="_top" xlink:title=" ">
<polygon fill="white" stroke="#666666" points="877.5,-261 767.5,-261 767.5,-242 877.5,-242 877.5,-261"/>
<text text-anchor="middle" x="822.5" y="-249" font-family="Helvetica,sans-Serif" font-size="10.00">pluma/pluma&#45;tab.h</text>
</a>
</g>
</g>
<!-- Node20&#45;&gt;Node21 -->
<g id="edge40_Node000020_Node000021" class="edge">
<title>Node20&#45;&gt;Node21</title>
<g id="a_edge40_Node000020_Node000021"><a xlink:title=" ">
<path fill="none" stroke="#63b8ff" d="M788.27,-296.75C794.06,-289.26 802.56,-278.28 809.64,-269.13"/>
<polygon fill="#63b8ff" stroke="#63b8ff" points="812.51,-271.14 815.86,-261.09 806.97,-266.86 812.51,-271.14"/>
</a>
</g>
</g>
<!-- Node23 -->
<g id="Node000023" class="node">
<title>Node23</title>
<g id="a_Node000023"><a xlink:href="pluma-panel_8h.html" target="_top" xlink:title=" ">
<polygon fill="white" stroke="#666666" points="711,-261 590,-261 590,-242 711,-242 711,-261"/>
<text text-anchor="middle" x="650.5" y="-249" font-family="Helvetica,sans-Serif" font-size="10.00">pluma/pluma&#45;panel.h</text>
</a>
</g>
</g>
<!-- Node20&#45;&gt;Node23 -->
<g id="edge47_Node000020_Node000023" class="edge">
<title>Node20&#45;&gt;Node23</title>
<g id="a_edge47_Node000020_Node000023"><a xlink:title=" ">
<path fill="none" stroke="#63b8ff" d="M760.45,-296.98C739.09,-288.34 705.8,-274.87 681.44,-265.02"/>
<polygon fill="#63b8ff" stroke="#63b8ff" points="682.51,-261.68 671.93,-261.17 679.89,-268.17 682.51,-261.68"/>
</a>
</g>
</g>
<!-- Node24 -->
<g id="Node000024" class="node">
<title>Node24</title>
<g id="a_Node000024"><a xlink:href="pluma-message-bus_8h.html" target="_top" xlink:title=" ">
<polygon fill="white" stroke="#666666" points="1408,-206 1279,-206 1279,-176 1408,-176 1408,-206"/>
<text text-anchor="start" x="1287" y="-194" font-family="Helvetica,sans-Serif" font-size="10.00">pluma/pluma&#45;message</text>
<text text-anchor="middle" x="1343.5" y="-183" font-family="Helvetica,sans-Serif" font-size="10.00">&#45;bus.h</text>
</a>
</g>
</g>
<!-- Node20&#45;&gt;Node24 -->
<g id="edge49_Node000020_Node000024" class="edge">
<title>Node20&#45;&gt;Node24</title>
<g id="a_edge49_Node000020_Node000024"><a xlink:title=" ">
<path fill="none" stroke="#63b8ff" d="M823.74,-296.97C918.59,-277.81 1149.5,-231.18 1269.04,-207.04"/>
<polygon fill="#63b8ff" stroke="#63b8ff" points="1269.74,-210.47 1278.85,-205.06 1268.36,-203.61 1269.74,-210.47"/>
</a>
</g>
</g>
<!-- Node21&#45;&gt;Node4 -->
<g id="edge41_Node000021_Node000004" class="edge">
<title>Node21&#45;&gt;Node4</title>
<g id="a_edge41_Node000021_Node000004"><a xlink:title=" ">
<path fill="none" stroke="#63b8ff" d="M815.12,-241.58C791.14,-212.58 715.12,-120.66 683.5,-82.43"/>
<polygon fill="#63b8ff" stroke="#63b8ff" points="685.88,-79.81 676.81,-74.33 680.48,-84.27 685.88,-79.81"/>
</a>
</g>
</g>
<!-- Node21&#45;&gt;Node11 -->
<g id="edge46_Node000021_Node000011" class="edge">
<title>Node21&#45;&gt;Node11</title>
<g id="a_edge46_Node000021_Node000011"><a xlink:title=" ">
<path fill="none" stroke="#63b8ff" d="M819.67,-241.75C816.95,-232.86 813.04,-218.64 811.5,-206 809.89,-192.76 809.56,-189.19 811.5,-176 813.07,-165.3 816.44,-153.71 819.58,-144.39"/>
<polygon fill="#63b8ff" stroke="#63b8ff" points="822.98,-145.27 823.05,-134.68 816.39,-142.91 822.98,-145.27"/>
</a>
</g>
</g>
<!-- Node22 -->
<g id="Node000022" class="node">
<title>Node22</title>
<g id="a_Node000022"><a xlink:href="pluma-view_8h.html" target="_top" xlink:title=" ">
<polygon fill="white" stroke="#666666" points="936.5,-200.5 820.5,-200.5 820.5,-181.5 936.5,-181.5 936.5,-200.5"/>
<text text-anchor="middle" x="878.5" y="-188.5" font-family="Helvetica,sans-Serif" font-size="10.00">pluma/pluma&#45;view.h</text>
</a>
</g>
</g>
<!-- Node21&#45;&gt;Node22 -->
<g id="edge42_Node000021_Node000022" class="edge">
<title>Node21&#45;&gt;Node22</title>
<g id="a_edge42_Node000021_Node000022"><a xlink:title=" ">
<path fill="none" stroke="#63b8ff" d="M830.76,-241.87C839.28,-232.97 852.76,-218.89 863.23,-207.95"/>
<polygon fill="#63b8ff" stroke="#63b8ff" points="865.82,-210.31 870.2,-200.67 860.76,-205.47 865.82,-210.31"/>
</a>
</g>
</g>
<!-- Node22&#45;&gt;Node4 -->
<g id="edge43_Node000022_Node000004" class="edge">
<title>Node22&#45;&gt;Node4</title>
<g id="a_edge43_Node000022_Node000004"><a xlink:title=" ">
<path fill="none" stroke="#63b8ff" d="M886.65,-181.35C900.51,-165.56 925.53,-131.71 907.5,-110 882.81,-80.27 770.82,-70.29 709.66,-67.03"/>
<polygon fill="#63b8ff" stroke="#63b8ff" points="709.75,-63.53 699.59,-66.53 709.4,-70.52 709.75,-63.53"/>
</a>
</g>
</g>
<!-- Node22&#45;&gt;Node5 -->
<g id="edge45_Node000022_Node000005" class="edge">
<title>Node22&#45;&gt;Node5</title>
<g id="a_edge45_Node000022_Node000005"><a xlink:title=" ">
<path fill="none" stroke="#63b8ff" d="M890.51,-181.43C903.44,-171.96 924.34,-155.91 940.5,-140 959.14,-121.64 978.01,-98.1 989.95,-82.45"/>
<polygon fill="#63b8ff" stroke="#63b8ff" points="992.91,-84.33 996.13,-74.24 987.32,-80.12 992.91,-84.33"/>
</a>
</g>
</g>
<!-- Node22&#45;&gt;Node11 -->
<g id="edge44_Node000022_Node000011" class="edge">
<title>Node22&#45;&gt;Node11</title>
<g id="a_edge44_Node000022_Node000011"><a xlink:title=" ">
<path fill="none" stroke="#63b8ff" d="M871.49,-181.37C863.47,-171.5 850.15,-155.11 840.08,-142.72"/>
<polygon fill="#63b8ff" stroke="#63b8ff" points="842.76,-140.46 833.74,-134.91 837.33,-144.87 842.76,-140.46"/>
</a>
</g>
</g>
<!-- Node23&#45;&gt;Node4 -->
<g id="edge48_Node000023_Node000004" class="edge">
<title>Node23&#45;&gt;Node4</title>
<g id="a_edge48_Node000023_Node000004"><a xlink:title=" ">
<path fill="none" stroke="#63b8ff" d="M651.42,-241.58C654.34,-213.07 663.52,-123.74 667.56,-84.41"/>
<polygon fill="#63b8ff" stroke="#63b8ff" points="671.05,-84.64 668.59,-74.33 664.09,-83.92 671.05,-84.64"/>
</a>
</g>
</g>
<!-- Node24&#45;&gt;Node9 -->
<g id="edge50_Node000024_Node000009" class="edge">
<title>Node24&#45;&gt;Node9</title>
<g id="a_edge50_Node000024_Node000009"><a xlink:title=" ">
<path fill="none" stroke="#63b8ff" d="M1338.1,-175.82C1331.53,-159.35 1319.55,-131.67 1305.5,-110 1284.74,-77.97 1254.62,-45.13 1236.37,-26.34"/>
<polygon fill="#63b8ff" stroke="#63b8ff" points="1238.84,-23.86 1229.33,-19.18 1233.85,-28.77 1238.84,-23.86"/>
</a>
</g>
</g>
<!-- Node25 -->
<g id="Node000025" class="node">
<title>Node25</title>
<g id="a_Node000025"><a xlink:href="pluma-message_8h.html" target="_top" xlink:title=" ">
<polygon fill="white" stroke="#666666" points="1524.5,-74 1386.5,-74 1386.5,-55 1524.5,-55 1524.5,-74"/>
<text text-anchor="middle" x="1455.5" y="-62" font-family="Helvetica,sans-Serif" font-size="10.00">pluma/pluma&#45;message.h</text>
</a>
</g>
</g>
<!-- Node24&#45;&gt;Node25 -->
<g id="edge51_Node000024_Node000025" class="edge">
<title>Node24&#45;&gt;Node25</title>
<g id="a_edge51_Node000024_Node000025"><a xlink:title=" ">
<path fill="none" stroke="#63b8ff" d="M1347.66,-175.86C1353.29,-158.67 1364.71,-129.54 1382.5,-110 1394.55,-96.76 1411.44,-86.12 1425.95,-78.57"/>
<polygon fill="#63b8ff" stroke="#63b8ff" points="1427.65,-81.63 1435.06,-74.06 1424.54,-75.36 1427.65,-81.63"/>
</a>
</g>
</g>
<!-- Node27 -->
<g id="Node000027" class="node">
<title>Node27</title>
<g id="a_Node000027"><a xlink:href="pluma-message-type_8h.html" target="_top" xlink:title=" ">
<polygon fill="white" stroke="#666666" points="1520,-140 1391,-140 1391,-110 1520,-110 1520,-140"/>
<text text-anchor="start" x="1399" y="-128" font-family="Helvetica,sans-Serif" font-size="10.00">pluma/pluma&#45;message</text>
<text text-anchor="middle" x="1455.5" y="-117" font-family="Helvetica,sans-Serif" font-size="10.00">&#45;type.h</text>
</a>
</g>
</g>
<!-- Node24&#45;&gt;Node27 -->
<g id="edge54_Node000024_Node000027" class="edge">
<title>Node24&#45;&gt;Node27</title>
<g id="a_edge54_Node000024_Node000027"><a xlink:title=" ">
<path fill="none" stroke="#63b8ff" d="M1368.08,-175.95C1383.98,-166.87 1404.88,-154.93 1422.26,-145"/>
<polygon fill="#63b8ff" stroke="#63b8ff" points="1424.03,-148.01 1430.98,-140.01 1420.56,-141.93 1424.03,-148.01"/>
</a>
</g>
</g>
<!-- Node25&#45;&gt;Node9 -->
<g id="edge52_Node000025_Node000009" class="edge">
<title>Node25&#45;&gt;Node9</title>
<g id="a_edge52_Node000025_Node000009"><a xlink:title=" ">
<path fill="none" stroke="#63b8ff" d="M1417.74,-54.98C1377.18,-45.84 1312.61,-31.27 1268.47,-21.32"/>
<polygon fill="#63b8ff" stroke="#63b8ff" points="1269.08,-17.87 1258.55,-19.08 1267.54,-24.7 1269.08,-17.87"/>
</a>
</g>
</g>
<!-- Node26 -->
<g id="Node000026" class="node">
<title>Node26</title>
<g id="a_Node000026"><a xlink:title=" ">
<polygon fill="#e0e0e0" stroke="#999999" points="1531.5,-19 1475.5,-19 1475.5,0 1531.5,0 1531.5,-19"/>
<text text-anchor="middle" x="1503.5" y="-7" font-family="Helvetica,sans-Serif" font-size="10.00">stdarg.h</text>
</a>
</g>
</g>
<!-- Node25&#45;&gt;Node26 -->
<g id="edge53_Node000025_Node000026" class="edge">
<title>Node25&#45;&gt;Node26</title>
<g id="a_edge53_Node000025_Node000026"><a xlink:title=" ">
<path fill="none" stroke="#63b8ff" d="M1463.43,-54.75C1470.35,-47.11 1480.57,-35.82 1488.95,-26.56"/>
<polygon fill="#63b8ff" stroke="#63b8ff" points="1491.6,-28.85 1495.72,-19.09 1486.41,-24.15 1491.6,-28.85"/>
</a>
</g>
</g>
<!-- Node27&#45;&gt;Node9 -->
<g id="edge55_Node000027_Node000009" class="edge">
<title>Node27&#45;&gt;Node9</title>
<g id="a_edge55_Node000027_Node000009"><a xlink:title=" ">
<path fill="none" stroke="#63b8ff" d="M1432.84,-109.75C1408.92,-95.02 1369.86,-71.87 1334.5,-55 1308.44,-42.57 1277.93,-30.79 1255.03,-22.48"/>
<polygon fill="#63b8ff" stroke="#63b8ff" points="1256,-19.11 1245.4,-19.03 1253.63,-25.7 1256,-19.11"/>
</a>
</g>
</g>
<!-- Node27&#45;&gt;Node25 -->
<g id="edge57_Node000027_Node000025" class="edge">
<title>Node27&#45;&gt;Node25</title>
<g id="a_edge57_Node000027_Node000025"><a xlink:title=" ">
<path fill="none" stroke="#63b8ff" d="M1455.5,-109.84C1455.5,-102.21 1455.5,-92.7 1455.5,-84.45"/>
<polygon fill="#63b8ff" stroke="#63b8ff" points="1459,-84.27 1455.5,-74.27 1452,-84.27 1459,-84.27"/>
</a>
</g>
</g>
<!-- Node27&#45;&gt;Node26 -->
<g id="edge56_Node000027_Node000026" class="edge">
<title>Node27&#45;&gt;Node26</title>
<g id="a_edge56_Node000027_Node000026"><a xlink:title=" ">
<path fill="none" stroke="#63b8ff" d="M1492.34,-109.98C1507.98,-101.97 1524.63,-90.23 1533.5,-74 1542.04,-58.38 1531.08,-39.92 1520.08,-26.94"/>
<polygon fill="#63b8ff" stroke="#63b8ff" points="1522.4,-24.29 1513.06,-19.29 1517.24,-29.02 1522.4,-24.29"/>
</a>
</g>
</g>
</g>
</svg>
