<?xml version="1.0" encoding="UTF-8" standalone="no"?>
<!DOCTYPE svg PUBLIC "-//W3C//DTD SVG 1.1//EN"
 "http://www.w3.org/Graphics/SVG/1.1/DTD/svg11.dtd">
<!-- Generated by graphviz version 2.43.0 (0)
 -->
<!-- Title: pluma&#45;file&#45;browser&#45;view.h Pages: 1 -->
<!--zoomable 236 -->

<svg id="main" version="1.1" xmlns="http://www.w3.org/2000/svg" xmlns:xlink="http://www.w3.org/1999/xlink" xml:space="preserve" onload="init(evt)">

<style type="text/css"><![CDATA[
.node, .edge {opacity: 0.7;}
.node.selected, .edge.selected {opacity: 1;}
.edge:hover path { stroke: red; }
.edge:hover polygon { stroke: red; fill: red; }
]]></style>

<defs>
  <circle id="rim" cx="0" cy="0" r="7"/>
  <circle id="rim2" cx="0" cy="0" r="3.5"/>
  <g id="zoomPlus">
    <use xlink:href="#rim" fill="#404040"><set attributeName="fill" to="#808080" begin="zoomplus.mouseover" end="zoomplus.mouseout"/></use>
    <path d="M-4,0h8M0,-4v8" fill="none" stroke="white" stroke-width="1.5" pointer-events="none"/>
  </g>
  <g id="zoomMin">
    <use xlink:href="#rim" fill="#404040"><set attributeName="fill" to="#808080" begin="zoomminus.mouseover" end="zoomminus.mouseout"/></use>
    <path d="M-4,0h8" fill="none" stroke="white" stroke-width="1.5" pointer-events="none"/>
  </g>
  <g id="arrowUp" transform="translate(30 24)">
    <use xlink:href="#rim"/>
    <path pointer-events="none" fill="none" stroke="white" stroke-width="1.5" d="M0,-3.0v7 M-2.5,-0.5L0,-3.0L2.5,-0.5"/>
  </g>
  <g id="arrowRight" transform="rotate(90) translate(36 -43)">
    <use xlink:href="#rim"/>
    <path pointer-events="none" fill="none" stroke="white" stroke-width="1.5" d="M0,-3.0v7 M-2.5,-0.5L0,-3.0L2.5,-0.5"/>
  </g>
  <g id="arrowDown" transform="rotate(180) translate(-30 -48)">
    <use xlink:href="#rim"/>
    <path pointer-events="none" fill="none" stroke="white" stroke-width="1.5" d="M0,-3.0v7 M-2.5,-0.5L0,-3.0L2.5,-0.5"/>
  </g>
  <g id="arrowLeft" transform="rotate(270) translate(-36 17)">
    <use xlink:href="#rim"/>
    <path pointer-events="none" fill="none" stroke="white" stroke-width="1.5" d="M0,-3.0v7 M-2.5,-0.5L0,-3.0L2.5,-0.5"/>
  </g>
  <g id="resetDef">
    <use xlink:href="#rim2" fill="#404040"><set attributeName="fill" to="#808080" begin="reset.mouseover" end="reset.mouseout"/></use>
  </g>
</defs>
<script type="application/ecmascript">
var viewWidth = 526;
var viewHeight = 236;
var sectionId = 'dynsection-1';
</script>
<script type="application/ecmascript" xlink:href="svg.min.js"/>
<svg id="graph" class="graph">
<g id="viewport">
<title>pluma&#45;file&#45;browser&#45;view.h</title>
<!-- Node1 -->
<g id="Node000001" class="node">
<title>Node1</title>
<g id="a_Node000001"><a xlink:title=" ">
<polygon fill="#999999" stroke="#666666" points="277,-228 168,-228 168,-198 277,-198 277,-228"/>
<text text-anchor="start" x="176" y="-216" font-family="Helvetica,sans-Serif" font-size="10.00">pluma&#45;file&#45;browser</text>
<text text-anchor="middle" x="222.5" y="-205" font-family="Helvetica,sans-Serif" font-size="10.00">&#45;view.h</text>
</a>
</g>
</g>
<!-- Node2 -->
<g id="Node000002" class="node">
<title>Node2</title>
<g id="a_Node000002"><a xlink:href="pluma-file-browser-enum-types_8c.html" target="_top" xlink:title=" ">
<polygon fill="white" stroke="#666666" points="109,-162 0,-162 0,-132 109,-132 109,-162"/>
<text text-anchor="start" x="8" y="-150" font-family="Helvetica,sans-Serif" font-size="10.00">pluma&#45;file&#45;browser</text>
<text text-anchor="middle" x="54.5" y="-139" font-family="Helvetica,sans-Serif" font-size="10.00">&#45;enum&#45;types.c</text>
</a>
</g>
</g>
<!-- Node1&#45;&gt;Node2 -->
<g id="edge1_Node000001_Node000002" class="edge">
<title>Node1&#45;&gt;Node2</title>
<g id="a_edge1_Node000001_Node000002"><a xlink:title=" ">
<path fill="none" stroke="#63b8ff" d="M176.1,-194.32C149.36,-184.14 116.21,-171.51 91.28,-162.01"/>
<polygon fill="#63b8ff" stroke="#63b8ff" points="175.04,-197.67 185.63,-197.95 177.53,-191.12 175.04,-197.67"/>
</a>
</g>
</g>
<!-- Node3 -->
<g id="Node000003" class="node">
<title>Node3</title>
<g id="a_Node000003"><a xlink:href="pluma-file-browser-view_8c.html" target="_top" xlink:title=" ">
<polygon fill="white" stroke="#666666" points="236,-162 127,-162 127,-132 236,-132 236,-162"/>
<text text-anchor="start" x="135" y="-150" font-family="Helvetica,sans-Serif" font-size="10.00">pluma&#45;file&#45;browser</text>
<text text-anchor="middle" x="181.5" y="-139" font-family="Helvetica,sans-Serif" font-size="10.00">&#45;view.c</text>
</a>
</g>
</g>
<!-- Node1&#45;&gt;Node3 -->
<g id="edge2_Node000001_Node000003" class="edge">
<title>Node1&#45;&gt;Node3</title>
<g id="a_edge2_Node000001_Node000003"><a xlink:title=" ">
<path fill="none" stroke="#63b8ff" d="M207.92,-189.24C202.14,-180.21 195.66,-170.11 190.57,-162.16"/>
<polygon fill="#63b8ff" stroke="#63b8ff" points="205.06,-191.26 213.4,-197.8 210.95,-187.49 205.06,-191.26"/>
</a>
</g>
</g>
<!-- Node4 -->
<g id="Node000004" class="node">
<title>Node4</title>
<g id="a_Node000004"><a xlink:href="pluma-file-browser-widget_8c.html" target="_top" xlink:title=" ">
<polygon fill="white" stroke="#666666" points="308,-96 199,-96 199,-66 308,-66 308,-96"/>
<text text-anchor="start" x="207" y="-84" font-family="Helvetica,sans-Serif" font-size="10.00">pluma&#45;file&#45;browser</text>
<text text-anchor="middle" x="253.5" y="-73" font-family="Helvetica,sans-Serif" font-size="10.00">&#45;widget.c</text>
</a>
</g>
</g>
<!-- Node1&#45;&gt;Node4 -->
<g id="edge3_Node000001_Node000004" class="edge">
<title>Node1&#45;&gt;Node4</title>
<g id="a_edge3_Node000001_Node000004"><a xlink:title=" ">
<path fill="none" stroke="#63b8ff" d="M234.4,-188.93C238.2,-180.63 242.05,-171.08 244.5,-162 250.57,-139.46 252.55,-112.29 253.2,-96.11"/>
<polygon fill="#63b8ff" stroke="#63b8ff" points="231.22,-187.45 230.04,-197.98 237.53,-190.48 231.22,-187.45"/>
</a>
</g>
</g>
<!-- Node5 -->
<g id="Node000005" class="node">
<title>Node5</title>
<g id="a_Node000005"><a xlink:href="pluma-file-browser-widget_8h.html" target="_top" xlink:title=" ">
<polygon fill="white" stroke="#666666" points="424,-162 315,-162 315,-132 424,-132 424,-162"/>
<text text-anchor="start" x="323" y="-150" font-family="Helvetica,sans-Serif" font-size="10.00">pluma&#45;file&#45;browser</text>
<text text-anchor="middle" x="369.5" y="-139" font-family="Helvetica,sans-Serif" font-size="10.00">&#45;widget.h</text>
</a>
</g>
</g>
<!-- Node1&#45;&gt;Node5 -->
<g id="edge4_Node000001_Node000005" class="edge">
<title>Node1&#45;&gt;Node5</title>
<g id="a_edge4_Node000001_Node000005"><a xlink:title=" ">
<path fill="none" stroke="#63b8ff" d="M264.03,-193.92C287.26,-183.8 315.79,-171.38 337.32,-162.01"/>
<polygon fill="#63b8ff" stroke="#63b8ff" points="262.53,-190.75 254.76,-197.95 265.33,-197.17 262.53,-190.75"/>
</a>
</g>
</g>
<!-- Node5&#45;&gt;Node4 -->
<g id="edge9_Node000005_Node000004" class="edge">
<title>Node5&#45;&gt;Node4</title>
<g id="a_edge9_Node000005_Node000004"><a xlink:title=" ">
<path fill="none" stroke="#63b8ff" d="M335.01,-126.97C317,-117.03 295.35,-105.09 278.9,-96.01"/>
<polygon fill="#63b8ff" stroke="#63b8ff" points="333.6,-130.19 344.04,-131.95 336.98,-124.06 333.6,-130.19"/>
</a>
</g>
</g>
<!-- Node6 -->
<g id="Node000006" class="node">
<title>Node6</title>
<g id="a_Node000006"><a xlink:href="pluma-file-browser-messages_8h.html" target="_top" xlink:title=" ">
<polygon fill="white" stroke="#666666" points="435,-96 326,-96 326,-66 435,-66 435,-96"/>
<text text-anchor="start" x="334" y="-84" font-family="Helvetica,sans-Serif" font-size="10.00">pluma&#45;file&#45;browser</text>
<text text-anchor="middle" x="380.5" y="-73" font-family="Helvetica,sans-Serif" font-size="10.00">&#45;messages.h</text>
</a>
</g>
</g>
<!-- Node5&#45;&gt;Node6 -->
<g id="edge5_Node000005_Node000006" class="edge">
<title>Node5&#45;&gt;Node6</title>
<g id="a_edge5_Node000005_Node000006"><a xlink:title=" ">
<path fill="none" stroke="#63b8ff" d="M373.66,-121.83C375.14,-113.17 376.77,-103.7 378.07,-96.16"/>
<polygon fill="#63b8ff" stroke="#63b8ff" points="370.19,-121.35 371.94,-131.8 377.08,-122.53 370.19,-121.35"/>
</a>
</g>
</g>
<!-- Node8 -->
<g id="Node000008" class="node">
<title>Node8</title>
<g id="a_Node000008"><a xlink:href="pluma-file-browser-plugin_8c.html" target="_top" xlink:title=" ">
<polygon fill="white" stroke="#666666" points="518,-30 409,-30 409,0 518,0 518,-30"/>
<text text-anchor="start" x="417" y="-18" font-family="Helvetica,sans-Serif" font-size="10.00">pluma&#45;file&#45;browser</text>
<text text-anchor="middle" x="463.5" y="-7" font-family="Helvetica,sans-Serif" font-size="10.00">&#45;plugin.c</text>
</a>
</g>
</g>
<!-- Node5&#45;&gt;Node8 -->
<g id="edge8_Node000005_Node000008" class="edge">
<title>Node5&#45;&gt;Node8</title>
<g id="a_edge8_Node000005_Node000008"><a xlink:title=" ">
<path fill="none" stroke="#63b8ff" d="M409.81,-126.83C422.61,-118.93 435.71,-108.63 444.5,-96 458.36,-76.08 462.19,-47.34 463.2,-30.28"/>
<polygon fill="#63b8ff" stroke="#63b8ff" points="407.94,-123.87 401.05,-131.92 411.45,-129.92 407.94,-123.87"/>
</a>
</g>
</g>
<!-- Node7 -->
<g id="Node000007" class="node">
<title>Node7</title>
<g id="a_Node000007"><a xlink:href="pluma-file-browser-messages_8c.html" target="_top" xlink:title=" ">
<polygon fill="white" stroke="#666666" points="391,-30 282,-30 282,0 391,0 391,-30"/>
<text text-anchor="start" x="290" y="-18" font-family="Helvetica,sans-Serif" font-size="10.00">pluma&#45;file&#45;browser</text>
<text text-anchor="middle" x="336.5" y="-7" font-family="Helvetica,sans-Serif" font-size="10.00">&#45;messages.c</text>
</a>
</g>
</g>
<!-- Node6&#45;&gt;Node7 -->
<g id="edge6_Node000006_Node000007" class="edge">
<title>Node6&#45;&gt;Node7</title>
<g id="a_edge6_Node000006_Node000007"><a xlink:title=" ">
<path fill="none" stroke="#63b8ff" d="M365.05,-57.53C358.79,-48.43 351.76,-38.19 346.24,-30.16"/>
<polygon fill="#63b8ff" stroke="#63b8ff" points="362.19,-59.54 370.73,-65.8 367.95,-55.57 362.19,-59.54"/>
</a>
</g>
</g>
<!-- Node6&#45;&gt;Node8 -->
<g id="edge7_Node000006_Node000008" class="edge">
<title>Node6&#45;&gt;Node8</title>
<g id="a_edge7_Node000006_Node000008"><a xlink:title=" ">
<path fill="none" stroke="#63b8ff" d="M407.11,-59.48C419.52,-49.91 433.97,-38.77 445.13,-30.16"/>
<polygon fill="#63b8ff" stroke="#63b8ff" points="404.7,-56.92 398.92,-65.8 408.98,-62.46 404.7,-56.92"/>
</a>
</g>
</g>
</g>
</svg>

<g id="navigator" transform="translate(0 0)" fill="#404254">
  <rect fill="#f2f5e9" fill-opacity="0.5" stroke="#606060" stroke-width=".5" x="0" y="0" width="60" height="60"/>
  <use id="zoomplus" xlink:href="#zoomPlus" x="17" y="9" onmousedown="handleZoom(evt,'in')"/>
  <use id="zoomminus" xlink:href="#zoomMin" x="42" y="9" onmousedown="handleZoom(evt,'out')"/>
  <use id="reset" xlink:href="#resetDef" x="30" y="36" onmousedown="handleReset()"/>
   <use id="arrowup" xlink:href="#arrowUp" x="0" y="0" onmousedown="handlePan(0,-1)"/>
  <use id="arrowright" xlink:href="#arrowRight" x="0" y="0" onmousedown="handlePan(1,0)"/>
  <use id="arrowdown" xlink:href="#arrowDown" x="0" y="0" onmousedown="handlePan(0,1)"/>
  <use id="arrowleft" xlink:href="#arrowLeft" x="0" y="0" onmousedown="handlePan(-1,0)"/>
</g>
<svg viewBox="0 0 15 15" width="100%" height="30px" preserveAspectRatio="xMaxYMin meet">
 <g id="arrow_out" transform="scale(0.3 0.3)">
  <a xlink:href="pluma-file-browser-view_8h__dep__incl_org.svg" target="_base">
   <rect id="button" ry="5" rx="5" y="6" x="6" height="38" width="38"
        fill="#f2f5e9" fill-opacity="0.5" stroke="#606060" stroke-width="1.0"/>
   <path id="arrow"
     d="M 11.500037,31.436501 C 11.940474,20.09759 22.043105,11.32322 32.158766,21.979434 L 37.068811,17.246167 C 37.068811,17.246167 37.088388,32 37.088388,32 L 22.160133,31.978069 C 22.160133,31.978069 26.997745,27.140456 26.997745,27.140456 C 18.528582,18.264221 13.291696,25.230495 11.500037,31.436501 z"
     style="fill:#404040;"/>
  </a>
 </g>
</svg>

<style type='text/css'>
<![CDATA[
[data-mouse-over-selected='false'] { opacity: 0.7; }
[data-mouse-over-selected='true']  { opacity: 1.0; }
]]>
</style>
<script type="application/ecmascript"><![CDATA[
document.addEventListener('DOMContentLoaded', (event) => {
  highlightEdges();
  highlightAdjacentNodes();
});
]]></script>
</svg>
