<?xml version="1.0" encoding="UTF-8" standalone="no"?>
<!DOCTYPE svg PUBLIC "-//W3C//DTD SVG 1.1//EN"
 "http://www.w3.org/Graphics/SVG/1.1/DTD/svg11.dtd">
<!-- Generated by graphviz version 2.43.0 (0)
 -->
<!-- Title: pluma&#45;file&#45;browser&#45;store.h Pages: 1 -->
<!--zoomable 236 -->

<svg id="main" version="1.1" xmlns="http://www.w3.org/2000/svg" xmlns:xlink="http://www.w3.org/1999/xlink" xml:space="preserve" onload="init(evt)">

<style type="text/css"><![CDATA[
.node, .edge {opacity: 0.7;}
.node.selected, .edge.selected {opacity: 1;}
.edge:hover path { stroke: red; }
.edge:hover polygon { stroke: red; fill: red; }
]]></style>

<defs>
  <circle id="rim" cx="0" cy="0" r="7"/>
  <circle id="rim2" cx="0" cy="0" r="3.5"/>
  <g id="zoomPlus">
    <use xlink:href="#rim" fill="#404040"><set attributeName="fill" to="#808080" begin="zoomplus.mouseover" end="zoomplus.mouseout"/></use>
    <path d="M-4,0h8M0,-4v8" fill="none" stroke="white" stroke-width="1.5" pointer-events="none"/>
  </g>
  <g id="zoomMin">
    <use xlink:href="#rim" fill="#404040"><set attributeName="fill" to="#808080" begin="zoomminus.mouseover" end="zoomminus.mouseout"/></use>
    <path d="M-4,0h8" fill="none" stroke="white" stroke-width="1.5" pointer-events="none"/>
  </g>
  <g id="arrowUp" transform="translate(30 24)">
    <use xlink:href="#rim"/>
    <path pointer-events="none" fill="none" stroke="white" stroke-width="1.5" d="M0,-3.0v7 M-2.5,-0.5L0,-3.0L2.5,-0.5"/>
  </g>
  <g id="arrowRight" transform="rotate(90) translate(36 -43)">
    <use xlink:href="#rim"/>
    <path pointer-events="none" fill="none" stroke="white" stroke-width="1.5" d="M0,-3.0v7 M-2.5,-0.5L0,-3.0L2.5,-0.5"/>
  </g>
  <g id="arrowDown" transform="rotate(180) translate(-30 -48)">
    <use xlink:href="#rim"/>
    <path pointer-events="none" fill="none" stroke="white" stroke-width="1.5" d="M0,-3.0v7 M-2.5,-0.5L0,-3.0L2.5,-0.5"/>
  </g>
  <g id="arrowLeft" transform="rotate(270) translate(-36 17)">
    <use xlink:href="#rim"/>
    <path pointer-events="none" fill="none" stroke="white" stroke-width="1.5" d="M0,-3.0v7 M-2.5,-0.5L0,-3.0L2.5,-0.5"/>
  </g>
  <g id="resetDef">
    <use xlink:href="#rim2" fill="#404040"><set attributeName="fill" to="#808080" begin="reset.mouseover" end="reset.mouseout"/></use>
  </g>
</defs>
<script type="application/ecmascript">
var viewWidth = 617;
var viewHeight = 236;
var sectionId = 'dynsection-1';
</script>
<script type="application/ecmascript" xlink:href="svg.min.js"/>
<svg id="graph" class="graph">
<g id="viewport">
<title>pluma&#45;file&#45;browser&#45;store.h</title>
<!-- Node1 -->
<g id="Node000001" class="node">
<title>Node1</title>
<g id="a_Node000001"><a xlink:title=" ">
<polygon fill="#999999" stroke="#666666" points="338,-228 229,-228 229,-198 338,-198 338,-228"/>
<text text-anchor="start" x="237" y="-216" font-family="Helvetica,sans-Serif" font-size="10.00">pluma&#45;file&#45;browser</text>
<text text-anchor="middle" x="283.5" y="-205" font-family="Helvetica,sans-Serif" font-size="10.00">&#45;store.h</text>
</a>
</g>
</g>
<!-- Node2 -->
<g id="Node000002" class="node">
<title>Node2</title>
<g id="a_Node000002"><a xlink:href="pluma-file-browser-enum-types_8c.html" target="_top" xlink:title=" ">
<polygon fill="white" stroke="#666666" points="109,-162 0,-162 0,-132 109,-132 109,-162"/>
<text text-anchor="start" x="8" y="-150" font-family="Helvetica,sans-Serif" font-size="10.00">pluma&#45;file&#45;browser</text>
<text text-anchor="middle" x="54.5" y="-139" font-family="Helvetica,sans-Serif" font-size="10.00">&#45;enum&#45;types.c</text>
</a>
</g>
</g>
<!-- Node1&#45;&gt;Node2 -->
<g id="edge1_Node000001_Node000002" class="edge">
<title>Node1&#45;&gt;Node2</title>
<g id="a_edge1_Node000001_Node000002"><a xlink:title=" ">
<path fill="none" stroke="#63b8ff" d="M223.58,-195.25C186.58,-184.91 139.66,-171.8 104.64,-162.01"/>
<polygon fill="#63b8ff" stroke="#63b8ff" points="222.67,-198.63 233.24,-197.95 224.56,-191.89 222.67,-198.63"/>
</a>
</g>
</g>
<!-- Node3 -->
<g id="Node000003" class="node">
<title>Node3</title>
<g id="a_Node000003"><a xlink:href="pluma-file-browser-messages_8c.html" target="_top" xlink:title=" ">
<polygon fill="white" stroke="#666666" points="358,-30 249,-30 249,0 358,0 358,-30"/>
<text text-anchor="start" x="257" y="-18" font-family="Helvetica,sans-Serif" font-size="10.00">pluma&#45;file&#45;browser</text>
<text text-anchor="middle" x="303.5" y="-7" font-family="Helvetica,sans-Serif" font-size="10.00">&#45;messages.c</text>
</a>
</g>
</g>
<!-- Node1&#45;&gt;Node3 -->
<g id="edge2_Node000001_Node000003" class="edge">
<title>Node1&#45;&gt;Node3</title>
<g id="a_edge2_Node000001_Node000003"><a xlink:title=" ">
<path fill="none" stroke="#63b8ff" d="M219.17,-202.25C195.4,-195.18 170.8,-183 156.5,-162 148.99,-150.98 150.68,-144 156.5,-132 180.39,-82.71 236.52,-48.05 272.09,-30.12"/>
<polygon fill="#63b8ff" stroke="#63b8ff" points="218.35,-205.65 228.91,-204.88 220.18,-198.89 218.35,-205.65"/>
</a>
</g>
</g>
<!-- Node4 -->
<g id="Node000004" class="node">
<title>Node4</title>
<g id="a_Node000004"><a xlink:href="pluma-file-browser-store_8c.html" target="_top" xlink:title=" ">
<polygon fill="white" stroke="#666666" points="275,-162 166,-162 166,-132 275,-132 275,-162"/>
<text text-anchor="start" x="174" y="-150" font-family="Helvetica,sans-Serif" font-size="10.00">pluma&#45;file&#45;browser</text>
<text text-anchor="middle" x="220.5" y="-139" font-family="Helvetica,sans-Serif" font-size="10.00">&#45;store.c</text>
</a>
</g>
</g>
<!-- Node1&#45;&gt;Node4 -->
<g id="edge3_Node000001_Node000004" class="edge">
<title>Node1&#45;&gt;Node4</title>
<g id="a_edge3_Node000001_Node000004"><a xlink:title=" ">
<path fill="none" stroke="#63b8ff" d="M262.48,-190.65C253.25,-181.27 242.67,-170.53 234.44,-162.16"/>
<polygon fill="#63b8ff" stroke="#63b8ff" points="260.01,-193.13 269.52,-197.8 265,-188.21 260.01,-193.13"/>
</a>
</g>
</g>
<!-- Node5 -->
<g id="Node000005" class="node">
<title>Node5</title>
<g id="a_Node000005"><a xlink:href="pluma-file-browser-view_8c.html" target="_top" xlink:title=" ">
<polygon fill="white" stroke="#666666" points="402,-162 293,-162 293,-132 402,-132 402,-162"/>
<text text-anchor="start" x="301" y="-150" font-family="Helvetica,sans-Serif" font-size="10.00">pluma&#45;file&#45;browser</text>
<text text-anchor="middle" x="347.5" y="-139" font-family="Helvetica,sans-Serif" font-size="10.00">&#45;view.c</text>
</a>
</g>
</g>
<!-- Node1&#45;&gt;Node5 -->
<g id="edge4_Node000001_Node000005" class="edge">
<title>Node1&#45;&gt;Node5</title>
<g id="a_edge4_Node000001_Node000005"><a xlink:title=" ">
<path fill="none" stroke="#63b8ff" d="M304.85,-190.65C314.23,-181.27 324.97,-170.53 333.34,-162.16"/>
<polygon fill="#63b8ff" stroke="#63b8ff" points="302.3,-188.25 297.7,-197.8 307.25,-193.2 302.3,-188.25"/>
</a>
</g>
</g>
<!-- Node6 -->
<g id="Node000006" class="node">
<title>Node6</title>
<g id="a_Node000006"><a xlink:href="pluma-file-browser-widget_8c.html" target="_top" xlink:title=" ">
<polygon fill="white" stroke="#666666" points="441,-96 332,-96 332,-66 441,-66 441,-96"/>
<text text-anchor="start" x="340" y="-84" font-family="Helvetica,sans-Serif" font-size="10.00">pluma&#45;file&#45;browser</text>
<text text-anchor="middle" x="386.5" y="-73" font-family="Helvetica,sans-Serif" font-size="10.00">&#45;widget.c</text>
</a>
</g>
</g>
<!-- Node1&#45;&gt;Node6 -->
<g id="edge5_Node000001_Node000006" class="edge">
<title>Node1&#45;&gt;Node6</title>
<g id="a_edge5_Node000001_Node000006"><a xlink:title=" ">
<path fill="none" stroke="#63b8ff" d="M347.83,-202.25C371.6,-195.18 396.2,-183 410.5,-162 424.38,-141.63 409.24,-113.03 397.5,-96.12"/>
<polygon fill="#63b8ff" stroke="#63b8ff" points="346.82,-198.89 338.09,-204.88 348.65,-205.65 346.82,-198.89"/>
</a>
</g>
</g>
<!-- Node7 -->
<g id="Node000007" class="node">
<title>Node7</title>
<g id="a_Node000007"><a xlink:href="pluma-file-browser-widget_8h.html" target="_top" xlink:title=" ">
<polygon fill="white" stroke="#666666" points="568,-162 459,-162 459,-132 568,-132 568,-162"/>
<text text-anchor="start" x="467" y="-150" font-family="Helvetica,sans-Serif" font-size="10.00">pluma&#45;file&#45;browser</text>
<text text-anchor="middle" x="513.5" y="-139" font-family="Helvetica,sans-Serif" font-size="10.00">&#45;widget.h</text>
</a>
</g>
</g>
<!-- Node1&#45;&gt;Node7 -->
<g id="edge6_Node000001_Node000007" class="edge">
<title>Node1&#45;&gt;Node7</title>
<g id="a_edge6_Node000001_Node000007"><a xlink:title=" ">
<path fill="none" stroke="#63b8ff" d="M343.68,-195.25C380.84,-184.91 427.97,-171.8 463.14,-162.01"/>
<polygon fill="#63b8ff" stroke="#63b8ff" points="342.67,-191.9 333.97,-197.95 344.55,-198.65 342.67,-191.9"/>
</a>
</g>
</g>
<!-- Node7&#45;&gt;Node6 -->
<g id="edge11_Node000007_Node000006" class="edge">
<title>Node7&#45;&gt;Node6</title>
<g id="a_edge11_Node000007_Node000006"><a xlink:title=" ">
<path fill="none" stroke="#63b8ff" d="M476.55,-127.38C456.67,-117.36 432.57,-105.22 414.31,-96.01"/>
<polygon fill="#63b8ff" stroke="#63b8ff" points="475.12,-130.58 485.63,-131.95 478.27,-124.33 475.12,-130.58"/>
</a>
</g>
</g>
<!-- Node8 -->
<g id="Node000008" class="node">
<title>Node8</title>
<g id="a_Node000008"><a xlink:href="pluma-file-browser-messages_8h.html" target="_top" xlink:title=" ">
<polygon fill="white" stroke="#666666" points="568,-96 459,-96 459,-66 568,-66 568,-96"/>
<text text-anchor="start" x="467" y="-84" font-family="Helvetica,sans-Serif" font-size="10.00">pluma&#45;file&#45;browser</text>
<text text-anchor="middle" x="513.5" y="-73" font-family="Helvetica,sans-Serif" font-size="10.00">&#45;messages.h</text>
</a>
</g>
</g>
<!-- Node7&#45;&gt;Node8 -->
<g id="edge7_Node000007_Node000008" class="edge">
<title>Node7&#45;&gt;Node8</title>
<g id="a_edge7_Node000007_Node000008"><a xlink:title=" ">
<path fill="none" stroke="#63b8ff" d="M513.5,-121.54C513.5,-112.96 513.5,-103.61 513.5,-96.16"/>
<polygon fill="#63b8ff" stroke="#63b8ff" points="510,-121.8 513.5,-131.8 517,-121.8 510,-121.8"/>
</a>
</g>
</g>
<!-- Node9 -->
<g id="Node000009" class="node">
<title>Node9</title>
<g id="a_Node000009"><a xlink:href="pluma-file-browser-plugin_8c.html" target="_top" xlink:title=" ">
<polygon fill="white" stroke="#666666" points="609,-30 500,-30 500,0 609,0 609,-30"/>
<text text-anchor="start" x="508" y="-18" font-family="Helvetica,sans-Serif" font-size="10.00">pluma&#45;file&#45;browser</text>
<text text-anchor="middle" x="554.5" y="-7" font-family="Helvetica,sans-Serif" font-size="10.00">&#45;plugin.c</text>
</a>
</g>
</g>
<!-- Node7&#45;&gt;Node9 -->
<g id="edge10_Node000007_Node000009" class="edge">
<title>Node7&#45;&gt;Node9</title>
<g id="a_edge10_Node000007_Node000009"><a xlink:title=" ">
<path fill="none" stroke="#63b8ff" d="M549.65,-126.03C560.3,-118.18 570.65,-108.1 576.5,-96 587.03,-74.21 574.26,-46.57 564.24,-30.14"/>
<polygon fill="#63b8ff" stroke="#63b8ff" points="547.41,-123.32 541.12,-131.85 551.35,-129.1 547.41,-123.32"/>
</a>
</g>
</g>
<!-- Node8&#45;&gt;Node3 -->
<g id="edge8_Node000008_Node000003" class="edge">
<title>Node8&#45;&gt;Node3</title>
<g id="a_edge8_Node000008_Node000003"><a xlink:title=" ">
<path fill="none" stroke="#63b8ff" d="M457.68,-62.99C423.89,-52.69 381.32,-39.72 349.48,-30.01"/>
<polygon fill="#63b8ff" stroke="#63b8ff" points="456.83,-66.39 467.41,-65.95 458.87,-59.69 456.83,-66.39"/>
</a>
</g>
</g>
<!-- Node8&#45;&gt;Node9 -->
<g id="edge9_Node000008_Node000009" class="edge">
<title>Node8&#45;&gt;Node9</title>
<g id="a_edge9_Node000008_Node000009"><a xlink:title=" ">
<path fill="none" stroke="#63b8ff" d="M528.08,-57.24C533.86,-48.21 540.34,-38.11 545.43,-30.16"/>
<polygon fill="#63b8ff" stroke="#63b8ff" points="525.05,-55.49 522.6,-65.8 530.94,-59.26 525.05,-55.49"/>
</a>
</g>
</g>
</g>
</svg>

<g id="navigator" transform="translate(0 0)" fill="#404254">
  <rect fill="#f2f5e9" fill-opacity="0.5" stroke="#606060" stroke-width=".5" x="0" y="0" width="60" height="60"/>
  <use id="zoomplus" xlink:href="#zoomPlus" x="17" y="9" onmousedown="handleZoom(evt,'in')"/>
  <use id="zoomminus" xlink:href="#zoomMin" x="42" y="9" onmousedown="handleZoom(evt,'out')"/>
  <use id="reset" xlink:href="#resetDef" x="30" y="36" onmousedown="handleReset()"/>
   <use id="arrowup" xlink:href="#arrowUp" x="0" y="0" onmousedown="handlePan(0,-1)"/>
  <use id="arrowright" xlink:href="#arrowRight" x="0" y="0" onmousedown="handlePan(1,0)"/>
  <use id="arrowdown" xlink:href="#arrowDown" x="0" y="0" onmousedown="handlePan(0,1)"/>
  <use id="arrowleft" xlink:href="#arrowLeft" x="0" y="0" onmousedown="handlePan(-1,0)"/>
</g>
<svg viewBox="0 0 15 15" width="100%" height="30px" preserveAspectRatio="xMaxYMin meet">
 <g id="arrow_out" transform="scale(0.3 0.3)">
  <a xlink:href="pluma-file-browser-store_8h__dep__incl_org.svg" target="_base">
   <rect id="button" ry="5" rx="5" y="6" x="6" height="38" width="38"
        fill="#f2f5e9" fill-opacity="0.5" stroke="#606060" stroke-width="1.0"/>
   <path id="arrow"
     d="M 11.500037,31.436501 C 11.940474,20.09759 22.043105,11.32322 32.158766,21.979434 L 37.068811,17.246167 C 37.068811,17.246167 37.088388,32 37.088388,32 L 22.160133,31.978069 C 22.160133,31.978069 26.997745,27.140456 26.997745,27.140456 C 18.528582,18.264221 13.291696,25.230495 11.500037,31.436501 z"
     style="fill:#404040;"/>
  </a>
 </g>
</svg>

<style type='text/css'>
<![CDATA[
[data-mouse-over-selected='false'] { opacity: 0.7; }
[data-mouse-over-selected='true']  { opacity: 1.0; }
]]>
</style>
<script type="application/ecmascript"><![CDATA[
document.addEventListener('DOMContentLoaded', (event) => {
  highlightEdges();
  highlightAdjacentNodes();
});
]]></script>
</svg>
