<?xml version="1.0" encoding="UTF-8" standalone="no"?>
<!DOCTYPE svg PUBLIC "-//W3C//DTD SVG 1.1//EN"
 "http://www.w3.org/Graphics/SVG/1.1/DTD/svg11.dtd">
<!-- Generated by graphviz version 2.43.0 (0)
 -->
<!-- Title: pluma&#45;document&#45;saver.c Pages: 1 -->
<!--zoomable 489 -->

<svg id="main" version="1.1" xmlns="http://www.w3.org/2000/svg" xmlns:xlink="http://www.w3.org/1999/xlink" xml:space="preserve" onload="init(evt)">

<style type="text/css"><![CDATA[
.node, .edge {opacity: 0.7;}
.node.selected, .edge.selected {opacity: 1;}
.edge:hover path { stroke: red; }
.edge:hover polygon { stroke: red; fill: red; }
]]></style>

<defs>
  <circle id="rim" cx="0" cy="0" r="7"/>
  <circle id="rim2" cx="0" cy="0" r="3.5"/>
  <g id="zoomPlus">
    <use xlink:href="#rim" fill="#404040"><set attributeName="fill" to="#808080" begin="zoomplus.mouseover" end="zoomplus.mouseout"/></use>
    <path d="M-4,0h8M0,-4v8" fill="none" stroke="white" stroke-width="1.5" pointer-events="none"/>
  </g>
  <g id="zoomMin">
    <use xlink:href="#rim" fill="#404040"><set attributeName="fill" to="#808080" begin="zoomminus.mouseover" end="zoomminus.mouseout"/></use>
    <path d="M-4,0h8" fill="none" stroke="white" stroke-width="1.5" pointer-events="none"/>
  </g>
  <g id="arrowUp" transform="translate(30 24)">
    <use xlink:href="#rim"/>
    <path pointer-events="none" fill="none" stroke="white" stroke-width="1.5" d="M0,-3.0v7 M-2.5,-0.5L0,-3.0L2.5,-0.5"/>
  </g>
  <g id="arrowRight" transform="rotate(90) translate(36 -43)">
    <use xlink:href="#rim"/>
    <path pointer-events="none" fill="none" stroke="white" stroke-width="1.5" d="M0,-3.0v7 M-2.5,-0.5L0,-3.0L2.5,-0.5"/>
  </g>
  <g id="arrowDown" transform="rotate(180) translate(-30 -48)">
    <use xlink:href="#rim"/>
    <path pointer-events="none" fill="none" stroke="white" stroke-width="1.5" d="M0,-3.0v7 M-2.5,-0.5L0,-3.0L2.5,-0.5"/>
  </g>
  <g id="arrowLeft" transform="rotate(270) translate(-36 17)">
    <use xlink:href="#rim"/>
    <path pointer-events="none" fill="none" stroke="white" stroke-width="1.5" d="M0,-3.0v7 M-2.5,-0.5L0,-3.0L2.5,-0.5"/>
  </g>
  <g id="resetDef">
    <use xlink:href="#rim2" fill="#404040"><set attributeName="fill" to="#808080" begin="reset.mouseover" end="reset.mouseout"/></use>
  </g>
</defs>
<script type="application/ecmascript">
var viewWidth = 1276;
var viewHeight = 489;
var sectionId = 'dynsection-0';
</script>
<script type="application/ecmascript" xlink:href="svg.min.js"/>
<svg id="graph" class="graph">
<g id="viewport">
<title>pluma&#45;document&#45;saver.c</title>
<!-- Node1 -->
<g id="Node000001" class="node">
<title>Node1</title>
<g id="a_Node000001"><a xlink:title=" ">
<polygon fill="#999999" stroke="#666666" points="591,-481 453,-481 453,-462 591,-462 591,-481"/>
<text text-anchor="middle" x="522" y="-469" font-family="Helvetica,sans-Serif" font-size="10.00">pluma&#45;document&#45;saver.c</text>
</a>
</g>
</g>
<!-- Node2 -->
<g id="Node000002" class="node">
<title>Node2</title>
<g id="a_Node000002"><a xlink:title=" ">
<polygon fill="#e0e0e0" stroke="#999999" points="74,-426 0,-426 0,-407 74,-407 74,-426"/>
<text text-anchor="middle" x="37" y="-414" font-family="Helvetica,sans-Serif" font-size="10.00">glib/gi18n.h</text>
</a>
</g>
</g>
<!-- Node1&#45;&gt;Node2 -->
<g id="edge1_Node000001_Node000002" class="edge">
<title>Node1&#45;&gt;Node2</title>
<g id="a_edge1_Node000001_Node000002"><a xlink:title=" ">
<path fill="none" stroke="#63b8ff" d="M452.69,-464.75C366.88,-457.32 216.36,-443.26 88,-426 86.72,-425.83 85.43,-425.65 84.13,-425.46"/>
<polygon fill="#63b8ff" stroke="#63b8ff" points="84.41,-421.97 74.01,-423.95 83.38,-428.89 84.41,-421.97"/>
</a>
</g>
</g>
<!-- Node3 -->
<g id="Node000003" class="node">
<title>Node3</title>
<g id="a_Node000003"><a xlink:title=" ">
<polygon fill="#e0e0e0" stroke="#999999" points="200,-19 156,-19 156,0 200,0 200,-19"/>
<text text-anchor="middle" x="178" y="-7" font-family="Helvetica,sans-Serif" font-size="10.00">glib.h</text>
</a>
</g>
</g>
<!-- Node1&#45;&gt;Node3 -->
<g id="edge2_Node000001_Node000003" class="edge">
<title>Node1&#45;&gt;Node3</title>
<g id="a_edge2_Node000001_Node000003"><a xlink:title=" ">
<path fill="none" stroke="#63b8ff" d="M452.82,-465.15C342.74,-454.71 140,-426.77 140,-362.5 140,-362.5 140,-362.5 140,-124 140,-88.48 156.94,-49.79 168.2,-28"/>
<polygon fill="#63b8ff" stroke="#63b8ff" points="171.39,-29.47 173.03,-19 165.22,-26.16 171.39,-29.47"/>
</a>
</g>
</g>
<!-- Node4 -->
<g id="Node000004" class="node">
<title>Node4</title>
<g id="a_Node000004"><a xlink:title=" ">
<polygon fill="#e0e0e0" stroke="#999999" points="892.5,-74 833.5,-74 833.5,-55 892.5,-55 892.5,-74"/>
<text text-anchor="middle" x="863" y="-62" font-family="Helvetica,sans-Serif" font-size="10.00">gio/gio.h</text>
</a>
</g>
</g>
<!-- Node1&#45;&gt;Node4 -->
<g id="edge3_Node000001_Node000004" class="edge">
<title>Node1&#45;&gt;Node4</title>
<g id="a_edge3_Node000001_Node000004"><a xlink:title=" ">
<path fill="none" stroke="#63b8ff" d="M591.33,-466.31C707.29,-457.38 928,-431.33 928,-362.5 928,-362.5 928,-362.5 928,-190 928,-146.97 897.12,-104.11 877.93,-81.63"/>
<polygon fill="#63b8ff" stroke="#63b8ff" points="880.48,-79.23 871.23,-74.05 875.23,-83.86 880.48,-79.23"/>
</a>
</g>
</g>
<!-- Node5 -->
<g id="Node000005" class="node">
<title>Node5</title>
<g id="a_Node000005"><a xlink:title=" ">
<polygon fill="#e0e0e0" stroke="#999999" points="1047.5,-426 994.5,-426 994.5,-407 1047.5,-407 1047.5,-426"/>
<text text-anchor="middle" x="1021" y="-414" font-family="Helvetica,sans-Serif" font-size="10.00">string.h</text>
</a>
</g>
</g>
<!-- Node1&#45;&gt;Node5 -->
<g id="edge4_Node000001_Node000005" class="edge">
<title>Node1&#45;&gt;Node5</title>
<g id="a_edge4_Node000001_Node000005"><a xlink:title=" ">
<path fill="none" stroke="#63b8ff" d="M591.34,-466.09C681.31,-459.85 842.96,-446.8 980,-426 981.29,-425.8 982.61,-425.59 983.93,-425.37"/>
<polygon fill="#63b8ff" stroke="#63b8ff" points="984.96,-428.74 994.17,-423.49 983.7,-421.86 984.96,-428.74"/>
</a>
</g>
</g>
<!-- Node6 -->
<g id="Node000006" class="node">
<title>Node6</title>
<g id="a_Node000006"><a xlink:href="pluma-document-saver_8h.html" target="_top" xlink:title=" ">
<polygon fill="white" stroke="#666666" points="522.5,-316 383.5,-316 383.5,-297 522.5,-297 522.5,-316"/>
<text text-anchor="middle" x="453" y="-304" font-family="Helvetica,sans-Serif" font-size="10.00">pluma&#45;document&#45;saver.h</text>
</a>
</g>
</g>
<!-- Node1&#45;&gt;Node6 -->
<g id="edge5_Node000001_Node000006" class="edge">
<title>Node1&#45;&gt;Node6</title>
<g id="a_edge5_Node000001_Node000006"><a xlink:title=" ">
<path fill="none" stroke="#63b8ff" d="M518.29,-461.74C507.43,-436.09 475.56,-360.78 460.74,-325.78"/>
<polygon fill="#63b8ff" stroke="#63b8ff" points="463.85,-324.15 456.73,-316.31 457.4,-326.88 463.85,-324.15"/>
</a>
</g>
</g>
<!-- Node12 -->
<g id="Node000012" class="node">
<title>Node12</title>
<g id="a_Node000012"><a xlink:href="pluma-document-input-stream_8h.html" target="_top" xlink:title=" ">
<polygon fill="white" stroke="#666666" points="862,-206 734,-206 734,-176 862,-176 862,-206"/>
<text text-anchor="start" x="742" y="-194" font-family="Helvetica,sans-Serif" font-size="10.00">pluma&#45;document&#45;input</text>
<text text-anchor="middle" x="798" y="-183" font-family="Helvetica,sans-Serif" font-size="10.00">&#45;stream.h</text>
</a>
</g>
</g>
<!-- Node1&#45;&gt;Node12 -->
<g id="edge13_Node000001_Node000012" class="edge">
<title>Node1&#45;&gt;Node12</title>
<g id="a_edge13_Node000001_Node000012"><a xlink:title=" ">
<path fill="none" stroke="#63b8ff" d="M588.74,-462C683.59,-448.02 846,-416.23 846,-362.5 846,-362.5 846,-362.5 846,-305.5 846,-271.99 828.03,-237 814.08,-214.88"/>
<polygon fill="#63b8ff" stroke="#63b8ff" points="816.82,-212.68 808.42,-206.23 810.97,-216.52 816.82,-212.68"/>
</a>
</g>
</g>
<!-- Node13 -->
<g id="Node000013" class="node">
<title>Node13</title>
<g id="a_Node000013"><a xlink:href="pluma-debug_8h.html" target="_top" xlink:title=" ">
<polygon fill="white" stroke="#666666" points="112,-371 22,-371 22,-352 112,-352 112,-371"/>
<text text-anchor="middle" x="67" y="-359" font-family="Helvetica,sans-Serif" font-size="10.00">pluma&#45;debug.h</text>
</a>
</g>
</g>
<!-- Node1&#45;&gt;Node13 -->
<g id="edge17_Node000001_Node000013" class="edge">
<title>Node1&#45;&gt;Node13</title>
<g id="a_edge17_Node000001_Node000013"><a xlink:title=" ">
<path fill="none" stroke="#63b8ff" d="M452.72,-468.47C354.79,-464.64 181.6,-454.03 126,-426 105.3,-415.56 88.15,-394.7 77.77,-379.73"/>
<polygon fill="#63b8ff" stroke="#63b8ff" points="80.65,-377.73 72.22,-371.32 74.81,-381.59 80.65,-377.73"/>
</a>
</g>
</g>
<!-- Node14 -->
<g id="Node000014" class="node">
<title>Node14</title>
<g id="a_Node000014"><a xlink:href="pluma-utils_8h.html" target="_top" xlink:title=" ">
<polygon fill="white" stroke="#666666" points="325.5,-134.5 244.5,-134.5 244.5,-115.5 325.5,-115.5 325.5,-134.5"/>
<text text-anchor="middle" x="285" y="-122.5" font-family="Helvetica,sans-Serif" font-size="10.00">pluma&#45;utils.h</text>
</a>
</g>
</g>
<!-- Node1&#45;&gt;Node14 -->
<g id="edge19_Node000001_Node000014" class="edge">
<title>Node1&#45;&gt;Node14</title>
<g id="a_edge19_Node000001_Node000014"><a xlink:title=" ">
<path fill="none" stroke="#63b8ff" d="M452.74,-463.2C392.23,-452.53 314,-426.38 314,-362.5 314,-362.5 314,-362.5 314,-250.5 314,-211.82 300.56,-168.09 291.98,-144.13"/>
<polygon fill="#63b8ff" stroke="#63b8ff" points="295.2,-142.75 288.44,-134.59 288.64,-145.19 295.2,-142.75"/>
</a>
</g>
</g>
<!-- Node16 -->
<g id="Node000016" class="node">
<title>Node16</title>
<g id="a_Node000016"><a xlink:href="pluma-enum-types_8h.html" target="_top" xlink:title=" ">
<polygon fill="white" stroke="#666666" points="1113.5,-371 994.5,-371 994.5,-352 1113.5,-352 1113.5,-371"/>
<text text-anchor="middle" x="1054" y="-359" font-family="Helvetica,sans-Serif" font-size="10.00">pluma&#45;enum&#45;types.h</text>
</a>
</g>
</g>
<!-- Node1&#45;&gt;Node16 -->
<g id="edge25_Node000001_Node000016" class="edge">
<title>Node1&#45;&gt;Node16</title>
<g id="a_edge25_Node000001_Node000016"><a xlink:title=" ">
<path fill="none" stroke="#63b8ff" d="M591.07,-466.61C692.99,-460.28 878.47,-446.4 942,-426 976.82,-414.82 1012.89,-391.99 1034.38,-376.97"/>
<polygon fill="#63b8ff" stroke="#63b8ff" points="1036.54,-379.72 1042.65,-371.07 1032.48,-374.03 1036.54,-379.72"/>
</a>
</g>
</g>
<!-- Node17 -->
<g id="Node000017" class="node">
<title>Node17</title>
<g id="a_Node000017"><a xlink:href="pluma-settings_8h.html" target="_top" xlink:title=" ">
<polygon fill="white" stroke="#666666" points="625.5,-426 526.5,-426 526.5,-407 625.5,-407 625.5,-426"/>
<text text-anchor="middle" x="576" y="-414" font-family="Helvetica,sans-Serif" font-size="10.00">pluma&#45;settings.h</text>
</a>
</g>
</g>
<!-- Node1&#45;&gt;Node17 -->
<g id="edge27_Node000001_Node000017" class="edge">
<title>Node1&#45;&gt;Node17</title>
<g id="a_edge27_Node000001_Node000017"><a xlink:title=" ">
<path fill="none" stroke="#63b8ff" d="M530.92,-461.75C538.78,-454.03 550.43,-442.6 559.92,-433.28"/>
<polygon fill="#63b8ff" stroke="#63b8ff" points="562.56,-435.59 567.25,-426.09 557.66,-430.6 562.56,-435.59"/>
</a>
</g>
</g>
<!-- Node7 -->
<g id="Node000007" class="node">
<title>Node7</title>
<g id="a_Node000007"><a xlink:href="pluma-document_8h.html" target="_top" xlink:title=" ">
<polygon fill="white" stroke="#666666" points="525.5,-134.5 382.5,-134.5 382.5,-115.5 525.5,-115.5 525.5,-134.5"/>
<text text-anchor="middle" x="454" y="-122.5" font-family="Helvetica,sans-Serif" font-size="10.00">pluma/pluma&#45;document.h</text>
</a>
</g>
</g>
<!-- Node6&#45;&gt;Node7 -->
<g id="edge6_Node000006_Node000007" class="edge">
<title>Node6&#45;&gt;Node7</title>
<g id="a_edge6_Node000006_Node000007"><a xlink:title=" ">
<path fill="none" stroke="#63b8ff" d="M448.97,-296.96C439.68,-276.13 418.34,-221.18 429,-176 431.71,-164.5 437.5,-152.64 442.82,-143.35"/>
<polygon fill="#63b8ff" stroke="#63b8ff" points="445.86,-145.09 448.05,-134.73 439.87,-141.46 445.86,-145.09"/>
</a>
</g>
</g>
<!-- Node7&#45;&gt;Node4 -->
<g id="edge7_Node000007_Node000004" class="edge">
<title>Node7&#45;&gt;Node4</title>
<g id="a_edge7_Node000007_Node000004"><a xlink:title=" ">
<path fill="none" stroke="#63b8ff" d="M513.47,-115.49C598.15,-103.38 751.18,-81.49 823.33,-71.17"/>
<polygon fill="#63b8ff" stroke="#63b8ff" points="823.96,-74.62 833.37,-69.74 822.97,-67.69 823.96,-74.62"/>
</a>
</g>
</g>
<!-- Node8 -->
<g id="Node000008" class="node">
<title>Node8</title>
<g id="a_Node000008"><a xlink:title=" ">
<polygon fill="#e0e0e0" stroke="#999999" points="710,-74 650,-74 650,-55 710,-55 710,-74"/>
<text text-anchor="middle" x="680" y="-62" font-family="Helvetica,sans-Serif" font-size="10.00">gtk/gtk.h</text>
</a>
</g>
</g>
<!-- Node7&#45;&gt;Node8 -->
<g id="edge8_Node000007_Node000008" class="edge">
<title>Node7&#45;&gt;Node8</title>
<g id="a_edge8_Node000007_Node000008"><a xlink:title=" ">
<path fill="none" stroke="#63b8ff" d="M486.86,-115.49C527.52,-104.97 596.7,-87.06 640.29,-75.78"/>
<polygon fill="#63b8ff" stroke="#63b8ff" points="641.18,-79.16 649.99,-73.27 639.43,-72.39 641.18,-79.16"/>
</a>
</g>
</g>
<!-- Node9 -->
<g id="Node000009" class="node">
<title>Node9</title>
<g id="a_Node000009"><a xlink:title=" ">
<polygon fill="#e0e0e0" stroke="#999999" points="632,-74 484,-74 484,-55 632,-55 632,-74"/>
<text text-anchor="middle" x="558" y="-62" font-family="Helvetica,sans-Serif" font-size="10.00">gtksourceview/gtksource.h</text>
</a>
</g>
</g>
<!-- Node7&#45;&gt;Node9 -->
<g id="edge9_Node000007_Node000009" class="edge">
<title>Node7&#45;&gt;Node9</title>
<g id="a_edge9_Node000007_Node000009"><a xlink:title=" ">
<path fill="none" stroke="#63b8ff" d="M469.35,-115.37C486.32,-105.82 513.9,-90.31 533.79,-79.12"/>
<polygon fill="#63b8ff" stroke="#63b8ff" points="535.59,-82.12 542.59,-74.17 532.16,-76.02 535.59,-82.12"/>
</a>
</g>
</g>
<!-- Node10 -->
<g id="Node000010" class="node">
<title>Node10</title>
<g id="a_Node000010"><a xlink:href="pluma-encodings_8h.html" target="_top" xlink:title=" ">
<polygon fill="white" stroke="#666666" points="465.5,-74 322.5,-74 322.5,-55 465.5,-55 465.5,-74"/>
<text text-anchor="middle" x="394" y="-62" font-family="Helvetica,sans-Serif" font-size="10.00">pluma/pluma&#45;encodings.h</text>
</a>
</g>
</g>
<!-- Node7&#45;&gt;Node10 -->
<g id="edge10_Node000007_Node000010" class="edge">
<title>Node7&#45;&gt;Node10</title>
<g id="a_edge10_Node000007_Node000010"><a xlink:title=" ">
<path fill="none" stroke="#63b8ff" d="M445.15,-115.37C436.02,-106.47 421.58,-92.39 410.36,-81.45"/>
<polygon fill="#63b8ff" stroke="#63b8ff" points="412.49,-78.64 402.89,-74.17 407.61,-83.65 412.49,-78.64"/>
</a>
</g>
</g>
<!-- Node10&#45;&gt;Node3 -->
<g id="edge11_Node000010_Node000003" class="edge">
<title>Node10&#45;&gt;Node3</title>
<g id="a_edge11_Node000010_Node000003"><a xlink:title=" ">
<path fill="none" stroke="#63b8ff" d="M359.3,-54.98C318.05,-44.86 249.79,-28.11 209.84,-18.31"/>
<polygon fill="#63b8ff" stroke="#63b8ff" points="210.63,-14.9 200.09,-15.92 208.97,-21.7 210.63,-14.9"/>
</a>
</g>
</g>
<!-- Node11 -->
<g id="Node000011" class="node">
<title>Node11</title>
<g id="a_Node000011"><a xlink:title=" ">
<polygon fill="#e0e0e0" stroke="#999999" points="1061.5,-19 984.5,-19 984.5,0 1061.5,0 1061.5,-19"/>
<text text-anchor="middle" x="1023" y="-7" font-family="Helvetica,sans-Serif" font-size="10.00">glib&#45;object.h</text>
</a>
</g>
</g>
<!-- Node10&#45;&gt;Node11 -->
<g id="edge12_Node000010_Node000011" class="edge">
<title>Node10&#45;&gt;Node11</title>
<g id="a_edge12_Node000010_Node000011"><a xlink:title=" ">
<path fill="none" stroke="#63b8ff" d="M465.54,-55.9C468.74,-55.59 471.9,-55.29 475,-55 659.13,-37.87 878.42,-21.18 974.2,-14.08"/>
<polygon fill="#63b8ff" stroke="#63b8ff" points="974.72,-17.55 984.44,-13.32 974.21,-10.57 974.72,-17.55"/>
</a>
</g>
</g>
<!-- Node12&#45;&gt;Node4 -->
<g id="edge14_Node000012_Node000004" class="edge">
<title>Node12&#45;&gt;Node4</title>
<g id="a_edge14_Node000012_Node000004"><a xlink:title=" ">
<path fill="none" stroke="#63b8ff" d="M805.46,-175.72C817.41,-152.81 840.85,-107.93 853.82,-83.09"/>
<polygon fill="#63b8ff" stroke="#63b8ff" points="857,-84.55 858.53,-74.07 850.8,-81.31 857,-84.55"/>
</a>
</g>
</g>
<!-- Node12&#45;&gt;Node7 -->
<g id="edge16_Node000012_Node000007" class="edge">
<title>Node12&#45;&gt;Node7</title>
<g id="a_edge16_Node000012_Node000007"><a xlink:title=" ">
<path fill="none" stroke="#63b8ff" d="M733.7,-178.04C669.23,-166.04 570.97,-147.76 509.72,-136.37"/>
<polygon fill="#63b8ff" stroke="#63b8ff" points="510.31,-132.92 499.84,-134.53 509.03,-139.8 510.31,-132.92"/>
</a>
</g>
</g>
<!-- Node12&#45;&gt;Node8 -->
<g id="edge15_Node000012_Node000008" class="edge">
<title>Node12&#45;&gt;Node8</title>
<g id="a_edge15_Node000012_Node000008"><a xlink:title=" ">
<path fill="none" stroke="#63b8ff" d="M784.46,-175.72C762.27,-152.31 718.31,-105.92 695.13,-81.46"/>
<polygon fill="#63b8ff" stroke="#63b8ff" points="697.54,-78.92 688.12,-74.07 692.46,-83.74 697.54,-78.92"/>
</a>
</g>
</g>
<!-- Node13&#45;&gt;Node3 -->
<g id="edge18_Node000013_Node000003" class="edge">
<title>Node13&#45;&gt;Node3</title>
<g id="a_edge18_Node000013_Node000003"><a xlink:title=" ">
<path fill="none" stroke="#63b8ff" d="M69.29,-351.89C73.93,-333.69 84,-289.89 84,-252.5 84,-252.5 84,-252.5 84,-124 84,-79.67 127.05,-43.36 154.88,-24.52"/>
<polygon fill="#63b8ff" stroke="#63b8ff" points="156.85,-27.42 163.31,-19.02 153.02,-21.55 156.85,-27.42"/>
</a>
</g>
</g>
<!-- Node14&#45;&gt;Node3 -->
<g id="edge20_Node000014_Node000003" class="edge">
<title>Node14&#45;&gt;Node3</title>
<g id="a_edge20_Node000014_Node000003"><a xlink:title=" ">
<path fill="none" stroke="#63b8ff" d="M276,-115.29C265.88,-105.42 249.02,-88.79 235,-74 220.12,-58.3 203.67,-39.85 192.28,-26.9"/>
<polygon fill="#63b8ff" stroke="#63b8ff" points="194.82,-24.48 185.6,-19.26 189.55,-29.09 194.82,-24.48"/>
</a>
</g>
</g>
<!-- Node14&#45;&gt;Node8 -->
<g id="edge21_Node000014_Node000008" class="edge">
<title>Node14&#45;&gt;Node8</title>
<g id="a_edge21_Node000014_Node000008"><a xlink:title=" ">
<path fill="none" stroke="#63b8ff" d="M325.73,-117.4C340.88,-115 358.21,-112.31 374,-110 489.24,-93.17 521.34,-94.67 639.63,-74.12"/>
<polygon fill="#63b8ff" stroke="#63b8ff" points="640.57,-77.51 649.81,-72.33 639.36,-70.61 640.57,-77.51"/>
</a>
</g>
</g>
<!-- Node14&#45;&gt;Node9 -->
<g id="edge24_Node000014_Node000009" class="edge">
<title>Node14&#45;&gt;Node9</title>
<g id="a_edge24_Node000014_Node000009"><a xlink:title=" ">
<path fill="none" stroke="#63b8ff" d="M317.51,-115.45C324.89,-113.59 332.7,-111.67 340,-110 395.19,-97.35 458.65,-84.6 502.82,-76.01"/>
<polygon fill="#63b8ff" stroke="#63b8ff" points="503.62,-79.42 512.77,-74.08 502.29,-72.54 503.62,-79.42"/>
</a>
</g>
</g>
<!-- Node14&#45;&gt;Node10 -->
<g id="edge23_Node000014_Node000010" class="edge">
<title>Node14&#45;&gt;Node10</title>
<g id="a_edge23_Node000014_Node000010"><a xlink:title=" ">
<path fill="none" stroke="#63b8ff" d="M301.08,-115.37C318.95,-105.78 348.04,-90.17 368.91,-78.97"/>
<polygon fill="#63b8ff" stroke="#63b8ff" points="370.69,-81.98 377.85,-74.17 367.38,-75.81 370.69,-81.98"/>
</a>
</g>
</g>
<!-- Node15 -->
<g id="Node000015" class="node">
<title>Node15</title>
<g id="a_Node000015"><a xlink:title=" ">
<polygon fill="#e0e0e0" stroke="#999999" points="304,-74 244,-74 244,-55 304,-55 304,-74"/>
<text text-anchor="middle" x="274" y="-62" font-family="Helvetica,sans-Serif" font-size="10.00">atk/atk.h</text>
</a>
</g>
</g>
<!-- Node14&#45;&gt;Node15 -->
<g id="edge22_Node000014_Node000015" class="edge">
<title>Node14&#45;&gt;Node15</title>
<g id="a_edge22_Node000014_Node000015"><a xlink:title=" ">
<path fill="none" stroke="#63b8ff" d="M283.38,-115.37C281.83,-107.16 279.46,-94.54 277.49,-84.05"/>
<polygon fill="#63b8ff" stroke="#63b8ff" points="280.92,-83.35 275.63,-74.17 274.04,-84.64 280.92,-83.35"/>
</a>
</g>
</g>
<!-- Node16&#45;&gt;Node11 -->
<g id="edge26_Node000016_Node000011" class="edge">
<title>Node16&#45;&gt;Node11</title>
<g id="a_edge26_Node000016_Node000011"><a xlink:title=" ">
<path fill="none" stroke="#63b8ff" d="M1052.38,-351.86C1049.11,-333.59 1042,-289.66 1042,-252.5 1042,-252.5 1042,-252.5 1042,-124 1042,-90.16 1033.68,-51.41 1028.05,-29.07"/>
<polygon fill="#63b8ff" stroke="#63b8ff" points="1031.4,-28.03 1025.48,-19.25 1024.63,-29.81 1031.4,-28.03"/>
</a>
</g>
</g>
<!-- Node17&#45;&gt;Node3 -->
<g id="edge29_Node000017_Node000003" class="edge">
<title>Node17&#45;&gt;Node3</title>
<g id="a_edge29_Node000017_Node000003"><a xlink:title=" ">
<path fill="none" stroke="#63b8ff" d="M526.4,-412.48C419.71,-404.61 178,-378.92 178,-307.5 178,-307.5 178,-307.5 178,-124 178,-90.61 178,-51.69 178,-29.19"/>
<polygon fill="#63b8ff" stroke="#63b8ff" points="181.5,-29.04 178,-19.04 174.5,-29.04 181.5,-29.04"/>
</a>
</g>
</g>
<!-- Node17&#45;&gt;Node11 -->
<g id="edge28_Node000017_Node000011" class="edge">
<title>Node17&#45;&gt;Node11</title>
<g id="a_edge28_Node000017_Node000011"><a xlink:title=" ">
<path fill="none" stroke="#63b8ff" d="M625.79,-412.19C730.93,-403.82 966,-377.32 966,-307.5 966,-307.5 966,-307.5 966,-124 966,-86.18 991.58,-48.1 1008.47,-27.07"/>
<polygon fill="#63b8ff" stroke="#63b8ff" points="1011.35,-29.08 1015.07,-19.16 1005.98,-24.59 1011.35,-29.08"/>
</a>
</g>
</g>
<!-- Node18 -->
<g id="Node000018" class="node">
<title>Node18</title>
<g id="a_Node000018"><a xlink:href="pluma-app_8h.html" target="_top" xlink:title=" ">
<polygon fill="white" stroke="#666666" points="631,-371 553,-371 553,-352 631,-352 631,-371"/>
<text text-anchor="middle" x="592" y="-359" font-family="Helvetica,sans-Serif" font-size="10.00">pluma&#45;app.h</text>
</a>
</g>
</g>
<!-- Node17&#45;&gt;Node18 -->
<g id="edge30_Node000017_Node000018" class="edge">
<title>Node17&#45;&gt;Node18</title>
<g id="a_edge30_Node000017_Node000018"><a xlink:title=" ">
<path fill="none" stroke="#63b8ff" d="M578.64,-406.75C580.76,-399.72 583.81,-389.62 586.46,-380.84"/>
<polygon fill="#63b8ff" stroke="#63b8ff" points="589.87,-381.67 589.41,-371.09 583.17,-379.65 589.87,-381.67"/>
</a>
</g>
</g>
<!-- Node18&#45;&gt;Node8 -->
<g id="edge31_Node000018_Node000008" class="edge">
<title>Node18&#45;&gt;Node8</title>
<g id="a_edge31_Node000018_Node000008"><a xlink:title=" ">
<path fill="none" stroke="#63b8ff" d="M592,-351.82C592,-333.48 592,-289.44 592,-252.5 592,-252.5 592,-252.5 592,-190 592,-143.39 633.64,-101.99 659.63,-80.69"/>
<polygon fill="#63b8ff" stroke="#63b8ff" points="662.09,-83.21 667.76,-74.26 657.75,-77.72 662.09,-83.21"/>
</a>
</g>
</g>
<!-- Node19 -->
<g id="Node000019" class="node">
<title>Node19</title>
<g id="a_Node000019"><a xlink:href="pluma-window_8h.html" target="_top" xlink:title=" ">
<polygon fill="white" stroke="#666666" points="784.5,-316 653.5,-316 653.5,-297 784.5,-297 784.5,-316"/>
<text text-anchor="middle" x="719" y="-304" font-family="Helvetica,sans-Serif" font-size="10.00">pluma/pluma&#45;window.h</text>
</a>
</g>
</g>
<!-- Node18&#45;&gt;Node19 -->
<g id="edge32_Node000018_Node000019" class="edge">
<title>Node18&#45;&gt;Node19</title>
<g id="a_edge32_Node000018_Node000019"><a xlink:title=" ">
<path fill="none" stroke="#63b8ff" d="M612.4,-351.98C633.02,-343.38 665.11,-329.99 688.69,-320.15"/>
<polygon fill="#63b8ff" stroke="#63b8ff" points="690.34,-323.25 698.22,-316.17 687.65,-316.79 690.34,-323.25"/>
</a>
</g>
</g>
<!-- Node19&#45;&gt;Node4 -->
<g id="edge33_Node000019_Node000004" class="edge">
<title>Node19&#45;&gt;Node4</title>
<g id="a_edge33_Node000019_Node000004"><a xlink:title=" ">
<path fill="none" stroke="#63b8ff" d="M751.44,-296.86C774.12,-289.75 804.29,-278.03 827,-261 852.04,-242.22 860.64,-235.54 871,-206 885.64,-164.26 875.57,-111.28 868.42,-83.84"/>
<polygon fill="#63b8ff" stroke="#63b8ff" points="871.75,-82.75 865.7,-74.05 865,-84.62 871.75,-82.75"/>
</a>
</g>
</g>
<!-- Node19&#45;&gt;Node8 -->
<g id="edge34_Node000019_Node000008" class="edge">
<title>Node19&#45;&gt;Node8</title>
<g id="a_edge34_Node000019_Node000008"><a xlink:title=" ">
<path fill="none" stroke="#63b8ff" d="M710.65,-296.81C703.17,-288.4 692.69,-274.92 688,-261 667.17,-199.12 673.11,-119.96 677.36,-84.35"/>
<polygon fill="#63b8ff" stroke="#63b8ff" points="680.84,-84.76 678.65,-74.39 673.9,-83.86 680.84,-84.76"/>
</a>
</g>
</g>
<!-- Node20 -->
<g id="Node000020" class="node">
<title>Node20</title>
<g id="a_Node000020"><a xlink:href="pluma-tab_8h.html" target="_top" xlink:title=" ">
<polygon fill="white" stroke="#666666" points="562,-261 452,-261 452,-242 562,-242 562,-261"/>
<text text-anchor="middle" x="507" y="-249" font-family="Helvetica,sans-Serif" font-size="10.00">pluma/pluma&#45;tab.h</text>
</a>
</g>
</g>
<!-- Node19&#45;&gt;Node20 -->
<g id="edge35_Node000019_Node000020" class="edge">
<title>Node19&#45;&gt;Node20</title>
<g id="a_edge35_Node000019_Node000020"><a xlink:title=" ">
<path fill="none" stroke="#63b8ff" d="M684.94,-296.98C648.58,-287.89 590.83,-273.46 551.03,-263.51"/>
<polygon fill="#63b8ff" stroke="#63b8ff" points="551.88,-260.11 541.33,-261.08 550.18,-266.9 551.88,-260.11"/>
</a>
</g>
</g>
<!-- Node22 -->
<g id="Node000022" class="node">
<title>Node22</title>
<g id="a_Node000022"><a xlink:href="pluma-panel_8h.html" target="_top" xlink:title=" ">
<polygon fill="white" stroke="#666666" points="817.5,-261 696.5,-261 696.5,-242 817.5,-242 817.5,-261"/>
<text text-anchor="middle" x="757" y="-249" font-family="Helvetica,sans-Serif" font-size="10.00">pluma/pluma&#45;panel.h</text>
</a>
</g>
</g>
<!-- Node19&#45;&gt;Node22 -->
<g id="edge42_Node000019_Node000022" class="edge">
<title>Node19&#45;&gt;Node22</title>
<g id="a_edge42_Node000019_Node000022"><a xlink:title=" ">
<path fill="none" stroke="#63b8ff" d="M725.27,-296.75C730.59,-289.34 738.36,-278.5 744.88,-269.41"/>
<polygon fill="#63b8ff" stroke="#63b8ff" points="747.86,-271.26 750.84,-261.09 742.17,-267.18 747.86,-271.26"/>
</a>
</g>
</g>
<!-- Node23 -->
<g id="Node000023" class="node">
<title>Node23</title>
<g id="a_Node000023"><a xlink:href="pluma-message-bus_8h.html" target="_top" xlink:title=" ">
<polygon fill="white" stroke="#666666" points="1199.5,-206 1070.5,-206 1070.5,-176 1199.5,-176 1199.5,-206"/>
<text text-anchor="start" x="1078.5" y="-194" font-family="Helvetica,sans-Serif" font-size="10.00">pluma/pluma&#45;message</text>
<text text-anchor="middle" x="1135" y="-183" font-family="Helvetica,sans-Serif" font-size="10.00">&#45;bus.h</text>
</a>
</g>
</g>
<!-- Node19&#45;&gt;Node23 -->
<g id="edge44_Node000019_Node000023" class="edge">
<title>Node19&#45;&gt;Node23</title>
<g id="a_edge44_Node000019_Node000023"><a xlink:title=" ">
<path fill="none" stroke="#63b8ff" d="M757.06,-296.98C794.57,-288.43 853.44,-274.62 904,-261 964.93,-244.58 1034.22,-223.57 1080.89,-209.07"/>
<polygon fill="#63b8ff" stroke="#63b8ff" points="1081.98,-212.39 1090.49,-206.08 1079.9,-205.71 1081.98,-212.39"/>
</a>
</g>
</g>
<!-- Node20&#45;&gt;Node7 -->
<g id="edge41_Node000020_Node000007" class="edge">
<title>Node20&#45;&gt;Node7</title>
<g id="a_edge41_Node000020_Node000007"><a xlink:title=" ">
<path fill="none" stroke="#63b8ff" d="M483.22,-241.92C467.57,-234.89 448.33,-223.25 439,-206 428.43,-186.44 436.52,-160.7 444.32,-143.77"/>
<polygon fill="#63b8ff" stroke="#63b8ff" points="447.62,-145.01 448.98,-134.5 441.36,-141.87 447.62,-145.01"/>
</a>
</g>
</g>
<!-- Node20&#45;&gt;Node8 -->
<g id="edge36_Node000020_Node000008" class="edge">
<title>Node20&#45;&gt;Node8</title>
<g id="a_edge36_Node000020_Node000008"><a xlink:title=" ">
<path fill="none" stroke="#63b8ff" d="M522.71,-241.89C536.78,-233.74 557.52,-220.61 573,-206 614.28,-167.03 651.83,-110.93 669.44,-82.87"/>
<polygon fill="#63b8ff" stroke="#63b8ff" points="672.53,-84.53 674.81,-74.18 666.57,-80.85 672.53,-84.53"/>
</a>
</g>
</g>
<!-- Node21 -->
<g id="Node000021" class="node">
<title>Node21</title>
<g id="a_Node000021"><a xlink:href="pluma-view_8h.html" target="_top" xlink:title=" ">
<polygon fill="white" stroke="#666666" points="564,-200.5 448,-200.5 448,-181.5 564,-181.5 564,-200.5"/>
<text text-anchor="middle" x="506" y="-188.5" font-family="Helvetica,sans-Serif" font-size="10.00">pluma/pluma&#45;view.h</text>
</a>
</g>
</g>
<!-- Node20&#45;&gt;Node21 -->
<g id="edge37_Node000020_Node000021" class="edge">
<title>Node20&#45;&gt;Node21</title>
<g id="a_edge37_Node000020_Node000021"><a xlink:title=" ">
<path fill="none" stroke="#63b8ff" d="M506.85,-241.87C506.71,-233.75 506.5,-221.31 506.32,-210.89"/>
<polygon fill="#63b8ff" stroke="#63b8ff" points="509.82,-210.61 506.15,-200.67 502.82,-210.73 509.82,-210.61"/>
</a>
</g>
</g>
<!-- Node21&#45;&gt;Node7 -->
<g id="edge39_Node000021_Node000007" class="edge">
<title>Node21&#45;&gt;Node7</title>
<g id="a_edge39_Node000021_Node000007"><a xlink:title=" ">
<path fill="none" stroke="#63b8ff" d="M498.99,-181.37C490.97,-171.5 477.65,-155.11 467.58,-142.72"/>
<polygon fill="#63b8ff" stroke="#63b8ff" points="470.26,-140.46 461.24,-134.91 464.83,-144.87 470.26,-140.46"/>
</a>
</g>
</g>
<!-- Node21&#45;&gt;Node8 -->
<g id="edge38_Node000021_Node000008" class="edge">
<title>Node21&#45;&gt;Node8</title>
<g id="a_edge38_Node000021_Node000008"><a xlink:title=" ">
<path fill="none" stroke="#63b8ff" d="M511.79,-181.43C522.95,-165.49 548.9,-130.98 578,-110 597.53,-95.92 622.21,-85 642.41,-77.51"/>
<polygon fill="#63b8ff" stroke="#63b8ff" points="643.68,-80.77 651.92,-74.1 641.32,-74.18 643.68,-80.77"/>
</a>
</g>
</g>
<!-- Node21&#45;&gt;Node9 -->
<g id="edge40_Node000021_Node000009" class="edge">
<title>Node21&#45;&gt;Node9</title>
<g id="a_edge40_Node000021_Node000009"><a xlink:title=" ">
<path fill="none" stroke="#63b8ff" d="M463.06,-181.41C414.48,-169.74 345.58,-146.11 374,-110 386.84,-93.68 431.84,-82.63 474.12,-75.62"/>
<polygon fill="#63b8ff" stroke="#63b8ff" points="474.89,-79.04 484.22,-74.01 473.79,-72.13 474.89,-79.04"/>
</a>
</g>
</g>
<!-- Node22&#45;&gt;Node8 -->
<g id="edge43_Node000022_Node000008" class="edge">
<title>Node22&#45;&gt;Node8</title>
<g id="a_edge43_Node000022_Node000008"><a xlink:title=" ">
<path fill="none" stroke="#63b8ff" d="M749.5,-241.83C742.37,-233.23 731.76,-219.43 725,-206 704.13,-164.59 690.27,-111.47 683.95,-83.93"/>
<polygon fill="#63b8ff" stroke="#63b8ff" points="687.35,-83.1 681.76,-74.09 680.51,-84.61 687.35,-83.1"/>
</a>
</g>
</g>
<!-- Node23&#45;&gt;Node11 -->
<g id="edge45_Node000023_Node000011" class="edge">
<title>Node23&#45;&gt;Node11</title>
<g id="a_edge45_Node000023_Node000011"><a xlink:title=" ">
<path fill="none" stroke="#63b8ff" d="M1126.21,-175.91C1105.94,-143.43 1055.97,-63.34 1033.84,-27.88"/>
<polygon fill="#63b8ff" stroke="#63b8ff" points="1036.65,-25.77 1028.39,-19.13 1030.71,-29.47 1036.65,-25.77"/>
</a>
</g>
</g>
<!-- Node24 -->
<g id="Node000024" class="node">
<title>Node24</title>
<g id="a_Node000024"><a xlink:href="pluma-message_8h.html" target="_top" xlink:title=" ">
<polygon fill="white" stroke="#666666" points="1246,-74 1108,-74 1108,-55 1246,-55 1246,-74"/>
<text text-anchor="middle" x="1177" y="-62" font-family="Helvetica,sans-Serif" font-size="10.00">pluma/pluma&#45;message.h</text>
</a>
</g>
</g>
<!-- Node23&#45;&gt;Node24 -->
<g id="edge46_Node000023_Node000024" class="edge">
<title>Node23&#45;&gt;Node24</title>
<g id="a_edge46_Node000023_Node000024"><a xlink:title=" ">
<path fill="none" stroke="#63b8ff" d="M1130.36,-175.75C1125.8,-159.22 1120.76,-131.48 1130,-110 1135.15,-98.03 1145.29,-87.76 1154.83,-80.12"/>
<polygon fill="#63b8ff" stroke="#63b8ff" points="1156.99,-82.88 1162.93,-74.11 1152.81,-77.26 1156.99,-82.88"/>
</a>
</g>
</g>
<!-- Node26 -->
<g id="Node000026" class="node">
<title>Node26</title>
<g id="a_Node000026"><a xlink:href="pluma-message-type_8h.html" target="_top" xlink:title=" ">
<polygon fill="white" stroke="#666666" points="1267.5,-140 1138.5,-140 1138.5,-110 1267.5,-110 1267.5,-140"/>
<text text-anchor="start" x="1146.5" y="-128" font-family="Helvetica,sans-Serif" font-size="10.00">pluma/pluma&#45;message</text>
<text text-anchor="middle" x="1203" y="-117" font-family="Helvetica,sans-Serif" font-size="10.00">&#45;type.h</text>
</a>
</g>
</g>
<!-- Node23&#45;&gt;Node26 -->
<g id="edge49_Node000023_Node000026" class="edge">
<title>Node23&#45;&gt;Node26</title>
<g id="a_edge49_Node000023_Node000026"><a xlink:title=" ">
<path fill="none" stroke="#63b8ff" d="M1150.09,-175.8C1159.07,-167.34 1170.63,-156.46 1180.65,-147.03"/>
<polygon fill="#63b8ff" stroke="#63b8ff" points="1183.07,-149.57 1187.95,-140.16 1178.27,-144.47 1183.07,-149.57"/>
</a>
</g>
</g>
<!-- Node24&#45;&gt;Node11 -->
<g id="edge47_Node000024_Node000011" class="edge">
<title>Node24&#45;&gt;Node11</title>
<g id="a_edge47_Node000024_Node000011"><a xlink:title=" ">
<path fill="none" stroke="#63b8ff" d="M1152.26,-54.98C1126.63,-46.16 1086.37,-32.31 1057.59,-22.41"/>
<polygon fill="#63b8ff" stroke="#63b8ff" points="1058.53,-19.03 1047.94,-19.08 1056.25,-25.65 1058.53,-19.03"/>
</a>
</g>
</g>
<!-- Node25 -->
<g id="Node000025" class="node">
<title>Node25</title>
<g id="a_Node000025"><a xlink:title=" ">
<polygon fill="#e0e0e0" stroke="#999999" points="1253,-19 1197,-19 1197,0 1253,0 1253,-19"/>
<text text-anchor="middle" x="1225" y="-7" font-family="Helvetica,sans-Serif" font-size="10.00">stdarg.h</text>
</a>
</g>
</g>
<!-- Node24&#45;&gt;Node25 -->
<g id="edge48_Node000024_Node000025" class="edge">
<title>Node24&#45;&gt;Node25</title>
<g id="a_edge48_Node000024_Node000025"><a xlink:title=" ">
<path fill="none" stroke="#63b8ff" d="M1184.93,-54.75C1191.85,-47.11 1202.07,-35.82 1210.45,-26.56"/>
<polygon fill="#63b8ff" stroke="#63b8ff" points="1213.1,-28.85 1217.22,-19.09 1207.91,-24.15 1213.1,-28.85"/>
</a>
</g>
</g>
<!-- Node26&#45;&gt;Node11 -->
<g id="edge50_Node000026_Node000011" class="edge">
<title>Node26&#45;&gt;Node11</title>
<g id="a_edge50_Node000026_Node000011"><a xlink:title=" ">
<path fill="none" stroke="#63b8ff" d="M1168.13,-109.83C1147.37,-100.77 1120.9,-88.1 1099,-74 1076.8,-59.71 1053.89,-39.71 1039.1,-26"/>
<polygon fill="#63b8ff" stroke="#63b8ff" points="1041.46,-23.41 1031.78,-19.1 1036.66,-28.51 1041.46,-23.41"/>
</a>
</g>
</g>
<!-- Node26&#45;&gt;Node24 -->
<g id="edge52_Node000026_Node000024" class="edge">
<title>Node26&#45;&gt;Node24</title>
<g id="a_edge52_Node000026_Node000024"><a xlink:title=" ">
<path fill="none" stroke="#63b8ff" d="M1196.71,-109.84C1193.2,-101.95 1188.8,-92.05 1185.05,-83.61"/>
<polygon fill="#63b8ff" stroke="#63b8ff" points="1188.16,-81.98 1180.9,-74.27 1181.76,-84.83 1188.16,-81.98"/>
</a>
</g>
</g>
<!-- Node26&#45;&gt;Node25 -->
<g id="edge51_Node000026_Node000025" class="edge">
<title>Node26&#45;&gt;Node25</title>
<g id="a_edge51_Node000026_Node000025"><a xlink:title=" ">
<path fill="none" stroke="#63b8ff" d="M1224.56,-109.86C1235.92,-101.05 1248.77,-88.63 1255,-74 1261.97,-57.62 1251.23,-39.27 1240.72,-26.52"/>
<polygon fill="#63b8ff" stroke="#63b8ff" points="1243.3,-24.16 1234.03,-19.03 1238.08,-28.82 1243.3,-24.16"/>
</a>
</g>
</g>
</g>
</svg>

<g id="navigator" transform="translate(0 0)" fill="#404254">
  <rect fill="#f2f5e9" fill-opacity="0.5" stroke="#606060" stroke-width=".5" x="0" y="0" width="60" height="60"/>
  <use id="zoomplus" xlink:href="#zoomPlus" x="17" y="9" onmousedown="handleZoom(evt,'in')"/>
  <use id="zoomminus" xlink:href="#zoomMin" x="42" y="9" onmousedown="handleZoom(evt,'out')"/>
  <use id="reset" xlink:href="#resetDef" x="30" y="36" onmousedown="handleReset()"/>
   <use id="arrowup" xlink:href="#arrowUp" x="0" y="0" onmousedown="handlePan(0,-1)"/>
  <use id="arrowright" xlink:href="#arrowRight" x="0" y="0" onmousedown="handlePan(1,0)"/>
  <use id="arrowdown" xlink:href="#arrowDown" x="0" y="0" onmousedown="handlePan(0,1)"/>
  <use id="arrowleft" xlink:href="#arrowLeft" x="0" y="0" onmousedown="handlePan(-1,0)"/>
</g>
<svg viewBox="0 0 15 15" width="100%" height="30px" preserveAspectRatio="xMaxYMin meet">
 <g id="arrow_out" transform="scale(0.3 0.3)">
  <a xlink:href="pluma-document-saver_8c__incl_org.svg" target="_base">
   <rect id="button" ry="5" rx="5" y="6" x="6" height="38" width="38"
        fill="#f2f5e9" fill-opacity="0.5" stroke="#606060" stroke-width="1.0"/>
   <path id="arrow"
     d="M 11.500037,31.436501 C 11.940474,20.09759 22.043105,11.32322 32.158766,21.979434 L 37.068811,17.246167 C 37.068811,17.246167 37.088388,32 37.088388,32 L 22.160133,31.978069 C 22.160133,31.978069 26.997745,27.140456 26.997745,27.140456 C 18.528582,18.264221 13.291696,25.230495 11.500037,31.436501 z"
     style="fill:#404040;"/>
  </a>
 </g>
</svg>

<style type='text/css'>
<![CDATA[
[data-mouse-over-selected='false'] { opacity: 0.7; }
[data-mouse-over-selected='true']  { opacity: 1.0; }
]]>
</style>
<script type="application/ecmascript"><![CDATA[
document.addEventListener('DOMContentLoaded', (event) => {
  highlightEdges();
  highlightAdjacentNodes();
});
]]></script>
</svg>
