<?xml version="1.0" encoding="UTF-8" standalone="no"?>
<!DOCTYPE svg PUBLIC "-//W3C//DTD SVG 1.1//EN"
 "http://www.w3.org/Graphics/SVG/1.1/DTD/svg11.dtd">
<!-- Generated by graphviz version 2.43.0 (0)
 -->
<!-- Title: pluma&#45;file&#45;browser&#45;view.h Pages: 1 -->
<svg width="526pt" height="236pt"
 viewBox="0.00 0.00 526.00 236.00" xmlns="http://www.w3.org/2000/svg" xmlns:xlink="http://www.w3.org/1999/xlink">
<g id="graph0" class="graph" transform="scale(1 1) rotate(0) translate(4 232)">
<title>pluma&#45;file&#45;browser&#45;view.h</title>
<!-- Node1 -->
<g id="Node000001" class="node">
<title>Node1</title>
<g id="a_Node000001"><a xlink:title=" ">
<polygon fill="#999999" stroke="#666666" points="277,-228 168,-228 168,-198 277,-198 277,-228"/>
<text text-anchor="start" x="176" y="-216" font-family="Helvetica,sans-Serif" font-size="10.00">pluma&#45;file&#45;browser</text>
<text text-anchor="middle" x="222.5" y="-205" font-family="Helvetica,sans-Serif" font-size="10.00">&#45;view.h</text>
</a>
</g>
</g>
<!-- Node2 -->
<g id="Node000002" class="node">
<title>Node2</title>
<g id="a_Node000002"><a xlink:href="pluma-file-browser-enum-types_8c.html" target="_top" xlink:title=" ">
<polygon fill="white" stroke="#666666" points="109,-162 0,-162 0,-132 109,-132 109,-162"/>
<text text-anchor="start" x="8" y="-150" font-family="Helvetica,sans-Serif" font-size="10.00">pluma&#45;file&#45;browser</text>
<text text-anchor="middle" x="54.5" y="-139" font-family="Helvetica,sans-Serif" font-size="10.00">&#45;enum&#45;types.c</text>
</a>
</g>
</g>
<!-- Node1&#45;&gt;Node2 -->
<g id="edge1_Node000001_Node000002" class="edge">
<title>Node1&#45;&gt;Node2</title>
<g id="a_edge1_Node000001_Node000002"><a xlink:title=" ">
<path fill="none" stroke="#63b8ff" d="M176.1,-194.32C149.36,-184.14 116.21,-171.51 91.28,-162.01"/>
<polygon fill="#63b8ff" stroke="#63b8ff" points="175.04,-197.67 185.63,-197.95 177.53,-191.12 175.04,-197.67"/>
</a>
</g>
</g>
<!-- Node3 -->
<g id="Node000003" class="node">
<title>Node3</title>
<g id="a_Node000003"><a xlink:href="pluma-file-browser-view_8c.html" target="_top" xlink:title=" ">
<polygon fill="white" stroke="#666666" points="236,-162 127,-162 127,-132 236,-132 236,-162"/>
<text text-anchor="start" x="135" y="-150" font-family="Helvetica,sans-Serif" font-size="10.00">pluma&#45;file&#45;browser</text>
<text text-anchor="middle" x="181.5" y="-139" font-family="Helvetica,sans-Serif" font-size="10.00">&#45;view.c</text>
</a>
</g>
</g>
<!-- Node1&#45;&gt;Node3 -->
<g id="edge2_Node000001_Node000003" class="edge">
<title>Node1&#45;&gt;Node3</title>
<g id="a_edge2_Node000001_Node000003"><a xlink:title=" ">
<path fill="none" stroke="#63b8ff" d="M207.92,-189.24C202.14,-180.21 195.66,-170.11 190.57,-162.16"/>
<polygon fill="#63b8ff" stroke="#63b8ff" points="205.06,-191.26 213.4,-197.8 210.95,-187.49 205.06,-191.26"/>
</a>
</g>
</g>
<!-- Node4 -->
<g id="Node000004" class="node">
<title>Node4</title>
<g id="a_Node000004"><a xlink:href="pluma-file-browser-widget_8c.html" target="_top" xlink:title=" ">
<polygon fill="white" stroke="#666666" points="308,-96 199,-96 199,-66 308,-66 308,-96"/>
<text text-anchor="start" x="207" y="-84" font-family="Helvetica,sans-Serif" font-size="10.00">pluma&#45;file&#45;browser</text>
<text text-anchor="middle" x="253.5" y="-73" font-family="Helvetica,sans-Serif" font-size="10.00">&#45;widget.c</text>
</a>
</g>
</g>
<!-- Node1&#45;&gt;Node4 -->
<g id="edge3_Node000001_Node000004" class="edge">
<title>Node1&#45;&gt;Node4</title>
<g id="a_edge3_Node000001_Node000004"><a xlink:title=" ">
<path fill="none" stroke="#63b8ff" d="M234.4,-188.93C238.2,-180.63 242.05,-171.08 244.5,-162 250.57,-139.46 252.55,-112.29 253.2,-96.11"/>
<polygon fill="#63b8ff" stroke="#63b8ff" points="231.22,-187.45 230.04,-197.98 237.53,-190.48 231.22,-187.45"/>
</a>
</g>
</g>
<!-- Node5 -->
<g id="Node000005" class="node">
<title>Node5</title>
<g id="a_Node000005"><a xlink:href="pluma-file-browser-widget_8h.html" target="_top" xlink:title=" ">
<polygon fill="white" stroke="#666666" points="424,-162 315,-162 315,-132 424,-132 424,-162"/>
<text text-anchor="start" x="323" y="-150" font-family="Helvetica,sans-Serif" font-size="10.00">pluma&#45;file&#45;browser</text>
<text text-anchor="middle" x="369.5" y="-139" font-family="Helvetica,sans-Serif" font-size="10.00">&#45;widget.h</text>
</a>
</g>
</g>
<!-- Node1&#45;&gt;Node5 -->
<g id="edge4_Node000001_Node000005" class="edge">
<title>Node1&#45;&gt;Node5</title>
<g id="a_edge4_Node000001_Node000005"><a xlink:title=" ">
<path fill="none" stroke="#63b8ff" d="M264.03,-193.92C287.26,-183.8 315.79,-171.38 337.32,-162.01"/>
<polygon fill="#63b8ff" stroke="#63b8ff" points="262.53,-190.75 254.76,-197.95 265.33,-197.17 262.53,-190.75"/>
</a>
</g>
</g>
<!-- Node5&#45;&gt;Node4 -->
<g id="edge9_Node000005_Node000004" class="edge">
<title>Node5&#45;&gt;Node4</title>
<g id="a_edge9_Node000005_Node000004"><a xlink:title=" ">
<path fill="none" stroke="#63b8ff" d="M335.01,-126.97C317,-117.03 295.35,-105.09 278.9,-96.01"/>
<polygon fill="#63b8ff" stroke="#63b8ff" points="333.6,-130.19 344.04,-131.95 336.98,-124.06 333.6,-130.19"/>
</a>
</g>
</g>
<!-- Node6 -->
<g id="Node000006" class="node">
<title>Node6</title>
<g id="a_Node000006"><a xlink:href="pluma-file-browser-messages_8h.html" target="_top" xlink:title=" ">
<polygon fill="white" stroke="#666666" points="435,-96 326,-96 326,-66 435,-66 435,-96"/>
<text text-anchor="start" x="334" y="-84" font-family="Helvetica,sans-Serif" font-size="10.00">pluma&#45;file&#45;browser</text>
<text text-anchor="middle" x="380.5" y="-73" font-family="Helvetica,sans-Serif" font-size="10.00">&#45;messages.h</text>
</a>
</g>
</g>
<!-- Node5&#45;&gt;Node6 -->
<g id="edge5_Node000005_Node000006" class="edge">
<title>Node5&#45;&gt;Node6</title>
<g id="a_edge5_Node000005_Node000006"><a xlink:title=" ">
<path fill="none" stroke="#63b8ff" d="M373.66,-121.83C375.14,-113.17 376.77,-103.7 378.07,-96.16"/>
<polygon fill="#63b8ff" stroke="#63b8ff" points="370.19,-121.35 371.94,-131.8 377.08,-122.53 370.19,-121.35"/>
</a>
</g>
</g>
<!-- Node8 -->
<g id="Node000008" class="node">
<title>Node8</title>
<g id="a_Node000008"><a xlink:href="pluma-file-browser-plugin_8c.html" target="_top" xlink:title=" ">
<polygon fill="white" stroke="#666666" points="518,-30 409,-30 409,0 518,0 518,-30"/>
<text text-anchor="start" x="417" y="-18" font-family="Helvetica,sans-Serif" font-size="10.00">pluma&#45;file&#45;browser</text>
<text text-anchor="middle" x="463.5" y="-7" font-family="Helvetica,sans-Serif" font-size="10.00">&#45;plugin.c</text>
</a>
</g>
</g>
<!-- Node5&#45;&gt;Node8 -->
<g id="edge8_Node000005_Node000008" class="edge">
<title>Node5&#45;&gt;Node8</title>
<g id="a_edge8_Node000005_Node000008"><a xlink:title=" ">
<path fill="none" stroke="#63b8ff" d="M409.81,-126.83C422.61,-118.93 435.71,-108.63 444.5,-96 458.36,-76.08 462.19,-47.34 463.2,-30.28"/>
<polygon fill="#63b8ff" stroke="#63b8ff" points="407.94,-123.87 401.05,-131.92 411.45,-129.92 407.94,-123.87"/>
</a>
</g>
</g>
<!-- Node7 -->
<g id="Node000007" class="node">
<title>Node7</title>
<g id="a_Node000007"><a xlink:href="pluma-file-browser-messages_8c.html" target="_top" xlink:title=" ">
<polygon fill="white" stroke="#666666" points="391,-30 282,-30 282,0 391,0 391,-30"/>
<text text-anchor="start" x="290" y="-18" font-family="Helvetica,sans-Serif" font-size="10.00">pluma&#45;file&#45;browser</text>
<text text-anchor="middle" x="336.5" y="-7" font-family="Helvetica,sans-Serif" font-size="10.00">&#45;messages.c</text>
</a>
</g>
</g>
<!-- Node6&#45;&gt;Node7 -->
<g id="edge6_Node000006_Node000007" class="edge">
<title>Node6&#45;&gt;Node7</title>
<g id="a_edge6_Node000006_Node000007"><a xlink:title=" ">
<path fill="none" stroke="#63b8ff" d="M365.05,-57.53C358.79,-48.43 351.76,-38.19 346.24,-30.16"/>
<polygon fill="#63b8ff" stroke="#63b8ff" points="362.19,-59.54 370.73,-65.8 367.95,-55.57 362.19,-59.54"/>
</a>
</g>
</g>
<!-- Node6&#45;&gt;Node8 -->
<g id="edge7_Node000006_Node000008" class="edge">
<title>Node6&#45;&gt;Node8</title>
<g id="a_edge7_Node000006_Node000008"><a xlink:title=" ">
<path fill="none" stroke="#63b8ff" d="M407.11,-59.48C419.52,-49.91 433.97,-38.77 445.13,-30.16"/>
<polygon fill="#63b8ff" stroke="#63b8ff" points="404.7,-56.92 398.92,-65.8 408.98,-62.46 404.7,-56.92"/>
</a>
</g>
</g>
</g>
</svg>
