<?xml version="1.0" encoding="UTF-8" standalone="no"?>
<!DOCTYPE svg PUBLIC "-//W3C//DTD SVG 1.1//EN"
 "http://www.w3.org/Graphics/SVG/1.1/DTD/svg11.dtd">
<!-- Generated by graphviz version 2.43.0 (0)
 -->
<!-- Title: pluma&#45;app.c Pages: 1 -->
<!--zoomable 500 -->

<svg id="main" version="1.1" xmlns="http://www.w3.org/2000/svg" xmlns:xlink="http://www.w3.org/1999/xlink" xml:space="preserve" onload="init(evt)">

<style type="text/css"><![CDATA[
.node, .edge {opacity: 0.7;}
.node.selected, .edge.selected {opacity: 1;}
.edge:hover path { stroke: red; }
.edge:hover polygon { stroke: red; fill: red; }
]]></style>

<defs>
  <circle id="rim" cx="0" cy="0" r="7"/>
  <circle id="rim2" cx="0" cy="0" r="3.5"/>
  <g id="zoomPlus">
    <use xlink:href="#rim" fill="#404040"><set attributeName="fill" to="#808080" begin="zoomplus.mouseover" end="zoomplus.mouseout"/></use>
    <path d="M-4,0h8M0,-4v8" fill="none" stroke="white" stroke-width="1.5" pointer-events="none"/>
  </g>
  <g id="zoomMin">
    <use xlink:href="#rim" fill="#404040"><set attributeName="fill" to="#808080" begin="zoomminus.mouseover" end="zoomminus.mouseout"/></use>
    <path d="M-4,0h8" fill="none" stroke="white" stroke-width="1.5" pointer-events="none"/>
  </g>
  <g id="arrowUp" transform="translate(30 24)">
    <use xlink:href="#rim"/>
    <path pointer-events="none" fill="none" stroke="white" stroke-width="1.5" d="M0,-3.0v7 M-2.5,-0.5L0,-3.0L2.5,-0.5"/>
  </g>
  <g id="arrowRight" transform="rotate(90) translate(36 -43)">
    <use xlink:href="#rim"/>
    <path pointer-events="none" fill="none" stroke="white" stroke-width="1.5" d="M0,-3.0v7 M-2.5,-0.5L0,-3.0L2.5,-0.5"/>
  </g>
  <g id="arrowDown" transform="rotate(180) translate(-30 -48)">
    <use xlink:href="#rim"/>
    <path pointer-events="none" fill="none" stroke="white" stroke-width="1.5" d="M0,-3.0v7 M-2.5,-0.5L0,-3.0L2.5,-0.5"/>
  </g>
  <g id="arrowLeft" transform="rotate(270) translate(-36 17)">
    <use xlink:href="#rim"/>
    <path pointer-events="none" fill="none" stroke="white" stroke-width="1.5" d="M0,-3.0v7 M-2.5,-0.5L0,-3.0L2.5,-0.5"/>
  </g>
  <g id="resetDef">
    <use xlink:href="#rim2" fill="#404040"><set attributeName="fill" to="#808080" begin="reset.mouseover" end="reset.mouseout"/></use>
  </g>
</defs>
<script type="application/ecmascript">
var viewWidth = 1592;
var viewHeight = 500;
var sectionId = 'dynsection-0';
</script>
<script type="application/ecmascript" xlink:href="svg.min.js"/>
<svg id="graph" class="graph">
<g id="viewport">
<title>pluma&#45;app.c</title>
<!-- Node1 -->
<g id="Node000001" class="node">
<title>Node1</title>
<g id="a_Node000001"><a xlink:title=" ">
<polygon fill="#999999" stroke="#666666" points="674,-492 597,-492 597,-473 674,-473 674,-492"/>
<text text-anchor="middle" x="635.5" y="-480" font-family="Helvetica,sans-Serif" font-size="10.00">pluma&#45;app.c</text>
</a>
</g>
</g>
<!-- Node2 -->
<g id="Node000002" class="node">
<title>Node2</title>
<g id="a_Node000002"><a xlink:title=" ">
<polygon fill="#e0e0e0" stroke="#999999" points="53,-431.5 0,-431.5 0,-412.5 53,-412.5 53,-431.5"/>
<text text-anchor="middle" x="26.5" y="-419.5" font-family="Helvetica,sans-Serif" font-size="10.00">string.h</text>
</a>
</g>
</g>
<!-- Node1&#45;&gt;Node2 -->
<g id="edge1_Node000001_Node000002" class="edge">
<title>Node1&#45;&gt;Node2</title>
<g id="a_edge1_Node000001_Node000002"><a xlink:title=" ">
<path fill="none" stroke="#63b8ff" d="M596.94,-479.98C485.55,-475.35 164.77,-460.32 62.5,-437 60.13,-436.46 57.71,-435.79 55.29,-435.04"/>
<polygon fill="#63b8ff" stroke="#63b8ff" points="56.2,-431.65 45.6,-431.63 53.87,-438.25 56.2,-431.65"/>
</a>
</g>
</g>
<!-- Node3 -->
<g id="Node000003" class="node">
<title>Node3</title>
<g id="a_Node000003"><a xlink:title=" ">
<polygon fill="#e0e0e0" stroke="#999999" points="127.5,-431.5 71.5,-431.5 71.5,-412.5 127.5,-412.5 127.5,-431.5"/>
<text text-anchor="middle" x="99.5" y="-419.5" font-family="Helvetica,sans-Serif" font-size="10.00">unistd.h</text>
</a>
</g>
</g>
<!-- Node1&#45;&gt;Node3 -->
<g id="edge2_Node000001_Node000003" class="edge">
<title>Node1&#45;&gt;Node3</title>
<g id="a_edge2_Node000001_Node000003"><a xlink:title=" ">
<path fill="none" stroke="#63b8ff" d="M596.76,-481.61C512.11,-481.08 304.78,-475.58 136.5,-437 133.98,-436.42 131.4,-435.71 128.84,-434.92"/>
<polygon fill="#63b8ff" stroke="#63b8ff" points="129.76,-431.54 119.16,-431.58 127.47,-438.15 129.76,-431.54"/>
</a>
</g>
</g>
<!-- Node4 -->
<g id="Node000004" class="node">
<title>Node4</title>
<g id="a_Node000004"><a xlink:title=" ">
<polygon fill="#e0e0e0" stroke="#999999" points="219.5,-431.5 145.5,-431.5 145.5,-412.5 219.5,-412.5 219.5,-431.5"/>
<text text-anchor="middle" x="182.5" y="-419.5" font-family="Helvetica,sans-Serif" font-size="10.00">glib/gi18n.h</text>
</a>
</g>
</g>
<!-- Node1&#45;&gt;Node4 -->
<g id="edge3_Node000001_Node000004" class="edge">
<title>Node1&#45;&gt;Node4</title>
<g id="a_edge3_Node000001_Node000004"><a xlink:title=" ">
<path fill="none" stroke="#63b8ff" d="M596.97,-479.69C524.29,-475.73 362.2,-464.4 228.5,-437 224.85,-436.25 221.08,-435.34 217.33,-434.34"/>
<polygon fill="#63b8ff" stroke="#63b8ff" points="218.17,-430.94 207.59,-431.56 216.24,-437.67 218.17,-430.94"/>
</a>
</g>
</g>
<!-- Node5 -->
<g id="Node000005" class="node">
<title>Node5</title>
<g id="a_Node000005"><a xlink:title=" ">
<polygon fill="#e0e0e0" stroke="#999999" points="367.5,-437 237.5,-437 237.5,-407 367.5,-407 367.5,-437"/>
<text text-anchor="start" x="245.5" y="-425" font-family="Helvetica,sans-Serif" font-size="10.00">libpeas/peas&#45;extension</text>
<text text-anchor="middle" x="302.5" y="-414" font-family="Helvetica,sans-Serif" font-size="10.00">&#45;set.h</text>
</a>
</g>
</g>
<!-- Node1&#45;&gt;Node5 -->
<g id="edge4_Node000001_Node000005" class="edge">
<title>Node1&#45;&gt;Node5</title>
<g id="a_edge4_Node000001_Node000005"><a xlink:title=" ">
<path fill="none" stroke="#63b8ff" d="M596.85,-475.07C548.13,-466.91 461.54,-452.27 377.79,-437.22"/>
<polygon fill="#63b8ff" stroke="#63b8ff" points="378.32,-433.76 367.86,-435.43 377.08,-440.64 378.32,-433.76"/>
</a>
</g>
</g>
<!-- Node6 -->
<g id="Node000006" class="node">
<title>Node6</title>
<g id="a_Node000006"><a xlink:title=" ">
<polygon fill="#e0e0e0" stroke="#999999" points="451,-431.5 386,-431.5 386,-412.5 451,-412.5 451,-431.5"/>
<text text-anchor="middle" x="418.5" y="-419.5" font-family="Helvetica,sans-Serif" font-size="10.00">gdk/gdk.h</text>
</a>
</g>
</g>
<!-- Node1&#45;&gt;Node6 -->
<g id="edge5_Node000001_Node000006" class="edge">
<title>Node1&#45;&gt;Node6</title>
<g id="a_edge5_Node000001_Node000006"><a xlink:title=" ">
<path fill="none" stroke="#63b8ff" d="M598.18,-473C562.39,-464.62 506.94,-451.07 459.5,-437 457.19,-436.31 454.81,-435.58 452.42,-434.82"/>
<polygon fill="#63b8ff" stroke="#63b8ff" points="453.27,-431.42 442.68,-431.62 451.08,-438.07 453.27,-431.42"/>
</a>
</g>
</g>
<!-- Node7 -->
<g id="Node000007" class="node">
<title>Node7</title>
<g id="a_Node000007"><a xlink:title=" ">
<polygon fill="#e0e0e0" stroke="#999999" points="540,-431.5 469,-431.5 469,-412.5 540,-412.5 540,-431.5"/>
<text text-anchor="middle" x="504.5" y="-419.5" font-family="Helvetica,sans-Serif" font-size="10.00">gdk/gdkx.h</text>
</a>
</g>
</g>
<!-- Node1&#45;&gt;Node7 -->
<g id="edge6_Node000001_Node000007" class="edge">
<title>Node1&#45;&gt;Node7</title>
<g id="a_edge6_Node000001_Node000007"><a xlink:title=" ">
<path fill="none" stroke="#63b8ff" d="M616.45,-472.99C594.53,-463.2 558.29,-447.02 533,-435.73"/>
<polygon fill="#63b8ff" stroke="#63b8ff" points="534.13,-432.4 523.57,-431.52 531.28,-438.79 534.13,-432.4"/>
</a>
</g>
</g>
<!-- Node8 -->
<g id="Node000008" class="node">
<title>Node8</title>
<g id="a_Node000008"><a xlink:href="pluma-app_8h.html" target="_top" xlink:title=" ">
<polygon fill="white" stroke="#666666" points="879.5,-371 801.5,-371 801.5,-352 879.5,-352 879.5,-371"/>
<text text-anchor="middle" x="840.5" y="-359" font-family="Helvetica,sans-Serif" font-size="10.00">pluma&#45;app.h</text>
</a>
</g>
</g>
<!-- Node1&#45;&gt;Node8 -->
<g id="edge7_Node000001_Node000008" class="edge">
<title>Node1&#45;&gt;Node8</title>
<g id="a_edge7_Node000001_Node000008"><a xlink:title=" ">
<path fill="none" stroke="#63b8ff" d="M674.08,-481.73C713.5,-479.92 774.21,-471.18 812.5,-437 828.41,-422.79 835.32,-398.63 838.29,-381.68"/>
<polygon fill="#63b8ff" stroke="#63b8ff" points="841.82,-381.71 839.78,-371.32 834.89,-380.71 841.82,-381.71"/>
</a>
</g>
</g>
<!-- Node24 -->
<g id="Node000024" class="node">
<title>Node24</title>
<g id="a_Node000024"><a xlink:href="pluma-commands_8h.html" target="_top" xlink:title=" ">
<polygon fill="white" stroke="#666666" points="783.5,-371 669.5,-371 669.5,-352 783.5,-352 783.5,-371"/>
<text text-anchor="middle" x="726.5" y="-359" font-family="Helvetica,sans-Serif" font-size="10.00">pluma&#45;commands.h</text>
</a>
</g>
</g>
<!-- Node1&#45;&gt;Node24 -->
<g id="edge36_Node000001_Node000024" class="edge">
<title>Node1&#45;&gt;Node24</title>
<g id="a_edge36_Node000001_Node000024"><a xlink:title=" ">
<path fill="none" stroke="#63b8ff" d="M642.04,-472.94C656.99,-453.4 693.86,-405.18 713.58,-379.4"/>
<polygon fill="#63b8ff" stroke="#63b8ff" points="716.48,-381.37 719.77,-371.3 710.91,-377.12 716.48,-381.37"/>
</a>
</g>
</g>
<!-- Node25 -->
<g id="Node000025" class="node">
<title>Node25</title>
<g id="a_Node000025"><a xlink:href="pluma-notebook_8h.html" target="_top" xlink:title=" ">
<polygon fill="white" stroke="#666666" points="1114.5,-316 1008.5,-316 1008.5,-297 1114.5,-297 1114.5,-316"/>
<text text-anchor="middle" x="1061.5" y="-304" font-family="Helvetica,sans-Serif" font-size="10.00">pluma&#45;notebook.h</text>
</a>
</g>
</g>
<!-- Node1&#45;&gt;Node25 -->
<g id="edge39_Node000001_Node000025" class="edge">
<title>Node1&#45;&gt;Node25</title>
<g id="a_edge39_Node000001_Node000025"><a xlink:title=" ">
<path fill="none" stroke="#63b8ff" d="M674.3,-476.49C715.55,-470.35 782.19,-458.07 836.5,-437 917.02,-405.76 1003.07,-348.72 1041.25,-322.02"/>
<polygon fill="#63b8ff" stroke="#63b8ff" points="1043.33,-324.83 1049.49,-316.21 1039.3,-319.11 1043.33,-324.83"/>
</a>
</g>
</g>
<!-- Node26 -->
<g id="Node000026" class="node">
<title>Node26</title>
<g id="a_Node000026"><a xlink:href="pluma-debug_8h.html" target="_top" xlink:title=" ">
<polygon fill="white" stroke="#666666" points="1387.5,-200.5 1297.5,-200.5 1297.5,-181.5 1387.5,-181.5 1387.5,-200.5"/>
<text text-anchor="middle" x="1342.5" y="-188.5" font-family="Helvetica,sans-Serif" font-size="10.00">pluma&#45;debug.h</text>
</a>
</g>
</g>
<!-- Node1&#45;&gt;Node26 -->
<g id="edge43_Node000001_Node000026" class="edge">
<title>Node1&#45;&gt;Node26</title>
<g id="a_edge43_Node000001_Node000026"><a xlink:title=" ">
<path fill="none" stroke="#63b8ff" d="M674.4,-480.42C800.82,-476.68 1194.86,-463.03 1245.5,-437 1283.81,-417.31 1307.5,-405.58 1307.5,-362.5 1307.5,-362.5 1307.5,-362.5 1307.5,-305.5 1307.5,-270.25 1323.1,-231.47 1333.47,-209.59"/>
<polygon fill="#63b8ff" stroke="#63b8ff" points="1336.65,-211.07 1337.92,-200.55 1330.37,-207.98 1336.65,-211.07"/>
</a>
</g>
</g>
<!-- Node27 -->
<g id="Node000027" class="node">
<title>Node27</title>
<g id="a_Node000027"><a xlink:href="pluma-utils_8h.html" target="_top" xlink:title=" ">
<polygon fill="white" stroke="#666666" points="1255,-134.5 1174,-134.5 1174,-115.5 1255,-115.5 1255,-134.5"/>
<text text-anchor="middle" x="1214.5" y="-122.5" font-family="Helvetica,sans-Serif" font-size="10.00">pluma&#45;utils.h</text>
</a>
</g>
</g>
<!-- Node1&#45;&gt;Node27 -->
<g id="edge45_Node000001_Node000027" class="edge">
<title>Node1&#45;&gt;Node27</title>
<g id="a_edge45_Node000001_Node000027"><a xlink:title=" ">
<path fill="none" stroke="#63b8ff" d="M674.15,-482.04C806.22,-482.84 1231.5,-476.59 1231.5,-362.5 1231.5,-362.5 1231.5,-362.5 1231.5,-250.5 1231.5,-212.65 1223.69,-168.91 1218.66,-144.66"/>
<polygon fill="#63b8ff" stroke="#63b8ff" points="1222.04,-143.74 1216.52,-134.7 1215.2,-145.21 1222.04,-143.74"/>
</a>
</g>
</g>
<!-- Node29 -->
<g id="Node000029" class="node">
<title>Node29</title>
<g id="a_Node000029"><a xlink:href="pluma-enum-types_8h.html" target="_top" xlink:title=" ">
<polygon fill="white" stroke="#666666" points="613,-316 494,-316 494,-297 613,-297 613,-316"/>
<text text-anchor="middle" x="553.5" y="-304" font-family="Helvetica,sans-Serif" font-size="10.00">pluma&#45;enum&#45;types.h</text>
</a>
</g>
</g>
<!-- Node1&#45;&gt;Node29 -->
<g id="edge51_Node000001_Node000029" class="edge">
<title>Node1&#45;&gt;Node29</title>
<g id="a_edge51_Node000001_Node000029"><a xlink:title=" ">
<path fill="none" stroke="#63b8ff" d="M631.32,-472.63C618.49,-445.4 579.47,-362.61 562.05,-325.65"/>
<polygon fill="#63b8ff" stroke="#63b8ff" points="565,-323.7 557.57,-316.14 558.67,-326.68 565,-323.7"/>
</a>
</g>
</g>
<!-- Node30 -->
<g id="Node000030" class="node">
<title>Node30</title>
<g id="a_Node000030"><a xlink:href="pluma-dirs_8h.html" target="_top" xlink:title=" ">
<polygon fill="white" stroke="#666666" points="1413.5,-371 1335.5,-371 1335.5,-352 1413.5,-352 1413.5,-371"/>
<text text-anchor="middle" x="1374.5" y="-359" font-family="Helvetica,sans-Serif" font-size="10.00">pluma&#45;dirs.h</text>
</a>
</g>
</g>
<!-- Node1&#45;&gt;Node30 -->
<g id="edge53_Node000001_Node000030" class="edge">
<title>Node1&#45;&gt;Node30</title>
<g id="a_edge53_Node000001_Node000030"><a xlink:title=" ">
<path fill="none" stroke="#63b8ff" d="M674,-480.92C810.32,-478.6 1264.88,-468.57 1321.5,-437 1343.75,-424.59 1358.93,-398.46 1367.17,-380.69"/>
<polygon fill="#63b8ff" stroke="#63b8ff" points="1370.44,-381.93 1371.21,-371.36 1364.02,-379.14 1370.44,-381.93"/>
</a>
</g>
</g>
<!-- Node31 -->
<g id="Node000031" class="node">
<title>Node31</title>
<g id="a_Node000031"><a xlink:href="pluma-settings_8h.html" target="_top" xlink:title=" ">
<polygon fill="white" stroke="#666666" points="804,-431.5 705,-431.5 705,-412.5 804,-412.5 804,-431.5"/>
<text text-anchor="middle" x="754.5" y="-419.5" font-family="Helvetica,sans-Serif" font-size="10.00">pluma&#45;settings.h</text>
</a>
</g>
</g>
<!-- Node1&#45;&gt;Node31 -->
<g id="edge55_Node000001_Node000031" class="edge">
<title>Node1&#45;&gt;Node31</title>
<g id="a_edge55_Node000001_Node000031"><a xlink:title=" ">
<path fill="none" stroke="#63b8ff" d="M652.8,-472.99C672.55,-463.29 705.05,-447.31 727.99,-436.03"/>
<polygon fill="#63b8ff" stroke="#63b8ff" points="729.75,-439.07 737.18,-431.52 726.66,-432.79 729.75,-439.07"/>
</a>
</g>
</g>
<!-- Node32 -->
<g id="Node000032" class="node">
<title>Node32</title>
<g id="a_Node000032"><a xlink:href="pluma-app-activatable_8h.html" target="_top" xlink:title=" ">
<polygon fill="white" stroke="#666666" points="468,-261 331,-261 331,-242 468,-242 468,-261"/>
<text text-anchor="middle" x="399.5" y="-249" font-family="Helvetica,sans-Serif" font-size="10.00">pluma&#45;app&#45;activatable.h</text>
</a>
</g>
</g>
<!-- Node1&#45;&gt;Node32 -->
<g id="edge59_Node000001_Node000032" class="edge">
<title>Node1&#45;&gt;Node32</title>
<g id="a_edge59_Node000001_Node000032"><a xlink:title=" ">
<path fill="none" stroke="#63b8ff" d="M626.54,-472.8C591.27,-438.58 461.76,-312.92 415.81,-268.32"/>
<polygon fill="#63b8ff" stroke="#63b8ff" points="418.09,-265.66 408.47,-261.21 413.21,-270.68 418.09,-265.66"/>
</a>
</g>
</g>
<!-- Node33 -->
<g id="Node000033" class="node">
<title>Node33</title>
<g id="a_Node000033"><a xlink:href="pluma-plugins-engine_8h.html" target="_top" xlink:title=" ">
<polygon fill="white" stroke="#666666" points="1559.5,-431.5 1427.5,-431.5 1427.5,-412.5 1559.5,-412.5 1559.5,-431.5"/>
<text text-anchor="middle" x="1493.5" y="-419.5" font-family="Helvetica,sans-Serif" font-size="10.00">pluma&#45;plugins&#45;engine.h</text>
</a>
</g>
</g>
<!-- Node1&#45;&gt;Node33 -->
<g id="edge61_Node000001_Node000033" class="edge">
<title>Node1&#45;&gt;Node33</title>
<g id="a_edge61_Node000001_Node000033"><a xlink:title=" ">
<path fill="none" stroke="#63b8ff" d="M674.02,-479.96C783.69,-475.39 1106.92,-460.78 1374.5,-437 1388.34,-435.77 1403.06,-434.23 1417.25,-432.62"/>
<polygon fill="#63b8ff" stroke="#63b8ff" points="1417.94,-436.07 1427.48,-431.45 1417.14,-429.11 1417.94,-436.07"/>
</a>
</g>
</g>
<!-- Node9 -->
<g id="Node000009" class="node">
<title>Node9</title>
<g id="a_Node000009"><a xlink:title=" ">
<polygon fill="#e0e0e0" stroke="#999999" points="811.5,-74 751.5,-74 751.5,-55 811.5,-55 811.5,-74"/>
<text text-anchor="middle" x="781.5" y="-62" font-family="Helvetica,sans-Serif" font-size="10.00">gtk/gtk.h</text>
</a>
</g>
</g>
<!-- Node8&#45;&gt;Node9 -->
<g id="edge8_Node000008_Node000009" class="edge">
<title>Node8&#45;&gt;Node9</title>
<g id="a_edge8_Node000008_Node000009"><a xlink:title=" ">
<path fill="none" stroke="#63b8ff" d="M852.37,-352C876.67,-333.46 928.6,-287.4 913.5,-242 901.43,-205.7 827.67,-118.42 795.97,-81.95"/>
<polygon fill="#63b8ff" stroke="#63b8ff" points="798.42,-79.44 789.21,-74.21 793.15,-84.04 798.42,-79.44"/>
</a>
</g>
</g>
<!-- Node10 -->
<g id="Node000010" class="node">
<title>Node10</title>
<g id="a_Node000010"><a xlink:href="pluma-window_8h.html" target="_top" xlink:title=" ">
<polygon fill="white" stroke="#666666" points="839,-316 708,-316 708,-297 839,-297 839,-316"/>
<text text-anchor="middle" x="773.5" y="-304" font-family="Helvetica,sans-Serif" font-size="10.00">pluma/pluma&#45;window.h</text>
</a>
</g>
</g>
<!-- Node8&#45;&gt;Node10 -->
<g id="edge9_Node000008_Node000010" class="edge">
<title>Node8&#45;&gt;Node10</title>
<g id="a_edge9_Node000008_Node000010"><a xlink:title=" ">
<path fill="none" stroke="#63b8ff" d="M829.74,-351.98C819.73,-344.07 804.61,-332.11 792.57,-322.58"/>
<polygon fill="#63b8ff" stroke="#63b8ff" points="794.47,-319.63 784.46,-316.17 790.13,-325.12 794.47,-319.63"/>
</a>
</g>
</g>
<!-- Node10&#45;&gt;Node9 -->
<g id="edge11_Node000010_Node000009" class="edge">
<title>Node10&#45;&gt;Node9</title>
<g id="a_edge11_Node000010_Node000009"><a xlink:title=" ">
<path fill="none" stroke="#63b8ff" d="M773.57,-296.87C773.69,-284.65 773.96,-261.62 774.5,-242 776.09,-184.67 779.09,-116.9 780.6,-84.55"/>
<polygon fill="#63b8ff" stroke="#63b8ff" points="784.1,-84.47 781.08,-74.31 777.11,-84.14 784.1,-84.47"/>
</a>
</g>
</g>
<!-- Node11 -->
<g id="Node000011" class="node">
<title>Node11</title>
<g id="a_Node000011"><a xlink:title=" ">
<polygon fill="#e0e0e0" stroke="#999999" points="731,-74 672,-74 672,-55 731,-55 731,-74"/>
<text text-anchor="middle" x="701.5" y="-62" font-family="Helvetica,sans-Serif" font-size="10.00">gio/gio.h</text>
</a>
</g>
</g>
<!-- Node10&#45;&gt;Node11 -->
<g id="edge10_Node000010_Node000011" class="edge">
<title>Node10&#45;&gt;Node11</title>
<g id="a_edge10_Node000010_Node000011"><a xlink:title=" ">
<path fill="none" stroke="#63b8ff" d="M770.94,-296.96C760.57,-262.41 721.61,-132.54 707.04,-83.97"/>
<polygon fill="#63b8ff" stroke="#63b8ff" points="710.33,-82.76 704.11,-74.19 703.63,-84.77 710.33,-82.76"/>
</a>
</g>
</g>
<!-- Node12 -->
<g id="Node000012" class="node">
<title>Node12</title>
<g id="a_Node000012"><a xlink:href="pluma-tab_8h.html" target="_top" xlink:title=" ">
<polygon fill="white" stroke="#666666" points="1071.5,-261 961.5,-261 961.5,-242 1071.5,-242 1071.5,-261"/>
<text text-anchor="middle" x="1016.5" y="-249" font-family="Helvetica,sans-Serif" font-size="10.00">pluma/pluma&#45;tab.h</text>
</a>
</g>
</g>
<!-- Node10&#45;&gt;Node12 -->
<g id="edge12_Node000010_Node000012" class="edge">
<title>Node10&#45;&gt;Node12</title>
<g id="a_edge12_Node000010_Node000012"><a xlink:title=" ">
<path fill="none" stroke="#63b8ff" d="M812.54,-296.98C854.58,-287.82 921.54,-273.21 967.18,-263.26"/>
<polygon fill="#63b8ff" stroke="#63b8ff" points="968.13,-266.63 977.15,-261.08 966.64,-259.79 968.13,-266.63"/>
</a>
</g>
</g>
<!-- Node19 -->
<g id="Node000019" class="node">
<title>Node19</title>
<g id="a_Node000019"><a xlink:href="pluma-panel_8h.html" target="_top" xlink:title=" ">
<polygon fill="white" stroke="#666666" points="905,-261 784,-261 784,-242 905,-242 905,-261"/>
<text text-anchor="middle" x="844.5" y="-249" font-family="Helvetica,sans-Serif" font-size="10.00">pluma/pluma&#45;panel.h</text>
</a>
</g>
</g>
<!-- Node10&#45;&gt;Node19 -->
<g id="edge25_Node000010_Node000019" class="edge">
<title>Node10&#45;&gt;Node19</title>
<g id="a_edge25_Node000010_Node000019"><a xlink:title=" ">
<path fill="none" stroke="#63b8ff" d="M784.91,-296.98C795.61,-289 811.84,-276.88 824.66,-267.31"/>
<polygon fill="#63b8ff" stroke="#63b8ff" points="826.97,-269.96 832.89,-261.17 822.78,-264.35 826.97,-269.96"/>
</a>
</g>
</g>
<!-- Node20 -->
<g id="Node000020" class="node">
<title>Node20</title>
<g id="a_Node000020"><a xlink:href="pluma-message-bus_8h.html" target="_top" xlink:title=" ">
<polygon fill="white" stroke="#666666" points="575,-206 446,-206 446,-176 575,-176 575,-206"/>
<text text-anchor="start" x="454" y="-194" font-family="Helvetica,sans-Serif" font-size="10.00">pluma/pluma&#45;message</text>
<text text-anchor="middle" x="510.5" y="-183" font-family="Helvetica,sans-Serif" font-size="10.00">&#45;bus.h</text>
</a>
</g>
</g>
<!-- Node10&#45;&gt;Node20 -->
<g id="edge27_Node000010_Node000020" class="edge">
<title>Node10&#45;&gt;Node20</title>
<g id="a_edge27_Node000010_Node000020"><a xlink:title=" ">
<path fill="none" stroke="#63b8ff" d="M753.73,-296.97C711.18,-278.61 610.13,-234.99 552.55,-210.15"/>
<polygon fill="#63b8ff" stroke="#63b8ff" points="553.93,-206.93 543.36,-206.18 551.15,-213.36 553.93,-206.93"/>
</a>
</g>
</g>
<!-- Node12&#45;&gt;Node9 -->
<g id="edge13_Node000012_Node000009" class="edge">
<title>Node12&#45;&gt;Node9</title>
<g id="a_edge13_Node000012_Node000009"><a xlink:title=" ">
<path fill="none" stroke="#63b8ff" d="M1000.94,-241.98C986.13,-233.6 963.51,-220.05 945.5,-206 896.92,-168.11 893.16,-149.04 845.5,-110 832.19,-99.1 816.31,-88.05 803.7,-79.69"/>
<polygon fill="#63b8ff" stroke="#63b8ff" points="805.47,-76.66 795.18,-74.11 801.64,-82.52 805.47,-76.66"/>
</a>
</g>
</g>
<!-- Node13 -->
<g id="Node000013" class="node">
<title>Node13</title>
<g id="a_Node000013"><a xlink:href="pluma-view_8h.html" target="_top" xlink:title=" ">
<polygon fill="white" stroke="#666666" points="1079.5,-200.5 963.5,-200.5 963.5,-181.5 1079.5,-181.5 1079.5,-200.5"/>
<text text-anchor="middle" x="1021.5" y="-188.5" font-family="Helvetica,sans-Serif" font-size="10.00">pluma/pluma&#45;view.h</text>
</a>
</g>
</g>
<!-- Node12&#45;&gt;Node13 -->
<g id="edge14_Node000012_Node000013" class="edge">
<title>Node12&#45;&gt;Node13</title>
<g id="a_edge14_Node000012_Node000013"><a xlink:title=" ">
<path fill="none" stroke="#63b8ff" d="M1017.24,-241.87C1017.93,-233.75 1019,-221.31 1019.89,-210.89"/>
<polygon fill="#63b8ff" stroke="#63b8ff" points="1023.39,-210.93 1020.76,-200.67 1016.42,-210.33 1023.39,-210.93"/>
</a>
</g>
</g>
<!-- Node14 -->
<g id="Node000014" class="node">
<title>Node14</title>
<g id="a_Node000014"><a xlink:href="pluma-document_8h.html" target="_top" xlink:title=" ">
<polygon fill="white" stroke="#666666" points="1041,-134.5 898,-134.5 898,-115.5 1041,-115.5 1041,-134.5"/>
<text text-anchor="middle" x="969.5" y="-122.5" font-family="Helvetica,sans-Serif" font-size="10.00">pluma/pluma&#45;document.h</text>
</a>
</g>
</g>
<!-- Node12&#45;&gt;Node14 -->
<g id="edge24_Node000012_Node000014" class="edge">
<title>Node12&#45;&gt;Node14</title>
<g id="a_edge24_Node000012_Node000014"><a xlink:title=" ">
<path fill="none" stroke="#63b8ff" d="M995.98,-242C981.48,-234.77 963.15,-222.86 954.5,-206 944.46,-186.43 952.18,-161.07 959.77,-144.21"/>
<polygon fill="#63b8ff" stroke="#63b8ff" points="963.06,-145.45 964.32,-134.93 956.77,-142.37 963.06,-145.45"/>
</a>
</g>
</g>
<!-- Node13&#45;&gt;Node9 -->
<g id="edge15_Node000013_Node000009" class="edge">
<title>Node13&#45;&gt;Node9</title>
<g id="a_edge15_Node000013_Node000009"><a xlink:title=" ">
<path fill="none" stroke="#63b8ff" d="M1029.71,-181.29C1043.67,-165.42 1068.84,-131.44 1050.5,-110 1018.64,-72.77 886.39,-82.31 821.82,-73.86"/>
<polygon fill="#63b8ff" stroke="#63b8ff" points="822.12,-70.36 811.7,-72.27 821.03,-77.28 822.12,-70.36"/>
</a>
</g>
</g>
<!-- Node13&#45;&gt;Node14 -->
<g id="edge16_Node000013_Node000014" class="edge">
<title>Node13&#45;&gt;Node14</title>
<g id="a_edge16_Node000013_Node000014"><a xlink:title=" ">
<path fill="none" stroke="#63b8ff" d="M1014.49,-181.37C1006.47,-171.5 993.15,-155.11 983.08,-142.72"/>
<polygon fill="#63b8ff" stroke="#63b8ff" points="985.76,-140.46 976.74,-134.91 980.33,-144.87 985.76,-140.46"/>
</a>
</g>
</g>
<!-- Node15 -->
<g id="Node000015" class="node">
<title>Node15</title>
<g id="a_Node000015"><a xlink:title=" ">
<polygon fill="#e0e0e0" stroke="#999999" points="977.5,-74 829.5,-74 829.5,-55 977.5,-55 977.5,-74"/>
<text text-anchor="middle" x="903.5" y="-62" font-family="Helvetica,sans-Serif" font-size="10.00">gtksourceview/gtksource.h</text>
</a>
</g>
</g>
<!-- Node13&#45;&gt;Node15 -->
<g id="edge23_Node000013_Node000015" class="edge">
<title>Node13&#45;&gt;Node15</title>
<g id="a_edge23_Node000013_Node000015"><a xlink:title=" ">
<path fill="none" stroke="#63b8ff" d="M1037,-181.34C1061.34,-166.63 1103.76,-135.87 1083.5,-110 1070.82,-93.81 1025.97,-82.7 984.21,-75.62"/>
<polygon fill="#63b8ff" stroke="#63b8ff" points="984.68,-72.15 974.25,-74 983.55,-79.06 984.68,-72.15"/>
</a>
</g>
</g>
<!-- Node14&#45;&gt;Node9 -->
<g id="edge18_Node000014_Node000009" class="edge">
<title>Node14&#45;&gt;Node9</title>
<g id="a_edge18_Node000014_Node000009"><a xlink:title=" ">
<path fill="none" stroke="#63b8ff" d="M942.16,-115.49C909.58,-105.36 854.99,-88.37 818.61,-77.05"/>
<polygon fill="#63b8ff" stroke="#63b8ff" points="819.46,-73.65 808.87,-74.02 817.38,-80.33 819.46,-73.65"/>
</a>
</g>
</g>
<!-- Node14&#45;&gt;Node11 -->
<g id="edge17_Node000014_Node000011" class="edge">
<title>Node14&#45;&gt;Node11</title>
<g id="a_edge17_Node000014_Node000011"><a xlink:title=" ">
<path fill="none" stroke="#63b8ff" d="M930.53,-115.49C879.87,-104.44 791.88,-85.23 740.97,-74.12"/>
<polygon fill="#63b8ff" stroke="#63b8ff" points="741.52,-70.65 731,-71.94 740.03,-77.49 741.52,-70.65"/>
</a>
</g>
</g>
<!-- Node14&#45;&gt;Node15 -->
<g id="edge19_Node000014_Node000015" class="edge">
<title>Node14&#45;&gt;Node15</title>
<g id="a_edge19_Node000014_Node000015"><a xlink:title=" ">
<path fill="none" stroke="#63b8ff" d="M959.76,-115.37C949.53,-106.3 933.21,-91.84 920.78,-80.82"/>
<polygon fill="#63b8ff" stroke="#63b8ff" points="923.08,-78.18 913.28,-74.17 918.44,-83.42 923.08,-78.18"/>
</a>
</g>
</g>
<!-- Node16 -->
<g id="Node000016" class="node">
<title>Node16</title>
<g id="a_Node000016"><a xlink:href="pluma-encodings_8h.html" target="_top" xlink:title=" ">
<polygon fill="white" stroke="#666666" points="1139,-74 996,-74 996,-55 1139,-55 1139,-74"/>
<text text-anchor="middle" x="1067.5" y="-62" font-family="Helvetica,sans-Serif" font-size="10.00">pluma/pluma&#45;encodings.h</text>
</a>
</g>
</g>
<!-- Node14&#45;&gt;Node16 -->
<g id="edge20_Node000014_Node000016" class="edge">
<title>Node14&#45;&gt;Node16</title>
<g id="a_edge20_Node000014_Node000016"><a xlink:title=" ">
<path fill="none" stroke="#63b8ff" d="M983.96,-115.37C999.81,-105.91 1025.47,-90.59 1044.18,-79.42"/>
<polygon fill="#63b8ff" stroke="#63b8ff" points="1046.19,-82.3 1052.98,-74.17 1042.6,-76.29 1046.19,-82.3"/>
</a>
</g>
</g>
<!-- Node17 -->
<g id="Node000017" class="node">
<title>Node17</title>
<g id="a_Node000017"><a xlink:title=" ">
<polygon fill="#e0e0e0" stroke="#999999" points="1343.5,-19 1299.5,-19 1299.5,0 1343.5,0 1343.5,-19"/>
<text text-anchor="middle" x="1321.5" y="-7" font-family="Helvetica,sans-Serif" font-size="10.00">glib.h</text>
</a>
</g>
</g>
<!-- Node16&#45;&gt;Node17 -->
<g id="edge21_Node000016_Node000017" class="edge">
<title>Node16&#45;&gt;Node17</title>
<g id="a_edge21_Node000016_Node000017"><a xlink:title=" ">
<path fill="none" stroke="#63b8ff" d="M1108.31,-54.98C1158.66,-44.48 1243.23,-26.83 1289.26,-17.23"/>
<polygon fill="#63b8ff" stroke="#63b8ff" points="1290.21,-20.6 1299.29,-15.13 1288.78,-13.75 1290.21,-20.6"/>
</a>
</g>
</g>
<!-- Node18 -->
<g id="Node000018" class="node">
<title>Node18</title>
<g id="a_Node000018"><a xlink:title=" ">
<polygon fill="#e0e0e0" stroke="#999999" points="604,-19 527,-19 527,0 604,0 604,-19"/>
<text text-anchor="middle" x="565.5" y="-7" font-family="Helvetica,sans-Serif" font-size="10.00">glib&#45;object.h</text>
</a>
</g>
</g>
<!-- Node16&#45;&gt;Node18 -->
<g id="edge22_Node000016_Node000018" class="edge">
<title>Node16&#45;&gt;Node18</title>
<g id="a_edge22_Node000016_Node000018"><a xlink:title=" ">
<path fill="none" stroke="#63b8ff" d="M995.84,-55.93C892.26,-45 703.38,-25.06 614.38,-15.66"/>
<polygon fill="#63b8ff" stroke="#63b8ff" points="614.6,-12.16 604.28,-14.59 613.86,-19.13 614.6,-12.16"/>
</a>
</g>
</g>
<!-- Node19&#45;&gt;Node9 -->
<g id="edge26_Node000019_Node000009" class="edge">
<title>Node19&#45;&gt;Node9</title>
<g id="a_edge26_Node000019_Node000009"><a xlink:title=" ">
<path fill="none" stroke="#63b8ff" d="M838.09,-241.72C832.02,-233.03 823.03,-219.16 817.5,-206 799.9,-164.16 789.24,-111.59 784.47,-84.14"/>
<polygon fill="#63b8ff" stroke="#63b8ff" points="787.88,-83.3 782.78,-74.01 780.97,-84.45 787.88,-83.3"/>
</a>
</g>
</g>
<!-- Node20&#45;&gt;Node18 -->
<g id="edge28_Node000020_Node000018" class="edge">
<title>Node20&#45;&gt;Node18</title>
<g id="a_edge28_Node000020_Node000018"><a xlink:title=" ">
<path fill="none" stroke="#63b8ff" d="M514.82,-175.91C524.68,-143.71 548.89,-64.7 559.89,-28.8"/>
<polygon fill="#63b8ff" stroke="#63b8ff" points="563.27,-29.72 562.85,-19.13 556.58,-27.67 563.27,-29.72"/>
</a>
</g>
</g>
<!-- Node21 -->
<g id="Node000021" class="node">
<title>Node21</title>
<g id="a_Node000021"><a xlink:href="pluma-message_8h.html" target="_top" xlink:title=" ">
<polygon fill="white" stroke="#666666" points="499.5,-74 361.5,-74 361.5,-55 499.5,-55 499.5,-74"/>
<text text-anchor="middle" x="430.5" y="-62" font-family="Helvetica,sans-Serif" font-size="10.00">pluma/pluma&#45;message.h</text>
</a>
</g>
</g>
<!-- Node20&#45;&gt;Node21 -->
<g id="edge29_Node000020_Node000021" class="edge">
<title>Node20&#45;&gt;Node21</title>
<g id="a_edge29_Node000020_Node000021"><a xlink:title=" ">
<path fill="none" stroke="#63b8ff" d="M512.42,-175.79C513.97,-158.79 514.15,-130.11 501.5,-110 492.69,-95.99 477.69,-85.65 463.74,-78.48"/>
<polygon fill="#63b8ff" stroke="#63b8ff" points="464.88,-75.14 454.34,-74.01 461.87,-81.46 464.88,-75.14"/>
</a>
</g>
</g>
<!-- Node23 -->
<g id="Node000023" class="node">
<title>Node23</title>
<g id="a_Node000023"><a xlink:href="pluma-message-type_8h.html" target="_top" xlink:title=" ">
<polygon fill="white" stroke="#666666" points="493,-140 364,-140 364,-110 493,-110 493,-140"/>
<text text-anchor="start" x="372" y="-128" font-family="Helvetica,sans-Serif" font-size="10.00">pluma/pluma&#45;message</text>
<text text-anchor="middle" x="428.5" y="-117" font-family="Helvetica,sans-Serif" font-size="10.00">&#45;type.h</text>
</a>
</g>
</g>
<!-- Node20&#45;&gt;Node23 -->
<g id="edge32_Node000020_Node000023" class="edge">
<title>Node20&#45;&gt;Node23</title>
<g id="a_edge32_Node000020_Node000023"><a xlink:title=" ">
<path fill="none" stroke="#63b8ff" d="M492.3,-175.8C481.26,-167.18 466.99,-156.04 454.74,-146.48"/>
<polygon fill="#63b8ff" stroke="#63b8ff" points="456.68,-143.56 446.65,-140.16 452.38,-149.08 456.68,-143.56"/>
</a>
</g>
</g>
<!-- Node21&#45;&gt;Node18 -->
<g id="edge30_Node000021_Node000018" class="edge">
<title>Node21&#45;&gt;Node18</title>
<g id="a_edge30_Node000021_Node000018"><a xlink:title=" ">
<path fill="none" stroke="#63b8ff" d="M452.19,-54.98C474.3,-46.3 508.82,-32.75 533.95,-22.88"/>
<polygon fill="#63b8ff" stroke="#63b8ff" points="535.39,-26.08 543.42,-19.17 532.83,-19.57 535.39,-26.08"/>
</a>
</g>
</g>
<!-- Node22 -->
<g id="Node000022" class="node">
<title>Node22</title>
<g id="a_Node000022"><a xlink:title=" ">
<polygon fill="#e0e0e0" stroke="#999999" points="391.5,-19 335.5,-19 335.5,0 391.5,0 391.5,-19"/>
<text text-anchor="middle" x="363.5" y="-7" font-family="Helvetica,sans-Serif" font-size="10.00">stdarg.h</text>
</a>
</g>
</g>
<!-- Node21&#45;&gt;Node22 -->
<g id="edge31_Node000021_Node000022" class="edge">
<title>Node21&#45;&gt;Node22</title>
<g id="a_edge31_Node000021_Node000022"><a xlink:title=" ">
<path fill="none" stroke="#63b8ff" d="M419.74,-54.98C409.73,-47.07 394.61,-35.11 382.57,-25.58"/>
<polygon fill="#63b8ff" stroke="#63b8ff" points="384.47,-22.63 374.46,-19.17 380.13,-28.12 384.47,-22.63"/>
</a>
</g>
</g>
<!-- Node23&#45;&gt;Node18 -->
<g id="edge33_Node000023_Node000018" class="edge">
<title>Node23&#45;&gt;Node18</title>
<g id="a_edge33_Node000023_Node000018"><a xlink:title=" ">
<path fill="none" stroke="#63b8ff" d="M454.98,-109.96C471.2,-100.77 491.95,-87.91 508.5,-74 525.43,-59.77 542,-40.54 552.87,-26.98"/>
<polygon fill="#63b8ff" stroke="#63b8ff" points="555.72,-29.03 559.14,-19 550.21,-24.7 555.72,-29.03"/>
</a>
</g>
</g>
<!-- Node23&#45;&gt;Node21 -->
<g id="edge35_Node000023_Node000021" class="edge">
<title>Node23&#45;&gt;Node21</title>
<g id="a_edge35_Node000023_Node000021"><a xlink:title=" ">
<path fill="none" stroke="#63b8ff" d="M428.98,-109.84C429.24,-102.21 429.57,-92.7 429.85,-84.45"/>
<polygon fill="#63b8ff" stroke="#63b8ff" points="433.36,-84.38 430.2,-74.27 426.36,-84.14 433.36,-84.38"/>
</a>
</g>
</g>
<!-- Node23&#45;&gt;Node22 -->
<g id="edge34_Node000023_Node000022" class="edge">
<title>Node23&#45;&gt;Node22</title>
<g id="a_edge34_Node000023_Node000022"><a xlink:title=" ">
<path fill="none" stroke="#63b8ff" d="M392.97,-109.96C377.61,-101.9 361.19,-90.13 352.5,-74 344.96,-60.01 349.17,-42 354.42,-28.73"/>
<polygon fill="#63b8ff" stroke="#63b8ff" points="357.76,-29.84 358.64,-19.28 351.37,-26.98 357.76,-29.84"/>
</a>
</g>
</g>
<!-- Node24&#45;&gt;Node9 -->
<g id="edge37_Node000024_Node000009" class="edge">
<title>Node24&#45;&gt;Node9</title>
<g id="a_edge37_Node000024_Node000009"><a xlink:title=" ">
<path fill="none" stroke="#63b8ff" d="M718.83,-351.7C711.98,-343.21 702.45,-329.68 698.5,-316 696.16,-307.89 697.05,-305.32 698.5,-297 712.94,-213.95 754.48,-121.3 772.72,-83.26"/>
<polygon fill="#63b8ff" stroke="#63b8ff" points="775.99,-84.56 777.21,-74.03 769.69,-81.5 775.99,-84.56"/>
</a>
</g>
</g>
<!-- Node24&#45;&gt;Node10 -->
<g id="edge38_Node000024_Node000010" class="edge">
<title>Node24&#45;&gt;Node10</title>
<g id="a_edge38_Node000024_Node000010"><a xlink:title=" ">
<path fill="none" stroke="#63b8ff" d="M734.26,-351.75C740.97,-344.18 750.84,-333.05 759.01,-323.84"/>
<polygon fill="#63b8ff" stroke="#63b8ff" points="761.87,-325.89 765.88,-316.09 756.63,-321.25 761.87,-325.89"/>
</a>
</g>
</g>
<!-- Node25&#45;&gt;Node9 -->
<g id="edge42_Node000025_Node000009" class="edge">
<title>Node25&#45;&gt;Node9</title>
<g id="a_edge42_Node000025_Node000009"><a xlink:title=" ">
<path fill="none" stroke="#63b8ff" d="M1065.98,-296.88C1070.35,-288.09 1076.86,-273.94 1080.5,-261 1098.73,-196.15 1118.86,-153.59 1067.5,-110 1027.27,-75.86 889.48,-83.06 821.57,-73.85"/>
<polygon fill="#63b8ff" stroke="#63b8ff" points="822.11,-70.4 811.69,-72.3 821.03,-77.31 822.11,-70.4"/>
</a>
</g>
</g>
<!-- Node25&#45;&gt;Node12 -->
<g id="edge40_Node000025_Node000012" class="edge">
<title>Node25&#45;&gt;Node12</title>
<g id="a_edge40_Node000025_Node000012"><a xlink:title=" ">
<path fill="none" stroke="#63b8ff" d="M1054.07,-296.75C1047.65,-289.18 1038.19,-278.05 1030.38,-268.84"/>
<polygon fill="#63b8ff" stroke="#63b8ff" points="1032.93,-266.45 1023.79,-261.09 1027.6,-270.98 1032.93,-266.45"/>
</a>
</g>
</g>
<!-- Node25&#45;&gt;Node17 -->
<g id="edge41_Node000025_Node000017" class="edge">
<title>Node25&#45;&gt;Node17</title>
<g id="a_edge41_Node000025_Node000017"><a xlink:title=" ">
<path fill="none" stroke="#63b8ff" d="M1076.27,-296.92C1112.77,-275.08 1208.31,-213.81 1264.5,-140 1278.54,-121.56 1302.86,-59.91 1314.67,-28.8"/>
<polygon fill="#63b8ff" stroke="#63b8ff" points="1318.04,-29.78 1318.29,-19.19 1311.49,-27.31 1318.04,-29.78"/>
</a>
</g>
</g>
<!-- Node26&#45;&gt;Node17 -->
<g id="edge44_Node000026_Node000017" class="edge">
<title>Node26&#45;&gt;Node17</title>
<g id="a_edge44_Node000026_Node000017"><a xlink:title=" ">
<path fill="none" stroke="#63b8ff" d="M1342.8,-181.38C1343.39,-159.87 1343.99,-102.12 1335.5,-55 1333.92,-46.23 1331.11,-36.78 1328.43,-28.86"/>
<polygon fill="#63b8ff" stroke="#63b8ff" points="1331.63,-27.43 1324.96,-19.2 1325.04,-29.79 1331.63,-27.43"/>
</a>
</g>
</g>
<!-- Node27&#45;&gt;Node9 -->
<g id="edge47_Node000027_Node000009" class="edge">
<title>Node27&#45;&gt;Node9</title>
<g id="a_edge47_Node000027_Node000009"><a xlink:title=" ">
<path fill="none" stroke="#63b8ff" d="M1173.8,-117.6C1157.54,-115.11 1138.65,-112.32 1121.5,-110 991.24,-92.41 955.11,-96.17 821.87,-74.08"/>
<polygon fill="#63b8ff" stroke="#63b8ff" points="822.12,-70.58 811.68,-72.38 820.96,-77.48 822.12,-70.58"/>
</a>
</g>
</g>
<!-- Node27&#45;&gt;Node15 -->
<g id="edge50_Node000027_Node000015" class="edge">
<title>Node27&#45;&gt;Node15</title>
<g id="a_edge50_Node000027_Node000015"><a xlink:title=" ">
<path fill="none" stroke="#63b8ff" d="M1182.61,-115.44C1175.06,-113.53 1167.02,-111.61 1159.5,-110 1095.5,-96.31 1021.82,-83.85 969.99,-75.62"/>
<polygon fill="#63b8ff" stroke="#63b8ff" points="970.35,-72.13 959.92,-74.03 969.26,-79.04 970.35,-72.13"/>
</a>
</g>
</g>
<!-- Node27&#45;&gt;Node16 -->
<g id="edge49_Node000027_Node000016" class="edge">
<title>Node27&#45;&gt;Node16</title>
<g id="a_edge49_Node000027_Node000016"><a xlink:title=" ">
<path fill="none" stroke="#63b8ff" d="M1193.12,-115.49C1168.19,-105.57 1126.78,-89.09 1098.36,-77.78"/>
<polygon fill="#63b8ff" stroke="#63b8ff" points="1099.49,-74.46 1088.9,-74.02 1096.9,-80.97 1099.49,-74.46"/>
</a>
</g>
</g>
<!-- Node27&#45;&gt;Node17 -->
<g id="edge46_Node000027_Node000017" class="edge">
<title>Node27&#45;&gt;Node17</title>
<g id="a_edge46_Node000027_Node000017"><a xlink:title=" ">
<path fill="none" stroke="#63b8ff" d="M1220.78,-115.06C1230.5,-101.47 1250.13,-75.06 1269.5,-55 1279.69,-44.45 1292.14,-33.73 1302.31,-25.45"/>
<polygon fill="#63b8ff" stroke="#63b8ff" points="1304.58,-28.11 1310.21,-19.13 1300.21,-22.65 1304.58,-28.11"/>
</a>
</g>
</g>
<!-- Node28 -->
<g id="Node000028" class="node">
<title>Node28</title>
<g id="a_Node000028"><a xlink:title=" ">
<polygon fill="#e0e0e0" stroke="#999999" points="1217.5,-74 1157.5,-74 1157.5,-55 1217.5,-55 1217.5,-74"/>
<text text-anchor="middle" x="1187.5" y="-62" font-family="Helvetica,sans-Serif" font-size="10.00">atk/atk.h</text>
</a>
</g>
</g>
<!-- Node27&#45;&gt;Node28 -->
<g id="edge48_Node000027_Node000028" class="edge">
<title>Node27&#45;&gt;Node28</title>
<g id="a_edge48_Node000027_Node000028"><a xlink:title=" ">
<path fill="none" stroke="#63b8ff" d="M1210.52,-115.37C1206.65,-106.99 1200.66,-94.01 1195.76,-83.39"/>
<polygon fill="#63b8ff" stroke="#63b8ff" points="1198.87,-81.78 1191.5,-74.17 1192.51,-84.71 1198.87,-81.78"/>
</a>
</g>
</g>
<!-- Node29&#45;&gt;Node18 -->
<g id="edge52_Node000029_Node000018" class="edge">
<title>Node29&#45;&gt;Node18</title>
<g id="a_edge52_Node000029_Node000018"><a xlink:title=" ">
<path fill="none" stroke="#63b8ff" d="M560.24,-296.95C573.89,-278.76 603.5,-234.42 603.5,-192 603.5,-192 603.5,-192 603.5,-124 603.5,-88.48 586.56,-49.79 575.3,-28"/>
<polygon fill="#63b8ff" stroke="#63b8ff" points="578.28,-26.16 570.47,-19 572.11,-29.47 578.28,-26.16"/>
</a>
</g>
</g>
<!-- Node30&#45;&gt;Node17 -->
<g id="edge54_Node000030_Node000017" class="edge">
<title>Node30&#45;&gt;Node17</title>
<g id="a_edge54_Node000030_Node000017"><a xlink:title=" ">
<path fill="none" stroke="#63b8ff" d="M1380.2,-351.96C1391.47,-334.23 1415.5,-291.81 1415.5,-252.5 1415.5,-252.5 1415.5,-252.5 1415.5,-124 1415.5,-79.67 1372.45,-43.36 1344.62,-24.52"/>
<polygon fill="#63b8ff" stroke="#63b8ff" points="1346.48,-21.55 1336.19,-19.02 1342.65,-27.42 1346.48,-21.55"/>
</a>
</g>
</g>
<!-- Node31&#45;&gt;Node8 -->
<g id="edge58_Node000031_Node000008" class="edge">
<title>Node31&#45;&gt;Node8</title>
<g id="a_edge58_Node000031_Node000008"><a xlink:title=" ">
<path fill="none" stroke="#63b8ff" d="M767.19,-412.37C780.91,-403.04 803,-388.01 819.35,-376.88"/>
<polygon fill="#63b8ff" stroke="#63b8ff" points="821.46,-379.69 827.76,-371.17 817.52,-373.9 821.46,-379.69"/>
</a>
</g>
</g>
<!-- Node31&#45;&gt;Node17 -->
<g id="edge57_Node000031_Node000017" class="edge">
<title>Node31&#45;&gt;Node17</title>
<g id="a_edge57_Node000031_Node000017"><a xlink:title=" ">
<path fill="none" stroke="#63b8ff" d="M804.35,-420.52C933.59,-417.95 1269.5,-402.15 1269.5,-307.5 1269.5,-307.5 1269.5,-307.5 1269.5,-250.5 1269.5,-247.68 1305.13,-85.09 1317.4,-29.16"/>
<polygon fill="#63b8ff" stroke="#63b8ff" points="1320.86,-29.72 1319.59,-19.21 1314.02,-28.22 1320.86,-29.72"/>
</a>
</g>
</g>
<!-- Node31&#45;&gt;Node18 -->
<g id="edge56_Node000031_Node000018" class="edge">
<title>Node31&#45;&gt;Node18</title>
<g id="a_edge56_Node000031_Node000018"><a xlink:title=" ">
<path fill="none" stroke="#63b8ff" d="M725.95,-412.49C705,-404.84 677.37,-391.59 660.5,-371 641.83,-348.21 641.5,-336.96 641.5,-307.5 641.5,-307.5 641.5,-307.5 641.5,-124 641.5,-83.03 606.88,-45.66 584.37,-25.69"/>
<polygon fill="#63b8ff" stroke="#63b8ff" points="586.59,-22.99 576.71,-19.15 582.04,-28.31 586.59,-22.99"/>
</a>
</g>
</g>
<!-- Node32&#45;&gt;Node18 -->
<g id="edge60_Node000032_Node000018" class="edge">
<title>Node32&#45;&gt;Node18</title>
<g id="a_edge60_Node000032_Node000018"><a xlink:title=" ">
<path fill="none" stroke="#63b8ff" d="M392.93,-241.96C371.1,-212.47 304.95,-113.52 352.5,-55 372.8,-30.02 460.44,-18.58 516.79,-13.72"/>
<polygon fill="#63b8ff" stroke="#63b8ff" points="517.24,-17.2 526.92,-12.89 516.67,-10.22 517.24,-17.2"/>
</a>
</g>
</g>
<!-- Node33&#45;&gt;Node17 -->
<g id="edge62_Node000033_Node000017" class="edge">
<title>Node33&#45;&gt;Node17</title>
<g id="a_edge62_Node000033_Node000017"><a xlink:title=" ">
<path fill="none" stroke="#63b8ff" d="M1511.87,-412.49C1528,-404.11 1550.93,-389.84 1564.5,-371 1581.71,-347.09 1583.5,-336.96 1583.5,-307.5 1583.5,-307.5 1583.5,-307.5 1583.5,-124 1583.5,-24.98 1423.99,-11.39 1353.89,-10.19"/>
<polygon fill="#63b8ff" stroke="#63b8ff" points="1353.87,-6.69 1343.84,-10.09 1353.8,-13.69 1353.87,-6.69"/>
</a>
</g>
</g>
<!-- Node34 -->
<g id="Node000034" class="node">
<title>Node34</title>
<g id="a_Node000034"><a xlink:title=" ">
<polygon fill="#e0e0e0" stroke="#999999" points="1555.5,-371 1431.5,-371 1431.5,-352 1555.5,-352 1555.5,-371"/>
<text text-anchor="middle" x="1493.5" y="-359" font-family="Helvetica,sans-Serif" font-size="10.00">libpeas/peas&#45;engine.h</text>
</a>
</g>
</g>
<!-- Node33&#45;&gt;Node34 -->
<g id="edge63_Node000033_Node000034" class="edge">
<title>Node33&#45;&gt;Node34</title>
<g id="a_edge63_Node000033_Node000034"><a xlink:title=" ">
<path fill="none" stroke="#63b8ff" d="M1493.5,-412.37C1493.5,-404.25 1493.5,-391.81 1493.5,-381.39"/>
<polygon fill="#63b8ff" stroke="#63b8ff" points="1497,-381.17 1493.5,-371.17 1490,-381.17 1497,-381.17"/>
</a>
</g>
</g>
</g>
</svg>

<g id="navigator" transform="translate(0 0)" fill="#404254">
  <rect fill="#f2f5e9" fill-opacity="0.5" stroke="#606060" stroke-width=".5" x="0" y="0" width="60" height="60"/>
  <use id="zoomplus" xlink:href="#zoomPlus" x="17" y="9" onmousedown="handleZoom(evt,'in')"/>
  <use id="zoomminus" xlink:href="#zoomMin" x="42" y="9" onmousedown="handleZoom(evt,'out')"/>
  <use id="reset" xlink:href="#resetDef" x="30" y="36" onmousedown="handleReset()"/>
   <use id="arrowup" xlink:href="#arrowUp" x="0" y="0" onmousedown="handlePan(0,-1)"/>
  <use id="arrowright" xlink:href="#arrowRight" x="0" y="0" onmousedown="handlePan(1,0)"/>
  <use id="arrowdown" xlink:href="#arrowDown" x="0" y="0" onmousedown="handlePan(0,1)"/>
  <use id="arrowleft" xlink:href="#arrowLeft" x="0" y="0" onmousedown="handlePan(-1,0)"/>
</g>
<svg viewBox="0 0 15 15" width="100%" height="30px" preserveAspectRatio="xMaxYMin meet">
 <g id="arrow_out" transform="scale(0.3 0.3)">
  <a xlink:href="pluma-app_8c__incl_org.svg" target="_base">
   <rect id="button" ry="5" rx="5" y="6" x="6" height="38" width="38"
        fill="#f2f5e9" fill-opacity="0.5" stroke="#606060" stroke-width="1.0"/>
   <path id="arrow"
     d="M 11.500037,31.436501 C 11.940474,20.09759 22.043105,11.32322 32.158766,21.979434 L 37.068811,17.246167 C 37.068811,17.246167 37.088388,32 37.088388,32 L 22.160133,31.978069 C 22.160133,31.978069 26.997745,27.140456 26.997745,27.140456 C 18.528582,18.264221 13.291696,25.230495 11.500037,31.436501 z"
     style="fill:#404040;"/>
  </a>
 </g>
</svg>

<style type='text/css'>
<![CDATA[
[data-mouse-over-selected='false'] { opacity: 0.7; }
[data-mouse-over-selected='true']  { opacity: 1.0; }
]]>
</style>
<script type="application/ecmascript"><![CDATA[
document.addEventListener('DOMContentLoaded', (event) => {
  highlightEdges();
  highlightAdjacentNodes();
});
]]></script>
</svg>
