<?xml version="1.0" encoding="UTF-8" standalone="no"?>
<!DOCTYPE svg PUBLIC "-//W3C//DTD SVG 1.1//EN"
 "http://www.w3.org/Graphics/SVG/1.1/DTD/svg11.dtd">
<!-- Generated by graphviz version 2.43.0 (0)
 -->
<!-- Title: pluma&#45;document&#45;loader.c Pages: 1 -->
<svg width="1446pt" height="489pt"
 viewBox="0.00 0.00 1446.05 489.00" xmlns="http://www.w3.org/2000/svg" xmlns:xlink="http://www.w3.org/1999/xlink">
<g id="graph0" class="graph" transform="scale(1 1) rotate(0) translate(4 485)">
<title>pluma&#45;document&#45;loader.c</title>
<!-- Node1 -->
<g id="Node000001" class="node">
<title>Node1</title>
<g id="a_Node000001"><a xlink:title=" ">
<polygon fill="#999999" stroke="#666666" points="453,-481 311,-481 311,-462 453,-462 453,-481"/>
<text text-anchor="middle" x="382" y="-469" font-family="Helvetica,sans-Serif" font-size="10.00">pluma&#45;document&#45;loader.c</text>
</a>
</g>
</g>
<!-- Node2 -->
<g id="Node000002" class="node">
<title>Node2</title>
<g id="a_Node000002"><a xlink:title=" ">
<polygon fill="#e0e0e0" stroke="#999999" points="74,-426 0,-426 0,-407 74,-407 74,-426"/>
<text text-anchor="middle" x="37" y="-414" font-family="Helvetica,sans-Serif" font-size="10.00">glib/gi18n.h</text>
</a>
</g>
</g>
<!-- Node1&#45;&gt;Node2 -->
<g id="edge1_Node000001_Node000002" class="edge">
<title>Node1&#45;&gt;Node2</title>
<g id="a_edge1_Node000001_Node000002"><a xlink:title=" ">
<path fill="none" stroke="#63b8ff" d="M320.34,-461.97C262.06,-453.75 171.92,-440.68 84.26,-426.16"/>
<polygon fill="#63b8ff" stroke="#63b8ff" points="84.58,-422.67 74.14,-424.48 83.43,-429.57 84.58,-422.67"/>
</a>
</g>
</g>
<!-- Node3 -->
<g id="Node000003" class="node">
<title>Node3</title>
<g id="a_Node000003"><a xlink:title=" ">
<polygon fill="#e0e0e0" stroke="#999999" points="169.5,-426 92.5,-426 92.5,-407 169.5,-407 169.5,-426"/>
<text text-anchor="middle" x="131" y="-414" font-family="Helvetica,sans-Serif" font-size="10.00">glib/gstdio.h</text>
</a>
</g>
</g>
<!-- Node1&#45;&gt;Node3 -->
<g id="edge2_Node000001_Node000003" class="edge">
<title>Node1&#45;&gt;Node3</title>
<g id="a_edge2_Node000001_Node000003"><a xlink:title=" ">
<path fill="none" stroke="#63b8ff" d="M341.67,-461.98C297.52,-452.66 226.73,-437.71 179.56,-427.75"/>
<polygon fill="#63b8ff" stroke="#63b8ff" points="180.09,-424.29 169.58,-425.65 178.64,-431.14 180.09,-424.29"/>
</a>
</g>
</g>
<!-- Node4 -->
<g id="Node000004" class="node">
<title>Node4</title>
<g id="a_Node000004"><a xlink:title=" ">
<polygon fill="#e0e0e0" stroke="#999999" points="507.5,-74 448.5,-74 448.5,-55 507.5,-55 507.5,-74"/>
<text text-anchor="middle" x="478" y="-62" font-family="Helvetica,sans-Serif" font-size="10.00">gio/gio.h</text>
</a>
</g>
</g>
<!-- Node1&#45;&gt;Node4 -->
<g id="edge3_Node000001_Node000004" class="edge">
<title>Node1&#45;&gt;Node4</title>
<g id="a_edge3_Node000001_Node000004"><a xlink:title=" ">
<path fill="none" stroke="#63b8ff" d="M376.72,-461.9C366.27,-444.07 344,-401.46 344,-362.5 344,-362.5 344,-362.5 344,-250.5 344,-174.5 419.09,-108.62 456.85,-80.29"/>
<polygon fill="#63b8ff" stroke="#63b8ff" points="459.15,-82.94 465.15,-74.22 455.01,-77.3 459.15,-82.94"/>
</a>
</g>
</g>
<!-- Node5 -->
<g id="Node000005" class="node">
<title>Node5</title>
<g id="a_Node000005"><a xlink:href="pluma-document-loader_8h.html" target="_top" xlink:title=" ">
<polygon fill="white" stroke="#666666" points="821.5,-316 678.5,-316 678.5,-297 821.5,-297 821.5,-316"/>
<text text-anchor="middle" x="750" y="-304" font-family="Helvetica,sans-Serif" font-size="10.00">pluma&#45;document&#45;loader.h</text>
</a>
</g>
</g>
<!-- Node1&#45;&gt;Node5 -->
<g id="edge4_Node000001_Node000005" class="edge">
<title>Node1&#45;&gt;Node5</title>
<g id="a_edge4_Node000001_Node000005"><a xlink:title=" ">
<path fill="none" stroke="#63b8ff" d="M453.3,-465.48C524.97,-459.34 629.61,-447.07 664,-426 703.42,-401.85 730.23,-352.21 742.46,-325.48"/>
<polygon fill="#63b8ff" stroke="#63b8ff" points="745.73,-326.73 746.55,-316.16 739.32,-323.91 745.73,-326.73"/>
</a>
</g>
</g>
<!-- Node12 -->
<g id="Node000012" class="node">
<title>Node12</title>
<g id="a_Node000012"><a xlink:href="pluma-document-output-stream_8h.html" target="_top" xlink:title=" ">
<polygon fill="white" stroke="#666666" points="583.5,-206 448.5,-206 448.5,-176 583.5,-176 583.5,-206"/>
<text text-anchor="start" x="456.5" y="-194" font-family="Helvetica,sans-Serif" font-size="10.00">pluma&#45;document&#45;output</text>
<text text-anchor="middle" x="516" y="-183" font-family="Helvetica,sans-Serif" font-size="10.00">&#45;stream.h</text>
</a>
</g>
</g>
<!-- Node1&#45;&gt;Node12 -->
<g id="edge12_Node000001_Node000012" class="edge">
<title>Node1&#45;&gt;Node12</title>
<g id="a_edge12_Node000001_Node000012"><a xlink:title=" ">
<path fill="none" stroke="#63b8ff" d="M382,-461.82C382,-443.48 382,-399.44 382,-362.5 382,-362.5 382,-362.5 382,-305.5 382,-259.41 428.74,-228.17 467.01,-210.32"/>
<polygon fill="#63b8ff" stroke="#63b8ff" points="468.82,-213.34 476.52,-206.07 465.96,-206.95 468.82,-213.34"/>
</a>
</g>
</g>
<!-- Node13 -->
<g id="Node000013" class="node">
<title>Node13</title>
<g id="a_Node000013"><a xlink:href="pluma-smart-charset-converter_8h.html" target="_top" xlink:title=" ">
<polygon fill="white" stroke="#666666" points="1182.5,-140 1063.5,-140 1063.5,-110 1182.5,-110 1182.5,-140"/>
<text text-anchor="start" x="1071.5" y="-128" font-family="Helvetica,sans-Serif" font-size="10.00">pluma&#45;smart&#45;charset</text>
<text text-anchor="middle" x="1123" y="-117" font-family="Helvetica,sans-Serif" font-size="10.00">&#45;converter.h</text>
</a>
</g>
</g>
<!-- Node1&#45;&gt;Node13 -->
<g id="edge15_Node000001_Node000013" class="edge">
<title>Node1&#45;&gt;Node13</title>
<g id="a_edge15_Node000001_Node000013"><a xlink:title=" ">
<path fill="none" stroke="#63b8ff" d="M453.27,-467.16C634.37,-457.72 1098,-427.24 1098,-362.5 1098,-362.5 1098,-362.5 1098,-250.5 1098,-214.81 1108,-174.48 1115.35,-149.64"/>
<polygon fill="#63b8ff" stroke="#63b8ff" points="1118.72,-150.59 1118.3,-140.01 1112.02,-148.54 1118.72,-150.59"/>
</a>
</g>
</g>
<!-- Node14 -->
<g id="Node000014" class="node">
<title>Node14</title>
<g id="a_Node000014"><a xlink:href="pluma-debug_8h.html" target="_top" xlink:title=" ">
<polygon fill="white" stroke="#666666" points="316,-371 226,-371 226,-352 316,-352 316,-371"/>
<text text-anchor="middle" x="271" y="-359" font-family="Helvetica,sans-Serif" font-size="10.00">pluma&#45;debug.h</text>
</a>
</g>
</g>
<!-- Node1&#45;&gt;Node14 -->
<g id="edge18_Node000001_Node000014" class="edge">
<title>Node1&#45;&gt;Node14</title>
<g id="a_edge18_Node000001_Node000014"><a xlink:title=" ">
<path fill="none" stroke="#63b8ff" d="M371.33,-461.97C360.6,-453.26 343.71,-439.17 330,-426 313.97,-410.61 296.8,-391.85 285.14,-378.73"/>
<polygon fill="#63b8ff" stroke="#63b8ff" points="287.58,-376.2 278.35,-371.01 282.33,-380.82 287.58,-376.2"/>
</a>
</g>
</g>
<!-- Node15 -->
<g id="Node000015" class="node">
<title>Node15</title>
<g id="a_Node000015"><a xlink:href="pluma-metadata-manager_8h.html" target="_top" xlink:title=" ">
<polygon fill="white" stroke="#666666" points="276,-316 122,-316 122,-297 276,-297 276,-316"/>
<text text-anchor="middle" x="199" y="-304" font-family="Helvetica,sans-Serif" font-size="10.00">pluma&#45;metadata&#45;manager.h</text>
</a>
</g>
</g>
<!-- Node1&#45;&gt;Node15 -->
<g id="edge20_Node000001_Node000015" class="edge">
<title>Node1&#45;&gt;Node15</title>
<g id="a_edge20_Node000001_Node000015"><a xlink:title=" ">
<path fill="none" stroke="#63b8ff" d="M356.36,-461.94C319.89,-448.45 253.42,-418.74 217,-371 207.12,-358.05 202.66,-339.89 200.65,-326.31"/>
<polygon fill="#63b8ff" stroke="#63b8ff" points="204.11,-325.72 199.47,-316.19 197.15,-326.53 204.11,-325.72"/>
</a>
</g>
</g>
<!-- Node16 -->
<g id="Node000016" class="node">
<title>Node16</title>
<g id="a_Node000016"><a xlink:href="pluma-utils_8h.html" target="_top" xlink:title=" ">
<polygon fill="white" stroke="#666666" points="655.5,-134.5 574.5,-134.5 574.5,-115.5 655.5,-115.5 655.5,-134.5"/>
<text text-anchor="middle" x="615" y="-122.5" font-family="Helvetica,sans-Serif" font-size="10.00">pluma&#45;utils.h</text>
</a>
</g>
</g>
<!-- Node1&#45;&gt;Node16 -->
<g id="edge22_Node000001_Node000016" class="edge">
<title>Node1&#45;&gt;Node16</title>
<g id="a_edge22_Node000001_Node000016"><a xlink:title=" ">
<path fill="none" stroke="#63b8ff" d="M427.16,-461.98C503.54,-446.28 650,-409.97 650,-362.5 650,-362.5 650,-362.5 650,-250.5 650,-211.19 633.63,-167.41 623.28,-143.67"/>
<polygon fill="#63b8ff" stroke="#63b8ff" points="626.46,-142.2 619.15,-134.52 620.07,-145.08 626.46,-142.2"/>
</a>
</g>
</g>
<!-- Node18 -->
<g id="Node000018" class="node">
<title>Node18</title>
<g id="a_Node000018"><a xlink:href="pluma-enum-types_8h.html" target="_top" xlink:title=" ">
<polygon fill="white" stroke="#666666" points="1357.5,-371 1238.5,-371 1238.5,-352 1357.5,-352 1357.5,-371"/>
<text text-anchor="middle" x="1298" y="-359" font-family="Helvetica,sans-Serif" font-size="10.00">pluma&#45;enum&#45;types.h</text>
</a>
</g>
</g>
<!-- Node1&#45;&gt;Node18 -->
<g id="edge28_Node000001_Node000018" class="edge">
<title>Node1&#45;&gt;Node18</title>
<g id="a_edge28_Node000001_Node000018"><a xlink:title=" ">
<path fill="none" stroke="#63b8ff" d="M453.04,-468.59C611.01,-463.95 987.28,-450.63 1112,-426 1169.37,-414.67 1233.29,-390.05 1269.28,-375.01"/>
<polygon fill="#63b8ff" stroke="#63b8ff" points="1270.81,-378.16 1278.66,-371.04 1268.08,-371.72 1270.81,-378.16"/>
</a>
</g>
</g>
<!-- Node19 -->
<g id="Node000019" class="node">
<title>Node19</title>
<g id="a_Node000019"><a xlink:href="pluma-settings_8h.html" target="_top" xlink:title=" ">
<polygon fill="white" stroke="#666666" points="509.5,-426 410.5,-426 410.5,-407 509.5,-407 509.5,-426"/>
<text text-anchor="middle" x="460" y="-414" font-family="Helvetica,sans-Serif" font-size="10.00">pluma&#45;settings.h</text>
</a>
</g>
</g>
<!-- Node1&#45;&gt;Node19 -->
<g id="edge30_Node000001_Node000019" class="edge">
<title>Node1&#45;&gt;Node19</title>
<g id="a_edge30_Node000001_Node000019"><a xlink:title=" ">
<path fill="none" stroke="#63b8ff" d="M394.53,-461.98C406.4,-453.92 424.46,-441.65 438.61,-432.03"/>
<polygon fill="#63b8ff" stroke="#63b8ff" points="440.94,-434.69 447.24,-426.17 437,-428.9 440.94,-434.69"/>
</a>
</g>
</g>
<!-- Node6 -->
<g id="Node000006" class="node">
<title>Node6</title>
<g id="a_Node000006"><a xlink:href="pluma-document_8h.html" target="_top" xlink:title=" ">
<polygon fill="white" stroke="#666666" points="816.5,-134.5 673.5,-134.5 673.5,-115.5 816.5,-115.5 816.5,-134.5"/>
<text text-anchor="middle" x="745" y="-122.5" font-family="Helvetica,sans-Serif" font-size="10.00">pluma/pluma&#45;document.h</text>
</a>
</g>
</g>
<!-- Node5&#45;&gt;Node6 -->
<g id="edge5_Node000005_Node000006" class="edge">
<title>Node5&#45;&gt;Node6</title>
<g id="a_edge5_Node000005_Node000006"><a xlink:title=" ">
<path fill="none" stroke="#63b8ff" d="M738.36,-296.73C728.69,-288.67 715.65,-275.74 710,-261 694.32,-220.1 718.28,-169.6 733.68,-143.48"/>
<polygon fill="#63b8ff" stroke="#63b8ff" points="736.8,-145.09 739.07,-134.74 730.84,-141.42 736.8,-145.09"/>
</a>
</g>
</g>
<!-- Node6&#45;&gt;Node4 -->
<g id="edge6_Node000006_Node000004" class="edge">
<title>Node6&#45;&gt;Node4</title>
<g id="a_edge6_Node000006_Node000004"><a xlink:title=" ">
<path fill="none" stroke="#63b8ff" d="M706.18,-115.49C655.84,-104.47 568.51,-85.33 517.73,-74.21"/>
<polygon fill="#63b8ff" stroke="#63b8ff" points="518.3,-70.75 507.78,-72.03 516.8,-77.58 518.3,-70.75"/>
</a>
</g>
</g>
<!-- Node7 -->
<g id="Node000007" class="node">
<title>Node7</title>
<g id="a_Node000007"><a xlink:title=" ">
<polygon fill="#e0e0e0" stroke="#999999" points="1030,-74 970,-74 970,-55 1030,-55 1030,-74"/>
<text text-anchor="middle" x="1000" y="-62" font-family="Helvetica,sans-Serif" font-size="10.00">gtk/gtk.h</text>
</a>
</g>
</g>
<!-- Node6&#45;&gt;Node7 -->
<g id="edge7_Node000006_Node000007" class="edge">
<title>Node6&#45;&gt;Node7</title>
<g id="a_edge7_Node000006_Node000007"><a xlink:title=" ">
<path fill="none" stroke="#63b8ff" d="M782.08,-115.49C829.41,-104.64 910.98,-85.92 959.77,-74.73"/>
<polygon fill="#63b8ff" stroke="#63b8ff" points="960.7,-78.11 969.66,-72.46 959.13,-71.28 960.7,-78.11"/>
</a>
</g>
</g>
<!-- Node8 -->
<g id="Node000008" class="node">
<title>Node8</title>
<g id="a_Node000008"><a xlink:title=" ">
<polygon fill="#e0e0e0" stroke="#999999" points="790,-74 642,-74 642,-55 790,-55 790,-74"/>
<text text-anchor="middle" x="716" y="-62" font-family="Helvetica,sans-Serif" font-size="10.00">gtksourceview/gtksource.h</text>
</a>
</g>
</g>
<!-- Node6&#45;&gt;Node8 -->
<g id="edge8_Node000006_Node000008" class="edge">
<title>Node6&#45;&gt;Node8</title>
<g id="a_edge8_Node000006_Node000008"><a xlink:title=" ">
<path fill="none" stroke="#63b8ff" d="M740.72,-115.37C736.57,-106.99 730.13,-94.01 724.87,-83.39"/>
<polygon fill="#63b8ff" stroke="#63b8ff" points="727.87,-81.57 720.3,-74.17 721.6,-84.68 727.87,-81.57"/>
</a>
</g>
</g>
<!-- Node9 -->
<g id="Node000009" class="node">
<title>Node9</title>
<g id="a_Node000009"><a xlink:href="pluma-encodings_8h.html" target="_top" xlink:title=" ">
<polygon fill="white" stroke="#666666" points="951.5,-74 808.5,-74 808.5,-55 951.5,-55 951.5,-74"/>
<text text-anchor="middle" x="880" y="-62" font-family="Helvetica,sans-Serif" font-size="10.00">pluma/pluma&#45;encodings.h</text>
</a>
</g>
</g>
<!-- Node6&#45;&gt;Node9 -->
<g id="edge9_Node000006_Node000009" class="edge">
<title>Node6&#45;&gt;Node9</title>
<g id="a_edge9_Node000006_Node000009"><a xlink:title=" ">
<path fill="none" stroke="#63b8ff" d="M764.63,-115.49C787.33,-105.66 824.9,-89.38 850.97,-78.08"/>
<polygon fill="#63b8ff" stroke="#63b8ff" points="852.56,-81.2 860.35,-74.02 849.78,-74.78 852.56,-81.2"/>
</a>
</g>
</g>
<!-- Node10 -->
<g id="Node000010" class="node">
<title>Node10</title>
<g id="a_Node000010"><a xlink:title=" ">
<polygon fill="#e0e0e0" stroke="#999999" points="366,-19 322,-19 322,0 366,0 366,-19"/>
<text text-anchor="middle" x="344" y="-7" font-family="Helvetica,sans-Serif" font-size="10.00">glib.h</text>
</a>
</g>
</g>
<!-- Node9&#45;&gt;Node10 -->
<g id="edge10_Node000009_Node000010" class="edge">
<title>Node9&#45;&gt;Node10</title>
<g id="a_edge10_Node000009_Node000010"><a xlink:title=" ">
<path fill="none" stroke="#63b8ff" d="M808.45,-55.96C805.26,-55.64 802.09,-55.31 799,-55 640.57,-38.94 451,-20.72 376.41,-13.59"/>
<polygon fill="#63b8ff" stroke="#63b8ff" points="376.55,-10.09 366.26,-12.62 375.88,-17.06 376.55,-10.09"/>
</a>
</g>
</g>
<!-- Node11 -->
<g id="Node000011" class="node">
<title>Node11</title>
<g id="a_Node000011"><a xlink:title=" ">
<polygon fill="#e0e0e0" stroke="#999999" points="1243.5,-19 1166.5,-19 1166.5,0 1243.5,0 1243.5,-19"/>
<text text-anchor="middle" x="1205" y="-7" font-family="Helvetica,sans-Serif" font-size="10.00">glib&#45;object.h</text>
</a>
</g>
</g>
<!-- Node9&#45;&gt;Node11 -->
<g id="edge11_Node000009_Node000011" class="edge">
<title>Node9&#45;&gt;Node11</title>
<g id="a_edge11_Node000009_Node000011"><a xlink:title=" ">
<path fill="none" stroke="#63b8ff" d="M932.22,-54.98C993.96,-44.92 1095.92,-28.29 1156.15,-18.47"/>
<polygon fill="#63b8ff" stroke="#63b8ff" points="1156.86,-21.9 1166.17,-16.83 1155.74,-14.99 1156.86,-21.9"/>
</a>
</g>
</g>
<!-- Node12&#45;&gt;Node4 -->
<g id="edge13_Node000012_Node000004" class="edge">
<title>Node12&#45;&gt;Node4</title>
<g id="a_edge13_Node000012_Node000004"><a xlink:title=" ">
<path fill="none" stroke="#63b8ff" d="M511.64,-175.72C504.71,-153.02 491.19,-108.72 483.57,-83.75"/>
<polygon fill="#63b8ff" stroke="#63b8ff" points="486.88,-82.61 480.62,-74.07 480.19,-84.66 486.88,-82.61"/>
</a>
</g>
</g>
<!-- Node12&#45;&gt;Node6 -->
<g id="edge14_Node000012_Node000006" class="edge">
<title>Node12&#45;&gt;Node6</title>
<g id="a_edge14_Node000012_Node000006"><a xlink:title=" ">
<path fill="none" stroke="#63b8ff" d="M566.26,-175.95C607.83,-164.34 666.12,-148.05 704.68,-137.27"/>
<polygon fill="#63b8ff" stroke="#63b8ff" points="705.84,-140.58 714.52,-134.52 703.95,-133.84 705.84,-140.58"/>
</a>
</g>
</g>
<!-- Node13&#45;&gt;Node9 -->
<g id="edge17_Node000013_Node000009" class="edge">
<title>Node13&#45;&gt;Node9</title>
<g id="a_edge17_Node000013_Node000009"><a xlink:title=" ">
<path fill="none" stroke="#63b8ff" d="M1064.8,-109.99C1022.04,-99.7 964.78,-85.91 925.39,-76.43"/>
<polygon fill="#63b8ff" stroke="#63b8ff" points="926.07,-72.99 915.53,-74.05 924.43,-79.8 926.07,-72.99"/>
</a>
</g>
</g>
<!-- Node13&#45;&gt;Node11 -->
<g id="edge16_Node000013_Node000011" class="edge">
<title>Node13&#45;&gt;Node11</title>
<g id="a_edge16_Node000013_Node000011"><a xlink:title=" ">
<path fill="none" stroke="#63b8ff" d="M1133.39,-109.63C1148.54,-88.65 1176.65,-49.75 1192.77,-27.42"/>
<polygon fill="#63b8ff" stroke="#63b8ff" points="1195.67,-29.38 1198.69,-19.23 1190,-25.29 1195.67,-29.38"/>
</a>
</g>
</g>
<!-- Node14&#45;&gt;Node10 -->
<g id="edge19_Node000014_Node000010" class="edge">
<title>Node14&#45;&gt;Node10</title>
<g id="a_edge19_Node000014_Node000010"><a xlink:title=" ">
<path fill="none" stroke="#63b8ff" d="M275.73,-351.83C285.07,-333.87 305,-291.03 305,-252.5 305,-252.5 305,-252.5 305,-124 305,-88.57 322.21,-50.12 333.77,-28.3"/>
<polygon fill="#63b8ff" stroke="#63b8ff" points="336.98,-29.71 338.74,-19.27 330.85,-26.34 336.98,-29.71"/>
</a>
</g>
</g>
<!-- Node15&#45;&gt;Node10 -->
<g id="edge21_Node000015_Node000010" class="edge">
<title>Node15&#45;&gt;Node10</title>
<g id="a_edge21_Node000015_Node000010"><a xlink:title=" ">
<path fill="none" stroke="#63b8ff" d="M203.31,-296.92C212.26,-278.31 232,-232.63 232,-192 232,-192 232,-192 232,-124 232,-76.38 282.57,-41.51 315.75,-23.76"/>
<polygon fill="#63b8ff" stroke="#63b8ff" points="317.71,-26.69 325,-19 314.51,-20.46 317.71,-26.69"/>
</a>
</g>
</g>
<!-- Node16&#45;&gt;Node7 -->
<g id="edge24_Node000016_Node000007" class="edge">
<title>Node16&#45;&gt;Node7</title>
<g id="a_edge24_Node000016_Node000007"><a xlink:title=" ">
<path fill="none" stroke="#63b8ff" d="M642.59,-115.47C649.83,-113.45 657.66,-111.46 665,-110 791.79,-84.69 828.55,-95.57 959.79,-74.05"/>
<polygon fill="#63b8ff" stroke="#63b8ff" points="960.53,-77.47 969.82,-72.37 959.38,-70.57 960.53,-77.47"/>
</a>
</g>
</g>
<!-- Node16&#45;&gt;Node8 -->
<g id="edge27_Node000016_Node000008" class="edge">
<title>Node16&#45;&gt;Node8</title>
<g id="a_edge27_Node000016_Node000008"><a xlink:title=" ">
<path fill="none" stroke="#63b8ff" d="M629.9,-115.37C646.31,-105.86 672.93,-90.45 692.23,-79.27"/>
<polygon fill="#63b8ff" stroke="#63b8ff" points="694.14,-82.21 701.04,-74.17 690.63,-76.15 694.14,-82.21"/>
</a>
</g>
</g>
<!-- Node16&#45;&gt;Node9 -->
<g id="edge26_Node000016_Node000009" class="edge">
<title>Node16&#45;&gt;Node9</title>
<g id="a_edge26_Node000016_Node000009"><a xlink:title=" ">
<path fill="none" stroke="#63b8ff" d="M644.26,-115.44C651.04,-113.56 658.26,-111.64 665,-110 718.78,-96.92 780.71,-84.37 824.25,-75.94"/>
<polygon fill="#63b8ff" stroke="#63b8ff" points="824.92,-79.38 834.08,-74.05 823.6,-72.51 824.92,-79.38"/>
</a>
</g>
</g>
<!-- Node16&#45;&gt;Node10 -->
<g id="edge23_Node000016_Node000010" class="edge">
<title>Node16&#45;&gt;Node10</title>
<g id="a_edge23_Node000016_Node000010"><a xlink:title=" ">
<path fill="none" stroke="#63b8ff" d="M605.45,-115.45C588.72,-100.92 552.52,-71.4 517,-55 470.56,-33.56 412.15,-21.27 376.47,-15.25"/>
<polygon fill="#63b8ff" stroke="#63b8ff" points="376.6,-11.72 366.16,-13.57 375.47,-18.63 376.6,-11.72"/>
</a>
</g>
</g>
<!-- Node17 -->
<g id="Node000017" class="node">
<title>Node17</title>
<g id="a_Node000017"><a xlink:title=" ">
<polygon fill="#e0e0e0" stroke="#999999" points="624,-74 564,-74 564,-55 624,-55 624,-74"/>
<text text-anchor="middle" x="594" y="-62" font-family="Helvetica,sans-Serif" font-size="10.00">atk/atk.h</text>
</a>
</g>
</g>
<!-- Node16&#45;&gt;Node17 -->
<g id="edge25_Node000016_Node000017" class="edge">
<title>Node16&#45;&gt;Node17</title>
<g id="a_edge25_Node000016_Node000017"><a xlink:title=" ">
<path fill="none" stroke="#63b8ff" d="M611.9,-115.37C608.92,-107.07 604.33,-94.28 600.54,-83.72"/>
<polygon fill="#63b8ff" stroke="#63b8ff" points="603.78,-82.4 597.11,-74.17 597.2,-84.76 603.78,-82.4"/>
</a>
</g>
</g>
<!-- Node18&#45;&gt;Node11 -->
<g id="edge29_Node000018_Node000011" class="edge">
<title>Node18&#45;&gt;Node11</title>
<g id="a_edge29_Node000018_Node000011"><a xlink:title=" ">
<path fill="none" stroke="#63b8ff" d="M1328.16,-351.91C1369.04,-338.21 1437,-307.2 1437,-252.5 1437,-252.5 1437,-252.5 1437,-124 1437,-92.19 1441.19,-76.78 1418,-55 1394.67,-33.09 1308.9,-20.69 1253.57,-14.81"/>
<polygon fill="#63b8ff" stroke="#63b8ff" points="1253.92,-11.32 1243.62,-13.78 1253.21,-18.29 1253.92,-11.32"/>
</a>
</g>
</g>
<!-- Node19&#45;&gt;Node10 -->
<g id="edge32_Node000019_Node000010" class="edge">
<title>Node19&#45;&gt;Node10</title>
<g id="a_edge32_Node000019_Node000010"><a xlink:title=" ">
<path fill="none" stroke="#63b8ff" d="M456.62,-406.7C453.24,-397.77 447.98,-383.52 444,-371 402.75,-241.27 362.01,-82.32 348.6,-28.96"/>
<polygon fill="#63b8ff" stroke="#63b8ff" points="351.99,-28.07 346.16,-19.22 345.2,-29.77 351.99,-28.07"/>
</a>
</g>
</g>
<!-- Node19&#45;&gt;Node11 -->
<g id="edge31_Node000019_Node000011" class="edge">
<title>Node19&#45;&gt;Node11</title>
<g id="a_edge31_Node000019_Node000011"><a xlink:title=" ">
<path fill="none" stroke="#63b8ff" d="M458.8,-406.95C451.59,-354.85 415.1,-81.39 440,-55 464.62,-28.9 991.16,-15.19 1156.07,-11.52"/>
<polygon fill="#63b8ff" stroke="#63b8ff" points="1156.48,-15.01 1166.4,-11.29 1156.32,-8.01 1156.48,-15.01"/>
</a>
</g>
</g>
<!-- Node20 -->
<g id="Node000020" class="node">
<title>Node20</title>
<g id="a_Node000020"><a xlink:href="pluma-app_8h.html" target="_top" xlink:title=" ">
<polygon fill="white" stroke="#666666" points="947,-371 869,-371 869,-352 947,-352 947,-371"/>
<text text-anchor="middle" x="908" y="-359" font-family="Helvetica,sans-Serif" font-size="10.00">pluma&#45;app.h</text>
</a>
</g>
</g>
<!-- Node19&#45;&gt;Node20 -->
<g id="edge33_Node000019_Node000020" class="edge">
<title>Node19&#45;&gt;Node20</title>
<g id="a_edge33_Node000019_Node000020"><a xlink:title=" ">
<path fill="none" stroke="#63b8ff" d="M509.66,-409.63C596.02,-399.41 772.87,-378.49 858.87,-368.31"/>
<polygon fill="#63b8ff" stroke="#63b8ff" points="859.37,-371.78 868.89,-367.13 858.55,-364.83 859.37,-371.78"/>
</a>
</g>
</g>
<!-- Node20&#45;&gt;Node7 -->
<g id="edge34_Node000020_Node000007" class="edge">
<title>Node20&#45;&gt;Node7</title>
<g id="a_edge34_Node000020_Node000007"><a xlink:title=" ">
<path fill="none" stroke="#63b8ff" d="M933.4,-351.97C970.46,-337.72 1035,-305.32 1035,-252.5 1035,-252.5 1035,-252.5 1035,-190 1035,-153.74 1029.73,-144.64 1019,-110 1016.2,-100.97 1012.2,-91.29 1008.58,-83.26"/>
<polygon fill="#63b8ff" stroke="#63b8ff" points="1011.73,-81.74 1004.33,-74.16 1005.39,-84.71 1011.73,-81.74"/>
</a>
</g>
</g>
<!-- Node21 -->
<g id="Node000021" class="node">
<title>Node21</title>
<g id="a_Node000021"><a xlink:href="pluma-window_8h.html" target="_top" xlink:title=" ">
<polygon fill="white" stroke="#666666" points="973.5,-316 842.5,-316 842.5,-297 973.5,-297 973.5,-316"/>
<text text-anchor="middle" x="908" y="-304" font-family="Helvetica,sans-Serif" font-size="10.00">pluma/pluma&#45;window.h</text>
</a>
</g>
</g>
<!-- Node20&#45;&gt;Node21 -->
<g id="edge35_Node000020_Node000021" class="edge">
<title>Node20&#45;&gt;Node21</title>
<g id="a_edge35_Node000020_Node000021"><a xlink:title=" ">
<path fill="none" stroke="#63b8ff" d="M908,-351.75C908,-344.8 908,-334.85 908,-326.13"/>
<polygon fill="#63b8ff" stroke="#63b8ff" points="911.5,-326.09 908,-316.09 904.5,-326.09 911.5,-326.09"/>
</a>
</g>
</g>
<!-- Node21&#45;&gt;Node4 -->
<g id="edge36_Node000021_Node000004" class="edge">
<title>Node21&#45;&gt;Node4</title>
<g id="a_edge36_Node000021_Node000004"><a xlink:title=" ">
<path fill="none" stroke="#63b8ff" d="M842.06,-298.69C802.24,-292.66 751.36,-281.49 710,-261 660.9,-236.68 538.38,-122.77 494.2,-80.95"/>
<polygon fill="#63b8ff" stroke="#63b8ff" points="496.56,-78.36 486.9,-74.01 491.74,-83.44 496.56,-78.36"/>
</a>
</g>
</g>
<!-- Node21&#45;&gt;Node7 -->
<g id="edge37_Node000021_Node000007" class="edge">
<title>Node21&#45;&gt;Node7</title>
<g id="a_edge37_Node000021_Node000007"><a xlink:title=" ">
<path fill="none" stroke="#63b8ff" d="M931.51,-296.9C947.39,-289.81 967.32,-278.1 978,-261 1013.1,-204.8 1007.64,-121.5 1002.93,-84.46"/>
<polygon fill="#63b8ff" stroke="#63b8ff" points="1006.34,-83.56 1001.48,-74.14 999.41,-84.53 1006.34,-83.56"/>
</a>
</g>
</g>
<!-- Node22 -->
<g id="Node000022" class="node">
<title>Node22</title>
<g id="a_Node000022"><a xlink:href="pluma-tab_8h.html" target="_top" xlink:title=" ">
<polygon fill="white" stroke="#666666" points="829,-261 719,-261 719,-242 829,-242 829,-261"/>
<text text-anchor="middle" x="774" y="-249" font-family="Helvetica,sans-Serif" font-size="10.00">pluma/pluma&#45;tab.h</text>
</a>
</g>
</g>
<!-- Node21&#45;&gt;Node22 -->
<g id="edge38_Node000021_Node000022" class="edge">
<title>Node21&#45;&gt;Node22</title>
<g id="a_edge38_Node000021_Node000022"><a xlink:title=" ">
<path fill="none" stroke="#63b8ff" d="M886.47,-296.98C864.53,-288.3 830.26,-274.75 805.31,-264.88"/>
<polygon fill="#63b8ff" stroke="#63b8ff" points="806.51,-261.59 795.92,-261.17 803.93,-268.1 806.51,-261.59"/>
</a>
</g>
</g>
<!-- Node24 -->
<g id="Node000024" class="node">
<title>Node24</title>
<g id="a_Node000024"><a xlink:href="pluma-panel_8h.html" target="_top" xlink:title=" ">
<polygon fill="white" stroke="#666666" points="968.5,-261 847.5,-261 847.5,-242 968.5,-242 968.5,-261"/>
<text text-anchor="middle" x="908" y="-249" font-family="Helvetica,sans-Serif" font-size="10.00">pluma/pluma&#45;panel.h</text>
</a>
</g>
</g>
<!-- Node21&#45;&gt;Node24 -->
<g id="edge45_Node000021_Node000024" class="edge">
<title>Node21&#45;&gt;Node24</title>
<g id="a_edge45_Node000021_Node000024"><a xlink:title=" ">
<path fill="none" stroke="#63b8ff" d="M908,-296.75C908,-289.8 908,-279.85 908,-271.13"/>
<polygon fill="#63b8ff" stroke="#63b8ff" points="911.5,-271.09 908,-261.09 904.5,-271.09 911.5,-271.09"/>
</a>
</g>
</g>
<!-- Node25 -->
<g id="Node000025" class="node">
<title>Node25</title>
<g id="a_Node000025"><a xlink:href="pluma-message-bus_8h.html" target="_top" xlink:title=" ">
<polygon fill="white" stroke="#666666" points="1297.5,-206 1168.5,-206 1168.5,-176 1297.5,-176 1297.5,-206"/>
<text text-anchor="start" x="1176.5" y="-194" font-family="Helvetica,sans-Serif" font-size="10.00">pluma/pluma&#45;message</text>
<text text-anchor="middle" x="1233" y="-183" font-family="Helvetica,sans-Serif" font-size="10.00">&#45;bus.h</text>
</a>
</g>
</g>
<!-- Node21&#45;&gt;Node25 -->
<g id="edge47_Node000021_Node000025" class="edge">
<title>Node21&#45;&gt;Node25</title>
<g id="a_edge47_Node000021_Node000025"><a xlink:title=" ">
<path fill="none" stroke="#63b8ff" d="M932.43,-296.97C985.51,-278.43 1112.29,-234.16 1183.06,-209.44"/>
<polygon fill="#63b8ff" stroke="#63b8ff" points="1184.38,-212.69 1192.67,-206.09 1182.07,-206.08 1184.38,-212.69"/>
</a>
</g>
</g>
<!-- Node22&#45;&gt;Node6 -->
<g id="edge44_Node000022_Node000006" class="edge">
<title>Node22&#45;&gt;Node6</title>
<g id="a_edge44_Node000022_Node000006"><a xlink:title=" ">
<path fill="none" stroke="#63b8ff" d="M772.01,-241.94C767.35,-221.95 755.67,-171.82 749.3,-144.48"/>
<polygon fill="#63b8ff" stroke="#63b8ff" points="752.68,-143.56 747.01,-134.62 745.87,-145.15 752.68,-143.56"/>
</a>
</g>
</g>
<!-- Node22&#45;&gt;Node7 -->
<g id="edge39_Node000022_Node000007" class="edge">
<title>Node22&#45;&gt;Node7</title>
<g id="a_edge39_Node000022_Node000007"><a xlink:title=" ">
<path fill="none" stroke="#63b8ff" d="M820.13,-241.99C845.94,-235.46 877.53,-224.35 901,-206 941.21,-174.57 933.91,-151.22 964,-110 970.96,-100.47 979.21,-90.2 986.05,-81.94"/>
<polygon fill="#63b8ff" stroke="#63b8ff" points="988.83,-84.08 992.56,-74.16 983.46,-79.58 988.83,-84.08"/>
</a>
</g>
</g>
<!-- Node23 -->
<g id="Node000023" class="node">
<title>Node23</title>
<g id="a_Node000023"><a xlink:href="pluma-view_8h.html" target="_top" xlink:title=" ">
<polygon fill="white" stroke="#666666" points="892,-200.5 776,-200.5 776,-181.5 892,-181.5 892,-200.5"/>
<text text-anchor="middle" x="834" y="-188.5" font-family="Helvetica,sans-Serif" font-size="10.00">pluma/pluma&#45;view.h</text>
</a>
</g>
</g>
<!-- Node22&#45;&gt;Node23 -->
<g id="edge40_Node000022_Node000023" class="edge">
<title>Node22&#45;&gt;Node23</title>
<g id="a_edge40_Node000022_Node000023"><a xlink:title=" ">
<path fill="none" stroke="#63b8ff" d="M782.85,-241.87C791.98,-232.97 806.42,-218.89 817.64,-207.95"/>
<polygon fill="#63b8ff" stroke="#63b8ff" points="820.39,-210.15 825.11,-200.67 815.51,-205.14 820.39,-210.15"/>
</a>
</g>
</g>
<!-- Node23&#45;&gt;Node6 -->
<g id="edge42_Node000023_Node000006" class="edge">
<title>Node23&#45;&gt;Node6</title>
<g id="a_edge42_Node000023_Node000006"><a xlink:title=" ">
<path fill="none" stroke="#63b8ff" d="M822,-181.37C807.53,-170.97 782.99,-153.32 765.51,-140.75"/>
<polygon fill="#63b8ff" stroke="#63b8ff" points="767.26,-137.7 757.1,-134.7 763.17,-143.38 767.26,-137.7"/>
</a>
</g>
</g>
<!-- Node23&#45;&gt;Node7 -->
<g id="edge41_Node000023_Node000007" class="edge">
<title>Node23&#45;&gt;Node7</title>
<g id="a_edge41_Node000023_Node000007"><a xlink:title=" ">
<path fill="none" stroke="#63b8ff" d="M840.15,-181.29C851.72,-165.4 878.17,-131.41 907,-110 925.03,-96.61 947.72,-85.66 966.18,-77.97"/>
<polygon fill="#63b8ff" stroke="#63b8ff" points="967.7,-81.13 975.67,-74.15 965.08,-74.64 967.7,-81.13"/>
</a>
</g>
</g>
<!-- Node23&#45;&gt;Node8 -->
<g id="edge43_Node000023_Node000008" class="edge">
<title>Node23&#45;&gt;Node8</title>
<g id="a_edge43_Node000023_Node000008"><a xlink:title=" ">
<path fill="none" stroke="#63b8ff" d="M835.81,-181.27C838.57,-165.37 841.99,-131.34 826,-110 814.01,-94 795.29,-83.73 776.68,-77.15"/>
<polygon fill="#63b8ff" stroke="#63b8ff" points="777.58,-73.77 766.99,-74.04 775.44,-80.43 777.58,-73.77"/>
</a>
</g>
</g>
<!-- Node24&#45;&gt;Node7 -->
<g id="edge46_Node000024_Node000007" class="edge">
<title>Node24&#45;&gt;Node7</title>
<g id="a_edge46_Node000024_Node000007"><a xlink:title=" ">
<path fill="none" stroke="#63b8ff" d="M913.68,-241.8C919.36,-232.95 928.2,-218.76 935,-206 957.86,-163.07 980.88,-110.62 992.42,-83.57"/>
<polygon fill="#63b8ff" stroke="#63b8ff" points="995.7,-84.79 996.37,-74.22 989.25,-82.06 995.7,-84.79"/>
</a>
</g>
</g>
<!-- Node25&#45;&gt;Node11 -->
<g id="edge48_Node000025_Node000011" class="edge">
<title>Node25&#45;&gt;Node11</title>
<g id="a_edge48_Node000025_Node000011"><a xlink:title=" ">
<path fill="none" stroke="#63b8ff" d="M1230.8,-175.91C1225.8,-143.85 1213.56,-65.38 1207.93,-29.26"/>
<polygon fill="#63b8ff" stroke="#63b8ff" points="1211.35,-28.48 1206.35,-19.13 1204.43,-29.55 1211.35,-28.48"/>
</a>
</g>
</g>
<!-- Node26 -->
<g id="Node000026" class="node">
<title>Node26</title>
<g id="a_Node000026"><a xlink:href="pluma-message_8h.html" target="_top" xlink:title=" ">
<polygon fill="white" stroke="#666666" points="1409,-74 1271,-74 1271,-55 1409,-55 1409,-74"/>
<text text-anchor="middle" x="1340" y="-62" font-family="Helvetica,sans-Serif" font-size="10.00">pluma/pluma&#45;message.h</text>
</a>
</g>
</g>
<!-- Node25&#45;&gt;Node26 -->
<g id="edge49_Node000025_Node000026" class="edge">
<title>Node25&#45;&gt;Node26</title>
<g id="a_edge49_Node000025_Node000026"><a xlink:title=" ">
<path fill="none" stroke="#63b8ff" d="M1236.61,-175.89C1241.57,-158.73 1251.89,-129.63 1269,-110 1280.42,-96.9 1296.63,-86.34 1310.69,-78.8"/>
<polygon fill="#63b8ff" stroke="#63b8ff" points="1312.66,-81.72 1319.99,-74.06 1309.49,-75.48 1312.66,-81.72"/>
</a>
</g>
</g>
<!-- Node28 -->
<g id="Node000028" class="node">
<title>Node28</title>
<g id="a_Node000028"><a xlink:href="pluma-message-type_8h.html" target="_top" xlink:title=" ">
<polygon fill="white" stroke="#666666" points="1406.5,-140 1277.5,-140 1277.5,-110 1406.5,-110 1406.5,-140"/>
<text text-anchor="start" x="1285.5" y="-128" font-family="Helvetica,sans-Serif" font-size="10.00">pluma/pluma&#45;message</text>
<text text-anchor="middle" x="1342" y="-117" font-family="Helvetica,sans-Serif" font-size="10.00">&#45;type.h</text>
</a>
</g>
</g>
<!-- Node25&#45;&gt;Node28 -->
<g id="edge52_Node000025_Node000028" class="edge">
<title>Node25&#45;&gt;Node28</title>
<g id="a_edge52_Node000025_Node000028"><a xlink:title=" ">
<path fill="none" stroke="#63b8ff" d="M1256.92,-175.95C1272.25,-166.95 1292.36,-155.14 1309.18,-145.27"/>
<polygon fill="#63b8ff" stroke="#63b8ff" points="1311.28,-148.09 1318.14,-140.01 1307.74,-142.06 1311.28,-148.09"/>
</a>
</g>
</g>
<!-- Node26&#45;&gt;Node11 -->
<g id="edge50_Node000026_Node000011" class="edge">
<title>Node26&#45;&gt;Node11</title>
<g id="a_edge50_Node000026_Node000011"><a xlink:title=" ">
<path fill="none" stroke="#63b8ff" d="M1318.31,-54.98C1296.2,-46.3 1261.68,-32.75 1236.55,-22.88"/>
<polygon fill="#63b8ff" stroke="#63b8ff" points="1237.67,-19.57 1227.08,-19.17 1235.11,-26.08 1237.67,-19.57"/>
</a>
</g>
</g>
<!-- Node27 -->
<g id="Node000027" class="node">
<title>Node27</title>
<g id="a_Node000027"><a xlink:title=" ">
<polygon fill="#e0e0e0" stroke="#999999" points="1435,-19 1379,-19 1379,0 1435,0 1435,-19"/>
<text text-anchor="middle" x="1407" y="-7" font-family="Helvetica,sans-Serif" font-size="10.00">stdarg.h</text>
</a>
</g>
</g>
<!-- Node26&#45;&gt;Node27 -->
<g id="edge51_Node000026_Node000027" class="edge">
<title>Node26&#45;&gt;Node27</title>
<g id="a_edge51_Node000026_Node000027"><a xlink:title=" ">
<path fill="none" stroke="#63b8ff" d="M1350.76,-54.98C1360.77,-47.07 1375.89,-35.11 1387.93,-25.58"/>
<polygon fill="#63b8ff" stroke="#63b8ff" points="1390.37,-28.12 1396.04,-19.17 1386.03,-22.63 1390.37,-28.12"/>
</a>
</g>
</g>
<!-- Node28&#45;&gt;Node11 -->
<g id="edge53_Node000028_Node000011" class="edge">
<title>Node28&#45;&gt;Node11</title>
<g id="a_edge53_Node000028_Node000011"><a xlink:title=" ">
<path fill="none" stroke="#63b8ff" d="M1315.52,-109.96C1299.3,-100.77 1278.55,-87.91 1262,-74 1245.07,-59.77 1228.5,-40.54 1217.63,-26.98"/>
<polygon fill="#63b8ff" stroke="#63b8ff" points="1220.29,-24.7 1211.36,-19 1214.78,-29.03 1220.29,-24.7"/>
</a>
</g>
</g>
<!-- Node28&#45;&gt;Node26 -->
<g id="edge55_Node000028_Node000026" class="edge">
<title>Node28&#45;&gt;Node26</title>
<g id="a_edge55_Node000028_Node000026"><a xlink:title=" ">
<path fill="none" stroke="#63b8ff" d="M1341.52,-109.84C1341.26,-102.21 1340.93,-92.7 1340.65,-84.45"/>
<polygon fill="#63b8ff" stroke="#63b8ff" points="1344.14,-84.14 1340.3,-74.27 1337.14,-84.38 1344.14,-84.14"/>
</a>
</g>
</g>
<!-- Node28&#45;&gt;Node27 -->
<g id="edge54_Node000028_Node000027" class="edge">
<title>Node28&#45;&gt;Node27</title>
<g id="a_edge54_Node000028_Node000027"><a xlink:title=" ">
<path fill="none" stroke="#63b8ff" d="M1377.53,-109.96C1392.89,-101.9 1409.31,-90.13 1418,-74 1425.54,-60.01 1421.33,-42 1416.08,-28.73"/>
<polygon fill="#63b8ff" stroke="#63b8ff" points="1419.13,-26.98 1411.86,-19.28 1412.74,-29.84 1419.13,-26.98"/>
</a>
</g>
</g>
</g>
</svg>
