<?xml version="1.0" encoding="UTF-8" standalone="no"?>
<!DOCTYPE svg PUBLIC "-//W3C//DTD SVG 1.1//EN"
 "http://www.w3.org/Graphics/SVG/1.1/DTD/svg11.dtd">
<!-- Generated by graphviz version 2.43.0 (0)
 -->
<!-- Title: pluma&#45;file&#45;browser&#45;view.c Pages: 1 -->
<svg width="827pt" height="159pt"
 viewBox="0.00 0.00 827.00 159.00" xmlns="http://www.w3.org/2000/svg" xmlns:xlink="http://www.w3.org/1999/xlink">
<g id="graph0" class="graph" transform="scale(1 1) rotate(0) translate(4 155)">
<title>pluma&#45;file&#45;browser&#45;view.c</title>
<!-- Node1 -->
<g id="Node000001" class="node">
<title>Node1</title>
<g id="a_Node000001"><a xlink:title=" ">
<polygon fill="#999999" stroke="#666666" points="358,-151 249,-151 249,-121 358,-121 358,-151"/>
<text text-anchor="start" x="257" y="-139" font-family="Helvetica,sans-Serif" font-size="10.00">pluma&#45;file&#45;browser</text>
<text text-anchor="middle" x="303.5" y="-128" font-family="Helvetica,sans-Serif" font-size="10.00">&#45;view.c</text>
</a>
</g>
</g>
<!-- Node2 -->
<g id="Node000002" class="node">
<title>Node2</title>
<g id="a_Node000002"><a xlink:title=" ">
<polygon fill="#e0e0e0" stroke="#999999" points="53,-79.5 0,-79.5 0,-60.5 53,-60.5 53,-79.5"/>
<text text-anchor="middle" x="26.5" y="-67.5" font-family="Helvetica,sans-Serif" font-size="10.00">string.h</text>
</a>
</g>
</g>
<!-- Node1&#45;&gt;Node2 -->
<g id="edge1_Node000001_Node000002" class="edge">
<title>Node1&#45;&gt;Node2</title>
<g id="a_edge1_Node000001_Node000002"><a xlink:title=" ">
<path fill="none" stroke="#63b8ff" d="M248.99,-126.57C199.49,-118.26 124.77,-104.03 61.5,-85 59.62,-84.43 57.7,-83.81 55.77,-83.15"/>
<polygon fill="#63b8ff" stroke="#63b8ff" points="56.87,-79.82 46.27,-79.61 54.43,-86.38 56.87,-79.82"/>
</a>
</g>
</g>
<!-- Node3 -->
<g id="Node000003" class="node">
<title>Node3</title>
<g id="a_Node000003"><a xlink:title=" ">
<polygon fill="#e0e0e0" stroke="#999999" points="130,-79.5 71,-79.5 71,-60.5 130,-60.5 130,-79.5"/>
<text text-anchor="middle" x="100.5" y="-67.5" font-family="Helvetica,sans-Serif" font-size="10.00">gio/gio.h</text>
</a>
</g>
</g>
<!-- Node1&#45;&gt;Node3 -->
<g id="edge2_Node000001_Node000003" class="edge">
<title>Node1&#45;&gt;Node3</title>
<g id="a_edge2_Node000001_Node000003"><a xlink:title=" ">
<path fill="none" stroke="#63b8ff" d="M258.6,-120.92C226.74,-110.93 182.99,-97.17 144.5,-85 142.09,-84.24 139.61,-83.45 137.11,-82.66"/>
<polygon fill="#63b8ff" stroke="#63b8ff" points="138.08,-79.29 127.49,-79.6 135.96,-85.97 138.08,-79.29"/>
</a>
</g>
</g>
<!-- Node4 -->
<g id="Node000004" class="node">
<title>Node4</title>
<g id="a_Node000004"><a xlink:title=" ">
<polygon fill="#e0e0e0" stroke="#999999" points="465.5,-19 405.5,-19 405.5,0 465.5,0 465.5,-19"/>
<text text-anchor="middle" x="435.5" y="-7" font-family="Helvetica,sans-Serif" font-size="10.00">gtk/gtk.h</text>
</a>
</g>
</g>
<!-- Node1&#45;&gt;Node4 -->
<g id="edge3_Node000001_Node000004" class="edge">
<title>Node1&#45;&gt;Node4</title>
<g id="a_edge3_Node000001_Node000004"><a xlink:title=" ">
<path fill="none" stroke="#63b8ff" d="M248.92,-122.07C203.94,-108.86 151.46,-85.92 177.5,-55 204.82,-22.56 329.4,-13.77 394.93,-11.39"/>
<polygon fill="#63b8ff" stroke="#63b8ff" points="395.42,-14.87 405.3,-11.04 395.19,-7.88 395.42,-14.87"/>
</a>
</g>
</g>
<!-- Node5 -->
<g id="Node000005" class="node">
<title>Node5</title>
<g id="a_Node000005"><a xlink:title=" ">
<polygon fill="#e0e0e0" stroke="#999999" points="294.5,-79.5 186.5,-79.5 186.5,-60.5 294.5,-60.5 294.5,-79.5"/>
<text text-anchor="middle" x="240.5" y="-67.5" font-family="Helvetica,sans-Serif" font-size="10.00">gdk/gdkkeysyms.h</text>
</a>
</g>
</g>
<!-- Node1&#45;&gt;Node5 -->
<g id="edge4_Node000001_Node000005" class="edge">
<title>Node1&#45;&gt;Node5</title>
<g id="a_edge4_Node000001_Node000005"><a xlink:title=" ">
<path fill="none" stroke="#63b8ff" d="M289.52,-120.8C279.7,-110.82 266.54,-97.46 256.33,-87.09"/>
<polygon fill="#63b8ff" stroke="#63b8ff" points="258.72,-84.52 249.21,-79.84 253.73,-89.43 258.72,-84.52"/>
</a>
</g>
</g>
<!-- Node6 -->
<g id="Node000006" class="node">
<title>Node6</title>
<g id="a_Node000006"><a xlink:href="pluma-file-browser-store_8h.html" target="_top" xlink:title=" ">
<polygon fill="white" stroke="#666666" points="422,-85 313,-85 313,-55 422,-55 422,-85"/>
<text text-anchor="start" x="321" y="-73" font-family="Helvetica,sans-Serif" font-size="10.00">pluma&#45;file&#45;browser</text>
<text text-anchor="middle" x="367.5" y="-62" font-family="Helvetica,sans-Serif" font-size="10.00">&#45;store.h</text>
</a>
</g>
</g>
<!-- Node1&#45;&gt;Node6 -->
<g id="edge5_Node000001_Node000006" class="edge">
<title>Node1&#45;&gt;Node6</title>
<g id="a_edge5_Node000001_Node000006"><a xlink:title=" ">
<path fill="none" stroke="#63b8ff" d="M317.7,-120.8C326.07,-112.43 336.82,-101.68 346.19,-92.31"/>
<polygon fill="#63b8ff" stroke="#63b8ff" points="348.74,-94.71 353.34,-85.16 343.79,-89.76 348.74,-94.71"/>
</a>
</g>
</g>
<!-- Node7 -->
<g id="Node000007" class="node">
<title>Node7</title>
<g id="a_Node000007"><a xlink:href="pluma-file-bookmarks-store_8h.html" target="_top" xlink:title=" ">
<polygon fill="white" stroke="#666666" points="565,-85 440,-85 440,-55 565,-55 565,-85"/>
<text text-anchor="start" x="448" y="-73" font-family="Helvetica,sans-Serif" font-size="10.00">pluma&#45;file&#45;bookmarks</text>
<text text-anchor="middle" x="502.5" y="-62" font-family="Helvetica,sans-Serif" font-size="10.00">&#45;store.h</text>
</a>
</g>
</g>
<!-- Node1&#45;&gt;Node7 -->
<g id="edge7_Node000001_Node000007" class="edge">
<title>Node1&#45;&gt;Node7</title>
<g id="a_edge7_Node000001_Node000007"><a xlink:title=" ">
<path fill="none" stroke="#63b8ff" d="M347.17,-120.95C377.24,-111.28 417.37,-98.38 449.3,-88.11"/>
<polygon fill="#63b8ff" stroke="#63b8ff" points="450.48,-91.41 458.93,-85.01 448.34,-84.74 450.48,-91.41"/>
</a>
</g>
</g>
<!-- Node8 -->
<g id="Node000008" class="node">
<title>Node8</title>
<g id="a_Node000008"><a xlink:href="pluma-file-browser-view_8h.html" target="_top" xlink:title=" ">
<polygon fill="white" stroke="#666666" points="692,-85 583,-85 583,-55 692,-55 692,-85"/>
<text text-anchor="start" x="591" y="-73" font-family="Helvetica,sans-Serif" font-size="10.00">pluma&#45;file&#45;browser</text>
<text text-anchor="middle" x="637.5" y="-62" font-family="Helvetica,sans-Serif" font-size="10.00">&#45;view.h</text>
</a>
</g>
</g>
<!-- Node1&#45;&gt;Node8 -->
<g id="edge9_Node000001_Node000008" class="edge">
<title>Node1&#45;&gt;Node8</title>
<g id="a_edge9_Node000001_Node000008"><a xlink:title=" ">
<path fill="none" stroke="#63b8ff" d="M358.16,-125.41C410.64,-116.08 492.39,-101.24 572.9,-85.08"/>
<polygon fill="#63b8ff" stroke="#63b8ff" points="573.6,-88.51 582.71,-83.11 572.22,-81.65 573.6,-88.51"/>
</a>
</g>
</g>
<!-- Node9 -->
<g id="Node000009" class="node">
<title>Node9</title>
<g id="a_Node000009"><a xlink:href="pluma-file-browser-enum-types_8h.html" target="_top" xlink:title=" ">
<polygon fill="white" stroke="#666666" points="819,-85 710,-85 710,-55 819,-55 819,-85"/>
<text text-anchor="start" x="718" y="-73" font-family="Helvetica,sans-Serif" font-size="10.00">pluma&#45;file&#45;browser</text>
<text text-anchor="middle" x="764.5" y="-62" font-family="Helvetica,sans-Serif" font-size="10.00">&#45;enum&#45;types.h</text>
</a>
</g>
</g>
<!-- Node1&#45;&gt;Node9 -->
<g id="edge11_Node000001_Node000009" class="edge">
<title>Node1&#45;&gt;Node9</title>
<g id="a_edge11_Node000001_Node000009"><a xlink:title=" ">
<path fill="none" stroke="#63b8ff" d="M358.14,-129.77C433.11,-122.24 572.24,-106.97 699.97,-85.17"/>
<polygon fill="#63b8ff" stroke="#63b8ff" points="700.67,-88.6 709.93,-83.46 699.48,-81.71 700.67,-88.6"/>
</a>
</g>
</g>
<!-- Node6&#45;&gt;Node4 -->
<g id="edge6_Node000006_Node000004" class="edge">
<title>Node6&#45;&gt;Node4</title>
<g id="a_edge6_Node000006_Node000004"><a xlink:title=" ">
<path fill="none" stroke="#63b8ff" d="M383.96,-54.84C394.13,-46.09 407.19,-34.85 417.62,-25.88"/>
<polygon fill="#63b8ff" stroke="#63b8ff" points="420.01,-28.44 425.31,-19.27 415.45,-23.13 420.01,-28.44"/>
</a>
</g>
</g>
<!-- Node7&#45;&gt;Node4 -->
<g id="edge8_Node000007_Node000004" class="edge">
<title>Node7&#45;&gt;Node4</title>
<g id="a_edge8_Node000007_Node000004"><a xlink:title=" ">
<path fill="none" stroke="#63b8ff" d="M486.28,-54.84C476.26,-46.09 463.39,-34.85 453.12,-25.88"/>
<polygon fill="#63b8ff" stroke="#63b8ff" points="455.37,-23.21 445.54,-19.27 450.77,-28.48 455.37,-23.21"/>
</a>
</g>
</g>
<!-- Node8&#45;&gt;Node4 -->
<g id="edge10_Node000008_Node000004" class="edge">
<title>Node8&#45;&gt;Node4</title>
<g id="a_edge10_Node000008_Node000004"><a xlink:title=" ">
<path fill="none" stroke="#63b8ff" d="M589.12,-54.99C554.1,-44.85 507.39,-31.32 474.7,-21.85"/>
<polygon fill="#63b8ff" stroke="#63b8ff" points="475.61,-18.47 465.04,-19.05 473.67,-25.2 475.61,-18.47"/>
</a>
</g>
</g>
<!-- Node10 -->
<g id="Node000010" class="node">
<title>Node10</title>
<g id="a_Node000010"><a xlink:title=" ">
<polygon fill="#e0e0e0" stroke="#999999" points="803,-19 726,-19 726,0 803,0 803,-19"/>
<text text-anchor="middle" x="764.5" y="-7" font-family="Helvetica,sans-Serif" font-size="10.00">glib&#45;object.h</text>
</a>
</g>
</g>
<!-- Node9&#45;&gt;Node10 -->
<g id="edge12_Node000009_Node000010" class="edge">
<title>Node9&#45;&gt;Node10</title>
<g id="a_edge12_Node000009_Node000010"><a xlink:title=" ">
<path fill="none" stroke="#63b8ff" d="M764.5,-54.84C764.5,-47.21 764.5,-37.7 764.5,-29.45"/>
<polygon fill="#63b8ff" stroke="#63b8ff" points="768,-29.27 764.5,-19.27 761,-29.27 768,-29.27"/>
</a>
</g>
</g>
</g>
</svg>
