<?xml version="1.0" encoding="UTF-8" standalone="no"?>
<!DOCTYPE svg PUBLIC "-//W3C//DTD SVG 1.1//EN"
 "http://www.w3.org/Graphics/SVG/1.1/DTD/svg11.dtd">
<!-- Generated by graphviz version 2.43.0 (0)
 -->
<!-- Title: pluma&#45;document&#45;input&#45;stream.c Pages: 1 -->
<!--zoomable 269 -->

<svg id="main" version="1.1" xmlns="http://www.w3.org/2000/svg" xmlns:xlink="http://www.w3.org/1999/xlink" xml:space="preserve" onload="init(evt)">

<style type="text/css"><![CDATA[
.node, .edge {opacity: 0.7;}
.node.selected, .edge.selected {opacity: 1;}
.edge:hover path { stroke: red; }
.edge:hover polygon { stroke: red; fill: red; }
]]></style>

<defs>
  <circle id="rim" cx="0" cy="0" r="7"/>
  <circle id="rim2" cx="0" cy="0" r="3.5"/>
  <g id="zoomPlus">
    <use xlink:href="#rim" fill="#404040"><set attributeName="fill" to="#808080" begin="zoomplus.mouseover" end="zoomplus.mouseout"/></use>
    <path d="M-4,0h8M0,-4v8" fill="none" stroke="white" stroke-width="1.5" pointer-events="none"/>
  </g>
  <g id="zoomMin">
    <use xlink:href="#rim" fill="#404040"><set attributeName="fill" to="#808080" begin="zoomminus.mouseover" end="zoomminus.mouseout"/></use>
    <path d="M-4,0h8" fill="none" stroke="white" stroke-width="1.5" pointer-events="none"/>
  </g>
  <g id="arrowUp" transform="translate(30 24)">
    <use xlink:href="#rim"/>
    <path pointer-events="none" fill="none" stroke="white" stroke-width="1.5" d="M0,-3.0v7 M-2.5,-0.5L0,-3.0L2.5,-0.5"/>
  </g>
  <g id="arrowRight" transform="rotate(90) translate(36 -43)">
    <use xlink:href="#rim"/>
    <path pointer-events="none" fill="none" stroke="white" stroke-width="1.5" d="M0,-3.0v7 M-2.5,-0.5L0,-3.0L2.5,-0.5"/>
  </g>
  <g id="arrowDown" transform="rotate(180) translate(-30 -48)">
    <use xlink:href="#rim"/>
    <path pointer-events="none" fill="none" stroke="white" stroke-width="1.5" d="M0,-3.0v7 M-2.5,-0.5L0,-3.0L2.5,-0.5"/>
  </g>
  <g id="arrowLeft" transform="rotate(270) translate(-36 17)">
    <use xlink:href="#rim"/>
    <path pointer-events="none" fill="none" stroke="white" stroke-width="1.5" d="M0,-3.0v7 M-2.5,-0.5L0,-3.0L2.5,-0.5"/>
  </g>
  <g id="resetDef">
    <use xlink:href="#rim2" fill="#404040"><set attributeName="fill" to="#808080" begin="reset.mouseover" end="reset.mouseout"/></use>
  </g>
</defs>
<script type="application/ecmascript">
var viewWidth = 673;
var viewHeight = 269;
var sectionId = 'dynsection-0';
</script>
<script type="application/ecmascript" xlink:href="svg.min.js"/>
<svg id="graph" class="graph">
<g id="viewport">
<title>pluma&#45;document&#45;input&#45;stream.c</title>
<!-- Node1 -->
<g id="Node000001" class="node">
<title>Node1</title>
<g id="a_Node000001"><a xlink:title=" ">
<polygon fill="#999999" stroke="#666666" points="301.5,-261 173.5,-261 173.5,-231 301.5,-231 301.5,-261"/>
<text text-anchor="start" x="181.5" y="-249" font-family="Helvetica,sans-Serif" font-size="10.00">pluma&#45;document&#45;input</text>
<text text-anchor="middle" x="237.5" y="-238" font-family="Helvetica,sans-Serif" font-size="10.00">&#45;stream.c</text>
</a>
</g>
</g>
<!-- Node2 -->
<g id="Node000002" class="node">
<title>Node2</title>
<g id="a_Node000002"><a xlink:title=" ">
<polygon fill="#e0e0e0" stroke="#999999" points="55,-189.5 0,-189.5 0,-170.5 55,-170.5 55,-189.5"/>
<text text-anchor="middle" x="27.5" y="-177.5" font-family="Helvetica,sans-Serif" font-size="10.00">config.h</text>
</a>
</g>
</g>
<!-- Node1&#45;&gt;Node2 -->
<g id="edge1_Node000001_Node000002" class="edge">
<title>Node1&#45;&gt;Node2</title>
<g id="a_edge1_Node000001_Node000002"><a xlink:title=" ">
<path fill="none" stroke="#63b8ff" d="M188.85,-230.97C155.24,-221.17 109.55,-207.63 69.5,-195 67.21,-194.28 64.86,-193.52 62.49,-192.76"/>
<polygon fill="#63b8ff" stroke="#63b8ff" points="63.37,-189.36 52.78,-189.57 61.19,-196.01 63.37,-189.36"/>
</a>
</g>
</g>
<!-- Node3 -->
<g id="Node000003" class="node">
<title>Node3</title>
<g id="a_Node000003"><a xlink:title=" ">
<polygon fill="#e0e0e0" stroke="#999999" points="154.5,-19 110.5,-19 110.5,0 154.5,0 154.5,-19"/>
<text text-anchor="middle" x="132.5" y="-7" font-family="Helvetica,sans-Serif" font-size="10.00">glib.h</text>
</a>
</g>
</g>
<!-- Node1&#45;&gt;Node3 -->
<g id="edge2_Node000001_Node000003" class="edge">
<title>Node1&#45;&gt;Node3</title>
<g id="a_edge2_Node000001_Node000003"><a xlink:title=" ">
<path fill="none" stroke="#63b8ff" d="M209.74,-230.85C177.07,-212.44 124.49,-176.88 102.5,-129 86.85,-94.93 107.09,-51.45 121.13,-27.77"/>
<polygon fill="#63b8ff" stroke="#63b8ff" points="124.16,-29.53 126.48,-19.19 118.22,-25.83 124.16,-29.53"/>
</a>
</g>
</g>
<!-- Node4 -->
<g id="Node000004" class="node">
<title>Node4</title>
<g id="a_Node000004"><a xlink:title=" ">
<polygon fill="#e0e0e0" stroke="#999999" points="259,-74 200,-74 200,-55 259,-55 259,-74"/>
<text text-anchor="middle" x="229.5" y="-62" font-family="Helvetica,sans-Serif" font-size="10.00">gio/gio.h</text>
</a>
</g>
</g>
<!-- Node1&#45;&gt;Node4 -->
<g id="edge3_Node000001_Node000004" class="edge">
<title>Node1&#45;&gt;Node4</title>
<g id="a_edge3_Node000001_Node000004"><a xlink:title=" ">
<path fill="none" stroke="#63b8ff" d="M238.88,-230.76C241,-206.07 244.36,-153.8 239.5,-110 238.54,-101.34 236.56,-91.91 234.61,-83.97"/>
<polygon fill="#63b8ff" stroke="#63b8ff" points="237.99,-83.06 232.07,-74.27 231.22,-84.83 237.99,-83.06"/>
</a>
</g>
</g>
<!-- Node5 -->
<g id="Node000005" class="node">
<title>Node5</title>
<g id="a_Node000005"><a xlink:title=" ">
<polygon fill="#e0e0e0" stroke="#999999" points="487,-189.5 434,-189.5 434,-170.5 487,-170.5 487,-189.5"/>
<text text-anchor="middle" x="460.5" y="-177.5" font-family="Helvetica,sans-Serif" font-size="10.00">string.h</text>
</a>
</g>
</g>
<!-- Node1&#45;&gt;Node5 -->
<g id="edge4_Node000001_Node000005" class="edge">
<title>Node1&#45;&gt;Node5</title>
<g id="a_edge4_Node000001_Node000005"><a xlink:title=" ">
<path fill="none" stroke="#63b8ff" d="M296.52,-230.98C333.57,-221.75 382.18,-208.84 424.5,-195 426.36,-194.39 428.27,-193.74 430.19,-193.06"/>
<polygon fill="#63b8ff" stroke="#63b8ff" points="431.54,-196.29 439.7,-189.53 429.11,-189.73 431.54,-196.29"/>
</a>
</g>
</g>
<!-- Node6 -->
<g id="Node000006" class="node">
<title>Node6</title>
<g id="a_Node000006"><a xlink:href="pluma-document-input-stream_8h.html" target="_top" xlink:title=" ">
<polygon fill="white" stroke="#666666" points="415.5,-195 287.5,-195 287.5,-165 415.5,-165 415.5,-195"/>
<text text-anchor="start" x="295.5" y="-183" font-family="Helvetica,sans-Serif" font-size="10.00">pluma&#45;document&#45;input</text>
<text text-anchor="middle" x="351.5" y="-172" font-family="Helvetica,sans-Serif" font-size="10.00">&#45;stream.h</text>
</a>
</g>
</g>
<!-- Node1&#45;&gt;Node6 -->
<g id="edge5_Node000001_Node000006" class="edge">
<title>Node1&#45;&gt;Node6</title>
<g id="a_edge5_Node000001_Node000006"><a xlink:title=" ">
<path fill="none" stroke="#63b8ff" d="M262.52,-230.95C278.7,-221.87 299.98,-209.93 317.66,-200"/>
<polygon fill="#63b8ff" stroke="#63b8ff" points="319.53,-202.96 326.54,-195.01 316.11,-196.86 319.53,-202.96"/>
</a>
</g>
</g>
<!-- Node12 -->
<g id="Node000012" class="node">
<title>Node12</title>
<g id="a_Node000012"><a xlink:href="pluma-enum-types_8h.html" target="_top" xlink:title=" ">
<polygon fill="white" stroke="#666666" points="231,-129 112,-129 112,-110 231,-110 231,-129"/>
<text text-anchor="middle" x="171.5" y="-117" font-family="Helvetica,sans-Serif" font-size="10.00">pluma&#45;enum&#45;types.h</text>
</a>
</g>
</g>
<!-- Node1&#45;&gt;Node12 -->
<g id="edge15_Node000001_Node000012" class="edge">
<title>Node1&#45;&gt;Node12</title>
<g id="a_edge15_Node000001_Node000012"><a xlink:title=" ">
<path fill="none" stroke="#63b8ff" d="M229.93,-230.72C217.79,-207.81 193.99,-162.93 180.82,-138.09"/>
<polygon fill="#63b8ff" stroke="#63b8ff" points="183.82,-136.27 176.04,-129.07 177.63,-139.54 183.82,-136.27"/>
</a>
</g>
</g>
<!-- Node6&#45;&gt;Node4 -->
<g id="edge6_Node000006_Node000004" class="edge">
<title>Node6&#45;&gt;Node4</title>
<g id="a_edge6_Node000006_Node000004"><a xlink:title=" ">
<path fill="none" stroke="#63b8ff" d="M336.05,-164.63C313.11,-143.28 270.19,-103.36 246.43,-81.25"/>
<polygon fill="#63b8ff" stroke="#63b8ff" points="248.59,-78.48 238.88,-74.23 243.82,-83.6 248.59,-78.48"/>
</a>
</g>
</g>
<!-- Node7 -->
<g id="Node000007" class="node">
<title>Node7</title>
<g id="a_Node000007"><a xlink:title=" ">
<polygon fill="#e0e0e0" stroke="#999999" points="664.5,-74 604.5,-74 604.5,-55 664.5,-55 664.5,-74"/>
<text text-anchor="middle" x="634.5" y="-62" font-family="Helvetica,sans-Serif" font-size="10.00">gtk/gtk.h</text>
</a>
</g>
</g>
<!-- Node6&#45;&gt;Node7 -->
<g id="edge7_Node000006_Node000007" class="edge">
<title>Node6&#45;&gt;Node7</title>
<g id="a_edge7_Node000006_Node000007"><a xlink:title=" ">
<path fill="none" stroke="#63b8ff" d="M386.49,-164.97C442.2,-142.63 550.19,-99.31 603.37,-77.98"/>
<polygon fill="#63b8ff" stroke="#63b8ff" points="604.97,-81.12 612.95,-74.14 602.36,-74.62 604.97,-81.12"/>
</a>
</g>
</g>
<!-- Node8 -->
<g id="Node000008" class="node">
<title>Node8</title>
<g id="a_Node000008"><a xlink:href="pluma-document_8h.html" target="_top" xlink:title=" ">
<polygon fill="white" stroke="#666666" points="435,-129 326,-129 326,-110 435,-110 435,-129"/>
<text text-anchor="middle" x="380.5" y="-117" font-family="Helvetica,sans-Serif" font-size="10.00">pluma&#45;document.h</text>
</a>
</g>
</g>
<!-- Node6&#45;&gt;Node8 -->
<g id="edge8_Node000006_Node000008" class="edge">
<title>Node6&#45;&gt;Node8</title>
<g id="a_edge8_Node000006_Node000008"><a xlink:title=" ">
<path fill="none" stroke="#63b8ff" d="M358.52,-164.84C362.47,-156.87 367.44,-146.84 371.66,-138.33"/>
<polygon fill="#63b8ff" stroke="#63b8ff" points="374.85,-139.78 376.15,-129.27 368.58,-136.67 374.85,-139.78"/>
</a>
</g>
</g>
<!-- Node8&#45;&gt;Node4 -->
<g id="edge9_Node000008_Node000004" class="edge">
<title>Node8&#45;&gt;Node4</title>
<g id="a_edge9_Node000008_Node000004"><a xlink:title=" ">
<path fill="none" stroke="#63b8ff" d="M356.24,-109.98C331.18,-101.19 291.87,-87.39 263.67,-77.49"/>
<polygon fill="#63b8ff" stroke="#63b8ff" points="264.8,-74.18 254.2,-74.17 262.48,-80.78 264.8,-74.18"/>
</a>
</g>
</g>
<!-- Node8&#45;&gt;Node7 -->
<g id="edge10_Node000008_Node000007" class="edge">
<title>Node8&#45;&gt;Node7</title>
<g id="a_edge10_Node000008_Node000007"><a xlink:title=" ">
<path fill="none" stroke="#63b8ff" d="M422.55,-109.93C463.79,-101.5 528.74,-88.14 594.19,-74.26"/>
<polygon fill="#63b8ff" stroke="#63b8ff" points="595.22,-77.62 604.27,-72.12 593.76,-70.77 595.22,-77.62"/>
</a>
</g>
</g>
<!-- Node9 -->
<g id="Node000009" class="node">
<title>Node9</title>
<g id="a_Node000009"><a xlink:title=" ">
<polygon fill="#e0e0e0" stroke="#999999" points="586.5,-74 438.5,-74 438.5,-55 586.5,-55 586.5,-74"/>
<text text-anchor="middle" x="512.5" y="-62" font-family="Helvetica,sans-Serif" font-size="10.00">gtksourceview/gtksource.h</text>
</a>
</g>
</g>
<!-- Node8&#45;&gt;Node9 -->
<g id="edge11_Node000008_Node000009" class="edge">
<title>Node8&#45;&gt;Node9</title>
<g id="a_edge11_Node000008_Node000009"><a xlink:title=" ">
<path fill="none" stroke="#63b8ff" d="M401.71,-109.98C423.23,-101.34 456.78,-87.87 481.33,-78.02"/>
<polygon fill="#63b8ff" stroke="#63b8ff" points="482.93,-81.14 490.91,-74.17 480.32,-74.65 482.93,-81.14"/>
</a>
</g>
</g>
<!-- Node10 -->
<g id="Node000010" class="node">
<title>Node10</title>
<g id="a_Node000010"><a xlink:href="pluma-encodings_8h.html" target="_top" xlink:title=" ">
<polygon fill="white" stroke="#666666" points="420,-74 277,-74 277,-55 420,-55 420,-74"/>
<text text-anchor="middle" x="348.5" y="-62" font-family="Helvetica,sans-Serif" font-size="10.00">pluma/pluma&#45;encodings.h</text>
</a>
</g>
</g>
<!-- Node8&#45;&gt;Node10 -->
<g id="edge12_Node000008_Node000010" class="edge">
<title>Node8&#45;&gt;Node10</title>
<g id="a_edge12_Node000008_Node000010"><a xlink:title=" ">
<path fill="none" stroke="#63b8ff" d="M375.22,-109.75C370.79,-102.42 364.34,-91.73 358.88,-82.7"/>
<polygon fill="#63b8ff" stroke="#63b8ff" points="361.85,-80.84 353.69,-74.09 355.86,-84.46 361.85,-80.84"/>
</a>
</g>
</g>
<!-- Node10&#45;&gt;Node3 -->
<g id="edge13_Node000010_Node000003" class="edge">
<title>Node10&#45;&gt;Node3</title>
<g id="a_edge13_Node000010_Node000003"><a xlink:title=" ">
<path fill="none" stroke="#63b8ff" d="M313.8,-54.98C272.55,-44.86 204.29,-28.11 164.34,-18.31"/>
<polygon fill="#63b8ff" stroke="#63b8ff" points="165.13,-14.9 154.59,-15.92 163.47,-21.7 165.13,-14.9"/>
</a>
</g>
</g>
<!-- Node11 -->
<g id="Node000011" class="node">
<title>Node11</title>
<g id="a_Node000011"><a xlink:title=" ">
<polygon fill="#e0e0e0" stroke="#999999" points="298,-19 221,-19 221,0 298,0 298,-19"/>
<text text-anchor="middle" x="259.5" y="-7" font-family="Helvetica,sans-Serif" font-size="10.00">glib&#45;object.h</text>
</a>
</g>
</g>
<!-- Node10&#45;&gt;Node11 -->
<g id="edge14_Node000010_Node000011" class="edge">
<title>Node10&#45;&gt;Node11</title>
<g id="a_edge14_Node000010_Node000011"><a xlink:title=" ">
<path fill="none" stroke="#63b8ff" d="M334.2,-54.98C320.4,-46.77 299.26,-34.18 282.99,-24.49"/>
<polygon fill="#63b8ff" stroke="#63b8ff" points="284.44,-21.28 274.06,-19.17 280.86,-27.29 284.44,-21.28"/>
</a>
</g>
</g>
<!-- Node12&#45;&gt;Node11 -->
<g id="edge16_Node000012_Node000011" class="edge">
<title>Node12&#45;&gt;Node11</title>
<g id="a_edge16_Node000012_Node000011"><a xlink:title=" ">
<path fill="none" stroke="#63b8ff" d="M172.19,-109.85C173.62,-96.77 177.92,-71.74 190.5,-55 200.59,-41.57 216,-31.08 229.71,-23.66"/>
<polygon fill="#63b8ff" stroke="#63b8ff" points="231.51,-26.68 238.84,-19.02 228.33,-20.44 231.51,-26.68"/>
</a>
</g>
</g>
</g>
</svg>

<g id="navigator" transform="translate(0 0)" fill="#404254">
  <rect fill="#f2f5e9" fill-opacity="0.5" stroke="#606060" stroke-width=".5" x="0" y="0" width="60" height="60"/>
  <use id="zoomplus" xlink:href="#zoomPlus" x="17" y="9" onmousedown="handleZoom(evt,'in')"/>
  <use id="zoomminus" xlink:href="#zoomMin" x="42" y="9" onmousedown="handleZoom(evt,'out')"/>
  <use id="reset" xlink:href="#resetDef" x="30" y="36" onmousedown="handleReset()"/>
   <use id="arrowup" xlink:href="#arrowUp" x="0" y="0" onmousedown="handlePan(0,-1)"/>
  <use id="arrowright" xlink:href="#arrowRight" x="0" y="0" onmousedown="handlePan(1,0)"/>
  <use id="arrowdown" xlink:href="#arrowDown" x="0" y="0" onmousedown="handlePan(0,1)"/>
  <use id="arrowleft" xlink:href="#arrowLeft" x="0" y="0" onmousedown="handlePan(-1,0)"/>
</g>
<svg viewBox="0 0 15 15" width="100%" height="30px" preserveAspectRatio="xMaxYMin meet">
 <g id="arrow_out" transform="scale(0.3 0.3)">
  <a xlink:href="pluma-document-input-stream_8c__incl_org.svg" target="_base">
   <rect id="button" ry="5" rx="5" y="6" x="6" height="38" width="38"
        fill="#f2f5e9" fill-opacity="0.5" stroke="#606060" stroke-width="1.0"/>
   <path id="arrow"
     d="M 11.500037,31.436501 C 11.940474,20.09759 22.043105,11.32322 32.158766,21.979434 L 37.068811,17.246167 C 37.068811,17.246167 37.088388,32 37.088388,32 L 22.160133,31.978069 C 22.160133,31.978069 26.997745,27.140456 26.997745,27.140456 C 18.528582,18.264221 13.291696,25.230495 11.500037,31.436501 z"
     style="fill:#404040;"/>
  </a>
 </g>
</svg>

<style type='text/css'>
<![CDATA[
[data-mouse-over-selected='false'] { opacity: 0.7; }
[data-mouse-over-selected='true']  { opacity: 1.0; }
]]>
</style>
<script type="application/ecmascript"><![CDATA[
document.addEventListener('DOMContentLoaded', (event) => {
  highlightEdges();
  highlightAdjacentNodes();
});
]]></script>
</svg>
