<?xml version="1.0" encoding="UTF-8" standalone="no"?>
<!DOCTYPE svg PUBLIC "-//W3C//DTD SVG 1.1//EN"
 "http://www.w3.org/Graphics/SVG/1.1/DTD/svg11.dtd">
<!-- Generated by graphviz version 2.43.0 (0)
 -->
<!-- Title: sn&#45;item&#45;v0&#45;gen.c Pages: 1 -->
<svg width="180pt" height="137pt"
 viewBox="0.00 0.00 179.50 137.00" xmlns="http://www.w3.org/2000/svg" xmlns:xlink="http://www.w3.org/1999/xlink">
<g id="graph0" class="graph" transform="scale(1 1) rotate(0) translate(4 133)">
<title>sn&#45;item&#45;v0&#45;gen.c</title>
<!-- Node1 -->
<g id="Node000001" class="node">
<title>Node1</title>
<g id="a_Node000001"><a xlink:title=" ">
<polygon fill="#999999" stroke="#666666" points="146.5,-129 47.5,-129 47.5,-110 146.5,-110 146.5,-129"/>
<text text-anchor="middle" x="97" y="-117" font-family="Helvetica,sans-Serif" font-size="10.00">sn&#45;item&#45;v0&#45;gen.c</text>
</a>
</g>
</g>
<!-- Node2 -->
<g id="Node000002" class="node">
<title>Node2</title>
<g id="a_Node000002"><a xlink:href="sn-item-v0-gen_8h.html" target="_top" xlink:title=" ">
<polygon fill="white" stroke="#666666" points="100,-74 0,-74 0,-55 100,-55 100,-74"/>
<text text-anchor="middle" x="50" y="-62" font-family="Helvetica,sans-Serif" font-size="10.00">sn&#45;item&#45;v0&#45;gen.h</text>
</a>
</g>
</g>
<!-- Node1&#45;&gt;Node2 -->
<g id="edge1_Node000001_Node000002" class="edge">
<title>Node1&#45;&gt;Node2</title>
<g id="a_edge1_Node000001_Node000002"><a xlink:title=" ">
<path fill="none" stroke="#63b8ff" d="M89.24,-109.75C82.53,-102.18 72.66,-91.05 64.49,-81.84"/>
<polygon fill="#63b8ff" stroke="#63b8ff" points="66.87,-79.25 57.62,-74.09 61.63,-83.89 66.87,-79.25"/>
</a>
</g>
</g>
<!-- Node4 -->
<g id="Node000004" class="node">
<title>Node4</title>
<g id="a_Node000004"><a xlink:title=" ">
<polygon fill="#e0e0e0" stroke="#999999" points="171.5,-74 118.5,-74 118.5,-55 171.5,-55 171.5,-74"/>
<text text-anchor="middle" x="145" y="-62" font-family="Helvetica,sans-Serif" font-size="10.00">string.h</text>
</a>
</g>
</g>
<!-- Node1&#45;&gt;Node4 -->
<g id="edge3_Node000001_Node000004" class="edge">
<title>Node1&#45;&gt;Node4</title>
<g id="a_edge3_Node000001_Node000004"><a xlink:title=" ">
<path fill="none" stroke="#63b8ff" d="M104.93,-109.75C111.85,-102.11 122.07,-90.82 130.45,-81.56"/>
<polygon fill="#63b8ff" stroke="#63b8ff" points="133.1,-83.85 137.22,-74.09 127.91,-79.15 133.1,-83.85"/>
</a>
</g>
</g>
<!-- Node3 -->
<g id="Node000003" class="node">
<title>Node3</title>
<g id="a_Node000003"><a xlink:title=" ">
<polygon fill="#e0e0e0" stroke="#999999" points="79.5,-19 20.5,-19 20.5,0 79.5,0 79.5,-19"/>
<text text-anchor="middle" x="50" y="-7" font-family="Helvetica,sans-Serif" font-size="10.00">gio/gio.h</text>
</a>
</g>
</g>
<!-- Node2&#45;&gt;Node3 -->
<g id="edge2_Node000002_Node000003" class="edge">
<title>Node2&#45;&gt;Node3</title>
<g id="a_edge2_Node000002_Node000003"><a xlink:title=" ">
<path fill="none" stroke="#63b8ff" d="M50,-54.75C50,-47.8 50,-37.85 50,-29.13"/>
<polygon fill="#63b8ff" stroke="#63b8ff" points="53.5,-29.09 50,-19.09 46.5,-29.09 53.5,-29.09"/>
</a>
</g>
</g>
</g>
</svg>
