<?xml version="1.0" encoding="UTF-8" standalone="no"?>
<!DOCTYPE svg PUBLIC "-//W3C//DTD SVG 1.1//EN"
 "http://www.w3.org/Graphics/SVG/1.1/DTD/svg11.dtd">
<!-- Generated by graphviz version 2.43.0 (0)
 -->
<!-- Title: sn&#45;item&#45;v0&#45;gen.h Pages: 1 -->
<svg width="202pt" height="82pt"
 viewBox="0.00 0.00 202.00 82.00" xmlns="http://www.w3.org/2000/svg" xmlns:xlink="http://www.w3.org/1999/xlink">
<g id="graph0" class="graph" transform="scale(1 1) rotate(0) translate(4 78)">
<title>sn&#45;item&#45;v0&#45;gen.h</title>
<!-- Node1 -->
<g id="Node000001" class="node">
<title>Node1</title>
<g id="a_Node000001"><a xlink:title=" ">
<polygon fill="#999999" stroke="#666666" points="152.5,-74 52.5,-74 52.5,-55 152.5,-55 152.5,-74"/>
<text text-anchor="middle" x="102.5" y="-62" font-family="Helvetica,sans-Serif" font-size="10.00">sn&#45;item&#45;v0&#45;gen.h</text>
</a>
</g>
</g>
<!-- Node2 -->
<g id="Node000002" class="node">
<title>Node2</title>
<g id="a_Node000002"><a xlink:href="sn-item-v0-gen_8c.html" target="_top" xlink:title=" ">
<polygon fill="white" stroke="#666666" points="99,-19 0,-19 0,0 99,0 99,-19"/>
<text text-anchor="middle" x="49.5" y="-7" font-family="Helvetica,sans-Serif" font-size="10.00">sn&#45;item&#45;v0&#45;gen.c</text>
</a>
</g>
</g>
<!-- Node1&#45;&gt;Node2 -->
<g id="edge1_Node000001_Node000002" class="edge">
<title>Node1&#45;&gt;Node2</title>
<g id="a_edge1_Node000001_Node000002"><a xlink:title=" ">
<path fill="none" stroke="#63b8ff" d="M86.52,-47.52C77.18,-38.18 65.75,-26.75 58.09,-19.09"/>
<polygon fill="#63b8ff" stroke="#63b8ff" points="84.2,-50.15 93.75,-54.75 89.15,-45.2 84.2,-50.15"/>
</a>
</g>
</g>
<!-- Node3 -->
<g id="Node000003" class="node">
<title>Node3</title>
<g id="a_Node000003"><a xlink:href="sn-item-v0_8c.html" target="_top" xlink:title=" ">
<polygon fill="white" stroke="#666666" points="194,-19 117,-19 117,0 194,0 194,-19"/>
<text text-anchor="middle" x="155.5" y="-7" font-family="Helvetica,sans-Serif" font-size="10.00">sn&#45;item&#45;v0.c</text>
</a>
</g>
</g>
<!-- Node1&#45;&gt;Node3 -->
<g id="edge2_Node000001_Node000003" class="edge">
<title>Node1&#45;&gt;Node3</title>
<g id="a_edge2_Node000001_Node000003"><a xlink:title=" ">
<path fill="none" stroke="#63b8ff" d="M118.48,-47.52C127.82,-38.18 139.25,-26.75 146.91,-19.09"/>
<polygon fill="#63b8ff" stroke="#63b8ff" points="115.85,-45.2 111.25,-54.75 120.8,-50.15 115.85,-45.2"/>
</a>
</g>
</g>
</g>
</svg>
