<?xml version="1.0" encoding="UTF-8" standalone="no"?>
<!DOCTYPE svg PUBLIC "-//W3C//DTD SVG 1.1//EN"
 "http://www.w3.org/Graphics/SVG/1.1/DTD/svg11.dtd">
<!-- Generated by graphviz version 2.43.0 (0)
 -->
<!-- Title: CajaSearchDirectoryFile Pages: 1 -->
<!--zoomable 1026 -->

<svg id="main" version="1.1" xmlns="http://www.w3.org/2000/svg" xmlns:xlink="http://www.w3.org/1999/xlink" xml:space="preserve" onload="init(evt)">

<style type="text/css"><![CDATA[
.node, .edge {opacity: 0.7;}
.node.selected, .edge.selected {opacity: 1;}
.edge:hover path { stroke: red; }
.edge:hover polygon { stroke: red; fill: red; }
]]></style>

<defs>
  <circle id="rim" cx="0" cy="0" r="7"/>
  <circle id="rim2" cx="0" cy="0" r="3.5"/>
  <g id="zoomPlus">
    <use xlink:href="#rim" fill="#404040"><set attributeName="fill" to="#808080" begin="zoomplus.mouseover" end="zoomplus.mouseout"/></use>
    <path d="M-4,0h8M0,-4v8" fill="none" stroke="white" stroke-width="1.5" pointer-events="none"/>
  </g>
  <g id="zoomMin">
    <use xlink:href="#rim" fill="#404040"><set attributeName="fill" to="#808080" begin="zoomminus.mouseover" end="zoomminus.mouseout"/></use>
    <path d="M-4,0h8" fill="none" stroke="white" stroke-width="1.5" pointer-events="none"/>
  </g>
  <g id="arrowUp" transform="translate(30 24)">
    <use xlink:href="#rim"/>
    <path pointer-events="none" fill="none" stroke="white" stroke-width="1.5" d="M0,-3.0v7 M-2.5,-0.5L0,-3.0L2.5,-0.5"/>
  </g>
  <g id="arrowRight" transform="rotate(90) translate(36 -43)">
    <use xlink:href="#rim"/>
    <path pointer-events="none" fill="none" stroke="white" stroke-width="1.5" d="M0,-3.0v7 M-2.5,-0.5L0,-3.0L2.5,-0.5"/>
  </g>
  <g id="arrowDown" transform="rotate(180) translate(-30 -48)">
    <use xlink:href="#rim"/>
    <path pointer-events="none" fill="none" stroke="white" stroke-width="1.5" d="M0,-3.0v7 M-2.5,-0.5L0,-3.0L2.5,-0.5"/>
  </g>
  <g id="arrowLeft" transform="rotate(270) translate(-36 17)">
    <use xlink:href="#rim"/>
    <path pointer-events="none" fill="none" stroke="white" stroke-width="1.5" d="M0,-3.0v7 M-2.5,-0.5L0,-3.0L2.5,-0.5"/>
  </g>
  <g id="resetDef">
    <use xlink:href="#rim2" fill="#404040"><set attributeName="fill" to="#808080" begin="reset.mouseover" end="reset.mouseout"/></use>
  </g>
</defs>
<script type="application/ecmascript">
var viewWidth = 963;
var viewHeight = 1026;
var sectionId = 'dynsection-0';
</script>
<script type="application/ecmascript" xlink:href="svg.min.js"/>
<svg id="graph" class="graph">
<g id="viewport">
<title>CajaSearchDirectoryFile</title>
<!-- Node1 -->
<g id="Node000001" class="node">
<title>Node1</title>
<g id="a_Node000001"><a xlink:title=" ">
<polygon fill="#999999" stroke="#666666" points="360,-789 226,-789 226,-770 360,-770 360,-789"/>
<text text-anchor="middle" x="293" y="-777" font-family="Helvetica,sans-Serif" font-size="10.00">CajaSearchDirectoryFile</text>
</a>
</g>
</g>
<!-- Node2 -->
<g id="Node000002" class="node">
<title>Node2</title>
<g id="a_Node000002"><a xlink:href="structCajaFile.html" target="_top" xlink:title=" ">
<polygon fill="white" stroke="#666666" points="71.5,-543 15.5,-543 15.5,-524 71.5,-524 71.5,-543"/>
<text text-anchor="middle" x="43.5" y="-531" font-family="Helvetica,sans-Serif" font-size="10.00">CajaFile</text>
</a>
</g>
</g>
<!-- Node2&#45;&gt;Node1 -->
<g id="edge1_Node000001_Node000002" class="edge">
<title>Node2&#45;&gt;Node1</title>
<g id="a_edge1_Node000001_Node000002"><a xlink:title=" ">
<path fill="none" stroke="#9a32cd" stroke-dasharray="5,2" d="M47.07,-553.2C53.89,-602.4 74.11,-728.61 105,-755.5 122.71,-770.92 179.33,-776.59 225.66,-778.6"/>
<polygon fill="#9a32cd" stroke="#9a32cd" points="50.52,-552.63 45.72,-543.19 43.58,-553.57 50.52,-552.63"/>
</a>
</g>
<text text-anchor="start" x="129.5" y="-782" font-family="Helvetica,sans-Serif" font-size="10.00" fill="grey">parent_slot</text>
</g>
<!-- Node5 -->
<g id="Node000005" class="node">
<title>Node5</title>
<g id="a_Node000005"><a xlink:href="struct__CajaDirectoryPrivate.html" target="_top" xlink:title=" ">
<polygon fill="white" stroke="#666666" points="354.5,-422 231.5,-422 231.5,-403 354.5,-403 354.5,-422"/>
<text text-anchor="middle" x="293" y="-410" font-family="Helvetica,sans-Serif" font-size="10.00">_CajaDirectoryPrivate</text>
</a>
</g>
</g>
<!-- Node2&#45;&gt;Node5 -->
<g id="edge5_Node000005_Node000002" class="edge">
<title>Node2&#45;&gt;Node5</title>
<g id="a_edge5_Node000005_Node000002"><a xlink:title=" ">
<path fill="none" stroke="#9a32cd" stroke-dasharray="5,2" d="M48.33,-513.91C54.78,-486.86 70.63,-438.97 105,-417.5 150.03,-389.37 213.82,-395.13 254.04,-402.97"/>
<polygon fill="#9a32cd" stroke="#9a32cd" points="44.89,-513.27 46.18,-523.78 51.73,-514.76 44.89,-513.27"/>
</a>
</g>
<text text-anchor="start" x="110.5" y="-468.5" font-family="Helvetica,sans-Serif" font-size="10.00" fill="grey">as_file</text>
<text text-anchor="start" x="110.5" y="-453.5" font-family="Helvetica,sans-Serif" font-size="10.00" fill="grey">deep_count_file</text>
<text text-anchor="start" x="110.5" y="-438.5" font-family="Helvetica,sans-Serif" font-size="10.00" fill="grey">extension_info_file</text>
<text text-anchor="start" x="110.5" y="-423.5" font-family="Helvetica,sans-Serif" font-size="10.00" fill="grey">get_info_file</text>
</g>
<!-- Node8 -->
<g id="Node000008" class="node">
<title>Node8</title>
<g id="a_Node000008"><a xlink:title=" ">
<polygon fill="white" stroke="#666666" points="949,-926 839,-926 839,-907 949,-907 949,-926"/>
<text text-anchor="middle" x="894" y="-914" font-family="Helvetica,sans-Serif" font-size="10.00">DirectoryLoadState</text>
</a>
</g>
</g>
<!-- Node2&#45;&gt;Node8 -->
<g id="edge10_Node000008_Node000002" class="edge">
<title>Node2&#45;&gt;Node8</title>
<g id="a_edge10_Node000008_Node000002"><a xlink:title=" ">
<path fill="none" stroke="#9a32cd" stroke-dasharray="5,2" d="M45.81,-553.34C50.13,-612.34 65.92,-784.97 105,-822.5 209.96,-923.3 678.28,-921.75 838.8,-918.13"/>
<polygon fill="#9a32cd" stroke="#9a32cd" points="49.29,-552.86 45.1,-543.12 42.3,-553.34 49.29,-552.86"/>
</a>
</g>
<text text-anchor="start" x="381.5" y="-916" font-family="Helvetica,sans-Serif" font-size="10.00" fill="grey">load_directory_file</text>
</g>
<!-- Node9 -->
<g id="Node000009" class="node">
<title>Node9</title>
<g id="a_Node000009"><a xlink:title=" ">
<polygon fill="white" stroke="#666666" points="952,-832 836,-832 836,-813 952,-813 952,-832"/>
<text text-anchor="middle" x="894" y="-820" font-family="Helvetica,sans-Serif" font-size="10.00">DirectoryCountState</text>
</a>
</g>
</g>
<!-- Node2&#45;&gt;Node9 -->
<g id="edge13_Node000009_Node000002" class="edge">
<title>Node2&#45;&gt;Node9</title>
<g id="a_edge13_Node000009_Node000002"><a xlink:title=" ">
<path fill="none" stroke="#9a32cd" stroke-dasharray="5,2" d="M45.99,-553.32C50.66,-609.23 66.96,-766.19 105,-797.5 160.98,-843.57 664.06,-830.51 835.83,-824.63"/>
<polygon fill="#9a32cd" stroke="#9a32cd" points="49.48,-552.97 45.19,-543.28 42.5,-553.52 49.48,-552.97"/>
</a>
</g>
<text text-anchor="start" x="402.5" y="-836" font-family="Helvetica,sans-Serif" font-size="10.00" fill="grey">count_file</text>
</g>
<!-- Node11 -->
<g id="Node000011" class="node">
<title>Node11</title>
<g id="a_Node000011"><a xlink:title=" ">
<polygon fill="white" stroke="#666666" points="937.5,-742 850.5,-742 850.5,-723 937.5,-723 937.5,-742"/>
<text text-anchor="middle" x="894" y="-730" font-family="Helvetica,sans-Serif" font-size="10.00">MimeListState</text>
</a>
</g>
</g>
<!-- Node2&#45;&gt;Node11 -->
<g id="edge18_Node000011_Node000002" class="edge">
<title>Node2&#45;&gt;Node11</title>
<g id="a_edge18_Node000011_Node000002"><a xlink:title=" ">
<path fill="none" stroke="#9a32cd" stroke-dasharray="5,2" d="M61.44,-550.09C73.08,-560.98 89.23,-575.07 105,-585.5 217.88,-660.2 250.8,-674.21 378,-720.5 543.77,-780.83 759.83,-755.31 850.27,-740.43"/>
<polygon fill="#9a32cd" stroke="#9a32cd" points="63.81,-547.52 54.15,-543.16 58.98,-552.59 63.81,-547.52"/>
</a>
</g>
<text text-anchor="start" x="391.5" y="-750" font-family="Helvetica,sans-Serif" font-size="10.00" fill="grey">mime_list_file</text>
</g>
<!-- Node13 -->
<g id="Node000013" class="node">
<title>Node13</title>
<g id="a_Node000013"><a xlink:title=" ">
<polygon fill="white" stroke="#666666" points="941,-652 847,-652 847,-633 941,-633 941,-652"/>
<text text-anchor="middle" x="894" y="-640" font-family="Helvetica,sans-Serif" font-size="10.00">ThumbnailState</text>
</a>
</g>
</g>
<!-- Node2&#45;&gt;Node13 -->
<g id="edge23_Node000013_Node000002" class="edge">
<title>Node2&#45;&gt;Node13</title>
<g id="a_edge23_Node000013_Node000002"><a xlink:title=" ">
<path fill="none" stroke="#9a32cd" stroke-dasharray="5,2" d="M79.61,-546.61C154.34,-573.74 335.19,-635.25 493,-656.5 562.59,-665.87 580.78,-657.14 651,-656.5 723.9,-655.83 742.33,-659.27 815,-653.5 825.36,-652.68 836.44,-651.37 846.91,-649.95"/>
<polygon fill="#9a32cd" stroke="#9a32cd" points="80.38,-543.17 69.79,-543.02 77.98,-549.74 80.38,-543.17"/>
</a>
</g>
<text text-anchor="start" x="418.5" y="-659" font-family="Helvetica,sans-Serif" font-size="10.00" fill="grey">file</text>
</g>
<!-- Node14 -->
<g id="Node000014" class="node">
<title>Node14</title>
<g id="a_Node000014"><a xlink:title=" ">
<polygon fill="white" stroke="#666666" points="930.5,-562 857.5,-562 857.5,-543 930.5,-543 930.5,-562"/>
<text text-anchor="middle" x="894" y="-550" font-family="Helvetica,sans-Serif" font-size="10.00">MountState</text>
</a>
</g>
</g>
<!-- Node2&#45;&gt;Node14 -->
<g id="edge26_Node000014_Node000002" class="edge">
<title>Node2&#45;&gt;Node14</title>
<g id="a_edge26_Node000014_Node000002"><a xlink:title=" ">
<path fill="none" stroke="#9a32cd" stroke-dasharray="5,2" d="M82.05,-534.34C222.97,-537.5 719.32,-548.61 857.22,-551.7"/>
<polygon fill="#9a32cd" stroke="#9a32cd" points="81.85,-530.84 71.77,-534.11 81.69,-537.83 81.85,-530.84"/>
</a>
</g>
<text text-anchor="start" x="418.5" y="-548" font-family="Helvetica,sans-Serif" font-size="10.00" fill="grey">file</text>
</g>
<!-- Node15 -->
<g id="Node000015" class="node">
<title>Node15</title>
<g id="a_Node000015"><a xlink:title=" ">
<polygon fill="white" stroke="#666666" points="951,-472 837,-472 837,-453 951,-453 951,-472"/>
<text text-anchor="middle" x="894" y="-460" font-family="Helvetica,sans-Serif" font-size="10.00">FilesystemInfoState</text>
</a>
</g>
</g>
<!-- Node2&#45;&gt;Node15 -->
<g id="edge29_Node000015_Node000002" class="edge">
<title>Node2&#45;&gt;Node15</title>
<g id="a_edge29_Node000015_Node000002"><a xlink:title=" ">
<path fill="none" stroke="#9a32cd" stroke-dasharray="5,2" d="M81.55,-531.44C192.81,-525.07 533.65,-504.26 815,-473.5 822.07,-472.73 829.48,-471.81 836.81,-470.85"/>
<polygon fill="#9a32cd" stroke="#9a32cd" points="81.3,-527.95 71.51,-532.01 81.69,-534.93 81.3,-527.95"/>
</a>
</g>
<text text-anchor="start" x="418.5" y="-517" font-family="Helvetica,sans-Serif" font-size="10.00" fill="grey">file</text>
</g>
<!-- Node16 -->
<g id="Node000016" class="node">
<title>Node16</title>
<g id="a_Node000016"><a xlink:title=" ">
<polygon fill="white" stroke="#666666" points="955,-302 833,-302 833,-283 955,-283 955,-302"/>
<text text-anchor="middle" x="894" y="-290" font-family="Helvetica,sans-Serif" font-size="10.00">TopLeftTextReadState</text>
</a>
</g>
</g>
<!-- Node2&#45;&gt;Node16 -->
<g id="edge32_Node000016_Node000002" class="edge">
<title>Node2&#45;&gt;Node16</title>
<g id="a_edge32_Node000016_Node000002"><a xlink:title=" ">
<path fill="none" stroke="#9a32cd" stroke-dasharray="5,2" d="M51.16,-514.2C60.19,-487.53 76.4,-437.8 87,-394.5 97.43,-351.91 71.49,-325.77 105,-297.5 214.01,-205.54 668.16,-260.06 832.94,-283.45"/>
<polygon fill="#9a32cd" stroke="#9a32cd" points="47.79,-513.24 47.87,-523.83 54.42,-515.5 47.79,-513.24"/>
</a>
</g>
<text text-anchor="start" x="418.5" y="-254" font-family="Helvetica,sans-Serif" font-size="10.00" fill="grey">file</text>
</g>
<!-- Node17 -->
<g id="Node000017" class="node">
<title>Node17</title>
<g id="a_Node000017"><a xlink:title=" ">
<polygon fill="white" stroke="#666666" points="947,-212 841,-212 841,-193 947,-193 947,-212"/>
<text text-anchor="middle" x="894" y="-200" font-family="Helvetica,sans-Serif" font-size="10.00">LinkInfoReadState</text>
</a>
</g>
</g>
<!-- Node2&#45;&gt;Node17 -->
<g id="edge35_Node000017_Node000002" class="edge">
<title>Node2&#45;&gt;Node17</title>
<g id="a_edge35_Node000017_Node000002"><a xlink:title=" ">
<path fill="none" stroke="#9a32cd" stroke-dasharray="5,2" d="M51.5,-514.28C60.93,-487.7 77.59,-438.07 87,-394.5 93.58,-364.06 84.32,-278.79 105,-255.5 315.34,-18.56 499.11,-167 815,-191.5 823.32,-192.15 832.1,-193.11 840.65,-194.2"/>
<polygon fill="#9a32cd" stroke="#9a32cd" points="48.14,-513.28 48.06,-523.87 54.73,-515.64 48.14,-513.28"/>
</a>
</g>
<text text-anchor="start" x="418.5" y="-138" font-family="Helvetica,sans-Serif" font-size="10.00" fill="grey">file</text>
</g>
<!-- Node3 -->
<g id="Node000003" class="node">
<title>Node3</title>
<g id="a_Node000003"><a xlink:href="struct__CajaFilePrivate.html" target="_top" xlink:title=" ">
<polygon fill="white" stroke="#666666" points="941.5,-57 846.5,-57 846.5,-38 941.5,-38 941.5,-57"/>
<text text-anchor="middle" x="894" y="-45" font-family="Helvetica,sans-Serif" font-size="10.00">_CajaFilePrivate</text>
</a>
</g>
</g>
<!-- Node3&#45;&gt;Node2 -->
<g id="edge2_Node000002_Node000003" class="edge">
<title>Node3&#45;&gt;Node2</title>
<g id="a_edge2_Node000002_Node000003"><a xlink:title=" ">
<path fill="none" stroke="#9a32cd" stroke-dasharray="5,2" d="M836.24,-46.32C670.33,-44.28 192.43,-48.79 105,-165.5 74.39,-206.35 96.52,-344.35 87,-394.5 77.54,-444.33 56.74,-501.6 48.23,-523.91"/>
<polygon fill="#9a32cd" stroke="#9a32cd" points="836.2,-49.82 846.24,-46.46 836.29,-42.83 836.2,-49.82"/>
</a>
</g>
<text text-anchor="start" x="409.5" y="-75" font-family="Helvetica,sans-Serif" font-size="10.00" fill="grey">details</text>
</g>
<!-- Node4 -->
<g id="Node000004" class="node">
<title>Node4</title>
<g id="a_Node000004"><a xlink:href="structCajaDirectory.html" target="_top" xlink:title=" ">
<polygon fill="white" stroke="#666666" points="613.5,-412 530.5,-412 530.5,-393 613.5,-393 613.5,-412"/>
<text text-anchor="middle" x="572" y="-400" font-family="Helvetica,sans-Serif" font-size="10.00">CajaDirectory</text>
</a>
</g>
</g>
<!-- Node4&#45;&gt;Node3 -->
<g id="edge3_Node000003_Node000004" class="edge">
<title>Node4&#45;&gt;Node3</title>
<g id="a_edge3_Node000003_Node000004"><a xlink:title=" ">
<path fill="none" stroke="#9a32cd" stroke-dasharray="5,2" d="M623.39,-396.51C634,-392.9 644.06,-387.26 651,-378.5 687.66,-332.24 632.07,-159.54 669,-113.5 691.16,-85.87 787.45,-65.21 846.33,-54.87"/>
<polygon fill="#9a32cd" stroke="#9a32cd" points="622.24,-393.2 613.57,-399.29 624.14,-399.93 622.24,-393.2"/>
</a>
</g>
<text text-anchor="start" x="720" y="-119" font-family="Helvetica,sans-Serif" font-size="10.00" fill="grey">directory</text>
</g>
<!-- Node4&#45;&gt;Node8 -->
<g id="edge9_Node000008_Node000004" class="edge">
<title>Node4&#45;&gt;Node8</title>
<g id="a_edge9_Node000008_Node000004"><a xlink:title=" ">
<path fill="none" stroke="#9a32cd" stroke-dasharray="5,2" d="M623.52,-408.39C634.12,-412.01 644.15,-417.67 651,-426.5 676.98,-459.99 645.68,-772.11 669,-807.5 681.11,-825.87 815.51,-883.91 870.13,-906.95"/>
<polygon fill="#9a32cd" stroke="#9a32cd" points="624.27,-404.97 613.7,-405.61 622.37,-411.7 624.27,-404.97"/>
</a>
</g>
<text text-anchor="start" x="720" y="-887" font-family="Helvetica,sans-Serif" font-size="10.00" fill="grey">directory</text>
</g>
<!-- Node4&#45;&gt;Node9 -->
<g id="edge12_Node000009_Node000004" class="edge">
<title>Node4&#45;&gt;Node9</title>
<g id="a_edge12_Node000009_Node000004"><a xlink:title=" ">
<path fill="none" stroke="#9a32cd" stroke-dasharray="5,2" d="M623.43,-408.46C634.04,-412.07 644.09,-417.72 651,-426.5 691.48,-477.94 631.92,-666.56 669,-720.5 675.19,-729.5 814.43,-789.21 870.2,-812.87"/>
<polygon fill="#9a32cd" stroke="#9a32cd" points="624.18,-405.03 613.61,-405.68 622.28,-411.77 624.18,-405.03"/>
</a>
</g>
<text text-anchor="start" x="720" y="-792" font-family="Helvetica,sans-Serif" font-size="10.00" fill="grey">directory</text>
</g>
<!-- Node10 -->
<g id="Node000010" class="node">
<title>Node10</title>
<g id="a_Node000010"><a xlink:title=" ">
<polygon fill="white" stroke="#666666" points="942,-384 846,-384 846,-365 942,-365 942,-384"/>
<text text-anchor="middle" x="894" y="-372" font-family="Helvetica,sans-Serif" font-size="10.00">DeepCountState</text>
</a>
</g>
</g>
<!-- Node4&#45;&gt;Node10 -->
<g id="edge15_Node000010_Node000004" class="edge">
<title>Node4&#45;&gt;Node10</title>
<g id="a_edge15_Node000010_Node000004"><a xlink:title=" ">
<path fill="none" stroke="#9a32cd" stroke-dasharray="5,2" d="M623.92,-396.3C638.47,-394.62 654.35,-392.89 669,-391.5 729.96,-385.7 800.39,-380.62 845.76,-377.56"/>
<polygon fill="#9a32cd" stroke="#9a32cd" points="623.13,-392.87 613.6,-397.5 623.94,-399.82 623.13,-392.87"/>
</a>
</g>
<text text-anchor="start" x="720" y="-397" font-family="Helvetica,sans-Serif" font-size="10.00" fill="grey">directory</text>
</g>
<!-- Node4&#45;&gt;Node11 -->
<g id="edge17_Node000011_Node000004" class="edge">
<title>Node4&#45;&gt;Node11</title>
<g id="a_edge17_Node000011_Node000004"><a xlink:title=" ">
<path fill="none" stroke="#9a32cd" stroke-dasharray="5,2" d="M623.57,-408.7C634.07,-412.31 644.04,-417.9 651,-426.5 679.62,-461.88 642.71,-593.35 669,-630.5 681.43,-648.07 813.07,-701.18 868.56,-722.99"/>
<polygon fill="#9a32cd" stroke="#9a32cd" points="624.43,-405.3 613.85,-405.91 622.5,-412.03 624.43,-405.3"/>
</a>
</g>
<text text-anchor="start" x="720" y="-705" font-family="Helvetica,sans-Serif" font-size="10.00" fill="grey">directory</text>
</g>
<!-- Node12 -->
<g id="Node000012" class="node">
<title>Node12</title>
<g id="a_Node000012"><a xlink:title=" ">
<polygon fill="white" stroke="#666666" points="933,-138 855,-138 855,-119 933,-119 933,-138"/>
<text text-anchor="middle" x="894" y="-126" font-family="Helvetica,sans-Serif" font-size="10.00">GetInfoState</text>
</a>
</g>
</g>
<!-- Node4&#45;&gt;Node12 -->
<g id="edge20_Node000012_Node000004" class="edge">
<title>Node4&#45;&gt;Node12</title>
<g id="a_edge20_Node000012_Node000004"><a xlink:title=" ">
<path fill="none" stroke="#9a32cd" stroke-dasharray="5,2" d="M623.48,-396.23C633.99,-392.62 643.98,-387.05 651,-378.5 700.88,-317.71 619.75,-263.8 669,-202.5 714.27,-146.15 803.6,-132.32 854.71,-129.17"/>
<polygon fill="#9a32cd" stroke="#9a32cd" points="622.41,-392.9 613.77,-399.02 624.35,-399.62 622.41,-392.9"/>
</a>
</g>
<text text-anchor="start" x="720" y="-208" font-family="Helvetica,sans-Serif" font-size="10.00" fill="grey">directory</text>
</g>
<!-- Node4&#45;&gt;Node13 -->
<g id="edge22_Node000013_Node000004" class="edge">
<title>Node4&#45;&gt;Node13</title>
<g id="a_edge22_Node000013_Node000004"><a xlink:title=" ">
<path fill="none" stroke="#9a32cd" stroke-dasharray="5,2" d="M623.46,-409.16C633.86,-412.76 643.82,-418.22 651,-426.5 684.61,-465.25 637.96,-499.67 669,-540.5 682.03,-557.64 813.32,-610.99 868.64,-632.93"/>
<polygon fill="#9a32cd" stroke="#9a32cd" points="624.43,-405.79 613.85,-406.35 622.46,-412.51 624.43,-405.79"/>
</a>
</g>
<text text-anchor="start" x="720" y="-615" font-family="Helvetica,sans-Serif" font-size="10.00" fill="grey">directory</text>
</g>
<!-- Node4&#45;&gt;Node14 -->
<g id="edge25_Node000014_Node000004" class="edge">
<title>Node4&#45;&gt;Node14</title>
<g id="a_edge25_Node000014_Node000004"><a xlink:title=" ">
<path fill="none" stroke="#9a32cd" stroke-dasharray="5,2" d="M623.51,-412.64C633.2,-416.03 642.85,-420.54 651,-426.5 662.34,-434.8 658.18,-443.53 669,-452.5 685.55,-466.23 815.45,-520.56 869.51,-542.86"/>
<polygon fill="#9a32cd" stroke="#9a32cd" points="624.45,-409.27 613.86,-409.6 622.35,-415.95 624.45,-409.27"/>
</a>
</g>
<text text-anchor="start" x="720" y="-525" font-family="Helvetica,sans-Serif" font-size="10.00" fill="grey">directory</text>
</g>
<!-- Node4&#45;&gt;Node15 -->
<g id="edge28_Node000015_Node000004" class="edge">
<title>Node4&#45;&gt;Node15</title>
<g id="a_edge28_Node000015_Node000004"><a xlink:title=" ">
<path fill="none" stroke="#9a32cd" stroke-dasharray="5,2" d="M623.62,-407.01C683.62,-412.63 779.91,-422.59 815,-431.5 835.34,-436.67 857.48,-445.83 872.95,-452.86"/>
<polygon fill="#9a32cd" stroke="#9a32cd" points="623.87,-403.52 613.59,-406.08 623.22,-410.49 623.87,-403.52"/>
</a>
</g>
<text text-anchor="start" x="720" y="-437" font-family="Helvetica,sans-Serif" font-size="10.00" fill="grey">directory</text>
</g>
<!-- Node4&#45;&gt;Node16 -->
<g id="edge31_Node000016_Node000004" class="edge">
<title>Node4&#45;&gt;Node16</title>
<g id="a_edge31_Node000016_Node000004"><a xlink:title=" ">
<path fill="none" stroke="#9a32cd" stroke-dasharray="5,2" d="M623.14,-391.25C632.79,-387.95 642.51,-383.77 651,-378.5 660.88,-372.37 659.09,-365.6 669,-359.5 719.65,-328.34 785.69,-310.9 832.91,-301.69"/>
<polygon fill="#9a32cd" stroke="#9a32cd" points="622.07,-387.92 613.58,-394.27 624.17,-394.6 622.07,-387.92"/>
</a>
</g>
<text text-anchor="start" x="720" y="-365" font-family="Helvetica,sans-Serif" font-size="10.00" fill="grey">directory</text>
</g>
<!-- Node4&#45;&gt;Node17 -->
<g id="edge34_Node000017_Node000004" class="edge">
<title>Node4&#45;&gt;Node17</title>
<g id="a_edge34_Node000017_Node000004"><a xlink:title=" ">
<path fill="none" stroke="#9a32cd" stroke-dasharray="5,2" d="M623.25,-395.66C633.66,-392.07 643.68,-386.65 651,-378.5 679.13,-347.18 641.76,-317.6 669,-285.5 693.42,-256.72 796.33,-226.91 853.79,-212.08"/>
<polygon fill="#9a32cd" stroke="#9a32cd" points="622.26,-392.3 613.64,-398.47 624.22,-399.02 622.26,-392.3"/>
</a>
</g>
<text text-anchor="start" x="720" y="-291" font-family="Helvetica,sans-Serif" font-size="10.00" fill="grey">directory</text>
</g>
<!-- Node5&#45;&gt;Node4 -->
<g id="edge4_Node000004_Node000005" class="edge">
<title>Node5&#45;&gt;Node4</title>
<g id="a_edge4_Node000004_Node000005"><a xlink:title=" ">
<path fill="none" stroke="#9a32cd" stroke-dasharray="5,2" d="M365.05,-409.94C417.54,-408.04 487.13,-405.53 530.48,-403.96"/>
<polygon fill="#9a32cd" stroke="#9a32cd" points="364.66,-406.45 354.79,-410.31 364.91,-413.44 364.66,-406.45"/>
</a>
</g>
<text text-anchor="start" x="409.5" y="-415" font-family="Helvetica,sans-Serif" font-size="10.00" fill="grey">details</text>
</g>
<!-- Node6 -->
<g id="Node000006" class="node">
<title>Node6</title>
<g id="a_Node000006"><a xlink:title=" ">
<polygon fill="white" stroke="#666666" points="87,-316 0,-316 0,-297 87,-297 87,-316"/>
<text text-anchor="middle" x="43.5" y="-304" font-family="Helvetica,sans-Serif" font-size="10.00">CajaFileQueue</text>
</a>
</g>
</g>
<!-- Node6&#45;&gt;Node5 -->
<g id="edge6_Node000005_Node000006" class="edge">
<title>Node6&#45;&gt;Node5</title>
<g id="a_edge6_Node000005_Node000006"><a xlink:title=" ">
<path fill="none" stroke="#9a32cd" stroke-dasharray="5,2" d="M97.08,-301.51C130.49,-300.57 173.73,-303.6 208,-320.5 246.02,-339.25 275.06,-383.22 286.59,-402.8"/>
<polygon fill="#9a32cd" stroke="#9a32cd" points="96.9,-298.01 87.05,-301.92 97.19,-305.01 96.9,-298.01"/>
</a>
</g>
<text text-anchor="start" x="108.5" y="-356" font-family="Helvetica,sans-Serif" font-size="10.00" fill="grey">extension_queue</text>
<text text-anchor="start" x="108.5" y="-341" font-family="Helvetica,sans-Serif" font-size="10.00" fill="grey">high_priority_queue</text>
<text text-anchor="start" x="108.5" y="-326" font-family="Helvetica,sans-Serif" font-size="10.00" fill="grey">low_priority_queue</text>
</g>
<!-- Node7 -->
<g id="Node000007" class="node">
<title>Node7</title>
<g id="a_Node000007"><a xlink:title=" ">
<polygon fill="white" stroke="#666666" points="81.5,-386 5.5,-386 5.5,-367 81.5,-367 81.5,-386"/>
<text text-anchor="middle" x="43.5" y="-374" font-family="Helvetica,sans-Serif" font-size="10.00">CajaMonitor</text>
</a>
</g>
</g>
<!-- Node7&#45;&gt;Node5 -->
<g id="edge7_Node000005_Node000007" class="edge">
<title>Node7&#45;&gt;Node5</title>
<g id="a_edge7_Node000005_Node000007"><a xlink:title=" ">
<path fill="none" stroke="#9a32cd" stroke-dasharray="5,2" d="M91.86,-371.99C124.77,-370.02 169.47,-369.67 208,-377.5 232.15,-382.41 258.06,-394.33 274.62,-402.9"/>
<polygon fill="#9a32cd" stroke="#9a32cd" points="91.35,-368.52 81.61,-372.68 91.82,-375.5 91.35,-368.52"/>
</a>
</g>
<text text-anchor="start" x="137.5" y="-383" font-family="Helvetica,sans-Serif" font-size="10.00" fill="grey">monitor</text>
</g>
<!-- Node8&#45;&gt;Node5 -->
<g id="edge8_Node000005_Node000008" class="edge">
<title>Node8&#45;&gt;Node5</title>
<g id="a_edge8_Node000005_Node000008"><a xlink:title=" ">
<path fill="none" stroke="#9a32cd" stroke-dasharray="5,2" d="M863.39,-930.15C776.22,-968.05 517.89,-1063.82 378,-937.5 348.82,-911.15 365.66,-800.41 360,-761.5 340.3,-626.03 305.13,-463.06 296.14,-422.16"/>
<polygon fill="#9a32cd" stroke="#9a32cd" points="864.96,-933.28 872.69,-926.04 862.13,-926.88 864.96,-933.28"/>
</a>
</g>
<text text-anchor="start" x="506" y="-1006" font-family="Helvetica,sans-Serif" font-size="10.00" fill="grey">directory_load_in_progress</text>
</g>
<!-- Node9&#45;&gt;Node5 -->
<g id="edge11_Node000005_Node000009" class="edge">
<title>Node9&#45;&gt;Node5</title>
<g id="a_edge11_Node000005_Node000009"><a xlink:title=" ">
<path fill="none" stroke="#9a32cd" stroke-dasharray="5,2" d="M832.62,-833.89C711.73,-855.2 445.73,-894.18 378,-838.5 373.76,-835.01 307.65,-484.98 295.81,-422.11"/>
<polygon fill="#9a32cd" stroke="#9a32cd" points="833.58,-837.27 842.81,-832.07 832.35,-830.38 833.58,-837.27"/>
</a>
</g>
<text text-anchor="start" x="528" y="-872" font-family="Helvetica,sans-Serif" font-size="10.00" fill="grey">count_in_progress</text>
</g>
<!-- Node10&#45;&gt;Node5 -->
<g id="edge14_Node000005_Node000010" class="edge">
<title>Node10&#45;&gt;Node5</title>
<g id="a_edge14_Node000005_Node000010"><a xlink:title=" ">
<path fill="none" stroke="#9a32cd" stroke-dasharray="5,2" d="M835.62,-368.57C757.74,-361.61 614.36,-352.66 493,-366.5 432.75,-373.37 364.2,-391.59 325.32,-402.93"/>
<polygon fill="#9a32cd" stroke="#9a32cd" points="835.43,-372.07 845.7,-369.49 836.06,-365.09 835.43,-372.07"/>
</a>
</g>
<text text-anchor="start" x="513" y="-372" font-family="Helvetica,sans-Serif" font-size="10.00" fill="grey">deep_count_in_progress</text>
</g>
<!-- Node11&#45;&gt;Node5 -->
<g id="edge16_Node000005_Node000011" class="edge">
<title>Node11&#45;&gt;Node5</title>
<g id="a_edge16_Node000005_Node000011"><a xlink:title=" ">
<path fill="none" stroke="#9a32cd" stroke-dasharray="5,2" d="M840.1,-732.18C715.88,-730.96 413.35,-725.05 378,-696.5 332.9,-660.08 302.08,-467.46 295.37,-422.08"/>
<polygon fill="#9a32cd" stroke="#9a32cd" points="840.11,-735.68 850.14,-732.27 840.18,-728.68 840.11,-735.68"/>
</a>
</g>
<text text-anchor="start" x="517" y="-733" font-family="Helvetica,sans-Serif" font-size="10.00" fill="grey">mime_list_in_progress</text>
</g>
<!-- Node12&#45;&gt;Node5 -->
<g id="edge19_Node000005_Node000012" class="edge">
<title>Node12&#45;&gt;Node5</title>
<g id="a_edge19_Node000005_Node000012"><a xlink:title=" ">
<path fill="none" stroke="#9a32cd" stroke-dasharray="5,2" d="M844.6,-123.18C730.65,-111.73 449.69,-90.01 378,-145.5 292.89,-211.39 292.17,-363.14 293.53,-402.85"/>
<polygon fill="#9a32cd" stroke="#9a32cd" points="844.47,-126.69 854.77,-124.22 845.18,-119.72 844.47,-126.69"/>
</a>
</g>
<text text-anchor="start" x="521" y="-120" font-family="Helvetica,sans-Serif" font-size="10.00" fill="grey">get_info_in_progress</text>
</g>
<!-- Node13&#45;&gt;Node5 -->
<g id="edge21_Node000005_Node000013" class="edge">
<title>Node13&#45;&gt;Node5</title>
<g id="a_edge21_Node000005_Node000013"><a xlink:title=" ">
<path fill="none" stroke="#9a32cd" stroke-dasharray="5,2" d="M836.67,-642.54C718.38,-641.54 449.17,-633.25 378,-579.5 323.36,-538.23 301.73,-451.54 295.81,-422.34"/>
<polygon fill="#9a32cd" stroke="#9a32cd" points="836.94,-646.04 846.96,-642.61 836.99,-639.04 836.94,-646.04"/>
</a>
</g>
<text text-anchor="start" x="532" y="-641" font-family="Helvetica,sans-Serif" font-size="10.00" fill="grey">thumbnail_state</text>
</g>
<!-- Node14&#45;&gt;Node5 -->
<g id="edge24_Node000005_Node000014" class="edge">
<title>Node14&#45;&gt;Node5</title>
<g id="a_edge24_Node000005_Node000014"><a xlink:title=" ">
<path fill="none" stroke="#9a32cd" stroke-dasharray="5,2" d="M847.45,-560.02C836.83,-561.46 825.54,-562.76 815,-563.5 718.11,-570.3 461.62,-603.92 378,-554.5 326.46,-524.04 303.09,-448.67 296.24,-422.02"/>
<polygon fill="#9a32cd" stroke="#9a32cd" points="847.98,-563.48 857.39,-558.59 846.99,-556.55 847.98,-563.48"/>
</a>
</g>
<text text-anchor="start" x="541" y="-586" font-family="Helvetica,sans-Serif" font-size="10.00" fill="grey">mount_state</text>
</g>
<!-- Node15&#45;&gt;Node5 -->
<g id="edge27_Node000005_Node000015" class="edge">
<title>Node15&#45;&gt;Node5</title>
<g id="a_edge27_Node000005_Node000015"><a xlink:title=" ">
<path fill="none" stroke="#9a32cd" stroke-dasharray="5,2" d="M826.62,-461.53C728.23,-459.38 538.07,-452.5 378,-430.5 363.08,-428.45 346.85,-425.21 332.68,-422.05"/>
<polygon fill="#9a32cd" stroke="#9a32cd" points="826.65,-465.03 836.72,-461.74 826.79,-458.03 826.65,-465.03"/>
</a>
</g>
<text text-anchor="start" x="519" y="-461" font-family="Helvetica,sans-Serif" font-size="10.00" fill="grey">filesystem_info_state</text>
</g>
<!-- Node16&#45;&gt;Node5 -->
<g id="edge30_Node000005_Node000016" class="edge">
<title>Node16&#45;&gt;Node5</title>
<g id="a_edge30_Node000005_Node000016"><a xlink:title=" ">
<path fill="none" stroke="#9a32cd" stroke-dasharray="5,2" d="M822.73,-292.45C721.16,-294.57 528.97,-306.88 378,-365.5 352.14,-375.54 324.5,-392.32 308.26,-402.88"/>
<polygon fill="#9a32cd" stroke="#9a32cd" points="822.93,-295.95 832.87,-292.26 822.81,-288.95 822.93,-295.95"/>
</a>
</g>
<text text-anchor="start" x="525" y="-335" font-family="Helvetica,sans-Serif" font-size="10.00" fill="grey">top_left_read_state</text>
</g>
<!-- Node17&#45;&gt;Node5 -->
<g id="edge33_Node000005_Node000017" class="edge">
<title>Node17&#45;&gt;Node5</title>
<g id="a_edge33_Node000005_Node000017"><a xlink:title=" ">
<path fill="none" stroke="#9a32cd" stroke-dasharray="5,2" d="M830.75,-198.99C710.15,-193.39 450.16,-187.59 378,-236.5 318.31,-276.96 299.8,-371.93 295.26,-402.7"/>
<polygon fill="#9a32cd" stroke="#9a32cd" points="830.78,-202.49 840.93,-199.47 831.11,-195.5 830.78,-202.49"/>
</a>
</g>
<text text-anchor="start" x="522" y="-210" font-family="Helvetica,sans-Serif" font-size="10.00" fill="grey">link_info_read_state</text>
</g>
<!-- Node18 -->
<g id="Node000018" class="node">
<title>Node18</title>
<g id="a_Node000018"><a xlink:href="structCajaFileSortByEmblemCache.html" target="_top" xlink:title=" ">
<polygon fill="white" stroke="#666666" points="651,-19 493,-19 493,0 651,0 651,-19"/>
<text text-anchor="middle" x="572" y="-7" font-family="Helvetica,sans-Serif" font-size="10.00">CajaFileSortByEmblemCache</text>
</a>
</g>
</g>
<!-- Node18&#45;&gt;Node3 -->
<g id="edge36_Node000003_Node000018" class="edge">
<title>Node18&#45;&gt;Node3</title>
<g id="a_edge36_Node000003_Node000018"><a xlink:title=" ">
<path fill="none" stroke="#9a32cd" stroke-dasharray="5,2" d="M661.46,-4.72C707.66,-4.06 764.87,-6.15 815,-16.5 836.12,-20.86 858.89,-30.54 874.34,-37.93"/>
<polygon fill="#9a32cd" stroke="#9a32cd" points="661.11,-1.23 651.18,-4.91 661.24,-8.22 661.11,-1.23"/>
</a>
</g>
<text text-anchor="start" x="672" y="-22" font-family="Helvetica,sans-Serif" font-size="10.00" fill="grey">compare_by_emblem_cache</text>
</g>
</g>
</svg>

<g id="navigator" transform="translate(0 0)" fill="#404254">
  <rect fill="#f2f5e9" fill-opacity="0.5" stroke="#606060" stroke-width=".5" x="0" y="0" width="60" height="60"/>
  <use id="zoomplus" xlink:href="#zoomPlus" x="17" y="9" onmousedown="handleZoom(evt,'in')"/>
  <use id="zoomminus" xlink:href="#zoomMin" x="42" y="9" onmousedown="handleZoom(evt,'out')"/>
  <use id="reset" xlink:href="#resetDef" x="30" y="36" onmousedown="handleReset()"/>
   <use id="arrowup" xlink:href="#arrowUp" x="0" y="0" onmousedown="handlePan(0,-1)"/>
  <use id="arrowright" xlink:href="#arrowRight" x="0" y="0" onmousedown="handlePan(1,0)"/>
  <use id="arrowdown" xlink:href="#arrowDown" x="0" y="0" onmousedown="handlePan(0,1)"/>
  <use id="arrowleft" xlink:href="#arrowLeft" x="0" y="0" onmousedown="handlePan(-1,0)"/>
</g>
<svg viewBox="0 0 15 15" width="100%" height="30px" preserveAspectRatio="xMaxYMin meet">
 <g id="arrow_out" transform="scale(0.3 0.3)">
  <a xlink:href="structCajaSearchDirectoryFile__coll__graph_org.svg" target="_base">
   <rect id="button" ry="5" rx="5" y="6" x="6" height="38" width="38"
        fill="#f2f5e9" fill-opacity="0.5" stroke="#606060" stroke-width="1.0"/>
   <path id="arrow"
     d="M 11.500037,31.436501 C 11.940474,20.09759 22.043105,11.32322 32.158766,21.979434 L 37.068811,17.246167 C 37.068811,17.246167 37.088388,32 37.088388,32 L 22.160133,31.978069 C 22.160133,31.978069 26.997745,27.140456 26.997745,27.140456 C 18.528582,18.264221 13.291696,25.230495 11.500037,31.436501 z"
     style="fill:#404040;"/>
  </a>
 </g>
</svg>

<style type='text/css'>
<![CDATA[
[data-mouse-over-selected='false'] { opacity: 0.7; }
[data-mouse-over-selected='true']  { opacity: 1.0; }
]]>
</style>
<script type="application/ecmascript"><![CDATA[
document.addEventListener('DOMContentLoaded', (event) => {
  highlightEdges();
  highlightAdjacentNodes();
});
]]></script>
</svg>
