<?xml version="1.0" encoding="UTF-8" standalone="no"?>
<!DOCTYPE svg PUBLIC "-//W3C//DTD SVG 1.1//EN"
 "http://www.w3.org/Graphics/SVG/1.1/DTD/svg11.dtd">
<!-- Generated by graphviz version 2.43.0 (0)
 -->
<!-- Title: MathHistory Pages: 1 -->
<svg width="369pt" height="531pt"
 viewBox="0.00 0.00 368.50 531.00" xmlns="http://www.w3.org/2000/svg" xmlns:xlink="http://www.w3.org/1999/xlink">
<g id="graph0" class="graph" transform="scale(1 1) rotate(0) translate(4 527)">
<title>MathHistory</title>
<!-- Node1 -->
<g id="Node000001" class="node">
<title>Node1</title>
<g id="a_Node000001"><a xlink:title=" ">
<polygon fill="#999999" stroke="#666666" points="94,-19 17,-19 17,0 94,0 94,-19"/>
<text text-anchor="middle" x="55.5" y="-7" font-family="Helvetica,sans-Serif" font-size="10.00">MathHistory</text>
</a>
</g>
</g>
<!-- Node2 -->
<g id="Node000002" class="node">
<title>Node2</title>
<g id="a_Node000002"><a xlink:title=" ">
<polygon fill="white" stroke="#666666" points="111,-91 0,-91 0,-72 111,-72 111,-91"/>
<text text-anchor="middle" x="55.5" y="-79" font-family="Helvetica,sans-Serif" font-size="10.00">MathHistoryPrivate</text>
</a>
</g>
</g>
<!-- Node2&#45;&gt;Node1 -->
<g id="edge1_Node000001_Node000002" class="edge">
<title>Node2&#45;&gt;Node1</title>
<g id="a_edge1_Node000001_Node000002"><a xlink:title=" ">
<path fill="none" stroke="#9a32cd" stroke-dasharray="5,2" d="M55.5,-61.58C55.5,-47.76 55.5,-29.68 55.5,-19.15"/>
<polygon fill="#9a32cd" stroke="#9a32cd" points="52,-61.92 55.5,-71.92 59,-61.92 52,-61.92"/>
</a>
</g>
<text text-anchor="start" x="59" y="-42.5" font-family="Helvetica,sans-Serif" font-size="10.00" fill="grey">priv</text>
</g>
<!-- Node3 -->
<g id="Node000003" class="node">
<title>Node3</title>
<g id="a_Node000003"><a xlink:href="structMathEquation.html" target="_top" xlink:title=" ">
<polygon fill="white" stroke="#666666" points="160.5,-163 76.5,-163 76.5,-144 160.5,-144 160.5,-163"/>
<text text-anchor="middle" x="118.5" y="-151" font-family="Helvetica,sans-Serif" font-size="10.00">MathEquation</text>
</a>
</g>
</g>
<!-- Node3&#45;&gt;Node2 -->
<g id="edge2_Node000002_Node000003" class="edge">
<title>Node3&#45;&gt;Node2</title>
<g id="a_edge2_Node000002_Node000003"><a xlink:title=" ">
<path fill="none" stroke="#9a32cd" stroke-dasharray="5,2" d="M104.02,-136.41C91.35,-122.33 73.43,-102.42 63.29,-91.15"/>
<polygon fill="#9a32cd" stroke="#9a32cd" points="101.48,-138.83 110.77,-143.92 106.69,-134.14 101.48,-138.83"/>
</a>
</g>
<text text-anchor="start" x="98" y="-114.5" font-family="Helvetica,sans-Serif" font-size="10.00" fill="grey">equation</text>
</g>
<!-- Node4 -->
<g id="Node000004" class="node">
<title>Node4</title>
<g id="a_Node000004"><a xlink:title=" ">
<polygon fill="white" stroke="#666666" points="193,-235 74,-235 74,-216 193,-216 193,-235"/>
<text text-anchor="middle" x="133.5" y="-223" font-family="Helvetica,sans-Serif" font-size="10.00">MathEquationPrivate</text>
</a>
</g>
</g>
<!-- Node4&#45;&gt;Node3 -->
<g id="edge3_Node000003_Node000004" class="edge">
<title>Node4&#45;&gt;Node3</title>
<g id="a_edge3_Node000003_Node000004"><a xlink:title=" ">
<path fill="none" stroke="#9a32cd" stroke-dasharray="5,2" d="M129.53,-205.99C126.56,-192.13 122.63,-173.79 120.35,-163.15"/>
<polygon fill="#9a32cd" stroke="#9a32cd" points="126.14,-206.87 131.66,-215.92 132.99,-205.41 126.14,-206.87"/>
</a>
</g>
<text text-anchor="start" x="132" y="-186.5" font-family="Helvetica,sans-Serif" font-size="10.00" fill="grey">priv</text>
</g>
<!-- Node5 -->
<g id="Node000005" class="node">
<title>Node5</title>
<g id="a_Node000005"><a xlink:title=" ">
<polygon fill="white" stroke="#666666" points="360.5,-307 250.5,-307 250.5,-288 360.5,-288 360.5,-307"/>
<text text-anchor="middle" x="305.5" y="-295" font-family="Helvetica,sans-Serif" font-size="10.00">MathEquationState</text>
</a>
</g>
</g>
<!-- Node5&#45;&gt;Node4 -->
<g id="edge4_Node000004_Node000005" class="edge">
<title>Node5&#45;&gt;Node4</title>
<g id="a_edge4_Node000004_Node000005"><a xlink:title=" ">
<path fill="none" stroke="#9a32cd" stroke-dasharray="5,2" d="M281.15,-282.79C264.21,-273.59 240.9,-261.64 219.5,-253 202.11,-245.98 182.13,-239.72 165.81,-235.05"/>
<polygon fill="#9a32cd" stroke="#9a32cd" points="279.88,-286.08 290.33,-287.83 283.25,-279.95 279.88,-286.08"/>
</a>
</g>
<text text-anchor="start" x="259" y="-258.5" font-family="Helvetica,sans-Serif" font-size="10.00" fill="grey">state</text>
</g>
<!-- Node6 -->
<g id="Node000006" class="node">
<title>Node6</title>
<g id="a_Node000006"><a xlink:href="structMPNumber.html" target="_top" xlink:title=" ">
<polygon fill="white" stroke="#666666" points="345,-379 274,-379 274,-360 345,-360 345,-379"/>
<text text-anchor="middle" x="309.5" y="-367" font-family="Helvetica,sans-Serif" font-size="10.00">MPNumber</text>
</a>
</g>
</g>
<!-- Node6&#45;&gt;Node5 -->
<g id="edge5_Node000005_Node000006" class="edge">
<title>Node6&#45;&gt;Node5</title>
<g id="a_edge5_Node000005_Node000006"><a xlink:title=" ">
<path fill="none" stroke="#9a32cd" stroke-dasharray="5,2" d="M308.42,-349.58C307.63,-335.76 306.6,-317.68 305.99,-307.15"/>
<polygon fill="#9a32cd" stroke="#9a32cd" points="304.94,-350.13 309.01,-359.92 311.93,-349.73 304.94,-350.13"/>
</a>
</g>
<text text-anchor="start" x="310.5" y="-330.5" font-family="Helvetica,sans-Serif" font-size="10.00" fill="grey">ans</text>
</g>
<!-- Node7 -->
<g id="Node000007" class="node">
<title>Node7</title>
<g id="a_Node000007"><a xlink:href="structMathVariables.html" target="_top" xlink:title=" ">
<polygon fill="white" stroke="#666666" points="224.5,-307 138.5,-307 138.5,-288 224.5,-288 224.5,-307"/>
<text text-anchor="middle" x="181.5" y="-295" font-family="Helvetica,sans-Serif" font-size="10.00">MathVariables</text>
</a>
</g>
</g>
<!-- Node7&#45;&gt;Node4 -->
<g id="edge6_Node000004_Node000007" class="edge">
<title>Node7&#45;&gt;Node4</title>
<g id="a_edge6_Node000004_Node000007"><a xlink:title=" ">
<path fill="none" stroke="#9a32cd" stroke-dasharray="5,2" d="M169.92,-279.62C160.31,-265.59 147.02,-246.21 139.43,-235.15"/>
<polygon fill="#9a32cd" stroke="#9a32cd" points="167.07,-281.65 175.61,-287.92 172.85,-277.69 167.07,-281.65"/>
</a>
</g>
<text text-anchor="start" x="166.5" y="-258.5" font-family="Helvetica,sans-Serif" font-size="10.00" fill="grey">variables</text>
</g>
<!-- Node8 -->
<g id="Node000008" class="node">
<title>Node8</title>
<g id="a_Node000008"><a xlink:title=" ">
<polygon fill="white" stroke="#666666" points="256,-379 135,-379 135,-360 256,-360 256,-379"/>
<text text-anchor="middle" x="195.5" y="-367" font-family="Helvetica,sans-Serif" font-size="10.00">MathVariablesPrivate</text>
</a>
</g>
</g>
<!-- Node8&#45;&gt;Node7 -->
<g id="edge7_Node000007_Node000008" class="edge">
<title>Node8&#45;&gt;Node7</title>
<g id="a_edge7_Node000007_Node000008"><a xlink:title=" ">
<path fill="none" stroke="#9a32cd" stroke-dasharray="5,2" d="M191.8,-349.99C189.03,-336.13 185.36,-317.79 183.23,-307.15"/>
<polygon fill="#9a32cd" stroke="#9a32cd" points="188.39,-350.8 193.78,-359.92 195.25,-349.42 188.39,-350.8"/>
</a>
</g>
<text text-anchor="start" x="193" y="-330.5" font-family="Helvetica,sans-Serif" font-size="10.00" fill="grey">priv</text>
</g>
<!-- Node9 -->
<g id="Node000009" class="node">
<title>Node9</title>
<g id="a_Node000009"><a xlink:href="structMpSerializer.html" target="_top" xlink:title=" ">
<polygon fill="white" stroke="#666666" points="145,-451 68,-451 68,-432 145,-432 145,-451"/>
<text text-anchor="middle" x="106.5" y="-439" font-family="Helvetica,sans-Serif" font-size="10.00">MpSerializer</text>
</a>
</g>
</g>
<!-- Node9&#45;&gt;Node2 -->
<g id="edge11_Node000002_Node000009" class="edge">
<title>Node9&#45;&gt;Node2</title>
<g id="a_edge11_Node000002_Node000009"><a xlink:title=" ">
<path fill="none" stroke="#9a32cd" stroke-dasharray="5,2" d="M80.64,-426.84C61.78,-414.8 39.5,-395.33 39.5,-370.5 39.5,-370.5 39.5,-370.5 39.5,-152.5 39.5,-130.06 47.41,-104.57 52.11,-91.41"/>
<polygon fill="#9a32cd" stroke="#9a32cd" points="78.87,-429.85 89.25,-431.99 82.46,-423.85 78.87,-429.85"/>
</a>
</g>
<text text-anchor="start" x="42.5" y="-258.5" font-family="Helvetica,sans-Serif" font-size="10.00" fill="grey">serializer</text>
</g>
<!-- Node9&#45;&gt;Node4 -->
<g id="edge10_Node000004_Node000009" class="edge">
<title>Node9&#45;&gt;Node4</title>
<g id="a_edge10_Node000004_Node000009"><a xlink:title=" ">
<path fill="none" stroke="#9a32cd" stroke-dasharray="5,2" d="M108.85,-421.84C114.46,-377.4 128.44,-266.61 132.42,-235.03"/>
<polygon fill="#9a32cd" stroke="#9a32cd" points="105.37,-421.49 107.59,-431.85 112.32,-422.36 105.37,-421.49"/>
</a>
</g>
<text text-anchor="start" x="124.5" y="-330.5" font-family="Helvetica,sans-Serif" font-size="10.00" fill="grey">serializer</text>
</g>
<!-- Node9&#45;&gt;Node8 -->
<g id="edge8_Node000008_Node000009" class="edge">
<title>Node9&#45;&gt;Node8</title>
<g id="a_edge8_Node000008_Node000009"><a xlink:title=" ">
<path fill="none" stroke="#9a32cd" stroke-dasharray="5,2" d="M125.47,-425.58C143.43,-411.46 169.77,-390.74 184.5,-379.15"/>
<polygon fill="#9a32cd" stroke="#9a32cd" points="123.11,-422.98 117.41,-431.92 127.44,-428.49 123.11,-422.98"/>
</a>
</g>
<text text-anchor="start" x="165.5" y="-402.5" font-family="Helvetica,sans-Serif" font-size="10.00" fill="grey">serializer</text>
</g>
<!-- Node10 -->
<g id="Node000010" class="node">
<title>Node10</title>
<g id="a_Node000010"><a xlink:title=" ">
<polygon fill="white" stroke="#666666" points="162.5,-523 50.5,-523 50.5,-504 162.5,-504 162.5,-523"/>
<text text-anchor="middle" x="106.5" y="-511" font-family="Helvetica,sans-Serif" font-size="10.00">MpSerializerPrivate</text>
</a>
</g>
</g>
<!-- Node10&#45;&gt;Node9 -->
<g id="edge9_Node000009_Node000010" class="edge">
<title>Node10&#45;&gt;Node9</title>
<g id="a_edge9_Node000009_Node000010"><a xlink:title=" ">
<path fill="none" stroke="#9a32cd" stroke-dasharray="5,2" d="M106.5,-493.58C106.5,-479.76 106.5,-461.68 106.5,-451.15"/>
<polygon fill="#9a32cd" stroke="#9a32cd" points="103,-493.92 106.5,-503.92 110,-493.92 103,-493.92"/>
</a>
</g>
<text text-anchor="start" x="110" y="-474.5" font-family="Helvetica,sans-Serif" font-size="10.00" fill="grey">priv</text>
</g>
</g>
</svg>
