<?xml version="1.0" encoding="UTF-8" standalone="no"?>
<!DOCTYPE svg PUBLIC "-//W3C//DTD SVG 1.1//EN"
 "http://www.w3.org/Graphics/SVG/1.1/DTD/svg11.dtd">
<!-- Generated by graphviz version 2.43.0 (0)
 -->
<!-- Title: NADataBoxedClass Pages: 1 -->
<svg width="284pt" height="171pt"
 viewBox="0.00 0.00 283.50 171.00" xmlns="http://www.w3.org/2000/svg" xmlns:xlink="http://www.w3.org/1999/xlink">
<g id="graph0" class="graph" transform="scale(1 1) rotate(0) translate(4 167)">
<title>NADataBoxedClass</title>
<!-- Node1 -->
<g id="Node000001" class="node">
<title>Node1</title>
<g id="a_Node000001"><a xlink:title=" ">
<polygon fill="#999999" stroke="#666666" points="186.5,-19 76.5,-19 76.5,0 186.5,0 186.5,-19"/>
<text text-anchor="middle" x="131.5" y="-7" font-family="Helvetica,sans-Serif" font-size="10.00">NADataBoxedClass</text>
</a>
</g>
</g>
<!-- Node2 -->
<g id="Node000002" class="node">
<title>Node2</title>
<g id="a_Node000002"><a xlink:href="structNABoxedClass.html" target="_top" xlink:title=" ">
<polygon fill="white" stroke="#666666" points="107,-91 20,-91 20,-72 107,-72 107,-91"/>
<text text-anchor="middle" x="63.5" y="-79" font-family="Helvetica,sans-Serif" font-size="10.00">NABoxedClass</text>
</a>
</g>
</g>
<!-- Node2&#45;&gt;Node1 -->
<g id="edge1_Node000001_Node000002" class="edge">
<title>Node2&#45;&gt;Node1</title>
<g id="a_edge1_Node000001_Node000002"><a xlink:title=" ">
<path fill="none" stroke="#9a32cd" stroke-dasharray="5,2" d="M79.13,-64.41C92.81,-50.33 112.15,-30.42 123.09,-19.15"/>
<polygon fill="#9a32cd" stroke="#9a32cd" points="76.3,-62.31 71.84,-71.92 81.32,-67.18 76.3,-62.31"/>
</a>
</g>
<text text-anchor="start" x="109.5" y="-42.5" font-family="Helvetica,sans-Serif" font-size="10.00" fill="grey">parent</text>
</g>
<!-- Node3 -->
<g id="Node000003" class="node">
<title>Node3</title>
<g id="a_Node000003"><a xlink:title=" ">
<polygon fill="white" stroke="#666666" points="127,-163 0,-163 0,-144 127,-144 127,-163"/>
<text text-anchor="middle" x="63.5" y="-151" font-family="Helvetica,sans-Serif" font-size="10.00">_NABoxedClassPrivate</text>
</a>
</g>
</g>
<!-- Node3&#45;&gt;Node2 -->
<g id="edge2_Node000002_Node000003" class="edge">
<title>Node3&#45;&gt;Node2</title>
<g id="a_edge2_Node000002_Node000003"><a xlink:title=" ">
<path fill="none" stroke="#9a32cd" stroke-dasharray="5,2" d="M63.5,-133.58C63.5,-119.76 63.5,-101.68 63.5,-91.15"/>
<polygon fill="#9a32cd" stroke="#9a32cd" points="60,-133.92 63.5,-143.92 67,-133.92 60,-133.92"/>
</a>
</g>
<text text-anchor="start" x="67" y="-114.5" font-family="Helvetica,sans-Serif" font-size="10.00" fill="grey">private</text>
</g>
<!-- Node4 -->
<g id="Node000004" class="node">
<title>Node4</title>
<g id="a_Node000004"><a xlink:title=" ">
<polygon fill="white" stroke="#666666" points="275.5,-91 125.5,-91 125.5,-72 275.5,-72 275.5,-91"/>
<text text-anchor="middle" x="200.5" y="-79" font-family="Helvetica,sans-Serif" font-size="10.00">_NADataBoxedClassPrivate</text>
</a>
</g>
</g>
<!-- Node4&#45;&gt;Node1 -->
<g id="edge3_Node000001_Node000004" class="edge">
<title>Node4&#45;&gt;Node1</title>
<g id="a_edge3_Node000001_Node000004"><a xlink:title=" ">
<path fill="none" stroke="#9a32cd" stroke-dasharray="5,2" d="M184.64,-64.41C170.76,-50.33 151.14,-30.42 140.03,-19.15"/>
<polygon fill="#9a32cd" stroke="#9a32cd" points="182.53,-67.25 192.04,-71.92 187.51,-62.34 182.53,-67.25"/>
</a>
</g>
<text text-anchor="start" x="177" y="-42.5" font-family="Helvetica,sans-Serif" font-size="10.00" fill="grey">private</text>
</g>
</g>
</svg>
