<?xml version="1.0" encoding="UTF-8" standalone="no"?>
<!DOCTYPE svg PUBLIC "-//W3C//DTD SVG 1.1//EN"
 "http://www.w3.org/Graphics/SVG/1.1/DTD/svg11.dtd">
<!-- Generated by graphviz version 2.43.0 (0)
 -->
<!-- Title: _AlsaBackend Pages: 1 -->
<svg width="597pt" height="258pt"
 viewBox="0.00 0.00 596.50 258.00" xmlns="http://www.w3.org/2000/svg" xmlns:xlink="http://www.w3.org/1999/xlink">
<g id="graph0" class="graph" transform="scale(1 1) rotate(0) translate(4 254)">
<title>_AlsaBackend</title>
<!-- Node1 -->
<g id="Node000001" class="node">
<title>Node1</title>
<g id="a_Node000001"><a xlink:title=" ">
<polygon fill="#999999" stroke="#666666" points="185.5,-19 101.5,-19 101.5,0 185.5,0 185.5,-19"/>
<text text-anchor="middle" x="143.5" y="-7" font-family="Helvetica,sans-Serif" font-size="10.00">_AlsaBackend</text>
</a>
</g>
</g>
<!-- Node2 -->
<g id="Node000002" class="node">
<title>Node2</title>
<g id="a_Node000002"><a xlink:href="struct__MateMixerBackend.html" target="_top" xlink:title=" ">
<polygon fill="white" stroke="#666666" points="115,-91 0,-91 0,-72 115,-72 115,-91"/>
<text text-anchor="middle" x="57.5" y="-79" font-family="Helvetica,sans-Serif" font-size="10.00">_MateMixerBackend</text>
</a>
</g>
</g>
<!-- Node2&#45;&gt;Node1 -->
<g id="edge1_Node000001_Node000002" class="edge">
<title>Node2&#45;&gt;Node1</title>
<g id="a_edge1_Node000001_Node000002"><a xlink:title=" ">
<path fill="none" stroke="#9a32cd" stroke-dasharray="5,2" d="M75.83,-65.58C93.18,-51.46 118.64,-30.74 132.87,-19.15"/>
<polygon fill="#9a32cd" stroke="#9a32cd" points="73.59,-62.89 68.05,-71.92 78.01,-68.32 73.59,-62.89"/>
</a>
</g>
<text text-anchor="start" x="114.5" y="-42.5" font-family="Helvetica,sans-Serif" font-size="10.00" fill="grey">parent</text>
</g>
<!-- Node3 -->
<g id="Node000003" class="node">
<title>Node3</title>
<g id="a_Node000003"><a xlink:title=" ">
<polygon fill="white" stroke="#666666" points="178,-163 29,-163 29,-144 178,-144 178,-163"/>
<text text-anchor="middle" x="103.5" y="-151" font-family="Helvetica,sans-Serif" font-size="10.00">_MateMixerBackendPrivate</text>
</a>
</g>
</g>
<!-- Node3&#45;&gt;Node2 -->
<g id="edge2_Node000002_Node000003" class="edge">
<title>Node3&#45;&gt;Node2</title>
<g id="a_edge2_Node000002_Node000003"><a xlink:title=" ">
<path fill="none" stroke="#9a32cd" stroke-dasharray="5,2" d="M92.14,-135.21C82.95,-121.22 70.38,-102.1 63.19,-91.15"/>
<polygon fill="#9a32cd" stroke="#9a32cd" points="89.44,-137.48 97.86,-143.92 95.29,-133.64 89.44,-137.48"/>
</a>
</g>
<text text-anchor="start" x="90" y="-114.5" font-family="Helvetica,sans-Serif" font-size="10.00" fill="grey">priv</text>
</g>
<!-- Node4 -->
<g id="Node000004" class="node">
<title>Node4</title>
<g id="a_Node000004"><a xlink:href="struct__MateMixerStream.html" target="_top" xlink:title=" ">
<polygon fill="white" stroke="#666666" points="513,-250 404,-250 404,-231 513,-231 513,-250"/>
<text text-anchor="middle" x="458.5" y="-238" font-family="Helvetica,sans-Serif" font-size="10.00">_MateMixerStream</text>
</a>
</g>
</g>
<!-- Node4&#45;&gt;Node3 -->
<g id="edge3_Node000003_Node000004" class="edge">
<title>Node4&#45;&gt;Node3</title>
<g id="a_edge3_Node000003_Node000004"><a xlink:title=" ">
<path fill="none" stroke="#9a32cd" stroke-dasharray="5,2" d="M412.76,-228.55C341.13,-211.4 203.98,-178.56 139.14,-163.03"/>
<polygon fill="#9a32cd" stroke="#9a32cd" points="412.3,-232.04 422.84,-230.96 413.93,-225.23 412.3,-232.04"/>
</a>
</g>
<text text-anchor="start" x="346.5" y="-202" font-family="Helvetica,sans-Serif" font-size="10.00" fill="grey">default_input</text>
<text text-anchor="start" x="346.5" y="-187" font-family="Helvetica,sans-Serif" font-size="10.00" fill="grey">default_output</text>
</g>
<!-- Node9 -->
<g id="Node000009" class="node">
<title>Node9</title>
<g id="a_Node000009"><a xlink:title=" ">
<polygon fill="white" stroke="#666666" points="548,-163 369,-163 369,-144 548,-144 548,-163"/>
<text text-anchor="middle" x="458.5" y="-151" font-family="Helvetica,sans-Serif" font-size="10.00">_MateMixerStreamControlPrivate</text>
</a>
</g>
</g>
<!-- Node4&#45;&gt;Node9 -->
<g id="edge9_Node000009_Node000004" class="edge">
<title>Node4&#45;&gt;Node9</title>
<g id="a_edge9_Node000009_Node000004"><a xlink:title=" ">
<path fill="none" stroke="#9a32cd" stroke-dasharray="5,2" d="M458.5,-220.62C458.5,-202.79 458.5,-176.83 458.5,-163.36"/>
<polygon fill="#9a32cd" stroke="#9a32cd" points="455,-220.72 458.5,-230.72 462,-220.72 455,-220.72"/>
</a>
</g>
<text text-anchor="start" x="462" y="-194" font-family="Helvetica,sans-Serif" font-size="10.00" fill="grey">stream</text>
</g>
<!-- Node5 -->
<g id="Node000005" class="node">
<title>Node5</title>
<g id="a_Node000005"><a xlink:title=" ">
<polygon fill="white" stroke="#666666" points="539,-19 396,-19 396,0 539,0 539,-19"/>
<text text-anchor="middle" x="467.5" y="-7" font-family="Helvetica,sans-Serif" font-size="10.00">_MateMixerStreamPrivate</text>
</a>
</g>
</g>
<!-- Node5&#45;&gt;Node4 -->
<g id="edge4_Node000004_Node000005" class="edge">
<title>Node5&#45;&gt;Node4</title>
<g id="a_edge4_Node000004_Node000005"><a xlink:title=" ">
<path fill="none" stroke="#9a32cd" stroke-dasharray="5,2" d="M496.36,-23.86C514.9,-34.15 537.51,-50.3 548.5,-72 568.59,-111.68 566.18,-143.14 557.5,-163 542.72,-196.84 503.91,-219.47 479.51,-230.86"/>
<polygon fill="#9a32cd" stroke="#9a32cd" points="497.86,-20.7 487.38,-19.14 494.61,-26.89 497.86,-20.7"/>
</a>
</g>
<text text-anchor="start" x="567" y="-114.5" font-family="Helvetica,sans-Serif" font-size="10.00" fill="grey">priv</text>
</g>
<!-- Node6 -->
<g id="Node000006" class="node">
<title>Node6</title>
<g id="a_Node000006"><a xlink:href="struct__MateMixerDevice.html" target="_top" xlink:title=" ">
<polygon fill="white" stroke="#666666" points="377,-91 270,-91 270,-72 377,-72 377,-91"/>
<text text-anchor="middle" x="323.5" y="-79" font-family="Helvetica,sans-Serif" font-size="10.00">_MateMixerDevice</text>
</a>
</g>
</g>
<!-- Node6&#45;&gt;Node5 -->
<g id="edge5_Node000005_Node000006" class="edge">
<title>Node6&#45;&gt;Node5</title>
<g id="a_edge5_Node000005_Node000006"><a xlink:title=" ">
<path fill="none" stroke="#9a32cd" stroke-dasharray="5,2" d="M350.31,-67.46C379.33,-53.36 424.79,-31.26 449.7,-19.15"/>
<polygon fill="#9a32cd" stroke="#9a32cd" points="348.62,-64.4 341.16,-71.92 351.68,-70.69 348.62,-64.4"/>
</a>
</g>
<text text-anchor="start" x="416" y="-42.5" font-family="Helvetica,sans-Serif" font-size="10.00" fill="grey">device</text>
</g>
<!-- Node7 -->
<g id="Node000007" class="node">
<title>Node7</title>
<g id="a_Node000007"><a xlink:title=" ">
<polygon fill="white" stroke="#666666" points="350.5,-163 208.5,-163 208.5,-144 350.5,-144 350.5,-163"/>
<text text-anchor="middle" x="279.5" y="-151" font-family="Helvetica,sans-Serif" font-size="10.00">_MateMixerDevicePrivate</text>
</a>
</g>
</g>
<!-- Node7&#45;&gt;Node6 -->
<g id="edge6_Node000006_Node000007" class="edge">
<title>Node7&#45;&gt;Node6</title>
<g id="a_edge6_Node000006_Node000007"><a xlink:title=" ">
<path fill="none" stroke="#9a32cd" stroke-dasharray="5,2" d="M290.37,-135.21C299.16,-121.22 311.18,-102.1 318.06,-91.15"/>
<polygon fill="#9a32cd" stroke="#9a32cd" points="287.25,-133.59 284.9,-143.92 293.18,-137.31 287.25,-133.59"/>
</a>
</g>
<text text-anchor="start" x="310" y="-114.5" font-family="Helvetica,sans-Serif" font-size="10.00" fill="grey">priv</text>
</g>
<!-- Node8 -->
<g id="Node000008" class="node">
<title>Node8</title>
<g id="a_Node000008"><a xlink:href="struct__MateMixerStreamControl.html" target="_top" xlink:title=" ">
<polygon fill="white" stroke="#666666" points="539.5,-91 395.5,-91 395.5,-72 539.5,-72 539.5,-91"/>
<text text-anchor="middle" x="467.5" y="-79" font-family="Helvetica,sans-Serif" font-size="10.00">_MateMixerStreamControl</text>
</a>
</g>
</g>
<!-- Node8&#45;&gt;Node5 -->
<g id="edge7_Node000005_Node000008" class="edge">
<title>Node8&#45;&gt;Node5</title>
<g id="a_edge7_Node000005_Node000008"><a xlink:title=" ">
<path fill="none" stroke="#9a32cd" stroke-dasharray="5,2" d="M467.5,-61.58C467.5,-47.76 467.5,-29.68 467.5,-19.15"/>
<polygon fill="#9a32cd" stroke="#9a32cd" points="464,-61.92 467.5,-71.92 471,-61.92 464,-61.92"/>
</a>
</g>
<text text-anchor="start" x="470.5" y="-42.5" font-family="Helvetica,sans-Serif" font-size="10.00" fill="grey">control</text>
</g>
<!-- Node9&#45;&gt;Node8 -->
<g id="edge8_Node000008_Node000009" class="edge">
<title>Node9&#45;&gt;Node8</title>
<g id="a_edge8_Node000008_Node000009"><a xlink:title=" ">
<path fill="none" stroke="#9a32cd" stroke-dasharray="5,2" d="M460.88,-133.99C462.66,-120.13 465.02,-101.79 466.39,-91.15"/>
<polygon fill="#9a32cd" stroke="#9a32cd" points="457.41,-133.55 459.6,-143.92 464.35,-134.44 457.41,-133.55"/>
</a>
</g>
<text text-anchor="start" x="467" y="-114.5" font-family="Helvetica,sans-Serif" font-size="10.00" fill="grey">priv</text>
</g>
<!-- Node10 -->
<g id="Node000010" class="node">
<title>Node10</title>
<g id="a_Node000010"><a xlink:title=" ">
<polygon fill="white" stroke="#666666" points="252,-91 133,-91 133,-72 252,-72 252,-91"/>
<text text-anchor="middle" x="192.5" y="-79" font-family="Helvetica,sans-Serif" font-size="10.00">_AlsaBackendPrivate</text>
</a>
</g>
</g>
<!-- Node10&#45;&gt;Node1 -->
<g id="edge10_Node000001_Node000010" class="edge">
<title>Node10&#45;&gt;Node1</title>
<g id="a_edge10_Node000001_Node000010"><a xlink:title=" ">
<path fill="none" stroke="#9a32cd" stroke-dasharray="5,2" d="M180.68,-63.62C170.86,-49.59 157.3,-30.21 149.56,-19.15"/>
<polygon fill="#9a32cd" stroke="#9a32cd" points="177.89,-65.73 186.49,-71.92 183.62,-61.72 177.89,-65.73"/>
</a>
</g>
<text text-anchor="start" x="177" y="-42.5" font-family="Helvetica,sans-Serif" font-size="10.00" fill="grey">priv</text>
</g>
</g>
</svg>
