<?xml version="1.0" encoding="UTF-8" standalone="no"?>
<!DOCTYPE svg PUBLIC "-//W3C//DTD SVG 1.1//EN"
 "http://www.w3.org/Graphics/SVG/1.1/DTD/svg11.dtd">
<!-- Generated by graphviz version 2.43.0 (0)
 -->
<!-- Title: _MetaPreview Pages: 1 -->
<svg width="851pt" height="730pt"
 viewBox="0.00 0.00 851.00 730.00" xmlns="http://www.w3.org/2000/svg" xmlns:xlink="http://www.w3.org/1999/xlink">
<g id="graph0" class="graph" transform="scale(1 1) rotate(0) translate(4 726)">
<title>_MetaPreview</title>
<!-- Node1 -->
<g id="Node000001" class="node">
<title>Node1</title>
<g id="a_Node000001"><a xlink:title=" ">
<polygon fill="#999999" stroke="#666666" points="309,-19 223,-19 223,0 309,0 309,-19"/>
<text text-anchor="middle" x="266" y="-7" font-family="Helvetica,sans-Serif" font-size="10.00">_MetaPreview</text>
</a>
</g>
</g>
<!-- Node2 -->
<g id="Node000002" class="node">
<title>Node2</title>
<g id="a_Node000002"><a xlink:href="struct__MetaTheme.html" target="_top" xlink:title=" ">
<polygon fill="white" stroke="#666666" points="190,-91 110,-91 110,-72 190,-72 190,-91"/>
<text text-anchor="middle" x="150" y="-79" font-family="Helvetica,sans-Serif" font-size="10.00">_MetaTheme</text>
</a>
</g>
</g>
<!-- Node2&#45;&gt;Node1 -->
<g id="edge1_Node000001_Node000002" class="edge">
<title>Node2&#45;&gt;Node1</title>
<g id="a_edge1_Node000001_Node000002"><a xlink:title=" ">
<path fill="none" stroke="#9a32cd" stroke-dasharray="5,2" d="M172.83,-66.72C196.25,-52.59 231.94,-31.05 251.66,-19.15"/>
<polygon fill="#9a32cd" stroke="#9a32cd" points="170.98,-63.75 164.22,-71.92 174.59,-69.75 170.98,-63.75"/>
</a>
</g>
<text text-anchor="start" x="225" y="-42.5" font-family="Helvetica,sans-Serif" font-size="10.00" fill="grey">theme</text>
</g>
<!-- Node3 -->
<g id="Node000003" class="node">
<title>Node3</title>
<g id="a_Node000003"><a xlink:href="struct__MetaFrameStyleSet.html" target="_top" xlink:title=" ">
<polygon fill="white" stroke="#666666" points="209,-163 91,-163 91,-144 209,-144 209,-163"/>
<text text-anchor="middle" x="150" y="-151" font-family="Helvetica,sans-Serif" font-size="10.00">_MetaFrameStyleSet</text>
</a>
</g>
</g>
<!-- Node3&#45;&gt;Node2 -->
<g id="edge2_Node000002_Node000003" class="edge">
<title>Node3&#45;&gt;Node2</title>
<g id="a_edge2_Node000002_Node000003"><a xlink:title=" ">
<path fill="none" stroke="#9a32cd" stroke-dasharray="5,2" d="M150,-133.58C150,-119.76 150,-101.68 150,-91.15"/>
<polygon fill="#9a32cd" stroke="#9a32cd" points="146.5,-133.92 150,-143.92 153.5,-133.92 146.5,-133.92"/>
</a>
</g>
<text text-anchor="start" x="153" y="-114.5" font-family="Helvetica,sans-Serif" font-size="10.00" fill="grey">style_sets_by_type</text>
</g>
<!-- Node3&#45;&gt;Node3 -->
<g id="edge3_Node000003_Node000003" class="edge">
<title>Node3&#45;&gt;Node3</title>
<g id="a_edge3_Node000003_Node000003"><a xlink:title=" ">
<path fill="none" stroke="#9a32cd" stroke-dasharray="5,2" d="M219.03,-158.46C223.98,-157.34 227,-155.68 227,-153.5 227,-150.09 219.63,-147.97 209.08,-147.15"/>
<polygon fill="#9a32cd" stroke="#9a32cd" points="218.5,-155 209.08,-159.85 219.47,-161.94 218.5,-155"/>
</a>
</g>
<text text-anchor="start" x="230" y="-150.5" font-family="Helvetica,sans-Serif" font-size="10.00" fill="grey">parent</text>
</g>
<!-- Node4 -->
<g id="Node000004" class="node">
<title>Node4</title>
<g id="a_Node000004"><a xlink:href="struct__MetaFrameStyle.html" target="_top" xlink:title=" ">
<polygon fill="white" stroke="#666666" points="201,-385 99,-385 99,-366 201,-366 201,-385"/>
<text text-anchor="middle" x="150" y="-373" font-family="Helvetica,sans-Serif" font-size="10.00">_MetaFrameStyle</text>
</a>
</g>
</g>
<!-- Node4&#45;&gt;Node3 -->
<g id="edge4_Node000003_Node000004" class="edge">
<title>Node4&#45;&gt;Node3</title>
<g id="a_edge4_Node000003_Node000004"><a xlink:title=" ">
<path fill="none" stroke="#9a32cd" stroke-dasharray="5,2" d="M150,-355.68C150,-310.24 150,-195.91 150,-163.3"/>
<polygon fill="#9a32cd" stroke="#9a32cd" points="146.5,-355.88 150,-365.88 153.5,-355.88 146.5,-355.88"/>
</a>
</g>
<text text-anchor="start" x="153.5" y="-336.5" font-family="Helvetica,sans-Serif" font-size="10.00" fill="grey">maximized_and_shaded</text>
<text text-anchor="start" x="153.5" y="-321.5" font-family="Helvetica,sans-Serif" font-size="10.00" fill="grey">  _styles</text>
<text text-anchor="start" x="153.5" y="-306.5" font-family="Helvetica,sans-Serif" font-size="10.00" fill="grey">maximized_styles</text>
<text text-anchor="start" x="153.5" y="-291.5" font-family="Helvetica,sans-Serif" font-size="10.00" fill="grey">normal_styles</text>
<text text-anchor="start" x="153.5" y="-276.5" font-family="Helvetica,sans-Serif" font-size="10.00" fill="grey">shaded_styles</text>
<text text-anchor="start" x="153.5" y="-261.5" font-family="Helvetica,sans-Serif" font-size="10.00" fill="grey">tiled_left_and_shaded</text>
<text text-anchor="start" x="153.5" y="-246.5" font-family="Helvetica,sans-Serif" font-size="10.00" fill="grey">  _styles</text>
<text text-anchor="start" x="153.5" y="-231.5" font-family="Helvetica,sans-Serif" font-size="10.00" fill="grey">tiled_left_styles</text>
<text text-anchor="start" x="153.5" y="-216.5" font-family="Helvetica,sans-Serif" font-size="10.00" fill="grey">tiled_right_and_shaded</text>
<text text-anchor="start" x="153.5" y="-201.5" font-family="Helvetica,sans-Serif" font-size="10.00" fill="grey">  _styles</text>
<text text-anchor="start" x="153.5" y="-186.5" font-family="Helvetica,sans-Serif" font-size="10.00" fill="grey">tiled_right_styles</text>
</g>
<!-- Node4&#45;&gt;Node4 -->
<g id="edge5_Node000004_Node000004" class="edge">
<title>Node4&#45;&gt;Node4</title>
<g id="a_edge5_Node000004_Node000004"><a xlink:title=" ">
<path fill="none" stroke="#9a32cd" stroke-dasharray="5,2" d="M169.08,-390.31C192.04,-401.49 219,-396.55 219,-375.5 219,-351.65 184.41,-348.49 160.22,-366"/>
<polygon fill="#9a32cd" stroke="#9a32cd" points="170.6,-387.14 160.22,-385 167,-393.14 170.6,-387.14"/>
</a>
</g>
<text text-anchor="start" x="222" y="-372.5" font-family="Helvetica,sans-Serif" font-size="10.00" fill="grey">parent</text>
</g>
<!-- Node5 -->
<g id="Node000005" class="node">
<title>Node5</title>
<g id="a_Node000005"><a xlink:href="struct__MetaDrawOpList.html" target="_top" xlink:title=" ">
<polygon fill="white" stroke="#666666" points="828.5,-628.5 725.5,-628.5 725.5,-609.5 828.5,-609.5 828.5,-628.5"/>
<text text-anchor="middle" x="777" y="-616.5" font-family="Helvetica,sans-Serif" font-size="10.00">_MetaDrawOpList</text>
</a>
</g>
</g>
<!-- Node5&#45;&gt;Node4 -->
<g id="edge6_Node000004_Node000005" class="edge">
<title>Node5&#45;&gt;Node4</title>
<g id="a_edge6_Node000004_Node000005"><a xlink:title=" ">
<path fill="none" stroke="#9a32cd" stroke-dasharray="5,2" d="M750.5,-604.78C724.38,-591.64 688.05,-573 686,-570 664.93,-539.16 694.22,-428.58 667,-403 650.22,-387.23 328.79,-379.72 201.38,-377.36"/>
<polygon fill="#9a32cd" stroke="#9a32cd" points="749.08,-607.98 759.58,-609.34 752.21,-601.73 749.08,-607.98"/>
</a>
</g>
<text text-anchor="start" x="689.5" y="-491.5" font-family="Helvetica,sans-Serif" font-size="10.00" fill="grey">buttons</text>
<text text-anchor="start" x="689.5" y="-476.5" font-family="Helvetica,sans-Serif" font-size="10.00" fill="grey">pieces</text>
</g>
<!-- Node6 -->
<g id="Node000006" class="node">
<title>Node6</title>
<g id="a_Node000006"><a xlink:href="struct__MetaDrawOp.html" target="_top" xlink:title=" ">
<polygon fill="white" stroke="#666666" points="592,-385 506,-385 506,-366 592,-366 592,-385"/>
<text text-anchor="middle" x="549" y="-373" font-family="Helvetica,sans-Serif" font-size="10.00">_MetaDrawOp</text>
</a>
</g>
</g>
<!-- Node5&#45;&gt;Node6 -->
<g id="edge14_Node000006_Node000005" class="edge">
<title>Node5&#45;&gt;Node6</title>
<g id="a_edge14_Node000006_Node000005"><a xlink:title=" ">
<path fill="none" stroke="#9a32cd" stroke-dasharray="5,2" d="M765.99,-600.65C760.9,-591.81 755.27,-580.69 752,-570 741.08,-534.28 759.02,-429.8 733,-403 714.06,-383.49 640.34,-378.18 592.16,-376.83"/>
<polygon fill="#9a32cd" stroke="#9a32cd" points="763,-602.47 771.16,-609.23 768.99,-598.86 763,-602.47"/>
</a>
</g>
<text text-anchor="start" x="755.5" y="-483.5" font-family="Helvetica,sans-Serif" font-size="10.00" fill="grey">op_list</text>
</g>
<!-- Node6&#45;&gt;Node5 -->
<g id="edge7_Node000005_Node000006" class="edge">
<title>Node6&#45;&gt;Node5</title>
<g id="a_edge7_Node000005_Node000006"><a xlink:title=" ">
<path fill="none" stroke="#9a32cd" stroke-dasharray="5,2" d="M602.39,-378.53C670.88,-381.69 782.37,-388.94 795,-403 849.56,-463.75 798.14,-576.95 781.68,-609.21"/>
<polygon fill="#9a32cd" stroke="#9a32cd" points="602.35,-375.02 592.21,-378.07 602.04,-382.02 602.35,-375.02"/>
</a>
</g>
<text text-anchor="start" x="822" y="-483.5" font-family="Helvetica,sans-Serif" font-size="10.00" fill="grey">ops</text>
</g>
<!-- Node7 -->
<g id="Node000007" class="node">
<title>Node7</title>
<g id="a_Node000007"><a xlink:href="struct__MetaColorSpec.html" target="_top" xlink:title=" ">
<polygon fill="white" stroke="#666666" points="223.5,-628.5 128.5,-628.5 128.5,-609.5 223.5,-609.5 223.5,-628.5"/>
<text text-anchor="middle" x="176" y="-616.5" font-family="Helvetica,sans-Serif" font-size="10.00">_MetaColorSpec</text>
</a>
</g>
</g>
<!-- Node7&#45;&gt;Node4 -->
<g id="edge16_Node000004_Node000007" class="edge">
<title>Node7&#45;&gt;Node4</title>
<g id="a_edge16_Node000004_Node000007"><a xlink:title=" ">
<path fill="none" stroke="#9a32cd" stroke-dasharray="5,2" d="M164.49,-600.79C159.27,-591.98 153.69,-580.85 151,-570 133.81,-500.54 144.53,-412.71 148.62,-385.16"/>
<polygon fill="#9a32cd" stroke="#9a32cd" points="161.56,-602.71 169.84,-609.31 167.49,-598.98 161.56,-602.71"/>
</a>
</g>
<text text-anchor="start" x="154" y="-483.5" font-family="Helvetica,sans-Serif" font-size="10.00" fill="grey">window_background_color</text>
</g>
<!-- Node7&#45;&gt;Node6 -->
<g id="edge8_Node000006_Node000007" class="edge">
<title>Node7&#45;&gt;Node6</title>
<g id="a_edge8_Node000006_Node000007"><a xlink:title=" ">
<path fill="none" stroke="#9a32cd" stroke-dasharray="5,2" d="M231.66,-606.41C252.19,-599.31 273.67,-587.98 287,-570 309.24,-540 279.53,-429.35 306,-403 319.87,-389.19 439.97,-381.52 505.97,-378.32"/>
<polygon fill="#9a32cd" stroke="#9a32cd" points="230.49,-603.11 222.01,-609.47 232.61,-609.78 230.49,-603.11"/>
</a>
</g>
<text text-anchor="start" x="309.5" y="-491.5" font-family="Helvetica,sans-Serif" font-size="10.00" fill="grey">color_spec</text>
<text text-anchor="start" x="309.5" y="-476.5" font-family="Helvetica,sans-Serif" font-size="10.00" fill="grey">colorize_spec</text>
</g>
<!-- Node7&#45;&gt;Node7 -->
<g id="edge9_Node000007_Node000007" class="edge">
<title>Node7&#45;&gt;Node7</title>
<g id="a_edge9_Node000007_Node000007"><a xlink:title=" ">
<path fill="none" stroke="#9a32cd" stroke-dasharray="5,2" d="M214.02,-629.45C229,-629.97 241.5,-626.49 241.5,-619 241.5,-609.87 222.92,-606.69 203.94,-609.47"/>
<polygon fill="#9a32cd" stroke="#9a32cd" points="214.21,-625.95 203.94,-628.53 213.58,-632.92 214.21,-625.95"/>
</a>
</g>
<text text-anchor="start" x="244.5" y="-639" font-family="Helvetica,sans-Serif" font-size="10.00" fill="grey">background</text>
<text text-anchor="start" x="244.5" y="-624" font-family="Helvetica,sans-Serif" font-size="10.00" fill="grey">base</text>
<text text-anchor="start" x="244.5" y="-609" font-family="Helvetica,sans-Serif" font-size="10.00" fill="grey">fallback</text>
<text text-anchor="start" x="244.5" y="-594" font-family="Helvetica,sans-Serif" font-size="10.00" fill="grey">foreground</text>
</g>
<!-- Node8 -->
<g id="Node000008" class="node">
<title>Node8</title>
<g id="a_Node000008"><a xlink:href="struct__MetaDrawSpec.html" target="_top" xlink:title=" ">
<polygon fill="white" stroke="#666666" points="418.5,-628.5 323.5,-628.5 323.5,-609.5 418.5,-609.5 418.5,-628.5"/>
<text text-anchor="middle" x="371" y="-616.5" font-family="Helvetica,sans-Serif" font-size="10.00">_MetaDrawSpec</text>
</a>
</g>
</g>
<!-- Node8&#45;&gt;Node6 -->
<g id="edge10_Node000006_Node000008" class="edge">
<title>Node8&#45;&gt;Node6</title>
<g id="a_edge10_Node000006_Node000008"><a xlink:title=" ">
<path fill="none" stroke="#9a32cd" stroke-dasharray="5,2" d="M376.16,-599.56C378.5,-590.68 381.16,-579.84 383,-570 389.88,-533.24 378.3,-430.17 404,-403 417.67,-388.54 468.23,-381.87 505.83,-378.86"/>
<polygon fill="#9a32cd" stroke="#9a32cd" points="372.78,-598.65 373.53,-609.22 379.53,-600.49 372.78,-598.65"/>
</a>
</g>
<text text-anchor="start" x="407.5" y="-558.5" font-family="Helvetica,sans-Serif" font-size="10.00" fill="grey">ellipsize_width</text>
<text text-anchor="start" x="407.5" y="-543.5" font-family="Helvetica,sans-Serif" font-size="10.00" fill="grey">height</text>
<text text-anchor="start" x="407.5" y="-528.5" font-family="Helvetica,sans-Serif" font-size="10.00" fill="grey">tile_height</text>
<text text-anchor="start" x="407.5" y="-513.5" font-family="Helvetica,sans-Serif" font-size="10.00" fill="grey">tile_width</text>
<text text-anchor="start" x="407.5" y="-498.5" font-family="Helvetica,sans-Serif" font-size="10.00" fill="grey">tile_xoffset</text>
<text text-anchor="start" x="407.5" y="-483.5" font-family="Helvetica,sans-Serif" font-size="10.00" fill="grey">tile_yoffset</text>
<text text-anchor="start" x="407.5" y="-468.5" font-family="Helvetica,sans-Serif" font-size="10.00" fill="grey">width</text>
<text text-anchor="start" x="407.5" y="-453.5" font-family="Helvetica,sans-Serif" font-size="10.00" fill="grey">x</text>
<text text-anchor="start" x="407.5" y="-438.5" font-family="Helvetica,sans-Serif" font-size="10.00" fill="grey">x1</text>
<text text-anchor="start" x="407.5" y="-423.5" font-family="Helvetica,sans-Serif" font-size="10.00" fill="grey">x2</text>
<text text-anchor="start" x="407.5" y="-408.5" font-family="Helvetica,sans-Serif" font-size="10.00" fill="grey"> &#160;...</text>
</g>
<!-- Node9 -->
<g id="Node000009" class="node">
<title>Node9</title>
<g id="a_Node000009"><a xlink:href="structPosToken.html" target="_top" xlink:title=" ">
<polygon fill="white" stroke="#666666" points="402,-722 340,-722 340,-703 402,-703 402,-722"/>
<text text-anchor="middle" x="371" y="-710" font-family="Helvetica,sans-Serif" font-size="10.00">PosToken</text>
</a>
</g>
</g>
<!-- Node9&#45;&gt;Node8 -->
<g id="edge11_Node000008_Node000009" class="edge">
<title>Node9&#45;&gt;Node8</title>
<g id="a_edge11_Node000008_Node000009"><a xlink:title=" ">
<path fill="none" stroke="#9a32cd" stroke-dasharray="5,2" d="M371,-692.54C371,-672.92 371,-643.16 371,-628.61"/>
<polygon fill="#9a32cd" stroke="#9a32cd" points="367.5,-692.73 371,-702.73 374.5,-692.73 367.5,-692.73"/>
</a>
</g>
<text text-anchor="start" x="374.5" y="-673.5" font-family="Helvetica,sans-Serif" font-size="10.00" fill="grey">tokens</text>
</g>
<!-- Node10 -->
<g id="Node000010" class="node">
<title>Node10</title>
<g id="a_Node000010"><a xlink:href="struct__MetaAlphaGradientSpec.html" target="_top" xlink:title=" ">
<polygon fill="white" stroke="#666666" points="577,-628.5 437,-628.5 437,-609.5 577,-609.5 577,-628.5"/>
<text text-anchor="middle" x="507" y="-616.5" font-family="Helvetica,sans-Serif" font-size="10.00">_MetaAlphaGradientSpec</text>
</a>
</g>
</g>
<!-- Node10&#45;&gt;Node6 -->
<g id="edge12_Node000006_Node000010" class="edge">
<title>Node10&#45;&gt;Node6</title>
<g id="a_edge12_Node000006_Node000010"><a xlink:title=" ">
<path fill="none" stroke="#9a32cd" stroke-dasharray="5,2" d="M501.59,-599.58C491.23,-560.52 472.6,-467.67 508,-403 512.31,-395.12 520.08,-389.22 527.71,-385.02"/>
<polygon fill="#9a32cd" stroke="#9a32cd" points="498.3,-600.81 504.35,-609.5 505.04,-598.93 498.3,-600.81"/>
</a>
</g>
<text text-anchor="start" x="511.5" y="-483.5" font-family="Helvetica,sans-Serif" font-size="10.00" fill="grey">alpha_spec</text>
</g>
<!-- Node11 -->
<g id="Node000011" class="node">
<title>Node11</title>
<g id="a_Node000011"><a xlink:href="struct__MetaGradientSpec.html" target="_top" xlink:title=" ">
<polygon fill="white" stroke="#666666" points="707,-628.5 595,-628.5 595,-609.5 707,-609.5 707,-628.5"/>
<text text-anchor="middle" x="651" y="-616.5" font-family="Helvetica,sans-Serif" font-size="10.00">_MetaGradientSpec</text>
</a>
</g>
</g>
<!-- Node11&#45;&gt;Node6 -->
<g id="edge13_Node000006_Node000011" class="edge">
<title>Node11&#45;&gt;Node6</title>
<g id="a_edge13_Node000006_Node000011"><a xlink:title=" ">
<path fill="none" stroke="#9a32cd" stroke-dasharray="5,2" d="M626.25,-604.08C613.92,-595.81 599.97,-584.17 592,-570 555.27,-504.7 597.6,-472.25 569,-403 566.27,-396.39 561.49,-389.97 557.29,-385.1"/>
<polygon fill="#9a32cd" stroke="#9a32cd" points="624.52,-607.12 634.84,-609.49 628.25,-601.2 624.52,-607.12"/>
</a>
</g>
<text text-anchor="start" x="595.5" y="-483.5" font-family="Helvetica,sans-Serif" font-size="10.00" fill="grey">gradient_spec</text>
</g>
<!-- Node12 -->
<g id="Node000012" class="node">
<title>Node12</title>
<g id="a_Node000012"><a xlink:href="struct__MetaFrameLayout.html" target="_top" xlink:title=" ">
<polygon fill="white" stroke="#666666" points="110,-628.5 0,-628.5 0,-609.5 110,-609.5 110,-628.5"/>
<text text-anchor="middle" x="55" y="-616.5" font-family="Helvetica,sans-Serif" font-size="10.00">_MetaFrameLayout</text>
</a>
</g>
</g>
<!-- Node12&#45;&gt;Node4 -->
<g id="edge15_Node000004_Node000012" class="edge">
<title>Node12&#45;&gt;Node4</title>
<g id="a_edge15_Node000004_Node000012"><a xlink:title=" ">
<path fill="none" stroke="#9a32cd" stroke-dasharray="5,2" d="M54.03,-599.16C52.95,-558.95 55.71,-463.47 101,-403 106.97,-395.03 116.07,-389.18 124.81,-385.04"/>
<polygon fill="#9a32cd" stroke="#9a32cd" points="50.54,-599.31 54.42,-609.17 57.53,-599.04 50.54,-599.31"/>
</a>
</g>
<text text-anchor="start" x="104.5" y="-483.5" font-family="Helvetica,sans-Serif" font-size="10.00" fill="grey">layout</text>
</g>
<!-- Node13 -->
<g id="Node000013" class="node">
<title>Node13</title>
<g id="a_Node000013"><a xlink:href="struct__MetaFrameBorders.html" target="_top" xlink:title=" ">
<polygon fill="white" stroke="#666666" points="323.5,-91 208.5,-91 208.5,-72 323.5,-72 323.5,-91"/>
<text text-anchor="middle" x="266" y="-79" font-family="Helvetica,sans-Serif" font-size="10.00">_MetaFrameBorders</text>
</a>
</g>
</g>
<!-- Node13&#45;&gt;Node1 -->
<g id="edge17_Node000001_Node000013" class="edge">
<title>Node13&#45;&gt;Node1</title>
<g id="a_edge17_Node000001_Node000013"><a xlink:title=" ">
<path fill="none" stroke="#9a32cd" stroke-dasharray="5,2" d="M266,-61.58C266,-47.76 266,-29.68 266,-19.15"/>
<polygon fill="#9a32cd" stroke="#9a32cd" points="262.5,-61.92 266,-71.92 269.5,-61.92 262.5,-61.92"/>
</a>
</g>
<text text-anchor="start" x="269.5" y="-42.5" font-family="Helvetica,sans-Serif" font-size="10.00" fill="grey">borders</text>
</g>
<!-- Node14 -->
<g id="Node000014" class="node">
<title>Node14</title>
<g id="a_Node000014"><a xlink:href="struct__MetaButtonLayout.html" target="_top" xlink:title=" ">
<polygon fill="white" stroke="#666666" points="454,-91 342,-91 342,-72 454,-72 454,-91"/>
<text text-anchor="middle" x="398" y="-79" font-family="Helvetica,sans-Serif" font-size="10.00">_MetaButtonLayout</text>
</a>
</g>
</g>
<!-- Node14&#45;&gt;Node1 -->
<g id="edge18_Node000001_Node000014" class="edge">
<title>Node14&#45;&gt;Node1</title>
<g id="a_edge18_Node000001_Node000014"><a xlink:title=" ">
<path fill="none" stroke="#9a32cd" stroke-dasharray="5,2" d="M372.72,-67.1C346.1,-52.98 304.95,-31.16 282.32,-19.15"/>
<polygon fill="#9a32cd" stroke="#9a32cd" points="371.34,-70.32 381.81,-71.92 374.62,-64.14 371.34,-70.32"/>
</a>
</g>
<text text-anchor="start" x="350" y="-42.5" font-family="Helvetica,sans-Serif" font-size="10.00" fill="grey">button_layout</text>
</g>
</g>
</svg>
