<?xml version="1.0" encoding="UTF-8" standalone="no"?>
<!DOCTYPE svg PUBLIC "-//W3C//DTD SVG 1.1//EN"
 "http://www.w3.org/Graphics/SVG/1.1/DTD/svg11.dtd">
<!-- Generated by graphviz version 2.43.0 (0)
 -->
<!-- Title: _MateMixerStreamClass Pages: 1 -->
<!--zoomable 459 -->

<svg id="main" version="1.1" xmlns="http://www.w3.org/2000/svg" xmlns:xlink="http://www.w3.org/1999/xlink" xml:space="preserve" onload="init(evt)">

<style type="text/css"><![CDATA[
.node, .edge {opacity: 0.7;}
.node.selected, .edge.selected {opacity: 1;}
.edge:hover path { stroke: red; }
.edge:hover polygon { stroke: red; fill: red; }
]]></style>

<defs>
  <circle id="rim" cx="0" cy="0" r="7"/>
  <circle id="rim2" cx="0" cy="0" r="3.5"/>
  <g id="zoomPlus">
    <use xlink:href="#rim" fill="#404040"><set attributeName="fill" to="#808080" begin="zoomplus.mouseover" end="zoomplus.mouseout"/></use>
    <path d="M-4,0h8M0,-4v8" fill="none" stroke="white" stroke-width="1.5" pointer-events="none"/>
  </g>
  <g id="zoomMin">
    <use xlink:href="#rim" fill="#404040"><set attributeName="fill" to="#808080" begin="zoomminus.mouseover" end="zoomminus.mouseout"/></use>
    <path d="M-4,0h8" fill="none" stroke="white" stroke-width="1.5" pointer-events="none"/>
  </g>
  <g id="arrowUp" transform="translate(30 24)">
    <use xlink:href="#rim"/>
    <path pointer-events="none" fill="none" stroke="white" stroke-width="1.5" d="M0,-3.0v7 M-2.5,-0.5L0,-3.0L2.5,-0.5"/>
  </g>
  <g id="arrowRight" transform="rotate(90) translate(36 -43)">
    <use xlink:href="#rim"/>
    <path pointer-events="none" fill="none" stroke="white" stroke-width="1.5" d="M0,-3.0v7 M-2.5,-0.5L0,-3.0L2.5,-0.5"/>
  </g>
  <g id="arrowDown" transform="rotate(180) translate(-30 -48)">
    <use xlink:href="#rim"/>
    <path pointer-events="none" fill="none" stroke="white" stroke-width="1.5" d="M0,-3.0v7 M-2.5,-0.5L0,-3.0L2.5,-0.5"/>
  </g>
  <g id="arrowLeft" transform="rotate(270) translate(-36 17)">
    <use xlink:href="#rim"/>
    <path pointer-events="none" fill="none" stroke="white" stroke-width="1.5" d="M0,-3.0v7 M-2.5,-0.5L0,-3.0L2.5,-0.5"/>
  </g>
  <g id="resetDef">
    <use xlink:href="#rim2" fill="#404040"><set attributeName="fill" to="#808080" begin="reset.mouseover" end="reset.mouseout"/></use>
  </g>
</defs>
<script type="application/ecmascript">
var viewWidth = 619;
var viewHeight = 459;
var sectionId = 'dynsection-0';
</script>
<script type="application/ecmascript" xlink:href="svg.min.js"/>
<svg id="graph" class="graph">
<g id="viewport">
<title>_MateMixerStreamClass</title>
<!-- Node1 -->
<g id="Node000001" class="node">
<title>Node1</title>
<g id="a_Node000001"><a xlink:title=" ">
<polygon fill="#999999" stroke="#666666" points="135,-19 0,-19 0,0 135,0 135,-19"/>
<text text-anchor="middle" x="67.5" y="-7" font-family="Helvetica,sans-Serif" font-size="10.00">_MateMixerStreamClass</text>
</a>
</g>
</g>
<!-- Node2 -->
<g id="Node000002" class="node">
<title>Node2</title>
<g id="a_Node000002"><a xlink:href="struct__MateMixerStreamControl.html" target="_top" xlink:title=" ">
<polygon fill="white" stroke="#666666" points="197.5,-379 53.5,-379 53.5,-360 197.5,-360 197.5,-379"/>
<text text-anchor="middle" x="125.5" y="-367" font-family="Helvetica,sans-Serif" font-size="10.00">_MateMixerStreamControl</text>
</a>
</g>
</g>
<!-- Node2&#45;&gt;Node1 -->
<g id="edge1_Node000001_Node000002" class="edge">
<title>Node2&#45;&gt;Node1</title>
<g id="a_edge1_Node000001_Node000002"><a xlink:title=" ">
<path fill="none" stroke="#9a32cd" stroke-dasharray="5,2" d="M96.4,-355.22C75.68,-343.55 51.5,-324.38 51.5,-298.5 51.5,-298.5 51.5,-298.5 51.5,-80.5 51.5,-58.06 59.41,-32.57 64.11,-19.41"/>
<polygon fill="#9a32cd" stroke="#9a32cd" points="94.8,-358.33 105.28,-359.9 98.07,-352.14 94.8,-358.33"/>
</a>
</g>
<text text-anchor="start" x="55" y="-186.5" font-family="Helvetica,sans-Serif" font-size="10.00" fill="grey">get_control</text>
</g>
<!-- Node5 -->
<g id="Node000005" class="node">
<title>Node5</title>
<g id="a_Node000005"><a xlink:title=" ">
<polygon fill="white" stroke="#666666" points="316,-307 173,-307 173,-288 316,-288 316,-307"/>
<text text-anchor="middle" x="244.5" y="-295" font-family="Helvetica,sans-Serif" font-size="10.00">_MateMixerStreamPrivate</text>
</a>
</g>
</g>
<!-- Node2&#45;&gt;Node5 -->
<g id="edge7_Node000005_Node000002" class="edge">
<title>Node2&#45;&gt;Node5</title>
<g id="a_edge7_Node000005_Node000002"><a xlink:title=" ">
<path fill="none" stroke="#9a32cd" stroke-dasharray="5,2" d="M148.92,-354.72C172.94,-340.59 209.56,-319.05 229.79,-307.15"/>
<polygon fill="#9a32cd" stroke="#9a32cd" points="146.94,-351.83 140.09,-359.92 150.49,-357.86 146.94,-351.83"/>
</a>
</g>
<text text-anchor="start" x="202.5" y="-330.5" font-family="Helvetica,sans-Serif" font-size="10.00" fill="grey">control</text>
</g>
<!-- Node3 -->
<g id="Node000003" class="node">
<title>Node3</title>
<g id="a_Node000003"><a xlink:title=" ">
<polygon fill="white" stroke="#666666" points="259,-163 80,-163 80,-144 259,-144 259,-163"/>
<text text-anchor="middle" x="169.5" y="-151" font-family="Helvetica,sans-Serif" font-size="10.00">_MateMixerStreamControlPrivate</text>
</a>
</g>
</g>
<!-- Node3&#45;&gt;Node2 -->
<g id="edge2_Node000002_Node000003" class="edge">
<title>Node3&#45;&gt;Node2</title>
<g id="a_edge2_Node000002_Node000003"><a xlink:title=" ">
<path fill="none" stroke="#9a32cd" stroke-dasharray="5,2" d="M165.7,-172.98C156.6,-217.25 133.82,-328.05 127.28,-359.85"/>
<polygon fill="#9a32cd" stroke="#9a32cd" points="169.16,-173.53 167.75,-163.03 162.3,-172.12 169.16,-173.53"/>
</a>
</g>
<text text-anchor="start" x="153" y="-258.5" font-family="Helvetica,sans-Serif" font-size="10.00" fill="grey">priv</text>
</g>
<!-- Node4 -->
<g id="Node000004" class="node">
<title>Node4</title>
<g id="a_Node000004"><a xlink:href="struct__MateMixerStream.html" target="_top" xlink:title=" ">
<polygon fill="white" stroke="#666666" points="299,-235 190,-235 190,-216 299,-216 299,-235"/>
<text text-anchor="middle" x="244.5" y="-223" font-family="Helvetica,sans-Serif" font-size="10.00">_MateMixerStream</text>
</a>
</g>
</g>
<!-- Node4&#45;&gt;Node3 -->
<g id="edge3_Node000003_Node000004" class="edge">
<title>Node4&#45;&gt;Node3</title>
<g id="a_edge3_Node000003_Node000004"><a xlink:title=" ">
<path fill="none" stroke="#9a32cd" stroke-dasharray="5,2" d="M227.68,-208.8C212.58,-194.71 190.96,-174.53 178.77,-163.15"/>
<polygon fill="#9a32cd" stroke="#9a32cd" points="225.6,-211.65 235.3,-215.92 230.38,-206.53 225.6,-211.65"/>
</a>
</g>
<text text-anchor="start" x="220" y="-186.5" font-family="Helvetica,sans-Serif" font-size="10.00" fill="grey">stream</text>
</g>
<!-- Node13 -->
<g id="Node000013" class="node">
<title>Node13</title>
<g id="a_Node000013"><a xlink:title=" ">
<polygon fill="white" stroke="#666666" points="453.5,-163 277.5,-163 277.5,-144 453.5,-144 453.5,-163"/>
<text text-anchor="middle" x="365.5" y="-151" font-family="Helvetica,sans-Serif" font-size="10.00">_MateMixerStreamSwitchPrivate</text>
</a>
</g>
</g>
<!-- Node4&#45;&gt;Node13 -->
<g id="edge14_Node000013_Node000004" class="edge">
<title>Node4&#45;&gt;Node13</title>
<g id="a_edge14_Node000013_Node000004"><a xlink:title=" ">
<path fill="none" stroke="#9a32cd" stroke-dasharray="5,2" d="M267.99,-210.91C292.41,-196.78 329.88,-175.1 350.54,-163.15"/>
<polygon fill="#9a32cd" stroke="#9a32cd" points="266.24,-207.88 259.34,-215.92 269.75,-213.94 266.24,-207.88"/>
</a>
</g>
<text text-anchor="start" x="322" y="-186.5" font-family="Helvetica,sans-Serif" font-size="10.00" fill="grey">stream</text>
</g>
<!-- Node5&#45;&gt;Node4 -->
<g id="edge4_Node000004_Node000005" class="edge">
<title>Node5&#45;&gt;Node4</title>
<g id="a_edge4_Node000004_Node000005"><a xlink:title=" ">
<path fill="none" stroke="#9a32cd" stroke-dasharray="5,2" d="M244.5,-277.58C244.5,-263.76 244.5,-245.68 244.5,-235.15"/>
<polygon fill="#9a32cd" stroke="#9a32cd" points="241,-277.92 244.5,-287.92 248,-277.92 241,-277.92"/>
</a>
</g>
<text text-anchor="start" x="248" y="-258.5" font-family="Helvetica,sans-Serif" font-size="10.00" fill="grey">priv</text>
</g>
<!-- Node6 -->
<g id="Node000006" class="node">
<title>Node6</title>
<g id="a_Node000006"><a xlink:href="struct__MateMixerDevice.html" target="_top" xlink:title=" ">
<polygon fill="white" stroke="#666666" points="323,-379 216,-379 216,-360 323,-360 323,-379"/>
<text text-anchor="middle" x="269.5" y="-367" font-family="Helvetica,sans-Serif" font-size="10.00">_MateMixerDevice</text>
</a>
</g>
</g>
<!-- Node6&#45;&gt;Node5 -->
<g id="edge5_Node000005_Node000006" class="edge">
<title>Node6&#45;&gt;Node5</title>
<g id="a_edge5_Node000005_Node000006"><a xlink:title=" ">
<path fill="none" stroke="#9a32cd" stroke-dasharray="5,2" d="M263.04,-350.4C258.07,-336.49 251.43,-317.89 247.59,-307.15"/>
<polygon fill="#9a32cd" stroke="#9a32cd" points="259.77,-351.68 266.43,-359.92 266.37,-349.32 259.77,-351.68"/>
</a>
</g>
<text text-anchor="start" x="263" y="-330.5" font-family="Helvetica,sans-Serif" font-size="10.00" fill="grey">device</text>
</g>
<!-- Node7 -->
<g id="Node000007" class="node">
<title>Node7</title>
<g id="a_Node000007"><a xlink:title=" ">
<polygon fill="white" stroke="#666666" points="340.5,-451 198.5,-451 198.5,-432 340.5,-432 340.5,-451"/>
<text text-anchor="middle" x="269.5" y="-439" font-family="Helvetica,sans-Serif" font-size="10.00">_MateMixerDevicePrivate</text>
</a>
</g>
</g>
<!-- Node7&#45;&gt;Node6 -->
<g id="edge6_Node000006_Node000007" class="edge">
<title>Node7&#45;&gt;Node6</title>
<g id="a_edge6_Node000006_Node000007"><a xlink:title=" ">
<path fill="none" stroke="#9a32cd" stroke-dasharray="5,2" d="M269.5,-421.58C269.5,-407.76 269.5,-389.68 269.5,-379.15"/>
<polygon fill="#9a32cd" stroke="#9a32cd" points="266,-421.92 269.5,-431.92 273,-421.92 266,-421.92"/>
</a>
</g>
<text text-anchor="start" x="273" y="-402.5" font-family="Helvetica,sans-Serif" font-size="10.00" fill="grey">priv</text>
</g>
<!-- Node8 -->
<g id="Node000008" class="node">
<title>Node8</title>
<g id="a_Node000008"><a xlink:href="struct__MateMixerStreamSwitch.html" target="_top" xlink:title=" ">
<polygon fill="white" stroke="#666666" points="436,-91 295,-91 295,-72 436,-72 436,-91"/>
<text text-anchor="middle" x="365.5" y="-79" font-family="Helvetica,sans-Serif" font-size="10.00">_MateMixerStreamSwitch</text>
</a>
</g>
</g>
<!-- Node8&#45;&gt;Node1 -->
<g id="edge8_Node000001_Node000008" class="edge">
<title>Node8&#45;&gt;Node1</title>
<g id="a_edge8_Node000001_Node000008"><a xlink:title=" ">
<path fill="none" stroke="#9a32cd" stroke-dasharray="5,2" d="M319.4,-69.67C260.07,-55.74 158.19,-31.8 103.96,-19.06"/>
<polygon fill="#9a32cd" stroke="#9a32cd" points="318.72,-73.11 329.26,-71.99 320.32,-66.29 318.72,-73.11"/>
</a>
</g>
<text text-anchor="start" x="255" y="-42.5" font-family="Helvetica,sans-Serif" font-size="10.00" fill="grey">get_switch</text>
</g>
<!-- Node9 -->
<g id="Node000009" class="node">
<title>Node9</title>
<g id="a_Node000009"><a xlink:href="struct__MateMixerSwitch.html" target="_top" xlink:title=" ">
<polygon fill="white" stroke="#666666" points="577.5,-163 471.5,-163 471.5,-144 577.5,-144 577.5,-163"/>
<text text-anchor="middle" x="524.5" y="-151" font-family="Helvetica,sans-Serif" font-size="10.00">_MateMixerSwitch</text>
</a>
</g>
</g>
<!-- Node9&#45;&gt;Node8 -->
<g id="edge9_Node000008_Node000009" class="edge">
<title>Node9&#45;&gt;Node8</title>
<g id="a_edge9_Node000008_Node000009"><a xlink:title=" ">
<path fill="none" stroke="#9a32cd" stroke-dasharray="5,2" d="M495.72,-139.83C463.72,-125.74 412.9,-103.37 385.16,-91.15"/>
<polygon fill="#9a32cd" stroke="#9a32cd" points="494.44,-143.09 505,-143.92 497.26,-136.68 494.44,-143.09"/>
</a>
</g>
<text text-anchor="start" x="467" y="-114.5" font-family="Helvetica,sans-Serif" font-size="10.00" fill="grey">object</text>
</g>
<!-- Node10 -->
<g id="Node000010" class="node">
<title>Node10</title>
<g id="a_Node000010"><a xlink:title=" ">
<polygon fill="white" stroke="#666666" points="594.5,-235 454.5,-235 454.5,-216 594.5,-216 594.5,-235"/>
<text text-anchor="middle" x="524.5" y="-223" font-family="Helvetica,sans-Serif" font-size="10.00">_MateMixerSwitchPrivate</text>
</a>
</g>
</g>
<!-- Node10&#45;&gt;Node9 -->
<g id="edge10_Node000009_Node000010" class="edge">
<title>Node10&#45;&gt;Node9</title>
<g id="a_edge10_Node000009_Node000010"><a xlink:title=" ">
<path fill="none" stroke="#9a32cd" stroke-dasharray="5,2" d="M524.5,-205.58C524.5,-191.76 524.5,-173.68 524.5,-163.15"/>
<polygon fill="#9a32cd" stroke="#9a32cd" points="521,-205.92 524.5,-215.92 528,-205.92 521,-205.92"/>
</a>
</g>
<text text-anchor="start" x="528" y="-186.5" font-family="Helvetica,sans-Serif" font-size="10.00" fill="grey">priv</text>
</g>
<!-- Node11 -->
<g id="Node000011" class="node">
<title>Node11</title>
<g id="a_Node000011"><a xlink:href="struct__MateMixerSwitchOption.html" target="_top" xlink:title=" ">
<polygon fill="white" stroke="#666666" points="593.5,-307 455.5,-307 455.5,-288 593.5,-288 593.5,-307"/>
<text text-anchor="middle" x="524.5" y="-295" font-family="Helvetica,sans-Serif" font-size="10.00">_MateMixerSwitchOption</text>
</a>
</g>
</g>
<!-- Node11&#45;&gt;Node10 -->
<g id="edge11_Node000010_Node000011" class="edge">
<title>Node11&#45;&gt;Node10</title>
<g id="a_edge11_Node000010_Node000011"><a xlink:title=" ">
<path fill="none" stroke="#9a32cd" stroke-dasharray="5,2" d="M524.5,-277.58C524.5,-263.76 524.5,-245.68 524.5,-235.15"/>
<polygon fill="#9a32cd" stroke="#9a32cd" points="521,-277.92 524.5,-287.92 528,-277.92 521,-277.92"/>
</a>
</g>
<text text-anchor="start" x="528" y="-258.5" font-family="Helvetica,sans-Serif" font-size="10.00" fill="grey">active</text>
</g>
<!-- Node12 -->
<g id="Node000012" class="node">
<title>Node12</title>
<g id="a_Node000012"><a xlink:title=" ">
<polygon fill="white" stroke="#666666" points="611,-379 438,-379 438,-360 611,-360 611,-379"/>
<text text-anchor="middle" x="524.5" y="-367" font-family="Helvetica,sans-Serif" font-size="10.00">_MateMixerSwitchOptionPrivate</text>
</a>
</g>
</g>
<!-- Node12&#45;&gt;Node11 -->
<g id="edge12_Node000011_Node000012" class="edge">
<title>Node12&#45;&gt;Node11</title>
<g id="a_edge12_Node000011_Node000012"><a xlink:title=" ">
<path fill="none" stroke="#9a32cd" stroke-dasharray="5,2" d="M524.5,-349.58C524.5,-335.76 524.5,-317.68 524.5,-307.15"/>
<polygon fill="#9a32cd" stroke="#9a32cd" points="521,-349.92 524.5,-359.92 528,-349.92 521,-349.92"/>
</a>
</g>
<text text-anchor="start" x="528" y="-330.5" font-family="Helvetica,sans-Serif" font-size="10.00" fill="grey">priv</text>
</g>
<!-- Node13&#45;&gt;Node8 -->
<g id="edge13_Node000008_Node000013" class="edge">
<title>Node13&#45;&gt;Node8</title>
<g id="a_edge13_Node000008_Node000013"><a xlink:title=" ">
<path fill="none" stroke="#9a32cd" stroke-dasharray="5,2" d="M365.5,-133.58C365.5,-119.76 365.5,-101.68 365.5,-91.15"/>
<polygon fill="#9a32cd" stroke="#9a32cd" points="362,-133.92 365.5,-143.92 369,-133.92 362,-133.92"/>
</a>
</g>
<text text-anchor="start" x="369" y="-114.5" font-family="Helvetica,sans-Serif" font-size="10.00" fill="grey">priv</text>
</g>
</g>
</svg>

<g id="navigator" transform="translate(0 0)" fill="#404254">
  <rect fill="#f2f5e9" fill-opacity="0.5" stroke="#606060" stroke-width=".5" x="0" y="0" width="60" height="60"/>
  <use id="zoomplus" xlink:href="#zoomPlus" x="17" y="9" onmousedown="handleZoom(evt,'in')"/>
  <use id="zoomminus" xlink:href="#zoomMin" x="42" y="9" onmousedown="handleZoom(evt,'out')"/>
  <use id="reset" xlink:href="#resetDef" x="30" y="36" onmousedown="handleReset()"/>
   <use id="arrowup" xlink:href="#arrowUp" x="0" y="0" onmousedown="handlePan(0,-1)"/>
  <use id="arrowright" xlink:href="#arrowRight" x="0" y="0" onmousedown="handlePan(1,0)"/>
  <use id="arrowdown" xlink:href="#arrowDown" x="0" y="0" onmousedown="handlePan(0,1)"/>
  <use id="arrowleft" xlink:href="#arrowLeft" x="0" y="0" onmousedown="handlePan(-1,0)"/>
</g>
<svg viewBox="0 0 15 15" width="100%" height="30px" preserveAspectRatio="xMaxYMin meet">
 <g id="arrow_out" transform="scale(0.3 0.3)">
  <a xlink:href="struct__MateMixerStreamClass__coll__graph_org.svg" target="_base">
   <rect id="button" ry="5" rx="5" y="6" x="6" height="38" width="38"
        fill="#f2f5e9" fill-opacity="0.5" stroke="#606060" stroke-width="1.0"/>
   <path id="arrow"
     d="M 11.500037,31.436501 C 11.940474,20.09759 22.043105,11.32322 32.158766,21.979434 L 37.068811,17.246167 C 37.068811,17.246167 37.088388,32 37.088388,32 L 22.160133,31.978069 C 22.160133,31.978069 26.997745,27.140456 26.997745,27.140456 C 18.528582,18.264221 13.291696,25.230495 11.500037,31.436501 z"
     style="fill:#404040;"/>
  </a>
 </g>
</svg>

<style type='text/css'>
<![CDATA[
[data-mouse-over-selected='false'] { opacity: 0.7; }
[data-mouse-over-selected='true']  { opacity: 1.0; }
]]>
</style>
<script type="application/ecmascript"><![CDATA[
document.addEventListener('DOMContentLoaded', (event) => {
  highlightEdges();
  highlightAdjacentNodes();
});
]]></script>
</svg>
