<?xml version="1.0" encoding="UTF-8" standalone="no"?>
<!DOCTYPE svg PUBLIC "-//W3C//DTD SVG 1.1//EN"
 "http://www.w3.org/Graphics/SVG/1.1/DTD/svg11.dtd">
<!-- Generated by graphviz version 2.43.0 (0)
 -->
<!-- Title: MateXSettingsPlugin Pages: 1 -->
<svg width="344pt" height="542pt"
 viewBox="0.00 0.00 343.50 542.00" xmlns="http://www.w3.org/2000/svg" xmlns:xlink="http://www.w3.org/1999/xlink">
<g id="graph0" class="graph" transform="scale(1 1) rotate(0) translate(4 538)">
<title>MateXSettingsPlugin</title>
<!-- Node1 -->
<g id="Node000001" class="node">
<title>Node1</title>
<g id="a_Node000001"><a xlink:title=" ">
<polygon fill="#999999" stroke="#666666" points="144.5,-19 26.5,-19 26.5,0 144.5,0 144.5,-19"/>
<text text-anchor="middle" x="85.5" y="-7" font-family="Helvetica,sans-Serif" font-size="10.00">MateXSettingsPlugin</text>
</a>
</g>
</g>
<!-- Node2 -->
<g id="Node000002" class="node">
<title>Node2</title>
<g id="a_Node000002"><a xlink:href="structMateSettingsPlugin.html" target="_top" xlink:title=" ">
<polygon fill="white" stroke="#666666" points="111,-91 0,-91 0,-72 111,-72 111,-91"/>
<text text-anchor="middle" x="55.5" y="-79" font-family="Helvetica,sans-Serif" font-size="10.00">MateSettingsPlugin</text>
</a>
</g>
</g>
<!-- Node2&#45;&gt;Node1 -->
<g id="edge1_Node000001_Node000002" class="edge">
<title>Node2&#45;&gt;Node1</title>
<g id="a_edge1_Node000001_Node000002"><a xlink:title=" ">
<path fill="none" stroke="#9a32cd" stroke-dasharray="5,2" d="M63.26,-62.4C69.22,-48.49 77.19,-29.89 81.79,-19.15"/>
<polygon fill="#9a32cd" stroke="#9a32cd" points="59.9,-61.35 59.18,-71.92 66.33,-64.1 59.9,-61.35"/>
</a>
</g>
<text text-anchor="start" x="77.5" y="-42.5" font-family="Helvetica,sans-Serif" font-size="10.00" fill="grey">parent</text>
</g>
<!-- Node3 -->
<g id="Node000003" class="node">
<title>Node3</title>
<g id="a_Node000003"><a xlink:title=" ">
<polygon fill="white" stroke="#666666" points="281.5,-91 129.5,-91 129.5,-72 281.5,-72 281.5,-91"/>
<text text-anchor="middle" x="205.5" y="-79" font-family="Helvetica,sans-Serif" font-size="10.00">MateXSettingsPluginPrivate</text>
</a>
</g>
</g>
<!-- Node3&#45;&gt;Node1 -->
<g id="edge2_Node000001_Node000003" class="edge">
<title>Node3&#45;&gt;Node1</title>
<g id="a_edge2_Node000001_Node000003"><a xlink:title=" ">
<path fill="none" stroke="#9a32cd" stroke-dasharray="5,2" d="M181.88,-66.72C157.66,-52.59 120.73,-31.05 100.33,-19.15"/>
<polygon fill="#9a32cd" stroke="#9a32cd" points="180.38,-69.9 190.79,-71.92 183.91,-63.85 180.38,-69.9"/>
</a>
</g>
<text text-anchor="start" x="164" y="-42.5" font-family="Helvetica,sans-Serif" font-size="10.00" fill="grey">priv</text>
</g>
<!-- Node4 -->
<g id="Node000004" class="node">
<title>Node4</title>
<g id="a_Node000004"><a xlink:href="structMateXSettingsManager.html" target="_top" xlink:title=" ">
<polygon fill="white" stroke="#666666" points="271,-163 140,-163 140,-144 271,-144 271,-163"/>
<text text-anchor="middle" x="205.5" y="-151" font-family="Helvetica,sans-Serif" font-size="10.00">MateXSettingsManager</text>
</a>
</g>
</g>
<!-- Node4&#45;&gt;Node3 -->
<g id="edge3_Node000003_Node000004" class="edge">
<title>Node4&#45;&gt;Node3</title>
<g id="a_edge3_Node000003_Node000004"><a xlink:title=" ">
<path fill="none" stroke="#9a32cd" stroke-dasharray="5,2" d="M205.5,-133.58C205.5,-119.76 205.5,-101.68 205.5,-91.15"/>
<polygon fill="#9a32cd" stroke="#9a32cd" points="202,-133.92 205.5,-143.92 209,-133.92 202,-133.92"/>
</a>
</g>
<text text-anchor="start" x="208.5" y="-114.5" font-family="Helvetica,sans-Serif" font-size="10.00" fill="grey">manager</text>
</g>
<!-- Node5 -->
<g id="Node000005" class="node">
<title>Node5</title>
<g id="a_Node000005"><a xlink:title=" ">
<polygon fill="white" stroke="#666666" points="288,-235 123,-235 123,-216 288,-216 288,-235"/>
<text text-anchor="middle" x="205.5" y="-223" font-family="Helvetica,sans-Serif" font-size="10.00">MateXSettingsManagerPrivate</text>
</a>
</g>
</g>
<!-- Node5&#45;&gt;Node4 -->
<g id="edge4_Node000004_Node000005" class="edge">
<title>Node5&#45;&gt;Node4</title>
<g id="a_edge4_Node000004_Node000005"><a xlink:title=" ">
<path fill="none" stroke="#9a32cd" stroke-dasharray="5,2" d="M205.5,-205.58C205.5,-191.76 205.5,-173.68 205.5,-163.15"/>
<polygon fill="#9a32cd" stroke="#9a32cd" points="202,-205.92 205.5,-215.92 209,-205.92 202,-205.92"/>
</a>
</g>
<text text-anchor="start" x="209" y="-186.5" font-family="Helvetica,sans-Serif" font-size="10.00" fill="grey">priv</text>
</g>
<!-- Node6 -->
<g id="Node000006" class="node">
<title>Node6</title>
<g id="a_Node000006"><a xlink:title=" ">
<polygon fill="white" stroke="#666666" points="195,-312.5 84,-312.5 84,-293.5 195,-293.5 195,-312.5"/>
<text text-anchor="middle" x="139.5" y="-300.5" font-family="Helvetica,sans-Serif" font-size="10.00">_XSettingsManager</text>
</a>
</g>
</g>
<!-- Node6&#45;&gt;Node5 -->
<g id="edge5_Node000005_Node000006" class="edge">
<title>Node6&#45;&gt;Node5</title>
<g id="a_edge5_Node000005_Node000006"><a xlink:title=" ">
<path fill="none" stroke="#9a32cd" stroke-dasharray="5,2" d="M147.81,-284.07C152.91,-274.23 160.07,-262.19 168.5,-253 174.91,-246.01 183.44,-239.75 190.69,-235.07"/>
<polygon fill="#9a32cd" stroke="#9a32cd" points="144.53,-282.8 143.28,-293.32 150.82,-285.88 144.53,-282.8"/>
</a>
</g>
<text text-anchor="start" x="172" y="-258.5" font-family="Helvetica,sans-Serif" font-size="10.00" fill="grey">managers</text>
</g>
<!-- Node7 -->
<g id="Node000007" class="node">
<title>Node7</title>
<g id="a_Node000007"><a xlink:href="struct__XSettingsList.html" target="_top" xlink:title=" ">
<polygon fill="white" stroke="#666666" points="182.5,-390 96.5,-390 96.5,-371 182.5,-371 182.5,-390"/>
<text text-anchor="middle" x="139.5" y="-378" font-family="Helvetica,sans-Serif" font-size="10.00">_XSettingsList</text>
</a>
</g>
</g>
<!-- Node7&#45;&gt;Node6 -->
<g id="edge6_Node000006_Node000007" class="edge">
<title>Node7&#45;&gt;Node6</title>
<g id="a_edge6_Node000006_Node000007"><a xlink:title=" ">
<path fill="none" stroke="#9a32cd" stroke-dasharray="5,2" d="M139.5,-360.4C139.5,-345.01 139.5,-324.11 139.5,-312.56"/>
<polygon fill="#9a32cd" stroke="#9a32cd" points="136,-360.84 139.5,-370.84 143,-360.84 136,-360.84"/>
</a>
</g>
<text text-anchor="start" x="142.5" y="-341.5" font-family="Helvetica,sans-Serif" font-size="10.00" fill="grey">settings</text>
</g>
<!-- Node7&#45;&gt;Node7 -->
<g id="edge9_Node000007_Node000007" class="edge">
<title>Node7&#45;&gt;Node7</title>
<g id="a_edge9_Node000007_Node000007"><a xlink:title=" ">
<path fill="none" stroke="#9a32cd" stroke-dasharray="5,2" d="M192.75,-385.83C197.51,-384.72 200.5,-382.94 200.5,-380.5 200.5,-376.6 192.85,-374.39 182.54,-373.87"/>
<polygon fill="#9a32cd" stroke="#9a32cd" points="192.02,-382.4 182.54,-387.13 192.9,-389.34 192.02,-382.4"/>
</a>
</g>
<text text-anchor="start" x="203.5" y="-377.5" font-family="Helvetica,sans-Serif" font-size="10.00" fill="grey">next</text>
</g>
<!-- Node8 -->
<g id="Node000008" class="node">
<title>Node8</title>
<g id="a_Node000008"><a xlink:href="struct__XSettingsSetting.html" target="_top" xlink:title=" ">
<polygon fill="white" stroke="#666666" points="191,-462 88,-462 88,-443 191,-443 191,-462"/>
<text text-anchor="middle" x="139.5" y="-450" font-family="Helvetica,sans-Serif" font-size="10.00">_XSettingsSetting</text>
</a>
</g>
</g>
<!-- Node8&#45;&gt;Node7 -->
<g id="edge7_Node000007_Node000008" class="edge">
<title>Node8&#45;&gt;Node7</title>
<g id="a_edge7_Node000007_Node000008"><a xlink:title=" ">
<path fill="none" stroke="#9a32cd" stroke-dasharray="5,2" d="M139.5,-432.58C139.5,-418.76 139.5,-400.68 139.5,-390.15"/>
<polygon fill="#9a32cd" stroke="#9a32cd" points="136,-432.92 139.5,-442.92 143,-432.92 136,-432.92"/>
</a>
</g>
<text text-anchor="start" x="142.5" y="-413.5" font-family="Helvetica,sans-Serif" font-size="10.00" fill="grey">setting</text>
</g>
<!-- Node9 -->
<g id="Node000009" class="node">
<title>Node9</title>
<g id="a_Node000009"><a xlink:href="struct__XSettingsColor.html" target="_top" xlink:title=" ">
<polygon fill="white" stroke="#666666" points="186.5,-534 92.5,-534 92.5,-515 186.5,-515 186.5,-534"/>
<text text-anchor="middle" x="139.5" y="-522" font-family="Helvetica,sans-Serif" font-size="10.00">_XSettingsColor</text>
</a>
</g>
</g>
<!-- Node9&#45;&gt;Node8 -->
<g id="edge8_Node000008_Node000009" class="edge">
<title>Node9&#45;&gt;Node8</title>
<g id="a_edge8_Node000008_Node000009"><a xlink:title=" ">
<path fill="none" stroke="#9a32cd" stroke-dasharray="5,2" d="M139.5,-504.58C139.5,-490.76 139.5,-472.68 139.5,-462.15"/>
<polygon fill="#9a32cd" stroke="#9a32cd" points="136,-504.92 139.5,-514.92 143,-504.92 136,-504.92"/>
</a>
</g>
<text text-anchor="start" x="142.5" y="-485.5" font-family="Helvetica,sans-Serif" font-size="10.00" fill="grey">v_color</text>
</g>
<!-- Node10 -->
<g id="Node000010" class="node">
<title>Node10</title>
<g id="a_Node000010"><a xlink:title=" ">
<polygon fill="white" stroke="#666666" points="327.5,-318 213.5,-318 213.5,-288 327.5,-288 327.5,-318"/>
<text text-anchor="start" x="221.5" y="-306" font-family="Helvetica,sans-Serif" font-size="10.00">_fontconfig_monitor</text>
<text text-anchor="middle" x="270.5" y="-295" font-family="Helvetica,sans-Serif" font-size="10.00">_handle</text>
</a>
</g>
</g>
<!-- Node10&#45;&gt;Node5 -->
<g id="edge10_Node000005_Node000010" class="edge">
<title>Node10&#45;&gt;Node5</title>
<g id="a_edge10_Node000005_Node000010"><a xlink:title=" ">
<path fill="none" stroke="#9a32cd" stroke-dasharray="5,2" d="M251.51,-279.94C238.56,-264.9 222.14,-245.82 212.82,-235.01"/>
<polygon fill="#9a32cd" stroke="#9a32cd" points="249.1,-282.5 258.27,-287.8 254.4,-277.94 249.1,-282.5"/>
</a>
</g>
<text text-anchor="start" x="244.5" y="-258.5" font-family="Helvetica,sans-Serif" font-size="10.00" fill="grey">fontconfig_handle</text>
</g>
</g>
</svg>
