<?xml version="1.0" encoding="UTF-8" standalone="no"?>
<!DOCTYPE svg PUBLIC "-//W3C//DTD SVG 1.1//EN"
 "http://www.w3.org/Graphics/SVG/1.1/DTD/svg11.dtd">
<!-- Generated by graphviz version 2.43.0 (0)
 -->
<!-- Title: _FrCommandCFile Pages: 1 -->
<svg width="334pt" height="330pt"
 viewBox="0.00 0.00 334.00 330.00" xmlns="http://www.w3.org/2000/svg" xmlns:xlink="http://www.w3.org/1999/xlink">
<g id="graph0" class="graph" transform="scale(1 1) rotate(0) translate(4 326)">
<title>_FrCommandCFile</title>
<!-- Node1 -->
<g id="Node000001" class="node">
<title>Node1</title>
<g id="a_Node000001"><a xlink:title=" ">
<polygon fill="#999999" stroke="#666666" points="105,-19 0,-19 0,0 105,0 105,-19"/>
<text text-anchor="middle" x="52.5" y="-7" font-family="Helvetica,sans-Serif" font-size="10.00">_FrCommandCFile</text>
</a>
</g>
</g>
<!-- Node2 -->
<g id="Node000002" class="node">
<title>Node2</title>
<g id="a_Node000002"><a xlink:href="struct__FrCommand.html" target="_top" xlink:title=" ">
<polygon fill="white" stroke="#666666" points="153,-91 72,-91 72,-72 153,-72 153,-91"/>
<text text-anchor="middle" x="112.5" y="-79" font-family="Helvetica,sans-Serif" font-size="10.00">_FrCommand</text>
</a>
</g>
</g>
<!-- Node2&#45;&gt;Node1 -->
<g id="edge1_Node000001_Node000002" class="edge">
<title>Node2&#45;&gt;Node1</title>
<g id="a_edge1_Node000001_Node000002"><a xlink:title=" ">
<path fill="none" stroke="#9a32cd" stroke-dasharray="5,2" d="M98.37,-64.01C86.32,-49.96 69.48,-30.32 59.92,-19.15"/>
<polygon fill="#9a32cd" stroke="#9a32cd" points="95.98,-66.6 105.14,-71.92 101.29,-62.05 95.98,-66.6"/>
</a>
</g>
<text text-anchor="start" x="94" y="-42.5" font-family="Helvetica,sans-Serif" font-size="10.00" fill="grey">__parent</text>
</g>
<!-- Node3 -->
<g id="Node000003" class="node">
<title>Node3</title>
<g id="a_Node000003"><a xlink:href="struct__FrProcess.html" target="_top" xlink:title=" ">
<polygon fill="white" stroke="#666666" points="169.5,-163 101.5,-163 101.5,-144 169.5,-144 169.5,-163"/>
<text text-anchor="middle" x="135.5" y="-151" font-family="Helvetica,sans-Serif" font-size="10.00">_FrProcess</text>
</a>
</g>
</g>
<!-- Node3&#45;&gt;Node2 -->
<g id="edge2_Node000002_Node000003" class="edge">
<title>Node3&#45;&gt;Node2</title>
<g id="a_edge2_Node000002_Node000003"><a xlink:title=" ">
<path fill="none" stroke="#9a32cd" stroke-dasharray="5,2" d="M129.55,-134.4C124.98,-120.49 118.87,-101.89 115.34,-91.15"/>
<polygon fill="#9a32cd" stroke="#9a32cd" points="126.23,-135.51 132.68,-143.92 132.88,-133.32 126.23,-135.51"/>
</a>
</g>
<text text-anchor="start" x="130.5" y="-114.5" font-family="Helvetica,sans-Serif" font-size="10.00" fill="grey">process</text>
</g>
<!-- Node4 -->
<g id="Node000004" class="node">
<title>Node4</title>
<g id="a_Node000004"><a xlink:href="structFrChannelData.html" target="_top" xlink:title=" ">
<polygon fill="white" stroke="#666666" points="326,-250 237,-250 237,-231 326,-231 326,-250"/>
<text text-anchor="middle" x="281.5" y="-238" font-family="Helvetica,sans-Serif" font-size="10.00">FrChannelData</text>
</a>
</g>
</g>
<!-- Node4&#45;&gt;Node3 -->
<g id="edge3_Node000003_Node000004" class="edge">
<title>Node4&#45;&gt;Node3</title>
<g id="a_edge3_Node000003_Node000004"><a xlink:title=" ">
<path fill="none" stroke="#9a32cd" stroke-dasharray="5,2" d="M259.32,-225.46C240.01,-213.37 211.16,-195.6 185.5,-181 174.57,-174.78 162.07,-168.16 152.3,-163.09"/>
<polygon fill="#9a32cd" stroke="#9a32cd" points="257.65,-228.55 267.98,-230.91 261.38,-222.62 257.65,-228.55"/>
</a>
</g>
<text text-anchor="start" x="240.5" y="-202" font-family="Helvetica,sans-Serif" font-size="10.00" fill="grey">err</text>
<text text-anchor="start" x="240.5" y="-187" font-family="Helvetica,sans-Serif" font-size="10.00" fill="grey">out</text>
</g>
<!-- Node5 -->
<g id="Node000005" class="node">
<title>Node5</title>
<g id="a_Node000005"><a xlink:href="structFrProcError.html" target="_top" xlink:title=" ">
<polygon fill="white" stroke="#666666" points="102.5,-322 32.5,-322 32.5,-303 102.5,-303 102.5,-322"/>
<text text-anchor="middle" x="67.5" y="-310" font-family="Helvetica,sans-Serif" font-size="10.00">FrProcError</text>
</a>
</g>
</g>
<!-- Node5&#45;&gt;Node1 -->
<g id="edge7_Node000001_Node000005" class="edge">
<title>Node5&#45;&gt;Node1</title>
<g id="a_edge7_Node000001_Node000005"><a xlink:title=" ">
<path fill="none" stroke="#9a32cd" stroke-dasharray="5,2" d="M49.25,-295.53C36.41,-282.45 21.5,-262.69 21.5,-241.5 21.5,-241.5 21.5,-241.5 21.5,-80.5 21.5,-56.58 36.83,-31.69 45.93,-19.02"/>
<polygon fill="#9a32cd" stroke="#9a32cd" points="47.18,-298.39 56.83,-302.76 52.02,-293.33 47.18,-298.39"/>
</a>
</g>
<text text-anchor="start" x="24.5" y="-150.5" font-family="Helvetica,sans-Serif" font-size="10.00" fill="grey">error</text>
</g>
<!-- Node5&#45;&gt;Node3 -->
<g id="edge4_Node000003_Node000005" class="edge">
<title>Node5&#45;&gt;Node3</title>
<g id="a_edge4_Node000003_Node000005"><a xlink:title=" ">
<path fill="none" stroke="#9a32cd" stroke-dasharray="5,2" d="M66.78,-292.5C66.8,-275.72 68.45,-250.92 76.5,-231 87.81,-203.01 112.39,-176.56 125.98,-163.32"/>
<polygon fill="#9a32cd" stroke="#9a32cd" points="63.29,-292.73 66.97,-302.67 70.28,-292.6 63.29,-292.73"/>
</a>
</g>
<text text-anchor="start" x="79.5" y="-237.5" font-family="Helvetica,sans-Serif" font-size="10.00" fill="grey">error</text>
</g>
<!-- Node6 -->
<g id="Node000006" class="node">
<title>Node6</title>
<g id="a_Node000006"><a xlink:title=" ">
<polygon fill="white" stroke="#666666" points="219,-250 116,-250 116,-231 219,-231 219,-250"/>
<text text-anchor="middle" x="167.5" y="-238" font-family="Helvetica,sans-Serif" font-size="10.00">_FrProcessPrivate</text>
</a>
</g>
</g>
<!-- Node5&#45;&gt;Node6 -->
<g id="edge6_Node000006_Node000005" class="edge">
<title>Node5&#45;&gt;Node6</title>
<g id="a_edge6_Node000006_Node000005"><a xlink:title=" ">
<path fill="none" stroke="#9a32cd" stroke-dasharray="5,2" d="M87.99,-297.16C108.18,-283.02 138.37,-261.89 155.14,-250.15"/>
<polygon fill="#9a32cd" stroke="#9a32cd" points="85.95,-294.31 79.76,-302.92 89.96,-300.05 85.95,-294.31"/>
</a>
</g>
<text text-anchor="start" x="132.5" y="-273.5" font-family="Helvetica,sans-Serif" font-size="10.00" fill="grey">first_error</text>
</g>
<!-- Node6&#45;&gt;Node3 -->
<g id="edge5_Node000003_Node000006" class="edge">
<title>Node6&#45;&gt;Node3</title>
<g id="a_edge5_Node000003_Node000006"><a xlink:title=" ">
<path fill="none" stroke="#9a32cd" stroke-dasharray="5,2" d="M160.58,-221.13C153.87,-203.29 143.95,-176.96 138.83,-163.36"/>
<polygon fill="#9a32cd" stroke="#9a32cd" points="157.4,-222.6 164.2,-230.72 163.95,-220.13 157.4,-222.6"/>
</a>
</g>
<text text-anchor="start" x="160" y="-194" font-family="Helvetica,sans-Serif" font-size="10.00" fill="grey">priv</text>
</g>
</g>
</svg>
