<?xml version="1.0" encoding="UTF-8" standalone="no"?>
<!DOCTYPE svg PUBLIC "-//W3C//DTD SVG 1.1//EN"
 "http://www.w3.org/Graphics/SVG/1.1/DTD/svg11.dtd">
<!-- Generated by graphviz version 2.43.0 (0)
 -->
<!-- Title: _EvImageAccessible Pages: 1 -->
<!--zoomable 747 -->

<svg id="main" version="1.1" xmlns="http://www.w3.org/2000/svg" xmlns:xlink="http://www.w3.org/1999/xlink" xml:space="preserve" onload="init(evt)">

<style type="text/css"><![CDATA[
.node, .edge {opacity: 0.7;}
.node.selected, .edge.selected {opacity: 1;}
.edge:hover path { stroke: red; }
.edge:hover polygon { stroke: red; fill: red; }
]]></style>

<defs>
  <circle id="rim" cx="0" cy="0" r="7"/>
  <circle id="rim2" cx="0" cy="0" r="3.5"/>
  <g id="zoomPlus">
    <use xlink:href="#rim" fill="#404040"><set attributeName="fill" to="#808080" begin="zoomplus.mouseover" end="zoomplus.mouseout"/></use>
    <path d="M-4,0h8M0,-4v8" fill="none" stroke="white" stroke-width="1.5" pointer-events="none"/>
  </g>
  <g id="zoomMin">
    <use xlink:href="#rim" fill="#404040"><set attributeName="fill" to="#808080" begin="zoomminus.mouseover" end="zoomminus.mouseout"/></use>
    <path d="M-4,0h8" fill="none" stroke="white" stroke-width="1.5" pointer-events="none"/>
  </g>
  <g id="arrowUp" transform="translate(30 24)">
    <use xlink:href="#rim"/>
    <path pointer-events="none" fill="none" stroke="white" stroke-width="1.5" d="M0,-3.0v7 M-2.5,-0.5L0,-3.0L2.5,-0.5"/>
  </g>
  <g id="arrowRight" transform="rotate(90) translate(36 -43)">
    <use xlink:href="#rim"/>
    <path pointer-events="none" fill="none" stroke="white" stroke-width="1.5" d="M0,-3.0v7 M-2.5,-0.5L0,-3.0L2.5,-0.5"/>
  </g>
  <g id="arrowDown" transform="rotate(180) translate(-30 -48)">
    <use xlink:href="#rim"/>
    <path pointer-events="none" fill="none" stroke="white" stroke-width="1.5" d="M0,-3.0v7 M-2.5,-0.5L0,-3.0L2.5,-0.5"/>
  </g>
  <g id="arrowLeft" transform="rotate(270) translate(-36 17)">
    <use xlink:href="#rim"/>
    <path pointer-events="none" fill="none" stroke="white" stroke-width="1.5" d="M0,-3.0v7 M-2.5,-0.5L0,-3.0L2.5,-0.5"/>
  </g>
  <g id="resetDef">
    <use xlink:href="#rim2" fill="#404040"><set attributeName="fill" to="#808080" begin="reset.mouseover" end="reset.mouseout"/></use>
  </g>
</defs>
<script type="application/ecmascript">
var viewWidth = 353;
var viewHeight = 747;
var sectionId = 'dynsection-0';
</script>
<script type="application/ecmascript" xlink:href="svg.min.js"/>
<svg id="graph" class="graph">
<g id="viewport">
<title>_EvImageAccessible</title>
<!-- Node1 -->
<g id="Node000001" class="node">
<title>Node1</title>
<g id="a_Node000001"><a xlink:title=" ">
<polygon fill="#999999" stroke="#666666" points="269.5,-19 153.5,-19 153.5,0 269.5,0 269.5,-19"/>
<text text-anchor="middle" x="211.5" y="-7" font-family="Helvetica,sans-Serif" font-size="10.00">_EvImageAccessible</text>
</a>
</g>
</g>
<!-- Node2 -->
<g id="Node000002" class="node">
<title>Node2</title>
<g id="a_Node000002"><a xlink:title=" ">
<polygon fill="white" stroke="#666666" points="287,-91 136,-91 136,-72 287,-72 287,-91"/>
<text text-anchor="middle" x="211.5" y="-79" font-family="Helvetica,sans-Serif" font-size="10.00">_EvImageAccessiblePrivate</text>
</a>
</g>
</g>
<!-- Node2&#45;&gt;Node1 -->
<g id="edge1_Node000001_Node000002" class="edge">
<title>Node2&#45;&gt;Node1</title>
<g id="a_edge1_Node000001_Node000002"><a xlink:title=" ">
<path fill="none" stroke="#9a32cd" stroke-dasharray="5,2" d="M211.5,-61.58C211.5,-47.76 211.5,-29.68 211.5,-19.15"/>
<polygon fill="#9a32cd" stroke="#9a32cd" points="208,-61.92 211.5,-71.92 215,-61.92 208,-61.92"/>
</a>
</g>
<text text-anchor="start" x="215" y="-42.5" font-family="Helvetica,sans-Serif" font-size="10.00" fill="grey">priv</text>
</g>
<!-- Node3 -->
<g id="Node000003" class="node">
<title>Node3</title>
<g id="a_Node000003"><a xlink:href="struct__EvPageAccessible.html" target="_top" xlink:title=" ">
<polygon fill="white" stroke="#666666" points="157,-163 48,-163 48,-144 157,-144 157,-163"/>
<text text-anchor="middle" x="102.5" y="-151" font-family="Helvetica,sans-Serif" font-size="10.00">_EvPageAccessible</text>
</a>
</g>
</g>
<!-- Node3&#45;&gt;Node2 -->
<g id="edge2_Node000002_Node000003" class="edge">
<title>Node3&#45;&gt;Node2</title>
<g id="a_edge2_Node000002_Node000003"><a xlink:title=" ">
<path fill="none" stroke="#9a32cd" stroke-dasharray="5,2" d="M124.54,-138.34C146.55,-124.21 179.66,-102.95 198.03,-91.15"/>
<polygon fill="#9a32cd" stroke="#9a32cd" points="122.39,-135.57 115.87,-143.92 126.17,-141.46 122.39,-135.57"/>
</a>
</g>
<text text-anchor="start" x="174" y="-114.5" font-family="Helvetica,sans-Serif" font-size="10.00" fill="grey">page</text>
</g>
<!-- Node4 -->
<g id="Node000004" class="node">
<title>Node4</title>
<g id="a_Node000004"><a xlink:title=" ">
<polygon fill="white" stroke="#666666" points="152,-235 9,-235 9,-216 152,-216 152,-235"/>
<text text-anchor="middle" x="80.5" y="-223" font-family="Helvetica,sans-Serif" font-size="10.00">_EvPageAccessiblePrivate</text>
</a>
</g>
</g>
<!-- Node4&#45;&gt;Node3 -->
<g id="edge3_Node000003_Node000004" class="edge">
<title>Node4&#45;&gt;Node3</title>
<g id="a_edge3_Node000003_Node000004"><a xlink:title=" ">
<path fill="none" stroke="#9a32cd" stroke-dasharray="5,2" d="M86.32,-205.99C90.67,-192.13 96.44,-173.79 99.78,-163.15"/>
<polygon fill="#9a32cd" stroke="#9a32cd" points="82.86,-205.33 83.2,-215.92 89.53,-207.43 82.86,-205.33"/>
</a>
</g>
<text text-anchor="start" x="98" y="-186.5" font-family="Helvetica,sans-Serif" font-size="10.00" fill="grey">priv</text>
</g>
<!-- Node5 -->
<g id="Node000005" class="node">
<title>Node5</title>
<g id="a_Node000005"><a xlink:href="struct__EvViewAccessible.html" target="_top" xlink:title=" ">
<polygon fill="white" stroke="#666666" points="135.5,-307 25.5,-307 25.5,-288 135.5,-288 135.5,-307"/>
<text text-anchor="middle" x="80.5" y="-295" font-family="Helvetica,sans-Serif" font-size="10.00">_EvViewAccessible</text>
</a>
</g>
</g>
<!-- Node5&#45;&gt;Node4 -->
<g id="edge4_Node000004_Node000005" class="edge">
<title>Node5&#45;&gt;Node4</title>
<g id="a_edge4_Node000004_Node000005"><a xlink:title=" ">
<path fill="none" stroke="#9a32cd" stroke-dasharray="5,2" d="M80.5,-277.58C80.5,-263.76 80.5,-245.68 80.5,-235.15"/>
<polygon fill="#9a32cd" stroke="#9a32cd" points="77,-277.92 80.5,-287.92 84,-277.92 77,-277.92"/>
</a>
</g>
<text text-anchor="start" x="83.5" y="-258.5" font-family="Helvetica,sans-Serif" font-size="10.00" fill="grey">view_accessible</text>
</g>
<!-- Node6 -->
<g id="Node000006" class="node">
<title>Node6</title>
<g id="a_Node000006"><a xlink:title=" ">
<polygon fill="white" stroke="#666666" points="152.5,-379 8.5,-379 8.5,-360 152.5,-360 152.5,-379"/>
<text text-anchor="middle" x="80.5" y="-367" font-family="Helvetica,sans-Serif" font-size="10.00">_EvViewAccessiblePrivate</text>
</a>
</g>
</g>
<!-- Node6&#45;&gt;Node5 -->
<g id="edge5_Node000005_Node000006" class="edge">
<title>Node6&#45;&gt;Node5</title>
<g id="a_edge5_Node000005_Node000006"><a xlink:title=" ">
<path fill="none" stroke="#9a32cd" stroke-dasharray="5,2" d="M80.5,-349.58C80.5,-335.76 80.5,-317.68 80.5,-307.15"/>
<polygon fill="#9a32cd" stroke="#9a32cd" points="77,-349.92 80.5,-359.92 84,-349.92 77,-349.92"/>
</a>
</g>
<text text-anchor="start" x="84" y="-330.5" font-family="Helvetica,sans-Serif" font-size="10.00" fill="grey">priv</text>
</g>
<!-- Node7 -->
<g id="Node000007" class="node">
<title>Node7</title>
<g id="a_Node000007"><a xlink:title=" ">
<polygon fill="white" stroke="#666666" points="137.5,-451 23.5,-451 23.5,-432 137.5,-432 137.5,-451"/>
<text text-anchor="middle" x="80.5" y="-439" font-family="Helvetica,sans-Serif" font-size="10.00">_EvDocumentModel</text>
</a>
</g>
</g>
<!-- Node7&#45;&gt;Node6 -->
<g id="edge6_Node000006_Node000007" class="edge">
<title>Node7&#45;&gt;Node6</title>
<g id="a_edge6_Node000006_Node000007"><a xlink:title=" ">
<path fill="none" stroke="#9a32cd" stroke-dasharray="5,2" d="M80.5,-421.58C80.5,-407.76 80.5,-389.68 80.5,-379.15"/>
<polygon fill="#9a32cd" stroke="#9a32cd" points="77,-421.92 80.5,-431.92 84,-421.92 77,-421.92"/>
</a>
</g>
<text text-anchor="start" x="84" y="-402.5" font-family="Helvetica,sans-Serif" font-size="10.00" fill="grey">model</text>
</g>
<!-- Node8 -->
<g id="Node000008" class="node">
<title>Node8</title>
<g id="a_Node000008"><a xlink:href="struct__EvDocument.html" target="_top" xlink:title=" ">
<polygon fill="white" stroke="#666666" points="122.5,-523 38.5,-523 38.5,-504 122.5,-504 122.5,-523"/>
<text text-anchor="middle" x="80.5" y="-511" font-family="Helvetica,sans-Serif" font-size="10.00">_EvDocument</text>
</a>
</g>
</g>
<!-- Node8&#45;&gt;Node7 -->
<g id="edge7_Node000007_Node000008" class="edge">
<title>Node8&#45;&gt;Node7</title>
<g id="a_edge7_Node000007_Node000008"><a xlink:title=" ">
<path fill="none" stroke="#9a32cd" stroke-dasharray="5,2" d="M80.5,-493.58C80.5,-479.76 80.5,-461.68 80.5,-451.15"/>
<polygon fill="#9a32cd" stroke="#9a32cd" points="77,-493.92 80.5,-503.92 84,-493.92 77,-493.92"/>
</a>
</g>
<text text-anchor="start" x="84" y="-474.5" font-family="Helvetica,sans-Serif" font-size="10.00" fill="grey">document</text>
</g>
<!-- Node9 -->
<g id="Node000009" class="node">
<title>Node9</title>
<g id="a_Node000009"><a xlink:title=" ">
<polygon fill="white" stroke="#666666" points="140,-595 21,-595 21,-576 140,-576 140,-595"/>
<text text-anchor="middle" x="80.5" y="-583" font-family="Helvetica,sans-Serif" font-size="10.00">_EvDocumentPrivate</text>
</a>
</g>
</g>
<!-- Node9&#45;&gt;Node8 -->
<g id="edge8_Node000008_Node000009" class="edge">
<title>Node9&#45;&gt;Node8</title>
<g id="a_edge8_Node000008_Node000009"><a xlink:title=" ">
<path fill="none" stroke="#9a32cd" stroke-dasharray="5,2" d="M80.5,-565.58C80.5,-551.76 80.5,-533.68 80.5,-523.15"/>
<polygon fill="#9a32cd" stroke="#9a32cd" points="77,-565.92 80.5,-575.92 84,-565.92 77,-565.92"/>
</a>
</g>
<text text-anchor="start" x="84" y="-546.5" font-family="Helvetica,sans-Serif" font-size="10.00" fill="grey">priv</text>
</g>
<!-- Node10 -->
<g id="Node000010" class="node">
<title>Node10</title>
<g id="a_Node000010"><a xlink:title=" ">
<polygon fill="white" stroke="#666666" points="77,-667 0,-667 0,-648 77,-648 77,-667"/>
<text text-anchor="middle" x="38.5" y="-655" font-family="Helvetica,sans-Serif" font-size="10.00">_EvPageSize</text>
</a>
</g>
</g>
<!-- Node10&#45;&gt;Node9 -->
<g id="edge9_Node000009_Node000010" class="edge">
<title>Node10&#45;&gt;Node9</title>
<g id="a_edge9_Node000009_Node000010"><a xlink:title=" ">
<path fill="none" stroke="#9a32cd" stroke-dasharray="5,2" d="M41.72,-637.95C43.69,-629.86 46.78,-620.53 51.5,-613 55.85,-606.07 62.49,-599.81 68.33,-595.12"/>
<polygon fill="#9a32cd" stroke="#9a32cd" points="38.25,-637.43 39.67,-647.93 45.11,-638.84 38.25,-637.43"/>
</a>
</g>
<text text-anchor="start" x="55" y="-618.5" font-family="Helvetica,sans-Serif" font-size="10.00" fill="grey">page_sizes</text>
</g>
<!-- Node11 -->
<g id="Node000011" class="node">
<title>Node11</title>
<g id="a_Node000011"><a xlink:href="struct__EvDocumentInfo.html" target="_top" xlink:title=" ">
<polygon fill="white" stroke="#666666" points="198,-667 95,-667 95,-648 198,-648 198,-667"/>
<text text-anchor="middle" x="146.5" y="-655" font-family="Helvetica,sans-Serif" font-size="10.00">_EvDocumentInfo</text>
</a>
</g>
</g>
<!-- Node11&#45;&gt;Node9 -->
<g id="edge10_Node000009_Node000011" class="edge">
<title>Node11&#45;&gt;Node9</title>
<g id="a_edge10_Node000009_Node000011"><a xlink:title=" ">
<path fill="none" stroke="#9a32cd" stroke-dasharray="5,2" d="M134.54,-639.48C128.35,-631.15 120.45,-621.18 112.5,-613 106.16,-606.48 98.31,-599.96 91.97,-595.02"/>
<polygon fill="#9a32cd" stroke="#9a32cd" points="131.8,-641.66 140.49,-647.72 137.47,-637.56 131.8,-641.66"/>
</a>
</g>
<text text-anchor="start" x="130" y="-618.5" font-family="Helvetica,sans-Serif" font-size="10.00" fill="grey">info</text>
</g>
<!-- Node12 -->
<g id="Node000012" class="node">
<title>Node12</title>
<g id="a_Node000012"><a xlink:href="struct__EvDocumentLicense.html" target="_top" xlink:title=" ">
<polygon fill="white" stroke="#666666" points="207,-739 86,-739 86,-720 207,-720 207,-739"/>
<text text-anchor="middle" x="146.5" y="-727" font-family="Helvetica,sans-Serif" font-size="10.00">_EvDocumentLicense</text>
</a>
</g>
</g>
<!-- Node12&#45;&gt;Node11 -->
<g id="edge11_Node000011_Node000012" class="edge">
<title>Node12&#45;&gt;Node11</title>
<g id="a_edge11_Node000011_Node000012"><a xlink:title=" ">
<path fill="none" stroke="#9a32cd" stroke-dasharray="5,2" d="M146.5,-709.58C146.5,-695.76 146.5,-677.68 146.5,-667.15"/>
<polygon fill="#9a32cd" stroke="#9a32cd" points="143,-709.92 146.5,-719.92 150,-709.92 143,-709.92"/>
</a>
</g>
<text text-anchor="start" x="150" y="-690.5" font-family="Helvetica,sans-Serif" font-size="10.00" fill="grey">license</text>
</g>
<!-- Node13 -->
<g id="Node000013" class="node">
<title>Node13</title>
<g id="a_Node000013"><a xlink:href="struct__EvImage.html" target="_top" xlink:title=" ">
<polygon fill="white" stroke="#666666" points="244,-163 179,-163 179,-144 244,-144 244,-163"/>
<text text-anchor="middle" x="211.5" y="-151" font-family="Helvetica,sans-Serif" font-size="10.00">_EvImage</text>
</a>
</g>
</g>
<!-- Node13&#45;&gt;Node2 -->
<g id="edge12_Node000002_Node000013" class="edge">
<title>Node13&#45;&gt;Node2</title>
<g id="a_edge12_Node000002_Node000013"><a xlink:title=" ">
<path fill="none" stroke="#9a32cd" stroke-dasharray="5,2" d="M211.5,-133.58C211.5,-119.76 211.5,-101.68 211.5,-91.15"/>
<polygon fill="#9a32cd" stroke="#9a32cd" points="208,-133.92 211.5,-143.92 215,-133.92 208,-133.92"/>
</a>
</g>
<text text-anchor="start" x="215" y="-114.5" font-family="Helvetica,sans-Serif" font-size="10.00" fill="grey">image</text>
</g>
<!-- Node14 -->
<g id="Node000014" class="node">
<title>Node14</title>
<g id="a_Node000014"><a xlink:title=" ">
<polygon fill="white" stroke="#666666" points="269,-235 170,-235 170,-216 269,-216 269,-235"/>
<text text-anchor="middle" x="219.5" y="-223" font-family="Helvetica,sans-Serif" font-size="10.00">_EvImagePrivate</text>
</a>
</g>
</g>
<!-- Node14&#45;&gt;Node13 -->
<g id="edge13_Node000013_Node000014" class="edge">
<title>Node14&#45;&gt;Node13</title>
<g id="a_edge13_Node000013_Node000014"><a xlink:title=" ">
<path fill="none" stroke="#9a32cd" stroke-dasharray="5,2" d="M217.34,-205.58C215.76,-191.76 213.69,-173.68 212.49,-163.15"/>
<polygon fill="#9a32cd" stroke="#9a32cd" points="213.91,-206.38 218.52,-215.92 220.86,-205.58 213.91,-206.38"/>
</a>
</g>
<text text-anchor="start" x="220" y="-186.5" font-family="Helvetica,sans-Serif" font-size="10.00" fill="grey">priv</text>
</g>
<!-- Node15 -->
<g id="Node000015" class="node">
<title>Node15</title>
<g id="a_Node000015"><a xlink:href="struct__EvRectangle.html" target="_top" xlink:title=" ">
<polygon fill="white" stroke="#666666" points="345,-163 262,-163 262,-144 345,-144 345,-163"/>
<text text-anchor="middle" x="303.5" y="-151" font-family="Helvetica,sans-Serif" font-size="10.00">_EvRectangle</text>
</a>
</g>
</g>
<!-- Node15&#45;&gt;Node2 -->
<g id="edge14_Node000002_Node000015" class="edge">
<title>Node15&#45;&gt;Node2</title>
<g id="a_edge14_Node000002_Node000015"><a xlink:title=" ">
<path fill="none" stroke="#9a32cd" stroke-dasharray="5,2" d="M286.34,-136.87C276.66,-128.31 264.2,-117.71 252.5,-109 243.93,-102.62 233.87,-96.1 225.85,-91.13"/>
<polygon fill="#9a32cd" stroke="#9a32cd" points="284.25,-139.7 294.04,-143.77 288.92,-134.49 284.25,-139.7"/>
</a>
</g>
<text text-anchor="start" x="276.5" y="-114.5" font-family="Helvetica,sans-Serif" font-size="10.00" fill="grey">area</text>
</g>
</g>
</svg>

<g id="navigator" transform="translate(0 0)" fill="#404254">
  <rect fill="#f2f5e9" fill-opacity="0.5" stroke="#606060" stroke-width=".5" x="0" y="0" width="60" height="60"/>
  <use id="zoomplus" xlink:href="#zoomPlus" x="17" y="9" onmousedown="handleZoom(evt,'in')"/>
  <use id="zoomminus" xlink:href="#zoomMin" x="42" y="9" onmousedown="handleZoom(evt,'out')"/>
  <use id="reset" xlink:href="#resetDef" x="30" y="36" onmousedown="handleReset()"/>
   <use id="arrowup" xlink:href="#arrowUp" x="0" y="0" onmousedown="handlePan(0,-1)"/>
  <use id="arrowright" xlink:href="#arrowRight" x="0" y="0" onmousedown="handlePan(1,0)"/>
  <use id="arrowdown" xlink:href="#arrowDown" x="0" y="0" onmousedown="handlePan(0,1)"/>
  <use id="arrowleft" xlink:href="#arrowLeft" x="0" y="0" onmousedown="handlePan(-1,0)"/>
</g>
<svg viewBox="0 0 15 15" width="100%" height="30px" preserveAspectRatio="xMaxYMin meet">
 <g id="arrow_out" transform="scale(0.3 0.3)">
  <a xlink:href="struct__EvImageAccessible__coll__graph_org.svg" target="_base">
   <rect id="button" ry="5" rx="5" y="6" x="6" height="38" width="38"
        fill="#f2f5e9" fill-opacity="0.5" stroke="#606060" stroke-width="1.0"/>
   <path id="arrow"
     d="M 11.500037,31.436501 C 11.940474,20.09759 22.043105,11.32322 32.158766,21.979434 L 37.068811,17.246167 C 37.068811,17.246167 37.088388,32 37.088388,32 L 22.160133,31.978069 C 22.160133,31.978069 26.997745,27.140456 26.997745,27.140456 C 18.528582,18.264221 13.291696,25.230495 11.500037,31.436501 z"
     style="fill:#404040;"/>
  </a>
 </g>
</svg>

<style type='text/css'>
<![CDATA[
[data-mouse-over-selected='false'] { opacity: 0.7; }
[data-mouse-over-selected='true']  { opacity: 1.0; }
]]>
</style>
<script type="application/ecmascript"><![CDATA[
document.addEventListener('DOMContentLoaded', (event) => {
  highlightEdges();
  highlightAdjacentNodes();
});
]]></script>
</svg>
