<?xml version="1.0" encoding="UTF-8" standalone="no"?>
<!DOCTYPE svg PUBLIC "-//W3C//DTD SVG 1.1//EN"
 "http://www.w3.org/Graphics/SVG/1.1/DTD/svg11.dtd">
<!-- Generated by graphviz version 2.43.0 (0)
 -->
<!-- Title: _PulseSource Pages: 1 -->
<svg width="1748pt" height="448pt"
 viewBox="0.00 0.00 1748.00 447.50" xmlns="http://www.w3.org/2000/svg" xmlns:xlink="http://www.w3.org/1999/xlink">
<g id="graph0" class="graph" transform="scale(1 1) rotate(0) translate(4 443.5)">
<title>_PulseSource</title>
<!-- Node1 -->
<g id="Node000001" class="node">
<title>Node1</title>
<g id="a_Node000001"><a xlink:title=" ">
<polygon fill="#999999" stroke="#666666" points="1740,-240 1659,-240 1659,-221 1740,-221 1740,-240"/>
<text text-anchor="middle" x="1699.5" y="-228" font-family="Helvetica,sans-Serif" font-size="10.00">_PulseSource</text>
</a>
</g>
</g>
<!-- Node2 -->
<g id="Node000002" class="node">
<title>Node2</title>
<g id="a_Node000002"><a xlink:href="struct__PulseStream.html" target="_top" xlink:title=" ">
<polygon fill="white" stroke="#666666" points="1182,-204 1099,-204 1099,-185 1182,-185 1182,-204"/>
<text text-anchor="middle" x="1140.5" y="-192" font-family="Helvetica,sans-Serif" font-size="10.00">_PulseStream</text>
</a>
</g>
</g>
<!-- Node2&#45;&gt;Node1 -->
<g id="edge1_Node000001_Node000002" class="edge">
<title>Node2&#45;&gt;Node1</title>
<g id="a_edge1_Node000001_Node000002"><a xlink:title=" ">
<path fill="none" stroke="#9a32cd" stroke-dasharray="5,2" d="M1192.16,-197.77C1301.96,-204.87 1559.93,-221.54 1658.89,-227.94"/>
<polygon fill="#9a32cd" stroke="#9a32cd" points="1192.21,-194.27 1182.01,-197.12 1191.76,-201.26 1192.21,-194.27"/>
</a>
</g>
<text text-anchor="start" x="1426" y="-221" font-family="Helvetica,sans-Serif" font-size="10.00" fill="grey">parent</text>
</g>
<!-- Node3 -->
<g id="Node000003" class="node">
<title>Node3</title>
<g id="a_Node000003"><a xlink:href="struct__MateMixerStream.html" target="_top" xlink:title=" ">
<polygon fill="white" stroke="#666666" points="357.5,-141 248.5,-141 248.5,-122 357.5,-122 357.5,-141"/>
<text text-anchor="middle" x="303" y="-129" font-family="Helvetica,sans-Serif" font-size="10.00">_MateMixerStream</text>
</a>
</g>
</g>
<!-- Node3&#45;&gt;Node2 -->
<g id="edge2_Node000002_Node000003" class="edge">
<title>Node3&#45;&gt;Node2</title>
<g id="a_edge2_Node000002_Node000003"><a xlink:title=" ">
<path fill="none" stroke="#9a32cd" stroke-dasharray="5,2" d="M367.84,-123.85C490.45,-110.92 766.81,-90.29 993,-135.5 1041.67,-145.23 1094.75,-170.69 1121.68,-184.78"/>
<polygon fill="#9a32cd" stroke="#9a32cd" points="367.44,-120.37 357.87,-124.92 368.18,-127.33 367.44,-120.37"/>
</a>
</g>
<text text-anchor="start" x="718" y="-119" font-family="Helvetica,sans-Serif" font-size="10.00" fill="grey">parent</text>
</g>
<!-- Node8 -->
<g id="Node000008" class="node">
<title>Node8</title>
<g id="a_Node000008"><a xlink:title=" ">
<polygon fill="white" stroke="#666666" points="628,-163 449,-163 449,-144 628,-144 628,-163"/>
<text text-anchor="middle" x="538.5" y="-151" font-family="Helvetica,sans-Serif" font-size="10.00">_MateMixerStreamControlPrivate</text>
</a>
</g>
</g>
<!-- Node3&#45;&gt;Node8 -->
<g id="edge8_Node000008_Node000003" class="edge">
<title>Node3&#45;&gt;Node8</title>
<g id="a_edge8_Node000008_Node000003"><a xlink:title=" ">
<path fill="none" stroke="#9a32cd" stroke-dasharray="5,2" d="M367.67,-137.5C392.72,-139.86 421.9,-142.61 448.94,-145.16"/>
<polygon fill="#9a32cd" stroke="#9a32cd" points="367.85,-134 357.57,-136.55 367.2,-140.97 367.85,-134"/>
</a>
</g>
<text text-anchor="start" x="393.5" y="-149" font-family="Helvetica,sans-Serif" font-size="10.00" fill="grey">stream</text>
</g>
<!-- Node19 -->
<g id="Node000019" class="node">
<title>Node19</title>
<g id="a_Node000019"><a xlink:title=" ">
<polygon fill="white" stroke="#666666" points="822,-356 646,-356 646,-337 822,-337 822,-356"/>
<text text-anchor="middle" x="734" y="-344" font-family="Helvetica,sans-Serif" font-size="10.00">_MateMixerStreamSwitchPrivate</text>
</a>
</g>
</g>
<!-- Node3&#45;&gt;Node19 -->
<g id="edge20_Node000019_Node000003" class="edge">
<title>Node3&#45;&gt;Node19</title>
<g id="a_edge20_Node000019_Node000003"><a xlink:title=" ">
<path fill="none" stroke="#9a32cd" stroke-dasharray="5,2" d="M315.37,-149.82C337.03,-183.05 387.54,-253.11 449,-288.5 509.18,-323.15 587.01,-337.3 645.97,-342.98"/>
<polygon fill="#9a32cd" stroke="#9a32cd" points="318.15,-147.67 309.82,-141.12 312.25,-151.43 318.15,-147.67"/>
</a>
</g>
<text text-anchor="start" x="393.5" y="-280" font-family="Helvetica,sans-Serif" font-size="10.00" fill="grey">stream</text>
</g>
<!-- Node4 -->
<g id="Node000004" class="node">
<title>Node4</title>
<g id="a_Node000004"><a xlink:title=" ">
<polygon fill="white" stroke="#666666" points="1212,-59 1069,-59 1069,-40 1212,-40 1212,-59"/>
<text text-anchor="middle" x="1140.5" y="-47" font-family="Helvetica,sans-Serif" font-size="10.00">_MateMixerStreamPrivate</text>
</a>
</g>
</g>
<!-- Node4&#45;&gt;Node3 -->
<g id="edge3_Node000003_Node000004" class="edge">
<title>Node4&#45;&gt;Node3</title>
<g id="a_edge3_Node000003_Node000004"><a xlink:title=" ">
<path fill="none" stroke="#9a32cd" stroke-dasharray="5,2" d="M1058.49,-53.45C929.23,-60.32 668.51,-76.47 449,-104.5 414.84,-108.86 376.55,-116.09 347.9,-121.97"/>
<polygon fill="#9a32cd" stroke="#9a32cd" points="1058.89,-56.94 1068.7,-52.91 1058.53,-49.95 1058.89,-56.94"/>
</a>
</g>
<text text-anchor="start" x="725" y="-88" font-family="Helvetica,sans-Serif" font-size="10.00" fill="grey">priv</text>
</g>
<!-- Node5 -->
<g id="Node000005" class="node">
<title>Node5</title>
<g id="a_Node000005"><a xlink:href="struct__MateMixerDevice.html" target="_top" xlink:title=" ">
<polygon fill="white" stroke="#666666" points="970,-20 863,-20 863,-1 970,-1 970,-20"/>
<text text-anchor="middle" x="916.5" y="-8" font-family="Helvetica,sans-Serif" font-size="10.00">_MateMixerDevice</text>
</a>
</g>
</g>
<!-- Node5&#45;&gt;Node4 -->
<g id="edge4_Node000004_Node000005" class="edge">
<title>Node5&#45;&gt;Node4</title>
<g id="a_edge4_Node000004_Node000005"><a xlink:title=" ">
<path fill="none" stroke="#9a32cd" stroke-dasharray="5,2" d="M980.34,-10.69C1002.81,-11.69 1028.2,-13.92 1051,-18.5 1074.46,-23.22 1100.16,-32.74 1117.79,-39.99"/>
<polygon fill="#9a32cd" stroke="#9a32cd" points="980.36,-7.19 970.24,-10.31 980.1,-14.18 980.36,-7.19"/>
</a>
</g>
<text text-anchor="start" x="1015" y="-24" font-family="Helvetica,sans-Serif" font-size="10.00" fill="grey">device</text>
</g>
<!-- Node6 -->
<g id="Node000006" class="node">
<title>Node6</title>
<g id="a_Node000006"><a xlink:title=" ">
<polygon fill="white" stroke="#666666" points="609.5,-19 467.5,-19 467.5,0 609.5,0 609.5,-19"/>
<text text-anchor="middle" x="538.5" y="-7" font-family="Helvetica,sans-Serif" font-size="10.00">_MateMixerDevicePrivate</text>
</a>
</g>
</g>
<!-- Node6&#45;&gt;Node5 -->
<g id="edge5_Node000005_Node000006" class="edge">
<title>Node6&#45;&gt;Node5</title>
<g id="a_edge5_Node000005_Node000006"><a xlink:title=" ">
<path fill="none" stroke="#9a32cd" stroke-dasharray="5,2" d="M619.91,-9.71C693.32,-9.91 799.73,-10.19 862.83,-10.36"/>
<polygon fill="#9a32cd" stroke="#9a32cd" points="619.79,-6.21 609.78,-9.69 619.77,-13.21 619.79,-6.21"/>
</a>
</g>
<text text-anchor="start" x="725" y="-16" font-family="Helvetica,sans-Serif" font-size="10.00" fill="grey">priv</text>
</g>
<!-- Node7 -->
<g id="Node000007" class="node">
<title>Node7</title>
<g id="a_Node000007"><a xlink:href="struct__MateMixerStreamControl.html" target="_top" xlink:title=" ">
<polygon fill="white" stroke="#666666" points="988.5,-164 844.5,-164 844.5,-145 988.5,-145 988.5,-164"/>
<text text-anchor="middle" x="916.5" y="-152" font-family="Helvetica,sans-Serif" font-size="10.00">_MateMixerStreamControl</text>
</a>
</g>
</g>
<!-- Node7&#45;&gt;Node4 -->
<g id="edge6_Node000004_Node000007" class="edge">
<title>Node7&#45;&gt;Node4</title>
<g id="a_edge6_Node000004_Node000007"><a xlink:title=" ">
<path fill="none" stroke="#9a32cd" stroke-dasharray="5,2" d="M946.69,-140.69C992.43,-119.06 1079.84,-77.72 1119.29,-59.06"/>
<polygon fill="#9a32cd" stroke="#9a32cd" points="945.14,-137.56 937.59,-145 948.13,-143.89 945.14,-137.56"/>
</a>
</g>
<text text-anchor="start" x="1014" y="-114" font-family="Helvetica,sans-Serif" font-size="10.00" fill="grey">control</text>
</g>
<!-- Node22 -->
<g id="Node000022" class="node">
<title>Node22</title>
<g id="a_Node000022"><a xlink:href="struct__PulseStreamControl.html" target="_top" xlink:title=" ">
<polygon fill="white" stroke="#666666" points="1200,-264 1081,-264 1081,-245 1200,-245 1200,-264"/>
<text text-anchor="middle" x="1140.5" y="-252" font-family="Helvetica,sans-Serif" font-size="10.00">_PulseStreamControl</text>
</a>
</g>
</g>
<!-- Node7&#45;&gt;Node22 -->
<g id="edge24_Node000022_Node000007" class="edge">
<title>Node7&#45;&gt;Node22</title>
<g id="a_edge24_Node000022_Node000007"><a xlink:title=" ">
<path fill="none" stroke="#9a32cd" stroke-dasharray="5,2" d="M982.46,-168.41C986.21,-170.46 989.77,-172.81 993,-175.5 1007.05,-187.21 997.22,-200.48 1011,-212.5 1030.46,-229.46 1056.92,-239.6 1080.78,-245.65"/>
<polygon fill="#9a32cd" stroke="#9a32cd" points="983.95,-165.24 973.41,-164.15 980.97,-171.57 983.95,-165.24"/>
</a>
</g>
<text text-anchor="start" x="1015" y="-241" font-family="Helvetica,sans-Serif" font-size="10.00" fill="grey">parent</text>
</g>
<!-- Node8&#45;&gt;Node7 -->
<g id="edge7_Node000007_Node000008" class="edge">
<title>Node8&#45;&gt;Node7</title>
<g id="a_edge7_Node000007_Node000008"><a xlink:title=" ">
<path fill="none" stroke="#9a32cd" stroke-dasharray="5,2" d="M638.36,-153.76C703.09,-153.94 786.18,-154.16 844.43,-154.31"/>
<polygon fill="#9a32cd" stroke="#9a32cd" points="638.14,-150.26 628.13,-153.74 638.12,-157.26 638.14,-150.26"/>
</a>
</g>
<text text-anchor="start" x="725" y="-160" font-family="Helvetica,sans-Serif" font-size="10.00" fill="grey">priv</text>
</g>
<!-- Node9 -->
<g id="Node000009" class="node">
<title>Node9</title>
<g id="a_Node000009"><a xlink:title=" ">
<polygon fill="white" stroke="#666666" points="975.5,-204 857.5,-204 857.5,-185 975.5,-185 975.5,-204"/>
<text text-anchor="middle" x="916.5" y="-192" font-family="Helvetica,sans-Serif" font-size="10.00">_PulseStreamPrivate</text>
</a>
</g>
</g>
<!-- Node9&#45;&gt;Node2 -->
<g id="edge9_Node000002_Node000009" class="edge">
<title>Node9&#45;&gt;Node2</title>
<g id="a_edge9_Node000002_Node000009"><a xlink:title=" ">
<path fill="none" stroke="#9a32cd" stroke-dasharray="5,2" d="M985.77,-194.5C1022.83,-194.5 1067.38,-194.5 1098.96,-194.5"/>
<polygon fill="#9a32cd" stroke="#9a32cd" points="985.54,-191 975.54,-194.5 985.54,-198 985.54,-191"/>
</a>
</g>
<text text-anchor="start" x="1022" y="-200" font-family="Helvetica,sans-Serif" font-size="10.00" fill="grey">priv</text>
</g>
<!-- Node10 -->
<g id="Node000010" class="node">
<title>Node10</title>
<g id="a_Node000010"><a xlink:href="struct__PulseConnection.html" target="_top" xlink:title=" ">
<polygon fill="white" stroke="#666666" points="590,-242 487,-242 487,-223 590,-223 590,-242"/>
<text text-anchor="middle" x="538.5" y="-230" font-family="Helvetica,sans-Serif" font-size="10.00">_PulseConnection</text>
</a>
</g>
</g>
<!-- Node10&#45;&gt;Node9 -->
<g id="edge10_Node000009_Node000010" class="edge">
<title>Node10&#45;&gt;Node9</title>
<g id="a_edge10_Node000009_Node000010"><a xlink:title=" ">
<path fill="none" stroke="#9a32cd" stroke-dasharray="5,2" d="M569.89,-218.92C590.81,-210.33 619.52,-200.02 646,-195.5 718.07,-183.2 802.56,-185.54 857.46,-189.24"/>
<polygon fill="#9a32cd" stroke="#9a32cd" points="568.43,-215.74 560.57,-222.84 571.14,-222.19 568.43,-215.74"/>
</a>
</g>
<text text-anchor="start" x="707" y="-201" font-family="Helvetica,sans-Serif" font-size="10.00" fill="grey">connection</text>
</g>
<!-- Node23 -->
<g id="Node000023" class="node">
<title>Node23</title>
<g id="a_Node000023"><a xlink:title=" ">
<polygon fill="white" stroke="#666666" points="993,-284 840,-284 840,-265 993,-265 993,-284"/>
<text text-anchor="middle" x="916.5" y="-272" font-family="Helvetica,sans-Serif" font-size="10.00">_PulseStreamControlPrivate</text>
</a>
</g>
</g>
<!-- Node10&#45;&gt;Node23 -->
<g id="edge26_Node000023_Node000010" class="edge">
<title>Node10&#45;&gt;Node23</title>
<g id="a_edge26_Node000023_Node000010"><a xlink:title=" ">
<path fill="none" stroke="#9a32cd" stroke-dasharray="5,2" d="M600.11,-232.63C657.58,-233.59 746.16,-237.21 822,-249.5 843.73,-253.02 867.7,-259.49 885.93,-264.96"/>
<polygon fill="#9a32cd" stroke="#9a32cd" points="600.15,-229.14 590.1,-232.49 600.05,-236.13 600.15,-229.14"/>
</a>
</g>
<text text-anchor="start" x="707" y="-255" font-family="Helvetica,sans-Serif" font-size="10.00" fill="grey">connection</text>
</g>
<!-- Node11 -->
<g id="Node000011" class="node">
<title>Node11</title>
<g id="a_Node000011"><a xlink:title=" ">
<polygon fill="white" stroke="#666666" points="371.5,-352 234.5,-352 234.5,-333 371.5,-333 371.5,-352"/>
<text text-anchor="middle" x="303" y="-340" font-family="Helvetica,sans-Serif" font-size="10.00">_PulseConnectionPrivate</text>
</a>
</g>
</g>
<!-- Node11&#45;&gt;Node10 -->
<g id="edge11_Node000010_Node000011" class="edge">
<title>Node11&#45;&gt;Node10</title>
<g id="a_edge11_Node000010_Node000011"><a xlink:title=" ">
<path fill="none" stroke="#9a32cd" stroke-dasharray="5,2" d="M381.67,-343.05C399.71,-339.65 417.54,-332.92 431,-320.5 454.61,-298.71 425.71,-272.63 449,-250.5 459.12,-240.89 472.89,-235.78 486.57,-233.21"/>
<polygon fill="#9a32cd" stroke="#9a32cd" points="381,-339.62 371.66,-344.62 382.08,-346.53 381,-339.62"/>
</a>
</g>
<text text-anchor="start" x="401.5" y="-346" font-family="Helvetica,sans-Serif" font-size="10.00" fill="grey">priv</text>
</g>
<!-- Node12 -->
<g id="Node000012" class="node">
<title>Node12</title>
<g id="a_Node000012"><a xlink:title=" ">
<polygon fill="white" stroke="#666666" points="1598,-264 1482,-264 1482,-245 1598,-245 1598,-264"/>
<text text-anchor="middle" x="1540" y="-252" font-family="Helvetica,sans-Serif" font-size="10.00">_PulseSourcePrivate</text>
</a>
</g>
</g>
<!-- Node12&#45;&gt;Node1 -->
<g id="edge12_Node000001_Node000012" class="edge">
<title>Node12&#45;&gt;Node1</title>
<g id="a_edge12_Node000001_Node000012"><a xlink:title=" ">
<path fill="none" stroke="#9a32cd" stroke-dasharray="5,2" d="M1608.31,-244.24C1625.5,-241.62 1643.43,-238.89 1658.73,-236.56"/>
<polygon fill="#9a32cd" stroke="#9a32cd" points="1607.67,-240.8 1598.31,-245.77 1608.72,-247.72 1607.67,-240.8"/>
</a>
</g>
<text text-anchor="start" x="1619.5" y="-248" font-family="Helvetica,sans-Serif" font-size="10.00" fill="grey">priv</text>
</g>
<!-- Node13 -->
<g id="Node000013" class="node">
<title>Node13</title>
<g id="a_Node000013"><a xlink:href="struct__PulsePortSwitch.html" target="_top" xlink:title=" ">
<polygon fill="white" stroke="#666666" points="1394,-354 1294,-354 1294,-335 1394,-335 1394,-354"/>
<text text-anchor="middle" x="1344" y="-342" font-family="Helvetica,sans-Serif" font-size="10.00">_PulsePortSwitch</text>
</a>
</g>
</g>
<!-- Node13&#45;&gt;Node12 -->
<g id="edge13_Node000012_Node000013" class="edge">
<title>Node13&#45;&gt;Node12</title>
<g id="a_edge13_Node000012_Node000013"><a xlink:title=" ">
<path fill="none" stroke="#9a32cd" stroke-dasharray="5,2" d="M1374.97,-330.6C1414.76,-312.14 1483.99,-280.02 1518.39,-264.06"/>
<polygon fill="#9a32cd" stroke="#9a32cd" points="1373.36,-327.49 1365.76,-334.87 1376.31,-333.83 1373.36,-327.49"/>
</a>
</g>
<text text-anchor="start" x="1423" y="-313" font-family="Helvetica,sans-Serif" font-size="10.00" fill="grey">pswitch</text>
</g>
<!-- Node14 -->
<g id="Node000014" class="node">
<title>Node14</title>
<g id="a_Node000014"><a xlink:href="struct__MateMixerStreamSwitch.html" target="_top" xlink:title=" ">
<polygon fill="white" stroke="#666666" points="1211,-356 1070,-356 1070,-337 1211,-337 1211,-356"/>
<text text-anchor="middle" x="1140.5" y="-344" font-family="Helvetica,sans-Serif" font-size="10.00">_MateMixerStreamSwitch</text>
</a>
</g>
</g>
<!-- Node14&#45;&gt;Node13 -->
<g id="edge14_Node000013_Node000014" class="edge">
<title>Node14&#45;&gt;Node13</title>
<g id="a_edge14_Node000013_Node000014"><a xlink:title=" ">
<path fill="none" stroke="#9a32cd" stroke-dasharray="5,2" d="M1221.22,-345.59C1224.19,-345.56 1227.12,-345.53 1230,-345.5 1250.89,-345.29 1273.96,-345.08 1293.77,-344.91"/>
<polygon fill="#9a32cd" stroke="#9a32cd" points="1221.03,-342.09 1211.07,-345.7 1221.1,-349.09 1221.03,-342.09"/>
</a>
</g>
<text text-anchor="start" x="1233" y="-351" font-family="Helvetica,sans-Serif" font-size="10.00" fill="grey">parent</text>
</g>
<!-- Node15 -->
<g id="Node000015" class="node">
<title>Node15</title>
<g id="a_Node000015"><a xlink:href="struct__MateMixerSwitch.html" target="_top" xlink:title=" ">
<polygon fill="white" stroke="#666666" points="969.5,-410 863.5,-410 863.5,-391 969.5,-391 969.5,-410"/>
<text text-anchor="middle" x="916.5" y="-398" font-family="Helvetica,sans-Serif" font-size="10.00">_MateMixerSwitch</text>
</a>
</g>
</g>
<!-- Node15&#45;&gt;Node14 -->
<g id="edge15_Node000014_Node000015" class="edge">
<title>Node15&#45;&gt;Node14</title>
<g id="a_edge15_Node000014_Node000015"><a xlink:title=" ">
<path fill="none" stroke="#9a32cd" stroke-dasharray="5,2" d="M966.55,-388.57C1006.8,-378.78 1063.05,-365.1 1100.34,-356.03"/>
<polygon fill="#9a32cd" stroke="#9a32cd" points="965.57,-385.21 956.68,-390.97 967.22,-392.01 965.57,-385.21"/>
</a>
</g>
<text text-anchor="start" x="1016" y="-382" font-family="Helvetica,sans-Serif" font-size="10.00" fill="grey">object</text>
</g>
<!-- Node16 -->
<g id="Node000016" class="node">
<title>Node16</title>
<g id="a_Node000016"><a xlink:title=" ">
<polygon fill="white" stroke="#666666" points="608.5,-431 468.5,-431 468.5,-412 608.5,-412 608.5,-431"/>
<text text-anchor="middle" x="538.5" y="-419" font-family="Helvetica,sans-Serif" font-size="10.00">_MateMixerSwitchPrivate</text>
</a>
</g>
</g>
<!-- Node16&#45;&gt;Node15 -->
<g id="edge16_Node000015_Node000016" class="edge">
<title>Node16&#45;&gt;Node15</title>
<g id="a_edge16_Node000015_Node000016"><a xlink:title=" ">
<path fill="none" stroke="#9a32cd" stroke-dasharray="5,2" d="M619.07,-417.06C692.74,-412.94 800.16,-406.94 863.44,-403.41"/>
<polygon fill="#9a32cd" stroke="#9a32cd" points="618.69,-413.57 608.9,-417.62 619.08,-420.56 618.69,-413.57"/>
</a>
</g>
<text text-anchor="start" x="725" y="-420" font-family="Helvetica,sans-Serif" font-size="10.00" fill="grey">priv</text>
</g>
<!-- Node17 -->
<g id="Node000017" class="node">
<title>Node17</title>
<g id="a_Node000017"><a xlink:href="struct__MateMixerSwitchOption.html" target="_top" xlink:title=" ">
<polygon fill="white" stroke="#666666" points="372,-432 234,-432 234,-413 372,-413 372,-432"/>
<text text-anchor="middle" x="303" y="-420" font-family="Helvetica,sans-Serif" font-size="10.00">_MateMixerSwitchOption</text>
</a>
</g>
</g>
<!-- Node17&#45;&gt;Node16 -->
<g id="edge17_Node000016_Node000017" class="edge">
<title>Node17&#45;&gt;Node16</title>
<g id="a_edge17_Node000016_Node000017"><a xlink:title=" ">
<path fill="none" stroke="#9a32cd" stroke-dasharray="5,2" d="M382.28,-422.16C410.18,-422.05 441.37,-421.91 468.44,-421.8"/>
<polygon fill="#9a32cd" stroke="#9a32cd" points="382.15,-418.67 372.17,-422.21 382.18,-425.67 382.15,-418.67"/>
</a>
</g>
<text text-anchor="start" x="395.5" y="-427" font-family="Helvetica,sans-Serif" font-size="10.00" fill="grey">active</text>
</g>
<!-- Node18 -->
<g id="Node000018" class="node">
<title>Node18</title>
<g id="a_Node000018"><a xlink:title=" ">
<polygon fill="white" stroke="#666666" points="173,-432 0,-432 0,-413 173,-413 173,-432"/>
<text text-anchor="middle" x="86.5" y="-420" font-family="Helvetica,sans-Serif" font-size="10.00">_MateMixerSwitchOptionPrivate</text>
</a>
</g>
</g>
<!-- Node18&#45;&gt;Node17 -->
<g id="edge18_Node000017_Node000018" class="edge">
<title>Node18&#45;&gt;Node17</title>
<g id="a_edge18_Node000017_Node000018"><a xlink:title=" ">
<path fill="none" stroke="#9a32cd" stroke-dasharray="5,2" d="M183.21,-422.5C200.31,-422.5 217.8,-422.5 233.93,-422.5"/>
<polygon fill="#9a32cd" stroke="#9a32cd" points="183.2,-419 173.2,-422.5 183.2,-426 183.2,-419"/>
</a>
</g>
<text text-anchor="start" x="194.5" y="-428" font-family="Helvetica,sans-Serif" font-size="10.00" fill="grey">priv</text>
</g>
<!-- Node19&#45;&gt;Node14 -->
<g id="edge19_Node000014_Node000019" class="edge">
<title>Node19&#45;&gt;Node14</title>
<g id="a_edge19_Node000014_Node000019"><a xlink:title=" ">
<path fill="none" stroke="#9a32cd" stroke-dasharray="5,2" d="M832.44,-346.5C905.71,-346.5 1004.35,-346.5 1069.84,-346.5"/>
<polygon fill="#9a32cd" stroke="#9a32cd" points="832.27,-343 822.27,-346.5 832.27,-350 832.27,-343"/>
</a>
</g>
<text text-anchor="start" x="907.5" y="-352" font-family="Helvetica,sans-Serif" font-size="10.00" fill="grey">priv</text>
</g>
<!-- Node20 -->
<g id="Node000020" class="node">
<title>Node20</title>
<g id="a_Node000020"><a xlink:title=" ">
<polygon fill="white" stroke="#666666" points="1207.5,-394 1073.5,-394 1073.5,-375 1207.5,-375 1207.5,-394"/>
<text text-anchor="middle" x="1140.5" y="-382" font-family="Helvetica,sans-Serif" font-size="10.00">_PulsePortSwitchPrivate</text>
</a>
</g>
</g>
<!-- Node20&#45;&gt;Node13 -->
<g id="edge21_Node000013_Node000020" class="edge">
<title>Node20&#45;&gt;Node13</title>
<g id="a_edge21_Node000013_Node000020"><a xlink:title=" ">
<path fill="none" stroke="#9a32cd" stroke-dasharray="5,2" d="M1210.74,-373.27C1229.38,-370.03 1249.5,-366.33 1268,-362.5 1280.2,-359.98 1293.43,-356.91 1305.33,-354.03"/>
<polygon fill="#9a32cd" stroke="#9a32cd" points="1210.12,-369.83 1200.85,-374.98 1211.3,-376.73 1210.12,-369.83"/>
</a>
</g>
<text text-anchor="start" x="1240" y="-374" font-family="Helvetica,sans-Serif" font-size="10.00" fill="grey">priv</text>
</g>
<!-- Node21 -->
<g id="Node000021" class="node">
<title>Node21</title>
<g id="a_Node000021"><a xlink:href="struct__PulseSourceControl.html" target="_top" xlink:title=" ">
<polygon fill="white" stroke="#666666" points="1402,-264 1286,-264 1286,-245 1402,-245 1402,-264"/>
<text text-anchor="middle" x="1344" y="-252" font-family="Helvetica,sans-Serif" font-size="10.00">_PulseSourceControl</text>
</a>
</g>
</g>
<!-- Node21&#45;&gt;Node12 -->
<g id="edge22_Node000012_Node000021" class="edge">
<title>Node21&#45;&gt;Node12</title>
<g id="a_edge22_Node000012_Node000021"><a xlink:title=" ">
<path fill="none" stroke="#9a32cd" stroke-dasharray="5,2" d="M1412.39,-254.5C1435.06,-254.5 1460.12,-254.5 1481.92,-254.5"/>
<polygon fill="#9a32cd" stroke="#9a32cd" points="1412.16,-251 1402.16,-254.5 1412.16,-258 1412.16,-251"/>
</a>
</g>
<text text-anchor="start" x="1425" y="-260" font-family="Helvetica,sans-Serif" font-size="10.00" fill="grey">control</text>
</g>
<!-- Node22&#45;&gt;Node21 -->
<g id="edge23_Node000021_Node000022" class="edge">
<title>Node22&#45;&gt;Node21</title>
<g id="a_edge23_Node000021_Node000022"><a xlink:title=" ">
<path fill="none" stroke="#9a32cd" stroke-dasharray="5,2" d="M1210.37,-254.5C1234.9,-254.5 1262.24,-254.5 1285.69,-254.5"/>
<polygon fill="#9a32cd" stroke="#9a32cd" points="1210.05,-251 1200.05,-254.5 1210.05,-258 1210.05,-251"/>
</a>
</g>
<text text-anchor="start" x="1233" y="-260" font-family="Helvetica,sans-Serif" font-size="10.00" fill="grey">parent</text>
</g>
<!-- Node23&#45;&gt;Node22 -->
<g id="edge25_Node000022_Node000023" class="edge">
<title>Node23&#45;&gt;Node22</title>
<g id="a_edge25_Node000022_Node000023"><a xlink:title=" ">
<path fill="none" stroke="#9a32cd" stroke-dasharray="5,2" d="M1003.48,-266.75C1029.38,-264.42 1057.19,-261.92 1080.88,-259.78"/>
<polygon fill="#9a32cd" stroke="#9a32cd" points="1002.92,-263.29 993.28,-267.67 1003.55,-270.26 1002.92,-263.29"/>
</a>
</g>
<text text-anchor="start" x="1022" y="-272" font-family="Helvetica,sans-Serif" font-size="10.00" fill="grey">priv</text>
</g>
<!-- Node24 -->
<g id="Node000024" class="node">
<title>Node24</title>
<g id="a_Node000024"><a xlink:href="struct__PulseMonitor.html" target="_top" xlink:title=" ">
<polygon fill="white" stroke="#666666" points="581.5,-374 495.5,-374 495.5,-355 581.5,-355 581.5,-374"/>
<text text-anchor="middle" x="538.5" y="-362" font-family="Helvetica,sans-Serif" font-size="10.00">_PulseMonitor</text>
</a>
</g>
</g>
<!-- Node24&#45;&gt;Node23 -->
<g id="edge27_Node000023_Node000024" class="edge">
<title>Node24&#45;&gt;Node23</title>
<g id="a_edge27_Node000023_Node000024"><a xlink:title=" ">
<path fill="none" stroke="#9a32cd" stroke-dasharray="5,2" d="M563.13,-349.67C584.08,-337.29 615.92,-320.3 646,-311.5 721.51,-289.41 744.19,-304.17 822,-292.5 837.69,-290.15 854.77,-287.03 869.98,-284.05"/>
<polygon fill="#9a32cd" stroke="#9a32cd" points="561.07,-346.82 554.32,-354.99 564.69,-352.82 561.07,-346.82"/>
</a>
</g>
<text text-anchor="start" x="715" y="-317" font-family="Helvetica,sans-Serif" font-size="10.00" fill="grey">monitor</text>
</g>
<!-- Node25 -->
<g id="Node000025" class="node">
<title>Node25</title>
<g id="a_Node000025"><a xlink:title=" ">
<polygon fill="white" stroke="#666666" points="363,-392 243,-392 243,-373 363,-373 363,-392"/>
<text text-anchor="middle" x="303" y="-380" font-family="Helvetica,sans-Serif" font-size="10.00">_PulseMonitorPrivate</text>
</a>
</g>
</g>
<!-- Node25&#45;&gt;Node24 -->
<g id="edge28_Node000024_Node000025" class="edge">
<title>Node25&#45;&gt;Node24</title>
<g id="a_edge28_Node000024_Node000025"><a xlink:title=" ">
<path fill="none" stroke="#9a32cd" stroke-dasharray="5,2" d="M373.35,-377.15C412.96,-374.1 461.34,-370.37 495.28,-367.75"/>
<polygon fill="#9a32cd" stroke="#9a32cd" points="372.93,-373.68 363.22,-377.93 373.46,-380.66 372.93,-373.68"/>
</a>
</g>
<text text-anchor="start" x="401.5" y="-381" font-family="Helvetica,sans-Serif" font-size="10.00" fill="grey">priv</text>
</g>
<!-- Node26 -->
<g id="Node000026" class="node">
<title>Node26</title>
<g id="a_Node000026"><a xlink:href="struct__MateMixerAppInfo.html" target="_top" xlink:title=" ">
<polygon fill="white" stroke="#666666" points="594,-279 483,-279 483,-260 594,-260 594,-279"/>
<text text-anchor="middle" x="538.5" y="-267" font-family="Helvetica,sans-Serif" font-size="10.00">_MateMixerAppInfo</text>
</a>
</g>
</g>
<!-- Node26&#45;&gt;Node23 -->
<g id="edge29_Node000023_Node000026" class="edge">
<title>Node26&#45;&gt;Node23</title>
<g id="a_edge29_Node000023_Node000026"><a xlink:title=" ">
<path fill="none" stroke="#9a32cd" stroke-dasharray="5,2" d="M604.37,-270.36C669.85,-271.23 770.9,-272.58 839.96,-273.5"/>
<polygon fill="#9a32cd" stroke="#9a32cd" points="604.22,-266.86 594.17,-270.23 604.13,-273.86 604.22,-266.86"/>
</a>
</g>
<text text-anchor="start" x="713" y="-278" font-family="Helvetica,sans-Serif" font-size="10.00" fill="grey">app_info</text>
</g>
</g>
</svg>
