<?xml version="1.0" encoding="UTF-8" standalone="no"?>
<!DOCTYPE svg PUBLIC "-//W3C//DTD SVG 1.1//EN"
 "http://www.w3.org/Graphics/SVG/1.1/DTD/svg11.dtd">
<!-- Generated by graphviz version 2.43.0 (0)
 -->
<!-- Title: _EvJobSave Pages: 1 -->
<svg width="215pt" height="387pt"
 viewBox="0.00 0.00 215.00 387.00" xmlns="http://www.w3.org/2000/svg" xmlns:xlink="http://www.w3.org/1999/xlink">
<g id="graph0" class="graph" transform="scale(1 1) rotate(0) translate(4 383)">
<title>_EvJobSave</title>
<!-- Node1 -->
<g id="Node000001" class="node">
<title>Node1</title>
<g id="a_Node000001"><a xlink:title=" ">
<polygon fill="#999999" stroke="#666666" points="123,-19 50,-19 50,0 123,0 123,-19"/>
<text text-anchor="middle" x="86.5" y="-7" font-family="Helvetica,sans-Serif" font-size="10.00">_EvJobSave</text>
</a>
</g>
</g>
<!-- Node2 -->
<g id="Node000002" class="node">
<title>Node2</title>
<g id="a_Node000002"><a xlink:href="struct__EvJob.html" target="_top" xlink:title=" ">
<polygon fill="white" stroke="#666666" points="111,-91 62,-91 62,-72 111,-72 111,-91"/>
<text text-anchor="middle" x="86.5" y="-79" font-family="Helvetica,sans-Serif" font-size="10.00">_EvJob</text>
</a>
</g>
</g>
<!-- Node2&#45;&gt;Node1 -->
<g id="edge1_Node000001_Node000002" class="edge">
<title>Node2&#45;&gt;Node1</title>
<g id="a_edge1_Node000001_Node000002"><a xlink:title=" ">
<path fill="none" stroke="#9a32cd" stroke-dasharray="5,2" d="M86.5,-61.58C86.5,-47.76 86.5,-29.68 86.5,-19.15"/>
<polygon fill="#9a32cd" stroke="#9a32cd" points="83,-61.92 86.5,-71.92 90,-61.92 83,-61.92"/>
</a>
</g>
<text text-anchor="start" x="89.5" y="-42.5" font-family="Helvetica,sans-Serif" font-size="10.00" fill="grey">parent</text>
</g>
<!-- Node3 -->
<g id="Node000003" class="node">
<title>Node3</title>
<g id="a_Node000003"><a xlink:href="struct__EvDocument.html" target="_top" xlink:title=" ">
<polygon fill="white" stroke="#666666" points="128.5,-163 44.5,-163 44.5,-144 128.5,-144 128.5,-163"/>
<text text-anchor="middle" x="86.5" y="-151" font-family="Helvetica,sans-Serif" font-size="10.00">_EvDocument</text>
</a>
</g>
</g>
<!-- Node3&#45;&gt;Node2 -->
<g id="edge2_Node000002_Node000003" class="edge">
<title>Node3&#45;&gt;Node2</title>
<g id="a_edge2_Node000002_Node000003"><a xlink:title=" ">
<path fill="none" stroke="#9a32cd" stroke-dasharray="5,2" d="M86.5,-133.58C86.5,-119.76 86.5,-101.68 86.5,-91.15"/>
<polygon fill="#9a32cd" stroke="#9a32cd" points="83,-133.92 86.5,-143.92 90,-133.92 83,-133.92"/>
</a>
</g>
<text text-anchor="start" x="90" y="-114.5" font-family="Helvetica,sans-Serif" font-size="10.00" fill="grey">document</text>
</g>
<!-- Node4 -->
<g id="Node000004" class="node">
<title>Node4</title>
<g id="a_Node000004"><a xlink:title=" ">
<polygon fill="white" stroke="#666666" points="146,-235 27,-235 27,-216 146,-216 146,-235"/>
<text text-anchor="middle" x="86.5" y="-223" font-family="Helvetica,sans-Serif" font-size="10.00">_EvDocumentPrivate</text>
</a>
</g>
</g>
<!-- Node4&#45;&gt;Node3 -->
<g id="edge3_Node000003_Node000004" class="edge">
<title>Node4&#45;&gt;Node3</title>
<g id="a_edge3_Node000003_Node000004"><a xlink:title=" ">
<path fill="none" stroke="#9a32cd" stroke-dasharray="5,2" d="M86.5,-205.58C86.5,-191.76 86.5,-173.68 86.5,-163.15"/>
<polygon fill="#9a32cd" stroke="#9a32cd" points="83,-205.92 86.5,-215.92 90,-205.92 83,-205.92"/>
</a>
</g>
<text text-anchor="start" x="90" y="-186.5" font-family="Helvetica,sans-Serif" font-size="10.00" fill="grey">priv</text>
</g>
<!-- Node5 -->
<g id="Node000005" class="node">
<title>Node5</title>
<g id="a_Node000005"><a xlink:title=" ">
<polygon fill="white" stroke="#666666" points="77,-307 0,-307 0,-288 77,-288 77,-307"/>
<text text-anchor="middle" x="38.5" y="-295" font-family="Helvetica,sans-Serif" font-size="10.00">_EvPageSize</text>
</a>
</g>
</g>
<!-- Node5&#45;&gt;Node4 -->
<g id="edge4_Node000004_Node000005" class="edge">
<title>Node5&#45;&gt;Node4</title>
<g id="a_edge4_Node000004_Node000005"><a xlink:title=" ">
<path fill="none" stroke="#9a32cd" stroke-dasharray="5,2" d="M41.4,-277.74C43.31,-269.61 46.43,-260.3 51.5,-253 56.54,-245.74 64.2,-239.61 71.07,-235.09"/>
<polygon fill="#9a32cd" stroke="#9a32cd" points="37.91,-277.32 39.48,-287.8 44.79,-278.63 37.91,-277.32"/>
</a>
</g>
<text text-anchor="start" x="55" y="-258.5" font-family="Helvetica,sans-Serif" font-size="10.00" fill="grey">page_sizes</text>
</g>
<!-- Node6 -->
<g id="Node000006" class="node">
<title>Node6</title>
<g id="a_Node000006"><a xlink:href="struct__EvDocumentInfo.html" target="_top" xlink:title=" ">
<polygon fill="white" stroke="#666666" points="198,-307 95,-307 95,-288 198,-288 198,-307"/>
<text text-anchor="middle" x="146.5" y="-295" font-family="Helvetica,sans-Serif" font-size="10.00">_EvDocumentInfo</text>
</a>
</g>
</g>
<!-- Node6&#45;&gt;Node4 -->
<g id="edge5_Node000004_Node000006" class="edge">
<title>Node6&#45;&gt;Node4</title>
<g id="a_edge5_Node000004_Node000006"><a xlink:title=" ">
<path fill="none" stroke="#9a32cd" stroke-dasharray="5,2" d="M134.16,-279.82C127.89,-271.58 120.02,-261.58 112.5,-253 107.06,-246.8 100.56,-240.17 95.42,-235.1"/>
<polygon fill="#9a32cd" stroke="#9a32cd" points="131.45,-282.04 140.25,-287.94 137.05,-277.84 131.45,-282.04"/>
</a>
</g>
<text text-anchor="start" x="129" y="-258.5" font-family="Helvetica,sans-Serif" font-size="10.00" fill="grey">info</text>
</g>
<!-- Node7 -->
<g id="Node000007" class="node">
<title>Node7</title>
<g id="a_Node000007"><a xlink:href="struct__EvDocumentLicense.html" target="_top" xlink:title=" ">
<polygon fill="white" stroke="#666666" points="207,-379 86,-379 86,-360 207,-360 207,-379"/>
<text text-anchor="middle" x="146.5" y="-367" font-family="Helvetica,sans-Serif" font-size="10.00">_EvDocumentLicense</text>
</a>
</g>
</g>
<!-- Node7&#45;&gt;Node6 -->
<g id="edge6_Node000006_Node000007" class="edge">
<title>Node7&#45;&gt;Node6</title>
<g id="a_edge6_Node000006_Node000007"><a xlink:title=" ">
<path fill="none" stroke="#9a32cd" stroke-dasharray="5,2" d="M146.5,-349.58C146.5,-335.76 146.5,-317.68 146.5,-307.15"/>
<polygon fill="#9a32cd" stroke="#9a32cd" points="143,-349.92 146.5,-359.92 150,-349.92 143,-349.92"/>
</a>
</g>
<text text-anchor="start" x="150" y="-330.5" font-family="Helvetica,sans-Serif" font-size="10.00" fill="grey">license</text>
</g>
</g>
</svg>
