<?xml version="1.0" encoding="UTF-8" standalone="no"?>
<!DOCTYPE svg PUBLIC "-//W3C//DTD SVG 1.1//EN"
 "http://www.w3.org/Graphics/SVG/1.1/DTD/svg11.dtd">
<!-- Generated by graphviz version 2.43.0 (0)
 -->
<!-- Title: ViewerData Pages: 1 -->
<svg width="898pt" height="633pt"
 viewBox="0.00 0.00 898.00 633.00" xmlns="http://www.w3.org/2000/svg" xmlns:xlink="http://www.w3.org/1999/xlink">
<g id="graph0" class="graph" transform="scale(1 1) rotate(0) translate(4 629)">
<title>ViewerData</title>
<!-- Node1 -->
<g id="Node000001" class="node">
<title>Node1</title>
<g id="a_Node000001"><a xlink:title=" ">
<polygon fill="#999999" stroke="#666666" points="80.5,-19 6.5,-19 6.5,0 80.5,0 80.5,-19"/>
<text text-anchor="middle" x="43.5" y="-7" font-family="Helvetica,sans-Serif" font-size="10.00">ViewerData</text>
</a>
</g>
</g>
<!-- Node2 -->
<g id="Node000002" class="node">
<title>Node2</title>
<g id="a_Node000002"><a xlink:href="struct__FrWindow.html" target="_top" xlink:title=" ">
<polygon fill="white" stroke="#666666" points="134.5,-91 64.5,-91 64.5,-72 134.5,-72 134.5,-91"/>
<text text-anchor="middle" x="99.5" y="-79" font-family="Helvetica,sans-Serif" font-size="10.00">_FrWindow</text>
</a>
</g>
</g>
<!-- Node2&#45;&gt;Node1 -->
<g id="edge1_Node000001_Node000002" class="edge">
<title>Node2&#45;&gt;Node1</title>
<g id="a_edge1_Node000001_Node000002"><a xlink:title=" ">
<path fill="none" stroke="#9a32cd" stroke-dasharray="5,2" d="M86.31,-64.01C75.07,-49.96 59.35,-30.32 50.42,-19.15"/>
<polygon fill="#9a32cd" stroke="#9a32cd" points="83.65,-66.29 92.63,-71.92 89.12,-61.92 83.65,-66.29"/>
</a>
</g>
<text text-anchor="start" x="81.5" y="-42.5" font-family="Helvetica,sans-Serif" font-size="10.00" fill="grey">window</text>
</g>
<!-- Node3 -->
<g id="Node000003" class="node">
<title>Node3</title>
<g id="a_Node000003"><a xlink:href="struct__FrArchive.html" target="_top" xlink:title=" ">
<polygon fill="white" stroke="#666666" points="307.5,-322 239.5,-322 239.5,-303 307.5,-303 307.5,-322"/>
<text text-anchor="middle" x="273.5" y="-310" font-family="Helvetica,sans-Serif" font-size="10.00">_FrArchive</text>
</a>
</g>
</g>
<!-- Node3&#45;&gt;Node2 -->
<g id="edge2_Node000002_Node000003" class="edge">
<title>Node3&#45;&gt;Node2</title>
<g id="a_edge2_Node000002_Node000003"><a xlink:title=" ">
<path fill="none" stroke="#9a32cd" stroke-dasharray="5,2" d="M229.09,-306.66C193.04,-300.19 144.15,-285.11 118.5,-250 81.9,-199.9 92.89,-117.91 97.75,-91.2"/>
<polygon fill="#9a32cd" stroke="#9a32cd" points="228.92,-310.18 239.35,-308.33 230.04,-303.27 228.92,-310.18"/>
</a>
</g>
<text text-anchor="start" x="105" y="-194" font-family="Helvetica,sans-Serif" font-size="10.00" fill="grey">archive</text>
</g>
<!-- Node9 -->
<g id="Node000009" class="node">
<title>Node9</title>
<g id="a_Node000009"><a xlink:title=" ">
<polygon fill="white" stroke="#666666" points="341.5,-163 231.5,-163 231.5,-144 341.5,-144 341.5,-163"/>
<text text-anchor="middle" x="286.5" y="-151" font-family="Helvetica,sans-Serif" font-size="10.00">_FrArchivePrivData</text>
</a>
</g>
</g>
<!-- Node3&#45;&gt;Node9 -->
<g id="edge12_Node000009_Node000003" class="edge">
<title>Node3&#45;&gt;Node9</title>
<g id="a_edge12_Node000009_Node000003"><a xlink:title=" ">
<path fill="none" stroke="#9a32cd" stroke-dasharray="5,2" d="M272.59,-292.16C272.04,-275.83 271.74,-251.84 273.5,-231 275.58,-206.3 281.39,-177.59 284.49,-163.39"/>
<polygon fill="#9a32cd" stroke="#9a32cd" points="269.11,-292.69 273.01,-302.55 276.1,-292.41 269.11,-292.69"/>
</a>
</g>
<text text-anchor="start" x="276.5" y="-237.5" font-family="Helvetica,sans-Serif" font-size="10.00" fill="grey">fake_load_func</text>
</g>
<!-- Node10 -->
<g id="Node000010" class="node">
<title>Node10</title>
<g id="a_Node000010"><a xlink:title=" ">
<polygon fill="white" stroke="#666666" points="237,-250 128,-250 128,-231 237,-231 237,-250"/>
<text text-anchor="middle" x="182.5" y="-238" font-family="Helvetica,sans-Serif" font-size="10.00">DroppedItemsData</text>
</a>
</g>
</g>
<!-- Node3&#45;&gt;Node10 -->
<g id="edge14_Node000010_Node000003" class="edge">
<title>Node3&#45;&gt;Node10</title>
<g id="a_edge14_Node000010_Node000003"><a xlink:title=" ">
<path fill="none" stroke="#9a32cd" stroke-dasharray="5,2" d="M239.56,-298.92C231.57,-295.11 223.38,-290.46 216.5,-285 204.04,-275.1 193.44,-259.75 187.53,-250.18"/>
<polygon fill="#9a32cd" stroke="#9a32cd" points="238.21,-302.14 248.77,-302.99 241.04,-295.74 238.21,-302.14"/>
</a>
</g>
<text text-anchor="start" x="220" y="-273.5" font-family="Helvetica,sans-Serif" font-size="10.00" fill="grey">archive</text>
</g>
<!-- Node11 -->
<g id="Node000011" class="node">
<title>Node11</title>
<g id="a_Node000011"><a xlink:title=" ">
<polygon fill="white" stroke="#666666" points="650.5,-163 522.5,-163 522.5,-144 650.5,-144 650.5,-163"/>
<text text-anchor="middle" x="586.5" y="-151" font-family="Helvetica,sans-Serif" font-size="10.00">_FrWindowPrivateData</text>
</a>
</g>
</g>
<!-- Node3&#45;&gt;Node11 -->
<g id="edge20_Node000011_Node000003" class="edge">
<title>Node3&#45;&gt;Node11</title>
<g id="a_edge20_Node000011_Node000003"><a xlink:title=" ">
<path fill="none" stroke="#9a32cd" stroke-dasharray="5,2" d="M317.75,-308.69C404,-302.48 590.78,-285.27 643.5,-250 670.37,-232.02 685.43,-207.21 666.5,-181 660.59,-172.82 652.05,-167.12 642.74,-163.16"/>
<polygon fill="#9a32cd" stroke="#9a32cd" points="317.48,-305.2 307.75,-309.39 317.97,-312.18 317.48,-305.2"/>
</a>
</g>
<text text-anchor="start" x="666.5" y="-237.5" font-family="Helvetica,sans-Serif" font-size="10.00" fill="grey">copy_from_archive</text>
</g>
<!-- Node13 -->
<g id="Node000013" class="node">
<title>Node13</title>
<g id="a_Node000013"><a xlink:title=" ">
<polygon fill="white" stroke="#666666" points="890,-250 799,-250 799,-231 890,-231 890,-250"/>
<text text-anchor="middle" x="844.5" y="-238" font-family="Helvetica,sans-Serif" font-size="10.00">FRConvertData</text>
</a>
</g>
</g>
<!-- Node3&#45;&gt;Node13 -->
<g id="edge18_Node000013_Node000003" class="edge">
<title>Node3&#45;&gt;Node13</title>
<g id="a_edge18_Node000013_Node000003"><a xlink:title=" ">
<path fill="none" stroke="#9a32cd" stroke-dasharray="5,2" d="M317.94,-311.89C395.13,-311.86 558.75,-308.66 694.5,-285 740.18,-277.04 791.76,-260.3 820.98,-250.07"/>
<polygon fill="#9a32cd" stroke="#9a32cd" points="317.63,-308.39 307.63,-311.87 317.62,-315.39 317.63,-308.39"/>
</a>
</g>
<text text-anchor="start" x="767.5" y="-273.5" font-family="Helvetica,sans-Serif" font-size="10.00" fill="grey">new_archive</text>
</g>
<!-- Node4 -->
<g id="Node000004" class="node">
<title>Node4</title>
<g id="a_Node000004"><a xlink:href="struct__FrCommand.html" target="_top" xlink:title=" ">
<polygon fill="white" stroke="#666666" points="201,-394 120,-394 120,-375 201,-375 201,-394"/>
<text text-anchor="middle" x="160.5" y="-382" font-family="Helvetica,sans-Serif" font-size="10.00">_FrCommand</text>
</a>
</g>
</g>
<!-- Node4&#45;&gt;Node3 -->
<g id="edge3_Node000003_Node000004" class="edge">
<title>Node4&#45;&gt;Node3</title>
<g id="a_edge3_Node000003_Node000004"><a xlink:title=" ">
<path fill="none" stroke="#9a32cd" stroke-dasharray="5,2" d="M159.59,-364.71C160.17,-356.18 162.37,-346.55 168.5,-340 186.49,-320.79 216.21,-314.67 239.44,-313.06"/>
<polygon fill="#9a32cd" stroke="#9a32cd" points="156.08,-364.94 159.56,-374.95 163.08,-364.96 156.08,-364.94"/>
</a>
</g>
<text text-anchor="start" x="172" y="-345.5" font-family="Helvetica,sans-Serif" font-size="10.00" fill="grey">command</text>
</g>
<!-- Node5 -->
<g id="Node000005" class="node">
<title>Node5</title>
<g id="a_Node000005"><a xlink:href="struct__FrProcess.html" target="_top" xlink:title=" ">
<polygon fill="white" stroke="#666666" points="197.5,-466 129.5,-466 129.5,-447 197.5,-447 197.5,-466"/>
<text text-anchor="middle" x="163.5" y="-454" font-family="Helvetica,sans-Serif" font-size="10.00">_FrProcess</text>
</a>
</g>
</g>
<!-- Node5&#45;&gt;Node1 -->
<g id="edge21_Node000001_Node000005" class="edge">
<title>Node5&#45;&gt;Node1</title>
<g id="a_edge21_Node000001_Node000005"><a xlink:title=" ">
<path fill="none" stroke="#9a32cd" stroke-dasharray="5,2" d="M119.14,-451.05C79.45,-444.34 27.5,-427.52 27.5,-385.5 27.5,-385.5 27.5,-385.5 27.5,-80.5 27.5,-58.06 35.41,-32.57 40.11,-19.41"/>
<polygon fill="#9a32cd" stroke="#9a32cd" points="118.77,-454.54 129.18,-452.59 119.83,-447.62 118.77,-454.54"/>
</a>
</g>
<text text-anchor="start" x="30.5" y="-237.5" font-family="Helvetica,sans-Serif" font-size="10.00" fill="grey">process</text>
</g>
<!-- Node5&#45;&gt;Node3 -->
<g id="edge9_Node000003_Node000005" class="edge">
<title>Node5&#45;&gt;Node3</title>
<g id="a_edge9_Node000003_Node000005"><a xlink:title=" ">
<path fill="none" stroke="#9a32cd" stroke-dasharray="5,2" d="M192.32,-442.11C198.44,-438.43 204.55,-434.03 209.5,-429 242.13,-395.82 263.25,-342.64 270.6,-322.04"/>
<polygon fill="#9a32cd" stroke="#9a32cd" points="190.52,-439.1 183.46,-447 193.9,-445.23 190.52,-439.1"/>
</a>
</g>
<text text-anchor="start" x="249.5" y="-381.5" font-family="Helvetica,sans-Serif" font-size="10.00" fill="grey">process</text>
</g>
<!-- Node5&#45;&gt;Node4 -->
<g id="edge4_Node000004_Node000005" class="edge">
<title>Node5&#45;&gt;Node4</title>
<g id="a_edge4_Node000004_Node000005"><a xlink:title=" ">
<path fill="none" stroke="#9a32cd" stroke-dasharray="5,2" d="M162.69,-436.58C162.1,-422.76 161.32,-404.68 160.87,-394.15"/>
<polygon fill="#9a32cd" stroke="#9a32cd" points="159.21,-437.08 163.13,-446.92 166.2,-436.78 159.21,-437.08"/>
</a>
</g>
<text text-anchor="start" x="164.5" y="-417.5" font-family="Helvetica,sans-Serif" font-size="10.00" fill="grey">process</text>
</g>
<!-- Node6 -->
<g id="Node000006" class="node">
<title>Node6</title>
<g id="a_Node000006"><a xlink:href="structFrChannelData.html" target="_top" xlink:title=" ">
<polygon fill="white" stroke="#666666" points="210,-553 121,-553 121,-534 210,-534 210,-553"/>
<text text-anchor="middle" x="165.5" y="-541" font-family="Helvetica,sans-Serif" font-size="10.00">FrChannelData</text>
</a>
</g>
</g>
<!-- Node6&#45;&gt;Node5 -->
<g id="edge5_Node000005_Node000006" class="edge">
<title>Node6&#45;&gt;Node5</title>
<g id="a_edge5_Node000005_Node000006"><a xlink:title=" ">
<path fill="none" stroke="#9a32cd" stroke-dasharray="5,2" d="M165.06,-523.62C164.64,-505.79 164.03,-479.83 163.71,-466.36"/>
<polygon fill="#9a32cd" stroke="#9a32cd" points="161.56,-523.81 165.29,-533.72 168.56,-523.64 161.56,-523.81"/>
</a>
</g>
<text text-anchor="start" x="167.5" y="-505" font-family="Helvetica,sans-Serif" font-size="10.00" fill="grey">err</text>
<text text-anchor="start" x="167.5" y="-490" font-family="Helvetica,sans-Serif" font-size="10.00" fill="grey">out</text>
</g>
<!-- Node7 -->
<g id="Node000007" class="node">
<title>Node7</title>
<g id="a_Node000007"><a xlink:href="structFrProcError.html" target="_top" xlink:title=" ">
<polygon fill="white" stroke="#666666" points="281.5,-625 211.5,-625 211.5,-606 281.5,-606 281.5,-625"/>
<text text-anchor="middle" x="246.5" y="-613" font-family="Helvetica,sans-Serif" font-size="10.00">FrProcError</text>
</a>
</g>
</g>
<!-- Node7&#45;&gt;Node3 -->
<g id="edge10_Node000003_Node000007" class="edge">
<title>Node7&#45;&gt;Node3</title>
<g id="a_edge10_Node000003_Node000007"><a xlink:title=" ">
<path fill="none" stroke="#9a32cd" stroke-dasharray="5,2" d="M271.23,-600.17C288.88,-587.91 309.5,-568.45 309.5,-544.5 309.5,-544.5 309.5,-544.5 309.5,-383.5 309.5,-359.17 292.1,-334.83 281.49,-322.26"/>
<polygon fill="#9a32cd" stroke="#9a32cd" points="268.87,-597.53 262.4,-605.92 272.69,-603.4 268.87,-597.53"/>
</a>
</g>
<text text-anchor="start" x="312.5" y="-453.5" font-family="Helvetica,sans-Serif" font-size="10.00" fill="grey">error</text>
</g>
<!-- Node7&#45;&gt;Node5 -->
<g id="edge6_Node000005_Node000007" class="edge">
<title>Node7&#45;&gt;Node5</title>
<g id="a_edge6_Node000005_Node000007"><a xlink:title=" ">
<path fill="none" stroke="#9a32cd" stroke-dasharray="5,2" d="M241.74,-595.81C234.23,-568.98 217.62,-518.93 190.5,-484 185.42,-477.46 178.8,-470.94 173.39,-466"/>
<polygon fill="#9a32cd" stroke="#9a32cd" points="238.44,-597.02 244.41,-605.78 245.2,-595.21 238.44,-597.02"/>
</a>
</g>
<text text-anchor="start" x="229.5" y="-540.5" font-family="Helvetica,sans-Serif" font-size="10.00" fill="grey">error</text>
</g>
<!-- Node8 -->
<g id="Node000008" class="node">
<title>Node8</title>
<g id="a_Node000008"><a xlink:title=" ">
<polygon fill="white" stroke="#666666" points="103,-553 0,-553 0,-534 103,-534 103,-553"/>
<text text-anchor="middle" x="51.5" y="-541" font-family="Helvetica,sans-Serif" font-size="10.00">_FrProcessPrivate</text>
</a>
</g>
</g>
<!-- Node7&#45;&gt;Node8 -->
<g id="edge8_Node000008_Node000007" class="edge">
<title>Node7&#45;&gt;Node8</title>
<g id="a_edge8_Node000008_Node000007"><a xlink:title=" ">
<path fill="none" stroke="#9a32cd" stroke-dasharray="5,2" d="M212.94,-602.45C173.71,-588.37 109.76,-565.41 75.3,-553.04"/>
<polygon fill="#9a32cd" stroke="#9a32cd" points="211.99,-605.83 222.59,-605.92 214.36,-599.24 211.99,-605.83"/>
</a>
</g>
<text text-anchor="start" x="174.5" y="-576.5" font-family="Helvetica,sans-Serif" font-size="10.00" fill="grey">first_error</text>
</g>
<!-- Node8&#45;&gt;Node5 -->
<g id="edge7_Node000005_Node000008" class="edge">
<title>Node8&#45;&gt;Node5</title>
<g id="a_edge7_Node000005_Node000008"><a xlink:title=" ">
<path fill="none" stroke="#9a32cd" stroke-dasharray="5,2" d="M71.27,-527.5C94.77,-509.66 133.19,-480.5 152.17,-466.1"/>
<polygon fill="#9a32cd" stroke="#9a32cd" points="68.91,-524.89 63.06,-533.72 73.15,-530.47 68.91,-524.89"/>
</a>
</g>
<text text-anchor="start" x="131" y="-497" font-family="Helvetica,sans-Serif" font-size="10.00" fill="grey">priv</text>
</g>
<!-- Node9&#45;&gt;Node3 -->
<g id="edge11_Node000003_Node000009" class="edge">
<title>Node9&#45;&gt;Node3</title>
<g id="a_edge11_Node000003_Node000009"><a xlink:title=" ">
<path fill="none" stroke="#9a32cd" stroke-dasharray="5,2" d="M309.79,-168.49C336.17,-186.24 373.54,-218.38 357.5,-250 344.42,-275.79 314.88,-293.37 294.56,-302.92"/>
<polygon fill="#9a32cd" stroke="#9a32cd" points="311.66,-165.52 301.36,-163.04 307.86,-171.4 311.66,-165.52"/>
</a>
</g>
<text text-anchor="start" x="364" y="-237.5" font-family="Helvetica,sans-Serif" font-size="10.00" fill="grey">priv</text>
</g>
<!-- Node10&#45;&gt;Node9 -->
<g id="edge13_Node000009_Node000010" class="edge">
<title>Node10&#45;&gt;Node9</title>
<g id="a_edge13_Node000009_Node000010"><a xlink:title=" ">
<path fill="none" stroke="#9a32cd" stroke-dasharray="5,2" d="M170.21,-221.92C163.07,-209.34 157.15,-192.64 166.5,-181 174.88,-170.56 203.89,-163.99 231.28,-160"/>
<polygon fill="#9a32cd" stroke="#9a32cd" points="167.38,-224 175.68,-230.59 173.3,-220.26 167.38,-224"/>
</a>
</g>
<text text-anchor="start" x="169.5" y="-194" font-family="Helvetica,sans-Serif" font-size="10.00" fill="grey">dropped_items_data</text>
</g>
<!-- Node11&#45;&gt;Node2 -->
<g id="edge15_Node000002_Node000011" class="edge">
<title>Node11&#45;&gt;Node2</title>
<g id="a_edge15_Node000002_Node000011"><a xlink:title=" ">
<path fill="none" stroke="#9a32cd" stroke-dasharray="5,2" d="M517.36,-142.56C411.89,-127.4 214.63,-99.05 134.59,-87.54"/>
<polygon fill="#9a32cd" stroke="#9a32cd" points="516.87,-146.03 527.27,-143.99 517.87,-139.1 516.87,-146.03"/>
</a>
</g>
<text text-anchor="start" x="404" y="-114.5" font-family="Helvetica,sans-Serif" font-size="10.00" fill="grey">priv</text>
</g>
<!-- Node12 -->
<g id="Node000012" class="node">
<title>Node12</title>
<g id="a_Node000012"><a xlink:title=" ">
<polygon fill="white" stroke="#666666" points="520.5,-250 432.5,-250 432.5,-231 520.5,-231 520.5,-250"/>
<text text-anchor="middle" x="476.5" y="-238" font-family="Helvetica,sans-Serif" font-size="10.00">FRBatchAction</text>
</a>
</g>
</g>
<!-- Node12&#45;&gt;Node11 -->
<g id="edge16_Node000011_Node000012" class="edge">
<title>Node12&#45;&gt;Node11</title>
<g id="a_edge16_Node000011_Node000012"><a xlink:title=" ">
<path fill="none" stroke="#9a32cd" stroke-dasharray="5,2" d="M469.71,-221.01C466.36,-208.42 464.71,-192.1 473.5,-181 480.13,-172.63 500.65,-166.65 522.41,-162.51"/>
<polygon fill="#9a32cd" stroke="#9a32cd" points="466.48,-222.42 472.86,-230.89 473.15,-220.3 466.48,-222.42"/>
</a>
</g>
<text text-anchor="start" x="477" y="-194" font-family="Helvetica,sans-Serif" font-size="10.00" fill="grey">current_batch_action</text>
</g>
<!-- Node13&#45;&gt;Node11 -->
<g id="edge17_Node000011_Node000013" class="edge">
<title>Node13&#45;&gt;Node11</title>
<g id="a_edge17_Node000011_Node000013"><a xlink:title=" ">
<path fill="none" stroke="#9a32cd" stroke-dasharray="5,2" d="M815.49,-226.87C785.57,-214.16 737.36,-194.55 694.5,-181 672.32,-173.99 647.09,-167.7 626.6,-163.02"/>
<polygon fill="#9a32cd" stroke="#9a32cd" points="814.33,-230.18 824.9,-230.9 817.08,-223.75 814.33,-230.18"/>
</a>
</g>
<text text-anchor="start" x="783.5" y="-194" font-family="Helvetica,sans-Serif" font-size="10.00" fill="grey">convert_data</text>
</g>
<!-- Node14 -->
<g id="Node000014" class="node">
<title>Node14</title>
<g id="a_Node000014"><a xlink:title=" ">
<polygon fill="white" stroke="#666666" points="634,-250 539,-250 539,-231 634,-231 634,-250"/>
<text text-anchor="middle" x="586.5" y="-238" font-family="Helvetica,sans-Serif" font-size="10.00">FrClipboardData</text>
</a>
</g>
</g>
<!-- Node14&#45;&gt;Node11 -->
<g id="edge19_Node000011_Node000014" class="edge">
<title>Node14&#45;&gt;Node11</title>
<g id="a_edge19_Node000011_Node000014"><a xlink:title=" ">
<path fill="none" stroke="#9a32cd" stroke-dasharray="5,2" d="M586.5,-220.62C586.5,-202.79 586.5,-176.83 586.5,-163.36"/>
<polygon fill="#9a32cd" stroke="#9a32cd" points="583,-220.72 586.5,-230.72 590,-220.72 583,-220.72"/>
</a>
</g>
<text text-anchor="start" x="590" y="-202" font-family="Helvetica,sans-Serif" font-size="10.00" fill="grey">clipboard_data</text>
<text text-anchor="start" x="590" y="-187" font-family="Helvetica,sans-Serif" font-size="10.00" fill="grey">copy_data</text>
</g>
</g>
</svg>
