<?xml version="1.0" encoding="UTF-8" standalone="no"?>
<!DOCTYPE svg PUBLIC "-//W3C//DTD SVG 1.1//EN"
 "http://www.w3.org/Graphics/SVG/1.1/DTD/svg11.dtd">
<!-- Generated by graphviz version 2.43.0 (0)
 -->
<!-- Title: ApplicationTile Pages: 1 -->
<svg width="219pt" height="186pt"
 viewBox="0.00 0.00 218.50 186.00" xmlns="http://www.w3.org/2000/svg" xmlns:xlink="http://www.w3.org/1999/xlink">
<g id="graph0" class="graph" transform="scale(1 1) rotate(0) translate(4 182)">
<title>ApplicationTile</title>
<!-- Node1 -->
<g id="Node000001" class="node">
<title>Node1</title>
<g id="a_Node000001"><a xlink:title=" ">
<polygon fill="#999999" stroke="#666666" points="89,-19 0,-19 0,0 89,0 89,-19"/>
<text text-anchor="middle" x="44.5" y="-7" font-family="Helvetica,sans-Serif" font-size="10.00">ApplicationTile</text>
</a>
</g>
</g>
<!-- Node2 -->
<g id="Node000002" class="node">
<title>Node2</title>
<g id="a_Node000002"><a xlink:href="structNameplateTile.html" target="_top" xlink:title=" ">
<polygon fill="white" stroke="#666666" points="89,-91 0,-91 0,-72 89,-72 89,-91"/>
<text text-anchor="middle" x="44.5" y="-79" font-family="Helvetica,sans-Serif" font-size="10.00">NameplateTile</text>
</a>
</g>
</g>
<!-- Node2&#45;&gt;Node1 -->
<g id="edge1_Node000001_Node000002" class="edge">
<title>Node2&#45;&gt;Node1</title>
<g id="a_edge1_Node000001_Node000002"><a xlink:title=" ">
<path fill="none" stroke="#9a32cd" stroke-dasharray="5,2" d="M44.5,-61.58C44.5,-47.76 44.5,-29.68 44.5,-19.15"/>
<polygon fill="#9a32cd" stroke="#9a32cd" points="41,-61.92 44.5,-71.92 48,-61.92 41,-61.92"/>
</a>
</g>
<text text-anchor="start" x="47.5" y="-42.5" font-family="Helvetica,sans-Serif" font-size="10.00" fill="grey">nameplate_tile</text>
</g>
<!-- Node3 -->
<g id="Node000003" class="node">
<title>Node3</title>
<g id="a_Node000003"><a xlink:href="struct__Tile.html" target="_top" xlink:title=" ">
<polygon fill="white" stroke="#666666" points="111.5,-178 71.5,-178 71.5,-159 111.5,-159 111.5,-178"/>
<text text-anchor="middle" x="91.5" y="-166" font-family="Helvetica,sans-Serif" font-size="10.00">_Tile</text>
</a>
</g>
</g>
<!-- Node3&#45;&gt;Node2 -->
<g id="edge2_Node000002_Node000003" class="edge">
<title>Node3&#45;&gt;Node2</title>
<g id="a_edge2_Node000002_Node000003"><a xlink:title=" ">
<path fill="none" stroke="#9a32cd" stroke-dasharray="5,2" d="M62.03,-155.26C56.3,-151.53 50.99,-146.82 47.5,-141 38.19,-125.47 40.38,-103.26 42.57,-91.16"/>
<polygon fill="#9a32cd" stroke="#9a32cd" points="60.75,-158.55 71.19,-160.35 64.15,-152.43 60.75,-158.55"/>
</a>
</g>
<text text-anchor="start" x="50.5" y="-122" font-family="Helvetica,sans-Serif" font-size="10.00" fill="grey">tile</text>
</g>
<!-- Node4 -->
<g id="Node000004" class="node">
<title>Node4</title>
<g id="a_Node000004"><a xlink:href="struct__TileAction.html" target="_top" xlink:title=" ">
<polygon fill="white" stroke="#666666" points="178,-91 107,-91 107,-72 178,-72 178,-91"/>
<text text-anchor="middle" x="142.5" y="-79" font-family="Helvetica,sans-Serif" font-size="10.00">_TileAction</text>
</a>
</g>
</g>
<!-- Node3&#45;&gt;Node4 -->
<g id="edge4_Node000004_Node000003" class="edge">
<title>Node3&#45;&gt;Node4</title>
<g id="a_edge4_Node000004_Node000003"><a xlink:title=" ">
<path fill="none" stroke="#9a32cd" stroke-dasharray="5,2" d="M85.42,-149.17C82.52,-136.9 81.1,-120.88 88.5,-109 93.64,-100.76 102.17,-95.01 110.95,-91.02"/>
<polygon fill="#9a32cd" stroke="#9a32cd" points="82.06,-150.14 88.17,-158.8 88.79,-148.22 82.06,-150.14"/>
</a>
</g>
<text text-anchor="start" x="91.5" y="-130" font-family="Helvetica,sans-Serif" font-size="10.00" fill="grey">func</text>
<text text-anchor="start" x="91.5" y="-115" font-family="Helvetica,sans-Serif" font-size="10.00" fill="grey">tile</text>
</g>
<!-- Node4&#45;&gt;Node3 -->
<g id="edge3_Node000003_Node000004" class="edge">
<title>Node4&#45;&gt;Node3</title>
<g id="a_edge3_Node000003_Node000004"><a xlink:title=" ">
<path fill="none" stroke="#9a32cd" stroke-dasharray="5,2" d="M138,-100.88C134.49,-112.97 128.79,-128.75 120.5,-141 115.84,-147.89 109.03,-154.23 103.19,-158.98"/>
<polygon fill="#9a32cd" stroke="#9a32cd" points="141.44,-101.59 140.63,-91.03 134.67,-99.79 141.44,-101.59"/>
</a>
</g>
<text text-anchor="start" x="137.5" y="-130" font-family="Helvetica,sans-Serif" font-size="10.00" fill="grey">actions</text>
<text text-anchor="start" x="137.5" y="-115" font-family="Helvetica,sans-Serif" font-size="10.00" fill="grey">default_action</text>
</g>
</g>
</svg>
