<?xml version="1.0" encoding="UTF-8" standalone="no"?>
<!DOCTYPE svg PUBLIC "-//W3C//DTD SVG 1.1//EN"
 "http://www.w3.org/Graphics/SVG/1.1/DTD/svg11.dtd">
<!-- Generated by graphviz version 2.43.0 (0)
 -->
<!-- Title: GSThemeManager Pages: 1 -->
<svg width="592pt" height="286pt"
 viewBox="0.00 0.00 592.00 286.00" xmlns="http://www.w3.org/2000/svg" xmlns:xlink="http://www.w3.org/1999/xlink">
<g id="graph0" class="graph" transform="scale(1 1) rotate(0) translate(4 282)">
<title>GSThemeManager</title>
<!-- Node1 -->
<g id="Node000001" class="node">
<title>Node1</title>
<g id="a_Node000001"><a xlink:title=" ">
<polygon fill="#999999" stroke="#666666" points="124,-19 17,-19 17,0 124,0 124,-19"/>
<text text-anchor="middle" x="70.5" y="-7" font-family="Helvetica,sans-Serif" font-size="10.00">GSThemeManager</text>
</a>
</g>
</g>
<!-- Node2 -->
<g id="Node000002" class="node">
<title>Node2</title>
<g id="a_Node000002"><a xlink:title=" ">
<polygon fill="white" stroke="#666666" points="141,-91 0,-91 0,-72 141,-72 141,-91"/>
<text text-anchor="middle" x="70.5" y="-79" font-family="Helvetica,sans-Serif" font-size="10.00">GSThemeManagerPrivate</text>
</a>
</g>
</g>
<!-- Node2&#45;&gt;Node1 -->
<g id="edge1_Node000001_Node000002" class="edge">
<title>Node2&#45;&gt;Node1</title>
<g id="a_edge1_Node000001_Node000002"><a xlink:title=" ">
<path fill="none" stroke="#9a32cd" stroke-dasharray="5,2" d="M70.5,-61.58C70.5,-47.76 70.5,-29.68 70.5,-19.15"/>
<polygon fill="#9a32cd" stroke="#9a32cd" points="67,-61.92 70.5,-71.92 74,-61.92 67,-61.92"/>
</a>
</g>
<text text-anchor="start" x="74" y="-42.5" font-family="Helvetica,sans-Serif" font-size="10.00" fill="grey">priv</text>
</g>
<!-- Node3 -->
<g id="Node000003" class="node">
<title>Node3</title>
<g id="a_Node000003"><a xlink:title=" ">
<polygon fill="white" stroke="#666666" points="405.5,-163 311.5,-163 311.5,-144 405.5,-144 405.5,-163"/>
<text text-anchor="middle" x="358.5" y="-151" font-family="Helvetica,sans-Serif" font-size="10.00">_MateMenuTree</text>
</a>
</g>
</g>
<!-- Node3&#45;&gt;Node2 -->
<g id="edge2_Node000002_Node000003" class="edge">
<title>Node3&#45;&gt;Node2</title>
<g id="a_edge2_Node000002_Node000003"><a xlink:title=" ">
<path fill="none" stroke="#9a32cd" stroke-dasharray="5,2" d="M313.6,-141.59C256.2,-127.64 158.04,-103.78 105.73,-91.06"/>
<polygon fill="#9a32cd" stroke="#9a32cd" points="312.93,-145.03 323.47,-143.99 314.58,-138.22 312.93,-145.03"/>
</a>
</g>
<text text-anchor="start" x="253" y="-114.5" font-family="Helvetica,sans-Serif" font-size="10.00" fill="grey">menu_tree</text>
</g>
<!-- Node6 -->
<g id="Node000006" class="node">
<title>Node6</title>
<g id="a_Node000006"><a xlink:title=" ">
<polygon fill="white" stroke="#666666" points="414,-91 303,-91 303,-72 414,-72 414,-91"/>
<text text-anchor="middle" x="358.5" y="-79" font-family="Helvetica,sans-Serif" font-size="10.00">MateMenuTreeItem</text>
</a>
</g>
</g>
<!-- Node3&#45;&gt;Node6 -->
<g id="edge8_Node000006_Node000003" class="edge">
<title>Node3&#45;&gt;Node6</title>
<g id="a_edge8_Node000006_Node000003"><a xlink:title=" ">
<path fill="none" stroke="#9a32cd" stroke-dasharray="5,2" d="M358.5,-133.58C358.5,-119.76 358.5,-101.68 358.5,-91.15"/>
<polygon fill="#9a32cd" stroke="#9a32cd" points="355,-133.92 358.5,-143.92 362,-133.92 355,-133.92"/>
</a>
</g>
<text text-anchor="start" x="361.5" y="-114.5" font-family="Helvetica,sans-Serif" font-size="10.00" fill="grey">tree</text>
</g>
<!-- Node4 -->
<g id="Node000004" class="node">
<title>Node4</title>
<g id="a_Node000004"><a xlink:title=" ">
<polygon fill="white" stroke="#666666" points="409.5,-256.5 307.5,-256.5 307.5,-237.5 409.5,-237.5 409.5,-256.5"/>
<text text-anchor="middle" x="358.5" y="-244.5" font-family="Helvetica,sans-Serif" font-size="10.00">MenuLayoutNode</text>
</a>
</g>
</g>
<!-- Node4&#45;&gt;Node3 -->
<g id="edge3_Node000003_Node000004" class="edge">
<title>Node4&#45;&gt;Node3</title>
<g id="a_edge3_Node000003_Node000004"><a xlink:title=" ">
<path fill="none" stroke="#9a32cd" stroke-dasharray="5,2" d="M358.5,-227.04C358.5,-207.42 358.5,-177.66 358.5,-163.11"/>
<polygon fill="#9a32cd" stroke="#9a32cd" points="355,-227.23 358.5,-237.23 362,-227.23 355,-227.23"/>
</a>
</g>
<text text-anchor="start" x="362" y="-186.5" font-family="Helvetica,sans-Serif" font-size="10.00" fill="grey">layout</text>
</g>
<!-- Node4&#45;&gt;Node4 -->
<g id="edge4_Node000004_Node000004" class="edge">
<title>Node4&#45;&gt;Node4</title>
<g id="a_edge4_Node000004_Node000004"><a xlink:title=" ">
<path fill="none" stroke="#9a32cd" stroke-dasharray="5,2" d="M398.1,-257.43C414.08,-258.04 427.5,-254.56 427.5,-247 427.5,-237.87 407.92,-234.69 387.93,-237.47"/>
<polygon fill="#9a32cd" stroke="#9a32cd" points="398.2,-253.93 387.93,-256.53 397.58,-260.9 398.2,-253.93"/>
</a>
</g>
<text text-anchor="start" x="430.5" y="-267" font-family="Helvetica,sans-Serif" font-size="10.00" fill="grey">children</text>
<text text-anchor="start" x="430.5" y="-252" font-family="Helvetica,sans-Serif" font-size="10.00" fill="grey">next</text>
<text text-anchor="start" x="430.5" y="-237" font-family="Helvetica,sans-Serif" font-size="10.00" fill="grey">parent</text>
<text text-anchor="start" x="430.5" y="-222" font-family="Helvetica,sans-Serif" font-size="10.00" fill="grey">prev</text>
</g>
<!-- Node5 -->
<g id="Node000005" class="node">
<title>Node5</title>
<g id="a_Node000005"><a xlink:title=" ">
<polygon fill="white" stroke="#666666" points="470.5,-19 336.5,-19 336.5,0 470.5,0 470.5,-19"/>
<text text-anchor="middle" x="403.5" y="-7" font-family="Helvetica,sans-Serif" font-size="10.00">MateMenuTreeDirectory</text>
</a>
</g>
</g>
<!-- Node5&#45;&gt;Node3 -->
<g id="edge5_Node000003_Node000005" class="edge">
<title>Node5&#45;&gt;Node3</title>
<g id="a_edge5_Node000003_Node000005"><a xlink:title=" ">
<path fill="none" stroke="#9a32cd" stroke-dasharray="5,2" d="M425.27,-25.55C428.61,-28.91 431.58,-32.75 433.5,-37 443.57,-59.33 434.88,-69.87 422.5,-91 409.26,-113.6 385.38,-133.31 370.83,-143.99"/>
<polygon fill="#9a32cd" stroke="#9a32cd" points="427.5,-22.86 417.63,-19.01 422.95,-28.18 427.5,-22.86"/>
</a>
</g>
<text text-anchor="start" x="435.5" y="-78.5" font-family="Helvetica,sans-Serif" font-size="10.00" fill="grey">root</text>
</g>
<!-- Node5&#45;&gt;Node6 -->
<g id="edge7_Node000006_Node000005" class="edge">
<title>Node5&#45;&gt;Node6</title>
<g id="a_edge7_Node000006_Node000005"><a xlink:title=" ">
<path fill="none" stroke="#9a32cd" stroke-dasharray="5,2" d="M395.66,-28.43C391.82,-36.5 386.88,-46 381.5,-54 377.29,-60.27 371.76,-66.68 367.18,-71.63"/>
<polygon fill="#9a32cd" stroke="#9a32cd" points="398.91,-29.74 399.87,-19.18 392.54,-26.83 398.91,-29.74"/>
</a>
</g>
<text text-anchor="start" x="394.5" y="-42.5" font-family="Helvetica,sans-Serif" font-size="10.00" fill="grey">parent</text>
</g>
<!-- Node6&#45;&gt;Node5 -->
<g id="edge6_Node000005_Node000006" class="edge">
<title>Node6&#45;&gt;Node5</title>
<g id="a_edge6_Node000005_Node000006"><a xlink:title=" ">
<path fill="none" stroke="#9a32cd" stroke-dasharray="5,2" d="M350.92,-62.33C348.7,-54.08 347.94,-44.51 352.5,-37 357.47,-28.81 365.89,-23.04 374.46,-19.02"/>
<polygon fill="#9a32cd" stroke="#9a32cd" points="347.63,-63.53 354.22,-71.82 354.24,-61.23 347.63,-63.53"/>
</a>
</g>
<text text-anchor="start" x="356" y="-42.5" font-family="Helvetica,sans-Serif" font-size="10.00" fill="grey">item</text>
</g>
<!-- Node7 -->
<g id="Node000007" class="node">
<title>Node7</title>
<g id="a_Node000007"><a xlink:title=" ">
<polygon fill="white" stroke="#666666" points="584,-91 501,-91 501,-72 584,-72 584,-91"/>
<text text-anchor="middle" x="542.5" y="-79" font-family="Helvetica,sans-Serif" font-size="10.00">DesktopEntry</text>
</a>
</g>
</g>
<!-- Node7&#45;&gt;Node5 -->
<g id="edge9_Node000005_Node000007" class="edge">
<title>Node7&#45;&gt;Node5</title>
<g id="a_edge9_Node000005_Node000007"><a xlink:title=" ">
<path fill="none" stroke="#9a32cd" stroke-dasharray="5,2" d="M521.4,-66.47C507.32,-57.43 488.21,-45.78 470.5,-37 456.83,-30.22 440.97,-23.89 428.11,-19.11"/>
<polygon fill="#9a32cd" stroke="#9a32cd" points="519.57,-69.45 529.86,-71.97 523.39,-63.59 519.57,-69.45"/>
</a>
</g>
<text text-anchor="start" x="504" y="-42.5" font-family="Helvetica,sans-Serif" font-size="10.00" fill="grey">directory_entry</text>
</g>
<!-- Node8 -->
<g id="Node000008" class="node">
<title>Node8</title>
<g id="a_Node000008"><a xlink:href="structMenuLayoutValues.html" target="_top" xlink:title=" ">
<polygon fill="white" stroke="#666666" points="268,-91 159,-91 159,-72 268,-72 268,-91"/>
<text text-anchor="middle" x="213.5" y="-79" font-family="Helvetica,sans-Serif" font-size="10.00">MenuLayoutValues</text>
</a>
</g>
</g>
<!-- Node8&#45;&gt;Node5 -->
<g id="edge10_Node000005_Node000008" class="edge">
<title>Node8&#45;&gt;Node5</title>
<g id="a_edge10_Node000005_Node000008"><a xlink:title=" ">
<path fill="none" stroke="#9a32cd" stroke-dasharray="5,2" d="M216.32,-62.05C218.63,-53.16 222.85,-43.12 230.5,-37 246.69,-24.04 294.8,-17.37 336.19,-13.96"/>
<polygon fill="#9a32cd" stroke="#9a32cd" points="212.86,-61.49 214.32,-71.99 219.72,-62.87 212.86,-61.49"/>
</a>
</g>
<text text-anchor="start" x="234" y="-42.5" font-family="Helvetica,sans-Serif" font-size="10.00" fill="grey">default_layout_values</text>
</g>
</g>
</svg>
