<?xml version="1.0" encoding="UTF-8" standalone="no"?>
<!DOCTYPE svg PUBLIC "-//W3C//DTD SVG 1.1//EN"
 "http://www.w3.org/Graphics/SVG/1.1/DTD/svg11.dtd">
<!-- Generated by graphviz version 2.43.0 (0)
 -->
<!-- Title: GSTEStarfield Pages: 1 -->
<svg width="257pt" height="171pt"
 viewBox="0.00 0.00 257.00 171.00" xmlns="http://www.w3.org/2000/svg" xmlns:xlink="http://www.w3.org/1999/xlink">
<g id="graph0" class="graph" transform="scale(1 1) rotate(0) translate(4 167)">
<title>GSTEStarfield</title>
<!-- Node1 -->
<g id="Node000001" class="node">
<title>Node1</title>
<g id="a_Node000001"><a xlink:title=" ">
<polygon fill="#999999" stroke="#666666" points="169,-19 86,-19 86,0 169,0 169,-19"/>
<text text-anchor="middle" x="127.5" y="-7" font-family="Helvetica,sans-Serif" font-size="10.00">GSTEStarfield</text>
</a>
</g>
</g>
<!-- Node2 -->
<g id="Node000002" class="node">
<title>Node2</title>
<g id="a_Node000002"><a xlink:href="structGSThemeEngine.html" target="_top" xlink:title=" ">
<polygon fill="white" stroke="#666666" points="114,-91 17,-91 17,-72 114,-72 114,-91"/>
<text text-anchor="middle" x="65.5" y="-79" font-family="Helvetica,sans-Serif" font-size="10.00">GSThemeEngine</text>
</a>
</g>
</g>
<!-- Node2&#45;&gt;Node1 -->
<g id="edge1_Node000001_Node000002" class="edge">
<title>Node2&#45;&gt;Node1</title>
<g id="a_edge1_Node000001_Node000002"><a xlink:title=" ">
<path fill="none" stroke="#9a32cd" stroke-dasharray="5,2" d="M79.75,-64.41C92.22,-50.33 109.86,-30.42 119.84,-19.15"/>
<polygon fill="#9a32cd" stroke="#9a32cd" points="77.11,-62.11 73.1,-71.92 82.35,-66.75 77.11,-62.11"/>
</a>
</g>
<text text-anchor="start" x="107.5" y="-42.5" font-family="Helvetica,sans-Serif" font-size="10.00" fill="grey">parent</text>
</g>
<!-- Node3 -->
<g id="Node000003" class="node">
<title>Node3</title>
<g id="a_Node000003"><a xlink:title=" ">
<polygon fill="white" stroke="#666666" points="131,-163 0,-163 0,-144 131,-144 131,-163"/>
<text text-anchor="middle" x="65.5" y="-151" font-family="Helvetica,sans-Serif" font-size="10.00">GSThemeEnginePrivate</text>
</a>
</g>
</g>
<!-- Node3&#45;&gt;Node2 -->
<g id="edge2_Node000002_Node000003" class="edge">
<title>Node3&#45;&gt;Node2</title>
<g id="a_edge2_Node000002_Node000003"><a xlink:title=" ">
<path fill="none" stroke="#9a32cd" stroke-dasharray="5,2" d="M65.5,-133.58C65.5,-119.76 65.5,-101.68 65.5,-91.15"/>
<polygon fill="#9a32cd" stroke="#9a32cd" points="62,-133.92 65.5,-143.92 69,-133.92 62,-133.92"/>
</a>
</g>
<text text-anchor="start" x="69" y="-114.5" font-family="Helvetica,sans-Serif" font-size="10.00" fill="grey">priv</text>
</g>
<!-- Node4 -->
<g id="Node000004" class="node">
<title>Node4</title>
<g id="a_Node000004"><a xlink:title=" ">
<polygon fill="white" stroke="#666666" points="249,-91 132,-91 132,-72 249,-72 249,-91"/>
<text text-anchor="middle" x="190.5" y="-79" font-family="Helvetica,sans-Serif" font-size="10.00">GSTEStarfieldPrivate</text>
</a>
</g>
</g>
<!-- Node4&#45;&gt;Node1 -->
<g id="edge3_Node000001_Node000004" class="edge">
<title>Node4&#45;&gt;Node1</title>
<g id="a_edge3_Node000001_Node000004"><a xlink:title=" ">
<path fill="none" stroke="#9a32cd" stroke-dasharray="5,2" d="M176.02,-64.41C163.35,-50.33 145.43,-30.42 135.29,-19.15"/>
<polygon fill="#9a32cd" stroke="#9a32cd" points="173.48,-66.83 182.77,-71.92 178.69,-62.14 173.48,-66.83"/>
</a>
</g>
<text text-anchor="start" x="169" y="-42.5" font-family="Helvetica,sans-Serif" font-size="10.00" fill="grey">priv</text>
</g>
<!-- Node5 -->
<g id="Node000005" class="node">
<title>Node5</title>
<g id="a_Node000005"><a xlink:title=" ">
<polygon fill="white" stroke="#666666" points="214,-163 167,-163 167,-144 214,-144 214,-163"/>
<text text-anchor="middle" x="190.5" y="-151" font-family="Helvetica,sans-Serif" font-size="10.00">_point</text>
</a>
</g>
</g>
<!-- Node5&#45;&gt;Node4 -->
<g id="edge4_Node000004_Node000005" class="edge">
<title>Node5&#45;&gt;Node4</title>
<g id="a_edge4_Node000004_Node000005"><a xlink:title=" ">
<path fill="none" stroke="#9a32cd" stroke-dasharray="5,2" d="M190.5,-133.58C190.5,-119.76 190.5,-101.68 190.5,-91.15"/>
<polygon fill="#9a32cd" stroke="#9a32cd" points="187,-133.92 190.5,-143.92 194,-133.92 187,-133.92"/>
</a>
</g>
<text text-anchor="start" x="194" y="-114.5" font-family="Helvetica,sans-Serif" font-size="10.00" fill="grey">stars</text>
</g>
</g>
</svg>
