<?xml version="1.0" encoding="UTF-8" standalone="no"?>
<!DOCTYPE svg PUBLIC "-//W3C//DTD SVG 1.1//EN"
 "http://www.w3.org/Graphics/SVG/1.1/DTD/svg11.dtd">
<!-- Generated by graphviz version 2.43.0 (0)
 -->
<!-- Title: _EvJobPageData Pages: 1 -->
<svg width="367pt" height="432pt"
 viewBox="0.00 0.00 366.50 432.00" xmlns="http://www.w3.org/2000/svg" xmlns:xlink="http://www.w3.org/1999/xlink">

<svg id="main" version="1.1" xmlns="http://www.w3.org/2000/svg" xmlns:xlink="http://www.w3.org/1999/xlink" xml:space="preserve">

<style type="text/css"><![CDATA[
.node, .edge {opacity: 0.7;}
.node.selected, .edge.selected {opacity: 1;}
.edge:hover path { stroke: red; }
.edge:hover polygon { stroke: red; fill: red; }
]]></style>
<script type="application/ecmascript" xlink:href="svg.min.js"/>
<svg id="graph" class="graph">
<g id="graph0" class="graph" transform="scale(1 1) rotate(0) translate(4 428)">
<title>_EvJobPageData</title>
<!-- Node1 -->
<g id="Node000001" class="node">
<title>Node1</title>
<g id="a_Node000001"><a xlink:title=" ">
<polygon fill="#999999" stroke="#666666" points="217,-19 122,-19 122,0 217,0 217,-19"/>
<text text-anchor="middle" x="169.5" y="-7" font-family="Helvetica,sans-Serif" font-size="10.00">_EvJobPageData</text>
</a>
</g>
</g>
<!-- Node2 -->
<g id="Node000002" class="node">
<title>Node2</title>
<g id="a_Node000002"><a xlink:href="struct__EvJob.html" target="_top" xlink:title=" ">
<polygon fill="white" stroke="#666666" points="105,-136 56,-136 56,-117 105,-117 105,-136"/>
<text text-anchor="middle" x="80.5" y="-124" font-family="Helvetica,sans-Serif" font-size="10.00">_EvJob</text>
</a>
</g>
</g>
<!-- Node2&#45;&gt;Node1 -->
<g id="edge1_Node000001_Node000002" class="edge">
<title>Node2&#45;&gt;Node1</title>
<g id="a_edge1_Node000001_Node000002"><a xlink:title=" ">
<path fill="none" stroke="#9a32cd" stroke-dasharray="5,2" d="M86.97,-107.15C94.44,-87.96 108.22,-57.78 127.5,-37 134.3,-29.67 143.56,-23.54 151.66,-19.03"/>
<polygon fill="#9a32cd" stroke="#9a32cd" points="83.59,-106.2 83.4,-116.79 90.16,-108.64 83.59,-106.2"/>
</a>
</g>
<text text-anchor="start" x="130.5" y="-65" font-family="Helvetica,sans-Serif" font-size="10.00" fill="grey">parent</text>
</g>
<!-- Node3 -->
<g id="Node000003" class="node">
<title>Node3</title>
<g id="a_Node000003"><a xlink:href="struct__EvDocument.html" target="_top" xlink:title=" ">
<polygon fill="white" stroke="#666666" points="122.5,-208 38.5,-208 38.5,-189 122.5,-189 122.5,-208"/>
<text text-anchor="middle" x="80.5" y="-196" font-family="Helvetica,sans-Serif" font-size="10.00">_EvDocument</text>
</a>
</g>
</g>
<!-- Node3&#45;&gt;Node2 -->
<g id="edge2_Node000002_Node000003" class="edge">
<title>Node3&#45;&gt;Node2</title>
<g id="a_edge2_Node000002_Node000003"><a xlink:title=" ">
<path fill="none" stroke="#9a32cd" stroke-dasharray="5,2" d="M80.5,-178.58C80.5,-164.76 80.5,-146.68 80.5,-136.15"/>
<polygon fill="#9a32cd" stroke="#9a32cd" points="77,-178.92 80.5,-188.92 84,-178.92 77,-178.92"/>
</a>
</g>
<text text-anchor="start" x="84" y="-159.5" font-family="Helvetica,sans-Serif" font-size="10.00" fill="grey">document</text>
</g>
<!-- Node4 -->
<g id="Node000004" class="node">
<title>Node4</title>
<g id="a_Node000004"><a xlink:title=" ">
<polygon fill="white" stroke="#666666" points="140,-280 21,-280 21,-261 140,-261 140,-280"/>
<text text-anchor="middle" x="80.5" y="-268" font-family="Helvetica,sans-Serif" font-size="10.00">_EvDocumentPrivate</text>
</a>
</g>
</g>
<!-- Node4&#45;&gt;Node3 -->
<g id="edge3_Node000003_Node000004" class="edge">
<title>Node4&#45;&gt;Node3</title>
<g id="a_edge3_Node000003_Node000004"><a xlink:title=" ">
<path fill="none" stroke="#9a32cd" stroke-dasharray="5,2" d="M80.5,-250.58C80.5,-236.76 80.5,-218.68 80.5,-208.15"/>
<polygon fill="#9a32cd" stroke="#9a32cd" points="77,-250.92 80.5,-260.92 84,-250.92 77,-250.92"/>
</a>
</g>
<text text-anchor="start" x="84" y="-231.5" font-family="Helvetica,sans-Serif" font-size="10.00" fill="grey">priv</text>
</g>
<!-- Node5 -->
<g id="Node000005" class="node">
<title>Node5</title>
<g id="a_Node000005"><a xlink:title=" ">
<polygon fill="white" stroke="#666666" points="77,-352 0,-352 0,-333 77,-333 77,-352"/>
<text text-anchor="middle" x="38.5" y="-340" font-family="Helvetica,sans-Serif" font-size="10.00">_EvPageSize</text>
</a>
</g>
</g>
<!-- Node5&#45;&gt;Node4 -->
<g id="edge4_Node000004_Node000005" class="edge">
<title>Node5&#45;&gt;Node4</title>
<g id="a_edge4_Node000004_Node000005"><a xlink:title=" ">
<path fill="none" stroke="#9a32cd" stroke-dasharray="5,2" d="M41.72,-322.95C43.69,-314.86 46.78,-305.53 51.5,-298 55.85,-291.07 62.49,-284.81 68.33,-280.12"/>
<polygon fill="#9a32cd" stroke="#9a32cd" points="38.25,-322.43 39.67,-332.93 45.11,-323.84 38.25,-322.43"/>
</a>
</g>
<text text-anchor="start" x="55" y="-303.5" font-family="Helvetica,sans-Serif" font-size="10.00" fill="grey">page_sizes</text>
</g>
<!-- Node6 -->
<g id="Node000006" class="node">
<title>Node6</title>
<g id="a_Node000006"><a xlink:href="struct__EvDocumentInfo.html" target="_top" xlink:title=" ">
<polygon fill="white" stroke="#666666" points="198,-352 95,-352 95,-333 198,-333 198,-352"/>
<text text-anchor="middle" x="146.5" y="-340" font-family="Helvetica,sans-Serif" font-size="10.00">_EvDocumentInfo</text>
</a>
</g>
</g>
<!-- Node6&#45;&gt;Node4 -->
<g id="edge5_Node000004_Node000006" class="edge">
<title>Node6&#45;&gt;Node4</title>
<g id="a_edge5_Node000004_Node000006"><a xlink:title=" ">
<path fill="none" stroke="#9a32cd" stroke-dasharray="5,2" d="M134.54,-324.48C128.35,-316.15 120.45,-306.18 112.5,-298 106.16,-291.48 98.31,-284.96 91.97,-280.02"/>
<polygon fill="#9a32cd" stroke="#9a32cd" points="131.8,-326.66 140.49,-332.72 137.47,-322.56 131.8,-326.66"/>
</a>
</g>
<text text-anchor="start" x="130" y="-303.5" font-family="Helvetica,sans-Serif" font-size="10.00" fill="grey">info</text>
</g>
<!-- Node7 -->
<g id="Node000007" class="node">
<title>Node7</title>
<g id="a_Node000007"><a xlink:href="struct__EvDocumentLicense.html" target="_top" xlink:title=" ">
<polygon fill="white" stroke="#666666" points="207,-424 86,-424 86,-405 207,-405 207,-424"/>
<text text-anchor="middle" x="146.5" y="-412" font-family="Helvetica,sans-Serif" font-size="10.00">_EvDocumentLicense</text>
</a>
</g>
</g>
<!-- Node7&#45;&gt;Node6 -->
<g id="edge6_Node000006_Node000007" class="edge">
<title>Node7&#45;&gt;Node6</title>
<g id="a_edge6_Node000006_Node000007"><a xlink:title=" ">
<path fill="none" stroke="#9a32cd" stroke-dasharray="5,2" d="M146.5,-394.58C146.5,-380.76 146.5,-362.68 146.5,-352.15"/>
<polygon fill="#9a32cd" stroke="#9a32cd" points="143,-394.92 146.5,-404.92 150,-394.92 143,-394.92"/>
</a>
</g>
<text text-anchor="start" x="150" y="-375.5" font-family="Helvetica,sans-Serif" font-size="10.00" fill="grey">license</text>
</g>
<!-- Node8 -->
<g id="Node000008" class="node">
<title>Node8</title>
<g id="a_Node000008"><a xlink:title=" ">
<polygon fill="white" stroke="#666666" points="216,-136 123,-136 123,-117 216,-117 216,-136"/>
<text text-anchor="middle" x="169.5" y="-124" font-family="Helvetica,sans-Serif" font-size="10.00">_EvMappingList</text>
</a>
</g>
</g>
<!-- Node8&#45;&gt;Node1 -->
<g id="edge7_Node000001_Node000008" class="edge">
<title>Node8&#45;&gt;Node1</title>
<g id="a_edge7_Node000001_Node000008"><a xlink:title=" ">
<path fill="none" stroke="#9a32cd" stroke-dasharray="5,2" d="M169.5,-106.75C169.5,-81.56 169.5,-37.82 169.5,-19.24"/>
<polygon fill="#9a32cd" stroke="#9a32cd" points="166,-106.86 169.5,-116.86 173,-106.86 166,-106.86"/>
</a>
</g>
<text text-anchor="start" x="172.5" y="-88" font-family="Helvetica,sans-Serif" font-size="10.00" fill="grey">annot_mapping</text>
<text text-anchor="start" x="172.5" y="-73" font-family="Helvetica,sans-Serif" font-size="10.00" fill="grey">form_field_mapping</text>
<text text-anchor="start" x="172.5" y="-58" font-family="Helvetica,sans-Serif" font-size="10.00" fill="grey">image_mapping</text>
<text text-anchor="start" x="172.5" y="-43" font-family="Helvetica,sans-Serif" font-size="10.00" fill="grey">link_mapping</text>
</g>
<!-- Node9 -->
<g id="Node000009" class="node">
<title>Node9</title>
<g id="a_Node000009"><a xlink:href="struct__EvRectangle.html" target="_top" xlink:title=" ">
<polygon fill="white" stroke="#666666" points="338,-136 255,-136 255,-117 338,-117 338,-136"/>
<text text-anchor="middle" x="296.5" y="-124" font-family="Helvetica,sans-Serif" font-size="10.00">_EvRectangle</text>
</a>
</g>
</g>
<!-- Node9&#45;&gt;Node1 -->
<g id="edge8_Node000001_Node000009" class="edge">
<title>Node9&#45;&gt;Node1</title>
<g id="a_edge8_Node000001_Node000009"><a xlink:title=" ">
<path fill="none" stroke="#9a32cd" stroke-dasharray="5,2" d="M297.12,-106.77C296.73,-86.77 292.9,-55.46 274.5,-37 259.5,-21.95 237.29,-15.02 217.15,-11.98"/>
<polygon fill="#9a32cd" stroke="#9a32cd" points="293.62,-106.79 297.05,-116.82 300.62,-106.84 293.62,-106.79"/>
</a>
</g>
<text text-anchor="start" x="299.5" y="-65" font-family="Helvetica,sans-Serif" font-size="10.00" fill="grey">text_layout</text>
</g>
</g>
</svg>
</svg>

<style type='text/css'>
<![CDATA[
[data-mouse-over-selected='false'] { opacity: 0.7; }
[data-mouse-over-selected='true']  { opacity: 1.0; }
]]>
</style>
<script type="application/ecmascript"><![CDATA[
document.addEventListener('DOMContentLoaded', (event) => {
  highlightEdges();
  highlightAdjacentNodes();
});
]]></script>
</svg>
