<?xml version="1.0" encoding="UTF-8" standalone="no"?>
<!DOCTYPE svg PUBLIC "-//W3C//DTD SVG 1.1//EN"
 "http://www.w3.org/Graphics/SVG/1.1/DTD/svg11.dtd">
<!-- Generated by graphviz version 2.43.0 (0)
 -->
<!-- Title: _TerminalTabsMenu Pages: 1 -->
<svg width="356pt" height="459pt"
 viewBox="0.00 0.00 355.50 459.00" xmlns="http://www.w3.org/2000/svg" xmlns:xlink="http://www.w3.org/1999/xlink">
<g id="graph0" class="graph" transform="scale(1 1) rotate(0) translate(4 455)">
<title>_TerminalTabsMenu</title>
<!-- Node1 -->
<g id="Node000001" class="node">
<title>Node1</title>
<g id="a_Node000001"><a xlink:title=" ">
<polygon fill="#999999" stroke="#666666" points="177,-235 64,-235 64,-216 177,-216 177,-235"/>
<text text-anchor="middle" x="120.5" y="-223" font-family="Helvetica,sans-Serif" font-size="10.00">_TerminalTabsMenu</text>
</a>
</g>
</g>
<!-- Node4 -->
<g id="Node000004" class="node">
<title>Node4</title>
<g id="a_Node000004"><a xlink:title=" ">
<polygon fill="white" stroke="#666666" points="269,-163 132,-163 132,-144 269,-144 269,-163"/>
<text text-anchor="middle" x="200.5" y="-151" font-family="Helvetica,sans-Serif" font-size="10.00">_TerminalWindowPrivate</text>
</a>
</g>
</g>
<!-- Node1&#45;&gt;Node4 -->
<g id="edge4_Node000004_Node000001" class="edge">
<title>Node1&#45;&gt;Node4</title>
<g id="a_edge4_Node000004_Node000001"><a xlink:title=" ">
<path fill="none" stroke="#9a32cd" stroke-dasharray="5,2" d="M133.9,-208.11C141.29,-199.55 150.9,-189.19 160.5,-181 168.36,-174.3 177.99,-167.87 185.83,-163.02"/>
<polygon fill="#9a32cd" stroke="#9a32cd" points="131.09,-206.01 127.32,-215.91 136.44,-210.52 131.09,-206.01"/>
</a>
</g>
<text text-anchor="start" x="164" y="-186.5" font-family="Helvetica,sans-Serif" font-size="10.00" fill="grey">tabs_menu</text>
</g>
<!-- Node2 -->
<g id="Node000002" class="node">
<title>Node2</title>
<g id="a_Node000002"><a xlink:title=" ">
<polygon fill="white" stroke="#666666" points="147,-19 0,-19 0,0 147,0 147,-19"/>
<text text-anchor="middle" x="73.5" y="-7" font-family="Helvetica,sans-Serif" font-size="10.00">_TerminalTabsMenuPrivate</text>
</a>
</g>
</g>
<!-- Node2&#45;&gt;Node1 -->
<g id="edge1_Node000001_Node000002" class="edge">
<title>Node2&#45;&gt;Node1</title>
<g id="a_edge1_Node000001_Node000002"><a xlink:title=" ">
<path fill="none" stroke="#9a32cd" stroke-dasharray="5,2" d="M77.41,-29.34C80.81,-45.67 85.9,-69.91 90.5,-91 100.77,-138.12 113.62,-194.45 118.5,-215.76"/>
<polygon fill="#9a32cd" stroke="#9a32cd" points="80.81,-28.52 75.35,-19.44 73.96,-29.95 80.81,-28.52"/>
</a>
</g>
<text text-anchor="start" x="102" y="-114.5" font-family="Helvetica,sans-Serif" font-size="10.00" fill="grey">priv</text>
</g>
<!-- Node3 -->
<g id="Node000003" class="node">
<title>Node3</title>
<g id="a_Node000003"><a xlink:href="struct__TerminalWindow.html" target="_top" xlink:title=" ">
<polygon fill="white" stroke="#666666" points="203,-91 100,-91 100,-72 203,-72 203,-91"/>
<text text-anchor="middle" x="151.5" y="-79" font-family="Helvetica,sans-Serif" font-size="10.00">_TerminalWindow</text>
</a>
</g>
</g>
<!-- Node3&#45;&gt;Node2 -->
<g id="edge2_Node000002_Node000003" class="edge">
<title>Node3&#45;&gt;Node2</title>
<g id="a_edge2_Node000002_Node000003"><a xlink:title=" ">
<path fill="none" stroke="#9a32cd" stroke-dasharray="5,2" d="M128.82,-66.45C123.28,-62.66 117.52,-58.38 112.5,-54 99.98,-43.05 87.49,-28.28 80.14,-19.07"/>
<polygon fill="#9a32cd" stroke="#9a32cd" points="126.9,-69.38 137.18,-71.96 130.75,-63.54 126.9,-69.38"/>
</a>
</g>
<text text-anchor="start" x="115.5" y="-42.5" font-family="Helvetica,sans-Serif" font-size="10.00" fill="grey">window</text>
</g>
<!-- Node5 -->
<g id="Node000005" class="node">
<title>Node5</title>
<g id="a_Node000005"><a xlink:href="struct__TerminalScreenPopupInfo.html" target="_top" xlink:title=" ">
<polygon fill="white" stroke="#666666" points="312.5,-19 166.5,-19 166.5,0 312.5,0 312.5,-19"/>
<text text-anchor="middle" x="239.5" y="-7" font-family="Helvetica,sans-Serif" font-size="10.00">_TerminalScreenPopupInfo</text>
</a>
</g>
</g>
<!-- Node3&#45;&gt;Node5 -->
<g id="edge6_Node000005_Node000003" class="edge">
<title>Node3&#45;&gt;Node5</title>
<g id="a_edge6_Node000005_Node000003"><a xlink:title=" ">
<path fill="none" stroke="#9a32cd" stroke-dasharray="5,2" d="M160.68,-62.83C165.87,-54.18 173.02,-44.11 181.5,-37 190.75,-29.25 202.63,-23.29 213.24,-19.01"/>
<polygon fill="#9a32cd" stroke="#9a32cd" points="157.51,-61.34 155.69,-71.78 163.62,-64.75 157.51,-61.34"/>
</a>
</g>
<text text-anchor="start" x="184.5" y="-42.5" font-family="Helvetica,sans-Serif" font-size="10.00" fill="grey">window</text>
</g>
<!-- Node4&#45;&gt;Node3 -->
<g id="edge3_Node000003_Node000004" class="edge">
<title>Node4&#45;&gt;Node3</title>
<g id="a_edge3_Node000003_Node000004"><a xlink:title=" ">
<path fill="none" stroke="#9a32cd" stroke-dasharray="5,2" d="M188.68,-135.62C178.86,-121.59 165.3,-102.21 157.56,-91.15"/>
<polygon fill="#9a32cd" stroke="#9a32cd" points="185.89,-137.73 194.49,-143.92 191.62,-133.72 185.89,-137.73"/>
</a>
</g>
<text text-anchor="start" x="186" y="-114.5" font-family="Helvetica,sans-Serif" font-size="10.00" fill="grey">priv</text>
</g>
<!-- Node5&#45;&gt;Node4 -->
<g id="edge5_Node000004_Node000005" class="edge">
<title>Node5&#45;&gt;Node4</title>
<g id="a_edge5_Node000004_Node000005"><a xlink:title=" ">
<path fill="none" stroke="#9a32cd" stroke-dasharray="5,2" d="M235.92,-29.11C231.28,-52.15 222.46,-92.44 211.5,-126 209.52,-132.06 206.77,-138.69 204.52,-143.8"/>
<polygon fill="#9a32cd" stroke="#9a32cd" points="239.41,-29.52 237.91,-19.03 232.54,-28.17 239.41,-29.52"/>
</a>
</g>
<text text-anchor="start" x="230" y="-78.5" font-family="Helvetica,sans-Serif" font-size="10.00" fill="grey">popup_info</text>
</g>
<!-- Node6 -->
<g id="Node000006" class="node">
<title>Node6</title>
<g id="a_Node000006"><a xlink:href="struct__TerminalScreen.html" target="_top" xlink:title=" ">
<polygon fill="white" stroke="#666666" points="314,-235 217,-235 217,-216 314,-216 314,-235"/>
<text text-anchor="middle" x="265.5" y="-223" font-family="Helvetica,sans-Serif" font-size="10.00">_TerminalScreen</text>
</a>
</g>
</g>
<!-- Node6&#45;&gt;Node4 -->
<g id="edge11_Node000004_Node000006" class="edge">
<title>Node6&#45;&gt;Node4</title>
<g id="a_edge11_Node000004_Node000006"><a xlink:title=" ">
<path fill="none" stroke="#9a32cd" stroke-dasharray="5,2" d="M250.13,-208.27C246.94,-204.89 243.6,-201.33 240.5,-198 229.31,-185.99 216.48,-172 208.44,-163.2"/>
<polygon fill="#9a32cd" stroke="#9a32cd" points="247.73,-210.83 257.14,-215.69 252.82,-206.02 247.73,-210.83"/>
</a>
</g>
<text text-anchor="start" x="243.5" y="-186.5" font-family="Helvetica,sans-Serif" font-size="10.00" fill="grey">active_screen</text>
</g>
<!-- Node6&#45;&gt;Node5 -->
<g id="edge7_Node000005_Node000006" class="edge">
<title>Node6&#45;&gt;Node5</title>
<g id="a_edge7_Node000005_Node000006"><a xlink:title=" ">
<path fill="none" stroke="#9a32cd" stroke-dasharray="5,2" d="M301.79,-210.91C306.86,-207.47 311.39,-203.22 314.5,-198 318.37,-191.51 315.28,-188.51 314.5,-181 309.36,-131.76 313.25,-116.48 291.5,-72 280.93,-50.4 261.09,-30.06 249.21,-19.04"/>
<polygon fill="#9a32cd" stroke="#9a32cd" points="299.86,-207.98 292.91,-215.98 303.33,-214.06 299.86,-207.98"/>
</a>
</g>
<text text-anchor="start" x="312" y="-114.5" font-family="Helvetica,sans-Serif" font-size="10.00" fill="grey">screen</text>
</g>
<!-- Node7 -->
<g id="Node000007" class="node">
<title>Node7</title>
<g id="a_Node000007"><a xlink:title=" ">
<polygon fill="white" stroke="#666666" points="331,-307 200,-307 200,-288 331,-288 331,-307"/>
<text text-anchor="middle" x="265.5" y="-295" font-family="Helvetica,sans-Serif" font-size="10.00">_TerminalScreenPrivate</text>
</a>
</g>
</g>
<!-- Node7&#45;&gt;Node6 -->
<g id="edge8_Node000006_Node000007" class="edge">
<title>Node7&#45;&gt;Node6</title>
<g id="a_edge8_Node000006_Node000007"><a xlink:title=" ">
<path fill="none" stroke="#9a32cd" stroke-dasharray="5,2" d="M265.5,-277.58C265.5,-263.76 265.5,-245.68 265.5,-235.15"/>
<polygon fill="#9a32cd" stroke="#9a32cd" points="262,-277.92 265.5,-287.92 269,-277.92 262,-277.92"/>
</a>
</g>
<text text-anchor="start" x="269" y="-258.5" font-family="Helvetica,sans-Serif" font-size="10.00" fill="grey">priv</text>
</g>
<!-- Node8 -->
<g id="Node000008" class="node">
<title>Node8</title>
<g id="a_Node000008"><a xlink:href="struct__TerminalProfile.html" target="_top" xlink:title=" ">
<polygon fill="white" stroke="#666666" points="313,-379 218,-379 218,-360 313,-360 313,-379"/>
<text text-anchor="middle" x="265.5" y="-367" font-family="Helvetica,sans-Serif" font-size="10.00">_TerminalProfile</text>
</a>
</g>
</g>
<!-- Node8&#45;&gt;Node7 -->
<g id="edge9_Node000007_Node000008" class="edge">
<title>Node8&#45;&gt;Node7</title>
<g id="a_edge9_Node000007_Node000008"><a xlink:title=" ">
<path fill="none" stroke="#9a32cd" stroke-dasharray="5,2" d="M265.5,-349.58C265.5,-335.76 265.5,-317.68 265.5,-307.15"/>
<polygon fill="#9a32cd" stroke="#9a32cd" points="262,-349.92 265.5,-359.92 269,-349.92 262,-349.92"/>
</a>
</g>
<text text-anchor="start" x="269" y="-330.5" font-family="Helvetica,sans-Serif" font-size="10.00" fill="grey">profile</text>
</g>
<!-- Node9 -->
<g id="Node000009" class="node">
<title>Node9</title>
<g id="a_Node000009"><a xlink:title=" ">
<polygon fill="white" stroke="#666666" points="330,-451 201,-451 201,-432 330,-432 330,-451"/>
<text text-anchor="middle" x="265.5" y="-439" font-family="Helvetica,sans-Serif" font-size="10.00">_TerminalProfilePrivate</text>
</a>
</g>
</g>
<!-- Node9&#45;&gt;Node8 -->
<g id="edge10_Node000008_Node000009" class="edge">
<title>Node9&#45;&gt;Node8</title>
<g id="a_edge10_Node000008_Node000009"><a xlink:title=" ">
<path fill="none" stroke="#9a32cd" stroke-dasharray="5,2" d="M265.5,-421.58C265.5,-407.76 265.5,-389.68 265.5,-379.15"/>
<polygon fill="#9a32cd" stroke="#9a32cd" points="262,-421.92 265.5,-431.92 269,-421.92 262,-421.92"/>
</a>
</g>
<text text-anchor="start" x="269" y="-402.5" font-family="Helvetica,sans-Serif" font-size="10.00" fill="grey">priv</text>
</g>
</g>
</svg>
