<?xml version="1.0" encoding="UTF-8" standalone="no"?>
<!DOCTYPE svg PUBLIC "-//W3C//DTD SVG 1.1//EN"
 "http://www.w3.org/Graphics/SVG/1.1/DTD/svg11.dtd">
<!-- Generated by graphviz version 2.43.0 (0)
 -->
<!-- Title: CactAddCapabilityDialogClass Pages: 1 -->
<svg width="362pt" height="398pt"
 viewBox="0.00 0.00 361.50 398.00" xmlns="http://www.w3.org/2000/svg" xmlns:xlink="http://www.w3.org/1999/xlink">
<g id="graph0" class="graph" transform="scale(1 1) rotate(0) translate(4 394)">
<title>CactAddCapabilityDialogClass</title>
<!-- Node1 -->
<g id="Node000001" class="node">
<title>Node1</title>
<g id="a_Node000001"><a xlink:title=" ">
<polygon fill="#999999" stroke="#666666" points="294,-19 130,-19 130,0 294,0 294,-19"/>
<text text-anchor="middle" x="212" y="-7" font-family="Helvetica,sans-Serif" font-size="10.00">CactAddCapabilityDialogClass</text>
</a>
</g>
</g>
<!-- Node2 -->
<g id="Node000002" class="node">
<title>Node2</title>
<g id="a_Node000002"><a xlink:href="structBaseDialogClass.html" target="_top" xlink:title=" ">
<polygon fill="white" stroke="#666666" points="192,-96.5 94,-96.5 94,-77.5 192,-77.5 192,-96.5"/>
<text text-anchor="middle" x="143" y="-84.5" font-family="Helvetica,sans-Serif" font-size="10.00">BaseDialogClass</text>
</a>
</g>
</g>
<!-- Node2&#45;&gt;Node1 -->
<g id="edge1_Node000001_Node000002" class="edge">
<title>Node2&#45;&gt;Node1</title>
<g id="a_edge1_Node000001_Node000002"><a xlink:title=" ">
<path fill="none" stroke="#9a32cd" stroke-dasharray="5,2" d="M158.03,-69.55C172.24,-54 193,-31.29 204.18,-19.06"/>
<polygon fill="#9a32cd" stroke="#9a32cd" points="155.08,-67.6 150.92,-77.34 160.24,-72.32 155.08,-67.6"/>
</a>
</g>
<text text-anchor="start" x="191" y="-42.5" font-family="Helvetica,sans-Serif" font-size="10.00" fill="grey">parent</text>
</g>
<!-- Node3 -->
<g id="Node000003" class="node">
<title>Node3</title>
<g id="a_Node000003"><a xlink:href="structBaseWindowClass.html" target="_top" xlink:title=" ">
<polygon fill="white" stroke="#666666" points="126,-174 20,-174 20,-155 126,-155 126,-174"/>
<text text-anchor="middle" x="73" y="-162" font-family="Helvetica,sans-Serif" font-size="10.00">BaseWindowClass</text>
</a>
</g>
</g>
<!-- Node3&#45;&gt;Node2 -->
<g id="edge2_Node000002_Node000003" class="edge">
<title>Node3&#45;&gt;Node2</title>
<g id="a_edge2_Node000002_Node000003"><a xlink:title=" ">
<path fill="none" stroke="#9a32cd" stroke-dasharray="5,2" d="M87.85,-147.48C102.27,-131.93 123.62,-108.9 135.06,-96.56"/>
<polygon fill="#9a32cd" stroke="#9a32cd" points="85.26,-145.13 81.03,-154.84 90.4,-149.89 85.26,-145.13"/>
</a>
</g>
<text text-anchor="start" x="116" y="-125.5" font-family="Helvetica,sans-Serif" font-size="10.00" fill="grey">parent</text>
</g>
<!-- Node4 -->
<g id="Node000004" class="node">
<title>Node4</title>
<g id="a_Node000004"><a xlink:title=" ">
<polygon fill="white" stroke="#666666" points="146,-246 0,-246 0,-227 146,-227 146,-246"/>
<text text-anchor="middle" x="73" y="-234" font-family="Helvetica,sans-Serif" font-size="10.00">_BaseWindowClassPrivate</text>
</a>
</g>
</g>
<!-- Node4&#45;&gt;Node3 -->
<g id="edge3_Node000003_Node000004" class="edge">
<title>Node4&#45;&gt;Node3</title>
<g id="a_edge3_Node000003_Node000004"><a xlink:title=" ">
<path fill="none" stroke="#9a32cd" stroke-dasharray="5,2" d="M73,-216.58C73,-202.76 73,-184.68 73,-174.15"/>
<polygon fill="#9a32cd" stroke="#9a32cd" points="69.5,-216.92 73,-226.92 76.5,-216.92 69.5,-216.92"/>
</a>
</g>
<text text-anchor="start" x="76.5" y="-197.5" font-family="Helvetica,sans-Serif" font-size="10.00" fill="grey">private</text>
</g>
<!-- Node5 -->
<g id="Node000005" class="node">
<title>Node5</title>
<g id="a_Node000005"><a xlink:href="structBaseBuilder.html" target="_top" xlink:title=" ">
<polygon fill="white" stroke="#666666" points="110.5,-318 35.5,-318 35.5,-299 110.5,-299 110.5,-318"/>
<text text-anchor="middle" x="73" y="-306" font-family="Helvetica,sans-Serif" font-size="10.00">BaseBuilder</text>
</a>
</g>
</g>
<!-- Node5&#45;&gt;Node4 -->
<g id="edge4_Node000004_Node000005" class="edge">
<title>Node5&#45;&gt;Node4</title>
<g id="a_edge4_Node000004_Node000005"><a xlink:title=" ">
<path fill="none" stroke="#9a32cd" stroke-dasharray="5,2" d="M73,-288.58C73,-274.76 73,-256.68 73,-246.15"/>
<polygon fill="#9a32cd" stroke="#9a32cd" points="69.5,-288.92 73,-298.92 76.5,-288.92 69.5,-288.92"/>
</a>
</g>
<text text-anchor="start" x="76" y="-269.5" font-family="Helvetica,sans-Serif" font-size="10.00" fill="grey">builder</text>
</g>
<!-- Node6 -->
<g id="Node000006" class="node">
<title>Node6</title>
<g id="a_Node000006"><a xlink:title=" ">
<polygon fill="white" stroke="#666666" points="130.5,-390 15.5,-390 15.5,-371 130.5,-371 130.5,-390"/>
<text text-anchor="middle" x="73" y="-378" font-family="Helvetica,sans-Serif" font-size="10.00">_BaseBuilderPrivate</text>
</a>
</g>
</g>
<!-- Node6&#45;&gt;Node5 -->
<g id="edge5_Node000005_Node000006" class="edge">
<title>Node6&#45;&gt;Node5</title>
<g id="a_edge5_Node000005_Node000006"><a xlink:title=" ">
<path fill="none" stroke="#9a32cd" stroke-dasharray="5,2" d="M73,-360.58C73,-346.76 73,-328.68 73,-318.15"/>
<polygon fill="#9a32cd" stroke="#9a32cd" points="69.5,-360.92 73,-370.92 76.5,-360.92 69.5,-360.92"/>
</a>
</g>
<text text-anchor="start" x="76.5" y="-341.5" font-family="Helvetica,sans-Serif" font-size="10.00" fill="grey">private</text>
</g>
<!-- Node7 -->
<g id="Node000007" class="node">
<title>Node7</title>
<g id="a_Node000007"><a xlink:title=" ">
<polygon fill="white" stroke="#666666" points="282,-174 144,-174 144,-155 282,-155 282,-174"/>
<text text-anchor="middle" x="213" y="-162" font-family="Helvetica,sans-Serif" font-size="10.00">_BaseDialogClassPrivate</text>
</a>
</g>
</g>
<!-- Node7&#45;&gt;Node2 -->
<g id="edge6_Node000002_Node000007" class="edge">
<title>Node7&#45;&gt;Node2</title>
<g id="a_edge6_Node000002_Node000007"><a xlink:title=" ">
<path fill="none" stroke="#9a32cd" stroke-dasharray="5,2" d="M198.15,-147.48C183.73,-131.93 162.38,-108.9 150.94,-96.56"/>
<polygon fill="#9a32cd" stroke="#9a32cd" points="195.6,-149.89 204.97,-154.84 200.74,-145.13 195.6,-149.89"/>
</a>
</g>
<text text-anchor="start" x="192.5" y="-125.5" font-family="Helvetica,sans-Serif" font-size="10.00" fill="grey">private</text>
</g>
<!-- Node8 -->
<g id="Node000008" class="node">
<title>Node8</title>
<g id="a_Node000008"><a xlink:title=" ">
<polygon fill="white" stroke="#666666" points="353.5,-102 210.5,-102 210.5,-72 353.5,-72 353.5,-102"/>
<text text-anchor="start" x="218.5" y="-90" font-family="Helvetica,sans-Serif" font-size="10.00">_CactAddCapabilityDialog</text>
<text text-anchor="middle" x="282" y="-79" font-family="Helvetica,sans-Serif" font-size="10.00">ClassPrivate</text>
</a>
</g>
</g>
<!-- Node8&#45;&gt;Node1 -->
<g id="edge7_Node000001_Node000008" class="edge">
<title>Node8&#45;&gt;Node1</title>
<g id="a_edge7_Node000001_Node000008"><a xlink:title=" ">
<path fill="none" stroke="#9a32cd" stroke-dasharray="5,2" d="M261.93,-64.36C247.93,-49.26 230.01,-29.92 219.89,-19.01"/>
<polygon fill="#9a32cd" stroke="#9a32cd" points="259.47,-66.85 268.83,-71.8 264.6,-62.09 259.47,-66.85"/>
</a>
</g>
<text text-anchor="start" x="254.5" y="-42.5" font-family="Helvetica,sans-Serif" font-size="10.00" fill="grey">private</text>
</g>
</g>
</svg>
