<?xml version="1.0" encoding="UTF-8" standalone="no"?>
<!DOCTYPE svg PUBLIC "-//W3C//DTD SVG 1.1//EN"
 "http://www.w3.org/Graphics/SVG/1.1/DTD/svg11.dtd">
<!-- Generated by graphviz version 2.43.0 (0)
 -->
<!-- Title: CajaDragSlotProxyInfo Pages: 1 -->
<svg width="1593pt" height="1273pt"
 viewBox="0.00 0.00 1593.00 1273.12" xmlns="http://www.w3.org/2000/svg" xmlns:xlink="http://www.w3.org/1999/xlink">
<g id="graph0" class="graph" transform="scale(1 1) rotate(0) translate(4 1269.12)">
<title>CajaDragSlotProxyInfo</title>
<!-- Node1 -->
<g id="Node000001" class="node">
<title>Node1</title>
<g id="a_Node000001"><a xlink:title=" ">
<polygon fill="#999999" stroke="#666666" points="1179,-330.62 1052,-330.62 1052,-311.62 1179,-311.62 1179,-330.62"/>
<text text-anchor="middle" x="1115.5" y="-318.62" font-family="Helvetica,sans-Serif" font-size="10.00">CajaDragSlotProxyInfo</text>
</a>
</g>
</g>
<!-- Node2 -->
<g id="Node000002" class="node">
<title>Node2</title>
<g id="a_Node000002"><a xlink:href="structCajaWindowSlot.html" target="_top" xlink:title=" ">
<polygon fill="white" stroke="#666666" points="940,-139.62 844,-139.62 844,-120.62 940,-120.62 940,-139.62"/>
<text text-anchor="middle" x="892" y="-127.62" font-family="Helvetica,sans-Serif" font-size="10.00">CajaWindowSlot</text>
</a>
</g>
</g>
<!-- Node2&#45;&gt;Node1 -->
<g id="edge1_Node000001_Node000002" class="edge">
<title>Node2&#45;&gt;Node1</title>
<g id="a_edge1_Node000001_Node000002"><a xlink:title=" ">
<path fill="none" stroke="#9a32cd" stroke-dasharray="5,2" d="M909.28,-147.64C922.99,-163.36 942.07,-187.66 953,-212.12 968.75,-247.38 943.11,-270.41 971,-297.12 992.16,-317.39 1023.61,-324.22 1051.67,-325.62"/>
<polygon fill="#9a32cd" stroke="#9a32cd" points="911.58,-144.96 902.3,-139.85 906.36,-149.63 911.58,-144.96"/>
</a>
</g>
<text text-anchor="start" x="975" y="-329.62" font-family="Helvetica,sans-Serif" font-size="10.00" fill="grey">target_slot</text>
</g>
<!-- Node3 -->
<g id="Node000003" class="node">
<title>Node3</title>
<g id="a_Node000003"><a xlink:href="struct__CajaWindowPane.html" target="_top" xlink:title=" ">
<polygon fill="white" stroke="#666666" points="1168.5,-133.62 1062.5,-133.62 1062.5,-114.62 1168.5,-114.62 1168.5,-133.62"/>
<text text-anchor="middle" x="1115.5" y="-121.62" font-family="Helvetica,sans-Serif" font-size="10.00">_CajaWindowPane</text>
</a>
</g>
</g>
<!-- Node2&#45;&gt;Node3 -->
<g id="edge10_Node000003_Node000002" class="edge">
<title>Node2&#45;&gt;Node3</title>
<g id="a_edge10_Node000003_Node000002"><a xlink:title=" ">
<path fill="none" stroke="#9a32cd" stroke-dasharray="5,2" d="M950.47,-126.06C957.38,-125.69 964.35,-125.36 971,-125.12 1001.25,-124.05 1035.11,-123.77 1062.34,-123.77"/>
<polygon fill="#9a32cd" stroke="#9a32cd" points="950.19,-122.57 940.41,-126.65 950.6,-129.56 950.19,-122.57"/>
</a>
</g>
<text text-anchor="start" x="974" y="-130.62" font-family="Helvetica,sans-Serif" font-size="10.00" fill="grey">active_slot</text>
</g>
<!-- Node30 -->
<g id="Node000030" class="node">
<title>Node30</title>
<g id="a_Node000030"><a xlink:title=" ">
<polygon fill="white" stroke="#666666" points="1181,-69.62 1050,-69.62 1050,-50.62 1181,-50.62 1181,-69.62"/>
<text text-anchor="middle" x="1115.5" y="-57.62" font-family="Helvetica,sans-Serif" font-size="10.00">CajaQueryEditorDetails</text>
</a>
</g>
</g>
<!-- Node2&#45;&gt;Node30 -->
<g id="edge54_Node000030_Node000002" class="edge">
<title>Node2&#45;&gt;Node30</title>
<g id="a_edge54_Node000030_Node000002"><a xlink:title=" ">
<path fill="none" stroke="#9a32cd" stroke-dasharray="5,2" d="M929.24,-117.22C942.36,-112.65 957.31,-107.54 971,-103.12 1008.62,-90.98 1052.16,-78.1 1081.32,-69.63"/>
<polygon fill="#9a32cd" stroke="#9a32cd" points="927.9,-113.98 919.62,-120.6 930.22,-120.59 927.9,-113.98"/>
</a>
</g>
<text text-anchor="start" x="992" y="-108.62" font-family="Helvetica,sans-Serif" font-size="10.00" fill="grey">slot</text>
</g>
<!-- Node3&#45;&gt;Node2 -->
<g id="edge2_Node000002_Node000003" class="edge">
<title>Node3&#45;&gt;Node2</title>
<g id="a_edge2_Node000002_Node000003"><a xlink:title=" ">
<path fill="none" stroke="#9a32cd" stroke-dasharray="5,2" d="M1075.74,-136.55C1061.79,-140.43 1045.83,-144.2 1031,-146.12 1004.55,-149.55 997.53,-148.81 971,-146.12 958.07,-144.81 944.12,-142.3 931.64,-139.66"/>
<polygon fill="#9a32cd" stroke="#9a32cd" points="1076.86,-139.87 1085.5,-133.73 1074.92,-133.15 1076.86,-139.87"/>
</a>
</g>
<text text-anchor="start" x="989" y="-154.62" font-family="Helvetica,sans-Serif" font-size="10.00" fill="grey">pane</text>
</g>
<!-- Node5 -->
<g id="Node000005" class="node">
<title>Node5</title>
<g id="a_Node000005"><a xlink:href="struct__CajaWindowPrivate.html" target="_top" xlink:title=" ">
<polygon fill="white" stroke="#666666" points="1411,-172.62 1294,-172.62 1294,-153.62 1411,-153.62 1411,-172.62"/>
<text text-anchor="middle" x="1352.5" y="-160.62" font-family="Helvetica,sans-Serif" font-size="10.00">_CajaWindowPrivate</text>
</a>
</g>
</g>
<!-- Node3&#45;&gt;Node5 -->
<g id="edge6_Node000005_Node000003" class="edge">
<title>Node3&#45;&gt;Node5</title>
<g id="a_edge6_Node000005_Node000003"><a xlink:title=" ">
<path fill="none" stroke="#9a32cd" stroke-dasharray="5,2" d="M1178.74,-128.83C1208.37,-131.66 1244.19,-135.94 1276,-142.12 1291.09,-145.05 1307.57,-149.49 1321.27,-153.53"/>
<polygon fill="#9a32cd" stroke="#9a32cd" points="1178.82,-125.32 1168.54,-127.89 1178.17,-132.3 1178.82,-125.32"/>
</a>
</g>
<text text-anchor="start" x="1208" y="-147.62" font-family="Helvetica,sans-Serif" font-size="10.00" fill="grey">active_pane</text>
</g>
<!-- Node4 -->
<g id="Node000004" class="node">
<title>Node4</title>
<g id="a_Node000004"><a xlink:href="structCajaWindow.html" target="_top" xlink:title=" ">
<polygon fill="white" stroke="#666666" points="1585,-192.62 1508,-192.62 1508,-173.62 1585,-173.62 1585,-192.62"/>
<text text-anchor="middle" x="1546.5" y="-180.62" font-family="Helvetica,sans-Serif" font-size="10.00">CajaWindow</text>
</a>
</g>
</g>
<!-- Node4&#45;&gt;Node2 -->
<g id="edge55_Node000002_Node000004" class="edge">
<title>Node4&#45;&gt;Node2</title>
<g id="a_edge55_Node000002_Node000004"><a xlink:title=" ">
<path fill="none" stroke="#9a32cd" stroke-dasharray="5,2" d="M1524.09,-198.32C1514.15,-204.72 1501.91,-211.69 1490,-216.12 1305.34,-284.8 1234.12,-328.54 1049,-261.12 980.21,-236.07 920.67,-165.88 900.4,-139.93"/>
<polygon fill="#9a32cd" stroke="#9a32cd" points="1526.14,-201.16 1532.5,-192.7 1522.25,-195.35 1526.14,-201.16"/>
</a>
</g>
<text text-anchor="start" x="1203" y="-300.62" font-family="Helvetica,sans-Serif" font-size="10.00" fill="grey">open_callback</text>
</g>
<!-- Node4&#45;&gt;Node3 -->
<g id="edge3_Node000003_Node000004" class="edge">
<title>Node4&#45;&gt;Node3</title>
<g id="a_edge3_Node000003_Node000004"><a xlink:title=" ">
<path fill="none" stroke="#9a32cd" stroke-dasharray="5,2" d="M1519.89,-168.56C1493.56,-154.54 1450.89,-134.42 1411,-127.12 1327.26,-111.8 1227.87,-115.14 1168.61,-119.35"/>
<polygon fill="#9a32cd" stroke="#9a32cd" points="1518.36,-171.71 1528.82,-173.41 1521.7,-165.56 1518.36,-171.71"/>
</a>
</g>
<text text-anchor="start" x="1333.5" y="-132.62" font-family="Helvetica,sans-Serif" font-size="10.00" fill="grey">window</text>
</g>
<!-- Node5&#45;&gt;Node4 -->
<g id="edge4_Node000004_Node000005" class="edge">
<title>Node5&#45;&gt;Node4</title>
<g id="a_edge4_Node000004_Node000005"><a xlink:title=" ">
<path fill="none" stroke="#9a32cd" stroke-dasharray="5,2" d="M1421.55,-159.33C1443.53,-159.24 1467.92,-160.36 1490,-164.12 1501.14,-166.02 1513.06,-169.84 1522.98,-173.57"/>
<polygon fill="#9a32cd" stroke="#9a32cd" points="1421.27,-155.83 1411.31,-159.45 1421.35,-162.83 1421.27,-155.83"/>
</a>
</g>
<text text-anchor="start" x="1442.5" y="-169.62" font-family="Helvetica,sans-Serif" font-size="10.00" fill="grey">details</text>
</g>
<!-- Node6 -->
<g id="Node000006" class="node">
<title>Node6</title>
<g id="a_Node000006"><a xlink:href="structCajaBookmarkList.html" target="_top" xlink:title=" ">
<polygon fill="white" stroke="#666666" points="1168.5,-172.62 1062.5,-172.62 1062.5,-153.62 1168.5,-153.62 1168.5,-172.62"/>
<text text-anchor="middle" x="1115.5" y="-160.62" font-family="Helvetica,sans-Serif" font-size="10.00">CajaBookmarkList</text>
</a>
</g>
</g>
<!-- Node6&#45;&gt;Node5 -->
<g id="edge5_Node000005_Node000006" class="edge">
<title>Node6&#45;&gt;Node5</title>
<g id="a_edge5_Node000005_Node000006"><a xlink:title=" ">
<path fill="none" stroke="#9a32cd" stroke-dasharray="5,2" d="M1178.93,-163.12C1214.55,-163.12 1258.9,-163.12 1293.72,-163.12"/>
<polygon fill="#9a32cd" stroke="#9a32cd" points="1178.65,-159.62 1168.65,-163.12 1178.65,-166.62 1178.65,-159.62"/>
</a>
</g>
<text text-anchor="start" x="1203" y="-168.62" font-family="Helvetica,sans-Serif" font-size="10.00" fill="grey">bookmark_list</text>
</g>
<!-- Node7 -->
<g id="Node000007" class="node">
<title>Node7</title>
<g id="a_Node000007"><a xlink:href="structCajaApplication.html" target="_top" xlink:title=" ">
<polygon fill="white" stroke="#666666" points="1399,-212.62 1306,-212.62 1306,-193.62 1399,-193.62 1399,-212.62"/>
<text text-anchor="middle" x="1352.5" y="-200.62" font-family="Helvetica,sans-Serif" font-size="10.00">CajaApplication</text>
</a>
</g>
</g>
<!-- Node7&#45;&gt;Node4 -->
<g id="edge7_Node000004_Node000007" class="edge">
<title>Node7&#45;&gt;Node4</title>
<g id="a_edge7_Node000004_Node000007"><a xlink:title=" ">
<path fill="none" stroke="#9a32cd" stroke-dasharray="5,2" d="M1409.01,-197.34C1440.7,-194.04 1479.6,-189.99 1507.75,-187.05"/>
<polygon fill="#9a32cd" stroke="#9a32cd" points="1408.58,-193.86 1399,-198.38 1409.31,-200.83 1408.58,-193.86"/>
</a>
</g>
<text text-anchor="start" x="1432.5" y="-200.62" font-family="Helvetica,sans-Serif" font-size="10.00" fill="grey">application</text>
</g>
<!-- Node8 -->
<g id="Node000008" class="node">
<title>Node8</title>
<g id="a_Node000008"><a xlink:title=" ">
<polygon fill="white" stroke="#666666" points="1182,-252.62 1049,-252.62 1049,-233.62 1182,-233.62 1182,-252.62"/>
<text text-anchor="middle" x="1115.5" y="-240.62" font-family="Helvetica,sans-Serif" font-size="10.00">_CajaApplicationPrivate</text>
</a>
</g>
</g>
<!-- Node8&#45;&gt;Node7 -->
<g id="edge8_Node000007_Node000008" class="edge">
<title>Node8&#45;&gt;Node7</title>
<g id="a_edge8_Node000007_Node000008"><a xlink:title=" ">
<path fill="none" stroke="#9a32cd" stroke-dasharray="5,2" d="M1192.3,-234.19C1218.87,-230.66 1248.84,-226.22 1276,-221.12 1288.71,-218.73 1302.51,-215.61 1314.79,-212.63"/>
<polygon fill="#9a32cd" stroke="#9a32cd" points="1191.77,-230.73 1182.31,-235.5 1192.68,-237.68 1191.77,-230.73"/>
</a>
</g>
<text text-anchor="start" x="1229" y="-238.62" font-family="Helvetica,sans-Serif" font-size="10.00" fill="grey">priv</text>
</g>
<!-- Node9 -->
<g id="Node000009" class="node">
<title>Node9</title>
<g id="a_Node000009"><a xlink:href="struct__EggSMClient.html" target="_top" xlink:title=" ">
<polygon fill="white" stroke="#666666" points="1157,-212.62 1074,-212.62 1074,-193.62 1157,-193.62 1157,-212.62"/>
<text text-anchor="middle" x="1115.5" y="-200.62" font-family="Helvetica,sans-Serif" font-size="10.00">_EggSMClient</text>
</a>
</g>
</g>
<!-- Node9&#45;&gt;Node7 -->
<g id="edge9_Node000007_Node000009" class="edge">
<title>Node9&#45;&gt;Node7</title>
<g id="a_edge9_Node000007_Node000009"><a xlink:title=" ">
<path fill="none" stroke="#9a32cd" stroke-dasharray="5,2" d="M1167.26,-203.12C1208.42,-203.12 1265.94,-203.12 1305.71,-203.12"/>
<polygon fill="#9a32cd" stroke="#9a32cd" points="1167.17,-199.62 1157.17,-203.12 1167.17,-206.62 1167.17,-199.62"/>
</a>
</g>
<text text-anchor="start" x="1217" y="-208.62" font-family="Helvetica,sans-Serif" font-size="10.00" fill="grey">smclient</text>
</g>
<!-- Node10 -->
<g id="Node000010" class="node">
<title>Node10</title>
<g id="a_Node000010"><a xlink:href="structCajaBookmark.html" target="_top" xlink:title=" ">
<polygon fill="white" stroke="#666666" points="614.5,-146.62 525.5,-146.62 525.5,-127.62 614.5,-127.62 614.5,-146.62"/>
<text text-anchor="middle" x="570" y="-134.62" font-family="Helvetica,sans-Serif" font-size="10.00">CajaBookmark</text>
</a>
</g>
</g>
<!-- Node10&#45;&gt;Node2 -->
<g id="edge11_Node000002_Node000010" class="edge">
<title>Node10&#45;&gt;Node2</title>
<g id="a_edge11_Node000002_Node000010"><a xlink:title=" ">
<path fill="none" stroke="#9a32cd" stroke-dasharray="5,2" d="M625.08,-135.94C686.42,-134.6 785.47,-132.43 843.81,-131.15"/>
<polygon fill="#9a32cd" stroke="#9a32cd" points="624.74,-132.44 614.82,-136.16 624.9,-139.44 624.74,-132.44"/>
</a>
</g>
<text text-anchor="start" x="673" y="-156.12" font-family="Helvetica,sans-Serif" font-size="10.00" fill="grey">current_location_bookmark</text>
<text text-anchor="start" x="673" y="-141.12" font-family="Helvetica,sans-Serif" font-size="10.00" fill="grey">last_location_bookmark</text>
</g>
<!-- Node11 -->
<g id="Node000011" class="node">
<title>Node11</title>
<g id="a_Node000011"><a xlink:title=" ">
<polygon fill="white" stroke="#666666" points="349,-155.62 226,-155.62 226,-136.62 349,-136.62 349,-155.62"/>
<text text-anchor="middle" x="287.5" y="-143.62" font-family="Helvetica,sans-Serif" font-size="10.00">CajaBookmarkDetails</text>
</a>
</g>
</g>
<!-- Node11&#45;&gt;Node10 -->
<g id="edge12_Node000010_Node000011" class="edge">
<title>Node11&#45;&gt;Node10</title>
<g id="a_edge12_Node000010_Node000011"><a xlink:title=" ">
<path fill="none" stroke="#9a32cd" stroke-dasharray="5,2" d="M359.21,-143.85C411.36,-142.18 480.69,-139.95 525.09,-138.53"/>
<polygon fill="#9a32cd" stroke="#9a32cd" points="358.9,-140.36 349.02,-144.18 359.13,-147.36 358.9,-140.36"/>
</a>
</g>
<text text-anchor="start" x="403" y="-149.62" font-family="Helvetica,sans-Serif" font-size="10.00" fill="grey">details</text>
</g>
<!-- Node12 -->
<g id="Node000012" class="node">
<title>Node12</title>
<g id="a_Node000012"><a xlink:href="structCajaFile.html" target="_top" xlink:title=" ">
<polygon fill="white" stroke="#666666" points="71.5,-474.62 15.5,-474.62 15.5,-455.62 71.5,-455.62 71.5,-474.62"/>
<text text-anchor="middle" x="43.5" y="-462.62" font-family="Helvetica,sans-Serif" font-size="10.00">CajaFile</text>
</a>
</g>
</g>
<!-- Node12&#45;&gt;Node2 -->
<g id="edge49_Node000002_Node000012" class="edge">
<title>Node12&#45;&gt;Node2</title>
<g id="a_edge49_Node000002_Node000012"><a xlink:title=" ">
<path fill="none" stroke="#9a32cd" stroke-dasharray="5,2" d="M44.98,-445.16C47.01,-378.96 57.19,-168.38 105,-125.12 213.4,-27.04 690.89,-96.63 843.75,-121.94"/>
<polygon fill="#9a32cd" stroke="#9a32cd" points="41.47,-445.36 44.69,-455.45 48.47,-445.56 41.47,-445.36"/>
</a>
</g>
<text text-anchor="start" x="370" y="-99.12" font-family="Helvetica,sans-Serif" font-size="10.00" fill="grey">determine_view_file</text>
<text text-anchor="start" x="370" y="-84.12" font-family="Helvetica,sans-Serif" font-size="10.00" fill="grey">viewed_file</text>
</g>
<!-- Node12&#45;&gt;Node11 -->
<g id="edge13_Node000011_Node000012" class="edge">
<title>Node12&#45;&gt;Node11</title>
<g id="a_edge13_Node000011_Node000012"><a xlink:title=" ">
<path fill="none" stroke="#9a32cd" stroke-dasharray="5,2" d="M45.28,-445.18C48.18,-382.67 60.58,-192.41 105,-154.12 145.97,-118.81 213.51,-127.22 253.62,-136.62"/>
<polygon fill="#9a32cd" stroke="#9a32cd" points="41.78,-445.16 44.85,-455.3 48.77,-445.46 41.78,-445.16"/>
</a>
</g>
<text text-anchor="start" x="148.5" y="-159.62" font-family="Helvetica,sans-Serif" font-size="10.00" fill="grey">file</text>
</g>
<!-- Node15 -->
<g id="Node000015" class="node">
<title>Node15</title>
<g id="a_Node000015"><a xlink:href="struct__CajaDirectoryPrivate.html" target="_top" xlink:title=" ">
<polygon fill="white" stroke="#666666" points="349,-808.62 226,-808.62 226,-789.62 349,-789.62 349,-808.62"/>
<text text-anchor="middle" x="287.5" y="-796.62" font-family="Helvetica,sans-Serif" font-size="10.00">_CajaDirectoryPrivate</text>
</a>
</g>
</g>
<!-- Node12&#45;&gt;Node15 -->
<g id="edge17_Node000015_Node000012" class="edge">
<title>Node12&#45;&gt;Node15</title>
<g id="a_edge17_Node000015_Node000012"><a xlink:title=" ">
<path fill="none" stroke="#9a32cd" stroke-dasharray="5,2" d="M53.36,-483.81C64.36,-506.37 84.21,-545.15 105,-576.12 163.97,-663.99 249.74,-759.26 277.48,-789.41"/>
<polygon fill="#9a32cd" stroke="#9a32cd" points="56.45,-482.16 48.96,-474.67 50.15,-485.2 56.45,-482.16"/>
</a>
</g>
<text text-anchor="start" x="110.5" y="-757.12" font-family="Helvetica,sans-Serif" font-size="10.00" fill="grey">as_file</text>
<text text-anchor="start" x="110.5" y="-742.12" font-family="Helvetica,sans-Serif" font-size="10.00" fill="grey">deep_count_file</text>
<text text-anchor="start" x="110.5" y="-727.12" font-family="Helvetica,sans-Serif" font-size="10.00" fill="grey">extension_info_file</text>
<text text-anchor="start" x="110.5" y="-712.12" font-family="Helvetica,sans-Serif" font-size="10.00" fill="grey">get_info_file</text>
</g>
<!-- Node18 -->
<g id="Node000018" class="node">
<title>Node18</title>
<g id="a_Node000018"><a xlink:title=" ">
<polygon fill="white" stroke="#666666" points="947,-1124.62 837,-1124.62 837,-1105.62 947,-1105.62 947,-1124.62"/>
<text text-anchor="middle" x="892" y="-1112.62" font-family="Helvetica,sans-Serif" font-size="10.00">DirectoryLoadState</text>
</a>
</g>
</g>
<!-- Node12&#45;&gt;Node18 -->
<g id="edge22_Node000018_Node000012" class="edge">
<title>Node12&#45;&gt;Node18</title>
<g id="a_edge22_Node000018_Node000012"><a xlink:title=" ">
<path fill="none" stroke="#9a32cd" stroke-dasharray="5,2" d="M45.32,-485.03C48.87,-565.58 64.67,-866.99 105,-952.12 138.38,-1022.58 163.38,-1032.69 226,-1079.12 378.79,-1192.41 459.35,-1158.69 649,-1144.12 713.76,-1139.15 787.87,-1129.71 836.83,-1122.95"/>
<polygon fill="#9a32cd" stroke="#9a32cd" points="48.8,-484.65 44.88,-474.8 41.81,-484.95 48.8,-484.65"/>
</a>
</g>
<text text-anchor="start" x="375" y="-1166.62" font-family="Helvetica,sans-Serif" font-size="10.00" fill="grey">load_directory_file</text>
</g>
<!-- Node19 -->
<g id="Node000019" class="node">
<title>Node19</title>
<g id="a_Node000019"><a xlink:title=" ">
<polygon fill="white" stroke="#666666" points="950,-1074.62 834,-1074.62 834,-1055.62 950,-1055.62 950,-1074.62"/>
<text text-anchor="middle" x="892" y="-1062.62" font-family="Helvetica,sans-Serif" font-size="10.00">DirectoryCountState</text>
</a>
</g>
</g>
<!-- Node12&#45;&gt;Node19 -->
<g id="edge25_Node000019_Node000012" class="edge">
<title>Node12&#45;&gt;Node19</title>
<g id="a_edge25_Node000019_Node000012"><a xlink:title=" ">
<path fill="none" stroke="#9a32cd" stroke-dasharray="5,2" d="M46.09,-485.15C51.9,-555.66 73.35,-791.85 105,-860.12 171.8,-1004.21 218.7,-1046.28 367,-1103.12 546.5,-1171.91 785.58,-1101.69 864.5,-1074.71"/>
<polygon fill="#9a32cd" stroke="#9a32cd" points="49.56,-484.66 45.26,-474.97 42.58,-485.22 49.56,-484.66"/>
</a>
</g>
<text text-anchor="start" x="396" y="-1134.62" font-family="Helvetica,sans-Serif" font-size="10.00" fill="grey">count_file</text>
</g>
<!-- Node21 -->
<g id="Node000021" class="node">
<title>Node21</title>
<g id="a_Node000021"><a xlink:title=" ">
<polygon fill="white" stroke="#666666" points="935.5,-514.62 848.5,-514.62 848.5,-495.62 935.5,-495.62 935.5,-514.62"/>
<text text-anchor="middle" x="892" y="-502.62" font-family="Helvetica,sans-Serif" font-size="10.00">MimeListState</text>
</a>
</g>
</g>
<!-- Node12&#45;&gt;Node21 -->
<g id="edge30_Node000021_Node000012" class="edge">
<title>Node12&#45;&gt;Node21</title>
<g id="a_edge30_Node000021_Node000012"><a xlink:title=" ">
<path fill="none" stroke="#9a32cd" stroke-dasharray="5,2" d="M81.96,-464.17C178.75,-461.78 445.09,-455.6 667,-454.12 731.89,-453.69 750.81,-435.6 813,-454.12 839.98,-462.16 866.32,-482.83 880.42,-495.25"/>
<polygon fill="#9a32cd" stroke="#9a32cd" points="81.71,-460.68 71.8,-464.42 81.89,-467.67 81.71,-460.68"/>
</a>
</g>
<text text-anchor="start" x="385" y="-463.62" font-family="Helvetica,sans-Serif" font-size="10.00" fill="grey">mime_list_file</text>
</g>
<!-- Node23 -->
<g id="Node000023" class="node">
<title>Node23</title>
<g id="a_Node000023"><a xlink:title=" ">
<polygon fill="white" stroke="#666666" points="939,-424.62 845,-424.62 845,-405.62 939,-405.62 939,-424.62"/>
<text text-anchor="middle" x="892" y="-412.62" font-family="Helvetica,sans-Serif" font-size="10.00">ThumbnailState</text>
</a>
</g>
</g>
<!-- Node12&#45;&gt;Node23 -->
<g id="edge35_Node000023_Node000012" class="edge">
<title>Node12&#45;&gt;Node23</title>
<g id="a_edge35_Node000023_Node000012"><a xlink:title=" ">
<path fill="none" stroke="#9a32cd" stroke-dasharray="5,2" d="M81.42,-456.99C177.36,-436.34 442.72,-382.2 667,-364.12 731.68,-358.91 750.81,-345.6 813,-364.12 839.98,-372.16 866.32,-392.83 880.42,-405.25"/>
<polygon fill="#9a32cd" stroke="#9a32cd" points="80.65,-453.58 71.61,-459.12 82.13,-460.42 80.65,-453.58"/>
</a>
</g>
<text text-anchor="start" x="412" y="-407.62" font-family="Helvetica,sans-Serif" font-size="10.00" fill="grey">file</text>
</g>
<!-- Node24 -->
<g id="Node000024" class="node">
<title>Node24</title>
<g id="a_Node000024"><a xlink:title=" ">
<polygon fill="white" stroke="#666666" points="928.5,-334.62 855.5,-334.62 855.5,-315.62 928.5,-315.62 928.5,-334.62"/>
<text text-anchor="middle" x="892" y="-322.62" font-family="Helvetica,sans-Serif" font-size="10.00">MountState</text>
</a>
</g>
</g>
<!-- Node12&#45;&gt;Node24 -->
<g id="edge38_Node000024_Node000012" class="edge">
<title>Node12&#45;&gt;Node24</title>
<g id="a_edge38_Node000024_Node000012"><a xlink:title=" ">
<path fill="none" stroke="#9a32cd" stroke-dasharray="5,2" d="M66.95,-449.8C78.03,-442.76 91.82,-434.74 105,-429.12 343.35,-327.52 410.24,-308.88 667,-274.12 731.3,-265.42 750.81,-255.6 813,-274.12 839.98,-282.16 866.32,-302.83 880.42,-315.25"/>
<polygon fill="#9a32cd" stroke="#9a32cd" points="64.81,-447.02 58.35,-455.41 68.64,-452.88 64.81,-447.02"/>
</a>
</g>
<text text-anchor="start" x="412" y="-335.62" font-family="Helvetica,sans-Serif" font-size="10.00" fill="grey">file</text>
</g>
<!-- Node25 -->
<g id="Node000025" class="node">
<title>Node25</title>
<g id="a_Node000025"><a xlink:title=" ">
<polygon fill="white" stroke="#666666" points="949,-240.62 835,-240.62 835,-221.62 949,-221.62 949,-240.62"/>
<text text-anchor="middle" x="892" y="-228.62" font-family="Helvetica,sans-Serif" font-size="10.00">FilesystemInfoState</text>
</a>
</g>
</g>
<!-- Node12&#45;&gt;Node25 -->
<g id="edge41_Node000025_Node000012" class="edge">
<title>Node12&#45;&gt;Node25</title>
<g id="a_edge41_Node000025_Node000012"><a xlink:title=" ">
<path fill="none" stroke="#9a32cd" stroke-dasharray="5,2" d="M54.44,-446.65C64.95,-428.62 83.02,-401.45 105,-384.12 150.97,-347.88 171.3,-352.95 226,-332.12 414.1,-260.5 466.23,-243.31 667,-229.12 724.03,-225.09 789.42,-226.35 834.77,-228.15"/>
<polygon fill="#9a32cd" stroke="#9a32cd" points="51.26,-445.17 49.41,-455.6 57.36,-448.6 51.26,-445.17"/>
</a>
</g>
<text text-anchor="start" x="412" y="-285.62" font-family="Helvetica,sans-Serif" font-size="10.00" fill="grey">file</text>
</g>
<!-- Node26 -->
<g id="Node000026" class="node">
<title>Node26</title>
<g id="a_Node000026"><a xlink:title=" ">
<polygon fill="white" stroke="#666666" points="953,-854.62 831,-854.62 831,-835.62 953,-835.62 953,-854.62"/>
<text text-anchor="middle" x="892" y="-842.62" font-family="Helvetica,sans-Serif" font-size="10.00">TopLeftTextReadState</text>
</a>
</g>
</g>
<!-- Node12&#45;&gt;Node26 -->
<g id="edge44_Node000026_Node000012" class="edge">
<title>Node12&#45;&gt;Node26</title>
<g id="a_edge44_Node000026_Node000012"><a xlink:title=" ">
<path fill="none" stroke="#9a32cd" stroke-dasharray="5,2" d="M43.94,-484.75C43.37,-535.93 47.52,-676.15 105,-772.12 218.93,-962.32 282.2,-1013.56 491,-1088.12 557.13,-1111.74 593.79,-1131.51 649,-1088.12 675.61,-1067.21 642.49,-1037.46 667,-1014.12 714.85,-968.56 765.35,-1031.89 813,-986.12 838.35,-961.77 814.42,-940.11 831,-909.12 843,-886.7 864.88,-866.29 878.64,-854.82"/>
<polygon fill="#9a32cd" stroke="#9a32cd" points="47.44,-484.79 44.13,-474.72 40.44,-484.65 47.44,-484.79"/>
</a>
</g>
<text text-anchor="start" x="412" y="-1087.62" font-family="Helvetica,sans-Serif" font-size="10.00" fill="grey">file</text>
</g>
<!-- Node27 -->
<g id="Node000027" class="node">
<title>Node27</title>
<g id="a_Node000027"><a xlink:title=" ">
<polygon fill="white" stroke="#666666" points="945,-604.62 839,-604.62 839,-585.62 945,-585.62 945,-604.62"/>
<text text-anchor="middle" x="892" y="-592.62" font-family="Helvetica,sans-Serif" font-size="10.00">LinkInfoReadState</text>
</a>
</g>
</g>
<!-- Node12&#45;&gt;Node27 -->
<g id="edge47_Node000027_Node000012" class="edge">
<title>Node12&#45;&gt;Node27</title>
<g id="a_edge47_Node000027_Node000012"><a xlink:title=" ">
<path fill="none" stroke="#9a32cd" stroke-dasharray="5,2" d="M81.44,-472.88C89.2,-474.39 97.36,-475.89 105,-477.12 267.72,-503.39 318.52,-465.65 473,-523.12 482.01,-526.47 481.84,-532.21 491,-535.12 627.43,-578.52 676.38,-501.33 813,-544.12 839.87,-552.54 866.24,-573.07 880.39,-585.37"/>
<polygon fill="#9a32cd" stroke="#9a32cd" points="82.02,-469.43 71.53,-470.91 80.66,-476.3 82.02,-469.43"/>
</a>
</g>
<text text-anchor="start" x="412" y="-528.62" font-family="Helvetica,sans-Serif" font-size="10.00" fill="grey">file</text>
</g>
<!-- Node13 -->
<g id="Node000013" class="node">
<title>Node13</title>
<g id="a_Node000013"><a xlink:href="struct__CajaFilePrivate.html" target="_top" xlink:title=" ">
<polygon fill="white" stroke="#666666" points="939.5,-702.62 844.5,-702.62 844.5,-683.62 939.5,-683.62 939.5,-702.62"/>
<text text-anchor="middle" x="892" y="-690.62" font-family="Helvetica,sans-Serif" font-size="10.00">_CajaFilePrivate</text>
</a>
</g>
</g>
<!-- Node13&#45;&gt;Node12 -->
<g id="edge14_Node000012_Node000013" class="edge">
<title>Node13&#45;&gt;Node12</title>
<g id="a_edge14_Node000012_Node000013"><a xlink:title=" ">
<path fill="none" stroke="#9a32cd" stroke-dasharray="5,2" d="M874.87,-676C860.26,-661.81 837.34,-642.63 813,-634.12 779.21,-622.31 526.25,-632.31 491,-626.12 312.84,-594.86 271.28,-568.31 105,-497.12 89.6,-490.53 72.81,-481.49 60.83,-474.7"/>
<polygon fill="#9a32cd" stroke="#9a32cd" points="872.56,-678.64 882.09,-683.28 877.53,-673.71 872.56,-678.64"/>
</a>
</g>
<text text-anchor="start" x="403" y="-628.62" font-family="Helvetica,sans-Serif" font-size="10.00" fill="grey">details</text>
</g>
<!-- Node14 -->
<g id="Node000014" class="node">
<title>Node14</title>
<g id="a_Node000014"><a xlink:href="structCajaDirectory.html" target="_top" xlink:title=" ">
<polygon fill="white" stroke="#666666" points="611.5,-762.62 528.5,-762.62 528.5,-743.62 611.5,-743.62 611.5,-762.62"/>
<text text-anchor="middle" x="570" y="-750.62" font-family="Helvetica,sans-Serif" font-size="10.00">CajaDirectory</text>
</a>
</g>
</g>
<!-- Node14&#45;&gt;Node13 -->
<g id="edge15_Node000013_Node000014" class="edge">
<title>Node14&#45;&gt;Node13</title>
<g id="a_edge15_Node000013_Node000014"><a xlink:title=" ">
<path fill="none" stroke="#9a32cd" stroke-dasharray="5,2" d="M621.85,-745.13C670.92,-737.22 747.25,-724.4 813,-711.12 825.53,-708.59 839.13,-705.55 851.41,-702.7"/>
<polygon fill="#9a32cd" stroke="#9a32cd" points="621.12,-741.7 611.81,-746.74 622.23,-748.61 621.12,-741.7"/>
</a>
</g>
<text text-anchor="start" x="718" y="-743.62" font-family="Helvetica,sans-Serif" font-size="10.00" fill="grey">directory</text>
</g>
<!-- Node14&#45;&gt;Node18 -->
<g id="edge21_Node000018_Node000014" class="edge">
<title>Node14&#45;&gt;Node18</title>
<g id="a_edge21_Node000018_Node000014"><a xlink:title=" ">
<path fill="none" stroke="#9a32cd" stroke-dasharray="5,2" d="M596.13,-768.29C614.15,-780.64 637.23,-799.81 649,-823.12 667.91,-860.59 642.76,-976.86 667,-1011.12 679.51,-1028.8 811.74,-1083.33 866.97,-1105.55"/>
<polygon fill="#9a32cd" stroke="#9a32cd" points="598.04,-765.36 587.76,-762.78 594.19,-771.2 598.04,-765.36"/>
</a>
</g>
<text text-anchor="start" x="718" y="-1088.62" font-family="Helvetica,sans-Serif" font-size="10.00" fill="grey">directory</text>
</g>
<!-- Node14&#45;&gt;Node19 -->
<g id="edge24_Node000019_Node000014" class="edge">
<title>Node14&#45;&gt;Node19</title>
<g id="a_edge24_Node000019_Node000014"><a xlink:title=" ">
<path fill="none" stroke="#9a32cd" stroke-dasharray="5,2" d="M595.72,-768.71C613.42,-781.22 636.28,-800.41 649,-823.12 670.64,-861.76 640.4,-885.72 667,-921.12 710.58,-979.12 753.17,-953.09 813,-994.12 840.49,-1012.97 868.31,-1040.9 882.11,-1055.48"/>
<polygon fill="#9a32cd" stroke="#9a32cd" points="597.26,-765.52 587.02,-762.79 593.32,-771.31 597.26,-765.52"/>
</a>
</g>
<text text-anchor="start" x="718" y="-999.62" font-family="Helvetica,sans-Serif" font-size="10.00" fill="grey">directory</text>
</g>
<!-- Node20 -->
<g id="Node000020" class="node">
<title>Node20</title>
<g id="a_Node000020"><a xlink:title=" ">
<polygon fill="white" stroke="#666666" points="940,-937.62 844,-937.62 844,-918.62 940,-918.62 940,-937.62"/>
<text text-anchor="middle" x="892" y="-925.62" font-family="Helvetica,sans-Serif" font-size="10.00">DeepCountState</text>
</a>
</g>
</g>
<!-- Node14&#45;&gt;Node20 -->
<g id="edge27_Node000020_Node000014" class="edge">
<title>Node14&#45;&gt;Node20</title>
<g id="a_edge27_Node000020_Node000014"><a xlink:title=" ">
<path fill="none" stroke="#9a32cd" stroke-dasharray="5,2" d="M587.73,-770.32C605.94,-788.29 636.54,-816.44 667,-835.12 731.07,-874.42 814.7,-904.13 859.46,-918.52"/>
<polygon fill="#9a32cd" stroke="#9a32cd" points="589.82,-767.46 580.29,-762.84 584.87,-772.4 589.82,-767.46"/>
</a>
</g>
<text text-anchor="start" x="718" y="-906.62" font-family="Helvetica,sans-Serif" font-size="10.00" fill="grey">directory</text>
</g>
<!-- Node14&#45;&gt;Node21 -->
<g id="edge29_Node000021_Node000014" class="edge">
<title>Node14&#45;&gt;Node21</title>
<g id="a_edge29_Node000021_Node000014"><a xlink:title=" ">
<path fill="none" stroke="#9a32cd" stroke-dasharray="5,2" d="M612.4,-739.48C626.07,-732.97 640.05,-723.77 649,-711.12 679.12,-668.52 634.55,-635.97 667,-595.12 691.31,-564.52 799.08,-530.74 855.81,-514.65"/>
<polygon fill="#9a32cd" stroke="#9a32cd" points="610.81,-736.35 603.05,-743.56 613.61,-742.77 610.81,-736.35"/>
</a>
</g>
<text text-anchor="start" x="718" y="-600.62" font-family="Helvetica,sans-Serif" font-size="10.00" fill="grey">directory</text>
</g>
<!-- Node22 -->
<g id="Node000022" class="node">
<title>Node22</title>
<g id="a_Node000022"><a xlink:title=" ">
<polygon fill="white" stroke="#666666" points="931,-800.62 853,-800.62 853,-781.62 931,-781.62 931,-800.62"/>
<text text-anchor="middle" x="892" y="-788.62" font-family="Helvetica,sans-Serif" font-size="10.00">GetInfoState</text>
</a>
</g>
</g>
<!-- Node14&#45;&gt;Node22 -->
<g id="edge32_Node000022_Node000014" class="edge">
<title>Node14&#45;&gt;Node22</title>
<g id="a_edge32_Node000022_Node000014"><a xlink:title=" ">
<path fill="none" stroke="#9a32cd" stroke-dasharray="5,2" d="M621.92,-755.64C671.05,-758.52 747.41,-764.17 813,-774.12 826.02,-776.1 840.12,-778.95 852.7,-781.75"/>
<polygon fill="#9a32cd" stroke="#9a32cd" points="622.05,-752.14 611.87,-755.07 621.65,-759.13 622.05,-752.14"/>
</a>
</g>
<text text-anchor="start" x="718" y="-779.62" font-family="Helvetica,sans-Serif" font-size="10.00" fill="grey">directory</text>
</g>
<!-- Node14&#45;&gt;Node23 -->
<g id="edge34_Node000023_Node000014" class="edge">
<title>Node14&#45;&gt;Node23</title>
<g id="a_edge34_Node000023_Node000014"><a xlink:title=" ">
<path fill="none" stroke="#9a32cd" stroke-dasharray="5,2" d="M613.52,-739.48C627.02,-733.02 640.61,-723.85 649,-711.12 673.92,-673.31 640.21,-544.64 667,-508.12 690.35,-476.29 799.66,-441.2 856.48,-424.7"/>
<polygon fill="#9a32cd" stroke="#9a32cd" points="612.02,-736.31 604.25,-743.52 614.82,-742.73 612.02,-736.31"/>
</a>
</g>
<text text-anchor="start" x="718" y="-513.62" font-family="Helvetica,sans-Serif" font-size="10.00" fill="grey">directory</text>
</g>
<!-- Node14&#45;&gt;Node24 -->
<g id="edge37_Node000024_Node000014" class="edge">
<title>Node14&#45;&gt;Node24</title>
<g id="a_edge37_Node000024_Node000014"><a xlink:title=" ">
<path fill="none" stroke="#9a32cd" stroke-dasharray="5,2" d="M614.05,-739.44C627.46,-733.01 640.85,-723.86 649,-711.12 684.04,-656.36 629.36,-472.13 667,-419.12 689.95,-386.8 800,-351.26 856.84,-334.65"/>
<polygon fill="#9a32cd" stroke="#9a32cd" points="612.59,-736.26 604.83,-743.48 615.39,-742.68 612.59,-736.26"/>
</a>
</g>
<text text-anchor="start" x="718" y="-424.62" font-family="Helvetica,sans-Serif" font-size="10.00" fill="grey">directory</text>
</g>
<!-- Node14&#45;&gt;Node25 -->
<g id="edge40_Node000025_Node000014" class="edge">
<title>Node14&#45;&gt;Node25</title>
<g id="a_edge40_Node000025_Node000014"><a xlink:title=" ">
<path fill="none" stroke="#9a32cd" stroke-dasharray="5,2" d="M614.15,-739.51C627.57,-733.08 640.94,-723.92 649,-711.12 694.28,-639.21 618.82,-399.13 667,-329.12 689.86,-295.9 802.18,-258.01 858.57,-240.68"/>
<polygon fill="#9a32cd" stroke="#9a32cd" points="612.69,-736.33 604.92,-743.54 615.49,-742.75 612.69,-736.33"/>
</a>
</g>
<text text-anchor="start" x="718" y="-334.62" font-family="Helvetica,sans-Serif" font-size="10.00" fill="grey">directory</text>
</g>
<!-- Node14&#45;&gt;Node26 -->
<g id="edge43_Node000026_Node000014" class="edge">
<title>Node14&#45;&gt;Node26</title>
<g id="a_edge43_Node000026_Node000014"><a xlink:title=" ">
<path fill="none" stroke="#9a32cd" stroke-dasharray="5,2" d="M600.69,-766.85C619.37,-774.98 644.18,-784.89 667,-791.12 730.37,-808.43 749.64,-796.77 813,-814.12 833.1,-819.62 855.08,-828.65 870.57,-835.55"/>
<polygon fill="#9a32cd" stroke="#9a32cd" points="602.08,-763.63 591.52,-762.78 599.25,-770.03 602.08,-763.63"/>
</a>
</g>
<text text-anchor="start" x="718" y="-819.62" font-family="Helvetica,sans-Serif" font-size="10.00" fill="grey">directory</text>
</g>
<!-- Node14&#45;&gt;Node27 -->
<g id="edge46_Node000027_Node000014" class="edge">
<title>Node14&#45;&gt;Node27</title>
<g id="a_edge46_Node000027_Node000014"><a xlink:title=" ">
<path fill="none" stroke="#9a32cd" stroke-dasharray="5,2" d="M607.55,-739.43C621.88,-732.64 637.59,-723.25 649,-711.12 662.08,-697.21 652.83,-684.92 667,-672.12 694.61,-647.17 795.16,-619.01 851.7,-604.65"/>
<polygon fill="#9a32cd" stroke="#9a32cd" points="606.09,-736.24 598.38,-743.52 608.94,-742.64 606.09,-736.24"/>
</a>
</g>
<text text-anchor="start" x="718" y="-677.62" font-family="Helvetica,sans-Serif" font-size="10.00" fill="grey">directory</text>
</g>
<!-- Node15&#45;&gt;Node14 -->
<g id="edge16_Node000014_Node000015" class="edge">
<title>Node15&#45;&gt;Node14</title>
<g id="a_edge16_Node000014_Node000015"><a xlink:title=" ">
<path fill="none" stroke="#9a32cd" stroke-dasharray="5,2" d="M356.74,-787.93C410.37,-779.13 483.29,-767.18 528.2,-759.81"/>
<polygon fill="#9a32cd" stroke="#9a32cd" points="355.92,-784.52 346.62,-789.59 357.05,-791.43 355.92,-784.52"/>
</a>
</g>
<text text-anchor="start" x="403" y="-791.62" font-family="Helvetica,sans-Serif" font-size="10.00" fill="grey">details</text>
</g>
<!-- Node16 -->
<g id="Node000016" class="node">
<title>Node16</title>
<g id="a_Node000016"><a xlink:title=" ">
<polygon fill="white" stroke="#666666" points="87,-1262.62 0,-1262.62 0,-1243.62 87,-1243.62 87,-1262.62"/>
<text text-anchor="middle" x="43.5" y="-1250.62" font-family="Helvetica,sans-Serif" font-size="10.00">CajaFileQueue</text>
</a>
</g>
</g>
<!-- Node16&#45;&gt;Node15 -->
<g id="edge18_Node000015_Node000016" class="edge">
<title>Node16&#45;&gt;Node15</title>
<g id="a_edge18_Node000015_Node000016"><a xlink:title=" ">
<path fill="none" stroke="#9a32cd" stroke-dasharray="5,2" d="M74.28,-1238.93C78.65,-1236.5 83.02,-1233.86 87,-1231.12 146.36,-1190.23 170.95,-1184.95 208,-1123.12 274.2,-1012.66 284.62,-849.46 286.22,-808.64"/>
<polygon fill="#9a32cd" stroke="#9a32cd" points="72.63,-1235.84 65.42,-1243.6 75.9,-1242.03 72.63,-1235.84"/>
</a>
</g>
<text text-anchor="start" x="108.5" y="-1253.62" font-family="Helvetica,sans-Serif" font-size="10.00" fill="grey">extension_queue</text>
<text text-anchor="start" x="108.5" y="-1238.62" font-family="Helvetica,sans-Serif" font-size="10.00" fill="grey">high_priority_queue</text>
<text text-anchor="start" x="108.5" y="-1223.62" font-family="Helvetica,sans-Serif" font-size="10.00" fill="grey">low_priority_queue</text>
</g>
<!-- Node17 -->
<g id="Node000017" class="node">
<title>Node17</title>
<g id="a_Node000017"><a xlink:title=" ">
<polygon fill="white" stroke="#666666" points="81.5,-1222.62 5.5,-1222.62 5.5,-1203.62 81.5,-1203.62 81.5,-1222.62"/>
<text text-anchor="middle" x="43.5" y="-1210.62" font-family="Helvetica,sans-Serif" font-size="10.00">CajaMonitor</text>
</a>
</g>
</g>
<!-- Node17&#45;&gt;Node15 -->
<g id="edge19_Node000015_Node000017" class="edge">
<title>Node17&#45;&gt;Node15</title>
<g id="a_edge19_Node000015_Node000017"><a xlink:title=" ">
<path fill="none" stroke="#9a32cd" stroke-dasharray="5,2" d="M55.47,-1194.36C97.81,-1121.93 249.81,-861.88 280.92,-808.67"/>
<polygon fill="#9a32cd" stroke="#9a32cd" points="52.27,-1192.9 50.24,-1203.3 58.31,-1196.43 52.27,-1192.9"/>
</a>
</g>
<text text-anchor="start" x="137.5" y="-1107.62" font-family="Helvetica,sans-Serif" font-size="10.00" fill="grey">monitor</text>
</g>
<!-- Node18&#45;&gt;Node15 -->
<g id="edge20_Node000015_Node000018" class="edge">
<title>Node18&#45;&gt;Node15</title>
<g id="a_edge20_Node000015_Node000018"><a xlink:title=" ">
<path fill="none" stroke="#9a32cd" stroke-dasharray="5,2" d="M826.81,-1116.36C715.83,-1114.79 488.36,-1094.55 367,-963.12 322.24,-914.65 298.24,-836.01 290.94,-808.77"/>
<polygon fill="#9a32cd" stroke="#9a32cd" points="826.82,-1119.86 836.86,-1116.46 826.89,-1112.86 826.82,-1119.86"/>
</a>
</g>
<text text-anchor="start" x="504" y="-1104.62" font-family="Helvetica,sans-Serif" font-size="10.00" fill="grey">directory_load_in_progress</text>
</g>
<!-- Node19&#45;&gt;Node15 -->
<g id="edge23_Node000015_Node000019" class="edge">
<title>Node19&#45;&gt;Node15</title>
<g id="a_edge23_Node000015_Node000019"><a xlink:title=" ">
<path fill="none" stroke="#9a32cd" stroke-dasharray="5,2" d="M823.58,-1067.92C767.22,-1069 692.14,-1067.13 667,-1051.12 652.91,-1042.15 662.26,-1028.28 649,-1018.12 591.67,-974.2 559.32,-1003.53 491,-980.12 433.79,-960.52 412.58,-963.86 367,-924.12 327.99,-890.1 301.66,-831.94 292.3,-808.92"/>
<polygon fill="#9a32cd" stroke="#9a32cd" points="823.95,-1071.41 833.87,-1067.69 823.8,-1064.42 823.95,-1071.41"/>
</a>
</g>
<text text-anchor="start" x="526" y="-1023.62" font-family="Helvetica,sans-Serif" font-size="10.00" fill="grey">count_in_progress</text>
</g>
<!-- Node20&#45;&gt;Node15 -->
<g id="edge26_Node000015_Node000020" class="edge">
<title>Node20&#45;&gt;Node15</title>
<g id="a_edge26_Node000015_Node000020"><a xlink:title=" ">
<path fill="none" stroke="#9a32cd" stroke-dasharray="5,2" d="M864.96,-942.24C850.19,-949.45 831.09,-957.45 813,-961.12 749.41,-974.02 731.52,-968.01 667,-961.12 530.12,-946.51 483.27,-957.82 367,-884.12 334.59,-863.58 306.85,-826.38 294.84,-808.81"/>
<polygon fill="#9a32cd" stroke="#9a32cd" points="866.64,-945.31 873.99,-937.68 863.48,-939.07 866.64,-945.31"/>
</a>
</g>
<text text-anchor="start" x="511" y="-964.62" font-family="Helvetica,sans-Serif" font-size="10.00" fill="grey">deep_count_in_progress</text>
</g>
<!-- Node21&#45;&gt;Node15 -->
<g id="edge28_Node000015_Node000021" class="edge">
<title>Node21&#45;&gt;Node15</title>
<g id="a_edge28_Node000015_Node000021"><a xlink:title=" ">
<path fill="none" stroke="#9a32cd" stroke-dasharray="5,2" d="M838.22,-505.41C733.41,-508.93 497.85,-531.93 367,-663.12 327.73,-702.5 301.2,-765.48 292.04,-789.44"/>
<polygon fill="#9a32cd" stroke="#9a32cd" points="838.35,-508.91 848.25,-505.12 838.15,-501.91 838.35,-508.91"/>
</a>
</g>
<text text-anchor="start" x="515" y="-582.62" font-family="Helvetica,sans-Serif" font-size="10.00" fill="grey">mime_list_in_progress</text>
</g>
<!-- Node22&#45;&gt;Node15 -->
<g id="edge31_Node000015_Node000022" class="edge">
<title>Node22&#45;&gt;Node15</title>
<g id="a_edge31_Node000015_Node000022"><a xlink:title=" ">
<path fill="none" stroke="#9a32cd" stroke-dasharray="5,2" d="M856.34,-805.23C846.94,-810.54 837.56,-817.45 831,-826.12 811.63,-851.75 838.39,-876.44 813,-896.12 773.7,-926.59 413.04,-877.92 367,-859.12 338.41,-847.45 311.22,-822.53 297.59,-808.76"/>
<polygon fill="#9a32cd" stroke="#9a32cd" points="857.99,-808.32 865.28,-800.63 854.78,-802.1 857.99,-808.32"/>
</a>
</g>
<text text-anchor="start" x="519" y="-907.62" font-family="Helvetica,sans-Serif" font-size="10.00" fill="grey">get_info_in_progress</text>
</g>
<!-- Node23&#45;&gt;Node15 -->
<g id="edge33_Node000015_Node000023" class="edge">
<title>Node23&#45;&gt;Node15</title>
<g id="a_edge33_Node000015_Node000023"><a xlink:title=" ">
<path fill="none" stroke="#9a32cd" stroke-dasharray="5,2" d="M834.86,-415.9C789.1,-417.59 723.1,-422.48 667,-436.12 585.04,-456.04 568.66,-474.21 491,-507.12 482.94,-510.54 481.26,-512.22 473,-515.12 427.03,-531.29 402.13,-509.35 367,-543.12 293.28,-614 288.29,-752.12 288.35,-789.56"/>
<polygon fill="#9a32cd" stroke="#9a32cd" points="835.01,-419.39 844.88,-415.56 834.77,-412.4 835.01,-419.39"/>
</a>
</g>
<text text-anchor="start" x="530" y="-512.62" font-family="Helvetica,sans-Serif" font-size="10.00" fill="grey">thumbnail_state</text>
</g>
<!-- Node24&#45;&gt;Node15 -->
<g id="edge36_Node000015_Node000024" class="edge">
<title>Node24&#45;&gt;Node15</title>
<g id="a_edge36_Node000015_Node000024"><a xlink:title=" ">
<path fill="none" stroke="#9a32cd" stroke-dasharray="5,2" d="M844.91,-325.31C799.13,-326.46 727.24,-330.86 667,-346.12 584.58,-367.01 555.53,-365.76 491,-421.12 479.49,-431 485.2,-441.1 473,-450.12 433.82,-479.09 401.14,-443.35 367,-478.12 321.38,-524.59 294.94,-741.04 289.54,-789.49"/>
<polygon fill="#9a32cd" stroke="#9a32cd" points="845.19,-328.8 855.12,-325.1 845.05,-321.81 845.19,-328.8"/>
</a>
</g>
<text text-anchor="start" x="539" y="-426.62" font-family="Helvetica,sans-Serif" font-size="10.00" fill="grey">mount_state</text>
</g>
<!-- Node25&#45;&gt;Node15 -->
<g id="edge39_Node000015_Node000025" class="edge">
<title>Node25&#45;&gt;Node15</title>
<g id="a_edge39_Node000015_Node000025"><a xlink:title=" ">
<path fill="none" stroke="#9a32cd" stroke-dasharray="5,2" d="M824.67,-232.19C779.58,-234.24 718.92,-239.58 667,-253.12 584.38,-274.67 548.4,-266.92 491,-330.12 473.71,-349.16 491.71,-367.47 473,-385.12 437.56,-418.56 400.45,-377.69 367,-413.12 313.13,-470.19 292.76,-735.16 289.12,-789.4"/>
<polygon fill="#9a32cd" stroke="#9a32cd" points="825.07,-235.68 834.92,-231.77 824.78,-228.68 825.07,-235.68"/>
</a>
</g>
<text text-anchor="start" x="517" y="-335.62" font-family="Helvetica,sans-Serif" font-size="10.00" fill="grey">filesystem_info_state</text>
</g>
<!-- Node26&#45;&gt;Node15 -->
<g id="edge42_Node000015_Node000026" class="edge">
<title>Node26&#45;&gt;Node15</title>
<g id="a_edge42_Node000015_Node000026"><a xlink:title=" ">
<path fill="none" stroke="#9a32cd" stroke-dasharray="5,2" d="M820.56,-841.03C776.43,-838.4 718.38,-834.78 667,-831.12 533.58,-821.62 500.21,-819.24 367,-807.12 361.27,-806.6 355.31,-806.03 349.34,-805.45"/>
<polygon fill="#9a32cd" stroke="#9a32cd" points="820.42,-844.53 830.61,-841.63 820.84,-837.54 820.42,-844.53"/>
</a>
</g>
<text text-anchor="start" x="523" y="-835.62" font-family="Helvetica,sans-Serif" font-size="10.00" fill="grey">top_left_read_state</text>
</g>
<!-- Node27&#45;&gt;Node15 -->
<g id="edge45_Node000015_Node000027" class="edge">
<title>Node27&#45;&gt;Node15</title>
<g id="a_edge45_Node000015_Node000027"><a xlink:title=" ">
<path fill="none" stroke="#9a32cd" stroke-dasharray="5,2" d="M828.78,-594.4C747.45,-595.72 602.29,-605.96 491,-657.12 410.24,-694.25 327.69,-764.18 299.04,-789.59"/>
<polygon fill="#9a32cd" stroke="#9a32cd" points="828.9,-597.9 838.86,-594.28 828.82,-590.9 828.9,-597.9"/>
</a>
</g>
<text text-anchor="start" x="520" y="-662.62" font-family="Helvetica,sans-Serif" font-size="10.00" fill="grey">link_info_read_state</text>
</g>
<!-- Node28 -->
<g id="Node000028" class="node">
<title>Node28</title>
<g id="a_Node000028"><a xlink:href="structCajaFileSortByEmblemCache.html" target="_top" xlink:title=" ">
<polygon fill="white" stroke="#666666" points="649,-702.62 491,-702.62 491,-683.62 649,-683.62 649,-702.62"/>
<text text-anchor="middle" x="570" y="-690.62" font-family="Helvetica,sans-Serif" font-size="10.00">CajaFileSortByEmblemCache</text>
</a>
</g>
</g>
<!-- Node28&#45;&gt;Node13 -->
<g id="edge48_Node000013_Node000028" class="edge">
<title>Node28&#45;&gt;Node13</title>
<g id="a_edge48_Node000013_Node000028"><a xlink:title=" ">
<path fill="none" stroke="#9a32cd" stroke-dasharray="5,2" d="M659.48,-693.12C719.3,-693.12 795.9,-693.12 844.23,-693.12"/>
<polygon fill="#9a32cd" stroke="#9a32cd" points="659.28,-689.62 649.28,-693.12 659.28,-696.62 659.28,-689.62"/>
</a>
</g>
<text text-anchor="start" x="670" y="-698.62" font-family="Helvetica,sans-Serif" font-size="10.00" fill="grey">compare_by_emblem_cache</text>
</g>
<!-- Node29 -->
<g id="Node000029" class="node">
<title>Node29</title>
<g id="a_Node000029"><a xlink:href="structCajaQueryEditor.html" target="_top" xlink:title=" ">
<polygon fill="white" stroke="#666666" points="1400.5,-44.62 1304.5,-44.62 1304.5,-25.62 1400.5,-25.62 1400.5,-44.62"/>
<text text-anchor="middle" x="1352.5" y="-32.62" font-family="Helvetica,sans-Serif" font-size="10.00">CajaQueryEditor</text>
</a>
</g>
</g>
<!-- Node29&#45;&gt;Node2 -->
<g id="edge50_Node000002_Node000029" class="edge">
<title>Node29&#45;&gt;Node2</title>
<g id="a_edge50_Node000002_Node000029"><a xlink:title=" ">
<path fill="none" stroke="#9a32cd" stroke-dasharray="5,2" d="M1310.06,-22.96C1235.49,-3.72 1076.67,25.03 971,-43.12 960.09,-50.16 961.45,-56.27 953,-66.12 935.95,-86.01 914.73,-108.06 902.63,-120.4"/>
<polygon fill="#9a32cd" stroke="#9a32cd" points="1309.44,-26.42 1320.01,-25.61 1311.24,-19.66 1309.44,-26.42"/>
</a>
</g>
<text text-anchor="start" x="1084.5" y="-15.62" font-family="Helvetica,sans-Serif" font-size="10.00" fill="grey">query_editor</text>
</g>
<!-- Node30&#45;&gt;Node29 -->
<g id="edge51_Node000029_Node000030" class="edge">
<title>Node30&#45;&gt;Node29</title>
<g id="a_edge51_Node000029_Node000030"><a xlink:title=" ">
<path fill="none" stroke="#9a32cd" stroke-dasharray="5,2" d="M1191.28,-52.17C1228.32,-48.23 1271.91,-43.59 1304.26,-40.15"/>
<polygon fill="#9a32cd" stroke="#9a32cd" points="1190.6,-48.72 1181.03,-53.26 1191.34,-55.68 1190.6,-48.72"/>
</a>
</g>
<text text-anchor="start" x="1221" y="-56.62" font-family="Helvetica,sans-Serif" font-size="10.00" fill="grey">details</text>
</g>
<!-- Node31 -->
<g id="Node000031" class="node">
<title>Node31</title>
<g id="a_Node000031"><a xlink:href="structCajaSearchBar.html" target="_top" xlink:title=" ">
<polygon fill="white" stroke="#666666" points="936,-57.62 848,-57.62 848,-38.62 936,-38.62 936,-57.62"/>
<text text-anchor="middle" x="892" y="-45.62" font-family="Helvetica,sans-Serif" font-size="10.00">CajaSearchBar</text>
</a>
</g>
</g>
<!-- Node31&#45;&gt;Node30 -->
<g id="edge52_Node000030_Node000031" class="edge">
<title>Node31&#45;&gt;Node30</title>
<g id="a_edge52_Node000030_Node000031"><a xlink:title=" ">
<path fill="none" stroke="#9a32cd" stroke-dasharray="5,2" d="M946.5,-46.97C972.1,-46.81 1003.17,-47.19 1031,-49.12 1037.13,-49.55 1043.49,-50.13 1049.85,-50.8"/>
<polygon fill="#9a32cd" stroke="#9a32cd" points="946.22,-43.47 936.25,-47.06 946.28,-50.47 946.22,-43.47"/>
</a>
</g>
<text text-anchor="start" x="993" y="-54.62" font-family="Helvetica,sans-Serif" font-size="10.00" fill="grey">bar</text>
</g>
<!-- Node32 -->
<g id="Node000032" class="node">
<title>Node32</title>
<g id="a_Node000032"><a xlink:title=" ">
<polygon fill="white" stroke="#666666" points="631,-57.62 509,-57.62 509,-38.62 631,-38.62 631,-57.62"/>
<text text-anchor="middle" x="570" y="-45.62" font-family="Helvetica,sans-Serif" font-size="10.00">CajaSearchBarDetails</text>
</a>
</g>
</g>
<!-- Node32&#45;&gt;Node31 -->
<g id="edge53_Node000031_Node000032" class="edge">
<title>Node32&#45;&gt;Node31</title>
<g id="a_edge53_Node000031_Node000032"><a xlink:title=" ">
<path fill="none" stroke="#9a32cd" stroke-dasharray="5,2" d="M641.46,-48.12C704.57,-48.12 795.08,-48.12 847.98,-48.12"/>
<polygon fill="#9a32cd" stroke="#9a32cd" points="641.19,-44.62 631.19,-48.12 641.19,-51.62 641.19,-44.62"/>
</a>
</g>
<text text-anchor="start" x="723" y="-53.62" font-family="Helvetica,sans-Serif" font-size="10.00" fill="grey">details</text>
</g>
</g>
</svg>
