<?xml version="1.0" encoding="UTF-8" standalone="no"?>
<!DOCTYPE svg PUBLIC "-//W3C//DTD SVG 1.1//EN"
 "http://www.w3.org/Graphics/SVG/1.1/DTD/svg11.dtd">
<!-- Generated by graphviz version 2.43.0 (0)
 -->
<!-- Title: _PulseStreamControl Pages: 1 -->
<svg width="598pt" height="387pt"
 viewBox="0.00 0.00 597.50 387.00" xmlns="http://www.w3.org/2000/svg" xmlns:xlink="http://www.w3.org/1999/xlink">
<g id="graph0" class="graph" transform="scale(1 1) rotate(0) translate(4 383)">
<title>_PulseStreamControl</title>
<!-- Node1 -->
<g id="Node000001" class="node">
<title>Node1</title>
<g id="a_Node000001"><a xlink:title=" ">
<polygon fill="#999999" stroke="#666666" points="340,-163 221,-163 221,-144 340,-144 340,-163"/>
<text text-anchor="middle" x="280.5" y="-151" font-family="Helvetica,sans-Serif" font-size="10.00">_PulseStreamControl</text>
</a>
</g>
</g>
<!-- Node2 -->
<g id="Node000002" class="node">
<title>Node2</title>
<g id="a_Node000002"><a xlink:href="struct__MateMixerStreamControl.html" target="_top" xlink:title=" ">
<polygon fill="white" stroke="#666666" points="446.5,-235 302.5,-235 302.5,-216 446.5,-216 446.5,-235"/>
<text text-anchor="middle" x="374.5" y="-223" font-family="Helvetica,sans-Serif" font-size="10.00">_MateMixerStreamControl</text>
</a>
</g>
</g>
<!-- Node2&#45;&gt;Node1 -->
<g id="edge1_Node000001_Node000002" class="edge">
<title>Node2&#45;&gt;Node1</title>
<g id="a_edge1_Node000001_Node000002"><a xlink:title=" ">
<path fill="none" stroke="#9a32cd" stroke-dasharray="5,2" d="M344.61,-211.4C337.1,-207.54 329.26,-203 322.5,-198 308.49,-187.63 294.99,-172.42 287.23,-163.01"/>
<polygon fill="#9a32cd" stroke="#9a32cd" points="343.32,-214.66 353.84,-215.9 346.38,-208.37 343.32,-214.66"/>
</a>
</g>
<text text-anchor="start" x="325.5" y="-186.5" font-family="Helvetica,sans-Serif" font-size="10.00" fill="grey">parent</text>
</g>
<!-- Node5 -->
<g id="Node000005" class="node">
<title>Node5</title>
<g id="a_Node000005"><a xlink:title=" ">
<polygon fill="white" stroke="#666666" points="546,-163 403,-163 403,-144 546,-144 546,-163"/>
<text text-anchor="middle" x="474.5" y="-151" font-family="Helvetica,sans-Serif" font-size="10.00">_MateMixerStreamPrivate</text>
</a>
</g>
</g>
<!-- Node2&#45;&gt;Node5 -->
<g id="edge7_Node000005_Node000002" class="edge">
<title>Node2&#45;&gt;Node5</title>
<g id="a_edge7_Node000005_Node000002"><a xlink:title=" ">
<path fill="none" stroke="#9a32cd" stroke-dasharray="5,2" d="M394.99,-210.16C415.18,-196.02 445.37,-174.89 462.14,-163.15"/>
<polygon fill="#9a32cd" stroke="#9a32cd" points="392.95,-207.31 386.76,-215.92 396.96,-213.05 392.95,-207.31"/>
</a>
</g>
<text text-anchor="start" x="438.5" y="-186.5" font-family="Helvetica,sans-Serif" font-size="10.00" fill="grey">control</text>
</g>
<!-- Node3 -->
<g id="Node000003" class="node">
<title>Node3</title>
<g id="a_Node000003"><a xlink:title=" ">
<polygon fill="white" stroke="#666666" points="480,-19 301,-19 301,0 480,0 480,-19"/>
<text text-anchor="middle" x="390.5" y="-7" font-family="Helvetica,sans-Serif" font-size="10.00">_MateMixerStreamControlPrivate</text>
</a>
</g>
</g>
<!-- Node3&#45;&gt;Node2 -->
<g id="edge2_Node000002_Node000003" class="edge">
<title>Node3&#45;&gt;Node2</title>
<g id="a_edge2_Node000002_Node000003"><a xlink:title=" ">
<path fill="none" stroke="#9a32cd" stroke-dasharray="5,2" d="M389.1,-29.26C385.77,-73.72 377.52,-184.12 375.15,-215.85"/>
<polygon fill="#9a32cd" stroke="#9a32cd" points="392.61,-29.26 389.86,-19.03 385.63,-28.74 392.61,-29.26"/>
</a>
</g>
<text text-anchor="start" x="386" y="-114.5" font-family="Helvetica,sans-Serif" font-size="10.00" fill="grey">priv</text>
</g>
<!-- Node4 -->
<g id="Node000004" class="node">
<title>Node4</title>
<g id="a_Node000004"><a xlink:href="struct__MateMixerStream.html" target="_top" xlink:title=" ">
<polygon fill="white" stroke="#666666" points="520,-91 411,-91 411,-72 520,-72 520,-91"/>
<text text-anchor="middle" x="465.5" y="-79" font-family="Helvetica,sans-Serif" font-size="10.00">_MateMixerStream</text>
</a>
</g>
</g>
<!-- Node4&#45;&gt;Node3 -->
<g id="edge3_Node000003_Node000004" class="edge">
<title>Node4&#45;&gt;Node3</title>
<g id="a_edge3_Node000003_Node000004"><a xlink:title=" ">
<path fill="none" stroke="#9a32cd" stroke-dasharray="5,2" d="M448.68,-64.8C433.58,-50.71 411.96,-30.53 399.77,-19.15"/>
<polygon fill="#9a32cd" stroke="#9a32cd" points="446.6,-67.65 456.3,-71.92 451.38,-62.53 446.6,-67.65"/>
</a>
</g>
<text text-anchor="start" x="440" y="-42.5" font-family="Helvetica,sans-Serif" font-size="10.00" fill="grey">stream</text>
</g>
<!-- Node5&#45;&gt;Node4 -->
<g id="edge4_Node000004_Node000005" class="edge">
<title>Node5&#45;&gt;Node4</title>
<g id="a_edge4_Node000004_Node000005"><a xlink:title=" ">
<path fill="none" stroke="#9a32cd" stroke-dasharray="5,2" d="M472.12,-133.99C470.34,-120.13 467.98,-101.79 466.61,-91.15"/>
<polygon fill="#9a32cd" stroke="#9a32cd" points="468.65,-134.44 473.4,-143.92 475.59,-133.55 468.65,-134.44"/>
</a>
</g>
<text text-anchor="start" x="474" y="-114.5" font-family="Helvetica,sans-Serif" font-size="10.00" fill="grey">priv</text>
</g>
<!-- Node6 -->
<g id="Node000006" class="node">
<title>Node6</title>
<g id="a_Node000006"><a xlink:href="struct__MateMixerDevice.html" target="_top" xlink:title=" ">
<polygon fill="white" stroke="#666666" points="572,-235 465,-235 465,-216 572,-216 572,-235"/>
<text text-anchor="middle" x="518.5" y="-223" font-family="Helvetica,sans-Serif" font-size="10.00">_MateMixerDevice</text>
</a>
</g>
</g>
<!-- Node6&#45;&gt;Node5 -->
<g id="edge5_Node000005_Node000006" class="edge">
<title>Node6&#45;&gt;Node5</title>
<g id="a_edge5_Node000005_Node000006"><a xlink:title=" ">
<path fill="none" stroke="#9a32cd" stroke-dasharray="5,2" d="M507.63,-207.21C498.84,-193.22 486.82,-174.1 479.94,-163.15"/>
<polygon fill="#9a32cd" stroke="#9a32cd" points="504.82,-209.31 513.1,-215.92 510.75,-205.59 504.82,-209.31"/>
</a>
</g>
<text text-anchor="start" x="505" y="-186.5" font-family="Helvetica,sans-Serif" font-size="10.00" fill="grey">device</text>
</g>
<!-- Node7 -->
<g id="Node000007" class="node">
<title>Node7</title>
<g id="a_Node000007"><a xlink:title=" ">
<polygon fill="white" stroke="#666666" points="589.5,-307 447.5,-307 447.5,-288 589.5,-288 589.5,-307"/>
<text text-anchor="middle" x="518.5" y="-295" font-family="Helvetica,sans-Serif" font-size="10.00">_MateMixerDevicePrivate</text>
</a>
</g>
</g>
<!-- Node7&#45;&gt;Node6 -->
<g id="edge6_Node000006_Node000007" class="edge">
<title>Node7&#45;&gt;Node6</title>
<g id="a_edge6_Node000006_Node000007"><a xlink:title=" ">
<path fill="none" stroke="#9a32cd" stroke-dasharray="5,2" d="M518.5,-277.58C518.5,-263.76 518.5,-245.68 518.5,-235.15"/>
<polygon fill="#9a32cd" stroke="#9a32cd" points="515,-277.92 518.5,-287.92 522,-277.92 515,-277.92"/>
</a>
</g>
<text text-anchor="start" x="522" y="-258.5" font-family="Helvetica,sans-Serif" font-size="10.00" fill="grey">priv</text>
</g>
<!-- Node8 -->
<g id="Node000008" class="node">
<title>Node8</title>
<g id="a_Node000008"><a xlink:title=" ">
<polygon fill="white" stroke="#666666" points="284,-235 131,-235 131,-216 284,-216 284,-235"/>
<text text-anchor="middle" x="207.5" y="-223" font-family="Helvetica,sans-Serif" font-size="10.00">_PulseStreamControlPrivate</text>
</a>
</g>
</g>
<!-- Node8&#45;&gt;Node1 -->
<g id="edge8_Node000001_Node000008" class="edge">
<title>Node8&#45;&gt;Node1</title>
<g id="a_edge8_Node000001_Node000008"><a xlink:title=" ">
<path fill="none" stroke="#9a32cd" stroke-dasharray="5,2" d="M223.87,-208.8C238.57,-194.71 259.62,-174.53 271.48,-163.15"/>
<polygon fill="#9a32cd" stroke="#9a32cd" points="221.25,-206.47 216.45,-215.92 226.09,-211.52 221.25,-206.47"/>
</a>
</g>
<text text-anchor="start" x="256" y="-186.5" font-family="Helvetica,sans-Serif" font-size="10.00" fill="grey">priv</text>
</g>
<!-- Node9 -->
<g id="Node000009" class="node">
<title>Node9</title>
<g id="a_Node000009"><a xlink:href="struct__PulseConnection.html" target="_top" xlink:title=" ">
<polygon fill="white" stroke="#666666" points="129,-307 26,-307 26,-288 129,-288 129,-307"/>
<text text-anchor="middle" x="77.5" y="-295" font-family="Helvetica,sans-Serif" font-size="10.00">_PulseConnection</text>
</a>
</g>
</g>
<!-- Node9&#45;&gt;Node8 -->
<g id="edge9_Node000008_Node000009" class="edge">
<title>Node9&#45;&gt;Node8</title>
<g id="a_edge9_Node000008_Node000009"><a xlink:title=" ">
<path fill="none" stroke="#9a32cd" stroke-dasharray="5,2" d="M97.7,-281.74C110.46,-272.78 127.5,-261.49 143.5,-253 156.46,-246.13 171.6,-239.78 183.91,-235.03"/>
<polygon fill="#9a32cd" stroke="#9a32cd" points="95.35,-279.11 89.24,-287.77 99.42,-284.81 95.35,-279.11"/>
</a>
</g>
<text text-anchor="start" x="146.5" y="-258.5" font-family="Helvetica,sans-Serif" font-size="10.00" fill="grey">connection</text>
</g>
<!-- Node10 -->
<g id="Node000010" class="node">
<title>Node10</title>
<g id="a_Node000010"><a xlink:title=" ">
<polygon fill="white" stroke="#666666" points="137,-379 0,-379 0,-360 137,-360 137,-379"/>
<text text-anchor="middle" x="68.5" y="-367" font-family="Helvetica,sans-Serif" font-size="10.00">_PulseConnectionPrivate</text>
</a>
</g>
</g>
<!-- Node10&#45;&gt;Node9 -->
<g id="edge10_Node000009_Node000010" class="edge">
<title>Node10&#45;&gt;Node9</title>
<g id="a_edge10_Node000009_Node000010"><a xlink:title=" ">
<path fill="none" stroke="#9a32cd" stroke-dasharray="5,2" d="M70.88,-349.99C72.66,-336.13 75.02,-317.79 76.39,-307.15"/>
<polygon fill="#9a32cd" stroke="#9a32cd" points="67.41,-349.55 69.6,-359.92 74.35,-350.44 67.41,-349.55"/>
</a>
</g>
<text text-anchor="start" x="78" y="-330.5" font-family="Helvetica,sans-Serif" font-size="10.00" fill="grey">priv</text>
</g>
<!-- Node11 -->
<g id="Node000011" class="node">
<title>Node11</title>
<g id="a_Node000011"><a xlink:href="struct__PulseMonitor.html" target="_top" xlink:title=" ">
<polygon fill="white" stroke="#666666" points="250.5,-307 164.5,-307 164.5,-288 250.5,-288 250.5,-307"/>
<text text-anchor="middle" x="207.5" y="-295" font-family="Helvetica,sans-Serif" font-size="10.00">_PulseMonitor</text>
</a>
</g>
</g>
<!-- Node11&#45;&gt;Node8 -->
<g id="edge11_Node000008_Node000011" class="edge">
<title>Node11&#45;&gt;Node8</title>
<g id="a_edge11_Node000008_Node000011"><a xlink:title=" ">
<path fill="none" stroke="#9a32cd" stroke-dasharray="5,2" d="M207.5,-277.58C207.5,-263.76 207.5,-245.68 207.5,-235.15"/>
<polygon fill="#9a32cd" stroke="#9a32cd" points="204,-277.92 207.5,-287.92 211,-277.92 204,-277.92"/>
</a>
</g>
<text text-anchor="start" x="211" y="-258.5" font-family="Helvetica,sans-Serif" font-size="10.00" fill="grey">monitor</text>
</g>
<!-- Node12 -->
<g id="Node000012" class="node">
<title>Node12</title>
<g id="a_Node000012"><a xlink:title=" ">
<polygon fill="white" stroke="#666666" points="275.5,-379 155.5,-379 155.5,-360 275.5,-360 275.5,-379"/>
<text text-anchor="middle" x="215.5" y="-367" font-family="Helvetica,sans-Serif" font-size="10.00">_PulseMonitorPrivate</text>
</a>
</g>
</g>
<!-- Node12&#45;&gt;Node11 -->
<g id="edge12_Node000011_Node000012" class="edge">
<title>Node12&#45;&gt;Node11</title>
<g id="a_edge12_Node000011_Node000012"><a xlink:title=" ">
<path fill="none" stroke="#9a32cd" stroke-dasharray="5,2" d="M213.34,-349.58C211.76,-335.76 209.69,-317.68 208.49,-307.15"/>
<polygon fill="#9a32cd" stroke="#9a32cd" points="209.91,-350.38 214.52,-359.92 216.86,-349.58 209.91,-350.38"/>
</a>
</g>
<text text-anchor="start" x="215" y="-330.5" font-family="Helvetica,sans-Serif" font-size="10.00" fill="grey">priv</text>
</g>
<!-- Node13 -->
<g id="Node000013" class="node">
<title>Node13</title>
<g id="a_Node000013"><a xlink:href="struct__MateMixerAppInfo.html" target="_top" xlink:title=" ">
<polygon fill="white" stroke="#666666" points="380,-307 269,-307 269,-288 380,-288 380,-307"/>
<text text-anchor="middle" x="324.5" y="-295" font-family="Helvetica,sans-Serif" font-size="10.00">_MateMixerAppInfo</text>
</a>
</g>
</g>
<!-- Node13&#45;&gt;Node8 -->
<g id="edge13_Node000008_Node000013" class="edge">
<title>Node13&#45;&gt;Node8</title>
<g id="a_edge13_Node000008_Node000013"><a xlink:title=" ">
<path fill="none" stroke="#9a32cd" stroke-dasharray="5,2" d="M303.2,-282.3C289.92,-273.6 272.39,-262.36 256.5,-253 245.83,-246.72 233.58,-240.09 224,-235.04"/>
<polygon fill="#9a32cd" stroke="#9a32cd" points="301.37,-285.29 311.64,-287.87 305.22,-279.45 301.37,-285.29"/>
</a>
</g>
<text text-anchor="start" x="286" y="-258.5" font-family="Helvetica,sans-Serif" font-size="10.00" fill="grey">app_info</text>
</g>
</g>
</svg>
