<?xml version="1.0" encoding="UTF-8" standalone="no"?>
<!DOCTYPE svg PUBLIC "-//W3C//DTD SVG 1.1//EN"
 "http://www.w3.org/Graphics/SVG/1.1/DTD/svg11.dtd">
<!-- Generated by graphviz version 2.43.0 (0)
 -->
<!-- Title: _PulseDeviceSwitch Pages: 1 -->
<svg width="411pt" height="387pt"
 viewBox="0.00 0.00 411.00 387.00" xmlns="http://www.w3.org/2000/svg" xmlns:xlink="http://www.w3.org/1999/xlink">
<g id="graph0" class="graph" transform="scale(1 1) rotate(0) translate(4 383)">
<title>_PulseDeviceSwitch</title>
<!-- Node1 -->
<g id="Node000001" class="node">
<title>Node1</title>
<g id="a_Node000001"><a xlink:title=" ">
<polygon fill="#999999" stroke="#666666" points="303.5,-19 189.5,-19 189.5,0 303.5,0 303.5,-19"/>
<text text-anchor="middle" x="246.5" y="-7" font-family="Helvetica,sans-Serif" font-size="10.00">_PulseDeviceSwitch</text>
</a>
</g>
</g>
<!-- Node2 -->
<g id="Node000002" class="node">
<title>Node2</title>
<g id="a_Node000002"><a xlink:href="struct__MateMixerDeviceSwitch.html" target="_top" xlink:title=" ">
<polygon fill="white" stroke="#666666" points="235.5,-91 95.5,-91 95.5,-72 235.5,-72 235.5,-91"/>
<text text-anchor="middle" x="165.5" y="-79" font-family="Helvetica,sans-Serif" font-size="10.00">_MateMixerDeviceSwitch</text>
</a>
</g>
</g>
<!-- Node2&#45;&gt;Node1 -->
<g id="edge1_Node000001_Node000002" class="edge">
<title>Node2&#45;&gt;Node1</title>
<g id="a_edge1_Node000001_Node000002"><a xlink:title=" ">
<path fill="none" stroke="#9a32cd" stroke-dasharray="5,2" d="M183.21,-65.19C199.54,-51.08 223.21,-30.63 236.49,-19.15"/>
<polygon fill="#9a32cd" stroke="#9a32cd" points="180.71,-62.73 175.43,-71.92 185.29,-68.03 180.71,-62.73"/>
</a>
</g>
<text text-anchor="start" x="219.5" y="-42.5" font-family="Helvetica,sans-Serif" font-size="10.00" fill="grey">parent</text>
</g>
<!-- Node3 -->
<g id="Node000003" class="node">
<title>Node3</title>
<g id="a_Node000003"><a xlink:href="struct__MateMixerSwitch.html" target="_top" xlink:title=" ">
<polygon fill="white" stroke="#666666" points="139.5,-163 33.5,-163 33.5,-144 139.5,-144 139.5,-163"/>
<text text-anchor="middle" x="86.5" y="-151" font-family="Helvetica,sans-Serif" font-size="10.00">_MateMixerSwitch</text>
</a>
</g>
</g>
<!-- Node3&#45;&gt;Node2 -->
<g id="edge2_Node000002_Node000003" class="edge">
<title>Node3&#45;&gt;Node2</title>
<g id="a_edge2_Node000002_Node000003"><a xlink:title=" ">
<path fill="none" stroke="#9a32cd" stroke-dasharray="5,2" d="M103.77,-137.19C119.7,-123.08 142.78,-102.63 155.73,-91.15"/>
<polygon fill="#9a32cd" stroke="#9a32cd" points="101.35,-134.67 96.19,-143.92 105.99,-139.9 101.35,-134.67"/>
</a>
</g>
<text text-anchor="start" x="139" y="-114.5" font-family="Helvetica,sans-Serif" font-size="10.00" fill="grey">object</text>
</g>
<!-- Node4 -->
<g id="Node000004" class="node">
<title>Node4</title>
<g id="a_Node000004"><a xlink:title=" ">
<polygon fill="white" stroke="#666666" points="156.5,-235 16.5,-235 16.5,-216 156.5,-216 156.5,-235"/>
<text text-anchor="middle" x="86.5" y="-223" font-family="Helvetica,sans-Serif" font-size="10.00">_MateMixerSwitchPrivate</text>
</a>
</g>
</g>
<!-- Node4&#45;&gt;Node3 -->
<g id="edge3_Node000003_Node000004" class="edge">
<title>Node4&#45;&gt;Node3</title>
<g id="a_edge3_Node000003_Node000004"><a xlink:title=" ">
<path fill="none" stroke="#9a32cd" stroke-dasharray="5,2" d="M86.5,-205.58C86.5,-191.76 86.5,-173.68 86.5,-163.15"/>
<polygon fill="#9a32cd" stroke="#9a32cd" points="83,-205.92 86.5,-215.92 90,-205.92 83,-205.92"/>
</a>
</g>
<text text-anchor="start" x="90" y="-186.5" font-family="Helvetica,sans-Serif" font-size="10.00" fill="grey">priv</text>
</g>
<!-- Node5 -->
<g id="Node000005" class="node">
<title>Node5</title>
<g id="a_Node000005"><a xlink:href="struct__MateMixerSwitchOption.html" target="_top" xlink:title=" ">
<polygon fill="white" stroke="#666666" points="155.5,-307 17.5,-307 17.5,-288 155.5,-288 155.5,-307"/>
<text text-anchor="middle" x="86.5" y="-295" font-family="Helvetica,sans-Serif" font-size="10.00">_MateMixerSwitchOption</text>
</a>
</g>
</g>
<!-- Node5&#45;&gt;Node4 -->
<g id="edge4_Node000004_Node000005" class="edge">
<title>Node5&#45;&gt;Node4</title>
<g id="a_edge4_Node000004_Node000005"><a xlink:title=" ">
<path fill="none" stroke="#9a32cd" stroke-dasharray="5,2" d="M86.5,-277.58C86.5,-263.76 86.5,-245.68 86.5,-235.15"/>
<polygon fill="#9a32cd" stroke="#9a32cd" points="83,-277.92 86.5,-287.92 90,-277.92 83,-277.92"/>
</a>
</g>
<text text-anchor="start" x="90" y="-258.5" font-family="Helvetica,sans-Serif" font-size="10.00" fill="grey">active</text>
</g>
<!-- Node6 -->
<g id="Node000006" class="node">
<title>Node6</title>
<g id="a_Node000006"><a xlink:title=" ">
<polygon fill="white" stroke="#666666" points="173,-379 0,-379 0,-360 173,-360 173,-379"/>
<text text-anchor="middle" x="86.5" y="-367" font-family="Helvetica,sans-Serif" font-size="10.00">_MateMixerSwitchOptionPrivate</text>
</a>
</g>
</g>
<!-- Node6&#45;&gt;Node5 -->
<g id="edge5_Node000005_Node000006" class="edge">
<title>Node6&#45;&gt;Node5</title>
<g id="a_edge5_Node000005_Node000006"><a xlink:title=" ">
<path fill="none" stroke="#9a32cd" stroke-dasharray="5,2" d="M86.5,-349.58C86.5,-335.76 86.5,-317.68 86.5,-307.15"/>
<polygon fill="#9a32cd" stroke="#9a32cd" points="83,-349.92 86.5,-359.92 90,-349.92 83,-349.92"/>
</a>
</g>
<text text-anchor="start" x="90" y="-330.5" font-family="Helvetica,sans-Serif" font-size="10.00" fill="grey">priv</text>
</g>
<!-- Node7 -->
<g id="Node000007" class="node">
<title>Node7</title>
<g id="a_Node000007"><a xlink:title=" ">
<polygon fill="white" stroke="#666666" points="331.5,-163 157.5,-163 157.5,-144 331.5,-144 331.5,-163"/>
<text text-anchor="middle" x="244.5" y="-151" font-family="Helvetica,sans-Serif" font-size="10.00">_MateMixerDeviceSwitchPrivate</text>
</a>
</g>
</g>
<!-- Node7&#45;&gt;Node2 -->
<g id="edge6_Node000002_Node000007" class="edge">
<title>Node7&#45;&gt;Node2</title>
<g id="a_edge6_Node000002_Node000007"><a xlink:title=" ">
<path fill="none" stroke="#9a32cd" stroke-dasharray="5,2" d="M227.23,-137.19C211.3,-123.08 188.22,-102.63 175.27,-91.15"/>
<polygon fill="#9a32cd" stroke="#9a32cd" points="225.01,-139.9 234.81,-143.92 229.65,-134.67 225.01,-139.9"/>
</a>
</g>
<text text-anchor="start" x="218" y="-114.5" font-family="Helvetica,sans-Serif" font-size="10.00" fill="grey">priv</text>
</g>
<!-- Node8 -->
<g id="Node000008" class="node">
<title>Node8</title>
<g id="a_Node000008"><a xlink:href="struct__MateMixerDevice.html" target="_top" xlink:title=" ">
<polygon fill="white" stroke="#666666" points="298,-235 191,-235 191,-216 298,-216 298,-235"/>
<text text-anchor="middle" x="244.5" y="-223" font-family="Helvetica,sans-Serif" font-size="10.00">_MateMixerDevice</text>
</a>
</g>
</g>
<!-- Node8&#45;&gt;Node7 -->
<g id="edge7_Node000007_Node000008" class="edge">
<title>Node8&#45;&gt;Node7</title>
<g id="a_edge7_Node000007_Node000008"><a xlink:title=" ">
<path fill="none" stroke="#9a32cd" stroke-dasharray="5,2" d="M244.5,-205.58C244.5,-191.76 244.5,-173.68 244.5,-163.15"/>
<polygon fill="#9a32cd" stroke="#9a32cd" points="241,-205.92 244.5,-215.92 248,-205.92 241,-205.92"/>
</a>
</g>
<text text-anchor="start" x="248" y="-186.5" font-family="Helvetica,sans-Serif" font-size="10.00" fill="grey">device</text>
</g>
<!-- Node9 -->
<g id="Node000009" class="node">
<title>Node9</title>
<g id="a_Node000009"><a xlink:title=" ">
<polygon fill="white" stroke="#666666" points="315.5,-307 173.5,-307 173.5,-288 315.5,-288 315.5,-307"/>
<text text-anchor="middle" x="244.5" y="-295" font-family="Helvetica,sans-Serif" font-size="10.00">_MateMixerDevicePrivate</text>
</a>
</g>
</g>
<!-- Node9&#45;&gt;Node8 -->
<g id="edge8_Node000008_Node000009" class="edge">
<title>Node9&#45;&gt;Node8</title>
<g id="a_edge8_Node000008_Node000009"><a xlink:title=" ">
<path fill="none" stroke="#9a32cd" stroke-dasharray="5,2" d="M244.5,-277.58C244.5,-263.76 244.5,-245.68 244.5,-235.15"/>
<polygon fill="#9a32cd" stroke="#9a32cd" points="241,-277.92 244.5,-287.92 248,-277.92 241,-277.92"/>
</a>
</g>
<text text-anchor="start" x="248" y="-258.5" font-family="Helvetica,sans-Serif" font-size="10.00" fill="grey">priv</text>
</g>
<!-- Node10 -->
<g id="Node000010" class="node">
<title>Node10</title>
<g id="a_Node000010"><a xlink:title=" ">
<polygon fill="white" stroke="#666666" points="403,-91 254,-91 254,-72 403,-72 403,-91"/>
<text text-anchor="middle" x="328.5" y="-79" font-family="Helvetica,sans-Serif" font-size="10.00">_PulseDeviceSwitchPrivate</text>
</a>
</g>
</g>
<!-- Node10&#45;&gt;Node1 -->
<g id="edge9_Node000001_Node000010" class="edge">
<title>Node10&#45;&gt;Node1</title>
<g id="a_edge9_Node000001_Node000010"><a xlink:title=" ">
<path fill="none" stroke="#9a32cd" stroke-dasharray="5,2" d="M310.57,-65.19C294.04,-51.08 270.08,-30.63 256.64,-19.15"/>
<polygon fill="#9a32cd" stroke="#9a32cd" points="308.57,-68.09 318.45,-71.92 313.11,-62.76 308.57,-68.09"/>
</a>
</g>
<text text-anchor="start" x="300" y="-42.5" font-family="Helvetica,sans-Serif" font-size="10.00" fill="grey">priv</text>
</g>
</g>
</svg>
