<?xml version="1.0" encoding="UTF-8" standalone="no"?>
<!DOCTYPE svg PUBLIC "-//W3C//DTD SVG 1.1//EN"
 "http://www.w3.org/Graphics/SVG/1.1/DTD/svg11.dtd">
<!-- Generated by graphviz version 2.43.0 (0)
 -->
<!-- Title: NADataBoxed Pages: 1 -->
<svg width="306pt" height="243pt"
 viewBox="0.00 0.00 306.00 243.00" xmlns="http://www.w3.org/2000/svg" xmlns:xlink="http://www.w3.org/1999/xlink">

<svg id="main" version="1.1" xmlns="http://www.w3.org/2000/svg" xmlns:xlink="http://www.w3.org/1999/xlink" xml:space="preserve">

<style type="text/css"><![CDATA[
.node, .edge {opacity: 0.7;}
.node.selected, .edge.selected {opacity: 1;}
.edge:hover path { stroke: red; }
.edge:hover polygon { stroke: red; fill: red; }
]]></style>
<script type="application/ecmascript" xlink:href="svg.min.js"/>
<svg id="graph" class="graph">
<g id="graph0" class="graph" transform="scale(1 1) rotate(0) translate(4 239)">
<title>NADataBoxed</title>
<!-- Node1 -->
<g id="Node000001" class="node">
<title>Node1</title>
<g id="a_Node000001"><a xlink:title=" ">
<polygon fill="#999999" stroke="#666666" points="147.5,-19 63.5,-19 63.5,0 147.5,0 147.5,-19"/>
<text text-anchor="middle" x="105.5" y="-7" font-family="Helvetica,sans-Serif" font-size="10.00">NADataBoxed</text>
</a>
</g>
</g>
<!-- Node2 -->
<g id="Node000002" class="node">
<title>Node2</title>
<g id="a_Node000002"><a xlink:href="structNABoxed.html" target="_top" xlink:title=" ">
<polygon fill="white" stroke="#666666" points="81,-91 20,-91 20,-72 81,-72 81,-91"/>
<text text-anchor="middle" x="50.5" y="-79" font-family="Helvetica,sans-Serif" font-size="10.00">NABoxed</text>
</a>
</g>
</g>
<!-- Node2&#45;&gt;Node1 -->
<g id="edge1_Node000001_Node000002" class="edge">
<title>Node2&#45;&gt;Node1</title>
<g id="a_edge1_Node000001_Node000002"><a xlink:title=" ">
<path fill="none" stroke="#9a32cd" stroke-dasharray="5,2" d="M63.45,-64.01C74.49,-49.96 89.93,-30.32 98.7,-19.15"/>
<polygon fill="#9a32cd" stroke="#9a32cd" points="60.67,-61.89 57.24,-71.92 66.17,-66.22 60.67,-61.89"/>
</a>
</g>
<text text-anchor="start" x="88.5" y="-42.5" font-family="Helvetica,sans-Serif" font-size="10.00" fill="grey">parent</text>
</g>
<!-- Node3 -->
<g id="Node000003" class="node">
<title>Node3</title>
<g id="a_Node000003"><a xlink:title=" ">
<polygon fill="white" stroke="#666666" points="101,-163 0,-163 0,-144 101,-144 101,-163"/>
<text text-anchor="middle" x="50.5" y="-151" font-family="Helvetica,sans-Serif" font-size="10.00">_NABoxedPrivate</text>
</a>
</g>
</g>
<!-- Node3&#45;&gt;Node2 -->
<g id="edge2_Node000002_Node000003" class="edge">
<title>Node3&#45;&gt;Node2</title>
<g id="a_edge2_Node000002_Node000003"><a xlink:title=" ">
<path fill="none" stroke="#9a32cd" stroke-dasharray="5,2" d="M50.5,-133.58C50.5,-119.76 50.5,-101.68 50.5,-91.15"/>
<polygon fill="#9a32cd" stroke="#9a32cd" points="47,-133.92 50.5,-143.92 54,-133.92 47,-133.92"/>
</a>
</g>
<text text-anchor="start" x="54" y="-114.5" font-family="Helvetica,sans-Serif" font-size="10.00" fill="grey">private</text>
</g>
<!-- Node4 -->
<g id="Node000004" class="node">
<title>Node4</title>
<g id="a_Node000004"><a xlink:title=" ">
<polygon fill="white" stroke="#666666" points="82.5,-235 18.5,-235 18.5,-216 82.5,-216 82.5,-235"/>
<text text-anchor="middle" x="50.5" y="-223" font-family="Helvetica,sans-Serif" font-size="10.00">BoxedDef</text>
</a>
</g>
</g>
<!-- Node4&#45;&gt;Node3 -->
<g id="edge3_Node000003_Node000004" class="edge">
<title>Node4&#45;&gt;Node3</title>
<g id="a_edge3_Node000003_Node000004"><a xlink:title=" ">
<path fill="none" stroke="#9a32cd" stroke-dasharray="5,2" d="M50.5,-205.58C50.5,-191.76 50.5,-173.68 50.5,-163.15"/>
<polygon fill="#9a32cd" stroke="#9a32cd" points="47,-205.92 50.5,-215.92 54,-205.92 47,-205.92"/>
</a>
</g>
<text text-anchor="start" x="53.5" y="-186.5" font-family="Helvetica,sans-Serif" font-size="10.00" fill="grey">def</text>
</g>
<!-- Node5 -->
<g id="Node000005" class="node">
<title>Node5</title>
<g id="a_Node000005"><a xlink:title=" ">
<polygon fill="white" stroke="#666666" points="223.5,-91 99.5,-91 99.5,-72 223.5,-72 223.5,-91"/>
<text text-anchor="middle" x="161.5" y="-79" font-family="Helvetica,sans-Serif" font-size="10.00">_NADataBoxedPrivate</text>
</a>
</g>
</g>
<!-- Node5&#45;&gt;Node1 -->
<g id="edge4_Node000001_Node000005" class="edge">
<title>Node5&#45;&gt;Node1</title>
<g id="a_edge4_Node000001_Node000005"><a xlink:title=" ">
<path fill="none" stroke="#9a32cd" stroke-dasharray="5,2" d="M148.31,-64.01C137.07,-49.96 121.35,-30.32 112.42,-19.15"/>
<polygon fill="#9a32cd" stroke="#9a32cd" points="145.65,-66.29 154.63,-71.92 151.12,-61.92 145.65,-66.29"/>
</a>
</g>
<text text-anchor="start" x="144" y="-42.5" font-family="Helvetica,sans-Serif" font-size="10.00" fill="grey">private</text>
</g>
<!-- Node6 -->
<g id="Node000006" class="node">
<title>Node6</title>
<g id="a_Node000006"><a xlink:href="structNADataDef.html" target="_top" xlink:title=" ">
<polygon fill="white" stroke="#666666" points="193,-163 122,-163 122,-144 193,-144 193,-163"/>
<text text-anchor="middle" x="157.5" y="-151" font-family="Helvetica,sans-Serif" font-size="10.00">NADataDef</text>
</a>
</g>
</g>
<!-- Node6&#45;&gt;Node5 -->
<g id="edge5_Node000005_Node000006" class="edge">
<title>Node6&#45;&gt;Node5</title>
<g id="a_edge5_Node000005_Node000006"><a xlink:title=" ">
<path fill="none" stroke="#9a32cd" stroke-dasharray="5,2" d="M158.58,-133.58C159.37,-119.76 160.4,-101.68 161.01,-91.15"/>
<polygon fill="#9a32cd" stroke="#9a32cd" points="155.07,-133.73 157.99,-143.92 162.06,-134.13 155.07,-133.73"/>
</a>
</g>
<text text-anchor="start" x="164" y="-114.5" font-family="Helvetica,sans-Serif" font-size="10.00" fill="grey">data_def</text>
</g>
<!-- Node7 -->
<g id="Node000007" class="node">
<title>Node7</title>
<g id="a_Node000007"><a xlink:title=" ">
<polygon fill="white" stroke="#666666" points="298,-163 211,-163 211,-144 298,-144 298,-163"/>
<text text-anchor="middle" x="254.5" y="-151" font-family="Helvetica,sans-Serif" font-size="10.00">DataBoxedDef</text>
</a>
</g>
</g>
<!-- Node7&#45;&gt;Node5 -->
<g id="edge6_Node000005_Node000007" class="edge">
<title>Node7&#45;&gt;Node5</title>
<g id="a_edge6_Node000005_Node000007"><a xlink:title=" ">
<path fill="none" stroke="#9a32cd" stroke-dasharray="5,2" d="M241.58,-136.26C234.03,-127.47 223.95,-116.83 213.5,-109 203.93,-101.83 192.14,-95.64 182.2,-91.05"/>
<polygon fill="#9a32cd" stroke="#9a32cd" points="238.9,-138.51 247.97,-143.98 244.29,-134.05 238.9,-138.51"/>
</a>
</g>
<text text-anchor="start" x="235" y="-114.5" font-family="Helvetica,sans-Serif" font-size="10.00" fill="grey">boxed_def</text>
</g>
</g>
</svg>
</svg>

<style type='text/css'>
<![CDATA[
[data-mouse-over-selected='false'] { opacity: 0.7; }
[data-mouse-over-selected='true']  { opacity: 1.0; }
]]>
</style>
<script type="application/ecmascript"><![CDATA[
document.addEventListener('DOMContentLoaded', (event) => {
  highlightEdges();
  highlightAdjacentNodes();
});
]]></script>
</svg>
