<?xml version="1.0" encoding="UTF-8" standalone="no"?>
<!DOCTYPE svg PUBLIC "-//W3C//DTD SVG 1.1//EN"
 "http://www.w3.org/Graphics/SVG/1.1/DTD/svg11.dtd">
<!-- Generated by graphviz version 2.43.0 (0)
 -->
<!-- Title: _OssStreamClass Pages: 1 -->
<svg width="619pt" height="531pt"
 viewBox="0.00 0.00 619.00 531.00" xmlns="http://www.w3.org/2000/svg" xmlns:xlink="http://www.w3.org/1999/xlink">
<g id="graph0" class="graph" transform="scale(1 1) rotate(0) translate(4 527)">
<title>_OssStreamClass</title>
<!-- Node1 -->
<g id="Node000001" class="node">
<title>Node1</title>
<g id="a_Node000001"><a xlink:title=" ">
<polygon fill="#999999" stroke="#666666" points="118,-19 17,-19 17,0 118,0 118,-19"/>
<text text-anchor="middle" x="67.5" y="-7" font-family="Helvetica,sans-Serif" font-size="10.00">_OssStreamClass</text>
</a>
</g>
</g>
<!-- Node2 -->
<g id="Node000002" class="node">
<title>Node2</title>
<g id="a_Node000002"><a xlink:href="struct__MateMixerStreamClass.html" target="_top" xlink:title=" ">
<polygon fill="white" stroke="#666666" points="135,-91 0,-91 0,-72 135,-72 135,-91"/>
<text text-anchor="middle" x="67.5" y="-79" font-family="Helvetica,sans-Serif" font-size="10.00">_MateMixerStreamClass</text>
</a>
</g>
</g>
<!-- Node2&#45;&gt;Node1 -->
<g id="edge1_Node000001_Node000002" class="edge">
<title>Node2&#45;&gt;Node1</title>
<g id="a_edge1_Node000001_Node000002"><a xlink:title=" ">
<path fill="none" stroke="#9a32cd" stroke-dasharray="5,2" d="M67.5,-61.58C67.5,-47.76 67.5,-29.68 67.5,-19.15"/>
<polygon fill="#9a32cd" stroke="#9a32cd" points="64,-61.92 67.5,-71.92 71,-61.92 64,-61.92"/>
</a>
</g>
<text text-anchor="start" x="70.5" y="-42.5" font-family="Helvetica,sans-Serif" font-size="10.00" fill="grey">parent</text>
</g>
<!-- Node3 -->
<g id="Node000003" class="node">
<title>Node3</title>
<g id="a_Node000003"><a xlink:href="struct__MateMixerStreamControl.html" target="_top" xlink:title=" ">
<polygon fill="white" stroke="#666666" points="197.5,-451 53.5,-451 53.5,-432 197.5,-432 197.5,-451"/>
<text text-anchor="middle" x="125.5" y="-439" font-family="Helvetica,sans-Serif" font-size="10.00">_MateMixerStreamControl</text>
</a>
</g>
</g>
<!-- Node3&#45;&gt;Node2 -->
<g id="edge2_Node000002_Node000003" class="edge">
<title>Node3&#45;&gt;Node2</title>
<g id="a_edge2_Node000002_Node000003"><a xlink:title=" ">
<path fill="none" stroke="#9a32cd" stroke-dasharray="5,2" d="M96.4,-427.22C75.68,-415.55 51.5,-396.38 51.5,-370.5 51.5,-370.5 51.5,-370.5 51.5,-152.5 51.5,-130.06 59.41,-104.57 64.11,-91.41"/>
<polygon fill="#9a32cd" stroke="#9a32cd" points="94.8,-430.33 105.28,-431.9 98.07,-424.14 94.8,-430.33"/>
</a>
</g>
<text text-anchor="start" x="55" y="-258.5" font-family="Helvetica,sans-Serif" font-size="10.00" fill="grey">get_control</text>
</g>
<!-- Node6 -->
<g id="Node000006" class="node">
<title>Node6</title>
<g id="a_Node000006"><a xlink:title=" ">
<polygon fill="white" stroke="#666666" points="316,-379 173,-379 173,-360 316,-360 316,-379"/>
<text text-anchor="middle" x="244.5" y="-367" font-family="Helvetica,sans-Serif" font-size="10.00">_MateMixerStreamPrivate</text>
</a>
</g>
</g>
<!-- Node3&#45;&gt;Node6 -->
<g id="edge8_Node000006_Node000003" class="edge">
<title>Node3&#45;&gt;Node6</title>
<g id="a_edge8_Node000006_Node000003"><a xlink:title=" ">
<path fill="none" stroke="#9a32cd" stroke-dasharray="5,2" d="M148.92,-426.72C172.94,-412.59 209.56,-391.05 229.79,-379.15"/>
<polygon fill="#9a32cd" stroke="#9a32cd" points="146.94,-423.83 140.09,-431.92 150.49,-429.86 146.94,-423.83"/>
</a>
</g>
<text text-anchor="start" x="202.5" y="-402.5" font-family="Helvetica,sans-Serif" font-size="10.00" fill="grey">control</text>
</g>
<!-- Node4 -->
<g id="Node000004" class="node">
<title>Node4</title>
<g id="a_Node000004"><a xlink:title=" ">
<polygon fill="white" stroke="#666666" points="259,-235 80,-235 80,-216 259,-216 259,-235"/>
<text text-anchor="middle" x="169.5" y="-223" font-family="Helvetica,sans-Serif" font-size="10.00">_MateMixerStreamControlPrivate</text>
</a>
</g>
</g>
<!-- Node4&#45;&gt;Node3 -->
<g id="edge3_Node000003_Node000004" class="edge">
<title>Node4&#45;&gt;Node3</title>
<g id="a_edge3_Node000003_Node000004"><a xlink:title=" ">
<path fill="none" stroke="#9a32cd" stroke-dasharray="5,2" d="M165.7,-244.98C156.6,-289.25 133.82,-400.05 127.28,-431.85"/>
<polygon fill="#9a32cd" stroke="#9a32cd" points="169.16,-245.53 167.75,-235.03 162.3,-244.12 169.16,-245.53"/>
</a>
</g>
<text text-anchor="start" x="153" y="-330.5" font-family="Helvetica,sans-Serif" font-size="10.00" fill="grey">priv</text>
</g>
<!-- Node5 -->
<g id="Node000005" class="node">
<title>Node5</title>
<g id="a_Node000005"><a xlink:href="struct__MateMixerStream.html" target="_top" xlink:title=" ">
<polygon fill="white" stroke="#666666" points="299,-307 190,-307 190,-288 299,-288 299,-307"/>
<text text-anchor="middle" x="244.5" y="-295" font-family="Helvetica,sans-Serif" font-size="10.00">_MateMixerStream</text>
</a>
</g>
</g>
<!-- Node5&#45;&gt;Node4 -->
<g id="edge4_Node000004_Node000005" class="edge">
<title>Node5&#45;&gt;Node4</title>
<g id="a_edge4_Node000004_Node000005"><a xlink:title=" ">
<path fill="none" stroke="#9a32cd" stroke-dasharray="5,2" d="M227.68,-280.8C212.58,-266.71 190.96,-246.53 178.77,-235.15"/>
<polygon fill="#9a32cd" stroke="#9a32cd" points="225.6,-283.65 235.3,-287.92 230.38,-278.53 225.6,-283.65"/>
</a>
</g>
<text text-anchor="start" x="220" y="-258.5" font-family="Helvetica,sans-Serif" font-size="10.00" fill="grey">stream</text>
</g>
<!-- Node14 -->
<g id="Node000014" class="node">
<title>Node14</title>
<g id="a_Node000014"><a xlink:title=" ">
<polygon fill="white" stroke="#666666" points="453.5,-235 277.5,-235 277.5,-216 453.5,-216 453.5,-235"/>
<text text-anchor="middle" x="365.5" y="-223" font-family="Helvetica,sans-Serif" font-size="10.00">_MateMixerStreamSwitchPrivate</text>
</a>
</g>
</g>
<!-- Node5&#45;&gt;Node14 -->
<g id="edge15_Node000014_Node000005" class="edge">
<title>Node5&#45;&gt;Node14</title>
<g id="a_edge15_Node000014_Node000005"><a xlink:title=" ">
<path fill="none" stroke="#9a32cd" stroke-dasharray="5,2" d="M267.99,-282.91C292.41,-268.78 329.88,-247.1 350.54,-235.15"/>
<polygon fill="#9a32cd" stroke="#9a32cd" points="266.24,-279.88 259.34,-287.92 269.75,-285.94 266.24,-279.88"/>
</a>
</g>
<text text-anchor="start" x="322" y="-258.5" font-family="Helvetica,sans-Serif" font-size="10.00" fill="grey">stream</text>
</g>
<!-- Node6&#45;&gt;Node5 -->
<g id="edge5_Node000005_Node000006" class="edge">
<title>Node6&#45;&gt;Node5</title>
<g id="a_edge5_Node000005_Node000006"><a xlink:title=" ">
<path fill="none" stroke="#9a32cd" stroke-dasharray="5,2" d="M244.5,-349.58C244.5,-335.76 244.5,-317.68 244.5,-307.15"/>
<polygon fill="#9a32cd" stroke="#9a32cd" points="241,-349.92 244.5,-359.92 248,-349.92 241,-349.92"/>
</a>
</g>
<text text-anchor="start" x="248" y="-330.5" font-family="Helvetica,sans-Serif" font-size="10.00" fill="grey">priv</text>
</g>
<!-- Node7 -->
<g id="Node000007" class="node">
<title>Node7</title>
<g id="a_Node000007"><a xlink:href="struct__MateMixerDevice.html" target="_top" xlink:title=" ">
<polygon fill="white" stroke="#666666" points="323,-451 216,-451 216,-432 323,-432 323,-451"/>
<text text-anchor="middle" x="269.5" y="-439" font-family="Helvetica,sans-Serif" font-size="10.00">_MateMixerDevice</text>
</a>
</g>
</g>
<!-- Node7&#45;&gt;Node6 -->
<g id="edge6_Node000006_Node000007" class="edge">
<title>Node7&#45;&gt;Node6</title>
<g id="a_edge6_Node000006_Node000007"><a xlink:title=" ">
<path fill="none" stroke="#9a32cd" stroke-dasharray="5,2" d="M263.04,-422.4C258.07,-408.49 251.43,-389.89 247.59,-379.15"/>
<polygon fill="#9a32cd" stroke="#9a32cd" points="259.77,-423.68 266.43,-431.92 266.37,-421.32 259.77,-423.68"/>
</a>
</g>
<text text-anchor="start" x="263" y="-402.5" font-family="Helvetica,sans-Serif" font-size="10.00" fill="grey">device</text>
</g>
<!-- Node8 -->
<g id="Node000008" class="node">
<title>Node8</title>
<g id="a_Node000008"><a xlink:title=" ">
<polygon fill="white" stroke="#666666" points="340.5,-523 198.5,-523 198.5,-504 340.5,-504 340.5,-523"/>
<text text-anchor="middle" x="269.5" y="-511" font-family="Helvetica,sans-Serif" font-size="10.00">_MateMixerDevicePrivate</text>
</a>
</g>
</g>
<!-- Node8&#45;&gt;Node7 -->
<g id="edge7_Node000007_Node000008" class="edge">
<title>Node8&#45;&gt;Node7</title>
<g id="a_edge7_Node000007_Node000008"><a xlink:title=" ">
<path fill="none" stroke="#9a32cd" stroke-dasharray="5,2" d="M269.5,-493.58C269.5,-479.76 269.5,-461.68 269.5,-451.15"/>
<polygon fill="#9a32cd" stroke="#9a32cd" points="266,-493.92 269.5,-503.92 273,-493.92 266,-493.92"/>
</a>
</g>
<text text-anchor="start" x="273" y="-474.5" font-family="Helvetica,sans-Serif" font-size="10.00" fill="grey">priv</text>
</g>
<!-- Node9 -->
<g id="Node000009" class="node">
<title>Node9</title>
<g id="a_Node000009"><a xlink:href="struct__MateMixerStreamSwitch.html" target="_top" xlink:title=" ">
<polygon fill="white" stroke="#666666" points="436,-163 295,-163 295,-144 436,-144 436,-163"/>
<text text-anchor="middle" x="365.5" y="-151" font-family="Helvetica,sans-Serif" font-size="10.00">_MateMixerStreamSwitch</text>
</a>
</g>
</g>
<!-- Node9&#45;&gt;Node2 -->
<g id="edge9_Node000002_Node000009" class="edge">
<title>Node9&#45;&gt;Node2</title>
<g id="a_edge9_Node000002_Node000009"><a xlink:title=" ">
<path fill="none" stroke="#9a32cd" stroke-dasharray="5,2" d="M319.4,-141.67C260.07,-127.74 158.19,-103.8 103.96,-91.06"/>
<polygon fill="#9a32cd" stroke="#9a32cd" points="318.72,-145.11 329.26,-143.99 320.32,-138.29 318.72,-145.11"/>
</a>
</g>
<text text-anchor="start" x="255" y="-114.5" font-family="Helvetica,sans-Serif" font-size="10.00" fill="grey">get_switch</text>
</g>
<!-- Node10 -->
<g id="Node000010" class="node">
<title>Node10</title>
<g id="a_Node000010"><a xlink:href="struct__MateMixerSwitch.html" target="_top" xlink:title=" ">
<polygon fill="white" stroke="#666666" points="577.5,-235 471.5,-235 471.5,-216 577.5,-216 577.5,-235"/>
<text text-anchor="middle" x="524.5" y="-223" font-family="Helvetica,sans-Serif" font-size="10.00">_MateMixerSwitch</text>
</a>
</g>
</g>
<!-- Node10&#45;&gt;Node9 -->
<g id="edge10_Node000009_Node000010" class="edge">
<title>Node10&#45;&gt;Node9</title>
<g id="a_edge10_Node000009_Node000010"><a xlink:title=" ">
<path fill="none" stroke="#9a32cd" stroke-dasharray="5,2" d="M495.72,-211.83C463.72,-197.74 412.9,-175.37 385.16,-163.15"/>
<polygon fill="#9a32cd" stroke="#9a32cd" points="494.44,-215.09 505,-215.92 497.26,-208.68 494.44,-215.09"/>
</a>
</g>
<text text-anchor="start" x="467" y="-186.5" font-family="Helvetica,sans-Serif" font-size="10.00" fill="grey">object</text>
</g>
<!-- Node11 -->
<g id="Node000011" class="node">
<title>Node11</title>
<g id="a_Node000011"><a xlink:title=" ">
<polygon fill="white" stroke="#666666" points="594.5,-307 454.5,-307 454.5,-288 594.5,-288 594.5,-307"/>
<text text-anchor="middle" x="524.5" y="-295" font-family="Helvetica,sans-Serif" font-size="10.00">_MateMixerSwitchPrivate</text>
</a>
</g>
</g>
<!-- Node11&#45;&gt;Node10 -->
<g id="edge11_Node000010_Node000011" class="edge">
<title>Node11&#45;&gt;Node10</title>
<g id="a_edge11_Node000010_Node000011"><a xlink:title=" ">
<path fill="none" stroke="#9a32cd" stroke-dasharray="5,2" d="M524.5,-277.58C524.5,-263.76 524.5,-245.68 524.5,-235.15"/>
<polygon fill="#9a32cd" stroke="#9a32cd" points="521,-277.92 524.5,-287.92 528,-277.92 521,-277.92"/>
</a>
</g>
<text text-anchor="start" x="528" y="-258.5" font-family="Helvetica,sans-Serif" font-size="10.00" fill="grey">priv</text>
</g>
<!-- Node12 -->
<g id="Node000012" class="node">
<title>Node12</title>
<g id="a_Node000012"><a xlink:href="struct__MateMixerSwitchOption.html" target="_top" xlink:title=" ">
<polygon fill="white" stroke="#666666" points="593.5,-379 455.5,-379 455.5,-360 593.5,-360 593.5,-379"/>
<text text-anchor="middle" x="524.5" y="-367" font-family="Helvetica,sans-Serif" font-size="10.00">_MateMixerSwitchOption</text>
</a>
</g>
</g>
<!-- Node12&#45;&gt;Node11 -->
<g id="edge12_Node000011_Node000012" class="edge">
<title>Node12&#45;&gt;Node11</title>
<g id="a_edge12_Node000011_Node000012"><a xlink:title=" ">
<path fill="none" stroke="#9a32cd" stroke-dasharray="5,2" d="M524.5,-349.58C524.5,-335.76 524.5,-317.68 524.5,-307.15"/>
<polygon fill="#9a32cd" stroke="#9a32cd" points="521,-349.92 524.5,-359.92 528,-349.92 521,-349.92"/>
</a>
</g>
<text text-anchor="start" x="528" y="-330.5" font-family="Helvetica,sans-Serif" font-size="10.00" fill="grey">active</text>
</g>
<!-- Node13 -->
<g id="Node000013" class="node">
<title>Node13</title>
<g id="a_Node000013"><a xlink:title=" ">
<polygon fill="white" stroke="#666666" points="611,-451 438,-451 438,-432 611,-432 611,-451"/>
<text text-anchor="middle" x="524.5" y="-439" font-family="Helvetica,sans-Serif" font-size="10.00">_MateMixerSwitchOptionPrivate</text>
</a>
</g>
</g>
<!-- Node13&#45;&gt;Node12 -->
<g id="edge13_Node000012_Node000013" class="edge">
<title>Node13&#45;&gt;Node12</title>
<g id="a_edge13_Node000012_Node000013"><a xlink:title=" ">
<path fill="none" stroke="#9a32cd" stroke-dasharray="5,2" d="M524.5,-421.58C524.5,-407.76 524.5,-389.68 524.5,-379.15"/>
<polygon fill="#9a32cd" stroke="#9a32cd" points="521,-421.92 524.5,-431.92 528,-421.92 521,-421.92"/>
</a>
</g>
<text text-anchor="start" x="528" y="-402.5" font-family="Helvetica,sans-Serif" font-size="10.00" fill="grey">priv</text>
</g>
<!-- Node14&#45;&gt;Node9 -->
<g id="edge14_Node000009_Node000014" class="edge">
<title>Node14&#45;&gt;Node9</title>
<g id="a_edge14_Node000009_Node000014"><a xlink:title=" ">
<path fill="none" stroke="#9a32cd" stroke-dasharray="5,2" d="M365.5,-205.58C365.5,-191.76 365.5,-173.68 365.5,-163.15"/>
<polygon fill="#9a32cd" stroke="#9a32cd" points="362,-205.92 365.5,-215.92 369,-205.92 362,-205.92"/>
</a>
</g>
<text text-anchor="start" x="369" y="-186.5" font-family="Helvetica,sans-Serif" font-size="10.00" fill="grey">priv</text>
</g>
</g>
</svg>
