<?xml version="1.0" encoding="UTF-8" standalone="no"?>
<!DOCTYPE svg PUBLIC "-//W3C//DTD SVG 1.1//EN"
 "http://www.w3.org/Graphics/SVG/1.1/DTD/svg11.dtd">
<!-- Generated by graphviz version 2.43.0 (0)
 -->
<!-- Title: GSFade Pages: 1 -->
<!--zoomable 345 -->

<svg id="main" version="1.1" xmlns="http://www.w3.org/2000/svg" xmlns:xlink="http://www.w3.org/1999/xlink" xml:space="preserve" onload="init(evt)">

<style type="text/css"><![CDATA[
.node, .edge {opacity: 0.7;}
.node.selected, .edge.selected {opacity: 1;}
.edge:hover path { stroke: red; }
.edge:hover polygon { stroke: red; fill: red; }
]]></style>

<defs>
  <circle id="rim" cx="0" cy="0" r="7"/>
  <circle id="rim2" cx="0" cy="0" r="3.5"/>
  <g id="zoomPlus">
    <use xlink:href="#rim" fill="#404040"><set attributeName="fill" to="#808080" begin="zoomplus.mouseover" end="zoomplus.mouseout"/></use>
    <path d="M-4,0h8M0,-4v8" fill="none" stroke="white" stroke-width="1.5" pointer-events="none"/>
  </g>
  <g id="zoomMin">
    <use xlink:href="#rim" fill="#404040"><set attributeName="fill" to="#808080" begin="zoomminus.mouseover" end="zoomminus.mouseout"/></use>
    <path d="M-4,0h8" fill="none" stroke="white" stroke-width="1.5" pointer-events="none"/>
  </g>
  <g id="arrowUp" transform="translate(30 24)">
    <use xlink:href="#rim"/>
    <path pointer-events="none" fill="none" stroke="white" stroke-width="1.5" d="M0,-3.0v7 M-2.5,-0.5L0,-3.0L2.5,-0.5"/>
  </g>
  <g id="arrowRight" transform="rotate(90) translate(36 -43)">
    <use xlink:href="#rim"/>
    <path pointer-events="none" fill="none" stroke="white" stroke-width="1.5" d="M0,-3.0v7 M-2.5,-0.5L0,-3.0L2.5,-0.5"/>
  </g>
  <g id="arrowDown" transform="rotate(180) translate(-30 -48)">
    <use xlink:href="#rim"/>
    <path pointer-events="none" fill="none" stroke="white" stroke-width="1.5" d="M0,-3.0v7 M-2.5,-0.5L0,-3.0L2.5,-0.5"/>
  </g>
  <g id="arrowLeft" transform="rotate(270) translate(-36 17)">
    <use xlink:href="#rim"/>
    <path pointer-events="none" fill="none" stroke="white" stroke-width="1.5" d="M0,-3.0v7 M-2.5,-0.5L0,-3.0L2.5,-0.5"/>
  </g>
  <g id="resetDef">
    <use xlink:href="#rim2" fill="#404040"><set attributeName="fill" to="#808080" begin="reset.mouseover" end="reset.mouseout"/></use>
  </g>
</defs>
<script type="application/ecmascript">
var viewWidth = 632;
var viewHeight = 345;
var sectionId = 'dynsection-0';
</script>
<script type="application/ecmascript" xlink:href="svg.min.js"/>
<svg id="graph" class="graph">
<g id="viewport">
<title>GSFade</title>
<!-- Node1 -->
<g id="Node000001" class="node">
<title>Node1</title>
<g id="a_Node000001"><a xlink:title=" ">
<polygon fill="#999999" stroke="#666666" points="77.5,-106 24.5,-106 24.5,-87 77.5,-87 77.5,-106"/>
<text text-anchor="middle" x="51" y="-94" font-family="Helvetica,sans-Serif" font-size="10.00">GSFade</text>
</a>
</g>
</g>
<!-- Node2 -->
<g id="Node000002" class="node">
<title>Node2</title>
<g id="a_Node000002"><a xlink:title=" ">
<polygon fill="white" stroke="#666666" points="94.5,-178 7.5,-178 7.5,-159 94.5,-159 94.5,-178"/>
<text text-anchor="middle" x="51" y="-166" font-family="Helvetica,sans-Serif" font-size="10.00">GSFadePrivate</text>
</a>
</g>
</g>
<!-- Node2&#45;&gt;Node1 -->
<g id="edge1_Node000001_Node000002" class="edge">
<title>Node2&#45;&gt;Node1</title>
<g id="a_edge1_Node000001_Node000002"><a xlink:title=" ">
<path fill="none" stroke="#9a32cd" stroke-dasharray="5,2" d="M51,-148.58C51,-134.76 51,-116.68 51,-106.15"/>
<polygon fill="#9a32cd" stroke="#9a32cd" points="47.5,-148.92 51,-158.92 54.5,-148.92 47.5,-148.92"/>
</a>
</g>
<text text-anchor="start" x="54.5" y="-129.5" font-family="Helvetica,sans-Serif" font-size="10.00" fill="grey">priv</text>
</g>
<!-- Node3 -->
<g id="Node000003" class="node">
<title>Node3</title>
<g id="a_Node000003"><a xlink:title=" ">
<polygon fill="white" stroke="#666666" points="120,-265 0,-265 0,-246 120,-246 120,-265"/>
<text text-anchor="middle" x="60" y="-253" font-family="Helvetica,sans-Serif" font-size="10.00">GSFadeScreenPrivate</text>
</a>
</g>
</g>
<!-- Node3&#45;&gt;Node2 -->
<g id="edge2_Node000002_Node000003" class="edge">
<title>Node3&#45;&gt;Node2</title>
<g id="a_edge2_Node000002_Node000003"><a xlink:title=" ">
<path fill="none" stroke="#9a32cd" stroke-dasharray="5,2" d="M58,-235.62C56.11,-217.79 53.36,-191.83 51.94,-178.36"/>
<polygon fill="#9a32cd" stroke="#9a32cd" points="54.54,-236.15 59.07,-245.72 61.5,-235.41 54.54,-236.15"/>
</a>
</g>
<text text-anchor="start" x="61.5" y="-209" font-family="Helvetica,sans-Serif" font-size="10.00" fill="grey">screen_priv</text>
</g>
<!-- Node4 -->
<g id="Node000004" class="node">
<title>Node4</title>
<g id="a_Node000004"><a xlink:title=" ">
<polygon fill="white" stroke="#666666" points="104,-337 16,-337 16,-318 104,-318 104,-337"/>
<text text-anchor="middle" x="60" y="-325" font-family="Helvetica,sans-Serif" font-size="10.00">GSGammaInfo</text>
</a>
</g>
</g>
<!-- Node4&#45;&gt;Node3 -->
<g id="edge3_Node000003_Node000004" class="edge">
<title>Node4&#45;&gt;Node3</title>
<g id="a_edge3_Node000003_Node000004"><a xlink:title=" ">
<path fill="none" stroke="#9a32cd" stroke-dasharray="5,2" d="M60,-307.58C60,-293.76 60,-275.68 60,-265.15"/>
<polygon fill="#9a32cd" stroke="#9a32cd" points="56.5,-307.92 60,-317.92 63.5,-307.92 56.5,-307.92"/>
</a>
</g>
<text text-anchor="start" x="63.5" y="-288.5" font-family="Helvetica,sans-Serif" font-size="10.00" fill="grey">info</text>
</g>
<!-- Node5 -->
<g id="Node000005" class="node">
<title>Node5</title>
<g id="a_Node000005"><a xlink:href="structMateRRScreen.html" target="_top" xlink:title=" ">
<polygon fill="white" stroke="#666666" points="218,-337 130,-337 130,-318 218,-318 218,-337"/>
<text text-anchor="middle" x="174" y="-325" font-family="Helvetica,sans-Serif" font-size="10.00">MateRRScreen</text>
</a>
</g>
</g>
<!-- Node5&#45;&gt;Node3 -->
<g id="edge4_Node000003_Node000005" class="edge">
<title>Node5&#45;&gt;Node3</title>
<g id="a_edge4_Node000003_Node000005"><a xlink:title=" ">
<path fill="none" stroke="#9a32cd" stroke-dasharray="5,2" d="M141.55,-314.02C132.39,-310.01 122.59,-305.23 114,-300 97.14,-289.73 79.72,-274.77 69.38,-265.34"/>
<polygon fill="#9a32cd" stroke="#9a32cd" points="140.21,-317.25 150.79,-317.91 142.93,-310.8 140.21,-317.25"/>
</a>
</g>
<text text-anchor="start" x="117" y="-288.5" font-family="Helvetica,sans-Serif" font-size="10.00" fill="grey">rrscreen</text>
</g>
<!-- Node7 -->
<g id="Node000007" class="node">
<title>Node7</title>
<g id="a_Node000007"><a xlink:href="structScreenInfo.html" target="_top" xlink:title=" ">
<polygon fill="white" stroke="#666666" points="400,-265 332,-265 332,-246 400,-246 400,-265"/>
<text text-anchor="middle" x="366" y="-253" font-family="Helvetica,sans-Serif" font-size="10.00">ScreenInfo</text>
</a>
</g>
</g>
<!-- Node5&#45;&gt;Node7 -->
<g id="edge18_Node000007_Node000005" class="edge">
<title>Node5&#45;&gt;Node7</title>
<g id="a_edge18_Node000007_Node000005"><a xlink:title=" ">
<path fill="none" stroke="#9a32cd" stroke-dasharray="5,2" d="M207.29,-314.36C245.94,-300.27 308.71,-277.39 342.57,-265.04"/>
<polygon fill="#9a32cd" stroke="#9a32cd" points="205.74,-311.2 197.54,-317.92 208.14,-317.78 205.74,-311.2"/>
</a>
</g>
<text text-anchor="start" x="295.5" y="-288.5" font-family="Helvetica,sans-Serif" font-size="10.00" fill="grey">screen</text>
</g>
<!-- Node6 -->
<g id="Node000006" class="node">
<title>Node6</title>
<g id="a_Node000006"><a xlink:href="structMateRRScreenPrivate.html" target="_top" xlink:title=" ">
<polygon fill="white" stroke="#666666" points="235,-178 113,-178 113,-159 235,-159 235,-178"/>
<text text-anchor="middle" x="174" y="-166" font-family="Helvetica,sans-Serif" font-size="10.00">MateRRScreenPrivate</text>
</a>
</g>
</g>
<!-- Node6&#45;&gt;Node5 -->
<g id="edge5_Node000005_Node000006" class="edge">
<title>Node6&#45;&gt;Node5</title>
<g id="a_edge5_Node000005_Node000006"><a xlink:title=" ">
<path fill="none" stroke="#9a32cd" stroke-dasharray="5,2" d="M174,-188.31C174,-222.31 174,-292.78 174,-317.61"/>
<polygon fill="#9a32cd" stroke="#9a32cd" points="177.5,-188.29 174,-178.29 170.5,-188.29 177.5,-188.29"/>
</a>
</g>
<text text-anchor="start" x="177.5" y="-252.5" font-family="Helvetica,sans-Serif" font-size="10.00" fill="grey">priv</text>
</g>
<!-- Node7&#45;&gt;Node6 -->
<g id="edge6_Node000006_Node000007" class="edge">
<title>Node7&#45;&gt;Node6</title>
<g id="a_edge6_Node000006_Node000007"><a xlink:title=" ">
<path fill="none" stroke="#9a32cd" stroke-dasharray="5,2" d="M321.9,-252.33C294.65,-249.44 259.7,-242.86 232,-228 209.06,-215.69 189.42,-191.32 179.99,-178.25"/>
<polygon fill="#9a32cd" stroke="#9a32cd" points="321.66,-255.82 331.94,-253.26 322.31,-248.85 321.66,-255.82"/>
</a>
</g>
<text text-anchor="start" x="235.5" y="-209" font-family="Helvetica,sans-Serif" font-size="10.00" fill="grey">info</text>
</g>
<!-- Node8 -->
<g id="Node000008" class="node">
<title>Node8</title>
<g id="a_Node000008"><a xlink:title=" ">
<polygon fill="white" stroke="#666666" points="346,-106 258,-106 258,-87 346,-87 346,-106"/>
<text text-anchor="middle" x="302" y="-94" font-family="Helvetica,sans-Serif" font-size="10.00">MateRROutput</text>
</a>
</g>
</g>
<!-- Node7&#45;&gt;Node8 -->
<g id="edge8_Node000008_Node000007" class="edge">
<title>Node7&#45;&gt;Node8</title>
<g id="a_edge8_Node000008_Node000007"><a xlink:title=" ">
<path fill="none" stroke="#9a32cd" stroke-dasharray="5,2" d="M358.95,-236.45C351.4,-217.21 339.03,-185.88 328,-159 320.26,-140.12 310.87,-118.13 305.76,-106.23"/>
<polygon fill="#9a32cd" stroke="#9a32cd" points="355.7,-237.75 362.6,-245.78 362.22,-235.2 355.7,-237.75"/>
</a>
</g>
<text text-anchor="start" x="338.5" y="-165.5" font-family="Helvetica,sans-Serif" font-size="10.00" fill="grey">info</text>
</g>
<!-- Node9 -->
<g id="Node000009" class="node">
<title>Node9</title>
<g id="a_Node000009"><a xlink:title=" ">
<polygon fill="white" stroke="#666666" points="475,-19 401,-19 401,0 475,0 475,-19"/>
<text text-anchor="middle" x="438" y="-7" font-family="Helvetica,sans-Serif" font-size="10.00">MateRRCrtc</text>
</a>
</g>
</g>
<!-- Node7&#45;&gt;Node9 -->
<g id="edge10_Node000009_Node000007" class="edge">
<title>Node7&#45;&gt;Node9</title>
<g id="a_edge10_Node000009_Node000007"><a xlink:title=" ">
<path fill="none" stroke="#9a32cd" stroke-dasharray="5,2" d="M410.21,-254.01C459.18,-252.51 533.9,-247.06 554,-228 615.59,-169.58 613.07,-97.97 554,-37 543.15,-25.8 504.74,-18.59 475.06,-14.56"/>
<polygon fill="#9a32cd" stroke="#9a32cd" points="410.08,-250.52 400.18,-254.28 410.27,-257.51 410.08,-250.52"/>
</a>
</g>
<text text-anchor="start" x="602.5" y="-129.5" font-family="Helvetica,sans-Serif" font-size="10.00" fill="grey">info</text>
</g>
<!-- Node10 -->
<g id="Node000010" class="node">
<title>Node10</title>
<g id="a_Node000010"><a xlink:title=" ">
<polygon fill="white" stroke="#666666" points="477,-178 395,-178 395,-159 477,-159 477,-178"/>
<text text-anchor="middle" x="436" y="-166" font-family="Helvetica,sans-Serif" font-size="10.00">MateRRMode</text>
</a>
</g>
</g>
<!-- Node7&#45;&gt;Node10 -->
<g id="edge12_Node000010_Node000007" class="edge">
<title>Node7&#45;&gt;Node10</title>
<g id="a_edge12_Node000010_Node000007"><a xlink:title=" ">
<path fill="none" stroke="#9a32cd" stroke-dasharray="5,2" d="M410.57,-252.13C427.24,-248.81 444.63,-241.91 455,-228 463.5,-216.6 459.35,-209.54 455,-196 452.85,-189.32 448.33,-182.89 444.23,-178.04"/>
<polygon fill="#9a32cd" stroke="#9a32cd" points="409.67,-248.73 400.35,-253.77 410.78,-255.64 409.67,-248.73"/>
</a>
</g>
<text text-anchor="start" x="462.5" y="-209" font-family="Helvetica,sans-Serif" font-size="10.00" fill="grey">info</text>
</g>
<!-- Node8&#45;&gt;Node7 -->
<g id="edge7_Node000007_Node000008" class="edge">
<title>Node8&#45;&gt;Node7</title>
<g id="a_edge7_Node000007_Node000008"><a xlink:title=" ">
<path fill="none" stroke="#9a32cd" stroke-dasharray="5,2" d="M292.25,-115.45C284.54,-132.16 276.39,-157.5 285,-178 298.18,-209.39 331.52,-233.78 351.08,-245.95"/>
<polygon fill="#9a32cd" stroke="#9a32cd" points="295.49,-116.79 296.84,-106.28 289.23,-113.66 295.49,-116.79"/>
</a>
</g>
<text text-anchor="start" x="288.5" y="-165.5" font-family="Helvetica,sans-Serif" font-size="10.00" fill="grey">outputs</text>
</g>
<!-- Node8&#45;&gt;Node8 -->
<g id="edge14_Node000008_Node000008" class="edge">
<title>Node8&#45;&gt;Node8</title>
<g id="a_edge14_Node000008_Node000008"><a xlink:title=" ">
<path fill="none" stroke="#9a32cd" stroke-dasharray="5,2" d="M356.26,-101.8C361.02,-100.68 364,-98.92 364,-96.5 364,-92.63 356.37,-90.43 346.02,-89.88"/>
<polygon fill="#9a32cd" stroke="#9a32cd" points="355.5,-98.37 346.02,-103.12 356.39,-105.32 355.5,-98.37"/>
</a>
</g>
<text text-anchor="start" x="367" y="-93.5" font-family="Helvetica,sans-Serif" font-size="10.00" fill="grey">clones</text>
</g>
<!-- Node8&#45;&gt;Node9 -->
<g id="edge13_Node000009_Node000008" class="edge">
<title>Node8&#45;&gt;Node9</title>
<g id="a_edge13_Node000009_Node000008"><a xlink:title=" ">
<path fill="none" stroke="#9a32cd" stroke-dasharray="5,2" d="M310.33,-77.27C317.55,-62.2 327.93,-42.42 335,-37 353.75,-22.61 379.5,-15.99 400.56,-12.96"/>
<polygon fill="#9a32cd" stroke="#9a32cd" points="306.97,-76.18 305.91,-86.72 313.31,-79.15 306.97,-76.18"/>
</a>
</g>
<text text-anchor="start" x="338.5" y="-58" font-family="Helvetica,sans-Serif" font-size="10.00" fill="grey">current_outputs</text>
<text text-anchor="start" x="338.5" y="-43" font-family="Helvetica,sans-Serif" font-size="10.00" fill="grey">possible_outputs</text>
</g>
<!-- Node9&#45;&gt;Node7 -->
<g id="edge16_Node000007_Node000009" class="edge">
<title>Node9&#45;&gt;Node7</title>
<g id="a_edge16_Node000007_Node000009"><a xlink:title=" ">
<path fill="none" stroke="#9a32cd" stroke-dasharray="5,2" d="M460.06,-24.81C478.65,-38.31 503.94,-60.42 515,-87 539.51,-145.91 533.21,-182.97 488,-228 475.79,-240.16 431.69,-247.44 400.01,-251.21"/>
<polygon fill="#9a32cd" stroke="#9a32cd" points="462.02,-21.91 451.81,-19.06 458.01,-27.65 462.02,-21.91"/>
</a>
</g>
<text text-anchor="start" x="531" y="-129.5" font-family="Helvetica,sans-Serif" font-size="10.00" fill="grey">crtcs</text>
</g>
<!-- Node9&#45;&gt;Node8 -->
<g id="edge9_Node000008_Node000009" class="edge">
<title>Node9&#45;&gt;Node8</title>
<g id="a_edge9_Node000008_Node000009"><a xlink:title=" ">
<path fill="none" stroke="#9a32cd" stroke-dasharray="5,2" d="M390.46,-9.82C337.19,-10.19 255.68,-14.57 236,-37 226.62,-47.69 228.03,-57.22 236,-69 241.6,-77.29 250.27,-82.98 259.49,-86.9"/>
<polygon fill="#9a32cd" stroke="#9a32cd" points="390.72,-13.32 400.71,-9.79 390.7,-6.32 390.72,-13.32"/>
</a>
</g>
<text text-anchor="start" x="239" y="-58" font-family="Helvetica,sans-Serif" font-size="10.00" fill="grey">current_crtc</text>
<text text-anchor="start" x="239" y="-43" font-family="Helvetica,sans-Serif" font-size="10.00" fill="grey">possible_crtcs</text>
</g>
<!-- Node10&#45;&gt;Node7 -->
<g id="edge17_Node000007_Node000010" class="edge">
<title>Node10&#45;&gt;Node7</title>
<g id="a_edge17_Node000007_Node000010"><a xlink:title=" ">
<path fill="none" stroke="#9a32cd" stroke-dasharray="5,2" d="M396.4,-182.65C390.22,-186.17 384.42,-190.56 380,-196 368.15,-210.59 366.04,-233.59 365.84,-245.95"/>
<polygon fill="#9a32cd" stroke="#9a32cd" points="398.22,-185.66 405.64,-178.1 395.12,-179.38 398.22,-185.66"/>
</a>
</g>
<text text-anchor="start" x="383.5" y="-217" font-family="Helvetica,sans-Serif" font-size="10.00" fill="grey">clone_modes</text>
<text text-anchor="start" x="383.5" y="-202" font-family="Helvetica,sans-Serif" font-size="10.00" fill="grey">modes</text>
</g>
<!-- Node10&#45;&gt;Node8 -->
<g id="edge15_Node000008_Node000010" class="edge">
<title>Node10&#45;&gt;Node8</title>
<g id="a_edge15_Node000008_Node000010"><a xlink:title=" ">
<path fill="none" stroke="#9a32cd" stroke-dasharray="5,2" d="M408.31,-154.45C400.32,-150.4 391.68,-145.75 384,-141 373.19,-134.31 371.97,-130.42 361,-124 349.27,-117.14 335.45,-110.84 324.13,-106.11"/>
<polygon fill="#9a32cd" stroke="#9a32cd" points="406.79,-157.61 417.3,-158.9 409.89,-151.33 406.79,-157.61"/>
</a>
</g>
<text text-anchor="start" x="387" y="-129.5" font-family="Helvetica,sans-Serif" font-size="10.00" fill="grey">modes</text>
</g>
<!-- Node10&#45;&gt;Node9 -->
<g id="edge11_Node000009_Node000010" class="edge">
<title>Node10&#45;&gt;Node9</title>
<g id="a_edge11_Node000009_Node000010"><a xlink:title=" ">
<path fill="none" stroke="#9a32cd" stroke-dasharray="5,2" d="M436.24,-148.56C436.68,-114.46 437.57,-44 437.89,-19.29"/>
<polygon fill="#9a32cd" stroke="#9a32cd" points="432.74,-148.57 436.11,-158.61 439.74,-148.65 432.74,-148.57"/>
</a>
</g>
<text text-anchor="start" x="440" y="-93.5" font-family="Helvetica,sans-Serif" font-size="10.00" fill="grey">current_mode</text>
</g>
</g>
</svg>

<g id="navigator" transform="translate(0 0)" fill="#404254">
  <rect fill="#f2f5e9" fill-opacity="0.5" stroke="#606060" stroke-width=".5" x="0" y="0" width="60" height="60"/>
  <use id="zoomplus" xlink:href="#zoomPlus" x="17" y="9" onmousedown="handleZoom(evt,'in')"/>
  <use id="zoomminus" xlink:href="#zoomMin" x="42" y="9" onmousedown="handleZoom(evt,'out')"/>
  <use id="reset" xlink:href="#resetDef" x="30" y="36" onmousedown="handleReset()"/>
   <use id="arrowup" xlink:href="#arrowUp" x="0" y="0" onmousedown="handlePan(0,-1)"/>
  <use id="arrowright" xlink:href="#arrowRight" x="0" y="0" onmousedown="handlePan(1,0)"/>
  <use id="arrowdown" xlink:href="#arrowDown" x="0" y="0" onmousedown="handlePan(0,1)"/>
  <use id="arrowleft" xlink:href="#arrowLeft" x="0" y="0" onmousedown="handlePan(-1,0)"/>
</g>
<svg viewBox="0 0 15 15" width="100%" height="30px" preserveAspectRatio="xMaxYMin meet">
 <g id="arrow_out" transform="scale(0.3 0.3)">
  <a xlink:href="structGSFade__coll__graph_org.svg" target="_base">
   <rect id="button" ry="5" rx="5" y="6" x="6" height="38" width="38"
        fill="#f2f5e9" fill-opacity="0.5" stroke="#606060" stroke-width="1.0"/>
   <path id="arrow"
     d="M 11.500037,31.436501 C 11.940474,20.09759 22.043105,11.32322 32.158766,21.979434 L 37.068811,17.246167 C 37.068811,17.246167 37.088388,32 37.088388,32 L 22.160133,31.978069 C 22.160133,31.978069 26.997745,27.140456 26.997745,27.140456 C 18.528582,18.264221 13.291696,25.230495 11.500037,31.436501 z"
     style="fill:#404040;"/>
  </a>
 </g>
</svg>

<style type='text/css'>
<![CDATA[
[data-mouse-over-selected='false'] { opacity: 0.7; }
[data-mouse-over-selected='true']  { opacity: 1.0; }
]]>
</style>
<script type="application/ecmascript"><![CDATA[
document.addEventListener('DOMContentLoaded', (event) => {
  highlightEdges();
  highlightAdjacentNodes();
});
]]></script>
</svg>
