<?xml version="1.0" encoding="UTF-8" standalone="no"?>
<!DOCTYPE svg PUBLIC "-//W3C//DTD SVG 1.1//EN"
 "http://www.w3.org/Graphics/SVG/1.1/DTD/svg11.dtd">
<!-- Generated by graphviz version 2.43.0 (0)
 -->
<!-- Title: _MateMixerDeviceClass Pages: 1 -->
<!--zoomable 387 -->

<svg id="main" version="1.1" xmlns="http://www.w3.org/2000/svg" xmlns:xlink="http://www.w3.org/1999/xlink" xml:space="preserve" onload="init(evt)">

<style type="text/css"><![CDATA[
.node, .edge {opacity: 0.7;}
.node.selected, .edge.selected {opacity: 1;}
.edge:hover path { stroke: red; }
.edge:hover polygon { stroke: red; fill: red; }
]]></style>

<defs>
  <circle id="rim" cx="0" cy="0" r="7"/>
  <circle id="rim2" cx="0" cy="0" r="3.5"/>
  <g id="zoomPlus">
    <use xlink:href="#rim" fill="#404040"><set attributeName="fill" to="#808080" begin="zoomplus.mouseover" end="zoomplus.mouseout"/></use>
    <path d="M-4,0h8M0,-4v8" fill="none" stroke="white" stroke-width="1.5" pointer-events="none"/>
  </g>
  <g id="zoomMin">
    <use xlink:href="#rim" fill="#404040"><set attributeName="fill" to="#808080" begin="zoomminus.mouseover" end="zoomminus.mouseout"/></use>
    <path d="M-4,0h8" fill="none" stroke="white" stroke-width="1.5" pointer-events="none"/>
  </g>
  <g id="arrowUp" transform="translate(30 24)">
    <use xlink:href="#rim"/>
    <path pointer-events="none" fill="none" stroke="white" stroke-width="1.5" d="M0,-3.0v7 M-2.5,-0.5L0,-3.0L2.5,-0.5"/>
  </g>
  <g id="arrowRight" transform="rotate(90) translate(36 -43)">
    <use xlink:href="#rim"/>
    <path pointer-events="none" fill="none" stroke="white" stroke-width="1.5" d="M0,-3.0v7 M-2.5,-0.5L0,-3.0L2.5,-0.5"/>
  </g>
  <g id="arrowDown" transform="rotate(180) translate(-30 -48)">
    <use xlink:href="#rim"/>
    <path pointer-events="none" fill="none" stroke="white" stroke-width="1.5" d="M0,-3.0v7 M-2.5,-0.5L0,-3.0L2.5,-0.5"/>
  </g>
  <g id="arrowLeft" transform="rotate(270) translate(-36 17)">
    <use xlink:href="#rim"/>
    <path pointer-events="none" fill="none" stroke="white" stroke-width="1.5" d="M0,-3.0v7 M-2.5,-0.5L0,-3.0L2.5,-0.5"/>
  </g>
  <g id="resetDef">
    <use xlink:href="#rim2" fill="#404040"><set attributeName="fill" to="#808080" begin="reset.mouseover" end="reset.mouseout"/></use>
  </g>
</defs>
<script type="application/ecmascript">
var viewWidth = 667;
var viewHeight = 387;
var sectionId = 'dynsection-0';
</script>
<script type="application/ecmascript" xlink:href="svg.min.js"/>
<svg id="graph" class="graph">
<g id="viewport">
<title>_MateMixerDeviceClass</title>
<!-- Node1 -->
<g id="Node000001" class="node">
<title>Node1</title>
<g id="a_Node000001"><a xlink:title=" ">
<polygon fill="#999999" stroke="#666666" points="487.5,-19 353.5,-19 353.5,0 487.5,0 487.5,-19"/>
<text text-anchor="middle" x="420.5" y="-7" font-family="Helvetica,sans-Serif" font-size="10.00">_MateMixerDeviceClass</text>
</a>
</g>
</g>
<!-- Node2 -->
<g id="Node000002" class="node">
<title>Node2</title>
<g id="a_Node000002"><a xlink:href="struct__MateMixerStream.html" target="_top" xlink:title=" ">
<polygon fill="white" stroke="#666666" points="533,-379 424,-379 424,-360 533,-360 533,-379"/>
<text text-anchor="middle" x="478.5" y="-367" font-family="Helvetica,sans-Serif" font-size="10.00">_MateMixerStream</text>
</a>
</g>
</g>
<!-- Node2&#45;&gt;Node1 -->
<g id="edge1_Node000001_Node000002" class="edge">
<title>Node2&#45;&gt;Node1</title>
<g id="a_edge1_Node000001_Node000002"><a xlink:title=" ">
<path fill="none" stroke="#9a32cd" stroke-dasharray="5,2" d="M535.54,-357.01C565.68,-347.26 596.5,-329.67 596.5,-298.5 596.5,-298.5 596.5,-298.5 596.5,-80.5 596.5,-31.67 537.28,-15.93 487.54,-11.33"/>
<polygon fill="#9a32cd" stroke="#9a32cd" points="534.4,-353.7 525.82,-359.91 536.4,-360.41 534.4,-353.7"/>
</a>
</g>
<text text-anchor="start" x="599.5" y="-186.5" font-family="Helvetica,sans-Serif" font-size="10.00" fill="grey">get_stream</text>
</g>
<!-- Node7 -->
<g id="Node000007" class="node">
<title>Node7</title>
<g id="a_Node000007"><a xlink:title=" ">
<polygon fill="white" stroke="#666666" points="568,-307 389,-307 389,-288 568,-288 568,-307"/>
<text text-anchor="middle" x="478.5" y="-295" font-family="Helvetica,sans-Serif" font-size="10.00">_MateMixerStreamControlPrivate</text>
</a>
</g>
</g>
<!-- Node2&#45;&gt;Node7 -->
<g id="edge7_Node000007_Node000002" class="edge">
<title>Node2&#45;&gt;Node7</title>
<g id="a_edge7_Node000007_Node000002"><a xlink:title=" ">
<path fill="none" stroke="#9a32cd" stroke-dasharray="5,2" d="M478.5,-349.58C478.5,-335.76 478.5,-317.68 478.5,-307.15"/>
<polygon fill="#9a32cd" stroke="#9a32cd" points="475,-349.92 478.5,-359.92 482,-349.92 475,-349.92"/>
</a>
</g>
<text text-anchor="start" x="482" y="-330.5" font-family="Helvetica,sans-Serif" font-size="10.00" fill="grey">stream</text>
</g>
<!-- Node3 -->
<g id="Node000003" class="node">
<title>Node3</title>
<g id="a_Node000003"><a xlink:title=" ">
<polygon fill="white" stroke="#666666" points="493,-163 350,-163 350,-144 493,-144 493,-163"/>
<text text-anchor="middle" x="421.5" y="-151" font-family="Helvetica,sans-Serif" font-size="10.00">_MateMixerStreamPrivate</text>
</a>
</g>
</g>
<!-- Node3&#45;&gt;Node2 -->
<g id="edge2_Node000002_Node000003" class="edge">
<title>Node3&#45;&gt;Node2</title>
<g id="a_edge2_Node000002_Node000003"><a xlink:title=" ">
<path fill="none" stroke="#9a32cd" stroke-dasharray="5,2" d="M408.26,-171.36C399.81,-183.15 389.53,-199.65 384.5,-216 364.16,-282.09 373.61,-294.55 380.5,-307 395.47,-334.07 427.89,-350.83 451.35,-359.88"/>
<polygon fill="#9a32cd" stroke="#9a32cd" points="411.32,-173.11 414.51,-163.01 405.71,-168.92 411.32,-173.11"/>
</a>
</g>
<text text-anchor="start" x="378" y="-258.5" font-family="Helvetica,sans-Serif" font-size="10.00" fill="grey">priv</text>
</g>
<!-- Node4 -->
<g id="Node000004" class="node">
<title>Node4</title>
<g id="a_Node000004"><a xlink:href="struct__MateMixerDevice.html" target="_top" xlink:title=" ">
<polygon fill="white" stroke="#666666" points="307,-235 200,-235 200,-216 307,-216 307,-235"/>
<text text-anchor="middle" x="253.5" y="-223" font-family="Helvetica,sans-Serif" font-size="10.00">_MateMixerDevice</text>
</a>
</g>
</g>
<!-- Node4&#45;&gt;Node3 -->
<g id="edge3_Node000003_Node000004" class="edge">
<title>Node4&#45;&gt;Node3</title>
<g id="a_edge3_Node000003_Node000004"><a xlink:title=" ">
<path fill="none" stroke="#9a32cd" stroke-dasharray="5,2" d="M271.39,-209.43C285.49,-197.66 303.43,-182.98 307.5,-181 324.4,-172.77 343.97,-167.03 362.07,-163.05"/>
<polygon fill="#9a32cd" stroke="#9a32cd" points="269.08,-206.8 263.66,-215.9 273.58,-212.16 269.08,-206.8"/>
</a>
</g>
<text text-anchor="start" x="311" y="-186.5" font-family="Helvetica,sans-Serif" font-size="10.00" fill="grey">device</text>
</g>
<!-- Node13 -->
<g id="Node000013" class="node">
<title>Node13</title>
<g id="a_Node000013"><a xlink:title=" ">
<polygon fill="white" stroke="#666666" points="331.5,-163 157.5,-163 157.5,-144 331.5,-144 331.5,-163"/>
<text text-anchor="middle" x="244.5" y="-151" font-family="Helvetica,sans-Serif" font-size="10.00">_MateMixerDeviceSwitchPrivate</text>
</a>
</g>
</g>
<!-- Node4&#45;&gt;Node13 -->
<g id="edge14_Node000013_Node000004" class="edge">
<title>Node4&#45;&gt;Node13</title>
<g id="a_edge14_Node000013_Node000004"><a xlink:title=" ">
<path fill="none" stroke="#9a32cd" stroke-dasharray="5,2" d="M247.26,-206.12C246.54,-203.42 245.92,-200.66 245.5,-198 243.6,-186.06 243.68,-172.06 244.01,-163.23"/>
<polygon fill="#9a32cd" stroke="#9a32cd" points="243.95,-207.27 250.23,-215.81 250.64,-205.22 243.95,-207.27"/>
</a>
</g>
<text text-anchor="start" x="249" y="-186.5" font-family="Helvetica,sans-Serif" font-size="10.00" fill="grey">device</text>
</g>
<!-- Node5 -->
<g id="Node000005" class="node">
<title>Node5</title>
<g id="a_Node000005"><a xlink:title=" ">
<polygon fill="white" stroke="#666666" points="324.5,-307 182.5,-307 182.5,-288 324.5,-288 324.5,-307"/>
<text text-anchor="middle" x="253.5" y="-295" font-family="Helvetica,sans-Serif" font-size="10.00">_MateMixerDevicePrivate</text>
</a>
</g>
</g>
<!-- Node5&#45;&gt;Node4 -->
<g id="edge4_Node000004_Node000005" class="edge">
<title>Node5&#45;&gt;Node4</title>
<g id="a_edge4_Node000004_Node000005"><a xlink:title=" ">
<path fill="none" stroke="#9a32cd" stroke-dasharray="5,2" d="M253.5,-277.58C253.5,-263.76 253.5,-245.68 253.5,-235.15"/>
<polygon fill="#9a32cd" stroke="#9a32cd" points="250,-277.92 253.5,-287.92 257,-277.92 250,-277.92"/>
</a>
</g>
<text text-anchor="start" x="257" y="-258.5" font-family="Helvetica,sans-Serif" font-size="10.00" fill="grey">priv</text>
</g>
<!-- Node6 -->
<g id="Node000006" class="node">
<title>Node6</title>
<g id="a_Node000006"><a xlink:href="struct__MateMixerStreamControl.html" target="_top" xlink:title=" ">
<polygon fill="white" stroke="#666666" points="537.5,-235 393.5,-235 393.5,-216 537.5,-216 537.5,-235"/>
<text text-anchor="middle" x="465.5" y="-223" font-family="Helvetica,sans-Serif" font-size="10.00">_MateMixerStreamControl</text>
</a>
</g>
</g>
<!-- Node6&#45;&gt;Node3 -->
<g id="edge5_Node000003_Node000006" class="edge">
<title>Node6&#45;&gt;Node3</title>
<g id="a_edge5_Node000003_Node000006"><a xlink:title=" ">
<path fill="none" stroke="#9a32cd" stroke-dasharray="5,2" d="M454.63,-207.21C445.84,-193.22 433.82,-174.1 426.94,-163.15"/>
<polygon fill="#9a32cd" stroke="#9a32cd" points="451.82,-209.31 460.1,-215.92 457.75,-205.59 451.82,-209.31"/>
</a>
</g>
<text text-anchor="start" x="451.5" y="-186.5" font-family="Helvetica,sans-Serif" font-size="10.00" fill="grey">control</text>
</g>
<!-- Node7&#45;&gt;Node6 -->
<g id="edge6_Node000006_Node000007" class="edge">
<title>Node7&#45;&gt;Node6</title>
<g id="a_edge6_Node000006_Node000007"><a xlink:title=" ">
<path fill="none" stroke="#9a32cd" stroke-dasharray="5,2" d="M475.06,-277.99C472.49,-264.13 469.08,-245.79 467.11,-235.15"/>
<polygon fill="#9a32cd" stroke="#9a32cd" points="471.64,-278.72 476.91,-287.92 478.52,-277.45 471.64,-278.72"/>
</a>
</g>
<text text-anchor="start" x="477" y="-258.5" font-family="Helvetica,sans-Serif" font-size="10.00" fill="grey">priv</text>
</g>
<!-- Node8 -->
<g id="Node000008" class="node">
<title>Node8</title>
<g id="a_Node000008"><a xlink:href="struct__MateMixerDeviceSwitch.html" target="_top" xlink:title=" ">
<polygon fill="white" stroke="#666666" points="314.5,-91 174.5,-91 174.5,-72 314.5,-72 314.5,-91"/>
<text text-anchor="middle" x="244.5" y="-79" font-family="Helvetica,sans-Serif" font-size="10.00">_MateMixerDeviceSwitch</text>
</a>
</g>
</g>
<!-- Node8&#45;&gt;Node1 -->
<g id="edge8_Node000001_Node000008" class="edge">
<title>Node8&#45;&gt;Node1</title>
<g id="a_edge8_Node000001_Node000008"><a xlink:title=" ">
<path fill="none" stroke="#9a32cd" stroke-dasharray="5,2" d="M275.47,-68.18C310.94,-54.08 368.11,-31.34 399.02,-19.04"/>
<polygon fill="#9a32cd" stroke="#9a32cd" points="274.08,-64.97 266.08,-71.92 276.67,-71.47 274.08,-64.97"/>
</a>
</g>
<text text-anchor="start" x="356" y="-42.5" font-family="Helvetica,sans-Serif" font-size="10.00" fill="grey">get_switch</text>
</g>
<!-- Node9 -->
<g id="Node000009" class="node">
<title>Node9</title>
<g id="a_Node000009"><a xlink:href="struct__MateMixerSwitch.html" target="_top" xlink:title=" ">
<polygon fill="white" stroke="#666666" points="139.5,-163 33.5,-163 33.5,-144 139.5,-144 139.5,-163"/>
<text text-anchor="middle" x="86.5" y="-151" font-family="Helvetica,sans-Serif" font-size="10.00">_MateMixerSwitch</text>
</a>
</g>
</g>
<!-- Node9&#45;&gt;Node8 -->
<g id="edge9_Node000008_Node000009" class="edge">
<title>Node9&#45;&gt;Node8</title>
<g id="a_edge9_Node000008_Node000009"><a xlink:title=" ">
<path fill="none" stroke="#9a32cd" stroke-dasharray="5,2" d="M115.1,-139.83C146.89,-125.74 197.4,-103.37 224.97,-91.15"/>
<polygon fill="#9a32cd" stroke="#9a32cd" points="113.6,-136.67 105.87,-143.92 116.43,-143.07 113.6,-136.67"/>
</a>
</g>
<text text-anchor="start" x="188" y="-114.5" font-family="Helvetica,sans-Serif" font-size="10.00" fill="grey">object</text>
</g>
<!-- Node10 -->
<g id="Node000010" class="node">
<title>Node10</title>
<g id="a_Node000010"><a xlink:title=" ">
<polygon fill="white" stroke="#666666" points="156.5,-235 16.5,-235 16.5,-216 156.5,-216 156.5,-235"/>
<text text-anchor="middle" x="86.5" y="-223" font-family="Helvetica,sans-Serif" font-size="10.00">_MateMixerSwitchPrivate</text>
</a>
</g>
</g>
<!-- Node10&#45;&gt;Node9 -->
<g id="edge10_Node000009_Node000010" class="edge">
<title>Node10&#45;&gt;Node9</title>
<g id="a_edge10_Node000009_Node000010"><a xlink:title=" ">
<path fill="none" stroke="#9a32cd" stroke-dasharray="5,2" d="M86.5,-205.58C86.5,-191.76 86.5,-173.68 86.5,-163.15"/>
<polygon fill="#9a32cd" stroke="#9a32cd" points="83,-205.92 86.5,-215.92 90,-205.92 83,-205.92"/>
</a>
</g>
<text text-anchor="start" x="90" y="-186.5" font-family="Helvetica,sans-Serif" font-size="10.00" fill="grey">priv</text>
</g>
<!-- Node11 -->
<g id="Node000011" class="node">
<title>Node11</title>
<g id="a_Node000011"><a xlink:href="struct__MateMixerSwitchOption.html" target="_top" xlink:title=" ">
<polygon fill="white" stroke="#666666" points="155.5,-307 17.5,-307 17.5,-288 155.5,-288 155.5,-307"/>
<text text-anchor="middle" x="86.5" y="-295" font-family="Helvetica,sans-Serif" font-size="10.00">_MateMixerSwitchOption</text>
</a>
</g>
</g>
<!-- Node11&#45;&gt;Node10 -->
<g id="edge11_Node000010_Node000011" class="edge">
<title>Node11&#45;&gt;Node10</title>
<g id="a_edge11_Node000010_Node000011"><a xlink:title=" ">
<path fill="none" stroke="#9a32cd" stroke-dasharray="5,2" d="M86.5,-277.58C86.5,-263.76 86.5,-245.68 86.5,-235.15"/>
<polygon fill="#9a32cd" stroke="#9a32cd" points="83,-277.92 86.5,-287.92 90,-277.92 83,-277.92"/>
</a>
</g>
<text text-anchor="start" x="90" y="-258.5" font-family="Helvetica,sans-Serif" font-size="10.00" fill="grey">active</text>
</g>
<!-- Node12 -->
<g id="Node000012" class="node">
<title>Node12</title>
<g id="a_Node000012"><a xlink:title=" ">
<polygon fill="white" stroke="#666666" points="173,-379 0,-379 0,-360 173,-360 173,-379"/>
<text text-anchor="middle" x="86.5" y="-367" font-family="Helvetica,sans-Serif" font-size="10.00">_MateMixerSwitchOptionPrivate</text>
</a>
</g>
</g>
<!-- Node12&#45;&gt;Node11 -->
<g id="edge12_Node000011_Node000012" class="edge">
<title>Node12&#45;&gt;Node11</title>
<g id="a_edge12_Node000011_Node000012"><a xlink:title=" ">
<path fill="none" stroke="#9a32cd" stroke-dasharray="5,2" d="M86.5,-349.58C86.5,-335.76 86.5,-317.68 86.5,-307.15"/>
<polygon fill="#9a32cd" stroke="#9a32cd" points="83,-349.92 86.5,-359.92 90,-349.92 83,-349.92"/>
</a>
</g>
<text text-anchor="start" x="90" y="-330.5" font-family="Helvetica,sans-Serif" font-size="10.00" fill="grey">priv</text>
</g>
<!-- Node13&#45;&gt;Node8 -->
<g id="edge13_Node000008_Node000013" class="edge">
<title>Node13&#45;&gt;Node8</title>
<g id="a_edge13_Node000008_Node000013"><a xlink:title=" ">
<path fill="none" stroke="#9a32cd" stroke-dasharray="5,2" d="M244.5,-133.58C244.5,-119.76 244.5,-101.68 244.5,-91.15"/>
<polygon fill="#9a32cd" stroke="#9a32cd" points="241,-133.92 244.5,-143.92 248,-133.92 241,-133.92"/>
</a>
</g>
<text text-anchor="start" x="248" y="-114.5" font-family="Helvetica,sans-Serif" font-size="10.00" fill="grey">priv</text>
</g>
</g>
</svg>

<g id="navigator" transform="translate(0 0)" fill="#404254">
  <rect fill="#f2f5e9" fill-opacity="0.5" stroke="#606060" stroke-width=".5" x="0" y="0" width="60" height="60"/>
  <use id="zoomplus" xlink:href="#zoomPlus" x="17" y="9" onmousedown="handleZoom(evt,'in')"/>
  <use id="zoomminus" xlink:href="#zoomMin" x="42" y="9" onmousedown="handleZoom(evt,'out')"/>
  <use id="reset" xlink:href="#resetDef" x="30" y="36" onmousedown="handleReset()"/>
   <use id="arrowup" xlink:href="#arrowUp" x="0" y="0" onmousedown="handlePan(0,-1)"/>
  <use id="arrowright" xlink:href="#arrowRight" x="0" y="0" onmousedown="handlePan(1,0)"/>
  <use id="arrowdown" xlink:href="#arrowDown" x="0" y="0" onmousedown="handlePan(0,1)"/>
  <use id="arrowleft" xlink:href="#arrowLeft" x="0" y="0" onmousedown="handlePan(-1,0)"/>
</g>
<svg viewBox="0 0 15 15" width="100%" height="30px" preserveAspectRatio="xMaxYMin meet">
 <g id="arrow_out" transform="scale(0.3 0.3)">
  <a xlink:href="struct__MateMixerDeviceClass__coll__graph_org.svg" target="_base">
   <rect id="button" ry="5" rx="5" y="6" x="6" height="38" width="38"
        fill="#f2f5e9" fill-opacity="0.5" stroke="#606060" stroke-width="1.0"/>
   <path id="arrow"
     d="M 11.500037,31.436501 C 11.940474,20.09759 22.043105,11.32322 32.158766,21.979434 L 37.068811,17.246167 C 37.068811,17.246167 37.088388,32 37.088388,32 L 22.160133,31.978069 C 22.160133,31.978069 26.997745,27.140456 26.997745,27.140456 C 18.528582,18.264221 13.291696,25.230495 11.500037,31.436501 z"
     style="fill:#404040;"/>
  </a>
 </g>
</svg>

<style type='text/css'>
<![CDATA[
[data-mouse-over-selected='false'] { opacity: 0.7; }
[data-mouse-over-selected='true']  { opacity: 1.0; }
]]>
</style>
<script type="application/ecmascript"><![CDATA[
document.addEventListener('DOMContentLoaded', (event) => {
  highlightEdges();
  highlightAdjacentNodes();
});
]]></script>
</svg>
