<?xml version="1.0" encoding="UTF-8" standalone="no"?>
<!DOCTYPE svg PUBLIC "-//W3C//DTD SVG 1.1//EN"
 "http://www.w3.org/Graphics/SVG/1.1/DTD/svg11.dtd">
<!-- Generated by graphviz version 2.43.0 (0)
 -->
<!-- Title: CommandData Pages: 1 -->
<!--zoomable 633 -->

<svg id="main" version="1.1" xmlns="http://www.w3.org/2000/svg" xmlns:xlink="http://www.w3.org/1999/xlink" xml:space="preserve" onload="init(evt)">

<style type="text/css"><![CDATA[
.node, .edge {opacity: 0.7;}
.node.selected, .edge.selected {opacity: 1;}
.edge:hover path { stroke: red; }
.edge:hover polygon { stroke: red; fill: red; }
]]></style>

<defs>
  <circle id="rim" cx="0" cy="0" r="7"/>
  <circle id="rim2" cx="0" cy="0" r="3.5"/>
  <g id="zoomPlus">
    <use xlink:href="#rim" fill="#404040"><set attributeName="fill" to="#808080" begin="zoomplus.mouseover" end="zoomplus.mouseout"/></use>
    <path d="M-4,0h8M0,-4v8" fill="none" stroke="white" stroke-width="1.5" pointer-events="none"/>
  </g>
  <g id="zoomMin">
    <use xlink:href="#rim" fill="#404040"><set attributeName="fill" to="#808080" begin="zoomminus.mouseover" end="zoomminus.mouseout"/></use>
    <path d="M-4,0h8" fill="none" stroke="white" stroke-width="1.5" pointer-events="none"/>
  </g>
  <g id="arrowUp" transform="translate(30 24)">
    <use xlink:href="#rim"/>
    <path pointer-events="none" fill="none" stroke="white" stroke-width="1.5" d="M0,-3.0v7 M-2.5,-0.5L0,-3.0L2.5,-0.5"/>
  </g>
  <g id="arrowRight" transform="rotate(90) translate(36 -43)">
    <use xlink:href="#rim"/>
    <path pointer-events="none" fill="none" stroke="white" stroke-width="1.5" d="M0,-3.0v7 M-2.5,-0.5L0,-3.0L2.5,-0.5"/>
  </g>
  <g id="arrowDown" transform="rotate(180) translate(-30 -48)">
    <use xlink:href="#rim"/>
    <path pointer-events="none" fill="none" stroke="white" stroke-width="1.5" d="M0,-3.0v7 M-2.5,-0.5L0,-3.0L2.5,-0.5"/>
  </g>
  <g id="arrowLeft" transform="rotate(270) translate(-36 17)">
    <use xlink:href="#rim"/>
    <path pointer-events="none" fill="none" stroke="white" stroke-width="1.5" d="M0,-3.0v7 M-2.5,-0.5L0,-3.0L2.5,-0.5"/>
  </g>
  <g id="resetDef">
    <use xlink:href="#rim2" fill="#404040"><set attributeName="fill" to="#808080" begin="reset.mouseover" end="reset.mouseout"/></use>
  </g>
</defs>
<script type="application/ecmascript">
var viewWidth = 900;
var viewHeight = 633;
var sectionId = 'dynsection-0';
</script>
<script type="application/ecmascript" xlink:href="svg.min.js"/>
<svg id="graph" class="graph">
<g id="viewport">
<title>CommandData</title>
<!-- Node1 -->
<g id="Node000001" class="node">
<title>Node1</title>
<g id="a_Node000001"><a xlink:title=" ">
<polygon fill="#999999" stroke="#666666" points="90,-19 0,-19 0,0 90,0 90,-19"/>
<text text-anchor="middle" x="45" y="-7" font-family="Helvetica,sans-Serif" font-size="10.00">CommandData</text>
</a>
</g>
</g>
<!-- Node2 -->
<g id="Node000002" class="node">
<title>Node2</title>
<g id="a_Node000002"><a xlink:href="struct__FrWindow.html" target="_top" xlink:title=" ">
<polygon fill="white" stroke="#666666" points="136,-91 66,-91 66,-72 136,-72 136,-91"/>
<text text-anchor="middle" x="101" y="-79" font-family="Helvetica,sans-Serif" font-size="10.00">_FrWindow</text>
</a>
</g>
</g>
<!-- Node2&#45;&gt;Node1 -->
<g id="edge1_Node000001_Node000002" class="edge">
<title>Node2&#45;&gt;Node1</title>
<g id="a_edge1_Node000001_Node000002"><a xlink:title=" ">
<path fill="none" stroke="#9a32cd" stroke-dasharray="5,2" d="M87.81,-64.01C76.57,-49.96 60.85,-30.32 51.92,-19.15"/>
<polygon fill="#9a32cd" stroke="#9a32cd" points="85.15,-66.29 94.13,-71.92 90.62,-61.92 85.15,-66.29"/>
</a>
</g>
<text text-anchor="start" x="83" y="-42.5" font-family="Helvetica,sans-Serif" font-size="10.00" fill="grey">window</text>
</g>
<!-- Node3 -->
<g id="Node000003" class="node">
<title>Node3</title>
<g id="a_Node000003"><a xlink:href="struct__FrArchive.html" target="_top" xlink:title=" ">
<polygon fill="white" stroke="#666666" points="309,-322 241,-322 241,-303 309,-303 309,-322"/>
<text text-anchor="middle" x="275" y="-310" font-family="Helvetica,sans-Serif" font-size="10.00">_FrArchive</text>
</a>
</g>
</g>
<!-- Node3&#45;&gt;Node2 -->
<g id="edge2_Node000002_Node000003" class="edge">
<title>Node3&#45;&gt;Node2</title>
<g id="a_edge2_Node000002_Node000003"><a xlink:title=" ">
<path fill="none" stroke="#9a32cd" stroke-dasharray="5,2" d="M230.59,-306.66C194.54,-300.19 145.65,-285.11 120,-250 83.4,-199.9 94.39,-117.91 99.25,-91.2"/>
<polygon fill="#9a32cd" stroke="#9a32cd" points="230.42,-310.18 240.85,-308.33 231.54,-303.27 230.42,-310.18"/>
</a>
</g>
<text text-anchor="start" x="106.5" y="-194" font-family="Helvetica,sans-Serif" font-size="10.00" fill="grey">archive</text>
</g>
<!-- Node9 -->
<g id="Node000009" class="node">
<title>Node9</title>
<g id="a_Node000009"><a xlink:title=" ">
<polygon fill="white" stroke="#666666" points="343,-163 233,-163 233,-144 343,-144 343,-163"/>
<text text-anchor="middle" x="288" y="-151" font-family="Helvetica,sans-Serif" font-size="10.00">_FrArchivePrivData</text>
</a>
</g>
</g>
<!-- Node3&#45;&gt;Node9 -->
<g id="edge12_Node000009_Node000003" class="edge">
<title>Node3&#45;&gt;Node9</title>
<g id="a_edge12_Node000009_Node000003"><a xlink:title=" ">
<path fill="none" stroke="#9a32cd" stroke-dasharray="5,2" d="M274.09,-292.16C273.54,-275.83 273.24,-251.84 275,-231 277.08,-206.3 282.89,-177.59 285.99,-163.39"/>
<polygon fill="#9a32cd" stroke="#9a32cd" points="270.61,-292.69 274.51,-302.55 277.6,-292.41 270.61,-292.69"/>
</a>
</g>
<text text-anchor="start" x="278" y="-237.5" font-family="Helvetica,sans-Serif" font-size="10.00" fill="grey">fake_load_func</text>
</g>
<!-- Node10 -->
<g id="Node000010" class="node">
<title>Node10</title>
<g id="a_Node000010"><a xlink:title=" ">
<polygon fill="white" stroke="#666666" points="238.5,-250 129.5,-250 129.5,-231 238.5,-231 238.5,-250"/>
<text text-anchor="middle" x="184" y="-238" font-family="Helvetica,sans-Serif" font-size="10.00">DroppedItemsData</text>
</a>
</g>
</g>
<!-- Node3&#45;&gt;Node10 -->
<g id="edge14_Node000010_Node000003" class="edge">
<title>Node3&#45;&gt;Node10</title>
<g id="a_edge14_Node000010_Node000003"><a xlink:title=" ">
<path fill="none" stroke="#9a32cd" stroke-dasharray="5,2" d="M241.06,-298.92C233.07,-295.11 224.88,-290.46 218,-285 205.54,-275.1 194.94,-259.75 189.03,-250.18"/>
<polygon fill="#9a32cd" stroke="#9a32cd" points="239.71,-302.14 250.27,-302.99 242.54,-295.74 239.71,-302.14"/>
</a>
</g>
<text text-anchor="start" x="221.5" y="-273.5" font-family="Helvetica,sans-Serif" font-size="10.00" fill="grey">archive</text>
</g>
<!-- Node11 -->
<g id="Node000011" class="node">
<title>Node11</title>
<g id="a_Node000011"><a xlink:title=" ">
<polygon fill="white" stroke="#666666" points="652,-163 524,-163 524,-144 652,-144 652,-163"/>
<text text-anchor="middle" x="588" y="-151" font-family="Helvetica,sans-Serif" font-size="10.00">_FrWindowPrivateData</text>
</a>
</g>
</g>
<!-- Node3&#45;&gt;Node11 -->
<g id="edge20_Node000011_Node000003" class="edge">
<title>Node3&#45;&gt;Node11</title>
<g id="a_edge20_Node000011_Node000003"><a xlink:title=" ">
<path fill="none" stroke="#9a32cd" stroke-dasharray="5,2" d="M319.25,-308.69C405.5,-302.48 592.28,-285.27 645,-250 671.87,-232.02 686.93,-207.21 668,-181 662.09,-172.82 653.55,-167.12 644.24,-163.16"/>
<polygon fill="#9a32cd" stroke="#9a32cd" points="318.98,-305.2 309.25,-309.39 319.47,-312.18 318.98,-305.2"/>
</a>
</g>
<text text-anchor="start" x="668" y="-237.5" font-family="Helvetica,sans-Serif" font-size="10.00" fill="grey">copy_from_archive</text>
</g>
<!-- Node13 -->
<g id="Node000013" class="node">
<title>Node13</title>
<g id="a_Node000013"><a xlink:title=" ">
<polygon fill="white" stroke="#666666" points="891.5,-250 800.5,-250 800.5,-231 891.5,-231 891.5,-250"/>
<text text-anchor="middle" x="846" y="-238" font-family="Helvetica,sans-Serif" font-size="10.00">FRConvertData</text>
</a>
</g>
</g>
<!-- Node3&#45;&gt;Node13 -->
<g id="edge18_Node000013_Node000003" class="edge">
<title>Node3&#45;&gt;Node13</title>
<g id="a_edge18_Node000013_Node000003"><a xlink:title=" ">
<path fill="none" stroke="#9a32cd" stroke-dasharray="5,2" d="M319.44,-311.89C396.63,-311.86 560.25,-308.66 696,-285 741.68,-277.04 793.26,-260.3 822.48,-250.07"/>
<polygon fill="#9a32cd" stroke="#9a32cd" points="319.13,-308.39 309.13,-311.87 319.12,-315.39 319.13,-308.39"/>
</a>
</g>
<text text-anchor="start" x="769" y="-273.5" font-family="Helvetica,sans-Serif" font-size="10.00" fill="grey">new_archive</text>
</g>
<!-- Node4 -->
<g id="Node000004" class="node">
<title>Node4</title>
<g id="a_Node000004"><a xlink:href="struct__FrCommand.html" target="_top" xlink:title=" ">
<polygon fill="white" stroke="#666666" points="202.5,-394 121.5,-394 121.5,-375 202.5,-375 202.5,-394"/>
<text text-anchor="middle" x="162" y="-382" font-family="Helvetica,sans-Serif" font-size="10.00">_FrCommand</text>
</a>
</g>
</g>
<!-- Node4&#45;&gt;Node3 -->
<g id="edge3_Node000003_Node000004" class="edge">
<title>Node4&#45;&gt;Node3</title>
<g id="a_edge3_Node000003_Node000004"><a xlink:title=" ">
<path fill="none" stroke="#9a32cd" stroke-dasharray="5,2" d="M161.09,-364.71C161.67,-356.18 163.87,-346.55 170,-340 187.99,-320.79 217.71,-314.67 240.94,-313.06"/>
<polygon fill="#9a32cd" stroke="#9a32cd" points="157.58,-364.94 161.06,-374.95 164.58,-364.96 157.58,-364.94"/>
</a>
</g>
<text text-anchor="start" x="173.5" y="-345.5" font-family="Helvetica,sans-Serif" font-size="10.00" fill="grey">command</text>
</g>
<!-- Node5 -->
<g id="Node000005" class="node">
<title>Node5</title>
<g id="a_Node000005"><a xlink:href="struct__FrProcess.html" target="_top" xlink:title=" ">
<polygon fill="white" stroke="#666666" points="199,-466 131,-466 131,-447 199,-447 199,-466"/>
<text text-anchor="middle" x="165" y="-454" font-family="Helvetica,sans-Serif" font-size="10.00">_FrProcess</text>
</a>
</g>
</g>
<!-- Node5&#45;&gt;Node1 -->
<g id="edge21_Node000001_Node000005" class="edge">
<title>Node5&#45;&gt;Node1</title>
<g id="a_edge21_Node000001_Node000005"><a xlink:title=" ">
<path fill="none" stroke="#9a32cd" stroke-dasharray="5,2" d="M120.64,-451.05C80.95,-444.34 29,-427.52 29,-385.5 29,-385.5 29,-385.5 29,-80.5 29,-58.06 36.91,-32.57 41.61,-19.41"/>
<polygon fill="#9a32cd" stroke="#9a32cd" points="120.27,-454.54 130.68,-452.59 121.33,-447.62 120.27,-454.54"/>
</a>
</g>
<text text-anchor="start" x="32" y="-237.5" font-family="Helvetica,sans-Serif" font-size="10.00" fill="grey">process</text>
</g>
<!-- Node5&#45;&gt;Node3 -->
<g id="edge9_Node000003_Node000005" class="edge">
<title>Node5&#45;&gt;Node3</title>
<g id="a_edge9_Node000003_Node000005"><a xlink:title=" ">
<path fill="none" stroke="#9a32cd" stroke-dasharray="5,2" d="M193.82,-442.11C199.94,-438.43 206.05,-434.03 211,-429 243.63,-395.82 264.75,-342.64 272.1,-322.04"/>
<polygon fill="#9a32cd" stroke="#9a32cd" points="192.02,-439.1 184.96,-447 195.4,-445.23 192.02,-439.1"/>
</a>
</g>
<text text-anchor="start" x="251" y="-381.5" font-family="Helvetica,sans-Serif" font-size="10.00" fill="grey">process</text>
</g>
<!-- Node5&#45;&gt;Node4 -->
<g id="edge4_Node000004_Node000005" class="edge">
<title>Node5&#45;&gt;Node4</title>
<g id="a_edge4_Node000004_Node000005"><a xlink:title=" ">
<path fill="none" stroke="#9a32cd" stroke-dasharray="5,2" d="M164.19,-436.58C163.6,-422.76 162.82,-404.68 162.37,-394.15"/>
<polygon fill="#9a32cd" stroke="#9a32cd" points="160.71,-437.08 164.63,-446.92 167.7,-436.78 160.71,-437.08"/>
</a>
</g>
<text text-anchor="start" x="166" y="-417.5" font-family="Helvetica,sans-Serif" font-size="10.00" fill="grey">process</text>
</g>
<!-- Node6 -->
<g id="Node000006" class="node">
<title>Node6</title>
<g id="a_Node000006"><a xlink:href="structFrChannelData.html" target="_top" xlink:title=" ">
<polygon fill="white" stroke="#666666" points="211.5,-553 122.5,-553 122.5,-534 211.5,-534 211.5,-553"/>
<text text-anchor="middle" x="167" y="-541" font-family="Helvetica,sans-Serif" font-size="10.00">FrChannelData</text>
</a>
</g>
</g>
<!-- Node6&#45;&gt;Node5 -->
<g id="edge5_Node000005_Node000006" class="edge">
<title>Node6&#45;&gt;Node5</title>
<g id="a_edge5_Node000005_Node000006"><a xlink:title=" ">
<path fill="none" stroke="#9a32cd" stroke-dasharray="5,2" d="M166.56,-523.62C166.14,-505.79 165.53,-479.83 165.21,-466.36"/>
<polygon fill="#9a32cd" stroke="#9a32cd" points="163.06,-523.81 166.79,-533.72 170.06,-523.64 163.06,-523.81"/>
</a>
</g>
<text text-anchor="start" x="169" y="-505" font-family="Helvetica,sans-Serif" font-size="10.00" fill="grey">err</text>
<text text-anchor="start" x="169" y="-490" font-family="Helvetica,sans-Serif" font-size="10.00" fill="grey">out</text>
</g>
<!-- Node7 -->
<g id="Node000007" class="node">
<title>Node7</title>
<g id="a_Node000007"><a xlink:href="structFrProcError.html" target="_top" xlink:title=" ">
<polygon fill="white" stroke="#666666" points="283,-625 213,-625 213,-606 283,-606 283,-625"/>
<text text-anchor="middle" x="248" y="-613" font-family="Helvetica,sans-Serif" font-size="10.00">FrProcError</text>
</a>
</g>
</g>
<!-- Node7&#45;&gt;Node3 -->
<g id="edge10_Node000003_Node000007" class="edge">
<title>Node7&#45;&gt;Node3</title>
<g id="a_edge10_Node000003_Node000007"><a xlink:title=" ">
<path fill="none" stroke="#9a32cd" stroke-dasharray="5,2" d="M272.73,-600.17C290.38,-587.91 311,-568.45 311,-544.5 311,-544.5 311,-544.5 311,-383.5 311,-359.17 293.6,-334.83 282.99,-322.26"/>
<polygon fill="#9a32cd" stroke="#9a32cd" points="270.37,-597.53 263.9,-605.92 274.19,-603.4 270.37,-597.53"/>
</a>
</g>
<text text-anchor="start" x="314" y="-453.5" font-family="Helvetica,sans-Serif" font-size="10.00" fill="grey">error</text>
</g>
<!-- Node7&#45;&gt;Node5 -->
<g id="edge6_Node000005_Node000007" class="edge">
<title>Node7&#45;&gt;Node5</title>
<g id="a_edge6_Node000005_Node000007"><a xlink:title=" ">
<path fill="none" stroke="#9a32cd" stroke-dasharray="5,2" d="M243.24,-595.81C235.73,-568.98 219.12,-518.93 192,-484 186.92,-477.46 180.3,-470.94 174.89,-466"/>
<polygon fill="#9a32cd" stroke="#9a32cd" points="239.94,-597.02 245.91,-605.78 246.7,-595.21 239.94,-597.02"/>
</a>
</g>
<text text-anchor="start" x="231" y="-540.5" font-family="Helvetica,sans-Serif" font-size="10.00" fill="grey">error</text>
</g>
<!-- Node8 -->
<g id="Node000008" class="node">
<title>Node8</title>
<g id="a_Node000008"><a xlink:title=" ">
<polygon fill="white" stroke="#666666" points="104.5,-553 1.5,-553 1.5,-534 104.5,-534 104.5,-553"/>
<text text-anchor="middle" x="53" y="-541" font-family="Helvetica,sans-Serif" font-size="10.00">_FrProcessPrivate</text>
</a>
</g>
</g>
<!-- Node7&#45;&gt;Node8 -->
<g id="edge8_Node000008_Node000007" class="edge">
<title>Node7&#45;&gt;Node8</title>
<g id="a_edge8_Node000008_Node000007"><a xlink:title=" ">
<path fill="none" stroke="#9a32cd" stroke-dasharray="5,2" d="M214.44,-602.45C175.21,-588.37 111.26,-565.41 76.8,-553.04"/>
<polygon fill="#9a32cd" stroke="#9a32cd" points="213.49,-605.83 224.09,-605.92 215.86,-599.24 213.49,-605.83"/>
</a>
</g>
<text text-anchor="start" x="176" y="-576.5" font-family="Helvetica,sans-Serif" font-size="10.00" fill="grey">first_error</text>
</g>
<!-- Node8&#45;&gt;Node5 -->
<g id="edge7_Node000005_Node000008" class="edge">
<title>Node8&#45;&gt;Node5</title>
<g id="a_edge7_Node000005_Node000008"><a xlink:title=" ">
<path fill="none" stroke="#9a32cd" stroke-dasharray="5,2" d="M72.77,-527.5C96.27,-509.66 134.69,-480.5 153.67,-466.1"/>
<polygon fill="#9a32cd" stroke="#9a32cd" points="70.41,-524.89 64.56,-533.72 74.65,-530.47 70.41,-524.89"/>
</a>
</g>
<text text-anchor="start" x="132.5" y="-497" font-family="Helvetica,sans-Serif" font-size="10.00" fill="grey">priv</text>
</g>
<!-- Node9&#45;&gt;Node3 -->
<g id="edge11_Node000003_Node000009" class="edge">
<title>Node9&#45;&gt;Node3</title>
<g id="a_edge11_Node000003_Node000009"><a xlink:title=" ">
<path fill="none" stroke="#9a32cd" stroke-dasharray="5,2" d="M311.29,-168.49C337.67,-186.24 375.04,-218.38 359,-250 345.92,-275.79 316.38,-293.37 296.06,-302.92"/>
<polygon fill="#9a32cd" stroke="#9a32cd" points="313.16,-165.52 302.86,-163.04 309.36,-171.4 313.16,-165.52"/>
</a>
</g>
<text text-anchor="start" x="365.5" y="-237.5" font-family="Helvetica,sans-Serif" font-size="10.00" fill="grey">priv</text>
</g>
<!-- Node10&#45;&gt;Node9 -->
<g id="edge13_Node000009_Node000010" class="edge">
<title>Node10&#45;&gt;Node9</title>
<g id="a_edge13_Node000009_Node000010"><a xlink:title=" ">
<path fill="none" stroke="#9a32cd" stroke-dasharray="5,2" d="M171.71,-221.92C164.57,-209.34 158.65,-192.64 168,-181 176.38,-170.56 205.39,-163.99 232.78,-160"/>
<polygon fill="#9a32cd" stroke="#9a32cd" points="168.88,-224 177.18,-230.59 174.8,-220.26 168.88,-224"/>
</a>
</g>
<text text-anchor="start" x="171" y="-194" font-family="Helvetica,sans-Serif" font-size="10.00" fill="grey">dropped_items_data</text>
</g>
<!-- Node11&#45;&gt;Node2 -->
<g id="edge15_Node000002_Node000011" class="edge">
<title>Node11&#45;&gt;Node2</title>
<g id="a_edge15_Node000002_Node000011"><a xlink:title=" ">
<path fill="none" stroke="#9a32cd" stroke-dasharray="5,2" d="M518.86,-142.56C413.39,-127.4 216.13,-99.05 136.09,-87.54"/>
<polygon fill="#9a32cd" stroke="#9a32cd" points="518.37,-146.03 528.77,-143.99 519.37,-139.1 518.37,-146.03"/>
</a>
</g>
<text text-anchor="start" x="405.5" y="-114.5" font-family="Helvetica,sans-Serif" font-size="10.00" fill="grey">priv</text>
</g>
<!-- Node12 -->
<g id="Node000012" class="node">
<title>Node12</title>
<g id="a_Node000012"><a xlink:title=" ">
<polygon fill="white" stroke="#666666" points="522,-250 434,-250 434,-231 522,-231 522,-250"/>
<text text-anchor="middle" x="478" y="-238" font-family="Helvetica,sans-Serif" font-size="10.00">FRBatchAction</text>
</a>
</g>
</g>
<!-- Node12&#45;&gt;Node11 -->
<g id="edge16_Node000011_Node000012" class="edge">
<title>Node12&#45;&gt;Node11</title>
<g id="a_edge16_Node000011_Node000012"><a xlink:title=" ">
<path fill="none" stroke="#9a32cd" stroke-dasharray="5,2" d="M471.21,-221.01C467.86,-208.42 466.21,-192.1 475,-181 481.63,-172.63 502.15,-166.65 523.91,-162.51"/>
<polygon fill="#9a32cd" stroke="#9a32cd" points="467.98,-222.42 474.36,-230.89 474.65,-220.3 467.98,-222.42"/>
</a>
</g>
<text text-anchor="start" x="478.5" y="-194" font-family="Helvetica,sans-Serif" font-size="10.00" fill="grey">current_batch_action</text>
</g>
<!-- Node13&#45;&gt;Node11 -->
<g id="edge17_Node000011_Node000013" class="edge">
<title>Node13&#45;&gt;Node11</title>
<g id="a_edge17_Node000011_Node000013"><a xlink:title=" ">
<path fill="none" stroke="#9a32cd" stroke-dasharray="5,2" d="M816.99,-226.87C787.07,-214.16 738.86,-194.55 696,-181 673.82,-173.99 648.59,-167.7 628.1,-163.02"/>
<polygon fill="#9a32cd" stroke="#9a32cd" points="815.83,-230.18 826.4,-230.9 818.58,-223.75 815.83,-230.18"/>
</a>
</g>
<text text-anchor="start" x="785" y="-194" font-family="Helvetica,sans-Serif" font-size="10.00" fill="grey">convert_data</text>
</g>
<!-- Node14 -->
<g id="Node000014" class="node">
<title>Node14</title>
<g id="a_Node000014"><a xlink:title=" ">
<polygon fill="white" stroke="#666666" points="635.5,-250 540.5,-250 540.5,-231 635.5,-231 635.5,-250"/>
<text text-anchor="middle" x="588" y="-238" font-family="Helvetica,sans-Serif" font-size="10.00">FrClipboardData</text>
</a>
</g>
</g>
<!-- Node14&#45;&gt;Node11 -->
<g id="edge19_Node000011_Node000014" class="edge">
<title>Node14&#45;&gt;Node11</title>
<g id="a_edge19_Node000011_Node000014"><a xlink:title=" ">
<path fill="none" stroke="#9a32cd" stroke-dasharray="5,2" d="M588,-220.62C588,-202.79 588,-176.83 588,-163.36"/>
<polygon fill="#9a32cd" stroke="#9a32cd" points="584.5,-220.72 588,-230.72 591.5,-220.72 584.5,-220.72"/>
</a>
</g>
<text text-anchor="start" x="591.5" y="-202" font-family="Helvetica,sans-Serif" font-size="10.00" fill="grey">clipboard_data</text>
<text text-anchor="start" x="591.5" y="-187" font-family="Helvetica,sans-Serif" font-size="10.00" fill="grey">copy_data</text>
</g>
</g>
</svg>

<g id="navigator" transform="translate(0 0)" fill="#404254">
  <rect fill="#f2f5e9" fill-opacity="0.5" stroke="#606060" stroke-width=".5" x="0" y="0" width="60" height="60"/>
  <use id="zoomplus" xlink:href="#zoomPlus" x="17" y="9" onmousedown="handleZoom(evt,'in')"/>
  <use id="zoomminus" xlink:href="#zoomMin" x="42" y="9" onmousedown="handleZoom(evt,'out')"/>
  <use id="reset" xlink:href="#resetDef" x="30" y="36" onmousedown="handleReset()"/>
   <use id="arrowup" xlink:href="#arrowUp" x="0" y="0" onmousedown="handlePan(0,-1)"/>
  <use id="arrowright" xlink:href="#arrowRight" x="0" y="0" onmousedown="handlePan(1,0)"/>
  <use id="arrowdown" xlink:href="#arrowDown" x="0" y="0" onmousedown="handlePan(0,1)"/>
  <use id="arrowleft" xlink:href="#arrowLeft" x="0" y="0" onmousedown="handlePan(-1,0)"/>
</g>
<svg viewBox="0 0 15 15" width="100%" height="30px" preserveAspectRatio="xMaxYMin meet">
 <g id="arrow_out" transform="scale(0.3 0.3)">
  <a xlink:href="structCommandData__coll__graph_org.svg" target="_base">
   <rect id="button" ry="5" rx="5" y="6" x="6" height="38" width="38"
        fill="#f2f5e9" fill-opacity="0.5" stroke="#606060" stroke-width="1.0"/>
   <path id="arrow"
     d="M 11.500037,31.436501 C 11.940474,20.09759 22.043105,11.32322 32.158766,21.979434 L 37.068811,17.246167 C 37.068811,17.246167 37.088388,32 37.088388,32 L 22.160133,31.978069 C 22.160133,31.978069 26.997745,27.140456 26.997745,27.140456 C 18.528582,18.264221 13.291696,25.230495 11.500037,31.436501 z"
     style="fill:#404040;"/>
  </a>
 </g>
</svg>

<style type='text/css'>
<![CDATA[
[data-mouse-over-selected='false'] { opacity: 0.7; }
[data-mouse-over-selected='true']  { opacity: 1.0; }
]]>
</style>
<script type="application/ecmascript"><![CDATA[
document.addEventListener('DOMContentLoaded', (event) => {
  highlightEdges();
  highlightAdjacentNodes();
});
]]></script>
</svg>
