<?xml version="1.0" encoding="UTF-8" standalone="no"?>
<!DOCTYPE svg PUBLIC "-//W3C//DTD SVG 1.1//EN"
 "http://www.w3.org/Graphics/SVG/1.1/DTD/svg11.dtd">
<!-- Generated by graphviz version 2.43.0 (0)
 -->
<!-- Title: _EvJobRender Pages: 1 -->
<svg width="248pt" height="387pt"
 viewBox="0.00 0.00 247.50 387.00" xmlns="http://www.w3.org/2000/svg" xmlns:xlink="http://www.w3.org/1999/xlink">

<svg id="main" version="1.1" xmlns="http://www.w3.org/2000/svg" xmlns:xlink="http://www.w3.org/1999/xlink" xml:space="preserve">

<style type="text/css"><![CDATA[
.node, .edge {opacity: 0.7;}
.node.selected, .edge.selected {opacity: 1;}
.edge:hover path { stroke: red; }
.edge:hover polygon { stroke: red; fill: red; }
]]></style>
<script type="application/ecmascript" xlink:href="svg.min.js"/>
<svg id="graph" class="graph">
<g id="graph0" class="graph" transform="scale(1 1) rotate(0) translate(4 383)">
<title>_EvJobRender</title>
<!-- Node1 -->
<g id="Node000001" class="node">
<title>Node1</title>
<g id="a_Node000001"><a xlink:title=" ">
<polygon fill="#999999" stroke="#666666" points="175,-19 92,-19 92,0 175,0 175,-19"/>
<text text-anchor="middle" x="133.5" y="-7" font-family="Helvetica,sans-Serif" font-size="10.00">_EvJobRender</text>
</a>
</g>
</g>
<!-- Node2 -->
<g id="Node000002" class="node">
<title>Node2</title>
<g id="a_Node000002"><a xlink:href="struct__EvJob.html" target="_top" xlink:title=" ">
<polygon fill="white" stroke="#666666" points="105,-91 56,-91 56,-72 105,-72 105,-91"/>
<text text-anchor="middle" x="80.5" y="-79" font-family="Helvetica,sans-Serif" font-size="10.00">_EvJob</text>
</a>
</g>
</g>
<!-- Node2&#45;&gt;Node1 -->
<g id="edge1_Node000001_Node000002" class="edge">
<title>Node2&#45;&gt;Node1</title>
<g id="a_edge1_Node000001_Node000002"><a xlink:title=" ">
<path fill="none" stroke="#9a32cd" stroke-dasharray="5,2" d="M88.05,-62.81C92.02,-54.55 97.34,-44.83 103.5,-37 108.74,-30.34 115.8,-24.01 121.76,-19.2"/>
<polygon fill="#9a32cd" stroke="#9a32cd" points="84.85,-61.4 83.92,-71.95 91.23,-64.28 84.85,-61.4"/>
</a>
</g>
<text text-anchor="start" x="106.5" y="-42.5" font-family="Helvetica,sans-Serif" font-size="10.00" fill="grey">parent</text>
</g>
<!-- Node3 -->
<g id="Node000003" class="node">
<title>Node3</title>
<g id="a_Node000003"><a xlink:href="struct__EvDocument.html" target="_top" xlink:title=" ">
<polygon fill="white" stroke="#666666" points="122.5,-163 38.5,-163 38.5,-144 122.5,-144 122.5,-163"/>
<text text-anchor="middle" x="80.5" y="-151" font-family="Helvetica,sans-Serif" font-size="10.00">_EvDocument</text>
</a>
</g>
</g>
<!-- Node3&#45;&gt;Node2 -->
<g id="edge2_Node000002_Node000003" class="edge">
<title>Node3&#45;&gt;Node2</title>
<g id="a_edge2_Node000002_Node000003"><a xlink:title=" ">
<path fill="none" stroke="#9a32cd" stroke-dasharray="5,2" d="M80.5,-133.58C80.5,-119.76 80.5,-101.68 80.5,-91.15"/>
<polygon fill="#9a32cd" stroke="#9a32cd" points="77,-133.92 80.5,-143.92 84,-133.92 77,-133.92"/>
</a>
</g>
<text text-anchor="start" x="84" y="-114.5" font-family="Helvetica,sans-Serif" font-size="10.00" fill="grey">document</text>
</g>
<!-- Node4 -->
<g id="Node000004" class="node">
<title>Node4</title>
<g id="a_Node000004"><a xlink:title=" ">
<polygon fill="white" stroke="#666666" points="140,-235 21,-235 21,-216 140,-216 140,-235"/>
<text text-anchor="middle" x="80.5" y="-223" font-family="Helvetica,sans-Serif" font-size="10.00">_EvDocumentPrivate</text>
</a>
</g>
</g>
<!-- Node4&#45;&gt;Node3 -->
<g id="edge3_Node000003_Node000004" class="edge">
<title>Node4&#45;&gt;Node3</title>
<g id="a_edge3_Node000003_Node000004"><a xlink:title=" ">
<path fill="none" stroke="#9a32cd" stroke-dasharray="5,2" d="M80.5,-205.58C80.5,-191.76 80.5,-173.68 80.5,-163.15"/>
<polygon fill="#9a32cd" stroke="#9a32cd" points="77,-205.92 80.5,-215.92 84,-205.92 77,-205.92"/>
</a>
</g>
<text text-anchor="start" x="84" y="-186.5" font-family="Helvetica,sans-Serif" font-size="10.00" fill="grey">priv</text>
</g>
<!-- Node5 -->
<g id="Node000005" class="node">
<title>Node5</title>
<g id="a_Node000005"><a xlink:title=" ">
<polygon fill="white" stroke="#666666" points="77,-307 0,-307 0,-288 77,-288 77,-307"/>
<text text-anchor="middle" x="38.5" y="-295" font-family="Helvetica,sans-Serif" font-size="10.00">_EvPageSize</text>
</a>
</g>
</g>
<!-- Node5&#45;&gt;Node4 -->
<g id="edge4_Node000004_Node000005" class="edge">
<title>Node5&#45;&gt;Node4</title>
<g id="a_edge4_Node000004_Node000005"><a xlink:title=" ">
<path fill="none" stroke="#9a32cd" stroke-dasharray="5,2" d="M41.72,-277.95C43.69,-269.86 46.78,-260.53 51.5,-253 55.85,-246.07 62.49,-239.81 68.33,-235.12"/>
<polygon fill="#9a32cd" stroke="#9a32cd" points="38.25,-277.43 39.67,-287.93 45.11,-278.84 38.25,-277.43"/>
</a>
</g>
<text text-anchor="start" x="55" y="-258.5" font-family="Helvetica,sans-Serif" font-size="10.00" fill="grey">page_sizes</text>
</g>
<!-- Node6 -->
<g id="Node000006" class="node">
<title>Node6</title>
<g id="a_Node000006"><a xlink:href="struct__EvDocumentInfo.html" target="_top" xlink:title=" ">
<polygon fill="white" stroke="#666666" points="198,-307 95,-307 95,-288 198,-288 198,-307"/>
<text text-anchor="middle" x="146.5" y="-295" font-family="Helvetica,sans-Serif" font-size="10.00">_EvDocumentInfo</text>
</a>
</g>
</g>
<!-- Node6&#45;&gt;Node4 -->
<g id="edge5_Node000004_Node000006" class="edge">
<title>Node6&#45;&gt;Node4</title>
<g id="a_edge5_Node000004_Node000006"><a xlink:title=" ">
<path fill="none" stroke="#9a32cd" stroke-dasharray="5,2" d="M134.54,-279.48C128.35,-271.15 120.45,-261.18 112.5,-253 106.16,-246.48 98.31,-239.96 91.97,-235.02"/>
<polygon fill="#9a32cd" stroke="#9a32cd" points="131.8,-281.66 140.49,-287.72 137.47,-277.56 131.8,-281.66"/>
</a>
</g>
<text text-anchor="start" x="130" y="-258.5" font-family="Helvetica,sans-Serif" font-size="10.00" fill="grey">info</text>
</g>
<!-- Node7 -->
<g id="Node000007" class="node">
<title>Node7</title>
<g id="a_Node000007"><a xlink:href="struct__EvDocumentLicense.html" target="_top" xlink:title=" ">
<polygon fill="white" stroke="#666666" points="207,-379 86,-379 86,-360 207,-360 207,-379"/>
<text text-anchor="middle" x="146.5" y="-367" font-family="Helvetica,sans-Serif" font-size="10.00">_EvDocumentLicense</text>
</a>
</g>
</g>
<!-- Node7&#45;&gt;Node6 -->
<g id="edge6_Node000006_Node000007" class="edge">
<title>Node7&#45;&gt;Node6</title>
<g id="a_edge6_Node000006_Node000007"><a xlink:title=" ">
<path fill="none" stroke="#9a32cd" stroke-dasharray="5,2" d="M146.5,-349.58C146.5,-335.76 146.5,-317.68 146.5,-307.15"/>
<polygon fill="#9a32cd" stroke="#9a32cd" points="143,-349.92 146.5,-359.92 150,-349.92 143,-349.92"/>
</a>
</g>
<text text-anchor="start" x="150" y="-330.5" font-family="Helvetica,sans-Serif" font-size="10.00" fill="grey">license</text>
</g>
<!-- Node8 -->
<g id="Node000008" class="node">
<title>Node8</title>
<g id="a_Node000008"><a xlink:href="struct__EvRectangle.html" target="_top" xlink:title=" ">
<polygon fill="white" stroke="#666666" points="206,-91 123,-91 123,-72 206,-72 206,-91"/>
<text text-anchor="middle" x="164.5" y="-79" font-family="Helvetica,sans-Serif" font-size="10.00">_EvRectangle</text>
</a>
</g>
</g>
<!-- Node8&#45;&gt;Node1 -->
<g id="edge7_Node000001_Node000008" class="edge">
<title>Node8&#45;&gt;Node1</title>
<g id="a_edge7_Node000001_Node000008"><a xlink:title=" ">
<path fill="none" stroke="#9a32cd" stroke-dasharray="5,2" d="M156.48,-62.4C150.32,-48.49 142.09,-29.89 137.33,-19.15"/>
<polygon fill="#9a32cd" stroke="#9a32cd" points="153.45,-64.19 160.7,-71.92 159.85,-61.36 153.45,-64.19"/>
</a>
</g>
<text text-anchor="start" x="156.5" y="-42.5" font-family="Helvetica,sans-Serif" font-size="10.00" fill="grey">selection_points</text>
</g>
</g>
</svg>
</svg>

<style type='text/css'>
<![CDATA[
[data-mouse-over-selected='false'] { opacity: 0.7; }
[data-mouse-over-selected='true']  { opacity: 1.0; }
]]>
</style>
<script type="application/ecmascript"><![CDATA[
document.addEventListener('DOMContentLoaded', (event) => {
  highlightEdges();
  highlightAdjacentNodes();
});
]]></script>
</svg>
