<?xml version="1.0" encoding="UTF-8" standalone="no"?>
<!DOCTYPE svg PUBLIC "-//W3C//DTD SVG 1.1//EN"
 "http://www.w3.org/Graphics/SVG/1.1/DTD/svg11.dtd">
<!-- Generated by graphviz version 2.43.0 (0)
 -->
<!-- Title: _GdictApplet Pages: 1 -->
<svg width="156pt" height="243pt"
 viewBox="0.00 0.00 156.00 243.00" xmlns="http://www.w3.org/2000/svg" xmlns:xlink="http://www.w3.org/1999/xlink">
<g id="graph0" class="graph" transform="scale(1 1) rotate(0) translate(4 239)">
<title>_GdictApplet</title>
<!-- Node1 -->
<g id="Node000001" class="node">
<title>Node1</title>
<g id="a_Node000001"><a xlink:title=" ">
<polygon fill="#999999" stroke="#666666" points="113.5,-19 34.5,-19 34.5,0 113.5,0 113.5,-19"/>
<text text-anchor="middle" x="74" y="-7" font-family="Helvetica,sans-Serif" font-size="10.00">_GdictApplet</text>
</a>
</g>
</g>
<!-- Node2 -->
<g id="Node000002" class="node">
<title>Node2</title>
<g id="a_Node000002"><a xlink:title=" ">
<polygon fill="white" stroke="#666666" points="130.5,-91 17.5,-91 17.5,-72 130.5,-72 130.5,-91"/>
<text text-anchor="middle" x="74" y="-79" font-family="Helvetica,sans-Serif" font-size="10.00">_GdictAppletPrivate</text>
</a>
</g>
</g>
<!-- Node2&#45;&gt;Node1 -->
<g id="edge1_Node000001_Node000002" class="edge">
<title>Node2&#45;&gt;Node1</title>
<g id="a_edge1_Node000001_Node000002"><a xlink:title=" ">
<path fill="none" stroke="#9a32cd" stroke-dasharray="5,2" d="M74,-61.58C74,-47.76 74,-29.68 74,-19.15"/>
<polygon fill="#9a32cd" stroke="#9a32cd" points="70.5,-61.92 74,-71.92 77.5,-61.92 70.5,-61.92"/>
</a>
</g>
<text text-anchor="start" x="77.5" y="-42.5" font-family="Helvetica,sans-Serif" font-size="10.00" fill="grey">priv</text>
</g>
<!-- Node3 -->
<g id="Node000003" class="node">
<title>Node3</title>
<g id="a_Node000003"><a xlink:href="struct__GdictSourceLoader.html" target="_top" xlink:title=" ">
<polygon fill="white" stroke="#666666" points="130.5,-163 17.5,-163 17.5,-144 130.5,-144 130.5,-163"/>
<text text-anchor="middle" x="74" y="-151" font-family="Helvetica,sans-Serif" font-size="10.00">_GdictSourceLoader</text>
</a>
</g>
</g>
<!-- Node3&#45;&gt;Node2 -->
<g id="edge2_Node000002_Node000003" class="edge">
<title>Node3&#45;&gt;Node2</title>
<g id="a_edge2_Node000002_Node000003"><a xlink:title=" ">
<path fill="none" stroke="#9a32cd" stroke-dasharray="5,2" d="M74,-133.58C74,-119.76 74,-101.68 74,-91.15"/>
<polygon fill="#9a32cd" stroke="#9a32cd" points="70.5,-133.92 74,-143.92 77.5,-133.92 70.5,-133.92"/>
</a>
</g>
<text text-anchor="start" x="77.5" y="-114.5" font-family="Helvetica,sans-Serif" font-size="10.00" fill="grey">loader</text>
</g>
<!-- Node4 -->
<g id="Node000004" class="node">
<title>Node4</title>
<g id="a_Node000004"><a xlink:title=" ">
<polygon fill="white" stroke="#666666" points="148,-235 0,-235 0,-216 148,-216 148,-235"/>
<text text-anchor="middle" x="74" y="-223" font-family="Helvetica,sans-Serif" font-size="10.00">_GdictSourceLoaderPrivate</text>
</a>
</g>
</g>
<!-- Node4&#45;&gt;Node3 -->
<g id="edge3_Node000003_Node000004" class="edge">
<title>Node4&#45;&gt;Node3</title>
<g id="a_edge3_Node000003_Node000004"><a xlink:title=" ">
<path fill="none" stroke="#9a32cd" stroke-dasharray="5,2" d="M74,-205.58C74,-191.76 74,-173.68 74,-163.15"/>
<polygon fill="#9a32cd" stroke="#9a32cd" points="70.5,-205.92 74,-215.92 77.5,-205.92 70.5,-205.92"/>
</a>
</g>
<text text-anchor="start" x="77.5" y="-186.5" font-family="Helvetica,sans-Serif" font-size="10.00" fill="grey">priv</text>
</g>
</g>
</svg>
