<?xml version="1.0" encoding="UTF-8" standalone="no"?>
<!DOCTYPE svg PUBLIC "-//W3C//DTD SVG 1.1//EN"
 "http://www.w3.org/Graphics/SVG/1.1/DTD/svg11.dtd">
<!-- Generated by graphviz version 2.43.0 (0)
 -->
<!-- Title: _CajaDirectoryPrivate Pages: 1 -->
<svg width="1308pt" height="867pt"
 viewBox="0.00 0.00 1308.00 867.00" xmlns="http://www.w3.org/2000/svg" xmlns:xlink="http://www.w3.org/1999/xlink">
<g id="graph0" class="graph" transform="scale(1 1) rotate(0) translate(4 863)">
<title>_CajaDirectoryPrivate</title>
<!-- Node1 -->
<g id="Node000001" class="node">
<title>Node1</title>
<g id="a_Node000001"><a xlink:title=" ">
<polygon fill="#999999" stroke="#666666" points="349,-359.5 226,-359.5 226,-340.5 349,-340.5 349,-359.5"/>
<text text-anchor="middle" x="287.5" y="-347.5" font-family="Helvetica,sans-Serif" font-size="10.00">_CajaDirectoryPrivate</text>
</a>
</g>
</g>
<!-- Node4 -->
<g id="Node000004" class="node">
<title>Node4</title>
<g id="a_Node000004"><a xlink:href="structCajaDirectory.html" target="_top" xlink:title=" ">
<polygon fill="white" stroke="#666666" points="545.5,-453.5 462.5,-453.5 462.5,-434.5 545.5,-434.5 545.5,-453.5"/>
<text text-anchor="middle" x="504" y="-441.5" font-family="Helvetica,sans-Serif" font-size="10.00">CajaDirectory</text>
</a>
</g>
</g>
<!-- Node1&#45;&gt;Node4 -->
<g id="edge4_Node000004_Node000001" class="edge">
<title>Node1&#45;&gt;Node4</title>
<g id="a_edge4_Node000004_Node000001"><a xlink:title=" ">
<path fill="none" stroke="#9a32cd" stroke-dasharray="5,2" d="M319.59,-363.63C363.6,-382.91 442.93,-417.68 481.19,-434.44"/>
<polygon fill="#9a32cd" stroke="#9a32cd" points="320.81,-360.34 310.25,-359.53 318,-366.75 320.81,-360.34"/>
</a>
</g>
<text text-anchor="start" x="370" y="-404.5" font-family="Helvetica,sans-Serif" font-size="10.00" fill="grey">details</text>
</g>
<!-- Node2 -->
<g id="Node000002" class="node">
<title>Node2</title>
<g id="a_Node000002"><a xlink:href="structCajaFile.html" target="_top" xlink:title=" ">
<polygon fill="white" stroke="#666666" points="1045,-390.5 989,-390.5 989,-371.5 1045,-371.5 1045,-390.5"/>
<text text-anchor="middle" x="1017" y="-378.5" font-family="Helvetica,sans-Serif" font-size="10.00">CajaFile</text>
</a>
</g>
</g>
<!-- Node2&#45;&gt;Node1 -->
<g id="edge1_Node000001_Node000002" class="edge">
<title>Node2&#45;&gt;Node1</title>
<g id="a_edge1_Node000001_Node000002"><a xlink:title=" ">
<path fill="none" stroke="#9a32cd" stroke-dasharray="5,2" d="M1010.75,-361.6C1000.88,-325.63 979.72,-251.47 971,-243 952.39,-224.92 772.68,-180.7 747,-177 601.36,-155.99 553.23,-181.82 425,-254 376.27,-281.43 323.43,-322.06 300.38,-340.4"/>
<polygon fill="#9a32cd" stroke="#9a32cd" points="1007.43,-362.69 1013.43,-371.42 1014.18,-360.85 1007.43,-362.69"/>
</a>
</g>
<text text-anchor="start" x="628" y="-228" font-family="Helvetica,sans-Serif" font-size="10.00" fill="grey">as_file</text>
<text text-anchor="start" x="628" y="-213" font-family="Helvetica,sans-Serif" font-size="10.00" fill="grey">deep_count_file</text>
<text text-anchor="start" x="628" y="-198" font-family="Helvetica,sans-Serif" font-size="10.00" fill="grey">extension_info_file</text>
<text text-anchor="start" x="628" y="-183" font-family="Helvetica,sans-Serif" font-size="10.00" fill="grey">get_info_file</text>
</g>
<!-- Node8 -->
<g id="Node000008" class="node">
<title>Node8</title>
<g id="a_Node000008"><a xlink:title=" ">
<polygon fill="white" stroke="#666666" points="1294,-697.5 1184,-697.5 1184,-678.5 1294,-678.5 1294,-697.5"/>
<text text-anchor="middle" x="1239" y="-685.5" font-family="Helvetica,sans-Serif" font-size="10.00">DirectoryLoadState</text>
</a>
</g>
</g>
<!-- Node2&#45;&gt;Node8 -->
<g id="edge10_Node000008_Node000002" class="edge">
<title>Node2&#45;&gt;Node8</title>
<g id="a_edge10_Node000008_Node000002"><a xlink:title=" ">
<path fill="none" stroke="#9a32cd" stroke-dasharray="5,2" d="M1018.43,-401.21C1020.17,-434.97 1028.08,-503.44 1063,-547 1093.46,-585 1121.83,-567.74 1160,-598 1190.95,-622.54 1219.13,-660.56 1231.45,-678.29"/>
<polygon fill="#9a32cd" stroke="#9a32cd" points="1021.92,-400.67 1018.05,-390.81 1014.92,-400.93 1021.92,-400.67"/>
</a>
</g>
<text text-anchor="start" x="1066.5" y="-603.5" font-family="Helvetica,sans-Serif" font-size="10.00" fill="grey">load_directory_file</text>
</g>
<!-- Node9 -->
<g id="Node000009" class="node">
<title>Node9</title>
<g id="a_Node000009"><a xlink:title=" ">
<polygon fill="white" stroke="#666666" points="1297,-573.5 1181,-573.5 1181,-554.5 1297,-554.5 1297,-573.5"/>
<text text-anchor="middle" x="1239" y="-561.5" font-family="Helvetica,sans-Serif" font-size="10.00">DirectoryCountState</text>
</a>
</g>
</g>
<!-- Node2&#45;&gt;Node9 -->
<g id="edge13_Node000009_Node000002" class="edge">
<title>Node2&#45;&gt;Node9</title>
<g id="a_edge13_Node000009_Node000002"><a xlink:title=" ">
<path fill="none" stroke="#9a32cd" stroke-dasharray="5,2" d="M1025.7,-400.09C1033.26,-417.08 1046.12,-441.83 1063,-459 1108.33,-505.11 1177.97,-538.84 1214.22,-554.41"/>
<polygon fill="#9a32cd" stroke="#9a32cd" points="1028.82,-398.49 1021.68,-390.65 1022.37,-401.23 1028.82,-398.49"/>
</a>
</g>
<text text-anchor="start" x="1087.5" y="-531.5" font-family="Helvetica,sans-Serif" font-size="10.00" fill="grey">count_file</text>
</g>
<!-- Node11 -->
<g id="Node000011" class="node">
<title>Node11</title>
<g id="a_Node000011"><a xlink:title=" ">
<polygon fill="white" stroke="#666666" points="1282.5,-483.5 1195.5,-483.5 1195.5,-464.5 1282.5,-464.5 1282.5,-483.5"/>
<text text-anchor="middle" x="1239" y="-471.5" font-family="Helvetica,sans-Serif" font-size="10.00">MimeListState</text>
</a>
</g>
</g>
<!-- Node2&#45;&gt;Node11 -->
<g id="edge18_Node000011_Node000002" class="edge">
<title>Node2&#45;&gt;Node11</title>
<g id="a_edge18_Node000011_Node000002"><a xlink:title=" ">
<path fill="none" stroke="#9a32cd" stroke-dasharray="5,2" d="M1050.03,-394.54C1095.1,-413.59 1176.12,-447.84 1215.41,-464.45"/>
<polygon fill="#9a32cd" stroke="#9a32cd" points="1051.29,-391.27 1040.72,-390.6 1048.56,-397.72 1051.29,-391.27"/>
</a>
</g>
<text text-anchor="start" x="1076.5" y="-443.5" font-family="Helvetica,sans-Serif" font-size="10.00" fill="grey">mime_list_file</text>
</g>
<!-- Node13 -->
<g id="Node000013" class="node">
<title>Node13</title>
<g id="a_Node000013"><a xlink:title=" ">
<polygon fill="white" stroke="#666666" points="1286,-386.5 1192,-386.5 1192,-367.5 1286,-367.5 1286,-386.5"/>
<text text-anchor="middle" x="1239" y="-374.5" font-family="Helvetica,sans-Serif" font-size="10.00">ThumbnailState</text>
</a>
</g>
</g>
<!-- Node2&#45;&gt;Node13 -->
<g id="edge23_Node000013_Node000002" class="edge">
<title>Node2&#45;&gt;Node13</title>
<g id="a_edge23_Node000013_Node000002"><a xlink:title=" ">
<path fill="none" stroke="#9a32cd" stroke-dasharray="5,2" d="M1055.22,-378.34C1057.85,-378.21 1060.47,-378.09 1063,-378 1106.72,-376.42 1156.63,-376.3 1191.93,-376.5"/>
<polygon fill="#9a32cd" stroke="#9a32cd" points="1054.9,-374.85 1045.11,-378.92 1055.3,-381.84 1054.9,-374.85"/>
</a>
</g>
<text text-anchor="start" x="1103.5" y="-383.5" font-family="Helvetica,sans-Serif" font-size="10.00" fill="grey">file</text>
</g>
<!-- Node14 -->
<g id="Node000014" class="node">
<title>Node14</title>
<g id="a_Node000014"><a xlink:title=" ">
<polygon fill="white" stroke="#666666" points="1275.5,-288.5 1202.5,-288.5 1202.5,-269.5 1275.5,-269.5 1275.5,-288.5"/>
<text text-anchor="middle" x="1239" y="-276.5" font-family="Helvetica,sans-Serif" font-size="10.00">MountState</text>
</a>
</g>
</g>
<!-- Node2&#45;&gt;Node14 -->
<g id="edge26_Node000014_Node000002" class="edge">
<title>Node2&#45;&gt;Node14</title>
<g id="a_edge26_Node000014_Node000002"><a xlink:title=" ">
<path fill="none" stroke="#9a32cd" stroke-dasharray="5,2" d="M1042.64,-366.09C1049.18,-362.32 1056.29,-358.38 1063,-355 1115.5,-328.54 1179.33,-302.24 1213.54,-288.59"/>
<polygon fill="#9a32cd" stroke="#9a32cd" points="1040.43,-363.32 1033.59,-371.41 1043.98,-369.36 1040.43,-363.32"/>
</a>
</g>
<text text-anchor="start" x="1103.5" y="-360.5" font-family="Helvetica,sans-Serif" font-size="10.00" fill="grey">file</text>
</g>
<!-- Node15 -->
<g id="Node000015" class="node">
<title>Node15</title>
<g id="a_Node000015"><a xlink:title=" ">
<polygon fill="white" stroke="#666666" points="1296,-198.5 1182,-198.5 1182,-179.5 1296,-179.5 1296,-198.5"/>
<text text-anchor="middle" x="1239" y="-186.5" font-family="Helvetica,sans-Serif" font-size="10.00">FilesystemInfoState</text>
</a>
</g>
</g>
<!-- Node2&#45;&gt;Node15 -->
<g id="edge29_Node000015_Node000002" class="edge">
<title>Node2&#45;&gt;Node15</title>
<g id="a_edge29_Node000015_Node000002"><a xlink:title=" ">
<path fill="none" stroke="#9a32cd" stroke-dasharray="5,2" d="M1024.02,-361.55C1030.9,-341.88 1043.74,-311.53 1063,-291 1106.18,-244.96 1174.85,-213.34 1212.03,-198.55"/>
<polygon fill="#9a32cd" stroke="#9a32cd" points="1020.63,-360.65 1020.82,-371.25 1027.28,-362.85 1020.63,-360.65"/>
</a>
</g>
<text text-anchor="start" x="1103.5" y="-296.5" font-family="Helvetica,sans-Serif" font-size="10.00" fill="grey">file</text>
</g>
<!-- Node16 -->
<g id="Node000016" class="node">
<title>Node16</title>
<g id="a_Node000016"><a xlink:title=" ">
<polygon fill="white" stroke="#666666" points="1300,-133.5 1178,-133.5 1178,-114.5 1300,-114.5 1300,-133.5"/>
<text text-anchor="middle" x="1239" y="-121.5" font-family="Helvetica,sans-Serif" font-size="10.00">TopLeftTextReadState</text>
</a>
</g>
</g>
<!-- Node2&#45;&gt;Node16 -->
<g id="edge32_Node000016_Node000002" class="edge">
<title>Node2&#45;&gt;Node16</title>
<g id="a_edge32_Node000016_Node000002"><a xlink:title=" ">
<path fill="none" stroke="#9a32cd" stroke-dasharray="5,2" d="M1017.73,-361.22C1018.28,-325.66 1024.32,-250.35 1063,-204 1095.54,-165.02 1151.13,-144.12 1190.93,-133.58"/>
<polygon fill="#9a32cd" stroke="#9a32cd" points="1014.23,-361.27 1017.71,-371.28 1021.23,-361.28 1014.23,-361.27"/>
</a>
</g>
<text text-anchor="start" x="1103.5" y="-209.5" font-family="Helvetica,sans-Serif" font-size="10.00" fill="grey">file</text>
</g>
<!-- Node17 -->
<g id="Node000017" class="node">
<title>Node17</title>
<g id="a_Node000017"><a xlink:title=" ">
<polygon fill="white" stroke="#666666" points="1292,-734.5 1186,-734.5 1186,-715.5 1292,-715.5 1292,-734.5"/>
<text text-anchor="middle" x="1239" y="-722.5" font-family="Helvetica,sans-Serif" font-size="10.00">LinkInfoReadState</text>
</a>
</g>
</g>
<!-- Node2&#45;&gt;Node17 -->
<g id="edge35_Node000017_Node000002" class="edge">
<title>Node2&#45;&gt;Node17</title>
<g id="a_edge35_Node000017_Node000002"><a xlink:title=" ">
<path fill="none" stroke="#9a32cd" stroke-dasharray="5,2" d="M1017.2,-400.98C1016.44,-443.67 1019.67,-545.55 1063,-615 1091.56,-660.78 1119.75,-652.07 1160,-688 1168.68,-695.75 1168.1,-700.9 1178,-707 1183.46,-710.36 1189.6,-713.13 1195.8,-715.4"/>
<polygon fill="#9a32cd" stroke="#9a32cd" points="1020.71,-400.89 1017.49,-390.8 1013.71,-400.7 1020.71,-400.89"/>
</a>
</g>
<text text-anchor="start" x="1103.5" y="-693.5" font-family="Helvetica,sans-Serif" font-size="10.00" fill="grey">file</text>
</g>
<!-- Node3 -->
<g id="Node000003" class="node">
<title>Node3</title>
<g id="a_Node000003"><a xlink:href="struct__CajaFilePrivate.html" target="_top" xlink:title=" ">
<polygon fill="white" stroke="#666666" points="881.5,-403.5 786.5,-403.5 786.5,-384.5 881.5,-384.5 881.5,-403.5"/>
<text text-anchor="middle" x="834" y="-391.5" font-family="Helvetica,sans-Serif" font-size="10.00">_CajaFilePrivate</text>
</a>
</g>
</g>
<!-- Node3&#45;&gt;Node2 -->
<g id="edge2_Node000002_Node000003" class="edge">
<title>Node3&#45;&gt;Node2</title>
<g id="a_edge2_Node000002_Node000003"><a xlink:title=" ">
<path fill="none" stroke="#9a32cd" stroke-dasharray="5,2" d="M891.87,-389.92C924.28,-387.59 963.39,-384.78 988.94,-382.94"/>
<polygon fill="#9a32cd" stroke="#9a32cd" points="891.34,-386.44 881.61,-390.65 891.84,-393.43 891.34,-386.44"/>
</a>
</g>
<text text-anchor="start" x="929" y="-392.5" font-family="Helvetica,sans-Serif" font-size="10.00" fill="grey">details</text>
</g>
<!-- Node4&#45;&gt;Node3 -->
<g id="edge3_Node000003_Node000004" class="edge">
<title>Node4&#45;&gt;Node3</title>
<g id="a_edge3_Node000003_Node000004"><a xlink:title=" ">
<path fill="none" stroke="#9a32cd" stroke-dasharray="5,2" d="M555.53,-436.05C570.19,-433.76 586.23,-431.27 601,-429 665.22,-419.14 739.47,-407.98 786.33,-400.97"/>
<polygon fill="#9a32cd" stroke="#9a32cd" points="554.97,-432.6 545.63,-437.6 556.05,-439.51 554.97,-432.6"/>
</a>
</g>
<text text-anchor="start" x="652" y="-434.5" font-family="Helvetica,sans-Serif" font-size="10.00" fill="grey">directory</text>
</g>
<!-- Node4&#45;&gt;Node8 -->
<g id="edge9_Node000008_Node000004" class="edge">
<title>Node4&#45;&gt;Node8</title>
<g id="a_edge9_Node000008_Node000004"><a xlink:title=" ">
<path fill="none" stroke="#9a32cd" stroke-dasharray="5,2" d="M522.52,-460.47C540.75,-476.71 570.8,-501.07 601,-515 755.67,-586.37 821.52,-533.3 971,-615 1005.61,-633.92 1013.74,-639.95 1045,-664 1053.48,-670.53 1053.08,-675.97 1063,-680 1101.32,-695.58 1148.31,-696.86 1183.95,-694.64"/>
<polygon fill="#9a32cd" stroke="#9a32cd" points="524.77,-457.79 515.02,-453.65 520.06,-462.97 524.77,-457.79"/>
</a>
</g>
<text text-anchor="start" x="924" y="-620.5" font-family="Helvetica,sans-Serif" font-size="10.00" fill="grey">directory</text>
</g>
<!-- Node4&#45;&gt;Node9 -->
<g id="edge12_Node000009_Node000004" class="edge">
<title>Node4&#45;&gt;Node9</title>
<g id="a_edge12_Node000009_Node000004"><a xlink:title=" ">
<path fill="none" stroke="#9a32cd" stroke-dasharray="5,2" d="M529.83,-458.48C548.7,-468.78 575.66,-481.98 601,-489 760.31,-533.15 807.75,-500.96 971,-527 1012.32,-533.59 1021.66,-540.52 1063,-547 1102.05,-553.12 1146.38,-557.4 1180.65,-560.13"/>
<polygon fill="#9a32cd" stroke="#9a32cd" points="531.44,-455.37 521,-453.56 528.03,-461.49 531.44,-455.37"/>
</a>
</g>
<text text-anchor="start" x="924" y="-532.5" font-family="Helvetica,sans-Serif" font-size="10.00" fill="grey">directory</text>
</g>
<!-- Node10 -->
<g id="Node000010" class="node">
<title>Node10</title>
<g id="a_Node000010"><a xlink:title=" ">
<polygon fill="white" stroke="#666666" points="882,-646.5 786,-646.5 786,-627.5 882,-627.5 882,-646.5"/>
<text text-anchor="middle" x="834" y="-634.5" font-family="Helvetica,sans-Serif" font-size="10.00">DeepCountState</text>
</a>
</g>
</g>
<!-- Node4&#45;&gt;Node10 -->
<g id="edge15_Node000010_Node000004" class="edge">
<title>Node4&#45;&gt;Node10</title>
<g id="a_edge15_Node000010_Node000004"><a xlink:title=" ">
<path fill="none" stroke="#9a32cd" stroke-dasharray="5,2" d="M511.18,-463.42C522.88,-496.75 551.62,-564.41 601,-597 655.83,-633.18 682.32,-608.52 747,-620 759.89,-622.29 773.82,-624.96 786.64,-627.49"/>
<polygon fill="#9a32cd" stroke="#9a32cd" points="514.36,-461.9 507.86,-453.53 507.73,-464.13 514.36,-461.9"/>
</a>
</g>
<text text-anchor="start" x="652" y="-625.5" font-family="Helvetica,sans-Serif" font-size="10.00" fill="grey">directory</text>
</g>
<!-- Node4&#45;&gt;Node11 -->
<g id="edge17_Node000011_Node000004" class="edge">
<title>Node4&#45;&gt;Node11</title>
<g id="a_edge17_Node000011_Node000004"><a xlink:title=" ">
<path fill="none" stroke="#9a32cd" stroke-dasharray="5,2" d="M541.42,-456.74C559.15,-462.3 580.93,-468.18 601,-471 716.13,-487.16 1071.82,-478.8 1195.27,-475.3"/>
<polygon fill="#9a32cd" stroke="#9a32cd" points="542.08,-453.28 531.48,-453.53 539.92,-459.94 542.08,-453.28"/>
</a>
</g>
<text text-anchor="start" x="924" y="-485.5" font-family="Helvetica,sans-Serif" font-size="10.00" fill="grey">directory</text>
</g>
<!-- Node12 -->
<g id="Node000012" class="node">
<title>Node12</title>
<g id="a_Node000012"><a xlink:title=" ">
<polygon fill="white" stroke="#666666" points="873,-251.5 795,-251.5 795,-232.5 873,-232.5 873,-251.5"/>
<text text-anchor="middle" x="834" y="-239.5" font-family="Helvetica,sans-Serif" font-size="10.00">GetInfoState</text>
</a>
</g>
</g>
<!-- Node4&#45;&gt;Node12 -->
<g id="edge20_Node000012_Node000004" class="edge">
<title>Node4&#45;&gt;Node12</title>
<g id="a_edge20_Node000012_Node000004"><a xlink:title=" ">
<path fill="none" stroke="#9a32cd" stroke-dasharray="5,2" d="M524.17,-427.77C542.15,-411.47 568.39,-384.72 583,-356 599.92,-322.74 573.59,-299.32 601,-274 608.05,-267.49 730.82,-253.18 794.84,-246.12"/>
<polygon fill="#9a32cd" stroke="#9a32cd" points="521.74,-425.25 516.56,-434.49 526.37,-430.49 521.74,-425.25"/>
</a>
</g>
<text text-anchor="start" x="652" y="-279.5" font-family="Helvetica,sans-Serif" font-size="10.00" fill="grey">directory</text>
</g>
<!-- Node4&#45;&gt;Node13 -->
<g id="edge22_Node000013_Node000004" class="edge">
<title>Node4&#45;&gt;Node13</title>
<g id="a_edge22_Node000013_Node000004"><a xlink:title=" ">
<path fill="none" stroke="#9a32cd" stroke-dasharray="5,2" d="M555.89,-445.13C699.92,-448.09 1103.64,-454.49 1160,-435 1188.71,-425.07 1215.61,-400.43 1229.05,-386.67"/>
<polygon fill="#9a32cd" stroke="#9a32cd" points="555.65,-441.63 545.58,-444.92 555.5,-448.63 555.65,-441.63"/>
</a>
</g>
<text text-anchor="start" x="924" y="-453.5" font-family="Helvetica,sans-Serif" font-size="10.00" fill="grey">directory</text>
</g>
<!-- Node4&#45;&gt;Node14 -->
<g id="edge25_Node000014_Node000004" class="edge">
<title>Node4&#45;&gt;Node14</title>
<g id="a_edge25_Node000014_Node000004"><a xlink:title=" ">
<path fill="none" stroke="#9a32cd" stroke-dasharray="5,2" d="M537.33,-430.75C555.75,-423.56 579.4,-414.97 601,-409 664.69,-391.41 682.67,-396.08 747,-381 755.08,-379.11 756.95,-378.04 765,-376 896.7,-342.7 929.71,-334.23 1063,-308 1111.04,-298.55 1166.92,-289.65 1202.36,-284.26"/>
<polygon fill="#9a32cd" stroke="#9a32cd" points="535.95,-427.52 527.94,-434.46 538.53,-434.03 535.95,-427.52"/>
</a>
</g>
<text text-anchor="start" x="924" y="-343.5" font-family="Helvetica,sans-Serif" font-size="10.00" fill="grey">directory</text>
</g>
<!-- Node4&#45;&gt;Node15 -->
<g id="edge28_Node000015_Node000004" class="edge">
<title>Node4&#45;&gt;Node15</title>
<g id="a_edge28_Node000015_Node000004"><a xlink:title=" ">
<path fill="none" stroke="#9a32cd" stroke-dasharray="5,2" d="M524.97,-428.42C543.61,-414.66 572.73,-395.1 601,-384 662.5,-359.86 688.19,-386.11 747,-356 756.79,-350.99 755.54,-344.62 765,-339 820.46,-306.05 842.89,-317.43 903,-294 975.83,-265.62 988.43,-244.43 1063,-221 1101.89,-208.78 1147.21,-200.65 1181.98,-195.65"/>
<polygon fill="#9a32cd" stroke="#9a32cd" points="522.82,-425.66 516.94,-434.47 527.04,-431.25 522.82,-425.66"/>
</a>
</g>
<text text-anchor="start" x="924" y="-292.5" font-family="Helvetica,sans-Serif" font-size="10.00" fill="grey">directory</text>
</g>
<!-- Node4&#45;&gt;Node16 -->
<g id="edge31_Node000016_Node000004" class="edge">
<title>Node4&#45;&gt;Node16</title>
<g id="a_edge31_Node000016_Node000004"><a xlink:title=" ">
<path fill="none" stroke="#9a32cd" stroke-dasharray="5,2" d="M518.93,-426.48C536.19,-405.81 567.46,-371.66 601,-351 666.7,-310.53 691.01,-315.92 765,-294 825.57,-276.06 847.98,-291.03 903,-260 912.85,-254.44 912.38,-249.32 921,-242 980.22,-191.69 990.2,-167.16 1063,-140 1099.59,-126.35 1143.34,-122.35 1177.94,-121.76"/>
<polygon fill="#9a32cd" stroke="#9a32cd" points="516.04,-424.48 512.42,-434.43 521.46,-428.91 516.04,-424.48"/>
</a>
</g>
<text text-anchor="start" x="924" y="-247.5" font-family="Helvetica,sans-Serif" font-size="10.00" fill="grey">directory</text>
</g>
<!-- Node4&#45;&gt;Node17 -->
<g id="edge34_Node000017_Node000004" class="edge">
<title>Node4&#45;&gt;Node17</title>
<g id="a_edge34_Node000017_Node000004"><a xlink:title=" ">
<path fill="none" stroke="#9a32cd" stroke-dasharray="5,2" d="M526.3,-460C543.13,-473.39 566.47,-493.68 583,-515 593.48,-528.51 587.45,-538.57 601,-549 710.2,-633.02 777.57,-561.99 903,-619 911.98,-623.08 912.53,-626.94 921,-632 981.22,-668.01 995.85,-680.65 1063,-701 1103.21,-713.19 1150.5,-719.2 1185.78,-722.16"/>
<polygon fill="#9a32cd" stroke="#9a32cd" points="528.2,-457.04 518.16,-453.66 523.9,-462.56 528.2,-457.04"/>
</a>
</g>
<text text-anchor="start" x="924" y="-666.5" font-family="Helvetica,sans-Serif" font-size="10.00" fill="grey">directory</text>
</g>
<!-- Node5 -->
<g id="Node000005" class="node">
<title>Node5</title>
<g id="a_Node000005"><a xlink:href="structCajaFileSortByEmblemCache.html" target="_top" xlink:title=" ">
<polygon fill="white" stroke="#666666" points="583,-347.5 425,-347.5 425,-328.5 583,-328.5 583,-347.5"/>
<text text-anchor="middle" x="504" y="-335.5" font-family="Helvetica,sans-Serif" font-size="10.00">CajaFileSortByEmblemCache</text>
</a>
</g>
</g>
<!-- Node5&#45;&gt;Node3 -->
<g id="edge5_Node000003_Node000005" class="edge">
<title>Node5&#45;&gt;Node3</title>
<g id="a_edge5_Node000003_Node000005"><a xlink:title=" ">
<path fill="none" stroke="#9a32cd" stroke-dasharray="5,2" d="M570.97,-349.26C634.79,-360.16 729.88,-376.39 786.25,-386.02"/>
<polygon fill="#9a32cd" stroke="#9a32cd" points="571.46,-345.8 561.01,-347.56 570.28,-352.7 571.46,-345.8"/>
</a>
</g>
<text text-anchor="start" x="604" y="-383.5" font-family="Helvetica,sans-Serif" font-size="10.00" fill="grey">compare_by_emblem_cache</text>
</g>
<!-- Node6 -->
<g id="Node000006" class="node">
<title>Node6</title>
<g id="a_Node000006"><a xlink:title=" ">
<polygon fill="white" stroke="#666666" points="87,-379.5 0,-379.5 0,-360.5 87,-360.5 87,-379.5"/>
<text text-anchor="middle" x="43.5" y="-367.5" font-family="Helvetica,sans-Serif" font-size="10.00">CajaFileQueue</text>
</a>
</g>
</g>
<!-- Node6&#45;&gt;Node1 -->
<g id="edge6_Node000001_Node000006" class="edge">
<title>Node6&#45;&gt;Node1</title>
<g id="a_edge6_Node000001_Node000006"><a xlink:title=" ">
<path fill="none" stroke="#9a32cd" stroke-dasharray="5,2" d="M97.5,-365.62C135.28,-362.5 186.15,-358.29 225.61,-355.03"/>
<polygon fill="#9a32cd" stroke="#9a32cd" points="96.89,-362.16 87.21,-366.47 97.46,-369.13 96.89,-362.16"/>
</a>
</g>
<text text-anchor="start" x="108.5" y="-400.5" font-family="Helvetica,sans-Serif" font-size="10.00" fill="grey">extension_queue</text>
<text text-anchor="start" x="108.5" y="-385.5" font-family="Helvetica,sans-Serif" font-size="10.00" fill="grey">high_priority_queue</text>
<text text-anchor="start" x="108.5" y="-370.5" font-family="Helvetica,sans-Serif" font-size="10.00" fill="grey">low_priority_queue</text>
</g>
<!-- Node7 -->
<g id="Node000007" class="node">
<title>Node7</title>
<g id="a_Node000007"><a xlink:title=" ">
<polygon fill="white" stroke="#666666" points="81.5,-339.5 5.5,-339.5 5.5,-320.5 81.5,-320.5 81.5,-339.5"/>
<text text-anchor="middle" x="43.5" y="-327.5" font-family="Helvetica,sans-Serif" font-size="10.00">CajaMonitor</text>
</a>
</g>
</g>
<!-- Node7&#45;&gt;Node1 -->
<g id="edge7_Node000001_Node000007" class="edge">
<title>Node7&#45;&gt;Node1</title>
<g id="a_edge7_Node000001_Node000007"><a xlink:title=" ">
<path fill="none" stroke="#9a32cd" stroke-dasharray="5,2" d="M91.79,-330.51C124.5,-331.23 168.99,-332.95 208,-337 216.52,-337.88 225.52,-339.1 234.26,-340.44"/>
<polygon fill="#9a32cd" stroke="#9a32cd" points="91.67,-327.01 81.61,-330.31 91.54,-334 91.67,-327.01"/>
</a>
</g>
<text text-anchor="start" x="137.5" y="-342.5" font-family="Helvetica,sans-Serif" font-size="10.00" fill="grey">monitor</text>
</g>
<!-- Node8&#45;&gt;Node1 -->
<g id="edge8_Node000001_Node000008" class="edge">
<title>Node8&#45;&gt;Node1</title>
<g id="a_edge8_Node000001_Node000008"><a xlink:title=" ">
<path fill="none" stroke="#9a32cd" stroke-dasharray="5,2" d="M1194.81,-700.72C1189.1,-702.68 1183.37,-704.79 1178,-707 1104.1,-737.39 1097.91,-789 1018,-789 503,-789 503,-789 503,-789 304.93,-789 289.73,-423.78 288.59,-359.58"/>
<polygon fill="#9a32cd" stroke="#9a32cd" points="1195.93,-704.04 1204.32,-697.58 1193.73,-697.39 1195.93,-704.04"/>
</a>
</g>
<text text-anchor="start" x="768" y="-794.5" font-family="Helvetica,sans-Serif" font-size="10.00" fill="grey">directory_load_in_progress</text>
</g>
<!-- Node9&#45;&gt;Node1 -->
<g id="edge11_Node000001_Node000009" class="edge">
<title>Node9&#45;&gt;Node1</title>
<g id="a_edge11_Node000001_Node000009"><a xlink:title=" ">
<path fill="none" stroke="#9a32cd" stroke-dasharray="5,2" d="M1227.59,-582.12C1214.57,-603.08 1190.24,-637.02 1160,-655 1019.52,-738.54 571.73,-753.99 425,-682 298.27,-619.83 288.94,-407.78 288.47,-359.73"/>
<polygon fill="#9a32cd" stroke="#9a32cd" points="1230.62,-583.88 1232.76,-573.51 1224.62,-580.28 1230.62,-583.88"/>
</a>
</g>
<text text-anchor="start" x="790" y="-732.5" font-family="Helvetica,sans-Serif" font-size="10.00" fill="grey">count_in_progress</text>
</g>
<!-- Node10&#45;&gt;Node1 -->
<g id="edge14_Node000001_Node000010" class="edge">
<title>Node10&#45;&gt;Node1</title>
<g id="a_edge14_Node000001_Node000010"><a xlink:title=" ">
<path fill="none" stroke="#9a32cd" stroke-dasharray="5,2" d="M777.21,-648.04C728.87,-655.07 657.94,-659.18 601,-637 447.25,-577.11 323.3,-402.29 294.72,-359.52"/>
<polygon fill="#9a32cd" stroke="#9a32cd" points="777.82,-651.49 787.17,-646.51 776.75,-644.57 777.82,-651.49"/>
</a>
</g>
<text text-anchor="start" x="445" y="-632.5" font-family="Helvetica,sans-Serif" font-size="10.00" fill="grey">deep_count_in_progress</text>
</g>
<!-- Node11&#45;&gt;Node1 -->
<g id="edge16_Node000001_Node000011" class="edge">
<title>Node11&#45;&gt;Node1</title>
<g id="a_edge16_Node000001_Node000011"><a xlink:title=" ">
<path fill="none" stroke="#9a32cd" stroke-dasharray="5,2" d="M1217.83,-489.61C1202.63,-500.76 1180.9,-515.41 1160,-525 1119.21,-543.71 1104.61,-536.21 1063,-553 996.81,-579.7 973.58,-579.73 921,-628 910.1,-638 915.92,-648.79 903,-656 810.25,-707.8 512.57,-708.15 425,-648 320.16,-575.99 294.34,-402.58 289.47,-359.71"/>
<polygon fill="#9a32cd" stroke="#9a32cd" points="1220.06,-492.31 1225.97,-483.52 1215.87,-486.71 1220.06,-492.31"/>
</a>
</g>
<text text-anchor="start" x="779" y="-694.5" font-family="Helvetica,sans-Serif" font-size="10.00" fill="grey">mime_list_in_progress</text>
</g>
<!-- Node12&#45;&gt;Node1 -->
<g id="edge19_Node000001_Node000012" class="edge">
<title>Node12&#45;&gt;Node1</title>
<g id="a_edge19_Node000001_Node000012"><a xlink:title=" ">
<path fill="none" stroke="#9a32cd" stroke-dasharray="5,2" d="M784.74,-241.49C737.59,-241.7 663.94,-243.91 601,-254 520.94,-266.83 502.41,-277.87 425,-302 385.91,-314.19 341.26,-330.31 313.98,-340.42"/>
<polygon fill="#9a32cd" stroke="#9a32cd" points="784.97,-244.99 794.97,-241.48 784.96,-237.99 784.97,-244.99"/>
</a>
</g>
<text text-anchor="start" x="453" y="-307.5" font-family="Helvetica,sans-Serif" font-size="10.00" fill="grey">get_info_in_progress</text>
</g>
<!-- Node13&#45;&gt;Node1 -->
<g id="edge21_Node000001_Node000013" class="edge">
<title>Node13&#45;&gt;Node1</title>
<g id="a_edge21_Node000001_Node000013"><a xlink:title=" ">
<path fill="none" stroke="#9a32cd" stroke-dasharray="5,2" d="M1181.82,-372.09C1145.19,-366.58 1097.89,-354.87 1063,-330 1003.57,-287.65 1025.87,-242.11 971,-194 945.59,-171.72 935.89,-167.76 903,-160 696.12,-111.16 613.43,-77.62 425,-176 352.51,-213.85 306.15,-309.17 292.62,-340.13"/>
<polygon fill="#9a32cd" stroke="#9a32cd" points="1181.46,-375.58 1191.85,-373.49 1182.42,-368.64 1181.46,-375.58"/>
</a>
</g>
<text text-anchor="start" x="794" y="-165.5" font-family="Helvetica,sans-Serif" font-size="10.00" fill="grey">thumbnail_state</text>
</g>
<!-- Node14&#45;&gt;Node1 -->
<g id="edge24_Node000001_Node000014" class="edge">
<title>Node14&#45;&gt;Node1</title>
<g id="a_edge24_Node000001_Node000014"><a xlink:title=" ">
<path fill="none" stroke="#9a32cd" stroke-dasharray="5,2" d="M1192.24,-278.52C1154.38,-276 1100.85,-267.3 1063,-240 1050.39,-230.9 1055.51,-221.46 1045,-210 992.32,-152.52 977.16,-131.06 903,-107 801.95,-74.21 520.67,-67.82 425,-114 331.01,-159.37 297.67,-301.67 290.22,-340.26"/>
<polygon fill="#9a32cd" stroke="#9a32cd" points="1192.31,-282.03 1202.48,-279.08 1192.69,-275.04 1192.31,-282.03"/>
</a>
</g>
<text text-anchor="start" x="803" y="-112.5" font-family="Helvetica,sans-Serif" font-size="10.00" fill="grey">mount_state</text>
</g>
<!-- Node15&#45;&gt;Node1 -->
<g id="edge27_Node000001_Node000015" class="edge">
<title>Node15&#45;&gt;Node1</title>
<g id="a_edge27_Node000001_Node000015"><a xlink:title=" ">
<path fill="none" stroke="#9a32cd" stroke-dasharray="5,2" d="M1216.06,-173.58C1164.97,-137.97 1040.72,-53 1018,-53 503,-53 503,-53 503,-53 435.42,-53 407.51,-66.91 367,-121 312.58,-193.66 294.11,-306.73 289.66,-340.3"/>
<polygon fill="#9a32cd" stroke="#9a32cd" points="1214.23,-176.58 1224.43,-179.44 1218.24,-170.84 1214.23,-176.58"/>
</a>
</g>
<text text-anchor="start" x="781" y="-58.5" font-family="Helvetica,sans-Serif" font-size="10.00" fill="grey">filesystem_info_state</text>
</g>
<!-- Node16&#45;&gt;Node1 -->
<g id="edge30_Node000001_Node000016" class="edge">
<title>Node16&#45;&gt;Node1</title>
<g id="a_edge30_Node000001_Node000016"><a xlink:title=" ">
<path fill="none" stroke="#9a32cd" stroke-dasharray="5,2" d="M1221.71,-106.9C1187.47,-72.88 1104.05,0 1018,0 503,0 503,0 503,0 433.97,0 410,-21 367,-75 298.96,-160.45 289.89,-302.13 288.68,-340.28"/>
<polygon fill="#9a32cd" stroke="#9a32cd" points="1219.46,-109.6 1228.97,-114.27 1224.45,-104.69 1219.46,-109.6"/>
</a>
</g>
<text text-anchor="start" x="787" y="-5.5" font-family="Helvetica,sans-Serif" font-size="10.00" fill="grey">top_left_read_state</text>
</g>
<!-- Node17&#45;&gt;Node1 -->
<g id="edge33_Node000001_Node000017" class="edge">
<title>Node17&#45;&gt;Node1</title>
<g id="a_edge33_Node000001_Node000017"><a xlink:title=" ">
<path fill="none" stroke="#9a32cd" stroke-dasharray="5,2" d="M1221.03,-741.59C1186.14,-773.88 1102.5,-842 1018,-842 503,-842 503,-842 503,-842 284.49,-842 286.31,-429.17 288.16,-359.83"/>
<polygon fill="#9a32cd" stroke="#9a32cd" points="1223.59,-743.99 1228.46,-734.57 1218.79,-738.9 1223.59,-743.99"/>
</a>
</g>
<text text-anchor="start" x="784" y="-847.5" font-family="Helvetica,sans-Serif" font-size="10.00" fill="grey">link_info_read_state</text>
</g>
</g>
</svg>
