<?xml version="1.0" encoding="UTF-8" standalone="no"?>
<!DOCTYPE svg PUBLIC "-//W3C//DTD SVG 1.1//EN"
 "http://www.w3.org/Graphics/SVG/1.1/DTD/svg11.dtd">
<!-- Generated by graphviz version 2.43.0 (0)
 -->
<!-- Title: MsdKeybindingsPlugin Pages: 1 -->
<svg width="304pt" height="243pt"
 viewBox="0.00 0.00 304.00 243.00" xmlns="http://www.w3.org/2000/svg" xmlns:xlink="http://www.w3.org/1999/xlink">

<svg id="main" version="1.1" xmlns="http://www.w3.org/2000/svg" xmlns:xlink="http://www.w3.org/1999/xlink" xml:space="preserve">

<style type="text/css"><![CDATA[
.node, .edge {opacity: 0.7;}
.node.selected, .edge.selected {opacity: 1;}
.edge:hover path { stroke: red; }
.edge:hover polygon { stroke: red; fill: red; }
]]></style>
<script type="application/ecmascript" xlink:href="svg.min.js"/>
<svg id="graph" class="graph">
<g id="graph0" class="graph" transform="scale(1 1) rotate(0) translate(4 239)">
<title>MsdKeybindingsPlugin</title>
<!-- Node1 -->
<g id="Node000001" class="node">
<title>Node1</title>
<g id="a_Node000001"><a xlink:title=" ">
<polygon fill="#999999" stroke="#666666" points="171.5,-19 45.5,-19 45.5,0 171.5,0 171.5,-19"/>
<text text-anchor="middle" x="108.5" y="-7" font-family="Helvetica,sans-Serif" font-size="10.00">MsdKeybindingsPlugin</text>
</a>
</g>
</g>
<!-- Node2 -->
<g id="Node000002" class="node">
<title>Node2</title>
<g id="a_Node000002"><a xlink:href="structMateSettingsPlugin.html" target="_top" xlink:title=" ">
<polygon fill="white" stroke="#666666" points="111,-91 0,-91 0,-72 111,-72 111,-91"/>
<text text-anchor="middle" x="55.5" y="-79" font-family="Helvetica,sans-Serif" font-size="10.00">MateSettingsPlugin</text>
</a>
</g>
</g>
<!-- Node2&#45;&gt;Node1 -->
<g id="edge1_Node000001_Node000002" class="edge">
<title>Node2&#45;&gt;Node1</title>
<g id="a_edge1_Node000001_Node000002"><a xlink:title=" ">
<path fill="none" stroke="#9a32cd" stroke-dasharray="5,2" d="M68.28,-63.62C78.9,-49.59 93.58,-30.21 101.95,-19.15"/>
<polygon fill="#9a32cd" stroke="#9a32cd" points="65.24,-61.83 62,-71.92 70.83,-66.06 65.24,-61.83"/>
</a>
</g>
<text text-anchor="start" x="90.5" y="-42.5" font-family="Helvetica,sans-Serif" font-size="10.00" fill="grey">parent</text>
</g>
<!-- Node3 -->
<g id="Node000003" class="node">
<title>Node3</title>
<g id="a_Node000003"><a xlink:title=" ">
<polygon fill="white" stroke="#666666" points="290,-91 129,-91 129,-72 290,-72 290,-91"/>
<text text-anchor="middle" x="209.5" y="-79" font-family="Helvetica,sans-Serif" font-size="10.00">MsdKeybindingsPluginPrivate</text>
</a>
</g>
</g>
<!-- Node3&#45;&gt;Node1 -->
<g id="edge2_Node000001_Node000003" class="edge">
<title>Node3&#45;&gt;Node1</title>
<g id="a_edge2_Node000001_Node000003"><a xlink:title=" ">
<path fill="none" stroke="#9a32cd" stroke-dasharray="5,2" d="M188.8,-66.16C168.41,-52.02 137.93,-30.89 120.99,-19.15"/>
<polygon fill="#9a32cd" stroke="#9a32cd" points="186.9,-69.1 197.12,-71.92 190.89,-63.34 186.9,-69.1"/>
</a>
</g>
<text text-anchor="start" x="174" y="-42.5" font-family="Helvetica,sans-Serif" font-size="10.00" fill="grey">priv</text>
</g>
<!-- Node4 -->
<g id="Node000004" class="node">
<title>Node4</title>
<g id="a_Node000004"><a xlink:href="structMsdKeybindingsManager.html" target="_top" xlink:title=" ">
<polygon fill="white" stroke="#666666" points="279,-163 140,-163 140,-144 279,-144 279,-163"/>
<text text-anchor="middle" x="209.5" y="-151" font-family="Helvetica,sans-Serif" font-size="10.00">MsdKeybindingsManager</text>
</a>
</g>
</g>
<!-- Node4&#45;&gt;Node3 -->
<g id="edge3_Node000003_Node000004" class="edge">
<title>Node4&#45;&gt;Node3</title>
<g id="a_edge3_Node000003_Node000004"><a xlink:title=" ">
<path fill="none" stroke="#9a32cd" stroke-dasharray="5,2" d="M209.5,-133.58C209.5,-119.76 209.5,-101.68 209.5,-91.15"/>
<polygon fill="#9a32cd" stroke="#9a32cd" points="206,-133.92 209.5,-143.92 213,-133.92 206,-133.92"/>
</a>
</g>
<text text-anchor="start" x="212.5" y="-114.5" font-family="Helvetica,sans-Serif" font-size="10.00" fill="grey">manager</text>
</g>
<!-- Node5 -->
<g id="Node000005" class="node">
<title>Node5</title>
<g id="a_Node000005"><a xlink:title=" ">
<polygon fill="white" stroke="#666666" points="296,-235 123,-235 123,-216 296,-216 296,-235"/>
<text text-anchor="middle" x="209.5" y="-223" font-family="Helvetica,sans-Serif" font-size="10.00">MsdKeybindingsManagerPrivate</text>
</a>
</g>
</g>
<!-- Node5&#45;&gt;Node4 -->
<g id="edge4_Node000004_Node000005" class="edge">
<title>Node5&#45;&gt;Node4</title>
<g id="a_edge4_Node000004_Node000005"><a xlink:title=" ">
<path fill="none" stroke="#9a32cd" stroke-dasharray="5,2" d="M209.5,-205.58C209.5,-191.76 209.5,-173.68 209.5,-163.15"/>
<polygon fill="#9a32cd" stroke="#9a32cd" points="206,-205.92 209.5,-215.92 213,-205.92 206,-205.92"/>
</a>
</g>
<text text-anchor="start" x="213" y="-186.5" font-family="Helvetica,sans-Serif" font-size="10.00" fill="grey">priv</text>
</g>
</g>
</svg>
</svg>

<style type='text/css'>
<![CDATA[
[data-mouse-over-selected='false'] { opacity: 0.7; }
[data-mouse-over-selected='true']  { opacity: 1.0; }
]]>
</style>
<script type="application/ecmascript"><![CDATA[
document.addEventListener('DOMContentLoaded', (event) => {
  highlightEdges();
  highlightAdjacentNodes();
});
]]></script>
</svg>
