<?xml version="1.0" encoding="UTF-8" standalone="no"?>
<!DOCTYPE svg PUBLIC "-//W3C//DTD SVG 1.1//EN"
 "http://www.w3.org/Graphics/SVG/1.1/DTD/svg11.dtd">
<!-- Generated by graphviz version 2.43.0 (0)
 -->
<!-- Title: _FrCommandJar Pages: 1 -->
<svg width="285pt" height="402pt"
 viewBox="0.00 0.00 285.00 402.00" xmlns="http://www.w3.org/2000/svg" xmlns:xlink="http://www.w3.org/1999/xlink">
<g id="graph0" class="graph" transform="scale(1 1) rotate(0) translate(4 398)">
<title>_FrCommandJar</title>
<!-- Node1 -->
<g id="Node000001" class="node">
<title>Node1</title>
<g id="a_Node000001"><a xlink:title=" ">
<polygon fill="#999999" stroke="#666666" points="172.5,-19 78.5,-19 78.5,0 172.5,0 172.5,-19"/>
<text text-anchor="middle" x="125.5" y="-7" font-family="Helvetica,sans-Serif" font-size="10.00">_FrCommandJar</text>
</a>
</g>
</g>
<!-- Node2 -->
<g id="Node000002" class="node">
<title>Node2</title>
<g id="a_Node000002"><a xlink:href="struct__FrCommandZip.html" target="_top" xlink:title=" ">
<polygon fill="white" stroke="#666666" points="174,-91 77,-91 77,-72 174,-72 174,-91"/>
<text text-anchor="middle" x="125.5" y="-79" font-family="Helvetica,sans-Serif" font-size="10.00">_FrCommandZip</text>
</a>
</g>
</g>
<!-- Node2&#45;&gt;Node1 -->
<g id="edge1_Node000001_Node000002" class="edge">
<title>Node2&#45;&gt;Node1</title>
<g id="a_edge1_Node000001_Node000002"><a xlink:title=" ">
<path fill="none" stroke="#9a32cd" stroke-dasharray="5,2" d="M125.5,-61.58C125.5,-47.76 125.5,-29.68 125.5,-19.15"/>
<polygon fill="#9a32cd" stroke="#9a32cd" points="122,-61.92 125.5,-71.92 129,-61.92 122,-61.92"/>
</a>
</g>
<text text-anchor="start" x="129" y="-42.5" font-family="Helvetica,sans-Serif" font-size="10.00" fill="grey">__parent</text>
</g>
<!-- Node3 -->
<g id="Node000003" class="node">
<title>Node3</title>
<g id="a_Node000003"><a xlink:href="struct__FrCommand.html" target="_top" xlink:title=" ">
<polygon fill="white" stroke="#666666" points="166,-163 85,-163 85,-144 166,-144 166,-163"/>
<text text-anchor="middle" x="125.5" y="-151" font-family="Helvetica,sans-Serif" font-size="10.00">_FrCommand</text>
</a>
</g>
</g>
<!-- Node3&#45;&gt;Node2 -->
<g id="edge2_Node000002_Node000003" class="edge">
<title>Node3&#45;&gt;Node2</title>
<g id="a_edge2_Node000002_Node000003"><a xlink:title=" ">
<path fill="none" stroke="#9a32cd" stroke-dasharray="5,2" d="M125.5,-133.58C125.5,-119.76 125.5,-101.68 125.5,-91.15"/>
<polygon fill="#9a32cd" stroke="#9a32cd" points="122,-133.92 125.5,-143.92 129,-133.92 122,-133.92"/>
</a>
</g>
<text text-anchor="start" x="129" y="-114.5" font-family="Helvetica,sans-Serif" font-size="10.00" fill="grey">__parent</text>
</g>
<!-- Node4 -->
<g id="Node000004" class="node">
<title>Node4</title>
<g id="a_Node000004"><a xlink:href="struct__FrProcess.html" target="_top" xlink:title=" ">
<polygon fill="white" stroke="#666666" points="159.5,-235 91.5,-235 91.5,-216 159.5,-216 159.5,-235"/>
<text text-anchor="middle" x="125.5" y="-223" font-family="Helvetica,sans-Serif" font-size="10.00">_FrProcess</text>
</a>
</g>
</g>
<!-- Node4&#45;&gt;Node3 -->
<g id="edge3_Node000003_Node000004" class="edge">
<title>Node4&#45;&gt;Node3</title>
<g id="a_edge3_Node000003_Node000004"><a xlink:title=" ">
<path fill="none" stroke="#9a32cd" stroke-dasharray="5,2" d="M125.5,-205.58C125.5,-191.76 125.5,-173.68 125.5,-163.15"/>
<polygon fill="#9a32cd" stroke="#9a32cd" points="122,-205.92 125.5,-215.92 129,-205.92 122,-205.92"/>
</a>
</g>
<text text-anchor="start" x="128.5" y="-186.5" font-family="Helvetica,sans-Serif" font-size="10.00" fill="grey">process</text>
</g>
<!-- Node5 -->
<g id="Node000005" class="node">
<title>Node5</title>
<g id="a_Node000005"><a xlink:href="structFrChannelData.html" target="_top" xlink:title=" ">
<polygon fill="white" stroke="#666666" points="89,-322 0,-322 0,-303 89,-303 89,-322"/>
<text text-anchor="middle" x="44.5" y="-310" font-family="Helvetica,sans-Serif" font-size="10.00">FrChannelData</text>
</a>
</g>
</g>
<!-- Node5&#45;&gt;Node4 -->
<g id="edge4_Node000004_Node000005" class="edge">
<title>Node5&#45;&gt;Node4</title>
<g id="a_edge4_Node000004_Node000005"><a xlink:title=" ">
<path fill="none" stroke="#9a32cd" stroke-dasharray="5,2" d="M55.62,-294.56C64.1,-282.3 76.51,-265.72 89.5,-253 96.38,-246.27 105.04,-239.84 112.14,-235"/>
<polygon fill="#9a32cd" stroke="#9a32cd" points="52.64,-292.71 49.95,-302.96 58.44,-296.63 52.64,-292.71"/>
</a>
</g>
<text text-anchor="start" x="92.5" y="-274" font-family="Helvetica,sans-Serif" font-size="10.00" fill="grey">err</text>
<text text-anchor="start" x="92.5" y="-259" font-family="Helvetica,sans-Serif" font-size="10.00" fill="grey">out</text>
</g>
<!-- Node6 -->
<g id="Node000006" class="node">
<title>Node6</title>
<g id="a_Node000006"><a xlink:href="structFrProcError.html" target="_top" xlink:title=" ">
<polygon fill="white" stroke="#666666" points="176.5,-394 106.5,-394 106.5,-375 176.5,-375 176.5,-394"/>
<text text-anchor="middle" x="141.5" y="-382" font-family="Helvetica,sans-Serif" font-size="10.00">FrProcError</text>
</a>
</g>
</g>
<!-- Node6&#45;&gt;Node4 -->
<g id="edge5_Node000004_Node000006" class="edge">
<title>Node6&#45;&gt;Node4</title>
<g id="a_edge5_Node000004_Node000006"><a xlink:title=" ">
<path fill="none" stroke="#9a32cd" stroke-dasharray="5,2" d="M139.24,-364.5C137.82,-352.35 135.98,-336.26 134.5,-322 131.17,-290.03 127.75,-251.99 126.26,-235.2"/>
<polygon fill="#9a32cd" stroke="#9a32cd" points="135.8,-365.23 140.45,-374.75 142.75,-364.41 135.8,-365.23"/>
</a>
</g>
<text text-anchor="start" x="137.5" y="-309.5" font-family="Helvetica,sans-Serif" font-size="10.00" fill="grey">error</text>
</g>
<!-- Node7 -->
<g id="Node000007" class="node">
<title>Node7</title>
<g id="a_Node000007"><a xlink:title=" ">
<polygon fill="white" stroke="#666666" points="277,-322 174,-322 174,-303 277,-303 277,-322"/>
<text text-anchor="middle" x="225.5" y="-310" font-family="Helvetica,sans-Serif" font-size="10.00">_FrProcessPrivate</text>
</a>
</g>
</g>
<!-- Node6&#45;&gt;Node7 -->
<g id="edge7_Node000007_Node000006" class="edge">
<title>Node6&#45;&gt;Node7</title>
<g id="a_edge7_Node000007_Node000006"><a xlink:title=" ">
<path fill="none" stroke="#9a32cd" stroke-dasharray="5,2" d="M159.87,-368.19C176.8,-354.08 201.34,-333.63 215.12,-322.15"/>
<polygon fill="#9a32cd" stroke="#9a32cd" points="157.24,-365.83 151.8,-374.92 161.72,-371.2 157.24,-365.83"/>
</a>
</g>
<text text-anchor="start" x="196.5" y="-345.5" font-family="Helvetica,sans-Serif" font-size="10.00" fill="grey">first_error</text>
</g>
<!-- Node7&#45;&gt;Node4 -->
<g id="edge6_Node000004_Node000007" class="edge">
<title>Node7&#45;&gt;Node4</title>
<g id="a_edge6_Node000004_Node000007"><a xlink:title=" ">
<path fill="none" stroke="#9a32cd" stroke-dasharray="5,2" d="M207.29,-296.02C186.26,-278.15 152.41,-249.38 135.62,-235.1"/>
<polygon fill="#9a32cd" stroke="#9a32cd" points="205.29,-298.91 215.17,-302.72 209.82,-293.58 205.29,-298.91"/>
</a>
</g>
<text text-anchor="start" x="197" y="-266" font-family="Helvetica,sans-Serif" font-size="10.00" fill="grey">priv</text>
</g>
</g>
</svg>
