<?xml version="1.0" encoding="UTF-8" standalone="no"?>
<!DOCTYPE svg PUBLIC "-//W3C//DTD SVG 1.1//EN"
 "http://www.w3.org/Graphics/SVG/1.1/DTD/svg11.dtd">
<!-- Generated by graphviz version 2.43.0 (0)
 -->
<!-- Title: _AlsaStreamControl Pages: 1 -->
<svg width="461pt" height="315pt"
 viewBox="0.00 0.00 461.00 315.00" xmlns="http://www.w3.org/2000/svg" xmlns:xlink="http://www.w3.org/1999/xlink">
<g id="graph0" class="graph" transform="scale(1 1) rotate(0) translate(4 311)">
<title>_AlsaStreamControl</title>
<!-- Node1 -->
<g id="Node000001" class="node">
<title>Node1</title>
<g id="a_Node000001"><a xlink:title=" ">
<polygon fill="#999999" stroke="#666666" points="201.5,-163 88.5,-163 88.5,-144 201.5,-144 201.5,-163"/>
<text text-anchor="middle" x="145" y="-151" font-family="Helvetica,sans-Serif" font-size="10.00">_AlsaStreamControl</text>
</a>
</g>
</g>
<!-- Node2 -->
<g id="Node000002" class="node">
<title>Node2</title>
<g id="a_Node000002"><a xlink:href="struct__MateMixerStreamControl.html" target="_top" xlink:title=" ">
<polygon fill="white" stroke="#666666" points="310,-235 166,-235 166,-216 310,-216 310,-235"/>
<text text-anchor="middle" x="238" y="-223" font-family="Helvetica,sans-Serif" font-size="10.00">_MateMixerStreamControl</text>
</a>
</g>
</g>
<!-- Node2&#45;&gt;Node1 -->
<g id="edge1_Node000001_Node000002" class="edge">
<title>Node2&#45;&gt;Node1</title>
<g id="a_edge1_Node000001_Node000002"><a xlink:title=" ">
<path fill="none" stroke="#9a32cd" stroke-dasharray="5,2" d="M208.07,-211.46C200.56,-207.6 192.73,-203.04 186,-198 172.21,-187.67 159.07,-172.45 151.53,-163.02"/>
<polygon fill="#9a32cd" stroke="#9a32cd" points="206.78,-214.72 217.3,-215.95 209.84,-208.43 206.78,-214.72"/>
</a>
</g>
<text text-anchor="start" x="189" y="-186.5" font-family="Helvetica,sans-Serif" font-size="10.00" fill="grey">parent</text>
</g>
<!-- Node5 -->
<g id="Node000005" class="node">
<title>Node5</title>
<g id="a_Node000005"><a xlink:title=" ">
<polygon fill="white" stroke="#666666" points="409.5,-163 266.5,-163 266.5,-144 409.5,-144 409.5,-163"/>
<text text-anchor="middle" x="338" y="-151" font-family="Helvetica,sans-Serif" font-size="10.00">_MateMixerStreamPrivate</text>
</a>
</g>
</g>
<!-- Node2&#45;&gt;Node5 -->
<g id="edge7_Node000005_Node000002" class="edge">
<title>Node2&#45;&gt;Node5</title>
<g id="a_edge7_Node000005_Node000002"><a xlink:title=" ">
<path fill="none" stroke="#9a32cd" stroke-dasharray="5,2" d="M258.49,-210.16C278.68,-196.02 308.87,-174.89 325.64,-163.15"/>
<polygon fill="#9a32cd" stroke="#9a32cd" points="256.45,-207.31 250.26,-215.92 260.46,-213.05 256.45,-207.31"/>
</a>
</g>
<text text-anchor="start" x="302" y="-186.5" font-family="Helvetica,sans-Serif" font-size="10.00" fill="grey">control</text>
</g>
<!-- Node3 -->
<g id="Node000003" class="node">
<title>Node3</title>
<g id="a_Node000003"><a xlink:title=" ">
<polygon fill="white" stroke="#666666" points="343.5,-19 164.5,-19 164.5,0 343.5,0 343.5,-19"/>
<text text-anchor="middle" x="254" y="-7" font-family="Helvetica,sans-Serif" font-size="10.00">_MateMixerStreamControlPrivate</text>
</a>
</g>
</g>
<!-- Node3&#45;&gt;Node2 -->
<g id="edge2_Node000002_Node000003" class="edge">
<title>Node3&#45;&gt;Node2</title>
<g id="a_edge2_Node000002_Node000003"><a xlink:title=" ">
<path fill="none" stroke="#9a32cd" stroke-dasharray="5,2" d="M252.6,-29.26C249.27,-73.72 241.02,-184.12 238.65,-215.85"/>
<polygon fill="#9a32cd" stroke="#9a32cd" points="256.11,-29.26 253.36,-19.03 249.13,-28.74 256.11,-29.26"/>
</a>
</g>
<text text-anchor="start" x="249.5" y="-114.5" font-family="Helvetica,sans-Serif" font-size="10.00" fill="grey">priv</text>
</g>
<!-- Node4 -->
<g id="Node000004" class="node">
<title>Node4</title>
<g id="a_Node000004"><a xlink:href="struct__MateMixerStream.html" target="_top" xlink:title=" ">
<polygon fill="white" stroke="#666666" points="383.5,-91 274.5,-91 274.5,-72 383.5,-72 383.5,-91"/>
<text text-anchor="middle" x="329" y="-79" font-family="Helvetica,sans-Serif" font-size="10.00">_MateMixerStream</text>
</a>
</g>
</g>
<!-- Node4&#45;&gt;Node3 -->
<g id="edge3_Node000003_Node000004" class="edge">
<title>Node4&#45;&gt;Node3</title>
<g id="a_edge3_Node000003_Node000004"><a xlink:title=" ">
<path fill="none" stroke="#9a32cd" stroke-dasharray="5,2" d="M312.18,-64.8C297.08,-50.71 275.46,-30.53 263.27,-19.15"/>
<polygon fill="#9a32cd" stroke="#9a32cd" points="310.1,-67.65 319.8,-71.92 314.88,-62.53 310.1,-67.65"/>
</a>
</g>
<text text-anchor="start" x="303.5" y="-42.5" font-family="Helvetica,sans-Serif" font-size="10.00" fill="grey">stream</text>
</g>
<!-- Node5&#45;&gt;Node4 -->
<g id="edge4_Node000004_Node000005" class="edge">
<title>Node5&#45;&gt;Node4</title>
<g id="a_edge4_Node000004_Node000005"><a xlink:title=" ">
<path fill="none" stroke="#9a32cd" stroke-dasharray="5,2" d="M335.62,-133.99C333.84,-120.13 331.48,-101.79 330.11,-91.15"/>
<polygon fill="#9a32cd" stroke="#9a32cd" points="332.15,-134.44 336.9,-143.92 339.09,-133.55 332.15,-134.44"/>
</a>
</g>
<text text-anchor="start" x="337.5" y="-114.5" font-family="Helvetica,sans-Serif" font-size="10.00" fill="grey">priv</text>
</g>
<!-- Node6 -->
<g id="Node000006" class="node">
<title>Node6</title>
<g id="a_Node000006"><a xlink:href="struct__MateMixerDevice.html" target="_top" xlink:title=" ">
<polygon fill="white" stroke="#666666" points="435.5,-235 328.5,-235 328.5,-216 435.5,-216 435.5,-235"/>
<text text-anchor="middle" x="382" y="-223" font-family="Helvetica,sans-Serif" font-size="10.00">_MateMixerDevice</text>
</a>
</g>
</g>
<!-- Node6&#45;&gt;Node5 -->
<g id="edge5_Node000005_Node000006" class="edge">
<title>Node6&#45;&gt;Node5</title>
<g id="a_edge5_Node000005_Node000006"><a xlink:title=" ">
<path fill="none" stroke="#9a32cd" stroke-dasharray="5,2" d="M371.13,-207.21C362.34,-193.22 350.32,-174.1 343.44,-163.15"/>
<polygon fill="#9a32cd" stroke="#9a32cd" points="368.32,-209.31 376.6,-215.92 374.25,-205.59 368.32,-209.31"/>
</a>
</g>
<text text-anchor="start" x="368.5" y="-186.5" font-family="Helvetica,sans-Serif" font-size="10.00" fill="grey">device</text>
</g>
<!-- Node7 -->
<g id="Node000007" class="node">
<title>Node7</title>
<g id="a_Node000007"><a xlink:title=" ">
<polygon fill="white" stroke="#666666" points="453,-307 311,-307 311,-288 453,-288 453,-307"/>
<text text-anchor="middle" x="382" y="-295" font-family="Helvetica,sans-Serif" font-size="10.00">_MateMixerDevicePrivate</text>
</a>
</g>
</g>
<!-- Node7&#45;&gt;Node6 -->
<g id="edge6_Node000006_Node000007" class="edge">
<title>Node7&#45;&gt;Node6</title>
<g id="a_edge6_Node000006_Node000007"><a xlink:title=" ">
<path fill="none" stroke="#9a32cd" stroke-dasharray="5,2" d="M382,-277.58C382,-263.76 382,-245.68 382,-235.15"/>
<polygon fill="#9a32cd" stroke="#9a32cd" points="378.5,-277.92 382,-287.92 385.5,-277.92 378.5,-277.92"/>
</a>
</g>
<text text-anchor="start" x="385.5" y="-258.5" font-family="Helvetica,sans-Serif" font-size="10.00" fill="grey">priv</text>
</g>
<!-- Node8 -->
<g id="Node000008" class="node">
<title>Node8</title>
<g id="a_Node000008"><a xlink:title=" ">
<polygon fill="white" stroke="#666666" points="148,-235 0,-235 0,-216 148,-216 148,-235"/>
<text text-anchor="middle" x="74" y="-223" font-family="Helvetica,sans-Serif" font-size="10.00">_AlsaStreamControlPrivate</text>
</a>
</g>
</g>
<!-- Node8&#45;&gt;Node1 -->
<g id="edge8_Node000001_Node000008" class="edge">
<title>Node8&#45;&gt;Node1</title>
<g id="a_edge8_Node000001_Node000008"><a xlink:title=" ">
<path fill="none" stroke="#9a32cd" stroke-dasharray="5,2" d="M89.92,-208.8C104.22,-194.71 124.69,-174.53 136.22,-163.15"/>
<polygon fill="#9a32cd" stroke="#9a32cd" points="87.37,-206.4 82.71,-215.92 92.28,-211.39 87.37,-206.4"/>
</a>
</g>
<text text-anchor="start" x="121.5" y="-186.5" font-family="Helvetica,sans-Serif" font-size="10.00" fill="grey">priv</text>
</g>
<!-- Node9 -->
<g id="Node000009" class="node">
<title>Node9</title>
<g id="a_Node000009"><a xlink:href="structAlsaControlData.html" target="_top" xlink:title=" ">
<polygon fill="white" stroke="#666666" points="122,-307 26,-307 26,-288 122,-288 122,-307"/>
<text text-anchor="middle" x="74" y="-295" font-family="Helvetica,sans-Serif" font-size="10.00">AlsaControlData</text>
</a>
</g>
</g>
<!-- Node9&#45;&gt;Node8 -->
<g id="edge9_Node000008_Node000009" class="edge">
<title>Node9&#45;&gt;Node8</title>
<g id="a_edge9_Node000008_Node000009"><a xlink:title=" ">
<path fill="none" stroke="#9a32cd" stroke-dasharray="5,2" d="M74,-277.58C74,-263.76 74,-245.68 74,-235.15"/>
<polygon fill="#9a32cd" stroke="#9a32cd" points="70.5,-277.92 74,-287.92 77.5,-277.92 70.5,-277.92"/>
</a>
</g>
<text text-anchor="start" x="77" y="-258.5" font-family="Helvetica,sans-Serif" font-size="10.00" fill="grey">data</text>
</g>
</g>
</svg>
