<?xml version="1.0" encoding="UTF-8" standalone="no"?>
<!DOCTYPE svg PUBLIC "-//W3C//DTD SVG 1.1//EN"
 "http://www.w3.org/Graphics/SVG/1.1/DTD/svg11.dtd">
<!-- Generated by graphviz version 2.43.0 (0)
 -->
<!-- Title: MathButtons Pages: 1 -->
<svg width="296pt" height="675pt"
 viewBox="0.00 0.00 295.50 675.00" xmlns="http://www.w3.org/2000/svg" xmlns:xlink="http://www.w3.org/1999/xlink">
<g id="graph0" class="graph" transform="scale(1 1) rotate(0) translate(4 671)">
<title>MathButtons</title>
<!-- Node1 -->
<g id="Node000001" class="node">
<title>Node1</title>
<g id="a_Node000001"><a xlink:title=" ">
<polygon fill="#999999" stroke="#666666" points="177.5,-19 98.5,-19 98.5,0 177.5,0 177.5,-19"/>
<text text-anchor="middle" x="138" y="-7" font-family="Helvetica,sans-Serif" font-size="10.00">MathButtons</text>
</a>
</g>
</g>
<!-- Node2 -->
<g id="Node000002" class="node">
<title>Node2</title>
<g id="a_Node000002"><a xlink:title=" ">
<polygon fill="white" stroke="#666666" points="194.5,-91 81.5,-91 81.5,-72 194.5,-72 194.5,-91"/>
<text text-anchor="middle" x="138" y="-79" font-family="Helvetica,sans-Serif" font-size="10.00">MathButtonsPrivate</text>
</a>
</g>
</g>
<!-- Node2&#45;&gt;Node1 -->
<g id="edge1_Node000001_Node000002" class="edge">
<title>Node2&#45;&gt;Node1</title>
<g id="a_edge1_Node000001_Node000002"><a xlink:title=" ">
<path fill="none" stroke="#9a32cd" stroke-dasharray="5,2" d="M138,-61.58C138,-47.76 138,-29.68 138,-19.15"/>
<polygon fill="#9a32cd" stroke="#9a32cd" points="134.5,-61.92 138,-71.92 141.5,-61.92 134.5,-61.92"/>
</a>
</g>
<text text-anchor="start" x="141.5" y="-42.5" font-family="Helvetica,sans-Serif" font-size="10.00" fill="grey">priv</text>
</g>
<!-- Node3 -->
<g id="Node000003" class="node">
<title>Node3</title>
<g id="a_Node000003"><a xlink:href="structMathEquation.html" target="_top" xlink:title=" ">
<polygon fill="white" stroke="#666666" points="180,-307 96,-307 96,-288 180,-288 180,-307"/>
<text text-anchor="middle" x="138" y="-295" font-family="Helvetica,sans-Serif" font-size="10.00">MathEquation</text>
</a>
</g>
</g>
<!-- Node3&#45;&gt;Node2 -->
<g id="edge2_Node000002_Node000003" class="edge">
<title>Node3&#45;&gt;Node2</title>
<g id="a_edge2_Node000002_Node000003"><a xlink:title=" ">
<path fill="none" stroke="#9a32cd" stroke-dasharray="5,2" d="M138,-277.84C138,-233.4 138,-122.61 138,-91.03"/>
<polygon fill="#9a32cd" stroke="#9a32cd" points="134.5,-277.85 138,-287.85 141.5,-277.85 134.5,-277.85"/>
</a>
</g>
<text text-anchor="start" x="141.5" y="-186.5" font-family="Helvetica,sans-Serif" font-size="10.00" fill="grey">equation</text>
</g>
<!-- Node12 -->
<g id="Node000012" class="node">
<title>Node12</title>
<g id="a_Node000012"><a xlink:title=" ">
<polygon fill="white" stroke="#666666" points="274,-235 150,-235 150,-216 274,-216 274,-235"/>
<text text-anchor="middle" x="212" y="-223" font-family="Helvetica,sans-Serif" font-size="10.00">MathConverterPrivate</text>
</a>
</g>
</g>
<!-- Node3&#45;&gt;Node12 -->
<g id="edge13_Node000012_Node000003" class="edge">
<title>Node3&#45;&gt;Node12</title>
<g id="a_edge13_Node000012_Node000003"><a xlink:title=" ">
<path fill="none" stroke="#9a32cd" stroke-dasharray="5,2" d="M154.59,-280.8C169.5,-266.71 190.83,-246.53 202.85,-235.15"/>
<polygon fill="#9a32cd" stroke="#9a32cd" points="151.93,-278.5 147.07,-287.92 156.74,-283.59 151.93,-278.5"/>
</a>
</g>
<text text-anchor="start" x="186.5" y="-258.5" font-family="Helvetica,sans-Serif" font-size="10.00" fill="grey">equation</text>
</g>
<!-- Node4 -->
<g id="Node000004" class="node">
<title>Node4</title>
<g id="a_Node000004"><a xlink:title=" ">
<polygon fill="white" stroke="#666666" points="197.5,-379 78.5,-379 78.5,-360 197.5,-360 197.5,-379"/>
<text text-anchor="middle" x="138" y="-367" font-family="Helvetica,sans-Serif" font-size="10.00">MathEquationPrivate</text>
</a>
</g>
</g>
<!-- Node4&#45;&gt;Node3 -->
<g id="edge3_Node000003_Node000004" class="edge">
<title>Node4&#45;&gt;Node3</title>
<g id="a_edge3_Node000003_Node000004"><a xlink:title=" ">
<path fill="none" stroke="#9a32cd" stroke-dasharray="5,2" d="M138,-349.58C138,-335.76 138,-317.68 138,-307.15"/>
<polygon fill="#9a32cd" stroke="#9a32cd" points="134.5,-349.92 138,-359.92 141.5,-349.92 134.5,-349.92"/>
</a>
</g>
<text text-anchor="start" x="141.5" y="-330.5" font-family="Helvetica,sans-Serif" font-size="10.00" fill="grey">priv</text>
</g>
<!-- Node5 -->
<g id="Node000005" class="node">
<title>Node5</title>
<g id="a_Node000005"><a xlink:title=" ">
<polygon fill="white" stroke="#666666" points="110,-451 0,-451 0,-432 110,-432 110,-451"/>
<text text-anchor="middle" x="55" y="-439" font-family="Helvetica,sans-Serif" font-size="10.00">MathEquationState</text>
</a>
</g>
</g>
<!-- Node5&#45;&gt;Node4 -->
<g id="edge4_Node000004_Node000005" class="edge">
<title>Node5&#45;&gt;Node4</title>
<g id="a_edge4_Node000004_Node000005"><a xlink:title=" ">
<path fill="none" stroke="#9a32cd" stroke-dasharray="5,2" d="M67.43,-423.85C74.36,-415.22 83.51,-404.87 93,-397 101.37,-390.05 111.78,-383.8 120.48,-379.11"/>
<polygon fill="#9a32cd" stroke="#9a32cd" points="64.66,-421.71 61.29,-431.75 70.19,-426 64.66,-421.71"/>
</a>
</g>
<text text-anchor="start" x="96.5" y="-402.5" font-family="Helvetica,sans-Serif" font-size="10.00" fill="grey">state</text>
</g>
<!-- Node6 -->
<g id="Node000006" class="node">
<title>Node6</title>
<g id="a_Node000006"><a xlink:href="structMPNumber.html" target="_top" xlink:title=" ">
<polygon fill="white" stroke="#666666" points="90.5,-523 19.5,-523 19.5,-504 90.5,-504 90.5,-523"/>
<text text-anchor="middle" x="55" y="-511" font-family="Helvetica,sans-Serif" font-size="10.00">MPNumber</text>
</a>
</g>
</g>
<!-- Node6&#45;&gt;Node5 -->
<g id="edge5_Node000005_Node000006" class="edge">
<title>Node6&#45;&gt;Node5</title>
<g id="a_edge5_Node000005_Node000006"><a xlink:title=" ">
<path fill="none" stroke="#9a32cd" stroke-dasharray="5,2" d="M55,-493.58C55,-479.76 55,-461.68 55,-451.15"/>
<polygon fill="#9a32cd" stroke="#9a32cd" points="51.5,-493.92 55,-503.92 58.5,-493.92 51.5,-493.92"/>
</a>
</g>
<text text-anchor="start" x="58" y="-474.5" font-family="Helvetica,sans-Serif" font-size="10.00" fill="grey">ans</text>
</g>
<!-- Node7 -->
<g id="Node000007" class="node">
<title>Node7</title>
<g id="a_Node000007"><a xlink:href="structMathVariables.html" target="_top" xlink:title=" ">
<polygon fill="white" stroke="#666666" points="258,-451 172,-451 172,-432 258,-432 258,-451"/>
<text text-anchor="middle" x="215" y="-439" font-family="Helvetica,sans-Serif" font-size="10.00">MathVariables</text>
</a>
</g>
</g>
<!-- Node7&#45;&gt;Node4 -->
<g id="edge6_Node000004_Node000007" class="edge">
<title>Node7&#45;&gt;Node4</title>
<g id="a_edge6_Node000004_Node000007"><a xlink:title=" ">
<path fill="none" stroke="#9a32cd" stroke-dasharray="5,2" d="M197.73,-424.8C182.23,-410.71 160.03,-390.53 147.52,-379.15"/>
<polygon fill="#9a32cd" stroke="#9a32cd" points="195.8,-427.78 205.56,-431.92 200.51,-422.6 195.8,-427.78"/>
</a>
</g>
<text text-anchor="start" x="188" y="-402.5" font-family="Helvetica,sans-Serif" font-size="10.00" fill="grey">variables</text>
</g>
<!-- Node8 -->
<g id="Node000008" class="node">
<title>Node8</title>
<g id="a_Node000008"><a xlink:title=" ">
<polygon fill="white" stroke="#666666" points="287.5,-523 166.5,-523 166.5,-504 287.5,-504 287.5,-523"/>
<text text-anchor="middle" x="227" y="-511" font-family="Helvetica,sans-Serif" font-size="10.00">MathVariablesPrivate</text>
</a>
</g>
</g>
<!-- Node8&#45;&gt;Node7 -->
<g id="edge7_Node000007_Node000008" class="edge">
<title>Node8&#45;&gt;Node7</title>
<g id="a_edge7_Node000007_Node000008"><a xlink:title=" ">
<path fill="none" stroke="#9a32cd" stroke-dasharray="5,2" d="M223.83,-493.99C221.45,-480.13 218.31,-461.79 216.48,-451.15"/>
<polygon fill="#9a32cd" stroke="#9a32cd" points="220.39,-494.65 225.53,-503.92 227.29,-493.47 220.39,-494.65"/>
</a>
</g>
<text text-anchor="start" x="225.5" y="-474.5" font-family="Helvetica,sans-Serif" font-size="10.00" fill="grey">priv</text>
</g>
<!-- Node9 -->
<g id="Node000009" class="node">
<title>Node9</title>
<g id="a_Node000009"><a xlink:href="structMpSerializer.html" target="_top" xlink:title=" ">
<polygon fill="white" stroke="#666666" points="192.5,-595 115.5,-595 115.5,-576 192.5,-576 192.5,-595"/>
<text text-anchor="middle" x="154" y="-583" font-family="Helvetica,sans-Serif" font-size="10.00">MpSerializer</text>
</a>
</g>
</g>
<!-- Node9&#45;&gt;Node4 -->
<g id="edge10_Node000004_Node000009" class="edge">
<title>Node9&#45;&gt;Node4</title>
<g id="a_edge10_Node000004_Node000009"><a xlink:title=" ">
<path fill="none" stroke="#9a32cd" stroke-dasharray="5,2" d="M152.61,-565.84C149.28,-521.4 141,-410.61 138.64,-379.03"/>
<polygon fill="#9a32cd" stroke="#9a32cd" points="149.12,-566.13 153.35,-575.85 156.1,-565.61 149.12,-566.13"/>
</a>
</g>
<text text-anchor="start" x="149" y="-474.5" font-family="Helvetica,sans-Serif" font-size="10.00" fill="grey">serializer</text>
</g>
<!-- Node9&#45;&gt;Node8 -->
<g id="edge8_Node000008_Node000009" class="edge">
<title>Node9&#45;&gt;Node8</title>
<g id="a_edge8_Node000008_Node000009"><a xlink:title=" ">
<path fill="none" stroke="#9a32cd" stroke-dasharray="5,2" d="M170.37,-568.8C185.07,-554.71 206.12,-534.53 217.98,-523.15"/>
<polygon fill="#9a32cd" stroke="#9a32cd" points="167.75,-566.47 162.95,-575.92 172.59,-571.52 167.75,-566.47"/>
</a>
</g>
<text text-anchor="start" x="202" y="-546.5" font-family="Helvetica,sans-Serif" font-size="10.00" fill="grey">serializer</text>
</g>
<!-- Node10 -->
<g id="Node000010" class="node">
<title>Node10</title>
<g id="a_Node000010"><a xlink:title=" ">
<polygon fill="white" stroke="#666666" points="210,-667 98,-667 98,-648 210,-648 210,-667"/>
<text text-anchor="middle" x="154" y="-655" font-family="Helvetica,sans-Serif" font-size="10.00">MpSerializerPrivate</text>
</a>
</g>
</g>
<!-- Node10&#45;&gt;Node9 -->
<g id="edge9_Node000009_Node000010" class="edge">
<title>Node10&#45;&gt;Node9</title>
<g id="a_edge9_Node000009_Node000010"><a xlink:title=" ">
<path fill="none" stroke="#9a32cd" stroke-dasharray="5,2" d="M154,-637.58C154,-623.76 154,-605.68 154,-595.15"/>
<polygon fill="#9a32cd" stroke="#9a32cd" points="150.5,-637.92 154,-647.92 157.5,-637.92 150.5,-637.92"/>
</a>
</g>
<text text-anchor="start" x="157.5" y="-618.5" font-family="Helvetica,sans-Serif" font-size="10.00" fill="grey">priv</text>
</g>
<!-- Node11 -->
<g id="Node000011" class="node">
<title>Node11</title>
<g id="a_Node000011"><a xlink:href="structMathConverter.html" target="_top" xlink:title=" ">
<polygon fill="white" stroke="#666666" points="247.5,-163 158.5,-163 158.5,-144 247.5,-144 247.5,-163"/>
<text text-anchor="middle" x="203" y="-151" font-family="Helvetica,sans-Serif" font-size="10.00">MathConverter</text>
</a>
</g>
</g>
<!-- Node11&#45;&gt;Node2 -->
<g id="edge11_Node000002_Node000011" class="edge">
<title>Node11&#45;&gt;Node2</title>
<g id="a_edge11_Node000002_Node000011"><a xlink:title=" ">
<path fill="none" stroke="#9a32cd" stroke-dasharray="5,2" d="M188.06,-136.41C174.99,-122.33 156.5,-102.42 146.04,-91.15"/>
<polygon fill="#9a32cd" stroke="#9a32cd" points="185.66,-138.97 195.03,-143.92 190.79,-134.21 185.66,-138.97"/>
</a>
</g>
<text text-anchor="start" x="181.5" y="-114.5" font-family="Helvetica,sans-Serif" font-size="10.00" fill="grey">converter</text>
</g>
<!-- Node12&#45;&gt;Node11 -->
<g id="edge12_Node000011_Node000012" class="edge">
<title>Node12&#45;&gt;Node11</title>
<g id="a_edge12_Node000011_Node000012"><a xlink:title=" ">
<path fill="none" stroke="#9a32cd" stroke-dasharray="5,2" d="M209.62,-205.99C207.84,-192.13 205.48,-173.79 204.11,-163.15"/>
<polygon fill="#9a32cd" stroke="#9a32cd" points="206.15,-206.44 210.9,-215.92 213.09,-205.55 206.15,-206.44"/>
</a>
</g>
<text text-anchor="start" x="211.5" y="-186.5" font-family="Helvetica,sans-Serif" font-size="10.00" fill="grey">priv</text>
</g>
</g>
</svg>
