<?xml version="1.0" encoding="UTF-8" standalone="no"?>
<!DOCTYPE svg PUBLIC "-//W3C//DTD SVG 1.1//EN"
 "http://www.w3.org/Graphics/SVG/1.1/DTD/svg11.dtd">
<!-- Generated by graphviz version 2.43.0 (0)
 -->
<!-- Title: _MetaWindowMenu Pages: 1 -->
<!--zoomable 580 -->

<svg id="main" version="1.1" xmlns="http://www.w3.org/2000/svg" xmlns:xlink="http://www.w3.org/1999/xlink" xml:space="preserve" onload="init(evt)">

<style type="text/css"><![CDATA[
.node, .edge {opacity: 0.7;}
.node.selected, .edge.selected {opacity: 1;}
.edge:hover path { stroke: red; }
.edge:hover polygon { stroke: red; fill: red; }
]]></style>

<defs>
  <circle id="rim" cx="0" cy="0" r="7"/>
  <circle id="rim2" cx="0" cy="0" r="3.5"/>
  <g id="zoomPlus">
    <use xlink:href="#rim" fill="#404040"><set attributeName="fill" to="#808080" begin="zoomplus.mouseover" end="zoomplus.mouseout"/></use>
    <path d="M-4,0h8M0,-4v8" fill="none" stroke="white" stroke-width="1.5" pointer-events="none"/>
  </g>
  <g id="zoomMin">
    <use xlink:href="#rim" fill="#404040"><set attributeName="fill" to="#808080" begin="zoomminus.mouseover" end="zoomminus.mouseout"/></use>
    <path d="M-4,0h8" fill="none" stroke="white" stroke-width="1.5" pointer-events="none"/>
  </g>
  <g id="arrowUp" transform="translate(30 24)">
    <use xlink:href="#rim"/>
    <path pointer-events="none" fill="none" stroke="white" stroke-width="1.5" d="M0,-3.0v7 M-2.5,-0.5L0,-3.0L2.5,-0.5"/>
  </g>
  <g id="arrowRight" transform="rotate(90) translate(36 -43)">
    <use xlink:href="#rim"/>
    <path pointer-events="none" fill="none" stroke="white" stroke-width="1.5" d="M0,-3.0v7 M-2.5,-0.5L0,-3.0L2.5,-0.5"/>
  </g>
  <g id="arrowDown" transform="rotate(180) translate(-30 -48)">
    <use xlink:href="#rim"/>
    <path pointer-events="none" fill="none" stroke="white" stroke-width="1.5" d="M0,-3.0v7 M-2.5,-0.5L0,-3.0L2.5,-0.5"/>
  </g>
  <g id="arrowLeft" transform="rotate(270) translate(-36 17)">
    <use xlink:href="#rim"/>
    <path pointer-events="none" fill="none" stroke="white" stroke-width="1.5" d="M0,-3.0v7 M-2.5,-0.5L0,-3.0L2.5,-0.5"/>
  </g>
  <g id="resetDef">
    <use xlink:href="#rim2" fill="#404040"><set attributeName="fill" to="#808080" begin="reset.mouseover" end="reset.mouseout"/></use>
  </g>
</defs>
<script type="application/ecmascript">
var viewWidth = 851;
var viewHeight = 580;
var sectionId = 'dynsection-0';
</script>
<script type="application/ecmascript" xlink:href="svg.min.js"/>
<svg id="graph" class="graph">
<g id="viewport">
<title>_MetaWindowMenu</title>
<!-- Node1 -->
<g id="Node000001" class="node">
<title>Node1</title>
<g id="a_Node000001"><a xlink:title=" ">
<polygon fill="#999999" stroke="#666666" points="206.5,-19 93.5,-19 93.5,0 206.5,0 206.5,-19"/>
<text text-anchor="middle" x="150" y="-7" font-family="Helvetica,sans-Serif" font-size="10.00">_MetaWindowMenu</text>
</a>
</g>
</g>
<!-- Node1&#45;&gt;Node1 -->
<g id="edge16_Node000001_Node000001" class="edge">
<title>Node1&#45;&gt;Node1</title>
<g id="a_edge16_Node000001_Node000001"><a xlink:title=" ">
<path fill="none" stroke="#9a32cd" stroke-dasharray="5,2" d="M216.49,-14.53C221.45,-13.41 224.5,-11.73 224.5,-9.5 224.5,-6.02 217.07,-3.89 206.53,-3.1"/>
<polygon fill="#9a32cd" stroke="#9a32cd" points="215.95,-11.07 206.53,-15.9 216.91,-18.01 215.95,-11.07"/>
</a>
</g>
<text text-anchor="start" x="227.5" y="-6.5" font-family="Helvetica,sans-Serif" font-size="10.00" fill="grey">func</text>
</g>
<!-- Node2 -->
<g id="Node000002" class="node">
<title>Node2</title>
<g id="a_Node000002"><a xlink:href="struct__MetaFrames.html" target="_top" xlink:title=" ">
<polygon fill="white" stroke="#666666" points="191.5,-91 108.5,-91 108.5,-72 191.5,-72 191.5,-91"/>
<text text-anchor="middle" x="150" y="-79" font-family="Helvetica,sans-Serif" font-size="10.00">_MetaFrames</text>
</a>
</g>
</g>
<!-- Node2&#45;&gt;Node1 -->
<g id="edge1_Node000001_Node000002" class="edge">
<title>Node2&#45;&gt;Node1</title>
<g id="a_edge1_Node000001_Node000002"><a xlink:title=" ">
<path fill="none" stroke="#9a32cd" stroke-dasharray="5,2" d="M150,-61.58C150,-47.76 150,-29.68 150,-19.15"/>
<polygon fill="#9a32cd" stroke="#9a32cd" points="146.5,-61.92 150,-71.92 153.5,-61.92 146.5,-61.92"/>
</a>
</g>
<text text-anchor="start" x="153.5" y="-42.5" font-family="Helvetica,sans-Serif" font-size="10.00" fill="grey">frames</text>
</g>
<!-- Node3 -->
<g id="Node000003" class="node">
<title>Node3</title>
<g id="a_Node000003"><a xlink:href="struct__MetaUIFrame.html" target="_top" xlink:title=" ">
<polygon fill="white" stroke="#666666" points="194,-163 106,-163 106,-144 194,-144 194,-163"/>
<text text-anchor="middle" x="150" y="-151" font-family="Helvetica,sans-Serif" font-size="10.00">_MetaUIFrame</text>
</a>
</g>
</g>
<!-- Node3&#45;&gt;Node2 -->
<g id="edge2_Node000002_Node000003" class="edge">
<title>Node3&#45;&gt;Node2</title>
<g id="a_edge2_Node000002_Node000003"><a xlink:title=" ">
<path fill="none" stroke="#9a32cd" stroke-dasharray="5,2" d="M150,-133.58C150,-119.76 150,-101.68 150,-91.15"/>
<polygon fill="#9a32cd" stroke="#9a32cd" points="146.5,-133.92 150,-143.92 153.5,-133.92 146.5,-133.92"/>
</a>
</g>
<text text-anchor="start" x="153.5" y="-114.5" font-family="Helvetica,sans-Serif" font-size="10.00" fill="grey">last_motion_frame</text>
</g>
<!-- Node4 -->
<g id="Node000004" class="node">
<title>Node4</title>
<g id="a_Node000004"><a xlink:href="struct__MetaFrameStyle.html" target="_top" xlink:title=" ">
<polygon fill="white" stroke="#666666" points="201,-235 99,-235 99,-216 201,-216 201,-235"/>
<text text-anchor="middle" x="150" y="-223" font-family="Helvetica,sans-Serif" font-size="10.00">_MetaFrameStyle</text>
</a>
</g>
</g>
<!-- Node4&#45;&gt;Node3 -->
<g id="edge3_Node000003_Node000004" class="edge">
<title>Node4&#45;&gt;Node3</title>
<g id="a_edge3_Node000003_Node000004"><a xlink:title=" ">
<path fill="none" stroke="#9a32cd" stroke-dasharray="5,2" d="M150,-205.58C150,-191.76 150,-173.68 150,-163.15"/>
<polygon fill="#9a32cd" stroke="#9a32cd" points="146.5,-205.92 150,-215.92 153.5,-205.92 146.5,-205.92"/>
</a>
</g>
<text text-anchor="start" x="153" y="-186.5" font-family="Helvetica,sans-Serif" font-size="10.00" fill="grey">cache_style</text>
</g>
<!-- Node4&#45;&gt;Node4 -->
<g id="edge4_Node000004_Node000004" class="edge">
<title>Node4&#45;&gt;Node4</title>
<g id="a_edge4_Node000004_Node000004"><a xlink:title=" ">
<path fill="none" stroke="#9a32cd" stroke-dasharray="5,2" d="M211.37,-230.58C216.09,-229.46 219,-227.76 219,-225.5 219,-221.88 211.55,-219.71 201.15,-219.01"/>
<polygon fill="#9a32cd" stroke="#9a32cd" points="210.58,-227.16 201.15,-231.99 211.54,-234.09 210.58,-227.16"/>
</a>
</g>
<text text-anchor="start" x="222" y="-222.5" font-family="Helvetica,sans-Serif" font-size="10.00" fill="grey">parent</text>
</g>
<!-- Node5 -->
<g id="Node000005" class="node">
<title>Node5</title>
<g id="a_Node000005"><a xlink:href="struct__MetaDrawOpList.html" target="_top" xlink:title=" ">
<polygon fill="white" stroke="#666666" points="828.5,-478.5 725.5,-478.5 725.5,-459.5 828.5,-459.5 828.5,-478.5"/>
<text text-anchor="middle" x="777" y="-466.5" font-family="Helvetica,sans-Serif" font-size="10.00">_MetaDrawOpList</text>
</a>
</g>
</g>
<!-- Node5&#45;&gt;Node4 -->
<g id="edge5_Node000004_Node000005" class="edge">
<title>Node5&#45;&gt;Node4</title>
<g id="a_edge5_Node000004_Node000005"><a xlink:title=" ">
<path fill="none" stroke="#9a32cd" stroke-dasharray="5,2" d="M750.5,-454.78C724.38,-441.64 688.05,-423 686,-420 664.93,-389.16 694.22,-278.58 667,-253 650.22,-237.23 328.79,-229.72 201.38,-227.36"/>
<polygon fill="#9a32cd" stroke="#9a32cd" points="749.08,-457.98 759.58,-459.34 752.21,-451.73 749.08,-457.98"/>
</a>
</g>
<text text-anchor="start" x="689.5" y="-341.5" font-family="Helvetica,sans-Serif" font-size="10.00" fill="grey">buttons</text>
<text text-anchor="start" x="689.5" y="-326.5" font-family="Helvetica,sans-Serif" font-size="10.00" fill="grey">pieces</text>
</g>
<!-- Node6 -->
<g id="Node000006" class="node">
<title>Node6</title>
<g id="a_Node000006"><a xlink:href="struct__MetaDrawOp.html" target="_top" xlink:title=" ">
<polygon fill="white" stroke="#666666" points="592,-235 506,-235 506,-216 592,-216 592,-235"/>
<text text-anchor="middle" x="549" y="-223" font-family="Helvetica,sans-Serif" font-size="10.00">_MetaDrawOp</text>
</a>
</g>
</g>
<!-- Node5&#45;&gt;Node6 -->
<g id="edge13_Node000006_Node000005" class="edge">
<title>Node5&#45;&gt;Node6</title>
<g id="a_edge13_Node000006_Node000005"><a xlink:title=" ">
<path fill="none" stroke="#9a32cd" stroke-dasharray="5,2" d="M765.99,-450.65C760.9,-441.81 755.27,-430.69 752,-420 741.08,-384.28 759.02,-279.8 733,-253 714.06,-233.49 640.34,-228.18 592.16,-226.83"/>
<polygon fill="#9a32cd" stroke="#9a32cd" points="763,-452.47 771.16,-459.23 768.99,-448.86 763,-452.47"/>
</a>
</g>
<text text-anchor="start" x="755.5" y="-333.5" font-family="Helvetica,sans-Serif" font-size="10.00" fill="grey">op_list</text>
</g>
<!-- Node6&#45;&gt;Node5 -->
<g id="edge6_Node000005_Node000006" class="edge">
<title>Node6&#45;&gt;Node5</title>
<g id="a_edge6_Node000005_Node000006"><a xlink:title=" ">
<path fill="none" stroke="#9a32cd" stroke-dasharray="5,2" d="M602.39,-228.53C670.88,-231.69 782.37,-238.94 795,-253 849.56,-313.75 798.14,-426.95 781.68,-459.21"/>
<polygon fill="#9a32cd" stroke="#9a32cd" points="602.35,-225.02 592.21,-228.07 602.04,-232.02 602.35,-225.02"/>
</a>
</g>
<text text-anchor="start" x="822" y="-333.5" font-family="Helvetica,sans-Serif" font-size="10.00" fill="grey">ops</text>
</g>
<!-- Node7 -->
<g id="Node000007" class="node">
<title>Node7</title>
<g id="a_Node000007"><a xlink:href="struct__MetaColorSpec.html" target="_top" xlink:title=" ">
<polygon fill="white" stroke="#666666" points="223.5,-478.5 128.5,-478.5 128.5,-459.5 223.5,-459.5 223.5,-478.5"/>
<text text-anchor="middle" x="176" y="-466.5" font-family="Helvetica,sans-Serif" font-size="10.00">_MetaColorSpec</text>
</a>
</g>
</g>
<!-- Node7&#45;&gt;Node4 -->
<g id="edge15_Node000004_Node000007" class="edge">
<title>Node7&#45;&gt;Node4</title>
<g id="a_edge15_Node000004_Node000007"><a xlink:title=" ">
<path fill="none" stroke="#9a32cd" stroke-dasharray="5,2" d="M164.49,-450.79C159.27,-441.98 153.69,-430.85 151,-420 133.81,-350.54 144.53,-262.71 148.62,-235.16"/>
<polygon fill="#9a32cd" stroke="#9a32cd" points="161.56,-452.71 169.84,-459.31 167.49,-448.98 161.56,-452.71"/>
</a>
</g>
<text text-anchor="start" x="154" y="-333.5" font-family="Helvetica,sans-Serif" font-size="10.00" fill="grey">window_background_color</text>
</g>
<!-- Node7&#45;&gt;Node6 -->
<g id="edge7_Node000006_Node000007" class="edge">
<title>Node7&#45;&gt;Node6</title>
<g id="a_edge7_Node000006_Node000007"><a xlink:title=" ">
<path fill="none" stroke="#9a32cd" stroke-dasharray="5,2" d="M231.66,-456.41C252.19,-449.31 273.67,-437.98 287,-420 309.24,-390 279.53,-279.35 306,-253 319.87,-239.19 439.97,-231.52 505.97,-228.32"/>
<polygon fill="#9a32cd" stroke="#9a32cd" points="230.49,-453.11 222.01,-459.47 232.61,-459.78 230.49,-453.11"/>
</a>
</g>
<text text-anchor="start" x="309.5" y="-341.5" font-family="Helvetica,sans-Serif" font-size="10.00" fill="grey">color_spec</text>
<text text-anchor="start" x="309.5" y="-326.5" font-family="Helvetica,sans-Serif" font-size="10.00" fill="grey">colorize_spec</text>
</g>
<!-- Node7&#45;&gt;Node7 -->
<g id="edge8_Node000007_Node000007" class="edge">
<title>Node7&#45;&gt;Node7</title>
<g id="a_edge8_Node000007_Node000007"><a xlink:title=" ">
<path fill="none" stroke="#9a32cd" stroke-dasharray="5,2" d="M214.02,-479.45C229,-479.97 241.5,-476.49 241.5,-469 241.5,-459.87 222.92,-456.69 203.94,-459.47"/>
<polygon fill="#9a32cd" stroke="#9a32cd" points="214.21,-475.95 203.94,-478.53 213.58,-482.92 214.21,-475.95"/>
</a>
</g>
<text text-anchor="start" x="244.5" y="-489" font-family="Helvetica,sans-Serif" font-size="10.00" fill="grey">background</text>
<text text-anchor="start" x="244.5" y="-474" font-family="Helvetica,sans-Serif" font-size="10.00" fill="grey">base</text>
<text text-anchor="start" x="244.5" y="-459" font-family="Helvetica,sans-Serif" font-size="10.00" fill="grey">fallback</text>
<text text-anchor="start" x="244.5" y="-444" font-family="Helvetica,sans-Serif" font-size="10.00" fill="grey">foreground</text>
</g>
<!-- Node8 -->
<g id="Node000008" class="node">
<title>Node8</title>
<g id="a_Node000008"><a xlink:href="struct__MetaDrawSpec.html" target="_top" xlink:title=" ">
<polygon fill="white" stroke="#666666" points="418.5,-478.5 323.5,-478.5 323.5,-459.5 418.5,-459.5 418.5,-478.5"/>
<text text-anchor="middle" x="371" y="-466.5" font-family="Helvetica,sans-Serif" font-size="10.00">_MetaDrawSpec</text>
</a>
</g>
</g>
<!-- Node8&#45;&gt;Node6 -->
<g id="edge9_Node000006_Node000008" class="edge">
<title>Node8&#45;&gt;Node6</title>
<g id="a_edge9_Node000006_Node000008"><a xlink:title=" ">
<path fill="none" stroke="#9a32cd" stroke-dasharray="5,2" d="M376.13,-449.55C378.47,-440.67 381.13,-429.84 383,-420 390,-383.23 379.22,-280.13 405,-253 418.57,-238.72 468.5,-232.02 505.78,-228.95"/>
<polygon fill="#9a32cd" stroke="#9a32cd" points="372.75,-448.65 373.52,-459.22 379.51,-450.48 372.75,-448.65"/>
</a>
</g>
<text text-anchor="start" x="408.5" y="-408.5" font-family="Helvetica,sans-Serif" font-size="10.00" fill="grey">ellipsize_width</text>
<text text-anchor="start" x="408.5" y="-393.5" font-family="Helvetica,sans-Serif" font-size="10.00" fill="grey">height</text>
<text text-anchor="start" x="408.5" y="-378.5" font-family="Helvetica,sans-Serif" font-size="10.00" fill="grey">tile_height</text>
<text text-anchor="start" x="408.5" y="-363.5" font-family="Helvetica,sans-Serif" font-size="10.00" fill="grey">tile_width</text>
<text text-anchor="start" x="408.5" y="-348.5" font-family="Helvetica,sans-Serif" font-size="10.00" fill="grey">tile_xoffset</text>
<text text-anchor="start" x="408.5" y="-333.5" font-family="Helvetica,sans-Serif" font-size="10.00" fill="grey">tile_yoffset</text>
<text text-anchor="start" x="408.5" y="-318.5" font-family="Helvetica,sans-Serif" font-size="10.00" fill="grey">width</text>
<text text-anchor="start" x="408.5" y="-303.5" font-family="Helvetica,sans-Serif" font-size="10.00" fill="grey">x</text>
<text text-anchor="start" x="408.5" y="-288.5" font-family="Helvetica,sans-Serif" font-size="10.00" fill="grey">x1</text>
<text text-anchor="start" x="408.5" y="-273.5" font-family="Helvetica,sans-Serif" font-size="10.00" fill="grey">x2</text>
<text text-anchor="start" x="408.5" y="-258.5" font-family="Helvetica,sans-Serif" font-size="10.00" fill="grey"> &#160;...</text>
</g>
<!-- Node9 -->
<g id="Node000009" class="node">
<title>Node9</title>
<g id="a_Node000009"><a xlink:href="structPosToken.html" target="_top" xlink:title=" ">
<polygon fill="white" stroke="#666666" points="402,-572 340,-572 340,-553 402,-553 402,-572"/>
<text text-anchor="middle" x="371" y="-560" font-family="Helvetica,sans-Serif" font-size="10.00">PosToken</text>
</a>
</g>
</g>
<!-- Node9&#45;&gt;Node8 -->
<g id="edge10_Node000008_Node000009" class="edge">
<title>Node9&#45;&gt;Node8</title>
<g id="a_edge10_Node000008_Node000009"><a xlink:title=" ">
<path fill="none" stroke="#9a32cd" stroke-dasharray="5,2" d="M371,-542.54C371,-522.92 371,-493.16 371,-478.61"/>
<polygon fill="#9a32cd" stroke="#9a32cd" points="367.5,-542.73 371,-552.73 374.5,-542.73 367.5,-542.73"/>
</a>
</g>
<text text-anchor="start" x="374.5" y="-523.5" font-family="Helvetica,sans-Serif" font-size="10.00" fill="grey">tokens</text>
</g>
<!-- Node10 -->
<g id="Node000010" class="node">
<title>Node10</title>
<g id="a_Node000010"><a xlink:href="struct__MetaAlphaGradientSpec.html" target="_top" xlink:title=" ">
<polygon fill="white" stroke="#666666" points="577,-478.5 437,-478.5 437,-459.5 577,-459.5 577,-478.5"/>
<text text-anchor="middle" x="507" y="-466.5" font-family="Helvetica,sans-Serif" font-size="10.00">_MetaAlphaGradientSpec</text>
</a>
</g>
</g>
<!-- Node10&#45;&gt;Node6 -->
<g id="edge11_Node000006_Node000010" class="edge">
<title>Node10&#45;&gt;Node6</title>
<g id="a_edge11_Node000006_Node000010"><a xlink:title=" ">
<path fill="none" stroke="#9a32cd" stroke-dasharray="5,2" d="M501.59,-449.58C491.23,-410.52 472.6,-317.67 508,-253 512.31,-245.12 520.08,-239.22 527.71,-235.02"/>
<polygon fill="#9a32cd" stroke="#9a32cd" points="498.3,-450.81 504.35,-459.5 505.04,-448.93 498.3,-450.81"/>
</a>
</g>
<text text-anchor="start" x="511.5" y="-333.5" font-family="Helvetica,sans-Serif" font-size="10.00" fill="grey">alpha_spec</text>
</g>
<!-- Node11 -->
<g id="Node000011" class="node">
<title>Node11</title>
<g id="a_Node000011"><a xlink:href="struct__MetaGradientSpec.html" target="_top" xlink:title=" ">
<polygon fill="white" stroke="#666666" points="707,-478.5 595,-478.5 595,-459.5 707,-459.5 707,-478.5"/>
<text text-anchor="middle" x="651" y="-466.5" font-family="Helvetica,sans-Serif" font-size="10.00">_MetaGradientSpec</text>
</a>
</g>
</g>
<!-- Node11&#45;&gt;Node6 -->
<g id="edge12_Node000006_Node000011" class="edge">
<title>Node11&#45;&gt;Node6</title>
<g id="a_edge12_Node000006_Node000011"><a xlink:title=" ">
<path fill="none" stroke="#9a32cd" stroke-dasharray="5,2" d="M626.25,-454.08C613.92,-445.81 599.97,-434.17 592,-420 555.27,-354.7 597.6,-322.25 569,-253 566.27,-246.39 561.49,-239.97 557.29,-235.1"/>
<polygon fill="#9a32cd" stroke="#9a32cd" points="624.52,-457.12 634.84,-459.49 628.25,-451.2 624.52,-457.12"/>
</a>
</g>
<text text-anchor="start" x="595.5" y="-333.5" font-family="Helvetica,sans-Serif" font-size="10.00" fill="grey">gradient_spec</text>
</g>
<!-- Node12 -->
<g id="Node000012" class="node">
<title>Node12</title>
<g id="a_Node000012"><a xlink:href="struct__MetaFrameLayout.html" target="_top" xlink:title=" ">
<polygon fill="white" stroke="#666666" points="110,-478.5 0,-478.5 0,-459.5 110,-459.5 110,-478.5"/>
<text text-anchor="middle" x="55" y="-466.5" font-family="Helvetica,sans-Serif" font-size="10.00">_MetaFrameLayout</text>
</a>
</g>
</g>
<!-- Node12&#45;&gt;Node4 -->
<g id="edge14_Node000004_Node000012" class="edge">
<title>Node12&#45;&gt;Node4</title>
<g id="a_edge14_Node000004_Node000012"><a xlink:title=" ">
<path fill="none" stroke="#9a32cd" stroke-dasharray="5,2" d="M54.03,-449.16C52.95,-408.95 55.71,-313.47 101,-253 106.97,-245.03 116.07,-239.18 124.81,-235.04"/>
<polygon fill="#9a32cd" stroke="#9a32cd" points="50.54,-449.31 54.42,-459.17 57.53,-449.04 50.54,-449.31"/>
</a>
</g>
<text text-anchor="start" x="104.5" y="-333.5" font-family="Helvetica,sans-Serif" font-size="10.00" fill="grey">layout</text>
</g>
</g>
</svg>

<g id="navigator" transform="translate(0 0)" fill="#404254">
  <rect fill="#f2f5e9" fill-opacity="0.5" stroke="#606060" stroke-width=".5" x="0" y="0" width="60" height="60"/>
  <use id="zoomplus" xlink:href="#zoomPlus" x="17" y="9" onmousedown="handleZoom(evt,'in')"/>
  <use id="zoomminus" xlink:href="#zoomMin" x="42" y="9" onmousedown="handleZoom(evt,'out')"/>
  <use id="reset" xlink:href="#resetDef" x="30" y="36" onmousedown="handleReset()"/>
   <use id="arrowup" xlink:href="#arrowUp" x="0" y="0" onmousedown="handlePan(0,-1)"/>
  <use id="arrowright" xlink:href="#arrowRight" x="0" y="0" onmousedown="handlePan(1,0)"/>
  <use id="arrowdown" xlink:href="#arrowDown" x="0" y="0" onmousedown="handlePan(0,1)"/>
  <use id="arrowleft" xlink:href="#arrowLeft" x="0" y="0" onmousedown="handlePan(-1,0)"/>
</g>
<svg viewBox="0 0 15 15" width="100%" height="30px" preserveAspectRatio="xMaxYMin meet">
 <g id="arrow_out" transform="scale(0.3 0.3)">
  <a xlink:href="struct__MetaWindowMenu__coll__graph_org.svg" target="_base">
   <rect id="button" ry="5" rx="5" y="6" x="6" height="38" width="38"
        fill="#f2f5e9" fill-opacity="0.5" stroke="#606060" stroke-width="1.0"/>
   <path id="arrow"
     d="M 11.500037,31.436501 C 11.940474,20.09759 22.043105,11.32322 32.158766,21.979434 L 37.068811,17.246167 C 37.068811,17.246167 37.088388,32 37.088388,32 L 22.160133,31.978069 C 22.160133,31.978069 26.997745,27.140456 26.997745,27.140456 C 18.528582,18.264221 13.291696,25.230495 11.500037,31.436501 z"
     style="fill:#404040;"/>
  </a>
 </g>
</svg>

<style type='text/css'>
<![CDATA[
[data-mouse-over-selected='false'] { opacity: 0.7; }
[data-mouse-over-selected='true']  { opacity: 1.0; }
]]>
</style>
<script type="application/ecmascript"><![CDATA[
document.addEventListener('DOMContentLoaded', (event) => {
  highlightEdges();
  highlightAdjacentNodes();
});
]]></script>
</svg>
