<?xml version="1.0" encoding="UTF-8" standalone="no"?>
<!DOCTYPE svg PUBLIC "-//W3C//DTD SVG 1.1//EN"
 "http://www.w3.org/Graphics/SVG/1.1/DTD/svg11.dtd">
<!-- Generated by graphviz version 2.43.0 (0)
 -->
<!-- Title: _CajaLocationDialog Pages: 1 -->
<svg width="3182pt" height="534pt"
 viewBox="0.00 0.00 3181.50 534.00" xmlns="http://www.w3.org/2000/svg" xmlns:xlink="http://www.w3.org/1999/xlink">
<g id="graph0" class="graph" transform="scale(1 1) rotate(0) translate(4 530)">
<title>_CajaLocationDialog</title>
<!-- Node1 -->
<g id="Node000001" class="node">
<title>Node1</title>
<g id="a_Node000001"><a xlink:title=" ">
<polygon fill="#999999" stroke="#666666" points="133.5,-163 17.5,-163 17.5,-144 133.5,-144 133.5,-163"/>
<text text-anchor="middle" x="75.5" y="-151" font-family="Helvetica,sans-Serif" font-size="10.00">_CajaLocationDialog</text>
</a>
</g>
</g>
<!-- Node2 -->
<g id="Node000002" class="node">
<title>Node2</title>
<g id="a_Node000002"><a xlink:title=" ">
<polygon fill="white" stroke="#666666" points="151,-250 0,-250 0,-231 151,-231 151,-250"/>
<text text-anchor="middle" x="75.5" y="-238" font-family="Helvetica,sans-Serif" font-size="10.00">_CajaLocationDialogDetails</text>
</a>
</g>
</g>
<!-- Node2&#45;&gt;Node1 -->
<g id="edge1_Node000001_Node000002" class="edge">
<title>Node2&#45;&gt;Node1</title>
<g id="a_edge1_Node000001_Node000002"><a xlink:title=" ">
<path fill="none" stroke="#9a32cd" stroke-dasharray="5,2" d="M75.5,-220.62C75.5,-202.79 75.5,-176.83 75.5,-163.36"/>
<polygon fill="#9a32cd" stroke="#9a32cd" points="72,-220.72 75.5,-230.72 79,-220.72 72,-220.72"/>
</a>
</g>
<text text-anchor="start" x="78.5" y="-194" font-family="Helvetica,sans-Serif" font-size="10.00" fill="grey">details</text>
</g>
<!-- Node3 -->
<g id="Node000003" class="node">
<title>Node3</title>
<g id="a_Node000003"><a xlink:href="structCajaWindow.html" target="_top" xlink:title=" ">
<polygon fill="white" stroke="#666666" points="460,-337 383,-337 383,-318 460,-318 460,-337"/>
<text text-anchor="middle" x="421.5" y="-325" font-family="Helvetica,sans-Serif" font-size="10.00">CajaWindow</text>
</a>
</g>
</g>
<!-- Node3&#45;&gt;Node2 -->
<g id="edge2_Node000002_Node000003" class="edge">
<title>Node3&#45;&gt;Node2</title>
<g id="a_edge2_Node000002_Node000003"><a xlink:title=" ">
<path fill="none" stroke="#9a32cd" stroke-dasharray="5,2" d="M372.98,-320.78C339.67,-316.37 294.58,-309.41 255.5,-300 197.68,-286.08 131.64,-262.6 97.91,-250.04"/>
<polygon fill="#9a32cd" stroke="#9a32cd" points="372.56,-324.26 382.92,-322.07 373.46,-317.32 372.56,-324.26"/>
</a>
</g>
<text text-anchor="start" x="258.5" y="-281" font-family="Helvetica,sans-Serif" font-size="10.00" fill="grey">window</text>
</g>
<!-- Node6 -->
<g id="Node000006" class="node">
<title>Node6</title>
<g id="a_Node000006"><a xlink:href="struct__CajaWindowPane.html" target="_top" xlink:title=" ">
<polygon fill="white" stroke="#666666" points="729.5,-250 623.5,-250 623.5,-231 729.5,-231 729.5,-250"/>
<text text-anchor="middle" x="676.5" y="-238" font-family="Helvetica,sans-Serif" font-size="10.00">_CajaWindowPane</text>
</a>
</g>
</g>
<!-- Node3&#45;&gt;Node6 -->
<g id="edge6_Node000006_Node000003" class="edge">
<title>Node3&#45;&gt;Node6</title>
<g id="a_edge6_Node000006_Node000003"><a xlink:title=" ">
<path fill="none" stroke="#9a32cd" stroke-dasharray="5,2" d="M470.24,-318.24C492.81,-313.82 519.81,-307.7 543.5,-300 586.68,-285.97 634.89,-262.75 659.71,-250.2"/>
<polygon fill="#9a32cd" stroke="#9a32cd" points="469.38,-314.84 460.21,-320.14 470.69,-321.71 469.38,-314.84"/>
</a>
</g>
<text text-anchor="start" x="622.5" y="-281" font-family="Helvetica,sans-Serif" font-size="10.00" fill="grey">window</text>
</g>
<!-- Node7 -->
<g id="Node000007" class="node">
<title>Node7</title>
<g id="a_Node000007"><a xlink:href="structCajaWindowSlot.html" target="_top" xlink:title=" ">
<polygon fill="white" stroke="#666666" points="740.5,-163 644.5,-163 644.5,-144 740.5,-144 740.5,-163"/>
<text text-anchor="middle" x="692.5" y="-151" font-family="Helvetica,sans-Serif" font-size="10.00">CajaWindowSlot</text>
</a>
</g>
</g>
<!-- Node3&#45;&gt;Node7 -->
<g id="edge53_Node000007_Node000003" class="edge">
<title>Node3&#45;&gt;Node7</title>
<g id="a_edge53_Node000007_Node000003"><a xlink:title=" ">
<path fill="none" stroke="#9a32cd" stroke-dasharray="5,2" d="M440.15,-311.5C457.55,-296.93 483.59,-273.62 502.5,-250 524.79,-222.15 514.17,-201.3 543.5,-181 559.54,-169.9 607.11,-162.76 644.23,-158.72"/>
<polygon fill="#9a32cd" stroke="#9a32cd" points="437.87,-308.85 432.38,-317.91 442.32,-314.25 437.87,-308.85"/>
</a>
</g>
<text text-anchor="start" x="516.5" y="-237.5" font-family="Helvetica,sans-Serif" font-size="10.00" fill="grey">open_callback</text>
</g>
<!-- Node4 -->
<g id="Node000004" class="node">
<title>Node4</title>
<g id="a_Node000004"><a xlink:href="struct__CajaWindowPrivate.html" target="_top" xlink:title=" ">
<polygon fill="white" stroke="#666666" points="372,-163 255,-163 255,-144 372,-144 372,-163"/>
<text text-anchor="middle" x="313.5" y="-151" font-family="Helvetica,sans-Serif" font-size="10.00">_CajaWindowPrivate</text>
</a>
</g>
</g>
<!-- Node4&#45;&gt;Node3 -->
<g id="edge3_Node000003_Node000004" class="edge">
<title>Node4&#45;&gt;Node3</title>
<g id="a_edge3_Node000003_Node000004"><a xlink:title=" ">
<path fill="none" stroke="#9a32cd" stroke-dasharray="5,2" d="M311.07,-173.14C309.34,-193.37 309.27,-225.99 322.5,-250 340.63,-282.92 379.47,-306.28 402.75,-317.97"/>
<polygon fill="#9a32cd" stroke="#9a32cd" points="314.56,-173.39 312.16,-163.07 307.6,-172.63 314.56,-173.39"/>
</a>
</g>
<text text-anchor="start" x="325.5" y="-237.5" font-family="Helvetica,sans-Serif" font-size="10.00" fill="grey">details</text>
</g>
<!-- Node5 -->
<g id="Node000005" class="node">
<title>Node5</title>
<g id="a_Node000005"><a xlink:href="structCajaBookmarkList.html" target="_top" xlink:title=" ">
<polygon fill="white" stroke="#666666" points="275.5,-250 169.5,-250 169.5,-231 275.5,-231 275.5,-250"/>
<text text-anchor="middle" x="222.5" y="-238" font-family="Helvetica,sans-Serif" font-size="10.00">CajaBookmarkList</text>
</a>
</g>
</g>
<!-- Node5&#45;&gt;Node4 -->
<g id="edge4_Node000004_Node000005" class="edge">
<title>Node5&#45;&gt;Node4</title>
<g id="a_edge4_Node000004_Node000005"><a xlink:title=" ">
<path fill="none" stroke="#9a32cd" stroke-dasharray="5,2" d="M217.59,-221.11C215.39,-208.57 214.93,-192.25 223.5,-181 231.2,-170.89 242.56,-164.48 254.64,-160.46"/>
<polygon fill="#9a32cd" stroke="#9a32cd" points="214.19,-221.94 219.78,-230.94 221.02,-220.42 214.19,-221.94"/>
</a>
</g>
<text text-anchor="start" x="226.5" y="-194" font-family="Helvetica,sans-Serif" font-size="10.00" fill="grey">bookmark_list</text>
</g>
<!-- Node6&#45;&gt;Node4 -->
<g id="edge5_Node000004_Node000006" class="edge">
<title>Node6&#45;&gt;Node4</title>
<g id="a_edge5_Node000004_Node000006"><a xlink:title=" ">
<path fill="none" stroke="#9a32cd" stroke-dasharray="5,2" d="M625.72,-228.43C610,-224.34 592.8,-219.16 577.5,-213 550.19,-202 547.48,-190.15 519.5,-181 471.35,-165.25 414,-158.81 372.05,-156.2"/>
<polygon fill="#9a32cd" stroke="#9a32cd" points="625.25,-231.92 635.8,-230.96 626.95,-225.13 625.25,-231.92"/>
</a>
</g>
<text text-anchor="start" x="580.5" y="-194" font-family="Helvetica,sans-Serif" font-size="10.00" fill="grey">active_pane</text>
</g>
<!-- Node6&#45;&gt;Node7 -->
<g id="edge8_Node000007_Node000006" class="edge">
<title>Node6&#45;&gt;Node7</title>
<g id="a_edge8_Node000007_Node000006"><a xlink:title=" ">
<path fill="none" stroke="#9a32cd" stroke-dasharray="5,2" d="M702.86,-224.82C706.75,-221.46 710.21,-217.52 712.5,-213 718.92,-200.31 717.02,-194.49 712.5,-181 710.3,-174.44 705.77,-168.21 701.58,-163.44"/>
<polygon fill="#9a32cd" stroke="#9a32cd" points="700.53,-222.19 694.51,-230.91 704.66,-227.85 700.53,-222.19"/>
</a>
</g>
<text text-anchor="start" x="720" y="-194" font-family="Helvetica,sans-Serif" font-size="10.00" fill="grey">pane</text>
</g>
<!-- Node7&#45;&gt;Node6 -->
<g id="edge7_Node000006_Node000007" class="edge">
<title>Node7&#45;&gt;Node6</title>
<g id="a_edge7_Node000006_Node000007"><a xlink:title=" ">
<path fill="none" stroke="#9a32cd" stroke-dasharray="5,2" d="M663.12,-168.84C658.85,-172.22 655.05,-176.26 652.5,-181 645.77,-193.53 647.38,-199.73 652.5,-213 655.18,-219.95 660.62,-226.21 665.65,-230.89"/>
<polygon fill="#9a32cd" stroke="#9a32cd" points="665.32,-171.58 671.7,-163.12 661.44,-165.76 665.32,-171.58"/>
</a>
</g>
<text text-anchor="start" x="655.5" y="-194" font-family="Helvetica,sans-Serif" font-size="10.00" fill="grey">active_slot</text>
</g>
<!-- Node28 -->
<g id="Node000028" class="node">
<title>Node28</title>
<g id="a_Node000028"><a xlink:title=" ">
<polygon fill="white" stroke="#666666" points="656,-91 525,-91 525,-72 656,-72 656,-91"/>
<text text-anchor="middle" x="590.5" y="-79" font-family="Helvetica,sans-Serif" font-size="10.00">CajaQueryEditorDetails</text>
</a>
</g>
</g>
<!-- Node7&#45;&gt;Node28 -->
<g id="edge52_Node000028_Node000007" class="edge">
<title>Node7&#45;&gt;Node28</title>
<g id="a_edge52_Node000028_Node000007"><a xlink:title=" ">
<path fill="none" stroke="#9a32cd" stroke-dasharray="5,2" d="M671.29,-138.13C665.51,-134.21 659.26,-129.95 653.5,-126 635.95,-113.98 615.73,-99.99 603.03,-91.19"/>
<polygon fill="#9a32cd" stroke="#9a32cd" points="669.6,-141.21 679.84,-143.93 673.53,-135.42 669.6,-141.21"/>
</a>
</g>
<text text-anchor="start" x="657" y="-114.5" font-family="Helvetica,sans-Serif" font-size="10.00" fill="grey">slot</text>
</g>
<!-- Node8 -->
<g id="Node000008" class="node">
<title>Node8</title>
<g id="a_Node000008"><a xlink:href="structCajaBookmark.html" target="_top" xlink:title=" ">
<polygon fill="white" stroke="#666666" points="934,-250 845,-250 845,-231 934,-231 934,-250"/>
<text text-anchor="middle" x="889.5" y="-238" font-family="Helvetica,sans-Serif" font-size="10.00">CajaBookmark</text>
</a>
</g>
</g>
<!-- Node8&#45;&gt;Node7 -->
<g id="edge9_Node000007_Node000008" class="edge">
<title>Node8&#45;&gt;Node7</title>
<g id="a_edge9_Node000007_Node000008"><a xlink:title=" ">
<path fill="none" stroke="#9a32cd" stroke-dasharray="5,2" d="M857.8,-226.89C849.03,-222.9 839.68,-218.17 831.5,-213 812.84,-201.19 813.1,-191.16 793.5,-181 777.16,-172.53 757.91,-166.61 740.61,-162.55"/>
<polygon fill="#9a32cd" stroke="#9a32cd" points="856.45,-230.12 867.01,-230.91 859.25,-223.7 856.45,-230.12"/>
</a>
</g>
<text text-anchor="start" x="834.5" y="-202" font-family="Helvetica,sans-Serif" font-size="10.00" fill="grey">current_location_bookmark</text>
<text text-anchor="start" x="834.5" y="-187" font-family="Helvetica,sans-Serif" font-size="10.00" fill="grey">last_location_bookmark</text>
</g>
<!-- Node9 -->
<g id="Node000009" class="node">
<title>Node9</title>
<g id="a_Node000009"><a xlink:title=" ">
<polygon fill="white" stroke="#666666" points="957,-337 834,-337 834,-318 957,-318 957,-337"/>
<text text-anchor="middle" x="895.5" y="-325" font-family="Helvetica,sans-Serif" font-size="10.00">CajaBookmarkDetails</text>
</a>
</g>
</g>
<!-- Node9&#45;&gt;Node8 -->
<g id="edge10_Node000008_Node000009" class="edge">
<title>Node9&#45;&gt;Node8</title>
<g id="a_edge10_Node000008_Node000009"><a xlink:title=" ">
<path fill="none" stroke="#9a32cd" stroke-dasharray="5,2" d="M894.17,-307.62C892.91,-289.79 891.08,-263.83 890.13,-250.36"/>
<polygon fill="#9a32cd" stroke="#9a32cd" points="890.68,-307.99 894.88,-317.72 897.67,-307.5 890.68,-307.99"/>
</a>
</g>
<text text-anchor="start" x="896.5" y="-281" font-family="Helvetica,sans-Serif" font-size="10.00" fill="grey">details</text>
</g>
<!-- Node10 -->
<g id="Node000010" class="node">
<title>Node10</title>
<g id="a_Node000010"><a xlink:href="structCajaFile.html" target="_top" xlink:title=" ">
<polygon fill="white" stroke="#666666" points="1761.5,-454 1705.5,-454 1705.5,-435 1761.5,-435 1761.5,-454"/>
<text text-anchor="middle" x="1733.5" y="-442" font-family="Helvetica,sans-Serif" font-size="10.00">CajaFile</text>
</a>
</g>
</g>
<!-- Node10&#45;&gt;Node7 -->
<g id="edge47_Node000007_Node000010" class="edge">
<title>Node10&#45;&gt;Node7</title>
<g id="a_edge47_Node000007_Node000010"><a xlink:title=" ">
<path fill="none" stroke="#9a32cd" stroke-dasharray="5,2" d="M1695.02,-443.06C1535.96,-441.12 936.44,-432.81 899.5,-417 831.31,-387.82 817.13,-364.5 780.5,-300 753.62,-252.66 786.31,-222.85 751.5,-181 744.68,-172.8 734.79,-167.04 725.06,-163.03"/>
<polygon fill="#9a32cd" stroke="#9a32cd" points="1695.23,-446.56 1705.27,-443.18 1695.32,-439.56 1695.23,-446.56"/>
</a>
</g>
<text text-anchor="start" x="783.5" y="-289" font-family="Helvetica,sans-Serif" font-size="10.00" fill="grey">determine_view_file</text>
<text text-anchor="start" x="783.5" y="-274" font-family="Helvetica,sans-Serif" font-size="10.00" fill="grey">viewed_file</text>
</g>
<!-- Node10&#45;&gt;Node9 -->
<g id="edge11_Node000009_Node000010" class="edge">
<title>Node10&#45;&gt;Node9</title>
<g id="a_edge11_Node000009_Node000010"><a xlink:title=" ">
<path fill="none" stroke="#9a32cd" stroke-dasharray="5,2" d="M1694.75,-443.21C1541.16,-441.92 981.95,-435.94 949.5,-417 918.57,-398.94 903.09,-355.48 897.74,-337.02"/>
<polygon fill="#9a32cd" stroke="#9a32cd" points="1695.06,-446.71 1705.09,-443.29 1695.12,-439.71 1695.06,-446.71"/>
</a>
</g>
<text text-anchor="start" x="952.5" y="-383" font-family="Helvetica,sans-Serif" font-size="10.00" fill="grey">file</text>
</g>
<!-- Node13 -->
<g id="Node000013" class="node">
<title>Node13</title>
<g id="a_Node000013"><a xlink:href="struct__CajaDirectoryPrivate.html" target="_top" xlink:title=" ">
<polygon fill="white" stroke="#666666" points="2078,-337 1955,-337 1955,-318 2078,-318 2078,-337"/>
<text text-anchor="middle" x="2016.5" y="-325" font-family="Helvetica,sans-Serif" font-size="10.00">_CajaDirectoryPrivate</text>
</a>
</g>
</g>
<!-- Node10&#45;&gt;Node13 -->
<g id="edge15_Node000013_Node000010" class="edge">
<title>Node10&#45;&gt;Node13</title>
<g id="a_edge15_Node000013_Node000010"><a xlink:title=" ">
<path fill="none" stroke="#9a32cd" stroke-dasharray="5,2" d="M1757.55,-429.68C1791.43,-410.69 1855.54,-376.45 1913.5,-355 1933.41,-347.63 1956.22,-341.54 1975.31,-337.06"/>
<polygon fill="#9a32cd" stroke="#9a32cd" points="1755.43,-426.87 1748.44,-434.83 1758.87,-432.96 1755.43,-426.87"/>
</a>
</g>
<text text-anchor="start" x="1917" y="-406" font-family="Helvetica,sans-Serif" font-size="10.00" fill="grey">as_file</text>
<text text-anchor="start" x="1917" y="-391" font-family="Helvetica,sans-Serif" font-size="10.00" fill="grey">deep_count_file</text>
<text text-anchor="start" x="1917" y="-376" font-family="Helvetica,sans-Serif" font-size="10.00" fill="grey">extension_info_file</text>
<text text-anchor="start" x="1917" y="-361" font-family="Helvetica,sans-Serif" font-size="10.00" fill="grey">get_info_file</text>
</g>
<!-- Node16 -->
<g id="Node000016" class="node">
<title>Node16</title>
<g id="a_Node000016"><a xlink:title=" ">
<polygon fill="white" stroke="#666666" points="1206.5,-163 1096.5,-163 1096.5,-144 1206.5,-144 1206.5,-163"/>
<text text-anchor="middle" x="1151.5" y="-151" font-family="Helvetica,sans-Serif" font-size="10.00">DirectoryLoadState</text>
</a>
</g>
</g>
<!-- Node10&#45;&gt;Node16 -->
<g id="edge20_Node000016_Node000010" class="edge">
<title>Node10&#45;&gt;Node16</title>
<g id="a_edge20_Node000016_Node000010"><a xlink:title=" ">
<path fill="none" stroke="#9a32cd" stroke-dasharray="5,2" d="M1695.2,-443.44C1603.09,-442.94 1371.3,-439.42 1297.5,-417 1198.97,-387.06 1148.74,-389.33 1097.5,-300 1069.75,-251.62 1122.18,-186.35 1143.27,-163.13"/>
<polygon fill="#9a32cd" stroke="#9a32cd" points="1695.2,-446.94 1705.22,-443.49 1695.23,-439.94 1695.2,-446.94"/>
</a>
</g>
<text text-anchor="start" x="1101" y="-281" font-family="Helvetica,sans-Serif" font-size="10.00" fill="grey">load_directory_file</text>
</g>
<!-- Node17 -->
<g id="Node000017" class="node">
<title>Node17</title>
<g id="a_Node000017"><a xlink:title=" ">
<polygon fill="white" stroke="#666666" points="2560.5,-163 2444.5,-163 2444.5,-144 2560.5,-144 2560.5,-163"/>
<text text-anchor="middle" x="2502.5" y="-151" font-family="Helvetica,sans-Serif" font-size="10.00">DirectoryCountState</text>
</a>
</g>
</g>
<!-- Node10&#45;&gt;Node17 -->
<g id="edge23_Node000017_Node000010" class="edge">
<title>Node10&#45;&gt;Node17</title>
<g id="a_edge23_Node000017_Node000010"><a xlink:title=" ">
<path fill="none" stroke="#9a32cd" stroke-dasharray="5,2" d="M1771.72,-441.99C1903.03,-436.77 2328.45,-419.71 2342.5,-417 2496.53,-387.27 2529.12,-356.41 2675.5,-300 2729.03,-279.37 2762.75,-297.78 2794.5,-250 2799.17,-242.97 2799.36,-237.9 2794.5,-231 2767.75,-193.04 2638.06,-170.97 2560.8,-160.99"/>
<polygon fill="#9a32cd" stroke="#9a32cd" points="1771.56,-438.49 1761.71,-442.38 1771.84,-445.49 1771.56,-438.49"/>
</a>
</g>
<text text-anchor="start" x="2781.5" y="-281" font-family="Helvetica,sans-Serif" font-size="10.00" fill="grey">count_file</text>
</g>
<!-- Node19 -->
<g id="Node000019" class="node">
<title>Node19</title>
<g id="a_Node000019"><a xlink:title=" ">
<polygon fill="white" stroke="#666666" points="1369,-163 1282,-163 1282,-144 1369,-144 1369,-163"/>
<text text-anchor="middle" x="1325.5" y="-151" font-family="Helvetica,sans-Serif" font-size="10.00">MimeListState</text>
</a>
</g>
</g>
<!-- Node10&#45;&gt;Node19 -->
<g id="edge28_Node000019_Node000010" class="edge">
<title>Node10&#45;&gt;Node19</title>
<g id="a_edge28_Node000019_Node000010"><a xlink:title=" ">
<path fill="none" stroke="#9a32cd" stroke-dasharray="5,2" d="M1695.32,-444.09C1591.07,-443.33 1301.59,-424.95 1185.5,-250 1156.22,-205.87 1237.33,-176.59 1288.07,-163.09"/>
<polygon fill="#9a32cd" stroke="#9a32cd" points="1695.39,-447.59 1705.39,-444.11 1695.4,-440.59 1695.39,-447.59"/>
</a>
</g>
<text text-anchor="start" x="1229.5" y="-281" font-family="Helvetica,sans-Serif" font-size="10.00" fill="grey">mime_list_file</text>
</g>
<!-- Node21 -->
<g id="Node000021" class="node">
<title>Node21</title>
<g id="a_Node000021"><a xlink:title=" ">
<polygon fill="white" stroke="#666666" points="2141.5,-163 2047.5,-163 2047.5,-144 2141.5,-144 2141.5,-163"/>
<text text-anchor="middle" x="2094.5" y="-151" font-family="Helvetica,sans-Serif" font-size="10.00">ThumbnailState</text>
</a>
</g>
</g>
<!-- Node10&#45;&gt;Node21 -->
<g id="edge33_Node000021_Node000010" class="edge">
<title>Node10&#45;&gt;Node21</title>
<g id="a_edge33_Node000021_Node000010"><a xlink:title=" ">
<path fill="none" stroke="#9a32cd" stroke-dasharray="5,2" d="M1771.83,-441.7C1867.08,-437.12 2107.97,-424.83 2123.5,-417 2216.37,-370.18 2309.22,-325.37 2265.5,-231 2244.03,-184.67 2184.58,-166.39 2141.81,-159.19"/>
<polygon fill="#9a32cd" stroke="#9a32cd" points="1771.57,-438.21 1761.75,-442.18 1771.91,-445.2 1771.57,-438.21"/>
</a>
</g>
<text text-anchor="start" x="2279.5" y="-281" font-family="Helvetica,sans-Serif" font-size="10.00" fill="grey">file</text>
</g>
<!-- Node22 -->
<g id="Node000022" class="node">
<title>Node22</title>
<g id="a_Node000022"><a xlink:title=" ">
<polygon fill="white" stroke="#666666" points="2253,-163 2180,-163 2180,-144 2253,-144 2253,-163"/>
<text text-anchor="middle" x="2216.5" y="-151" font-family="Helvetica,sans-Serif" font-size="10.00">MountState</text>
</a>
</g>
</g>
<!-- Node10&#45;&gt;Node22 -->
<g id="edge36_Node000022_Node000010" class="edge">
<title>Node10&#45;&gt;Node22</title>
<g id="a_edge36_Node000022_Node000010"><a xlink:title=" ">
<path fill="none" stroke="#9a32cd" stroke-dasharray="5,2" d="M1771.86,-442.03C1874.34,-437.99 2149.43,-426.42 2189.5,-417 2373.45,-373.76 2476.38,-407.69 2580.5,-250 2599.46,-221.28 2524.01,-192.8 2483.5,-181 2399.09,-156.4 2373.93,-172.3 2286.5,-163 2275.67,-161.85 2263.9,-160.47 2253.17,-159.16"/>
<polygon fill="#9a32cd" stroke="#9a32cd" points="1771.51,-438.54 1761.65,-442.43 1771.78,-445.54 1771.51,-438.54"/>
</a>
</g>
<text text-anchor="start" x="2568.5" y="-281" font-family="Helvetica,sans-Serif" font-size="10.00" fill="grey">file</text>
</g>
<!-- Node23 -->
<g id="Node000023" class="node">
<title>Node23</title>
<g id="a_Node000023"><a xlink:title=" ">
<polygon fill="white" stroke="#666666" points="2728.5,-163 2614.5,-163 2614.5,-144 2728.5,-144 2728.5,-163"/>
<text text-anchor="middle" x="2671.5" y="-151" font-family="Helvetica,sans-Serif" font-size="10.00">FilesystemInfoState</text>
</a>
</g>
</g>
<!-- Node10&#45;&gt;Node23 -->
<g id="edge39_Node000023_Node000010" class="edge">
<title>Node10&#45;&gt;Node23</title>
<g id="a_edge39_Node000023_Node000010"><a xlink:title=" ">
<path fill="none" stroke="#9a32cd" stroke-dasharray="5,2" d="M1771.67,-442.09C1817.47,-440.41 1896.6,-437.49 1964.5,-435 2073.83,-430.99 2348.63,-435.25 2456.5,-417 2630.74,-387.52 2704.68,-417.69 2836.5,-300 2877.92,-263.02 2911.13,-222.72 2874.5,-181 2855.83,-159.73 2781.83,-154.67 2728.57,-153.88"/>
<polygon fill="#9a32cd" stroke="#9a32cd" points="1771.46,-438.6 1761.59,-442.46 1771.71,-445.59 1771.46,-438.6"/>
</a>
</g>
<text text-anchor="start" x="2870.5" y="-281" font-family="Helvetica,sans-Serif" font-size="10.00" fill="grey">file</text>
</g>
<!-- Node24 -->
<g id="Node000024" class="node">
<title>Node24</title>
<g id="a_Node000024"><a xlink:title=" ">
<polygon fill="white" stroke="#666666" points="1775.5,-163 1653.5,-163 1653.5,-144 1775.5,-144 1775.5,-163"/>
<text text-anchor="middle" x="1714.5" y="-151" font-family="Helvetica,sans-Serif" font-size="10.00">TopLeftTextReadState</text>
</a>
</g>
</g>
<!-- Node10&#45;&gt;Node24 -->
<g id="edge42_Node000024_Node000010" class="edge">
<title>Node10&#45;&gt;Node24</title>
<g id="a_edge42_Node000024_Node000010"><a xlink:title=" ">
<path fill="none" stroke="#9a32cd" stroke-dasharray="5,2" d="M1695.39,-435.95C1681.58,-431.92 1666.45,-425.89 1654.5,-417 1581.59,-362.75 1564.01,-336.62 1536.5,-250 1533.94,-241.95 1531.4,-237.73 1536.5,-231 1554.34,-207.45 1573,-223.8 1600.5,-213 1637.77,-198.37 1678.99,-175.39 1700.18,-163.04"/>
<polygon fill="#9a32cd" stroke="#9a32cd" points="1694.58,-439.36 1705.14,-438.54 1696.38,-432.59 1694.58,-439.36"/>
</a>
</g>
<text text-anchor="start" x="1556.5" y="-281" font-family="Helvetica,sans-Serif" font-size="10.00" fill="grey">file</text>
</g>
<!-- Node25 -->
<g id="Node000025" class="node">
<title>Node25</title>
<g id="a_Node000025"><a xlink:title=" ">
<polygon fill="white" stroke="#666666" points="1903.5,-163 1797.5,-163 1797.5,-144 1903.5,-144 1903.5,-163"/>
<text text-anchor="middle" x="1850.5" y="-151" font-family="Helvetica,sans-Serif" font-size="10.00">LinkInfoReadState</text>
</a>
</g>
</g>
<!-- Node10&#45;&gt;Node25 -->
<g id="edge45_Node000025_Node000010" class="edge">
<title>Node10&#45;&gt;Node25</title>
<g id="a_edge45_Node000025_Node000010"><a xlink:title=" ">
<path fill="none" stroke="#9a32cd" stroke-dasharray="5,2" d="M1726.12,-425.08C1711.42,-385.03 1683.55,-288.97 1728.5,-231 1748.18,-205.61 1771.08,-229.73 1798.5,-213 1819.61,-200.12 1836.99,-175.98 1845.27,-163.11"/>
<polygon fill="#9a32cd" stroke="#9a32cd" points="1722.93,-426.52 1729.77,-434.61 1729.47,-424.02 1722.93,-426.52"/>
</a>
</g>
<text text-anchor="start" x="1712.5" y="-281" font-family="Helvetica,sans-Serif" font-size="10.00" fill="grey">file</text>
</g>
<!-- Node11 -->
<g id="Node000011" class="node">
<title>Node11</title>
<g id="a_Node000011"><a xlink:href="struct__CajaFilePrivate.html" target="_top" xlink:title=" ">
<polygon fill="white" stroke="#666666" points="2989,-163 2894,-163 2894,-144 2989,-144 2989,-163"/>
<text text-anchor="middle" x="2941.5" y="-151" font-family="Helvetica,sans-Serif" font-size="10.00">_CajaFilePrivate</text>
</a>
</g>
</g>
<!-- Node11&#45;&gt;Node10 -->
<g id="edge12_Node000010_Node000011" class="edge">
<title>Node11&#45;&gt;Node10</title>
<g id="a_edge12_Node000010_Node000011"><a xlink:title=" ">
<path fill="none" stroke="#9a32cd" stroke-dasharray="5,2" d="M2999.07,-157.45C3035.19,-160.64 3077.02,-167.27 3088.5,-181 3108.22,-204.59 3102.81,-226.08 3083.5,-250 2946.36,-419.89 2836.02,-376.38 2621.5,-417 2477.99,-444.17 2110.48,-430.31 1964.5,-435 1891.3,-437.35 1805.07,-440.67 1761.59,-442.38"/>
<polygon fill="#9a32cd" stroke="#9a32cd" points="2999.32,-153.96 2989.07,-156.64 2998.75,-160.93 2999.32,-153.96"/>
</a>
</g>
<text text-anchor="start" x="3070.5" y="-281" font-family="Helvetica,sans-Serif" font-size="10.00" fill="grey">details</text>
</g>
<!-- Node12 -->
<g id="Node000012" class="node">
<title>Node12</title>
<g id="a_Node000012"><a xlink:href="structCajaDirectory.html" target="_top" xlink:title=" ">
<polygon fill="white" stroke="#666666" points="2058,-250 1975,-250 1975,-231 2058,-231 2058,-250"/>
<text text-anchor="middle" x="2016.5" y="-238" font-family="Helvetica,sans-Serif" font-size="10.00">CajaDirectory</text>
</a>
</g>
</g>
<!-- Node12&#45;&gt;Node11 -->
<g id="edge13_Node000011_Node000012" class="edge">
<title>Node12&#45;&gt;Node11</title>
<g id="a_edge13_Node000011_Node000012"><a xlink:title=" ">
<path fill="none" stroke="#9a32cd" stroke-dasharray="5,2" d="M2068.04,-231.44C2069.54,-231.28 2071.03,-231.13 2072.5,-231 2330.22,-207.54 2397.45,-242.95 2654.5,-213 2747.69,-202.14 2855.63,-176.55 2908.65,-163.1"/>
<polygon fill="#9a32cd" stroke="#9a32cd" points="2067.54,-227.97 2058.02,-232.63 2068.37,-234.93 2067.54,-227.97"/>
</a>
</g>
<text text-anchor="start" x="2835.5" y="-194" font-family="Helvetica,sans-Serif" font-size="10.00" fill="grey">directory</text>
</g>
<!-- Node12&#45;&gt;Node16 -->
<g id="edge19_Node000016_Node000012" class="edge">
<title>Node12&#45;&gt;Node16</title>
<g id="a_edge19_Node000016_Node000012"><a xlink:title=" ">
<path fill="none" stroke="#9a32cd" stroke-dasharray="5,2" d="M1964.96,-231.44C1963.46,-231.28 1961.97,-231.13 1960.5,-231 1714.74,-208.44 1650.23,-244.85 1405.5,-213 1322.48,-202.2 1226.81,-176.46 1180.12,-163.01"/>
<polygon fill="#9a32cd" stroke="#9a32cd" points="1964.63,-234.93 1974.98,-232.64 1965.46,-227.98 1964.63,-234.93"/>
</a>
</g>
<text text-anchor="start" x="1408.5" y="-194" font-family="Helvetica,sans-Serif" font-size="10.00" fill="grey">directory</text>
</g>
<!-- Node12&#45;&gt;Node17 -->
<g id="edge22_Node000017_Node000012" class="edge">
<title>Node12&#45;&gt;Node17</title>
<g id="a_edge22_Node000017_Node000012"><a xlink:title=" ">
<path fill="none" stroke="#9a32cd" stroke-dasharray="5,2" d="M2068.05,-231.51C2069.55,-231.33 2071.03,-231.16 2072.5,-231 2189.85,-218.13 2221.91,-236.95 2337.5,-213 2365.7,-207.16 2442.56,-177.91 2480.59,-163.11"/>
<polygon fill="#9a32cd" stroke="#9a32cd" points="2067.51,-228.05 2058.04,-232.8 2068.41,-234.99 2067.51,-228.05"/>
</a>
</g>
<text text-anchor="start" x="2432.5" y="-194" font-family="Helvetica,sans-Serif" font-size="10.00" fill="grey">directory</text>
</g>
<!-- Node18 -->
<g id="Node000018" class="node">
<title>Node18</title>
<g id="a_Node000018"><a xlink:title=" ">
<polygon fill="white" stroke="#666666" points="1599.5,-163 1503.5,-163 1503.5,-144 1599.5,-144 1599.5,-163"/>
<text text-anchor="middle" x="1551.5" y="-151" font-family="Helvetica,sans-Serif" font-size="10.00">DeepCountState</text>
</a>
</g>
</g>
<!-- Node12&#45;&gt;Node18 -->
<g id="edge25_Node000018_Node000012" class="edge">
<title>Node12&#45;&gt;Node18</title>
<g id="a_edge25_Node000018_Node000012"><a xlink:title=" ">
<path fill="none" stroke="#9a32cd" stroke-dasharray="5,2" d="M1964.95,-231.54C1963.45,-231.35 1961.96,-231.17 1960.5,-231 1866.15,-219.87 1840.84,-230.68 1747.5,-213 1683.48,-200.87 1610.53,-176.07 1574.35,-163"/>
<polygon fill="#9a32cd" stroke="#9a32cd" points="1964.58,-235.02 1974.95,-232.88 1965.5,-228.09 1964.58,-235.02"/>
</a>
</g>
<text text-anchor="start" x="1750.5" y="-194" font-family="Helvetica,sans-Serif" font-size="10.00" fill="grey">directory</text>
</g>
<!-- Node12&#45;&gt;Node19 -->
<g id="edge27_Node000019_Node000012" class="edge">
<title>Node12&#45;&gt;Node19</title>
<g id="a_edge27_Node000019_Node000012"><a xlink:title=" ">
<path fill="none" stroke="#9a32cd" stroke-dasharray="5,2" d="M1964.96,-231.47C1963.46,-231.3 1961.97,-231.15 1960.5,-231 1790.04,-214.12 1744.67,-239.94 1575.5,-213 1522.68,-204.59 1511.55,-193.31 1459.5,-181 1429.5,-173.91 1395.41,-167.18 1369.13,-162.28"/>
<polygon fill="#9a32cd" stroke="#9a32cd" points="1964.62,-234.96 1974.97,-232.71 1965.47,-228.01 1964.62,-234.96"/>
</a>
</g>
<text text-anchor="start" x="1578.5" y="-194" font-family="Helvetica,sans-Serif" font-size="10.00" fill="grey">directory</text>
</g>
<!-- Node20 -->
<g id="Node000020" class="node">
<title>Node20</title>
<g id="a_Node000020"><a xlink:title=" ">
<polygon fill="white" stroke="#666666" points="2373.5,-163 2295.5,-163 2295.5,-144 2373.5,-144 2373.5,-163"/>
<text text-anchor="middle" x="2334.5" y="-151" font-family="Helvetica,sans-Serif" font-size="10.00">GetInfoState</text>
</a>
</g>
</g>
<!-- Node12&#45;&gt;Node20 -->
<g id="edge30_Node000020_Node000012" class="edge">
<title>Node12&#45;&gt;Node20</title>
<g id="a_edge30_Node000020_Node000012"><a xlink:title=" ">
<path fill="none" stroke="#9a32cd" stroke-dasharray="5,2" d="M2068.06,-231.64C2069.56,-231.42 2071.04,-231.21 2072.5,-231 2131.98,-222.49 2148.77,-229.67 2206.5,-213 2249.46,-200.6 2296.41,-176.03 2319.69,-163.03"/>
<polygon fill="#9a32cd" stroke="#9a32cd" points="2067.46,-228.19 2058.08,-233.11 2068.48,-235.12 2067.46,-228.19"/>
</a>
</g>
<text text-anchor="start" x="2286.5" y="-194" font-family="Helvetica,sans-Serif" font-size="10.00" fill="grey">directory</text>
</g>
<!-- Node12&#45;&gt;Node21 -->
<g id="edge32_Node000021_Node000012" class="edge">
<title>Node12&#45;&gt;Node21</title>
<g id="a_edge32_Node000021_Node000012"><a xlink:title=" ">
<path fill="none" stroke="#9a32cd" stroke-dasharray="5,2" d="M2016.72,-220.61C2017.82,-208.06 2021.16,-191.95 2030.5,-181 2037.53,-172.77 2047.52,-167.05 2057.53,-163.09"/>
<polygon fill="#9a32cd" stroke="#9a32cd" points="2013.21,-220.72 2016.24,-230.87 2020.21,-221.05 2013.21,-220.72"/>
</a>
</g>
<text text-anchor="start" x="2033.5" y="-194" font-family="Helvetica,sans-Serif" font-size="10.00" fill="grey">directory</text>
</g>
<!-- Node12&#45;&gt;Node22 -->
<g id="edge35_Node000022_Node000012" class="edge">
<title>Node12&#45;&gt;Node22</title>
<g id="a_edge35_Node000022_Node000012"><a xlink:title=" ">
<path fill="none" stroke="#9a32cd" stroke-dasharray="5,2" d="M2049.12,-227.31C2060.39,-222.96 2073.06,-217.91 2084.5,-213 2115.19,-199.82 2121.95,-194.5 2152.5,-181 2166.58,-174.78 2182.58,-168.15 2195.06,-163.08"/>
<polygon fill="#9a32cd" stroke="#9a32cd" points="2047.73,-224.09 2039.64,-230.93 2050.23,-230.63 2047.73,-224.09"/>
</a>
</g>
<text text-anchor="start" x="2155.5" y="-194" font-family="Helvetica,sans-Serif" font-size="10.00" fill="grey">directory</text>
</g>
<!-- Node12&#45;&gt;Node23 -->
<g id="edge38_Node000023_Node000012" class="edge">
<title>Node12&#45;&gt;Node23</title>
<g id="a_edge38_Node000023_Node000012"><a xlink:title=" ">
<path fill="none" stroke="#9a32cd" stroke-dasharray="5,2" d="M2068.04,-231.46C2069.54,-231.3 2071.03,-231.14 2072.5,-231 2254.48,-213.26 2303.38,-244.42 2483.5,-213 2545.63,-202.16 2615.85,-176.56 2650.24,-163.1"/>
<polygon fill="#9a32cd" stroke="#9a32cd" points="2067.53,-228 2058.03,-232.69 2068.38,-234.95 2067.53,-228"/>
</a>
</g>
<text text-anchor="start" x="2603.5" y="-194" font-family="Helvetica,sans-Serif" font-size="10.00" fill="grey">directory</text>
</g>
<!-- Node12&#45;&gt;Node24 -->
<g id="edge41_Node000024_Node000012" class="edge">
<title>Node12&#45;&gt;Node24</title>
<g id="a_edge41_Node000024_Node000012"><a xlink:title=" ">
<path fill="none" stroke="#9a32cd" stroke-dasharray="5,2" d="M1964.75,-230.48C1933.23,-224.78 1896.11,-217.63 1880.5,-213 1844.19,-202.22 1837.21,-193.64 1801.5,-181 1782.89,-174.41 1761.72,-167.94 1744.91,-163.04"/>
<polygon fill="#9a32cd" stroke="#9a32cd" points="1964.29,-233.95 1974.75,-232.27 1965.53,-227.06 1964.29,-233.95"/>
</a>
</g>
<text text-anchor="start" x="1883.5" y="-194" font-family="Helvetica,sans-Serif" font-size="10.00" fill="grey">directory</text>
</g>
<!-- Node12&#45;&gt;Node25 -->
<g id="edge44_Node000025_Node000012" class="edge">
<title>Node12&#45;&gt;Node25</title>
<g id="a_edge44_Node000025_Node000012"><a xlink:title=" ">
<path fill="none" stroke="#9a32cd" stroke-dasharray="5,2" d="M1985.97,-226.65C1978.3,-222.78 1970.32,-218.17 1963.5,-213 1948.21,-201.4 1950.66,-191.36 1934.5,-181 1921.88,-172.91 1906.62,-167.13 1892.58,-163.08"/>
<polygon fill="#9a32cd" stroke="#9a32cd" points="1984.54,-229.84 1995.07,-230.98 1987.55,-223.52 1984.54,-229.84"/>
</a>
</g>
<text text-anchor="start" x="1966.5" y="-194" font-family="Helvetica,sans-Serif" font-size="10.00" fill="grey">directory</text>
</g>
<!-- Node13&#45;&gt;Node12 -->
<g id="edge14_Node000012_Node000013" class="edge">
<title>Node13&#45;&gt;Node12</title>
<g id="a_edge14_Node000012_Node000013"><a xlink:title=" ">
<path fill="none" stroke="#9a32cd" stroke-dasharray="5,2" d="M2016.5,-307.62C2016.5,-289.79 2016.5,-263.83 2016.5,-250.36"/>
<polygon fill="#9a32cd" stroke="#9a32cd" points="2013,-307.72 2016.5,-317.72 2020,-307.72 2013,-307.72"/>
</a>
</g>
<text text-anchor="start" x="2019.5" y="-281" font-family="Helvetica,sans-Serif" font-size="10.00" fill="grey">details</text>
</g>
<!-- Node14 -->
<g id="Node000014" class="node">
<title>Node14</title>
<g id="a_Node000014"><a xlink:title=" ">
<polygon fill="white" stroke="#666666" points="2060,-454 1973,-454 1973,-435 2060,-435 2060,-454"/>
<text text-anchor="middle" x="2016.5" y="-442" font-family="Helvetica,sans-Serif" font-size="10.00">CajaFileQueue</text>
</a>
</g>
</g>
<!-- Node14&#45;&gt;Node13 -->
<g id="edge16_Node000013_Node000014" class="edge">
<title>Node14&#45;&gt;Node13</title>
<g id="a_edge16_Node000013_Node000014"><a xlink:title=" ">
<path fill="none" stroke="#9a32cd" stroke-dasharray="5,2" d="M2016.5,-424.75C2016.5,-399.56 2016.5,-355.82 2016.5,-337.24"/>
<polygon fill="#9a32cd" stroke="#9a32cd" points="2013,-424.86 2016.5,-434.86 2020,-424.86 2013,-424.86"/>
</a>
</g>
<text text-anchor="start" x="2020" y="-398" font-family="Helvetica,sans-Serif" font-size="10.00" fill="grey">extension_queue</text>
<text text-anchor="start" x="2020" y="-383" font-family="Helvetica,sans-Serif" font-size="10.00" fill="grey">high_priority_queue</text>
<text text-anchor="start" x="2020" y="-368" font-family="Helvetica,sans-Serif" font-size="10.00" fill="grey">low_priority_queue</text>
</g>
<!-- Node15 -->
<g id="Node000015" class="node">
<title>Node15</title>
<g id="a_Node000015"><a xlink:title=" ">
<polygon fill="white" stroke="#666666" points="3173.5,-454 3097.5,-454 3097.5,-435 3173.5,-435 3173.5,-454"/>
<text text-anchor="middle" x="3135.5" y="-442" font-family="Helvetica,sans-Serif" font-size="10.00">CajaMonitor</text>
</a>
</g>
</g>
<!-- Node15&#45;&gt;Node13 -->
<g id="edge17_Node000013_Node000015" class="edge">
<title>Node15&#45;&gt;Node13</title>
<g id="a_edge17_Node000013_Node000015"><a xlink:title=" ">
<path fill="none" stroke="#9a32cd" stroke-dasharray="5,2" d="M3087.11,-438.53C2907.36,-420.05 2278.23,-355.4 2078.11,-334.83"/>
<polygon fill="#9a32cd" stroke="#9a32cd" points="3087,-442.03 3097.31,-439.57 3087.72,-435.07 3087,-442.03"/>
</a>
</g>
<text text-anchor="start" x="2868" y="-383" font-family="Helvetica,sans-Serif" font-size="10.00" fill="grey">monitor</text>
</g>
<!-- Node16&#45;&gt;Node13 -->
<g id="edge18_Node000013_Node000016" class="edge">
<title>Node16&#45;&gt;Node13</title>
<g id="a_edge18_Node000013_Node000016"><a xlink:title=" ">
<path fill="none" stroke="#9a32cd" stroke-dasharray="5,2" d="M1157.84,-172.71C1166.29,-194.31 1183.29,-229.91 1209.5,-250 1272.68,-298.43 1302.94,-287.14 1381.5,-300 1490.52,-317.85 1817.53,-323.99 1954.78,-325.82"/>
<polygon fill="#9a32cd" stroke="#9a32cd" points="1161.04,-171.27 1154.29,-163.1 1154.48,-173.7 1161.04,-171.27"/>
</a>
</g>
<text text-anchor="start" x="1212.5" y="-237.5" font-family="Helvetica,sans-Serif" font-size="10.00" fill="grey">directory_load_in_progress</text>
</g>
<!-- Node17&#45;&gt;Node13 -->
<g id="edge21_Node000013_Node000017" class="edge">
<title>Node17&#45;&gt;Node13</title>
<g id="a_edge21_Node000013_Node000017"><a xlink:title=" ">
<path fill="none" stroke="#9a32cd" stroke-dasharray="5,2" d="M2500.44,-173.08C2497.17,-194.25 2488.91,-228.65 2468.5,-250 2431.67,-288.52 2411.09,-286.63 2359.5,-300 2308.04,-313.34 2162.32,-320.94 2078.29,-324.33"/>
<polygon fill="#9a32cd" stroke="#9a32cd" points="2503.92,-173.48 2501.76,-163.11 2496.98,-172.56 2503.92,-173.48"/>
</a>
</g>
<text text-anchor="start" x="2485" y="-237.5" font-family="Helvetica,sans-Serif" font-size="10.00" fill="grey">count_in_progress</text>
</g>
<!-- Node18&#45;&gt;Node13 -->
<g id="edge24_Node000013_Node000018" class="edge">
<title>Node18&#45;&gt;Node13</title>
<g id="a_edge24_Node000013_Node000018"><a xlink:title=" ">
<path fill="none" stroke="#9a32cd" stroke-dasharray="5,2" d="M1535.65,-171.19C1533.54,-174.25 1531.69,-177.57 1530.5,-181 1525.82,-194.43 1524.14,-200.28 1530.5,-213 1559.32,-270.64 1586.13,-277.45 1646.5,-300 1701.25,-320.45 1864.35,-325.22 1954.64,-326.27"/>
<polygon fill="#9a32cd" stroke="#9a32cd" points="1538.41,-173.33 1541.98,-163.36 1532.97,-168.93 1538.41,-173.33"/>
</a>
</g>
<text text-anchor="start" x="1556.5" y="-237.5" font-family="Helvetica,sans-Serif" font-size="10.00" fill="grey">deep_count_in_progress</text>
</g>
<!-- Node19&#45;&gt;Node13 -->
<g id="edge26_Node000013_Node000019" class="edge">
<title>Node19&#45;&gt;Node13</title>
<g id="a_edge26_Node000013_Node000019"><a xlink:title=" ">
<path fill="none" stroke="#9a32cd" stroke-dasharray="5,2" d="M1326.86,-173.41C1328.47,-185.51 1331.95,-201.11 1339.5,-213 1372.74,-265.32 1390.49,-278.16 1448.5,-300 1494.84,-317.45 1817.4,-323.82 1954.77,-325.77"/>
<polygon fill="#9a32cd" stroke="#9a32cd" points="1330.31,-172.71 1325.83,-163.11 1323.35,-173.41 1330.31,-172.71"/>
</a>
</g>
<text text-anchor="start" x="1369" y="-237.5" font-family="Helvetica,sans-Serif" font-size="10.00" fill="grey">mime_list_in_progress</text>
</g>
<!-- Node20&#45;&gt;Node13 -->
<g id="edge29_Node000013_Node000020" class="edge">
<title>Node20&#45;&gt;Node13</title>
<g id="a_edge29_Node000013_Node000020"><a xlink:title=" ">
<path fill="none" stroke="#9a32cd" stroke-dasharray="5,2" d="M2342.04,-172.52C2353.47,-203.07 2370.66,-265.08 2338.5,-300 2321.26,-318.72 2166.61,-324.22 2078.06,-325.83"/>
<polygon fill="#9a32cd" stroke="#9a32cd" points="2345.25,-171.14 2338.32,-163.12 2338.74,-173.71 2345.25,-171.14"/>
</a>
</g>
<text text-anchor="start" x="2359.5" y="-237.5" font-family="Helvetica,sans-Serif" font-size="10.00" fill="grey">get_info_in_progress</text>
</g>
<!-- Node21&#45;&gt;Node13 -->
<g id="edge31_Node000013_Node000021" class="edge">
<title>Node21&#45;&gt;Node13</title>
<g id="a_edge31_Node000013_Node000021"><a xlink:title=" ">
<path fill="none" stroke="#9a32cd" stroke-dasharray="5,2" d="M2094.61,-173.58C2093.84,-203.36 2088.53,-261.49 2060.5,-300 2054.83,-307.79 2046.12,-313.72 2037.93,-317.98"/>
<polygon fill="#9a32cd" stroke="#9a32cd" points="2098.11,-173.36 2094.71,-163.33 2091.11,-173.29 2098.11,-173.36"/>
</a>
</g>
<text text-anchor="start" x="2090.5" y="-237.5" font-family="Helvetica,sans-Serif" font-size="10.00" fill="grey">thumbnail_state</text>
</g>
<!-- Node22&#45;&gt;Node13 -->
<g id="edge34_Node000013_Node000022" class="edge">
<title>Node22&#45;&gt;Node13</title>
<g id="a_edge34_Node000013_Node000022"><a xlink:title=" ">
<path fill="none" stroke="#9a32cd" stroke-dasharray="5,2" d="M2213.8,-173.13C2211.67,-184.91 2208.11,-200.25 2202.5,-213 2194.51,-231.17 2192.28,-236.76 2177.5,-250 2138.66,-284.79 2081.2,-306.93 2046.46,-317.99"/>
<polygon fill="#9a32cd" stroke="#9a32cd" points="2217.28,-173.57 2215.42,-163.14 2210.37,-172.45 2217.28,-173.57"/>
</a>
</g>
<text text-anchor="start" x="2196.5" y="-237.5" font-family="Helvetica,sans-Serif" font-size="10.00" fill="grey">mount_state</text>
</g>
<!-- Node23&#45;&gt;Node13 -->
<g id="edge37_Node000013_Node000023" class="edge">
<title>Node23&#45;&gt;Node13</title>
<g id="a_edge37_Node000013_Node000023"><a xlink:title=" ">
<path fill="none" stroke="#9a32cd" stroke-dasharray="5,2" d="M2675.53,-173.06C2681.13,-204.45 2686.95,-267.76 2651.5,-300 2630.52,-319.08 2233.56,-324.61 2078.15,-326.04"/>
<polygon fill="#9a32cd" stroke="#9a32cd" points="2678.93,-172.18 2673.55,-163.05 2672.06,-173.54 2678.93,-172.18"/>
</a>
</g>
<text text-anchor="start" x="2681.5" y="-237.5" font-family="Helvetica,sans-Serif" font-size="10.00" fill="grey">filesystem_info_state</text>
</g>
<!-- Node24&#45;&gt;Node13 -->
<g id="edge40_Node000013_Node000024" class="edge">
<title>Node24&#45;&gt;Node13</title>
<g id="a_edge40_Node000013_Node000024"><a xlink:title=" ">
<path fill="none" stroke="#9a32cd" stroke-dasharray="5,2" d="M1715.76,-173.3C1718.24,-194.95 1725.62,-230.08 1747.5,-250 1804.68,-302.05 1894.82,-318.94 1954.78,-324.28"/>
<polygon fill="#9a32cd" stroke="#9a32cd" points="1719.23,-172.74 1714.84,-163.1 1712.25,-173.37 1719.23,-172.74"/>
</a>
</g>
<text text-anchor="start" x="1750.5" y="-237.5" font-family="Helvetica,sans-Serif" font-size="10.00" fill="grey">top_left_read_state</text>
</g>
<!-- Node25&#45;&gt;Node13 -->
<g id="edge43_Node000013_Node000025" class="edge">
<title>Node25&#45;&gt;Node13</title>
<g id="a_edge43_Node000013_Node000025"><a xlink:title=" ">
<path fill="none" stroke="#9a32cd" stroke-dasharray="5,2" d="M1847.47,-173.12C1845.16,-193.8 1844.64,-227.28 1860.5,-250 1887.18,-288.21 1938.48,-308.16 1974.96,-317.98"/>
<polygon fill="#9a32cd" stroke="#9a32cd" points="1850.96,-173.47 1848.85,-163.09 1844.02,-172.52 1850.96,-173.47"/>
</a>
</g>
<text text-anchor="start" x="1863.5" y="-237.5" font-family="Helvetica,sans-Serif" font-size="10.00" fill="grey">link_info_read_state</text>
</g>
<!-- Node26 -->
<g id="Node000026" class="node">
<title>Node26</title>
<g id="a_Node000026"><a xlink:href="structCajaFileSortByEmblemCache.html" target="_top" xlink:title=" ">
<polygon fill="white" stroke="#666666" points="3074.5,-250 2916.5,-250 2916.5,-231 3074.5,-231 3074.5,-250"/>
<text text-anchor="middle" x="2995.5" y="-238" font-family="Helvetica,sans-Serif" font-size="10.00">CajaFileSortByEmblemCache</text>
</a>
</g>
</g>
<!-- Node26&#45;&gt;Node11 -->
<g id="edge46_Node000011_Node000026" class="edge">
<title>Node26&#45;&gt;Node11</title>
<g id="a_edge46_Node000011_Node000026"><a xlink:title=" ">
<path fill="none" stroke="#9a32cd" stroke-dasharray="5,2" d="M2955.71,-225.91C2950.48,-222.48 2945.8,-218.24 2942.5,-213 2932.86,-197.7 2936.14,-175.4 2939.04,-163.22"/>
<polygon fill="#9a32cd" stroke="#9a32cd" points="2954.43,-229.19 2964.88,-230.92 2957.79,-223.05 2954.43,-229.19"/>
</a>
</g>
<text text-anchor="start" x="2945.5" y="-194" font-family="Helvetica,sans-Serif" font-size="10.00" fill="grey">compare_by_emblem_cache</text>
</g>
<!-- Node27 -->
<g id="Node000027" class="node">
<title>Node27</title>
<g id="a_Node000027"><a xlink:href="structCajaQueryEditor.html" target="_top" xlink:title=" ">
<polygon fill="white" stroke="#666666" points="689.5,-19 593.5,-19 593.5,0 689.5,0 689.5,-19"/>
<text text-anchor="middle" x="641.5" y="-7" font-family="Helvetica,sans-Serif" font-size="10.00">CajaQueryEditor</text>
</a>
</g>
</g>
<!-- Node27&#45;&gt;Node7 -->
<g id="edge48_Node000007_Node000027" class="edge">
<title>Node27&#45;&gt;Node7</title>
<g id="a_edge48_Node000007_Node000027"><a xlink:title=" ">
<path fill="none" stroke="#9a32cd" stroke-dasharray="5,2" d="M658.67,-26.96C661.25,-30.09 663.66,-33.5 665.5,-37 684.72,-73.66 690.4,-123.95 691.96,-143.87"/>
<polygon fill="#9a32cd" stroke="#9a32cd" points="661.05,-24.38 651.7,-19.4 655.91,-29.13 661.05,-24.38"/>
</a>
</g>
<text text-anchor="start" x="686.5" y="-78.5" font-family="Helvetica,sans-Serif" font-size="10.00" fill="grey">query_editor</text>
</g>
<!-- Node28&#45;&gt;Node27 -->
<g id="edge49_Node000027_Node000028" class="edge">
<title>Node28&#45;&gt;Node27</title>
<g id="a_edge49_Node000027_Node000028"><a xlink:title=" ">
<path fill="none" stroke="#9a32cd" stroke-dasharray="5,2" d="M602.8,-63.62C613.02,-49.59 627.14,-30.21 635.2,-19.15"/>
<polygon fill="#9a32cd" stroke="#9a32cd" points="599.81,-61.77 596.75,-71.92 605.47,-65.9 599.81,-61.77"/>
</a>
</g>
<text text-anchor="start" x="624.5" y="-42.5" font-family="Helvetica,sans-Serif" font-size="10.00" fill="grey">details</text>
</g>
<!-- Node29 -->
<g id="Node000029" class="node">
<title>Node29</title>
<g id="a_Node000029"><a xlink:href="structCajaSearchBar.html" target="_top" xlink:title=" ">
<polygon fill="white" stroke="#666666" points="573.5,-163 485.5,-163 485.5,-144 573.5,-144 573.5,-163"/>
<text text-anchor="middle" x="529.5" y="-151" font-family="Helvetica,sans-Serif" font-size="10.00">CajaSearchBar</text>
</a>
</g>
</g>
<!-- Node29&#45;&gt;Node28 -->
<g id="edge50_Node000028_Node000029" class="edge">
<title>Node29&#45;&gt;Node28</title>
<g id="a_edge50_Node000028_Node000029"><a xlink:title=" ">
<path fill="none" stroke="#9a32cd" stroke-dasharray="5,2" d="M543.87,-136.01C556.11,-121.96 573.23,-102.32 582.96,-91.15"/>
<polygon fill="#9a32cd" stroke="#9a32cd" points="540.91,-134.08 536.98,-143.92 546.19,-138.68 540.91,-134.08"/>
</a>
</g>
<text text-anchor="start" x="569.5" y="-114.5" font-family="Helvetica,sans-Serif" font-size="10.00" fill="grey">bar</text>
</g>
<!-- Node30 -->
<g id="Node000030" class="node">
<title>Node30</title>
<g id="a_Node000030"><a xlink:title=" ">
<polygon fill="white" stroke="#666666" points="493.5,-250 371.5,-250 371.5,-231 493.5,-231 493.5,-250"/>
<text text-anchor="middle" x="432.5" y="-238" font-family="Helvetica,sans-Serif" font-size="10.00">CajaSearchBarDetails</text>
</a>
</g>
</g>
<!-- Node30&#45;&gt;Node29 -->
<g id="edge51_Node000029_Node000030" class="edge">
<title>Node30&#45;&gt;Node29</title>
<g id="a_edge51_Node000029_Node000030"><a xlink:title=" ">
<path fill="none" stroke="#9a32cd" stroke-dasharray="5,2" d="M442.09,-222.24C449.81,-209.57 461.63,-192.6 475.5,-181 484.47,-173.5 495.93,-167.49 505.98,-163.1"/>
<polygon fill="#9a32cd" stroke="#9a32cd" points="439.03,-220.54 437.02,-230.94 445.08,-224.06 439.03,-220.54"/>
</a>
</g>
<text text-anchor="start" x="478.5" y="-194" font-family="Helvetica,sans-Serif" font-size="10.00" fill="grey">details</text>
</g>
<!-- Node31 -->
<g id="Node000031" class="node">
<title>Node31</title>
<g id="a_Node000031"><a xlink:href="structCajaApplication.html" target="_top" xlink:title=" ">
<polygon fill="white" stroke="#666666" points="468,-454 375,-454 375,-435 468,-435 468,-454"/>
<text text-anchor="middle" x="421.5" y="-442" font-family="Helvetica,sans-Serif" font-size="10.00">CajaApplication</text>
</a>
</g>
</g>
<!-- Node31&#45;&gt;Node3 -->
<g id="edge54_Node000003_Node000031" class="edge">
<title>Node31&#45;&gt;Node3</title>
<g id="a_edge54_Node000003_Node000031"><a xlink:title=" ">
<path fill="none" stroke="#9a32cd" stroke-dasharray="5,2" d="M421.5,-424.75C421.5,-399.56 421.5,-355.82 421.5,-337.24"/>
<polygon fill="#9a32cd" stroke="#9a32cd" points="418,-424.86 421.5,-434.86 425,-424.86 418,-424.86"/>
</a>
</g>
<text text-anchor="start" x="425" y="-383" font-family="Helvetica,sans-Serif" font-size="10.00" fill="grey">application</text>
</g>
<!-- Node32 -->
<g id="Node000032" class="node">
<title>Node32</title>
<g id="a_Node000032"><a xlink:title=" ">
<polygon fill="white" stroke="#666666" points="425,-526 292,-526 292,-507 425,-507 425,-526"/>
<text text-anchor="middle" x="358.5" y="-514" font-family="Helvetica,sans-Serif" font-size="10.00">_CajaApplicationPrivate</text>
</a>
</g>
</g>
<!-- Node32&#45;&gt;Node31 -->
<g id="edge55_Node000031_Node000032" class="edge">
<title>Node32&#45;&gt;Node31</title>
<g id="a_edge55_Node000031_Node000032"><a xlink:title=" ">
<path fill="none" stroke="#9a32cd" stroke-dasharray="5,2" d="M372.98,-499.41C385.65,-485.33 403.57,-465.42 413.71,-454.15"/>
<polygon fill="#9a32cd" stroke="#9a32cd" points="370.31,-497.14 366.23,-506.92 375.52,-501.83 370.31,-497.14"/>
</a>
</g>
<text text-anchor="start" x="401" y="-477.5" font-family="Helvetica,sans-Serif" font-size="10.00" fill="grey">priv</text>
</g>
<!-- Node33 -->
<g id="Node000033" class="node">
<title>Node33</title>
<g id="a_Node000033"><a xlink:href="struct__EggSMClient.html" target="_top" xlink:title=" ">
<polygon fill="white" stroke="#666666" points="526,-526 443,-526 443,-507 526,-507 526,-526"/>
<text text-anchor="middle" x="484.5" y="-514" font-family="Helvetica,sans-Serif" font-size="10.00">_EggSMClient</text>
</a>
</g>
</g>
<!-- Node33&#45;&gt;Node31 -->
<g id="edge56_Node000031_Node000033" class="edge">
<title>Node33&#45;&gt;Node31</title>
<g id="a_edge56_Node000031_Node000033"><a xlink:title=" ">
<path fill="none" stroke="#9a32cd" stroke-dasharray="5,2" d="M470.02,-499.41C457.35,-485.33 439.43,-465.42 429.29,-454.15"/>
<polygon fill="#9a32cd" stroke="#9a32cd" points="467.48,-501.83 476.77,-506.92 472.69,-497.14 467.48,-501.83"/>
</a>
</g>
<text text-anchor="start" x="463" y="-477.5" font-family="Helvetica,sans-Serif" font-size="10.00" fill="grey">smclient</text>
</g>
</g>
</svg>
