<?xml version="1.0" encoding="UTF-8" standalone="no"?>
<!DOCTYPE svg PUBLIC "-//W3C//DTD SVG 1.1//EN"
 "http://www.w3.org/Graphics/SVG/1.1/DTD/svg11.dtd">
<!-- Generated by graphviz version 2.43.0 (0)
 -->
<!-- Title: _CPUFreqPopup Pages: 1 -->
<svg width="143pt" height="243pt"
 viewBox="0.00 0.00 143.00 243.00" xmlns="http://www.w3.org/2000/svg" xmlns:xlink="http://www.w3.org/1999/xlink">

<svg id="main" version="1.1" xmlns="http://www.w3.org/2000/svg" xmlns:xlink="http://www.w3.org/1999/xlink" xml:space="preserve">

<style type="text/css"><![CDATA[
.node, .edge {opacity: 0.7;}
.node.selected, .edge.selected {opacity: 1;}
.edge:hover path { stroke: red; }
.edge:hover polygon { stroke: red; fill: red; }
]]></style>
<script type="application/ecmascript" xlink:href="svg.min.js"/>
<svg id="graph" class="graph">
<g id="graph0" class="graph" transform="scale(1 1) rotate(0) translate(4 239)">
<title>_CPUFreqPopup</title>
<!-- Node1 -->
<g id="Node000001" class="node">
<title>Node1</title>
<g id="a_Node000001"><a xlink:title=" ">
<polygon fill="#999999" stroke="#666666" points="114,-19 21,-19 21,0 114,0 114,-19"/>
<text text-anchor="middle" x="67.5" y="-7" font-family="Helvetica,sans-Serif" font-size="10.00">_CPUFreqPopup</text>
</a>
</g>
</g>
<!-- Node2 -->
<g id="Node000002" class="node">
<title>Node2</title>
<g id="a_Node000002"><a xlink:title=" ">
<polygon fill="white" stroke="#666666" points="131.5,-91 3.5,-91 3.5,-72 131.5,-72 131.5,-91"/>
<text text-anchor="middle" x="67.5" y="-79" font-family="Helvetica,sans-Serif" font-size="10.00">_CPUFreqPopupPrivate</text>
</a>
</g>
</g>
<!-- Node2&#45;&gt;Node1 -->
<g id="edge1_Node000001_Node000002" class="edge">
<title>Node2&#45;&gt;Node1</title>
<g id="a_edge1_Node000001_Node000002"><a xlink:title=" ">
<path fill="none" stroke="#9a32cd" stroke-dasharray="5,2" d="M67.5,-61.58C67.5,-47.76 67.5,-29.68 67.5,-19.15"/>
<polygon fill="#9a32cd" stroke="#9a32cd" points="64,-61.92 67.5,-71.92 71,-61.92 64,-61.92"/>
</a>
</g>
<text text-anchor="start" x="71" y="-42.5" font-family="Helvetica,sans-Serif" font-size="10.00" fill="grey">priv</text>
</g>
<!-- Node3 -->
<g id="Node000003" class="node">
<title>Node3</title>
<g id="a_Node000003"><a xlink:href="struct__CPUFreqMonitor.html" target="_top" xlink:title=" ">
<polygon fill="white" stroke="#666666" points="118,-163 17,-163 17,-144 118,-144 118,-163"/>
<text text-anchor="middle" x="67.5" y="-151" font-family="Helvetica,sans-Serif" font-size="10.00">_CPUFreqMonitor</text>
</a>
</g>
</g>
<!-- Node3&#45;&gt;Node2 -->
<g id="edge2_Node000002_Node000003" class="edge">
<title>Node3&#45;&gt;Node2</title>
<g id="a_edge2_Node000002_Node000003"><a xlink:title=" ">
<path fill="none" stroke="#9a32cd" stroke-dasharray="5,2" d="M67.5,-133.58C67.5,-119.76 67.5,-101.68 67.5,-91.15"/>
<polygon fill="#9a32cd" stroke="#9a32cd" points="64,-133.92 67.5,-143.92 71,-133.92 64,-133.92"/>
</a>
</g>
<text text-anchor="start" x="71" y="-114.5" font-family="Helvetica,sans-Serif" font-size="10.00" fill="grey">monitor</text>
</g>
<!-- Node4 -->
<g id="Node000004" class="node">
<title>Node4</title>
<g id="a_Node000004"><a xlink:title=" ">
<polygon fill="white" stroke="#666666" points="135,-235 0,-235 0,-216 135,-216 135,-235"/>
<text text-anchor="middle" x="67.5" y="-223" font-family="Helvetica,sans-Serif" font-size="10.00">_CPUFreqMonitorPrivate</text>
</a>
</g>
</g>
<!-- Node4&#45;&gt;Node3 -->
<g id="edge3_Node000003_Node000004" class="edge">
<title>Node4&#45;&gt;Node3</title>
<g id="a_edge3_Node000003_Node000004"><a xlink:title=" ">
<path fill="none" stroke="#9a32cd" stroke-dasharray="5,2" d="M67.5,-205.58C67.5,-191.76 67.5,-173.68 67.5,-163.15"/>
<polygon fill="#9a32cd" stroke="#9a32cd" points="64,-205.92 67.5,-215.92 71,-205.92 64,-205.92"/>
</a>
</g>
<text text-anchor="start" x="71" y="-186.5" font-family="Helvetica,sans-Serif" font-size="10.00" fill="grey">priv</text>
</g>
</g>
</svg>
</svg>

<style type='text/css'>
<![CDATA[
[data-mouse-over-selected='false'] { opacity: 0.7; }
[data-mouse-over-selected='true']  { opacity: 1.0; }
]]>
</style>
<script type="application/ecmascript"><![CDATA[
document.addEventListener('DOMContentLoaded', (event) => {
  highlightEdges();
  highlightAdjacentNodes();
});
]]></script>
</svg>
