<?xml version="1.0" encoding="UTF-8" standalone="no"?>
<!DOCTYPE svg PUBLIC "-//W3C//DTD SVG 1.1//EN"
 "http://www.w3.org/Graphics/SVG/1.1/DTD/svg11.dtd">
<!-- Generated by graphviz version 2.43.0 (0)
 -->
<!-- Title: _CalendarSources Pages: 1 -->
<svg width="203pt" height="186pt"
 viewBox="0.00 0.00 203.00 186.00" xmlns="http://www.w3.org/2000/svg" xmlns:xlink="http://www.w3.org/1999/xlink">
<g id="graph0" class="graph" transform="scale(1 1) rotate(0) translate(4 182)">
<title>_CalendarSources</title>
<!-- Node1 -->
<g id="Node000001" class="node">
<title>Node1</title>
<g id="a_Node000001"><a xlink:title=" ">
<polygon fill="#999999" stroke="#666666" points="180,-178 76,-178 76,-159 180,-159 180,-178"/>
<text text-anchor="middle" x="128" y="-166" font-family="Helvetica,sans-Serif" font-size="10.00">_CalendarSources</text>
</a>
</g>
</g>
<!-- Node3 -->
<g id="Node000003" class="node">
<title>Node3</title>
<g id="a_Node000003"><a xlink:title=" ">
<polygon fill="white" stroke="#666666" points="122,-106 0,-106 0,-87 122,-87 122,-106"/>
<text text-anchor="middle" x="61" y="-94" font-family="Helvetica,sans-Serif" font-size="10.00">_CalendarSourceData</text>
</a>
</g>
</g>
<!-- Node1&#45;&gt;Node3 -->
<g id="edge3_Node000003_Node000001" class="edge">
<title>Node1&#45;&gt;Node3</title>
<g id="a_edge3_Node000003_Node000001"><a xlink:title=" ">
<path fill="none" stroke="#9a32cd" stroke-dasharray="5,2" d="M112.6,-151.41C99.13,-137.33 80.07,-117.42 69.28,-106.15"/>
<polygon fill="#9a32cd" stroke="#9a32cd" points="110.34,-154.11 119.78,-158.92 115.4,-149.27 110.34,-154.11"/>
</a>
</g>
<text text-anchor="start" x="106" y="-129.5" font-family="Helvetica,sans-Serif" font-size="10.00" fill="grey">sources</text>
</g>
<!-- Node2 -->
<g id="Node000002" class="node">
<title>Node2</title>
<g id="a_Node000002"><a xlink:title=" ">
<polygon fill="white" stroke="#666666" points="178,-19 40,-19 40,0 178,0 178,-19"/>
<text text-anchor="middle" x="109" y="-7" font-family="Helvetica,sans-Serif" font-size="10.00">_CalendarSourcesPrivate</text>
</a>
</g>
</g>
<!-- Node2&#45;&gt;Node1 -->
<g id="edge1_Node000001_Node000002" class="edge">
<title>Node2&#45;&gt;Node1</title>
<g id="a_edge1_Node000001_Node000002"><a xlink:title=" ">
<path fill="none" stroke="#9a32cd" stroke-dasharray="5,2" d="M146.18,-24.07C151.29,-27.52 155.85,-31.77 159,-37 182.9,-76.72 169.6,-98.53 151,-141 148.07,-147.7 142.83,-153.94 138.09,-158.68"/>
<polygon fill="#9a32cd" stroke="#9a32cd" points="147.65,-20.89 137.22,-19.02 144.21,-26.98 147.65,-20.89"/>
</a>
</g>
<text text-anchor="start" x="173.5" y="-93.5" font-family="Helvetica,sans-Serif" font-size="10.00" fill="grey">priv</text>
</g>
<!-- Node3&#45;&gt;Node2 -->
<g id="edge2_Node000002_Node000003" class="edge">
<title>Node3&#45;&gt;Node2</title>
<g id="a_edge2_Node000002_Node000003"><a xlink:title=" ">
<path fill="none" stroke="#9a32cd" stroke-dasharray="5,2" d="M50.08,-77.99C43.92,-65.66 38.92,-49.24 47,-37 52.48,-28.7 61.16,-22.98 70.3,-19.06"/>
<polygon fill="#9a32cd" stroke="#9a32cd" points="47.1,-79.83 55.04,-86.84 53.2,-76.4 47.1,-79.83"/>
</a>
</g>
<text text-anchor="start" x="50" y="-58" font-family="Helvetica,sans-Serif" font-size="10.00" fill="grey">appointment_sources</text>
<text text-anchor="start" x="50" y="-43" font-family="Helvetica,sans-Serif" font-size="10.00" fill="grey">task_sources</text>
</g>
</g>
</svg>
