<?xml version="1.0" encoding="UTF-8" standalone="no"?>
<!DOCTYPE svg PUBLIC "-//W3C//DTD SVG 1.1//EN"
 "http://www.w3.org/Graphics/SVG/1.1/DTD/svg11.dtd">
<!-- Generated by graphviz version 2.43.0 (0)
 -->
<!-- Title: _DviFont Pages: 1 -->
<svg width="372pt" height="371pt"
 viewBox="0.00 0.00 372.00 371.00" xmlns="http://www.w3.org/2000/svg" xmlns:xlink="http://www.w3.org/1999/xlink">

<svg id="main" version="1.1" xmlns="http://www.w3.org/2000/svg" xmlns:xlink="http://www.w3.org/1999/xlink" xml:space="preserve">

<style type="text/css"><![CDATA[
.node, .edge {opacity: 0.7;}
.node.selected, .edge.selected {opacity: 1;}
.edge:hover path { stroke: red; }
.edge:hover polygon { stroke: red; fill: red; }
]]></style>
<script type="application/ecmascript" xlink:href="svg.min.js"/>
<svg id="graph" class="graph">
<g id="graph0" class="graph" transform="scale(1 1) rotate(0) translate(4 367)">
<title>_DviFont</title>
<!-- Node1 -->
<g id="Node000001" class="node">
<title>Node1</title>
<g id="a_Node000001"><a xlink:title=" ">
<polygon fill="#999999" stroke="#666666" points="205.5,-97.5 146.5,-97.5 146.5,-78.5 205.5,-78.5 205.5,-97.5"/>
<text text-anchor="middle" x="176" y="-85.5" font-family="Helvetica,sans-Serif" font-size="10.00">_DviFont</text>
</a>
</g>
</g>
<!-- Node1&#45;&gt;Node1 -->
<g id="edge1_Node000001_Node000001" class="edge">
<title>Node1&#45;&gt;Node1</title>
<g id="a_edge1_Node000001_Node000001"><a xlink:title=" ">
<path fill="none" stroke="#9a32cd" stroke-dasharray="5,2" d="M215.67,-94.77C220.41,-93.54 223.5,-91.28 223.5,-88 223.5,-82.75 215.58,-80.12 205.69,-80.12"/>
<polygon fill="#9a32cd" stroke="#9a32cd" points="215.24,-91.29 205.69,-95.88 216.01,-98.25 215.24,-91.29"/>
</a>
</g>
<text text-anchor="start" x="226.5" y="-93" font-family="Helvetica,sans-Serif" font-size="10.00" fill="grey">next</text>
<text text-anchor="start" x="226.5" y="-78" font-family="Helvetica,sans-Serif" font-size="10.00" fill="grey">prev</text>
</g>
<!-- Node8 -->
<g id="Node000008" class="node">
<title>Node8</title>
<g id="a_Node000008"><a xlink:href="struct__DviFontRef.html" target="_top" xlink:title=" ">
<polygon fill="white" stroke="#666666" points="214,-19 138,-19 138,0 214,0 214,-19"/>
<text text-anchor="middle" x="176" y="-7" font-family="Helvetica,sans-Serif" font-size="10.00">_DviFontRef</text>
</a>
</g>
</g>
<!-- Node1&#45;&gt;Node8 -->
<g id="edge12_Node000008_Node000001" class="edge">
<title>Node1&#45;&gt;Node8</title>
<g id="a_edge12_Node000008_Node000001"><a xlink:title=" ">
<path fill="none" stroke="#9a32cd" stroke-dasharray="5,2" d="M160.83,-70.38C157.23,-65.45 153.89,-59.81 152,-54 149.66,-46.81 149.28,-44.05 152,-37 154.68,-30.05 160.12,-23.79 165.15,-19.11"/>
<polygon fill="#9a32cd" stroke="#9a32cd" points="158.3,-72.81 167.33,-78.36 163.73,-68.39 158.3,-72.81"/>
</a>
</g>
<text text-anchor="start" x="155" y="-42.5" font-family="Helvetica,sans-Serif" font-size="10.00" fill="grey">ref</text>
</g>
<!-- Node2 -->
<g id="Node000002" class="node">
<title>Node2</title>
<g id="a_Node000002"><a xlink:href="struct__DviFontSearch.html" target="_top" xlink:title=" ">
<polygon fill="white" stroke="#666666" points="155,-176 63,-176 63,-157 155,-157 155,-176"/>
<text text-anchor="middle" x="109" y="-164" font-family="Helvetica,sans-Serif" font-size="10.00">_DviFontSearch</text>
</a>
</g>
</g>
<!-- Node2&#45;&gt;Node1 -->
<g id="edge2_Node000001_Node000002" class="edge">
<title>Node2&#45;&gt;Node1</title>
<g id="a_edge2_Node000001_Node000002"><a xlink:title=" ">
<path fill="none" stroke="#9a32cd" stroke-dasharray="5,2" d="M123.6,-148.83C137.39,-133.08 157.55,-110.07 168.4,-97.67"/>
<polygon fill="#9a32cd" stroke="#9a32cd" points="120.64,-146.9 116.69,-156.72 125.91,-151.51 120.64,-146.9"/>
</a>
</g>
<text text-anchor="start" x="150.5" y="-127.5" font-family="Helvetica,sans-Serif" font-size="10.00" fill="grey">search</text>
</g>
<!-- Node3 -->
<g id="Node000003" class="node">
<title>Node3</title>
<g id="a_Node000003"><a xlink:title=" ">
<polygon fill="white" stroke="#666666" points="152,-284.5 66,-284.5 66,-265.5 152,-265.5 152,-284.5"/>
<text text-anchor="middle" x="109" y="-272.5" font-family="Helvetica,sans-Serif" font-size="10.00">_DviFontClass</text>
</a>
</g>
</g>
<!-- Node3&#45;&gt;Node2 -->
<g id="edge3_Node000002_Node000003" class="edge">
<title>Node3&#45;&gt;Node2</title>
<g id="a_edge3_Node000002_Node000003"><a xlink:title=" ">
<path fill="none" stroke="#9a32cd" stroke-dasharray="5,2" d="M109,-255.25C109,-231.94 109,-193.14 109,-176.04"/>
<polygon fill="#9a32cd" stroke="#9a32cd" points="105.5,-255.28 109,-265.28 112.5,-255.28 105.5,-255.28"/>
</a>
</g>
<text text-anchor="start" x="112.5" y="-214.5" font-family="Helvetica,sans-Serif" font-size="10.00" fill="grey">curr</text>
</g>
<!-- Node3&#45;&gt;Node3 -->
<g id="edge4_Node000003_Node000003" class="edge">
<title>Node3&#45;&gt;Node3</title>
<g id="a_edge4_Node000003_Node000003"><a xlink:title=" ">
<path fill="none" stroke="#9a32cd" stroke-dasharray="5,2" d="M162.25,-281.22C167.01,-279.92 170,-277.85 170,-275 170,-270.45 162.35,-267.87 152.04,-267.26"/>
<polygon fill="#9a32cd" stroke="#9a32cd" points="161.42,-277.81 152.04,-282.74 162.44,-284.73 161.42,-277.81"/>
</a>
</g>
<text text-anchor="start" x="173" y="-280" font-family="Helvetica,sans-Serif" font-size="10.00" fill="grey">next</text>
<text text-anchor="start" x="173" y="-265" font-family="Helvetica,sans-Serif" font-size="10.00" fill="grey">prev</text>
</g>
<!-- Node4 -->
<g id="Node000004" class="node">
<title>Node4</title>
<g id="a_Node000004"><a xlink:href="struct__DviFontInfo.html" target="_top" xlink:title=" ">
<polygon fill="white" stroke="#666666" points="78,-363 0,-363 0,-344 78,-344 78,-363"/>
<text text-anchor="middle" x="39" y="-351" font-family="Helvetica,sans-Serif" font-size="10.00">_DviFontInfo</text>
</a>
</g>
</g>
<!-- Node4&#45;&gt;Node2 -->
<g id="edge6_Node000002_Node000004" class="edge">
<title>Node4&#45;&gt;Node2</title>
<g id="a_edge6_Node000002_Node000004"><a xlink:title=" ">
<path fill="none" stroke="#9a32cd" stroke-dasharray="5,2" d="M33.29,-334.29C28.23,-314.99 22.91,-283.92 32,-259 45.23,-222.72 79.88,-190.86 97.85,-176.15"/>
<polygon fill="#9a32cd" stroke="#9a32cd" points="29.94,-335.28 36.06,-343.92 36.66,-333.35 29.94,-335.28"/>
</a>
</g>
<text text-anchor="start" x="35.5" y="-272" font-family="Helvetica,sans-Serif" font-size="10.00" fill="grey">info</text>
</g>
<!-- Node4&#45;&gt;Node3 -->
<g id="edge5_Node000003_Node000004" class="edge">
<title>Node4&#45;&gt;Node3</title>
<g id="a_edge5_Node000003_Node000004"><a xlink:title=" ">
<path fill="none" stroke="#9a32cd" stroke-dasharray="5,2" d="M53.85,-336.27C68.27,-320.51 89.62,-297.18 101.06,-284.67"/>
<polygon fill="#9a32cd" stroke="#9a32cd" points="51.2,-333.98 47.03,-343.72 56.36,-338.71 51.2,-333.98"/>
</a>
</g>
<text text-anchor="start" x="82.5" y="-314.5" font-family="Helvetica,sans-Serif" font-size="10.00" fill="grey">info</text>
</g>
<!-- Node5 -->
<g id="Node000005" class="node">
<title>Node5</title>
<g id="a_Node000005"><a xlink:href="struct__DviFontChar.html" target="_top" xlink:title=" ">
<polygon fill="white" stroke="#666666" points="284,-176 202,-176 202,-157 284,-157 284,-176"/>
<text text-anchor="middle" x="243" y="-164" font-family="Helvetica,sans-Serif" font-size="10.00">_DviFontChar</text>
</a>
</g>
</g>
<!-- Node5&#45;&gt;Node1 -->
<g id="edge7_Node000001_Node000005" class="edge">
<title>Node5&#45;&gt;Node1</title>
<g id="a_edge7_Node000001_Node000005"><a xlink:title=" ">
<path fill="none" stroke="#9a32cd" stroke-dasharray="5,2" d="M228.4,-148.83C214.61,-133.08 194.45,-110.07 183.6,-97.67"/>
<polygon fill="#9a32cd" stroke="#9a32cd" points="226.09,-151.51 235.31,-156.72 231.36,-146.9 226.09,-151.51"/>
</a>
</g>
<text text-anchor="start" x="223.5" y="-127.5" font-family="Helvetica,sans-Serif" font-size="10.00" fill="grey">chars</text>
</g>
<!-- Node6 -->
<g id="Node000006" class="node">
<title>Node6</title>
<g id="a_Node000006"><a xlink:href="structBITMAP.html" target="_top" xlink:title=" ">
<polygon fill="white" stroke="#666666" points="270,-284.5 216,-284.5 216,-265.5 270,-265.5 270,-284.5"/>
<text text-anchor="middle" x="243" y="-272.5" font-family="Helvetica,sans-Serif" font-size="10.00">BITMAP</text>
</a>
</g>
</g>
<!-- Node6&#45;&gt;Node5 -->
<g id="edge8_Node000005_Node000006" class="edge">
<title>Node6&#45;&gt;Node5</title>
<g id="a_edge8_Node000005_Node000006"><a xlink:title=" ">
<path fill="none" stroke="#9a32cd" stroke-dasharray="5,2" d="M243,-255.25C243,-231.94 243,-193.14 243,-176.04"/>
<polygon fill="#9a32cd" stroke="#9a32cd" points="239.5,-255.28 243,-265.28 246.5,-255.28 239.5,-255.28"/>
</a>
</g>
<text text-anchor="start" x="246.5" y="-214.5" font-family="Helvetica,sans-Serif" font-size="10.00" fill="grey">glyph_data</text>
</g>
<!-- Node7 -->
<g id="Node000007" class="node">
<title>Node7</title>
<g id="a_Node000007"><a xlink:href="struct__DviGlyph.html" target="_top" xlink:title=" ">
<polygon fill="white" stroke="#666666" points="360.5,-284.5 293.5,-284.5 293.5,-265.5 360.5,-265.5 360.5,-284.5"/>
<text text-anchor="middle" x="327" y="-272.5" font-family="Helvetica,sans-Serif" font-size="10.00">_DviGlyph</text>
</a>
</g>
</g>
<!-- Node7&#45;&gt;Node5 -->
<g id="edge9_Node000005_Node000007" class="edge">
<title>Node7&#45;&gt;Node5</title>
<g id="a_edge9_Node000005_Node000007"><a xlink:title=" ">
<path fill="none" stroke="#9a32cd" stroke-dasharray="5,2" d="M326.36,-255.17C324.81,-237.43 319.92,-211.09 305,-194 297.84,-185.8 287.7,-180.06 277.69,-176.07"/>
<polygon fill="#9a32cd" stroke="#9a32cd" points="322.88,-255.63 326.97,-265.41 329.87,-255.22 322.88,-255.63"/>
</a>
</g>
<text text-anchor="start" x="327" y="-229.5" font-family="Helvetica,sans-Serif" font-size="10.00" fill="grey">glyph</text>
<text text-anchor="start" x="327" y="-214.5" font-family="Helvetica,sans-Serif" font-size="10.00" fill="grey">grey</text>
<text text-anchor="start" x="327" y="-199.5" font-family="Helvetica,sans-Serif" font-size="10.00" fill="grey">shrunk</text>
</g>
<!-- Node8&#45;&gt;Node1 -->
<g id="edge10_Node000001_Node000008" class="edge">
<title>Node8&#45;&gt;Node1</title>
<g id="a_edge10_Node000001_Node000008"><a xlink:title=" ">
<path fill="none" stroke="#9a32cd" stroke-dasharray="5,2" d="M176,-29.26C176,-44.86 176,-66.35 176,-78.22"/>
<polygon fill="#9a32cd" stroke="#9a32cd" points="179.5,-29.17 176,-19.17 172.5,-29.17 179.5,-29.17"/>
</a>
</g>
<text text-anchor="start" x="179.5" y="-42.5" font-family="Helvetica,sans-Serif" font-size="10.00" fill="grey">subfonts</text>
</g>
<!-- Node8&#45;&gt;Node8 -->
<g id="edge11_Node000008_Node000008" class="edge">
<title>Node8&#45;&gt;Node8</title>
<g id="a_edge11_Node000008_Node000008"><a xlink:title=" ">
<path fill="none" stroke="#9a32cd" stroke-dasharray="5,2" d="M224.29,-14.98C229.01,-13.88 232,-12.05 232,-9.5 232,-5.42 224.33,-3.19 214.21,-2.81"/>
<polygon fill="#9a32cd" stroke="#9a32cd" points="223.73,-11.52 214.21,-16.19 224.56,-18.47 223.73,-11.52"/>
</a>
</g>
<text text-anchor="start" x="235" y="-6.5" font-family="Helvetica,sans-Serif" font-size="10.00" fill="grey">next</text>
</g>
</g>
</svg>
</svg>

<style type='text/css'>
<![CDATA[
[data-mouse-over-selected='false'] { opacity: 0.7; }
[data-mouse-over-selected='true']  { opacity: 1.0; }
]]>
</style>
<script type="application/ecmascript"><![CDATA[
document.addEventListener('DOMContentLoaded', (event) => {
  highlightEdges();
  highlightAdjacentNodes();
});
]]></script>
</svg>
