<?xml version="1.0" encoding="UTF-8" standalone="no"?>
<!DOCTYPE svg PUBLIC "-//W3C//DTD SVG 1.1//EN"
 "http://www.w3.org/Graphics/SVG/1.1/DTD/svg11.dtd">
<!-- Generated by graphviz version 2.43.0 (0)
 -->
<!-- Title: _PlumaFileBrowserWidget Pages: 1 -->
<!--zoomable 311 -->

<svg id="main" version="1.1" xmlns="http://www.w3.org/2000/svg" xmlns:xlink="http://www.w3.org/1999/xlink" xml:space="preserve" onload="init(evt)">

<style type="text/css"><![CDATA[
.node, .edge {opacity: 0.7;}
.node.selected, .edge.selected {opacity: 1;}
.edge:hover path { stroke: red; }
.edge:hover polygon { stroke: red; fill: red; }
]]></style>

<defs>
  <circle id="rim" cx="0" cy="0" r="7"/>
  <circle id="rim2" cx="0" cy="0" r="3.5"/>
  <g id="zoomPlus">
    <use xlink:href="#rim" fill="#404040"><set attributeName="fill" to="#808080" begin="zoomplus.mouseover" end="zoomplus.mouseout"/></use>
    <path d="M-4,0h8M0,-4v8" fill="none" stroke="white" stroke-width="1.5" pointer-events="none"/>
  </g>
  <g id="zoomMin">
    <use xlink:href="#rim" fill="#404040"><set attributeName="fill" to="#808080" begin="zoomminus.mouseover" end="zoomminus.mouseout"/></use>
    <path d="M-4,0h8" fill="none" stroke="white" stroke-width="1.5" pointer-events="none"/>
  </g>
  <g id="arrowUp" transform="translate(30 24)">
    <use xlink:href="#rim"/>
    <path pointer-events="none" fill="none" stroke="white" stroke-width="1.5" d="M0,-3.0v7 M-2.5,-0.5L0,-3.0L2.5,-0.5"/>
  </g>
  <g id="arrowRight" transform="rotate(90) translate(36 -43)">
    <use xlink:href="#rim"/>
    <path pointer-events="none" fill="none" stroke="white" stroke-width="1.5" d="M0,-3.0v7 M-2.5,-0.5L0,-3.0L2.5,-0.5"/>
  </g>
  <g id="arrowDown" transform="rotate(180) translate(-30 -48)">
    <use xlink:href="#rim"/>
    <path pointer-events="none" fill="none" stroke="white" stroke-width="1.5" d="M0,-3.0v7 M-2.5,-0.5L0,-3.0L2.5,-0.5"/>
  </g>
  <g id="arrowLeft" transform="rotate(270) translate(-36 17)">
    <use xlink:href="#rim"/>
    <path pointer-events="none" fill="none" stroke="white" stroke-width="1.5" d="M0,-3.0v7 M-2.5,-0.5L0,-3.0L2.5,-0.5"/>
  </g>
  <g id="resetDef">
    <use xlink:href="#rim2" fill="#404040"><set attributeName="fill" to="#808080" begin="reset.mouseover" end="reset.mouseout"/></use>
  </g>
</defs>
<script type="application/ecmascript">
var viewWidth = 963;
var viewHeight = 311;
var sectionId = 'dynsection-0';
</script>
<script type="application/ecmascript" xlink:href="svg.min.js"/>
<svg id="graph" class="graph">
<g id="viewport">
<title>_PlumaFileBrowserWidget</title>
<!-- Node1 -->
<g id="Node000001" class="node">
<title>Node1</title>
<g id="a_Node000001"><a xlink:title=" ">
<polygon fill="#999999" stroke="#666666" points="942,-254.76 798,-254.76 798,-235.76 942,-235.76 942,-254.76"/>
<text text-anchor="middle" x="870" y="-242.76" font-family="Helvetica,sans-Serif" font-size="10.00">_PlumaFileBrowserWidget</text>
</a>
</g>
</g>
<!-- Node2 -->
<g id="Node000002" class="node">
<title>Node2</title>
<g id="a_Node000002"><a xlink:title=" ">
<polygon fill="white" stroke="#666666" points="686,-254.76 507,-254.76 507,-235.76 686,-235.76 686,-254.76"/>
<text text-anchor="middle" x="596.5" y="-242.76" font-family="Helvetica,sans-Serif" font-size="10.00">_PlumaFileBrowserWidgetPrivate</text>
</a>
</g>
</g>
<!-- Node2&#45;&gt;Node1 -->
<g id="edge1_Node000001_Node000002" class="edge">
<title>Node2&#45;&gt;Node1</title>
<g id="a_edge1_Node000001_Node000002"><a xlink:title=" ">
<path fill="none" stroke="#9a32cd" stroke-dasharray="5,2" d="M696.33,-245.26C729.92,-245.26 766.77,-245.26 797.77,-245.26"/>
<polygon fill="#9a32cd" stroke="#9a32cd" points="696.02,-241.76 686.02,-245.26 696.02,-248.76 696.02,-241.76"/>
</a>
</g>
<text text-anchor="start" x="726.5" y="-250.76" font-family="Helvetica,sans-Serif" font-size="10.00" fill="grey">priv</text>
</g>
<!-- Node3 -->
<g id="Node000003" class="node">
<title>Node3</title>
<g id="a_Node000003"><a xlink:href="struct__PlumaFileBrowserView.html" target="_top" xlink:title=" ">
<polygon fill="white" stroke="#666666" points="371.5,-295.76 237.5,-295.76 237.5,-276.76 371.5,-276.76 371.5,-295.76"/>
<text text-anchor="middle" x="304.5" y="-283.76" font-family="Helvetica,sans-Serif" font-size="10.00">_PlumaFileBrowserView</text>
</a>
</g>
</g>
<!-- Node3&#45;&gt;Node2 -->
<g id="edge2_Node000002_Node000003" class="edge">
<title>Node3&#45;&gt;Node2</title>
<g id="a_edge2_Node000002_Node000003"><a xlink:title=" ">
<path fill="none" stroke="#9a32cd" stroke-dasharray="5,2" d="M381.91,-278.09C414.91,-274.31 453.91,-269.49 489,-264.26 507.48,-261.51 527.69,-258.03 545.48,-254.8"/>
<polygon fill="#9a32cd" stroke="#9a32cd" points="381.41,-274.63 371.87,-279.23 382.2,-281.58 381.41,-274.63"/>
</a>
</g>
<text text-anchor="start" x="422.5" y="-280.76" font-family="Helvetica,sans-Serif" font-size="10.00" fill="grey">treeview</text>
</g>
<!-- Node4 -->
<g id="Node000004" class="node">
<title>Node4</title>
<g id="a_Node000004"><a xlink:title=" ">
<polygon fill="white" stroke="#666666" points="168,-296.76 0,-296.76 0,-277.76 168,-277.76 168,-296.76"/>
<text text-anchor="middle" x="84" y="-284.76" font-family="Helvetica,sans-Serif" font-size="10.00">_PlumaFileBrowserViewPrivate</text>
</a>
</g>
</g>
<!-- Node4&#45;&gt;Node3 -->
<g id="edge3_Node000003_Node000004" class="edge">
<title>Node4&#45;&gt;Node3</title>
<g id="a_edge3_Node000003_Node000004"><a xlink:title=" ">
<path fill="none" stroke="#9a32cd" stroke-dasharray="5,2" d="M178.25,-286.84C198.18,-286.75 218.83,-286.65 237.48,-286.57"/>
<polygon fill="#9a32cd" stroke="#9a32cd" points="178.21,-283.34 168.23,-286.88 178.24,-290.34 178.21,-283.34"/>
</a>
</g>
<text text-anchor="start" x="189.5" y="-291.76" font-family="Helvetica,sans-Serif" font-size="10.00" fill="grey">priv</text>
</g>
<!-- Node5 -->
<g id="Node000005" class="node">
<title>Node5</title>
<g id="a_Node000005"><a xlink:href="struct__PlumaFileBrowserStore.html" target="_top" xlink:title=" ">
<polygon fill="white" stroke="#666666" points="372,-158.76 237,-158.76 237,-139.76 372,-139.76 372,-158.76"/>
<text text-anchor="middle" x="304.5" y="-146.76" font-family="Helvetica,sans-Serif" font-size="10.00">_PlumaFileBrowserStore</text>
</a>
</g>
</g>
<!-- Node5&#45;&gt;Node2 -->
<g id="edge4_Node000002_Node000005" class="edge">
<title>Node5&#45;&gt;Node2</title>
<g id="a_edge4_Node000002_Node000005"><a xlink:title=" ">
<path fill="none" stroke="#9a32cd" stroke-dasharray="5,2" d="M340.19,-162.46C357.49,-168.93 378.77,-176.72 398,-183.26 456,-203.02 524.35,-223.96 563.53,-235.75"/>
<polygon fill="#9a32cd" stroke="#9a32cd" points="341.1,-159.07 330.51,-158.83 338.64,-165.62 341.1,-159.07"/>
</a>
</g>
<text text-anchor="start" x="420.5" y="-217.76" font-family="Helvetica,sans-Serif" font-size="10.00" fill="grey">file_store</text>
</g>
<!-- Node6 -->
<g id="Node000006" class="node">
<title>Node6</title>
<g id="a_Node000006"><a xlink:title=" ">
<polygon fill="white" stroke="#666666" points="955,-106.76 785,-106.76 785,-87.76 955,-87.76 955,-106.76"/>
<text text-anchor="middle" x="870" y="-94.76" font-family="Helvetica,sans-Serif" font-size="10.00">_PlumaFileBrowserStorePrivate</text>
</a>
</g>
</g>
<!-- Node5&#45;&gt;Node6 -->
<g id="edge8_Node000006_Node000005" class="edge">
<title>Node5&#45;&gt;Node6</title>
<g id="a_edge8_Node000006_Node000005"><a xlink:title=" ">
<path fill="none" stroke="#9a32cd" stroke-dasharray="5,2" d="M322.63,-132.58C355.24,-102.14 429.89,-38.57 507,-15.26 583.16,7.75 608.2,1.37 686,-15.26 752.05,-29.39 823.08,-69.2 853.62,-87.65"/>
<polygon fill="#9a32cd" stroke="#9a32cd" points="320.12,-130.14 315.27,-139.56 324.94,-135.22 320.12,-130.14"/>
</a>
</g>
<text text-anchor="start" x="572.5" y="-20.76" font-family="Helvetica,sans-Serif" font-size="10.00" fill="grey">filter_func</text>
</g>
<!-- Node8 -->
<g id="Node000008" class="node">
<title>Node8</title>
<g id="a_Node000008"><a xlink:title=" ">
<polygon fill="white" stroke="#666666" points="629.5,-186.76 563.5,-186.76 563.5,-167.76 629.5,-167.76 629.5,-186.76"/>
<text text-anchor="middle" x="596.5" y="-174.76" font-family="Helvetica,sans-Serif" font-size="10.00">MountInfo</text>
</a>
</g>
</g>
<!-- Node5&#45;&gt;Node8 -->
<g id="edge10_Node000008_Node000005" class="edge">
<title>Node5&#45;&gt;Node8</title>
<g id="a_edge10_Node000008_Node000005"><a xlink:title=" ">
<path fill="none" stroke="#9a32cd" stroke-dasharray="5,2" d="M382.2,-156.19C415.09,-159.21 453.94,-162.83 489,-166.26 513.97,-168.71 542.23,-171.64 563.35,-173.86"/>
<polygon fill="#9a32cd" stroke="#9a32cd" points="382.47,-152.7 372.2,-155.27 381.83,-159.67 382.47,-152.7"/>
</a>
</g>
<text text-anchor="start" x="428.5" y="-171.76" font-family="Helvetica,sans-Serif" font-size="10.00" fill="grey">model</text>
</g>
<!-- Node6&#45;&gt;Node5 -->
<g id="edge5_Node000005_Node000006" class="edge">
<title>Node6&#45;&gt;Node5</title>
<g id="a_edge5_Node000005_Node000006"><a xlink:title=" ">
<path fill="none" stroke="#9a32cd" stroke-dasharray="5,2" d="M819.03,-108.97C802.54,-112.45 784.06,-115.95 767,-118.26 692.7,-128.36 481.21,-140.22 372.23,-145.9"/>
<polygon fill="#9a32cd" stroke="#9a32cd" points="819.97,-112.34 829.01,-106.81 818.49,-105.5 819.97,-112.34"/>
</a>
</g>
<text text-anchor="start" x="587.5" y="-143.76" font-family="Helvetica,sans-Serif" font-size="10.00" fill="grey">priv</text>
</g>
<!-- Node7 -->
<g id="Node000007" class="node">
<title>Node7</title>
<g id="a_Node000007"><a xlink:title=" ">
<polygon fill="white" stroke="#666666" points="648.5,-60.76 544.5,-60.76 544.5,-41.76 648.5,-41.76 648.5,-60.76"/>
<text text-anchor="middle" x="596.5" y="-48.76" font-family="Helvetica,sans-Serif" font-size="10.00">_FileBrowserNode</text>
</a>
</g>
</g>
<!-- Node7&#45;&gt;Node6 -->
<g id="edge6_Node000006_Node000007" class="edge">
<title>Node7&#45;&gt;Node6</title>
<g id="a_edge6_Node000006_Node000007"><a xlink:title=" ">
<path fill="none" stroke="#9a32cd" stroke-dasharray="5,2" d="M658.78,-56.52C691.12,-59.8 731.38,-64.65 767,-71.26 790.36,-75.6 816.3,-82.24 836.17,-87.72"/>
<polygon fill="#9a32cd" stroke="#9a32cd" points="658.87,-53.02 648.57,-55.52 658.18,-59.98 658.87,-53.02"/>
</a>
</g>
<text text-anchor="start" x="707.5" y="-106.76" font-family="Helvetica,sans-Serif" font-size="10.00" fill="grey">root</text>
<text text-anchor="start" x="707.5" y="-91.76" font-family="Helvetica,sans-Serif" font-size="10.00" fill="grey">sort_func</text>
<text text-anchor="start" x="707.5" y="-76.76" font-family="Helvetica,sans-Serif" font-size="10.00" fill="grey">virtual_root</text>
</g>
<!-- Node7&#45;&gt;Node7 -->
<g id="edge7_Node000007_Node000007" class="edge">
<title>Node7&#45;&gt;Node7</title>
<g id="a_edge7_Node000007_Node000007"><a xlink:title=" ">
<path fill="none" stroke="#9a32cd" stroke-dasharray="5,2" d="M570.83,-69.95C572.23,-74.96 580.79,-78.76 596.5,-78.76 621.03,-78.76 628.12,-69.5 617.77,-60.85"/>
<polygon fill="#9a32cd" stroke="#9a32cd" points="574.03,-71.37 575.23,-60.85 567.73,-68.33 574.03,-71.37"/>
</a>
</g>
<text text-anchor="start" x="580.5" y="-84.26" font-family="Helvetica,sans-Serif" font-size="10.00" fill="grey">parent</text>
</g>
<!-- Node8&#45;&gt;Node6 -->
<g id="edge9_Node000006_Node000008" class="edge">
<title>Node8&#45;&gt;Node6</title>
<g id="a_edge9_Node000006_Node000008"><a xlink:title=" ">
<path fill="none" stroke="#9a32cd" stroke-dasharray="5,2" d="M639.95,-172.69C674.71,-168.2 724.85,-159.97 767,-146.26 798.57,-136 832.91,-117.93 852.61,-106.84"/>
<polygon fill="#9a32cd" stroke="#9a32cd" points="639.17,-169.26 629.68,-173.97 640.03,-176.21 639.17,-169.26"/>
</a>
</g>
<text text-anchor="start" x="707.5" y="-167.76" font-family="Helvetica,sans-Serif" font-size="10.00" fill="grey">mount_info</text>
</g>
<!-- Node9 -->
<g id="Node000009" class="node">
<title>Node9</title>
<g id="a_Node000009"><a xlink:href="struct__PlumaFileBookmarksStore.html" target="_top" xlink:title=" ">
<polygon fill="white" stroke="#666666" points="380,-253.76 229,-253.76 229,-234.76 380,-234.76 380,-253.76"/>
<text text-anchor="middle" x="304.5" y="-241.76" font-family="Helvetica,sans-Serif" font-size="10.00">_PlumaFileBookmarksStore</text>
</a>
</g>
</g>
<!-- Node9&#45;&gt;Node2 -->
<g id="edge11_Node000002_Node000009" class="edge">
<title>Node9&#45;&gt;Node2</title>
<g id="a_edge11_Node000002_Node000009"><a xlink:title=" ">
<path fill="none" stroke="#9a32cd" stroke-dasharray="5,2" d="M390.34,-244.56C426.98,-244.68 469.84,-244.83 506.89,-244.96"/>
<polygon fill="#9a32cd" stroke="#9a32cd" points="390.19,-241.06 380.18,-244.52 390.17,-248.06 390.19,-241.06"/>
</a>
</g>
<text text-anchor="start" x="401.5" y="-249.76" font-family="Helvetica,sans-Serif" font-size="10.00" fill="grey">bookmarks_store</text>
</g>
<!-- Node10 -->
<g id="Node000010" class="node">
<title>Node10</title>
<g id="a_Node000010"><a xlink:title=" ">
<polygon fill="white" stroke="#666666" points="159.5,-259.26 8.5,-259.26 8.5,-229.26 159.5,-229.26 159.5,-259.26"/>
<text text-anchor="start" x="16.5" y="-247.26" font-family="Helvetica,sans-Serif" font-size="10.00">_PlumaFileBookmarksStore</text>
<text text-anchor="middle" x="84" y="-236.26" font-family="Helvetica,sans-Serif" font-size="10.00">Private</text>
</a>
</g>
</g>
<!-- Node10&#45;&gt;Node9 -->
<g id="edge12_Node000009_Node000010" class="edge">
<title>Node10&#45;&gt;Node9</title>
<g id="a_edge12_Node000009_Node000010"><a xlink:title=" ">
<path fill="none" stroke="#9a32cd" stroke-dasharray="5,2" d="M169.68,-244.26C189.2,-244.26 209.82,-244.26 228.88,-244.26"/>
<polygon fill="#9a32cd" stroke="#9a32cd" points="169.58,-240.76 159.58,-244.26 169.58,-247.76 169.58,-240.76"/>
</a>
</g>
<text text-anchor="start" x="189.5" y="-249.76" font-family="Helvetica,sans-Serif" font-size="10.00" fill="grey">priv</text>
</g>
</g>
</svg>

<g id="navigator" transform="translate(0 0)" fill="#404254">
  <rect fill="#f2f5e9" fill-opacity="0.5" stroke="#606060" stroke-width=".5" x="0" y="0" width="60" height="60"/>
  <use id="zoomplus" xlink:href="#zoomPlus" x="17" y="9" onmousedown="handleZoom(evt,'in')"/>
  <use id="zoomminus" xlink:href="#zoomMin" x="42" y="9" onmousedown="handleZoom(evt,'out')"/>
  <use id="reset" xlink:href="#resetDef" x="30" y="36" onmousedown="handleReset()"/>
   <use id="arrowup" xlink:href="#arrowUp" x="0" y="0" onmousedown="handlePan(0,-1)"/>
  <use id="arrowright" xlink:href="#arrowRight" x="0" y="0" onmousedown="handlePan(1,0)"/>
  <use id="arrowdown" xlink:href="#arrowDown" x="0" y="0" onmousedown="handlePan(0,1)"/>
  <use id="arrowleft" xlink:href="#arrowLeft" x="0" y="0" onmousedown="handlePan(-1,0)"/>
</g>
<svg viewBox="0 0 15 15" width="100%" height="30px" preserveAspectRatio="xMaxYMin meet">
 <g id="arrow_out" transform="scale(0.3 0.3)">
  <a xlink:href="struct__PlumaFileBrowserWidget__coll__graph_org.svg" target="_base">
   <rect id="button" ry="5" rx="5" y="6" x="6" height="38" width="38"
        fill="#f2f5e9" fill-opacity="0.5" stroke="#606060" stroke-width="1.0"/>
   <path id="arrow"
     d="M 11.500037,31.436501 C 11.940474,20.09759 22.043105,11.32322 32.158766,21.979434 L 37.068811,17.246167 C 37.068811,17.246167 37.088388,32 37.088388,32 L 22.160133,31.978069 C 22.160133,31.978069 26.997745,27.140456 26.997745,27.140456 C 18.528582,18.264221 13.291696,25.230495 11.500037,31.436501 z"
     style="fill:#404040;"/>
  </a>
 </g>
</svg>

<style type='text/css'>
<![CDATA[
[data-mouse-over-selected='false'] { opacity: 0.7; }
[data-mouse-over-selected='true']  { opacity: 1.0; }
]]>
</style>
<script type="application/ecmascript"><![CDATA[
document.addEventListener('DOMContentLoaded', (event) => {
  highlightEdges();
  highlightAdjacentNodes();
});
]]></script>
</svg>
