<?xml version="1.0" encoding="UTF-8" standalone="no"?>
<!DOCTYPE svg PUBLIC "-//W3C//DTD SVG 1.1//EN"
 "http://www.w3.org/Graphics/SVG/1.1/DTD/svg11.dtd">
<!-- Generated by graphviz version 2.43.0 (0)
 -->
<!-- Title: _EomPrintImageSetup Pages: 1 -->
<svg width="176pt" height="402pt"
 viewBox="0.00 0.00 175.50 402.00" xmlns="http://www.w3.org/2000/svg" xmlns:xlink="http://www.w3.org/1999/xlink">

<svg id="main" version="1.1" xmlns="http://www.w3.org/2000/svg" xmlns:xlink="http://www.w3.org/1999/xlink" xml:space="preserve">

<style type="text/css"><![CDATA[
.node, .edge {opacity: 0.7;}
.node.selected, .edge.selected {opacity: 1;}
.edge:hover path { stroke: red; }
.edge:hover polygon { stroke: red; fill: red; }
]]></style>
<script type="application/ecmascript" xlink:href="svg.min.js"/>
<svg id="graph" class="graph">
<g id="graph0" class="graph" transform="scale(1 1) rotate(0) translate(4 398)">
<title>_EomPrintImageSetup</title>
<!-- Node1 -->
<g id="Node000001" class="node">
<title>Node1</title>
<g id="a_Node000001"><a xlink:title=" ">
<polygon fill="#999999" stroke="#666666" points="142,-19 17,-19 17,0 142,0 142,-19"/>
<text text-anchor="middle" x="79.5" y="-7" font-family="Helvetica,sans-Serif" font-size="10.00">_EomPrintImageSetup</text>
</a>
</g>
</g>
<!-- Node2 -->
<g id="Node000002" class="node">
<title>Node2</title>
<g id="a_Node000002"><a xlink:title=" ">
<polygon fill="white" stroke="#666666" points="159,-91 0,-91 0,-72 159,-72 159,-91"/>
<text text-anchor="middle" x="79.5" y="-79" font-family="Helvetica,sans-Serif" font-size="10.00">_EomPrintImageSetupPrivate</text>
</a>
</g>
</g>
<!-- Node2&#45;&gt;Node1 -->
<g id="edge1_Node000001_Node000002" class="edge">
<title>Node2&#45;&gt;Node1</title>
<g id="a_edge1_Node000001_Node000002"><a xlink:title=" ">
<path fill="none" stroke="#9a32cd" stroke-dasharray="5,2" d="M79.5,-61.58C79.5,-47.76 79.5,-29.68 79.5,-19.15"/>
<polygon fill="#9a32cd" stroke="#9a32cd" points="76,-61.92 79.5,-71.92 83,-61.92 76,-61.92"/>
</a>
</g>
<text text-anchor="start" x="83" y="-42.5" font-family="Helvetica,sans-Serif" font-size="10.00" fill="grey">priv</text>
</g>
<!-- Node3 -->
<g id="Node000003" class="node">
<title>Node3</title>
<g id="a_Node000003"><a xlink:href="struct__EomImage.html" target="_top" xlink:title=" ">
<polygon fill="white" stroke="#666666" points="116.5,-163 42.5,-163 42.5,-144 116.5,-144 116.5,-163"/>
<text text-anchor="middle" x="79.5" y="-151" font-family="Helvetica,sans-Serif" font-size="10.00">_EomImage</text>
</a>
</g>
</g>
<!-- Node3&#45;&gt;Node2 -->
<g id="edge2_Node000002_Node000003" class="edge">
<title>Node3&#45;&gt;Node2</title>
<g id="a_edge2_Node000002_Node000003"><a xlink:title=" ">
<path fill="none" stroke="#9a32cd" stroke-dasharray="5,2" d="M79.5,-133.58C79.5,-119.76 79.5,-101.68 79.5,-91.15"/>
<polygon fill="#9a32cd" stroke="#9a32cd" points="76,-133.92 79.5,-143.92 83,-133.92 76,-133.92"/>
</a>
</g>
<text text-anchor="start" x="83" y="-114.5" font-family="Helvetica,sans-Serif" font-size="10.00" fill="grey">image</text>
</g>
<!-- Node4 -->
<g id="Node000004" class="node">
<title>Node4</title>
<g id="a_Node000004"><a xlink:href="struct__EomImagePrivate.html" target="_top" xlink:title=" ">
<polygon fill="white" stroke="#666666" points="134,-235 25,-235 25,-216 134,-216 134,-235"/>
<text text-anchor="middle" x="79.5" y="-223" font-family="Helvetica,sans-Serif" font-size="10.00">_EomImagePrivate</text>
</a>
</g>
</g>
<!-- Node4&#45;&gt;Node3 -->
<g id="edge3_Node000003_Node000004" class="edge">
<title>Node4&#45;&gt;Node3</title>
<g id="a_edge3_Node000003_Node000004"><a xlink:title=" ">
<path fill="none" stroke="#9a32cd" stroke-dasharray="5,2" d="M79.5,-205.58C79.5,-191.76 79.5,-173.68 79.5,-163.15"/>
<polygon fill="#9a32cd" stroke="#9a32cd" points="76,-205.92 79.5,-215.92 83,-205.92 76,-205.92"/>
</a>
</g>
<text text-anchor="start" x="83" y="-186.5" font-family="Helvetica,sans-Serif" font-size="10.00" fill="grey">priv</text>
</g>
<!-- Node5 -->
<g id="Node000005" class="node">
<title>Node5</title>
<g id="a_Node000005"><a xlink:href="struct__EomTransform.html" target="_top" xlink:title=" ">
<polygon fill="white" stroke="#666666" points="125.5,-322 33.5,-322 33.5,-303 125.5,-303 125.5,-322"/>
<text text-anchor="middle" x="79.5" y="-310" font-family="Helvetica,sans-Serif" font-size="10.00">_EomTransform</text>
</a>
</g>
</g>
<!-- Node5&#45;&gt;Node4 -->
<g id="edge4_Node000004_Node000005" class="edge">
<title>Node5&#45;&gt;Node4</title>
<g id="a_edge4_Node000004_Node000005"><a xlink:title=" ">
<path fill="none" stroke="#9a32cd" stroke-dasharray="5,2" d="M79.5,-292.62C79.5,-274.79 79.5,-248.83 79.5,-235.36"/>
<polygon fill="#9a32cd" stroke="#9a32cd" points="76,-292.72 79.5,-302.72 83,-292.72 76,-292.72"/>
</a>
</g>
<text text-anchor="start" x="82.5" y="-274" font-family="Helvetica,sans-Serif" font-size="10.00" fill="grey">trans</text>
<text text-anchor="start" x="82.5" y="-259" font-family="Helvetica,sans-Serif" font-size="10.00" fill="grey">trans_autorotate</text>
</g>
<!-- Node6 -->
<g id="Node000006" class="node">
<title>Node6</title>
<g id="a_Node000006"><a xlink:title=" ">
<polygon fill="white" stroke="#666666" points="143,-394 16,-394 16,-375 143,-375 143,-394"/>
<text text-anchor="middle" x="79.5" y="-382" font-family="Helvetica,sans-Serif" font-size="10.00">_EomTransformPrivate</text>
</a>
</g>
</g>
<!-- Node6&#45;&gt;Node5 -->
<g id="edge5_Node000005_Node000006" class="edge">
<title>Node6&#45;&gt;Node5</title>
<g id="a_edge5_Node000005_Node000006"><a xlink:title=" ">
<path fill="none" stroke="#9a32cd" stroke-dasharray="5,2" d="M79.5,-364.58C79.5,-350.76 79.5,-332.68 79.5,-322.15"/>
<polygon fill="#9a32cd" stroke="#9a32cd" points="76,-364.92 79.5,-374.92 83,-364.92 76,-364.92"/>
</a>
</g>
<text text-anchor="start" x="83" y="-345.5" font-family="Helvetica,sans-Serif" font-size="10.00" fill="grey">priv</text>
</g>
</g>
</svg>
</svg>

<style type='text/css'>
<![CDATA[
[data-mouse-over-selected='false'] { opacity: 0.7; }
[data-mouse-over-selected='true']  { opacity: 1.0; }
]]>
</style>
<script type="application/ecmascript"><![CDATA[
document.addEventListener('DOMContentLoaded', (event) => {
  highlightEdges();
  highlightAdjacentNodes();
});
]]></script>
</svg>
