<?xml version="1.0" encoding="UTF-8" standalone="no"?>
<!DOCTYPE svg PUBLIC "-//W3C//DTD SVG 1.1//EN"
 "http://www.w3.org/Graphics/SVG/1.1/DTD/svg11.dtd">
<!-- Generated by graphviz version 2.43.0 (0)
 -->
<!-- Title: _PanelToplevel Pages: 1 -->
<!--zoomable 243 -->

<svg id="main" version="1.1" xmlns="http://www.w3.org/2000/svg" xmlns:xlink="http://www.w3.org/1999/xlink" xml:space="preserve" onload="init(evt)">

<style type="text/css"><![CDATA[
.node, .edge {opacity: 0.7;}
.node.selected, .edge.selected {opacity: 1;}
.edge:hover path { stroke: red; }
.edge:hover polygon { stroke: red; fill: red; }
]]></style>

<defs>
  <circle id="rim" cx="0" cy="0" r="7"/>
  <circle id="rim2" cx="0" cy="0" r="3.5"/>
  <g id="zoomPlus">
    <use xlink:href="#rim" fill="#404040"><set attributeName="fill" to="#808080" begin="zoomplus.mouseover" end="zoomplus.mouseout"/></use>
    <path d="M-4,0h8M0,-4v8" fill="none" stroke="white" stroke-width="1.5" pointer-events="none"/>
  </g>
  <g id="zoomMin">
    <use xlink:href="#rim" fill="#404040"><set attributeName="fill" to="#808080" begin="zoomminus.mouseover" end="zoomminus.mouseout"/></use>
    <path d="M-4,0h8" fill="none" stroke="white" stroke-width="1.5" pointer-events="none"/>
  </g>
  <g id="arrowUp" transform="translate(30 24)">
    <use xlink:href="#rim"/>
    <path pointer-events="none" fill="none" stroke="white" stroke-width="1.5" d="M0,-3.0v7 M-2.5,-0.5L0,-3.0L2.5,-0.5"/>
  </g>
  <g id="arrowRight" transform="rotate(90) translate(36 -43)">
    <use xlink:href="#rim"/>
    <path pointer-events="none" fill="none" stroke="white" stroke-width="1.5" d="M0,-3.0v7 M-2.5,-0.5L0,-3.0L2.5,-0.5"/>
  </g>
  <g id="arrowDown" transform="rotate(180) translate(-30 -48)">
    <use xlink:href="#rim"/>
    <path pointer-events="none" fill="none" stroke="white" stroke-width="1.5" d="M0,-3.0v7 M-2.5,-0.5L0,-3.0L2.5,-0.5"/>
  </g>
  <g id="arrowLeft" transform="rotate(270) translate(-36 17)">
    <use xlink:href="#rim"/>
    <path pointer-events="none" fill="none" stroke="white" stroke-width="1.5" d="M0,-3.0v7 M-2.5,-0.5L0,-3.0L2.5,-0.5"/>
  </g>
  <g id="resetDef">
    <use xlink:href="#rim2" fill="#404040"><set attributeName="fill" to="#808080" begin="reset.mouseover" end="reset.mouseout"/></use>
  </g>
</defs>
<script type="application/ecmascript">
var viewWidth = 594;
var viewHeight = 243;
var sectionId = 'dynsection-0';
</script>
<script type="application/ecmascript" xlink:href="svg.min.js"/>
<svg id="graph" class="graph">
<g id="viewport">
<title>_PanelToplevel</title>
<!-- Node1 -->
<g id="Node000001" class="node">
<title>Node1</title>
<g id="a_Node000001"><a xlink:title=" ">
<polygon fill="#999999" stroke="#666666" points="124.49,-163 35.49,-163 35.49,-144 124.49,-144 124.49,-163"/>
<text text-anchor="middle" x="79.99" y="-151" font-family="Helvetica,sans-Serif" font-size="10.00">_PanelToplevel</text>
</a>
</g>
</g>
<!-- Node3 -->
<g id="Node000003" class="node">
<title>Node3</title>
<g id="a_Node000003"><a xlink:title=" ">
<polygon fill="white" stroke="#666666" points="167.49,-19 44.49,-19 44.49,0 167.49,0 167.49,-19"/>
<text text-anchor="middle" x="105.99" y="-7" font-family="Helvetica,sans-Serif" font-size="10.00">_PanelToplevelPrivate</text>
</a>
</g>
</g>
<!-- Node1&#45;&gt;Node3 -->
<g id="edge11_Node000003_Node000001" class="edge">
<title>Node1&#45;&gt;Node3</title>
<g id="a_edge11_Node000003_Node000001"><a xlink:title=" ">
<path fill="none" stroke="#9a32cd" stroke-dasharray="5,2" d="M51.35,-139.29C23.83,-124.61 -11.46,-99.37 3.99,-72 19.45,-44.63 52.51,-28.08 76.82,-19.15"/>
<polygon fill="#9a32cd" stroke="#9a32cd" points="49.8,-142.43 60.3,-143.84 52.98,-136.19 49.8,-142.43"/>
</a>
</g>
<text text-anchor="start" x="6.99" y="-78.5" font-family="Helvetica,sans-Serif" font-size="10.00" fill="grey">attach_toplevel</text>
</g>
<!-- Node4 -->
<g id="Node000004" class="node">
<title>Node4</title>
<g id="a_Node000004"><a xlink:href="struct__PanelWidget.html" target="_top" xlink:title=" ">
<polygon fill="white" stroke="#666666" points="209.49,-91 126.49,-91 126.49,-72 209.49,-72 209.49,-91"/>
<text text-anchor="middle" x="167.99" y="-79" font-family="Helvetica,sans-Serif" font-size="10.00">_PanelWidget</text>
</a>
</g>
</g>
<!-- Node1&#45;&gt;Node4 -->
<g id="edge7_Node000004_Node000001" class="edge">
<title>Node1&#45;&gt;Node4</title>
<g id="a_edge7_Node000004_Node000001"><a xlink:title=" ">
<path fill="none" stroke="#9a32cd" stroke-dasharray="5,2" d="M88.29,-134.78C93.07,-126.1 99.76,-116.04 107.99,-109 117.17,-101.16 129.03,-95.26 139.78,-91.05"/>
<polygon fill="#9a32cd" stroke="#9a32cd" points="85.15,-133.24 83.74,-143.74 91.39,-136.41 85.15,-133.24"/>
</a>
</g>
<text text-anchor="start" x="110.99" y="-114.5" font-family="Helvetica,sans-Serif" font-size="10.00" fill="grey">toplevel</text>
</g>
<!-- Node2 -->
<g id="Node000002" class="node">
<title>Node2</title>
<g id="a_Node000002"><a xlink:href="struct__PanelBackground.html" target="_top" xlink:title=" ">
<polygon fill="white" stroke="#666666" points="175.99,-235 69.99,-235 69.99,-216 175.99,-216 175.99,-235"/>
<text text-anchor="middle" x="122.99" y="-223" font-family="Helvetica,sans-Serif" font-size="10.00">_PanelBackground</text>
</a>
</g>
</g>
<!-- Node2&#45;&gt;Node1 -->
<g id="edge1_Node000001_Node000002" class="edge">
<title>Node2&#45;&gt;Node1</title>
<g id="a_edge1_Node000001_Node000002"><a xlink:title=" ">
<path fill="none" stroke="#9a32cd" stroke-dasharray="5,2" d="M96.98,-210.1C92.71,-206.65 88.78,-202.62 85.99,-198 79.53,-187.3 78.88,-172.45 79.26,-163.17"/>
<polygon fill="#9a32cd" stroke="#9a32cd" points="95.18,-213.11 105.38,-215.97 99.19,-207.37 95.18,-213.11"/>
</a>
</g>
<text text-anchor="start" x="88.99" y="-186.5" font-family="Helvetica,sans-Serif" font-size="10.00" fill="grey">background</text>
</g>
<!-- Node2&#45;&gt;Node2 -->
<g id="edge2_Node000002_Node000002" class="edge">
<title>Node2&#45;&gt;Node2</title>
<g id="a_edge2_Node000002_Node000002"><a xlink:title=" ">
<path fill="none" stroke="#9a32cd" stroke-dasharray="5,2" d="M186.42,-230.52C191.11,-229.39 193.99,-227.72 193.99,-225.5 193.99,-221.95 186.62,-219.8 176.25,-219.05"/>
<polygon fill="#9a32cd" stroke="#9a32cd" points="185.66,-227.09 176.25,-231.95 186.64,-234.02 185.66,-227.09"/>
</a>
</g>
<text text-anchor="start" x="197.49" y="-222.5" font-family="Helvetica,sans-Serif" font-size="10.00" fill="grey">notify_changed</text>
</g>
<!-- Node2&#45;&gt;Node4 -->
<g id="edge6_Node000004_Node000002" class="edge">
<title>Node2&#45;&gt;Node4</title>
<g id="a_edge6_Node000004_Node000002"><a xlink:title=" ">
<path fill="none" stroke="#9a32cd" stroke-dasharray="5,2" d="M142.05,-208.97C145.13,-205.65 147.96,-201.94 149.99,-198 168.63,-161.72 169.1,-111.21 168.44,-91.18"/>
<polygon fill="#9a32cd" stroke="#9a32cd" points="139.55,-206.52 134.71,-215.94 144.37,-211.6 139.55,-206.52"/>
</a>
</g>
<text text-anchor="start" x="167.99" y="-150.5" font-family="Helvetica,sans-Serif" font-size="10.00" fill="grey">background</text>
</g>
<!-- Node3&#45;&gt;Node1 -->
<g id="edge3_Node000001_Node000003" class="edge">
<title>Node3&#45;&gt;Node1</title>
<g id="a_edge3_Node000001_Node000003"><a xlink:title=" ">
<path fill="none" stroke="#9a32cd" stroke-dasharray="5,2" d="M101.82,-29.09C99.14,-41.27 95.68,-57.54 92.99,-72 88.17,-97.89 83.49,-128.65 81.29,-143.54"/>
<polygon fill="#9a32cd" stroke="#9a32cd" points="105.26,-29.75 104.01,-19.23 98.42,-28.24 105.26,-29.75"/>
</a>
</g>
<text text-anchor="start" x="96.49" y="-78.5" font-family="Helvetica,sans-Serif" font-size="10.00" fill="grey">priv</text>
</g>
<!-- Node4&#45;&gt;Node3 -->
<g id="edge4_Node000003_Node000004" class="edge">
<title>Node4&#45;&gt;Node3</title>
<g id="a_edge4_Node000003_Node000004"><a xlink:title=" ">
<path fill="none" stroke="#9a32cd" stroke-dasharray="5,2" d="M153.74,-64.41C141.27,-50.33 123.64,-30.42 113.66,-19.15"/>
<polygon fill="#9a32cd" stroke="#9a32cd" points="151.14,-66.75 160.39,-71.92 156.38,-62.11 151.14,-66.75"/>
</a>
</g>
<text text-anchor="start" x="146.99" y="-42.5" font-family="Helvetica,sans-Serif" font-size="10.00" fill="grey">panel_widget</text>
</g>
<!-- Node5 -->
<g id="Node000005" class="node">
<title>Node5</title>
<g id="a_Node000005"><a xlink:href="struct__AppletData.html" target="_top" xlink:title=" ">
<polygon fill="white" stroke="#666666" points="323.49,-163 246.49,-163 246.49,-144 323.49,-144 323.49,-163"/>
<text text-anchor="middle" x="284.99" y="-151" font-family="Helvetica,sans-Serif" font-size="10.00">_AppletData</text>
</a>
</g>
</g>
<!-- Node5&#45;&gt;Node4 -->
<g id="edge5_Node000004_Node000005" class="edge">
<title>Node5&#45;&gt;Node4</title>
<g id="a_edge5_Node000004_Node000005"><a xlink:title=" ">
<path fill="none" stroke="#9a32cd" stroke-dasharray="5,2" d="M260.48,-138.94C253.21,-134.85 245.25,-130.3 237.99,-126 218.05,-114.19 195.31,-99.91 181.31,-91.01"/>
<polygon fill="#9a32cd" stroke="#9a32cd" points="258.79,-142.01 269.23,-143.83 262.21,-135.9 258.79,-142.01"/>
</a>
</g>
<text text-anchor="start" x="241.49" y="-114.5" font-family="Helvetica,sans-Serif" font-size="10.00" fill="grey">currently_dragged_applet</text>
</g>
<!-- Node6 -->
<g id="Node000006" class="node">
<title>Node6</title>
<g id="a_Node000006"><a xlink:href="struct__AppletSizeHints.html" target="_top" xlink:title=" ">
<polygon fill="white" stroke="#666666" points="440.49,-163 341.49,-163 341.49,-144 440.49,-144 440.49,-163"/>
<text text-anchor="middle" x="390.99" y="-151" font-family="Helvetica,sans-Serif" font-size="10.00">_AppletSizeHints</text>
</a>
</g>
</g>
<!-- Node6&#45;&gt;Node4 -->
<g id="edge8_Node000004_Node000006" class="edge">
<title>Node6&#45;&gt;Node4</title>
<g id="a_edge8_Node000004_Node000006"><a xlink:title=" ">
<path fill="none" stroke="#9a32cd" stroke-dasharray="5,2" d="M386.18,-134.13C382.86,-125.11 377.46,-114.93 368.99,-109 341.49,-89.74 252.22,-95.76 218.99,-91 215.97,-90.57 212.85,-90.1 209.72,-89.61"/>
<polygon fill="#9a32cd" stroke="#9a32cd" points="382.9,-135.35 389.2,-143.87 389.58,-133.28 382.9,-135.35"/>
</a>
</g>
<text text-anchor="start" x="384.99" y="-114.5" font-family="Helvetica,sans-Serif" font-size="10.00" fill="grey">applets_hints</text>
</g>
<!-- Node7 -->
<g id="Node000007" class="node">
<title>Node7</title>
<g id="a_Node000007"><a xlink:href="struct__AppletSizeHintsAlloc.html" target="_top" xlink:title=" ">
<polygon fill="white" stroke="#666666" points="581.49,-163 458.49,-163 458.49,-144 581.49,-144 581.49,-163"/>
<text text-anchor="middle" x="519.99" y="-151" font-family="Helvetica,sans-Serif" font-size="10.00">_AppletSizeHintsAlloc</text>
</a>
</g>
</g>
<!-- Node7&#45;&gt;Node4 -->
<g id="edge9_Node000004_Node000007" class="edge">
<title>Node7&#45;&gt;Node4</title>
<g id="a_edge9_Node000004_Node000007"><a xlink:title=" ">
<path fill="none" stroke="#9a32cd" stroke-dasharray="5,2" d="M503.61,-137.28C491.86,-127.35 475.13,-115.13 457.99,-109 407.84,-91.06 271.87,-97.38 218.99,-91 215.96,-90.63 212.84,-90.22 209.7,-89.76"/>
<polygon fill="#9a32cd" stroke="#9a32cd" points="501.41,-140 511.22,-143.98 506.03,-134.75 501.41,-140"/>
</a>
</g>
<text text-anchor="start" x="490.99" y="-114.5" font-family="Helvetica,sans-Serif" font-size="10.00" fill="grey">applets_using_hint</text>
</g>
<!-- Node8 -->
<g id="Node000008" class="node">
<title>Node8</title>
<g id="a_Node000008"><a xlink:href="struct__PanelFrame.html" target="_top" xlink:title=" ">
<polygon fill="white" stroke="#666666" points="306.49,-91 227.49,-91 227.49,-72 306.49,-72 306.49,-91"/>
<text text-anchor="middle" x="266.99" y="-79" font-family="Helvetica,sans-Serif" font-size="10.00">_PanelFrame</text>
</a>
</g>
</g>
<!-- Node8&#45;&gt;Node3 -->
<g id="edge10_Node000003_Node000008" class="edge">
<title>Node8&#45;&gt;Node3</title>
<g id="a_edge10_Node000003_Node000008"><a xlink:title=" ">
<path fill="none" stroke="#9a32cd" stroke-dasharray="5,2" d="M253.31,-64.17C244.67,-54.87 232.75,-43.77 219.99,-37 203.92,-28.48 185.16,-22.68 167.54,-18.74"/>
<polygon fill="#9a32cd" stroke="#9a32cd" points="250.75,-66.55 260,-71.72 255.99,-61.91 250.75,-66.55"/>
</a>
</g>
<text text-anchor="start" x="244.99" y="-42.5" font-family="Helvetica,sans-Serif" font-size="10.00" fill="grey">inner_frame</text>
</g>
</g>
</svg>

<g id="navigator" transform="translate(0 0)" fill="#404254">
  <rect fill="#f2f5e9" fill-opacity="0.5" stroke="#606060" stroke-width=".5" x="0" y="0" width="60" height="60"/>
  <use id="zoomplus" xlink:href="#zoomPlus" x="17" y="9" onmousedown="handleZoom(evt,'in')"/>
  <use id="zoomminus" xlink:href="#zoomMin" x="42" y="9" onmousedown="handleZoom(evt,'out')"/>
  <use id="reset" xlink:href="#resetDef" x="30" y="36" onmousedown="handleReset()"/>
   <use id="arrowup" xlink:href="#arrowUp" x="0" y="0" onmousedown="handlePan(0,-1)"/>
  <use id="arrowright" xlink:href="#arrowRight" x="0" y="0" onmousedown="handlePan(1,0)"/>
  <use id="arrowdown" xlink:href="#arrowDown" x="0" y="0" onmousedown="handlePan(0,1)"/>
  <use id="arrowleft" xlink:href="#arrowLeft" x="0" y="0" onmousedown="handlePan(-1,0)"/>
</g>
<svg viewBox="0 0 15 15" width="100%" height="30px" preserveAspectRatio="xMaxYMin meet">
 <g id="arrow_out" transform="scale(0.3 0.3)">
  <a xlink:href="struct__PanelToplevel__coll__graph_org.svg" target="_base">
   <rect id="button" ry="5" rx="5" y="6" x="6" height="38" width="38"
        fill="#f2f5e9" fill-opacity="0.5" stroke="#606060" stroke-width="1.0"/>
   <path id="arrow"
     d="M 11.500037,31.436501 C 11.940474,20.09759 22.043105,11.32322 32.158766,21.979434 L 37.068811,17.246167 C 37.068811,17.246167 37.088388,32 37.088388,32 L 22.160133,31.978069 C 22.160133,31.978069 26.997745,27.140456 26.997745,27.140456 C 18.528582,18.264221 13.291696,25.230495 11.500037,31.436501 z"
     style="fill:#404040;"/>
  </a>
 </g>
</svg>

<style type='text/css'>
<![CDATA[
[data-mouse-over-selected='false'] { opacity: 0.7; }
[data-mouse-over-selected='true']  { opacity: 1.0; }
]]>
</style>
<script type="application/ecmascript"><![CDATA[
document.addEventListener('DOMContentLoaded', (event) => {
  highlightEdges();
  highlightAdjacentNodes();
});
]]></script>
</svg>
