<?xml version="1.0" encoding="UTF-8" standalone="no"?>
<!DOCTYPE svg PUBLIC "-//W3C//DTD SVG 1.1//EN"
 "http://www.w3.org/Graphics/SVG/1.1/DTD/svg11.dtd">
<!-- Generated by graphviz version 2.43.0 (0)
 -->
<!-- Title: _PlumaDocumentSaver Pages: 1 -->
<svg width="744pt" height="356pt"
 viewBox="0.00 0.00 744.00 356.00" xmlns="http://www.w3.org/2000/svg" xmlns:xlink="http://www.w3.org/1999/xlink">
<g id="graph0" class="graph" transform="scale(1 1) rotate(0) translate(4 352)">
<title>_PlumaDocumentSaver</title>
<!-- Node1 -->
<g id="Node000001" class="node">
<title>Node1</title>
<g id="a_Node000001"><a xlink:title=" ">
<polygon fill="#999999" stroke="#666666" points="131,-348 0,-348 0,-329 131,-329 131,-348"/>
<text text-anchor="middle" x="65.5" y="-336" font-family="Helvetica,sans-Serif" font-size="10.00">_PlumaDocumentSaver</text>
</a>
</g>
</g>
<!-- Node4 -->
<g id="Node000004" class="node">
<title>Node4</title>
<g id="a_Node000004"><a xlink:title=" ">
<polygon fill="white" stroke="#666666" points="281,-255.5 144,-255.5 144,-236.5 281,-236.5 281,-255.5"/>
<text text-anchor="middle" x="212.5" y="-243.5" font-family="Helvetica,sans-Serif" font-size="10.00">_PlumaDocumentPrivate</text>
</a>
</g>
</g>
<!-- Node1&#45;&gt;Node4 -->
<g id="edge11_Node000004_Node000001" class="edge">
<title>Node1&#45;&gt;Node4</title>
<g id="a_edge11_Node000004_Node000001"><a xlink:title=" ">
<path fill="none" stroke="#9a32cd" stroke-dasharray="5,2" d="M87.39,-323.24C105.94,-311.24 133.29,-293.73 157.5,-279 170.9,-270.85 186.36,-261.89 197.47,-255.53"/>
<polygon fill="#9a32cd" stroke="#9a32cd" points="85.29,-320.43 78.8,-328.81 89.1,-326.3 85.29,-320.43"/>
</a>
</g>
<text text-anchor="start" x="160.5" y="-292" font-family="Helvetica,sans-Serif" font-size="10.00" fill="grey">saver</text>
</g>
<!-- Node2 -->
<g id="Node000002" class="node">
<title>Node2</title>
<g id="a_Node000002"><a xlink:title=" ">
<polygon fill="white" stroke="#666666" points="389,-91 224,-91 224,-72 389,-72 389,-91"/>
<text text-anchor="middle" x="306.5" y="-79" font-family="Helvetica,sans-Serif" font-size="10.00">_PlumaDocumentSaverPrivate</text>
</a>
</g>
</g>
<!-- Node2&#45;&gt;Node1 -->
<g id="edge1_Node000001_Node000002" class="edge">
<title>Node2&#45;&gt;Node1</title>
<g id="a_edge1_Node000001_Node000002"><a xlink:title=" ">
<path fill="none" stroke="#9a32cd" stroke-dasharray="5,2" d="M235.48,-94.07C225.15,-97.76 215.11,-102.61 206.5,-109 124.15,-170.12 79.21,-294.94 68.2,-328.84"/>
<polygon fill="#9a32cd" stroke="#9a32cd" points="236.56,-97.4 245.01,-91.01 234.42,-90.74 236.56,-97.4"/>
</a>
</g>
<text text-anchor="start" x="142" y="-194" font-family="Helvetica,sans-Serif" font-size="10.00" fill="grey">priv</text>
</g>
<!-- Node3 -->
<g id="Node000003" class="node">
<title>Node3</title>
<g id="a_Node000003"><a xlink:href="struct__PlumaDocument.html" target="_top" xlink:title=" ">
<polygon fill="white" stroke="#666666" points="329,-163 226,-163 226,-144 329,-144 329,-163"/>
<text text-anchor="middle" x="277.5" y="-151" font-family="Helvetica,sans-Serif" font-size="10.00">_PlumaDocument</text>
</a>
</g>
</g>
<!-- Node3&#45;&gt;Node2 -->
<g id="edge2_Node000002_Node000003" class="edge">
<title>Node3&#45;&gt;Node2</title>
<g id="a_edge2_Node000002_Node000003"><a xlink:title=" ">
<path fill="none" stroke="#9a32cd" stroke-dasharray="5,2" d="M275.98,-133.63C276.05,-125.71 277.08,-116.6 280.5,-109 283.67,-101.95 289.58,-95.68 294.97,-91.02"/>
<polygon fill="#9a32cd" stroke="#9a32cd" points="272.49,-133.88 276.38,-143.74 279.49,-133.61 272.49,-133.88"/>
</a>
</g>
<text text-anchor="start" x="284" y="-114.5" font-family="Helvetica,sans-Serif" font-size="10.00" fill="grey">document</text>
</g>
<!-- Node3&#45;&gt;Node4 -->
<g id="edge13_Node000004_Node000003" class="edge">
<title>Node3&#45;&gt;Node4</title>
<g id="a_edge13_Node000004_Node000003"><a xlink:title=" ">
<path fill="none" stroke="#9a32cd" stroke-dasharray="5,2" d="M273,-173.13C269.4,-185.32 263.47,-201.13 254.5,-213 247.31,-222.51 236.6,-230.61 227.79,-236.28"/>
<polygon fill="#9a32cd" stroke="#9a32cd" points="276.46,-173.73 275.66,-163.17 269.7,-171.93 276.46,-173.73"/>
</a>
</g>
<text text-anchor="start" x="272.5" y="-194" font-family="Helvetica,sans-Serif" font-size="10.00" fill="grey">mount_operation_factory</text>
</g>
<!-- Node7 -->
<g id="Node000007" class="node">
<title>Node7</title>
<g id="a_Node000007"><a xlink:title=" ">
<polygon fill="white" stroke="#666666" points="583.5,-91 413.5,-91 413.5,-72 583.5,-72 583.5,-91"/>
<text text-anchor="middle" x="498.5" y="-79" font-family="Helvetica,sans-Serif" font-size="10.00">_PlumaDocumentLoaderPrivate</text>
</a>
</g>
</g>
<!-- Node3&#45;&gt;Node7 -->
<g id="edge7_Node000007_Node000003" class="edge">
<title>Node3&#45;&gt;Node7</title>
<g id="a_edge7_Node000007_Node000003"><a xlink:title=" ">
<path fill="none" stroke="#9a32cd" stroke-dasharray="5,2" d="M314.41,-140.81C358.77,-126.76 432.14,-103.52 471.53,-91.04"/>
<polygon fill="#9a32cd" stroke="#9a32cd" points="313.08,-137.56 304.6,-143.92 315.19,-144.23 313.08,-137.56"/>
</a>
</g>
<text text-anchor="start" x="417" y="-114.5" font-family="Helvetica,sans-Serif" font-size="10.00" fill="grey">document</text>
</g>
<!-- Node4&#45;&gt;Node3 -->
<g id="edge3_Node000003_Node000004" class="edge">
<title>Node4&#45;&gt;Node3</title>
<g id="a_edge3_Node000003_Node000004"><a xlink:title=" ">
<path fill="none" stroke="#9a32cd" stroke-dasharray="5,2" d="M213.63,-225.94C215.31,-212.2 219.44,-193.88 229.5,-181 235.59,-173.2 244.66,-167.36 253.27,-163.18"/>
<polygon fill="#9a32cd" stroke="#9a32cd" points="210.12,-225.91 212.71,-236.18 217.09,-226.53 210.12,-225.91"/>
</a>
</g>
<text text-anchor="start" x="233" y="-194" font-family="Helvetica,sans-Serif" font-size="10.00" fill="grey">priv</text>
</g>
<!-- Node5 -->
<g id="Node000005" class="node">
<title>Node5</title>
<g id="a_Node000005"><a xlink:title=" ">
<polygon fill="white" stroke="#666666" points="478,-348 381,-348 381,-329 478,-329 478,-348"/>
<text text-anchor="middle" x="429.5" y="-336" font-family="Helvetica,sans-Serif" font-size="10.00">_PlumaEncoding</text>
</a>
</g>
</g>
<!-- Node5&#45;&gt;Node2 -->
<g id="edge14_Node000002_Node000005" class="edge">
<title>Node5&#45;&gt;Node2</title>
<g id="a_edge14_Node000002_Node000005"><a xlink:title=" ">
<path fill="none" stroke="#9a32cd" stroke-dasharray="5,2" d="M428.96,-318.86C427.33,-265.76 422.2,-117 415.5,-109 408.91,-101.12 389.24,-95.24 368.39,-91.04"/>
<polygon fill="#9a32cd" stroke="#9a32cd" points="425.46,-319.02 429.26,-328.91 432.46,-318.81 425.46,-319.02"/>
</a>
</g>
<text text-anchor="start" x="428" y="-194" font-family="Helvetica,sans-Serif" font-size="10.00" fill="grey">encoding</text>
</g>
<!-- Node5&#45;&gt;Node4 -->
<g id="edge4_Node000004_Node000005" class="edge">
<title>Node5&#45;&gt;Node4</title>
<g id="a_edge4_Node000004_Node000005"><a xlink:title=" ">
<path fill="none" stroke="#9a32cd" stroke-dasharray="5,2" d="M370.78,-333.02C350.42,-329.32 328.26,-322.72 310.5,-311 295.88,-301.35 301.17,-289.95 287.5,-279 274.24,-268.38 256.93,-260.68 242.29,-255.51"/>
<polygon fill="#9a32cd" stroke="#9a32cd" points="370.49,-336.52 380.92,-334.65 371.61,-329.6 370.49,-336.52"/>
</a>
</g>
<text text-anchor="start" x="314" y="-300" font-family="Helvetica,sans-Serif" font-size="10.00" fill="grey">encoding</text>
<text text-anchor="start" x="314" y="-285" font-family="Helvetica,sans-Serif" font-size="10.00" fill="grey">requested_encoding</text>
</g>
<!-- Node5&#45;&gt;Node7 -->
<g id="edge8_Node000007_Node000005" class="edge">
<title>Node5&#45;&gt;Node7</title>
<g id="a_edge8_Node000007_Node000005"><a xlink:title=" ">
<path fill="none" stroke="#9a32cd" stroke-dasharray="5,2" d="M439.13,-319.97C440.65,-317 442.16,-313.94 443.5,-311 462.89,-268.5 469.96,-258.27 481.5,-213 492.96,-168.06 496.94,-112.33 498.09,-91.19"/>
<polygon fill="#9a32cd" stroke="#9a32cd" points="436.04,-318.32 434.43,-328.79 442.22,-321.61 436.04,-318.32"/>
</a>
</g>
<text text-anchor="start" x="490.5" y="-202" font-family="Helvetica,sans-Serif" font-size="10.00" fill="grey">auto_detected_encoding</text>
<text text-anchor="start" x="490.5" y="-187" font-family="Helvetica,sans-Serif" font-size="10.00" fill="grey">encoding</text>
</g>
<!-- Node6 -->
<g id="Node000006" class="node">
<title>Node6</title>
<g id="a_Node000006"><a xlink:href="struct__PlumaDocumentLoader.html" target="_top" xlink:title=" ">
<polygon fill="white" stroke="#666666" points="279.5,-19 143.5,-19 143.5,0 279.5,0 279.5,-19"/>
<text text-anchor="middle" x="211.5" y="-7" font-family="Helvetica,sans-Serif" font-size="10.00">_PlumaDocumentLoader</text>
</a>
</g>
</g>
<!-- Node6&#45;&gt;Node4 -->
<g id="edge5_Node000004_Node000006" class="edge">
<title>Node6&#45;&gt;Node4</title>
<g id="a_edge5_Node000004_Node000006"><a xlink:title=" ">
<path fill="none" stroke="#9a32cd" stroke-dasharray="5,2" d="M211.3,-29.84C210.97,-65.88 210.45,-145.73 211.5,-213 211.62,-220.89 211.92,-229.87 212.16,-236.31"/>
<polygon fill="#9a32cd" stroke="#9a32cd" points="214.8,-29.42 211.4,-19.38 207.8,-29.35 214.8,-29.42"/>
</a>
</g>
<text text-anchor="start" x="214" y="-114.5" font-family="Helvetica,sans-Serif" font-size="10.00" fill="grey">loader</text>
</g>
<!-- Node7&#45;&gt;Node6 -->
<g id="edge6_Node000006_Node000007" class="edge">
<title>Node7&#45;&gt;Node6</title>
<g id="a_edge6_Node000006_Node000007"><a xlink:title=" ">
<path fill="none" stroke="#9a32cd" stroke-dasharray="5,2" d="M453.75,-69.59C396.56,-55.64 298.73,-31.78 246.61,-19.06"/>
<polygon fill="#9a32cd" stroke="#9a32cd" points="453.05,-73.02 463.6,-71.99 454.71,-66.22 453.05,-73.02"/>
</a>
</g>
<text text-anchor="start" x="392" y="-42.5" font-family="Helvetica,sans-Serif" font-size="10.00" fill="grey">priv</text>
</g>
<!-- Node8 -->
<g id="Node000008" class="node">
<title>Node8</title>
<g id="a_Node000008"><a xlink:href="struct__PlumaSmartCharsetConverter.html" target="_top" xlink:title=" ">
<polygon fill="white" stroke="#666666" points="717,-163 550,-163 550,-144 717,-144 717,-163"/>
<text text-anchor="middle" x="633.5" y="-151" font-family="Helvetica,sans-Serif" font-size="10.00">_PlumaSmartCharsetConverter</text>
</a>
</g>
</g>
<!-- Node8&#45;&gt;Node7 -->
<g id="edge9_Node000007_Node000008" class="edge">
<title>Node8&#45;&gt;Node7</title>
<g id="a_edge9_Node000007_Node000008"><a xlink:title=" ">
<path fill="none" stroke="#9a32cd" stroke-dasharray="5,2" d="M608.01,-139.28C580.79,-125.17 538.44,-103.21 515.19,-91.15"/>
<polygon fill="#9a32cd" stroke="#9a32cd" points="606.46,-142.42 616.95,-143.92 609.68,-136.21 606.46,-142.42"/>
</a>
</g>
<text text-anchor="start" x="585" y="-114.5" font-family="Helvetica,sans-Serif" font-size="10.00" fill="grey">converter</text>
</g>
<!-- Node9 -->
<g id="Node000009" class="node">
<title>Node9</title>
<g id="a_Node000009"><a xlink:title=" ">
<polygon fill="white" stroke="#666666" points="736,-261 569,-261 569,-231 736,-231 736,-261"/>
<text text-anchor="start" x="577" y="-249" font-family="Helvetica,sans-Serif" font-size="10.00">_PlumaSmartCharsetConverter</text>
<text text-anchor="middle" x="652.5" y="-238" font-family="Helvetica,sans-Serif" font-size="10.00">Private</text>
</a>
</g>
</g>
<!-- Node9&#45;&gt;Node8 -->
<g id="edge10_Node000008_Node000009" class="edge">
<title>Node9&#45;&gt;Node8</title>
<g id="a_edge10_Node000008_Node000009"><a xlink:title=" ">
<path fill="none" stroke="#9a32cd" stroke-dasharray="5,2" d="M647.47,-221.04C643.46,-201.94 638.07,-176.27 635.3,-163.1"/>
<polygon fill="#9a32cd" stroke="#9a32cd" points="644.05,-221.79 649.53,-230.86 650.9,-220.35 644.05,-221.79"/>
</a>
</g>
<text text-anchor="start" x="648" y="-194" font-family="Helvetica,sans-Serif" font-size="10.00" fill="grey">priv</text>
</g>
<!-- Node10 -->
<g id="Node000010" class="node">
<title>Node10</title>
<g id="a_Node000010"><a xlink:title=" ">
<polygon fill="white" stroke="#666666" points="256,-348 149,-348 149,-329 256,-329 256,-348"/>
<text text-anchor="middle" x="202.5" y="-336" font-family="Helvetica,sans-Serif" font-size="10.00">_PlumaTextRegion</text>
</a>
</g>
</g>
<!-- Node10&#45;&gt;Node4 -->
<g id="edge12_Node000004_Node000010" class="edge">
<title>Node10&#45;&gt;Node4</title>
<g id="a_edge12_Node000004_Node000010"><a xlink:title=" ">
<path fill="none" stroke="#9a32cd" stroke-dasharray="5,2" d="M198.05,-318.83C195.99,-307.24 194.58,-292.12 197.5,-279 199.37,-270.62 203.68,-261.83 207.2,-255.59"/>
<polygon fill="#9a32cd" stroke="#9a32cd" points="194.64,-319.59 200.1,-328.67 201.49,-318.16 194.64,-319.59"/>
</a>
</g>
<text text-anchor="start" x="200.5" y="-292" font-family="Helvetica,sans-Serif" font-size="10.00" fill="grey">to_search_region</text>
</g>
</g>
</svg>
