<?xml version="1.0" encoding="UTF-8" standalone="no"?>
<!DOCTYPE svg PUBLIC "-//W3C//DTD SVG 1.1//EN"
 "http://www.w3.org/Graphics/SVG/1.1/DTD/svg11.dtd">
<!-- Generated by graphviz version 2.43.0 (0)
 -->
<!-- Title: _MateMixerBackend Pages: 1 -->
<svg width="553pt" height="258pt"
 viewBox="0.00 0.00 552.50 258.00" xmlns="http://www.w3.org/2000/svg" xmlns:xlink="http://www.w3.org/1999/xlink">
<g id="graph0" class="graph" transform="scale(1 1) rotate(0) translate(4 254)">
<title>_MateMixerBackend</title>
<!-- Node1 -->
<g id="Node000001" class="node">
<title>Node1</title>
<g id="a_Node000001"><a xlink:title=" ">
<polygon fill="#999999" stroke="#666666" points="132,-91 17,-91 17,-72 132,-72 132,-91"/>
<text text-anchor="middle" x="74.5" y="-79" font-family="Helvetica,sans-Serif" font-size="10.00">_MateMixerBackend</text>
</a>
</g>
</g>
<!-- Node2 -->
<g id="Node000002" class="node">
<title>Node2</title>
<g id="a_Node000002"><a xlink:title=" ">
<polygon fill="white" stroke="#666666" points="149,-163 0,-163 0,-144 149,-144 149,-163"/>
<text text-anchor="middle" x="74.5" y="-151" font-family="Helvetica,sans-Serif" font-size="10.00">_MateMixerBackendPrivate</text>
</a>
</g>
</g>
<!-- Node2&#45;&gt;Node1 -->
<g id="edge1_Node000001_Node000002" class="edge">
<title>Node2&#45;&gt;Node1</title>
<g id="a_edge1_Node000001_Node000002"><a xlink:title=" ">
<path fill="none" stroke="#9a32cd" stroke-dasharray="5,2" d="M74.5,-133.58C74.5,-119.76 74.5,-101.68 74.5,-91.15"/>
<polygon fill="#9a32cd" stroke="#9a32cd" points="71,-133.92 74.5,-143.92 78,-133.92 71,-133.92"/>
</a>
</g>
<text text-anchor="start" x="78" y="-114.5" font-family="Helvetica,sans-Serif" font-size="10.00" fill="grey">priv</text>
</g>
<!-- Node3 -->
<g id="Node000003" class="node">
<title>Node3</title>
<g id="a_Node000003"><a xlink:href="struct__MateMixerStream.html" target="_top" xlink:title=" ">
<polygon fill="white" stroke="#666666" points="311,-250 202,-250 202,-231 311,-231 311,-250"/>
<text text-anchor="middle" x="256.5" y="-238" font-family="Helvetica,sans-Serif" font-size="10.00">_MateMixerStream</text>
</a>
</g>
</g>
<!-- Node3&#45;&gt;Node2 -->
<g id="edge2_Node000002_Node000003" class="edge">
<title>Node3&#45;&gt;Node2</title>
<g id="a_edge2_Node000002_Node000003"><a xlink:title=" ">
<path fill="none" stroke="#9a32cd" stroke-dasharray="5,2" d="M214.98,-228C201.81,-223.85 187.34,-218.75 174.5,-213 141.64,-198.29 105.84,-175.55 87.28,-163.2"/>
<polygon fill="#9a32cd" stroke="#9a32cd" points="214.17,-231.41 224.75,-230.99 216.21,-224.72 214.17,-231.41"/>
</a>
</g>
<text text-anchor="start" x="177.5" y="-202" font-family="Helvetica,sans-Serif" font-size="10.00" fill="grey">default_input</text>
<text text-anchor="start" x="177.5" y="-187" font-family="Helvetica,sans-Serif" font-size="10.00" fill="grey">default_output</text>
</g>
<!-- Node8 -->
<g id="Node000008" class="node">
<title>Node8</title>
<g id="a_Node000008"><a xlink:title=" ">
<polygon fill="white" stroke="#666666" points="346,-163 167,-163 167,-144 346,-144 346,-163"/>
<text text-anchor="middle" x="256.5" y="-151" font-family="Helvetica,sans-Serif" font-size="10.00">_MateMixerStreamControlPrivate</text>
</a>
</g>
</g>
<!-- Node3&#45;&gt;Node8 -->
<g id="edge8_Node000008_Node000003" class="edge">
<title>Node3&#45;&gt;Node8</title>
<g id="a_edge8_Node000008_Node000003"><a xlink:title=" ">
<path fill="none" stroke="#9a32cd" stroke-dasharray="5,2" d="M256.5,-220.62C256.5,-202.79 256.5,-176.83 256.5,-163.36"/>
<polygon fill="#9a32cd" stroke="#9a32cd" points="253,-220.72 256.5,-230.72 260,-220.72 253,-220.72"/>
</a>
</g>
<text text-anchor="start" x="260" y="-194" font-family="Helvetica,sans-Serif" font-size="10.00" fill="grey">stream</text>
</g>
<!-- Node4 -->
<g id="Node000004" class="node">
<title>Node4</title>
<g id="a_Node000004"><a xlink:title=" ">
<polygon fill="white" stroke="#666666" points="446,-19 303,-19 303,0 446,0 446,-19"/>
<text text-anchor="middle" x="374.5" y="-7" font-family="Helvetica,sans-Serif" font-size="10.00">_MateMixerStreamPrivate</text>
</a>
</g>
</g>
<!-- Node4&#45;&gt;Node3 -->
<g id="edge3_Node000003_Node000004" class="edge">
<title>Node4&#45;&gt;Node3</title>
<g id="a_edge3_Node000003_Node000004"><a xlink:title=" ">
<path fill="none" stroke="#9a32cd" stroke-dasharray="5,2" d="M375.94,-29.27C377.41,-59.28 376.92,-119.13 354.5,-163 337.61,-196.06 299.17,-219.23 275.77,-230.87"/>
<polygon fill="#9a32cd" stroke="#9a32cd" points="379.41,-28.77 375.29,-19.01 372.43,-29.21 379.41,-28.77"/>
</a>
</g>
<text text-anchor="start" x="375" y="-114.5" font-family="Helvetica,sans-Serif" font-size="10.00" fill="grey">priv</text>
</g>
<!-- Node5 -->
<g id="Node000005" class="node">
<title>Node5</title>
<g id="a_Node000005"><a xlink:href="struct__MateMixerDevice.html" target="_top" xlink:title=" ">
<polygon fill="white" stroke="#666666" points="519,-91 412,-91 412,-72 519,-72 519,-91"/>
<text text-anchor="middle" x="465.5" y="-79" font-family="Helvetica,sans-Serif" font-size="10.00">_MateMixerDevice</text>
</a>
</g>
</g>
<!-- Node5&#45;&gt;Node4 -->
<g id="edge4_Node000004_Node000005" class="edge">
<title>Node5&#45;&gt;Node4</title>
<g id="a_edge4_Node000004_Node000005"><a xlink:title=" ">
<path fill="none" stroke="#9a32cd" stroke-dasharray="5,2" d="M446.11,-65.58C427.74,-51.46 400.81,-30.74 385.75,-19.15"/>
<polygon fill="#9a32cd" stroke="#9a32cd" points="444.28,-68.59 454.34,-71.92 448.55,-63.05 444.28,-68.59"/>
</a>
</g>
<text text-anchor="start" x="435" y="-42.5" font-family="Helvetica,sans-Serif" font-size="10.00" fill="grey">device</text>
</g>
<!-- Node6 -->
<g id="Node000006" class="node">
<title>Node6</title>
<g id="a_Node000006"><a xlink:title=" ">
<polygon fill="white" stroke="#666666" points="544.5,-163 402.5,-163 402.5,-144 544.5,-144 544.5,-163"/>
<text text-anchor="middle" x="473.5" y="-151" font-family="Helvetica,sans-Serif" font-size="10.00">_MateMixerDevicePrivate</text>
</a>
</g>
</g>
<!-- Node6&#45;&gt;Node5 -->
<g id="edge5_Node000005_Node000006" class="edge">
<title>Node6&#45;&gt;Node5</title>
<g id="a_edge5_Node000005_Node000006"><a xlink:title=" ">
<path fill="none" stroke="#9a32cd" stroke-dasharray="5,2" d="M471.34,-133.58C469.76,-119.76 467.69,-101.68 466.49,-91.15"/>
<polygon fill="#9a32cd" stroke="#9a32cd" points="467.91,-134.38 472.52,-143.92 474.86,-133.58 467.91,-134.38"/>
</a>
</g>
<text text-anchor="start" x="474" y="-114.5" font-family="Helvetica,sans-Serif" font-size="10.00" fill="grey">priv</text>
</g>
<!-- Node7 -->
<g id="Node000007" class="node">
<title>Node7</title>
<g id="a_Node000007"><a xlink:href="struct__MateMixerStreamControl.html" target="_top" xlink:title=" ">
<polygon fill="white" stroke="#666666" points="337.5,-91 193.5,-91 193.5,-72 337.5,-72 337.5,-91"/>
<text text-anchor="middle" x="265.5" y="-79" font-family="Helvetica,sans-Serif" font-size="10.00">_MateMixerStreamControl</text>
</a>
</g>
</g>
<!-- Node7&#45;&gt;Node4 -->
<g id="edge6_Node000004_Node000007" class="edge">
<title>Node7&#45;&gt;Node4</title>
<g id="a_edge6_Node000004_Node000007"><a xlink:title=" ">
<path fill="none" stroke="#9a32cd" stroke-dasharray="5,2" d="M282.77,-65.27C293.27,-56.43 307.17,-45.4 320.5,-37 331.28,-30.2 344.05,-23.87 354.46,-19.09"/>
<polygon fill="#9a32cd" stroke="#9a32cd" points="280.47,-62.64 275.16,-71.81 285.03,-67.95 280.47,-62.64"/>
</a>
</g>
<text text-anchor="start" x="323.5" y="-42.5" font-family="Helvetica,sans-Serif" font-size="10.00" fill="grey">control</text>
</g>
<!-- Node8&#45;&gt;Node7 -->
<g id="edge7_Node000007_Node000008" class="edge">
<title>Node8&#45;&gt;Node7</title>
<g id="a_edge7_Node000007_Node000008"><a xlink:title=" ">
<path fill="none" stroke="#9a32cd" stroke-dasharray="5,2" d="M258.88,-133.99C260.66,-120.13 263.02,-101.79 264.39,-91.15"/>
<polygon fill="#9a32cd" stroke="#9a32cd" points="255.41,-133.55 257.6,-143.92 262.35,-134.44 255.41,-133.55"/>
</a>
</g>
<text text-anchor="start" x="266" y="-114.5" font-family="Helvetica,sans-Serif" font-size="10.00" fill="grey">priv</text>
</g>
</g>
</svg>
