<?xml version="1.0" encoding="UTF-8" standalone="no"?>
<!DOCTYPE svg PUBLIC "-//W3C//DTD SVG 1.1//EN"
 "http://www.w3.org/Graphics/SVG/1.1/DTD/svg11.dtd">
<!-- Generated by graphviz version 2.43.0 (0)
 -->
<!-- Title: MateXSettingsPlugin Pages: 1 -->
<!--zoomable 542 -->

<svg id="main" version="1.1" xmlns="http://www.w3.org/2000/svg" xmlns:xlink="http://www.w3.org/1999/xlink" xml:space="preserve" onload="init(evt)">

<style type="text/css"><![CDATA[
.node, .edge {opacity: 0.7;}
.node.selected, .edge.selected {opacity: 1;}
.edge:hover path { stroke: red; }
.edge:hover polygon { stroke: red; fill: red; }
]]></style>

<defs>
  <circle id="rim" cx="0" cy="0" r="7"/>
  <circle id="rim2" cx="0" cy="0" r="3.5"/>
  <g id="zoomPlus">
    <use xlink:href="#rim" fill="#404040"><set attributeName="fill" to="#808080" begin="zoomplus.mouseover" end="zoomplus.mouseout"/></use>
    <path d="M-4,0h8M0,-4v8" fill="none" stroke="white" stroke-width="1.5" pointer-events="none"/>
  </g>
  <g id="zoomMin">
    <use xlink:href="#rim" fill="#404040"><set attributeName="fill" to="#808080" begin="zoomminus.mouseover" end="zoomminus.mouseout"/></use>
    <path d="M-4,0h8" fill="none" stroke="white" stroke-width="1.5" pointer-events="none"/>
  </g>
  <g id="arrowUp" transform="translate(30 24)">
    <use xlink:href="#rim"/>
    <path pointer-events="none" fill="none" stroke="white" stroke-width="1.5" d="M0,-3.0v7 M-2.5,-0.5L0,-3.0L2.5,-0.5"/>
  </g>
  <g id="arrowRight" transform="rotate(90) translate(36 -43)">
    <use xlink:href="#rim"/>
    <path pointer-events="none" fill="none" stroke="white" stroke-width="1.5" d="M0,-3.0v7 M-2.5,-0.5L0,-3.0L2.5,-0.5"/>
  </g>
  <g id="arrowDown" transform="rotate(180) translate(-30 -48)">
    <use xlink:href="#rim"/>
    <path pointer-events="none" fill="none" stroke="white" stroke-width="1.5" d="M0,-3.0v7 M-2.5,-0.5L0,-3.0L2.5,-0.5"/>
  </g>
  <g id="arrowLeft" transform="rotate(270) translate(-36 17)">
    <use xlink:href="#rim"/>
    <path pointer-events="none" fill="none" stroke="white" stroke-width="1.5" d="M0,-3.0v7 M-2.5,-0.5L0,-3.0L2.5,-0.5"/>
  </g>
  <g id="resetDef">
    <use xlink:href="#rim2" fill="#404040"><set attributeName="fill" to="#808080" begin="reset.mouseover" end="reset.mouseout"/></use>
  </g>
</defs>
<script type="application/ecmascript">
var viewWidth = 344;
var viewHeight = 542;
var sectionId = 'dynsection-0';
</script>
<script type="application/ecmascript" xlink:href="svg.min.js"/>
<svg id="graph" class="graph">
<g id="viewport">
<title>MateXSettingsPlugin</title>
<!-- Node1 -->
<g id="Node000001" class="node">
<title>Node1</title>
<g id="a_Node000001"><a xlink:title=" ">
<polygon fill="#999999" stroke="#666666" points="144.5,-19 26.5,-19 26.5,0 144.5,0 144.5,-19"/>
<text text-anchor="middle" x="85.5" y="-7" font-family="Helvetica,sans-Serif" font-size="10.00">MateXSettingsPlugin</text>
</a>
</g>
</g>
<!-- Node2 -->
<g id="Node000002" class="node">
<title>Node2</title>
<g id="a_Node000002"><a xlink:href="structMateSettingsPlugin.html" target="_top" xlink:title=" ">
<polygon fill="white" stroke="#666666" points="111,-91 0,-91 0,-72 111,-72 111,-91"/>
<text text-anchor="middle" x="55.5" y="-79" font-family="Helvetica,sans-Serif" font-size="10.00">MateSettingsPlugin</text>
</a>
</g>
</g>
<!-- Node2&#45;&gt;Node1 -->
<g id="edge1_Node000001_Node000002" class="edge">
<title>Node2&#45;&gt;Node1</title>
<g id="a_edge1_Node000001_Node000002"><a xlink:title=" ">
<path fill="none" stroke="#9a32cd" stroke-dasharray="5,2" d="M63.26,-62.4C69.22,-48.49 77.19,-29.89 81.79,-19.15"/>
<polygon fill="#9a32cd" stroke="#9a32cd" points="59.9,-61.35 59.18,-71.92 66.33,-64.1 59.9,-61.35"/>
</a>
</g>
<text text-anchor="start" x="77.5" y="-42.5" font-family="Helvetica,sans-Serif" font-size="10.00" fill="grey">parent</text>
</g>
<!-- Node3 -->
<g id="Node000003" class="node">
<title>Node3</title>
<g id="a_Node000003"><a xlink:title=" ">
<polygon fill="white" stroke="#666666" points="281.5,-91 129.5,-91 129.5,-72 281.5,-72 281.5,-91"/>
<text text-anchor="middle" x="205.5" y="-79" font-family="Helvetica,sans-Serif" font-size="10.00">MateXSettingsPluginPrivate</text>
</a>
</g>
</g>
<!-- Node3&#45;&gt;Node1 -->
<g id="edge2_Node000001_Node000003" class="edge">
<title>Node3&#45;&gt;Node1</title>
<g id="a_edge2_Node000001_Node000003"><a xlink:title=" ">
<path fill="none" stroke="#9a32cd" stroke-dasharray="5,2" d="M181.88,-66.72C157.66,-52.59 120.73,-31.05 100.33,-19.15"/>
<polygon fill="#9a32cd" stroke="#9a32cd" points="180.38,-69.9 190.79,-71.92 183.91,-63.85 180.38,-69.9"/>
</a>
</g>
<text text-anchor="start" x="164" y="-42.5" font-family="Helvetica,sans-Serif" font-size="10.00" fill="grey">priv</text>
</g>
<!-- Node4 -->
<g id="Node000004" class="node">
<title>Node4</title>
<g id="a_Node000004"><a xlink:href="structMateXSettingsManager.html" target="_top" xlink:title=" ">
<polygon fill="white" stroke="#666666" points="271,-163 140,-163 140,-144 271,-144 271,-163"/>
<text text-anchor="middle" x="205.5" y="-151" font-family="Helvetica,sans-Serif" font-size="10.00">MateXSettingsManager</text>
</a>
</g>
</g>
<!-- Node4&#45;&gt;Node3 -->
<g id="edge3_Node000003_Node000004" class="edge">
<title>Node4&#45;&gt;Node3</title>
<g id="a_edge3_Node000003_Node000004"><a xlink:title=" ">
<path fill="none" stroke="#9a32cd" stroke-dasharray="5,2" d="M205.5,-133.58C205.5,-119.76 205.5,-101.68 205.5,-91.15"/>
<polygon fill="#9a32cd" stroke="#9a32cd" points="202,-133.92 205.5,-143.92 209,-133.92 202,-133.92"/>
</a>
</g>
<text text-anchor="start" x="208.5" y="-114.5" font-family="Helvetica,sans-Serif" font-size="10.00" fill="grey">manager</text>
</g>
<!-- Node5 -->
<g id="Node000005" class="node">
<title>Node5</title>
<g id="a_Node000005"><a xlink:title=" ">
<polygon fill="white" stroke="#666666" points="288,-235 123,-235 123,-216 288,-216 288,-235"/>
<text text-anchor="middle" x="205.5" y="-223" font-family="Helvetica,sans-Serif" font-size="10.00">MateXSettingsManagerPrivate</text>
</a>
</g>
</g>
<!-- Node5&#45;&gt;Node4 -->
<g id="edge4_Node000004_Node000005" class="edge">
<title>Node5&#45;&gt;Node4</title>
<g id="a_edge4_Node000004_Node000005"><a xlink:title=" ">
<path fill="none" stroke="#9a32cd" stroke-dasharray="5,2" d="M205.5,-205.58C205.5,-191.76 205.5,-173.68 205.5,-163.15"/>
<polygon fill="#9a32cd" stroke="#9a32cd" points="202,-205.92 205.5,-215.92 209,-205.92 202,-205.92"/>
</a>
</g>
<text text-anchor="start" x="209" y="-186.5" font-family="Helvetica,sans-Serif" font-size="10.00" fill="grey">priv</text>
</g>
<!-- Node6 -->
<g id="Node000006" class="node">
<title>Node6</title>
<g id="a_Node000006"><a xlink:title=" ">
<polygon fill="white" stroke="#666666" points="195,-312.5 84,-312.5 84,-293.5 195,-293.5 195,-312.5"/>
<text text-anchor="middle" x="139.5" y="-300.5" font-family="Helvetica,sans-Serif" font-size="10.00">_XSettingsManager</text>
</a>
</g>
</g>
<!-- Node6&#45;&gt;Node5 -->
<g id="edge5_Node000005_Node000006" class="edge">
<title>Node6&#45;&gt;Node5</title>
<g id="a_edge5_Node000005_Node000006"><a xlink:title=" ">
<path fill="none" stroke="#9a32cd" stroke-dasharray="5,2" d="M147.81,-284.07C152.91,-274.23 160.07,-262.19 168.5,-253 174.91,-246.01 183.44,-239.75 190.69,-235.07"/>
<polygon fill="#9a32cd" stroke="#9a32cd" points="144.53,-282.8 143.28,-293.32 150.82,-285.88 144.53,-282.8"/>
</a>
</g>
<text text-anchor="start" x="172" y="-258.5" font-family="Helvetica,sans-Serif" font-size="10.00" fill="grey">managers</text>
</g>
<!-- Node7 -->
<g id="Node000007" class="node">
<title>Node7</title>
<g id="a_Node000007"><a xlink:href="struct__XSettingsList.html" target="_top" xlink:title=" ">
<polygon fill="white" stroke="#666666" points="182.5,-390 96.5,-390 96.5,-371 182.5,-371 182.5,-390"/>
<text text-anchor="middle" x="139.5" y="-378" font-family="Helvetica,sans-Serif" font-size="10.00">_XSettingsList</text>
</a>
</g>
</g>
<!-- Node7&#45;&gt;Node6 -->
<g id="edge6_Node000006_Node000007" class="edge">
<title>Node7&#45;&gt;Node6</title>
<g id="a_edge6_Node000006_Node000007"><a xlink:title=" ">
<path fill="none" stroke="#9a32cd" stroke-dasharray="5,2" d="M139.5,-360.4C139.5,-345.01 139.5,-324.11 139.5,-312.56"/>
<polygon fill="#9a32cd" stroke="#9a32cd" points="136,-360.84 139.5,-370.84 143,-360.84 136,-360.84"/>
</a>
</g>
<text text-anchor="start" x="142.5" y="-341.5" font-family="Helvetica,sans-Serif" font-size="10.00" fill="grey">settings</text>
</g>
<!-- Node7&#45;&gt;Node7 -->
<g id="edge9_Node000007_Node000007" class="edge">
<title>Node7&#45;&gt;Node7</title>
<g id="a_edge9_Node000007_Node000007"><a xlink:title=" ">
<path fill="none" stroke="#9a32cd" stroke-dasharray="5,2" d="M192.75,-385.83C197.51,-384.72 200.5,-382.94 200.5,-380.5 200.5,-376.6 192.85,-374.39 182.54,-373.87"/>
<polygon fill="#9a32cd" stroke="#9a32cd" points="192.02,-382.4 182.54,-387.13 192.9,-389.34 192.02,-382.4"/>
</a>
</g>
<text text-anchor="start" x="203.5" y="-377.5" font-family="Helvetica,sans-Serif" font-size="10.00" fill="grey">next</text>
</g>
<!-- Node8 -->
<g id="Node000008" class="node">
<title>Node8</title>
<g id="a_Node000008"><a xlink:href="struct__XSettingsSetting.html" target="_top" xlink:title=" ">
<polygon fill="white" stroke="#666666" points="191,-462 88,-462 88,-443 191,-443 191,-462"/>
<text text-anchor="middle" x="139.5" y="-450" font-family="Helvetica,sans-Serif" font-size="10.00">_XSettingsSetting</text>
</a>
</g>
</g>
<!-- Node8&#45;&gt;Node7 -->
<g id="edge7_Node000007_Node000008" class="edge">
<title>Node8&#45;&gt;Node7</title>
<g id="a_edge7_Node000007_Node000008"><a xlink:title=" ">
<path fill="none" stroke="#9a32cd" stroke-dasharray="5,2" d="M139.5,-432.58C139.5,-418.76 139.5,-400.68 139.5,-390.15"/>
<polygon fill="#9a32cd" stroke="#9a32cd" points="136,-432.92 139.5,-442.92 143,-432.92 136,-432.92"/>
</a>
</g>
<text text-anchor="start" x="142.5" y="-413.5" font-family="Helvetica,sans-Serif" font-size="10.00" fill="grey">setting</text>
</g>
<!-- Node9 -->
<g id="Node000009" class="node">
<title>Node9</title>
<g id="a_Node000009"><a xlink:href="struct__XSettingsColor.html" target="_top" xlink:title=" ">
<polygon fill="white" stroke="#666666" points="186.5,-534 92.5,-534 92.5,-515 186.5,-515 186.5,-534"/>
<text text-anchor="middle" x="139.5" y="-522" font-family="Helvetica,sans-Serif" font-size="10.00">_XSettingsColor</text>
</a>
</g>
</g>
<!-- Node9&#45;&gt;Node8 -->
<g id="edge8_Node000008_Node000009" class="edge">
<title>Node9&#45;&gt;Node8</title>
<g id="a_edge8_Node000008_Node000009"><a xlink:title=" ">
<path fill="none" stroke="#9a32cd" stroke-dasharray="5,2" d="M139.5,-504.58C139.5,-490.76 139.5,-472.68 139.5,-462.15"/>
<polygon fill="#9a32cd" stroke="#9a32cd" points="136,-504.92 139.5,-514.92 143,-504.92 136,-504.92"/>
</a>
</g>
<text text-anchor="start" x="142.5" y="-485.5" font-family="Helvetica,sans-Serif" font-size="10.00" fill="grey">v_color</text>
</g>
<!-- Node10 -->
<g id="Node000010" class="node">
<title>Node10</title>
<g id="a_Node000010"><a xlink:title=" ">
<polygon fill="white" stroke="#666666" points="327.5,-318 213.5,-318 213.5,-288 327.5,-288 327.5,-318"/>
<text text-anchor="start" x="221.5" y="-306" font-family="Helvetica,sans-Serif" font-size="10.00">_fontconfig_monitor</text>
<text text-anchor="middle" x="270.5" y="-295" font-family="Helvetica,sans-Serif" font-size="10.00">_handle</text>
</a>
</g>
</g>
<!-- Node10&#45;&gt;Node5 -->
<g id="edge10_Node000005_Node000010" class="edge">
<title>Node10&#45;&gt;Node5</title>
<g id="a_edge10_Node000005_Node000010"><a xlink:title=" ">
<path fill="none" stroke="#9a32cd" stroke-dasharray="5,2" d="M251.51,-279.94C238.56,-264.9 222.14,-245.82 212.82,-235.01"/>
<polygon fill="#9a32cd" stroke="#9a32cd" points="249.1,-282.5 258.27,-287.8 254.4,-277.94 249.1,-282.5"/>
</a>
</g>
<text text-anchor="start" x="244.5" y="-258.5" font-family="Helvetica,sans-Serif" font-size="10.00" fill="grey">fontconfig_handle</text>
</g>
</g>
</svg>

<g id="navigator" transform="translate(0 0)" fill="#404254">
  <rect fill="#f2f5e9" fill-opacity="0.5" stroke="#606060" stroke-width=".5" x="0" y="0" width="60" height="60"/>
  <use id="zoomplus" xlink:href="#zoomPlus" x="17" y="9" onmousedown="handleZoom(evt,'in')"/>
  <use id="zoomminus" xlink:href="#zoomMin" x="42" y="9" onmousedown="handleZoom(evt,'out')"/>
  <use id="reset" xlink:href="#resetDef" x="30" y="36" onmousedown="handleReset()"/>
   <use id="arrowup" xlink:href="#arrowUp" x="0" y="0" onmousedown="handlePan(0,-1)"/>
  <use id="arrowright" xlink:href="#arrowRight" x="0" y="0" onmousedown="handlePan(1,0)"/>
  <use id="arrowdown" xlink:href="#arrowDown" x="0" y="0" onmousedown="handlePan(0,1)"/>
  <use id="arrowleft" xlink:href="#arrowLeft" x="0" y="0" onmousedown="handlePan(-1,0)"/>
</g>
<svg viewBox="0 0 15 15" width="100%" height="30px" preserveAspectRatio="xMaxYMin meet">
 <g id="arrow_out" transform="scale(0.3 0.3)">
  <a xlink:href="structMateXSettingsPlugin__coll__graph_org.svg" target="_base">
   <rect id="button" ry="5" rx="5" y="6" x="6" height="38" width="38"
        fill="#f2f5e9" fill-opacity="0.5" stroke="#606060" stroke-width="1.0"/>
   <path id="arrow"
     d="M 11.500037,31.436501 C 11.940474,20.09759 22.043105,11.32322 32.158766,21.979434 L 37.068811,17.246167 C 37.068811,17.246167 37.088388,32 37.088388,32 L 22.160133,31.978069 C 22.160133,31.978069 26.997745,27.140456 26.997745,27.140456 C 18.528582,18.264221 13.291696,25.230495 11.500037,31.436501 z"
     style="fill:#404040;"/>
  </a>
 </g>
</svg>

<style type='text/css'>
<![CDATA[
[data-mouse-over-selected='false'] { opacity: 0.7; }
[data-mouse-over-selected='true']  { opacity: 1.0; }
]]>
</style>
<script type="application/ecmascript"><![CDATA[
document.addEventListener('DOMContentLoaded', (event) => {
  highlightEdges();
  highlightAdjacentNodes();
});
]]></script>
</svg>
