<?xml version="1.0" encoding="UTF-8" standalone="no"?>
<!DOCTYPE svg PUBLIC "-//W3C//DTD SVG 1.1//EN"
 "http://www.w3.org/Graphics/SVG/1.1/DTD/svg11.dtd">
<!-- Generated by graphviz version 2.43.0 (0)
 -->
<!-- Title: _PlumaDocument Pages: 1 -->
<!--zoomable 356 -->

<svg id="main" version="1.1" xmlns="http://www.w3.org/2000/svg" xmlns:xlink="http://www.w3.org/1999/xlink" xml:space="preserve" onload="init(evt)">

<style type="text/css"><![CDATA[
.node, .edge {opacity: 0.7;}
.node.selected, .edge.selected {opacity: 1;}
.edge:hover path { stroke: red; }
.edge:hover polygon { stroke: red; fill: red; }
]]></style>

<defs>
  <circle id="rim" cx="0" cy="0" r="7"/>
  <circle id="rim2" cx="0" cy="0" r="3.5"/>
  <g id="zoomPlus">
    <use xlink:href="#rim" fill="#404040"><set attributeName="fill" to="#808080" begin="zoomplus.mouseover" end="zoomplus.mouseout"/></use>
    <path d="M-4,0h8M0,-4v8" fill="none" stroke="white" stroke-width="1.5" pointer-events="none"/>
  </g>
  <g id="zoomMin">
    <use xlink:href="#rim" fill="#404040"><set attributeName="fill" to="#808080" begin="zoomminus.mouseover" end="zoomminus.mouseout"/></use>
    <path d="M-4,0h8" fill="none" stroke="white" stroke-width="1.5" pointer-events="none"/>
  </g>
  <g id="arrowUp" transform="translate(30 24)">
    <use xlink:href="#rim"/>
    <path pointer-events="none" fill="none" stroke="white" stroke-width="1.5" d="M0,-3.0v7 M-2.5,-0.5L0,-3.0L2.5,-0.5"/>
  </g>
  <g id="arrowRight" transform="rotate(90) translate(36 -43)">
    <use xlink:href="#rim"/>
    <path pointer-events="none" fill="none" stroke="white" stroke-width="1.5" d="M0,-3.0v7 M-2.5,-0.5L0,-3.0L2.5,-0.5"/>
  </g>
  <g id="arrowDown" transform="rotate(180) translate(-30 -48)">
    <use xlink:href="#rim"/>
    <path pointer-events="none" fill="none" stroke="white" stroke-width="1.5" d="M0,-3.0v7 M-2.5,-0.5L0,-3.0L2.5,-0.5"/>
  </g>
  <g id="arrowLeft" transform="rotate(270) translate(-36 17)">
    <use xlink:href="#rim"/>
    <path pointer-events="none" fill="none" stroke="white" stroke-width="1.5" d="M0,-3.0v7 M-2.5,-0.5L0,-3.0L2.5,-0.5"/>
  </g>
  <g id="resetDef">
    <use xlink:href="#rim2" fill="#404040"><set attributeName="fill" to="#808080" begin="reset.mouseover" end="reset.mouseout"/></use>
  </g>
</defs>
<script type="application/ecmascript">
var viewWidth = 723;
var viewHeight = 356;
var sectionId = 'dynsection-0';
</script>
<script type="application/ecmascript" xlink:href="svg.min.js"/>
<svg id="graph" class="graph">
<g id="viewport">
<title>_PlumaDocument</title>
<!-- Node1 -->
<g id="Node000001" class="node">
<title>Node1</title>
<g id="a_Node000001"><a xlink:title=" ">
<polygon fill="#999999" stroke="#666666" points="168.19,-265 65.19,-265 65.19,-246 168.19,-246 168.19,-265"/>
<text text-anchor="middle" x="116.69" y="-253" font-family="Helvetica,sans-Serif" font-size="10.00">_PlumaDocument</text>
</a>
</g>
</g>
<!-- Node2 -->
<g id="Node000002" class="node">
<title>Node2</title>
<g id="a_Node000002"><a xlink:title=" ">
<polygon fill="white" stroke="#666666" points="452.19,-19 315.19,-19 315.19,0 452.19,0 452.19,-19"/>
<text text-anchor="middle" x="383.69" y="-7" font-family="Helvetica,sans-Serif" font-size="10.00">_PlumaDocumentPrivate</text>
</a>
</g>
</g>
<!-- Node1&#45;&gt;Node2 -->
<g id="edge14_Node000002_Node000001" class="edge">
<title>Node1&#45;&gt;Node2</title>
<g id="a_edge14_Node000002_Node000001"><a xlink:title=" ">
<path fill="none" stroke="#9a32cd" stroke-dasharray="5,2" d="M92.9,-240.61C51.45,-214.65 -26.29,-157.08 9.69,-109 46.05,-60.42 217.51,-31.34 315.17,-18.44"/>
<polygon fill="#9a32cd" stroke="#9a32cd" points="91.25,-243.71 101.61,-245.94 94.91,-237.73 91.25,-243.71"/>
</a>
</g>
<text text-anchor="start" x="12.69" y="-122" font-family="Helvetica,sans-Serif" font-size="10.00" fill="grey">mount_operation_factory</text>
</g>
<!-- Node5 -->
<g id="Node000005" class="node">
<title>Node5</title>
<g id="a_Node000005"><a xlink:title=" ">
<polygon fill="white" stroke="#666666" points="367.69,-178 197.69,-178 197.69,-159 367.69,-159 367.69,-178"/>
<text text-anchor="middle" x="282.69" y="-166" font-family="Helvetica,sans-Serif" font-size="10.00">_PlumaDocumentLoaderPrivate</text>
</a>
</g>
</g>
<!-- Node1&#45;&gt;Node5 -->
<g id="edge5_Node000005_Node000001" class="edge">
<title>Node1&#45;&gt;Node5</title>
<g id="a_edge5_Node000005_Node000001"><a xlink:title=" ">
<path fill="none" stroke="#9a32cd" stroke-dasharray="5,2" d="M117.19,-235.66C118.58,-222.65 122.62,-205.95 133.69,-196 143.76,-186.96 169.84,-180.9 197.43,-176.89"/>
<polygon fill="#9a32cd" stroke="#9a32cd" points="113.68,-235.68 116.54,-245.89 120.67,-236.13 113.68,-235.68"/>
</a>
</g>
<text text-anchor="start" x="137.19" y="-209" font-family="Helvetica,sans-Serif" font-size="10.00" fill="grey">document</text>
</g>
<!-- Node9 -->
<g id="Node000009" class="node">
<title>Node9</title>
<g id="a_Node000009"><a xlink:title=" ">
<polygon fill="white" stroke="#666666" points="551.19,-178 386.19,-178 386.19,-159 551.19,-159 551.19,-178"/>
<text text-anchor="middle" x="468.69" y="-166" font-family="Helvetica,sans-Serif" font-size="10.00">_PlumaDocumentSaverPrivate</text>
</a>
</g>
</g>
<!-- Node1&#45;&gt;Node9 -->
<g id="edge11_Node000009_Node000001" class="edge">
<title>Node1&#45;&gt;Node9</title>
<g id="a_edge11_Node000009_Node000001"><a xlink:title=" ">
<path fill="none" stroke="#9a32cd" stroke-dasharray="5,2" d="M156.82,-242.63C167.53,-238.69 178.85,-233.8 188.69,-228 207.42,-216.96 205.76,-204.68 225.69,-196 233.13,-192.76 318.48,-183.93 385.95,-177.34"/>
<polygon fill="#9a32cd" stroke="#9a32cd" points="155.5,-239.38 147.21,-245.97 157.8,-245.99 155.5,-239.38"/>
</a>
</g>
<text text-anchor="start" x="229.19" y="-209" font-family="Helvetica,sans-Serif" font-size="10.00" fill="grey">document</text>
</g>
<!-- Node2&#45;&gt;Node1 -->
<g id="edge1_Node000001_Node000002" class="edge">
<title>Node2&#45;&gt;Node1</title>
<g id="a_edge1_Node000001_Node000002"><a xlink:title=" ">
<path fill="none" stroke="#9a32cd" stroke-dasharray="5,2" d="M339.19,-21.92C306.2,-31.76 261.17,-48.17 226.69,-72 165.6,-114.22 141.36,-126.69 114.69,-196 108.27,-212.69 111.62,-234.08 114.35,-245.82"/>
<polygon fill="#9a32cd" stroke="#9a32cd" points="340.38,-25.22 349.01,-19.08 338.43,-18.49 340.38,-25.22"/>
</a>
</g>
<text text-anchor="start" x="178.19" y="-122" font-family="Helvetica,sans-Serif" font-size="10.00" fill="grey">priv</text>
</g>
<!-- Node3 -->
<g id="Node000003" class="node">
<title>Node3</title>
<g id="a_Node000003"><a xlink:title=" ">
<polygon fill="white" stroke="#666666" points="562.19,-265 465.19,-265 465.19,-246 562.19,-246 562.19,-265"/>
<text text-anchor="middle" x="513.69" y="-253" font-family="Helvetica,sans-Serif" font-size="10.00">_PlumaEncoding</text>
</a>
</g>
</g>
<!-- Node3&#45;&gt;Node2 -->
<g id="edge2_Node000002_Node000003" class="edge">
<title>Node3&#45;&gt;Node2</title>
<g id="a_edge2_Node000002_Node000003"><a xlink:title=" ">
<path fill="none" stroke="#9a32cd" stroke-dasharray="5,2" d="M547.78,-240.47C552.52,-237.07 556.76,-232.96 559.69,-228 595.3,-167.78 582.06,-126.9 538.69,-72 515.36,-42.47 475.76,-27.07 442.42,-19.07"/>
<polygon fill="#9a32cd" stroke="#9a32cd" points="545.66,-237.66 538.89,-245.81 549.27,-243.66 545.66,-237.66"/>
</a>
</g>
<text text-anchor="start" x="580.19" y="-130" font-family="Helvetica,sans-Serif" font-size="10.00" fill="grey">encoding</text>
<text text-anchor="start" x="580.19" y="-115" font-family="Helvetica,sans-Serif" font-size="10.00" fill="grey">requested_encoding</text>
</g>
<!-- Node3&#45;&gt;Node5 -->
<g id="edge6_Node000005_Node000003" class="edge">
<title>Node3&#45;&gt;Node5</title>
<g id="a_edge6_Node000005_Node000003"><a xlink:title=" ">
<path fill="none" stroke="#9a32cd" stroke-dasharray="5,2" d="M454.85,-249.33C418.77,-245.19 376.71,-238.36 361.69,-228 348.08,-218.61 355.07,-206.97 342.69,-196 333.75,-188.07 322.05,-182.18 311.35,-178"/>
<polygon fill="#9a32cd" stroke="#9a32cd" points="454.52,-252.81 464.84,-250.42 455.28,-245.85 454.52,-252.81"/>
</a>
</g>
<text text-anchor="start" x="364.69" y="-217" font-family="Helvetica,sans-Serif" font-size="10.00" fill="grey">auto_detected_encoding</text>
<text text-anchor="start" x="364.69" y="-202" font-family="Helvetica,sans-Serif" font-size="10.00" fill="grey">encoding</text>
</g>
<!-- Node3&#45;&gt;Node9 -->
<g id="edge12_Node000009_Node000003" class="edge">
<title>Node3&#45;&gt;Node9</title>
<g id="a_edge12_Node000009_Node000003"><a xlink:title=" ">
<path fill="none" stroke="#9a32cd" stroke-dasharray="5,2" d="M508.6,-236.02C504.88,-224.11 499.18,-208.56 491.69,-196 487.83,-189.51 482.31,-183.09 477.65,-178.19"/>
<polygon fill="#9a32cd" stroke="#9a32cd" points="505.28,-237.13 511.45,-245.74 511.99,-235.16 505.28,-237.13"/>
</a>
</g>
<text text-anchor="start" x="508.19" y="-209" font-family="Helvetica,sans-Serif" font-size="10.00" fill="grey">encoding</text>
</g>
<!-- Node4 -->
<g id="Node000004" class="node">
<title>Node4</title>
<g id="a_Node000004"><a xlink:href="struct__PlumaDocumentLoader.html" target="_top" xlink:title=" ">
<polygon fill="white" stroke="#666666" points="371.69,-91 235.69,-91 235.69,-72 371.69,-72 371.69,-91"/>
<text text-anchor="middle" x="303.69" y="-79" font-family="Helvetica,sans-Serif" font-size="10.00">_PlumaDocumentLoader</text>
</a>
</g>
</g>
<!-- Node4&#45;&gt;Node2 -->
<g id="edge3_Node000002_Node000004" class="edge">
<title>Node4&#45;&gt;Node2</title>
<g id="a_edge3_Node000002_Node000004"><a xlink:title=" ">
<path fill="none" stroke="#9a32cd" stroke-dasharray="5,2" d="M321.18,-65.19C337.32,-51.08 360.69,-30.63 373.8,-19.15"/>
<polygon fill="#9a32cd" stroke="#9a32cd" points="318.72,-62.7 313.5,-71.92 323.33,-67.97 318.72,-62.7"/>
</a>
</g>
<text text-anchor="start" x="357.19" y="-42.5" font-family="Helvetica,sans-Serif" font-size="10.00" fill="grey">loader</text>
</g>
<!-- Node5&#45;&gt;Node4 -->
<g id="edge4_Node000004_Node000005" class="edge">
<title>Node5&#45;&gt;Node4</title>
<g id="a_edge4_Node000004_Node000005"><a xlink:title=" ">
<path fill="none" stroke="#9a32cd" stroke-dasharray="5,2" d="M287.29,-148.88C291.7,-131.04 298.16,-104.89 301.5,-91.36"/>
<polygon fill="#9a32cd" stroke="#9a32cd" points="283.86,-148.18 284.86,-158.72 290.66,-149.86 283.86,-148.18"/>
</a>
</g>
<text text-anchor="start" x="301.19" y="-122" font-family="Helvetica,sans-Serif" font-size="10.00" fill="grey">priv</text>
</g>
<!-- Node6 -->
<g id="Node000006" class="node">
<title>Node6</title>
<g id="a_Node000006"><a xlink:href="struct__PlumaSmartCharsetConverter.html" target="_top" xlink:title=" ">
<polygon fill="white" stroke="#666666" points="372.19,-265 205.19,-265 205.19,-246 372.19,-246 372.19,-265"/>
<text text-anchor="middle" x="288.69" y="-253" font-family="Helvetica,sans-Serif" font-size="10.00">_PlumaSmartCharsetConverter</text>
</a>
</g>
</g>
<!-- Node6&#45;&gt;Node5 -->
<g id="edge7_Node000005_Node000006" class="edge">
<title>Node6&#45;&gt;Node5</title>
<g id="a_edge7_Node000005_Node000006"><a xlink:title=" ">
<path fill="none" stroke="#9a32cd" stroke-dasharray="5,2" d="M287.36,-235.62C286.1,-217.79 284.27,-191.83 283.32,-178.36"/>
<polygon fill="#9a32cd" stroke="#9a32cd" points="283.88,-235.99 288.07,-245.72 290.86,-235.5 283.88,-235.99"/>
</a>
</g>
<text text-anchor="start" x="291.19" y="-209" font-family="Helvetica,sans-Serif" font-size="10.00" fill="grey">converter</text>
</g>
<!-- Node7 -->
<g id="Node000007" class="node">
<title>Node7</title>
<g id="a_Node000007"><a xlink:title=" ">
<polygon fill="white" stroke="#666666" points="372.19,-348 205.19,-348 205.19,-318 372.19,-318 372.19,-348"/>
<text text-anchor="start" x="213.19" y="-336" font-family="Helvetica,sans-Serif" font-size="10.00">_PlumaSmartCharsetConverter</text>
<text text-anchor="middle" x="288.69" y="-325" font-family="Helvetica,sans-Serif" font-size="10.00">Private</text>
</a>
</g>
</g>
<!-- Node7&#45;&gt;Node6 -->
<g id="edge8_Node000006_Node000007" class="edge">
<title>Node7&#45;&gt;Node6</title>
<g id="a_edge8_Node000006_Node000007"><a xlink:title=" ">
<path fill="none" stroke="#9a32cd" stroke-dasharray="5,2" d="M288.69,-307.4C288.69,-292.81 288.69,-275.22 288.69,-265.01"/>
<polygon fill="#9a32cd" stroke="#9a32cd" points="285.19,-307.8 288.69,-317.8 292.19,-307.8 285.19,-307.8"/>
</a>
</g>
<text text-anchor="start" x="292.19" y="-288.5" font-family="Helvetica,sans-Serif" font-size="10.00" fill="grey">priv</text>
</g>
<!-- Node8 -->
<g id="Node000008" class="node">
<title>Node8</title>
<g id="a_Node000008"><a xlink:href="struct__PlumaDocumentSaver.html" target="_top" xlink:title=" ">
<polygon fill="white" stroke="#666666" points="529.19,-91 398.19,-91 398.19,-72 529.19,-72 529.19,-91"/>
<text text-anchor="middle" x="463.69" y="-79" font-family="Helvetica,sans-Serif" font-size="10.00">_PlumaDocumentSaver</text>
</a>
</g>
</g>
<!-- Node8&#45;&gt;Node2 -->
<g id="edge9_Node000002_Node000008" class="edge">
<title>Node8&#45;&gt;Node2</title>
<g id="a_edge9_Node000002_Node000008"><a xlink:title=" ">
<path fill="none" stroke="#9a32cd" stroke-dasharray="5,2" d="M446.2,-65.19C430.07,-51.08 406.7,-30.63 393.58,-19.15"/>
<polygon fill="#9a32cd" stroke="#9a32cd" points="444.05,-67.97 453.88,-71.92 448.66,-62.7 444.05,-67.97"/>
</a>
</g>
<text text-anchor="start" x="436.69" y="-42.5" font-family="Helvetica,sans-Serif" font-size="10.00" fill="grey">saver</text>
</g>
<!-- Node9&#45;&gt;Node8 -->
<g id="edge10_Node000008_Node000009" class="edge">
<title>Node9&#45;&gt;Node8</title>
<g id="a_edge10_Node000008_Node000009"><a xlink:title=" ">
<path fill="none" stroke="#9a32cd" stroke-dasharray="5,2" d="M467.58,-148.62C466.53,-130.79 465.01,-104.83 464.21,-91.36"/>
<polygon fill="#9a32cd" stroke="#9a32cd" points="464.09,-148.95 468.18,-158.72 471.08,-148.54 464.09,-148.95"/>
</a>
</g>
<text text-anchor="start" x="470.19" y="-122" font-family="Helvetica,sans-Serif" font-size="10.00" fill="grey">priv</text>
</g>
<!-- Node10 -->
<g id="Node000010" class="node">
<title>Node10</title>
<g id="a_Node000010"><a xlink:title=" ">
<polygon fill="white" stroke="#666666" points="715.19,-91 608.19,-91 608.19,-72 715.19,-72 715.19,-91"/>
<text text-anchor="middle" x="661.69" y="-79" font-family="Helvetica,sans-Serif" font-size="10.00">_PlumaTextRegion</text>
</a>
</g>
</g>
<!-- Node10&#45;&gt;Node2 -->
<g id="edge13_Node000002_Node000010" class="edge">
<title>Node10&#45;&gt;Node2</title>
<g id="a_edge13_Node000002_Node000010"><a xlink:title=" ">
<path fill="none" stroke="#9a32cd" stroke-dasharray="5,2" d="M643.3,-65.52C630.25,-55.73 611.89,-43.59 593.69,-37 548.43,-20.61 494.5,-14.06 452.63,-11.56"/>
<polygon fill="#9a32cd" stroke="#9a32cd" points="641.37,-68.45 651.41,-71.82 645.66,-62.92 641.37,-68.45"/>
</a>
</g>
<text text-anchor="start" x="627.69" y="-42.5" font-family="Helvetica,sans-Serif" font-size="10.00" fill="grey">to_search_region</text>
</g>
</g>
</svg>

<g id="navigator" transform="translate(0 0)" fill="#404254">
  <rect fill="#f2f5e9" fill-opacity="0.5" stroke="#606060" stroke-width=".5" x="0" y="0" width="60" height="60"/>
  <use id="zoomplus" xlink:href="#zoomPlus" x="17" y="9" onmousedown="handleZoom(evt,'in')"/>
  <use id="zoomminus" xlink:href="#zoomMin" x="42" y="9" onmousedown="handleZoom(evt,'out')"/>
  <use id="reset" xlink:href="#resetDef" x="30" y="36" onmousedown="handleReset()"/>
   <use id="arrowup" xlink:href="#arrowUp" x="0" y="0" onmousedown="handlePan(0,-1)"/>
  <use id="arrowright" xlink:href="#arrowRight" x="0" y="0" onmousedown="handlePan(1,0)"/>
  <use id="arrowdown" xlink:href="#arrowDown" x="0" y="0" onmousedown="handlePan(0,1)"/>
  <use id="arrowleft" xlink:href="#arrowLeft" x="0" y="0" onmousedown="handlePan(-1,0)"/>
</g>
<svg viewBox="0 0 15 15" width="100%" height="30px" preserveAspectRatio="xMaxYMin meet">
 <g id="arrow_out" transform="scale(0.3 0.3)">
  <a xlink:href="struct__PlumaDocument__coll__graph_org.svg" target="_base">
   <rect id="button" ry="5" rx="5" y="6" x="6" height="38" width="38"
        fill="#f2f5e9" fill-opacity="0.5" stroke="#606060" stroke-width="1.0"/>
   <path id="arrow"
     d="M 11.500037,31.436501 C 11.940474,20.09759 22.043105,11.32322 32.158766,21.979434 L 37.068811,17.246167 C 37.068811,17.246167 37.088388,32 37.088388,32 L 22.160133,31.978069 C 22.160133,31.978069 26.997745,27.140456 26.997745,27.140456 C 18.528582,18.264221 13.291696,25.230495 11.500037,31.436501 z"
     style="fill:#404040;"/>
  </a>
 </g>
</svg>

<style type='text/css'>
<![CDATA[
[data-mouse-over-selected='false'] { opacity: 0.7; }
[data-mouse-over-selected='true']  { opacity: 1.0; }
]]>
</style>
<script type="application/ecmascript"><![CDATA[
document.addEventListener('DOMContentLoaded', (event) => {
  highlightEdges();
  highlightAdjacentNodes();
});
]]></script>
</svg>
