<?xml version="1.0" encoding="UTF-8" standalone="no"?>
<!DOCTYPE svg PUBLIC "-//W3C//DTD SVG 1.1//EN"
 "http://www.w3.org/Graphics/SVG/1.1/DTD/svg11.dtd">
<!-- Generated by graphviz version 2.43.0 (0)
 -->
<!-- Title: MathHistoryEntry Pages: 1 -->
<svg width="355pt" height="531pt"
 viewBox="0.00 0.00 355.00 531.00" xmlns="http://www.w3.org/2000/svg" xmlns:xlink="http://www.w3.org/1999/xlink">
<g id="graph0" class="graph" transform="scale(1 1) rotate(0) translate(4 527)">
<title>MathHistoryEntry</title>
<!-- Node1 -->
<g id="Node000001" class="node">
<title>Node1</title>
<g id="a_Node000001"><a xlink:title=" ">
<polygon fill="#999999" stroke="#666666" points="119.5,-19 17.5,-19 17.5,0 119.5,0 119.5,-19"/>
<text text-anchor="middle" x="68.5" y="-7" font-family="Helvetica,sans-Serif" font-size="10.00">MathHistoryEntry</text>
</a>
</g>
</g>
<!-- Node2 -->
<g id="Node000002" class="node">
<title>Node2</title>
<g id="a_Node000002"><a xlink:title=" ">
<polygon fill="white" stroke="#666666" points="137,-91 0,-91 0,-72 137,-72 137,-91"/>
<text text-anchor="middle" x="68.5" y="-79" font-family="Helvetica,sans-Serif" font-size="10.00">MathHistoryEntryPrivate</text>
</a>
</g>
</g>
<!-- Node2&#45;&gt;Node1 -->
<g id="edge1_Node000001_Node000002" class="edge">
<title>Node2&#45;&gt;Node1</title>
<g id="a_edge1_Node000001_Node000002"><a xlink:title=" ">
<path fill="none" stroke="#9a32cd" stroke-dasharray="5,2" d="M68.5,-61.58C68.5,-47.76 68.5,-29.68 68.5,-19.15"/>
<polygon fill="#9a32cd" stroke="#9a32cd" points="65,-61.92 68.5,-71.92 72,-61.92 65,-61.92"/>
</a>
</g>
<text text-anchor="start" x="72" y="-42.5" font-family="Helvetica,sans-Serif" font-size="10.00" fill="grey">priv</text>
</g>
<!-- Node3 -->
<g id="Node000003" class="node">
<title>Node3</title>
<g id="a_Node000003"><a xlink:href="structMathEquation.html" target="_top" xlink:title=" ">
<polygon fill="white" stroke="#666666" points="191.5,-163 107.5,-163 107.5,-144 191.5,-144 191.5,-163"/>
<text text-anchor="middle" x="149.5" y="-151" font-family="Helvetica,sans-Serif" font-size="10.00">MathEquation</text>
</a>
</g>
</g>
<!-- Node3&#45;&gt;Node2 -->
<g id="edge2_Node000002_Node000003" class="edge">
<title>Node3&#45;&gt;Node2</title>
<g id="a_edge2_Node000002_Node000003"><a xlink:title=" ">
<path fill="none" stroke="#9a32cd" stroke-dasharray="5,2" d="M131.79,-137.19C115.46,-123.08 91.79,-102.63 78.51,-91.15"/>
<polygon fill="#9a32cd" stroke="#9a32cd" points="129.71,-140.03 139.57,-143.92 134.29,-134.73 129.71,-140.03"/>
</a>
</g>
<text text-anchor="start" x="123" y="-114.5" font-family="Helvetica,sans-Serif" font-size="10.00" fill="grey">equation</text>
</g>
<!-- Node4 -->
<g id="Node000004" class="node">
<title>Node4</title>
<g id="a_Node000004"><a xlink:title=" ">
<polygon fill="white" stroke="#666666" points="245,-235 126,-235 126,-216 245,-216 245,-235"/>
<text text-anchor="middle" x="185.5" y="-223" font-family="Helvetica,sans-Serif" font-size="10.00">MathEquationPrivate</text>
</a>
</g>
</g>
<!-- Node4&#45;&gt;Node3 -->
<g id="edge3_Node000003_Node000004" class="edge">
<title>Node4&#45;&gt;Node3</title>
<g id="a_edge3_Node000003_Node000004"><a xlink:title=" ">
<path fill="none" stroke="#9a32cd" stroke-dasharray="5,2" d="M176.4,-206.81C169.23,-192.86 159.53,-174 153.95,-163.15"/>
<polygon fill="#9a32cd" stroke="#9a32cd" points="173.4,-208.62 181.09,-215.92 179.62,-205.42 173.4,-208.62"/>
</a>
</g>
<text text-anchor="start" x="176" y="-186.5" font-family="Helvetica,sans-Serif" font-size="10.00" fill="grey">priv</text>
</g>
<!-- Node5 -->
<g id="Node000005" class="node">
<title>Node5</title>
<g id="a_Node000005"><a xlink:title=" ">
<polygon fill="white" stroke="#666666" points="169.5,-307 59.5,-307 59.5,-288 169.5,-288 169.5,-307"/>
<text text-anchor="middle" x="114.5" y="-295" font-family="Helvetica,sans-Serif" font-size="10.00">MathEquationState</text>
</a>
</g>
</g>
<!-- Node5&#45;&gt;Node4 -->
<g id="edge4_Node000004_Node000005" class="edge">
<title>Node5&#45;&gt;Node4</title>
<g id="a_edge4_Node000004_Node000005"><a xlink:title=" ">
<path fill="none" stroke="#9a32cd" stroke-dasharray="5,2" d="M127.89,-279.82C134.89,-271.45 143.8,-261.35 152.5,-253 159.18,-246.59 167.28,-240.07 173.78,-235.1"/>
<polygon fill="#9a32cd" stroke="#9a32cd" points="125,-277.81 121.37,-287.76 130.42,-282.25 125,-277.81"/>
</a>
</g>
<text text-anchor="start" x="156" y="-258.5" font-family="Helvetica,sans-Serif" font-size="10.00" fill="grey">state</text>
</g>
<!-- Node6 -->
<g id="Node000006" class="node">
<title>Node6</title>
<g id="a_Node000006"><a xlink:href="structMPNumber.html" target="_top" xlink:title=" ">
<polygon fill="white" stroke="#666666" points="96,-379 25,-379 25,-360 96,-360 96,-379"/>
<text text-anchor="middle" x="60.5" y="-367" font-family="Helvetica,sans-Serif" font-size="10.00">MPNumber</text>
</a>
</g>
</g>
<!-- Node6&#45;&gt;Node2 -->
<g id="edge11_Node000002_Node000006" class="edge">
<title>Node6&#45;&gt;Node2</title>
<g id="a_edge11_Node000002_Node000006"><a xlink:title=" ">
<path fill="none" stroke="#9a32cd" stroke-dasharray="5,2" d="M48.85,-351.15C40.78,-337.45 31.5,-317.55 31.5,-298.5 31.5,-298.5 31.5,-298.5 31.5,-152.5 31.5,-128.03 49.39,-103.75 60.29,-91.22"/>
<polygon fill="#9a32cd" stroke="#9a32cd" points="46.07,-353.31 54.35,-359.92 52,-349.58 46.07,-353.31"/>
</a>
</g>
<text text-anchor="start" x="34.5" y="-222.5" font-family="Helvetica,sans-Serif" font-size="10.00" fill="grey">number</text>
</g>
<!-- Node6&#45;&gt;Node5 -->
<g id="edge5_Node000005_Node000006" class="edge">
<title>Node6&#45;&gt;Node5</title>
<g id="a_edge5_Node000005_Node000006"><a xlink:title=" ">
<path fill="none" stroke="#9a32cd" stroke-dasharray="5,2" d="M73.53,-351.62C84.34,-337.59 99.3,-318.21 107.82,-307.15"/>
<polygon fill="#9a32cd" stroke="#9a32cd" points="70.46,-349.86 67.12,-359.92 76,-354.14 70.46,-349.86"/>
</a>
</g>
<text text-anchor="start" x="97.5" y="-330.5" font-family="Helvetica,sans-Serif" font-size="10.00" fill="grey">ans</text>
</g>
<!-- Node7 -->
<g id="Node000007" class="node">
<title>Node7</title>
<g id="a_Node000007"><a xlink:href="structMathVariables.html" target="_top" xlink:title=" ">
<polygon fill="white" stroke="#666666" points="316.5,-307 230.5,-307 230.5,-288 316.5,-288 316.5,-307"/>
<text text-anchor="middle" x="273.5" y="-295" font-family="Helvetica,sans-Serif" font-size="10.00">MathVariables</text>
</a>
</g>
</g>
<!-- Node7&#45;&gt;Node4 -->
<g id="edge6_Node000004_Node000007" class="edge">
<title>Node7&#45;&gt;Node4</title>
<g id="a_edge6_Node000004_Node000007"><a xlink:title=" ">
<path fill="none" stroke="#9a32cd" stroke-dasharray="5,2" d="M254.74,-281.58C236.99,-267.46 210.94,-246.74 196.38,-235.15"/>
<polygon fill="#9a32cd" stroke="#9a32cd" points="252.7,-284.43 262.71,-287.92 257.06,-278.95 252.7,-284.43"/>
</a>
</g>
<text text-anchor="start" x="242.5" y="-258.5" font-family="Helvetica,sans-Serif" font-size="10.00" fill="grey">variables</text>
</g>
<!-- Node8 -->
<g id="Node000008" class="node">
<title>Node8</title>
<g id="a_Node000008"><a xlink:title=" ">
<polygon fill="white" stroke="#666666" points="347,-379 226,-379 226,-360 347,-360 347,-379"/>
<text text-anchor="middle" x="286.5" y="-367" font-family="Helvetica,sans-Serif" font-size="10.00">MathVariablesPrivate</text>
</a>
</g>
</g>
<!-- Node8&#45;&gt;Node7 -->
<g id="edge7_Node000007_Node000008" class="edge">
<title>Node8&#45;&gt;Node7</title>
<g id="a_edge7_Node000007_Node000008"><a xlink:title=" ">
<path fill="none" stroke="#9a32cd" stroke-dasharray="5,2" d="M283.06,-349.99C280.49,-336.13 277.08,-317.79 275.11,-307.15"/>
<polygon fill="#9a32cd" stroke="#9a32cd" points="279.64,-350.72 284.91,-359.92 286.52,-349.45 279.64,-350.72"/>
</a>
</g>
<text text-anchor="start" x="285" y="-330.5" font-family="Helvetica,sans-Serif" font-size="10.00" fill="grey">priv</text>
</g>
<!-- Node9 -->
<g id="Node000009" class="node">
<title>Node9</title>
<g id="a_Node000009"><a xlink:href="structMpSerializer.html" target="_top" xlink:title=" ">
<polygon fill="white" stroke="#666666" points="252,-451 175,-451 175,-432 252,-432 252,-451"/>
<text text-anchor="middle" x="213.5" y="-439" font-family="Helvetica,sans-Serif" font-size="10.00">MpSerializer</text>
</a>
</g>
</g>
<!-- Node9&#45;&gt;Node4 -->
<g id="edge10_Node000004_Node000009" class="edge">
<title>Node9&#45;&gt;Node4</title>
<g id="a_edge10_Node000004_Node000009"><a xlink:title=" ">
<path fill="none" stroke="#9a32cd" stroke-dasharray="5,2" d="M211.06,-421.84C205.24,-377.4 190.75,-266.61 186.62,-235.03"/>
<polygon fill="#9a32cd" stroke="#9a32cd" points="207.6,-422.38 212.37,-431.85 214.54,-421.48 207.6,-422.38"/>
</a>
</g>
<text text-anchor="start" x="203.5" y="-330.5" font-family="Helvetica,sans-Serif" font-size="10.00" fill="grey">serializer</text>
</g>
<!-- Node9&#45;&gt;Node8 -->
<g id="edge8_Node000008_Node000009" class="edge">
<title>Node9&#45;&gt;Node8</title>
<g id="a_edge8_Node000008_Node000009"><a xlink:title=" ">
<path fill="none" stroke="#9a32cd" stroke-dasharray="5,2" d="M229.87,-424.8C244.57,-410.71 265.62,-390.53 277.48,-379.15"/>
<polygon fill="#9a32cd" stroke="#9a32cd" points="227.25,-422.47 222.45,-431.92 232.09,-427.52 227.25,-422.47"/>
</a>
</g>
<text text-anchor="start" x="261.5" y="-402.5" font-family="Helvetica,sans-Serif" font-size="10.00" fill="grey">serializer</text>
</g>
<!-- Node10 -->
<g id="Node000010" class="node">
<title>Node10</title>
<g id="a_Node000010"><a xlink:title=" ">
<polygon fill="white" stroke="#666666" points="269.5,-523 157.5,-523 157.5,-504 269.5,-504 269.5,-523"/>
<text text-anchor="middle" x="213.5" y="-511" font-family="Helvetica,sans-Serif" font-size="10.00">MpSerializerPrivate</text>
</a>
</g>
</g>
<!-- Node10&#45;&gt;Node9 -->
<g id="edge9_Node000009_Node000010" class="edge">
<title>Node10&#45;&gt;Node9</title>
<g id="a_edge9_Node000009_Node000010"><a xlink:title=" ">
<path fill="none" stroke="#9a32cd" stroke-dasharray="5,2" d="M213.5,-493.58C213.5,-479.76 213.5,-461.68 213.5,-451.15"/>
<polygon fill="#9a32cd" stroke="#9a32cd" points="210,-493.92 213.5,-503.92 217,-493.92 210,-493.92"/>
</a>
</g>
<text text-anchor="start" x="217" y="-474.5" font-family="Helvetica,sans-Serif" font-size="10.00" fill="grey">priv</text>
</g>
</g>
</svg>
