<?xml version="1.0" encoding="UTF-8" standalone="no"?>
<!DOCTYPE svg PUBLIC "-//W3C//DTD SVG 1.1//EN"
 "http://www.w3.org/Graphics/SVG/1.1/DTD/svg11.dtd">
<!-- Generated by graphviz version 2.43.0 (0)
 -->
<!-- Title: LexerState Pages: 1 -->
<svg width="361pt" height="286pt"
 viewBox="0.00 0.00 361.00 286.00" xmlns="http://www.w3.org/2000/svg" xmlns:xlink="http://www.w3.org/1999/xlink">
<g id="graph0" class="graph" transform="scale(1 1) rotate(0) translate(4 282)">
<title>LexerState</title>
<!-- Node1 -->
<g id="Node000001" class="node">
<title>Node1</title>
<g id="a_Node000001"><a xlink:title=" ">
<polygon fill="#999999" stroke="#666666" points="132.5,-206 64.5,-206 64.5,-187 132.5,-187 132.5,-206"/>
<text text-anchor="middle" x="98.5" y="-194" font-family="Helvetica,sans-Serif" font-size="10.00">LexerState</text>
</a>
</g>
</g>
<!-- Node4 -->
<g id="Node000004" class="node">
<title>Node4</title>
<g id="a_Node000004"><a xlink:href="structparser__state.html" target="_top" xlink:title=" ">
<polygon fill="white" stroke="#666666" points="192,-134 115,-134 115,-115 192,-115 192,-134"/>
<text text-anchor="middle" x="153.5" y="-122" font-family="Helvetica,sans-Serif" font-size="10.00">parser_state</text>
</a>
</g>
</g>
<!-- Node1&#45;&gt;Node4 -->
<g id="edge8_Node000004_Node000001" class="edge">
<title>Node1&#45;&gt;Node4</title>
<g id="a_edge8_Node000004_Node000001"><a xlink:title=" ">
<path fill="none" stroke="#9a32cd" stroke-dasharray="5,2" d="M119.78,-180.64C123.97,-177.13 128.12,-173.17 131.5,-169 140.24,-158.22 146.81,-143.4 150.4,-134.14"/>
<polygon fill="#9a32cd" stroke="#9a32cd" points="117.59,-177.91 111.84,-186.81 121.89,-183.44 117.59,-177.91"/>
</a>
</g>
<text text-anchor="start" x="145" y="-157.5" font-family="Helvetica,sans-Serif" font-size="10.00" fill="grey">lexer</text>
</g>
<!-- Node2 -->
<g id="Node000002" class="node">
<title>Node2</title>
<g id="a_Node000002"><a xlink:href="structPreLexerState.html" target="_top" xlink:title=" ">
<polygon fill="white" stroke="#666666" points="173.5,-278 89.5,-278 89.5,-259 173.5,-259 173.5,-278"/>
<text text-anchor="middle" x="131.5" y="-266" font-family="Helvetica,sans-Serif" font-size="10.00">PreLexerState</text>
</a>
</g>
</g>
<!-- Node2&#45;&gt;Node1 -->
<g id="edge1_Node000001_Node000002" class="edge">
<title>Node2&#45;&gt;Node1</title>
<g id="a_edge1_Node000001_Node000002"><a xlink:title=" ">
<path fill="none" stroke="#9a32cd" stroke-dasharray="5,2" d="M123.16,-249.81C116.58,-235.86 107.69,-217 102.58,-206.15"/>
<polygon fill="#9a32cd" stroke="#9a32cd" points="120.02,-251.36 127.45,-258.92 126.36,-248.38 120.02,-251.36"/>
</a>
</g>
<text text-anchor="start" x="121.5" y="-229.5" font-family="Helvetica,sans-Serif" font-size="10.00" fill="grey">prelexer</text>
</g>
<!-- Node3 -->
<g id="Node000003" class="node">
<title>Node3</title>
<g id="a_Node000003"><a xlink:href="structLexerToken.html" target="_top" xlink:title=" ">
<polygon fill="white" stroke="#666666" points="71,-278 0,-278 0,-259 71,-259 71,-278"/>
<text text-anchor="middle" x="35.5" y="-266" font-family="Helvetica,sans-Serif" font-size="10.00">LexerToken</text>
</a>
</g>
</g>
<!-- Node3&#45;&gt;Node1 -->
<g id="edge2_Node000001_Node000003" class="edge">
<title>Node3&#45;&gt;Node1</title>
<g id="a_edge2_Node000001_Node000003"><a xlink:title=" ">
<path fill="none" stroke="#9a32cd" stroke-dasharray="5,2" d="M46.85,-250.21C52.62,-241.93 59.99,-232.08 67.5,-224 73.57,-217.47 81.18,-210.94 87.34,-206.01"/>
<polygon fill="#9a32cd" stroke="#9a32cd" points="43.8,-248.47 41.09,-258.71 49.6,-252.39 43.8,-248.47"/>
</a>
</g>
<text text-anchor="start" x="71" y="-229.5" font-family="Helvetica,sans-Serif" font-size="10.00" fill="grey">tokens</text>
</g>
<!-- Node5 -->
<g id="Node000005" class="node">
<title>Node5</title>
<g id="a_Node000005"><a xlink:href="structparse__node.html" target="_top" xlink:title=" ">
<polygon fill="white" stroke="#666666" points="108,-33 35,-33 35,-14 108,-14 108,-33"/>
<text text-anchor="middle" x="71.5" y="-21" font-family="Helvetica,sans-Serif" font-size="10.00">parse_node</text>
</a>
</g>
</g>
<!-- Node3&#45;&gt;Node5 -->
<g id="edge6_Node000005_Node000003" class="edge">
<title>Node3&#45;&gt;Node5</title>
<g id="a_edge6_Node000005_Node000003"><a xlink:title=" ">
<path fill="none" stroke="#9a32cd" stroke-dasharray="5,2" d="M36.94,-248.52C39.86,-212.5 47.37,-131.83 60.5,-65 62.69,-53.85 66.3,-41.25 68.78,-33.11"/>
<polygon fill="#9a32cd" stroke="#9a32cd" points="33.41,-248.7 36.12,-258.94 40.39,-249.25 33.41,-248.7"/>
</a>
</g>
<text text-anchor="start" x="50.5" y="-157.5" font-family="Helvetica,sans-Serif" font-size="10.00" fill="grey">token</text>
</g>
<!-- Node4&#45;&gt;Node1 -->
<g id="edge3_Node000001_Node000004" class="edge">
<title>Node4&#45;&gt;Node1</title>
<g id="a_edge3_Node000001_Node000004"><a xlink:title=" ">
<path fill="none" stroke="#9a32cd" stroke-dasharray="5,2" d="M107.55,-138.77C102,-142.22 97.05,-146.55 93.5,-152 86.69,-162.45 90.66,-177.36 94.39,-186.73"/>
<polygon fill="#9a32cd" stroke="#9a32cd" points="109.39,-141.76 116.65,-134.05 106.16,-135.55 109.39,-141.76"/>
</a>
</g>
<text text-anchor="start" x="96.5" y="-157.5" font-family="Helvetica,sans-Serif" font-size="10.00" fill="grey">parent</text>
</g>
<!-- Node4&#45;&gt;Node5 -->
<g id="edge7_Node000005_Node000004" class="edge">
<title>Node4&#45;&gt;Node5</title>
<g id="a_edge7_Node000005_Node000004"><a xlink:title=" ">
<path fill="none" stroke="#9a32cd" stroke-dasharray="5,2" d="M149.58,-104.7C146.31,-92.43 140.66,-76.61 131.5,-65 120.44,-50.99 103.19,-40.06 90.02,-33.11"/>
<polygon fill="#9a32cd" stroke="#9a32cd" points="146.24,-105.81 151.95,-114.74 153.06,-104.2 146.24,-105.81"/>
</a>
</g>
<text text-anchor="start" x="150" y="-78" font-family="Helvetica,sans-Serif" font-size="10.00" fill="grey">state</text>
</g>
<!-- Node5&#45;&gt;Node4 -->
<g id="edge4_Node000004_Node000005" class="edge">
<title>Node5&#45;&gt;Node4</title>
<g id="a_edge4_Node000004_Node000005"><a xlink:title=" ">
<path fill="none" stroke="#9a32cd" stroke-dasharray="5,2" d="M66.3,-42.81C62.95,-58.69 61.11,-81.51 72.5,-97 82.32,-110.35 99.05,-117.09 114.77,-120.45"/>
<polygon fill="#9a32cd" stroke="#9a32cd" points="69.7,-43.64 68.71,-33.09 62.9,-41.96 69.7,-43.64"/>
</a>
</g>
<text text-anchor="start" x="76" y="-86" font-family="Helvetica,sans-Serif" font-size="10.00" fill="grey">right_most</text>
<text text-anchor="start" x="76" y="-71" font-family="Helvetica,sans-Serif" font-size="10.00" fill="grey">root</text>
</g>
<!-- Node5&#45;&gt;Node5 -->
<g id="edge5_Node000005_Node000005" class="edge">
<title>Node5&#45;&gt;Node5</title>
<g id="a_edge5_Node000005_Node000005"><a xlink:title=" ">
<path fill="none" stroke="#9a32cd" stroke-dasharray="5,2" d="M104.9,-34C116.56,-34.13 126,-30.64 126,-23.5 126,-14.37 110.54,-11.19 94.74,-13.97"/>
<polygon fill="#9a32cd" stroke="#9a32cd" points="105.03,-30.49 94.74,-33.03 104.37,-37.46 105.03,-30.49"/>
</a>
</g>
<text text-anchor="start" x="129" y="-35.5" font-family="Helvetica,sans-Serif" font-size="10.00" fill="grey">left</text>
<text text-anchor="start" x="129" y="-20.5" font-family="Helvetica,sans-Serif" font-size="10.00" fill="grey">parent</text>
<text text-anchor="start" x="129" y="-5.5" font-family="Helvetica,sans-Serif" font-size="10.00" fill="grey">right</text>
</g>
<!-- Node6 -->
<g id="Node000006" class="node">
<title>Node6</title>
<g id="a_Node000006"><a xlink:href="structMPEquationOptions.html" target="_top" xlink:title=" ">
<polygon fill="white" stroke="#666666" points="263.5,-206 151.5,-206 151.5,-187 263.5,-187 263.5,-206"/>
<text text-anchor="middle" x="207.5" y="-194" font-family="Helvetica,sans-Serif" font-size="10.00">MPEquationOptions</text>
</a>
</g>
</g>
<!-- Node6&#45;&gt;Node4 -->
<g id="edge9_Node000004_Node000006" class="edge">
<title>Node6&#45;&gt;Node4</title>
<g id="a_edge9_Node000004_Node000006"><a xlink:title=" ">
<path fill="none" stroke="#9a32cd" stroke-dasharray="5,2" d="M200.39,-177.44C196.66,-169.21 191.59,-159.63 185.5,-152 180.01,-145.12 172.48,-138.78 166.11,-134.03"/>
<polygon fill="#9a32cd" stroke="#9a32cd" points="197.26,-179.03 204.37,-186.89 203.71,-176.31 197.26,-179.03"/>
</a>
</g>
<text text-anchor="start" x="199" y="-157.5" font-family="Helvetica,sans-Serif" font-size="10.00" fill="grey">options</text>
</g>
<!-- Node7 -->
<g id="Node000007" class="node">
<title>Node7</title>
<g id="a_Node000007"><a xlink:href="structMPNumber.html" target="_top" xlink:title=" ">
<polygon fill="white" stroke="#666666" points="353,-206 282,-206 282,-187 353,-187 353,-206"/>
<text text-anchor="middle" x="317.5" y="-194" font-family="Helvetica,sans-Serif" font-size="10.00">MPNumber</text>
</a>
</g>
</g>
<!-- Node7&#45;&gt;Node4 -->
<g id="edge10_Node000004_Node000007" class="edge">
<title>Node7&#45;&gt;Node4</title>
<g id="a_edge10_Node000004_Node000007"><a xlink:title=" ">
<path fill="none" stroke="#9a32cd" stroke-dasharray="5,2" d="M296.22,-181.34C281.58,-172.05 261.43,-160.17 242.5,-152 225.48,-144.65 205.79,-138.56 189.26,-134.07"/>
<polygon fill="#9a32cd" stroke="#9a32cd" points="294.68,-184.51 304.98,-187 298.48,-178.63 294.68,-184.51"/>
</a>
</g>
<text text-anchor="start" x="276.5" y="-157.5" font-family="Helvetica,sans-Serif" font-size="10.00" fill="grey">ret</text>
</g>
</g>
</svg>
