<?xml version="1.0" encoding="UTF-8" standalone="no"?>
<!DOCTYPE svg PUBLIC "-//W3C//DTD SVG 1.1//EN"
 "http://www.w3.org/Graphics/SVG/1.1/DTD/svg11.dtd">
<!-- Generated by graphviz version 2.43.0 (0)
 -->
<!-- Title: CajaBookmark Pages: 1 -->
<svg width="952pt" height="1009pt"
 viewBox="0.00 0.00 952.00 1009.48" xmlns="http://www.w3.org/2000/svg" xmlns:xlink="http://www.w3.org/1999/xlink">
<g id="graph0" class="graph" transform="scale(1 1) rotate(0) translate(4 1005.48)">
<title>CajaBookmark</title>
<!-- Node1 -->
<g id="Node000001" class="node">
<title>Node1</title>
<g id="a_Node000001"><a xlink:title=" ">
<polygon fill="#999999" stroke="#666666" points="605.5,-860.48 516.5,-860.48 516.5,-841.48 605.5,-841.48 605.5,-860.48"/>
<text text-anchor="middle" x="561" y="-848.48" font-family="Helvetica,sans-Serif" font-size="10.00">CajaBookmark</text>
</a>
</g>
</g>
<!-- Node2 -->
<g id="Node000002" class="node">
<title>Node2</title>
<g id="a_Node000002"><a xlink:title=" ">
<polygon fill="white" stroke="#666666" points="349,-844.48 226,-844.48 226,-825.48 349,-825.48 349,-844.48"/>
<text text-anchor="middle" x="287.5" y="-832.48" font-family="Helvetica,sans-Serif" font-size="10.00">CajaBookmarkDetails</text>
</a>
</g>
</g>
<!-- Node2&#45;&gt;Node1 -->
<g id="edge1_Node000001_Node000002" class="edge">
<title>Node2&#45;&gt;Node1</title>
<g id="a_edge1_Node000001_Node000002"><a xlink:title=" ">
<path fill="none" stroke="#9a32cd" stroke-dasharray="5,2" d="M359.16,-839.14C408.97,-842.08 474.09,-845.92 516.47,-848.41"/>
<polygon fill="#9a32cd" stroke="#9a32cd" points="359.28,-835.65 349.09,-838.55 358.87,-842.63 359.28,-835.65"/>
</a>
</g>
<text text-anchor="start" x="398.5" y="-849.48" font-family="Helvetica,sans-Serif" font-size="10.00" fill="grey">details</text>
</g>
<!-- Node3 -->
<g id="Node000003" class="node">
<title>Node3</title>
<g id="a_Node000003"><a xlink:href="structCajaFile.html" target="_top" xlink:title=" ">
<polygon fill="white" stroke="#666666" points="71.5,-689.48 15.5,-689.48 15.5,-670.48 71.5,-670.48 71.5,-689.48"/>
<text text-anchor="middle" x="43.5" y="-677.48" font-family="Helvetica,sans-Serif" font-size="10.00">CajaFile</text>
</a>
</g>
</g>
<!-- Node3&#45;&gt;Node2 -->
<g id="edge2_Node000002_Node000003" class="edge">
<title>Node3&#45;&gt;Node2</title>
<g id="a_edge2_Node000002_Node000003"><a xlink:title=" ">
<path fill="none" stroke="#9a32cd" stroke-dasharray="5,2" d="M51.98,-698.72C61.35,-719.9 79.34,-754 105,-773.98 140.41,-801.55 188.95,-817.01 226.92,-825.46"/>
<polygon fill="#9a32cd" stroke="#9a32cd" points="55.2,-697.34 48.08,-689.49 48.75,-700.06 55.2,-697.34"/>
</a>
</g>
<text text-anchor="start" x="148.5" y="-825.48" font-family="Helvetica,sans-Serif" font-size="10.00" fill="grey">file</text>
</g>
<!-- Node6 -->
<g id="Node000006" class="node">
<title>Node6</title>
<g id="a_Node000006"><a xlink:href="struct__CajaDirectoryPrivate.html" target="_top" xlink:title=" ">
<polygon fill="white" stroke="#666666" points="349,-362.48 226,-362.48 226,-343.48 349,-343.48 349,-362.48"/>
<text text-anchor="middle" x="287.5" y="-350.48" font-family="Helvetica,sans-Serif" font-size="10.00">_CajaDirectoryPrivate</text>
</a>
</g>
</g>
<!-- Node3&#45;&gt;Node6 -->
<g id="edge6_Node000006_Node000003" class="edge">
<title>Node3&#45;&gt;Node6</title>
<g id="a_edge6_Node000006_Node000003"><a xlink:title=" ">
<path fill="none" stroke="#9a32cd" stroke-dasharray="5,2" d="M50.4,-660.24C59.44,-631.89 78.47,-578.67 105,-538.98 156.65,-461.71 242.7,-388.36 274.34,-362.65"/>
<polygon fill="#9a32cd" stroke="#9a32cd" points="46.96,-659.54 47.34,-670.13 53.64,-661.62 46.96,-659.54"/>
</a>
</g>
<text text-anchor="start" x="110.5" y="-589.98" font-family="Helvetica,sans-Serif" font-size="10.00" fill="grey">as_file</text>
<text text-anchor="start" x="110.5" y="-574.98" font-family="Helvetica,sans-Serif" font-size="10.00" fill="grey">deep_count_file</text>
<text text-anchor="start" x="110.5" y="-559.98" font-family="Helvetica,sans-Serif" font-size="10.00" fill="grey">extension_info_file</text>
<text text-anchor="start" x="110.5" y="-544.98" font-family="Helvetica,sans-Serif" font-size="10.00" fill="grey">get_info_file</text>
</g>
<!-- Node9 -->
<g id="Node000009" class="node">
<title>Node9</title>
<g id="a_Node000009"><a xlink:title=" ">
<polygon fill="white" stroke="#666666" points="938,-744.48 828,-744.48 828,-725.48 938,-725.48 938,-744.48"/>
<text text-anchor="middle" x="883" y="-732.48" font-family="Helvetica,sans-Serif" font-size="10.00">DirectoryLoadState</text>
</a>
</g>
</g>
<!-- Node3&#45;&gt;Node9 -->
<g id="edge11_Node000009_Node000003" class="edge">
<title>Node3&#45;&gt;Node9</title>
<g id="a_edge11_Node000009_Node000003"><a xlink:title=" ">
<path fill="none" stroke="#9a32cd" stroke-dasharray="5,2" d="M66.69,-695.15C77.71,-701.87 91.52,-709.11 105,-712.98 341.66,-780.9 411.89,-738.64 658,-745.98 722.86,-747.91 739.27,-750.52 804,-745.98 811.78,-745.43 819.96,-744.59 827.98,-743.6"/>
<polygon fill="#9a32cd" stroke="#9a32cd" points="68.47,-692.14 58.16,-689.72 64.71,-698.05 68.47,-692.14"/>
</a>
</g>
<text text-anchor="start" x="370.5" y="-757.48" font-family="Helvetica,sans-Serif" font-size="10.00" fill="grey">load_directory_file</text>
</g>
<!-- Node10 -->
<g id="Node000010" class="node">
<title>Node10</title>
<g id="a_Node000010"><a xlink:title=" ">
<polygon fill="white" stroke="#666666" points="941,-174.48 825,-174.48 825,-155.48 941,-155.48 941,-174.48"/>
<text text-anchor="middle" x="883" y="-162.48" font-family="Helvetica,sans-Serif" font-size="10.00">DirectoryCountState</text>
</a>
</g>
</g>
<!-- Node3&#45;&gt;Node10 -->
<g id="edge14_Node000010_Node000003" class="edge">
<title>Node3&#45;&gt;Node10</title>
<g id="a_edge14_Node000010_Node000003"><a xlink:title=" ">
<path fill="none" stroke="#9a32cd" stroke-dasharray="5,2" d="M45.26,-659.88C48.25,-591.23 61.24,-367.29 105,-312.98 284.97,-89.64 688.52,-132.23 831,-155.47"/>
<polygon fill="#9a32cd" stroke="#9a32cd" points="41.76,-660.04 44.84,-670.17 48.75,-660.33 41.76,-660.04"/>
</a>
</g>
<text text-anchor="start" x="391.5" y="-165.48" font-family="Helvetica,sans-Serif" font-size="10.00" fill="grey">count_file</text>
</g>
<!-- Node12 -->
<g id="Node000012" class="node">
<title>Node12</title>
<g id="a_Node000012"><a xlink:title=" ">
<polygon fill="white" stroke="#666666" points="926.5,-402.48 839.5,-402.48 839.5,-383.48 926.5,-383.48 926.5,-402.48"/>
<text text-anchor="middle" x="883" y="-390.48" font-family="Helvetica,sans-Serif" font-size="10.00">MimeListState</text>
</a>
</g>
</g>
<!-- Node3&#45;&gt;Node12 -->
<g id="edge19_Node000012_Node000003" class="edge">
<title>Node3&#45;&gt;Node12</title>
<g id="a_edge19_Node000012_Node000003"><a xlink:title=" ">
<path fill="none" stroke="#9a32cd" stroke-dasharray="5,2" d="M81.21,-668.29C89.05,-665.84 97.29,-663.29 105,-660.98 271.94,-610.86 312.3,-592.76 482,-552.98 551.51,-536.69 577.68,-558.82 640,-523.98 650.44,-518.14 648,-510.54 658,-503.98 715.22,-466.42 748.51,-495.06 804,-454.98 814.81,-447.17 812.21,-440.03 822,-430.98 834.41,-419.52 850.72,-409.44 863.2,-402.55"/>
<polygon fill="#9a32cd" stroke="#9a32cd" points="80.05,-664.98 71.56,-671.32 82.15,-671.66 80.05,-664.98"/>
</a>
</g>
<text text-anchor="start" x="380.5" y="-586.48" font-family="Helvetica,sans-Serif" font-size="10.00" fill="grey">mime_list_file</text>
</g>
<!-- Node14 -->
<g id="Node000014" class="node">
<title>Node14</title>
<g id="a_Node000014"><a xlink:title=" ">
<polygon fill="white" stroke="#666666" points="930,-264.48 836,-264.48 836,-245.48 930,-245.48 930,-264.48"/>
<text text-anchor="middle" x="883" y="-252.48" font-family="Helvetica,sans-Serif" font-size="10.00">ThumbnailState</text>
</a>
</g>
</g>
<!-- Node3&#45;&gt;Node14 -->
<g id="edge24_Node000014_Node000003" class="edge">
<title>Node3&#45;&gt;Node14</title>
<g id="a_edge24_Node000014_Node000003"><a xlink:title=" ">
<path fill="none" stroke="#9a32cd" stroke-dasharray="5,2" d="M44.35,-660.25C44.93,-613.85 51.92,-495.86 105,-417.98 181.07,-306.37 237.06,-300.87 367,-263.98 534.1,-216.54 744.13,-235.91 835.73,-248.02"/>
<polygon fill="#9a32cd" stroke="#9a32cd" points="40.85,-660.43 44.32,-670.44 47.85,-660.45 40.85,-660.43"/>
</a>
</g>
<text text-anchor="start" x="407.5" y="-269.48" font-family="Helvetica,sans-Serif" font-size="10.00" fill="grey">file</text>
</g>
<!-- Node15 -->
<g id="Node000015" class="node">
<title>Node15</title>
<g id="a_Node000015"><a xlink:title=" ">
<polygon fill="white" stroke="#666666" points="919.5,-84.48 846.5,-84.48 846.5,-65.48 919.5,-65.48 919.5,-84.48"/>
<text text-anchor="middle" x="883" y="-72.48" font-family="Helvetica,sans-Serif" font-size="10.00">MountState</text>
</a>
</g>
</g>
<!-- Node3&#45;&gt;Node15 -->
<g id="edge27_Node000015_Node000003" class="edge">
<title>Node3&#45;&gt;Node15</title>
<g id="a_edge27_Node000015_Node000003"><a xlink:title=" ">
<path fill="none" stroke="#9a32cd" stroke-dasharray="5,2" d="M45.05,-660.09C47.95,-562.19 62.95,-134.67 105,-94.98 212.83,6.78 708.07,-51.42 846.16,-69.95"/>
<polygon fill="#9a32cd" stroke="#9a32cd" points="41.55,-660.02 44.76,-670.12 48.55,-660.23 41.55,-660.02"/>
</a>
</g>
<text text-anchor="start" x="407.5" y="-43.48" font-family="Helvetica,sans-Serif" font-size="10.00" fill="grey">file</text>
</g>
<!-- Node16 -->
<g id="Node000016" class="node">
<title>Node16</title>
<g id="a_Node000016"><a xlink:title=" ">
<polygon fill="white" stroke="#666666" points="940,-564.48 826,-564.48 826,-545.48 940,-545.48 940,-564.48"/>
<text text-anchor="middle" x="883" y="-552.48" font-family="Helvetica,sans-Serif" font-size="10.00">FilesystemInfoState</text>
</a>
</g>
</g>
<!-- Node3&#45;&gt;Node16 -->
<g id="edge30_Node000016_Node000003" class="edge">
<title>Node3&#45;&gt;Node16</title>
<g id="a_edge30_Node000016_Node000003"><a xlink:title=" ">
<path fill="none" stroke="#9a32cd" stroke-dasharray="5,2" d="M81.88,-676.67C208.58,-665.36 615.24,-628.2 640,-614.98 650.84,-609.19 647.32,-600.06 658,-593.98 685.96,-578.07 769.13,-566.61 825.86,-560.38"/>
<polygon fill="#9a32cd" stroke="#9a32cd" points="81.53,-673.19 71.88,-677.56 82.15,-680.16 81.53,-673.19"/>
</a>
</g>
<text text-anchor="start" x="407.5" y="-654.48" font-family="Helvetica,sans-Serif" font-size="10.00" fill="grey">file</text>
</g>
<!-- Node17 -->
<g id="Node000017" class="node">
<title>Node17</title>
<g id="a_Node000017"><a xlink:title=" ">
<polygon fill="white" stroke="#666666" points="944,-654.48 822,-654.48 822,-635.48 944,-635.48 944,-654.48"/>
<text text-anchor="middle" x="883" y="-642.48" font-family="Helvetica,sans-Serif" font-size="10.00">TopLeftTextReadState</text>
</a>
</g>
</g>
<!-- Node3&#45;&gt;Node17 -->
<g id="edge33_Node000017_Node000003" class="edge">
<title>Node3&#45;&gt;Node17</title>
<g id="a_edge33_Node000017_Node000003"><a xlink:title=" ">
<path fill="none" stroke="#9a32cd" stroke-dasharray="5,2" d="M81.53,-689.75C89.24,-691.45 97.34,-692.98 105,-693.98 271.23,-715.65 314.38,-703.31 482,-705.98 552.21,-707.1 576.54,-736.05 640,-705.98 651.42,-700.57 647.09,-690.35 658,-683.98 685.14,-668.13 765.2,-656.9 821.83,-650.69"/>
<polygon fill="#9a32cd" stroke="#9a32cd" points="82.23,-686.32 71.7,-687.47 80.65,-693.14 82.23,-686.32"/>
</a>
</g>
<text text-anchor="start" x="407.5" y="-711.48" font-family="Helvetica,sans-Serif" font-size="10.00" fill="grey">file</text>
</g>
<!-- Node18 -->
<g id="Node000018" class="node">
<title>Node18</title>
<g id="a_Node000018"><a xlink:title=" ">
<polygon fill="white" stroke="#666666" points="936,-834.48 830,-834.48 830,-815.48 936,-815.48 936,-834.48"/>
<text text-anchor="middle" x="883" y="-822.48" font-family="Helvetica,sans-Serif" font-size="10.00">LinkInfoReadState</text>
</a>
</g>
</g>
<!-- Node3&#45;&gt;Node18 -->
<g id="edge36_Node000018_Node000003" class="edge">
<title>Node3&#45;&gt;Node18</title>
<g id="a_edge36_Node000018_Node000003"><a xlink:title=" ">
<path fill="none" stroke="#9a32cd" stroke-dasharray="5,2" d="M45.57,-699.87C48.6,-734.7 60.25,-806.31 105,-840.98 199.12,-913.9 521.44,-880.91 640,-869.98 712.34,-863.31 795.32,-845.66 842.91,-834.55"/>
<polygon fill="#9a32cd" stroke="#9a32cd" points="49.04,-699.3 44.83,-689.58 42.05,-699.8 49.04,-699.3"/>
</a>
</g>
<text text-anchor="start" x="407.5" y="-891.48" font-family="Helvetica,sans-Serif" font-size="10.00" fill="grey">file</text>
</g>
<!-- Node4 -->
<g id="Node000004" class="node">
<title>Node4</title>
<g id="a_Node000004"><a xlink:href="struct__CajaFilePrivate.html" target="_top" xlink:title=" ">
<polygon fill="white" stroke="#666666" points="930.5,-963.48 835.5,-963.48 835.5,-944.48 930.5,-944.48 930.5,-963.48"/>
<text text-anchor="middle" x="883" y="-951.48" font-family="Helvetica,sans-Serif" font-size="10.00">_CajaFilePrivate</text>
</a>
</g>
</g>
<!-- Node4&#45;&gt;Node3 -->
<g id="edge3_Node000003_Node000004" class="edge">
<title>Node4&#45;&gt;Node3</title>
<g id="a_edge3_Node000003_Node000004"><a xlink:title=" ">
<path fill="none" stroke="#9a32cd" stroke-dasharray="5,2" d="M825.18,-956.26C664.31,-961.49 210.51,-967.29 105,-871.98 49.5,-821.85 44.51,-721.36 44.37,-689.74"/>
<polygon fill="#9a32cd" stroke="#9a32cd" points="825.47,-959.76 835.35,-955.92 825.23,-952.76 825.47,-959.76"/>
</a>
</g>
<text text-anchor="start" x="398.5" y="-957.48" font-family="Helvetica,sans-Serif" font-size="10.00" fill="grey">details</text>
</g>
<!-- Node5 -->
<g id="Node000005" class="node">
<title>Node5</title>
<g id="a_Node000005"><a xlink:href="structCajaDirectory.html" target="_top" xlink:title=" ">
<polygon fill="white" stroke="#666666" points="602.5,-403.48 519.5,-403.48 519.5,-384.48 602.5,-384.48 602.5,-403.48"/>
<text text-anchor="middle" x="561" y="-391.48" font-family="Helvetica,sans-Serif" font-size="10.00">CajaDirectory</text>
</a>
</g>
</g>
<!-- Node5&#45;&gt;Node4 -->
<g id="edge4_Node000004_Node000005" class="edge">
<title>Node5&#45;&gt;Node4</title>
<g id="a_edge4_Node000004_Node000005"><a xlink:title=" ">
<path fill="none" stroke="#9a32cd" stroke-dasharray="5,2" d="M612.53,-399.86C623.13,-403.48 633.16,-409.15 640,-417.98 666.83,-452.63 636.01,-774.07 658,-811.98 681.74,-852.9 811.71,-919.63 862.06,-944.36"/>
<polygon fill="#9a32cd" stroke="#9a32cd" points="613.28,-396.44 602.71,-397.09 611.38,-403.17 613.28,-396.44"/>
</a>
</g>
<text text-anchor="start" x="709" y="-917.48" font-family="Helvetica,sans-Serif" font-size="10.00" fill="grey">directory</text>
</g>
<!-- Node5&#45;&gt;Node9 -->
<g id="edge10_Node000009_Node000005" class="edge">
<title>Node5&#45;&gt;Node9</title>
<g id="a_edge10_Node000009_Node000005"><a xlink:title=" ">
<path fill="none" stroke="#9a32cd" stroke-dasharray="5,2" d="M612.6,-400.16C623.1,-403.77 633.06,-409.36 640,-417.98 670.07,-455.32 630.4,-593.78 658,-632.98 664.29,-641.91 803.47,-701.66 859.21,-725.34"/>
<polygon fill="#9a32cd" stroke="#9a32cd" points="613.46,-396.76 602.88,-397.37 611.53,-403.49 613.46,-396.76"/>
</a>
</g>
<text text-anchor="start" x="709" y="-704.48" font-family="Helvetica,sans-Serif" font-size="10.00" fill="grey">directory</text>
</g>
<!-- Node5&#45;&gt;Node10 -->
<g id="edge13_Node000010_Node000005" class="edge">
<title>Node5&#45;&gt;Node10</title>
<g id="a_edge13_Node000010_Node000005"><a xlink:title=" ">
<path fill="none" stroke="#9a32cd" stroke-dasharray="5,2" d="M599.5,-380.12C613.98,-373.08 629.55,-363.18 640,-349.98 657.82,-327.49 639.39,-309.82 658,-287.98 704.56,-233.36 741.84,-254.86 804,-218.98 828.11,-205.06 854.38,-185.99 869.45,-174.63"/>
<polygon fill="#9a32cd" stroke="#9a32cd" points="597.87,-377.02 590.2,-384.33 600.76,-383.39 597.87,-377.02"/>
</a>
</g>
<text text-anchor="start" x="709" y="-293.48" font-family="Helvetica,sans-Serif" font-size="10.00" fill="grey">directory</text>
</g>
<!-- Node11 -->
<g id="Node000011" class="node">
<title>Node11</title>
<g id="a_Node000011"><a xlink:title=" ">
<polygon fill="white" stroke="#666666" points="931,-30.48 835,-30.48 835,-11.48 931,-11.48 931,-30.48"/>
<text text-anchor="middle" x="883" y="-18.48" font-family="Helvetica,sans-Serif" font-size="10.00">DeepCountState</text>
</a>
</g>
</g>
<!-- Node5&#45;&gt;Node11 -->
<g id="edge16_Node000011_Node000005" class="edge">
<title>Node5&#45;&gt;Node11</title>
<g id="a_edge16_Node000011_Node000005"><a xlink:title=" ">
<path fill="none" stroke="#9a32cd" stroke-dasharray="5,2" d="M602.6,-380.34C616.78,-373.49 631.32,-363.65 640,-349.98 668.91,-304.46 625.91,-151.32 658,-107.98 699.46,-51.98 782.15,-32.02 834.64,-24.91"/>
<polygon fill="#9a32cd" stroke="#9a32cd" points="601.12,-377.17 593.39,-384.42 603.95,-383.57 601.12,-377.17"/>
</a>
</g>
<text text-anchor="start" x="709" y="-113.48" font-family="Helvetica,sans-Serif" font-size="10.00" fill="grey">directory</text>
</g>
<!-- Node5&#45;&gt;Node12 -->
<g id="edge18_Node000012_Node000005" class="edge">
<title>Node5&#45;&gt;Node12</title>
<g id="a_edge18_Node000012_Node000005"><a xlink:title=" ">
<path fill="none" stroke="#9a32cd" stroke-dasharray="5,2" d="M612.56,-393.82C675.12,-393.63 780.54,-393.3 839.26,-393.11"/>
<polygon fill="#9a32cd" stroke="#9a32cd" points="612.52,-390.32 602.53,-393.85 612.54,-397.32 612.52,-390.32"/>
</a>
</g>
<text text-anchor="start" x="709" y="-398.48" font-family="Helvetica,sans-Serif" font-size="10.00" fill="grey">directory</text>
</g>
<!-- Node13 -->
<g id="Node000013" class="node">
<title>Node13</title>
<g id="a_Node000013"><a xlink:title=" ">
<polygon fill="white" stroke="#666666" points="922,-458.48 844,-458.48 844,-439.48 922,-439.48 922,-458.48"/>
<text text-anchor="middle" x="883" y="-446.48" font-family="Helvetica,sans-Serif" font-size="10.00">GetInfoState</text>
</a>
</g>
</g>
<!-- Node5&#45;&gt;Node13 -->
<g id="edge21_Node000013_Node000005" class="edge">
<title>Node5&#45;&gt;Node13</title>
<g id="a_edge21_Node000013_Node000005"><a xlink:title=" ">
<path fill="none" stroke="#9a32cd" stroke-dasharray="5,2" d="M612.51,-403.11C627.17,-405.71 643.22,-408.51 658,-410.98 722.79,-421.82 739.29,-422.66 804,-433.98 817.04,-436.26 831.27,-438.94 843.96,-441.4"/>
<polygon fill="#9a32cd" stroke="#9a32cd" points="613.07,-399.65 602.61,-401.35 611.84,-406.55 613.07,-399.65"/>
</a>
</g>
<text text-anchor="start" x="709" y="-439.48" font-family="Helvetica,sans-Serif" font-size="10.00" fill="grey">directory</text>
</g>
<!-- Node5&#45;&gt;Node14 -->
<g id="edge23_Node000014_Node000005" class="edge">
<title>Node5&#45;&gt;Node14</title>
<g id="a_edge23_Node000014_Node000005"><a xlink:title=" ">
<path fill="none" stroke="#9a32cd" stroke-dasharray="5,2" d="M608.35,-381.72C658.2,-367.63 739.06,-342.11 804,-308.98 829.09,-296.18 855.46,-276.39 870.21,-264.65"/>
<polygon fill="#9a32cd" stroke="#9a32cd" points="607.19,-378.41 598.5,-384.47 609.07,-385.15 607.19,-378.41"/>
</a>
</g>
<text text-anchor="start" x="709" y="-370.48" font-family="Helvetica,sans-Serif" font-size="10.00" fill="grey">directory</text>
</g>
<!-- Node5&#45;&gt;Node15 -->
<g id="edge26_Node000015_Node000005" class="edge">
<title>Node5&#45;&gt;Node15</title>
<g id="a_edge26_Node000015_Node000005"><a xlink:title=" ">
<path fill="none" stroke="#9a32cd" stroke-dasharray="5,2" d="M601.95,-380.3C616.2,-373.41 630.95,-363.57 640,-349.98 677.71,-293.36 618.28,-253.2 658,-197.98 699.91,-139.72 741.84,-164.86 804,-128.98 828.11,-115.06 854.38,-95.99 869.45,-84.63"/>
<polygon fill="#9a32cd" stroke="#9a32cd" points="600.44,-377.14 592.73,-384.4 603.29,-383.53 600.44,-377.14"/>
</a>
</g>
<text text-anchor="start" x="709" y="-203.48" font-family="Helvetica,sans-Serif" font-size="10.00" fill="grey">directory</text>
</g>
<!-- Node5&#45;&gt;Node16 -->
<g id="edge29_Node000016_Node000005" class="edge">
<title>Node5&#45;&gt;Node16</title>
<g id="a_edge29_Node000016_Node000005"><a xlink:title=" ">
<path fill="none" stroke="#9a32cd" stroke-dasharray="5,2" d="M612.65,-402.96C622.49,-406.44 632.17,-411.27 640,-417.98 653.89,-429.88 644.86,-442.26 658,-454.98 673.42,-469.9 803.34,-523.29 857.96,-545.34"/>
<polygon fill="#9a32cd" stroke="#9a32cd" points="613.4,-399.53 602.81,-399.91 611.33,-406.21 613.4,-399.53"/>
</a>
</g>
<text text-anchor="start" x="709" y="-527.48" font-family="Helvetica,sans-Serif" font-size="10.00" fill="grey">directory</text>
</g>
<!-- Node5&#45;&gt;Node17 -->
<g id="edge32_Node000017_Node000005" class="edge">
<title>Node5&#45;&gt;Node17</title>
<g id="a_edge32_Node000017_Node000005"><a xlink:title=" ">
<path fill="none" stroke="#9a32cd" stroke-dasharray="5,2" d="M612.23,-400.46C622.74,-404.06 632.81,-409.57 640,-417.98 676.49,-460.63 624.33,-498.07 658,-542.98 670.91,-560.2 802.27,-613.51 857.62,-635.42"/>
<polygon fill="#9a32cd" stroke="#9a32cd" points="613.1,-397.07 602.52,-397.66 611.16,-403.79 613.1,-397.07"/>
</a>
</g>
<text text-anchor="start" x="709" y="-617.48" font-family="Helvetica,sans-Serif" font-size="10.00" fill="grey">directory</text>
</g>
<!-- Node5&#45;&gt;Node18 -->
<g id="edge35_Node000018_Node000005" class="edge">
<title>Node5&#45;&gt;Node18</title>
<g id="a_edge35_Node000018_Node000005"><a xlink:title=" ">
<path fill="none" stroke="#9a32cd" stroke-dasharray="5,2" d="M612.44,-399.93C623.05,-403.54 633.1,-409.19 640,-417.98 681.53,-470.85 620.26,-664.34 658,-719.98 670.17,-737.93 802.6,-792.93 857.93,-815.33"/>
<polygon fill="#9a32cd" stroke="#9a32cd" points="613.19,-396.51 602.62,-397.15 611.29,-403.24 613.19,-396.51"/>
</a>
</g>
<text text-anchor="start" x="709" y="-796.48" font-family="Helvetica,sans-Serif" font-size="10.00" fill="grey">directory</text>
</g>
<!-- Node6&#45;&gt;Node5 -->
<g id="edge5_Node000005_Node000006" class="edge">
<title>Node6&#45;&gt;Node5</title>
<g id="a_edge5_Node000005_Node000006"><a xlink:title=" ">
<path fill="none" stroke="#9a32cd" stroke-dasharray="5,2" d="M359.06,-363.64C410.03,-371.33 477.07,-381.46 519.37,-387.84"/>
<polygon fill="#9a32cd" stroke="#9a32cd" points="359.5,-360.16 349.09,-362.13 358.46,-367.08 359.5,-360.16"/>
</a>
</g>
<text text-anchor="start" x="398.5" y="-383.48" font-family="Helvetica,sans-Serif" font-size="10.00" fill="grey">details</text>
</g>
<!-- Node7 -->
<g id="Node000007" class="node">
<title>Node7</title>
<g id="a_Node000007"><a xlink:title=" ">
<polygon fill="white" stroke="#666666" points="87,-130.48 0,-130.48 0,-111.48 87,-111.48 87,-130.48"/>
<text text-anchor="middle" x="43.5" y="-118.48" font-family="Helvetica,sans-Serif" font-size="10.00">CajaFileQueue</text>
</a>
</g>
</g>
<!-- Node7&#45;&gt;Node6 -->
<g id="edge7_Node000006_Node000007" class="edge">
<title>Node7&#45;&gt;Node6</title>
<g id="a_edge7_Node000006_Node000007"><a xlink:title=" ">
<path fill="none" stroke="#9a32cd" stroke-dasharray="5,2" d="M61.94,-137.7C109.28,-183.08 239.09,-307.53 276.37,-343.27"/>
<polygon fill="#9a32cd" stroke="#9a32cd" points="64.23,-135.05 54.59,-130.65 59.39,-140.1 64.23,-135.05"/>
</a>
</g>
<text text-anchor="start" x="108.5" y="-306.48" font-family="Helvetica,sans-Serif" font-size="10.00" fill="grey">extension_queue</text>
<text text-anchor="start" x="108.5" y="-291.48" font-family="Helvetica,sans-Serif" font-size="10.00" fill="grey">high_priority_queue</text>
<text text-anchor="start" x="108.5" y="-276.48" font-family="Helvetica,sans-Serif" font-size="10.00" fill="grey">low_priority_queue</text>
</g>
<!-- Node8 -->
<g id="Node000008" class="node">
<title>Node8</title>
<g id="a_Node000008"><a xlink:title=" ">
<polygon fill="white" stroke="#666666" points="81.5,-90.48 5.5,-90.48 5.5,-71.48 81.5,-71.48 81.5,-90.48"/>
<text text-anchor="middle" x="43.5" y="-78.48" font-family="Helvetica,sans-Serif" font-size="10.00">CajaMonitor</text>
</a>
</g>
</g>
<!-- Node8&#45;&gt;Node6 -->
<g id="edge8_Node000006_Node000008" class="edge">
<title>Node8&#45;&gt;Node6</title>
<g id="a_edge8_Node000006_Node000008"><a xlink:title=" ">
<path fill="none" stroke="#9a32cd" stroke-dasharray="5,2" d="M90.12,-93.74C126.33,-105.95 176.01,-127.67 208,-161.98 260.07,-217.83 279.84,-312.97 285.01,-343.35"/>
<polygon fill="#9a32cd" stroke="#9a32cd" points="90.88,-90.3 80.29,-90.54 88.72,-96.96 90.88,-90.3"/>
</a>
</g>
<text text-anchor="start" x="137.5" y="-167.48" font-family="Helvetica,sans-Serif" font-size="10.00" fill="grey">monitor</text>
</g>
<!-- Node9&#45;&gt;Node6 -->
<g id="edge9_Node000006_Node000009" class="edge">
<title>Node9&#45;&gt;Node6</title>
<g id="a_edge9_Node000006_Node000009"><a xlink:title=" ">
<path fill="none" stroke="#9a32cd" stroke-dasharray="5,2" d="M817.76,-741.02C728.78,-745.53 569.15,-738.96 482,-646.98 465.47,-629.53 478.02,-615.5 464,-595.98 432.06,-551.49 401.13,-562.81 367,-519.98 325.27,-467.61 299.36,-389.44 291.25,-362.5"/>
<polygon fill="#9a32cd" stroke="#9a32cd" points="818.21,-744.5 827.99,-740.44 817.81,-737.51 818.21,-744.5"/>
</a>
</g>
<text text-anchor="start" x="495" y="-732.48" font-family="Helvetica,sans-Serif" font-size="10.00" fill="grey">directory_load_in_progress</text>
</g>
<!-- Node10&#45;&gt;Node6 -->
<g id="edge12_Node000006_Node000010" class="edge">
<title>Node10&#45;&gt;Node6</title>
<g id="a_edge12_Node000006_Node000010"><a xlink:title=" ">
<path fill="none" stroke="#9a32cd" stroke-dasharray="5,2" d="M814.7,-164.72C769.92,-165.63 710,-168.96 658,-178.98 577.13,-194.56 557.44,-203.95 482,-236.98 473.62,-240.65 472.35,-243.23 464,-246.98 422.33,-265.7 406.19,-257.51 367,-280.98 337.81,-298.47 310.03,-328.01 296.71,-343.25"/>
<polygon fill="#9a32cd" stroke="#9a32cd" points="814.94,-168.21 824.88,-164.54 814.82,-161.21 814.94,-168.21"/>
</a>
</g>
<text text-anchor="start" x="517" y="-242.48" font-family="Helvetica,sans-Serif" font-size="10.00" fill="grey">count_in_progress</text>
</g>
<!-- Node11&#45;&gt;Node6 -->
<g id="edge15_Node000006_Node000011" class="edge">
<title>Node11&#45;&gt;Node6</title>
<g id="a_edge15_Node000006_Node000011"><a xlink:title=" ">
<path fill="none" stroke="#9a32cd" stroke-dasharray="5,2" d="M826.37,-9.76C740.66,4.02 576.35,15.94 482,-70.98 453.28,-97.44 490.56,-128.36 464,-156.98 433.48,-189.87 401.11,-155.82 367,-184.98 315.37,-229.12 295.52,-314.63 290.14,-343.32"/>
<polygon fill="#9a32cd" stroke="#9a32cd" points="825.98,-13.24 836.42,-11.44 827.14,-6.34 825.98,-13.24"/>
</a>
</g>
<text text-anchor="start" x="502" y="-76.48" font-family="Helvetica,sans-Serif" font-size="10.00" fill="grey">deep_count_in_progress</text>
</g>
<!-- Node12&#45;&gt;Node6 -->
<g id="edge17_Node000006_Node000012" class="edge">
<title>Node12&#45;&gt;Node6</title>
<g id="a_edge17_Node000006_Node000012"><a xlink:title=" ">
<path fill="none" stroke="#9a32cd" stroke-dasharray="5,2" d="M865.92,-375.71C851.34,-361.42 828.45,-342.18 804,-333.98 631.65,-276.14 408.49,-321.98 323.47,-343.44"/>
<polygon fill="#9a32cd" stroke="#9a32cd" points="863.61,-378.36 873.12,-383.04 868.61,-373.45 863.61,-378.36"/>
</a>
</g>
<text text-anchor="start" x="506" y="-318.48" font-family="Helvetica,sans-Serif" font-size="10.00" fill="grey">mime_list_in_progress</text>
</g>
<!-- Node13&#45;&gt;Node6 -->
<g id="edge20_Node000006_Node000013" class="edge">
<title>Node13&#45;&gt;Node6</title>
<g id="a_edge20_Node000006_Node000013"><a xlink:title=" ">
<path fill="none" stroke="#9a32cd" stroke-dasharray="5,2" d="M833.71,-452.27C740.33,-456.93 529.87,-459.07 367,-398.98 342.25,-389.85 316.39,-373.06 301.39,-362.48"/>
<polygon fill="#9a32cd" stroke="#9a32cd" points="833.9,-455.76 843.71,-451.74 833.53,-448.77 833.9,-455.76"/>
</a>
</g>
<text text-anchor="start" x="510" y="-455.48" font-family="Helvetica,sans-Serif" font-size="10.00" fill="grey">get_info_in_progress</text>
</g>
<!-- Node14&#45;&gt;Node6 -->
<g id="edge22_Node000006_Node000014" class="edge">
<title>Node14&#45;&gt;Node6</title>
<g id="a_edge22_Node000006_Node000014"><a xlink:title=" ">
<path fill="none" stroke="#9a32cd" stroke-dasharray="5,2" d="M825.66,-252.49C728.66,-250.12 525.28,-253.56 367,-312.98 344.52,-321.42 320.09,-334.55 304.55,-343.45"/>
<polygon fill="#9a32cd" stroke="#9a32cd" points="825.74,-256 835.84,-252.78 825.94,-249 825.74,-256"/>
</a>
</g>
<text text-anchor="start" x="521" y="-283.48" font-family="Helvetica,sans-Serif" font-size="10.00" fill="grey">thumbnail_state</text>
</g>
<!-- Node15&#45;&gt;Node6 -->
<g id="edge25_Node000006_Node000015" class="edge">
<title>Node15&#45;&gt;Node6</title>
<g id="a_edge25_Node000006_Node000015"><a xlink:title=" ">
<path fill="none" stroke="#9a32cd" stroke-dasharray="5,2" d="M835.98,-73.46C790.24,-72.97 718.39,-74.98 658,-88.98 575.5,-108.1 538.76,-99.13 482,-161.98 463.34,-182.64 483.79,-202.4 464,-221.98 432.11,-253.54 404.03,-224.63 367,-249.98 330.27,-275.13 303.4,-322.99 293.11,-343.39"/>
<polygon fill="#9a32cd" stroke="#9a32cd" points="836.12,-76.96 846.17,-73.62 836.23,-69.96 836.12,-76.96"/>
</a>
</g>
<text text-anchor="start" x="530" y="-167.48" font-family="Helvetica,sans-Serif" font-size="10.00" fill="grey">mount_state</text>
</g>
<!-- Node16&#45;&gt;Node6 -->
<g id="edge28_Node000006_Node000016" class="edge">
<title>Node16&#45;&gt;Node6</title>
<g id="a_edge28_Node000006_Node000016"><a xlink:title=" ">
<path fill="none" stroke="#9a32cd" stroke-dasharray="5,2" d="M815.41,-556.25C770.45,-555.78 710.04,-552.58 658,-540.98 522.27,-510.71 484.62,-500.17 367,-425.98 338.04,-407.71 310.15,-377.99 296.76,-362.72"/>
<polygon fill="#9a32cd" stroke="#9a32cd" points="815.6,-559.75 825.63,-556.31 815.65,-552.75 815.6,-559.75"/>
</a>
</g>
<text text-anchor="start" x="508" y="-541.48" font-family="Helvetica,sans-Serif" font-size="10.00" fill="grey">filesystem_info_state</text>
</g>
<!-- Node17&#45;&gt;Node6 -->
<g id="edge31_Node000006_Node000017" class="edge">
<title>Node17&#45;&gt;Node6</title>
<g id="a_edge31_Node000006_Node000017"><a xlink:title=" ">
<path fill="none" stroke="#9a32cd" stroke-dasharray="5,2" d="M811.63,-646.58C767.06,-646.13 708.51,-642.82 658,-630.98 575.38,-611.62 555.17,-599.95 482,-556.98 426.04,-524.11 411.47,-514.25 367,-466.98 334.4,-432.33 305.27,-383.08 293.74,-362.55"/>
<polygon fill="#9a32cd" stroke="#9a32cd" points="811.76,-650.08 821.78,-646.64 811.8,-643.08 811.76,-650.08"/>
</a>
</g>
<text text-anchor="start" x="514" y="-631.48" font-family="Helvetica,sans-Serif" font-size="10.00" fill="grey">top_left_read_state</text>
</g>
<!-- Node18&#45;&gt;Node6 -->
<g id="edge34_Node000006_Node000018" class="edge">
<title>Node18&#45;&gt;Node6</title>
<g id="a_edge34_Node000006_Node000018"><a xlink:title=" ">
<path fill="none" stroke="#9a32cd" stroke-dasharray="5,2" d="M819.6,-825.75C774.31,-825.18 711.82,-822.06 658,-810.98 576.62,-794.22 536.5,-810.69 482,-747.98 456.1,-718.18 490.83,-689.95 464,-660.98 433.52,-628.05 398.61,-664.83 367,-632.98 288.23,-553.6 287,-401.97 288.1,-362.54"/>
<polygon fill="#9a32cd" stroke="#9a32cd" points="819.82,-829.25 829.85,-825.84 819.88,-822.25 819.82,-829.25"/>
</a>
</g>
<text text-anchor="start" x="511" y="-812.48" font-family="Helvetica,sans-Serif" font-size="10.00" fill="grey">link_info_read_state</text>
</g>
<!-- Node19 -->
<g id="Node000019" class="node">
<title>Node19</title>
<g id="a_Node000019"><a xlink:href="structCajaFileSortByEmblemCache.html" target="_top" xlink:title=" ">
<polygon fill="white" stroke="#666666" points="640,-1001.48 482,-1001.48 482,-982.48 640,-982.48 640,-1001.48"/>
<text text-anchor="middle" x="561" y="-989.48" font-family="Helvetica,sans-Serif" font-size="10.00">CajaFileSortByEmblemCache</text>
</a>
</g>
</g>
<!-- Node19&#45;&gt;Node4 -->
<g id="edge37_Node000004_Node000019" class="edge">
<title>Node19&#45;&gt;Node4</title>
<g id="a_edge37_Node000004_Node000019"><a xlink:title=" ">
<path fill="none" stroke="#9a32cd" stroke-dasharray="5,2" d="M650.33,-984.9C696.27,-980.8 753.27,-975.04 804,-967.98 814.22,-966.56 825.15,-964.77 835.49,-962.95"/>
<polygon fill="#9a32cd" stroke="#9a32cd" points="649.76,-981.44 640.11,-985.8 650.38,-988.41 649.76,-981.44"/>
</a>
</g>
<text text-anchor="start" x="661" y="-989.48" font-family="Helvetica,sans-Serif" font-size="10.00" fill="grey">compare_by_emblem_cache</text>
</g>
</g>
</svg>
