<?xml version="1.0" encoding="UTF-8" standalone="no"?>
<!DOCTYPE svg PUBLIC "-//W3C//DTD SVG 1.1//EN"
 "http://www.w3.org/Graphics/SVG/1.1/DTD/svg11.dtd">
<!-- Generated by graphviz version 2.43.0 (0)
 -->
<!-- Title: _EvSidebarLayers Pages: 1 -->
<svg width="215pt" height="459pt"
 viewBox="0.00 0.00 215.00 459.00" xmlns="http://www.w3.org/2000/svg" xmlns:xlink="http://www.w3.org/1999/xlink">
<g id="graph0" class="graph" transform="scale(1 1) rotate(0) translate(4 455)">
<title>_EvSidebarLayers</title>
<!-- Node1 -->
<g id="Node000001" class="node">
<title>Node1</title>
<g id="a_Node000001"><a xlink:title=" ">
<polygon fill="#999999" stroke="#666666" points="132,-19 29,-19 29,0 132,0 132,-19"/>
<text text-anchor="middle" x="80.5" y="-7" font-family="Helvetica,sans-Serif" font-size="10.00">_EvSidebarLayers</text>
</a>
</g>
</g>
<!-- Node2 -->
<g id="Node000002" class="node">
<title>Node2</title>
<g id="a_Node000002"><a xlink:title=" ">
<polygon fill="white" stroke="#666666" points="149,-91 12,-91 12,-72 149,-72 149,-91"/>
<text text-anchor="middle" x="80.5" y="-79" font-family="Helvetica,sans-Serif" font-size="10.00">_EvSidebarLayersPrivate</text>
</a>
</g>
</g>
<!-- Node2&#45;&gt;Node1 -->
<g id="edge1_Node000001_Node000002" class="edge">
<title>Node2&#45;&gt;Node1</title>
<g id="a_edge1_Node000001_Node000002"><a xlink:title=" ">
<path fill="none" stroke="#9a32cd" stroke-dasharray="5,2" d="M80.5,-61.58C80.5,-47.76 80.5,-29.68 80.5,-19.15"/>
<polygon fill="#9a32cd" stroke="#9a32cd" points="77,-61.92 80.5,-71.92 84,-61.92 77,-61.92"/>
</a>
</g>
<text text-anchor="start" x="84" y="-42.5" font-family="Helvetica,sans-Serif" font-size="10.00" fill="grey">priv</text>
</g>
<!-- Node3 -->
<g id="Node000003" class="node">
<title>Node3</title>
<g id="a_Node000003"><a xlink:href="struct__EvDocument.html" target="_top" xlink:title=" ">
<polygon fill="white" stroke="#666666" points="122.5,-235 38.5,-235 38.5,-216 122.5,-216 122.5,-235"/>
<text text-anchor="middle" x="80.5" y="-223" font-family="Helvetica,sans-Serif" font-size="10.00">_EvDocument</text>
</a>
</g>
</g>
<!-- Node3&#45;&gt;Node2 -->
<g id="edge2_Node000002_Node000003" class="edge">
<title>Node3&#45;&gt;Node2</title>
<g id="a_edge2_Node000002_Node000003"><a xlink:title=" ">
<path fill="none" stroke="#9a32cd" stroke-dasharray="5,2" d="M77.73,-205.22C75.7,-188.92 73.48,-164.95 74.5,-144 75.42,-125.14 77.91,-103.15 79.38,-91.24"/>
<polygon fill="#9a32cd" stroke="#9a32cd" points="74.32,-206.13 79.12,-215.58 81.26,-205.2 74.32,-206.13"/>
</a>
</g>
<text text-anchor="start" x="78" y="-150.5" font-family="Helvetica,sans-Serif" font-size="10.00" fill="grey">document</text>
</g>
<!-- Node8 -->
<g id="Node000008" class="node">
<title>Node8</title>
<g id="a_Node000008"><a xlink:href="struct__EvJob.html" target="_top" xlink:title=" ">
<polygon fill="white" stroke="#666666" points="187,-163 138,-163 138,-144 187,-144 187,-163"/>
<text text-anchor="middle" x="162.5" y="-151" font-family="Helvetica,sans-Serif" font-size="10.00">_EvJob</text>
</a>
</g>
</g>
<!-- Node3&#45;&gt;Node8 -->
<g id="edge8_Node000008_Node000003" class="edge">
<title>Node3&#45;&gt;Node8</title>
<g id="a_edge8_Node000008_Node000003"><a xlink:title=" ">
<path fill="none" stroke="#9a32cd" stroke-dasharray="5,2" d="M98.43,-209.19C114.96,-195.08 138.92,-174.63 152.36,-163.15"/>
<polygon fill="#9a32cd" stroke="#9a32cd" points="95.89,-206.76 90.55,-215.92 100.43,-212.09 95.89,-206.76"/>
</a>
</g>
<text text-anchor="start" x="134" y="-186.5" font-family="Helvetica,sans-Serif" font-size="10.00" fill="grey">document</text>
</g>
<!-- Node4 -->
<g id="Node000004" class="node">
<title>Node4</title>
<g id="a_Node000004"><a xlink:title=" ">
<polygon fill="white" stroke="#666666" points="140,-307 21,-307 21,-288 140,-288 140,-307"/>
<text text-anchor="middle" x="80.5" y="-295" font-family="Helvetica,sans-Serif" font-size="10.00">_EvDocumentPrivate</text>
</a>
</g>
</g>
<!-- Node4&#45;&gt;Node3 -->
<g id="edge3_Node000003_Node000004" class="edge">
<title>Node4&#45;&gt;Node3</title>
<g id="a_edge3_Node000003_Node000004"><a xlink:title=" ">
<path fill="none" stroke="#9a32cd" stroke-dasharray="5,2" d="M80.5,-277.58C80.5,-263.76 80.5,-245.68 80.5,-235.15"/>
<polygon fill="#9a32cd" stroke="#9a32cd" points="77,-277.92 80.5,-287.92 84,-277.92 77,-277.92"/>
</a>
</g>
<text text-anchor="start" x="84" y="-258.5" font-family="Helvetica,sans-Serif" font-size="10.00" fill="grey">priv</text>
</g>
<!-- Node5 -->
<g id="Node000005" class="node">
<title>Node5</title>
<g id="a_Node000005"><a xlink:title=" ">
<polygon fill="white" stroke="#666666" points="77,-379 0,-379 0,-360 77,-360 77,-379"/>
<text text-anchor="middle" x="38.5" y="-367" font-family="Helvetica,sans-Serif" font-size="10.00">_EvPageSize</text>
</a>
</g>
</g>
<!-- Node5&#45;&gt;Node4 -->
<g id="edge4_Node000004_Node000005" class="edge">
<title>Node5&#45;&gt;Node4</title>
<g id="a_edge4_Node000004_Node000005"><a xlink:title=" ">
<path fill="none" stroke="#9a32cd" stroke-dasharray="5,2" d="M41.72,-349.95C43.69,-341.86 46.78,-332.53 51.5,-325 55.85,-318.07 62.49,-311.81 68.33,-307.12"/>
<polygon fill="#9a32cd" stroke="#9a32cd" points="38.25,-349.43 39.67,-359.93 45.11,-350.84 38.25,-349.43"/>
</a>
</g>
<text text-anchor="start" x="55" y="-330.5" font-family="Helvetica,sans-Serif" font-size="10.00" fill="grey">page_sizes</text>
</g>
<!-- Node6 -->
<g id="Node000006" class="node">
<title>Node6</title>
<g id="a_Node000006"><a xlink:href="struct__EvDocumentInfo.html" target="_top" xlink:title=" ">
<polygon fill="white" stroke="#666666" points="198,-379 95,-379 95,-360 198,-360 198,-379"/>
<text text-anchor="middle" x="146.5" y="-367" font-family="Helvetica,sans-Serif" font-size="10.00">_EvDocumentInfo</text>
</a>
</g>
</g>
<!-- Node6&#45;&gt;Node4 -->
<g id="edge5_Node000004_Node000006" class="edge">
<title>Node6&#45;&gt;Node4</title>
<g id="a_edge5_Node000004_Node000006"><a xlink:title=" ">
<path fill="none" stroke="#9a32cd" stroke-dasharray="5,2" d="M134.54,-351.48C128.35,-343.15 120.45,-333.18 112.5,-325 106.16,-318.48 98.31,-311.96 91.97,-307.02"/>
<polygon fill="#9a32cd" stroke="#9a32cd" points="131.8,-353.66 140.49,-359.72 137.47,-349.56 131.8,-353.66"/>
</a>
</g>
<text text-anchor="start" x="129" y="-330.5" font-family="Helvetica,sans-Serif" font-size="10.00" fill="grey">info</text>
</g>
<!-- Node7 -->
<g id="Node000007" class="node">
<title>Node7</title>
<g id="a_Node000007"><a xlink:href="struct__EvDocumentLicense.html" target="_top" xlink:title=" ">
<polygon fill="white" stroke="#666666" points="207,-451 86,-451 86,-432 207,-432 207,-451"/>
<text text-anchor="middle" x="146.5" y="-439" font-family="Helvetica,sans-Serif" font-size="10.00">_EvDocumentLicense</text>
</a>
</g>
</g>
<!-- Node7&#45;&gt;Node6 -->
<g id="edge6_Node000006_Node000007" class="edge">
<title>Node7&#45;&gt;Node6</title>
<g id="a_edge6_Node000006_Node000007"><a xlink:title=" ">
<path fill="none" stroke="#9a32cd" stroke-dasharray="5,2" d="M146.5,-421.58C146.5,-407.76 146.5,-389.68 146.5,-379.15"/>
<polygon fill="#9a32cd" stroke="#9a32cd" points="143,-421.92 146.5,-431.92 150,-421.92 143,-421.92"/>
</a>
</g>
<text text-anchor="start" x="150" y="-402.5" font-family="Helvetica,sans-Serif" font-size="10.00" fill="grey">license</text>
</g>
<!-- Node8&#45;&gt;Node2 -->
<g id="edge7_Node000002_Node000008" class="edge">
<title>Node8&#45;&gt;Node2</title>
<g id="a_edge7_Node000002_Node000008"><a xlink:title=" ">
<path fill="none" stroke="#9a32cd" stroke-dasharray="5,2" d="M144.57,-137.19C128.04,-123.08 104.08,-102.63 90.64,-91.15"/>
<polygon fill="#9a32cd" stroke="#9a32cd" points="142.57,-140.09 152.45,-143.92 147.11,-134.76 142.57,-140.09"/>
</a>
</g>
<text text-anchor="start" x="133.5" y="-114.5" font-family="Helvetica,sans-Serif" font-size="10.00" fill="grey">job</text>
</g>
</g>
</svg>
