<?xml version="1.0" encoding="UTF-8" standalone="no"?>
<!DOCTYPE svg PUBLIC "-//W3C//DTD SVG 1.1//EN"
 "http://www.w3.org/Graphics/SVG/1.1/DTD/svg11.dtd">
<!-- Generated by graphviz version 2.43.0 (0)
 -->
<!-- Title: CactMainWindow Pages: 1 -->
<svg width="2011pt" height="533pt"
 viewBox="0.00 0.00 2011.00 533.00" xmlns="http://www.w3.org/2000/svg" xmlns:xlink="http://www.w3.org/1999/xlink">
<g id="graph0" class="graph" transform="scale(1 1) rotate(0) translate(4 529)">
<title>CactMainWindow</title>
<!-- Node1 -->
<g id="Node000001" class="node">
<title>Node1</title>
<g id="a_Node000001"><a xlink:title=" ">
<polygon fill="#999999" stroke="#666666" points="2003,-316.5 1902,-316.5 1902,-297.5 2003,-297.5 2003,-316.5"/>
<text text-anchor="middle" x="1952.5" y="-304.5" font-family="Helvetica,sans-Serif" font-size="10.00">CactMainWindow</text>
</a>
</g>
</g>
<!-- Node2 -->
<g id="Node000002" class="node">
<title>Node2</title>
<g id="a_Node000002"><a xlink:href="structBaseWindow.html" target="_top" xlink:title=" ">
<polygon fill="white" stroke="#666666" points="663.5,-303.5 583.5,-303.5 583.5,-284.5 663.5,-284.5 663.5,-303.5"/>
<text text-anchor="middle" x="623.5" y="-291.5" font-family="Helvetica,sans-Serif" font-size="10.00">BaseWindow</text>
</a>
</g>
</g>
<!-- Node2&#45;&gt;Node1 -->
<g id="edge1_Node000001_Node000002" class="edge">
<title>Node2&#45;&gt;Node1</title>
<g id="a_edge1_Node000001_Node000002"><a xlink:title=" ">
<path fill="none" stroke="#9a32cd" stroke-dasharray="5,2" d="M662.8,-306.3C671.34,-308.59 680.41,-310.67 689,-312 1118.35,-378.33 1232.41,-370.23 1666,-343 1749.14,-337.78 1845.1,-324.09 1901.91,-315.17"/>
<polygon fill="#9a32cd" stroke="#9a32cd" points="663.65,-302.9 653.08,-303.55 661.75,-309.64 663.65,-302.9"/>
</a>
</g>
<text text-anchor="start" x="1274.5" y="-368.5" font-family="Helvetica,sans-Serif" font-size="10.00" fill="grey">parent</text>
</g>
<!-- Node3 -->
<g id="Node000003" class="node">
<title>Node3</title>
<g id="a_Node000003"><a xlink:title=" ">
<polygon fill="white" stroke="#666666" points="906,-394.5 787,-394.5 787,-375.5 906,-375.5 906,-394.5"/>
<text text-anchor="middle" x="846.5" y="-382.5" font-family="Helvetica,sans-Serif" font-size="10.00">_BaseWindowPrivate</text>
</a>
</g>
</g>
<!-- Node2&#45;&gt;Node3 -->
<g id="edge3_Node000003_Node000002" class="edge">
<title>Node2&#45;&gt;Node3</title>
<g id="a_edge3_Node000003_Node000002"><a xlink:title=" ">
<path fill="none" stroke="#9a32cd" stroke-dasharray="5,2" d="M633.02,-312.69C643.2,-332.58 662.28,-363.07 689,-377 718.67,-392.47 755.96,-394.92 786.69,-393.29"/>
<polygon fill="#9a32cd" stroke="#9a32cd" points="636.14,-311.11 628.62,-303.65 629.84,-314.17 636.14,-311.11"/>
</a>
</g>
<text text-anchor="start" x="709" y="-398.5" font-family="Helvetica,sans-Serif" font-size="10.00" fill="grey">parent</text>
</g>
<!-- Node23 -->
<g id="Node000023" class="node">
<title>Node23</title>
<g id="a_Node000023"><a xlink:title=" ">
<polygon fill="white" stroke="#666666" points="907.5,-305.5 785.5,-305.5 785.5,-286.5 907.5,-286.5 907.5,-305.5"/>
<text text-anchor="middle" x="846.5" y="-293.5" font-family="Helvetica,sans-Serif" font-size="10.00">_CactTreeViewPrivate</text>
</a>
</g>
</g>
<!-- Node2&#45;&gt;Node23 -->
<g id="edge25_Node000023_Node000002" class="edge">
<title>Node2&#45;&gt;Node23</title>
<g id="a_edge25_Node000023_Node000002"><a xlink:title=" ">
<path fill="none" stroke="#9a32cd" stroke-dasharray="5,2" d="M673.96,-294.31C699.88,-294.48 732.15,-294.72 761,-295 768.92,-295.08 777.26,-295.16 785.49,-295.26"/>
<polygon fill="#9a32cd" stroke="#9a32cd" points="673.65,-290.81 663.63,-294.24 673.6,-297.81 673.65,-290.81"/>
</a>
</g>
<text text-anchor="start" x="706" y="-300.5" font-family="Helvetica,sans-Serif" font-size="10.00" fill="grey">window</text>
</g>
<!-- Node25 -->
<g id="Node000025" class="node">
<title>Node25</title>
<g id="a_Node000025"><a xlink:title=" ">
<polygon fill="white" stroke="#666666" points="909,-262.5 784,-262.5 784,-243.5 909,-243.5 909,-262.5"/>
<text text-anchor="middle" x="846.5" y="-250.5" font-family="Helvetica,sans-Serif" font-size="10.00">_CactClipboardPrivate</text>
</a>
</g>
</g>
<!-- Node2&#45;&gt;Node25 -->
<g id="edge28_Node000025_Node000002" class="edge">
<title>Node2&#45;&gt;Node25</title>
<g id="a_edge28_Node000025_Node000002"><a xlink:title=" ">
<path fill="none" stroke="#9a32cd" stroke-dasharray="5,2" d="M659.45,-281.3C668.94,-278.22 679.28,-275.18 689,-273 719.87,-266.07 754.74,-261.32 783.72,-258.2"/>
<polygon fill="#9a32cd" stroke="#9a32cd" points="658.29,-278 649.93,-284.5 660.52,-284.63 658.29,-278"/>
</a>
</g>
<text text-anchor="start" x="706" y="-278.5" font-family="Helvetica,sans-Serif" font-size="10.00" fill="grey">window</text>
</g>
<!-- Node28 -->
<g id="Node000028" class="node">
<title>Node28</title>
<g id="a_Node000028"><a xlink:href="struct__CactMenubarPrivate.html" target="_top" xlink:title=" ">
<polygon fill="white" stroke="#666666" points="1351,-208.5 1230,-208.5 1230,-189.5 1351,-189.5 1351,-208.5"/>
<text text-anchor="middle" x="1290.5" y="-196.5" font-family="Helvetica,sans-Serif" font-size="10.00">_CactMenubarPrivate</text>
</a>
</g>
</g>
<!-- Node2&#45;&gt;Node28 -->
<g id="edge32_Node000028_Node000002" class="edge">
<title>Node2&#45;&gt;Node28</title>
<g id="a_edge32_Node000028_Node000002"><a xlink:title=" ">
<path fill="none" stroke="#9a32cd" stroke-dasharray="5,2" d="M647.25,-278.84C659.26,-271.4 674.48,-262.8 689,-257 727.24,-241.72 738.32,-241.36 779,-235 940.74,-209.72 1134.1,-202.18 1229.79,-199.94"/>
<polygon fill="#9a32cd" stroke="#9a32cd" points="645.32,-275.93 638.76,-284.25 649.08,-281.83 645.32,-275.93"/>
</a>
</g>
<text text-anchor="start" x="935" y="-221.5" font-family="Helvetica,sans-Serif" font-size="10.00" fill="grey">window</text>
</g>
<!-- Node30 -->
<g id="Node000030" class="node">
<title>Node30</title>
<g id="a_Node000030"><a xlink:title=" ">
<polygon fill="white" stroke="#666666" points="914,-178.5 779,-178.5 779,-159.5 914,-159.5 914,-178.5"/>
<text text-anchor="middle" x="846.5" y="-166.5" font-family="Helvetica,sans-Serif" font-size="10.00">_CactSortButtonsPrivate</text>
</a>
</g>
</g>
<!-- Node2&#45;&gt;Node30 -->
<g id="edge36_Node000030_Node000002" class="edge">
<title>Node2&#45;&gt;Node30</title>
<g id="a_edge36_Node000030_Node000002"><a xlink:title=" ">
<path fill="none" stroke="#9a32cd" stroke-dasharray="5,2" d="M630.66,-274.74C639.46,-250.61 658.08,-210.01 689,-190 703.79,-180.43 743.16,-175.17 778.71,-172.32"/>
<polygon fill="#9a32cd" stroke="#9a32cd" points="627.33,-273.65 627.39,-284.25 633.95,-275.93 627.33,-273.65"/>
</a>
</g>
<text text-anchor="start" x="706" y="-195.5" font-family="Helvetica,sans-Serif" font-size="10.00" fill="grey">window</text>
</g>
<!-- Node3&#45;&gt;Node2 -->
<g id="edge2_Node000002_Node000003" class="edge">
<title>Node3&#45;&gt;Node2</title>
<g id="a_edge2_Node000002_Node000003"><a xlink:title=" ">
<path fill="none" stroke="#9a32cd" stroke-dasharray="5,2" d="M803.75,-372.52C759.23,-359.17 694.36,-339.54 689,-337 669.54,-327.77 649.21,-313.28 636.7,-303.71"/>
<polygon fill="#9a32cd" stroke="#9a32cd" points="802.89,-375.92 813.47,-375.43 804.9,-369.21 802.89,-375.92"/>
</a>
</g>
<text text-anchor="start" x="708" y="-363.5" font-family="Helvetica,sans-Serif" font-size="10.00" fill="grey">private</text>
</g>
<!-- Node4 -->
<g id="Node000004" class="node">
<title>Node4</title>
<g id="a_Node000004"><a xlink:href="structBaseApplication.html" target="_top" xlink:title=" ">
<polygon fill="white" stroke="#666666" points="671,-517.5 576,-517.5 576,-498.5 671,-498.5 671,-517.5"/>
<text text-anchor="middle" x="623.5" y="-505.5" font-family="Helvetica,sans-Serif" font-size="10.00">BaseApplication</text>
</a>
</g>
</g>
<!-- Node4&#45;&gt;Node3 -->
<g id="edge4_Node000003_Node000004" class="edge">
<title>Node4&#45;&gt;Node3</title>
<g id="a_edge4_Node000003_Node000004"><a xlink:title=" ">
<path fill="none" stroke="#9a32cd" stroke-dasharray="5,2" d="M681.52,-504.23C708.79,-499.59 740,-489.72 761,-469 780.82,-449.44 759.86,-429.22 779,-409 784.99,-402.67 792.77,-398.01 800.89,-394.57"/>
<polygon fill="#9a32cd" stroke="#9a32cd" points="680.66,-500.82 671.29,-505.76 681.69,-507.74 680.66,-500.82"/>
</a>
</g>
<text text-anchor="start" x="698" y="-507.5" font-family="Helvetica,sans-Serif" font-size="10.00" fill="grey">application</text>
</g>
<!-- Node5 -->
<g id="Node000005" class="node">
<title>Node5</title>
<g id="a_Node000005"><a xlink:title=" ">
<polygon fill="white" stroke="#666666" points="499,-518.5 364,-518.5 364,-499.5 499,-499.5 499,-518.5"/>
<text text-anchor="middle" x="431.5" y="-506.5" font-family="Helvetica,sans-Serif" font-size="10.00">_BaseApplicationPrivate</text>
</a>
</g>
</g>
<!-- Node5&#45;&gt;Node4 -->
<g id="edge5_Node000004_Node000005" class="edge">
<title>Node5&#45;&gt;Node4</title>
<g id="a_edge5_Node000004_Node000005"><a xlink:title=" ">
<path fill="none" stroke="#9a32cd" stroke-dasharray="5,2" d="M509.45,-508.59C531.99,-508.48 555.92,-508.35 575.94,-508.25"/>
<polygon fill="#9a32cd" stroke="#9a32cd" points="509.2,-505.1 499.22,-508.65 509.24,-512.1 509.2,-505.1"/>
</a>
</g>
<text text-anchor="start" x="520.5" y="-513.5" font-family="Helvetica,sans-Serif" font-size="10.00" fill="grey">private</text>
</g>
<!-- Node6 -->
<g id="Node000006" class="node">
<title>Node6</title>
<g id="a_Node000006"><a xlink:href="structBaseBuilder.html" target="_top" xlink:title=" ">
<polygon fill="white" stroke="#666666" points="661,-478.5 586,-478.5 586,-459.5 661,-459.5 661,-478.5"/>
<text text-anchor="middle" x="623.5" y="-466.5" font-family="Helvetica,sans-Serif" font-size="10.00">BaseBuilder</text>
</a>
</g>
</g>
<!-- Node6&#45;&gt;Node3 -->
<g id="edge6_Node000003_Node000006" class="edge">
<title>Node6&#45;&gt;Node3</title>
<g id="a_edge6_Node000003_Node000006"><a xlink:title=" ">
<path fill="none" stroke="#9a32cd" stroke-dasharray="5,2" d="M666.38,-456.42C693.86,-447.58 730.26,-434.72 761,-420 769.46,-415.95 770.55,-413.06 779,-409 790.4,-403.53 803.39,-398.58 814.85,-394.61"/>
<polygon fill="#9a32cd" stroke="#9a32cd" points="665.16,-453.13 656.69,-459.49 667.28,-459.81 665.16,-453.13"/>
</a>
</g>
<text text-anchor="start" x="708" y="-453.5" font-family="Helvetica,sans-Serif" font-size="10.00" fill="grey">builder</text>
</g>
<!-- Node7 -->
<g id="Node000007" class="node">
<title>Node7</title>
<g id="a_Node000007"><a xlink:title=" ">
<polygon fill="white" stroke="#666666" points="489,-478.5 374,-478.5 374,-459.5 489,-459.5 489,-478.5"/>
<text text-anchor="middle" x="431.5" y="-466.5" font-family="Helvetica,sans-Serif" font-size="10.00">_BaseBuilderPrivate</text>
</a>
</g>
</g>
<!-- Node7&#45;&gt;Node6 -->
<g id="edge7_Node000006_Node000007" class="edge">
<title>Node7&#45;&gt;Node6</title>
<g id="a_edge7_Node000006_Node000007"><a xlink:title=" ">
<path fill="none" stroke="#9a32cd" stroke-dasharray="5,2" d="M499.35,-469C528.4,-469 561.32,-469 585.81,-469"/>
<polygon fill="#9a32cd" stroke="#9a32cd" points="499.25,-465.5 489.25,-469 499.25,-472.5 499.25,-465.5"/>
</a>
</g>
<text text-anchor="start" x="520.5" y="-474.5" font-family="Helvetica,sans-Serif" font-size="10.00" fill="grey">private</text>
</g>
<!-- Node8 -->
<g id="Node000008" class="node">
<title>Node8</title>
<g id="a_Node000008"><a xlink:title=" ">
<polygon fill="white" stroke="#666666" points="1825,-236.5 1684,-236.5 1684,-217.5 1825,-217.5 1825,-236.5"/>
<text text-anchor="middle" x="1754.5" y="-224.5" font-family="Helvetica,sans-Serif" font-size="10.00">_CactMainWindowPrivate</text>
</a>
</g>
</g>
<!-- Node8&#45;&gt;Node1 -->
<g id="edge8_Node000001_Node000008" class="edge">
<title>Node8&#45;&gt;Node1</title>
<g id="a_edge8_Node000001_Node000008"><a xlink:title=" ">
<path fill="none" stroke="#9a32cd" stroke-dasharray="5,2" d="M1788.62,-240.52C1828.19,-256.67 1893.39,-283.28 1928.08,-297.44"/>
<polygon fill="#9a32cd" stroke="#9a32cd" points="1789.72,-237.19 1779.14,-236.65 1787.08,-243.67 1789.72,-237.19"/>
</a>
</g>
<text text-anchor="start" x="1846.5" y="-283.5" font-family="Helvetica,sans-Serif" font-size="10.00" fill="grey">private</text>
</g>
<!-- Node9 -->
<g id="Node000009" class="node">
<title>Node9</title>
<g id="a_Node000009"><a xlink:href="structNAUpdater.html" target="_top" xlink:title=" ">
<polygon fill="white" stroke="#666666" points="658.5,-102.5 588.5,-102.5 588.5,-83.5 658.5,-83.5 658.5,-102.5"/>
<text text-anchor="middle" x="623.5" y="-90.5" font-family="Helvetica,sans-Serif" font-size="10.00">NAUpdater</text>
</a>
</g>
</g>
<!-- Node9&#45;&gt;Node8 -->
<g id="edge9_Node000008_Node000009" class="edge">
<title>Node9&#45;&gt;Node8</title>
<g id="a_edge9_Node000008_Node000009"><a xlink:title=" ">
<path fill="none" stroke="#9a32cd" stroke-dasharray="5,2" d="M645.35,-77.55C683.17,-51.11 766.5,0 845.5,0 845.5,0 845.5,0 1525.5,0 1650.62,0 1731.34,-173.8 1749.57,-217.25"/>
<polygon fill="#9a32cd" stroke="#9a32cd" points="643.27,-74.74 637.16,-83.4 647.33,-80.44 643.27,-74.74"/>
</a>
</g>
<text text-anchor="start" x="1145.5" y="-5.5" font-family="Helvetica,sans-Serif" font-size="10.00" fill="grey">updater</text>
</g>
<!-- Node9&#45;&gt;Node28 -->
<g id="edge33_Node000028_Node000009" class="edge">
<title>Node9&#45;&gt;Node28</title>
<g id="a_edge33_Node000028_Node000009"><a xlink:title=" ">
<path fill="none" stroke="#9a32cd" stroke-dasharray="5,2" d="M668.97,-90.17C695.69,-89.02 730.35,-88.47 761,-91 960.81,-107.5 1020.96,-87.82 1206,-165 1215.11,-168.8 1215.19,-173.55 1224,-178 1232.95,-182.52 1243.08,-186.34 1252.65,-189.43"/>
<polygon fill="#9a32cd" stroke="#9a32cd" points="668.6,-86.69 658.78,-90.66 668.94,-93.68 668.6,-86.69"/>
</a>
</g>
<text text-anchor="start" x="935" y="-109.5" font-family="Helvetica,sans-Serif" font-size="10.00" fill="grey">updater</text>
</g>
<!-- Node9&#45;&gt;Node30 -->
<g id="edge37_Node000030_Node000009" class="edge">
<title>Node9&#45;&gt;Node30</title>
<g id="a_edge37_Node000030_Node000009"><a xlink:title=" ">
<path fill="none" stroke="#9a32cd" stroke-dasharray="5,2" d="M668.76,-93.14C696.14,-94.52 731.55,-98.69 761,-110 790.9,-121.48 820.3,-145.75 835.28,-159.31"/>
<polygon fill="#9a32cd" stroke="#9a32cd" points="668.83,-89.64 658.7,-92.74 668.55,-96.64 668.83,-89.64"/>
</a>
</g>
<text text-anchor="start" x="706" y="-115.5" font-family="Helvetica,sans-Serif" font-size="10.00" fill="grey">updater</text>
</g>
<!-- Node10 -->
<g id="Node000010" class="node">
<title>Node10</title>
<g id="a_Node000010"><a xlink:href="structNAPivot.html" target="_top" xlink:title=" ">
<polygon fill="white" stroke="#666666" points="459.5,-104.5 403.5,-104.5 403.5,-85.5 459.5,-85.5 459.5,-104.5"/>
<text text-anchor="middle" x="431.5" y="-92.5" font-family="Helvetica,sans-Serif" font-size="10.00">NAPivot</text>
</a>
</g>
</g>
<!-- Node10&#45;&gt;Node9 -->
<g id="edge10_Node000009_Node000010" class="edge">
<title>Node10&#45;&gt;Node9</title>
<g id="a_edge10_Node000009_Node000010"><a xlink:title=" ">
<path fill="none" stroke="#9a32cd" stroke-dasharray="5,2" d="M469.76,-94.54C484.48,-94.36 501.54,-94.16 517,-94 540.81,-93.75 567.64,-93.49 588.29,-93.3"/>
<polygon fill="#9a32cd" stroke="#9a32cd" points="469.48,-91.04 459.52,-94.66 469.56,-98.04 469.48,-91.04"/>
</a>
</g>
<text text-anchor="start" x="521.5" y="-99.5" font-family="Helvetica,sans-Serif" font-size="10.00" fill="grey">parent</text>
</g>
<!-- Node11 -->
<g id="Node000011" class="node">
<title>Node11</title>
<g id="a_Node000011"><a xlink:title=" ">
<polygon fill="white" stroke="#666666" points="287,-328.5 192,-328.5 192,-309.5 287,-309.5 287,-328.5"/>
<text text-anchor="middle" x="239.5" y="-316.5" font-family="Helvetica,sans-Serif" font-size="10.00">_NAPivotPrivate</text>
</a>
</g>
</g>
<!-- Node11&#45;&gt;Node10 -->
<g id="edge11_Node000010_Node000011" class="edge">
<title>Node11&#45;&gt;Node10</title>
<g id="a_edge11_Node000010_Node000011"><a xlink:title=" ">
<path fill="none" stroke="#9a32cd" stroke-dasharray="5,2" d="M246.72,-299.51C260.77,-258.68 298.89,-163.85 364,-114 375.34,-105.31 390.51,-100.6 403.5,-98.04"/>
<polygon fill="#9a32cd" stroke="#9a32cd" points="243.37,-298.49 243.53,-309.09 250.01,-300.71 243.37,-298.49"/>
</a>
</g>
<text text-anchor="start" x="308.5" y="-181.5" font-family="Helvetica,sans-Serif" font-size="10.00" fill="grey">private</text>
</g>
<!-- Node12 -->
<g id="Node000012" class="node">
<title>Node12</title>
<g id="a_Node000012"><a xlink:href="structNATimeout.html" target="_top" xlink:title=" ">
<polygon fill="white" stroke="#666666" points="71,-421.5 0,-421.5 0,-402.5 71,-402.5 71,-421.5"/>
<text text-anchor="middle" x="35.5" y="-409.5" font-family="Helvetica,sans-Serif" font-size="10.00">NATimeout</text>
</a>
</g>
</g>
<!-- Node12&#45;&gt;Node8 -->
<g id="edge38_Node000008_Node000012" class="edge">
<title>Node12&#45;&gt;Node8</title>
<g id="a_edge38_Node000008_Node000012"><a xlink:title=" ">
<path fill="none" stroke="#9a32cd" stroke-dasharray="5,2" d="M80.99,-418.6C121.84,-424.09 184.11,-431 238.5,-431 238.5,-431 238.5,-431 726,-431 1007.22,-431 1082.27,-444.08 1357,-384 1509.97,-350.54 1680.82,-265.21 1735.59,-236.55"/>
<polygon fill="#9a32cd" stroke="#9a32cd" points="81.46,-415.13 71.08,-417.24 80.51,-422.07 81.46,-415.13"/>
</a>
</g>
<text text-anchor="start" x="812.5" y="-437.5" font-family="Helvetica,sans-Serif" font-size="10.00" fill="grey">pivot_timeout</text>
</g>
<!-- Node12&#45;&gt;Node11 -->
<g id="edge12_Node000011_Node000012" class="edge">
<title>Node12&#45;&gt;Node11</title>
<g id="a_edge12_Node000011_Node000012"><a xlink:title=" ">
<path fill="none" stroke="#9a32cd" stroke-dasharray="5,2" d="M66.69,-398.1C108.22,-378.98 181.91,-345.05 217.76,-328.55"/>
<polygon fill="#9a32cd" stroke="#9a32cd" points="64.98,-395.04 57.36,-402.4 67.9,-401.39 64.98,-395.04"/>
</a>
</g>
<text text-anchor="start" x="92.5" y="-392.5" font-family="Helvetica,sans-Serif" font-size="10.00" fill="grey">change_timeout</text>
</g>
<!-- Node13 -->
<g id="Node000013" class="node">
<title>Node13</title>
<g id="a_Node000013"><a xlink:title=" ">
<polygon fill="white" stroke="#666666" points="486.5,-142.5 376.5,-142.5 376.5,-123.5 486.5,-123.5 486.5,-142.5"/>
<text text-anchor="middle" x="431.5" y="-130.5" font-family="Helvetica,sans-Serif" font-size="10.00">_NAUpdaterPrivate</text>
</a>
</g>
</g>
<!-- Node13&#45;&gt;Node9 -->
<g id="edge13_Node000009_Node000013" class="edge">
<title>Node13&#45;&gt;Node9</title>
<g id="a_edge13_Node000009_Node000013"><a xlink:title=" ">
<path fill="none" stroke="#9a32cd" stroke-dasharray="5,2" d="M496.88,-122.97C516.58,-119.56 538.25,-115.48 558,-111 568.77,-108.56 580.43,-105.45 590.84,-102.51"/>
<polygon fill="#9a32cd" stroke="#9a32cd" points="496.06,-119.56 486.78,-124.69 497.23,-126.46 496.06,-119.56"/>
</a>
</g>
<text text-anchor="start" x="520.5" y="-124.5" font-family="Helvetica,sans-Serif" font-size="10.00" fill="grey">private</text>
</g>
<!-- Node14 -->
<g id="Node000014" class="node">
<title>Node14</title>
<g id="a_Node000014"><a xlink:href="structNAObjectItem.html" target="_top" xlink:title=" ">
<polygon fill="white" stroke="#666666" points="1567,-169.5 1482,-169.5 1482,-150.5 1567,-150.5 1567,-169.5"/>
<text text-anchor="middle" x="1524.5" y="-157.5" font-family="Helvetica,sans-Serif" font-size="10.00">NAObjectItem</text>
</a>
</g>
</g>
<!-- Node14&#45;&gt;Node8 -->
<g id="edge14_Node000008_Node000014" class="edge">
<title>Node14&#45;&gt;Node8</title>
<g id="a_edge14_Node000008_Node000014"><a xlink:title=" ">
<path fill="none" stroke="#9a32cd" stroke-dasharray="5,2" d="M1577.05,-166.32C1603.97,-170.42 1637.2,-176.76 1666,-186 1691.56,-194.2 1719.35,-208.17 1736.6,-217.49"/>
<polygon fill="#9a32cd" stroke="#9a32cd" points="1577.47,-162.84 1567.07,-164.85 1576.45,-169.77 1577.47,-162.84"/>
</a>
</g>
<text text-anchor="start" x="1596.5" y="-191.5" font-family="Helvetica,sans-Serif" font-size="10.00" fill="grey">current_item</text>
</g>
<!-- Node15 -->
<g id="Node000015" class="node">
<title>Node15</title>
<g id="a_Node000015"><a xlink:href="structNAObjectId.html" target="_top" xlink:title=" ">
<polygon fill="white" stroke="#666666" points="1326,-89.5 1255,-89.5 1255,-70.5 1326,-70.5 1326,-89.5"/>
<text text-anchor="middle" x="1290.5" y="-77.5" font-family="Helvetica,sans-Serif" font-size="10.00">NAObjectId</text>
</a>
</g>
</g>
<!-- Node15&#45;&gt;Node14 -->
<g id="edge15_Node000014_Node000015" class="edge">
<title>Node15&#45;&gt;Node14</title>
<g id="a_edge15_Node000014_Node000015"><a xlink:title=" ">
<path fill="none" stroke="#9a32cd" stroke-dasharray="5,2" d="M1329.22,-93.01C1375.9,-109.1 1454.28,-136.13 1495.78,-150.44"/>
<polygon fill="#9a32cd" stroke="#9a32cd" points="1330.08,-89.6 1319.48,-89.65 1327.8,-96.22 1330.08,-89.6"/>
</a>
</g>
<text text-anchor="start" x="1401.5" y="-142.5" font-family="Helvetica,sans-Serif" font-size="10.00" fill="grey">parent</text>
</g>
<!-- Node20 -->
<g id="Node000020" class="node">
<title>Node20</title>
<g id="a_Node000020"><a xlink:href="structNAObjectProfile.html" target="_top" xlink:title=" ">
<polygon fill="white" stroke="#666666" points="1571,-89.5 1478,-89.5 1478,-70.5 1571,-70.5 1571,-89.5"/>
<text text-anchor="middle" x="1524.5" y="-77.5" font-family="Helvetica,sans-Serif" font-size="10.00">NAObjectProfile</text>
</a>
</g>
</g>
<!-- Node15&#45;&gt;Node20 -->
<g id="edge21_Node000020_Node000015" class="edge">
<title>Node15&#45;&gt;Node20</title>
<g id="a_edge21_Node000020_Node000015"><a xlink:title=" ">
<path fill="none" stroke="#9a32cd" stroke-dasharray="5,2" d="M1336.4,-80C1377.09,-80 1436.77,-80 1477.73,-80"/>
<polygon fill="#9a32cd" stroke="#9a32cd" points="1336.23,-76.5 1326.23,-80 1336.23,-83.5 1336.23,-76.5"/>
</a>
</g>
<text text-anchor="start" x="1401.5" y="-85.5" font-family="Helvetica,sans-Serif" font-size="10.00" fill="grey">parent</text>
</g>
<!-- Node16 -->
<g id="Node000016" class="node">
<title>Node16</title>
<g id="a_Node000016"><a xlink:href="structNAObject.html" target="_top" xlink:title=" ">
<polygon fill="white" stroke="#666666" points="1080.5,-48.5 1018.5,-48.5 1018.5,-29.5 1080.5,-29.5 1080.5,-48.5"/>
<text text-anchor="middle" x="1049.5" y="-36.5" font-family="Helvetica,sans-Serif" font-size="10.00">NAObject</text>
</a>
</g>
</g>
<!-- Node16&#45;&gt;Node15 -->
<g id="edge16_Node000015_Node000016" class="edge">
<title>Node16&#45;&gt;Node15</title>
<g id="a_edge16_Node000015_Node000016"><a xlink:title=" ">
<path fill="none" stroke="#9a32cd" stroke-dasharray="5,2" d="M1090.68,-41.95C1122.23,-44.67 1167.17,-49.45 1206,-57 1223.86,-60.47 1243.49,-65.8 1259.23,-70.45"/>
<polygon fill="#9a32cd" stroke="#9a32cd" points="1090.78,-38.44 1080.52,-41.1 1090.19,-45.42 1090.78,-38.44"/>
</a>
</g>
<text text-anchor="start" x="1148.5" y="-62.5" font-family="Helvetica,sans-Serif" font-size="10.00" fill="grey">parent</text>
</g>
<!-- Node17 -->
<g id="Node000017" class="node">
<title>Node17</title>
<g id="a_Node000017"><a xlink:title=" ">
<polygon fill="white" stroke="#666666" points="897.5,-48.5 795.5,-48.5 795.5,-29.5 897.5,-29.5 897.5,-48.5"/>
<text text-anchor="middle" x="846.5" y="-36.5" font-family="Helvetica,sans-Serif" font-size="10.00">_NAObjectPrivate</text>
</a>
</g>
</g>
<!-- Node17&#45;&gt;Node16 -->
<g id="edge17_Node000016_Node000017" class="edge">
<title>Node17&#45;&gt;Node16</title>
<g id="a_edge17_Node000016_Node000017"><a xlink:title=" ">
<path fill="none" stroke="#9a32cd" stroke-dasharray="5,2" d="M907.74,-39C944.2,-39 989.12,-39 1018.26,-39"/>
<polygon fill="#9a32cd" stroke="#9a32cd" points="907.7,-35.5 897.7,-39 907.7,-42.5 907.7,-35.5"/>
</a>
</g>
<text text-anchor="start" x="937" y="-44.5" font-family="Helvetica,sans-Serif" font-size="10.00" fill="grey">private</text>
</g>
<!-- Node18 -->
<g id="Node000018" class="node">
<title>Node18</title>
<g id="a_Node000018"><a xlink:title=" ">
<polygon fill="white" stroke="#666666" points="1105,-85.5 994,-85.5 994,-66.5 1105,-66.5 1105,-85.5"/>
<text text-anchor="middle" x="1049.5" y="-73.5" font-family="Helvetica,sans-Serif" font-size="10.00">_NAObjectIdPrivate</text>
</a>
</g>
</g>
<!-- Node18&#45;&gt;Node15 -->
<g id="edge18_Node000015_Node000018" class="edge">
<title>Node18&#45;&gt;Node15</title>
<g id="a_edge18_Node000015_Node000018"><a xlink:title=" ">
<path fill="none" stroke="#9a32cd" stroke-dasharray="5,2" d="M1115.28,-77.08C1160.24,-77.84 1218.37,-78.81 1254.8,-79.42"/>
<polygon fill="#9a32cd" stroke="#9a32cd" points="1115.09,-73.58 1105.03,-76.91 1114.97,-80.58 1115.09,-73.58"/>
</a>
</g>
<text text-anchor="start" x="1147.5" y="-84.5" font-family="Helvetica,sans-Serif" font-size="10.00" fill="grey">private</text>
</g>
<!-- Node19 -->
<g id="Node000019" class="node">
<title>Node19</title>
<g id="a_Node000019"><a xlink:title=" ">
<polygon fill="white" stroke="#666666" points="1353,-169.5 1228,-169.5 1228,-150.5 1353,-150.5 1353,-169.5"/>
<text text-anchor="middle" x="1290.5" y="-157.5" font-family="Helvetica,sans-Serif" font-size="10.00">_NAObjectItemPrivate</text>
</a>
</g>
</g>
<!-- Node19&#45;&gt;Node14 -->
<g id="edge19_Node000014_Node000019" class="edge">
<title>Node19&#45;&gt;Node14</title>
<g id="a_edge19_Node000014_Node000019"><a xlink:title=" ">
<path fill="none" stroke="#9a32cd" stroke-dasharray="5,2" d="M1363.29,-160C1402.2,-160 1448.9,-160 1481.82,-160"/>
<polygon fill="#9a32cd" stroke="#9a32cd" points="1363.06,-156.5 1353.06,-160 1363.06,-163.5 1363.06,-156.5"/>
</a>
</g>
<text text-anchor="start" x="1400.5" y="-165.5" font-family="Helvetica,sans-Serif" font-size="10.00" fill="grey">private</text>
</g>
<!-- Node20&#45;&gt;Node8 -->
<g id="edge20_Node000008_Node000020" class="edge">
<title>Node20&#45;&gt;Node8</title>
<g id="a_edge20_Node000008_Node000020"><a xlink:title=" ">
<path fill="none" stroke="#9a32cd" stroke-dasharray="5,2" d="M1559.93,-93.42C1589.31,-105.61 1632.07,-125.16 1666,-148 1697.58,-169.26 1729.46,-201.33 1744.53,-217.28"/>
<polygon fill="#9a32cd" stroke="#9a32cd" points="1561.09,-90.11 1550.51,-89.57 1558.44,-96.59 1561.09,-90.11"/>
</a>
</g>
<text text-anchor="start" x="1592.5" y="-153.5" font-family="Helvetica,sans-Serif" font-size="10.00" fill="grey">current_profile</text>
</g>
<!-- Node21 -->
<g id="Node000021" class="node">
<title>Node21</title>
<g id="a_Node000021"><a xlink:title=" ">
<polygon fill="white" stroke="#666666" points="1357,-49.5 1224,-49.5 1224,-30.5 1357,-30.5 1357,-49.5"/>
<text text-anchor="middle" x="1290.5" y="-37.5" font-family="Helvetica,sans-Serif" font-size="10.00">_NAObjectProfilePrivate</text>
</a>
</g>
</g>
<!-- Node21&#45;&gt;Node20 -->
<g id="edge22_Node000020_Node000021" class="edge">
<title>Node21&#45;&gt;Node20</title>
<g id="a_edge22_Node000020_Node000021"><a xlink:title=" ">
<path fill="none" stroke="#9a32cd" stroke-dasharray="5,2" d="M1367.36,-45.19C1396.54,-48.06 1430.03,-52.43 1460,-59 1472.93,-61.83 1486.94,-66.31 1498.5,-70.4"/>
<polygon fill="#9a32cd" stroke="#9a32cd" points="1367.51,-41.69 1357.23,-44.23 1366.86,-48.66 1367.51,-41.69"/>
</a>
</g>
<text text-anchor="start" x="1400.5" y="-64.5" font-family="Helvetica,sans-Serif" font-size="10.00" fill="grey">private</text>
</g>
<!-- Node22 -->
<g id="Node000022" class="node">
<title>Node22</title>
<g id="a_Node000022"><a xlink:href="structCactTreeView.html" target="_top" xlink:title=" ">
<polygon fill="white" stroke="#666666" points="1206,-304.5 1123,-304.5 1123,-285.5 1206,-285.5 1206,-304.5"/>
<text text-anchor="middle" x="1164.5" y="-292.5" font-family="Helvetica,sans-Serif" font-size="10.00">CactTreeView</text>
</a>
</g>
</g>
<!-- Node22&#45;&gt;Node8 -->
<g id="edge23_Node000008_Node000022" class="edge">
<title>Node22&#45;&gt;Node8</title>
<g id="a_edge23_Node000008_Node000022"><a xlink:title=" ">
<path fill="none" stroke="#9a32cd" stroke-dasharray="5,2" d="M1216.27,-294.34C1307.37,-292.27 1504.17,-283.78 1666,-249 1683.15,-245.31 1702.04,-240.64 1717.87,-236.55"/>
<polygon fill="#9a32cd" stroke="#9a32cd" points="1216.14,-290.84 1206.22,-294.55 1216.29,-297.84 1216.14,-290.84"/>
</a>
</g>
<text text-anchor="start" x="1389.5" y="-291.5" font-family="Helvetica,sans-Serif" font-size="10.00" fill="grey">items_view</text>
</g>
<!-- Node23&#45;&gt;Node22 -->
<g id="edge24_Node000022_Node000023" class="edge">
<title>Node23&#45;&gt;Node22</title>
<g id="a_edge24_Node000022_Node000023"><a xlink:title=" ">
<path fill="none" stroke="#9a32cd" stroke-dasharray="5,2" d="M917.93,-295.78C980.86,-295.58 1070.87,-295.29 1122.63,-295.13"/>
<polygon fill="#9a32cd" stroke="#9a32cd" points="917.67,-292.28 907.68,-295.81 917.69,-299.28 917.67,-292.28"/>
</a>
</g>
<text text-anchor="start" x="937" y="-300.5" font-family="Helvetica,sans-Serif" font-size="10.00" fill="grey">private</text>
</g>
<!-- Node24 -->
<g id="Node000024" class="node">
<title>Node24</title>
<g id="a_Node000024"><a xlink:href="structCactClipboard.html" target="_top" xlink:title=" ">
<polygon fill="white" stroke="#666666" points="1460,-259.5 1375,-259.5 1375,-240.5 1460,-240.5 1460,-259.5"/>
<text text-anchor="middle" x="1417.5" y="-247.5" font-family="Helvetica,sans-Serif" font-size="10.00">CactClipboard</text>
</a>
</g>
</g>
<!-- Node24&#45;&gt;Node8 -->
<g id="edge26_Node000008_Node000024" class="edge">
<title>Node24&#45;&gt;Node8</title>
<g id="a_edge26_Node000008_Node000024"><a xlink:title=" ">
<path fill="none" stroke="#9a32cd" stroke-dasharray="5,2" d="M1470.52,-246.43C1527.82,-242.49 1620.22,-236.15 1683.76,-231.79"/>
<polygon fill="#9a32cd" stroke="#9a32cd" points="1469.99,-242.96 1460.25,-247.13 1470.47,-249.94 1469.99,-242.96"/>
</a>
</g>
<text text-anchor="start" x="1501.5" y="-250.5" font-family="Helvetica,sans-Serif" font-size="10.00" fill="grey">clipboard</text>
</g>
<!-- Node25&#45;&gt;Node24 -->
<g id="edge27_Node000024_Node000025" class="edge">
<title>Node25&#45;&gt;Node24</title>
<g id="a_edge27_Node000024_Node000025"><a xlink:title=" ">
<path fill="none" stroke="#9a32cd" stroke-dasharray="5,2" d="M919.43,-252.62C1039.91,-251.99 1278.74,-250.73 1374.93,-250.22"/>
<polygon fill="#9a32cd" stroke="#9a32cd" points="919.19,-249.12 909.2,-252.67 919.22,-256.12 919.19,-249.12"/>
</a>
</g>
<text text-anchor="start" x="1032.5" y="-257.5" font-family="Helvetica,sans-Serif" font-size="10.00" fill="grey">private</text>
</g>
<!-- Node26 -->
<g id="Node000026" class="node">
<title>Node26</title>
<g id="a_Node000026"><a xlink:title=" ">
<polygon fill="white" stroke="#666666" points="662.5,-158.5 584.5,-158.5 584.5,-139.5 662.5,-139.5 662.5,-158.5"/>
<text text-anchor="middle" x="623.5" y="-146.5" font-family="Helvetica,sans-Serif" font-size="10.00">PrimaryData</text>
</a>
</g>
</g>
<!-- Node26&#45;&gt;Node25 -->
<g id="edge29_Node000025_Node000026" class="edge">
<title>Node26&#45;&gt;Node25</title>
<g id="a_edge29_Node000025_Node000026"><a xlink:title=" ">
<path fill="none" stroke="#9a32cd" stroke-dasharray="5,2" d="M670.76,-137.76C698.94,-133.57 734.49,-133.28 761,-150 776.47,-159.76 768.36,-172.13 779,-187 795.18,-209.62 819.42,-231.47 833.73,-243.49"/>
<polygon fill="#9a32cd" stroke="#9a32cd" points="670.02,-134.33 660.75,-139.45 671.19,-141.23 670.02,-134.33"/>
</a>
</g>
<text text-anchor="start" x="692" y="-155.5" font-family="Helvetica,sans-Serif" font-size="10.00" fill="grey">primary_data</text>
</g>
<!-- Node27 -->
<g id="Node000027" class="node">
<title>Node27</title>
<g id="a_Node000027"><a xlink:href="structCactMenubar.html" target="_top" xlink:title=" ">
<polygon fill="white" stroke="#666666" points="1565,-209.5 1484,-209.5 1484,-190.5 1565,-190.5 1565,-209.5"/>
<text text-anchor="middle" x="1524.5" y="-197.5" font-family="Helvetica,sans-Serif" font-size="10.00">CactMenubar</text>
</a>
</g>
</g>
<!-- Node27&#45;&gt;Node8 -->
<g id="edge30_Node000008_Node000027" class="edge">
<title>Node27&#45;&gt;Node8</title>
<g id="a_edge30_Node000008_Node000027"><a xlink:title=" ">
<path fill="none" stroke="#9a32cd" stroke-dasharray="5,2" d="M1575.16,-204.94C1602.06,-207.7 1635.88,-211.33 1666,-215 1672.39,-215.78 1679.04,-216.63 1685.69,-217.5"/>
<polygon fill="#9a32cd" stroke="#9a32cd" points="1575.51,-201.45 1565.2,-203.92 1574.8,-208.42 1575.51,-201.45"/>
</a>
</g>
<text text-anchor="start" x="1605.5" y="-220.5" font-family="Helvetica,sans-Serif" font-size="10.00" fill="grey">menubar</text>
</g>
<!-- Node28&#45;&gt;Node27 -->
<g id="edge31_Node000027_Node000028" class="edge">
<title>Node28&#45;&gt;Node27</title>
<g id="a_edge31_Node000027_Node000028"><a xlink:title=" ">
<path fill="none" stroke="#9a32cd" stroke-dasharray="5,2" d="M1361.47,-199.3C1401.46,-199.47 1450.15,-199.68 1483.65,-199.83"/>
<polygon fill="#9a32cd" stroke="#9a32cd" points="1361.26,-195.8 1351.25,-199.26 1361.23,-202.8 1361.26,-195.8"/>
</a>
</g>
<text text-anchor="start" x="1400.5" y="-205.5" font-family="Helvetica,sans-Serif" font-size="10.00" fill="grey">private</text>
</g>
<!-- Node29 -->
<g id="Node000029" class="node">
<title>Node29</title>
<g id="a_Node000029"><a xlink:href="structCactSortButtons.html" target="_top" xlink:title=" ">
<polygon fill="white" stroke="#666666" points="1097,-178.5 1002,-178.5 1002,-159.5 1097,-159.5 1097,-178.5"/>
<text text-anchor="middle" x="1049.5" y="-166.5" font-family="Helvetica,sans-Serif" font-size="10.00">CactSortButtons</text>
</a>
</g>
</g>
<!-- Node29&#45;&gt;Node28 -->
<g id="edge34_Node000028_Node000029" class="edge">
<title>Node29&#45;&gt;Node28</title>
<g id="a_edge34_Node000028_Node000029"><a xlink:title=" ">
<path fill="none" stroke="#9a32cd" stroke-dasharray="5,2" d="M1107.2,-168.52C1136.8,-169.03 1173.53,-170.86 1206,-176 1224.56,-178.94 1244.91,-184.49 1260.87,-189.4"/>
<polygon fill="#9a32cd" stroke="#9a32cd" points="1107.09,-165.01 1097.04,-168.39 1107,-172.01 1107.09,-165.01"/>
</a>
</g>
<text text-anchor="start" x="1134.5" y="-181.5" font-family="Helvetica,sans-Serif" font-size="10.00" fill="grey">sort_buttons</text>
</g>
<!-- Node30&#45;&gt;Node29 -->
<g id="edge35_Node000029_Node000030" class="edge">
<title>Node30&#45;&gt;Node29</title>
<g id="a_edge35_Node000029_Node000030"><a xlink:title=" ">
<path fill="none" stroke="#9a32cd" stroke-dasharray="5,2" d="M924.39,-169C950.44,-169 978.73,-169 1001.72,-169"/>
<polygon fill="#9a32cd" stroke="#9a32cd" points="924.15,-165.5 914.15,-169 924.15,-172.5 924.15,-165.5"/>
</a>
</g>
<text text-anchor="start" x="937" y="-174.5" font-family="Helvetica,sans-Serif" font-size="10.00" fill="grey">private</text>
</g>
</g>
</svg>
