<?xml version="1.0" encoding="UTF-8" standalone="no"?>
<!DOCTYPE svg PUBLIC "-//W3C//DTD SVG 1.1//EN"
 "http://www.w3.org/Graphics/SVG/1.1/DTD/svg11.dtd">
<!-- Generated by graphviz version 2.43.0 (0)
 -->
<!-- Title: _PanelMenuButton Pages: 1 -->
<svg width="933pt" height="243pt"
 viewBox="0.00 0.00 932.50 243.00" xmlns="http://www.w3.org/2000/svg" xmlns:xlink="http://www.w3.org/1999/xlink">
<g id="graph0" class="graph" transform="scale(1 1) rotate(0) translate(4 239)">
<title>_PanelMenuButton</title>
<!-- Node1 -->
<g id="Node000001" class="node">
<title>Node1</title>
<g id="a_Node000001"><a xlink:title=" ">
<polygon fill="#999999" stroke="#666666" points="174,-19 67,-19 67,0 174,0 174,-19"/>
<text text-anchor="middle" x="120.5" y="-7" font-family="Helvetica,sans-Serif" font-size="10.00">_PanelMenuButton</text>
</a>
</g>
</g>
<!-- Node2 -->
<g id="Node000002" class="node">
<title>Node2</title>
<g id="a_Node000002"><a xlink:href="struct__ButtonWidget.html" target="_top" xlink:title=" ">
<polygon fill="white" stroke="#666666" points="106,-91 17,-91 17,-72 106,-72 106,-91"/>
<text text-anchor="middle" x="61.5" y="-79" font-family="Helvetica,sans-Serif" font-size="10.00">_ButtonWidget</text>
</a>
</g>
</g>
<!-- Node2&#45;&gt;Node1 -->
<g id="edge1_Node000001_Node000002" class="edge">
<title>Node2&#45;&gt;Node1</title>
<g id="a_edge1_Node000001_Node000002"><a xlink:title=" ">
<path fill="none" stroke="#9a32cd" stroke-dasharray="5,2" d="M75.39,-64.01C87.24,-49.96 103.8,-30.32 113.21,-19.15"/>
<polygon fill="#9a32cd" stroke="#9a32cd" points="72.5,-62.01 68.73,-71.92 77.86,-66.53 72.5,-62.01"/>
</a>
</g>
<text text-anchor="start" x="101.5" y="-42.5" font-family="Helvetica,sans-Serif" font-size="10.00" fill="grey">button</text>
</g>
<!-- Node3 -->
<g id="Node000003" class="node">
<title>Node3</title>
<g id="a_Node000003"><a xlink:title=" ">
<polygon fill="white" stroke="#666666" points="123,-163 0,-163 0,-144 123,-144 123,-163"/>
<text text-anchor="middle" x="61.5" y="-151" font-family="Helvetica,sans-Serif" font-size="10.00">_ButtonWidgetPrivate</text>
</a>
</g>
</g>
<!-- Node3&#45;&gt;Node2 -->
<g id="edge2_Node000002_Node000003" class="edge">
<title>Node3&#45;&gt;Node2</title>
<g id="a_edge2_Node000002_Node000003"><a xlink:title=" ">
<path fill="none" stroke="#9a32cd" stroke-dasharray="5,2" d="M61.5,-133.58C61.5,-119.76 61.5,-101.68 61.5,-91.15"/>
<polygon fill="#9a32cd" stroke="#9a32cd" points="58,-133.92 61.5,-143.92 65,-133.92 58,-133.92"/>
</a>
</g>
<text text-anchor="start" x="65" y="-114.5" font-family="Helvetica,sans-Serif" font-size="10.00" fill="grey">priv</text>
</g>
<!-- Node4 -->
<g id="Node000004" class="node">
<title>Node4</title>
<g id="a_Node000004"><a xlink:title=" ">
<polygon fill="white" stroke="#666666" points="266.5,-91 124.5,-91 124.5,-72 266.5,-72 266.5,-91"/>
<text text-anchor="middle" x="195.5" y="-79" font-family="Helvetica,sans-Serif" font-size="10.00">_PanelMenuButtonPrivate</text>
</a>
</g>
</g>
<!-- Node4&#45;&gt;Node1 -->
<g id="edge3_Node000001_Node000004" class="edge">
<title>Node4&#45;&gt;Node1</title>
<g id="a_edge3_Node000001_Node000004"><a xlink:title=" ">
<path fill="none" stroke="#9a32cd" stroke-dasharray="5,2" d="M178.68,-64.8C163.58,-50.71 141.96,-30.53 129.77,-19.15"/>
<polygon fill="#9a32cd" stroke="#9a32cd" points="176.6,-67.65 186.3,-71.92 181.38,-62.53 176.6,-67.65"/>
</a>
</g>
<text text-anchor="start" x="171" y="-42.5" font-family="Helvetica,sans-Serif" font-size="10.00" fill="grey">priv</text>
</g>
<!-- Node5 -->
<g id="Node000005" class="node">
<title>Node5</title>
<g id="a_Node000005"><a xlink:href="struct__PanelToplevel.html" target="_top" xlink:title=" ">
<polygon fill="white" stroke="#666666" points="460,-163 371,-163 371,-144 460,-144 460,-163"/>
<text text-anchor="middle" x="415.5" y="-151" font-family="Helvetica,sans-Serif" font-size="10.00">_PanelToplevel</text>
</a>
</g>
</g>
<!-- Node5&#45;&gt;Node4 -->
<g id="edge4_Node000004_Node000005" class="edge">
<title>Node5&#45;&gt;Node4</title>
<g id="a_edge4_Node000004_Node000005"><a xlink:title=" ">
<path fill="none" stroke="#9a32cd" stroke-dasharray="5,2" d="M360.62,-152.26C325.33,-150.19 279.37,-143.78 242.5,-126 225.48,-117.79 210.34,-101.3 202.08,-91.15"/>
<polygon fill="#9a32cd" stroke="#9a32cd" points="360.58,-155.77 370.74,-152.76 360.92,-148.78 360.58,-155.77"/>
</a>
</g>
<text text-anchor="start" x="245.5" y="-114.5" font-family="Helvetica,sans-Serif" font-size="10.00" fill="grey">toplevel</text>
</g>
<!-- Node7 -->
<g id="Node000007" class="node">
<title>Node7</title>
<g id="a_Node000007"><a xlink:title=" ">
<polygon fill="white" stroke="#666666" points="526,-19 403,-19 403,0 526,0 526,-19"/>
<text text-anchor="middle" x="464.5" y="-7" font-family="Helvetica,sans-Serif" font-size="10.00">_PanelToplevelPrivate</text>
</a>
</g>
</g>
<!-- Node5&#45;&gt;Node7 -->
<g id="edge15_Node000007_Node000005" class="edge">
<title>Node5&#45;&gt;Node7</title>
<g id="a_edge15_Node000007_Node000005"><a xlink:title=" ">
<path fill="none" stroke="#9a32cd" stroke-dasharray="5,2" d="M388,-139.15C361.05,-124.16 326.22,-98.44 342.5,-72 360.22,-43.22 396.02,-27.42 424.27,-19.07"/>
<polygon fill="#9a32cd" stroke="#9a32cd" points="386.63,-142.39 397.11,-143.99 389.92,-136.21 386.63,-142.39"/>
</a>
</g>
<text text-anchor="start" x="345.5" y="-78.5" font-family="Helvetica,sans-Serif" font-size="10.00" fill="grey">attach_toplevel</text>
</g>
<!-- Node8 -->
<g id="Node000008" class="node">
<title>Node8</title>
<g id="a_Node000008"><a xlink:href="struct__PanelWidget.html" target="_top" xlink:title=" ">
<polygon fill="white" stroke="#666666" points="551,-91 468,-91 468,-72 551,-72 551,-91"/>
<text text-anchor="middle" x="509.5" y="-79" font-family="Helvetica,sans-Serif" font-size="10.00">_PanelWidget</text>
</a>
</g>
</g>
<!-- Node5&#45;&gt;Node8 -->
<g id="edge11_Node000008_Node000005" class="edge">
<title>Node5&#45;&gt;Node8</title>
<g id="a_edge11_Node000008_Node000005"><a xlink:title=" ">
<path fill="none" stroke="#9a32cd" stroke-dasharray="5,2" d="M426.12,-135.11C432.13,-126.39 440.28,-116.18 449.5,-109 459.38,-101.3 471.85,-95.33 482.86,-91.02"/>
<polygon fill="#9a32cd" stroke="#9a32cd" points="423.01,-133.48 420.5,-143.78 428.88,-137.29 423.01,-133.48"/>
</a>
</g>
<text text-anchor="start" x="452.5" y="-114.5" font-family="Helvetica,sans-Serif" font-size="10.00" fill="grey">toplevel</text>
</g>
<!-- Node6 -->
<g id="Node000006" class="node">
<title>Node6</title>
<g id="a_Node000006"><a xlink:href="struct__PanelBackground.html" target="_top" xlink:title=" ">
<polygon fill="white" stroke="#666666" points="514.5,-235 408.5,-235 408.5,-216 514.5,-216 514.5,-235"/>
<text text-anchor="middle" x="461.5" y="-223" font-family="Helvetica,sans-Serif" font-size="10.00">_PanelBackground</text>
</a>
</g>
</g>
<!-- Node6&#45;&gt;Node5 -->
<g id="edge5_Node000005_Node000006" class="edge">
<title>Node6&#45;&gt;Node5</title>
<g id="a_edge5_Node000005_Node000006"><a xlink:title=" ">
<path fill="none" stroke="#9a32cd" stroke-dasharray="5,2" d="M435.73,-209.94C431.44,-206.51 427.44,-202.52 424.5,-198 417.6,-187.4 415.85,-172.53 415.48,-163.21"/>
<polygon fill="#9a32cd" stroke="#9a32cd" points="433.93,-212.95 444.13,-215.82 437.94,-207.22 433.93,-212.95"/>
</a>
</g>
<text text-anchor="start" x="427.5" y="-186.5" font-family="Helvetica,sans-Serif" font-size="10.00" fill="grey">background</text>
</g>
<!-- Node6&#45;&gt;Node6 -->
<g id="edge6_Node000006_Node000006" class="edge">
<title>Node6&#45;&gt;Node6</title>
<g id="a_edge6_Node000006_Node000006"><a xlink:title=" ">
<path fill="none" stroke="#9a32cd" stroke-dasharray="5,2" d="M524.93,-230.52C529.62,-229.39 532.5,-227.72 532.5,-225.5 532.5,-221.95 525.13,-219.8 514.76,-219.05"/>
<polygon fill="#9a32cd" stroke="#9a32cd" points="524.17,-227.09 514.76,-231.95 525.15,-234.02 524.17,-227.09"/>
</a>
</g>
<text text-anchor="start" x="536" y="-222.5" font-family="Helvetica,sans-Serif" font-size="10.00" fill="grey">notify_changed</text>
</g>
<!-- Node6&#45;&gt;Node8 -->
<g id="edge10_Node000008_Node000006" class="edge">
<title>Node6&#45;&gt;Node8</title>
<g id="a_edge10_Node000008_Node000006"><a xlink:title=" ">
<path fill="none" stroke="#9a32cd" stroke-dasharray="5,2" d="M480.48,-208.93C483.57,-205.61 486.42,-201.92 488.5,-198 507.68,-161.8 509.69,-111.24 509.66,-91.19"/>
<polygon fill="#9a32cd" stroke="#9a32cd" points="477.98,-206.48 473.14,-215.91 482.8,-211.55 477.98,-206.48"/>
</a>
</g>
<text text-anchor="start" x="507.5" y="-150.5" font-family="Helvetica,sans-Serif" font-size="10.00" fill="grey">background</text>
</g>
<!-- Node7&#45;&gt;Node5 -->
<g id="edge7_Node000005_Node000007" class="edge">
<title>Node7&#45;&gt;Node5</title>
<g id="a_edge7_Node000005_Node000007"><a xlink:title=" ">
<path fill="none" stroke="#9a32cd" stroke-dasharray="5,2" d="M454.05,-28.29C447.37,-40.3 438.97,-56.7 433.5,-72 424.43,-97.35 418.98,-128.88 416.72,-143.84"/>
<polygon fill="#9a32cd" stroke="#9a32cd" points="457.23,-29.78 459.15,-19.36 451.16,-26.31 457.23,-29.78"/>
</a>
</g>
<text text-anchor="start" x="437" y="-78.5" font-family="Helvetica,sans-Serif" font-size="10.00" fill="grey">priv</text>
</g>
<!-- Node8&#45;&gt;Node7 -->
<g id="edge8_Node000007_Node000008" class="edge">
<title>Node8&#45;&gt;Node7</title>
<g id="a_edge8_Node000007_Node000008"><a xlink:title=" ">
<path fill="none" stroke="#9a32cd" stroke-dasharray="5,2" d="M498.39,-63.21C489.39,-49.22 477.1,-30.1 470.06,-19.15"/>
<polygon fill="#9a32cd" stroke="#9a32cd" points="495.63,-65.4 503.98,-71.92 501.52,-61.61 495.63,-65.4"/>
</a>
</g>
<text text-anchor="start" x="494.5" y="-42.5" font-family="Helvetica,sans-Serif" font-size="10.00" fill="grey">panel_widget</text>
</g>
<!-- Node9 -->
<g id="Node000009" class="node">
<title>Node9</title>
<g id="a_Node000009"><a xlink:href="struct__AppletData.html" target="_top" xlink:title=" ">
<polygon fill="white" stroke="#666666" points="662,-163 585,-163 585,-144 662,-144 662,-163"/>
<text text-anchor="middle" x="623.5" y="-151" font-family="Helvetica,sans-Serif" font-size="10.00">_AppletData</text>
</a>
</g>
</g>
<!-- Node9&#45;&gt;Node8 -->
<g id="edge9_Node000008_Node000009" class="edge">
<title>Node9&#45;&gt;Node8</title>
<g id="a_edge9_Node000008_Node000009"><a xlink:title=" ">
<path fill="none" stroke="#9a32cd" stroke-dasharray="5,2" d="M598.94,-139.03C591.66,-134.94 583.71,-130.37 576.5,-126 557.28,-114.36 535.56,-100.03 522.19,-91.08"/>
<polygon fill="#9a32cd" stroke="#9a32cd" points="597.25,-142.1 607.69,-143.91 600.66,-135.98 597.25,-142.1"/>
</a>
</g>
<text text-anchor="start" x="580" y="-114.5" font-family="Helvetica,sans-Serif" font-size="10.00" fill="grey">currently_dragged_applet</text>
</g>
<!-- Node10 -->
<g id="Node000010" class="node">
<title>Node10</title>
<g id="a_Node000010"><a xlink:href="struct__AppletSizeHints.html" target="_top" xlink:title=" ">
<polygon fill="white" stroke="#666666" points="779,-163 680,-163 680,-144 779,-144 779,-163"/>
<text text-anchor="middle" x="729.5" y="-151" font-family="Helvetica,sans-Serif" font-size="10.00">_AppletSizeHints</text>
</a>
</g>
</g>
<!-- Node10&#45;&gt;Node8 -->
<g id="edge12_Node000008_Node000010" class="edge">
<title>Node10&#45;&gt;Node8</title>
<g id="a_edge12_Node000008_Node000010"><a xlink:title=" ">
<path fill="none" stroke="#9a32cd" stroke-dasharray="5,2" d="M724.69,-134.14C721.36,-125.12 715.96,-114.94 707.5,-109 680.57,-90.09 593.07,-95.71 560.5,-91 557.48,-90.56 554.36,-90.09 551.23,-89.61"/>
<polygon fill="#9a32cd" stroke="#9a32cd" points="721.4,-135.36 727.71,-143.87 728.09,-133.28 721.4,-135.36"/>
</a>
</g>
<text text-anchor="start" x="723.5" y="-114.5" font-family="Helvetica,sans-Serif" font-size="10.00" fill="grey">applets_hints</text>
</g>
<!-- Node11 -->
<g id="Node000011" class="node">
<title>Node11</title>
<g id="a_Node000011"><a xlink:href="struct__AppletSizeHintsAlloc.html" target="_top" xlink:title=" ">
<polygon fill="white" stroke="#666666" points="920,-163 797,-163 797,-144 920,-144 920,-163"/>
<text text-anchor="middle" x="858.5" y="-151" font-family="Helvetica,sans-Serif" font-size="10.00">_AppletSizeHintsAlloc</text>
</a>
</g>
</g>
<!-- Node11&#45;&gt;Node8 -->
<g id="edge13_Node000008_Node000011" class="edge">
<title>Node11&#45;&gt;Node8</title>
<g id="a_edge13_Node000008_Node000011"><a xlink:title=" ">
<path fill="none" stroke="#9a32cd" stroke-dasharray="5,2" d="M842.12,-137.28C830.36,-127.35 813.63,-115.14 796.5,-109 746.98,-91.26 612.71,-97.33 560.5,-91 557.47,-90.63 554.35,-90.21 551.2,-89.76"/>
<polygon fill="#9a32cd" stroke="#9a32cd" points="839.91,-140 849.73,-143.99 844.54,-134.75 839.91,-140"/>
</a>
</g>
<text text-anchor="start" x="829.5" y="-114.5" font-family="Helvetica,sans-Serif" font-size="10.00" fill="grey">applets_using_hint</text>
</g>
<!-- Node12 -->
<g id="Node000012" class="node">
<title>Node12</title>
<g id="a_Node000012"><a xlink:href="struct__PanelFrame.html" target="_top" xlink:title=" ">
<polygon fill="white" stroke="#666666" points="648,-91 569,-91 569,-72 648,-72 648,-91"/>
<text text-anchor="middle" x="608.5" y="-79" font-family="Helvetica,sans-Serif" font-size="10.00">_PanelFrame</text>
</a>
</g>
</g>
<!-- Node12&#45;&gt;Node7 -->
<g id="edge14_Node000007_Node000012" class="edge">
<title>Node12&#45;&gt;Node7</title>
<g id="a_edge14_Node000007_Node000012"><a xlink:title=" ">
<path fill="none" stroke="#9a32cd" stroke-dasharray="5,2" d="M596.46,-63.67C589.08,-54.51 578.88,-43.72 567.5,-37 553.43,-28.69 536.78,-22.96 521.01,-19.02"/>
<polygon fill="#9a32cd" stroke="#9a32cd" points="593.78,-65.92 602.62,-71.76 599.34,-61.68 593.78,-65.92"/>
</a>
</g>
<text text-anchor="start" x="590.5" y="-42.5" font-family="Helvetica,sans-Serif" font-size="10.00" fill="grey">inner_frame</text>
</g>
</g>
</svg>
