<?xml version="1.0" encoding="UTF-8" standalone="no"?>
<!DOCTYPE svg PUBLIC "-//W3C//DTD SVG 1.1//EN"
 "http://www.w3.org/Graphics/SVG/1.1/DTD/svg11.dtd">
<!-- Generated by graphviz version 2.43.0 (0)
 -->
<!-- Title: CactMenubar Pages: 1 -->
<svg width="509pt" height="531pt"
 viewBox="0.00 0.00 509.00 531.00" xmlns="http://www.w3.org/2000/svg" xmlns:xlink="http://www.w3.org/1999/xlink">
<g id="graph0" class="graph" transform="scale(1 1) rotate(0) translate(4 527)">
<title>CactMenubar</title>
<!-- Node1 -->
<g id="Node000001" class="node">
<title>Node1</title>
<g id="a_Node000001"><a xlink:title=" ">
<polygon fill="#999999" stroke="#666666" points="137,-19 56,-19 56,0 137,0 137,-19"/>
<text text-anchor="middle" x="96.5" y="-7" font-family="Helvetica,sans-Serif" font-size="10.00">CactMenubar</text>
</a>
</g>
</g>
<!-- Node2 -->
<g id="Node000002" class="node">
<title>Node2</title>
<g id="a_Node000002"><a xlink:href="struct__CactMenubarPrivate.html" target="_top" xlink:title=" ">
<polygon fill="white" stroke="#666666" points="157,-91 36,-91 36,-72 157,-72 157,-91"/>
<text text-anchor="middle" x="96.5" y="-79" font-family="Helvetica,sans-Serif" font-size="10.00">_CactMenubarPrivate</text>
</a>
</g>
</g>
<!-- Node2&#45;&gt;Node1 -->
<g id="edge1_Node000001_Node000002" class="edge">
<title>Node2&#45;&gt;Node1</title>
<g id="a_edge1_Node000001_Node000002"><a xlink:title=" ">
<path fill="none" stroke="#9a32cd" stroke-dasharray="5,2" d="M96.5,-61.58C96.5,-47.76 96.5,-29.68 96.5,-19.15"/>
<polygon fill="#9a32cd" stroke="#9a32cd" points="93,-61.92 96.5,-71.92 100,-61.92 93,-61.92"/>
</a>
</g>
<text text-anchor="start" x="100" y="-42.5" font-family="Helvetica,sans-Serif" font-size="10.00" fill="grey">private</text>
</g>
<!-- Node3 -->
<g id="Node000003" class="node">
<title>Node3</title>
<g id="a_Node000003"><a xlink:href="structBaseWindow.html" target="_top" xlink:title=" ">
<polygon fill="white" stroke="#666666" points="241.5,-307 161.5,-307 161.5,-288 241.5,-288 241.5,-307"/>
<text text-anchor="middle" x="201.5" y="-295" font-family="Helvetica,sans-Serif" font-size="10.00">BaseWindow</text>
</a>
</g>
</g>
<!-- Node3&#45;&gt;Node2 -->
<g id="edge2_Node000002_Node000003" class="edge">
<title>Node3&#45;&gt;Node2</title>
<g id="a_edge2_Node000002_Node000003"><a xlink:title=" ">
<path fill="none" stroke="#9a32cd" stroke-dasharray="5,2" d="M203.73,-277.5C206.97,-240.53 208.67,-158.23 167.5,-109 160.58,-100.72 150.81,-95.03 140.72,-91.12"/>
<polygon fill="#9a32cd" stroke="#9a32cd" points="200.21,-277.51 202.67,-287.81 207.17,-278.22 200.21,-277.51"/>
</a>
</g>
<text text-anchor="start" x="204.5" y="-186.5" font-family="Helvetica,sans-Serif" font-size="10.00" fill="grey">window</text>
</g>
<!-- Node4 -->
<g id="Node000004" class="node">
<title>Node4</title>
<g id="a_Node000004"><a xlink:title=" ">
<polygon fill="white" stroke="#666666" points="378,-235 259,-235 259,-216 378,-216 378,-235"/>
<text text-anchor="middle" x="318.5" y="-223" font-family="Helvetica,sans-Serif" font-size="10.00">_BaseWindowPrivate</text>
</a>
</g>
</g>
<!-- Node3&#45;&gt;Node4 -->
<g id="edge4_Node000004_Node000003" class="edge">
<title>Node3&#45;&gt;Node4</title>
<g id="a_edge4_Node000004_Node000003"><a xlink:title=" ">
<path fill="none" stroke="#9a32cd" stroke-dasharray="5,2" d="M206.49,-278.05C209.72,-269.31 214.81,-259.42 222.5,-253 232.86,-244.36 245.81,-238.53 258.83,-234.59"/>
<polygon fill="#9a32cd" stroke="#9a32cd" points="203.08,-277.22 203.4,-287.81 209.75,-279.33 203.08,-277.22"/>
</a>
</g>
<text text-anchor="start" x="225.5" y="-258.5" font-family="Helvetica,sans-Serif" font-size="10.00" fill="grey">parent</text>
</g>
<!-- Node15 -->
<g id="Node000015" class="node">
<title>Node15</title>
<g id="a_Node000015"><a xlink:title=" ">
<polygon fill="white" stroke="#666666" points="164,-235 29,-235 29,-216 164,-216 164,-235"/>
<text text-anchor="middle" x="96.5" y="-223" font-family="Helvetica,sans-Serif" font-size="10.00">_CactSortButtonsPrivate</text>
</a>
</g>
</g>
<!-- Node3&#45;&gt;Node15 -->
<g id="edge16_Node000015_Node000003" class="edge">
<title>Node3&#45;&gt;Node15</title>
<g id="a_edge16_Node000015_Node000003"><a xlink:title=" ">
<path fill="none" stroke="#9a32cd" stroke-dasharray="5,2" d="M161.69,-284.35C152.32,-280.54 142.69,-275.78 134.5,-270 120.9,-260.4 108.96,-244.96 102.25,-235.29"/>
<polygon fill="#9a32cd" stroke="#9a32cd" points="160.69,-287.72 171.28,-287.98 163.16,-281.17 160.69,-287.72"/>
</a>
</g>
<text text-anchor="start" x="137.5" y="-258.5" font-family="Helvetica,sans-Serif" font-size="10.00" fill="grey">window</text>
</g>
<!-- Node4&#45;&gt;Node3 -->
<g id="edge3_Node000003_Node000004" class="edge">
<title>Node4&#45;&gt;Node3</title>
<g id="a_edge3_Node000003_Node000004"><a xlink:title=" ">
<path fill="none" stroke="#9a32cd" stroke-dasharray="5,2" d="M298.29,-241.36C293.39,-245.08 288.21,-249.12 283.5,-253 274.75,-260.2 274.08,-263.94 264.5,-270 252.87,-277.36 238.84,-283.49 226.98,-287.99"/>
<polygon fill="#9a32cd" stroke="#9a32cd" points="300.74,-243.89 306.65,-235.1 296.55,-238.29 300.74,-243.89"/>
</a>
</g>
<text text-anchor="start" x="287" y="-258.5" font-family="Helvetica,sans-Serif" font-size="10.00" fill="grey">private</text>
</g>
<!-- Node5 -->
<g id="Node000005" class="node">
<title>Node5</title>
<g id="a_Node000005"><a xlink:href="structBaseApplication.html" target="_top" xlink:title=" ">
<polygon fill="white" stroke="#666666" points="368,-307 273,-307 273,-288 368,-288 368,-307"/>
<text text-anchor="middle" x="320.5" y="-295" font-family="Helvetica,sans-Serif" font-size="10.00">BaseApplication</text>
</a>
</g>
</g>
<!-- Node5&#45;&gt;Node4 -->
<g id="edge5_Node000004_Node000005" class="edge">
<title>Node5&#45;&gt;Node4</title>
<g id="a_edge5_Node000004_Node000005"><a xlink:title=" ">
<path fill="none" stroke="#9a32cd" stroke-dasharray="5,2" d="M326.8,-278.12C327.5,-275.43 328.11,-272.66 328.5,-270 329.6,-262.53 329.86,-260.43 328.5,-253 327.37,-246.81 324.87,-240.18 322.65,-235.11"/>
<polygon fill="#9a32cd" stroke="#9a32cd" points="323.41,-277.23 323.83,-287.81 330.11,-279.28 323.41,-277.23"/>
</a>
</g>
<text text-anchor="start" x="332" y="-258.5" font-family="Helvetica,sans-Serif" font-size="10.00" fill="grey">application</text>
</g>
<!-- Node6 -->
<g id="Node000006" class="node">
<title>Node6</title>
<g id="a_Node000006"><a xlink:title=" ">
<polygon fill="white" stroke="#666666" points="368,-379 233,-379 233,-360 368,-360 368,-379"/>
<text text-anchor="middle" x="300.5" y="-367" font-family="Helvetica,sans-Serif" font-size="10.00">_BaseApplicationPrivate</text>
</a>
</g>
</g>
<!-- Node6&#45;&gt;Node5 -->
<g id="edge6_Node000005_Node000006" class="edge">
<title>Node6&#45;&gt;Node5</title>
<g id="a_edge6_Node000005_Node000006"><a xlink:title=" ">
<path fill="none" stroke="#9a32cd" stroke-dasharray="5,2" d="M305.79,-349.99C309.75,-336.13 314.99,-317.79 318.03,-307.15"/>
<polygon fill="#9a32cd" stroke="#9a32cd" points="302.33,-349.34 302.95,-359.92 309.07,-351.26 302.33,-349.34"/>
</a>
</g>
<text text-anchor="start" x="316" y="-330.5" font-family="Helvetica,sans-Serif" font-size="10.00" fill="grey">private</text>
</g>
<!-- Node7 -->
<g id="Node000007" class="node">
<title>Node7</title>
<g id="a_Node000007"><a xlink:href="structBaseBuilder.html" target="_top" xlink:title=" ">
<polygon fill="white" stroke="#666666" points="479,-307 404,-307 404,-288 479,-288 479,-307"/>
<text text-anchor="middle" x="441.5" y="-295" font-family="Helvetica,sans-Serif" font-size="10.00">BaseBuilder</text>
</a>
</g>
</g>
<!-- Node7&#45;&gt;Node4 -->
<g id="edge7_Node000004_Node000007" class="edge">
<title>Node7&#45;&gt;Node4</title>
<g id="a_edge7_Node000004_Node000007"><a xlink:title=" ">
<path fill="none" stroke="#9a32cd" stroke-dasharray="5,2" d="M426.85,-280.36C417.94,-271.32 405.9,-260.4 393.5,-253 380.57,-245.29 365.06,-239.34 351.5,-235.05"/>
<polygon fill="#9a32cd" stroke="#9a32cd" points="424.39,-282.86 433.82,-287.7 429.47,-278.04 424.39,-282.86"/>
</a>
</g>
<text text-anchor="start" x="417.5" y="-258.5" font-family="Helvetica,sans-Serif" font-size="10.00" fill="grey">builder</text>
</g>
<!-- Node8 -->
<g id="Node000008" class="node">
<title>Node8</title>
<g id="a_Node000008"><a xlink:title=" ">
<polygon fill="white" stroke="#666666" points="501,-379 386,-379 386,-360 501,-360 501,-379"/>
<text text-anchor="middle" x="443.5" y="-367" font-family="Helvetica,sans-Serif" font-size="10.00">_BaseBuilderPrivate</text>
</a>
</g>
</g>
<!-- Node8&#45;&gt;Node7 -->
<g id="edge8_Node000007_Node000008" class="edge">
<title>Node8&#45;&gt;Node7</title>
<g id="a_edge8_Node000007_Node000008"><a xlink:title=" ">
<path fill="none" stroke="#9a32cd" stroke-dasharray="5,2" d="M442.96,-349.58C442.56,-335.76 442.05,-317.68 441.75,-307.15"/>
<polygon fill="#9a32cd" stroke="#9a32cd" points="439.47,-350.02 443.25,-359.92 446.47,-349.82 439.47,-350.02"/>
</a>
</g>
<text text-anchor="start" x="446" y="-330.5" font-family="Helvetica,sans-Serif" font-size="10.00" fill="grey">private</text>
</g>
<!-- Node9 -->
<g id="Node000009" class="node">
<title>Node9</title>
<g id="a_Node000009"><a xlink:href="structNAUpdater.html" target="_top" xlink:title=" ">
<polygon fill="white" stroke="#666666" points="85.5,-307 15.5,-307 15.5,-288 85.5,-288 85.5,-307"/>
<text text-anchor="middle" x="50.5" y="-295" font-family="Helvetica,sans-Serif" font-size="10.00">NAUpdater</text>
</a>
</g>
</g>
<!-- Node9&#45;&gt;Node2 -->
<g id="edge9_Node000002_Node000009" class="edge">
<title>Node9&#45;&gt;Node2</title>
<g id="a_edge9_Node000002_Node000009"><a xlink:title=" ">
<path fill="none" stroke="#9a32cd" stroke-dasharray="5,2" d="M38.92,-279.04C31.77,-267.17 23.26,-250.81 19.5,-235 17.55,-226.78 18.36,-224.37 19.5,-216 23.99,-183.09 23.31,-173 39.5,-144 51.56,-122.39 72.74,-102.36 85.61,-91.34"/>
<polygon fill="#9a32cd" stroke="#9a32cd" points="36.18,-281.25 44.48,-287.84 42.1,-277.52 36.18,-281.25"/>
</a>
</g>
<text text-anchor="start" x="27.5" y="-186.5" font-family="Helvetica,sans-Serif" font-size="10.00" fill="grey">updater</text>
</g>
<!-- Node9&#45;&gt;Node15 -->
<g id="edge17_Node000015_Node000009" class="edge">
<title>Node9&#45;&gt;Node15</title>
<g id="a_edge17_Node000015_Node000009"><a xlink:title=" ">
<path fill="none" stroke="#9a32cd" stroke-dasharray="5,2" d="M51.35,-277.73C52.45,-269.6 54.76,-260.29 59.5,-253 64.32,-245.58 72.01,-239.58 79.13,-235.18"/>
<polygon fill="#9a32cd" stroke="#9a32cd" points="47.85,-277.53 50.48,-287.79 54.83,-278.13 47.85,-277.53"/>
</a>
</g>
<text text-anchor="start" x="62.5" y="-258.5" font-family="Helvetica,sans-Serif" font-size="10.00" fill="grey">updater</text>
</g>
<!-- Node10 -->
<g id="Node000010" class="node">
<title>Node10</title>
<g id="a_Node000010"><a xlink:href="structNAPivot.html" target="_top" xlink:title=" ">
<polygon fill="white" stroke="#666666" points="75.5,-379 19.5,-379 19.5,-360 75.5,-360 75.5,-379"/>
<text text-anchor="middle" x="47.5" y="-367" font-family="Helvetica,sans-Serif" font-size="10.00">NAPivot</text>
</a>
</g>
</g>
<!-- Node10&#45;&gt;Node9 -->
<g id="edge10_Node000009_Node000010" class="edge">
<title>Node10&#45;&gt;Node9</title>
<g id="a_edge10_Node000009_Node000010"><a xlink:title=" ">
<path fill="none" stroke="#9a32cd" stroke-dasharray="5,2" d="M48.31,-349.58C48.9,-335.76 49.68,-317.68 50.13,-307.15"/>
<polygon fill="#9a32cd" stroke="#9a32cd" points="44.8,-349.78 47.87,-359.92 51.79,-350.08 44.8,-349.78"/>
</a>
</g>
<text text-anchor="start" x="52.5" y="-330.5" font-family="Helvetica,sans-Serif" font-size="10.00" fill="grey">parent</text>
</g>
<!-- Node11 -->
<g id="Node000011" class="node">
<title>Node11</title>
<g id="a_Node000011"><a xlink:title=" ">
<polygon fill="white" stroke="#666666" points="95,-451 0,-451 0,-432 95,-432 95,-451"/>
<text text-anchor="middle" x="47.5" y="-439" font-family="Helvetica,sans-Serif" font-size="10.00">_NAPivotPrivate</text>
</a>
</g>
</g>
<!-- Node11&#45;&gt;Node10 -->
<g id="edge11_Node000010_Node000011" class="edge">
<title>Node11&#45;&gt;Node10</title>
<g id="a_edge11_Node000010_Node000011"><a xlink:title=" ">
<path fill="none" stroke="#9a32cd" stroke-dasharray="5,2" d="M47.5,-421.58C47.5,-407.76 47.5,-389.68 47.5,-379.15"/>
<polygon fill="#9a32cd" stroke="#9a32cd" points="44,-421.92 47.5,-431.92 51,-421.92 44,-421.92"/>
</a>
</g>
<text text-anchor="start" x="51" y="-402.5" font-family="Helvetica,sans-Serif" font-size="10.00" fill="grey">private</text>
</g>
<!-- Node12 -->
<g id="Node000012" class="node">
<title>Node12</title>
<g id="a_Node000012"><a xlink:href="structNATimeout.html" target="_top" xlink:title=" ">
<polygon fill="white" stroke="#666666" points="83,-523 12,-523 12,-504 83,-504 83,-523"/>
<text text-anchor="middle" x="47.5" y="-511" font-family="Helvetica,sans-Serif" font-size="10.00">NATimeout</text>
</a>
</g>
</g>
<!-- Node12&#45;&gt;Node11 -->
<g id="edge12_Node000011_Node000012" class="edge">
<title>Node12&#45;&gt;Node11</title>
<g id="a_edge12_Node000011_Node000012"><a xlink:title=" ">
<path fill="none" stroke="#9a32cd" stroke-dasharray="5,2" d="M47.5,-493.58C47.5,-479.76 47.5,-461.68 47.5,-451.15"/>
<polygon fill="#9a32cd" stroke="#9a32cd" points="44,-493.92 47.5,-503.92 51,-493.92 44,-493.92"/>
</a>
</g>
<text text-anchor="start" x="51" y="-474.5" font-family="Helvetica,sans-Serif" font-size="10.00" fill="grey">change_timeout</text>
</g>
<!-- Node13 -->
<g id="Node000013" class="node">
<title>Node13</title>
<g id="a_Node000013"><a xlink:title=" ">
<polygon fill="white" stroke="#666666" points="203.5,-379 93.5,-379 93.5,-360 203.5,-360 203.5,-379"/>
<text text-anchor="middle" x="148.5" y="-367" font-family="Helvetica,sans-Serif" font-size="10.00">_NAUpdaterPrivate</text>
</a>
</g>
</g>
<!-- Node13&#45;&gt;Node9 -->
<g id="edge13_Node000009_Node000013" class="edge">
<title>Node13&#45;&gt;Node9</title>
<g id="a_edge13_Node000009_Node000013"><a xlink:title=" ">
<path fill="none" stroke="#9a32cd" stroke-dasharray="5,2" d="M129.73,-353.59C118.75,-345.01 104.52,-334.15 91.5,-325 82.63,-318.76 72.38,-312.14 64.34,-307.07"/>
<polygon fill="#9a32cd" stroke="#9a32cd" points="127.74,-356.47 137.76,-359.9 132.06,-350.97 127.74,-356.47"/>
</a>
</g>
<text text-anchor="start" x="117" y="-330.5" font-family="Helvetica,sans-Serif" font-size="10.00" fill="grey">private</text>
</g>
<!-- Node14 -->
<g id="Node000014" class="node">
<title>Node14</title>
<g id="a_Node000014"><a xlink:href="structCactSortButtons.html" target="_top" xlink:title=" ">
<polygon fill="white" stroke="#666666" points="144,-163 49,-163 49,-144 144,-144 144,-163"/>
<text text-anchor="middle" x="96.5" y="-151" font-family="Helvetica,sans-Serif" font-size="10.00">CactSortButtons</text>
</a>
</g>
</g>
<!-- Node14&#45;&gt;Node2 -->
<g id="edge14_Node000002_Node000014" class="edge">
<title>Node14&#45;&gt;Node2</title>
<g id="a_edge14_Node000002_Node000014"><a xlink:title=" ">
<path fill="none" stroke="#9a32cd" stroke-dasharray="5,2" d="M96.5,-133.58C96.5,-119.76 96.5,-101.68 96.5,-91.15"/>
<polygon fill="#9a32cd" stroke="#9a32cd" points="93,-133.92 96.5,-143.92 100,-133.92 93,-133.92"/>
</a>
</g>
<text text-anchor="start" x="100" y="-114.5" font-family="Helvetica,sans-Serif" font-size="10.00" fill="grey">sort_buttons</text>
</g>
<!-- Node15&#45;&gt;Node14 -->
<g id="edge15_Node000014_Node000015" class="edge">
<title>Node15&#45;&gt;Node14</title>
<g id="a_edge15_Node000014_Node000015"><a xlink:title=" ">
<path fill="none" stroke="#9a32cd" stroke-dasharray="5,2" d="M96.5,-205.58C96.5,-191.76 96.5,-173.68 96.5,-163.15"/>
<polygon fill="#9a32cd" stroke="#9a32cd" points="93,-205.92 96.5,-215.92 100,-205.92 93,-205.92"/>
</a>
</g>
<text text-anchor="start" x="100" y="-186.5" font-family="Helvetica,sans-Serif" font-size="10.00" fill="grey">private</text>
</g>
</g>
</svg>
