<?xml version="1.0" encoding="UTF-8" standalone="no"?>
<!DOCTYPE svg PUBLIC "-//W3C//DTD SVG 1.1//EN"
 "http://www.w3.org/Graphics/SVG/1.1/DTD/svg11.dtd">
<!-- Generated by graphviz version 2.43.0 (0)
 -->
<!-- Title: _PulseExtStreamClass Pages: 1 -->
<svg width="178pt" height="243pt"
 viewBox="0.00 0.00 178.00 243.00" xmlns="http://www.w3.org/2000/svg" xmlns:xlink="http://www.w3.org/1999/xlink">
<g id="graph0" class="graph" transform="scale(1 1) rotate(0) translate(4 239)">
<title>_PulseExtStreamClass</title>
<!-- Node1 -->
<g id="Node000001" class="node">
<title>Node1</title>
<g id="a_Node000001"><a xlink:title=" ">
<polygon fill="#999999" stroke="#666666" points="147.5,-19 22.5,-19 22.5,0 147.5,0 147.5,-19"/>
<text text-anchor="middle" x="85" y="-7" font-family="Helvetica,sans-Serif" font-size="10.00">_PulseExtStreamClass</text>
</a>
</g>
</g>
<!-- Node2 -->
<g id="Node000002" class="node">
<title>Node2</title>
<g id="a_Node000002"><a xlink:href="struct__MateMixerStoredControlClass.html" target="_top" xlink:title=" ">
<polygon fill="white" stroke="#666666" points="168.5,-91 1.5,-91 1.5,-72 168.5,-72 168.5,-91"/>
<text text-anchor="middle" x="85" y="-79" font-family="Helvetica,sans-Serif" font-size="10.00">_MateMixerStoredControlClass</text>
</a>
</g>
</g>
<!-- Node2&#45;&gt;Node1 -->
<g id="edge1_Node000001_Node000002" class="edge">
<title>Node2&#45;&gt;Node1</title>
<g id="a_edge1_Node000001_Node000002"><a xlink:title=" ">
<path fill="none" stroke="#9a32cd" stroke-dasharray="5,2" d="M85,-61.58C85,-47.76 85,-29.68 85,-19.15"/>
<polygon fill="#9a32cd" stroke="#9a32cd" points="81.5,-61.92 85,-71.92 88.5,-61.92 81.5,-61.92"/>
</a>
</g>
<text text-anchor="start" x="88" y="-42.5" font-family="Helvetica,sans-Serif" font-size="10.00" fill="grey">parent_class</text>
</g>
<!-- Node3 -->
<g id="Node000003" class="node">
<title>Node3</title>
<g id="a_Node000003"><a xlink:href="struct__MateMixerStreamControlClass.html" target="_top" xlink:title=" ">
<polygon fill="white" stroke="#666666" points="170,-163 0,-163 0,-144 170,-144 170,-163"/>
<text text-anchor="middle" x="85" y="-151" font-family="Helvetica,sans-Serif" font-size="10.00">_MateMixerStreamControlClass</text>
</a>
</g>
</g>
<!-- Node3&#45;&gt;Node2 -->
<g id="edge2_Node000002_Node000003" class="edge">
<title>Node3&#45;&gt;Node2</title>
<g id="a_edge2_Node000002_Node000003"><a xlink:title=" ">
<path fill="none" stroke="#9a32cd" stroke-dasharray="5,2" d="M85,-133.58C85,-119.76 85,-101.68 85,-91.15"/>
<polygon fill="#9a32cd" stroke="#9a32cd" points="81.5,-133.92 85,-143.92 88.5,-133.92 81.5,-133.92"/>
</a>
</g>
<text text-anchor="start" x="88" y="-114.5" font-family="Helvetica,sans-Serif" font-size="10.00" fill="grey">parent_class</text>
</g>
<!-- Node4 -->
<g id="Node000004" class="node">
<title>Node4</title>
<g id="a_Node000004"><a xlink:href="struct__MateMixerAppInfo.html" target="_top" xlink:title=" ">
<polygon fill="white" stroke="#666666" points="140.5,-235 29.5,-235 29.5,-216 140.5,-216 140.5,-235"/>
<text text-anchor="middle" x="85" y="-223" font-family="Helvetica,sans-Serif" font-size="10.00">_MateMixerAppInfo</text>
</a>
</g>
</g>
<!-- Node4&#45;&gt;Node3 -->
<g id="edge3_Node000003_Node000004" class="edge">
<title>Node4&#45;&gt;Node3</title>
<g id="a_edge3_Node000003_Node000004"><a xlink:title=" ">
<path fill="none" stroke="#9a32cd" stroke-dasharray="5,2" d="M85,-205.58C85,-191.76 85,-173.68 85,-163.15"/>
<polygon fill="#9a32cd" stroke="#9a32cd" points="81.5,-205.92 85,-215.92 88.5,-205.92 81.5,-205.92"/>
</a>
</g>
<text text-anchor="start" x="88" y="-186.5" font-family="Helvetica,sans-Serif" font-size="10.00" fill="grey">get_app_info</text>
</g>
</g>
</svg>
