<?xml version="1.0" encoding="UTF-8" standalone="no"?>
<!DOCTYPE svg PUBLIC "-//W3C//DTD SVG 1.1//EN"
 "http://www.w3.org/Graphics/SVG/1.1/DTD/svg11.dtd">
<!-- Generated by graphviz version 2.43.0 (0)
 -->
<!-- Title: _MaximusApp Pages: 1 -->
<svg width="131pt" height="243pt"
 viewBox="0.00 0.00 131.00 243.00" xmlns="http://www.w3.org/2000/svg" xmlns:xlink="http://www.w3.org/1999/xlink">
<g id="graph0" class="graph" transform="scale(1 1) rotate(0) translate(4 239)">
<title>_MaximusApp</title>
<!-- Node1 -->
<g id="Node000001" class="node">
<title>Node1</title>
<g id="a_Node000001"><a xlink:title=" ">
<polygon fill="#999999" stroke="#666666" points="104.5,-19 18.5,-19 18.5,0 104.5,0 104.5,-19"/>
<text text-anchor="middle" x="61.5" y="-7" font-family="Helvetica,sans-Serif" font-size="10.00">_MaximusApp</text>
</a>
</g>
</g>
<!-- Node2 -->
<g id="Node000002" class="node">
<title>Node2</title>
<g id="a_Node000002"><a xlink:title=" ">
<polygon fill="white" stroke="#666666" points="121.5,-91 1.5,-91 1.5,-72 121.5,-72 121.5,-91"/>
<text text-anchor="middle" x="61.5" y="-79" font-family="Helvetica,sans-Serif" font-size="10.00">_MaximusAppPrivate</text>
</a>
</g>
</g>
<!-- Node2&#45;&gt;Node1 -->
<g id="edge1_Node000001_Node000002" class="edge">
<title>Node2&#45;&gt;Node1</title>
<g id="a_edge1_Node000001_Node000002"><a xlink:title=" ">
<path fill="none" stroke="#9a32cd" stroke-dasharray="5,2" d="M61.5,-61.58C61.5,-47.76 61.5,-29.68 61.5,-19.15"/>
<polygon fill="#9a32cd" stroke="#9a32cd" points="58,-61.92 61.5,-71.92 65,-61.92 58,-61.92"/>
</a>
</g>
<text text-anchor="start" x="65" y="-42.5" font-family="Helvetica,sans-Serif" font-size="10.00" fill="grey">priv</text>
</g>
<!-- Node3 -->
<g id="Node000003" class="node">
<title>Node3</title>
<g id="a_Node000003"><a xlink:href="struct__MaximusBind.html" target="_top" xlink:title=" ">
<polygon fill="white" stroke="#666666" points="106,-163 17,-163 17,-144 106,-144 106,-163"/>
<text text-anchor="middle" x="61.5" y="-151" font-family="Helvetica,sans-Serif" font-size="10.00">_MaximusBind</text>
</a>
</g>
</g>
<!-- Node3&#45;&gt;Node2 -->
<g id="edge2_Node000002_Node000003" class="edge">
<title>Node3&#45;&gt;Node2</title>
<g id="a_edge2_Node000002_Node000003"><a xlink:title=" ">
<path fill="none" stroke="#9a32cd" stroke-dasharray="5,2" d="M61.5,-133.58C61.5,-119.76 61.5,-101.68 61.5,-91.15"/>
<polygon fill="#9a32cd" stroke="#9a32cd" points="58,-133.92 61.5,-143.92 65,-133.92 58,-133.92"/>
</a>
</g>
<text text-anchor="start" x="64.5" y="-114.5" font-family="Helvetica,sans-Serif" font-size="10.00" fill="grey">bind</text>
</g>
<!-- Node4 -->
<g id="Node000004" class="node">
<title>Node4</title>
<g id="a_Node000004"><a xlink:title=" ">
<polygon fill="white" stroke="#666666" points="123,-235 0,-235 0,-216 123,-216 123,-235"/>
<text text-anchor="middle" x="61.5" y="-223" font-family="Helvetica,sans-Serif" font-size="10.00">_MaximusBindPrivate</text>
</a>
</g>
</g>
<!-- Node4&#45;&gt;Node3 -->
<g id="edge3_Node000003_Node000004" class="edge">
<title>Node4&#45;&gt;Node3</title>
<g id="a_edge3_Node000003_Node000004"><a xlink:title=" ">
<path fill="none" stroke="#9a32cd" stroke-dasharray="5,2" d="M61.5,-205.58C61.5,-191.76 61.5,-173.68 61.5,-163.15"/>
<polygon fill="#9a32cd" stroke="#9a32cd" points="58,-205.92 61.5,-215.92 65,-205.92 58,-205.92"/>
</a>
</g>
<text text-anchor="start" x="65" y="-186.5" font-family="Helvetica,sans-Serif" font-size="10.00" fill="grey">priv</text>
</g>
</g>
</svg>
