<?xml version="1.0" encoding="UTF-8" standalone="no"?>
<!DOCTYPE svg PUBLIC "-//W3C//DTD SVG 1.1//EN"
 "http://www.w3.org/Graphics/SVG/1.1/DTD/svg11.dtd">
<!-- Generated by graphviz version 2.43.0 (0)
 -->
<!-- Title: _AlsaToggle Pages: 1 -->
<svg width="847pt" height="476pt"
 viewBox="0.00 0.00 846.50 476.00" xmlns="http://www.w3.org/2000/svg" xmlns:xlink="http://www.w3.org/1999/xlink">
<g id="graph0" class="graph" transform="scale(1 1) rotate(0) translate(4 472)">
<title>_AlsaToggle</title>
<!-- Node1 -->
<g id="Node000001" class="node">
<title>Node1</title>
<g id="a_Node000001"><a xlink:title=" ">
<polygon fill="#999999" stroke="#666666" points="233.5,-19 159.5,-19 159.5,0 233.5,0 233.5,-19"/>
<text text-anchor="middle" x="196.5" y="-7" font-family="Helvetica,sans-Serif" font-size="10.00">_AlsaToggle</text>
</a>
</g>
</g>
<!-- Node2 -->
<g id="Node000002" class="node">
<title>Node2</title>
<g id="a_Node000002"><a xlink:href="struct__MateMixerStreamToggle.html" target="_top" xlink:title=" ">
<polygon fill="white" stroke="#666666" points="195.5,-91 55.5,-91 55.5,-72 195.5,-72 195.5,-91"/>
<text text-anchor="middle" x="125.5" y="-79" font-family="Helvetica,sans-Serif" font-size="10.00">_MateMixerStreamToggle</text>
</a>
</g>
</g>
<!-- Node2&#45;&gt;Node1 -->
<g id="edge1_Node000001_Node000002" class="edge">
<title>Node2&#45;&gt;Node1</title>
<g id="a_edge1_Node000001_Node000002"><a xlink:title=" ">
<path fill="none" stroke="#9a32cd" stroke-dasharray="5,2" d="M141.42,-64.8C155.72,-50.71 176.19,-30.53 187.72,-19.15"/>
<polygon fill="#9a32cd" stroke="#9a32cd" points="138.87,-62.4 134.21,-71.92 143.78,-67.39 138.87,-62.4"/>
</a>
</g>
<text text-anchor="start" x="172.5" y="-42.5" font-family="Helvetica,sans-Serif" font-size="10.00" fill="grey">parent</text>
</g>
<!-- Node3 -->
<g id="Node000003" class="node">
<title>Node3</title>
<g id="a_Node000003"><a xlink:href="struct__MateMixerStreamSwitch.html" target="_top" xlink:title=" ">
<polygon fill="white" stroke="#666666" points="266,-163 125,-163 125,-144 266,-144 266,-163"/>
<text text-anchor="middle" x="195.5" y="-151" font-family="Helvetica,sans-Serif" font-size="10.00">_MateMixerStreamSwitch</text>
</a>
</g>
</g>
<!-- Node3&#45;&gt;Node2 -->
<g id="edge2_Node000002_Node000003" class="edge">
<title>Node3&#45;&gt;Node2</title>
<g id="a_edge2_Node000002_Node000003"><a xlink:title=" ">
<path fill="none" stroke="#9a32cd" stroke-dasharray="5,2" d="M179.8,-136.8C165.71,-122.71 145.53,-102.53 134.15,-91.15"/>
<polygon fill="#9a32cd" stroke="#9a32cd" points="177.37,-139.32 186.92,-143.92 182.32,-134.37 177.37,-139.32"/>
</a>
</g>
<text text-anchor="start" x="173" y="-114.5" font-family="Helvetica,sans-Serif" font-size="10.00" fill="grey">object</text>
</g>
<!-- Node4 -->
<g id="Node000004" class="node">
<title>Node4</title>
<g id="a_Node000004"><a xlink:href="struct__MateMixerSwitch.html" target="_top" xlink:title=" ">
<polygon fill="white" stroke="#666666" points="248.5,-235 142.5,-235 142.5,-216 248.5,-216 248.5,-235"/>
<text text-anchor="middle" x="195.5" y="-223" font-family="Helvetica,sans-Serif" font-size="10.00">_MateMixerSwitch</text>
</a>
</g>
</g>
<!-- Node4&#45;&gt;Node3 -->
<g id="edge3_Node000003_Node000004" class="edge">
<title>Node4&#45;&gt;Node3</title>
<g id="a_edge3_Node000003_Node000004"><a xlink:title=" ">
<path fill="none" stroke="#9a32cd" stroke-dasharray="5,2" d="M195.5,-205.58C195.5,-191.76 195.5,-173.68 195.5,-163.15"/>
<polygon fill="#9a32cd" stroke="#9a32cd" points="192,-205.92 195.5,-215.92 199,-205.92 192,-205.92"/>
</a>
</g>
<text text-anchor="start" x="199" y="-186.5" font-family="Helvetica,sans-Serif" font-size="10.00" fill="grey">object</text>
</g>
<!-- Node5 -->
<g id="Node000005" class="node">
<title>Node5</title>
<g id="a_Node000005"><a xlink:title=" ">
<polygon fill="white" stroke="#666666" points="262.5,-309 122.5,-309 122.5,-290 262.5,-290 262.5,-309"/>
<text text-anchor="middle" x="192.5" y="-297" font-family="Helvetica,sans-Serif" font-size="10.00">_MateMixerSwitchPrivate</text>
</a>
</g>
</g>
<!-- Node5&#45;&gt;Node4 -->
<g id="edge4_Node000004_Node000005" class="edge">
<title>Node5&#45;&gt;Node4</title>
<g id="a_edge4_Node000004_Node000005"><a xlink:title=" ">
<path fill="none" stroke="#9a32cd" stroke-dasharray="5,2" d="M193.29,-279.66C193.89,-265.21 194.69,-245.96 195.14,-235.03"/>
<polygon fill="#9a32cd" stroke="#9a32cd" points="189.78,-279.82 192.86,-289.96 196.77,-280.11 189.78,-279.82"/>
</a>
</g>
<text text-anchor="start" x="198" y="-259.5" font-family="Helvetica,sans-Serif" font-size="10.00" fill="grey">priv</text>
</g>
<!-- Node6 -->
<g id="Node000006" class="node">
<title>Node6</title>
<g id="a_Node000006"><a xlink:href="struct__MateMixerSwitchOption.html" target="_top" xlink:title=" ">
<polygon fill="white" stroke="#666666" points="181.5,-396 43.5,-396 43.5,-377 181.5,-377 181.5,-396"/>
<text text-anchor="middle" x="112.5" y="-384" font-family="Helvetica,sans-Serif" font-size="10.00">_MateMixerSwitchOption</text>
</a>
</g>
</g>
<!-- Node6&#45;&gt;Node5 -->
<g id="edge5_Node000005_Node000006" class="edge">
<title>Node6&#45;&gt;Node5</title>
<g id="a_edge5_Node000005_Node000006"><a xlink:title=" ">
<path fill="none" stroke="#9a32cd" stroke-dasharray="5,2" d="M127.71,-369.34C144.47,-351.53 170.82,-323.53 184.16,-309.36"/>
<polygon fill="#9a32cd" stroke="#9a32cd" points="125.07,-367.04 120.76,-376.72 130.16,-371.84 125.07,-367.04"/>
</a>
</g>
<text text-anchor="start" x="171" y="-340" font-family="Helvetica,sans-Serif" font-size="10.00" fill="grey">active</text>
</g>
<!-- Node15 -->
<g id="Node000015" class="node">
<title>Node15</title>
<g id="a_Node000015"><a xlink:title=" ">
<polygon fill="white" stroke="#666666" points="175,-272 0,-272 0,-253 175,-253 175,-272"/>
<text text-anchor="middle" x="87.5" y="-260" font-family="Helvetica,sans-Serif" font-size="10.00">_MateMixerStreamTogglePrivate</text>
</a>
</g>
</g>
<!-- Node6&#45;&gt;Node15 -->
<g id="edge16_Node000015_Node000006" class="edge">
<title>Node6&#45;&gt;Node15</title>
<g id="a_edge16_Node000015_Node000006"><a xlink:title=" ">
<path fill="none" stroke="#9a32cd" stroke-dasharray="5,2" d="M108.65,-366.69C103.16,-339.9 93.3,-291.81 89.28,-272.19"/>
<polygon fill="#9a32cd" stroke="#9a32cd" points="105.27,-367.63 110.7,-376.73 112.12,-366.23 105.27,-367.63"/>
</a>
</g>
<text text-anchor="start" x="111" y="-348" font-family="Helvetica,sans-Serif" font-size="10.00" fill="grey">off</text>
<text text-anchor="start" x="111" y="-333" font-family="Helvetica,sans-Serif" font-size="10.00" fill="grey">on</text>
</g>
<!-- Node7 -->
<g id="Node000007" class="node">
<title>Node7</title>
<g id="a_Node000007"><a xlink:title=" ">
<polygon fill="white" stroke="#666666" points="199,-468 26,-468 26,-449 199,-449 199,-468"/>
<text text-anchor="middle" x="112.5" y="-456" font-family="Helvetica,sans-Serif" font-size="10.00">_MateMixerSwitchOptionPrivate</text>
</a>
</g>
</g>
<!-- Node7&#45;&gt;Node6 -->
<g id="edge6_Node000006_Node000007" class="edge">
<title>Node7&#45;&gt;Node6</title>
<g id="a_edge6_Node000006_Node000007"><a xlink:title=" ">
<path fill="none" stroke="#9a32cd" stroke-dasharray="5,2" d="M112.5,-438.58C112.5,-424.76 112.5,-406.68 112.5,-396.15"/>
<polygon fill="#9a32cd" stroke="#9a32cd" points="109,-438.92 112.5,-448.92 116,-438.92 109,-438.92"/>
</a>
</g>
<text text-anchor="start" x="116" y="-419.5" font-family="Helvetica,sans-Serif" font-size="10.00" fill="grey">priv</text>
</g>
<!-- Node8 -->
<g id="Node000008" class="node">
<title>Node8</title>
<g id="a_Node000008"><a xlink:title=" ">
<polygon fill="white" stroke="#666666" points="442.5,-235 266.5,-235 266.5,-216 442.5,-216 442.5,-235"/>
<text text-anchor="middle" x="354.5" y="-223" font-family="Helvetica,sans-Serif" font-size="10.00">_MateMixerStreamSwitchPrivate</text>
</a>
</g>
</g>
<!-- Node8&#45;&gt;Node3 -->
<g id="edge7_Node000003_Node000008" class="edge">
<title>Node8&#45;&gt;Node3</title>
<g id="a_edge7_Node000003_Node000008"><a xlink:title=" ">
<path fill="none" stroke="#9a32cd" stroke-dasharray="5,2" d="M325.72,-211.83C293.72,-197.74 242.9,-175.37 215.16,-163.15"/>
<polygon fill="#9a32cd" stroke="#9a32cd" points="324.44,-215.09 335,-215.92 327.26,-208.68 324.44,-215.09"/>
</a>
</g>
<text text-anchor="start" x="297" y="-186.5" font-family="Helvetica,sans-Serif" font-size="10.00" fill="grey">priv</text>
</g>
<!-- Node9 -->
<g id="Node000009" class="node">
<title>Node9</title>
<g id="a_Node000009"><a xlink:href="struct__MateMixerStream.html" target="_top" xlink:title=" ">
<polygon fill="white" stroke="#666666" points="605,-309 496,-309 496,-290 605,-290 605,-309"/>
<text text-anchor="middle" x="550.5" y="-297" font-family="Helvetica,sans-Serif" font-size="10.00">_MateMixerStream</text>
</a>
</g>
</g>
<!-- Node9&#45;&gt;Node8 -->
<g id="edge8_Node000008_Node000009" class="edge">
<title>Node9&#45;&gt;Node8</title>
<g id="a_edge8_Node000008_Node000009"><a xlink:title=" ">
<path fill="none" stroke="#9a32cd" stroke-dasharray="5,2" d="M517.77,-286.48C478.17,-271.93 412.48,-247.8 377.72,-235.03"/>
<polygon fill="#9a32cd" stroke="#9a32cd" points="516.65,-289.8 527.25,-289.96 519.07,-283.22 516.65,-289.8"/>
</a>
</g>
<text text-anchor="start" x="479" y="-259.5" font-family="Helvetica,sans-Serif" font-size="10.00" fill="grey">stream</text>
</g>
<!-- Node14 -->
<g id="Node000014" class="node">
<title>Node14</title>
<g id="a_Node000014"><a xlink:title=" ">
<polygon fill="white" stroke="#666666" points="640,-235 461,-235 461,-216 640,-216 640,-235"/>
<text text-anchor="middle" x="550.5" y="-223" font-family="Helvetica,sans-Serif" font-size="10.00">_MateMixerStreamControlPrivate</text>
</a>
</g>
</g>
<!-- Node9&#45;&gt;Node14 -->
<g id="edge14_Node000014_Node000009" class="edge">
<title>Node9&#45;&gt;Node14</title>
<g id="a_edge14_Node000014_Node000009"><a xlink:title=" ">
<path fill="none" stroke="#9a32cd" stroke-dasharray="5,2" d="M550.5,-279.66C550.5,-265.21 550.5,-245.96 550.5,-235.03"/>
<polygon fill="#9a32cd" stroke="#9a32cd" points="547,-279.96 550.5,-289.96 554,-279.96 547,-279.96"/>
</a>
</g>
<text text-anchor="start" x="554" y="-259.5" font-family="Helvetica,sans-Serif" font-size="10.00" fill="grey">stream</text>
</g>
<!-- Node10 -->
<g id="Node000010" class="node">
<title>Node10</title>
<g id="a_Node000010"><a xlink:title=" ">
<polygon fill="white" stroke="#666666" points="740,-91 597,-91 597,-72 740,-72 740,-91"/>
<text text-anchor="middle" x="668.5" y="-79" font-family="Helvetica,sans-Serif" font-size="10.00">_MateMixerStreamPrivate</text>
</a>
</g>
</g>
<!-- Node10&#45;&gt;Node9 -->
<g id="edge9_Node000009_Node000010" class="edge">
<title>Node10&#45;&gt;Node9</title>
<g id="a_edge9_Node000009_Node000010"><a xlink:title=" ">
<path fill="none" stroke="#9a32cd" stroke-dasharray="5,2" d="M670.84,-101.3C673.66,-131.76 675.22,-192.77 649.5,-235 632.72,-262.55 598.94,-280.28 575.54,-289.82"/>
<polygon fill="#9a32cd" stroke="#9a32cd" points="674.3,-100.78 669.75,-91.22 667.34,-101.54 674.3,-100.78"/>
</a>
</g>
<text text-anchor="start" x="671" y="-186.5" font-family="Helvetica,sans-Serif" font-size="10.00" fill="grey">priv</text>
</g>
<!-- Node11 -->
<g id="Node000011" class="node">
<title>Node11</title>
<g id="a_Node000011"><a xlink:href="struct__MateMixerDevice.html" target="_top" xlink:title=" ">
<polygon fill="white" stroke="#666666" points="813,-163 706,-163 706,-144 813,-144 813,-163"/>
<text text-anchor="middle" x="759.5" y="-151" font-family="Helvetica,sans-Serif" font-size="10.00">_MateMixerDevice</text>
</a>
</g>
</g>
<!-- Node11&#45;&gt;Node10 -->
<g id="edge10_Node000010_Node000011" class="edge">
<title>Node11&#45;&gt;Node10</title>
<g id="a_edge10_Node000010_Node000011"><a xlink:title=" ">
<path fill="none" stroke="#9a32cd" stroke-dasharray="5,2" d="M740.11,-137.58C721.74,-123.46 694.81,-102.74 679.75,-91.15"/>
<polygon fill="#9a32cd" stroke="#9a32cd" points="738.28,-140.59 748.34,-143.92 742.55,-135.05 738.28,-140.59"/>
</a>
</g>
<text text-anchor="start" x="728" y="-114.5" font-family="Helvetica,sans-Serif" font-size="10.00" fill="grey">device</text>
</g>
<!-- Node12 -->
<g id="Node000012" class="node">
<title>Node12</title>
<g id="a_Node000012"><a xlink:title=" ">
<polygon fill="white" stroke="#666666" points="838.5,-235 696.5,-235 696.5,-216 838.5,-216 838.5,-235"/>
<text text-anchor="middle" x="767.5" y="-223" font-family="Helvetica,sans-Serif" font-size="10.00">_MateMixerDevicePrivate</text>
</a>
</g>
</g>
<!-- Node12&#45;&gt;Node11 -->
<g id="edge11_Node000011_Node000012" class="edge">
<title>Node12&#45;&gt;Node11</title>
<g id="a_edge11_Node000011_Node000012"><a xlink:title=" ">
<path fill="none" stroke="#9a32cd" stroke-dasharray="5,2" d="M765.34,-205.58C763.76,-191.76 761.69,-173.68 760.49,-163.15"/>
<polygon fill="#9a32cd" stroke="#9a32cd" points="761.91,-206.38 766.52,-215.92 768.86,-205.58 761.91,-206.38"/>
</a>
</g>
<text text-anchor="start" x="767" y="-186.5" font-family="Helvetica,sans-Serif" font-size="10.00" fill="grey">priv</text>
</g>
<!-- Node13 -->
<g id="Node000013" class="node">
<title>Node13</title>
<g id="a_Node000013"><a xlink:href="struct__MateMixerStreamControl.html" target="_top" xlink:title=" ">
<polygon fill="white" stroke="#666666" points="631.5,-163 487.5,-163 487.5,-144 631.5,-144 631.5,-163"/>
<text text-anchor="middle" x="559.5" y="-151" font-family="Helvetica,sans-Serif" font-size="10.00">_MateMixerStreamControl</text>
</a>
</g>
</g>
<!-- Node13&#45;&gt;Node10 -->
<g id="edge12_Node000010_Node000013" class="edge">
<title>Node13&#45;&gt;Node10</title>
<g id="a_edge12_Node000010_Node000013"><a xlink:title=" ">
<path fill="none" stroke="#9a32cd" stroke-dasharray="5,2" d="M576.77,-137.27C587.27,-128.43 601.17,-117.4 614.5,-109 625.28,-102.2 638.05,-95.87 648.46,-91.09"/>
<polygon fill="#9a32cd" stroke="#9a32cd" points="574.47,-134.64 569.16,-143.81 579.03,-139.95 574.47,-134.64"/>
</a>
</g>
<text text-anchor="start" x="617.5" y="-114.5" font-family="Helvetica,sans-Serif" font-size="10.00" fill="grey">control</text>
</g>
<!-- Node14&#45;&gt;Node13 -->
<g id="edge13_Node000013_Node000014" class="edge">
<title>Node14&#45;&gt;Node13</title>
<g id="a_edge13_Node000013_Node000014"><a xlink:title=" ">
<path fill="none" stroke="#9a32cd" stroke-dasharray="5,2" d="M552.88,-205.99C554.66,-192.13 557.02,-173.79 558.39,-163.15"/>
<polygon fill="#9a32cd" stroke="#9a32cd" points="549.41,-205.55 551.6,-215.92 556.35,-206.44 549.41,-205.55"/>
</a>
</g>
<text text-anchor="start" x="559" y="-186.5" font-family="Helvetica,sans-Serif" font-size="10.00" fill="grey">priv</text>
</g>
<!-- Node15&#45;&gt;Node2 -->
<g id="edge15_Node000002_Node000015" class="edge">
<title>Node15&#45;&gt;Node2</title>
<g id="a_edge15_Node000002_Node000015"><a xlink:title=" ">
<path fill="none" stroke="#9a32cd" stroke-dasharray="5,2" d="M91.41,-243.08C99.51,-204.92 117.86,-118.51 123.69,-91.05"/>
<polygon fill="#9a32cd" stroke="#9a32cd" points="87.99,-242.36 89.33,-252.87 94.83,-243.81 87.99,-242.36"/>
</a>
</g>
<text text-anchor="start" x="108" y="-186.5" font-family="Helvetica,sans-Serif" font-size="10.00" fill="grey">priv</text>
</g>
<!-- Node16 -->
<g id="Node000016" class="node">
<title>Node16</title>
<g id="a_Node000016"><a xlink:title=" ">
<polygon fill="white" stroke="#666666" points="323,-91 214,-91 214,-72 323,-72 323,-91"/>
<text text-anchor="middle" x="268.5" y="-79" font-family="Helvetica,sans-Serif" font-size="10.00">_AlsaTogglePrivate</text>
</a>
</g>
</g>
<!-- Node16&#45;&gt;Node1 -->
<g id="edge17_Node000001_Node000016" class="edge">
<title>Node16&#45;&gt;Node1</title>
<g id="a_edge17_Node000001_Node000016"><a xlink:title=" ">
<path fill="none" stroke="#9a32cd" stroke-dasharray="5,2" d="M252.36,-64.8C237.85,-50.71 217.1,-30.53 205.4,-19.15"/>
<polygon fill="#9a32cd" stroke="#9a32cd" points="250.06,-67.46 259.67,-71.92 254.94,-62.44 250.06,-67.46"/>
</a>
</g>
<text text-anchor="start" x="244" y="-42.5" font-family="Helvetica,sans-Serif" font-size="10.00" fill="grey">priv</text>
</g>
</g>
</svg>
