<?xml version="1.0" encoding="UTF-8" standalone="no"?>
<!DOCTYPE svg PUBLIC "-//W3C//DTD SVG 1.1//EN"
 "http://www.w3.org/Graphics/SVG/1.1/DTD/svg11.dtd">
<!-- Generated by graphviz version 2.43.0 (0)
 -->
<!-- Title: CajaDesktopDirectory Pages: 1 -->
<!--zoomable 686 -->

<svg id="main" version="1.1" xmlns="http://www.w3.org/2000/svg" xmlns:xlink="http://www.w3.org/1999/xlink" xml:space="preserve" onload="init(evt)">

<style type="text/css"><![CDATA[
.node, .edge {opacity: 0.7;}
.node.selected, .edge.selected {opacity: 1;}
.edge:hover path { stroke: red; }
.edge:hover polygon { stroke: red; fill: red; }
]]></style>

<defs>
  <circle id="rim" cx="0" cy="0" r="7"/>
  <circle id="rim2" cx="0" cy="0" r="3.5"/>
  <g id="zoomPlus">
    <use xlink:href="#rim" fill="#404040"><set attributeName="fill" to="#808080" begin="zoomplus.mouseover" end="zoomplus.mouseout"/></use>
    <path d="M-4,0h8M0,-4v8" fill="none" stroke="white" stroke-width="1.5" pointer-events="none"/>
  </g>
  <g id="zoomMin">
    <use xlink:href="#rim" fill="#404040"><set attributeName="fill" to="#808080" begin="zoomminus.mouseover" end="zoomminus.mouseout"/></use>
    <path d="M-4,0h8" fill="none" stroke="white" stroke-width="1.5" pointer-events="none"/>
  </g>
  <g id="arrowUp" transform="translate(30 24)">
    <use xlink:href="#rim"/>
    <path pointer-events="none" fill="none" stroke="white" stroke-width="1.5" d="M0,-3.0v7 M-2.5,-0.5L0,-3.0L2.5,-0.5"/>
  </g>
  <g id="arrowRight" transform="rotate(90) translate(36 -43)">
    <use xlink:href="#rim"/>
    <path pointer-events="none" fill="none" stroke="white" stroke-width="1.5" d="M0,-3.0v7 M-2.5,-0.5L0,-3.0L2.5,-0.5"/>
  </g>
  <g id="arrowDown" transform="rotate(180) translate(-30 -48)">
    <use xlink:href="#rim"/>
    <path pointer-events="none" fill="none" stroke="white" stroke-width="1.5" d="M0,-3.0v7 M-2.5,-0.5L0,-3.0L2.5,-0.5"/>
  </g>
  <g id="arrowLeft" transform="rotate(270) translate(-36 17)">
    <use xlink:href="#rim"/>
    <path pointer-events="none" fill="none" stroke="white" stroke-width="1.5" d="M0,-3.0v7 M-2.5,-0.5L0,-3.0L2.5,-0.5"/>
  </g>
  <g id="resetDef">
    <use xlink:href="#rim2" fill="#404040"><set attributeName="fill" to="#808080" begin="reset.mouseover" end="reset.mouseout"/></use>
  </g>
</defs>
<script type="application/ecmascript">
var viewWidth = 1341;
var viewHeight = 686;
var sectionId = 'dynsection-0';
</script>
<script type="application/ecmascript" xlink:href="svg.min.js"/>
<svg id="graph" class="graph">
<g id="viewport">
<title>CajaDesktopDirectory</title>
<!-- Node1 -->
<g id="Node000001" class="node">
<title>Node1</title>
<g id="a_Node000001"><a xlink:title=" ">
<polygon fill="#999999" stroke="#666666" points="754,-335.21 630,-335.21 630,-316.21 754,-316.21 754,-335.21"/>
<text text-anchor="middle" x="692" y="-323.21" font-family="Helvetica,sans-Serif" font-size="10.00">CajaDesktopDirectory</text>
</a>
</g>
</g>
<!-- Node2 -->
<g id="Node000002" class="node">
<title>Node2</title>
<g id="a_Node000002"><a xlink:href="structCajaDirectory.html" target="_top" xlink:title=" ">
<polygon fill="white" stroke="#666666" points="120.5,-385.21 37.5,-385.21 37.5,-366.21 120.5,-366.21 120.5,-385.21"/>
<text text-anchor="middle" x="79" y="-373.21" font-family="Helvetica,sans-Serif" font-size="10.00">CajaDirectory</text>
</a>
</g>
</g>
<!-- Node2&#45;&gt;Node1 -->
<g id="edge1_Node000001_Node000002" class="edge">
<title>Node2&#45;&gt;Node1</title>
<g id="a_edge1_Node000001_Node000002"><a xlink:title=" ">
<path fill="none" stroke="#9a32cd" stroke-dasharray="5,2" d="M130.55,-371.57C242.12,-362.44 509.11,-340.6 629.85,-330.71"/>
<polygon fill="#9a32cd" stroke="#9a32cd" points="130.24,-368.09 120.56,-372.39 130.81,-375.06 130.24,-368.09"/>
</a>
</g>
<text text-anchor="start" x="392" y="-359.21" font-family="Helvetica,sans-Serif" font-size="10.00" fill="grey">parent_slot</text>
</g>
<!-- Node5 -->
<g id="Node000005" class="node">
<title>Node5</title>
<g id="a_Node000005"><a xlink:href="struct__CajaFilePrivate.html" target="_top" xlink:title=" ">
<polygon fill="white" stroke="#666666" points="466.5,-270.21 371.5,-270.21 371.5,-251.21 466.5,-251.21 466.5,-270.21"/>
<text text-anchor="middle" x="419" y="-258.21" font-family="Helvetica,sans-Serif" font-size="10.00">_CajaFilePrivate</text>
</a>
</g>
</g>
<!-- Node2&#45;&gt;Node5 -->
<g id="edge5_Node000005_Node000002" class="edge">
<title>Node2&#45;&gt;Node5</title>
<g id="a_edge5_Node000005_Node000002"><a xlink:title=" ">
<path fill="none" stroke="#9a32cd" stroke-dasharray="5,2" d="M93.51,-358.11C110.36,-337.59 141.23,-304.48 176,-288.71 184.76,-284.74 303.38,-272.26 371.22,-265.38"/>
<polygon fill="#9a32cd" stroke="#9a32cd" points="90.68,-356.05 87.17,-366.04 96.15,-360.41 90.68,-356.05"/>
</a>
</g>
<text text-anchor="start" x="227" y="-294.21" font-family="Helvetica,sans-Serif" font-size="10.00" fill="grey">directory</text>
</g>
<!-- Node9 -->
<g id="Node000009" class="node">
<title>Node9</title>
<g id="a_Node000009"><a xlink:title=" ">
<polygon fill="white" stroke="#666666" points="1030,-533.21 920,-533.21 920,-514.21 1030,-514.21 1030,-533.21"/>
<text text-anchor="middle" x="975" y="-521.21" font-family="Helvetica,sans-Serif" font-size="10.00">DirectoryLoadState</text>
</a>
</g>
</g>
<!-- Node2&#45;&gt;Node9 -->
<g id="edge10_Node000009_Node000002" class="edge">
<title>Node2&#45;&gt;Node9</title>
<g id="a_edge10_Node000009_Node000002"><a xlink:title=" ">
<path fill="none" stroke="#9a32cd" stroke-dasharray="5,2" d="M99.94,-391.37C118.56,-405.18 147.66,-424.78 176,-435.71 427.09,-532.56 503.94,-518.84 772,-542.71 826.89,-547.6 841.28,-549.28 896,-542.71 911.5,-540.85 928.37,-536.98 942.44,-533.22"/>
<polygon fill="#9a32cd" stroke="#9a32cd" points="102.01,-388.54 91.92,-385.29 97.78,-394.12 102.01,-388.54"/>
</a>
</g>
<text text-anchor="start" x="542" y="-535.21" font-family="Helvetica,sans-Serif" font-size="10.00" fill="grey">directory</text>
</g>
<!-- Node10 -->
<g id="Node000010" class="node">
<title>Node10</title>
<g id="a_Node000010"><a xlink:title=" ">
<polygon fill="white" stroke="#666666" points="1033,-470.21 917,-470.21 917,-451.21 1033,-451.21 1033,-470.21"/>
<text text-anchor="middle" x="975" y="-458.21" font-family="Helvetica,sans-Serif" font-size="10.00">DirectoryCountState</text>
</a>
</g>
</g>
<!-- Node2&#45;&gt;Node10 -->
<g id="edge13_Node000010_Node000002" class="edge">
<title>Node2&#45;&gt;Node10</title>
<g id="a_edge13_Node000010_Node000002"><a xlink:title=" ">
<path fill="none" stroke="#9a32cd" stroke-dasharray="5,2" d="M113.64,-388.87C131.84,-395.49 154.86,-403.07 176,-407.71 436.31,-464.83 505.9,-459.02 772,-473.71 827.03,-476.75 841.08,-478.26 896,-473.71 905.17,-472.95 914.88,-471.7 924.22,-470.26"/>
<polygon fill="#9a32cd" stroke="#9a32cd" points="114.66,-385.51 104.06,-385.31 112.22,-392.07 114.66,-385.51"/>
</a>
</g>
<text text-anchor="start" x="542" y="-470.21" font-family="Helvetica,sans-Serif" font-size="10.00" fill="grey">directory</text>
</g>
<!-- Node11 -->
<g id="Node000011" class="node">
<title>Node11</title>
<g id="a_Node000011"><a xlink:title=" ">
<polygon fill="white" stroke="#666666" points="612,-628.21 516,-628.21 516,-609.21 612,-609.21 612,-628.21"/>
<text text-anchor="middle" x="564" y="-616.21" font-family="Helvetica,sans-Serif" font-size="10.00">DeepCountState</text>
</a>
</g>
</g>
<!-- Node2&#45;&gt;Node11 -->
<g id="edge16_Node000011_Node000002" class="edge">
<title>Node2&#45;&gt;Node11</title>
<g id="a_edge16_Node000011_Node000002"><a xlink:title=" ">
<path fill="none" stroke="#9a32cd" stroke-dasharray="5,2" d="M82.2,-395.58C88.2,-439.34 109.19,-543.86 176,-590.71 229.57,-628.27 424.66,-624.95 515.66,-621.17"/>
<polygon fill="#9a32cd" stroke="#9a32cd" points="85.66,-395.1 80.95,-385.61 78.72,-395.97 85.66,-395.1"/>
</a>
</g>
<text text-anchor="start" x="227" y="-626.21" font-family="Helvetica,sans-Serif" font-size="10.00" fill="grey">directory</text>
</g>
<!-- Node12 -->
<g id="Node000012" class="node">
<title>Node12</title>
<g id="a_Node000012"><a xlink:title=" ">
<polygon fill="white" stroke="#666666" points="1018.5,-433.21 931.5,-433.21 931.5,-414.21 1018.5,-414.21 1018.5,-433.21"/>
<text text-anchor="middle" x="975" y="-421.21" font-family="Helvetica,sans-Serif" font-size="10.00">MimeListState</text>
</a>
</g>
</g>
<!-- Node2&#45;&gt;Node12 -->
<g id="edge18_Node000012_Node000002" class="edge">
<title>Node2&#45;&gt;Node12</title>
<g id="a_edge18_Node000012_Node000002"><a xlink:title=" ">
<path fill="none" stroke="#9a32cd" stroke-dasharray="5,2" d="M130.87,-383.47C145.41,-385.46 161.31,-387.4 176,-388.71 463.64,-414.44 811.38,-421.47 931.09,-423.2"/>
<polygon fill="#9a32cd" stroke="#9a32cd" points="130.94,-379.95 120.55,-382.03 129.97,-386.88 130.94,-379.95"/>
</a>
</g>
<text text-anchor="start" x="542" y="-419.21" font-family="Helvetica,sans-Serif" font-size="10.00" fill="grey">directory</text>
</g>
<!-- Node13 -->
<g id="Node000013" class="node">
<title>Node13</title>
<g id="a_Node000013"><a xlink:title=" ">
<polygon fill="white" stroke="#666666" points="873,-591.21 795,-591.21 795,-572.21 873,-572.21 873,-591.21"/>
<text text-anchor="middle" x="834" y="-579.21" font-family="Helvetica,sans-Serif" font-size="10.00">GetInfoState</text>
</a>
</g>
</g>
<!-- Node2&#45;&gt;Node13 -->
<g id="edge21_Node000013_Node000002" class="edge">
<title>Node2&#45;&gt;Node13</title>
<g id="a_edge21_Node000013_Node000002"><a xlink:title=" ">
<path fill="none" stroke="#9a32cd" stroke-dasharray="5,2" d="M84.66,-395.64C94.44,-432.47 120.91,-510.54 176,-544.71 280,-609.22 670.1,-591.67 794.58,-584.23"/>
<polygon fill="#9a32cd" stroke="#9a32cd" points="87.97,-394.48 82.15,-385.63 81.18,-396.18 87.97,-394.48"/>
</a>
</g>
<text text-anchor="start" x="397" y="-597.21" font-family="Helvetica,sans-Serif" font-size="10.00" fill="grey">directory</text>
</g>
<!-- Node14 -->
<g id="Node000014" class="node">
<title>Node14</title>
<g id="a_Node000014"><a xlink:title=" ">
<polygon fill="white" stroke="#666666" points="1022,-396.21 928,-396.21 928,-377.21 1022,-377.21 1022,-396.21"/>
<text text-anchor="middle" x="975" y="-384.21" font-family="Helvetica,sans-Serif" font-size="10.00">ThumbnailState</text>
</a>
</g>
</g>
<!-- Node2&#45;&gt;Node14 -->
<g id="edge23_Node000014_Node000002" class="edge">
<title>Node2&#45;&gt;Node14</title>
<g id="a_edge23_Node000014_Node000002"><a xlink:title=" ">
<path fill="none" stroke="#9a32cd" stroke-dasharray="5,2" d="M130.77,-375.62C306.16,-375.3 876.87,-374.37 896,-375.71 906.37,-376.44 917.45,-377.7 927.92,-379.12"/>
<polygon fill="#9a32cd" stroke="#9a32cd" points="130.76,-372.11 120.77,-375.63 130.77,-379.11 130.76,-372.11"/>
</a>
</g>
<text text-anchor="start" x="542" y="-380.21" font-family="Helvetica,sans-Serif" font-size="10.00" fill="grey">directory</text>
</g>
<!-- Node15 -->
<g id="Node000015" class="node">
<title>Node15</title>
<g id="a_Node000015"><a xlink:title=" ">
<polygon fill="white" stroke="#666666" points="1011.5,-260.21 938.5,-260.21 938.5,-241.21 1011.5,-241.21 1011.5,-260.21"/>
<text text-anchor="middle" x="975" y="-248.21" font-family="Helvetica,sans-Serif" font-size="10.00">MountState</text>
</a>
</g>
</g>
<!-- Node2&#45;&gt;Node15 -->
<g id="edge26_Node000015_Node000002" class="edge">
<title>Node2&#45;&gt;Node15</title>
<g id="a_edge26_Node000015_Node000002"><a xlink:title=" ">
<path fill="none" stroke="#9a32cd" stroke-dasharray="5,2" d="M93.29,-357.65C119.28,-322.34 174.49,-247.5 176,-246.71 310.82,-176.4 801.11,-229.6 938.18,-246.2"/>
<polygon fill="#9a32cd" stroke="#9a32cd" points="90.18,-355.96 87.08,-366.09 95.82,-360.11 90.18,-355.96"/>
</a>
</g>
<text text-anchor="start" x="542" y="-222.21" font-family="Helvetica,sans-Serif" font-size="10.00" fill="grey">directory</text>
</g>
<!-- Node16 -->
<g id="Node000016" class="node">
<title>Node16</title>
<g id="a_Node000016"><a xlink:title=" ">
<polygon fill="white" stroke="#666666" points="1032,-209.21 918,-209.21 918,-190.21 1032,-190.21 1032,-209.21"/>
<text text-anchor="middle" x="975" y="-197.21" font-family="Helvetica,sans-Serif" font-size="10.00">FilesystemInfoState</text>
</a>
</g>
</g>
<!-- Node2&#45;&gt;Node16 -->
<g id="edge29_Node000016_Node000002" class="edge">
<title>Node2&#45;&gt;Node16</title>
<g id="a_edge29_Node000016_Node000002"><a xlink:title=" ">
<path fill="none" stroke="#9a32cd" stroke-dasharray="5,2" d="M95.72,-358.26C113.1,-338.19 140.88,-303.62 158,-269.71 170.17,-245.62 154.75,-228.35 176,-211.71 290.75,-121.86 755.81,-171.58 917.93,-192.16"/>
<polygon fill="#9a32cd" stroke="#9a32cd" points="92.95,-356.11 88.98,-365.93 98.21,-360.74 92.95,-356.11"/>
</a>
</g>
<text text-anchor="start" x="542" y="-170.21" font-family="Helvetica,sans-Serif" font-size="10.00" fill="grey">directory</text>
</g>
<!-- Node17 -->
<g id="Node000017" class="node">
<title>Node17</title>
<g id="a_Node000017"><a xlink:title=" ">
<polygon fill="white" stroke="#666666" points="1036,-145.21 914,-145.21 914,-126.21 1036,-126.21 1036,-145.21"/>
<text text-anchor="middle" x="975" y="-133.21" font-family="Helvetica,sans-Serif" font-size="10.00">TopLeftTextReadState</text>
</a>
</g>
</g>
<!-- Node2&#45;&gt;Node17 -->
<g id="edge32_Node000017_Node000002" class="edge">
<title>Node2&#45;&gt;Node17</title>
<g id="a_edge32_Node000017_Node000002"><a xlink:title=" ">
<path fill="none" stroke="#9a32cd" stroke-dasharray="5,2" d="M96.57,-358.65C114.7,-338.93 143.16,-304.68 158,-269.71 176.67,-225.72 140.6,-195.81 176,-163.71 283.25,-66.46 746.73,-109.27 913.74,-128.32"/>
<polygon fill="#9a32cd" stroke="#9a32cd" points="93.8,-356.49 89.5,-366.18 98.9,-361.29 93.8,-356.49"/>
</a>
</g>
<text text-anchor="start" x="542" y="-110.21" font-family="Helvetica,sans-Serif" font-size="10.00" fill="grey">directory</text>
</g>
<!-- Node18 -->
<g id="Node000018" class="node">
<title>Node18</title>
<g id="a_Node000018"><a xlink:title=" ">
<polygon fill="white" stroke="#666666" points="1028,-108.21 922,-108.21 922,-89.21 1028,-89.21 1028,-108.21"/>
<text text-anchor="middle" x="975" y="-96.21" font-family="Helvetica,sans-Serif" font-size="10.00">LinkInfoReadState</text>
</a>
</g>
</g>
<!-- Node2&#45;&gt;Node18 -->
<g id="edge35_Node000018_Node000002" class="edge">
<title>Node2&#45;&gt;Node18</title>
<g id="a_edge35_Node000018_Node000002"><a xlink:title=" ">
<path fill="none" stroke="#9a32cd" stroke-dasharray="5,2" d="M96.97,-358.75C115.43,-339.16 144.15,-305.05 158,-269.71 170.98,-236.6 150.51,-135.5 176,-110.71 281.53,-8.06 761.71,-67.56 921.85,-90.74"/>
<polygon fill="#9a32cd" stroke="#9a32cd" points="94.42,-356.36 89.99,-365.99 99.45,-361.22 94.42,-356.36"/>
</a>
</g>
<text text-anchor="start" x="542" y="-63.21" font-family="Helvetica,sans-Serif" font-size="10.00" fill="grey">directory</text>
</g>
<!-- Node19 -->
<g id="Node000019" class="node">
<title>Node19</title>
<g id="a_Node000019"><a xlink:title=" ">
<polygon fill="white" stroke="#666666" points="498,-307.21 340,-307.21 340,-288.21 498,-288.21 498,-307.21"/>
<text text-anchor="middle" x="419" y="-295.21" font-family="Helvetica,sans-Serif" font-size="10.00">CajaDesktopDirectoryDetails</text>
</a>
</g>
</g>
<!-- Node2&#45;&gt;Node19 -->
<g id="edge38_Node000019_Node000002" class="edge">
<title>Node2&#45;&gt;Node19</title>
<g id="a_edge38_Node000019_Node000002"><a xlink:title=" ">
<path fill="none" stroke="#9a32cd" stroke-dasharray="5,2" d="M106.37,-361.5C125.25,-351.93 151.54,-339.81 176,-332.71 192.03,-328.06 279.67,-315.92 344.91,-307.24"/>
<polygon fill="#9a32cd" stroke="#9a32cd" points="104.76,-358.39 97.48,-366.09 107.97,-364.61 104.76,-358.39"/>
</a>
</g>
<text text-anchor="start" x="215" y="-338.21" font-family="Helvetica,sans-Serif" font-size="10.00" fill="grey">real_directory</text>
</g>
<!-- Node3 -->
<g id="Node000003" class="node">
<title>Node3</title>
<g id="a_Node000003"><a xlink:href="struct__CajaDirectoryPrivate.html" target="_top" xlink:title=" ">
<polygon fill="white" stroke="#666666" points="1333,-348.21 1210,-348.21 1210,-329.21 1333,-329.21 1333,-348.21"/>
<text text-anchor="middle" x="1271.5" y="-336.21" font-family="Helvetica,sans-Serif" font-size="10.00">_CajaDirectoryPrivate</text>
</a>
</g>
</g>
<!-- Node3&#45;&gt;Node2 -->
<g id="edge2_Node000002_Node000003" class="edge">
<title>Node3&#45;&gt;Node2</title>
<g id="a_edge2_Node000002_Node000003"><a xlink:title=" ">
<path fill="none" stroke="#9a32cd" stroke-dasharray="5,2" d="M1270.66,-358.59C1269.93,-407.2 1261.07,-533.02 1192,-600.71 1120.84,-670.45 1075.63,-660.71 976,-660.71 418,-660.71 418,-660.71 418,-660.71 310.11,-660.71 261.8,-707.12 176,-641.71 89.52,-575.78 80.82,-424.8 80.05,-385.31"/>
<polygon fill="#9a32cd" stroke="#9a32cd" points="1274.16,-358.48 1270.71,-348.46 1267.16,-358.44 1274.16,-358.48"/>
</a>
</g>
<text text-anchor="start" x="675" y="-666.21" font-family="Helvetica,sans-Serif" font-size="10.00" fill="grey">details</text>
</g>
<!-- Node4 -->
<g id="Node000004" class="node">
<title>Node4</title>
<g id="a_Node000004"><a xlink:href="structCajaFile.html" target="_top" xlink:title=" ">
<polygon fill="white" stroke="#666666" points="720,-277.21 664,-277.21 664,-258.21 720,-258.21 720,-277.21"/>
<text text-anchor="middle" x="692" y="-265.21" font-family="Helvetica,sans-Serif" font-size="10.00">CajaFile</text>
</a>
</g>
</g>
<!-- Node4&#45;&gt;Node3 -->
<g id="edge3_Node000003_Node000004" class="edge">
<title>Node4&#45;&gt;Node3</title>
<g id="a_edge3_Node000003_Node000004"><a xlink:title=" ">
<path fill="none" stroke="#9a32cd" stroke-dasharray="5,2" d="M730.4,-275.58C743.51,-278.14 758.36,-280.8 772,-282.71 888.68,-299.05 918.94,-293.41 1036,-306.71 1095.2,-313.44 1162.57,-322.81 1209.86,-329.67"/>
<polygon fill="#9a32cd" stroke="#9a32cd" points="730.8,-272.09 720.31,-273.57 729.44,-278.96 730.8,-272.09"/>
</a>
</g>
<text text-anchor="start" x="929" y="-357.71" font-family="Helvetica,sans-Serif" font-size="10.00" fill="grey">as_file</text>
<text text-anchor="start" x="929" y="-342.71" font-family="Helvetica,sans-Serif" font-size="10.00" fill="grey">deep_count_file</text>
<text text-anchor="start" x="929" y="-327.71" font-family="Helvetica,sans-Serif" font-size="10.00" fill="grey">extension_info_file</text>
<text text-anchor="start" x="929" y="-312.71" font-family="Helvetica,sans-Serif" font-size="10.00" fill="grey">get_info_file</text>
</g>
<!-- Node4&#45;&gt;Node9 -->
<g id="edge11_Node000009_Node000004" class="edge">
<title>Node4&#45;&gt;Node9</title>
<g id="a_edge11_Node000009_Node000004"><a xlink:title=" ">
<path fill="none" stroke="#9a32cd" stroke-dasharray="5,2" d="M725.98,-282.14C736.64,-288.44 747.39,-296.91 754,-307.71 773.37,-339.36 747.59,-445.77 772,-473.71 808.37,-515.34 873.42,-525.07 919.88,-526.16"/>
<polygon fill="#9a32cd" stroke="#9a32cd" points="727.61,-279.04 717.15,-277.34 724.27,-285.19 727.61,-279.04"/>
</a>
</g>
<text text-anchor="start" x="789" y="-530.21" font-family="Helvetica,sans-Serif" font-size="10.00" fill="grey">load_directory_file</text>
</g>
<!-- Node4&#45;&gt;Node10 -->
<g id="edge14_Node000010_Node000004" class="edge">
<title>Node4&#45;&gt;Node10</title>
<g id="a_edge14_Node000010_Node000004"><a xlink:title=" ">
<path fill="none" stroke="#9a32cd" stroke-dasharray="5,2" d="M725.15,-282.05C735.93,-288.41 746.98,-296.93 754,-307.71 780.79,-348.86 738.17,-381.12 772,-416.71 791.6,-437.33 864.36,-449.28 916.94,-455.4"/>
<polygon fill="#9a32cd" stroke="#9a32cd" points="726.72,-278.91 716.26,-277.21 723.37,-285.07 726.72,-278.91"/>
</a>
</g>
<text text-anchor="start" x="810" y="-458.21" font-family="Helvetica,sans-Serif" font-size="10.00" fill="grey">count_file</text>
</g>
<!-- Node4&#45;&gt;Node12 -->
<g id="edge19_Node000012_Node000004" class="edge">
<title>Node4&#45;&gt;Node12</title>
<g id="a_edge19_Node000012_Node000004"><a xlink:title=" ">
<path fill="none" stroke="#9a32cd" stroke-dasharray="5,2" d="M722.66,-282.25C733.66,-288.8 745.5,-297.4 754,-307.71 767.44,-324.01 756.71,-337.13 772,-351.71 814.32,-392.07 842.7,-371.65 896,-395.71 904.34,-399.48 905.57,-402.15 914,-405.71 921.51,-408.88 929.78,-411.74 937.7,-414.2"/>
<polygon fill="#9a32cd" stroke="#9a32cd" points="724.15,-279.07 713.71,-277.23 720.72,-285.17 724.15,-279.07"/>
</a>
</g>
<text text-anchor="start" x="799" y="-401.21" font-family="Helvetica,sans-Serif" font-size="10.00" fill="grey">mime_list_file</text>
</g>
<!-- Node4&#45;&gt;Node14 -->
<g id="edge24_Node000014_Node000004" class="edge">
<title>Node4&#45;&gt;Node14</title>
<g id="a_edge24_Node000014_Node000004"><a xlink:title=" ">
<path fill="none" stroke="#9a32cd" stroke-dasharray="5,2" d="M717.23,-282.26C732.48,-290.83 752.82,-301.23 772,-307.71 825.1,-325.66 850.41,-298.1 896,-330.71 909.27,-340.2 901.73,-351.96 914,-362.71 921.09,-368.92 929.99,-373.64 938.74,-377.18"/>
<polygon fill="#9a32cd" stroke="#9a32cd" points="718.87,-279.17 708.46,-277.21 715.38,-285.24 718.87,-279.17"/>
</a>
</g>
<text text-anchor="start" x="826" y="-336.21" font-family="Helvetica,sans-Serif" font-size="10.00" fill="grey">file</text>
</g>
<!-- Node4&#45;&gt;Node15 -->
<g id="edge27_Node000015_Node000004" class="edge">
<title>Node4&#45;&gt;Node15</title>
<g id="a_edge27_Node000015_Node000004"><a xlink:title=" ">
<path fill="none" stroke="#9a32cd" stroke-dasharray="5,2" d="M730.45,-265.45C784.88,-262.15 885.16,-256.09 938.48,-252.86"/>
<polygon fill="#9a32cd" stroke="#9a32cd" points="729.97,-261.97 720.2,-266.07 730.39,-268.95 729.97,-261.97"/>
</a>
</g>
<text text-anchor="start" x="826" y="-268.21" font-family="Helvetica,sans-Serif" font-size="10.00" fill="grey">file</text>
</g>
<!-- Node4&#45;&gt;Node16 -->
<g id="edge30_Node000016_Node000004" class="edge">
<title>Node4&#45;&gt;Node16</title>
<g id="a_edge30_Node000016_Node000004"><a xlink:title=" ">
<path fill="none" stroke="#9a32cd" stroke-dasharray="5,2" d="M722.87,-253.89C737.43,-247.6 755.36,-240.51 772,-235.71 820.43,-221.75 877.04,-212.22 917.99,-206.5"/>
<polygon fill="#9a32cd" stroke="#9a32cd" points="721.11,-250.84 713.38,-258.08 723.94,-257.25 721.11,-250.84"/>
</a>
</g>
<text text-anchor="start" x="826" y="-241.21" font-family="Helvetica,sans-Serif" font-size="10.00" fill="grey">file</text>
</g>
<!-- Node4&#45;&gt;Node17 -->
<g id="edge33_Node000017_Node000004" class="edge">
<title>Node4&#45;&gt;Node17</title>
<g id="a_edge33_Node000017_Node000004"><a xlink:title=" ">
<path fill="none" stroke="#9a32cd" stroke-dasharray="5,2" d="M706.06,-250.3C720.34,-232.48 744.83,-205.27 772,-189.71 815.94,-164.54 871.98,-150.77 913.88,-143.45"/>
<polygon fill="#9a32cd" stroke="#9a32cd" points="703.29,-248.16 699.91,-258.2 708.81,-252.46 703.29,-248.16"/>
</a>
</g>
<text text-anchor="start" x="826" y="-195.21" font-family="Helvetica,sans-Serif" font-size="10.00" fill="grey">file</text>
</g>
<!-- Node4&#45;&gt;Node18 -->
<g id="edge36_Node000018_Node000004" class="edge">
<title>Node4&#45;&gt;Node18</title>
<g id="a_edge36_Node000018_Node000004"><a xlink:title=" ">
<path fill="none" stroke="#9a32cd" stroke-dasharray="5,2" d="M697.81,-248.48C706.71,-217.27 728.88,-156.14 772,-126.71 816.01,-96.67 878.09,-92.27 921.78,-93.75"/>
<polygon fill="#9a32cd" stroke="#9a32cd" points="694.42,-247.6 695.21,-258.17 701.18,-249.42 694.42,-247.6"/>
</a>
</g>
<text text-anchor="start" x="826" y="-132.21" font-family="Helvetica,sans-Serif" font-size="10.00" fill="grey">file</text>
</g>
<!-- Node5&#45;&gt;Node4 -->
<g id="edge4_Node000004_Node000005" class="edge">
<title>Node5&#45;&gt;Node4</title>
<g id="a_edge4_Node000004_Node000005"><a xlink:title=" ">
<path fill="none" stroke="#9a32cd" stroke-dasharray="5,2" d="M476.6,-262.17C534.02,-263.66 620.45,-265.89 663.95,-267.01"/>
<polygon fill="#9a32cd" stroke="#9a32cd" points="476.67,-258.67 466.59,-261.91 476.49,-265.67 476.67,-258.67"/>
</a>
</g>
<text text-anchor="start" x="547" y="-271.21" font-family="Helvetica,sans-Serif" font-size="10.00" fill="grey">details</text>
</g>
<!-- Node6 -->
<g id="Node000006" class="node">
<title>Node6</title>
<g id="a_Node000006"><a xlink:href="structCajaFileSortByEmblemCache.html" target="_top" xlink:title=" ">
<polygon fill="white" stroke="#666666" points="158,-261.21 0,-261.21 0,-242.21 158,-242.21 158,-261.21"/>
<text text-anchor="middle" x="79" y="-249.21" font-family="Helvetica,sans-Serif" font-size="10.00">CajaFileSortByEmblemCache</text>
</a>
</g>
</g>
<!-- Node6&#45;&gt;Node5 -->
<g id="edge6_Node000005_Node000006" class="edge">
<title>Node6&#45;&gt;Node5</title>
<g id="a_edge6_Node000005_Node000006"><a xlink:title=" ">
<path fill="none" stroke="#9a32cd" stroke-dasharray="5,2" d="M168.44,-250.4C214.28,-250.15 271.17,-250.49 322,-252.71 338.04,-253.41 355.55,-254.71 371.17,-256.06"/>
<polygon fill="#9a32cd" stroke="#9a32cd" points="168.21,-246.9 158.24,-250.47 168.26,-253.9 168.21,-246.9"/>
</a>
</g>
<text text-anchor="start" x="179" y="-258.21" font-family="Helvetica,sans-Serif" font-size="10.00" fill="grey">compare_by_emblem_cache</text>
</g>
<!-- Node7 -->
<g id="Node000007" class="node">
<title>Node7</title>
<g id="a_Node000007"><a xlink:title=" ">
<polygon fill="white" stroke="#666666" points="1018.5,-71.21 931.5,-71.21 931.5,-52.21 1018.5,-52.21 1018.5,-71.21"/>
<text text-anchor="middle" x="975" y="-59.21" font-family="Helvetica,sans-Serif" font-size="10.00">CajaFileQueue</text>
</a>
</g>
</g>
<!-- Node7&#45;&gt;Node3 -->
<g id="edge7_Node000003_Node000007" class="edge">
<title>Node7&#45;&gt;Node3</title>
<g id="a_edge7_Node000003_Node000007"><a xlink:title=" ">
<path fill="none" stroke="#9a32cd" stroke-dasharray="5,2" d="M1028.91,-54.93C1084.53,-49.01 1167.32,-43.98 1192,-62.71 1236.64,-96.59 1263.45,-284.12 1269.29,-329.04"/>
<polygon fill="#9a32cd" stroke="#9a32cd" points="1028.42,-51.47 1018.87,-56.04 1029.19,-58.42 1028.42,-51.47"/>
</a>
</g>
<text text-anchor="start" x="1075" y="-98.21" font-family="Helvetica,sans-Serif" font-size="10.00" fill="grey">extension_queue</text>
<text text-anchor="start" x="1075" y="-83.21" font-family="Helvetica,sans-Serif" font-size="10.00" fill="grey">high_priority_queue</text>
<text text-anchor="start" x="1075" y="-68.21" font-family="Helvetica,sans-Serif" font-size="10.00" fill="grey">low_priority_queue</text>
</g>
<!-- Node8 -->
<g id="Node000008" class="node">
<title>Node8</title>
<g id="a_Node000008"><a xlink:title=" ">
<polygon fill="white" stroke="#666666" points="1013,-32.21 937,-32.21 937,-13.21 1013,-13.21 1013,-32.21"/>
<text text-anchor="middle" x="975" y="-20.21" font-family="Helvetica,sans-Serif" font-size="10.00">CajaMonitor</text>
</a>
</g>
</g>
<!-- Node8&#45;&gt;Node3 -->
<g id="edge8_Node000003_Node000008" class="edge">
<title>Node8&#45;&gt;Node3</title>
<g id="a_edge8_Node000003_Node000008"><a xlink:title=" ">
<path fill="none" stroke="#9a32cd" stroke-dasharray="5,2" d="M1016.66,-10.61C1064.15,0.83 1142.49,10.94 1192,-28.71 1241.18,-68.1 1264.87,-281.38 1269.6,-329.19"/>
<polygon fill="#9a32cd" stroke="#9a32cd" points="1015.56,-7.27 1006.73,-13.13 1017.28,-14.06 1015.56,-7.27"/>
</a>
</g>
<text text-anchor="start" x="1104" y="-34.21" font-family="Helvetica,sans-Serif" font-size="10.00" fill="grey">monitor</text>
</g>
<!-- Node9&#45;&gt;Node3 -->
<g id="edge9_Node000003_Node000009" class="edge">
<title>Node9&#45;&gt;Node3</title>
<g id="a_edge9_Node000003_Node000009"><a xlink:title=" ">
<path fill="none" stroke="#9a32cd" stroke-dasharray="5,2" d="M1040.45,-523.24C1086.63,-519.89 1148.16,-508.94 1192,-476.71 1237.97,-442.92 1260.92,-373.55 1268.03,-348.23"/>
<polygon fill="#9a32cd" stroke="#9a32cd" points="1040.01,-519.76 1030.25,-523.87 1040.45,-526.74 1040.01,-519.76"/>
</a>
</g>
<text text-anchor="start" x="1057" y="-527.21" font-family="Helvetica,sans-Serif" font-size="10.00" fill="grey">directory_load_in_progress</text>
</g>
<!-- Node10&#45;&gt;Node3 -->
<g id="edge12_Node000003_Node000010" class="edge">
<title>Node10&#45;&gt;Node3</title>
<g id="a_edge12_Node000003_Node000010"><a xlink:title=" ">
<path fill="none" stroke="#9a32cd" stroke-dasharray="5,2" d="M1043.32,-457.47C1087.76,-452.96 1146.05,-442.37 1192,-417.71 1224.37,-400.34 1251.93,-365.24 1263.99,-348.29"/>
<polygon fill="#9a32cd" stroke="#9a32cd" points="1042.82,-454 1033.19,-458.42 1043.48,-460.97 1042.82,-454"/>
</a>
</g>
<text text-anchor="start" x="1079" y="-461.21" font-family="Helvetica,sans-Serif" font-size="10.00" fill="grey">count_in_progress</text>
</g>
<!-- Node11&#45;&gt;Node3 -->
<g id="edge15_Node000003_Node000011" class="edge">
<title>Node11&#45;&gt;Node3</title>
<g id="a_edge15_Node000003_Node000011"><a xlink:title=" ">
<path fill="none" stroke="#9a32cd" stroke-dasharray="5,2" d="M622.43,-618.34C769.18,-616.85 1149.45,-609.46 1192,-572.71 1262.7,-511.65 1269.91,-384.9 1270.5,-348.61"/>
<polygon fill="#9a32cd" stroke="#9a32cd" points="622.24,-614.84 612.27,-618.43 622.3,-621.84 622.24,-614.84"/>
</a>
</g>
<text text-anchor="start" x="775" y="-620.21" font-family="Helvetica,sans-Serif" font-size="10.00" fill="grey">deep_count_in_progress</text>
</g>
<!-- Node12&#45;&gt;Node3 -->
<g id="edge17_Node000003_Node000012" class="edge">
<title>Node12&#45;&gt;Node3</title>
<g id="a_edge17_Node000003_Node000012"><a xlink:title=" ">
<path fill="none" stroke="#9a32cd" stroke-dasharray="5,2" d="M1017.54,-411.29C1034.05,-406.39 1050.08,-401.69 1054,-400.71 1114.74,-385.62 1132.3,-391.47 1192,-372.71 1212.97,-366.12 1235.93,-355.79 1251.57,-348.24"/>
<polygon fill="#9a32cd" stroke="#9a32cd" points="1016.44,-407.97 1007.85,-414.18 1018.43,-414.68 1016.44,-407.97"/>
</a>
</g>
<text text-anchor="start" x="1068" y="-406.21" font-family="Helvetica,sans-Serif" font-size="10.00" fill="grey">mime_list_in_progress</text>
</g>
<!-- Node13&#45;&gt;Node3 -->
<g id="edge20_Node000003_Node000013" class="edge">
<title>Node13&#45;&gt;Node3</title>
<g id="a_edge20_Node000003_Node000013"><a xlink:title=" ">
<path fill="none" stroke="#9a32cd" stroke-dasharray="5,2" d="M883.25,-582.47C969.34,-582.87 1144.82,-579.03 1192,-542.71 1256.95,-492.71 1268.18,-381.85 1270.11,-348.43"/>
<polygon fill="#9a32cd" stroke="#9a32cd" points="883.23,-578.97 873.21,-582.4 883.19,-585.97 883.23,-578.97"/>
</a>
</g>
<text text-anchor="start" x="924" y="-587.21" font-family="Helvetica,sans-Serif" font-size="10.00" fill="grey">get_info_in_progress</text>
</g>
<!-- Node14&#45;&gt;Node3 -->
<g id="edge22_Node000003_Node000014" class="edge">
<title>Node14&#45;&gt;Node3</title>
<g id="a_edge22_Node000003_Node000014"><a xlink:title=" ">
<path fill="none" stroke="#9a32cd" stroke-dasharray="5,2" d="M1009.22,-373.38C1029.88,-365.11 1052.77,-356 1054,-355.71 1105.6,-343.72 1165.77,-339.77 1209.57,-338.65"/>
<polygon fill="#9a32cd" stroke="#9a32cd" points="1007.64,-370.24 999.66,-377.21 1010.25,-376.74 1007.64,-370.24"/>
</a>
</g>
<text text-anchor="start" x="1083" y="-361.21" font-family="Helvetica,sans-Serif" font-size="10.00" fill="grey">thumbnail_state</text>
</g>
<!-- Node15&#45;&gt;Node3 -->
<g id="edge25_Node000003_Node000015" class="edge">
<title>Node15&#45;&gt;Node3</title>
<g id="a_edge25_Node000003_Node000015"><a xlink:title=" ">
<path fill="none" stroke="#9a32cd" stroke-dasharray="5,2" d="M1021.82,-245.3C1067.03,-241.9 1137.13,-241.91 1192,-265.71 1224.27,-279.71 1251.68,-312.83 1263.81,-329.2"/>
<polygon fill="#9a32cd" stroke="#9a32cd" points="1021.41,-241.83 1011.73,-246.15 1021.99,-248.8 1021.41,-241.83"/>
</a>
</g>
<text text-anchor="start" x="1092" y="-271.21" font-family="Helvetica,sans-Serif" font-size="10.00" fill="grey">mount_state</text>
</g>
<!-- Node16&#45;&gt;Node3 -->
<g id="edge28_Node000003_Node000016" class="edge">
<title>Node16&#45;&gt;Node3</title>
<g id="a_edge28_Node000003_Node000016"><a xlink:title=" ">
<path fill="none" stroke="#9a32cd" stroke-dasharray="5,2" d="M1042.05,-203.94C1100.79,-208.15 1179.3,-215.08 1192,-222.71 1234.31,-248.13 1258.88,-306.18 1267.24,-329.12"/>
<polygon fill="#9a32cd" stroke="#9a32cd" points="1042.3,-200.45 1032.08,-203.23 1041.81,-207.43 1042.3,-200.45"/>
</a>
</g>
<text text-anchor="start" x="1070" y="-228.21" font-family="Helvetica,sans-Serif" font-size="10.00" fill="grey">filesystem_info_state</text>
</g>
<!-- Node17&#45;&gt;Node3 -->
<g id="edge31_Node000003_Node000017" class="edge">
<title>Node17&#45;&gt;Node3</title>
<g id="a_edge31_Node000003_Node000017"><a xlink:title=" ">
<path fill="none" stroke="#9a32cd" stroke-dasharray="5,2" d="M1014.04,-148.41C1026.67,-152.36 1040.86,-156.51 1054,-159.71 1114.56,-174.46 1141.98,-147.52 1192,-184.71 1242.33,-222.13 1262.8,-301.09 1268.62,-328.83"/>
<polygon fill="#9a32cd" stroke="#9a32cd" points="1014.89,-145.01 1004.3,-145.31 1012.77,-151.68 1014.89,-145.01"/>
</a>
</g>
<text text-anchor="start" x="1076" y="-190.21" font-family="Helvetica,sans-Serif" font-size="10.00" fill="grey">top_left_read_state</text>
</g>
<!-- Node18&#45;&gt;Node3 -->
<g id="edge34_Node000003_Node000018" class="edge">
<title>Node18&#45;&gt;Node3</title>
<g id="a_edge34_Node000003_Node000018"><a xlink:title=" ">
<path fill="none" stroke="#9a32cd" stroke-dasharray="5,2" d="M1035.07,-110.14C1041.45,-111.35 1047.86,-112.56 1054,-113.71 1115.27,-125.15 1143.85,-99.13 1192,-138.71 1253.95,-189.63 1267.21,-296.09 1269.87,-328.88"/>
<polygon fill="#9a32cd" stroke="#9a32cd" points="1035.56,-106.67 1025.08,-108.23 1034.25,-113.55 1035.56,-106.67"/>
</a>
</g>
<text text-anchor="start" x="1073" y="-144.21" font-family="Helvetica,sans-Serif" font-size="10.00" fill="grey">link_info_read_state</text>
</g>
<!-- Node19&#45;&gt;Node1 -->
<g id="edge37_Node000001_Node000019" class="edge">
<title>Node19&#45;&gt;Node1</title>
<g id="a_edge37_Node000001_Node000019"><a xlink:title=" ">
<path fill="none" stroke="#9a32cd" stroke-dasharray="5,2" d="M508.14,-303.02C540.82,-305.4 578.16,-308.61 612,-312.71 620,-313.68 628.44,-314.88 636.69,-316.15"/>
<polygon fill="#9a32cd" stroke="#9a32cd" points="508.38,-299.52 498.15,-302.3 507.88,-306.51 508.38,-299.52"/>
</a>
</g>
<text text-anchor="start" x="547" y="-318.21" font-family="Helvetica,sans-Serif" font-size="10.00" fill="grey">details</text>
</g>
</g>
</svg>

<g id="navigator" transform="translate(0 0)" fill="#404254">
  <rect fill="#f2f5e9" fill-opacity="0.5" stroke="#606060" stroke-width=".5" x="0" y="0" width="60" height="60"/>
  <use id="zoomplus" xlink:href="#zoomPlus" x="17" y="9" onmousedown="handleZoom(evt,'in')"/>
  <use id="zoomminus" xlink:href="#zoomMin" x="42" y="9" onmousedown="handleZoom(evt,'out')"/>
  <use id="reset" xlink:href="#resetDef" x="30" y="36" onmousedown="handleReset()"/>
   <use id="arrowup" xlink:href="#arrowUp" x="0" y="0" onmousedown="handlePan(0,-1)"/>
  <use id="arrowright" xlink:href="#arrowRight" x="0" y="0" onmousedown="handlePan(1,0)"/>
  <use id="arrowdown" xlink:href="#arrowDown" x="0" y="0" onmousedown="handlePan(0,1)"/>
  <use id="arrowleft" xlink:href="#arrowLeft" x="0" y="0" onmousedown="handlePan(-1,0)"/>
</g>
<svg viewBox="0 0 15 15" width="100%" height="30px" preserveAspectRatio="xMaxYMin meet">
 <g id="arrow_out" transform="scale(0.3 0.3)">
  <a xlink:href="structCajaDesktopDirectory__coll__graph_org.svg" target="_base">
   <rect id="button" ry="5" rx="5" y="6" x="6" height="38" width="38"
        fill="#f2f5e9" fill-opacity="0.5" stroke="#606060" stroke-width="1.0"/>
   <path id="arrow"
     d="M 11.500037,31.436501 C 11.940474,20.09759 22.043105,11.32322 32.158766,21.979434 L 37.068811,17.246167 C 37.068811,17.246167 37.088388,32 37.088388,32 L 22.160133,31.978069 C 22.160133,31.978069 26.997745,27.140456 26.997745,27.140456 C 18.528582,18.264221 13.291696,25.230495 11.500037,31.436501 z"
     style="fill:#404040;"/>
  </a>
 </g>
</svg>

<style type='text/css'>
<![CDATA[
[data-mouse-over-selected='false'] { opacity: 0.7; }
[data-mouse-over-selected='true']  { opacity: 1.0; }
]]>
</style>
<script type="application/ecmascript"><![CDATA[
document.addEventListener('DOMContentLoaded', (event) => {
  highlightEdges();
  highlightAdjacentNodes();
});
]]></script>
</svg>
