<?xml version="1.0" encoding="UTF-8" standalone="no"?>
<!DOCTYPE svg PUBLIC "-//W3C//DTD SVG 1.1//EN"
 "http://www.w3.org/Graphics/SVG/1.1/DTD/svg11.dtd">
<!-- Generated by graphviz version 2.43.0 (0)
 -->
<!-- Title: GSManager Pages: 1 -->
<!--zoomable 460 -->

<svg id="main" version="1.1" xmlns="http://www.w3.org/2000/svg" xmlns:xlink="http://www.w3.org/1999/xlink" xml:space="preserve" onload="init(evt)">

<style type="text/css"><![CDATA[
.node, .edge {opacity: 0.7;}
.node.selected, .edge.selected {opacity: 1;}
.edge:hover path { stroke: red; }
.edge:hover polygon { stroke: red; fill: red; }
]]></style>

<defs>
  <circle id="rim" cx="0" cy="0" r="7"/>
  <circle id="rim2" cx="0" cy="0" r="3.5"/>
  <g id="zoomPlus">
    <use xlink:href="#rim" fill="#404040"><set attributeName="fill" to="#808080" begin="zoomplus.mouseover" end="zoomplus.mouseout"/></use>
    <path d="M-4,0h8M0,-4v8" fill="none" stroke="white" stroke-width="1.5" pointer-events="none"/>
  </g>
  <g id="zoomMin">
    <use xlink:href="#rim" fill="#404040"><set attributeName="fill" to="#808080" begin="zoomminus.mouseover" end="zoomminus.mouseout"/></use>
    <path d="M-4,0h8" fill="none" stroke="white" stroke-width="1.5" pointer-events="none"/>
  </g>
  <g id="arrowUp" transform="translate(30 24)">
    <use xlink:href="#rim"/>
    <path pointer-events="none" fill="none" stroke="white" stroke-width="1.5" d="M0,-3.0v7 M-2.5,-0.5L0,-3.0L2.5,-0.5"/>
  </g>
  <g id="arrowRight" transform="rotate(90) translate(36 -43)">
    <use xlink:href="#rim"/>
    <path pointer-events="none" fill="none" stroke="white" stroke-width="1.5" d="M0,-3.0v7 M-2.5,-0.5L0,-3.0L2.5,-0.5"/>
  </g>
  <g id="arrowDown" transform="rotate(180) translate(-30 -48)">
    <use xlink:href="#rim"/>
    <path pointer-events="none" fill="none" stroke="white" stroke-width="1.5" d="M0,-3.0v7 M-2.5,-0.5L0,-3.0L2.5,-0.5"/>
  </g>
  <g id="arrowLeft" transform="rotate(270) translate(-36 17)">
    <use xlink:href="#rim"/>
    <path pointer-events="none" fill="none" stroke="white" stroke-width="1.5" d="M0,-3.0v7 M-2.5,-0.5L0,-3.0L2.5,-0.5"/>
  </g>
  <g id="resetDef">
    <use xlink:href="#rim2" fill="#404040"><set attributeName="fill" to="#808080" begin="reset.mouseover" end="reset.mouseout"/></use>
  </g>
</defs>
<script type="application/ecmascript">
var viewWidth = 1383;
var viewHeight = 460;
var sectionId = 'dynsection-0';
</script>
<script type="application/ecmascript" xlink:href="svg.min.js"/>
<svg id="graph" class="graph">
<g id="viewport">
<title>GSManager</title>
<!-- Node1 -->
<g id="Node000001" class="node">
<title>Node1</title>
<g id="a_Node000001"><a xlink:title=" ">
<polygon fill="#999999" stroke="#666666" points="288,-19 215,-19 215,0 288,0 288,-19"/>
<text text-anchor="middle" x="251.5" y="-7" font-family="Helvetica,sans-Serif" font-size="10.00">GSManager</text>
</a>
</g>
</g>
<!-- Node2 -->
<g id="Node000002" class="node">
<title>Node2</title>
<g id="a_Node000002"><a xlink:title=" ">
<polygon fill="white" stroke="#666666" points="305,-91 198,-91 198,-72 305,-72 305,-91"/>
<text text-anchor="middle" x="251.5" y="-79" font-family="Helvetica,sans-Serif" font-size="10.00">GSManagerPrivate</text>
</a>
</g>
</g>
<!-- Node2&#45;&gt;Node1 -->
<g id="edge1_Node000001_Node000002" class="edge">
<title>Node2&#45;&gt;Node1</title>
<g id="a_edge1_Node000001_Node000002"><a xlink:title=" ">
<path fill="none" stroke="#9a32cd" stroke-dasharray="5,2" d="M251.5,-61.58C251.5,-47.76 251.5,-29.68 251.5,-19.15"/>
<polygon fill="#9a32cd" stroke="#9a32cd" points="248,-61.92 251.5,-71.92 255,-61.92 248,-61.92"/>
</a>
</g>
<text text-anchor="start" x="255" y="-42.5" font-family="Helvetica,sans-Serif" font-size="10.00" fill="grey">priv</text>
</g>
<!-- Node3 -->
<g id="Node000003" class="node">
<title>Node3</title>
<g id="a_Node000003"><a xlink:href="structGSThemeManager.html" target="_top" xlink:title=" ">
<polygon fill="white" stroke="#666666" points="133,-178 26,-178 26,-159 133,-159 133,-178"/>
<text text-anchor="middle" x="79.5" y="-166" font-family="Helvetica,sans-Serif" font-size="10.00">GSThemeManager</text>
</a>
</g>
</g>
<!-- Node3&#45;&gt;Node2 -->
<g id="edge2_Node000002_Node000003" class="edge">
<title>Node3&#45;&gt;Node2</title>
<g id="a_edge2_Node000002_Node000003"><a xlink:title=" ">
<path fill="none" stroke="#9a32cd" stroke-dasharray="5,2" d="M89.9,-150.05C98.76,-136.74 112.7,-119.04 129.5,-109 150.06,-96.71 175.6,-90.1 197.99,-86.54"/>
<polygon fill="#9a32cd" stroke="#9a32cd" points="86.76,-148.46 84.39,-158.79 92.68,-152.2 86.76,-148.46"/>
</a>
</g>
<text text-anchor="start" x="133" y="-122" font-family="Helvetica,sans-Serif" font-size="10.00" fill="grey">theme_manager</text>
</g>
<!-- Node4 -->
<g id="Node000004" class="node">
<title>Node4</title>
<g id="a_Node000004"><a xlink:title=" ">
<polygon fill="white" stroke="#666666" points="141,-250 0,-250 0,-231 141,-231 141,-250"/>
<text text-anchor="middle" x="70.5" y="-238" font-family="Helvetica,sans-Serif" font-size="10.00">GSThemeManagerPrivate</text>
</a>
</g>
</g>
<!-- Node4&#45;&gt;Node3 -->
<g id="edge3_Node000003_Node000004" class="edge">
<title>Node4&#45;&gt;Node3</title>
<g id="a_edge3_Node000003_Node000004"><a xlink:title=" ">
<path fill="none" stroke="#9a32cd" stroke-dasharray="5,2" d="M72.88,-220.99C74.66,-207.13 77.02,-188.79 78.39,-178.15"/>
<polygon fill="#9a32cd" stroke="#9a32cd" points="69.41,-220.55 71.6,-230.92 76.35,-221.44 69.41,-220.55"/>
</a>
</g>
<text text-anchor="start" x="80" y="-201.5" font-family="Helvetica,sans-Serif" font-size="10.00" fill="grey">priv</text>
</g>
<!-- Node5 -->
<g id="Node000005" class="node">
<title>Node5</title>
<g id="a_Node000005"><a xlink:title=" ">
<polygon fill="white" stroke="#666666" points="596.5,-337 502.5,-337 502.5,-318 596.5,-318 596.5,-337"/>
<text text-anchor="middle" x="549.5" y="-325" font-family="Helvetica,sans-Serif" font-size="10.00">_MateMenuTree</text>
</a>
</g>
</g>
<!-- Node5&#45;&gt;Node4 -->
<g id="edge4_Node000004_Node000005" class="edge">
<title>Node5&#45;&gt;Node4</title>
<g id="a_edge4_Node000004_Node000005"><a xlink:title=" ">
<path fill="none" stroke="#9a32cd" stroke-dasharray="5,2" d="M492.22,-316.34C396.85,-299.41 207.23,-265.76 118.45,-250.01"/>
<polygon fill="#9a32cd" stroke="#9a32cd" points="491.8,-319.82 502.26,-318.12 493.03,-312.92 491.8,-319.82"/>
</a>
</g>
<text text-anchor="start" x="399" y="-281" font-family="Helvetica,sans-Serif" font-size="10.00" fill="grey">menu_tree</text>
</g>
<!-- Node8 -->
<g id="Node000008" class="node">
<title>Node8</title>
<g id="a_Node000008"><a xlink:title=" ">
<polygon fill="white" stroke="#666666" points="605,-250 494,-250 494,-231 605,-231 605,-250"/>
<text text-anchor="middle" x="549.5" y="-238" font-family="Helvetica,sans-Serif" font-size="10.00">MateMenuTreeItem</text>
</a>
</g>
</g>
<!-- Node5&#45;&gt;Node8 -->
<g id="edge10_Node000008_Node000005" class="edge">
<title>Node5&#45;&gt;Node8</title>
<g id="a_edge10_Node000008_Node000005"><a xlink:title=" ">
<path fill="none" stroke="#9a32cd" stroke-dasharray="5,2" d="M549.5,-307.62C549.5,-289.79 549.5,-263.83 549.5,-250.36"/>
<polygon fill="#9a32cd" stroke="#9a32cd" points="546,-307.72 549.5,-317.72 553,-307.72 546,-307.72"/>
</a>
</g>
<text text-anchor="start" x="552.5" y="-281" font-family="Helvetica,sans-Serif" font-size="10.00" fill="grey">tree</text>
</g>
<!-- Node6 -->
<g id="Node000006" class="node">
<title>Node6</title>
<g id="a_Node000006"><a xlink:title=" ">
<polygon fill="white" stroke="#666666" points="600.5,-430.5 498.5,-430.5 498.5,-411.5 600.5,-411.5 600.5,-430.5"/>
<text text-anchor="middle" x="549.5" y="-418.5" font-family="Helvetica,sans-Serif" font-size="10.00">MenuLayoutNode</text>
</a>
</g>
</g>
<!-- Node6&#45;&gt;Node5 -->
<g id="edge5_Node000005_Node000006" class="edge">
<title>Node6&#45;&gt;Node5</title>
<g id="a_edge5_Node000005_Node000006"><a xlink:title=" ">
<path fill="none" stroke="#9a32cd" stroke-dasharray="5,2" d="M549.5,-401.04C549.5,-381.42 549.5,-351.66 549.5,-337.11"/>
<polygon fill="#9a32cd" stroke="#9a32cd" points="546,-401.23 549.5,-411.23 553,-401.23 546,-401.23"/>
</a>
</g>
<text text-anchor="start" x="553" y="-360.5" font-family="Helvetica,sans-Serif" font-size="10.00" fill="grey">layout</text>
</g>
<!-- Node6&#45;&gt;Node6 -->
<g id="edge6_Node000006_Node000006" class="edge">
<title>Node6&#45;&gt;Node6</title>
<g id="a_edge6_Node000006_Node000006"><a xlink:title=" ">
<path fill="none" stroke="#9a32cd" stroke-dasharray="5,2" d="M589.1,-431.43C605.08,-432.04 618.5,-428.56 618.5,-421 618.5,-411.87 598.92,-408.69 578.93,-411.47"/>
<polygon fill="#9a32cd" stroke="#9a32cd" points="589.2,-427.93 578.93,-430.53 588.58,-434.9 589.2,-427.93"/>
</a>
</g>
<text text-anchor="start" x="621.5" y="-441" font-family="Helvetica,sans-Serif" font-size="10.00" fill="grey">children</text>
<text text-anchor="start" x="621.5" y="-426" font-family="Helvetica,sans-Serif" font-size="10.00" fill="grey">next</text>
<text text-anchor="start" x="621.5" y="-411" font-family="Helvetica,sans-Serif" font-size="10.00" fill="grey">parent</text>
<text text-anchor="start" x="621.5" y="-396" font-family="Helvetica,sans-Serif" font-size="10.00" fill="grey">prev</text>
</g>
<!-- Node7 -->
<g id="Node000007" class="node">
<title>Node7</title>
<g id="a_Node000007"><a xlink:title=" ">
<polygon fill="white" stroke="#666666" points="670.5,-178 536.5,-178 536.5,-159 670.5,-159 670.5,-178"/>
<text text-anchor="middle" x="603.5" y="-166" font-family="Helvetica,sans-Serif" font-size="10.00">MateMenuTreeDirectory</text>
</a>
</g>
</g>
<!-- Node7&#45;&gt;Node5 -->
<g id="edge7_Node000005_Node000007" class="edge">
<title>Node7&#45;&gt;Node5</title>
<g id="a_edge7_Node000005_Node000007"><a xlink:title=" ">
<path fill="none" stroke="#9a32cd" stroke-dasharray="5,2" d="M620.1,-186.1C622.31,-189.17 624.24,-192.52 625.5,-196 633.85,-219.12 624.31,-227.92 613.5,-250 601.68,-274.13 597.26,-279.84 579.5,-300 573.8,-306.47 566.59,-312.89 560.66,-317.79"/>
<polygon fill="#9a32cd" stroke="#9a32cd" points="622.6,-183.64 613.47,-178.28 617.26,-188.17 622.6,-183.64"/>
</a>
</g>
<text text-anchor="start" x="626.5" y="-237.5" font-family="Helvetica,sans-Serif" font-size="10.00" fill="grey">root</text>
</g>
<!-- Node7&#45;&gt;Node8 -->
<g id="edge9_Node000008_Node000007" class="edge">
<title>Node7&#45;&gt;Node8</title>
<g id="a_edge9_Node000008_Node000007"><a xlink:title=" ">
<path fill="none" stroke="#9a32cd" stroke-dasharray="5,2" d="M553.73,-182.79C548.13,-186.23 543.14,-190.55 539.5,-196 532.44,-206.57 538.53,-221.45 543.82,-230.78"/>
<polygon fill="#9a32cd" stroke="#9a32cd" points="555.61,-185.75 562.92,-178.08 552.42,-179.52 555.61,-185.75"/>
</a>
</g>
<text text-anchor="start" x="542.5" y="-201.5" font-family="Helvetica,sans-Serif" font-size="10.00" fill="grey">parent</text>
</g>
<!-- Node8&#45;&gt;Node7 -->
<g id="edge8_Node000007_Node000008" class="edge">
<title>Node8&#45;&gt;Node7</title>
<g id="a_edge8_Node000007_Node000008"><a xlink:title=" ">
<path fill="none" stroke="#9a32cd" stroke-dasharray="5,2" d="M570.24,-224.46C574.26,-220.98 578.24,-217.08 581.5,-213 590.16,-202.15 596.75,-187.35 600.37,-178.11"/>
<polygon fill="#9a32cd" stroke="#9a32cd" points="567.73,-221.99 562.11,-230.97 572.1,-227.45 567.73,-221.99"/>
</a>
</g>
<text text-anchor="start" x="596" y="-201.5" font-family="Helvetica,sans-Serif" font-size="10.00" fill="grey">item</text>
</g>
<!-- Node9 -->
<g id="Node000009" class="node">
<title>Node9</title>
<g id="a_Node000009"><a xlink:title=" ">
<polygon fill="white" stroke="#666666" points="775,-250 692,-250 692,-231 775,-231 775,-250"/>
<text text-anchor="middle" x="733.5" y="-238" font-family="Helvetica,sans-Serif" font-size="10.00">DesktopEntry</text>
</a>
</g>
</g>
<!-- Node9&#45;&gt;Node7 -->
<g id="edge11_Node000007_Node000009" class="edge">
<title>Node9&#45;&gt;Node7</title>
<g id="a_edge11_Node000007_Node000009"><a xlink:title=" ">
<path fill="none" stroke="#9a32cd" stroke-dasharray="5,2" d="M711.73,-225.45C697.64,-216.58 678.77,-205.12 661.5,-196 649.17,-189.48 634.92,-182.96 623.64,-178.02"/>
<polygon fill="#9a32cd" stroke="#9a32cd" points="709.91,-228.44 720.23,-230.85 713.67,-222.53 709.91,-228.44"/>
</a>
</g>
<text text-anchor="start" x="694" y="-201.5" font-family="Helvetica,sans-Serif" font-size="10.00" fill="grey">directory_entry</text>
</g>
<!-- Node10 -->
<g id="Node000010" class="node">
<title>Node10</title>
<g id="a_Node000010"><a xlink:href="structMenuLayoutValues.html" target="_top" xlink:title=" ">
<polygon fill="white" stroke="#666666" points="465,-250 356,-250 356,-231 465,-231 465,-250"/>
<text text-anchor="middle" x="410.5" y="-238" font-family="Helvetica,sans-Serif" font-size="10.00">MenuLayoutValues</text>
</a>
</g>
</g>
<!-- Node10&#45;&gt;Node7 -->
<g id="edge12_Node000007_Node000010" class="edge">
<title>Node10&#45;&gt;Node7</title>
<g id="a_edge12_Node000007_Node000010"><a xlink:title=" ">
<path fill="none" stroke="#9a32cd" stroke-dasharray="5,2" d="M408.79,-220.75C409.07,-212.08 411.05,-202.33 417.5,-196 434.14,-179.66 490.23,-173.3 536.5,-170.88"/>
<polygon fill="#9a32cd" stroke="#9a32cd" points="405.3,-220.94 409.16,-230.81 412.29,-220.68 405.3,-220.94"/>
</a>
</g>
<text text-anchor="start" x="421" y="-201.5" font-family="Helvetica,sans-Serif" font-size="10.00" fill="grey">default_layout_values</text>
</g>
<!-- Node11 -->
<g id="Node000011" class="node">
<title>Node11</title>
<g id="a_Node000011"><a xlink:title=" ">
<polygon fill="white" stroke="#666666" points="235,-178 174,-178 174,-159 235,-159 235,-178"/>
<text text-anchor="middle" x="204.5" y="-166" font-family="Helvetica,sans-Serif" font-size="10.00">_MateBG</text>
</a>
</g>
</g>
<!-- Node11&#45;&gt;Node2 -->
<g id="edge13_Node000002_Node000011" class="edge">
<title>Node11&#45;&gt;Node2</title>
<g id="a_edge13_Node000002_Node000011"><a xlink:title=" ">
<path fill="none" stroke="#9a32cd" stroke-dasharray="5,2" d="M214.24,-149.88C224.11,-132.03 238.98,-105.15 246.6,-91.36"/>
<polygon fill="#9a32cd" stroke="#9a32cd" points="211.13,-148.28 209.35,-158.72 217.25,-151.67 211.13,-148.28"/>
</a>
</g>
<text text-anchor="start" x="240" y="-122" font-family="Helvetica,sans-Serif" font-size="10.00" fill="grey">bg</text>
</g>
<!-- Node12 -->
<g id="Node000012" class="node">
<title>Node12</title>
<g id="a_Node000012"><a xlink:title=" ">
<polygon fill="white" stroke="#666666" points="231.5,-250 159.5,-250 159.5,-231 231.5,-231 231.5,-250"/>
<text text-anchor="middle" x="195.5" y="-238" font-family="Helvetica,sans-Serif" font-size="10.00">_SlideShow</text>
</a>
</g>
</g>
<!-- Node12&#45;&gt;Node11 -->
<g id="edge14_Node000011_Node000012" class="edge">
<title>Node12&#45;&gt;Node11</title>
<g id="a_edge14_Node000011_Node000012"><a xlink:title=" ">
<path fill="none" stroke="#9a32cd" stroke-dasharray="5,2" d="M197.88,-220.99C199.66,-207.13 202.02,-188.79 203.39,-178.15"/>
<polygon fill="#9a32cd" stroke="#9a32cd" points="194.41,-220.55 196.6,-230.92 201.35,-221.44 194.41,-220.55"/>
</a>
</g>
<text text-anchor="start" x="205" y="-201.5" font-family="Helvetica,sans-Serif" font-size="10.00" fill="grey">slideshow</text>
</g>
<!-- Node13 -->
<g id="Node000013" class="node">
<title>Node13</title>
<g id="a_Node000013"><a xlink:href="structGSGrab.html" target="_top" xlink:title=" ">
<polygon fill="white" stroke="#666666" points="317,-178 264,-178 264,-159 317,-159 317,-178"/>
<text text-anchor="middle" x="290.5" y="-166" font-family="Helvetica,sans-Serif" font-size="10.00">GSGrab</text>
</a>
</g>
</g>
<!-- Node13&#45;&gt;Node2 -->
<g id="edge15_Node000002_Node000013" class="edge">
<title>Node13&#45;&gt;Node2</title>
<g id="a_edge15_Node000002_Node000013"><a xlink:title=" ">
<path fill="none" stroke="#9a32cd" stroke-dasharray="5,2" d="M282.3,-149.63C274.11,-131.78 261.86,-105.09 255.56,-91.36"/>
<polygon fill="#9a32cd" stroke="#9a32cd" points="279.12,-151.09 286.47,-158.72 285.48,-148.18 279.12,-151.09"/>
</a>
</g>
<text text-anchor="start" x="281.5" y="-122" font-family="Helvetica,sans-Serif" font-size="10.00" fill="grey">grab</text>
</g>
<!-- Node14 -->
<g id="Node000014" class="node">
<title>Node14</title>
<g id="a_Node000014"><a xlink:title=" ">
<polygon fill="white" stroke="#666666" points="337.5,-250 249.5,-250 249.5,-231 337.5,-231 337.5,-250"/>
<text text-anchor="middle" x="293.5" y="-238" font-family="Helvetica,sans-Serif" font-size="10.00">GSGrabPrivate</text>
</a>
</g>
</g>
<!-- Node14&#45;&gt;Node13 -->
<g id="edge16_Node000013_Node000014" class="edge">
<title>Node14&#45;&gt;Node13</title>
<g id="a_edge16_Node000013_Node000014"><a xlink:title=" ">
<path fill="none" stroke="#9a32cd" stroke-dasharray="5,2" d="M292.69,-220.58C292.1,-206.76 291.32,-188.68 290.87,-178.15"/>
<polygon fill="#9a32cd" stroke="#9a32cd" points="289.21,-221.08 293.13,-230.92 296.2,-220.78 289.21,-221.08"/>
</a>
</g>
<text text-anchor="start" x="296" y="-201.5" font-family="Helvetica,sans-Serif" font-size="10.00" fill="grey">priv</text>
</g>
<!-- Node15 -->
<g id="Node000015" class="node">
<title>Node15</title>
<g id="a_Node000015"><a xlink:href="structGSFade.html" target="_top" xlink:title=" ">
<polygon fill="white" stroke="#666666" points="803,-178 750,-178 750,-159 803,-159 803,-178"/>
<text text-anchor="middle" x="776.5" y="-166" font-family="Helvetica,sans-Serif" font-size="10.00">GSFade</text>
</a>
</g>
</g>
<!-- Node15&#45;&gt;Node2 -->
<g id="edge17_Node000002_Node000015" class="edge">
<title>Node15&#45;&gt;Node2</title>
<g id="a_edge17_Node000002_Node000015"><a xlink:title=" ">
<path fill="none" stroke="#9a32cd" stroke-dasharray="5,2" d="M739.86,-161.57C648.57,-146.79 410.73,-108.28 304.31,-91.05"/>
<polygon fill="#9a32cd" stroke="#9a32cd" points="739.31,-165.02 749.74,-163.17 740.43,-158.11 739.31,-165.02"/>
</a>
</g>
<text text-anchor="start" x="610.5" y="-122" font-family="Helvetica,sans-Serif" font-size="10.00" fill="grey">fade</text>
</g>
<!-- Node16 -->
<g id="Node000016" class="node">
<title>Node16</title>
<g id="a_Node000016"><a xlink:title=" ">
<polygon fill="white" stroke="#666666" points="880,-250 793,-250 793,-231 880,-231 880,-250"/>
<text text-anchor="middle" x="836.5" y="-238" font-family="Helvetica,sans-Serif" font-size="10.00">GSFadePrivate</text>
</a>
</g>
</g>
<!-- Node16&#45;&gt;Node15 -->
<g id="edge18_Node000015_Node000016" class="edge">
<title>Node16&#45;&gt;Node15</title>
<g id="a_edge18_Node000015_Node000016"><a xlink:title=" ">
<path fill="none" stroke="#9a32cd" stroke-dasharray="5,2" d="M829.67,-221.2C826,-212.92 820.9,-203.37 814.5,-196 808.28,-188.83 799.72,-182.64 792.3,-178.05"/>
<polygon fill="#9a32cd" stroke="#9a32cd" points="826.54,-222.8 833.54,-230.74 833.02,-220.16 826.54,-222.8"/>
</a>
</g>
<text text-anchor="start" x="830" y="-201.5" font-family="Helvetica,sans-Serif" font-size="10.00" fill="grey">priv</text>
</g>
<!-- Node17 -->
<g id="Node000017" class="node">
<title>Node17</title>
<g id="a_Node000017"><a xlink:title=" ">
<polygon fill="white" stroke="#666666" points="931.5,-337 811.5,-337 811.5,-318 931.5,-318 931.5,-337"/>
<text text-anchor="middle" x="871.5" y="-325" font-family="Helvetica,sans-Serif" font-size="10.00">GSFadeScreenPrivate</text>
</a>
</g>
</g>
<!-- Node17&#45;&gt;Node16 -->
<g id="edge19_Node000016_Node000017" class="edge">
<title>Node17&#45;&gt;Node16</title>
<g id="a_edge19_Node000016_Node000017"><a xlink:title=" ">
<path fill="none" stroke="#9a32cd" stroke-dasharray="5,2" d="M846.84,-311.76C843.08,-308.38 839.72,-304.45 837.5,-300 829.52,-284 832.04,-262.35 834.39,-250.38"/>
<polygon fill="#9a32cd" stroke="#9a32cd" points="844.81,-314.61 854.88,-317.9 849.06,-309.04 844.81,-314.61"/>
</a>
</g>
<text text-anchor="start" x="841" y="-281" font-family="Helvetica,sans-Serif" font-size="10.00" fill="grey">screen_priv</text>
</g>
<!-- Node18 -->
<g id="Node000018" class="node">
<title>Node18</title>
<g id="a_Node000018"><a xlink:title=" ">
<polygon fill="white" stroke="#666666" points="915.5,-430.5 827.5,-430.5 827.5,-411.5 915.5,-411.5 915.5,-430.5"/>
<text text-anchor="middle" x="871.5" y="-418.5" font-family="Helvetica,sans-Serif" font-size="10.00">GSGammaInfo</text>
</a>
</g>
</g>
<!-- Node18&#45;&gt;Node17 -->
<g id="edge20_Node000017_Node000018" class="edge">
<title>Node18&#45;&gt;Node17</title>
<g id="a_edge20_Node000017_Node000018"><a xlink:title=" ">
<path fill="none" stroke="#9a32cd" stroke-dasharray="5,2" d="M871.5,-401.04C871.5,-381.42 871.5,-351.66 871.5,-337.11"/>
<polygon fill="#9a32cd" stroke="#9a32cd" points="868,-401.23 871.5,-411.23 875,-401.23 868,-401.23"/>
</a>
</g>
<text text-anchor="start" x="875" y="-360.5" font-family="Helvetica,sans-Serif" font-size="10.00" fill="grey">info</text>
</g>
<!-- Node19 -->
<g id="Node000019" class="node">
<title>Node19</title>
<g id="a_Node000019"><a xlink:href="structMateRRScreen.html" target="_top" xlink:title=" ">
<polygon fill="white" stroke="#666666" points="1136.5,-430.5 1048.5,-430.5 1048.5,-411.5 1136.5,-411.5 1136.5,-430.5"/>
<text text-anchor="middle" x="1092.5" y="-418.5" font-family="Helvetica,sans-Serif" font-size="10.00">MateRRScreen</text>
</a>
</g>
</g>
<!-- Node19&#45;&gt;Node17 -->
<g id="edge21_Node000017_Node000019" class="edge">
<title>Node19&#45;&gt;Node17</title>
<g id="a_edge21_Node000017_Node000019"><a xlink:title=" ">
<path fill="none" stroke="#9a32cd" stroke-dasharray="5,2" d="M1062.34,-407.51C1016.69,-388.61 931.25,-353.24 892.07,-337.02"/>
<polygon fill="#9a32cd" stroke="#9a32cd" points="1061.13,-410.8 1071.71,-411.39 1063.81,-404.33 1061.13,-410.8"/>
</a>
</g>
<text text-anchor="start" x="978.5" y="-360.5" font-family="Helvetica,sans-Serif" font-size="10.00" fill="grey">rrscreen</text>
</g>
<!-- Node21 -->
<g id="Node000021" class="node">
<title>Node21</title>
<g id="a_Node000021"><a xlink:href="structScreenInfo.html" target="_top" xlink:title=" ">
<polygon fill="white" stroke="#666666" points="1126.5,-337 1058.5,-337 1058.5,-318 1126.5,-318 1126.5,-337"/>
<text text-anchor="middle" x="1092.5" y="-325" font-family="Helvetica,sans-Serif" font-size="10.00">ScreenInfo</text>
</a>
</g>
</g>
<!-- Node19&#45;&gt;Node21 -->
<g id="edge35_Node000021_Node000019" class="edge">
<title>Node19&#45;&gt;Node21</title>
<g id="a_edge35_Node000021_Node000019"><a xlink:title=" ">
<path fill="none" stroke="#9a32cd" stroke-dasharray="5,2" d="M1092.5,-401.04C1092.5,-381.42 1092.5,-351.66 1092.5,-337.11"/>
<polygon fill="#9a32cd" stroke="#9a32cd" points="1089,-401.23 1092.5,-411.23 1096,-401.23 1089,-401.23"/>
</a>
</g>
<text text-anchor="start" x="1096" y="-360.5" font-family="Helvetica,sans-Serif" font-size="10.00" fill="grey">screen</text>
</g>
<!-- Node20 -->
<g id="Node000020" class="node">
<title>Node20</title>
<g id="a_Node000020"><a xlink:href="structMateRRScreenPrivate.html" target="_top" xlink:title=" ">
<polygon fill="white" stroke="#666666" points="1374.5,-250 1252.5,-250 1252.5,-231 1374.5,-231 1374.5,-250"/>
<text text-anchor="middle" x="1313.5" y="-238" font-family="Helvetica,sans-Serif" font-size="10.00">MateRRScreenPrivate</text>
</a>
</g>
</g>
<!-- Node20&#45;&gt;Node19 -->
<g id="edge22_Node000019_Node000020" class="edge">
<title>Node20&#45;&gt;Node19</title>
<g id="a_edge22_Node000019_Node000020"><a xlink:title=" ">
<path fill="none" stroke="#9a32cd" stroke-dasharray="5,2" d="M1311.26,-260.45C1308.99,-272.79 1304.47,-288.63 1295.5,-300 1248.35,-359.8 1162.55,-396.05 1119.16,-411.4"/>
<polygon fill="#9a32cd" stroke="#9a32cd" points="1314.75,-260.75 1312.77,-250.35 1307.83,-259.72 1314.75,-260.75"/>
</a>
</g>
<text text-anchor="start" x="1283" y="-324.5" font-family="Helvetica,sans-Serif" font-size="10.00" fill="grey">priv</text>
</g>
<!-- Node21&#45;&gt;Node20 -->
<g id="edge23_Node000020_Node000021" class="edge">
<title>Node21&#45;&gt;Node20</title>
<g id="a_edge23_Node000020_Node000021"><a xlink:title=" ">
<path fill="none" stroke="#9a32cd" stroke-dasharray="5,2" d="M1136.76,-325.32C1166.92,-322.93 1206.96,-316.52 1238.5,-300 1256.32,-290.67 1254.72,-280.47 1270.5,-268 1278.89,-261.37 1289.05,-255.04 1297.39,-250.23"/>
<polygon fill="#9a32cd" stroke="#9a32cd" points="1136.27,-321.85 1126.53,-326.01 1136.74,-328.83 1136.27,-321.85"/>
</a>
</g>
<text text-anchor="start" x="1274" y="-281" font-family="Helvetica,sans-Serif" font-size="10.00" fill="grey">info</text>
</g>
<!-- Node22 -->
<g id="Node000022" class="node">
<title>Node22</title>
<g id="a_Node000022"><a xlink:title=" ">
<polygon fill="white" stroke="#666666" points="1140.5,-178 1052.5,-178 1052.5,-159 1140.5,-159 1140.5,-178"/>
<text text-anchor="middle" x="1096.5" y="-166" font-family="Helvetica,sans-Serif" font-size="10.00">MateRROutput</text>
</a>
</g>
</g>
<!-- Node21&#45;&gt;Node22 -->
<g id="edge25_Node000022_Node000021" class="edge">
<title>Node21&#45;&gt;Node22</title>
<g id="a_edge25_Node000022_Node000021"><a xlink:title=" ">
<path fill="none" stroke="#9a32cd" stroke-dasharray="5,2" d="M1092.14,-307.68C1091.86,-288.41 1091.64,-257.61 1092.5,-231 1093.11,-212.18 1094.77,-190.17 1095.75,-178.25"/>
<polygon fill="#9a32cd" stroke="#9a32cd" points="1088.64,-307.87 1092.31,-317.81 1095.64,-307.75 1088.64,-307.87"/>
</a>
</g>
<text text-anchor="start" x="1096" y="-237.5" font-family="Helvetica,sans-Serif" font-size="10.00" fill="grey">info</text>
</g>
<!-- Node23 -->
<g id="Node000023" class="node">
<title>Node23</title>
<g id="a_Node000023"><a xlink:title=" ">
<polygon fill="white" stroke="#666666" points="1034.5,-91 960.5,-91 960.5,-72 1034.5,-72 1034.5,-91"/>
<text text-anchor="middle" x="997.5" y="-79" font-family="Helvetica,sans-Serif" font-size="10.00">MateRRCrtc</text>
</a>
</g>
</g>
<!-- Node21&#45;&gt;Node23 -->
<g id="edge27_Node000023_Node000021" class="edge">
<title>Node21&#45;&gt;Node23</title>
<g id="a_edge27_Node000023_Node000021"><a xlink:title=" ">
<path fill="none" stroke="#9a32cd" stroke-dasharray="5,2" d="M1047.88,-324.58C1009.52,-321.88 958.38,-315.41 945.5,-300 890.7,-234.44 923.82,-182.44 967.5,-109 971.69,-101.95 978.39,-95.77 984.4,-91.16"/>
<polygon fill="#9a32cd" stroke="#9a32cd" points="1048.12,-328.1 1058.32,-325.24 1048.56,-321.11 1048.12,-328.1"/>
</a>
</g>
<text text-anchor="start" x="927" y="-201.5" font-family="Helvetica,sans-Serif" font-size="10.00" fill="grey">info</text>
</g>
<!-- Node24 -->
<g id="Node000024" class="node">
<title>Node24</title>
<g id="a_Node000024"><a xlink:title=" ">
<polygon fill="white" stroke="#666666" points="1040.5,-250 958.5,-250 958.5,-231 1040.5,-231 1040.5,-250"/>
<text text-anchor="middle" x="999.5" y="-238" font-family="Helvetica,sans-Serif" font-size="10.00">MateRRMode</text>
</a>
</g>
</g>
<!-- Node21&#45;&gt;Node24 -->
<g id="edge29_Node000024_Node000021" class="edge">
<title>Node21&#45;&gt;Node24</title>
<g id="a_edge29_Node000024_Node000021"><a xlink:title=" ">
<path fill="none" stroke="#9a32cd" stroke-dasharray="5,2" d="M1068.56,-312.18C1063.33,-308.53 1058.01,-304.39 1053.5,-300 1040.95,-287.78 1042.35,-280.89 1030.5,-268 1024.56,-261.54 1017.1,-255.12 1010.99,-250.22"/>
<polygon fill="#9a32cd" stroke="#9a32cd" points="1066.85,-315.25 1077.13,-317.81 1070.69,-309.4 1066.85,-315.25"/>
</a>
</g>
<text text-anchor="start" x="1057" y="-281" font-family="Helvetica,sans-Serif" font-size="10.00" fill="grey">info</text>
</g>
<!-- Node22&#45;&gt;Node21 -->
<g id="edge24_Node000021_Node000022" class="edge">
<title>Node22&#45;&gt;Node21</title>
<g id="a_edge24_Node000021_Node000022"><a xlink:title=" ">
<path fill="none" stroke="#9a32cd" stroke-dasharray="5,2" d="M1106.03,-187.61C1111.77,-199.56 1118.52,-215.78 1121.5,-231 1127.92,-263.82 1108.17,-301.43 1098.07,-317.96"/>
<polygon fill="#9a32cd" stroke="#9a32cd" points="1108.98,-185.69 1101.37,-178.33 1102.73,-188.84 1108.98,-185.69"/>
</a>
</g>
<text text-anchor="start" x="1127" y="-237.5" font-family="Helvetica,sans-Serif" font-size="10.00" fill="grey">outputs</text>
</g>
<!-- Node22&#45;&gt;Node22 -->
<g id="edge31_Node000022_Node000022" class="edge">
<title>Node22&#45;&gt;Node22</title>
<g id="a_edge31_Node000022_Node000022"><a xlink:title=" ">
<path fill="none" stroke="#9a32cd" stroke-dasharray="5,2" d="M1150.76,-173.8C1155.52,-172.68 1158.5,-170.92 1158.5,-168.5 1158.5,-164.63 1150.87,-162.43 1140.52,-161.88"/>
<polygon fill="#9a32cd" stroke="#9a32cd" points="1150,-170.37 1140.52,-175.12 1150.89,-177.32 1150,-170.37"/>
</a>
</g>
<text text-anchor="start" x="1161.5" y="-165.5" font-family="Helvetica,sans-Serif" font-size="10.00" fill="grey">clones</text>
</g>
<!-- Node22&#45;&gt;Node23 -->
<g id="edge30_Node000023_Node000022" class="edge">
<title>Node22&#45;&gt;Node23</title>
<g id="a_edge30_Node000023_Node000022"><a xlink:title=" ">
<path fill="none" stroke="#9a32cd" stroke-dasharray="5,2" d="M1093.7,-148.66C1090.89,-135.91 1085.33,-119.53 1074.5,-109 1063.75,-98.55 1048.71,-92.22 1034.76,-88.37"/>
<polygon fill="#9a32cd" stroke="#9a32cd" points="1090.3,-149.48 1095.54,-158.69 1097.18,-148.23 1090.3,-149.48"/>
</a>
</g>
<text text-anchor="start" x="1095" y="-130" font-family="Helvetica,sans-Serif" font-size="10.00" fill="grey">current_outputs</text>
<text text-anchor="start" x="1095" y="-115" font-family="Helvetica,sans-Serif" font-size="10.00" fill="grey">possible_outputs</text>
</g>
<!-- Node23&#45;&gt;Node21 -->
<g id="edge33_Node000021_Node000023" class="edge">
<title>Node23&#45;&gt;Node21</title>
<g id="a_edge33_Node000021_Node000023"><a xlink:title=" ">
<path fill="none" stroke="#9a32cd" stroke-dasharray="5,2" d="M1044.78,-83.97C1092.88,-86.36 1163.27,-92.63 1184.5,-109 1203.59,-123.72 1200.74,-135.37 1205.5,-159 1219.77,-229.84 1137.91,-295.13 1105.38,-317.93"/>
<polygon fill="#9a32cd" stroke="#9a32cd" points="1044.73,-80.46 1034.58,-83.5 1044.41,-87.45 1044.73,-80.46"/>
</a>
</g>
<text text-anchor="start" x="1208.5" y="-201.5" font-family="Helvetica,sans-Serif" font-size="10.00" fill="grey">crtcs</text>
</g>
<!-- Node23&#45;&gt;Node22 -->
<g id="edge26_Node000022_Node000023" class="edge">
<title>Node23&#45;&gt;Node22</title>
<g id="a_edge26_Node000022_Node000023"><a xlink:title=" ">
<path fill="none" stroke="#9a32cd" stroke-dasharray="5,2" d="M992.51,-100.95C990.27,-113.52 989.81,-129.84 998.5,-141 1005.41,-149.86 1029.74,-156.47 1052.43,-160.87"/>
<polygon fill="#9a32cd" stroke="#9a32cd" points="995.95,-101.62 994.74,-91.09 989.12,-100.07 995.95,-101.62"/>
</a>
</g>
<text text-anchor="start" x="1001.5" y="-130" font-family="Helvetica,sans-Serif" font-size="10.00" fill="grey">current_crtc</text>
<text text-anchor="start" x="1001.5" y="-115" font-family="Helvetica,sans-Serif" font-size="10.00" fill="grey">possible_crtcs</text>
</g>
<!-- Node24&#45;&gt;Node21 -->
<g id="edge34_Node000021_Node000024" class="edge">
<title>Node24&#45;&gt;Node21</title>
<g id="a_edge34_Node000021_Node000024"><a xlink:title=" ">
<path fill="none" stroke="#9a32cd" stroke-dasharray="5,2" d="M967.06,-255.51C962.43,-258.92 958.3,-263.05 955.5,-268 948.5,-280.38 946.45,-289.03 955.5,-300 968.3,-315.51 1022.1,-322.05 1058.35,-324.73"/>
<polygon fill="#9a32cd" stroke="#9a32cd" points="969.09,-258.38 975.75,-250.13 965.4,-252.42 969.09,-258.38"/>
</a>
</g>
<text text-anchor="start" x="959" y="-289" font-family="Helvetica,sans-Serif" font-size="10.00" fill="grey">clone_modes</text>
<text text-anchor="start" x="959" y="-274" font-family="Helvetica,sans-Serif" font-size="10.00" fill="grey">modes</text>
</g>
<!-- Node24&#45;&gt;Node22 -->
<g id="edge32_Node000022_Node000024" class="edge">
<title>Node24&#45;&gt;Node22</title>
<g id="a_edge32_Node000022_Node000024"><a xlink:title=" ">
<path fill="none" stroke="#9a32cd" stroke-dasharray="5,2" d="M1011.75,-222.78C1018.83,-213.98 1028.33,-203.48 1038.5,-196 1048.67,-188.52 1061.28,-182.45 1072.14,-178.01"/>
<polygon fill="#9a32cd" stroke="#9a32cd" points="1008.86,-220.79 1005.54,-230.85 1014.41,-225.06 1008.86,-220.79"/>
</a>
</g>
<text text-anchor="start" x="1041.5" y="-201.5" font-family="Helvetica,sans-Serif" font-size="10.00" fill="grey">modes</text>
</g>
<!-- Node24&#45;&gt;Node23 -->
<g id="edge28_Node000023_Node000024" class="edge">
<title>Node24&#45;&gt;Node23</title>
<g id="a_edge28_Node000023_Node000024"><a xlink:title=" ">
<path fill="none" stroke="#9a32cd" stroke-dasharray="5,2" d="M988.29,-221.99C981.37,-210.1 973.13,-193.73 969.5,-178 962,-145.51 981.72,-107.73 991.88,-91.1"/>
<polygon fill="#9a32cd" stroke="#9a32cd" points="985.48,-224.1 993.67,-230.81 991.45,-220.45 985.48,-224.1"/>
</a>
</g>
<text text-anchor="start" x="972.5" y="-165.5" font-family="Helvetica,sans-Serif" font-size="10.00" fill="grey">current_mode</text>
</g>
</g>
</svg>

<g id="navigator" transform="translate(0 0)" fill="#404254">
  <rect fill="#f2f5e9" fill-opacity="0.5" stroke="#606060" stroke-width=".5" x="0" y="0" width="60" height="60"/>
  <use id="zoomplus" xlink:href="#zoomPlus" x="17" y="9" onmousedown="handleZoom(evt,'in')"/>
  <use id="zoomminus" xlink:href="#zoomMin" x="42" y="9" onmousedown="handleZoom(evt,'out')"/>
  <use id="reset" xlink:href="#resetDef" x="30" y="36" onmousedown="handleReset()"/>
   <use id="arrowup" xlink:href="#arrowUp" x="0" y="0" onmousedown="handlePan(0,-1)"/>
  <use id="arrowright" xlink:href="#arrowRight" x="0" y="0" onmousedown="handlePan(1,0)"/>
  <use id="arrowdown" xlink:href="#arrowDown" x="0" y="0" onmousedown="handlePan(0,1)"/>
  <use id="arrowleft" xlink:href="#arrowLeft" x="0" y="0" onmousedown="handlePan(-1,0)"/>
</g>
<svg viewBox="0 0 15 15" width="100%" height="30px" preserveAspectRatio="xMaxYMin meet">
 <g id="arrow_out" transform="scale(0.3 0.3)">
  <a xlink:href="structGSManager__coll__graph_org.svg" target="_base">
   <rect id="button" ry="5" rx="5" y="6" x="6" height="38" width="38"
        fill="#f2f5e9" fill-opacity="0.5" stroke="#606060" stroke-width="1.0"/>
   <path id="arrow"
     d="M 11.500037,31.436501 C 11.940474,20.09759 22.043105,11.32322 32.158766,21.979434 L 37.068811,17.246167 C 37.068811,17.246167 37.088388,32 37.088388,32 L 22.160133,31.978069 C 22.160133,31.978069 26.997745,27.140456 26.997745,27.140456 C 18.528582,18.264221 13.291696,25.230495 11.500037,31.436501 z"
     style="fill:#404040;"/>
  </a>
 </g>
</svg>

<style type='text/css'>
<![CDATA[
[data-mouse-over-selected='false'] { opacity: 0.7; }
[data-mouse-over-selected='true']  { opacity: 1.0; }
]]>
</style>
<script type="application/ecmascript"><![CDATA[
document.addEventListener('DOMContentLoaded', (event) => {
  highlightEdges();
  highlightAdjacentNodes();
});
]]></script>
</svg>
