<?xml version="1.0" encoding="UTF-8" standalone="no"?>
<!DOCTYPE svg PUBLIC "-//W3C//DTD SVG 1.1//EN"
 "http://www.w3.org/Graphics/SVG/1.1/DTD/svg11.dtd">
<!-- Generated by graphviz version 2.43.0 (0)
 -->
<!-- Title: _OssBackend Pages: 1 -->
<svg width="595pt" height="258pt"
 viewBox="0.00 0.00 594.50 258.00" xmlns="http://www.w3.org/2000/svg" xmlns:xlink="http://www.w3.org/1999/xlink">
<g id="graph0" class="graph" transform="scale(1 1) rotate(0) translate(4 254)">
<title>_OssBackend</title>
<!-- Node1 -->
<g id="Node000001" class="node">
<title>Node1</title>
<g id="a_Node000001"><a xlink:title=" ">
<polygon fill="#999999" stroke="#666666" points="184,-19 103,-19 103,0 184,0 184,-19"/>
<text text-anchor="middle" x="143.5" y="-7" font-family="Helvetica,sans-Serif" font-size="10.00">_OssBackend</text>
</a>
</g>
</g>
<!-- Node2 -->
<g id="Node000002" class="node">
<title>Node2</title>
<g id="a_Node000002"><a xlink:href="struct__MateMixerBackend.html" target="_top" xlink:title=" ">
<polygon fill="white" stroke="#666666" points="115,-91 0,-91 0,-72 115,-72 115,-91"/>
<text text-anchor="middle" x="57.5" y="-79" font-family="Helvetica,sans-Serif" font-size="10.00">_MateMixerBackend</text>
</a>
</g>
</g>
<!-- Node2&#45;&gt;Node1 -->
<g id="edge1_Node000001_Node000002" class="edge">
<title>Node2&#45;&gt;Node1</title>
<g id="a_edge1_Node000001_Node000002"><a xlink:title=" ">
<path fill="none" stroke="#9a32cd" stroke-dasharray="5,2" d="M75.83,-65.58C93.18,-51.46 118.64,-30.74 132.87,-19.15"/>
<polygon fill="#9a32cd" stroke="#9a32cd" points="73.59,-62.89 68.05,-71.92 78.01,-68.32 73.59,-62.89"/>
</a>
</g>
<text text-anchor="start" x="114.5" y="-42.5" font-family="Helvetica,sans-Serif" font-size="10.00" fill="grey">parent</text>
</g>
<!-- Node3 -->
<g id="Node000003" class="node">
<title>Node3</title>
<g id="a_Node000003"><a xlink:title=" ">
<polygon fill="white" stroke="#666666" points="176,-163 27,-163 27,-144 176,-144 176,-163"/>
<text text-anchor="middle" x="101.5" y="-151" font-family="Helvetica,sans-Serif" font-size="10.00">_MateMixerBackendPrivate</text>
</a>
</g>
</g>
<!-- Node3&#45;&gt;Node2 -->
<g id="edge2_Node000002_Node000003" class="edge">
<title>Node3&#45;&gt;Node2</title>
<g id="a_edge2_Node000002_Node000003"><a xlink:title=" ">
<path fill="none" stroke="#9a32cd" stroke-dasharray="5,2" d="M90.63,-135.21C81.84,-121.22 69.82,-102.1 62.94,-91.15"/>
<polygon fill="#9a32cd" stroke="#9a32cd" points="87.82,-137.31 96.1,-143.92 93.75,-133.59 87.82,-137.31"/>
</a>
</g>
<text text-anchor="start" x="89" y="-114.5" font-family="Helvetica,sans-Serif" font-size="10.00" fill="grey">priv</text>
</g>
<!-- Node4 -->
<g id="Node000004" class="node">
<title>Node4</title>
<g id="a_Node000004"><a xlink:href="struct__MateMixerStream.html" target="_top" xlink:title=" ">
<polygon fill="white" stroke="#666666" points="511,-250 402,-250 402,-231 511,-231 511,-250"/>
<text text-anchor="middle" x="456.5" y="-238" font-family="Helvetica,sans-Serif" font-size="10.00">_MateMixerStream</text>
</a>
</g>
</g>
<!-- Node4&#45;&gt;Node3 -->
<g id="edge3_Node000003_Node000004" class="edge">
<title>Node4&#45;&gt;Node3</title>
<g id="a_edge3_Node000003_Node000004"><a xlink:title=" ">
<path fill="none" stroke="#9a32cd" stroke-dasharray="5,2" d="M410.76,-228.55C339.13,-211.4 201.98,-178.56 137.14,-163.03"/>
<polygon fill="#9a32cd" stroke="#9a32cd" points="410.3,-232.04 420.84,-230.96 411.93,-225.23 410.3,-232.04"/>
</a>
</g>
<text text-anchor="start" x="344.5" y="-202" font-family="Helvetica,sans-Serif" font-size="10.00" fill="grey">default_input</text>
<text text-anchor="start" x="344.5" y="-187" font-family="Helvetica,sans-Serif" font-size="10.00" fill="grey">default_output</text>
</g>
<!-- Node9 -->
<g id="Node000009" class="node">
<title>Node9</title>
<g id="a_Node000009"><a xlink:title=" ">
<polygon fill="white" stroke="#666666" points="546,-163 367,-163 367,-144 546,-144 546,-163"/>
<text text-anchor="middle" x="456.5" y="-151" font-family="Helvetica,sans-Serif" font-size="10.00">_MateMixerStreamControlPrivate</text>
</a>
</g>
</g>
<!-- Node4&#45;&gt;Node9 -->
<g id="edge9_Node000009_Node000004" class="edge">
<title>Node4&#45;&gt;Node9</title>
<g id="a_edge9_Node000009_Node000004"><a xlink:title=" ">
<path fill="none" stroke="#9a32cd" stroke-dasharray="5,2" d="M456.5,-220.62C456.5,-202.79 456.5,-176.83 456.5,-163.36"/>
<polygon fill="#9a32cd" stroke="#9a32cd" points="453,-220.72 456.5,-230.72 460,-220.72 453,-220.72"/>
</a>
</g>
<text text-anchor="start" x="460" y="-194" font-family="Helvetica,sans-Serif" font-size="10.00" fill="grey">stream</text>
</g>
<!-- Node5 -->
<g id="Node000005" class="node">
<title>Node5</title>
<g id="a_Node000005"><a xlink:title=" ">
<polygon fill="white" stroke="#666666" points="537,-19 394,-19 394,0 537,0 537,-19"/>
<text text-anchor="middle" x="465.5" y="-7" font-family="Helvetica,sans-Serif" font-size="10.00">_MateMixerStreamPrivate</text>
</a>
</g>
</g>
<!-- Node5&#45;&gt;Node4 -->
<g id="edge4_Node000004_Node000005" class="edge">
<title>Node5&#45;&gt;Node4</title>
<g id="a_edge4_Node000004_Node000005"><a xlink:title=" ">
<path fill="none" stroke="#9a32cd" stroke-dasharray="5,2" d="M494.36,-23.86C512.9,-34.15 535.51,-50.3 546.5,-72 566.59,-111.68 564.18,-143.14 555.5,-163 540.72,-196.84 501.91,-219.47 477.51,-230.86"/>
<polygon fill="#9a32cd" stroke="#9a32cd" points="495.86,-20.7 485.38,-19.14 492.61,-26.89 495.86,-20.7"/>
</a>
</g>
<text text-anchor="start" x="565" y="-114.5" font-family="Helvetica,sans-Serif" font-size="10.00" fill="grey">priv</text>
</g>
<!-- Node6 -->
<g id="Node000006" class="node">
<title>Node6</title>
<g id="a_Node000006"><a xlink:href="struct__MateMixerDevice.html" target="_top" xlink:title=" ">
<polygon fill="white" stroke="#666666" points="375,-91 268,-91 268,-72 375,-72 375,-91"/>
<text text-anchor="middle" x="321.5" y="-79" font-family="Helvetica,sans-Serif" font-size="10.00">_MateMixerDevice</text>
</a>
</g>
</g>
<!-- Node6&#45;&gt;Node5 -->
<g id="edge5_Node000005_Node000006" class="edge">
<title>Node6&#45;&gt;Node5</title>
<g id="a_edge5_Node000005_Node000006"><a xlink:title=" ">
<path fill="none" stroke="#9a32cd" stroke-dasharray="5,2" d="M348.31,-67.46C377.33,-53.36 422.79,-31.26 447.7,-19.15"/>
<polygon fill="#9a32cd" stroke="#9a32cd" points="346.62,-64.4 339.16,-71.92 349.68,-70.69 346.62,-64.4"/>
</a>
</g>
<text text-anchor="start" x="414" y="-42.5" font-family="Helvetica,sans-Serif" font-size="10.00" fill="grey">device</text>
</g>
<!-- Node7 -->
<g id="Node000007" class="node">
<title>Node7</title>
<g id="a_Node000007"><a xlink:title=" ">
<polygon fill="white" stroke="#666666" points="348.5,-163 206.5,-163 206.5,-144 348.5,-144 348.5,-163"/>
<text text-anchor="middle" x="277.5" y="-151" font-family="Helvetica,sans-Serif" font-size="10.00">_MateMixerDevicePrivate</text>
</a>
</g>
</g>
<!-- Node7&#45;&gt;Node6 -->
<g id="edge6_Node000006_Node000007" class="edge">
<title>Node7&#45;&gt;Node6</title>
<g id="a_edge6_Node000006_Node000007"><a xlink:title=" ">
<path fill="none" stroke="#9a32cd" stroke-dasharray="5,2" d="M288.37,-135.21C297.16,-121.22 309.18,-102.1 316.06,-91.15"/>
<polygon fill="#9a32cd" stroke="#9a32cd" points="285.25,-133.59 282.9,-143.92 291.18,-137.31 285.25,-133.59"/>
</a>
</g>
<text text-anchor="start" x="308" y="-114.5" font-family="Helvetica,sans-Serif" font-size="10.00" fill="grey">priv</text>
</g>
<!-- Node8 -->
<g id="Node000008" class="node">
<title>Node8</title>
<g id="a_Node000008"><a xlink:href="struct__MateMixerStreamControl.html" target="_top" xlink:title=" ">
<polygon fill="white" stroke="#666666" points="537.5,-91 393.5,-91 393.5,-72 537.5,-72 537.5,-91"/>
<text text-anchor="middle" x="465.5" y="-79" font-family="Helvetica,sans-Serif" font-size="10.00">_MateMixerStreamControl</text>
</a>
</g>
</g>
<!-- Node8&#45;&gt;Node5 -->
<g id="edge7_Node000005_Node000008" class="edge">
<title>Node8&#45;&gt;Node5</title>
<g id="a_edge7_Node000005_Node000008"><a xlink:title=" ">
<path fill="none" stroke="#9a32cd" stroke-dasharray="5,2" d="M465.5,-61.58C465.5,-47.76 465.5,-29.68 465.5,-19.15"/>
<polygon fill="#9a32cd" stroke="#9a32cd" points="462,-61.92 465.5,-71.92 469,-61.92 462,-61.92"/>
</a>
</g>
<text text-anchor="start" x="468.5" y="-42.5" font-family="Helvetica,sans-Serif" font-size="10.00" fill="grey">control</text>
</g>
<!-- Node9&#45;&gt;Node8 -->
<g id="edge8_Node000008_Node000009" class="edge">
<title>Node9&#45;&gt;Node8</title>
<g id="a_edge8_Node000008_Node000009"><a xlink:title=" ">
<path fill="none" stroke="#9a32cd" stroke-dasharray="5,2" d="M458.88,-133.99C460.66,-120.13 463.02,-101.79 464.39,-91.15"/>
<polygon fill="#9a32cd" stroke="#9a32cd" points="455.41,-133.55 457.6,-143.92 462.35,-134.44 455.41,-133.55"/>
</a>
</g>
<text text-anchor="start" x="465" y="-114.5" font-family="Helvetica,sans-Serif" font-size="10.00" fill="grey">priv</text>
</g>
<!-- Node10 -->
<g id="Node000010" class="node">
<title>Node10</title>
<g id="a_Node000010"><a xlink:title=" ">
<polygon fill="white" stroke="#666666" points="249.5,-91 133.5,-91 133.5,-72 249.5,-72 249.5,-91"/>
<text text-anchor="middle" x="191.5" y="-79" font-family="Helvetica,sans-Serif" font-size="10.00">_OssBackendPrivate</text>
</a>
</g>
</g>
<!-- Node10&#45;&gt;Node1 -->
<g id="edge10_Node000001_Node000010" class="edge">
<title>Node10&#45;&gt;Node1</title>
<g id="a_edge10_Node000001_Node000010"><a xlink:title=" ">
<path fill="none" stroke="#9a32cd" stroke-dasharray="5,2" d="M179.92,-63.62C170.31,-49.59 157.02,-30.21 149.43,-19.15"/>
<polygon fill="#9a32cd" stroke="#9a32cd" points="177.07,-65.65 185.61,-71.92 182.85,-61.69 177.07,-65.65"/>
</a>
</g>
<text text-anchor="start" x="176" y="-42.5" font-family="Helvetica,sans-Serif" font-size="10.00" fill="grey">priv</text>
</g>
</g>
</svg>
