<?xml version="1.0" encoding="UTF-8" standalone="no"?>
<!DOCTYPE svg PUBLIC "-//W3C//DTD SVG 1.1//EN"
 "http://www.w3.org/Graphics/SVG/1.1/DTD/svg11.dtd">
<!-- Generated by graphviz version 2.43.0 (0)
 -->
<!-- Title: _FrProcess Pages: 1 -->
<svg width="285pt" height="186pt"
 viewBox="0.00 0.00 285.00 186.00" xmlns="http://www.w3.org/2000/svg" xmlns:xlink="http://www.w3.org/1999/xlink">

<svg id="main" version="1.1" xmlns="http://www.w3.org/2000/svg" xmlns:xlink="http://www.w3.org/1999/xlink" xml:space="preserve">

<style type="text/css"><![CDATA[
.node, .edge {opacity: 0.7;}
.node.selected, .edge.selected {opacity: 1;}
.edge:hover path { stroke: red; }
.edge:hover polygon { stroke: red; fill: red; }
]]></style>
<script type="application/ecmascript" xlink:href="svg.min.js"/>
<svg id="graph" class="graph">
<g id="graph0" class="graph" transform="scale(1 1) rotate(0) translate(4 182)">
<title>_FrProcess</title>
<!-- Node1 -->
<g id="Node000001" class="node">
<title>Node1</title>
<g id="a_Node000001"><a xlink:title=" ">
<polygon fill="#999999" stroke="#666666" points="159.5,-19 91.5,-19 91.5,0 159.5,0 159.5,-19"/>
<text text-anchor="middle" x="125.5" y="-7" font-family="Helvetica,sans-Serif" font-size="10.00">_FrProcess</text>
</a>
</g>
</g>
<!-- Node2 -->
<g id="Node000002" class="node">
<title>Node2</title>
<g id="a_Node000002"><a xlink:href="structFrChannelData.html" target="_top" xlink:title=" ">
<polygon fill="white" stroke="#666666" points="89,-106 0,-106 0,-87 89,-87 89,-106"/>
<text text-anchor="middle" x="44.5" y="-94" font-family="Helvetica,sans-Serif" font-size="10.00">FrChannelData</text>
</a>
</g>
</g>
<!-- Node2&#45;&gt;Node1 -->
<g id="edge1_Node000001_Node000002" class="edge">
<title>Node2&#45;&gt;Node1</title>
<g id="a_edge1_Node000001_Node000002"><a xlink:title=" ">
<path fill="none" stroke="#9a32cd" stroke-dasharray="5,2" d="M55.62,-78.56C64.1,-66.3 76.51,-49.72 89.5,-37 96.38,-30.27 105.04,-23.84 112.14,-19"/>
<polygon fill="#9a32cd" stroke="#9a32cd" points="52.64,-76.71 49.95,-86.96 58.44,-80.63 52.64,-76.71"/>
</a>
</g>
<text text-anchor="start" x="92.5" y="-58" font-family="Helvetica,sans-Serif" font-size="10.00" fill="grey">err</text>
<text text-anchor="start" x="92.5" y="-43" font-family="Helvetica,sans-Serif" font-size="10.00" fill="grey">out</text>
</g>
<!-- Node3 -->
<g id="Node000003" class="node">
<title>Node3</title>
<g id="a_Node000003"><a xlink:href="structFrProcError.html" target="_top" xlink:title=" ">
<polygon fill="white" stroke="#666666" points="176.5,-178 106.5,-178 106.5,-159 176.5,-159 176.5,-178"/>
<text text-anchor="middle" x="141.5" y="-166" font-family="Helvetica,sans-Serif" font-size="10.00">FrProcError</text>
</a>
</g>
</g>
<!-- Node3&#45;&gt;Node1 -->
<g id="edge2_Node000001_Node000003" class="edge">
<title>Node3&#45;&gt;Node1</title>
<g id="a_edge2_Node000001_Node000003"><a xlink:title=" ">
<path fill="none" stroke="#9a32cd" stroke-dasharray="5,2" d="M139.24,-148.5C137.82,-136.35 135.98,-120.26 134.5,-106 131.17,-74.03 127.75,-35.99 126.26,-19.2"/>
<polygon fill="#9a32cd" stroke="#9a32cd" points="135.8,-149.23 140.45,-158.75 142.75,-148.41 135.8,-149.23"/>
</a>
</g>
<text text-anchor="start" x="137.5" y="-93.5" font-family="Helvetica,sans-Serif" font-size="10.00" fill="grey">error</text>
</g>
<!-- Node4 -->
<g id="Node000004" class="node">
<title>Node4</title>
<g id="a_Node000004"><a xlink:title=" ">
<polygon fill="white" stroke="#666666" points="277,-106 174,-106 174,-87 277,-87 277,-106"/>
<text text-anchor="middle" x="225.5" y="-94" font-family="Helvetica,sans-Serif" font-size="10.00">_FrProcessPrivate</text>
</a>
</g>
</g>
<!-- Node3&#45;&gt;Node4 -->
<g id="edge4_Node000004_Node000003" class="edge">
<title>Node3&#45;&gt;Node4</title>
<g id="a_edge4_Node000004_Node000003"><a xlink:title=" ">
<path fill="none" stroke="#9a32cd" stroke-dasharray="5,2" d="M159.87,-152.19C176.8,-138.08 201.34,-117.63 215.12,-106.15"/>
<polygon fill="#9a32cd" stroke="#9a32cd" points="157.24,-149.83 151.8,-158.92 161.72,-155.2 157.24,-149.83"/>
</a>
</g>
<text text-anchor="start" x="196.5" y="-129.5" font-family="Helvetica,sans-Serif" font-size="10.00" fill="grey">first_error</text>
</g>
<!-- Node4&#45;&gt;Node1 -->
<g id="edge3_Node000001_Node000004" class="edge">
<title>Node4&#45;&gt;Node1</title>
<g id="a_edge3_Node000001_Node000004"><a xlink:title=" ">
<path fill="none" stroke="#9a32cd" stroke-dasharray="5,2" d="M207.29,-80.02C186.26,-62.15 152.41,-33.38 135.62,-19.1"/>
<polygon fill="#9a32cd" stroke="#9a32cd" points="205.29,-82.91 215.17,-86.72 209.82,-77.58 205.29,-82.91"/>
</a>
</g>
<text text-anchor="start" x="197" y="-50" font-family="Helvetica,sans-Serif" font-size="10.00" fill="grey">priv</text>
</g>
</g>
</svg>
</svg>

<style type='text/css'>
<![CDATA[
[data-mouse-over-selected='false'] { opacity: 0.7; }
[data-mouse-over-selected='true']  { opacity: 1.0; }
]]>
</style>
<script type="application/ecmascript"><![CDATA[
document.addEventListener('DOMContentLoaded', (event) => {
  highlightEdges();
  highlightAdjacentNodes();
});
]]></script>
</svg>
