<?xml version="1.0" encoding="UTF-8" standalone="no"?>
<!DOCTYPE svg PUBLIC "-//W3C//DTD SVG 1.1//EN"
 "http://www.w3.org/Graphics/SVG/1.1/DTD/svg11.dtd">
<!-- Generated by graphviz version 2.43.0 (0)
 -->
<!-- Title: _PulseStream Pages: 1 -->
<svg width="488pt" height="387pt"
 viewBox="0.00 0.00 487.50 387.00" xmlns="http://www.w3.org/2000/svg" xmlns:xlink="http://www.w3.org/1999/xlink">

<svg id="main" version="1.1" xmlns="http://www.w3.org/2000/svg" xmlns:xlink="http://www.w3.org/1999/xlink" xml:space="preserve">

<style type="text/css"><![CDATA[
.node, .edge {opacity: 0.7;}
.node.selected, .edge.selected {opacity: 1;}
.edge:hover path { stroke: red; }
.edge:hover polygon { stroke: red; fill: red; }
]]></style>
<script type="application/ecmascript" xlink:href="svg.min.js"/>
<svg id="graph" class="graph">
<g id="graph0" class="graph" transform="scale(1 1) rotate(0) translate(4 383)">
<title>_PulseStream</title>
<!-- Node1 -->
<g id="Node000001" class="node">
<title>Node1</title>
<g id="a_Node000001"><a xlink:title=" ">
<polygon fill="#999999" stroke="#666666" points="319,-163 236,-163 236,-144 319,-144 319,-163"/>
<text text-anchor="middle" x="277.5" y="-151" font-family="Helvetica,sans-Serif" font-size="10.00">_PulseStream</text>
</a>
</g>
</g>
<!-- Node2 -->
<g id="Node000002" class="node">
<title>Node2</title>
<g id="a_Node000002"><a xlink:href="struct__MateMixerStream.html" target="_top" xlink:title=" ">
<polygon fill="white" stroke="#666666" points="257,-235 148,-235 148,-216 257,-216 257,-235"/>
<text text-anchor="middle" x="202.5" y="-223" font-family="Helvetica,sans-Serif" font-size="10.00">_MateMixerStream</text>
</a>
</g>
</g>
<!-- Node2&#45;&gt;Node1 -->
<g id="edge1_Node000001_Node000002" class="edge">
<title>Node2&#45;&gt;Node1</title>
<g id="a_edge1_Node000001_Node000002"><a xlink:title=" ">
<path fill="none" stroke="#9a32cd" stroke-dasharray="5,2" d="M219.32,-208.8C234.42,-194.71 256.04,-174.53 268.23,-163.15"/>
<polygon fill="#9a32cd" stroke="#9a32cd" points="216.62,-206.53 211.7,-215.92 221.4,-211.65 216.62,-206.53"/>
</a>
</g>
<text text-anchor="start" x="252.5" y="-186.5" font-family="Helvetica,sans-Serif" font-size="10.00" fill="grey">parent</text>
</g>
<!-- Node7 -->
<g id="Node000007" class="node">
<title>Node7</title>
<g id="a_Node000007"><a xlink:title=" ">
<polygon fill="white" stroke="#666666" points="179,-163 0,-163 0,-144 179,-144 179,-163"/>
<text text-anchor="middle" x="89.5" y="-151" font-family="Helvetica,sans-Serif" font-size="10.00">_MateMixerStreamControlPrivate</text>
</a>
</g>
</g>
<!-- Node2&#45;&gt;Node7 -->
<g id="edge7_Node000007_Node000002" class="edge">
<title>Node2&#45;&gt;Node7</title>
<g id="a_edge7_Node000007_Node000002"><a xlink:title=" ">
<path fill="none" stroke="#9a32cd" stroke-dasharray="5,2" d="M176.12,-211.26C168.4,-207.18 160.02,-202.57 152.5,-198 134.1,-186.82 113.76,-172.37 101.3,-163.27"/>
<polygon fill="#9a32cd" stroke="#9a32cd" points="174.61,-214.42 185.1,-215.91 177.83,-208.2 174.61,-214.42"/>
</a>
</g>
<text text-anchor="start" x="156" y="-186.5" font-family="Helvetica,sans-Serif" font-size="10.00" fill="grey">stream</text>
</g>
<!-- Node3 -->
<g id="Node000003" class="node">
<title>Node3</title>
<g id="a_Node000003"><a xlink:title=" ">
<polygon fill="white" stroke="#666666" points="279,-19 136,-19 136,0 279,0 279,-19"/>
<text text-anchor="middle" x="207.5" y="-7" font-family="Helvetica,sans-Serif" font-size="10.00">_MateMixerStreamPrivate</text>
</a>
</g>
</g>
<!-- Node3&#45;&gt;Node2 -->
<g id="edge2_Node000002_Node000003" class="edge">
<title>Node3&#45;&gt;Node2</title>
<g id="a_edge2_Node000002_Node000003"><a xlink:title=" ">
<path fill="none" stroke="#9a32cd" stroke-dasharray="5,2" d="M207.06,-29.26C206.02,-73.72 203.44,-184.12 202.7,-215.85"/>
<polygon fill="#9a32cd" stroke="#9a32cd" points="210.57,-29.11 207.3,-19.03 203.57,-28.94 210.57,-29.11"/>
</a>
</g>
<text text-anchor="start" x="209" y="-114.5" font-family="Helvetica,sans-Serif" font-size="10.00" fill="grey">priv</text>
</g>
<!-- Node4 -->
<g id="Node000004" class="node">
<title>Node4</title>
<g id="a_Node000004"><a xlink:href="struct__MateMixerDevice.html" target="_top" xlink:title=" ">
<polygon fill="white" stroke="#666666" points="420,-91 313,-91 313,-72 420,-72 420,-91"/>
<text text-anchor="middle" x="366.5" y="-79" font-family="Helvetica,sans-Serif" font-size="10.00">_MateMixerDevice</text>
</a>
</g>
</g>
<!-- Node4&#45;&gt;Node3 -->
<g id="edge3_Node000003_Node000004" class="edge">
<title>Node4&#45;&gt;Node3</title>
<g id="a_edge3_Node000003_Node000004"><a xlink:title=" ">
<path fill="none" stroke="#9a32cd" stroke-dasharray="5,2" d="M337.72,-67.83C305.72,-53.74 254.9,-31.37 227.16,-19.15"/>
<polygon fill="#9a32cd" stroke="#9a32cd" points="336.44,-71.09 347,-71.92 339.26,-64.68 336.44,-71.09"/>
</a>
</g>
<text text-anchor="start" x="310" y="-42.5" font-family="Helvetica,sans-Serif" font-size="10.00" fill="grey">device</text>
</g>
<!-- Node5 -->
<g id="Node000005" class="node">
<title>Node5</title>
<g id="a_Node000005"><a xlink:title=" ">
<polygon fill="white" stroke="#666666" points="479.5,-163 337.5,-163 337.5,-144 479.5,-144 479.5,-163"/>
<text text-anchor="middle" x="408.5" y="-151" font-family="Helvetica,sans-Serif" font-size="10.00">_MateMixerDevicePrivate</text>
</a>
</g>
</g>
<!-- Node5&#45;&gt;Node4 -->
<g id="edge4_Node000004_Node000005" class="edge">
<title>Node5&#45;&gt;Node4</title>
<g id="a_edge4_Node000004_Node000005"><a xlink:title=" ">
<path fill="none" stroke="#9a32cd" stroke-dasharray="5,2" d="M398.13,-135.21C389.73,-121.22 378.26,-102.1 371.69,-91.15"/>
<polygon fill="#9a32cd" stroke="#9a32cd" points="395.2,-137.14 403.35,-143.92 401.21,-133.54 395.2,-137.14"/>
</a>
</g>
<text text-anchor="start" x="395" y="-114.5" font-family="Helvetica,sans-Serif" font-size="10.00" fill="grey">priv</text>
</g>
<!-- Node6 -->
<g id="Node000006" class="node">
<title>Node6</title>
<g id="a_Node000006"><a xlink:href="struct__MateMixerStreamControl.html" target="_top" xlink:title=" ">
<polygon fill="white" stroke="#666666" points="175.5,-91 31.5,-91 31.5,-72 175.5,-72 175.5,-91"/>
<text text-anchor="middle" x="103.5" y="-79" font-family="Helvetica,sans-Serif" font-size="10.00">_MateMixerStreamControl</text>
</a>
</g>
</g>
<!-- Node6&#45;&gt;Node3 -->
<g id="edge5_Node000003_Node000006" class="edge">
<title>Node6&#45;&gt;Node3</title>
<g id="a_edge5_Node000003_Node000006"><a xlink:title=" ">
<path fill="none" stroke="#9a32cd" stroke-dasharray="5,2" d="M119.55,-64.62C128.96,-55.82 141.34,-45.07 153.5,-37 164.03,-30.01 176.67,-23.71 187.07,-19"/>
<polygon fill="#9a32cd" stroke="#9a32cd" points="116.94,-62.28 112.14,-71.73 121.78,-67.33 116.94,-62.28"/>
</a>
</g>
<text text-anchor="start" x="156.5" y="-42.5" font-family="Helvetica,sans-Serif" font-size="10.00" fill="grey">control</text>
</g>
<!-- Node7&#45;&gt;Node6 -->
<g id="edge6_Node000006_Node000007" class="edge">
<title>Node7&#45;&gt;Node6</title>
<g id="a_edge6_Node000006_Node000007"><a xlink:title=" ">
<path fill="none" stroke="#9a32cd" stroke-dasharray="5,2" d="M93.2,-133.99C95.97,-120.13 99.64,-101.79 101.77,-91.15"/>
<polygon fill="#9a32cd" stroke="#9a32cd" points="89.75,-133.42 91.22,-143.92 96.61,-134.8 89.75,-133.42"/>
</a>
</g>
<text text-anchor="start" x="102" y="-114.5" font-family="Helvetica,sans-Serif" font-size="10.00" fill="grey">priv</text>
</g>
<!-- Node8 -->
<g id="Node000008" class="node">
<title>Node8</title>
<g id="a_Node000008"><a xlink:title=" ">
<polygon fill="white" stroke="#666666" points="393.5,-235 275.5,-235 275.5,-216 393.5,-216 393.5,-235"/>
<text text-anchor="middle" x="334.5" y="-223" font-family="Helvetica,sans-Serif" font-size="10.00">_PulseStreamPrivate</text>
</a>
</g>
</g>
<!-- Node8&#45;&gt;Node1 -->
<g id="edge8_Node000001_Node000008" class="edge">
<title>Node8&#45;&gt;Node1</title>
<g id="a_edge8_Node000001_Node000008"><a xlink:title=" ">
<path fill="none" stroke="#9a32cd" stroke-dasharray="5,2" d="M321.7,-207.71C315.41,-199.57 307.66,-189.69 300.5,-181 295.54,-174.98 289.79,-168.36 285.28,-163.24"/>
<polygon fill="#9a32cd" stroke="#9a32cd" points="318.99,-209.93 327.86,-215.73 324.54,-205.67 318.99,-209.93"/>
</a>
</g>
<text text-anchor="start" x="318" y="-186.5" font-family="Helvetica,sans-Serif" font-size="10.00" fill="grey">priv</text>
</g>
<!-- Node9 -->
<g id="Node000009" class="node">
<title>Node9</title>
<g id="a_Node000009"><a xlink:href="struct__PulseConnection.html" target="_top" xlink:title=" ">
<polygon fill="white" stroke="#666666" points="386,-307 283,-307 283,-288 386,-288 386,-307"/>
<text text-anchor="middle" x="334.5" y="-295" font-family="Helvetica,sans-Serif" font-size="10.00">_PulseConnection</text>
</a>
</g>
</g>
<!-- Node9&#45;&gt;Node8 -->
<g id="edge9_Node000008_Node000009" class="edge">
<title>Node9&#45;&gt;Node8</title>
<g id="a_edge9_Node000008_Node000009"><a xlink:title=" ">
<path fill="none" stroke="#9a32cd" stroke-dasharray="5,2" d="M334.5,-277.58C334.5,-263.76 334.5,-245.68 334.5,-235.15"/>
<polygon fill="#9a32cd" stroke="#9a32cd" points="331,-277.92 334.5,-287.92 338,-277.92 331,-277.92"/>
</a>
</g>
<text text-anchor="start" x="337.5" y="-258.5" font-family="Helvetica,sans-Serif" font-size="10.00" fill="grey">connection</text>
</g>
<!-- Node10 -->
<g id="Node000010" class="node">
<title>Node10</title>
<g id="a_Node000010"><a xlink:title=" ">
<polygon fill="white" stroke="#666666" points="403,-379 266,-379 266,-360 403,-360 403,-379"/>
<text text-anchor="middle" x="334.5" y="-367" font-family="Helvetica,sans-Serif" font-size="10.00">_PulseConnectionPrivate</text>
</a>
</g>
</g>
<!-- Node10&#45;&gt;Node9 -->
<g id="edge10_Node000009_Node000010" class="edge">
<title>Node10&#45;&gt;Node9</title>
<g id="a_edge10_Node000009_Node000010"><a xlink:title=" ">
<path fill="none" stroke="#9a32cd" stroke-dasharray="5,2" d="M334.5,-349.58C334.5,-335.76 334.5,-317.68 334.5,-307.15"/>
<polygon fill="#9a32cd" stroke="#9a32cd" points="331,-349.92 334.5,-359.92 338,-349.92 331,-349.92"/>
</a>
</g>
<text text-anchor="start" x="338" y="-330.5" font-family="Helvetica,sans-Serif" font-size="10.00" fill="grey">priv</text>
</g>
</g>
</svg>
</svg>

<style type='text/css'>
<![CDATA[
[data-mouse-over-selected='false'] { opacity: 0.7; }
[data-mouse-over-selected='true']  { opacity: 1.0; }
]]>
</style>
<script type="application/ecmascript"><![CDATA[
document.addEventListener('DOMContentLoaded', (event) => {
  highlightEdges();
  highlightAdjacentNodes();
});
]]></script>
</svg>
