<?xml version="1.0" encoding="UTF-8" standalone="no"?>
<!DOCTYPE svg PUBLIC "-//W3C//DTD SVG 1.1//EN"
 "http://www.w3.org/Graphics/SVG/1.1/DTD/svg11.dtd">
<!-- Generated by graphviz version 2.43.0 (0)
 -->
<!-- Title: CajaActions Pages: 1 -->
<svg width="185pt" height="315pt"
 viewBox="0.00 0.00 185.00 315.00" xmlns="http://www.w3.org/2000/svg" xmlns:xlink="http://www.w3.org/1999/xlink">

<svg id="main" version="1.1" xmlns="http://www.w3.org/2000/svg" xmlns:xlink="http://www.w3.org/1999/xlink" xml:space="preserve">

<style type="text/css"><![CDATA[
.node, .edge {opacity: 0.7;}
.node.selected, .edge.selected {opacity: 1;}
.edge:hover path { stroke: red; }
.edge:hover polygon { stroke: red; fill: red; }
]]></style>
<script type="application/ecmascript" xlink:href="svg.min.js"/>
<svg id="graph" class="graph">
<g id="graph0" class="graph" transform="scale(1 1) rotate(0) translate(4 311)">
<title>CajaActions</title>
<!-- Node1 -->
<g id="Node000001" class="node">
<title>Node1</title>
<g id="a_Node000001"><a xlink:title=" ">
<polygon fill="#999999" stroke="#666666" points="94,-19 20,-19 20,0 94,0 94,-19"/>
<text text-anchor="middle" x="57" y="-7" font-family="Helvetica,sans-Serif" font-size="10.00">CajaActions</text>
</a>
</g>
</g>
<!-- Node2 -->
<g id="Node000002" class="node">
<title>Node2</title>
<g id="a_Node000002"><a xlink:title=" ">
<polygon fill="white" stroke="#666666" points="114,-91 0,-91 0,-72 114,-72 114,-91"/>
<text text-anchor="middle" x="57" y="-79" font-family="Helvetica,sans-Serif" font-size="10.00">_CajaActionsPrivate</text>
</a>
</g>
</g>
<!-- Node2&#45;&gt;Node1 -->
<g id="edge1_Node000001_Node000002" class="edge">
<title>Node2&#45;&gt;Node1</title>
<g id="a_edge1_Node000001_Node000002"><a xlink:title=" ">
<path fill="none" stroke="#9a32cd" stroke-dasharray="5,2" d="M57,-61.58C57,-47.76 57,-29.68 57,-19.15"/>
<polygon fill="#9a32cd" stroke="#9a32cd" points="53.5,-61.92 57,-71.92 60.5,-61.92 53.5,-61.92"/>
</a>
</g>
<text text-anchor="start" x="60.5" y="-42.5" font-family="Helvetica,sans-Serif" font-size="10.00" fill="grey">private</text>
</g>
<!-- Node3 -->
<g id="Node000003" class="node">
<title>Node3</title>
<g id="a_Node000003"><a xlink:href="structNAPivot.html" target="_top" xlink:title=" ">
<polygon fill="white" stroke="#666666" points="139,-163 83,-163 83,-144 139,-144 139,-163"/>
<text text-anchor="middle" x="111" y="-151" font-family="Helvetica,sans-Serif" font-size="10.00">NAPivot</text>
</a>
</g>
</g>
<!-- Node3&#45;&gt;Node2 -->
<g id="edge2_Node000002_Node000003" class="edge">
<title>Node3&#45;&gt;Node2</title>
<g id="a_edge2_Node000002_Node000003"><a xlink:title=" ">
<path fill="none" stroke="#9a32cd" stroke-dasharray="5,2" d="M97.97,-135.62C87.16,-121.59 72.2,-102.21 63.68,-91.15"/>
<polygon fill="#9a32cd" stroke="#9a32cd" points="95.5,-138.14 104.38,-143.92 101.04,-133.86 95.5,-138.14"/>
</a>
</g>
<text text-anchor="start" x="93.5" y="-114.5" font-family="Helvetica,sans-Serif" font-size="10.00" fill="grey">pivot</text>
</g>
<!-- Node4 -->
<g id="Node000004" class="node">
<title>Node4</title>
<g id="a_Node000004"><a xlink:title=" ">
<polygon fill="white" stroke="#666666" points="168.5,-235 73.5,-235 73.5,-216 168.5,-216 168.5,-235"/>
<text text-anchor="middle" x="121" y="-223" font-family="Helvetica,sans-Serif" font-size="10.00">_NAPivotPrivate</text>
</a>
</g>
</g>
<!-- Node4&#45;&gt;Node3 -->
<g id="edge3_Node000003_Node000004" class="edge">
<title>Node4&#45;&gt;Node3</title>
<g id="a_edge3_Node000003_Node000004"><a xlink:title=" ">
<path fill="none" stroke="#9a32cd" stroke-dasharray="5,2" d="M118.47,-205.76C117.42,-198.08 116.17,-189.11 115,-181 114.15,-175.11 113.15,-168.48 112.36,-163.33"/>
<polygon fill="#9a32cd" stroke="#9a32cd" points="115.02,-206.39 119.84,-215.83 121.96,-205.45 115.02,-206.39"/>
</a>
</g>
<text text-anchor="start" x="120.5" y="-186.5" font-family="Helvetica,sans-Serif" font-size="10.00" fill="grey">private</text>
</g>
<!-- Node5 -->
<g id="Node000005" class="node">
<title>Node5</title>
<g id="a_Node000005"><a xlink:href="structNATimeout.html" target="_top" xlink:title=" ">
<polygon fill="white" stroke="#666666" points="80.5,-307 9.5,-307 9.5,-288 80.5,-288 80.5,-307"/>
<text text-anchor="middle" x="45" y="-295" font-family="Helvetica,sans-Serif" font-size="10.00">NATimeout</text>
</a>
</g>
</g>
<!-- Node5&#45;&gt;Node2 -->
<g id="edge5_Node000002_Node000005" class="edge">
<title>Node5&#45;&gt;Node2</title>
<g id="a_edge5_Node000002_Node000005"><a xlink:title=" ">
<path fill="none" stroke="#9a32cd" stroke-dasharray="5,2" d="M38.36,-278.12C30.97,-255.35 20.72,-215.35 26,-181 31.25,-146.8 46.21,-108.18 53.25,-91.25"/>
<polygon fill="#9a32cd" stroke="#9a32cd" points="35.13,-279.49 41.68,-287.82 41.75,-277.22 35.13,-279.49"/>
</a>
</g>
<text text-anchor="start" x="29.5" y="-186.5" font-family="Helvetica,sans-Serif" font-size="10.00" fill="grey">change_timeout</text>
</g>
<!-- Node5&#45;&gt;Node4 -->
<g id="edge4_Node000004_Node000005" class="edge">
<title>Node5&#45;&gt;Node4</title>
<g id="a_edge4_Node000004_Node000005"><a xlink:title=" ">
<path fill="none" stroke="#9a32cd" stroke-dasharray="5,2" d="M62.04,-280.8C77.35,-266.71 99.26,-246.53 111.6,-235.15"/>
<polygon fill="#9a32cd" stroke="#9a32cd" points="59.3,-278.57 54.32,-287.92 64.05,-283.72 59.3,-278.57"/>
</a>
</g>
<text text-anchor="start" x="95.5" y="-258.5" font-family="Helvetica,sans-Serif" font-size="10.00" fill="grey">change_timeout</text>
</g>
</g>
</svg>
</svg>

<style type='text/css'>
<![CDATA[
[data-mouse-over-selected='false'] { opacity: 0.7; }
[data-mouse-over-selected='true']  { opacity: 1.0; }
]]>
</style>
<script type="application/ecmascript"><![CDATA[
document.addEventListener('DOMContentLoaded', (event) => {
  highlightEdges();
  highlightAdjacentNodes();
});
]]></script>
</svg>
