<?xml version="1.0" encoding="UTF-8" standalone="no"?>
<!DOCTYPE svg PUBLIC "-//W3C//DTD SVG 1.1//EN"
 "http://www.w3.org/Graphics/SVG/1.1/DTD/svg11.dtd">
<!-- Generated by graphviz version 2.43.0 (0)
 -->
<!-- Title: _PanelWidget Pages: 1 -->
<svg width="595pt" height="243pt"
 viewBox="0.00 0.00 595.00 243.00" xmlns="http://www.w3.org/2000/svg" xmlns:xlink="http://www.w3.org/1999/xlink">
<g id="graph0" class="graph" transform="scale(1 1) rotate(0) translate(4 239)">
<title>_PanelWidget</title>
<!-- Node1 -->
<g id="Node000001" class="node">
<title>Node1</title>
<g id="a_Node000001"><a xlink:title=" ">
<polygon fill="#999999" stroke="#666666" points="279.5,-163 196.5,-163 196.5,-144 279.5,-144 279.5,-163"/>
<text text-anchor="middle" x="238" y="-151" font-family="Helvetica,sans-Serif" font-size="10.00">_PanelWidget</text>
</a>
</g>
</g>
<!-- Node5 -->
<g id="Node000005" class="node">
<title>Node5</title>
<g id="a_Node000005"><a xlink:title=" ">
<polygon fill="white" stroke="#666666" points="364.5,-91 241.5,-91 241.5,-72 364.5,-72 364.5,-91"/>
<text text-anchor="middle" x="303" y="-79" font-family="Helvetica,sans-Serif" font-size="10.00">_PanelToplevelPrivate</text>
</a>
</g>
</g>
<!-- Node1&#45;&gt;Node5 -->
<g id="edge7_Node000005_Node000001" class="edge">
<title>Node1&#45;&gt;Node5</title>
<g id="a_edge7_Node000005_Node000001"><a xlink:title=" ">
<path fill="none" stroke="#9a32cd" stroke-dasharray="5,2" d="M234.12,-134.06C233.39,-125.74 234.07,-116.19 239,-109 244.71,-100.67 253.56,-94.95 262.88,-91.03"/>
<polygon fill="#9a32cd" stroke="#9a32cd" points="230.66,-134.64 235.66,-143.99 237.58,-133.57 230.66,-134.64"/>
</a>
</g>
<text text-anchor="start" x="242" y="-114.5" font-family="Helvetica,sans-Serif" font-size="10.00" fill="grey">panel_widget</text>
</g>
<!-- Node2 -->
<g id="Node000002" class="node">
<title>Node2</title>
<g id="a_Node000002"><a xlink:href="struct__AppletData.html" target="_top" xlink:title=" ">
<polygon fill="white" stroke="#666666" points="300.5,-235 223.5,-235 223.5,-216 300.5,-216 300.5,-235"/>
<text text-anchor="middle" x="262" y="-223" font-family="Helvetica,sans-Serif" font-size="10.00">_AppletData</text>
</a>
</g>
</g>
<!-- Node2&#45;&gt;Node1 -->
<g id="edge1_Node000001_Node000002" class="edge">
<title>Node2&#45;&gt;Node1</title>
<g id="a_edge1_Node000001_Node000002"><a xlink:title=" ">
<path fill="none" stroke="#9a32cd" stroke-dasharray="5,2" d="M244.94,-208.24C242.53,-205.08 240.4,-201.62 239,-198 234.59,-186.59 235.36,-172.2 236.52,-163.17"/>
<polygon fill="#9a32cd" stroke="#9a32cd" points="242.39,-210.64 251.66,-215.78 247.62,-205.99 242.39,-210.64"/>
</a>
</g>
<text text-anchor="start" x="242.5" y="-186.5" font-family="Helvetica,sans-Serif" font-size="10.00" fill="grey">currently_dragged_applet</text>
</g>
<!-- Node3 -->
<g id="Node000003" class="node">
<title>Node3</title>
<g id="a_Node000003"><a xlink:href="struct__PanelBackground.html" target="_top" xlink:title=" ">
<polygon fill="white" stroke="#666666" points="106,-235 0,-235 0,-216 106,-216 106,-235"/>
<text text-anchor="middle" x="53" y="-223" font-family="Helvetica,sans-Serif" font-size="10.00">_PanelBackground</text>
</a>
</g>
</g>
<!-- Node3&#45;&gt;Node1 -->
<g id="edge2_Node000001_Node000003" class="edge">
<title>Node3&#45;&gt;Node1</title>
<g id="a_edge2_Node000001_Node000003"><a xlink:title=" ">
<path fill="none" stroke="#9a32cd" stroke-dasharray="5,2" d="M84.8,-212.3C107.65,-203.54 139.2,-191.49 167,-181 183,-174.96 201.06,-168.22 214.96,-163.05"/>
<polygon fill="#9a32cd" stroke="#9a32cd" points="83.35,-209.1 75.26,-215.95 85.85,-215.64 83.35,-209.1"/>
</a>
</g>
<text text-anchor="start" x="170" y="-186.5" font-family="Helvetica,sans-Serif" font-size="10.00" fill="grey">background</text>
</g>
<!-- Node3&#45;&gt;Node3 -->
<g id="edge3_Node000003_Node000003" class="edge">
<title>Node3&#45;&gt;Node3</title>
<g id="a_edge3_Node000003_Node000003"><a xlink:title=" ">
<path fill="none" stroke="#9a32cd" stroke-dasharray="5,2" d="M116.43,-230.52C121.12,-229.39 124,-227.72 124,-225.5 124,-221.95 116.63,-219.8 106.26,-219.05"/>
<polygon fill="#9a32cd" stroke="#9a32cd" points="115.67,-227.09 106.26,-231.95 116.65,-234.02 115.67,-227.09"/>
</a>
</g>
<text text-anchor="start" x="127.5" y="-222.5" font-family="Helvetica,sans-Serif" font-size="10.00" fill="grey">notify_changed</text>
</g>
<!-- Node4 -->
<g id="Node000004" class="node">
<title>Node4</title>
<g id="a_Node000004"><a xlink:href="struct__PanelToplevel.html" target="_top" xlink:title=" ">
<polygon fill="white" stroke="#666666" points="248.5,-19 159.5,-19 159.5,0 248.5,0 248.5,-19"/>
<text text-anchor="middle" x="204" y="-7" font-family="Helvetica,sans-Serif" font-size="10.00">_PanelToplevel</text>
</a>
</g>
</g>
<!-- Node3&#45;&gt;Node4 -->
<g id="edge5_Node000004_Node000003" class="edge">
<title>Node3&#45;&gt;Node4</title>
<g id="a_edge5_Node000004_Node000003"><a xlink:title=" ">
<path fill="none" stroke="#9a32cd" stroke-dasharray="5,2" d="M63.76,-207.45C78.2,-184.72 104.84,-143.36 129,-109 152,-76.28 158.58,-68.68 183,-37 187.59,-31.05 192.84,-24.42 196.94,-19.29"/>
<polygon fill="#9a32cd" stroke="#9a32cd" points="60.75,-205.65 58.36,-215.98 66.66,-209.4 60.75,-205.65"/>
</a>
</g>
<text text-anchor="start" x="132" y="-114.5" font-family="Helvetica,sans-Serif" font-size="10.00" fill="grey">background</text>
</g>
<!-- Node4&#45;&gt;Node1 -->
<g id="edge4_Node000001_Node000004" class="edge">
<title>Node4&#45;&gt;Node1</title>
<g id="a_edge4_Node000001_Node000004"><a xlink:title=" ">
<path fill="none" stroke="#9a32cd" stroke-dasharray="5,2" d="M194.74,-28.26C187.37,-44.83 179.45,-70.08 187,-91 195,-113.18 214.87,-133.02 227.31,-143.85"/>
<polygon fill="#9a32cd" stroke="#9a32cd" points="197.93,-29.7 199.11,-19.18 191.62,-26.67 197.93,-29.7"/>
</a>
</g>
<text text-anchor="start" x="190" y="-78.5" font-family="Helvetica,sans-Serif" font-size="10.00" fill="grey">toplevel</text>
</g>
<!-- Node4&#45;&gt;Node5 -->
<g id="edge9_Node000005_Node000004" class="edge">
<title>Node4&#45;&gt;Node5</title>
<g id="a_edge9_Node000005_Node000004"><a xlink:title=" ">
<path fill="none" stroke="#9a32cd" stroke-dasharray="5,2" d="M243.63,-22.83C252.46,-26.59 261.43,-31.28 269,-37 281.69,-46.59 292.22,-62.04 298.05,-71.71"/>
<polygon fill="#9a32cd" stroke="#9a32cd" points="244.77,-19.52 234.18,-19.11 242.21,-26.03 244.77,-19.52"/>
</a>
</g>
<text text-anchor="start" x="287" y="-42.5" font-family="Helvetica,sans-Serif" font-size="10.00" fill="grey">attach_toplevel</text>
</g>
<!-- Node5&#45;&gt;Node4 -->
<g id="edge6_Node000004_Node000005" class="edge">
<title>Node5&#45;&gt;Node4</title>
<g id="a_edge6_Node000004_Node000005"><a xlink:title=" ">
<path fill="none" stroke="#9a32cd" stroke-dasharray="5,2" d="M268.89,-67.99C260.38,-64.13 251.54,-59.44 244,-54 230.19,-44.04 217.47,-28.71 210.23,-19.16"/>
<polygon fill="#9a32cd" stroke="#9a32cd" points="267.69,-71.29 278.26,-72 270.44,-64.85 267.69,-71.29"/>
</a>
</g>
<text text-anchor="start" x="247.5" y="-42.5" font-family="Helvetica,sans-Serif" font-size="10.00" fill="grey">priv</text>
</g>
<!-- Node6 -->
<g id="Node000006" class="node">
<title>Node6</title>
<g id="a_Node000006"><a xlink:href="struct__PanelFrame.html" target="_top" xlink:title=" ">
<polygon fill="white" stroke="#666666" points="376.5,-163 297.5,-163 297.5,-144 376.5,-144 376.5,-163"/>
<text text-anchor="middle" x="337" y="-151" font-family="Helvetica,sans-Serif" font-size="10.00">_PanelFrame</text>
</a>
</g>
</g>
<!-- Node6&#45;&gt;Node5 -->
<g id="edge8_Node000005_Node000006" class="edge">
<title>Node6&#45;&gt;Node5</title>
<g id="a_edge8_Node000005_Node000006"><a xlink:title=" ">
<path fill="none" stroke="#9a32cd" stroke-dasharray="5,2" d="M328.41,-134.81C321.63,-120.86 312.47,-102 307.2,-91.15"/>
<polygon fill="#9a32cd" stroke="#9a32cd" points="325.31,-136.45 332.83,-143.92 331.61,-133.39 325.31,-136.45"/>
</a>
</g>
<text text-anchor="start" x="327" y="-114.5" font-family="Helvetica,sans-Serif" font-size="10.00" fill="grey">inner_frame</text>
</g>
<!-- Node7 -->
<g id="Node000007" class="node">
<title>Node7</title>
<g id="a_Node000007"><a xlink:href="struct__AppletSizeHints.html" target="_top" xlink:title=" ">
<polygon fill="white" stroke="#666666" points="441.5,-235 342.5,-235 342.5,-216 441.5,-216 441.5,-235"/>
<text text-anchor="middle" x="392" y="-223" font-family="Helvetica,sans-Serif" font-size="10.00">_AppletSizeHints</text>
</a>
</g>
</g>
<!-- Node7&#45;&gt;Node1 -->
<g id="edge10_Node000001_Node000007" class="edge">
<title>Node7&#45;&gt;Node1</title>
<g id="a_edge10_Node000001_Node000007"><a xlink:title=" ">
<path fill="none" stroke="#9a32cd" stroke-dasharray="5,2" d="M386.88,-206.09C383.49,-197.22 378.13,-187.19 370,-181 366.33,-178.2 316.91,-168.77 279.61,-161.95"/>
<polygon fill="#9a32cd" stroke="#9a32cd" points="383.57,-207.24 390,-215.67 390.23,-205.07 383.57,-207.24"/>
</a>
</g>
<text text-anchor="start" x="385" y="-186.5" font-family="Helvetica,sans-Serif" font-size="10.00" fill="grey">applets_hints</text>
</g>
<!-- Node8 -->
<g id="Node000008" class="node">
<title>Node8</title>
<g id="a_Node000008"><a xlink:href="struct__AppletSizeHintsAlloc.html" target="_top" xlink:title=" ">
<polygon fill="white" stroke="#666666" points="582.5,-235 459.5,-235 459.5,-216 582.5,-216 582.5,-235"/>
<text text-anchor="middle" x="521" y="-223" font-family="Helvetica,sans-Serif" font-size="10.00">_AppletSizeHintsAlloc</text>
</a>
</g>
</g>
<!-- Node8&#45;&gt;Node1 -->
<g id="edge11_Node000001_Node000008" class="edge">
<title>Node8&#45;&gt;Node1</title>
<g id="a_edge11_Node000001_Node000008"><a xlink:title=" ">
<path fill="none" stroke="#9a32cd" stroke-dasharray="5,2" d="M503.83,-209.1C491.86,-199.31 475.05,-187.32 458,-181 387.18,-154.73 363.84,-173.21 289,-163 285.98,-162.59 282.86,-162.13 279.72,-161.66"/>
<polygon fill="#9a32cd" stroke="#9a32cd" points="501.74,-211.92 511.62,-215.73 506.27,-206.58 501.74,-211.92"/>
</a>
</g>
<text text-anchor="start" x="492" y="-186.5" font-family="Helvetica,sans-Serif" font-size="10.00" fill="grey">applets_using_hint</text>
</g>
</g>
</svg>
