<?xml version="1.0" encoding="UTF-8" standalone="no"?>
<!DOCTYPE svg PUBLIC "-//W3C//DTD SVG 1.1//EN"
 "http://www.w3.org/Graphics/SVG/1.1/DTD/svg11.dtd">
<!-- Generated by graphviz version 2.43.0 (0)
 -->
<!-- Title: _MateWeatherApplet Pages: 1 -->
<svg width="292pt" height="171pt"
 viewBox="0.00 0.00 291.50 171.00" xmlns="http://www.w3.org/2000/svg" xmlns:xlink="http://www.w3.org/1999/xlink">
<g id="graph0" class="graph" transform="scale(1 1) rotate(0) translate(4 167)">
<title>_MateWeatherApplet</title>
<!-- Node1 -->
<g id="Node000001" class="node">
<title>Node1</title>
<g id="a_Node000001"><a xlink:title=" ">
<polygon fill="#999999" stroke="#666666" points="175.5,-19 56.5,-19 56.5,0 175.5,0 175.5,-19"/>
<text text-anchor="middle" x="116" y="-7" font-family="Helvetica,sans-Serif" font-size="10.00">_MateWeatherApplet</text>
</a>
</g>
</g>
<!-- Node2 -->
<g id="Node000002" class="node">
<title>Node2</title>
<g id="a_Node000002"><a xlink:href="struct__WeatherInfo.html" target="_top" xlink:title=" ">
<polygon fill="white" stroke="#666666" points="216.5,-91 135.5,-91 135.5,-72 216.5,-72 216.5,-91"/>
<text text-anchor="middle" x="176" y="-79" font-family="Helvetica,sans-Serif" font-size="10.00">_WeatherInfo</text>
</a>
</g>
</g>
<!-- Node2&#45;&gt;Node1 -->
<g id="edge1_Node000001_Node000002" class="edge">
<title>Node2&#45;&gt;Node1</title>
<g id="a_edge1_Node000001_Node000002"><a xlink:title=" ">
<path fill="none" stroke="#9a32cd" stroke-dasharray="5,2" d="M169.17,-62.2C165.5,-53.92 160.4,-44.37 154,-37 147.78,-29.83 139.22,-23.64 131.8,-19.05"/>
<polygon fill="#9a32cd" stroke="#9a32cd" points="166.04,-63.8 173.04,-71.74 172.52,-61.16 166.04,-63.8"/>
</a>
</g>
<text text-anchor="start" x="169" y="-42.5" font-family="Helvetica,sans-Serif" font-size="10.00" fill="grey">mateweather_info</text>
</g>
<!-- Node2&#45;&gt;Node2 -->
<g id="edge4_Node000002_Node000002" class="edge">
<title>Node2&#45;&gt;Node2</title>
<g id="a_edge4_Node000002_Node000002"><a xlink:title=" ">
<path fill="none" stroke="#9a32cd" stroke-dasharray="5,2" d="M226.82,-86.89C231.53,-85.78 234.5,-83.98 234.5,-81.5 234.5,-77.53 226.9,-75.31 216.73,-74.84"/>
<polygon fill="#9a32cd" stroke="#9a32cd" points="226.22,-83.44 216.73,-88.16 227.09,-90.39 226.22,-83.44"/>
</a>
</g>
<text text-anchor="start" x="238" y="-78.5" font-family="Helvetica,sans-Serif" font-size="10.00" fill="grey">finish_cb</text>
</g>
<!-- Node3 -->
<g id="Node000003" class="node">
<title>Node3</title>
<g id="a_Node000003"><a xlink:href="struct__WeatherLocation.html" target="_top" xlink:title=" ">
<polygon fill="white" stroke="#666666" points="114,-163 10,-163 10,-144 114,-144 114,-163"/>
<text text-anchor="middle" x="62" y="-151" font-family="Helvetica,sans-Serif" font-size="10.00">_WeatherLocation</text>
</a>
</g>
</g>
<!-- Node3&#45;&gt;Node2 -->
<g id="edge2_Node000002_Node000003" class="edge">
<title>Node3&#45;&gt;Node2</title>
<g id="a_edge2_Node000002_Node000003"><a xlink:title=" ">
<path fill="none" stroke="#9a32cd" stroke-dasharray="5,2" d="M84.39,-138.47C98.11,-129.91 116.03,-118.77 132,-109 141.89,-102.95 153.08,-96.21 161.7,-91.04"/>
<polygon fill="#9a32cd" stroke="#9a32cd" points="82.27,-135.67 75.65,-143.94 85.98,-141.61 82.27,-135.67"/>
</a>
</g>
<text text-anchor="start" x="135" y="-114.5" font-family="Helvetica,sans-Serif" font-size="10.00" fill="grey">location</text>
</g>
<!-- Node5 -->
<g id="Node000005" class="node">
<title>Node5</title>
<g id="a_Node000005"><a xlink:href="struct__MateWeatherPrefs.html" target="_top" xlink:title=" ">
<polygon fill="white" stroke="#666666" points="112,-91 0,-91 0,-72 112,-72 112,-91"/>
<text text-anchor="middle" x="56" y="-79" font-family="Helvetica,sans-Serif" font-size="10.00">_MateWeatherPrefs</text>
</a>
</g>
</g>
<!-- Node3&#45;&gt;Node5 -->
<g id="edge6_Node000005_Node000003" class="edge">
<title>Node3&#45;&gt;Node5</title>
<g id="a_edge6_Node000005_Node000003"><a xlink:title=" ">
<path fill="none" stroke="#9a32cd" stroke-dasharray="5,2" d="M58.07,-133.74C57.64,-131.15 57.26,-128.51 57,-126 55.74,-113.98 55.66,-99.99 55.78,-91.19"/>
<polygon fill="#9a32cd" stroke="#9a32cd" points="54.66,-134.55 59.97,-143.72 61.54,-133.24 54.66,-134.55"/>
</a>
</g>
<text text-anchor="start" x="60" y="-114.5" font-family="Helvetica,sans-Serif" font-size="10.00" fill="grey">location</text>
</g>
<!-- Node4 -->
<g id="Node000004" class="node">
<title>Node4</title>
<g id="a_Node000004"><a xlink:href="struct__WeatherConditions.html" target="_top" xlink:title=" ">
<polygon fill="white" stroke="#666666" points="251,-163 137,-163 137,-144 251,-144 251,-163"/>
<text text-anchor="middle" x="194" y="-151" font-family="Helvetica,sans-Serif" font-size="10.00">_WeatherConditions</text>
</a>
</g>
</g>
<!-- Node4&#45;&gt;Node2 -->
<g id="edge3_Node000002_Node000004" class="edge">
<title>Node4&#45;&gt;Node2</title>
<g id="a_edge3_Node000002_Node000004"><a xlink:title=" ">
<path fill="none" stroke="#9a32cd" stroke-dasharray="5,2" d="M189.24,-133.99C185.68,-120.13 180.96,-101.79 178.23,-91.15"/>
<polygon fill="#9a32cd" stroke="#9a32cd" points="185.91,-135.1 191.79,-143.92 192.69,-133.36 185.91,-135.1"/>
</a>
</g>
<text text-anchor="start" x="190" y="-114.5" font-family="Helvetica,sans-Serif" font-size="10.00" fill="grey">cond</text>
</g>
<!-- Node5&#45;&gt;Node1 -->
<g id="edge5_Node000001_Node000005" class="edge">
<title>Node5&#45;&gt;Node1</title>
<g id="a_edge5_Node000001_Node000005"><a xlink:title=" ">
<path fill="none" stroke="#9a32cd" stroke-dasharray="5,2" d="M49.85,-61.84C48.3,-53.61 48.22,-44.19 53,-37 58.51,-28.7 67.19,-22.99 76.37,-19.07"/>
<polygon fill="#9a32cd" stroke="#9a32cd" points="46.51,-62.92 52.45,-71.69 53.28,-61.13 46.51,-62.92"/>
</a>
</g>
<text text-anchor="start" x="56.5" y="-42.5" font-family="Helvetica,sans-Serif" font-size="10.00" fill="grey">mateweather_pref</text>
</g>
</g>
</svg>
