<?xml version="1.0" encoding="UTF-8" standalone="no"?>
<!DOCTYPE svg PUBLIC "-//W3C//DTD SVG 1.1//EN"
 "http://www.w3.org/Graphics/SVG/1.1/DTD/svg11.dtd">
<!-- Generated by graphviz version 2.43.0 (0)
 -->
<!-- Title: _GdictApp Pages: 1 -->
<svg width="216pt" height="243pt"
 viewBox="0.00 0.00 216.00 243.00" xmlns="http://www.w3.org/2000/svg" xmlns:xlink="http://www.w3.org/1999/xlink">

<svg id="main" version="1.1" xmlns="http://www.w3.org/2000/svg" xmlns:xlink="http://www.w3.org/1999/xlink" xml:space="preserve">

<style type="text/css"><![CDATA[
.node, .edge {opacity: 0.7;}
.node.selected, .edge.selected {opacity: 1;}
.edge:hover path { stroke: red; }
.edge:hover polygon { stroke: red; fill: red; }
]]></style>
<script type="application/ecmascript" xlink:href="svg.min.js"/>
<svg id="graph" class="graph">
<g id="graph0" class="graph" transform="scale(1 1) rotate(0) translate(4 239)">
<title>_GdictApp</title>
<!-- Node1 -->
<g id="Node000001" class="node">
<title>Node1</title>
<g id="a_Node000001"><a xlink:title=" ">
<polygon fill="#999999" stroke="#666666" points="107,-19 41,-19 41,0 107,0 107,-19"/>
<text text-anchor="middle" x="74" y="-7" font-family="Helvetica,sans-Serif" font-size="10.00">_GdictApp</text>
</a>
</g>
</g>
<!-- Node2 -->
<g id="Node000002" class="node">
<title>Node2</title>
<g id="a_Node000002"><a xlink:href="struct__GdictSourceLoader.html" target="_top" xlink:title=" ">
<polygon fill="white" stroke="#666666" points="130.5,-163 17.5,-163 17.5,-144 130.5,-144 130.5,-163"/>
<text text-anchor="middle" x="74" y="-151" font-family="Helvetica,sans-Serif" font-size="10.00">_GdictSourceLoader</text>
</a>
</g>
</g>
<!-- Node2&#45;&gt;Node1 -->
<g id="edge1_Node000001_Node000002" class="edge">
<title>Node2&#45;&gt;Node1</title>
<g id="a_edge1_Node000001_Node000002"><a xlink:title=" ">
<path fill="none" stroke="#9a32cd" stroke-dasharray="5,2" d="M71.28,-133.54C69.68,-121.4 67.81,-105.31 67,-91 65.52,-64.95 69.89,-34.26 72.38,-19.42"/>
<polygon fill="#9a32cd" stroke="#9a32cd" points="67.86,-134.34 72.69,-143.77 74.79,-133.38 67.86,-134.34"/>
</a>
</g>
<text text-anchor="start" x="70.5" y="-78.5" font-family="Helvetica,sans-Serif" font-size="10.00" fill="grey">loader</text>
</g>
<!-- Node4 -->
<g id="Node000004" class="node">
<title>Node4</title>
<g id="a_Node000004"><a xlink:href="struct__GdictWindow.html" target="_top" xlink:title=" ">
<polygon fill="white" stroke="#666666" points="199,-91 113,-91 113,-72 199,-72 199,-91"/>
<text text-anchor="middle" x="156" y="-79" font-family="Helvetica,sans-Serif" font-size="10.00">_GdictWindow</text>
</a>
</g>
</g>
<!-- Node2&#45;&gt;Node4 -->
<g id="edge4_Node000004_Node000002" class="edge">
<title>Node2&#45;&gt;Node4</title>
<g id="a_edge4_Node000004_Node000002"><a xlink:title=" ">
<path fill="none" stroke="#9a32cd" stroke-dasharray="5,2" d="M91.93,-137.19C108.46,-123.08 132.42,-102.63 145.86,-91.15"/>
<polygon fill="#9a32cd" stroke="#9a32cd" points="89.39,-134.76 84.05,-143.92 93.93,-140.09 89.39,-134.76"/>
</a>
</g>
<text text-anchor="start" x="127.5" y="-114.5" font-family="Helvetica,sans-Serif" font-size="10.00" fill="grey">loader</text>
</g>
<!-- Node3 -->
<g id="Node000003" class="node">
<title>Node3</title>
<g id="a_Node000003"><a xlink:title=" ">
<polygon fill="white" stroke="#666666" points="148,-235 0,-235 0,-216 148,-216 148,-235"/>
<text text-anchor="middle" x="74" y="-223" font-family="Helvetica,sans-Serif" font-size="10.00">_GdictSourceLoaderPrivate</text>
</a>
</g>
</g>
<!-- Node3&#45;&gt;Node2 -->
<g id="edge2_Node000002_Node000003" class="edge">
<title>Node3&#45;&gt;Node2</title>
<g id="a_edge2_Node000002_Node000003"><a xlink:title=" ">
<path fill="none" stroke="#9a32cd" stroke-dasharray="5,2" d="M74,-205.58C74,-191.76 74,-173.68 74,-163.15"/>
<polygon fill="#9a32cd" stroke="#9a32cd" points="70.5,-205.92 74,-215.92 77.5,-205.92 70.5,-205.92"/>
</a>
</g>
<text text-anchor="start" x="77.5" y="-186.5" font-family="Helvetica,sans-Serif" font-size="10.00" fill="grey">priv</text>
</g>
<!-- Node4&#45;&gt;Node1 -->
<g id="edge3_Node000001_Node000004" class="edge">
<title>Node4&#45;&gt;Node1</title>
<g id="a_edge3_Node000001_Node000004"><a xlink:title=" ">
<path fill="none" stroke="#9a32cd" stroke-dasharray="5,2" d="M138.07,-65.19C121.54,-51.08 97.58,-30.63 84.14,-19.15"/>
<polygon fill="#9a32cd" stroke="#9a32cd" points="136.07,-68.09 145.95,-71.92 140.61,-62.76 136.07,-68.09"/>
</a>
</g>
<text text-anchor="start" x="127" y="-42.5" font-family="Helvetica,sans-Serif" font-size="10.00" fill="grey">current_window</text>
</g>
</g>
</svg>
</svg>

<style type='text/css'>
<![CDATA[
[data-mouse-over-selected='false'] { opacity: 0.7; }
[data-mouse-over-selected='true']  { opacity: 1.0; }
]]>
</style>
<script type="application/ecmascript"><![CDATA[
document.addEventListener('DOMContentLoaded', (event) => {
  highlightEdges();
  highlightAdjacentNodes();
});
]]></script>
</svg>
