<?xml version="1.0" encoding="UTF-8" standalone="no"?>
<!DOCTYPE svg PUBLIC "-//W3C//DTD SVG 1.1//EN"
 "http://www.w3.org/Graphics/SVG/1.1/DTD/svg11.dtd">
<!-- Generated by graphviz version 2.43.0 (0)
 -->
<!-- Title: _PlumaDocInfoPlugin Pages: 1 -->
<svg width="943pt" height="716pt"
 viewBox="0.00 0.00 943.00 716.00" xmlns="http://www.w3.org/2000/svg" xmlns:xlink="http://www.w3.org/1999/xlink">
<g id="graph0" class="graph" transform="scale(1 1) rotate(0) translate(4 712)">
<title>_PlumaDocInfoPlugin</title>
<!-- Node1 -->
<g id="Node000001" class="node">
<title>Node1</title>
<g id="a_Node000001"><a xlink:title=" ">
<polygon fill="#999999" stroke="#666666" points="259.5,-19 139.5,-19 139.5,0 259.5,0 259.5,-19"/>
<text text-anchor="middle" x="199.5" y="-7" font-family="Helvetica,sans-Serif" font-size="10.00">_PlumaDocInfoPlugin</text>
</a>
</g>
</g>
<!-- Node2 -->
<g id="Node000002" class="node">
<title>Node2</title>
<g id="a_Node000002"><a xlink:title=" ">
<polygon fill="white" stroke="#666666" points="277,-91 122,-91 122,-72 277,-72 277,-91"/>
<text text-anchor="middle" x="199.5" y="-79" font-family="Helvetica,sans-Serif" font-size="10.00">_PlumaDocInfoPluginPrivate</text>
</a>
</g>
</g>
<!-- Node2&#45;&gt;Node1 -->
<g id="edge1_Node000001_Node000002" class="edge">
<title>Node2&#45;&gt;Node1</title>
<g id="a_edge1_Node000001_Node000002"><a xlink:title=" ">
<path fill="none" stroke="#9a32cd" stroke-dasharray="5,2" d="M199.5,-61.58C199.5,-47.76 199.5,-29.68 199.5,-19.15"/>
<polygon fill="#9a32cd" stroke="#9a32cd" points="196,-61.92 199.5,-71.92 203,-61.92 196,-61.92"/>
</a>
</g>
<text text-anchor="start" x="203" y="-42.5" font-family="Helvetica,sans-Serif" font-size="10.00" fill="grey">priv</text>
</g>
<!-- Node3 -->
<g id="Node000003" class="node">
<title>Node3</title>
<g id="a_Node000003"><a xlink:href="struct__PlumaWindow.html" target="_top" xlink:title=" ">
<polygon fill="white" stroke="#666666" points="192.5,-163 100.5,-163 100.5,-144 192.5,-144 192.5,-163"/>
<text text-anchor="middle" x="146.5" y="-151" font-family="Helvetica,sans-Serif" font-size="10.00">_PlumaWindow</text>
</a>
</g>
</g>
<!-- Node3&#45;&gt;Node2 -->
<g id="edge2_Node000002_Node000003" class="edge">
<title>Node3&#45;&gt;Node2</title>
<g id="a_edge2_Node000002_Node000003"><a xlink:title=" ">
<path fill="none" stroke="#9a32cd" stroke-dasharray="5,2" d="M159.28,-135.62C169.9,-121.59 184.58,-102.21 192.95,-91.15"/>
<polygon fill="#9a32cd" stroke="#9a32cd" points="156.24,-133.83 153,-143.92 161.83,-138.06 156.24,-133.83"/>
</a>
</g>
<text text-anchor="start" x="182.5" y="-114.5" font-family="Helvetica,sans-Serif" font-size="10.00" fill="grey">window</text>
</g>
<!-- Node4 -->
<g id="Node000004" class="node">
<title>Node4</title>
<g id="a_Node000004"><a xlink:href="struct__PlumaWindowPrivate.html" target="_top" xlink:title=" ">
<polygon fill="white" stroke="#666666" points="209.5,-235 83.5,-235 83.5,-216 209.5,-216 209.5,-235"/>
<text text-anchor="middle" x="146.5" y="-223" font-family="Helvetica,sans-Serif" font-size="10.00">_PlumaWindowPrivate</text>
</a>
</g>
</g>
<!-- Node4&#45;&gt;Node3 -->
<g id="edge3_Node000003_Node000004" class="edge">
<title>Node4&#45;&gt;Node3</title>
<g id="a_edge3_Node000003_Node000004"><a xlink:title=" ">
<path fill="none" stroke="#9a32cd" stroke-dasharray="5,2" d="M146.5,-205.58C146.5,-191.76 146.5,-173.68 146.5,-163.15"/>
<polygon fill="#9a32cd" stroke="#9a32cd" points="143,-205.92 146.5,-215.92 150,-205.92 143,-205.92"/>
</a>
</g>
<text text-anchor="start" x="150" y="-186.5" font-family="Helvetica,sans-Serif" font-size="10.00" fill="grey">priv</text>
</g>
<!-- Node5 -->
<g id="Node000005" class="node">
<title>Node5</title>
<g id="a_Node000005"><a xlink:href="struct__PlumaMessageBus.html" target="_top" xlink:title=" ">
<polygon fill="white" stroke="#666666" points="148.5,-307 34.5,-307 34.5,-288 148.5,-288 148.5,-307"/>
<text text-anchor="middle" x="91.5" y="-295" font-family="Helvetica,sans-Serif" font-size="10.00">_PlumaMessageBus</text>
</a>
</g>
</g>
<!-- Node5&#45;&gt;Node4 -->
<g id="edge4_Node000004_Node000005" class="edge">
<title>Node5&#45;&gt;Node4</title>
<g id="a_edge4_Node000004_Node000005"><a xlink:title=" ">
<path fill="none" stroke="#9a32cd" stroke-dasharray="5,2" d="M95.59,-277.87C98.06,-269.65 101.85,-260.23 107.5,-253 113.25,-245.65 121.61,-239.59 129.12,-235.13"/>
<polygon fill="#9a32cd" stroke="#9a32cd" points="92.16,-277.16 93.07,-287.71 98.94,-278.9 92.16,-277.16"/>
</a>
</g>
<text text-anchor="start" x="111" y="-258.5" font-family="Helvetica,sans-Serif" font-size="10.00" fill="grey">message_bus</text>
</g>
<!-- Node6 -->
<g id="Node000006" class="node">
<title>Node6</title>
<g id="a_Node000006"><a xlink:title=" ">
<polygon fill="white" stroke="#666666" points="149,-379 0,-379 0,-360 149,-360 149,-379"/>
<text text-anchor="middle" x="74.5" y="-367" font-family="Helvetica,sans-Serif" font-size="10.00">_PlumaMessageBusPrivate</text>
</a>
</g>
</g>
<!-- Node6&#45;&gt;Node5 -->
<g id="edge5_Node000005_Node000006" class="edge">
<title>Node6&#45;&gt;Node5</title>
<g id="a_edge5_Node000005_Node000006"><a xlink:title=" ">
<path fill="none" stroke="#9a32cd" stroke-dasharray="5,2" d="M79,-349.99C82.36,-336.13 86.82,-317.79 89.4,-307.15"/>
<polygon fill="#9a32cd" stroke="#9a32cd" points="75.54,-349.37 76.58,-359.92 82.35,-351.03 75.54,-349.37"/>
</a>
</g>
<text text-anchor="start" x="89" y="-330.5" font-family="Helvetica,sans-Serif" font-size="10.00" fill="grey">priv</text>
</g>
<!-- Node7 -->
<g id="Node000007" class="node">
<title>Node7</title>
<g id="a_Node000007"><a xlink:href="struct__PlumaTab.html" target="_top" xlink:title=" ">
<polygon fill="white" stroke="#666666" points="245,-307 176,-307 176,-288 245,-288 245,-307"/>
<text text-anchor="middle" x="210.5" y="-295" font-family="Helvetica,sans-Serif" font-size="10.00">_PlumaTab</text>
</a>
</g>
</g>
<!-- Node7&#45;&gt;Node4 -->
<g id="edge6_Node000004_Node000007" class="edge">
<title>Node7&#45;&gt;Node4</title>
<g id="a_edge6_Node000004_Node000007"><a xlink:title=" ">
<path fill="none" stroke="#9a32cd" stroke-dasharray="5,2" d="M200.38,-279.32C195.02,-270.93 188,-260.95 180.5,-253 174.23,-246.36 166.22,-240.03 159.54,-235.22"/>
<polygon fill="#9a32cd" stroke="#9a32cd" points="197.45,-281.23 205.66,-287.92 203.41,-277.57 197.45,-281.23"/>
</a>
</g>
<text text-anchor="start" x="196.5" y="-258.5" font-family="Helvetica,sans-Serif" font-size="10.00" fill="grey">active_tab</text>
</g>
<!-- Node8 -->
<g id="Node000008" class="node">
<title>Node8</title>
<g id="a_Node000008"><a xlink:title=" ">
<polygon fill="white" stroke="#666666" points="271.5,-379 167.5,-379 167.5,-360 271.5,-360 271.5,-379"/>
<text text-anchor="middle" x="219.5" y="-367" font-family="Helvetica,sans-Serif" font-size="10.00">_PlumaTabPrivate</text>
</a>
</g>
</g>
<!-- Node8&#45;&gt;Node7 -->
<g id="edge7_Node000007_Node000008" class="edge">
<title>Node8&#45;&gt;Node7</title>
<g id="a_edge7_Node000007_Node000008"><a xlink:title=" ">
<path fill="none" stroke="#9a32cd" stroke-dasharray="5,2" d="M217.12,-349.99C215.34,-336.13 212.98,-317.79 211.61,-307.15"/>
<polygon fill="#9a32cd" stroke="#9a32cd" points="213.65,-350.44 218.4,-359.92 220.59,-349.55 213.65,-350.44"/>
</a>
</g>
<text text-anchor="start" x="219" y="-330.5" font-family="Helvetica,sans-Serif" font-size="10.00" fill="grey">priv</text>
</g>
<!-- Node9 -->
<g id="Node000009" class="node">
<title>Node9</title>
<g id="a_Node000009"><a xlink:href="struct__PlumaPrintJob.html" target="_top" xlink:title=" ">
<polygon fill="white" stroke="#666666" points="141.5,-451 51.5,-451 51.5,-432 141.5,-432 141.5,-451"/>
<text text-anchor="middle" x="96.5" y="-439" font-family="Helvetica,sans-Serif" font-size="10.00">_PlumaPrintJob</text>
</a>
</g>
</g>
<!-- Node9&#45;&gt;Node8 -->
<g id="edge8_Node000008_Node000009" class="edge">
<title>Node9&#45;&gt;Node8</title>
<g id="a_edge8_Node000008_Node000009"><a xlink:title=" ">
<path fill="none" stroke="#9a32cd" stroke-dasharray="5,2" d="M98.34,-421.79C100.13,-413.13 103.64,-403.38 110.5,-397 119.09,-389.01 143.75,-382.67 167.44,-378.2"/>
<polygon fill="#9a32cd" stroke="#9a32cd" points="94.85,-421.43 96.87,-431.83 101.78,-422.44 94.85,-421.43"/>
</a>
</g>
<text text-anchor="start" x="114" y="-402.5" font-family="Helvetica,sans-Serif" font-size="10.00" fill="grey">print_job</text>
</g>
<!-- Node10 -->
<g id="Node000010" class="node">
<title>Node10</title>
<g id="a_Node000010"><a xlink:title=" ">
<polygon fill="white" stroke="#666666" points="145,-538 20,-538 20,-519 145,-519 145,-538"/>
<text text-anchor="middle" x="82.5" y="-526" font-family="Helvetica,sans-Serif" font-size="10.00">_PlumaPrintJobPrivate</text>
</a>
</g>
</g>
<!-- Node10&#45;&gt;Node9 -->
<g id="edge9_Node000009_Node000010" class="edge">
<title>Node10&#45;&gt;Node9</title>
<g id="a_edge9_Node000009_Node000010"><a xlink:title=" ">
<path fill="none" stroke="#9a32cd" stroke-dasharray="5,2" d="M85.61,-508.62C88.55,-490.79 92.82,-464.83 95.04,-451.36"/>
<polygon fill="#9a32cd" stroke="#9a32cd" points="82.12,-508.29 83.95,-518.72 89.02,-509.43 82.12,-508.29"/>
</a>
</g>
<text text-anchor="start" x="96" y="-482" font-family="Helvetica,sans-Serif" font-size="10.00" fill="grey">priv</text>
</g>
<!-- Node11 -->
<g id="Node000011" class="node">
<title>Node11</title>
<g id="a_Node000011"><a xlink:href="struct__PlumaView.html" target="_top" xlink:title=" ">
<polygon fill="white" stroke="#666666" points="120,-625 43,-625 43,-606 120,-606 120,-625"/>
<text text-anchor="middle" x="81.5" y="-613" font-family="Helvetica,sans-Serif" font-size="10.00">_PlumaView</text>
</a>
</g>
</g>
<!-- Node11&#45;&gt;Node10 -->
<g id="edge10_Node000010_Node000011" class="edge">
<title>Node11&#45;&gt;Node10</title>
<g id="a_edge10_Node000010_Node000011"><a xlink:title=" ">
<path fill="none" stroke="#9a32cd" stroke-dasharray="5,2" d="M81.72,-595.62C81.93,-577.79 82.24,-551.83 82.4,-538.36"/>
<polygon fill="#9a32cd" stroke="#9a32cd" points="78.22,-595.68 81.6,-605.72 85.22,-595.77 78.22,-595.68"/>
</a>
</g>
<text text-anchor="start" x="85.5" y="-569" font-family="Helvetica,sans-Serif" font-size="10.00" fill="grey">view</text>
</g>
<!-- Node12 -->
<g id="Node000012" class="node">
<title>Node12</title>
<g id="a_Node000012"><a xlink:title=" ">
<polygon fill="white" stroke="#666666" points="137,-702.5 26,-702.5 26,-683.5 137,-683.5 137,-702.5"/>
<text text-anchor="middle" x="81.5" y="-690.5" font-family="Helvetica,sans-Serif" font-size="10.00">_PlumaViewPrivate</text>
</a>
</g>
</g>
<!-- Node12&#45;&gt;Node11 -->
<g id="edge11_Node000011_Node000012" class="edge">
<title>Node12&#45;&gt;Node11</title>
<g id="a_edge11_Node000011_Node000012"><a xlink:title=" ">
<path fill="none" stroke="#9a32cd" stroke-dasharray="5,2" d="M81.5,-672.9C81.5,-657.51 81.5,-636.61 81.5,-625.06"/>
<polygon fill="#9a32cd" stroke="#9a32cd" points="78,-673.34 81.5,-683.34 85,-673.34 78,-673.34"/>
</a>
</g>
<text text-anchor="start" x="85" y="-648.5" font-family="Helvetica,sans-Serif" font-size="10.00" fill="grey">priv</text>
</g>
<!-- Node13 -->
<g id="Node000013" class="node">
<title>Node13</title>
<g id="a_Node000013"><a xlink:href="struct__PlumaDocument.html" target="_top" xlink:title=" ">
<polygon fill="white" stroke="#666666" points="378,-625 275,-625 275,-606 378,-606 378,-625"/>
<text text-anchor="middle" x="326.5" y="-613" font-family="Helvetica,sans-Serif" font-size="10.00">_PlumaDocument</text>
</a>
</g>
</g>
<!-- Node13&#45;&gt;Node10 -->
<g id="edge12_Node000010_Node000013" class="edge">
<title>Node13&#45;&gt;Node10</title>
<g id="a_edge12_Node000010_Node000013"><a xlink:title=" ">
<path fill="none" stroke="#9a32cd" stroke-dasharray="5,2" d="M264.65,-611.17C217.34,-607.66 156.73,-600.81 135.5,-588 120.5,-578.95 124.25,-568.99 112.5,-556 106.63,-549.51 99.27,-542.98 93.31,-538.04"/>
<polygon fill="#9a32cd" stroke="#9a32cd" points="264.61,-614.68 274.83,-611.89 265.1,-607.69 264.61,-614.68"/>
</a>
</g>
<text text-anchor="start" x="138.5" y="-569" font-family="Helvetica,sans-Serif" font-size="10.00" fill="grey">doc</text>
</g>
<!-- Node14 -->
<g id="Node000014" class="node">
<title>Node14</title>
<g id="a_Node000014"><a xlink:title=" ">
<polygon fill="white" stroke="#666666" points="598,-379 461,-379 461,-360 598,-360 598,-379"/>
<text text-anchor="middle" x="529.5" y="-367" font-family="Helvetica,sans-Serif" font-size="10.00">_PlumaDocumentPrivate</text>
</a>
</g>
</g>
<!-- Node13&#45;&gt;Node14 -->
<g id="edge26_Node000014_Node000013" class="edge">
<title>Node13&#45;&gt;Node14</title>
<g id="a_edge26_Node000014_Node000013"><a xlink:title=" ">
<path fill="none" stroke="#9a32cd" stroke-dasharray="5,2" d="M301.06,-600.93C257.21,-575.74 175.36,-519.71 210.5,-469 240.91,-425.11 392.79,-393.37 475.54,-379.03"/>
<polygon fill="#9a32cd" stroke="#9a32cd" points="299.6,-604.12 310.03,-605.96 303.02,-598.02 299.6,-604.12"/>
</a>
</g>
<text text-anchor="start" x="213.5" y="-482" font-family="Helvetica,sans-Serif" font-size="10.00" fill="grey">mount_operation_factory</text>
</g>
<!-- Node17 -->
<g id="Node000017" class="node">
<title>Node17</title>
<g id="a_Node000017"><a xlink:title=" ">
<polygon fill="white" stroke="#666666" points="874.5,-538 704.5,-538 704.5,-519 874.5,-519 874.5,-538"/>
<text text-anchor="middle" x="789.5" y="-526" font-family="Helvetica,sans-Serif" font-size="10.00">_PlumaDocumentLoaderPrivate</text>
</a>
</g>
</g>
<!-- Node13&#45;&gt;Node17 -->
<g id="edge17_Node000017_Node000013" class="edge">
<title>Node13&#45;&gt;Node17</title>
<g id="a_edge17_Node000017_Node000013"><a xlink:title=" ">
<path fill="none" stroke="#9a32cd" stroke-dasharray="5,2" d="M388.16,-605.62C418.74,-600.92 456.17,-594.74 489.5,-588 548.67,-576.04 562.3,-567.82 621.5,-556 656.39,-549.03 695.66,-542.75 727.45,-538.06"/>
<polygon fill="#9a32cd" stroke="#9a32cd" points="387.43,-602.19 378.07,-607.15 388.48,-609.11 387.43,-602.19"/>
</a>
</g>
<text text-anchor="start" x="625" y="-569" font-family="Helvetica,sans-Serif" font-size="10.00" fill="grey">document</text>
</g>
<!-- Node21 -->
<g id="Node000021" class="node">
<title>Node21</title>
<g id="a_Node000021"><a xlink:title=" ">
<polygon fill="white" stroke="#666666" points="520,-538 355,-538 355,-519 520,-519 520,-538"/>
<text text-anchor="middle" x="437.5" y="-526" font-family="Helvetica,sans-Serif" font-size="10.00">_PlumaDocumentSaverPrivate</text>
</a>
</g>
</g>
<!-- Node13&#45;&gt;Node21 -->
<g id="edge23_Node000021_Node000013" class="edge">
<title>Node13&#45;&gt;Node21</title>
<g id="a_edge23_Node000021_Node000013"><a xlink:title=" ">
<path fill="none" stroke="#9a32cd" stroke-dasharray="5,2" d="M335.25,-596.41C342.8,-581.42 353.57,-561.7 360.5,-556 370.55,-547.74 383.32,-542 395.56,-538.03"/>
<polygon fill="#9a32cd" stroke="#9a32cd" points="331.9,-595.28 330.62,-605.79 338.18,-598.38 331.9,-595.28"/>
</a>
</g>
<text text-anchor="start" x="364" y="-569" font-family="Helvetica,sans-Serif" font-size="10.00" fill="grey">document</text>
</g>
<!-- Node14&#45;&gt;Node13 -->
<g id="edge13_Node000013_Node000014" class="edge">
<title>Node14&#45;&gt;Node13</title>
<g id="a_edge13_Node000013_Node000014"><a xlink:title=" ">
<path fill="none" stroke="#9a32cd" stroke-dasharray="5,2" d="M478.9,-381.81C448.28,-390.9 410.28,-406.49 384.5,-432 333.69,-482.27 327.31,-576.83 326.58,-605.82"/>
<polygon fill="#9a32cd" stroke="#9a32cd" points="479.89,-385.17 488.56,-379.08 477.99,-378.43 479.89,-385.17"/>
</a>
</g>
<text text-anchor="start" x="360" y="-482" font-family="Helvetica,sans-Serif" font-size="10.00" fill="grey">priv</text>
</g>
<!-- Node15 -->
<g id="Node000015" class="node">
<title>Node15</title>
<g id="a_Node000015"><a xlink:title=" ">
<polygon fill="white" stroke="#666666" points="670,-625 573,-625 573,-606 670,-606 670,-625"/>
<text text-anchor="middle" x="621.5" y="-613" font-family="Helvetica,sans-Serif" font-size="10.00">_PlumaEncoding</text>
</a>
</g>
</g>
<!-- Node15&#45;&gt;Node8 -->
<g id="edge27_Node000008_Node000015" class="edge">
<title>Node15&#45;&gt;Node8</title>
<g id="a_edge27_Node000008_Node000015"><a xlink:title=" ">
<path fill="none" stroke="#9a32cd" stroke-dasharray="5,2" d="M610.41,-597.29C589.28,-566.06 539.99,-500.38 480.5,-469 442.1,-448.75 425.71,-464.64 384.5,-451 326.1,-431.67 261.97,-395.73 233.95,-379.21"/>
<polygon fill="#9a32cd" stroke="#9a32cd" points="607.61,-599.4 616.05,-605.8 613.44,-595.53 607.61,-599.4"/>
</a>
</g>
<text text-anchor="start" x="528.5" y="-482" font-family="Helvetica,sans-Serif" font-size="10.00" fill="grey">tmp_encoding</text>
</g>
<!-- Node15&#45;&gt;Node14 -->
<g id="edge14_Node000014_Node000015" class="edge">
<title>Node15&#45;&gt;Node14</title>
<g id="a_edge14_Node000014_Node000015"><a xlink:title=" ">
<path fill="none" stroke="#9a32cd" stroke-dasharray="5,2" d="M628.57,-596.32C646.14,-549.74 688.64,-427.6 663.5,-397 654.77,-386.37 626.44,-379.94 598.06,-376.07"/>
<polygon fill="#9a32cd" stroke="#9a32cd" points="625.27,-595.16 624.96,-605.75 631.8,-597.67 625.27,-595.16"/>
</a>
</g>
<text text-anchor="start" x="670" y="-490" font-family="Helvetica,sans-Serif" font-size="10.00" fill="grey">encoding</text>
<text text-anchor="start" x="670" y="-475" font-family="Helvetica,sans-Serif" font-size="10.00" fill="grey">requested_encoding</text>
</g>
<!-- Node15&#45;&gt;Node17 -->
<g id="edge18_Node000017_Node000015" class="edge">
<title>Node15&#45;&gt;Node17</title>
<g id="a_edge18_Node000017_Node000015"><a xlink:title=" ">
<path fill="none" stroke="#9a32cd" stroke-dasharray="5,2" d="M658.96,-601.85C666.62,-598.16 674.25,-593.58 680.5,-588 692.84,-576.99 686.44,-566.15 699.5,-556 710.17,-547.7 723.39,-542 736.37,-538.08"/>
<polygon fill="#9a32cd" stroke="#9a32cd" points="657.44,-598.69 649.68,-605.91 660.25,-605.1 657.44,-598.69"/>
</a>
</g>
<text text-anchor="start" x="702.5" y="-577" font-family="Helvetica,sans-Serif" font-size="10.00" fill="grey">auto_detected_encoding</text>
<text text-anchor="start" x="702.5" y="-562" font-family="Helvetica,sans-Serif" font-size="10.00" fill="grey">encoding</text>
</g>
<!-- Node15&#45;&gt;Node21 -->
<g id="edge24_Node000021_Node000015" class="edge">
<title>Node15&#45;&gt;Node21</title>
<g id="a_edge24_Node000021_Node000015"><a xlink:title=" ">
<path fill="none" stroke="#9a32cd" stroke-dasharray="5,2" d="M562.85,-613.98C515.62,-612.17 454.56,-606.24 438.5,-588 426.42,-574.28 430.83,-550.93 434.52,-538.28"/>
<polygon fill="#9a32cd" stroke="#9a32cd" points="562.89,-617.48 573,-614.31 563.12,-610.48 562.89,-617.48"/>
</a>
</g>
<text text-anchor="start" x="442" y="-569" font-family="Helvetica,sans-Serif" font-size="10.00" fill="grey">encoding</text>
</g>
<!-- Node16 -->
<g id="Node000016" class="node">
<title>Node16</title>
<g id="a_Node000016"><a xlink:href="struct__PlumaDocumentLoader.html" target="_top" xlink:title=" ">
<polygon fill="white" stroke="#666666" points="857.5,-451 721.5,-451 721.5,-432 857.5,-432 857.5,-451"/>
<text text-anchor="middle" x="789.5" y="-439" font-family="Helvetica,sans-Serif" font-size="10.00">_PlumaDocumentLoader</text>
</a>
</g>
</g>
<!-- Node16&#45;&gt;Node14 -->
<g id="edge15_Node000014_Node000016" class="edge">
<title>Node16&#45;&gt;Node14</title>
<g id="a_edge15_Node000014_Node000016"><a xlink:title=" ">
<path fill="none" stroke="#9a32cd" stroke-dasharray="5,2" d="M764.62,-427.32C745.21,-417.57 717.29,-404.69 691.5,-397 661.46,-388.04 627.33,-381.88 598.16,-377.78"/>
<polygon fill="#9a32cd" stroke="#9a32cd" points="763.19,-430.52 773.68,-431.96 766.37,-424.29 763.19,-430.52"/>
</a>
</g>
<text text-anchor="start" x="738" y="-402.5" font-family="Helvetica,sans-Serif" font-size="10.00" fill="grey">loader</text>
</g>
<!-- Node17&#45;&gt;Node16 -->
<g id="edge16_Node000016_Node000017" class="edge">
<title>Node17&#45;&gt;Node16</title>
<g id="a_edge16_Node000016_Node000017"><a xlink:title=" ">
<path fill="none" stroke="#9a32cd" stroke-dasharray="5,2" d="M789.5,-508.62C789.5,-490.79 789.5,-464.83 789.5,-451.36"/>
<polygon fill="#9a32cd" stroke="#9a32cd" points="786,-508.72 789.5,-518.72 793,-508.72 786,-508.72"/>
</a>
</g>
<text text-anchor="start" x="793" y="-482" font-family="Helvetica,sans-Serif" font-size="10.00" fill="grey">priv</text>
</g>
<!-- Node18 -->
<g id="Node000018" class="node">
<title>Node18</title>
<g id="a_Node000018"><a xlink:href="struct__PlumaSmartCharsetConverter.html" target="_top" xlink:title=" ">
<polygon fill="white" stroke="#666666" points="935,-625 768,-625 768,-606 935,-606 935,-625"/>
<text text-anchor="middle" x="851.5" y="-613" font-family="Helvetica,sans-Serif" font-size="10.00">_PlumaSmartCharsetConverter</text>
</a>
</g>
</g>
<!-- Node18&#45;&gt;Node17 -->
<g id="edge19_Node000017_Node000018" class="edge">
<title>Node18&#45;&gt;Node17</title>
<g id="a_edge19_Node000017_Node000018"><a xlink:title=" ">
<path fill="none" stroke="#9a32cd" stroke-dasharray="5,2" d="M847.61,-595.67C844.35,-583.4 838.71,-567.57 829.5,-556 823.58,-548.57 815,-542.51 807.31,-538.06"/>
<polygon fill="#9a32cd" stroke="#9a32cd" points="844.28,-596.79 849.97,-605.72 851.09,-595.19 844.28,-596.79"/>
</a>
</g>
<text text-anchor="start" x="848" y="-569" font-family="Helvetica,sans-Serif" font-size="10.00" fill="grey">converter</text>
</g>
<!-- Node19 -->
<g id="Node000019" class="node">
<title>Node19</title>
<g id="a_Node000019"><a xlink:title=" ">
<polygon fill="white" stroke="#666666" points="935,-708 768,-708 768,-678 935,-678 935,-708"/>
<text text-anchor="start" x="776" y="-696" font-family="Helvetica,sans-Serif" font-size="10.00">_PlumaSmartCharsetConverter</text>
<text text-anchor="middle" x="851.5" y="-685" font-family="Helvetica,sans-Serif" font-size="10.00">Private</text>
</a>
</g>
</g>
<!-- Node19&#45;&gt;Node18 -->
<g id="edge20_Node000018_Node000019" class="edge">
<title>Node19&#45;&gt;Node18</title>
<g id="a_edge20_Node000018_Node000019"><a xlink:title=" ">
<path fill="none" stroke="#9a32cd" stroke-dasharray="5,2" d="M851.5,-667.4C851.5,-652.81 851.5,-635.22 851.5,-625.01"/>
<polygon fill="#9a32cd" stroke="#9a32cd" points="848,-667.8 851.5,-677.8 855,-667.8 848,-667.8"/>
</a>
</g>
<text text-anchor="start" x="855" y="-648.5" font-family="Helvetica,sans-Serif" font-size="10.00" fill="grey">priv</text>
</g>
<!-- Node20 -->
<g id="Node000020" class="node">
<title>Node20</title>
<g id="a_Node000020"><a xlink:href="struct__PlumaDocumentSaver.html" target="_top" xlink:title=" ">
<polygon fill="white" stroke="#666666" points="524,-451 393,-451 393,-432 524,-432 524,-451"/>
<text text-anchor="middle" x="458.5" y="-439" font-family="Helvetica,sans-Serif" font-size="10.00">_PlumaDocumentSaver</text>
</a>
</g>
</g>
<!-- Node20&#45;&gt;Node14 -->
<g id="edge21_Node000014_Node000020" class="edge">
<title>Node20&#45;&gt;Node14</title>
<g id="a_edge21_Node000014_Node000020"><a xlink:title=" ">
<path fill="none" stroke="#9a32cd" stroke-dasharray="5,2" d="M474.42,-424.8C488.72,-410.71 509.19,-390.53 520.72,-379.15"/>
<polygon fill="#9a32cd" stroke="#9a32cd" points="471.87,-422.4 467.21,-431.92 476.78,-427.39 471.87,-422.4"/>
</a>
</g>
<text text-anchor="start" x="504.5" y="-402.5" font-family="Helvetica,sans-Serif" font-size="10.00" fill="grey">saver</text>
</g>
<!-- Node21&#45;&gt;Node20 -->
<g id="edge22_Node000020_Node000021" class="edge">
<title>Node21&#45;&gt;Node20</title>
<g id="a_edge22_Node000020_Node000021"><a xlink:title=" ">
<path fill="none" stroke="#9a32cd" stroke-dasharray="5,2" d="M442.1,-508.88C446.51,-491.04 452.97,-464.89 456.31,-451.36"/>
<polygon fill="#9a32cd" stroke="#9a32cd" points="438.67,-508.18 439.67,-518.72 445.46,-509.86 438.67,-508.18"/>
</a>
</g>
<text text-anchor="start" x="455" y="-482" font-family="Helvetica,sans-Serif" font-size="10.00" fill="grey">priv</text>
</g>
<!-- Node22 -->
<g id="Node000022" class="node">
<title>Node22</title>
<g id="a_Node000022"><a xlink:title=" ">
<polygon fill="white" stroke="#666666" points="649,-451 542,-451 542,-432 649,-432 649,-451"/>
<text text-anchor="middle" x="595.5" y="-439" font-family="Helvetica,sans-Serif" font-size="10.00">_PlumaTextRegion</text>
</a>
</g>
</g>
<!-- Node22&#45;&gt;Node14 -->
<g id="edge25_Node000014_Node000022" class="edge">
<title>Node22&#45;&gt;Node14</title>
<g id="a_edge25_Node000014_Node000022"><a xlink:title=" ">
<path fill="none" stroke="#9a32cd" stroke-dasharray="5,2" d="M580.33,-424.41C567.06,-410.33 548.28,-390.42 537.66,-379.15"/>
<polygon fill="#9a32cd" stroke="#9a32cd" points="578,-427.04 587.41,-431.92 583.09,-422.24 578,-427.04"/>
</a>
</g>
<text text-anchor="start" x="572.5" y="-402.5" font-family="Helvetica,sans-Serif" font-size="10.00" fill="grey">to_search_region</text>
</g>
<!-- Node23 -->
<g id="Node000023" class="node">
<title>Node23</title>
<g id="a_Node000023"><a xlink:title=" ">
<polygon fill="white" stroke="#666666" points="296.5,-163 210.5,-163 210.5,-144 296.5,-144 296.5,-163"/>
<text text-anchor="middle" x="253.5" y="-151" font-family="Helvetica,sans-Serif" font-size="10.00">DocInfoDialog</text>
</a>
</g>
</g>
<!-- Node23&#45;&gt;Node2 -->
<g id="edge28_Node000002_Node000023" class="edge">
<title>Node23&#45;&gt;Node2</title>
<g id="a_edge28_Node000002_Node000023"><a xlink:title=" ">
<path fill="none" stroke="#9a32cd" stroke-dasharray="5,2" d="M244.31,-134.67C239.74,-126.5 233.84,-116.91 227.5,-109 222.31,-102.52 215.58,-96.11 210.02,-91.21"/>
<polygon fill="#9a32cd" stroke="#9a32cd" points="241.35,-136.56 249.16,-143.71 247.51,-133.24 241.35,-136.56"/>
</a>
</g>
<text text-anchor="start" x="242" y="-114.5" font-family="Helvetica,sans-Serif" font-size="10.00" fill="grey">dialog</text>
</g>
</g>
</svg>
