<?xml version="1.0" encoding="UTF-8" standalone="no"?>
<!DOCTYPE svg PUBLIC "-//W3C//DTD SVG 1.1//EN"
 "http://www.w3.org/Graphics/SVG/1.1/DTD/svg11.dtd">
<!-- Generated by graphviz version 2.43.0 (0)
 -->
<!-- Title: TestDerivedClass Pages: 1 -->
<svg width="265pt" height="171pt"
 viewBox="0.00 0.00 265.00 171.00" xmlns="http://www.w3.org/2000/svg" xmlns:xlink="http://www.w3.org/1999/xlink">
<g id="graph0" class="graph" transform="scale(1 1) rotate(0) translate(4 167)">
<title>TestDerivedClass</title>
<!-- Node1 -->
<g id="Node000001" class="node">
<title>Node1</title>
<g id="a_Node000001"><a xlink:title=" ">
<polygon fill="#999999" stroke="#666666" points="175,-19 74,-19 74,0 175,0 175,-19"/>
<text text-anchor="middle" x="124.5" y="-7" font-family="Helvetica,sans-Serif" font-size="10.00">TestDerivedClass</text>
</a>
</g>
</g>
<!-- Node2 -->
<g id="Node000002" class="node">
<title>Node2</title>
<g id="a_Node000002"><a xlink:href="structTestBaseClass.html" target="_top" xlink:title=" ">
<polygon fill="white" stroke="#666666" points="103.5,-91 17.5,-91 17.5,-72 103.5,-72 103.5,-91"/>
<text text-anchor="middle" x="60.5" y="-79" font-family="Helvetica,sans-Serif" font-size="10.00">TestBaseClass</text>
</a>
</g>
</g>
<!-- Node2&#45;&gt;Node1 -->
<g id="edge1_Node000001_Node000002" class="edge">
<title>Node2&#45;&gt;Node1</title>
<g id="a_edge1_Node000001_Node000002"><a xlink:title=" ">
<path fill="none" stroke="#9a32cd" stroke-dasharray="5,2" d="M75.21,-64.41C88.08,-50.33 106.29,-30.42 116.59,-19.15"/>
<polygon fill="#9a32cd" stroke="#9a32cd" points="72.51,-62.17 68.35,-71.92 77.68,-66.9 72.51,-62.17"/>
</a>
</g>
<text text-anchor="start" x="103.5" y="-42.5" font-family="Helvetica,sans-Serif" font-size="10.00" fill="grey">parent</text>
</g>
<!-- Node3 -->
<g id="Node000003" class="node">
<title>Node3</title>
<g id="a_Node000003"><a xlink:title=" ">
<polygon fill="white" stroke="#666666" points="121,-163 0,-163 0,-144 121,-144 121,-163"/>
<text text-anchor="middle" x="60.5" y="-151" font-family="Helvetica,sans-Serif" font-size="10.00">TestBaseClassPrivate</text>
</a>
</g>
</g>
<!-- Node3&#45;&gt;Node2 -->
<g id="edge2_Node000002_Node000003" class="edge">
<title>Node3&#45;&gt;Node2</title>
<g id="a_edge2_Node000002_Node000003"><a xlink:title=" ">
<path fill="none" stroke="#9a32cd" stroke-dasharray="5,2" d="M60.5,-133.58C60.5,-119.76 60.5,-101.68 60.5,-91.15"/>
<polygon fill="#9a32cd" stroke="#9a32cd" points="57,-133.92 60.5,-143.92 64,-133.92 57,-133.92"/>
</a>
</g>
<text text-anchor="start" x="64" y="-114.5" font-family="Helvetica,sans-Serif" font-size="10.00" fill="grey">private</text>
</g>
<!-- Node4 -->
<g id="Node000004" class="node">
<title>Node4</title>
<g id="a_Node000004"><a xlink:title=" ">
<polygon fill="white" stroke="#666666" points="257,-91 122,-91 122,-72 257,-72 257,-91"/>
<text text-anchor="middle" x="189.5" y="-79" font-family="Helvetica,sans-Serif" font-size="10.00">TestDerivedClassPrivate</text>
</a>
</g>
</g>
<!-- Node4&#45;&gt;Node1 -->
<g id="edge3_Node000001_Node000004" class="edge">
<title>Node4&#45;&gt;Node1</title>
<g id="a_edge3_Node000001_Node000004"><a xlink:title=" ">
<path fill="none" stroke="#9a32cd" stroke-dasharray="5,2" d="M174.56,-64.41C161.49,-50.33 143,-30.42 132.54,-19.15"/>
<polygon fill="#9a32cd" stroke="#9a32cd" points="172.16,-66.97 181.53,-71.92 177.29,-62.21 172.16,-66.97"/>
</a>
</g>
<text text-anchor="start" x="168" y="-42.5" font-family="Helvetica,sans-Serif" font-size="10.00" fill="grey">private</text>
</g>
</g>
</svg>
