<?xml version="1.0" encoding="UTF-8" standalone="no"?>
<!DOCTYPE svg PUBLIC "-//W3C//DTD SVG 1.1//EN"
 "http://www.w3.org/Graphics/SVG/1.1/DTD/svg11.dtd">
<!-- Generated by graphviz version 2.43.0 (0)
 -->
<!-- Title: Drawer Pages: 1 -->
<!--zoomable 243 -->

<svg id="main" version="1.1" xmlns="http://www.w3.org/2000/svg" xmlns:xlink="http://www.w3.org/1999/xlink" xml:space="preserve" onload="init(evt)">

<style type="text/css"><![CDATA[
.node, .edge {opacity: 0.7;}
.node.selected, .edge.selected {opacity: 1;}
.edge:hover path { stroke: red; }
.edge:hover polygon { stroke: red; fill: red; }
]]></style>

<defs>
  <circle id="rim" cx="0" cy="0" r="7"/>
  <circle id="rim2" cx="0" cy="0" r="3.5"/>
  <g id="zoomPlus">
    <use xlink:href="#rim" fill="#404040"><set attributeName="fill" to="#808080" begin="zoomplus.mouseover" end="zoomplus.mouseout"/></use>
    <path d="M-4,0h8M0,-4v8" fill="none" stroke="white" stroke-width="1.5" pointer-events="none"/>
  </g>
  <g id="zoomMin">
    <use xlink:href="#rim" fill="#404040"><set attributeName="fill" to="#808080" begin="zoomminus.mouseover" end="zoomminus.mouseout"/></use>
    <path d="M-4,0h8" fill="none" stroke="white" stroke-width="1.5" pointer-events="none"/>
  </g>
  <g id="arrowUp" transform="translate(30 24)">
    <use xlink:href="#rim"/>
    <path pointer-events="none" fill="none" stroke="white" stroke-width="1.5" d="M0,-3.0v7 M-2.5,-0.5L0,-3.0L2.5,-0.5"/>
  </g>
  <g id="arrowRight" transform="rotate(90) translate(36 -43)">
    <use xlink:href="#rim"/>
    <path pointer-events="none" fill="none" stroke="white" stroke-width="1.5" d="M0,-3.0v7 M-2.5,-0.5L0,-3.0L2.5,-0.5"/>
  </g>
  <g id="arrowDown" transform="rotate(180) translate(-30 -48)">
    <use xlink:href="#rim"/>
    <path pointer-events="none" fill="none" stroke="white" stroke-width="1.5" d="M0,-3.0v7 M-2.5,-0.5L0,-3.0L2.5,-0.5"/>
  </g>
  <g id="arrowLeft" transform="rotate(270) translate(-36 17)">
    <use xlink:href="#rim"/>
    <path pointer-events="none" fill="none" stroke="white" stroke-width="1.5" d="M0,-3.0v7 M-2.5,-0.5L0,-3.0L2.5,-0.5"/>
  </g>
  <g id="resetDef">
    <use xlink:href="#rim2" fill="#404040"><set attributeName="fill" to="#808080" begin="reset.mouseover" end="reset.mouseout"/></use>
  </g>
</defs>
<script type="application/ecmascript">
var viewWidth = 773;
var viewHeight = 243;
var sectionId = 'dynsection-0';
</script>
<script type="application/ecmascript" xlink:href="svg.min.js"/>
<svg id="graph" class="graph">
<g id="viewport">
<title>Drawer</title>
<!-- Node1 -->
<g id="Node000001" class="node">
<title>Node1</title>
<g id="a_Node000001"><a xlink:title=" ">
<polygon fill="#999999" stroke="#666666" points="83.5,-91 31.5,-91 31.5,-72 83.5,-72 83.5,-91"/>
<text text-anchor="middle" x="57.5" y="-79" font-family="Helvetica,sans-Serif" font-size="10.00">Drawer</text>
</a>
</g>
</g>
<!-- Node2 -->
<g id="Node000002" class="node">
<title>Node2</title>
<g id="a_Node000002"><a xlink:href="struct__PanelToplevel.html" target="_top" xlink:title=" ">
<polygon fill="white" stroke="#666666" points="300,-163 211,-163 211,-144 300,-144 300,-163"/>
<text text-anchor="middle" x="255.5" y="-151" font-family="Helvetica,sans-Serif" font-size="10.00">_PanelToplevel</text>
</a>
</g>
</g>
<!-- Node2&#45;&gt;Node1 -->
<g id="edge1_Node000001_Node000002" class="edge">
<title>Node2&#45;&gt;Node1</title>
<g id="a_edge1_Node000001_Node000002"><a xlink:title=" ">
<path fill="none" stroke="#9a32cd" stroke-dasharray="5,2" d="M200.73,-149.25C157.45,-145.76 101.3,-138.88 82.5,-126 70.28,-117.63 63.27,-101.19 59.93,-91.1"/>
<polygon fill="#9a32cd" stroke="#9a32cd" points="200.63,-152.76 210.87,-150.03 201.16,-145.78 200.63,-152.76"/>
</a>
</g>
<text text-anchor="start" x="85.5" y="-114.5" font-family="Helvetica,sans-Serif" font-size="10.00" fill="grey">toplevel</text>
</g>
<!-- Node4 -->
<g id="Node000004" class="node">
<title>Node4</title>
<g id="a_Node000004"><a xlink:title=" ">
<polygon fill="white" stroke="#666666" points="352,-19 229,-19 229,0 352,0 352,-19"/>
<text text-anchor="middle" x="290.5" y="-7" font-family="Helvetica,sans-Serif" font-size="10.00">_PanelToplevelPrivate</text>
</a>
</g>
</g>
<!-- Node2&#45;&gt;Node4 -->
<g id="edge12_Node000004_Node000002" class="edge">
<title>Node2&#45;&gt;Node4</title>
<g id="a_edge12_Node000004_Node000002"><a xlink:title=" ">
<path fill="none" stroke="#9a32cd" stroke-dasharray="5,2" d="M228.17,-139.01C201.86,-124.07 168.13,-98.57 183.5,-72 199.65,-44.09 233.79,-27.74 259.19,-19.01"/>
<polygon fill="#9a32cd" stroke="#9a32cd" points="226.62,-142.15 237.08,-143.84 229.96,-136 226.62,-142.15"/>
</a>
</g>
<text text-anchor="start" x="186.5" y="-78.5" font-family="Helvetica,sans-Serif" font-size="10.00" fill="grey">attach_toplevel</text>
</g>
<!-- Node5 -->
<g id="Node000005" class="node">
<title>Node5</title>
<g id="a_Node000005"><a xlink:href="struct__PanelWidget.html" target="_top" xlink:title=" ">
<polygon fill="white" stroke="#666666" points="391,-91 308,-91 308,-72 391,-72 391,-91"/>
<text text-anchor="middle" x="349.5" y="-79" font-family="Helvetica,sans-Serif" font-size="10.00">_PanelWidget</text>
</a>
</g>
</g>
<!-- Node2&#45;&gt;Node5 -->
<g id="edge8_Node000005_Node000002" class="edge">
<title>Node2&#45;&gt;Node5</title>
<g id="a_edge8_Node000005_Node000002"><a xlink:title=" ">
<path fill="none" stroke="#9a32cd" stroke-dasharray="5,2" d="M266.12,-135.11C272.13,-126.39 280.28,-116.18 289.5,-109 299.38,-101.3 311.85,-95.33 322.86,-91.02"/>
<polygon fill="#9a32cd" stroke="#9a32cd" points="263.01,-133.48 260.5,-143.78 268.88,-137.29 263.01,-133.48"/>
</a>
</g>
<text text-anchor="start" x="292.5" y="-114.5" font-family="Helvetica,sans-Serif" font-size="10.00" fill="grey">toplevel</text>
</g>
<!-- Node3 -->
<g id="Node000003" class="node">
<title>Node3</title>
<g id="a_Node000003"><a xlink:href="struct__PanelBackground.html" target="_top" xlink:title=" ">
<polygon fill="white" stroke="#666666" points="351.5,-235 245.5,-235 245.5,-216 351.5,-216 351.5,-235"/>
<text text-anchor="middle" x="298.5" y="-223" font-family="Helvetica,sans-Serif" font-size="10.00">_PanelBackground</text>
</a>
</g>
</g>
<!-- Node3&#45;&gt;Node2 -->
<g id="edge2_Node000002_Node000003" class="edge">
<title>Node3&#45;&gt;Node2</title>
<g id="a_edge2_Node000002_Node000003"><a xlink:title=" ">
<path fill="none" stroke="#9a32cd" stroke-dasharray="5,2" d="M274.72,-209.56C270.81,-206.18 267.18,-202.3 264.5,-198 257.82,-187.26 256.01,-172.43 255.56,-163.15"/>
<polygon fill="#9a32cd" stroke="#9a32cd" points="272.8,-212.5 282.88,-215.77 277.04,-206.93 272.8,-212.5"/>
</a>
</g>
<text text-anchor="start" x="267.5" y="-186.5" font-family="Helvetica,sans-Serif" font-size="10.00" fill="grey">background</text>
</g>
<!-- Node3&#45;&gt;Node3 -->
<g id="edge3_Node000003_Node000003" class="edge">
<title>Node3&#45;&gt;Node3</title>
<g id="a_edge3_Node000003_Node000003"><a xlink:title=" ">
<path fill="none" stroke="#9a32cd" stroke-dasharray="5,2" d="M361.93,-230.52C366.62,-229.39 369.5,-227.72 369.5,-225.5 369.5,-221.95 362.13,-219.8 351.76,-219.05"/>
<polygon fill="#9a32cd" stroke="#9a32cd" points="361.17,-227.09 351.76,-231.95 362.15,-234.02 361.17,-227.09"/>
</a>
</g>
<text text-anchor="start" x="373" y="-222.5" font-family="Helvetica,sans-Serif" font-size="10.00" fill="grey">notify_changed</text>
</g>
<!-- Node3&#45;&gt;Node5 -->
<g id="edge7_Node000005_Node000003" class="edge">
<title>Node3&#45;&gt;Node5</title>
<g id="a_edge7_Node000005_Node000003"><a xlink:title=" ">
<path fill="none" stroke="#9a32cd" stroke-dasharray="5,2" d="M319.48,-209.31C322.95,-205.94 326.17,-202.13 328.5,-198 348.63,-162.32 350.09,-111.47 349.8,-91.26"/>
<polygon fill="#9a32cd" stroke="#9a32cd" points="317.07,-206.77 311.74,-215.93 321.62,-212.09 317.07,-206.77"/>
</a>
</g>
<text text-anchor="start" x="348.5" y="-150.5" font-family="Helvetica,sans-Serif" font-size="10.00" fill="grey">background</text>
</g>
<!-- Node4&#45;&gt;Node2 -->
<g id="edge4_Node000002_Node000004" class="edge">
<title>Node4&#45;&gt;Node2</title>
<g id="a_edge4_Node000002_Node000004"><a xlink:title=" ">
<path fill="none" stroke="#9a32cd" stroke-dasharray="5,2" d="M285.54,-29.11C282.32,-41.29 278.08,-57.57 274.5,-72 268.07,-97.92 260.95,-128.67 257.54,-143.55"/>
<polygon fill="#9a32cd" stroke="#9a32cd" points="288.98,-29.81 288.16,-19.24 282.21,-28.01 288.98,-29.81"/>
</a>
</g>
<text text-anchor="start" x="278" y="-78.5" font-family="Helvetica,sans-Serif" font-size="10.00" fill="grey">priv</text>
</g>
<!-- Node5&#45;&gt;Node4 -->
<g id="edge5_Node000004_Node000005" class="edge">
<title>Node5&#45;&gt;Node4</title>
<g id="a_edge5_Node000004_Node000005"><a xlink:title=" ">
<path fill="none" stroke="#9a32cd" stroke-dasharray="5,2" d="M335.61,-64.01C323.76,-49.96 307.2,-30.32 297.79,-19.15"/>
<polygon fill="#9a32cd" stroke="#9a32cd" points="333.14,-66.53 342.27,-71.92 338.5,-62.01 333.14,-66.53"/>
</a>
</g>
<text text-anchor="start" x="329.5" y="-42.5" font-family="Helvetica,sans-Serif" font-size="10.00" fill="grey">panel_widget</text>
</g>
<!-- Node6 -->
<g id="Node000006" class="node">
<title>Node6</title>
<g id="a_Node000006"><a xlink:href="struct__AppletData.html" target="_top" xlink:title=" ">
<polygon fill="white" stroke="#666666" points="502,-163 425,-163 425,-144 502,-144 502,-163"/>
<text text-anchor="middle" x="463.5" y="-151" font-family="Helvetica,sans-Serif" font-size="10.00">_AppletData</text>
</a>
</g>
</g>
<!-- Node6&#45;&gt;Node5 -->
<g id="edge6_Node000005_Node000006" class="edge">
<title>Node6&#45;&gt;Node5</title>
<g id="a_edge6_Node000005_Node000006"><a xlink:title=" ">
<path fill="none" stroke="#9a32cd" stroke-dasharray="5,2" d="M438.94,-139.03C431.66,-134.94 423.71,-130.37 416.5,-126 397.28,-114.36 375.56,-100.03 362.19,-91.08"/>
<polygon fill="#9a32cd" stroke="#9a32cd" points="437.25,-142.1 447.69,-143.91 440.66,-135.98 437.25,-142.1"/>
</a>
</g>
<text text-anchor="start" x="420" y="-114.5" font-family="Helvetica,sans-Serif" font-size="10.00" fill="grey">currently_dragged_applet</text>
</g>
<!-- Node7 -->
<g id="Node000007" class="node">
<title>Node7</title>
<g id="a_Node000007"><a xlink:href="struct__AppletSizeHints.html" target="_top" xlink:title=" ">
<polygon fill="white" stroke="#666666" points="619,-163 520,-163 520,-144 619,-144 619,-163"/>
<text text-anchor="middle" x="569.5" y="-151" font-family="Helvetica,sans-Serif" font-size="10.00">_AppletSizeHints</text>
</a>
</g>
</g>
<!-- Node7&#45;&gt;Node5 -->
<g id="edge9_Node000005_Node000007" class="edge">
<title>Node7&#45;&gt;Node5</title>
<g id="a_edge9_Node000005_Node000007"><a xlink:title=" ">
<path fill="none" stroke="#9a32cd" stroke-dasharray="5,2" d="M564.69,-134.14C561.36,-125.12 555.96,-114.94 547.5,-109 520.57,-90.09 433.07,-95.71 400.5,-91 397.48,-90.56 394.36,-90.09 391.23,-89.61"/>
<polygon fill="#9a32cd" stroke="#9a32cd" points="561.4,-135.36 567.71,-143.87 568.09,-133.28 561.4,-135.36"/>
</a>
</g>
<text text-anchor="start" x="563.5" y="-114.5" font-family="Helvetica,sans-Serif" font-size="10.00" fill="grey">applets_hints</text>
</g>
<!-- Node8 -->
<g id="Node000008" class="node">
<title>Node8</title>
<g id="a_Node000008"><a xlink:href="struct__AppletSizeHintsAlloc.html" target="_top" xlink:title=" ">
<polygon fill="white" stroke="#666666" points="760,-163 637,-163 637,-144 760,-144 760,-163"/>
<text text-anchor="middle" x="698.5" y="-151" font-family="Helvetica,sans-Serif" font-size="10.00">_AppletSizeHintsAlloc</text>
</a>
</g>
</g>
<!-- Node8&#45;&gt;Node5 -->
<g id="edge10_Node000005_Node000008" class="edge">
<title>Node8&#45;&gt;Node5</title>
<g id="a_edge10_Node000005_Node000008"><a xlink:title=" ">
<path fill="none" stroke="#9a32cd" stroke-dasharray="5,2" d="M682.12,-137.28C670.36,-127.35 653.63,-115.14 636.5,-109 586.98,-91.26 452.71,-97.33 400.5,-91 397.47,-90.63 394.35,-90.21 391.2,-89.76"/>
<polygon fill="#9a32cd" stroke="#9a32cd" points="679.91,-140 689.73,-143.99 684.54,-134.75 679.91,-140"/>
</a>
</g>
<text text-anchor="start" x="669.5" y="-114.5" font-family="Helvetica,sans-Serif" font-size="10.00" fill="grey">applets_using_hint</text>
</g>
<!-- Node9 -->
<g id="Node000009" class="node">
<title>Node9</title>
<g id="a_Node000009"><a xlink:href="struct__PanelFrame.html" target="_top" xlink:title=" ">
<polygon fill="white" stroke="#666666" points="488,-91 409,-91 409,-72 488,-72 488,-91"/>
<text text-anchor="middle" x="448.5" y="-79" font-family="Helvetica,sans-Serif" font-size="10.00">_PanelFrame</text>
</a>
</g>
</g>
<!-- Node9&#45;&gt;Node4 -->
<g id="edge11_Node000004_Node000009" class="edge">
<title>Node9&#45;&gt;Node4</title>
<g id="a_edge11_Node000004_Node000009"><a xlink:title=" ">
<path fill="none" stroke="#9a32cd" stroke-dasharray="5,2" d="M434.91,-63.9C426.49,-54.66 414.94,-43.71 402.5,-37 387.11,-28.7 369.16,-22.97 352.19,-19.04"/>
<polygon fill="#9a32cd" stroke="#9a32cd" points="432.5,-66.46 441.69,-71.72 437.79,-61.87 432.5,-66.46"/>
</a>
</g>
<text text-anchor="start" x="427.5" y="-42.5" font-family="Helvetica,sans-Serif" font-size="10.00" fill="grey">inner_frame</text>
</g>
<!-- Node10 -->
<g id="Node000010" class="node">
<title>Node10</title>
<g id="a_Node000010"><a xlink:href="structAppletInfo.html" target="_top" xlink:title=" ">
<polygon fill="white" stroke="#666666" points="67,-163 0,-163 0,-144 67,-144 67,-163"/>
<text text-anchor="middle" x="33.5" y="-151" font-family="Helvetica,sans-Serif" font-size="10.00">AppletInfo</text>
</a>
</g>
</g>
<!-- Node10&#45;&gt;Node1 -->
<g id="edge13_Node000001_Node000010" class="edge">
<title>Node10&#45;&gt;Node1</title>
<g id="a_edge13_Node000001_Node000010"><a xlink:title=" ">
<path fill="none" stroke="#9a32cd" stroke-dasharray="5,2" d="M31.18,-133.78C30.9,-125.89 31.5,-116.76 34.5,-109 37.14,-102.18 42.35,-95.93 47.16,-91.22"/>
<polygon fill="#9a32cd" stroke="#9a32cd" points="27.7,-134.15 32.02,-143.83 34.68,-133.57 27.7,-134.15"/>
</a>
</g>
<text text-anchor="start" x="38" y="-114.5" font-family="Helvetica,sans-Serif" font-size="10.00" fill="grey">info</text>
</g>
</g>
</svg>

<g id="navigator" transform="translate(0 0)" fill="#404254">
  <rect fill="#f2f5e9" fill-opacity="0.5" stroke="#606060" stroke-width=".5" x="0" y="0" width="60" height="60"/>
  <use id="zoomplus" xlink:href="#zoomPlus" x="17" y="9" onmousedown="handleZoom(evt,'in')"/>
  <use id="zoomminus" xlink:href="#zoomMin" x="42" y="9" onmousedown="handleZoom(evt,'out')"/>
  <use id="reset" xlink:href="#resetDef" x="30" y="36" onmousedown="handleReset()"/>
   <use id="arrowup" xlink:href="#arrowUp" x="0" y="0" onmousedown="handlePan(0,-1)"/>
  <use id="arrowright" xlink:href="#arrowRight" x="0" y="0" onmousedown="handlePan(1,0)"/>
  <use id="arrowdown" xlink:href="#arrowDown" x="0" y="0" onmousedown="handlePan(0,1)"/>
  <use id="arrowleft" xlink:href="#arrowLeft" x="0" y="0" onmousedown="handlePan(-1,0)"/>
</g>
<svg viewBox="0 0 15 15" width="100%" height="30px" preserveAspectRatio="xMaxYMin meet">
 <g id="arrow_out" transform="scale(0.3 0.3)">
  <a xlink:href="structDrawer__coll__graph_org.svg" target="_base">
   <rect id="button" ry="5" rx="5" y="6" x="6" height="38" width="38"
        fill="#f2f5e9" fill-opacity="0.5" stroke="#606060" stroke-width="1.0"/>
   <path id="arrow"
     d="M 11.500037,31.436501 C 11.940474,20.09759 22.043105,11.32322 32.158766,21.979434 L 37.068811,17.246167 C 37.068811,17.246167 37.088388,32 37.088388,32 L 22.160133,31.978069 C 22.160133,31.978069 26.997745,27.140456 26.997745,27.140456 C 18.528582,18.264221 13.291696,25.230495 11.500037,31.436501 z"
     style="fill:#404040;"/>
  </a>
 </g>
</svg>

<style type='text/css'>
<![CDATA[
[data-mouse-over-selected='false'] { opacity: 0.7; }
[data-mouse-over-selected='true']  { opacity: 1.0; }
]]>
</style>
<script type="application/ecmascript"><![CDATA[
document.addEventListener('DOMContentLoaded', (event) => {
  highlightEdges();
  highlightAdjacentNodes();
});
]]></script>
</svg>
