<?xml version="1.0" encoding="UTF-8" standalone="no"?>
<!DOCTYPE svg PUBLIC "-//W3C//DTD SVG 1.1//EN"
 "http://www.w3.org/Graphics/SVG/1.1/DTD/svg11.dtd">
<!-- Generated by graphviz version 2.43.0 (0)
 -->
<!-- Title: _GvcStreamStatusIcon Pages: 1 -->
<svg width="402pt" height="315pt"
 viewBox="0.00 0.00 401.50 315.00" xmlns="http://www.w3.org/2000/svg" xmlns:xlink="http://www.w3.org/1999/xlink">
<g id="graph0" class="graph" transform="scale(1 1) rotate(0) translate(4 311)">
<title>_GvcStreamStatusIcon</title>
<!-- Node1 -->
<g id="Node000001" class="node">
<title>Node1</title>
<g id="a_Node000001"><a xlink:title=" ">
<polygon fill="#999999" stroke="#666666" points="144,-91 17,-91 17,-72 144,-72 144,-91"/>
<text text-anchor="middle" x="80.5" y="-79" font-family="Helvetica,sans-Serif" font-size="10.00">_GvcStreamStatusIcon</text>
</a>
</g>
</g>
<!-- Node2 -->
<g id="Node000002" class="node">
<title>Node2</title>
<g id="a_Node000002"><a xlink:title=" ">
<polygon fill="white" stroke="#666666" points="161,-163 0,-163 0,-144 161,-144 161,-163"/>
<text text-anchor="middle" x="80.5" y="-151" font-family="Helvetica,sans-Serif" font-size="10.00">_GvcStreamStatusIconPrivate</text>
</a>
</g>
</g>
<!-- Node2&#45;&gt;Node1 -->
<g id="edge1_Node000001_Node000002" class="edge">
<title>Node2&#45;&gt;Node1</title>
<g id="a_edge1_Node000001_Node000002"><a xlink:title=" ">
<path fill="none" stroke="#9a32cd" stroke-dasharray="5,2" d="M80.5,-133.58C80.5,-119.76 80.5,-101.68 80.5,-91.15"/>
<polygon fill="#9a32cd" stroke="#9a32cd" points="77,-133.92 80.5,-143.92 84,-133.92 77,-133.92"/>
</a>
</g>
<text text-anchor="start" x="84" y="-114.5" font-family="Helvetica,sans-Serif" font-size="10.00" fill="grey">priv</text>
</g>
<!-- Node3 -->
<g id="Node000003" class="node">
<title>Node3</title>
<g id="a_Node000003"><a xlink:href="struct__MateMixerStreamControl.html" target="_top" xlink:title=" ">
<polygon fill="white" stroke="#666666" points="250.5,-235 106.5,-235 106.5,-216 250.5,-216 250.5,-235"/>
<text text-anchor="middle" x="178.5" y="-223" font-family="Helvetica,sans-Serif" font-size="10.00">_MateMixerStreamControl</text>
</a>
</g>
</g>
<!-- Node3&#45;&gt;Node2 -->
<g id="edge2_Node000002_Node000003" class="edge">
<title>Node3&#45;&gt;Node2</title>
<g id="a_edge2_Node000002_Node000003"><a xlink:title=" ">
<path fill="none" stroke="#9a32cd" stroke-dasharray="5,2" d="M154.67,-210.5C148.34,-206.6 141.58,-202.26 135.5,-198 119.34,-186.69 101.61,-172.27 90.77,-163.21"/>
<polygon fill="#9a32cd" stroke="#9a32cd" points="153.13,-213.66 163.5,-215.84 156.76,-207.67 153.13,-213.66"/>
</a>
</g>
<text text-anchor="start" x="138.5" y="-186.5" font-family="Helvetica,sans-Serif" font-size="10.00" fill="grey">control</text>
</g>
<!-- Node6 -->
<g id="Node000006" class="node">
<title>Node6</title>
<g id="a_Node000006"><a xlink:title=" ">
<polygon fill="white" stroke="#666666" points="361,-163 218,-163 218,-144 361,-144 361,-163"/>
<text text-anchor="middle" x="289.5" y="-151" font-family="Helvetica,sans-Serif" font-size="10.00">_MateMixerStreamPrivate</text>
</a>
</g>
</g>
<!-- Node3&#45;&gt;Node6 -->
<g id="edge8_Node000006_Node000003" class="edge">
<title>Node3&#45;&gt;Node6</title>
<g id="a_edge8_Node000006_Node000003"><a xlink:title=" ">
<path fill="none" stroke="#9a32cd" stroke-dasharray="5,2" d="M200.65,-210.53C223.05,-196.4 256.99,-175 275.78,-163.15"/>
<polygon fill="#9a32cd" stroke="#9a32cd" points="198.7,-207.62 192.11,-215.92 202.44,-213.54 198.7,-207.62"/>
</a>
</g>
<text text-anchor="start" x="250.5" y="-186.5" font-family="Helvetica,sans-Serif" font-size="10.00" fill="grey">control</text>
</g>
<!-- Node4 -->
<g id="Node000004" class="node">
<title>Node4</title>
<g id="a_Node000004"><a xlink:title=" ">
<polygon fill="white" stroke="#666666" points="295,-19 116,-19 116,0 295,0 295,-19"/>
<text text-anchor="middle" x="205.5" y="-7" font-family="Helvetica,sans-Serif" font-size="10.00">_MateMixerStreamControlPrivate</text>
</a>
</g>
</g>
<!-- Node4&#45;&gt;Node3 -->
<g id="edge3_Node000003_Node000004" class="edge">
<title>Node4&#45;&gt;Node3</title>
<g id="a_edge3_Node000003_Node000004"><a xlink:title=" ">
<path fill="none" stroke="#9a32cd" stroke-dasharray="5,2" d="M203.17,-28.98C197.58,-73.25 183.6,-184.05 179.59,-215.85"/>
<polygon fill="#9a32cd" stroke="#9a32cd" points="206.64,-29.39 204.42,-19.03 199.7,-28.51 206.64,-29.39"/>
</a>
</g>
<text text-anchor="start" x="197" y="-114.5" font-family="Helvetica,sans-Serif" font-size="10.00" fill="grey">priv</text>
</g>
<!-- Node5 -->
<g id="Node000005" class="node">
<title>Node5</title>
<g id="a_Node000005"><a xlink:href="struct__MateMixerStream.html" target="_top" xlink:title=" ">
<polygon fill="white" stroke="#666666" points="335,-91 226,-91 226,-72 335,-72 335,-91"/>
<text text-anchor="middle" x="280.5" y="-79" font-family="Helvetica,sans-Serif" font-size="10.00">_MateMixerStream</text>
</a>
</g>
</g>
<!-- Node5&#45;&gt;Node4 -->
<g id="edge4_Node000004_Node000005" class="edge">
<title>Node5&#45;&gt;Node4</title>
<g id="a_edge4_Node000004_Node000005"><a xlink:title=" ">
<path fill="none" stroke="#9a32cd" stroke-dasharray="5,2" d="M263.68,-64.8C248.58,-50.71 226.96,-30.53 214.77,-19.15"/>
<polygon fill="#9a32cd" stroke="#9a32cd" points="261.6,-67.65 271.3,-71.92 266.38,-62.53 261.6,-67.65"/>
</a>
</g>
<text text-anchor="start" x="256" y="-42.5" font-family="Helvetica,sans-Serif" font-size="10.00" fill="grey">stream</text>
</g>
<!-- Node6&#45;&gt;Node5 -->
<g id="edge5_Node000005_Node000006" class="edge">
<title>Node6&#45;&gt;Node5</title>
<g id="a_edge5_Node000005_Node000006"><a xlink:title=" ">
<path fill="none" stroke="#9a32cd" stroke-dasharray="5,2" d="M287.12,-133.99C285.34,-120.13 282.98,-101.79 281.61,-91.15"/>
<polygon fill="#9a32cd" stroke="#9a32cd" points="283.65,-134.44 288.4,-143.92 290.59,-133.55 283.65,-134.44"/>
</a>
</g>
<text text-anchor="start" x="290" y="-114.5" font-family="Helvetica,sans-Serif" font-size="10.00" fill="grey">priv</text>
</g>
<!-- Node7 -->
<g id="Node000007" class="node">
<title>Node7</title>
<g id="a_Node000007"><a xlink:href="struct__MateMixerDevice.html" target="_top" xlink:title=" ">
<polygon fill="white" stroke="#666666" points="376,-235 269,-235 269,-216 376,-216 376,-235"/>
<text text-anchor="middle" x="322.5" y="-223" font-family="Helvetica,sans-Serif" font-size="10.00">_MateMixerDevice</text>
</a>
</g>
</g>
<!-- Node7&#45;&gt;Node6 -->
<g id="edge6_Node000006_Node000007" class="edge">
<title>Node7&#45;&gt;Node6</title>
<g id="a_edge6_Node000006_Node000007"><a xlink:title=" ">
<path fill="none" stroke="#9a32cd" stroke-dasharray="5,2" d="M314.16,-206.81C307.58,-192.86 298.69,-174 293.58,-163.15"/>
<polygon fill="#9a32cd" stroke="#9a32cd" points="311.02,-208.36 318.45,-215.92 317.36,-205.38 311.02,-208.36"/>
</a>
</g>
<text text-anchor="start" x="314" y="-186.5" font-family="Helvetica,sans-Serif" font-size="10.00" fill="grey">device</text>
</g>
<!-- Node8 -->
<g id="Node000008" class="node">
<title>Node8</title>
<g id="a_Node000008"><a xlink:title=" ">
<polygon fill="white" stroke="#666666" points="393.5,-307 251.5,-307 251.5,-288 393.5,-288 393.5,-307"/>
<text text-anchor="middle" x="322.5" y="-295" font-family="Helvetica,sans-Serif" font-size="10.00">_MateMixerDevicePrivate</text>
</a>
</g>
</g>
<!-- Node8&#45;&gt;Node7 -->
<g id="edge7_Node000007_Node000008" class="edge">
<title>Node8&#45;&gt;Node7</title>
<g id="a_edge7_Node000007_Node000008"><a xlink:title=" ">
<path fill="none" stroke="#9a32cd" stroke-dasharray="5,2" d="M322.5,-277.58C322.5,-263.76 322.5,-245.68 322.5,-235.15"/>
<polygon fill="#9a32cd" stroke="#9a32cd" points="319,-277.92 322.5,-287.92 326,-277.92 319,-277.92"/>
</a>
</g>
<text text-anchor="start" x="326" y="-258.5" font-family="Helvetica,sans-Serif" font-size="10.00" fill="grey">priv</text>
</g>
</g>
</svg>
