<?xml version="1.0" encoding="UTF-8" standalone="no"?>
<!DOCTYPE svg PUBLIC "-//W3C//DTD SVG 1.1//EN"
 "http://www.w3.org/Graphics/SVG/1.1/DTD/svg11.dtd">
<!-- Generated by graphviz version 2.43.0 (0)
 -->
<!-- Title: _GvcApplet Pages: 1 -->
<svg width="2087pt" height="267pt"
 viewBox="0.00 0.00 2087.00 266.50" xmlns="http://www.w3.org/2000/svg" xmlns:xlink="http://www.w3.org/1999/xlink">
<g id="graph0" class="graph" transform="scale(1 1) rotate(0) translate(4 262.5)">
<title>_GvcApplet</title>
<!-- Node1 -->
<g id="Node000001" class="node">
<title>Node1</title>
<g id="a_Node000001"><a xlink:title=" ">
<polygon fill="#999999" stroke="#666666" points="2079,-139 2007,-139 2007,-120 2079,-120 2079,-139"/>
<text text-anchor="middle" x="2043" y="-127" font-family="Helvetica,sans-Serif" font-size="10.00">_GvcApplet</text>
</a>
</g>
</g>
<!-- Node2 -->
<g id="Node000002" class="node">
<title>Node2</title>
<g id="a_Node000002"><a xlink:title=" ">
<polygon fill="white" stroke="#666666" points="1946,-139 1839,-139 1839,-120 1946,-120 1946,-139"/>
<text text-anchor="middle" x="1892.5" y="-127" font-family="Helvetica,sans-Serif" font-size="10.00">_GvcAppletPrivate</text>
</a>
</g>
</g>
<!-- Node2&#45;&gt;Node1 -->
<g id="edge1_Node000001_Node000002" class="edge">
<title>Node2&#45;&gt;Node1</title>
<g id="a_edge1_Node000001_Node000002"><a xlink:title=" ">
<path fill="none" stroke="#9a32cd" stroke-dasharray="5,2" d="M1956.28,-129.5C1973.48,-129.5 1991.52,-129.5 2006.6,-129.5"/>
<polygon fill="#9a32cd" stroke="#9a32cd" points="1956.27,-126 1946.27,-129.5 1956.27,-133 1956.27,-126"/>
</a>
</g>
<text text-anchor="start" x="1967.5" y="-135" font-family="Helvetica,sans-Serif" font-size="10.00" fill="grey">priv</text>
</g>
<!-- Node3 -->
<g id="Node000003" class="node">
<title>Node3</title>
<g id="a_Node000003"><a xlink:href="struct__GvcStreamAppletIcon.html" target="_top" xlink:title=" ">
<polygon fill="white" stroke="#666666" points="926,-240 798,-240 798,-221 926,-221 926,-240"/>
<text text-anchor="middle" x="862" y="-228" font-family="Helvetica,sans-Serif" font-size="10.00">_GvcStreamAppletIcon</text>
</a>
</g>
</g>
<!-- Node3&#45;&gt;Node2 -->
<g id="edge2_Node000002_Node000003" class="edge">
<title>Node3&#45;&gt;Node2</title>
<g id="a_edge2_Node000002_Node000003"><a xlink:title=" ">
<path fill="none" stroke="#9a32cd" stroke-dasharray="5,2" d="M936.22,-228.96C996.01,-227.83 1082.72,-226.5 1158.5,-226.5 1158.5,-226.5 1158.5,-226.5 1705,-226.5 1780.18,-226.5 1855.13,-163.69 1881.54,-139.16"/>
<polygon fill="#9a32cd" stroke="#9a32cd" points="936.05,-225.46 926.12,-229.15 936.18,-232.46 936.05,-225.46"/>
</a>
</g>
<text text-anchor="start" x="1362" y="-247.5" font-family="Helvetica,sans-Serif" font-size="10.00" fill="grey">icon_input</text>
<text text-anchor="start" x="1362" y="-232.5" font-family="Helvetica,sans-Serif" font-size="10.00" fill="grey">icon_output</text>
</g>
<!-- Node4 -->
<g id="Node000004" class="node">
<title>Node4</title>
<g id="a_Node000004"><a xlink:title=" ">
<polygon fill="white" stroke="#666666" points="585,-243 423,-243 423,-224 585,-224 585,-243"/>
<text text-anchor="middle" x="504" y="-231" font-family="Helvetica,sans-Serif" font-size="10.00">_GvcStreamAppletIconPrivate</text>
</a>
</g>
</g>
<!-- Node4&#45;&gt;Node3 -->
<g id="edge3_Node000003_Node000004" class="edge">
<title>Node4&#45;&gt;Node3</title>
<g id="a_edge3_Node000003_Node000004"><a xlink:title=" ">
<path fill="none" stroke="#9a32cd" stroke-dasharray="5,2" d="M595.71,-232.74C658.92,-232.2 741.66,-231.51 797.82,-231.03"/>
<polygon fill="#9a32cd" stroke="#9a32cd" points="595.31,-229.24 585.34,-232.82 595.37,-236.24 595.31,-229.24"/>
</a>
</g>
<text text-anchor="start" x="606.5" y="-238" font-family="Helvetica,sans-Serif" font-size="10.00" fill="grey">priv</text>
</g>
<!-- Node5 -->
<g id="Node000005" class="node">
<title>Node5</title>
<g id="a_Node000005"><a xlink:href="struct__MateMixerStreamControl.html" target="_top" xlink:title=" ">
<polygon fill="white" stroke="#666666" points="347,-204 203,-204 203,-185 347,-185 347,-204"/>
<text text-anchor="middle" x="275" y="-192" font-family="Helvetica,sans-Serif" font-size="10.00">_MateMixerStreamControl</text>
</a>
</g>
</g>
<!-- Node5&#45;&gt;Node4 -->
<g id="edge4_Node000004_Node000005" class="edge">
<title>Node5&#45;&gt;Node4</title>
<g id="a_edge4_Node000004_Node000005"><a xlink:title=" ">
<path fill="none" stroke="#9a32cd" stroke-dasharray="5,2" d="M341.71,-205.79C375.29,-211.56 415.68,-218.5 447.65,-223.99"/>
<polygon fill="#9a32cd" stroke="#9a32cd" points="341.98,-202.28 331.53,-204.04 340.79,-209.18 341.98,-202.28"/>
</a>
</g>
<text text-anchor="start" x="368" y="-221" font-family="Helvetica,sans-Serif" font-size="10.00" fill="grey">control</text>
</g>
<!-- Node8 -->
<g id="Node000008" class="node">
<title>Node8</title>
<g id="a_Node000008"><a xlink:title=" ">
<polygon fill="white" stroke="#666666" points="575.5,-139 432.5,-139 432.5,-120 575.5,-120 575.5,-139"/>
<text text-anchor="middle" x="504" y="-127" font-family="Helvetica,sans-Serif" font-size="10.00">_MateMixerStreamPrivate</text>
</a>
</g>
</g>
<!-- Node5&#45;&gt;Node8 -->
<g id="edge10_Node000008_Node000005" class="edge">
<title>Node5&#45;&gt;Node8</title>
<g id="a_edge10_Node000008_Node000005"><a xlink:title=" ">
<path fill="none" stroke="#9a32cd" stroke-dasharray="5,2" d="M311.15,-181.41C327.42,-175.57 347.07,-168.82 365,-163.5 396.46,-154.17 432.48,-145.35 459.83,-139.04"/>
<polygon fill="#9a32cd" stroke="#9a32cd" points="309.71,-178.21 301.5,-184.91 312.09,-184.79 309.71,-178.21"/>
</a>
</g>
<text text-anchor="start" x="368" y="-169" font-family="Helvetica,sans-Serif" font-size="10.00" fill="grey">control</text>
</g>
<!-- Node6 -->
<g id="Node000006" class="node">
<title>Node6</title>
<g id="a_Node000006"><a xlink:title=" ">
<polygon fill="white" stroke="#666666" points="1126,-190 947,-190 947,-171 1126,-171 1126,-190"/>
<text text-anchor="middle" x="1036.5" y="-178" font-family="Helvetica,sans-Serif" font-size="10.00">_MateMixerStreamControlPrivate</text>
</a>
</g>
</g>
<!-- Node6&#45;&gt;Node5 -->
<g id="edge5_Node000005_Node000006" class="edge">
<title>Node6&#45;&gt;Node5</title>
<g id="a_edge5_Node000005_Node000006"><a xlink:title=" ">
<path fill="none" stroke="#9a32cd" stroke-dasharray="5,2" d="M936.74,-182.32C781.31,-185.19 483.33,-190.68 347.11,-193.19"/>
<polygon fill="#9a32cd" stroke="#9a32cd" points="936.83,-185.82 946.76,-182.14 936.7,-178.82 936.83,-185.82"/>
</a>
</g>
<text text-anchor="start" x="606.5" y="-193" font-family="Helvetica,sans-Serif" font-size="10.00" fill="grey">priv</text>
</g>
<!-- Node7 -->
<g id="Node000007" class="node">
<title>Node7</title>
<g id="a_Node000007"><a xlink:href="struct__MateMixerStream.html" target="_top" xlink:title=" ">
<polygon fill="white" stroke="#666666" points="767.5,-139 658.5,-139 658.5,-120 767.5,-120 767.5,-139"/>
<text text-anchor="middle" x="713" y="-127" font-family="Helvetica,sans-Serif" font-size="10.00">_MateMixerStream</text>
</a>
</g>
</g>
<!-- Node7&#45;&gt;Node2 -->
<g id="edge20_Node000002_Node000007" class="edge">
<title>Node7&#45;&gt;Node2</title>
<g id="a_edge20_Node000002_Node000007"><a xlink:title=" ">
<path fill="none" stroke="#9a32cd" stroke-dasharray="5,2" d="M777.83,-129.5C842.7,-129.5 946.09,-129.5 1035.5,-129.5 1035.5,-129.5 1035.5,-129.5 1705,-129.5 1750.17,-129.5 1801.49,-129.5 1838.85,-129.5"/>
<polygon fill="#9a32cd" stroke="#9a32cd" points="777.76,-126 767.76,-129.5 777.76,-133 777.76,-126"/>
</a>
</g>
<text text-anchor="start" x="1375" y="-150.5" font-family="Helvetica,sans-Serif" font-size="10.00" fill="grey">input</text>
<text text-anchor="start" x="1375" y="-135.5" font-family="Helvetica,sans-Serif" font-size="10.00" fill="grey">output</text>
</g>
<!-- Node7&#45;&gt;Node6 -->
<g id="edge6_Node000006_Node000007" class="edge">
<title>Node7&#45;&gt;Node6</title>
<g id="a_edge6_Node000006_Node000007"><a xlink:title=" ">
<path fill="none" stroke="#9a32cd" stroke-dasharray="5,2" d="M777.87,-139.63C835.36,-148.75 919.22,-162.05 975.49,-170.98"/>
<polygon fill="#9a32cd" stroke="#9a32cd" points="778.24,-136.15 767.81,-138.04 777.14,-143.06 778.24,-136.15"/>
</a>
</g>
<text text-anchor="start" x="845" y="-168" font-family="Helvetica,sans-Serif" font-size="10.00" fill="grey">stream</text>
</g>
<!-- Node14 -->
<g id="Node000014" class="node">
<title>Node14</title>
<g id="a_Node000014"><a xlink:title=" ">
<polygon fill="white" stroke="#666666" points="1111,-68 962,-68 962,-49 1111,-49 1111,-68"/>
<text text-anchor="middle" x="1036.5" y="-56" font-family="Helvetica,sans-Serif" font-size="10.00">_MateMixerBackendPrivate</text>
</a>
</g>
</g>
<!-- Node7&#45;&gt;Node14 -->
<g id="edge15_Node000014_Node000007" class="edge">
<title>Node7&#45;&gt;Node14</title>
<g id="a_edge15_Node000014_Node000007"><a xlink:title=" ">
<path fill="none" stroke="#9a32cd" stroke-dasharray="5,2" d="M736.27,-114.1C752.6,-103.63 775.71,-90.47 798,-83.5 851.22,-66.86 914.08,-60.81 961.76,-58.81"/>
<polygon fill="#9a32cd" stroke="#9a32cd" points="733.92,-111.46 727.5,-119.88 737.78,-117.3 733.92,-111.46"/>
</a>
</g>
<text text-anchor="start" x="826" y="-104.5" font-family="Helvetica,sans-Serif" font-size="10.00" fill="grey">default_input</text>
<text text-anchor="start" x="826" y="-89.5" font-family="Helvetica,sans-Serif" font-size="10.00" fill="grey">default_output</text>
</g>
<!-- Node8&#45;&gt;Node7 -->
<g id="edge7_Node000007_Node000008" class="edge">
<title>Node8&#45;&gt;Node7</title>
<g id="a_edge7_Node000007_Node000008"><a xlink:title=" ">
<path fill="none" stroke="#9a32cd" stroke-dasharray="5,2" d="M585.94,-129.5C610.23,-129.5 636.26,-129.5 658.32,-129.5"/>
<polygon fill="#9a32cd" stroke="#9a32cd" points="585.66,-126 575.66,-129.5 585.66,-133 585.66,-126"/>
</a>
</g>
<text text-anchor="start" x="606.5" y="-135" font-family="Helvetica,sans-Serif" font-size="10.00" fill="grey">priv</text>
</g>
<!-- Node9 -->
<g id="Node000009" class="node">
<title>Node9</title>
<g id="a_Node000009"><a xlink:href="struct__MateMixerDevice.html" target="_top" xlink:title=" ">
<polygon fill="white" stroke="#666666" points="328.5,-132 221.5,-132 221.5,-113 328.5,-113 328.5,-132"/>
<text text-anchor="middle" x="275" y="-120" font-family="Helvetica,sans-Serif" font-size="10.00">_MateMixerDevice</text>
</a>
</g>
</g>
<!-- Node9&#45;&gt;Node8 -->
<g id="edge8_Node000008_Node000009" class="edge">
<title>Node9&#45;&gt;Node8</title>
<g id="a_edge8_Node000008_Node000009"><a xlink:title=" ">
<path fill="none" stroke="#9a32cd" stroke-dasharray="5,2" d="M338.84,-122.31C359.88,-122.43 383.46,-122.76 405,-123.5 413.86,-123.81 423.16,-124.23 432.36,-124.72"/>
<polygon fill="#9a32cd" stroke="#9a32cd" points="338.75,-118.81 328.73,-122.27 338.72,-125.81 338.75,-118.81"/>
</a>
</g>
<text text-anchor="start" x="369" y="-129" font-family="Helvetica,sans-Serif" font-size="10.00" fill="grey">device</text>
</g>
<!-- Node10 -->
<g id="Node000010" class="node">
<title>Node10</title>
<g id="a_Node000010"><a xlink:title=" ">
<polygon fill="white" stroke="#666666" points="142,-132 0,-132 0,-113 142,-113 142,-132"/>
<text text-anchor="middle" x="71" y="-120" font-family="Helvetica,sans-Serif" font-size="10.00">_MateMixerDevicePrivate</text>
</a>
</g>
</g>
<!-- Node10&#45;&gt;Node9 -->
<g id="edge9_Node000009_Node000010" class="edge">
<title>Node10&#45;&gt;Node9</title>
<g id="a_edge9_Node000009_Node000010"><a xlink:title=" ">
<path fill="none" stroke="#9a32cd" stroke-dasharray="5,2" d="M152.26,-122.5C175.46,-122.5 200.18,-122.5 221.24,-122.5"/>
<polygon fill="#9a32cd" stroke="#9a32cd" points="152.08,-119 142.08,-122.5 152.08,-126 152.08,-119"/>
</a>
</g>
<text text-anchor="start" x="163.5" y="-128" font-family="Helvetica,sans-Serif" font-size="10.00" fill="grey">priv</text>
</g>
<!-- Node11 -->
<g id="Node000011" class="node">
<title>Node11</title>
<g id="a_Node000011"><a xlink:href="struct__MateMixerContext.html" target="_top" xlink:title=" ">
<polygon fill="white" stroke="#666666" points="1760,-96 1648,-96 1648,-77 1760,-77 1760,-96"/>
<text text-anchor="middle" x="1704" y="-84" font-family="Helvetica,sans-Serif" font-size="10.00">_MateMixerContext</text>
</a>
</g>
</g>
<!-- Node11&#45;&gt;Node2 -->
<g id="edge11_Node000002_Node000011" class="edge">
<title>Node11&#45;&gt;Node2</title>
<g id="a_edge11_Node000002_Node000011"><a xlink:title=" ">
<path fill="none" stroke="#9a32cd" stroke-dasharray="5,2" d="M1770.43,-89.68C1787.11,-91.47 1804.87,-94.23 1821,-98.5 1839.74,-103.46 1859.87,-112.75 1873.8,-119.87"/>
<polygon fill="#9a32cd" stroke="#9a32cd" points="1770.51,-86.17 1760.22,-88.69 1769.83,-93.14 1770.51,-86.17"/>
</a>
</g>
<text text-anchor="start" x="1781.5" y="-104" font-family="Helvetica,sans-Serif" font-size="10.00" fill="grey">context</text>
</g>
<!-- Node12 -->
<g id="Node000012" class="node">
<title>Node12</title>
<g id="a_Node000012"><a xlink:title=" ">
<polygon fill="white" stroke="#666666" points="1587,-79 1441,-79 1441,-60 1587,-60 1587,-79"/>
<text text-anchor="middle" x="1514" y="-67" font-family="Helvetica,sans-Serif" font-size="10.00">_MateMixerContextPrivate</text>
</a>
</g>
</g>
<!-- Node12&#45;&gt;Node11 -->
<g id="edge12_Node000011_Node000012" class="edge">
<title>Node12&#45;&gt;Node11</title>
<g id="a_edge12_Node000011_Node000012"><a xlink:title=" ">
<path fill="none" stroke="#9a32cd" stroke-dasharray="5,2" d="M1597.18,-76.93C1614.36,-78.48 1632.08,-80.09 1647.98,-81.53"/>
<polygon fill="#9a32cd" stroke="#9a32cd" points="1597.42,-73.44 1587.15,-76.02 1596.79,-80.41 1597.42,-73.44"/>
</a>
</g>
<text text-anchor="start" x="1608.5" y="-86" font-family="Helvetica,sans-Serif" font-size="10.00" fill="grey">priv</text>
</g>
<!-- Node13 -->
<g id="Node000013" class="node">
<title>Node13</title>
<g id="a_Node000013"><a xlink:href="struct__MateMixerBackend.html" target="_top" xlink:title=" ">
<polygon fill="white" stroke="#666666" points="1323,-60 1208,-60 1208,-41 1323,-41 1323,-60"/>
<text text-anchor="middle" x="1265.5" y="-48" font-family="Helvetica,sans-Serif" font-size="10.00">_MateMixerBackend</text>
</a>
</g>
</g>
<!-- Node13&#45;&gt;Node12 -->
<g id="edge13_Node000012_Node000013" class="edge">
<title>Node13&#45;&gt;Node12</title>
<g id="a_edge13_Node000012_Node000013"><a xlink:title=" ">
<path fill="none" stroke="#9a32cd" stroke-dasharray="5,2" d="M1333.17,-47.45C1361.01,-46.97 1393.64,-47.43 1423,-50.5 1440.79,-52.36 1460.24,-56.23 1476.49,-59.99"/>
<polygon fill="#9a32cd" stroke="#9a32cd" points="1333.07,-43.95 1323.15,-47.67 1333.22,-50.95 1333.07,-43.95"/>
</a>
</g>
<text text-anchor="start" x="1371" y="-56" font-family="Helvetica,sans-Serif" font-size="10.00" fill="grey">backend</text>
</g>
<!-- Node14&#45;&gt;Node13 -->
<g id="edge14_Node000013_Node000014" class="edge">
<title>Node14&#45;&gt;Node13</title>
<g id="a_edge14_Node000013_Node000014"><a xlink:title=" ">
<path fill="none" stroke="#9a32cd" stroke-dasharray="5,2" d="M1121.25,-55.55C1150.04,-54.53 1181.57,-53.42 1207.71,-52.5"/>
<polygon fill="#9a32cd" stroke="#9a32cd" points="1121.07,-52.05 1111.2,-55.9 1121.32,-59.05 1121.07,-52.05"/>
</a>
</g>
<text text-anchor="start" x="1150.5" y="-60" font-family="Helvetica,sans-Serif" font-size="10.00" fill="grey">priv</text>
</g>
<!-- Node15 -->
<g id="Node000015" class="node">
<title>Node15</title>
<g id="a_Node000015"><a xlink:href="struct__MateMixerAppInfo.html" target="_top" xlink:title=" ">
<polygon fill="white" stroke="#666666" points="1321,-99 1210,-99 1210,-80 1321,-80 1321,-99"/>
<text text-anchor="middle" x="1265.5" y="-87" font-family="Helvetica,sans-Serif" font-size="10.00">_MateMixerAppInfo</text>
</a>
</g>
</g>
<!-- Node15&#45;&gt;Node12 -->
<g id="edge16_Node000012_Node000015" class="edge">
<title>Node15&#45;&gt;Node12</title>
<g id="a_edge16_Node000012_Node000015"><a xlink:title=" ">
<path fill="none" stroke="#9a32cd" stroke-dasharray="5,2" d="M1331.37,-84.24C1364.96,-81.51 1406.06,-78.18 1440.67,-75.37"/>
<polygon fill="#9a32cd" stroke="#9a32cd" points="1330.89,-80.76 1321.21,-85.06 1331.46,-87.74 1330.89,-80.76"/>
</a>
</g>
<text text-anchor="start" x="1370" y="-88" font-family="Helvetica,sans-Serif" font-size="10.00" fill="grey">app_info</text>
</g>
<!-- Node16 -->
<g id="Node000016" class="node">
<title>Node16</title>
<g id="a_Node000016"><a xlink:href="struct__MateMixerBackendModule.html" target="_top" xlink:title=" ">
<polygon fill="white" stroke="#666666" points="1341,-19 1190,-19 1190,0 1341,0 1341,-19"/>
<text text-anchor="middle" x="1265.5" y="-7" font-family="Helvetica,sans-Serif" font-size="10.00">_MateMixerBackendModule</text>
</a>
</g>
</g>
<!-- Node16&#45;&gt;Node12 -->
<g id="edge17_Node000012_Node000016" class="edge">
<title>Node16&#45;&gt;Node12</title>
<g id="a_edge17_Node000012_Node000016"><a xlink:title=" ">
<path fill="none" stroke="#9a32cd" stroke-dasharray="5,2" d="M1351.11,-13.44C1374.69,-15.95 1400.11,-19.99 1423,-26.5 1450.32,-34.27 1479.57,-49.73 1497.07,-59.84"/>
<polygon fill="#9a32cd" stroke="#9a32cd" points="1351.42,-9.95 1341.13,-12.46 1350.73,-16.92 1351.42,-9.95"/>
</a>
</g>
<text text-anchor="start" x="1373" y="-32" font-family="Helvetica,sans-Serif" font-size="10.00" fill="grey">module</text>
</g>
<!-- Node17 -->
<g id="Node000017" class="node">
<title>Node17</title>
<g id="a_Node000017"><a xlink:title=" ">
<polygon fill="white" stroke="#666666" points="1129,-19 944,-19 944,0 1129,0 1129,-19"/>
<text text-anchor="middle" x="1036.5" y="-7" font-family="Helvetica,sans-Serif" font-size="10.00">_MateMixerBackendModulePrivate</text>
</a>
</g>
</g>
<!-- Node17&#45;&gt;Node16 -->
<g id="edge18_Node000016_Node000017" class="edge">
<title>Node17&#45;&gt;Node16</title>
<g id="a_edge18_Node000016_Node000017"><a xlink:title=" ">
<path fill="none" stroke="#9a32cd" stroke-dasharray="5,2" d="M1139.65,-9.5C1156.57,-9.5 1173.83,-9.5 1189.9,-9.5"/>
<polygon fill="#9a32cd" stroke="#9a32cd" points="1139.18,-6 1129.18,-9.5 1139.18,-13 1139.18,-6"/>
</a>
</g>
<text text-anchor="start" x="1150.5" y="-15" font-family="Helvetica,sans-Serif" font-size="10.00" fill="grey">priv</text>
</g>
<!-- Node18 -->
<g id="Node000018" class="node">
<title>Node18</title>
<g id="a_Node000018"><a xlink:href="struct__MateMixerBackendInfo.html" target="_top" xlink:title=" ">
<polygon fill="white" stroke="#666666" points="780,-19 646,-19 646,0 780,0 780,-19"/>
<text text-anchor="middle" x="713" y="-7" font-family="Helvetica,sans-Serif" font-size="10.00">_MateMixerBackendInfo</text>
</a>
</g>
</g>
<!-- Node18&#45;&gt;Node17 -->
<g id="edge19_Node000017_Node000018" class="edge">
<title>Node18&#45;&gt;Node17</title>
<g id="a_edge19_Node000017_Node000018"><a xlink:title=" ">
<path fill="none" stroke="#9a32cd" stroke-dasharray="5,2" d="M790.43,-9.5C836.43,-9.5 895.27,-9.5 943.77,-9.5"/>
<polygon fill="#9a32cd" stroke="#9a32cd" points="790.23,-6 780.23,-9.5 790.23,-13 790.23,-6"/>
</a>
</g>
<text text-anchor="start" x="842" y="-15" font-family="Helvetica,sans-Serif" font-size="10.00" fill="grey">get_info</text>
</g>
</g>
</svg>
