<?xml version="1.0" encoding="UTF-8" standalone="no"?>
<!DOCTYPE svg PUBLIC "-//W3C//DTD SVG 1.1//EN"
 "http://www.w3.org/Graphics/SVG/1.1/DTD/svg11.dtd">
<!-- Generated by graphviz version 2.43.0 (0)
 -->
<!-- Title: _MetaDrawInfo Pages: 1 -->
<svg width="399pt" height="321pt"
 viewBox="0.00 0.00 398.50 321.00" xmlns="http://www.w3.org/2000/svg" xmlns:xlink="http://www.w3.org/1999/xlink">
<g id="graph0" class="graph" transform="scale(1 1) rotate(0) translate(4 317)">
<title>_MetaDrawInfo</title>
<!-- Node1 -->
<g id="Node000001" class="node">
<title>Node1</title>
<g id="a_Node000001"><a xlink:title=" ">
<polygon fill="#999999" stroke="#666666" points="233,-19 142,-19 142,0 233,0 233,-19"/>
<text text-anchor="middle" x="187.5" y="-7" font-family="Helvetica,sans-Serif" font-size="10.00">_MetaDrawInfo</text>
</a>
</g>
</g>
<!-- Node2 -->
<g id="Node000002" class="node">
<title>Node2</title>
<g id="a_Node000002"><a xlink:href="struct__MetaFrameGeometry.html" target="_top" xlink:title=" ">
<polygon fill="white" stroke="#666666" points="250.5,-91 124.5,-91 124.5,-72 250.5,-72 250.5,-91"/>
<text text-anchor="middle" x="187.5" y="-79" font-family="Helvetica,sans-Serif" font-size="10.00">_MetaFrameGeometry</text>
</a>
</g>
</g>
<!-- Node2&#45;&gt;Node1 -->
<g id="edge1_Node000001_Node000002" class="edge">
<title>Node2&#45;&gt;Node1</title>
<g id="a_edge1_Node000001_Node000002"><a xlink:title=" ">
<path fill="none" stroke="#9a32cd" stroke-dasharray="5,2" d="M187.5,-61.58C187.5,-47.76 187.5,-29.68 187.5,-19.15"/>
<polygon fill="#9a32cd" stroke="#9a32cd" points="184,-61.92 187.5,-71.92 191,-61.92 184,-61.92"/>
</a>
</g>
<text text-anchor="start" x="190.5" y="-42.5" font-family="Helvetica,sans-Serif" font-size="10.00" fill="grey">fgeom</text>
</g>
<!-- Node3 -->
<g id="Node000003" class="node">
<title>Node3</title>
<g id="a_Node000003"><a xlink:href="struct__MetaFrameBorders.html" target="_top" xlink:title=" ">
<polygon fill="white" stroke="#666666" points="115,-313 0,-313 0,-294 115,-294 115,-313"/>
<text text-anchor="middle" x="57.5" y="-301" font-family="Helvetica,sans-Serif" font-size="10.00">_MetaFrameBorders</text>
</a>
</g>
</g>
<!-- Node3&#45;&gt;Node2 -->
<g id="edge2_Node000002_Node000003" class="edge">
<title>Node3&#45;&gt;Node2</title>
<g id="a_edge2_Node000002_Node000003"><a xlink:title=" ">
<path fill="none" stroke="#9a32cd" stroke-dasharray="5,2" d="M61.3,-283.72C69.69,-246.42 92.93,-162.01 140.5,-109 147.38,-101.33 157.03,-95.36 165.79,-91.04"/>
<polygon fill="#9a32cd" stroke="#9a32cd" points="57.84,-283.19 59.17,-293.7 64.68,-284.66 57.84,-283.19"/>
</a>
</g>
<text text-anchor="start" x="144" y="-189.5" font-family="Helvetica,sans-Serif" font-size="10.00" fill="grey">borders</text>
</g>
<!-- Node4 -->
<g id="Node000004" class="node">
<title>Node4</title>
<g id="a_Node000004"><a xlink:href="struct__MetaButtonSpace.html" target="_top" xlink:title=" ">
<polygon fill="white" stroke="#666666" points="241.5,-313 133.5,-313 133.5,-294 241.5,-294 241.5,-313"/>
<text text-anchor="middle" x="187.5" y="-301" font-family="Helvetica,sans-Serif" font-size="10.00">_MetaButtonSpace</text>
</a>
</g>
</g>
<!-- Node4&#45;&gt;Node2 -->
<g id="edge3_Node000002_Node000004" class="edge">
<title>Node4&#45;&gt;Node2</title>
<g id="a_edge3_Node000002_Node000004"><a xlink:title=" ">
<path fill="none" stroke="#9a32cd" stroke-dasharray="5,2" d="M187.5,-283.68C187.5,-238.24 187.5,-123.91 187.5,-91.3"/>
<polygon fill="#9a32cd" stroke="#9a32cd" points="184,-283.88 187.5,-293.88 191,-283.88 184,-283.88"/>
</a>
</g>
<text text-anchor="start" x="190.5" y="-264.5" font-family="Helvetica,sans-Serif" font-size="10.00" fill="grey">above_rect</text>
<text text-anchor="start" x="190.5" y="-249.5" font-family="Helvetica,sans-Serif" font-size="10.00" fill="grey">appmenu_rect</text>
<text text-anchor="start" x="190.5" y="-234.5" font-family="Helvetica,sans-Serif" font-size="10.00" fill="grey">close_rect</text>
<text text-anchor="start" x="190.5" y="-219.5" font-family="Helvetica,sans-Serif" font-size="10.00" fill="grey">max_rect</text>
<text text-anchor="start" x="190.5" y="-204.5" font-family="Helvetica,sans-Serif" font-size="10.00" fill="grey">menu_rect</text>
<text text-anchor="start" x="190.5" y="-189.5" font-family="Helvetica,sans-Serif" font-size="10.00" fill="grey">min_rect</text>
<text text-anchor="start" x="190.5" y="-174.5" font-family="Helvetica,sans-Serif" font-size="10.00" fill="grey">shade_rect</text>
<text text-anchor="start" x="190.5" y="-159.5" font-family="Helvetica,sans-Serif" font-size="10.00" fill="grey">stick_rect</text>
<text text-anchor="start" x="190.5" y="-144.5" font-family="Helvetica,sans-Serif" font-size="10.00" fill="grey">unabove_rect</text>
<text text-anchor="start" x="190.5" y="-129.5" font-family="Helvetica,sans-Serif" font-size="10.00" fill="grey">unshade_rect</text>
<text text-anchor="start" x="190.5" y="-114.5" font-family="Helvetica,sans-Serif" font-size="10.00" fill="grey"> &#160;...</text>
</g>
<!-- Node5 -->
<g id="Node000005" class="node">
<title>Node5</title>
<g id="a_Node000005"><a xlink:href="struct__MetaButtonLayout.html" target="_top" xlink:title=" ">
<polygon fill="white" stroke="#666666" points="371.5,-313 259.5,-313 259.5,-294 371.5,-294 371.5,-313"/>
<text text-anchor="middle" x="315.5" y="-301" font-family="Helvetica,sans-Serif" font-size="10.00">_MetaButtonLayout</text>
</a>
</g>
</g>
<!-- Node5&#45;&gt;Node2 -->
<g id="edge4_Node000002_Node000005" class="edge">
<title>Node5&#45;&gt;Node2</title>
<g id="a_edge4_Node000002_Node000005"><a xlink:title=" ">
<path fill="none" stroke="#9a32cd" stroke-dasharray="5,2" d="M316.43,-283.65C317.23,-245.54 313.54,-158.71 267.5,-109 259.85,-100.73 249.56,-95.04 238.91,-91.13"/>
<polygon fill="#9a32cd" stroke="#9a32cd" points="312.92,-283.71 316.07,-293.82 319.92,-283.95 312.92,-283.71"/>
</a>
</g>
<text text-anchor="start" x="319.5" y="-189.5" font-family="Helvetica,sans-Serif" font-size="10.00" fill="grey">button_layout</text>
</g>
</g>
</svg>
