<?xml version="1.0" encoding="UTF-8" standalone="no"?>
<!DOCTYPE svg PUBLIC "-//W3C//DTD SVG 1.1//EN"
 "http://www.w3.org/Graphics/SVG/1.1/DTD/svg11.dtd">
<!-- Generated by graphviz version 2.43.0 (0)
 -->
<!-- Title: _EomApplicationPrivate Pages: 1 -->
<svg width="308pt" height="171pt"
 viewBox="0.00 0.00 307.50 171.00" xmlns="http://www.w3.org/2000/svg" xmlns:xlink="http://www.w3.org/1999/xlink">
<g id="graph0" class="graph" transform="scale(1 1) rotate(0) translate(4 167)">
<title>_EomApplicationPrivate</title>
<!-- Node1 -->
<g id="Node000001" class="node">
<title>Node1</title>
<g id="a_Node000001"><a xlink:title=" ">
<polygon fill="#999999" stroke="#666666" points="206.5,-19 73.5,-19 73.5,0 206.5,0 206.5,-19"/>
<text text-anchor="middle" x="140" y="-7" font-family="Helvetica,sans-Serif" font-size="10.00">_EomApplicationPrivate</text>
</a>
</g>
</g>
<!-- Node2 -->
<g id="Node000002" class="node">
<title>Node2</title>
<g id="a_Node000002"><a xlink:href="structEggToolbarsModel.html" target="_top" xlink:title=" ">
<polygon fill="white" stroke="#666666" points="131.5,-91 26.5,-91 26.5,-72 131.5,-72 131.5,-91"/>
<text text-anchor="middle" x="79" y="-79" font-family="Helvetica,sans-Serif" font-size="10.00">EggToolbarsModel</text>
</a>
</g>
</g>
<!-- Node2&#45;&gt;Node1 -->
<g id="edge1_Node000001_Node000002" class="edge">
<title>Node2&#45;&gt;Node1</title>
<g id="a_edge1_Node000001_Node000002"><a xlink:title=" ">
<path fill="none" stroke="#9a32cd" stroke-dasharray="5,2" d="M86.16,-62.49C90.04,-54.15 95.4,-44.46 102,-37 108.29,-29.89 116.85,-23.7 124.26,-19.1"/>
<polygon fill="#9a32cd" stroke="#9a32cd" points="82.92,-61.18 82.18,-71.75 89.35,-63.95 82.92,-61.18"/>
</a>
</g>
<text text-anchor="start" x="105" y="-42.5" font-family="Helvetica,sans-Serif" font-size="10.00" fill="grey">toolbars_model</text>
</g>
<!-- Node3 -->
<g id="Node000003" class="node">
<title>Node3</title>
<g id="a_Node000003"><a xlink:title=" ">
<polygon fill="white" stroke="#666666" points="140,-163 0,-163 0,-144 140,-144 140,-163"/>
<text text-anchor="middle" x="70" y="-151" font-family="Helvetica,sans-Serif" font-size="10.00">EggToolbarsModelPrivate</text>
</a>
</g>
</g>
<!-- Node3&#45;&gt;Node2 -->
<g id="edge2_Node000002_Node000003" class="edge">
<title>Node3&#45;&gt;Node2</title>
<g id="a_edge2_Node000002_Node000003"><a xlink:title=" ">
<path fill="none" stroke="#9a32cd" stroke-dasharray="5,2" d="M72.38,-133.99C74.16,-120.13 76.52,-101.79 77.89,-91.15"/>
<polygon fill="#9a32cd" stroke="#9a32cd" points="68.91,-133.55 71.1,-143.92 75.85,-134.44 68.91,-133.55"/>
</a>
</g>
<text text-anchor="start" x="79.5" y="-114.5" font-family="Helvetica,sans-Serif" font-size="10.00" fill="grey">priv</text>
</g>
<!-- Node4 -->
<g id="Node000004" class="node">
<title>Node4</title>
<g id="a_Node000004"><a xlink:href="struct__EomPluginEngine.html" target="_top" xlink:title=" ">
<polygon fill="white" stroke="#666666" points="273.5,-91 166.5,-91 166.5,-72 273.5,-72 273.5,-91"/>
<text text-anchor="middle" x="220" y="-79" font-family="Helvetica,sans-Serif" font-size="10.00">_EomPluginEngine</text>
</a>
</g>
</g>
<!-- Node4&#45;&gt;Node1 -->
<g id="edge3_Node000001_Node000004" class="edge">
<title>Node4&#45;&gt;Node1</title>
<g id="a_edge3_Node000001_Node000004"><a xlink:title=" ">
<path fill="none" stroke="#9a32cd" stroke-dasharray="5,2" d="M208.14,-63.58C201.62,-55 193.04,-44.78 184,-37 175.89,-30.02 165.72,-23.76 157.19,-19.08"/>
<polygon fill="#9a32cd" stroke="#9a32cd" points="205.39,-65.74 214.11,-71.75 211.04,-61.61 205.39,-65.74"/>
</a>
</g>
<text text-anchor="start" x="204.5" y="-42.5" font-family="Helvetica,sans-Serif" font-size="10.00" fill="grey">plugin_engine</text>
</g>
<!-- Node5 -->
<g id="Node000005" class="node">
<title>Node5</title>
<g id="a_Node000005"><a xlink:title=" ">
<polygon fill="white" stroke="#666666" points="299.5,-163 158.5,-163 158.5,-144 299.5,-144 299.5,-163"/>
<text text-anchor="middle" x="229" y="-151" font-family="Helvetica,sans-Serif" font-size="10.00">_EomPluginEnginePrivate</text>
</a>
</g>
</g>
<!-- Node5&#45;&gt;Node4 -->
<g id="edge4_Node000004_Node000005" class="edge">
<title>Node5&#45;&gt;Node4</title>
<g id="a_edge4_Node000004_Node000005"><a xlink:title=" ">
<path fill="none" stroke="#9a32cd" stroke-dasharray="5,2" d="M226.62,-133.99C224.84,-120.13 222.48,-101.79 221.11,-91.15"/>
<polygon fill="#9a32cd" stroke="#9a32cd" points="223.15,-134.44 227.9,-143.92 230.09,-133.55 223.15,-134.44"/>
</a>
</g>
<text text-anchor="start" x="229.5" y="-114.5" font-family="Helvetica,sans-Serif" font-size="10.00" fill="grey">priv</text>
</g>
</g>
</svg>
