<?xml version="1.0" encoding="UTF-8" standalone="no"?>
<!DOCTYPE svg PUBLIC "-//W3C//DTD SVG 1.1//EN"
 "http://www.w3.org/Graphics/SVG/1.1/DTD/svg11.dtd">
<!-- Generated by graphviz version 2.43.0 (0)
 -->
<!-- Title: CajaSearchEngineSimple Pages: 1 -->
<svg width="295pt" height="243pt"
 viewBox="0.00 0.00 295.00 243.00" xmlns="http://www.w3.org/2000/svg" xmlns:xlink="http://www.w3.org/1999/xlink">

<svg id="main" version="1.1" xmlns="http://www.w3.org/2000/svg" xmlns:xlink="http://www.w3.org/1999/xlink" xml:space="preserve">

<style type="text/css"><![CDATA[
.node, .edge {opacity: 0.7;}
.node.selected, .edge.selected {opacity: 1;}
.edge:hover path { stroke: red; }
.edge:hover polygon { stroke: red; fill: red; }
]]></style>
<script type="application/ecmascript" xlink:href="svg.min.js"/>
<svg id="graph" class="graph">
<g id="graph0" class="graph" transform="scale(1 1) rotate(0) translate(4 239)">
<title>CajaSearchEngineSimple</title>
<!-- Node1 -->
<g id="Node000001" class="node">
<title>Node1</title>
<g id="a_Node000001"><a xlink:title=" ">
<polygon fill="#999999" stroke="#666666" points="287,-163 149,-163 149,-144 287,-144 287,-163"/>
<text text-anchor="middle" x="218" y="-151" font-family="Helvetica,sans-Serif" font-size="10.00">CajaSearchEngineSimple</text>
</a>
</g>
</g>
<!-- Node6 -->
<g id="Node000006" class="node">
<title>Node6</title>
<g id="a_Node000006"><a xlink:title=" ">
<polygon fill="white" stroke="#666666" points="210.5,-91 103.5,-91 103.5,-72 210.5,-72 210.5,-91"/>
<text text-anchor="middle" x="157" y="-79" font-family="Helvetica,sans-Serif" font-size="10.00">SearchThreadData</text>
</a>
</g>
</g>
<!-- Node1&#45;&gt;Node6 -->
<g id="edge6_Node000006_Node000001" class="edge">
<title>Node1&#45;&gt;Node6</title>
<g id="a_edge6_Node000006_Node000001"><a xlink:title=" ">
<path fill="none" stroke="#9a32cd" stroke-dasharray="5,2" d="M202.49,-136.4C199.31,-133 196.02,-129.41 193,-126 182.61,-114.25 171.15,-100.19 164.01,-91.31"/>
<polygon fill="#9a32cd" stroke="#9a32cd" points="200.1,-138.96 209.52,-143.8 205.17,-134.14 200.1,-138.96"/>
</a>
</g>
<text text-anchor="start" x="196" y="-114.5" font-family="Helvetica,sans-Serif" font-size="10.00" fill="grey">engine</text>
</g>
<!-- Node2 -->
<g id="Node000002" class="node">
<title>Node2</title>
<g id="a_Node000002"><a xlink:href="structCajaSearchEngine.html" target="_top" xlink:title=" ">
<polygon fill="white" stroke="#666666" points="270,-235 166,-235 166,-216 270,-216 270,-235"/>
<text text-anchor="middle" x="218" y="-223" font-family="Helvetica,sans-Serif" font-size="10.00">CajaSearchEngine</text>
</a>
</g>
</g>
<!-- Node2&#45;&gt;Node1 -->
<g id="edge1_Node000001_Node000002" class="edge">
<title>Node2&#45;&gt;Node1</title>
<g id="a_edge1_Node000001_Node000002"><a xlink:title=" ">
<path fill="none" stroke="#9a32cd" stroke-dasharray="5,2" d="M218,-205.58C218,-191.76 218,-173.68 218,-163.15"/>
<polygon fill="#9a32cd" stroke="#9a32cd" points="214.5,-205.92 218,-215.92 221.5,-205.92 214.5,-205.92"/>
</a>
</g>
<text text-anchor="start" x="221" y="-186.5" font-family="Helvetica,sans-Serif" font-size="10.00" fill="grey">parent</text>
</g>
<!-- Node3 -->
<g id="Node000003" class="node">
<title>Node3</title>
<g id="a_Node000003"><a xlink:title=" ">
<polygon fill="white" stroke="#666666" points="243.5,-19 70.5,-19 70.5,0 243.5,0 243.5,-19"/>
<text text-anchor="middle" x="157" y="-7" font-family="Helvetica,sans-Serif" font-size="10.00">CajaSearchEngineSimpleDetails</text>
</a>
</g>
</g>
<!-- Node3&#45;&gt;Node1 -->
<g id="edge2_Node000001_Node000003" class="edge">
<title>Node3&#45;&gt;Node1</title>
<g id="a_edge2_Node000001_Node000003"><a xlink:title=" ">
<path fill="none" stroke="#9a32cd" stroke-dasharray="5,2" d="M217.92,-23.5C223.79,-26.99 229.03,-31.41 233,-37 255.91,-69.25 243.07,-87.75 233,-126 231.33,-132.34 227.76,-138.75 224.52,-143.69"/>
<polygon fill="#9a32cd" stroke="#9a32cd" points="219.44,-20.35 208.93,-19.02 216.31,-26.61 219.44,-20.35"/>
</a>
</g>
<text text-anchor="start" x="248" y="-78.5" font-family="Helvetica,sans-Serif" font-size="10.00" fill="grey">details</text>
</g>
<!-- Node4 -->
<g id="Node000004" class="node">
<title>Node4</title>
<g id="a_Node000004"><a xlink:href="structCajaQuery.html" target="_top" xlink:title=" ">
<polygon fill="white" stroke="#666666" points="85,-91 17,-91 17,-72 85,-72 85,-91"/>
<text text-anchor="middle" x="51" y="-79" font-family="Helvetica,sans-Serif" font-size="10.00">CajaQuery</text>
</a>
</g>
</g>
<!-- Node4&#45;&gt;Node3 -->
<g id="edge3_Node000003_Node000004" class="edge">
<title>Node4&#45;&gt;Node3</title>
<g id="a_edge3_Node000003_Node000004"><a xlink:title=" ">
<path fill="none" stroke="#9a32cd" stroke-dasharray="5,2" d="M72.43,-66.34C93.84,-52.21 126.04,-30.95 143.9,-19.15"/>
<polygon fill="#9a32cd" stroke="#9a32cd" points="70.41,-63.49 64,-71.92 74.27,-69.33 70.41,-63.49"/>
</a>
</g>
<text text-anchor="start" x="119" y="-42.5" font-family="Helvetica,sans-Serif" font-size="10.00" fill="grey">query</text>
</g>
<!-- Node5 -->
<g id="Node000005" class="node">
<title>Node5</title>
<g id="a_Node000005"><a xlink:title=" ">
<polygon fill="white" stroke="#666666" points="102,-163 0,-163 0,-144 102,-144 102,-163"/>
<text text-anchor="middle" x="51" y="-151" font-family="Helvetica,sans-Serif" font-size="10.00">CajaQueryDetails</text>
</a>
</g>
</g>
<!-- Node5&#45;&gt;Node4 -->
<g id="edge4_Node000004_Node000005" class="edge">
<title>Node5&#45;&gt;Node4</title>
<g id="a_edge4_Node000004_Node000005"><a xlink:title=" ">
<path fill="none" stroke="#9a32cd" stroke-dasharray="5,2" d="M51,-133.58C51,-119.76 51,-101.68 51,-91.15"/>
<polygon fill="#9a32cd" stroke="#9a32cd" points="47.5,-133.92 51,-143.92 54.5,-133.92 47.5,-133.92"/>
</a>
</g>
<text text-anchor="start" x="54" y="-114.5" font-family="Helvetica,sans-Serif" font-size="10.00" fill="grey">details</text>
</g>
<!-- Node6&#45;&gt;Node3 -->
<g id="edge5_Node000003_Node000006" class="edge">
<title>Node6&#45;&gt;Node3</title>
<g id="a_edge5_Node000003_Node000006"><a xlink:title=" ">
<path fill="none" stroke="#9a32cd" stroke-dasharray="5,2" d="M157,-61.58C157,-47.76 157,-29.68 157,-19.15"/>
<polygon fill="#9a32cd" stroke="#9a32cd" points="153.5,-61.92 157,-71.92 160.5,-61.92 153.5,-61.92"/>
</a>
</g>
<text text-anchor="start" x="160" y="-42.5" font-family="Helvetica,sans-Serif" font-size="10.00" fill="grey">active_search</text>
</g>
</g>
</svg>
</svg>

<style type='text/css'>
<![CDATA[
[data-mouse-over-selected='false'] { opacity: 0.7; }
[data-mouse-over-selected='true']  { opacity: 1.0; }
]]>
</style>
<script type="application/ecmascript"><![CDATA[
document.addEventListener('DOMContentLoaded', (event) => {
  highlightEdges();
  highlightAdjacentNodes();
});
]]></script>
</svg>
