<?xml version="1.0" encoding="UTF-8" standalone="no"?>
<!DOCTYPE svg PUBLIC "-//W3C//DTD SVG 1.1//EN"
 "http://www.w3.org/Graphics/SVG/1.1/DTD/svg11.dtd">
<!-- Generated by graphviz version 2.43.0 (0)
 -->
<!-- Title: _EvView Pages: 1 -->
<!--zoomable 674 -->

<svg id="main" version="1.1" xmlns="http://www.w3.org/2000/svg" xmlns:xlink="http://www.w3.org/1999/xlink" xml:space="preserve" onload="init(evt)">

<style type="text/css"><![CDATA[
.node, .edge {opacity: 0.7;}
.node.selected, .edge.selected {opacity: 1;}
.edge:hover path { stroke: red; }
.edge:hover polygon { stroke: red; fill: red; }
]]></style>

<defs>
  <circle id="rim" cx="0" cy="0" r="7"/>
  <circle id="rim2" cx="0" cy="0" r="3.5"/>
  <g id="zoomPlus">
    <use xlink:href="#rim" fill="#404040"><set attributeName="fill" to="#808080" begin="zoomplus.mouseover" end="zoomplus.mouseout"/></use>
    <path d="M-4,0h8M0,-4v8" fill="none" stroke="white" stroke-width="1.5" pointer-events="none"/>
  </g>
  <g id="zoomMin">
    <use xlink:href="#rim" fill="#404040"><set attributeName="fill" to="#808080" begin="zoomminus.mouseover" end="zoomminus.mouseout"/></use>
    <path d="M-4,0h8" fill="none" stroke="white" stroke-width="1.5" pointer-events="none"/>
  </g>
  <g id="arrowUp" transform="translate(30 24)">
    <use xlink:href="#rim"/>
    <path pointer-events="none" fill="none" stroke="white" stroke-width="1.5" d="M0,-3.0v7 M-2.5,-0.5L0,-3.0L2.5,-0.5"/>
  </g>
  <g id="arrowRight" transform="rotate(90) translate(36 -43)">
    <use xlink:href="#rim"/>
    <path pointer-events="none" fill="none" stroke="white" stroke-width="1.5" d="M0,-3.0v7 M-2.5,-0.5L0,-3.0L2.5,-0.5"/>
  </g>
  <g id="arrowDown" transform="rotate(180) translate(-30 -48)">
    <use xlink:href="#rim"/>
    <path pointer-events="none" fill="none" stroke="white" stroke-width="1.5" d="M0,-3.0v7 M-2.5,-0.5L0,-3.0L2.5,-0.5"/>
  </g>
  <g id="arrowLeft" transform="rotate(270) translate(-36 17)">
    <use xlink:href="#rim"/>
    <path pointer-events="none" fill="none" stroke="white" stroke-width="1.5" d="M0,-3.0v7 M-2.5,-0.5L0,-3.0L2.5,-0.5"/>
  </g>
  <g id="resetDef">
    <use xlink:href="#rim2" fill="#404040"><set attributeName="fill" to="#808080" begin="reset.mouseover" end="reset.mouseout"/></use>
  </g>
</defs>
<script type="application/ecmascript">
var viewWidth = 1615;
var viewHeight = 674;
var sectionId = 'dynsection-0';
</script>
<script type="application/ecmascript" xlink:href="svg.min.js"/>
<svg id="graph" class="graph">
<g id="viewport">
<title>_EvView</title>
<!-- Node1 -->
<g id="Node000001" class="node">
<title>Node1</title>
<g id="a_Node000001"><a xlink:title=" ">
<polygon fill="#999999" stroke="#666666" points="1607,-309.14 1549,-309.14 1549,-290.14 1607,-290.14 1607,-309.14"/>
<text text-anchor="middle" x="1578" y="-297.14" font-family="Helvetica,sans-Serif" font-size="10.00">_EvView</text>
</a>
</g>
</g>
<!-- Node2 -->
<g id="Node000002" class="node">
<title>Node2</title>
<g id="a_Node000002"><a xlink:href="struct__EvDocument.html" target="_top" xlink:title=" ">
<polygon fill="white" stroke="#666666" points="675.5,-548.14 591.5,-548.14 591.5,-529.14 675.5,-529.14 675.5,-548.14"/>
<text text-anchor="middle" x="633.5" y="-536.14" font-family="Helvetica,sans-Serif" font-size="10.00">_EvDocument</text>
</a>
</g>
</g>
<!-- Node2&#45;&gt;Node1 -->
<g id="edge1_Node000001_Node000002" class="edge">
<title>Node2&#45;&gt;Node1</title>
<g id="a_edge1_Node000001_Node000002"><a xlink:title=" ">
<path fill="none" stroke="#9a32cd" stroke-dasharray="5,2" d="M650.94,-555.9C682.31,-586.86 754.22,-648.64 828.5,-648.64 828.5,-648.64 828.5,-648.64 1334,-648.64 1381.76,-648.64 1522.18,-582.84 1531,-571.64 1564.17,-529.49 1574.51,-352.85 1576.58,-309.35"/>
<polygon fill="#9a32cd" stroke="#9a32cd" points="653.05,-553.05 643.53,-548.4 648.08,-557.97 653.05,-553.05"/>
</a>
</g>
<text text-anchor="start" x="1072.5" y="-654.14" font-family="Helvetica,sans-Serif" font-size="10.00" fill="grey">document</text>
</g>
<!-- Node7 -->
<g id="Node000007" class="node">
<title>Node7</title>
<g id="a_Node000007"><a xlink:title=" ">
<polygon fill="white" stroke="#666666" points="1153.5,-594.14 1039.5,-594.14 1039.5,-575.14 1153.5,-575.14 1153.5,-594.14"/>
<text text-anchor="middle" x="1096.5" y="-582.14" font-family="Helvetica,sans-Serif" font-size="10.00">_EvDocumentModel</text>
</a>
</g>
</g>
<!-- Node2&#45;&gt;Node7 -->
<g id="edge7_Node000007_Node000002" class="edge">
<title>Node2&#45;&gt;Node7</title>
<g id="a_edge7_Node000007_Node000002"><a xlink:title=" ">
<path fill="none" stroke="#9a32cd" stroke-dasharray="5,2" d="M685.97,-549.29C693.02,-550.54 700.17,-551.7 707,-552.64 824.67,-568.8 963.59,-577.84 1039.32,-581.93"/>
<polygon fill="#9a32cd" stroke="#9a32cd" points="686.25,-545.78 675.78,-547.41 684.98,-552.67 686.25,-545.78"/>
</a>
</g>
<text text-anchor="start" x="805.5" y="-576.14" font-family="Helvetica,sans-Serif" font-size="10.00" fill="grey">document</text>
</g>
<!-- Node8 -->
<g id="Node000008" class="node">
<title>Node8</title>
<g id="a_Node000008"><a xlink:title=" ">
<polygon fill="white" stroke="#666666" points="1380.5,-522.14 1285.5,-522.14 1285.5,-503.14 1380.5,-503.14 1380.5,-522.14"/>
<text text-anchor="middle" x="1333" y="-510.14" font-family="Helvetica,sans-Serif" font-size="10.00">_EvPixbufCache</text>
</a>
</g>
</g>
<!-- Node2&#45;&gt;Node8 -->
<g id="edge9_Node000008_Node000002" class="edge">
<title>Node2&#45;&gt;Node8</title>
<g id="a_edge9_Node000008_Node000002"><a xlink:title=" ">
<path fill="none" stroke="#9a32cd" stroke-dasharray="5,2" d="M685.72,-539.59C791.42,-541.09 1041.27,-542.22 1250,-524.64 1261.47,-523.67 1273.78,-522.14 1285.28,-520.49"/>
<polygon fill="#9a32cd" stroke="#9a32cd" points="685.7,-536.09 675.65,-539.44 685.6,-543.09 685.7,-536.09"/>
</a>
</g>
<text text-anchor="start" x="934" y="-545.14" font-family="Helvetica,sans-Serif" font-size="10.00" fill="grey">document</text>
</g>
<!-- Node10 -->
<g id="Node000010" class="node">
<title>Node10</title>
<g id="a_Node000010"><a xlink:href="struct__EvJob.html" target="_top" xlink:title=" ">
<polygon fill="white" stroke="#666666" points="854,-488.14 805,-488.14 805,-469.14 854,-469.14 854,-488.14"/>
<text text-anchor="middle" x="829.5" y="-476.14" font-family="Helvetica,sans-Serif" font-size="10.00">_EvJob</text>
</a>
</g>
</g>
<!-- Node2&#45;&gt;Node10 -->
<g id="edge13_Node000010_Node000002" class="edge">
<title>Node2&#45;&gt;Node10</title>
<g id="a_edge13_Node000010_Node000002"><a xlink:title=" ">
<path fill="none" stroke="#9a32cd" stroke-dasharray="5,2" d="M663.85,-524.75C676.87,-518.93 692.5,-512.43 707,-507.64 740.36,-496.62 780.15,-487.93 804.88,-483.04"/>
<polygon fill="#9a32cd" stroke="#9a32cd" points="662.11,-521.69 654.46,-529.02 665.01,-528.06 662.11,-521.69"/>
</a>
</g>
<text text-anchor="start" x="710.5" y="-513.14" font-family="Helvetica,sans-Serif" font-size="10.00" fill="grey">document</text>
</g>
<!-- Node12 -->
<g id="Node000012" class="node">
<title>Node12</title>
<g id="a_Node000012"><a xlink:title=" ">
<polygon fill="white" stroke="#666666" points="1376.5,-366.14 1289.5,-366.14 1289.5,-347.14 1376.5,-347.14 1376.5,-366.14"/>
<text text-anchor="middle" x="1333" y="-354.14" font-family="Helvetica,sans-Serif" font-size="10.00">_EvPageCache</text>
</a>
</g>
</g>
<!-- Node2&#45;&gt;Node12 -->
<g id="edge16_Node000012_Node000002" class="edge">
<title>Node2&#45;&gt;Node12</title>
<g id="a_edge16_Node000012_Node000002"><a xlink:title=" ">
<path fill="none" stroke="#9a32cd" stroke-dasharray="5,2" d="M634.93,-518.94C637.55,-452.11 655.63,-232.31 780,-125.64 859.59,-57.37 1182.23,-87.62 1250,-167.64 1299.39,-225.96 1218.72,-280.23 1268,-338.64 1273.51,-345.17 1281.18,-349.43 1289.3,-352.18"/>
<polygon fill="#9a32cd" stroke="#9a32cd" points="631.44,-518.84 634.62,-528.95 638.43,-519.06 631.44,-518.84"/>
</a>
</g>
<text text-anchor="start" x="934" y="-95.14" font-family="Helvetica,sans-Serif" font-size="10.00" fill="grey">document</text>
</g>
<!-- Node3 -->
<g id="Node000003" class="node">
<title>Node3</title>
<g id="a_Node000003"><a xlink:title=" ">
<polygon fill="white" stroke="#666666" points="517,-548.14 398,-548.14 398,-529.14 517,-529.14 517,-548.14"/>
<text text-anchor="middle" x="457.5" y="-536.14" font-family="Helvetica,sans-Serif" font-size="10.00">_EvDocumentPrivate</text>
</a>
</g>
</g>
<!-- Node3&#45;&gt;Node2 -->
<g id="edge2_Node000002_Node000003" class="edge">
<title>Node3&#45;&gt;Node2</title>
<g id="a_edge2_Node000002_Node000003"><a xlink:title=" ">
<path fill="none" stroke="#9a32cd" stroke-dasharray="5,2" d="M527.56,-538.64C549.21,-538.64 572.42,-538.64 591.49,-538.64"/>
<polygon fill="#9a32cd" stroke="#9a32cd" points="527.41,-535.14 517.41,-538.64 527.41,-542.14 527.41,-535.14"/>
</a>
</g>
<text text-anchor="start" x="538.5" y="-544.14" font-family="Helvetica,sans-Serif" font-size="10.00" fill="grey">priv</text>
</g>
<!-- Node4 -->
<g id="Node000004" class="node">
<title>Node4</title>
<g id="a_Node000004"><a xlink:title=" ">
<polygon fill="white" stroke="#666666" points="288,-568.14 211,-568.14 211,-549.14 288,-549.14 288,-568.14"/>
<text text-anchor="middle" x="249.5" y="-556.14" font-family="Helvetica,sans-Serif" font-size="10.00">_EvPageSize</text>
</a>
</g>
</g>
<!-- Node4&#45;&gt;Node3 -->
<g id="edge3_Node000003_Node000004" class="edge">
<title>Node4&#45;&gt;Node3</title>
<g id="a_edge3_Node000003_Node000004"><a xlink:title=" ">
<path fill="none" stroke="#9a32cd" stroke-dasharray="5,2" d="M298.4,-553.99C328.08,-551.11 366.43,-547.39 397.92,-544.33"/>
<polygon fill="#9a32cd" stroke="#9a32cd" points="297.9,-550.52 288.28,-554.97 298.58,-557.49 297.9,-550.52"/>
</a>
</g>
<text text-anchor="start" x="322.5" y="-556.14" font-family="Helvetica,sans-Serif" font-size="10.00" fill="grey">page_sizes</text>
</g>
<!-- Node5 -->
<g id="Node000005" class="node">
<title>Node5</title>
<g id="a_Node000005"><a xlink:href="struct__EvDocumentInfo.html" target="_top" xlink:title=" ">
<polygon fill="white" stroke="#666666" points="301,-528.14 198,-528.14 198,-509.14 301,-509.14 301,-528.14"/>
<text text-anchor="middle" x="249.5" y="-516.14" font-family="Helvetica,sans-Serif" font-size="10.00">_EvDocumentInfo</text>
</a>
</g>
</g>
<!-- Node5&#45;&gt;Node3 -->
<g id="edge4_Node000003_Node000005" class="edge">
<title>Node5&#45;&gt;Node3</title>
<g id="a_edge4_Node000003_Node000005"><a xlink:title=" ">
<path fill="none" stroke="#9a32cd" stroke-dasharray="5,2" d="M311.15,-519.76C332.92,-520.61 357.61,-522.08 380,-524.64 389.79,-525.76 400.22,-527.38 410.13,-529.12"/>
<polygon fill="#9a32cd" stroke="#9a32cd" points="311.17,-516.26 301.06,-519.4 310.93,-523.26 311.17,-516.26"/>
</a>
</g>
<text text-anchor="start" x="340.5" y="-530.14" font-family="Helvetica,sans-Serif" font-size="10.00" fill="grey">info</text>
</g>
<!-- Node6 -->
<g id="Node000006" class="node">
<title>Node6</title>
<g id="a_Node000006"><a xlink:href="struct__EvDocumentLicense.html" target="_top" xlink:title=" ">
<polygon fill="white" stroke="#666666" points="121,-528.14 0,-528.14 0,-509.14 121,-509.14 121,-528.14"/>
<text text-anchor="middle" x="60.5" y="-516.14" font-family="Helvetica,sans-Serif" font-size="10.00">_EvDocumentLicense</text>
</a>
</g>
</g>
<!-- Node6&#45;&gt;Node5 -->
<g id="edge5_Node000005_Node000006" class="edge">
<title>Node6&#45;&gt;Node5</title>
<g id="a_edge5_Node000005_Node000006"><a xlink:title=" ">
<path fill="none" stroke="#9a32cd" stroke-dasharray="5,2" d="M131.19,-518.64C153.32,-518.64 177.34,-518.64 197.86,-518.64"/>
<polygon fill="#9a32cd" stroke="#9a32cd" points="131.18,-515.14 121.18,-518.64 131.18,-522.14 131.18,-515.14"/>
</a>
</g>
<text text-anchor="start" x="142.5" y="-524.14" font-family="Helvetica,sans-Serif" font-size="10.00" fill="grey">license</text>
</g>
<!-- Node7&#45;&gt;Node1 -->
<g id="edge6_Node000001_Node000007" class="edge">
<title>Node7&#45;&gt;Node1</title>
<g id="a_edge6_Node000001_Node000007"><a xlink:title=" ">
<path fill="none" stroke="#9a32cd" stroke-dasharray="5,2" d="M1150.87,-595.95C1242.79,-611.97 1430.75,-628.98 1531,-526.64 1562.16,-494.83 1573.84,-348.13 1576.42,-309.16"/>
<polygon fill="#9a32cd" stroke="#9a32cd" points="1151.41,-592.49 1140.95,-594.16 1150.17,-599.38 1151.41,-592.49"/>
</a>
</g>
<text text-anchor="start" x="1318" y="-613.14" font-family="Helvetica,sans-Serif" font-size="10.00" fill="grey">model</text>
</g>
<!-- Node7&#45;&gt;Node8 -->
<g id="edge10_Node000008_Node000007" class="edge">
<title>Node7&#45;&gt;Node8</title>
<g id="a_edge10_Node000008_Node000007"><a xlink:title=" ">
<path fill="none" stroke="#9a32cd" stroke-dasharray="5,2" d="M1160.77,-573.05C1188.51,-567.23 1221.22,-559.33 1250,-549.64 1272.5,-542.07 1297.19,-530.44 1313.54,-522.25"/>
<polygon fill="#9a32cd" stroke="#9a32cd" points="1159.89,-569.66 1150.8,-575.11 1161.3,-576.52 1159.89,-569.66"/>
</a>
</g>
<text text-anchor="start" x="1197" y="-575.14" font-family="Helvetica,sans-Serif" font-size="10.00" fill="grey">model</text>
</g>
<!-- Node8&#45;&gt;Node1 -->
<g id="edge8_Node000001_Node000008" class="edge">
<title>Node8&#45;&gt;Node1</title>
<g id="a_edge8_Node000001_Node000008"><a xlink:title=" ">
<path fill="none" stroke="#9a32cd" stroke-dasharray="5,2" d="M1390.51,-510.19C1434.41,-505.3 1493.89,-491.67 1531,-454.64 1572.53,-413.2 1576.91,-336.11 1577.12,-309.21"/>
<polygon fill="#9a32cd" stroke="#9a32cd" points="1390.16,-506.71 1380.55,-511.18 1390.85,-513.67 1390.16,-506.71"/>
</a>
</g>
<text text-anchor="start" x="1441.5" y="-511.14" font-family="Helvetica,sans-Serif" font-size="10.00" fill="grey">pixbuf_cache</text>
</g>
<!-- Node9 -->
<g id="Node000009" class="node">
<title>Node9</title>
<g id="a_Node000009"><a xlink:title=" ">
<polygon fill="white" stroke="#666666" points="1139.5,-487.14 1053.5,-487.14 1053.5,-468.14 1139.5,-468.14 1139.5,-487.14"/>
<text text-anchor="middle" x="1096.5" y="-475.14" font-family="Helvetica,sans-Serif" font-size="10.00">_CacheJobInfo</text>
</a>
</g>
</g>
<!-- Node9&#45;&gt;Node8 -->
<g id="edge11_Node000008_Node000009" class="edge">
<title>Node9&#45;&gt;Node8</title>
<g id="a_edge11_Node000008_Node000009"><a xlink:title=" ">
<path fill="none" stroke="#9a32cd" stroke-dasharray="5,2" d="M1149.85,-472.49C1179.52,-470.85 1217.17,-470.93 1250,-477.64 1273.66,-482.48 1298.93,-494.42 1315.07,-503.01"/>
<polygon fill="#9a32cd" stroke="#9a32cd" points="1149.46,-469.01 1139.7,-473.14 1149.91,-476 1149.46,-469.01"/>
</a>
</g>
<text text-anchor="start" x="1191" y="-513.14" font-family="Helvetica,sans-Serif" font-size="10.00" fill="grey">job_list</text>
<text text-anchor="start" x="1191" y="-498.14" font-family="Helvetica,sans-Serif" font-size="10.00" fill="grey">next_job</text>
<text text-anchor="start" x="1191" y="-483.14" font-family="Helvetica,sans-Serif" font-size="10.00" fill="grey">prev_job</text>
</g>
<!-- Node10&#45;&gt;Node9 -->
<g id="edge12_Node000009_Node000010" class="edge">
<title>Node10&#45;&gt;Node9</title>
<g id="a_edge12_Node000009_Node000010"><a xlink:title=" ">
<path fill="none" stroke="#9a32cd" stroke-dasharray="5,2" d="M864.2,-478.51C912.29,-478.33 1000.55,-478 1053.04,-477.8"/>
<polygon fill="#9a32cd" stroke="#9a32cd" points="864,-475.01 854.02,-478.55 864.03,-482.01 864,-475.01"/>
</a>
</g>
<text text-anchor="start" x="950" y="-483.14" font-family="Helvetica,sans-Serif" font-size="10.00" fill="grey">job</text>
</g>
<!-- Node13 -->
<g id="Node000013" class="node">
<title>Node13</title>
<g id="a_Node000013"><a xlink:title=" ">
<polygon fill="white" stroke="#666666" points="1151.5,-300.14 1041.5,-300.14 1041.5,-281.14 1151.5,-281.14 1151.5,-300.14"/>
<text text-anchor="middle" x="1096.5" y="-288.14" font-family="Helvetica,sans-Serif" font-size="10.00">_EvPageCacheData</text>
</a>
</g>
</g>
<!-- Node10&#45;&gt;Node13 -->
<g id="edge18_Node000013_Node000010" class="edge">
<title>Node10&#45;&gt;Node13</title>
<g id="a_edge18_Node000013_Node000010"><a xlink:title=" ">
<path fill="none" stroke="#9a32cd" stroke-dasharray="5,2" d="M834.87,-458.92C842.34,-430.08 860.44,-376.89 897,-349.64 941.24,-316.66 966.5,-343.63 1019,-326.64 1040.23,-319.77 1063.22,-308.37 1078.39,-300.23"/>
<polygon fill="#9a32cd" stroke="#9a32cd" points="831.38,-458.45 832.44,-469 838.18,-460.1 831.38,-458.45"/>
</a>
</g>
<text text-anchor="start" x="950" y="-355.14" font-family="Helvetica,sans-Serif" font-size="10.00" fill="grey">job</text>
</g>
<!-- Node16 -->
<g id="Node000016" class="node">
<title>Node16</title>
<g id="a_Node000016"><a xlink:href="struct__EvJobRender.html" target="_top" xlink:title=" ">
<polygon fill="white" stroke="#666666" points="1138,-450.14 1055,-450.14 1055,-431.14 1138,-431.14 1138,-450.14"/>
<text text-anchor="middle" x="1096.5" y="-438.14" font-family="Helvetica,sans-Serif" font-size="10.00">_EvJobRender</text>
</a>
</g>
</g>
<!-- Node10&#45;&gt;Node16 -->
<g id="edge23_Node000016_Node000010" class="edge">
<title>Node10&#45;&gt;Node16</title>
<g id="a_edge23_Node000016_Node000010"><a xlink:title=" ">
<path fill="none" stroke="#9a32cd" stroke-dasharray="5,2" d="M863.75,-465.91C874.25,-462.36 885.98,-458.87 897,-456.64 950.88,-445.72 1014.4,-442.19 1054.81,-441.09"/>
<polygon fill="#9a32cd" stroke="#9a32cd" points="862.41,-462.67 854.13,-469.29 864.73,-469.28 862.41,-462.67"/>
</a>
</g>
<text text-anchor="start" x="942" y="-462.14" font-family="Helvetica,sans-Serif" font-size="10.00" fill="grey">parent</text>
</g>
<!-- Node11 -->
<g id="Node000011" class="node">
<title>Node11</title>
<g id="a_Node000011"><a xlink:href="struct__EvRectangle.html" target="_top" xlink:title=" ">
<polygon fill="white" stroke="#666666" points="871,-298.14 788,-298.14 788,-279.14 871,-279.14 871,-298.14"/>
<text text-anchor="middle" x="829.5" y="-286.14" font-family="Helvetica,sans-Serif" font-size="10.00">_EvRectangle</text>
</a>
</g>
</g>
<!-- Node11&#45;&gt;Node9 -->
<g id="edge14_Node000009_Node000011" class="edge">
<title>Node11&#45;&gt;Node9</title>
<g id="a_edge14_Node000009_Node000011"><a xlink:title=" ">
<path fill="none" stroke="#9a32cd" stroke-dasharray="5,2" d="M841.31,-307.39C852.77,-325.49 872.57,-352.21 897,-366.64 944.66,-394.79 978.77,-353.63 1019,-391.64 1041.72,-413.11 1015.34,-437.1 1037,-459.64 1041.57,-464.39 1047.35,-467.9 1053.5,-470.48"/>
<polygon fill="#9a32cd" stroke="#9a32cd" points="844.01,-305.09 835.83,-298.36 838.03,-308.72 844.01,-305.09"/>
</a>
</g>
<text text-anchor="start" x="900" y="-427.14" font-family="Helvetica,sans-Serif" font-size="10.00" fill="grey">selection_points</text>
<text text-anchor="start" x="900" y="-412.14" font-family="Helvetica,sans-Serif" font-size="10.00" fill="grey">selection_region_points</text>
<text text-anchor="start" x="900" y="-397.14" font-family="Helvetica,sans-Serif" font-size="10.00" fill="grey">target_points</text>
</g>
<!-- Node11&#45;&gt;Node13 -->
<g id="edge20_Node000013_Node000011" class="edge">
<title>Node11&#45;&gt;Node13</title>
<g id="a_edge20_Node000013_Node000011"><a xlink:title=" ">
<path fill="none" stroke="#9a32cd" stroke-dasharray="5,2" d="M867,-276.24C876.64,-273.51 887.12,-271.02 897,-269.64 950.7,-262.12 965.26,-262.4 1019,-269.64 1035.52,-271.87 1053.51,-276.68 1067.89,-281.14"/>
<polygon fill="#9a32cd" stroke="#9a32cd" points="865.89,-272.92 857.31,-279.14 867.89,-279.63 865.89,-272.92"/>
</a>
</g>
<text text-anchor="start" x="930" y="-275.14" font-family="Helvetica,sans-Serif" font-size="10.00" fill="grey">text_layout</text>
</g>
<!-- Node11&#45;&gt;Node16 -->
<g id="edge24_Node000016_Node000011" class="edge">
<title>Node11&#45;&gt;Node16</title>
<g id="a_edge24_Node000016_Node000011"><a xlink:title=" ">
<path fill="none" stroke="#9a32cd" stroke-dasharray="5,2" d="M881.45,-289.24C929.39,-290.71 997.01,-295.34 1019,-309.64 1064.48,-339.22 1086.3,-406.02 1093.09,-430.99"/>
<polygon fill="#9a32cd" stroke="#9a32cd" points="881.33,-285.74 871.24,-288.97 881.14,-292.74 881.33,-285.74"/>
</a>
</g>
<text text-anchor="start" x="918" y="-315.14" font-family="Helvetica,sans-Serif" font-size="10.00" fill="grey">selection_points</text>
</g>
<!-- Node29 -->
<g id="Node000029" class="node">
<title>Node29</title>
<g id="a_Node000029"><a xlink:href="struct__EvMapping.html" target="_top" xlink:title=" ">
<polygon fill="white" stroke="#666666" points="1250,-195.14 1174,-195.14 1174,-176.14 1250,-176.14 1250,-195.14"/>
<text text-anchor="middle" x="1212" y="-183.14" font-family="Helvetica,sans-Serif" font-size="10.00">_EvMapping</text>
</a>
</g>
</g>
<!-- Node11&#45;&gt;Node29 -->
<g id="edge38_Node000029_Node000011" class="edge">
<title>Node11&#45;&gt;Node29</title>
<g id="a_edge38_Node000029_Node000011"><a xlink:title=" ">
<path fill="none" stroke="#9a32cd" stroke-dasharray="5,2" d="M849.32,-272.35C861.99,-262.26 879.5,-249.88 897,-242.64 991.71,-203.45 1113.52,-191.13 1173.79,-187.32"/>
<polygon fill="#9a32cd" stroke="#9a32cd" points="846.89,-269.83 841.39,-278.89 851.34,-275.23 846.89,-269.83"/>
</a>
</g>
<text text-anchor="start" x="947" y="-248.14" font-family="Helvetica,sans-Serif" font-size="10.00" fill="grey">area</text>
</g>
<!-- Node12&#45;&gt;Node1 -->
<g id="edge15_Node000001_Node000012" class="edge">
<title>Node12&#45;&gt;Node1</title>
<g id="a_edge15_Node000001_Node000012"><a xlink:title=" ">
<path fill="none" stroke="#9a32cd" stroke-dasharray="5,2" d="M1386.83,-357.25C1427.52,-356.07 1484.49,-350.77 1531,-332.64 1544.74,-327.28 1558.17,-316.88 1566.94,-309.17"/>
<polygon fill="#9a32cd" stroke="#9a32cd" points="1386.52,-353.76 1376.6,-357.47 1386.67,-360.75 1386.52,-353.76"/>
</a>
</g>
<text text-anchor="start" x="1444.5" y="-361.14" font-family="Helvetica,sans-Serif" font-size="10.00" fill="grey">page_cache</text>
</g>
<!-- Node13&#45;&gt;Node12 -->
<g id="edge17_Node000012_Node000013" class="edge">
<title>Node13&#45;&gt;Node12</title>
<g id="a_edge17_Node000012_Node000013"><a xlink:title=" ">
<path fill="none" stroke="#9a32cd" stroke-dasharray="5,2" d="M1141.21,-302.95C1175.66,-312.65 1224.89,-326.51 1268,-338.64 1277.78,-341.39 1288.4,-344.38 1298.12,-347.11"/>
<polygon fill="#9a32cd" stroke="#9a32cd" points="1142.04,-299.55 1131.47,-300.21 1140.14,-306.28 1142.04,-299.55"/>
</a>
</g>
<text text-anchor="start" x="1190" y="-338.14" font-family="Helvetica,sans-Serif" font-size="10.00" fill="grey">page_list</text>
</g>
<!-- Node14 -->
<g id="Node000014" class="node">
<title>Node14</title>
<g id="a_Node000014"><a xlink:title=" ">
<polygon fill="white" stroke="#666666" points="876,-153.14 783,-153.14 783,-134.14 876,-134.14 876,-153.14"/>
<text text-anchor="middle" x="829.5" y="-141.14" font-family="Helvetica,sans-Serif" font-size="10.00">_EvMappingList</text>
</a>
</g>
</g>
<!-- Node14&#45;&gt;Node13 -->
<g id="edge19_Node000013_Node000014" class="edge">
<title>Node14&#45;&gt;Node13</title>
<g id="a_edge19_Node000013_Node000014"><a xlink:title=" ">
<path fill="none" stroke="#9a32cd" stroke-dasharray="5,2" d="M873.79,-131.94C914.37,-123.58 975.19,-117.98 1019,-144.64 1070.09,-175.73 1088.75,-253.37 1093.88,-280.83"/>
<polygon fill="#9a32cd" stroke="#9a32cd" points="872.95,-128.55 863.94,-134.11 874.45,-135.38 872.95,-128.55"/>
</a>
</g>
<text text-anchor="start" x="909" y="-195.64" font-family="Helvetica,sans-Serif" font-size="10.00" fill="grey">annot_mapping</text>
<text text-anchor="start" x="909" y="-180.64" font-family="Helvetica,sans-Serif" font-size="10.00" fill="grey">form_field_mapping</text>
<text text-anchor="start" x="909" y="-165.64" font-family="Helvetica,sans-Serif" font-size="10.00" fill="grey">image_mapping</text>
<text text-anchor="start" x="909" y="-150.64" font-family="Helvetica,sans-Serif" font-size="10.00" fill="grey">link_mapping</text>
</g>
<!-- Node15 -->
<g id="Node000015" class="node">
<title>Node15</title>
<g id="a_Node000015"><a xlink:href="struct__EvHeightToPageCache.html" target="_top" xlink:title=" ">
<polygon fill="white" stroke="#666666" points="1398,-404.14 1268,-404.14 1268,-385.14 1398,-385.14 1398,-404.14"/>
<text text-anchor="middle" x="1333" y="-392.14" font-family="Helvetica,sans-Serif" font-size="10.00">_EvHeightToPageCache</text>
</a>
</g>
</g>
<!-- Node15&#45;&gt;Node1 -->
<g id="edge21_Node000001_Node000015" class="edge">
<title>Node15&#45;&gt;Node1</title>
<g id="a_edge21_Node000001_Node000015"><a xlink:title=" ">
<path fill="none" stroke="#9a32cd" stroke-dasharray="5,2" d="M1408.19,-403.31C1447.47,-404.27 1494.9,-399.36 1531,-376.64 1556.04,-360.88 1569.25,-326.1 1574.4,-309.21"/>
<polygon fill="#9a32cd" stroke="#9a32cd" points="1408.25,-399.81 1398.13,-402.93 1407.99,-406.8 1408.25,-399.81"/>
</a>
</g>
<text text-anchor="start" x="1419.5" y="-408.14" font-family="Helvetica,sans-Serif" font-size="10.00" fill="grey">height_to_page_cache</text>
</g>
<!-- Node16&#45;&gt;Node1 -->
<g id="edge22_Node000001_Node000016" class="edge">
<title>Node16&#45;&gt;Node1</title>
<g id="a_edge22_Node000001_Node000016"><a xlink:title=" ">
<path fill="none" stroke="#9a32cd" stroke-dasharray="5,2" d="M1148.27,-445.45C1249.39,-453.95 1471.31,-466.92 1531,-423.64 1569.11,-396.01 1575.68,-333.12 1576.79,-309.15"/>
<polygon fill="#9a32cd" stroke="#9a32cd" points="1148.56,-441.96 1138.3,-444.59 1147.96,-448.93 1148.56,-441.96"/>
</a>
</g>
<text text-anchor="start" x="1306" y="-459.14" font-family="Helvetica,sans-Serif" font-size="10.00" fill="grey">current_job</text>
</g>
<!-- Node17 -->
<g id="Node000017" class="node">
<title>Node17</title>
<g id="a_Node000017"><a xlink:href="structEvPoint.html" target="_top" xlink:title=" ">
<polygon fill="white" stroke="#666666" points="1359.5,-329.14 1306.5,-329.14 1306.5,-310.14 1359.5,-310.14 1359.5,-329.14"/>
<text text-anchor="middle" x="1333" y="-317.14" font-family="Helvetica,sans-Serif" font-size="10.00">EvPoint</text>
</a>
</g>
</g>
<!-- Node17&#45;&gt;Node1 -->
<g id="edge25_Node000001_Node000017" class="edge">
<title>Node17&#45;&gt;Node1</title>
<g id="a_edge25_Node000001_Node000017"><a xlink:title=" ">
<path fill="none" stroke="#9a32cd" stroke-dasharray="5,2" d="M1369.61,-316.71C1418.24,-312.71 1504.42,-305.61 1548.82,-301.96"/>
<polygon fill="#9a32cd" stroke="#9a32cd" points="1369.23,-313.23 1359.55,-317.54 1369.8,-320.21 1369.23,-313.23"/>
</a>
</g>
<text text-anchor="start" x="1438.5" y="-317.14" font-family="Helvetica,sans-Serif" font-size="10.00" fill="grey">pending_point</text>
</g>
<!-- Node18 -->
<g id="Node000018" class="node">
<title>Node18</title>
<g id="a_Node000018"><a xlink:href="structDragInfo.html" target="_top" xlink:title=" ">
<polygon fill="white" stroke="#666666" points="1362.5,-289.14 1303.5,-289.14 1303.5,-270.14 1362.5,-270.14 1362.5,-289.14"/>
<text text-anchor="middle" x="1333" y="-277.14" font-family="Helvetica,sans-Serif" font-size="10.00">DragInfo</text>
</a>
</g>
</g>
<!-- Node18&#45;&gt;Node1 -->
<g id="edge26_Node000001_Node000018" class="edge">
<title>Node18&#45;&gt;Node1</title>
<g id="a_edge26_Node000001_Node000018"><a xlink:title=" ">
<path fill="none" stroke="#9a32cd" stroke-dasharray="5,2" d="M1372.84,-275.94C1412.88,-273.07 1476.91,-271.15 1531,-281.64 1539.92,-283.37 1549.34,-286.75 1557.32,-290.13"/>
<polygon fill="#9a32cd" stroke="#9a32cd" points="1372.41,-272.46 1362.71,-276.72 1372.95,-279.44 1372.41,-272.46"/>
</a>
</g>
<text text-anchor="start" x="1450.5" y="-287.14" font-family="Helvetica,sans-Serif" font-size="10.00" fill="grey">drag_info</text>
</g>
<!-- Node19 -->
<g id="Node000019" class="node">
<title>Node19</title>
<g id="a_Node000019"><a xlink:href="structAutoScrollInfo.html" target="_top" xlink:title=" ">
<polygon fill="white" stroke="#666666" points="1375.5,-250.14 1290.5,-250.14 1290.5,-231.14 1375.5,-231.14 1375.5,-250.14"/>
<text text-anchor="middle" x="1333" y="-238.14" font-family="Helvetica,sans-Serif" font-size="10.00">AutoScrollInfo</text>
</a>
</g>
</g>
<!-- Node19&#45;&gt;Node1 -->
<g id="edge27_Node000001_Node000019" class="edge">
<title>Node19&#45;&gt;Node1</title>
<g id="a_edge27_Node000001_Node000019"><a xlink:title=" ">
<path fill="none" stroke="#9a32cd" stroke-dasharray="5,2" d="M1385.78,-233.93C1427,-230.86 1485.17,-231.71 1531,-252.64 1548.65,-260.7 1563.15,-278.78 1570.89,-290.02"/>
<polygon fill="#9a32cd" stroke="#9a32cd" points="1385.35,-230.46 1375.68,-234.79 1385.94,-237.43 1385.35,-230.46"/>
</a>
</g>
<text text-anchor="start" x="1448.5" y="-258.14" font-family="Helvetica,sans-Serif" font-size="10.00" fill="grey">scroll_info</text>
</g>
<!-- Node20 -->
<g id="Node000020" class="node">
<title>Node20</title>
<g id="a_Node000020"><a xlink:href="structSelectionInfo.html" target="_top" xlink:title=" ">
<polygon fill="white" stroke="#666666" points="1373,-213.14 1293,-213.14 1293,-194.14 1373,-194.14 1373,-213.14"/>
<text text-anchor="middle" x="1333" y="-201.14" font-family="Helvetica,sans-Serif" font-size="10.00">SelectionInfo</text>
</a>
</g>
</g>
<!-- Node20&#45;&gt;Node1 -->
<g id="edge28_Node000001_Node000020" class="edge">
<title>Node20&#45;&gt;Node1</title>
<g id="a_edge28_Node000001_Node000020"><a xlink:title=" ">
<path fill="none" stroke="#9a32cd" stroke-dasharray="5,2" d="M1383.39,-192.38C1425.87,-185.55 1487.06,-182.81 1531,-210.64 1559.65,-228.79 1571.34,-270.93 1575.29,-289.98"/>
<polygon fill="#9a32cd" stroke="#9a32cd" points="1382.54,-188.98 1373.28,-194.14 1383.74,-195.87 1382.54,-188.98"/>
</a>
</g>
<text text-anchor="start" x="1439.5" y="-216.14" font-family="Helvetica,sans-Serif" font-size="10.00" fill="grey">selection_info</text>
</g>
<!-- Node21 -->
<g id="Node000021" class="node">
<title>Node21</title>
<g id="a_Node000021"><a xlink:title=" ">
<polygon fill="white" stroke="#666666" points="1375.5,-107.14 1290.5,-107.14 1290.5,-88.14 1375.5,-88.14 1375.5,-107.14"/>
<text text-anchor="middle" x="1333" y="-95.14" font-family="Helvetica,sans-Serif" font-size="10.00">_EvLinkAction</text>
</a>
</g>
</g>
<!-- Node21&#45;&gt;Node1 -->
<g id="edge29_Node000001_Node000021" class="edge">
<title>Node21&#45;&gt;Node1</title>
<g id="a_edge29_Node000001_Node000021"><a xlink:title=" ">
<path fill="none" stroke="#9a32cd" stroke-dasharray="5,2" d="M1384.5,-86.51C1428.35,-79.99 1490.94,-78.7 1531,-112.64 1558.81,-136.19 1572.61,-255.24 1576.1,-290.06"/>
<polygon fill="#9a32cd" stroke="#9a32cd" points="1383.92,-83.06 1374.61,-88.11 1385.04,-89.96 1383.92,-83.06"/>
</a>
</g>
<text text-anchor="start" x="1441.5" y="-118.14" font-family="Helvetica,sans-Serif" font-size="10.00" fill="grey">link_selected</text>
</g>
<!-- Node22 -->
<g id="Node000022" class="node">
<title>Node22</title>
<g id="a_Node000022"><a xlink:title=" ">
<polygon fill="white" stroke="#666666" points="1156,-74.14 1037,-74.14 1037,-55.14 1156,-55.14 1156,-74.14"/>
<text text-anchor="middle" x="1096.5" y="-62.14" font-family="Helvetica,sans-Serif" font-size="10.00">_EvLinkActionPrivate</text>
</a>
</g>
</g>
<!-- Node22&#45;&gt;Node21 -->
<g id="edge30_Node000021_Node000022" class="edge">
<title>Node22&#45;&gt;Node21</title>
<g id="a_edge30_Node000021_Node000022"><a xlink:title=" ">
<path fill="none" stroke="#9a32cd" stroke-dasharray="5,2" d="M1166.3,-63.62C1192.72,-64.43 1223,-66.84 1250,-72.64 1258.39,-74.44 1259.86,-76.92 1268,-79.64 1276.87,-82.6 1286.53,-85.49 1295.6,-88.06"/>
<polygon fill="#9a32cd" stroke="#9a32cd" points="1166.08,-60.12 1156,-63.38 1165.92,-67.11 1166.08,-60.12"/>
</a>
</g>
<text text-anchor="start" x="1203" y="-78.14" font-family="Helvetica,sans-Serif" font-size="10.00" fill="grey">priv</text>
</g>
<!-- Node23 -->
<g id="Node000023" class="node">
<title>Node23</title>
<g id="a_Node000023"><a xlink:title=" ">
<polygon fill="white" stroke="#666666" points="868,-73.14 791,-73.14 791,-54.14 868,-54.14 868,-73.14"/>
<text text-anchor="middle" x="829.5" y="-61.14" font-family="Helvetica,sans-Serif" font-size="10.00">_EvLinkDest</text>
</a>
</g>
</g>
<!-- Node23&#45;&gt;Node22 -->
<g id="edge31_Node000022_Node000023" class="edge">
<title>Node23&#45;&gt;Node22</title>
<g id="a_edge31_Node000022_Node000023"><a xlink:title=" ">
<path fill="none" stroke="#9a32cd" stroke-dasharray="5,2" d="M878.45,-63.82C922.96,-63.99 989.34,-64.24 1036.96,-64.42"/>
<polygon fill="#9a32cd" stroke="#9a32cd" points="878.2,-60.32 868.19,-63.78 878.17,-67.32 878.2,-60.32"/>
</a>
</g>
<text text-anchor="start" x="947" y="-69.14" font-family="Helvetica,sans-Serif" font-size="10.00" fill="grey">dest</text>
</g>
<!-- Node24 -->
<g id="Node000024" class="node">
<title>Node24</title>
<g id="a_Node000024"><a xlink:title=" ">
<polygon fill="white" stroke="#666666" points="689,-73.14 578,-73.14 578,-54.14 689,-54.14 689,-73.14"/>
<text text-anchor="middle" x="633.5" y="-61.14" font-family="Helvetica,sans-Serif" font-size="10.00">_EvLinkDestPrivate</text>
</a>
</g>
</g>
<!-- Node24&#45;&gt;Node23 -->
<g id="edge32_Node000023_Node000024" class="edge">
<title>Node24&#45;&gt;Node23</title>
<g id="a_edge32_Node000023_Node000024"><a xlink:title=" ">
<path fill="none" stroke="#9a32cd" stroke-dasharray="5,2" d="M699.18,-63.64C729.65,-63.64 764.92,-63.64 790.92,-63.64"/>
<polygon fill="#9a32cd" stroke="#9a32cd" points="699.06,-60.14 689.06,-63.64 699.06,-67.14 699.06,-60.14"/>
</a>
</g>
<text text-anchor="start" x="725.5" y="-69.14" font-family="Helvetica,sans-Serif" font-size="10.00" fill="grey">priv</text>
</g>
<!-- Node25 -->
<g id="Node000025" class="node">
<title>Node25</title>
<g id="a_Node000025"><a xlink:href="structImageDNDInfo.html" target="_top" xlink:title=" ">
<polygon fill="white" stroke="#666666" points="1377.5,-31.14 1288.5,-31.14 1288.5,-12.14 1377.5,-12.14 1377.5,-31.14"/>
<text text-anchor="middle" x="1333" y="-19.14" font-family="Helvetica,sans-Serif" font-size="10.00">ImageDNDInfo</text>
</a>
</g>
</g>
<!-- Node25&#45;&gt;Node1 -->
<g id="edge33_Node000001_Node000025" class="edge">
<title>Node25&#45;&gt;Node1</title>
<g id="a_edge33_Node000001_Node000025"><a xlink:title=" ">
<path fill="none" stroke="#9a32cd" stroke-dasharray="5,2" d="M1373.63,-9.61C1417.61,1.07 1488.04,9.8 1531,-27.64 1571.53,-62.96 1576.35,-245.51 1576.92,-289.9"/>
<polygon fill="#9a32cd" stroke="#9a32cd" points="1372.67,-6.24 1363.86,-12.12 1374.41,-13.02 1372.67,-6.24"/>
</a>
</g>
<text text-anchor="start" x="1434.5" y="-33.14" font-family="Helvetica,sans-Serif" font-size="10.00" fill="grey">image_dnd_info</text>
</g>
<!-- Node26 -->
<g id="Node000026" class="node">
<title>Node26</title>
<g id="a_Node000026"><a xlink:href="struct__EvImage.html" target="_top" xlink:title=" ">
<polygon fill="white" stroke="#666666" points="1129,-31.14 1064,-31.14 1064,-12.14 1129,-12.14 1129,-31.14"/>
<text text-anchor="middle" x="1096.5" y="-19.14" font-family="Helvetica,sans-Serif" font-size="10.00">_EvImage</text>
</a>
</g>
</g>
<!-- Node26&#45;&gt;Node25 -->
<g id="edge34_Node000025_Node000026" class="edge">
<title>Node26&#45;&gt;Node25</title>
<g id="a_edge34_Node000025_Node000026"><a xlink:title=" ">
<path fill="none" stroke="#9a32cd" stroke-dasharray="5,2" d="M1139.27,-21.64C1181.18,-21.64 1245.47,-21.64 1288.12,-21.64"/>
<polygon fill="#9a32cd" stroke="#9a32cd" points="1139.13,-18.14 1129.13,-21.64 1139.13,-25.14 1139.13,-18.14"/>
</a>
</g>
<text text-anchor="start" x="1197" y="-27.14" font-family="Helvetica,sans-Serif" font-size="10.00" fill="grey">image</text>
</g>
<!-- Node27 -->
<g id="Node000027" class="node">
<title>Node27</title>
<g id="a_Node000027"><a xlink:title=" ">
<polygon fill="white" stroke="#666666" points="879,-31.14 780,-31.14 780,-12.14 879,-12.14 879,-31.14"/>
<text text-anchor="middle" x="829.5" y="-19.14" font-family="Helvetica,sans-Serif" font-size="10.00">_EvImagePrivate</text>
</a>
</g>
</g>
<!-- Node27&#45;&gt;Node26 -->
<g id="edge35_Node000026_Node000027" class="edge">
<title>Node27&#45;&gt;Node26</title>
<g id="a_edge35_Node000026_Node000027"><a xlink:title=" ">
<path fill="none" stroke="#9a32cd" stroke-dasharray="5,2" d="M889.2,-21.64C943.06,-21.64 1020.8,-21.64 1063.83,-21.64"/>
<polygon fill="#9a32cd" stroke="#9a32cd" points="889.11,-18.14 879.11,-21.64 889.11,-25.14 889.11,-18.14"/>
</a>
</g>
<text text-anchor="start" x="949" y="-27.14" font-family="Helvetica,sans-Serif" font-size="10.00" fill="grey">priv</text>
</g>
<!-- Node28 -->
<g id="Node000028" class="node">
<title>Node28</title>
<g id="a_Node000028"><a xlink:href="structEvViewWindowChild.html" target="_top" xlink:title=" ">
<polygon fill="white" stroke="#666666" points="1391,-70.14 1275,-70.14 1275,-51.14 1391,-51.14 1391,-70.14"/>
<text text-anchor="middle" x="1333" y="-58.14" font-family="Helvetica,sans-Serif" font-size="10.00">EvViewWindowChild</text>
</a>
</g>
</g>
<!-- Node28&#45;&gt;Node1 -->
<g id="edge36_Node000001_Node000028" class="edge">
<title>Node28&#45;&gt;Node1</title>
<g id="a_edge36_Node000001_Node000028"><a xlink:title=" ">
<path fill="none" stroke="#9a32cd" stroke-dasharray="5,2" d="M1401.27,-52.2C1450.46,-47.61 1511.79,-45.71 1531,-61.64 1567.03,-91.53 1575.18,-249.25 1576.69,-290.02"/>
<polygon fill="#9a32cd" stroke="#9a32cd" points="1400.91,-48.72 1391.3,-53.18 1401.59,-55.69 1400.91,-48.72"/>
</a>
</g>
<text text-anchor="start" x="1424.5" y="-67.14" font-family="Helvetica,sans-Serif" font-size="10.00" fill="grey">window_child_focus</text>
</g>
<!-- Node29&#45;&gt;Node1 -->
<g id="edge37_Node000001_Node000029" class="edge">
<title>Node29&#45;&gt;Node1</title>
<g id="a_edge37_Node000001_Node000029"><a xlink:title=" ">
<path fill="none" stroke="#9a32cd" stroke-dasharray="5,2" d="M1233.55,-170.2C1243.42,-163.72 1255.75,-156.94 1268,-153.64 1324.79,-138.32 1486.3,-145.41 1531,-183.64 1564.26,-212.08 1573.67,-267.86 1576.16,-290.13"/>
<polygon fill="#9a32cd" stroke="#9a32cd" points="1231.48,-167.37 1225.25,-175.94 1235.46,-173.13 1231.48,-167.37"/>
</a>
</g>
<text text-anchor="start" x="1291" y="-174.64" font-family="Helvetica,sans-Serif" font-size="10.00" fill="grey">focused_element</text>
<text text-anchor="start" x="1291" y="-159.64" font-family="Helvetica,sans-Serif" font-size="10.00" fill="grey">synctex_result</text>
</g>
</g>
</svg>

<g id="navigator" transform="translate(0 0)" fill="#404254">
  <rect fill="#f2f5e9" fill-opacity="0.5" stroke="#606060" stroke-width=".5" x="0" y="0" width="60" height="60"/>
  <use id="zoomplus" xlink:href="#zoomPlus" x="17" y="9" onmousedown="handleZoom(evt,'in')"/>
  <use id="zoomminus" xlink:href="#zoomMin" x="42" y="9" onmousedown="handleZoom(evt,'out')"/>
  <use id="reset" xlink:href="#resetDef" x="30" y="36" onmousedown="handleReset()"/>
   <use id="arrowup" xlink:href="#arrowUp" x="0" y="0" onmousedown="handlePan(0,-1)"/>
  <use id="arrowright" xlink:href="#arrowRight" x="0" y="0" onmousedown="handlePan(1,0)"/>
  <use id="arrowdown" xlink:href="#arrowDown" x="0" y="0" onmousedown="handlePan(0,1)"/>
  <use id="arrowleft" xlink:href="#arrowLeft" x="0" y="0" onmousedown="handlePan(-1,0)"/>
</g>
<svg viewBox="0 0 15 15" width="100%" height="30px" preserveAspectRatio="xMaxYMin meet">
 <g id="arrow_out" transform="scale(0.3 0.3)">
  <a xlink:href="struct__EvView__coll__graph_org.svg" target="_base">
   <rect id="button" ry="5" rx="5" y="6" x="6" height="38" width="38"
        fill="#f2f5e9" fill-opacity="0.5" stroke="#606060" stroke-width="1.0"/>
   <path id="arrow"
     d="M 11.500037,31.436501 C 11.940474,20.09759 22.043105,11.32322 32.158766,21.979434 L 37.068811,17.246167 C 37.068811,17.246167 37.088388,32 37.088388,32 L 22.160133,31.978069 C 22.160133,31.978069 26.997745,27.140456 26.997745,27.140456 C 18.528582,18.264221 13.291696,25.230495 11.500037,31.436501 z"
     style="fill:#404040;"/>
  </a>
 </g>
</svg>

<style type='text/css'>
<![CDATA[
[data-mouse-over-selected='false'] { opacity: 0.7; }
[data-mouse-over-selected='true']  { opacity: 1.0; }
]]>
</style>
<script type="application/ecmascript"><![CDATA[
document.addEventListener('DOMContentLoaded', (event) => {
  highlightEdges();
  highlightAdjacentNodes();
});
]]></script>
</svg>
