<?xml version="1.0" encoding="UTF-8" standalone="no"?>
<!DOCTYPE svg PUBLIC "-//W3C//DTD SVG 1.1//EN"
 "http://www.w3.org/Graphics/SVG/1.1/DTD/svg11.dtd">
<!-- Generated by graphviz version 2.43.0 (0)
 -->
<!-- Title: AppearanceData Pages: 1 -->
<svg width="324pt" height="182pt"
 viewBox="0.00 0.00 324.00 182.00" xmlns="http://www.w3.org/2000/svg" xmlns:xlink="http://www.w3.org/1999/xlink">
<g id="graph0" class="graph" transform="scale(1 1) rotate(0) translate(4 178)">
<title>AppearanceData</title>
<!-- Node1 -->
<g id="Node000001" class="node">
<title>Node1</title>
<g id="a_Node000001"><a xlink:title=" ">
<polygon fill="#999999" stroke="#666666" points="252,-19 154,-19 154,0 252,0 252,-19"/>
<text text-anchor="middle" x="203" y="-7" font-family="Helvetica,sans-Serif" font-size="10.00">AppearanceData</text>
</a>
</g>
</g>
<!-- Node2 -->
<g id="Node000002" class="node">
<title>Node2</title>
<g id="a_Node000002"><a xlink:href="struct__MateDesktopThumbnailFactory.html" target="_top" xlink:title=" ">
<polygon fill="white" stroke="#666666" points="174,-91 0,-91 0,-72 174,-72 174,-91"/>
<text text-anchor="middle" x="87" y="-79" font-family="Helvetica,sans-Serif" font-size="10.00">_MateDesktopThumbnailFactory</text>
</a>
</g>
</g>
<!-- Node2&#45;&gt;Node1 -->
<g id="edge1_Node000001_Node000002" class="edge">
<title>Node2&#45;&gt;Node1</title>
<g id="a_edge1_Node000001_Node000002"><a xlink:title=" ">
<path fill="none" stroke="#9a32cd" stroke-dasharray="5,2" d="M103.32,-65C113.35,-56.03 126.78,-44.97 140,-37 151.89,-29.83 166.07,-23.68 177.96,-19.11"/>
<polygon fill="#9a32cd" stroke="#9a32cd" points="100.77,-62.59 95.77,-71.94 105.5,-67.75 100.77,-62.59"/>
</a>
</g>
<text text-anchor="start" x="143" y="-42.5" font-family="Helvetica,sans-Serif" font-size="10.00" fill="grey">thumb_factory</text>
</g>
<!-- Node3 -->
<g id="Node000003" class="node">
<title>Node3</title>
<g id="a_Node000003"><a xlink:title=" ">
<polygon fill="white" stroke="#666666" points="174,-174 0,-174 0,-144 174,-144 174,-174"/>
<text text-anchor="start" x="8" y="-162" font-family="Helvetica,sans-Serif" font-size="10.00">_MateDesktopThumbnailFactory</text>
<text text-anchor="middle" x="87" y="-151" font-family="Helvetica,sans-Serif" font-size="10.00">Private</text>
</a>
</g>
</g>
<!-- Node3&#45;&gt;Node2 -->
<g id="edge2_Node000002_Node000003" class="edge">
<title>Node3&#45;&gt;Node2</title>
<g id="a_edge2_Node000002_Node000003"><a xlink:title=" ">
<path fill="none" stroke="#9a32cd" stroke-dasharray="5,2" d="M87,-133.4C87,-118.81 87,-101.22 87,-91.01"/>
<polygon fill="#9a32cd" stroke="#9a32cd" points="83.5,-133.8 87,-143.8 90.5,-133.8 83.5,-133.8"/>
</a>
</g>
<text text-anchor="start" x="90.5" y="-114.5" font-family="Helvetica,sans-Serif" font-size="10.00" fill="grey">priv</text>
</g>
<!-- Node4 -->
<g id="Node000004" class="node">
<title>Node4</title>
<g id="a_Node000004"><a xlink:href="struct__MateThemeMetaInfo.html" target="_top" xlink:title=" ">
<polygon fill="white" stroke="#666666" points="316,-91 192,-91 192,-72 316,-72 316,-91"/>
<text text-anchor="middle" x="254" y="-79" font-family="Helvetica,sans-Serif" font-size="10.00">_MateThemeMetaInfo</text>
</a>
</g>
</g>
<!-- Node4&#45;&gt;Node1 -->
<g id="edge3_Node000001_Node000004" class="edge">
<title>Node4&#45;&gt;Node1</title>
<g id="a_edge3_Node000001_Node000004"><a xlink:title=" ">
<path fill="none" stroke="#9a32cd" stroke-dasharray="5,2" d="M241.7,-63.62C231.48,-49.59 217.36,-30.21 209.3,-19.15"/>
<polygon fill="#9a32cd" stroke="#9a32cd" points="239.03,-65.9 247.75,-71.92 244.69,-61.77 239.03,-65.9"/>
</a>
</g>
<text text-anchor="start" x="237.5" y="-42.5" font-family="Helvetica,sans-Serif" font-size="10.00" fill="grey">theme_custom</text>
</g>
</g>
</svg>
