<?xml version="1.0" encoding="UTF-8" standalone="no"?>
<!DOCTYPE svg PUBLIC "-//W3C//DTD SVG 1.1//EN"
 "http://www.w3.org/Graphics/SVG/1.1/DTD/svg11.dtd">
<!-- Generated by graphviz version 2.43.0 (0)
 -->
<!-- Title: GpmIdle Pages: 1 -->
<svg width="364pt" height="243pt"
 viewBox="0.00 0.00 364.00 243.00" xmlns="http://www.w3.org/2000/svg" xmlns:xlink="http://www.w3.org/1999/xlink">
<g id="graph0" class="graph" transform="scale(1 1) rotate(0) translate(4 239)">
<title>GpmIdle</title>
<!-- Node1 -->
<g id="Node000001" class="node">
<title>Node1</title>
<g id="a_Node000001"><a xlink:title=" ">
<polygon fill="#999999" stroke="#666666" points="206,-19 148,-19 148,0 206,0 206,-19"/>
<text text-anchor="middle" x="177" y="-7" font-family="Helvetica,sans-Serif" font-size="10.00">GpmIdle</text>
</a>
</g>
</g>
<!-- Node2 -->
<g id="Node000002" class="node">
<title>Node2</title>
<g id="a_Node000002"><a xlink:title=" ">
<polygon fill="white" stroke="#666666" points="223,-91 131,-91 131,-72 223,-72 223,-91"/>
<text text-anchor="middle" x="177" y="-79" font-family="Helvetica,sans-Serif" font-size="10.00">GpmIdlePrivate</text>
</a>
</g>
</g>
<!-- Node2&#45;&gt;Node1 -->
<g id="edge1_Node000001_Node000002" class="edge">
<title>Node2&#45;&gt;Node1</title>
<g id="a_edge1_Node000001_Node000002"><a xlink:title=" ">
<path fill="none" stroke="#9a32cd" stroke-dasharray="5,2" d="M177,-61.58C177,-47.76 177,-29.68 177,-19.15"/>
<polygon fill="#9a32cd" stroke="#9a32cd" points="173.5,-61.92 177,-71.92 180.5,-61.92 173.5,-61.92"/>
</a>
</g>
<text text-anchor="start" x="180.5" y="-42.5" font-family="Helvetica,sans-Serif" font-size="10.00" fill="grey">priv</text>
</g>
<!-- Node3 -->
<g id="Node000003" class="node">
<title>Node3</title>
<g id="a_Node000003"><a xlink:href="structEggIdletime.html" target="_top" xlink:title=" ">
<polygon fill="white" stroke="#666666" points="110.5,-163 35.5,-163 35.5,-144 110.5,-144 110.5,-163"/>
<text text-anchor="middle" x="73" y="-151" font-family="Helvetica,sans-Serif" font-size="10.00">EggIdletime</text>
</a>
</g>
</g>
<!-- Node3&#45;&gt;Node2 -->
<g id="edge2_Node000002_Node000003" class="edge">
<title>Node3&#45;&gt;Node2</title>
<g id="a_edge2_Node000002_Node000003"><a xlink:title=" ">
<path fill="none" stroke="#9a32cd" stroke-dasharray="5,2" d="M89.93,-137.07C100.01,-128.29 113.27,-117.4 126,-109 136.16,-102.3 148.22,-95.96 158.06,-91.17"/>
<polygon fill="#9a32cd" stroke="#9a32cd" points="87.45,-134.59 82.3,-143.85 92.1,-139.82 87.45,-134.59"/>
</a>
</g>
<text text-anchor="start" x="129.5" y="-114.5" font-family="Helvetica,sans-Serif" font-size="10.00" fill="grey">idletime</text>
</g>
<!-- Node4 -->
<g id="Node000004" class="node">
<title>Node4</title>
<g id="a_Node000004"><a xlink:title=" ">
<polygon fill="white" stroke="#666666" points="110,-235 0,-235 0,-216 110,-216 110,-235"/>
<text text-anchor="middle" x="55" y="-223" font-family="Helvetica,sans-Serif" font-size="10.00">EggIdletimePrivate</text>
</a>
</g>
</g>
<!-- Node4&#45;&gt;Node3 -->
<g id="edge3_Node000003_Node000004" class="edge">
<title>Node4&#45;&gt;Node3</title>
<g id="a_edge3_Node000003_Node000004"><a xlink:title=" ">
<path fill="none" stroke="#9a32cd" stroke-dasharray="5,2" d="M59.76,-205.99C63.32,-192.13 68.04,-173.79 70.77,-163.15"/>
<polygon fill="#9a32cd" stroke="#9a32cd" points="56.31,-205.36 57.21,-215.92 63.09,-207.1 56.31,-205.36"/>
</a>
</g>
<text text-anchor="start" x="70.5" y="-186.5" font-family="Helvetica,sans-Serif" font-size="10.00" fill="grey">priv</text>
</g>
<!-- Node5 -->
<g id="Node000005" class="node">
<title>Node5</title>
<g id="a_Node000005"><a xlink:href="structGpmLoad.html" target="_top" xlink:title=" ">
<polygon fill="white" stroke="#666666" points="208.5,-163 145.5,-163 145.5,-144 208.5,-144 208.5,-163"/>
<text text-anchor="middle" x="177" y="-151" font-family="Helvetica,sans-Serif" font-size="10.00">GpmLoad</text>
</a>
</g>
</g>
<!-- Node5&#45;&gt;Node2 -->
<g id="edge4_Node000002_Node000005" class="edge">
<title>Node5&#45;&gt;Node2</title>
<g id="a_edge4_Node000002_Node000005"><a xlink:title=" ">
<path fill="none" stroke="#9a32cd" stroke-dasharray="5,2" d="M177,-133.58C177,-119.76 177,-101.68 177,-91.15"/>
<polygon fill="#9a32cd" stroke="#9a32cd" points="173.5,-133.92 177,-143.92 180.5,-133.92 173.5,-133.92"/>
</a>
</g>
<text text-anchor="start" x="180" y="-114.5" font-family="Helvetica,sans-Serif" font-size="10.00" fill="grey">load</text>
</g>
<!-- Node6 -->
<g id="Node000006" class="node">
<title>Node6</title>
<g id="a_Node000006"><a xlink:title=" ">
<polygon fill="white" stroke="#666666" points="226,-235 128,-235 128,-216 226,-216 226,-235"/>
<text text-anchor="middle" x="177" y="-223" font-family="Helvetica,sans-Serif" font-size="10.00">GpmLoadPrivate</text>
</a>
</g>
</g>
<!-- Node6&#45;&gt;Node5 -->
<g id="edge5_Node000005_Node000006" class="edge">
<title>Node6&#45;&gt;Node5</title>
<g id="a_edge5_Node000005_Node000006"><a xlink:title=" ">
<path fill="none" stroke="#9a32cd" stroke-dasharray="5,2" d="M177,-205.58C177,-191.76 177,-173.68 177,-163.15"/>
<polygon fill="#9a32cd" stroke="#9a32cd" points="173.5,-205.92 177,-215.92 180.5,-205.92 173.5,-205.92"/>
</a>
</g>
<text text-anchor="start" x="180.5" y="-186.5" font-family="Helvetica,sans-Serif" font-size="10.00" fill="grey">priv</text>
</g>
<!-- Node7 -->
<g id="Node000007" class="node">
<title>Node7</title>
<g id="a_Node000007"><a xlink:href="structGpmSession.html" target="_top" xlink:title=" ">
<polygon fill="white" stroke="#666666" points="321.5,-163 244.5,-163 244.5,-144 321.5,-144 321.5,-163"/>
<text text-anchor="middle" x="283" y="-151" font-family="Helvetica,sans-Serif" font-size="10.00">GpmSession</text>
</a>
</g>
</g>
<!-- Node7&#45;&gt;Node2 -->
<g id="edge6_Node000002_Node000007" class="edge">
<title>Node7&#45;&gt;Node2</title>
<g id="a_edge6_Node000002_Node000007"><a xlink:title=" ">
<path fill="none" stroke="#9a32cd" stroke-dasharray="5,2" d="M261.57,-138.34C240.16,-124.21 207.96,-102.95 190.1,-91.15"/>
<polygon fill="#9a32cd" stroke="#9a32cd" points="259.73,-141.33 270,-143.92 263.59,-135.49 259.73,-141.33"/>
</a>
</g>
<text text-anchor="start" x="245.5" y="-114.5" font-family="Helvetica,sans-Serif" font-size="10.00" fill="grey">session</text>
</g>
<!-- Node8 -->
<g id="Node000008" class="node">
<title>Node8</title>
<g id="a_Node000008"><a xlink:title=" ">
<polygon fill="white" stroke="#666666" points="356,-235 244,-235 244,-216 356,-216 356,-235"/>
<text text-anchor="middle" x="300" y="-223" font-family="Helvetica,sans-Serif" font-size="10.00">GpmSessionPrivate</text>
</a>
</g>
</g>
<!-- Node8&#45;&gt;Node7 -->
<g id="edge7_Node000007_Node000008" class="edge">
<title>Node8&#45;&gt;Node7</title>
<g id="a_edge7_Node000007_Node000008"><a xlink:title=" ">
<path fill="none" stroke="#9a32cd" stroke-dasharray="5,2" d="M295.5,-205.99C292.14,-192.13 287.68,-173.79 285.1,-163.15"/>
<polygon fill="#9a32cd" stroke="#9a32cd" points="292.15,-207.03 297.92,-215.92 298.96,-205.37 292.15,-207.03"/>
</a>
</g>
<text text-anchor="start" x="296.5" y="-186.5" font-family="Helvetica,sans-Serif" font-size="10.00" fill="grey">priv</text>
</g>
</g>
</svg>
