<?xml version="1.0" encoding="UTF-8" standalone="no"?>
<!DOCTYPE svg PUBLIC "-//W3C//DTD SVG 1.1//EN"
 "http://www.w3.org/Graphics/SVG/1.1/DTD/svg11.dtd">
<!-- Generated by graphviz version 2.43.0 (0)
 -->
<!-- Title: _PulseSinkSwitch Pages: 1 -->
<svg width="719pt" height="459pt"
 viewBox="0.00 0.00 719.45 459.00" xmlns="http://www.w3.org/2000/svg" xmlns:xlink="http://www.w3.org/1999/xlink">
<g id="graph0" class="graph" transform="scale(1 1) rotate(0) translate(4 455)">
<title>_PulseSinkSwitch</title>
<!-- Node1 -->
<g id="Node000001" class="node">
<title>Node1</title>
<g id="a_Node000001"><a xlink:title=" ">
<polygon fill="#999999" stroke="#666666" points="540.45,-19 439.45,-19 439.45,0 540.45,0 540.45,-19"/>
<text text-anchor="middle" x="489.95" y="-7" font-family="Helvetica,sans-Serif" font-size="10.00">_PulseSinkSwitch</text>
</a>
</g>
</g>
<!-- Node2 -->
<g id="Node000002" class="node">
<title>Node2</title>
<g id="a_Node000002"><a xlink:href="struct__PulsePortSwitch.html" target="_top" xlink:title=" ">
<polygon fill="white" stroke="#666666" points="539.95,-91 439.95,-91 439.95,-72 539.95,-72 539.95,-91"/>
<text text-anchor="middle" x="489.95" y="-79" font-family="Helvetica,sans-Serif" font-size="10.00">_PulsePortSwitch</text>
</a>
</g>
</g>
<!-- Node2&#45;&gt;Node1 -->
<g id="edge1_Node000001_Node000002" class="edge">
<title>Node2&#45;&gt;Node1</title>
<g id="a_edge1_Node000001_Node000002"><a xlink:title=" ">
<path fill="none" stroke="#9a32cd" stroke-dasharray="5,2" d="M489.95,-61.58C489.95,-47.76 489.95,-29.68 489.95,-19.15"/>
<polygon fill="#9a32cd" stroke="#9a32cd" points="486.45,-61.92 489.95,-71.92 493.45,-61.92 486.45,-61.92"/>
</a>
</g>
<text text-anchor="start" x="492.95" y="-42.5" font-family="Helvetica,sans-Serif" font-size="10.00" fill="grey">parent</text>
</g>
<!-- Node3 -->
<g id="Node000003" class="node">
<title>Node3</title>
<g id="a_Node000003"><a xlink:href="struct__MateMixerStreamSwitch.html" target="_top" xlink:title=" ">
<polygon fill="white" stroke="#666666" points="665.45,-163 524.45,-163 524.45,-144 665.45,-144 665.45,-163"/>
<text text-anchor="middle" x="594.95" y="-151" font-family="Helvetica,sans-Serif" font-size="10.00">_MateMixerStreamSwitch</text>
</a>
</g>
</g>
<!-- Node3&#45;&gt;Node2 -->
<g id="edge2_Node000002_Node000003" class="edge">
<title>Node3&#45;&gt;Node2</title>
<g id="a_edge2_Node000002_Node000003"><a xlink:title=" ">
<path fill="none" stroke="#9a32cd" stroke-dasharray="5,2" d="M573.71,-138.34C552.51,-124.21 520.62,-102.95 502.93,-91.15"/>
<polygon fill="#9a32cd" stroke="#9a32cd" points="571.81,-141.28 582.07,-143.92 575.69,-135.46 571.81,-141.28"/>
</a>
</g>
<text text-anchor="start" x="556.95" y="-114.5" font-family="Helvetica,sans-Serif" font-size="10.00" fill="grey">parent</text>
</g>
<!-- Node4 -->
<g id="Node000004" class="node">
<title>Node4</title>
<g id="a_Node000004"><a xlink:href="struct__MateMixerSwitch.html" target="_top" xlink:title=" ">
<polygon fill="white" stroke="#666666" points="677.95,-235 571.95,-235 571.95,-216 677.95,-216 677.95,-235"/>
<text text-anchor="middle" x="624.95" y="-223" font-family="Helvetica,sans-Serif" font-size="10.00">_MateMixerSwitch</text>
</a>
</g>
</g>
<!-- Node4&#45;&gt;Node3 -->
<g id="edge3_Node000003_Node000004" class="edge">
<title>Node4&#45;&gt;Node3</title>
<g id="a_edge3_Node000003_Node000004"><a xlink:title=" ">
<path fill="none" stroke="#9a32cd" stroke-dasharray="5,2" d="M617.19,-206.4C611.23,-192.49 603.26,-173.89 598.65,-163.15"/>
<polygon fill="#9a32cd" stroke="#9a32cd" points="614.11,-208.1 621.27,-215.92 620.55,-205.35 614.11,-208.1"/>
</a>
</g>
<text text-anchor="start" x="616.45" y="-186.5" font-family="Helvetica,sans-Serif" font-size="10.00" fill="grey">object</text>
</g>
<!-- Node5 -->
<g id="Node000005" class="node">
<title>Node5</title>
<g id="a_Node000005"><a xlink:title=" ">
<polygon fill="white" stroke="#666666" points="694.95,-307 554.95,-307 554.95,-288 694.95,-288 694.95,-307"/>
<text text-anchor="middle" x="624.95" y="-295" font-family="Helvetica,sans-Serif" font-size="10.00">_MateMixerSwitchPrivate</text>
</a>
</g>
</g>
<!-- Node5&#45;&gt;Node4 -->
<g id="edge4_Node000004_Node000005" class="edge">
<title>Node5&#45;&gt;Node4</title>
<g id="a_edge4_Node000004_Node000005"><a xlink:title=" ">
<path fill="none" stroke="#9a32cd" stroke-dasharray="5,2" d="M624.95,-277.58C624.95,-263.76 624.95,-245.68 624.95,-235.15"/>
<polygon fill="#9a32cd" stroke="#9a32cd" points="621.45,-277.92 624.95,-287.92 628.45,-277.92 621.45,-277.92"/>
</a>
</g>
<text text-anchor="start" x="628.45" y="-258.5" font-family="Helvetica,sans-Serif" font-size="10.00" fill="grey">priv</text>
</g>
<!-- Node6 -->
<g id="Node000006" class="node">
<title>Node6</title>
<g id="a_Node000006"><a xlink:href="struct__MateMixerSwitchOption.html" target="_top" xlink:title=" ">
<polygon fill="white" stroke="#666666" points="693.95,-379 555.95,-379 555.95,-360 693.95,-360 693.95,-379"/>
<text text-anchor="middle" x="624.95" y="-367" font-family="Helvetica,sans-Serif" font-size="10.00">_MateMixerSwitchOption</text>
</a>
</g>
</g>
<!-- Node6&#45;&gt;Node5 -->
<g id="edge5_Node000005_Node000006" class="edge">
<title>Node6&#45;&gt;Node5</title>
<g id="a_edge5_Node000005_Node000006"><a xlink:title=" ">
<path fill="none" stroke="#9a32cd" stroke-dasharray="5,2" d="M624.95,-349.58C624.95,-335.76 624.95,-317.68 624.95,-307.15"/>
<polygon fill="#9a32cd" stroke="#9a32cd" points="621.45,-349.92 624.95,-359.92 628.45,-349.92 621.45,-349.92"/>
</a>
</g>
<text text-anchor="start" x="628.45" y="-330.5" font-family="Helvetica,sans-Serif" font-size="10.00" fill="grey">active</text>
</g>
<!-- Node7 -->
<g id="Node000007" class="node">
<title>Node7</title>
<g id="a_Node000007"><a xlink:title=" ">
<polygon fill="white" stroke="#666666" points="711.45,-451 538.45,-451 538.45,-432 711.45,-432 711.45,-451"/>
<text text-anchor="middle" x="624.95" y="-439" font-family="Helvetica,sans-Serif" font-size="10.00">_MateMixerSwitchOptionPrivate</text>
</a>
</g>
</g>
<!-- Node7&#45;&gt;Node6 -->
<g id="edge6_Node000006_Node000007" class="edge">
<title>Node7&#45;&gt;Node6</title>
<g id="a_edge6_Node000006_Node000007"><a xlink:title=" ">
<path fill="none" stroke="#9a32cd" stroke-dasharray="5,2" d="M624.95,-421.58C624.95,-407.76 624.95,-389.68 624.95,-379.15"/>
<polygon fill="#9a32cd" stroke="#9a32cd" points="621.45,-421.92 624.95,-431.92 628.45,-421.92 621.45,-421.92"/>
</a>
</g>
<text text-anchor="start" x="628.45" y="-402.5" font-family="Helvetica,sans-Serif" font-size="10.00" fill="grey">priv</text>
</g>
<!-- Node8 -->
<g id="Node000008" class="node">
<title>Node8</title>
<g id="a_Node000008"><a xlink:title=" ">
<polygon fill="white" stroke="#666666" points="553.95,-235 377.95,-235 377.95,-216 553.95,-216 553.95,-235"/>
<text text-anchor="middle" x="465.95" y="-223" font-family="Helvetica,sans-Serif" font-size="10.00">_MateMixerStreamSwitchPrivate</text>
</a>
</g>
</g>
<!-- Node8&#45;&gt;Node3 -->
<g id="edge7_Node000003_Node000008" class="edge">
<title>Node8&#45;&gt;Node3</title>
<g id="a_edge7_Node000003_Node000008"><a xlink:title=" ">
<path fill="none" stroke="#9a32cd" stroke-dasharray="5,2" d="M490.65,-211.1C516.67,-196.98 556.88,-175.16 579,-163.15"/>
<polygon fill="#9a32cd" stroke="#9a32cd" points="488.88,-208.07 481.76,-215.92 492.22,-214.22 488.88,-208.07"/>
</a>
</g>
<text text-anchor="start" x="548.45" y="-186.5" font-family="Helvetica,sans-Serif" font-size="10.00" fill="grey">priv</text>
</g>
<!-- Node9 -->
<g id="Node000009" class="node">
<title>Node9</title>
<g id="a_Node000009"><a xlink:href="struct__MateMixerStream.html" target="_top" xlink:title=" ">
<polygon fill="white" stroke="#666666" points="324.45,-307 215.45,-307 215.45,-288 324.45,-288 324.45,-307"/>
<text text-anchor="middle" x="269.95" y="-295" font-family="Helvetica,sans-Serif" font-size="10.00">_MateMixerStream</text>
</a>
</g>
</g>
<!-- Node9&#45;&gt;Node8 -->
<g id="edge8_Node000008_Node000009" class="edge">
<title>Node9&#45;&gt;Node8</title>
<g id="a_edge8_Node000008_Node000009"><a xlink:title=" ">
<path fill="none" stroke="#9a32cd" stroke-dasharray="5,2" d="M303.43,-284.54C342.84,-270.47 407.31,-247.44 442.02,-235.04"/>
<polygon fill="#9a32cd" stroke="#9a32cd" points="302.22,-281.26 293.98,-287.92 304.57,-287.85 302.22,-281.26"/>
</a>
</g>
<text text-anchor="start" x="395.45" y="-258.5" font-family="Helvetica,sans-Serif" font-size="10.00" fill="grey">stream</text>
</g>
<!-- Node14 -->
<g id="Node000014" class="node">
<title>Node14</title>
<g id="a_Node000014"><a xlink:title=" ">
<polygon fill="white" stroke="#666666" points="359.45,-235 180.45,-235 180.45,-216 359.45,-216 359.45,-235"/>
<text text-anchor="middle" x="269.95" y="-223" font-family="Helvetica,sans-Serif" font-size="10.00">_MateMixerStreamControlPrivate</text>
</a>
</g>
</g>
<!-- Node9&#45;&gt;Node14 -->
<g id="edge14_Node000014_Node000009" class="edge">
<title>Node9&#45;&gt;Node14</title>
<g id="a_edge14_Node000014_Node000009"><a xlink:title=" ">
<path fill="none" stroke="#9a32cd" stroke-dasharray="5,2" d="M269.95,-277.58C269.95,-263.76 269.95,-245.68 269.95,-235.15"/>
<polygon fill="#9a32cd" stroke="#9a32cd" points="266.45,-277.92 269.95,-287.92 273.45,-277.92 266.45,-277.92"/>
</a>
</g>
<text text-anchor="start" x="273.45" y="-258.5" font-family="Helvetica,sans-Serif" font-size="10.00" fill="grey">stream</text>
</g>
<!-- Node10 -->
<g id="Node000010" class="node">
<title>Node10</title>
<g id="a_Node000010"><a xlink:title=" ">
<polygon fill="white" stroke="#666666" points="162.45,-91 19.45,-91 19.45,-72 162.45,-72 162.45,-91"/>
<text text-anchor="middle" x="90.95" y="-79" font-family="Helvetica,sans-Serif" font-size="10.00">_MateMixerStreamPrivate</text>
</a>
</g>
</g>
<!-- Node10&#45;&gt;Node9 -->
<g id="edge9_Node000009_Node000010" class="edge">
<title>Node10&#45;&gt;Node9</title>
<g id="a_edge9_Node000009_Node000010"><a xlink:title=" ">
<path fill="none" stroke="#9a32cd" stroke-dasharray="5,2" d="M72.12,-97.58C38.59,-126.26 -24.77,-189.81 10.95,-235 35.91,-266.59 146.89,-283.67 215.22,-291.36"/>
<polygon fill="#9a32cd" stroke="#9a32cd" points="74.49,-100.17 79.93,-91.08 70.01,-94.79 74.49,-100.17"/>
</a>
</g>
<text text-anchor="start" x="8.45" y="-186.5" font-family="Helvetica,sans-Serif" font-size="10.00" fill="grey">priv</text>
</g>
<!-- Node11 -->
<g id="Node000011" class="node">
<title>Node11</title>
<g id="a_Node000011"><a xlink:href="struct__MateMixerDevice.html" target="_top" xlink:title=" ">
<polygon fill="white" stroke="#666666" points="144.45,-163 37.45,-163 37.45,-144 144.45,-144 144.45,-163"/>
<text text-anchor="middle" x="90.95" y="-151" font-family="Helvetica,sans-Serif" font-size="10.00">_MateMixerDevice</text>
</a>
</g>
</g>
<!-- Node11&#45;&gt;Node10 -->
<g id="edge10_Node000010_Node000011" class="edge">
<title>Node11&#45;&gt;Node10</title>
<g id="a_edge10_Node000010_Node000011"><a xlink:title=" ">
<path fill="none" stroke="#9a32cd" stroke-dasharray="5,2" d="M90.95,-133.58C90.95,-119.76 90.95,-101.68 90.95,-91.15"/>
<polygon fill="#9a32cd" stroke="#9a32cd" points="87.45,-133.92 90.95,-143.92 94.45,-133.92 87.45,-133.92"/>
</a>
</g>
<text text-anchor="start" x="94.45" y="-114.5" font-family="Helvetica,sans-Serif" font-size="10.00" fill="grey">device</text>
</g>
<!-- Node12 -->
<g id="Node000012" class="node">
<title>Node12</title>
<g id="a_Node000012"><a xlink:title=" ">
<polygon fill="white" stroke="#666666" points="161.95,-235 19.95,-235 19.95,-216 161.95,-216 161.95,-235"/>
<text text-anchor="middle" x="90.95" y="-223" font-family="Helvetica,sans-Serif" font-size="10.00">_MateMixerDevicePrivate</text>
</a>
</g>
</g>
<!-- Node12&#45;&gt;Node11 -->
<g id="edge11_Node000011_Node000012" class="edge">
<title>Node12&#45;&gt;Node11</title>
<g id="a_edge11_Node000011_Node000012"><a xlink:title=" ">
<path fill="none" stroke="#9a32cd" stroke-dasharray="5,2" d="M90.95,-205.58C90.95,-191.76 90.95,-173.68 90.95,-163.15"/>
<polygon fill="#9a32cd" stroke="#9a32cd" points="87.45,-205.92 90.95,-215.92 94.45,-205.92 87.45,-205.92"/>
</a>
</g>
<text text-anchor="start" x="94.45" y="-186.5" font-family="Helvetica,sans-Serif" font-size="10.00" fill="grey">priv</text>
</g>
<!-- Node13 -->
<g id="Node000013" class="node">
<title>Node13</title>
<g id="a_Node000013"><a xlink:href="struct__MateMixerStreamControl.html" target="_top" xlink:title=" ">
<polygon fill="white" stroke="#666666" points="323.95,-163 179.95,-163 179.95,-144 323.95,-144 323.95,-163"/>
<text text-anchor="middle" x="251.95" y="-151" font-family="Helvetica,sans-Serif" font-size="10.00">_MateMixerStreamControl</text>
</a>
</g>
</g>
<!-- Node13&#45;&gt;Node10 -->
<g id="edge12_Node000010_Node000013" class="edge">
<title>Node13&#45;&gt;Node10</title>
<g id="a_edge12_Node000010_Node000013"><a xlink:title=" ">
<path fill="none" stroke="#9a32cd" stroke-dasharray="5,2" d="M222.81,-139.83C190.41,-125.74 138.94,-103.37 110.85,-91.15"/>
<polygon fill="#9a32cd" stroke="#9a32cd" points="221.64,-143.14 232.2,-143.92 224.43,-136.72 221.64,-143.14"/>
</a>
</g>
<text text-anchor="start" x="193.95" y="-114.5" font-family="Helvetica,sans-Serif" font-size="10.00" fill="grey">control</text>
</g>
<!-- Node14&#45;&gt;Node13 -->
<g id="edge13_Node000013_Node000014" class="edge">
<title>Node14&#45;&gt;Node13</title>
<g id="a_edge13_Node000013_Node000014"><a xlink:title=" ">
<path fill="none" stroke="#9a32cd" stroke-dasharray="5,2" d="M265.19,-205.99C261.62,-192.13 256.91,-173.79 254.17,-163.15"/>
<polygon fill="#9a32cd" stroke="#9a32cd" points="261.86,-207.1 267.74,-215.92 268.64,-205.36 261.86,-207.1"/>
</a>
</g>
<text text-anchor="start" x="267.45" y="-186.5" font-family="Helvetica,sans-Serif" font-size="10.00" fill="grey">priv</text>
</g>
<!-- Node15 -->
<g id="Node000015" class="node">
<title>Node15</title>
<g id="a_Node000015"><a xlink:title=" ">
<polygon fill="white" stroke="#666666" points="505.95,-163 371.95,-163 371.95,-144 505.95,-144 505.95,-163"/>
<text text-anchor="middle" x="438.95" y="-151" font-family="Helvetica,sans-Serif" font-size="10.00">_PulsePortSwitchPrivate</text>
</a>
</g>
</g>
<!-- Node15&#45;&gt;Node2 -->
<g id="edge15_Node000002_Node000015" class="edge">
<title>Node15&#45;&gt;Node2</title>
<g id="a_edge15_Node000002_Node000015"><a xlink:title=" ">
<path fill="none" stroke="#9a32cd" stroke-dasharray="5,2" d="M451.25,-135.62C461.47,-121.59 475.59,-102.21 483.64,-91.15"/>
<polygon fill="#9a32cd" stroke="#9a32cd" points="448.26,-133.77 445.2,-143.92 453.92,-137.9 448.26,-133.77"/>
</a>
</g>
<text text-anchor="start" x="473.45" y="-114.5" font-family="Helvetica,sans-Serif" font-size="10.00" fill="grey">priv</text>
</g>
</g>
</svg>
