<?xml version="1.0" encoding="UTF-8" standalone="no"?>
<!DOCTYPE svg PUBLIC "-//W3C//DTD SVG 1.1//EN"
 "http://www.w3.org/Graphics/SVG/1.1/DTD/svg11.dtd">
<!-- Generated by graphviz version 2.43.0 (0)
 -->
<!-- Title: _DviFontSearch Pages: 1 -->
<svg width="206pt" height="184pt"
 viewBox="0.00 0.00 206.00 184.00" xmlns="http://www.w3.org/2000/svg" xmlns:xlink="http://www.w3.org/1999/xlink">

<svg id="main" version="1.1" xmlns="http://www.w3.org/2000/svg" xmlns:xlink="http://www.w3.org/1999/xlink" xml:space="preserve">

<style type="text/css"><![CDATA[
.node, .edge {opacity: 0.7;}
.node.selected, .edge.selected {opacity: 1;}
.edge:hover path { stroke: red; }
.edge:hover polygon { stroke: red; fill: red; }
]]></style>
<script type="application/ecmascript" xlink:href="svg.min.js"/>
<svg id="graph" class="graph">
<g id="graph0" class="graph" transform="scale(1 1) rotate(0) translate(4 180)">
<title>_DviFontSearch</title>
<!-- Node1 -->
<g id="Node000001" class="node">
<title>Node1</title>
<g id="a_Node000001"><a xlink:title=" ">
<polygon fill="#999999" stroke="#666666" points="98,-19 6,-19 6,0 98,0 98,-19"/>
<text text-anchor="middle" x="52" y="-7" font-family="Helvetica,sans-Serif" font-size="10.00">_DviFontSearch</text>
</a>
</g>
</g>
<!-- Node2 -->
<g id="Node000002" class="node">
<title>Node2</title>
<g id="a_Node000002"><a xlink:title=" ">
<polygon fill="white" stroke="#666666" points="152,-97.5 66,-97.5 66,-78.5 152,-78.5 152,-97.5"/>
<text text-anchor="middle" x="109" y="-85.5" font-family="Helvetica,sans-Serif" font-size="10.00">_DviFontClass</text>
</a>
</g>
</g>
<!-- Node2&#45;&gt;Node1 -->
<g id="edge1_Node000001_Node000002" class="edge">
<title>Node2&#45;&gt;Node1</title>
<g id="a_edge1_Node000001_Node000002"><a xlink:title=" ">
<path fill="none" stroke="#9a32cd" stroke-dasharray="5,2" d="M96.25,-69.89C84.53,-54.15 67.61,-31.45 58.46,-19.17"/>
<polygon fill="#9a32cd" stroke="#9a32cd" points="93.68,-72.3 102.46,-78.22 99.29,-68.11 93.68,-72.3"/>
</a>
</g>
<text text-anchor="start" x="86.5" y="-42.5" font-family="Helvetica,sans-Serif" font-size="10.00" fill="grey">curr</text>
</g>
<!-- Node2&#45;&gt;Node2 -->
<g id="edge2_Node000002_Node000002" class="edge">
<title>Node2&#45;&gt;Node2</title>
<g id="a_edge2_Node000002_Node000002"><a xlink:title=" ">
<path fill="none" stroke="#9a32cd" stroke-dasharray="5,2" d="M162.25,-94.22C167.01,-92.92 170,-90.85 170,-88 170,-83.45 162.35,-80.87 152.04,-80.26"/>
<polygon fill="#9a32cd" stroke="#9a32cd" points="161.42,-90.81 152.04,-95.74 162.44,-97.73 161.42,-90.81"/>
</a>
</g>
<text text-anchor="start" x="173" y="-93" font-family="Helvetica,sans-Serif" font-size="10.00" fill="grey">next</text>
<text text-anchor="start" x="173" y="-78" font-family="Helvetica,sans-Serif" font-size="10.00" fill="grey">prev</text>
</g>
<!-- Node3 -->
<g id="Node000003" class="node">
<title>Node3</title>
<g id="a_Node000003"><a xlink:href="struct__DviFontInfo.html" target="_top" xlink:title=" ">
<polygon fill="white" stroke="#666666" points="78,-176 0,-176 0,-157 78,-157 78,-176"/>
<text text-anchor="middle" x="39" y="-164" font-family="Helvetica,sans-Serif" font-size="10.00">_DviFontInfo</text>
</a>
</g>
</g>
<!-- Node3&#45;&gt;Node1 -->
<g id="edge4_Node000001_Node000003" class="edge">
<title>Node3&#45;&gt;Node1</title>
<g id="a_edge4_Node000001_Node000003"><a xlink:title=" ">
<path fill="none" stroke="#9a32cd" stroke-dasharray="5,2" d="M35.1,-146.97C31.7,-128.04 27.91,-97.82 32,-72 35.09,-52.48 43.39,-30.73 48.27,-19.05"/>
<polygon fill="#9a32cd" stroke="#9a32cd" points="31.7,-147.79 37.04,-156.94 38.57,-146.45 31.7,-147.79"/>
</a>
</g>
<text text-anchor="start" x="35.5" y="-85" font-family="Helvetica,sans-Serif" font-size="10.00" fill="grey">info</text>
</g>
<!-- Node3&#45;&gt;Node2 -->
<g id="edge3_Node000002_Node000003" class="edge">
<title>Node3&#45;&gt;Node2</title>
<g id="a_edge3_Node000002_Node000003"><a xlink:title=" ">
<path fill="none" stroke="#9a32cd" stroke-dasharray="5,2" d="M53.85,-149.27C68.27,-133.51 89.62,-110.18 101.06,-97.67"/>
<polygon fill="#9a32cd" stroke="#9a32cd" points="51.2,-146.98 47.03,-156.72 56.36,-151.71 51.2,-146.98"/>
</a>
</g>
<text text-anchor="start" x="81.5" y="-127.5" font-family="Helvetica,sans-Serif" font-size="10.00" fill="grey">info</text>
</g>
</g>
</svg>
</svg>

<style type='text/css'>
<![CDATA[
[data-mouse-over-selected='false'] { opacity: 0.7; }
[data-mouse-over-selected='true']  { opacity: 1.0; }
]]>
</style>
<script type="application/ecmascript"><![CDATA[
document.addEventListener('DOMContentLoaded', (event) => {
  highlightEdges();
  highlightAdjacentNodes();
});
]]></script>
</svg>
