<?xml version="1.0" encoding="UTF-8" standalone="no"?>
<!DOCTYPE svg PUBLIC "-//W3C//DTD SVG 1.1//EN"
 "http://www.w3.org/Graphics/SVG/1.1/DTD/svg11.dtd">
<!-- Generated by graphviz version 2.43.0 (0)
 -->
<!-- Title: _SnItem Pages: 1 -->
<svg width="228pt" height="99pt"
 viewBox="0.00 0.00 228.00 99.00" xmlns="http://www.w3.org/2000/svg" xmlns:xlink="http://www.w3.org/1999/xlink">
<g id="graph0" class="graph" transform="scale(1 1) rotate(0) translate(4 95)">
<title>_SnItem</title>
<!-- Node1 -->
<g id="Node000001" class="node">
<title>Node1</title>
<g id="a_Node000001"><a xlink:title=" ">
<polygon fill="#999999" stroke="#666666" points="142.5,-19 86.5,-19 86.5,0 142.5,0 142.5,-19"/>
<text text-anchor="middle" x="114.5" y="-7" font-family="Helvetica,sans-Serif" font-size="10.00">_SnItem</text>
</a>
</g>
</g>
<!-- Node2 -->
<g id="Node000002" class="node">
<title>Node2</title>
<g id="a_Node000002"><a xlink:href="struct__SnFlatButtonClass.html" target="_top" xlink:title=" ">
<polygon fill="white" stroke="#666666" points="111,-91 0,-91 0,-72 111,-72 111,-91"/>
<text text-anchor="middle" x="55.5" y="-79" font-family="Helvetica,sans-Serif" font-size="10.00">_SnFlatButtonClass</text>
</a>
</g>
</g>
<!-- Node2&#45;&gt;Node1 -->
<g id="edge1_Node000001_Node000002" class="edge">
<title>Node2&#45;&gt;Node1</title>
<g id="a_edge1_Node000001_Node000002"><a xlink:title=" ">
<path fill="none" stroke="#9a32cd" stroke-dasharray="5,2" d="M57.35,-62C58.95,-53.67 61.93,-44.13 67.5,-37 73.61,-29.18 82.72,-23.29 91.3,-19.07"/>
<polygon fill="#9a32cd" stroke="#9a32cd" points="53.87,-61.56 55.94,-71.95 60.8,-62.54 53.87,-61.56"/>
</a>
</g>
<text text-anchor="start" x="71" y="-42.5" font-family="Helvetica,sans-Serif" font-size="10.00" fill="grey">parent_instance</text>
</g>
<!-- Node3 -->
<g id="Node000003" class="node">
<title>Node3</title>
<g id="a_Node000003"><a xlink:title=" ">
<polygon fill="white" stroke="#666666" points="220,-91 129,-91 129,-72 220,-72 220,-91"/>
<text text-anchor="middle" x="174.5" y="-79" font-family="Helvetica,sans-Serif" font-size="10.00">_SnItemPrivate</text>
</a>
</g>
</g>
<!-- Node3&#45;&gt;Node1 -->
<g id="edge2_Node000001_Node000003" class="edge">
<title>Node3&#45;&gt;Node1</title>
<g id="a_edge2_Node000001_Node000003"><a xlink:title=" ">
<path fill="none" stroke="#9a32cd" stroke-dasharray="5,2" d="M167.67,-62.2C164,-53.92 158.9,-44.37 152.5,-37 146.28,-29.83 137.72,-23.64 130.3,-19.05"/>
<polygon fill="#9a32cd" stroke="#9a32cd" points="164.54,-63.8 171.54,-71.74 171.02,-61.16 164.54,-63.8"/>
</a>
</g>
<text text-anchor="start" x="167" y="-42.5" font-family="Helvetica,sans-Serif" font-size="10.00" fill="grey">priv</text>
</g>
</g>
</svg>
