<?xml version="1.0" encoding="UTF-8" standalone="no"?>
<!DOCTYPE svg PUBLIC "-//W3C//DTD SVG 1.1//EN"
 "http://www.w3.org/Graphics/SVG/1.1/DTD/svg11.dtd">
<!-- Generated by graphviz version 2.43.0 (0)
 -->
<!-- Title: NAObjectId Pages: 1 -->
<svg width="220pt" height="171pt"
 viewBox="0.00 0.00 219.50 171.00" xmlns="http://www.w3.org/2000/svg" xmlns:xlink="http://www.w3.org/1999/xlink">
<g id="graph0" class="graph" transform="scale(1 1) rotate(0) translate(4 167)">
<title>NAObjectId</title>
<!-- Node1 -->
<g id="Node000001" class="node">
<title>Node1</title>
<g id="a_Node000001"><a xlink:title=" ">
<polygon fill="#999999" stroke="#666666" points="138.5,-19 67.5,-19 67.5,0 138.5,0 138.5,-19"/>
<text text-anchor="middle" x="103" y="-7" font-family="Helvetica,sans-Serif" font-size="10.00">NAObjectId</text>
</a>
</g>
</g>
<!-- Node2 -->
<g id="Node000002" class="node">
<title>Node2</title>
<g id="a_Node000002"><a xlink:href="structNAObject.html" target="_top" xlink:title=" ">
<polygon fill="white" stroke="#666666" points="82,-91 20,-91 20,-72 82,-72 82,-91"/>
<text text-anchor="middle" x="51" y="-79" font-family="Helvetica,sans-Serif" font-size="10.00">NAObject</text>
</a>
</g>
</g>
<!-- Node2&#45;&gt;Node1 -->
<g id="edge1_Node000001_Node000002" class="edge">
<title>Node2&#45;&gt;Node1</title>
<g id="a_edge1_Node000001_Node000002"><a xlink:title=" ">
<path fill="none" stroke="#9a32cd" stroke-dasharray="5,2" d="M63.54,-63.62C73.96,-49.59 88.36,-30.21 96.57,-19.15"/>
<polygon fill="#9a32cd" stroke="#9a32cd" points="60.53,-61.8 57.38,-71.92 66.15,-65.98 60.53,-61.8"/>
</a>
</g>
<text text-anchor="start" x="87" y="-42.5" font-family="Helvetica,sans-Serif" font-size="10.00" fill="grey">parent</text>
</g>
<!-- Node3 -->
<g id="Node000003" class="node">
<title>Node3</title>
<g id="a_Node000003"><a xlink:title=" ">
<polygon fill="white" stroke="#666666" points="102,-163 0,-163 0,-144 102,-144 102,-163"/>
<text text-anchor="middle" x="51" y="-151" font-family="Helvetica,sans-Serif" font-size="10.00">_NAObjectPrivate</text>
</a>
</g>
</g>
<!-- Node3&#45;&gt;Node2 -->
<g id="edge2_Node000002_Node000003" class="edge">
<title>Node3&#45;&gt;Node2</title>
<g id="a_edge2_Node000002_Node000003"><a xlink:title=" ">
<path fill="none" stroke="#9a32cd" stroke-dasharray="5,2" d="M51,-133.58C51,-119.76 51,-101.68 51,-91.15"/>
<polygon fill="#9a32cd" stroke="#9a32cd" points="47.5,-133.92 51,-143.92 54.5,-133.92 47.5,-133.92"/>
</a>
</g>
<text text-anchor="start" x="54.5" y="-114.5" font-family="Helvetica,sans-Serif" font-size="10.00" fill="grey">private</text>
</g>
<!-- Node4 -->
<g id="Node000004" class="node">
<title>Node4</title>
<g id="a_Node000004"><a xlink:title=" ">
<polygon fill="white" stroke="#666666" points="211.5,-91 100.5,-91 100.5,-72 211.5,-72 211.5,-91"/>
<text text-anchor="middle" x="156" y="-79" font-family="Helvetica,sans-Serif" font-size="10.00">_NAObjectIdPrivate</text>
</a>
</g>
</g>
<!-- Node4&#45;&gt;Node1 -->
<g id="edge3_Node000001_Node000004" class="edge">
<title>Node4&#45;&gt;Node1</title>
<g id="a_edge3_Node000001_Node000004"><a xlink:title=" ">
<path fill="none" stroke="#9a32cd" stroke-dasharray="5,2" d="M144.98,-63.6C139.49,-55.42 132.61,-45.54 126,-37 121.22,-30.84 115.47,-24.21 110.92,-19.13"/>
<polygon fill="#9a32cd" stroke="#9a32cd" points="142.08,-65.56 150.52,-71.96 147.92,-61.69 142.08,-65.56"/>
</a>
</g>
<text text-anchor="start" x="141.5" y="-42.5" font-family="Helvetica,sans-Serif" font-size="10.00" fill="grey">private</text>
</g>
</g>
</svg>
