<?xml version="1.0" encoding="UTF-8" standalone="no"?>
<!DOCTYPE svg PUBLIC "-//W3C//DTD SVG 1.1//EN"
 "http://www.w3.org/Graphics/SVG/1.1/DTD/svg11.dtd">
<!-- Generated by graphviz version 2.43.0 (0)
 -->
<!-- Title: CajaVFSDirectory Pages: 1 -->
<!--zoomable 723 -->

<svg id="main" version="1.1" xmlns="http://www.w3.org/2000/svg" xmlns:xlink="http://www.w3.org/1999/xlink" xml:space="preserve" onload="init(evt)">

<style type="text/css"><![CDATA[
.node, .edge {opacity: 0.7;}
.node.selected, .edge.selected {opacity: 1;}
.edge:hover path { stroke: red; }
.edge:hover polygon { stroke: red; fill: red; }
]]></style>

<defs>
  <circle id="rim" cx="0" cy="0" r="7"/>
  <circle id="rim2" cx="0" cy="0" r="3.5"/>
  <g id="zoomPlus">
    <use xlink:href="#rim" fill="#404040"><set attributeName="fill" to="#808080" begin="zoomplus.mouseover" end="zoomplus.mouseout"/></use>
    <path d="M-4,0h8M0,-4v8" fill="none" stroke="white" stroke-width="1.5" pointer-events="none"/>
  </g>
  <g id="zoomMin">
    <use xlink:href="#rim" fill="#404040"><set attributeName="fill" to="#808080" begin="zoomminus.mouseover" end="zoomminus.mouseout"/></use>
    <path d="M-4,0h8" fill="none" stroke="white" stroke-width="1.5" pointer-events="none"/>
  </g>
  <g id="arrowUp" transform="translate(30 24)">
    <use xlink:href="#rim"/>
    <path pointer-events="none" fill="none" stroke="white" stroke-width="1.5" d="M0,-3.0v7 M-2.5,-0.5L0,-3.0L2.5,-0.5"/>
  </g>
  <g id="arrowRight" transform="rotate(90) translate(36 -43)">
    <use xlink:href="#rim"/>
    <path pointer-events="none" fill="none" stroke="white" stroke-width="1.5" d="M0,-3.0v7 M-2.5,-0.5L0,-3.0L2.5,-0.5"/>
  </g>
  <g id="arrowDown" transform="rotate(180) translate(-30 -48)">
    <use xlink:href="#rim"/>
    <path pointer-events="none" fill="none" stroke="white" stroke-width="1.5" d="M0,-3.0v7 M-2.5,-0.5L0,-3.0L2.5,-0.5"/>
  </g>
  <g id="arrowLeft" transform="rotate(270) translate(-36 17)">
    <use xlink:href="#rim"/>
    <path pointer-events="none" fill="none" stroke="white" stroke-width="1.5" d="M0,-3.0v7 M-2.5,-0.5L0,-3.0L2.5,-0.5"/>
  </g>
  <g id="resetDef">
    <use xlink:href="#rim2" fill="#404040"><set attributeName="fill" to="#808080" begin="reset.mouseover" end="reset.mouseout"/></use>
  </g>
</defs>
<script type="application/ecmascript">
var viewWidth = 1216;
var viewHeight = 723;
var sectionId = 'dynsection-0';
</script>
<script type="application/ecmascript" xlink:href="svg.min.js"/>
<svg id="graph" class="graph">
<g id="viewport">
<title>CajaVFSDirectory</title>
<!-- Node1 -->
<g id="Node000001" class="node">
<title>Node1</title>
<g id="a_Node000001"><a xlink:title=" ">
<polygon fill="#999999" stroke="#666666" points="441,-669.21 340,-669.21 340,-650.21 441,-650.21 441,-669.21"/>
<text text-anchor="middle" x="390.5" y="-657.21" font-family="Helvetica,sans-Serif" font-size="10.00">CajaVFSDirectory</text>
</a>
</g>
</g>
<!-- Node2 -->
<g id="Node000002" class="node">
<title>Node2</title>
<g id="a_Node000002"><a xlink:href="structCajaDirectory.html" target="_top" xlink:title=" ">
<polygon fill="white" stroke="#666666" points="120.5,-436.21 37.5,-436.21 37.5,-417.21 120.5,-417.21 120.5,-436.21"/>
<text text-anchor="middle" x="79" y="-424.21" font-family="Helvetica,sans-Serif" font-size="10.00">CajaDirectory</text>
</a>
</g>
</g>
<!-- Node2&#45;&gt;Node1 -->
<g id="edge1_Node000001_Node000002" class="edge">
<title>Node2&#45;&gt;Node1</title>
<g id="a_edge1_Node000001_Node000002"><a xlink:title=" ">
<path fill="none" stroke="#9a32cd" stroke-dasharray="5,2" d="M82.47,-446.35C88.99,-489.19 110.9,-590.92 176,-637.71 201.34,-655.93 284.92,-659.72 339.68,-660.17"/>
<polygon fill="#9a32cd" stroke="#9a32cd" points="85.92,-445.78 81.07,-436.36 78.99,-446.75 85.92,-445.78"/>
</a>
</g>
<text text-anchor="start" x="222" y="-665.21" font-family="Helvetica,sans-Serif" font-size="10.00" fill="grey">parent_slot</text>
</g>
<!-- Node5 -->
<g id="Node000005" class="node">
<title>Node5</title>
<g id="a_Node000005"><a xlink:href="struct__CajaFilePrivate.html" target="_top" xlink:title=" ">
<polygon fill="white" stroke="#666666" points="438,-306.21 343,-306.21 343,-287.21 438,-287.21 438,-306.21"/>
<text text-anchor="middle" x="390.5" y="-294.21" font-family="Helvetica,sans-Serif" font-size="10.00">_CajaFilePrivate</text>
</a>
</g>
</g>
<!-- Node2&#45;&gt;Node5 -->
<g id="edge5_Node000005_Node000002" class="edge">
<title>Node2&#45;&gt;Node5</title>
<g id="a_edge5_Node000005_Node000002"><a xlink:title=" ">
<path fill="none" stroke="#9a32cd" stroke-dasharray="5,2" d="M92.23,-408.87C108.54,-386.61 139.63,-349.22 176,-330.71 234.54,-300.91 257.14,-318.1 322,-307.71 328.68,-306.64 335.74,-305.5 342.66,-304.38"/>
<polygon fill="#9a32cd" stroke="#9a32cd" points="89.3,-406.94 86.35,-417.12 95.01,-411.01 89.3,-406.94"/>
</a>
</g>
<text text-anchor="start" x="227" y="-336.21" font-family="Helvetica,sans-Serif" font-size="10.00" fill="grey">directory</text>
</g>
<!-- Node9 -->
<g id="Node000009" class="node">
<title>Node9</title>
<g id="a_Node000009"><a xlink:title=" ">
<polygon fill="white" stroke="#666666" points="905,-534.21 795,-534.21 795,-515.21 905,-515.21 905,-534.21"/>
<text text-anchor="middle" x="850" y="-522.21" font-family="Helvetica,sans-Serif" font-size="10.00">DirectoryLoadState</text>
</a>
</g>
</g>
<!-- Node2&#45;&gt;Node9 -->
<g id="edge10_Node000009_Node000002" class="edge">
<title>Node2&#45;&gt;Node9</title>
<g id="a_edge10_Node000009_Node000002"><a xlink:title=" ">
<path fill="none" stroke="#9a32cd" stroke-dasharray="5,2" d="M111.91,-439.98C130.38,-447.24 154.2,-455.91 176,-461.71 381.27,-516.31 435.36,-524.65 647,-542.71 701.91,-547.4 716.24,-548.95 771,-542.71 785.64,-541.04 801.53,-537.67 815.12,-534.29"/>
<polygon fill="#9a32cd" stroke="#9a32cd" points="113.1,-436.69 102.52,-436.23 110.51,-443.19 113.1,-436.69"/>
</a>
</g>
<text text-anchor="start" x="485" y="-539.21" font-family="Helvetica,sans-Serif" font-size="10.00" fill="grey">directory</text>
</g>
<!-- Node10 -->
<g id="Node000010" class="node">
<title>Node10</title>
<g id="a_Node000010"><a xlink:title=" ">
<polygon fill="white" stroke="#666666" points="908,-470.21 792,-470.21 792,-451.21 908,-451.21 908,-470.21"/>
<text text-anchor="middle" x="850" y="-458.21" font-family="Helvetica,sans-Serif" font-size="10.00">DirectoryCountState</text>
</a>
</g>
</g>
<!-- Node2&#45;&gt;Node10 -->
<g id="edge13_Node000010_Node000002" class="edge">
<title>Node2&#45;&gt;Node10</title>
<g id="a_edge13_Node000010_Node000002"><a xlink:title=" ">
<path fill="none" stroke="#9a32cd" stroke-dasharray="5,2" d="M130.44,-434.83C145.11,-436.98 161.17,-439.14 176,-440.71 384.62,-462.75 437.33,-464.82 647,-471.71 702.08,-473.52 716.02,-475.57 771,-471.71 777.68,-471.24 784.67,-470.55 791.59,-469.74"/>
<polygon fill="#9a32cd" stroke="#9a32cd" points="130.96,-431.37 120.55,-433.35 129.92,-438.29 130.96,-431.37"/>
</a>
</g>
<text text-anchor="start" x="485" y="-473.21" font-family="Helvetica,sans-Serif" font-size="10.00" fill="grey">directory</text>
</g>
<!-- Node11 -->
<g id="Node000011" class="node">
<title>Node11</title>
<g id="a_Node000011"><a xlink:title=" ">
<polygon fill="white" stroke="#666666" points="555,-629.21 459,-629.21 459,-610.21 555,-610.21 555,-629.21"/>
<text text-anchor="middle" x="507" y="-617.21" font-family="Helvetica,sans-Serif" font-size="10.00">DeepCountState</text>
</a>
</g>
</g>
<!-- Node2&#45;&gt;Node11 -->
<g id="edge16_Node000011_Node000002" class="edge">
<title>Node2&#45;&gt;Node11</title>
<g id="a_edge16_Node000011_Node000002"><a xlink:title=" ">
<path fill="none" stroke="#9a32cd" stroke-dasharray="5,2" d="M85.14,-446.29C95.59,-481.76 122.95,-556.11 176,-589.71 199.33,-604.49 373.29,-613.97 458.81,-617.79"/>
<polygon fill="#9a32cd" stroke="#9a32cd" points="88.5,-445.3 82.43,-436.61 81.76,-447.19 88.5,-445.3"/>
</a>
</g>
<text text-anchor="start" x="227" y="-615.21" font-family="Helvetica,sans-Serif" font-size="10.00" fill="grey">directory</text>
</g>
<!-- Node12 -->
<g id="Node000012" class="node">
<title>Node12</title>
<g id="a_Node000012"><a xlink:title=" ">
<polygon fill="white" stroke="#666666" points="893.5,-433.21 806.5,-433.21 806.5,-414.21 893.5,-414.21 893.5,-433.21"/>
<text text-anchor="middle" x="850" y="-421.21" font-family="Helvetica,sans-Serif" font-size="10.00">MimeListState</text>
</a>
</g>
</g>
<!-- Node2&#45;&gt;Node12 -->
<g id="edge18_Node000012_Node000002" class="edge">
<title>Node2&#45;&gt;Node12</title>
<g id="a_edge18_Node000012_Node000002"><a xlink:title=" ">
<path fill="none" stroke="#9a32cd" stroke-dasharray="5,2" d="M130.72,-426.51C273.06,-425.96 674.42,-424.39 806.37,-423.88"/>
<polygon fill="#9a32cd" stroke="#9a32cd" points="130.52,-423.01 120.53,-426.55 130.55,-430.01 130.52,-423.01"/>
</a>
</g>
<text text-anchor="start" x="485" y="-431.21" font-family="Helvetica,sans-Serif" font-size="10.00" fill="grey">directory</text>
</g>
<!-- Node13 -->
<g id="Node000013" class="node">
<title>Node13</title>
<g id="a_Node000013"><a xlink:title=" ">
<polygon fill="white" stroke="#666666" points="748,-591.21 670,-591.21 670,-572.21 748,-572.21 748,-591.21"/>
<text text-anchor="middle" x="709" y="-579.21" font-family="Helvetica,sans-Serif" font-size="10.00">GetInfoState</text>
</a>
</g>
</g>
<!-- Node2&#45;&gt;Node13 -->
<g id="edge21_Node000013_Node000002" class="edge">
<title>Node2&#45;&gt;Node13</title>
<g id="a_edge21_Node000013_Node000002"><a xlink:title=" ">
<path fill="none" stroke="#9a32cd" stroke-dasharray="5,2" d="M89.25,-445.77C103.6,-472.96 133.99,-521.98 176,-543.71 262.04,-588.23 562.86,-585.36 669.86,-582.83"/>
<polygon fill="#9a32cd" stroke="#9a32cd" points="92.2,-443.85 84.55,-436.53 85.96,-447.03 92.2,-443.85"/>
</a>
</g>
<text text-anchor="start" x="368.5" y="-587.21" font-family="Helvetica,sans-Serif" font-size="10.00" fill="grey">directory</text>
</g>
<!-- Node14 -->
<g id="Node000014" class="node">
<title>Node14</title>
<g id="a_Node000014"><a xlink:title=" ">
<polygon fill="white" stroke="#666666" points="897,-396.21 803,-396.21 803,-377.21 897,-377.21 897,-396.21"/>
<text text-anchor="middle" x="850" y="-384.21" font-family="Helvetica,sans-Serif" font-size="10.00">ThumbnailState</text>
</a>
</g>
</g>
<!-- Node2&#45;&gt;Node14 -->
<g id="edge23_Node000014_Node000002" class="edge">
<title>Node2&#45;&gt;Node14</title>
<g id="a_edge23_Node000014_Node000002"><a xlink:title=" ">
<path fill="none" stroke="#9a32cd" stroke-dasharray="5,2" d="M130.87,-420.59C229.99,-409.01 456.04,-384.28 647,-375.71 702.06,-373.24 716.02,-371.85 771,-375.71 781.37,-376.44 792.45,-377.7 802.92,-379.12"/>
<polygon fill="#9a32cd" stroke="#9a32cd" points="130.35,-417.13 120.83,-421.77 131.17,-424.08 130.35,-417.13"/>
</a>
</g>
<text text-anchor="start" x="485" y="-394.21" font-family="Helvetica,sans-Serif" font-size="10.00" fill="grey">directory</text>
</g>
<!-- Node15 -->
<g id="Node000015" class="node">
<title>Node15</title>
<g id="a_Node000015"><a xlink:title=" ">
<polygon fill="white" stroke="#666666" points="886.5,-260.21 813.5,-260.21 813.5,-241.21 886.5,-241.21 886.5,-260.21"/>
<text text-anchor="middle" x="850" y="-248.21" font-family="Helvetica,sans-Serif" font-size="10.00">MountState</text>
</a>
</g>
</g>
<!-- Node2&#45;&gt;Node15 -->
<g id="edge26_Node000015_Node000002" class="edge">
<title>Node2&#45;&gt;Node15</title>
<g id="a_edge26_Node000015_Node000002"><a xlink:title=" ">
<path fill="none" stroke="#9a32cd" stroke-dasharray="5,2" d="M91.84,-408.31C116.08,-370.74 169.67,-288.42 176,-284.71 357.29,-178.62 437.13,-254.38 647,-245.71 702.06,-243.43 715.92,-243.95 771,-245.71 784.83,-246.15 800.03,-247.04 813.3,-247.94"/>
<polygon fill="#9a32cd" stroke="#9a32cd" points="88.82,-406.52 86.35,-416.82 94.71,-410.31 88.82,-406.52"/>
</a>
</g>
<text text-anchor="start" x="485" y="-250.21" font-family="Helvetica,sans-Serif" font-size="10.00" fill="grey">directory</text>
</g>
<!-- Node16 -->
<g id="Node000016" class="node">
<title>Node16</title>
<g id="a_Node000016"><a xlink:title=" ">
<polygon fill="white" stroke="#666666" points="907,-209.21 793,-209.21 793,-190.21 907,-190.21 907,-209.21"/>
<text text-anchor="middle" x="850" y="-197.21" font-family="Helvetica,sans-Serif" font-size="10.00">FilesystemInfoState</text>
</a>
</g>
</g>
<!-- Node2&#45;&gt;Node16 -->
<g id="edge29_Node000016_Node000002" class="edge">
<title>Node2&#45;&gt;Node16</title>
<g id="a_edge29_Node000016_Node000002"><a xlink:title=" ">
<path fill="none" stroke="#9a32cd" stroke-dasharray="5,2" d="M94.57,-409.04C112.2,-386.77 141.55,-346.69 158,-307.71 172.34,-273.74 148.11,-250.84 176,-226.71 267.2,-147.82 648.29,-178.52 792.96,-193.44"/>
<polygon fill="#9a32cd" stroke="#9a32cd" points="91.77,-406.94 88.23,-416.92 97.23,-411.32 91.77,-406.94"/>
</a>
</g>
<text text-anchor="start" x="485" y="-182.21" font-family="Helvetica,sans-Serif" font-size="10.00" fill="grey">directory</text>
</g>
<!-- Node17 -->
<g id="Node000017" class="node">
<title>Node17</title>
<g id="a_Node000017"><a xlink:title=" ">
<polygon fill="white" stroke="#666666" points="911,-145.21 789,-145.21 789,-126.21 911,-126.21 911,-145.21"/>
<text text-anchor="middle" x="850" y="-133.21" font-family="Helvetica,sans-Serif" font-size="10.00">TopLeftTextReadState</text>
</a>
</g>
</g>
<!-- Node2&#45;&gt;Node17 -->
<g id="edge32_Node000017_Node000002" class="edge">
<title>Node2&#45;&gt;Node17</title>
<g id="a_edge32_Node000017_Node000002"><a xlink:title=" ">
<path fill="none" stroke="#9a32cd" stroke-dasharray="5,2" d="M95.09,-409.25C113.24,-387.19 143.12,-347.31 158,-307.71 168.18,-280.62 155.18,-198.82 176,-178.71 262.17,-95.5 640.57,-117.84 788.98,-130.16"/>
<polygon fill="#9a32cd" stroke="#9a32cd" points="92.29,-407.14 88.54,-417.05 97.65,-411.64 92.29,-407.14"/>
</a>
</g>
<text text-anchor="start" x="485" y="-124.21" font-family="Helvetica,sans-Serif" font-size="10.00" fill="grey">directory</text>
</g>
<!-- Node18 -->
<g id="Node000018" class="node">
<title>Node18</title>
<g id="a_Node000018"><a xlink:title=" ">
<polygon fill="white" stroke="#666666" points="903,-108.21 797,-108.21 797,-89.21 903,-89.21 903,-108.21"/>
<text text-anchor="middle" x="850" y="-96.21" font-family="Helvetica,sans-Serif" font-size="10.00">LinkInfoReadState</text>
</a>
</g>
</g>
<!-- Node2&#45;&gt;Node18 -->
<g id="edge35_Node000018_Node000002" class="edge">
<title>Node2&#45;&gt;Node18</title>
<g id="a_edge35_Node000018_Node000002"><a xlink:title=" ">
<path fill="none" stroke="#9a32cd" stroke-dasharray="5,2" d="M95.35,-409.34C113.77,-387.38 143.92,-347.6 158,-307.71 171.53,-269.39 147.26,-154.45 176,-125.71 324.72,23.02 436.91,-89.75 647,-79.71 702.05,-77.08 716.28,-73.14 771,-79.71 786.5,-81.57 803.37,-85.44 817.44,-89.2"/>
<polygon fill="#9a32cd" stroke="#9a32cd" points="92.55,-407.23 88.7,-417.1 97.87,-411.79 92.55,-407.23"/>
</a>
</g>
<text text-anchor="start" x="485" y="-82.21" font-family="Helvetica,sans-Serif" font-size="10.00" fill="grey">directory</text>
</g>
<!-- Node3 -->
<g id="Node000003" class="node">
<title>Node3</title>
<g id="a_Node000003"><a xlink:href="struct__CajaDirectoryPrivate.html" target="_top" xlink:title=" ">
<polygon fill="white" stroke="#666666" points="1208,-348.21 1085,-348.21 1085,-329.21 1208,-329.21 1208,-348.21"/>
<text text-anchor="middle" x="1146.5" y="-336.21" font-family="Helvetica,sans-Serif" font-size="10.00">_CajaDirectoryPrivate</text>
</a>
</g>
</g>
<!-- Node3&#45;&gt;Node2 -->
<g id="edge2_Node000002_Node000003" class="edge">
<title>Node3&#45;&gt;Node2</title>
<g id="a_edge2_Node000002_Node000003"><a xlink:title=" ">
<path fill="none" stroke="#9a32cd" stroke-dasharray="5,2" d="M1145.85,-358.73C1145.63,-409.47 1138.02,-544.47 1067,-620.71 997.53,-695.29 952.92,-697.71 851,-697.71 389.5,-697.71 389.5,-697.71 389.5,-697.71 294.31,-697.71 252.1,-737.9 176,-680.71 92.9,-618.26 81.73,-474.95 80.23,-436.41"/>
<polygon fill="#9a32cd" stroke="#9a32cd" points="1149.35,-358.45 1145.79,-348.47 1142.35,-358.49 1149.35,-358.45"/>
</a>
</g>
<text text-anchor="start" x="584" y="-703.21" font-family="Helvetica,sans-Serif" font-size="10.00" fill="grey">details</text>
</g>
<!-- Node4 -->
<g id="Node000004" class="node">
<title>Node4</title>
<g id="a_Node000004"><a xlink:href="structCajaFile.html" target="_top" xlink:title=" ">
<polygon fill="white" stroke="#666666" points="629,-306.21 573,-306.21 573,-287.21 629,-287.21 629,-306.21"/>
<text text-anchor="middle" x="601" y="-294.21" font-family="Helvetica,sans-Serif" font-size="10.00">CajaFile</text>
</a>
</g>
</g>
<!-- Node4&#45;&gt;Node3 -->
<g id="edge3_Node000003_Node000004" class="edge">
<title>Node4&#45;&gt;Node3</title>
<g id="a_edge3_Node000003_Node000004"><a xlink:title=" ">
<path fill="none" stroke="#9a32cd" stroke-dasharray="5,2" d="M639.53,-296.47C697.75,-296.39 813.33,-297.44 911,-305.71 972.65,-310.93 1042.86,-321.42 1090.26,-329.18"/>
<polygon fill="#9a32cd" stroke="#9a32cd" points="639.33,-292.97 629.34,-296.49 639.35,-299.97 639.33,-292.97"/>
</a>
</g>
<text text-anchor="start" x="804" y="-356.71" font-family="Helvetica,sans-Serif" font-size="10.00" fill="grey">as_file</text>
<text text-anchor="start" x="804" y="-341.71" font-family="Helvetica,sans-Serif" font-size="10.00" fill="grey">deep_count_file</text>
<text text-anchor="start" x="804" y="-326.71" font-family="Helvetica,sans-Serif" font-size="10.00" fill="grey">extension_info_file</text>
<text text-anchor="start" x="804" y="-311.71" font-family="Helvetica,sans-Serif" font-size="10.00" fill="grey">get_info_file</text>
</g>
<!-- Node4&#45;&gt;Node9 -->
<g id="edge11_Node000009_Node000004" class="edge">
<title>Node4&#45;&gt;Node9</title>
<g id="a_edge11_Node000009_Node000004"><a xlink:title=" ">
<path fill="none" stroke="#9a32cd" stroke-dasharray="5,2" d="M601.06,-316.45C600.48,-352.49 604.67,-429.17 647,-471.71 685.75,-510.65 749.38,-522.06 794.87,-524.89"/>
<polygon fill="#9a32cd" stroke="#9a32cd" points="604.56,-316.37 601.37,-306.26 597.57,-316.15 604.56,-316.37"/>
</a>
</g>
<text text-anchor="start" x="664" y="-527.21" font-family="Helvetica,sans-Serif" font-size="10.00" fill="grey">load_directory_file</text>
</g>
<!-- Node4&#45;&gt;Node10 -->
<g id="edge14_Node000010_Node000004" class="edge">
<title>Node4&#45;&gt;Node10</title>
<g id="a_edge14_Node000010_Node000004"><a xlink:title=" ">
<path fill="none" stroke="#9a32cd" stroke-dasharray="5,2" d="M603.67,-316.3C607.04,-343.11 617.11,-390.85 647,-416.71 668.37,-435.2 739.91,-447.6 791.79,-454.4"/>
<polygon fill="#9a32cd" stroke="#9a32cd" points="607.13,-315.79 602.6,-306.21 600.17,-316.52 607.13,-315.79"/>
</a>
</g>
<text text-anchor="start" x="685" y="-456.21" font-family="Helvetica,sans-Serif" font-size="10.00" fill="grey">count_file</text>
</g>
<!-- Node4&#45;&gt;Node12 -->
<g id="edge19_Node000012_Node000004" class="edge">
<title>Node4&#45;&gt;Node12</title>
<g id="a_edge19_Node000012_Node000004"><a xlink:title=" ">
<path fill="none" stroke="#9a32cd" stroke-dasharray="5,2" d="M613.12,-314.93C621.21,-326.85 633.15,-341.97 647,-351.71 694.83,-385.36 717.19,-372.81 771,-395.71 779.23,-399.21 780.71,-401.35 789,-404.71 797.51,-408.16 806.89,-411.39 815.66,-414.18"/>
<polygon fill="#9a32cd" stroke="#9a32cd" points="615.86,-312.72 607.49,-306.22 609.98,-316.52 615.86,-312.72"/>
</a>
</g>
<text text-anchor="start" x="674" y="-401.21" font-family="Helvetica,sans-Serif" font-size="10.00" fill="grey">mime_list_file</text>
</g>
<!-- Node4&#45;&gt;Node14 -->
<g id="edge24_Node000014_Node000004" class="edge">
<title>Node4&#45;&gt;Node14</title>
<g id="a_edge24_Node000014_Node000004"><a xlink:title=" ">
<path fill="none" stroke="#9a32cd" stroke-dasharray="5,2" d="M638.91,-305.91C641.65,-306.54 644.36,-307.14 647,-307.71 701.8,-319.48 725.41,-298.1 771,-330.71 784.27,-340.2 776.73,-351.96 789,-362.71 796.09,-368.92 804.99,-373.64 813.74,-377.18"/>
<polygon fill="#9a32cd" stroke="#9a32cd" points="639.61,-302.48 629.07,-303.59 638,-309.29 639.61,-302.48"/>
</a>
</g>
<text text-anchor="start" x="701" y="-336.21" font-family="Helvetica,sans-Serif" font-size="10.00" fill="grey">file</text>
</g>
<!-- Node4&#45;&gt;Node15 -->
<g id="edge27_Node000015_Node000004" class="edge">
<title>Node4&#45;&gt;Node15</title>
<g id="a_edge27_Node000015_Node000004"><a xlink:title=" ">
<path fill="none" stroke="#9a32cd" stroke-dasharray="5,2" d="M620.71,-280.52C628.36,-274.82 637.61,-269.02 647,-265.71 702.56,-246.14 771.89,-245.76 813.19,-247.83"/>
<polygon fill="#9a32cd" stroke="#9a32cd" points="618.2,-278.04 612.55,-287.01 622.55,-283.52 618.2,-278.04"/>
</a>
</g>
<text text-anchor="start" x="701" y="-271.21" font-family="Helvetica,sans-Serif" font-size="10.00" fill="grey">file</text>
</g>
<!-- Node4&#45;&gt;Node16 -->
<g id="edge30_Node000016_Node000004" class="edge">
<title>Node4&#45;&gt;Node16</title>
<g id="a_edge30_Node000016_Node000004"><a xlink:title=" ">
<path fill="none" stroke="#9a32cd" stroke-dasharray="5,2" d="M608.99,-277.46C615.98,-261.13 628.4,-238.53 647,-226.71 690.45,-199.1 749.76,-194.15 792.87,-195.02"/>
<polygon fill="#9a32cd" stroke="#9a32cd" points="605.6,-276.52 605.17,-287.1 612.1,-279.1 605.6,-276.52"/>
</a>
</g>
<text text-anchor="start" x="701" y="-232.21" font-family="Helvetica,sans-Serif" font-size="10.00" fill="grey">file</text>
</g>
<!-- Node4&#45;&gt;Node17 -->
<g id="edge33_Node000017_Node000004" class="edge">
<title>Node4&#45;&gt;Node17</title>
<g id="a_edge33_Node000017_Node000004"><a xlink:title=" ">
<path fill="none" stroke="#9a32cd" stroke-dasharray="5,2" d="M603.48,-276.71C606.62,-249.34 616.44,-200.67 647,-174.71 686.07,-141.53 744.81,-133.3 788.89,-132.46"/>
<polygon fill="#9a32cd" stroke="#9a32cd" points="599.96,-276.72 602.5,-287 606.93,-277.38 599.96,-276.72"/>
</a>
</g>
<text text-anchor="start" x="701" y="-180.21" font-family="Helvetica,sans-Serif" font-size="10.00" fill="grey">file</text>
</g>
<!-- Node4&#45;&gt;Node18 -->
<g id="edge36_Node000018_Node000004" class="edge">
<title>Node4&#45;&gt;Node18</title>
<g id="a_edge36_Node000018_Node000004"><a xlink:title=" ">
<path fill="none" stroke="#9a32cd" stroke-dasharray="5,2" d="M603.96,-276.67C608.64,-233.48 621.95,-133.81 647,-112.71 692.44,-74.43 765.92,-80.59 810.61,-89.2"/>
<polygon fill="#9a32cd" stroke="#9a32cd" points="600.46,-276.49 602.91,-286.8 607.43,-277.21 600.46,-276.49"/>
</a>
</g>
<text text-anchor="start" x="701" y="-118.21" font-family="Helvetica,sans-Serif" font-size="10.00" fill="grey">file</text>
</g>
<!-- Node5&#45;&gt;Node4 -->
<g id="edge4_Node000004_Node000005" class="edge">
<title>Node5&#45;&gt;Node4</title>
<g id="a_edge4_Node000004_Node000005"><a xlink:title=" ">
<path fill="none" stroke="#9a32cd" stroke-dasharray="5,2" d="M448.04,-296.71C488.53,-296.71 541.25,-296.71 572.76,-296.71"/>
<polygon fill="#9a32cd" stroke="#9a32cd" points="448.03,-293.21 438.03,-296.71 448.03,-300.21 448.03,-293.21"/>
</a>
</g>
<text text-anchor="start" x="490" y="-302.21" font-family="Helvetica,sans-Serif" font-size="10.00" fill="grey">details</text>
</g>
<!-- Node6 -->
<g id="Node000006" class="node">
<title>Node6</title>
<g id="a_Node000006"><a xlink:href="structCajaFileSortByEmblemCache.html" target="_top" xlink:title=" ">
<polygon fill="white" stroke="#666666" points="158,-299.21 0,-299.21 0,-280.21 158,-280.21 158,-299.21"/>
<text text-anchor="middle" x="79" y="-287.21" font-family="Helvetica,sans-Serif" font-size="10.00">CajaFileSortByEmblemCache</text>
</a>
</g>
</g>
<!-- Node6&#45;&gt;Node5 -->
<g id="edge6_Node000005_Node000006" class="edge">
<title>Node6&#45;&gt;Node5</title>
<g id="a_edge6_Node000005_Node000006"><a xlink:title=" ">
<path fill="none" stroke="#9a32cd" stroke-dasharray="5,2" d="M168.45,-288.29C214.29,-288 271.18,-288.35 322,-290.71 328.7,-291.02 335.76,-291.49 342.69,-292.03"/>
<polygon fill="#9a32cd" stroke="#9a32cd" points="168.21,-284.79 158.24,-288.36 168.27,-291.79 168.21,-284.79"/>
</a>
</g>
<text text-anchor="start" x="179" y="-296.21" font-family="Helvetica,sans-Serif" font-size="10.00" fill="grey">compare_by_emblem_cache</text>
</g>
<!-- Node7 -->
<g id="Node000007" class="node">
<title>Node7</title>
<g id="a_Node000007"><a xlink:title=" ">
<polygon fill="white" stroke="#666666" points="893.5,-71.21 806.5,-71.21 806.5,-52.21 893.5,-52.21 893.5,-71.21"/>
<text text-anchor="middle" x="850" y="-59.21" font-family="Helvetica,sans-Serif" font-size="10.00">CajaFileQueue</text>
</a>
</g>
</g>
<!-- Node7&#45;&gt;Node3 -->
<g id="edge7_Node000003_Node000007" class="edge">
<title>Node7&#45;&gt;Node3</title>
<g id="a_edge7_Node000003_Node000007"><a xlink:title=" ">
<path fill="none" stroke="#9a32cd" stroke-dasharray="5,2" d="M903.91,-54.93C959.53,-49.01 1042.32,-43.98 1067,-62.71 1111.64,-96.59 1138.45,-284.12 1144.29,-329.04"/>
<polygon fill="#9a32cd" stroke="#9a32cd" points="903.42,-51.47 893.87,-56.04 904.19,-58.42 903.42,-51.47"/>
</a>
</g>
<text text-anchor="start" x="950" y="-98.21" font-family="Helvetica,sans-Serif" font-size="10.00" fill="grey">extension_queue</text>
<text text-anchor="start" x="950" y="-83.21" font-family="Helvetica,sans-Serif" font-size="10.00" fill="grey">high_priority_queue</text>
<text text-anchor="start" x="950" y="-68.21" font-family="Helvetica,sans-Serif" font-size="10.00" fill="grey">low_priority_queue</text>
</g>
<!-- Node8 -->
<g id="Node000008" class="node">
<title>Node8</title>
<g id="a_Node000008"><a xlink:title=" ">
<polygon fill="white" stroke="#666666" points="888,-32.21 812,-32.21 812,-13.21 888,-13.21 888,-32.21"/>
<text text-anchor="middle" x="850" y="-20.21" font-family="Helvetica,sans-Serif" font-size="10.00">CajaMonitor</text>
</a>
</g>
</g>
<!-- Node8&#45;&gt;Node3 -->
<g id="edge8_Node000003_Node000008" class="edge">
<title>Node8&#45;&gt;Node3</title>
<g id="a_edge8_Node000003_Node000008"><a xlink:title=" ">
<path fill="none" stroke="#9a32cd" stroke-dasharray="5,2" d="M891.66,-10.61C939.15,0.83 1017.49,10.94 1067,-28.71 1116.18,-68.1 1139.87,-281.38 1144.6,-329.19"/>
<polygon fill="#9a32cd" stroke="#9a32cd" points="890.56,-7.27 881.73,-13.13 892.28,-14.06 890.56,-7.27"/>
</a>
</g>
<text text-anchor="start" x="979" y="-34.21" font-family="Helvetica,sans-Serif" font-size="10.00" fill="grey">monitor</text>
</g>
<!-- Node9&#45;&gt;Node3 -->
<g id="edge9_Node000003_Node000009" class="edge">
<title>Node9&#45;&gt;Node3</title>
<g id="a_edge9_Node000003_Node000009"><a xlink:title=" ">
<path fill="none" stroke="#9a32cd" stroke-dasharray="5,2" d="M915.47,-523.89C961.66,-520.31 1023.19,-509.07 1067,-476.71 1112.9,-442.81 1135.89,-373.51 1143.02,-348.22"/>
<polygon fill="#9a32cd" stroke="#9a32cd" points="915,-520.42 905.26,-524.58 915.48,-527.4 915,-520.42"/>
</a>
</g>
<text text-anchor="start" x="932" y="-527.21" font-family="Helvetica,sans-Serif" font-size="10.00" fill="grey">directory_load_in_progress</text>
</g>
<!-- Node10&#45;&gt;Node3 -->
<g id="edge12_Node000003_Node000010" class="edge">
<title>Node10&#45;&gt;Node3</title>
<g id="a_edge12_Node000003_Node000010"><a xlink:title=" ">
<path fill="none" stroke="#9a32cd" stroke-dasharray="5,2" d="M918.32,-457.47C962.76,-452.96 1021.05,-442.37 1067,-417.71 1099.37,-400.34 1126.93,-365.24 1138.99,-348.29"/>
<polygon fill="#9a32cd" stroke="#9a32cd" points="917.82,-454 908.19,-458.42 918.48,-460.97 917.82,-454"/>
</a>
</g>
<text text-anchor="start" x="954" y="-461.21" font-family="Helvetica,sans-Serif" font-size="10.00" fill="grey">count_in_progress</text>
</g>
<!-- Node11&#45;&gt;Node3 -->
<g id="edge15_Node000003_Node000011" class="edge">
<title>Node11&#45;&gt;Node3</title>
<g id="a_edge15_Node000003_Node000011"><a xlink:title=" ">
<path fill="none" stroke="#9a32cd" stroke-dasharray="5,2" d="M552.7,-631.69C657.05,-656.71 919.07,-702.08 1067,-572.71 1137.32,-511.22 1144.8,-384.77 1145.47,-348.58"/>
<polygon fill="#9a32cd" stroke="#9a32cd" points="553.35,-628.24 542.81,-629.26 551.69,-635.04 553.35,-628.24"/>
</a>
</g>
<text text-anchor="start" x="650" y="-665.21" font-family="Helvetica,sans-Serif" font-size="10.00" fill="grey">deep_count_in_progress</text>
</g>
<!-- Node12&#45;&gt;Node3 -->
<g id="edge17_Node000003_Node000012" class="edge">
<title>Node12&#45;&gt;Node3</title>
<g id="a_edge17_Node000003_Node000012"><a xlink:title=" ">
<path fill="none" stroke="#9a32cd" stroke-dasharray="5,2" d="M891.05,-411.18C903.18,-407.58 916.58,-403.79 929,-400.71 989.74,-385.62 1007.3,-391.47 1067,-372.71 1087.97,-366.12 1110.93,-355.79 1126.57,-348.24"/>
<polygon fill="#9a32cd" stroke="#9a32cd" points="889.78,-407.91 881.21,-414.14 891.79,-414.61 889.78,-407.91"/>
</a>
</g>
<text text-anchor="start" x="943" y="-406.21" font-family="Helvetica,sans-Serif" font-size="10.00" fill="grey">mime_list_in_progress</text>
</g>
<!-- Node13&#45;&gt;Node3 -->
<g id="edge20_Node000003_Node000013" class="edge">
<title>Node13&#45;&gt;Node3</title>
<g id="a_edge20_Node000003_Node000013"><a xlink:title=" ">
<path fill="none" stroke="#9a32cd" stroke-dasharray="5,2" d="M758.25,-582.47C844.34,-582.87 1019.82,-579.03 1067,-542.71 1131.95,-492.71 1143.18,-381.85 1145.11,-348.43"/>
<polygon fill="#9a32cd" stroke="#9a32cd" points="758.23,-578.97 748.21,-582.4 758.19,-585.97 758.23,-578.97"/>
</a>
</g>
<text text-anchor="start" x="799" y="-587.21" font-family="Helvetica,sans-Serif" font-size="10.00" fill="grey">get_info_in_progress</text>
</g>
<!-- Node14&#45;&gt;Node3 -->
<g id="edge22_Node000003_Node000014" class="edge">
<title>Node14&#45;&gt;Node3</title>
<g id="a_edge22_Node000003_Node000014"><a xlink:title=" ">
<path fill="none" stroke="#9a32cd" stroke-dasharray="5,2" d="M884.22,-373.38C904.88,-365.11 927.77,-356 929,-355.71 980.6,-343.72 1040.77,-339.77 1084.57,-338.65"/>
<polygon fill="#9a32cd" stroke="#9a32cd" points="882.64,-370.24 874.66,-377.21 885.25,-376.74 882.64,-370.24"/>
</a>
</g>
<text text-anchor="start" x="958" y="-361.21" font-family="Helvetica,sans-Serif" font-size="10.00" fill="grey">thumbnail_state</text>
</g>
<!-- Node15&#45;&gt;Node3 -->
<g id="edge25_Node000003_Node000015" class="edge">
<title>Node15&#45;&gt;Node3</title>
<g id="a_edge25_Node000003_Node000015"><a xlink:title=" ">
<path fill="none" stroke="#9a32cd" stroke-dasharray="5,2" d="M896.82,-245.3C942.03,-241.9 1012.13,-241.91 1067,-265.71 1099.27,-279.71 1126.68,-312.83 1138.81,-329.2"/>
<polygon fill="#9a32cd" stroke="#9a32cd" points="896.41,-241.83 886.73,-246.15 896.99,-248.8 896.41,-241.83"/>
</a>
</g>
<text text-anchor="start" x="967" y="-271.21" font-family="Helvetica,sans-Serif" font-size="10.00" fill="grey">mount_state</text>
</g>
<!-- Node16&#45;&gt;Node3 -->
<g id="edge28_Node000003_Node000016" class="edge">
<title>Node16&#45;&gt;Node3</title>
<g id="a_edge28_Node000003_Node000016"><a xlink:title=" ">
<path fill="none" stroke="#9a32cd" stroke-dasharray="5,2" d="M917.05,-203.94C975.79,-208.15 1054.3,-215.08 1067,-222.71 1109.31,-248.13 1133.88,-306.18 1142.24,-329.12"/>
<polygon fill="#9a32cd" stroke="#9a32cd" points="917.3,-200.45 907.08,-203.23 916.81,-207.43 917.3,-200.45"/>
</a>
</g>
<text text-anchor="start" x="945" y="-228.21" font-family="Helvetica,sans-Serif" font-size="10.00" fill="grey">filesystem_info_state</text>
</g>
<!-- Node17&#45;&gt;Node3 -->
<g id="edge31_Node000003_Node000017" class="edge">
<title>Node17&#45;&gt;Node3</title>
<g id="a_edge31_Node000003_Node000017"><a xlink:title=" ">
<path fill="none" stroke="#9a32cd" stroke-dasharray="5,2" d="M889.04,-148.41C901.67,-152.36 915.86,-156.51 929,-159.71 989.56,-174.46 1016.98,-147.52 1067,-184.71 1117.33,-222.13 1137.8,-301.09 1143.62,-328.83"/>
<polygon fill="#9a32cd" stroke="#9a32cd" points="889.89,-145.01 879.3,-145.31 887.77,-151.68 889.89,-145.01"/>
</a>
</g>
<text text-anchor="start" x="951" y="-190.21" font-family="Helvetica,sans-Serif" font-size="10.00" fill="grey">top_left_read_state</text>
</g>
<!-- Node18&#45;&gt;Node3 -->
<g id="edge34_Node000003_Node000018" class="edge">
<title>Node18&#45;&gt;Node3</title>
<g id="a_edge34_Node000003_Node000018"><a xlink:title=" ">
<path fill="none" stroke="#9a32cd" stroke-dasharray="5,2" d="M910.07,-110.14C916.45,-111.35 922.86,-112.56 929,-113.71 990.27,-125.15 1018.85,-99.13 1067,-138.71 1128.95,-189.63 1142.21,-296.09 1144.87,-328.88"/>
<polygon fill="#9a32cd" stroke="#9a32cd" points="910.56,-106.67 900.08,-108.23 909.25,-113.55 910.56,-106.67"/>
</a>
</g>
<text text-anchor="start" x="948" y="-144.21" font-family="Helvetica,sans-Serif" font-size="10.00" fill="grey">link_info_read_state</text>
</g>
</g>
</svg>

<g id="navigator" transform="translate(0 0)" fill="#404254">
  <rect fill="#f2f5e9" fill-opacity="0.5" stroke="#606060" stroke-width=".5" x="0" y="0" width="60" height="60"/>
  <use id="zoomplus" xlink:href="#zoomPlus" x="17" y="9" onmousedown="handleZoom(evt,'in')"/>
  <use id="zoomminus" xlink:href="#zoomMin" x="42" y="9" onmousedown="handleZoom(evt,'out')"/>
  <use id="reset" xlink:href="#resetDef" x="30" y="36" onmousedown="handleReset()"/>
   <use id="arrowup" xlink:href="#arrowUp" x="0" y="0" onmousedown="handlePan(0,-1)"/>
  <use id="arrowright" xlink:href="#arrowRight" x="0" y="0" onmousedown="handlePan(1,0)"/>
  <use id="arrowdown" xlink:href="#arrowDown" x="0" y="0" onmousedown="handlePan(0,1)"/>
  <use id="arrowleft" xlink:href="#arrowLeft" x="0" y="0" onmousedown="handlePan(-1,0)"/>
</g>
<svg viewBox="0 0 15 15" width="100%" height="30px" preserveAspectRatio="xMaxYMin meet">
 <g id="arrow_out" transform="scale(0.3 0.3)">
  <a xlink:href="structCajaVFSDirectory__coll__graph_org.svg" target="_base">
   <rect id="button" ry="5" rx="5" y="6" x="6" height="38" width="38"
        fill="#f2f5e9" fill-opacity="0.5" stroke="#606060" stroke-width="1.0"/>
   <path id="arrow"
     d="M 11.500037,31.436501 C 11.940474,20.09759 22.043105,11.32322 32.158766,21.979434 L 37.068811,17.246167 C 37.068811,17.246167 37.088388,32 37.088388,32 L 22.160133,31.978069 C 22.160133,31.978069 26.997745,27.140456 26.997745,27.140456 C 18.528582,18.264221 13.291696,25.230495 11.500037,31.436501 z"
     style="fill:#404040;"/>
  </a>
 </g>
</svg>

<style type='text/css'>
<![CDATA[
[data-mouse-over-selected='false'] { opacity: 0.7; }
[data-mouse-over-selected='true']  { opacity: 1.0; }
]]>
</style>
<script type="application/ecmascript"><![CDATA[
document.addEventListener('DOMContentLoaded', (event) => {
  highlightEdges();
  highlightAdjacentNodes();
});
]]></script>
</svg>
