<?xml version="1.0" encoding="UTF-8" standalone="no"?>
<!DOCTYPE svg PUBLIC "-//W3C//DTD SVG 1.1//EN"
 "http://www.w3.org/Graphics/SVG/1.1/DTD/svg11.dtd">
<!-- Generated by graphviz version 2.43.0 (0)
 -->
<!-- Title: _EvFormFieldAccessible Pages: 1 -->
<svg width="365pt" height="747pt"
 viewBox="0.00 0.00 365.00 747.00" xmlns="http://www.w3.org/2000/svg" xmlns:xlink="http://www.w3.org/1999/xlink">
<g id="graph0" class="graph" transform="scale(1 1) rotate(0) translate(4 743)">
<title>_EvFormFieldAccessible</title>
<!-- Node1 -->
<g id="Node000001" class="node">
<title>Node1</title>
<g id="a_Node000001"><a xlink:title=" ">
<polygon fill="#999999" stroke="#666666" points="281.5,-19 147.5,-19 147.5,0 281.5,0 281.5,-19"/>
<text text-anchor="middle" x="214.5" y="-7" font-family="Helvetica,sans-Serif" font-size="10.00">_EvFormFieldAccessible</text>
</a>
</g>
</g>
<!-- Node2 -->
<g id="Node000002" class="node">
<title>Node2</title>
<g id="a_Node000002"><a xlink:title=" ">
<polygon fill="white" stroke="#666666" points="298.5,-91 130.5,-91 130.5,-72 298.5,-72 298.5,-91"/>
<text text-anchor="middle" x="214.5" y="-79" font-family="Helvetica,sans-Serif" font-size="10.00">_EvFormFieldAccessiblePrivate</text>
</a>
</g>
</g>
<!-- Node2&#45;&gt;Node1 -->
<g id="edge1_Node000001_Node000002" class="edge">
<title>Node2&#45;&gt;Node1</title>
<g id="a_edge1_Node000001_Node000002"><a xlink:title=" ">
<path fill="none" stroke="#9a32cd" stroke-dasharray="5,2" d="M214.5,-61.58C214.5,-47.76 214.5,-29.68 214.5,-19.15"/>
<polygon fill="#9a32cd" stroke="#9a32cd" points="211,-61.92 214.5,-71.92 218,-61.92 211,-61.92"/>
</a>
</g>
<text text-anchor="start" x="218" y="-42.5" font-family="Helvetica,sans-Serif" font-size="10.00" fill="grey">priv</text>
</g>
<!-- Node3 -->
<g id="Node000003" class="node">
<title>Node3</title>
<g id="a_Node000003"><a xlink:href="struct__EvPageAccessible.html" target="_top" xlink:title=" ">
<polygon fill="white" stroke="#666666" points="155,-163 46,-163 46,-144 155,-144 155,-163"/>
<text text-anchor="middle" x="100.5" y="-151" font-family="Helvetica,sans-Serif" font-size="10.00">_EvPageAccessible</text>
</a>
</g>
</g>
<!-- Node3&#45;&gt;Node2 -->
<g id="edge2_Node000002_Node000003" class="edge">
<title>Node3&#45;&gt;Node2</title>
<g id="a_edge2_Node000002_Node000003"><a xlink:title=" ">
<path fill="none" stroke="#9a32cd" stroke-dasharray="5,2" d="M123.24,-138.53C146.26,-124.4 181.12,-103 200.41,-91.15"/>
<polygon fill="#9a32cd" stroke="#9a32cd" points="121.17,-135.7 114.48,-143.92 124.83,-141.67 121.17,-135.7"/>
</a>
</g>
<text text-anchor="start" x="175" y="-114.5" font-family="Helvetica,sans-Serif" font-size="10.00" fill="grey">page</text>
</g>
<!-- Node4 -->
<g id="Node000004" class="node">
<title>Node4</title>
<g id="a_Node000004"><a xlink:title=" ">
<polygon fill="white" stroke="#666666" points="157,-235 14,-235 14,-216 157,-216 157,-235"/>
<text text-anchor="middle" x="85.5" y="-223" font-family="Helvetica,sans-Serif" font-size="10.00">_EvPageAccessiblePrivate</text>
</a>
</g>
</g>
<!-- Node4&#45;&gt;Node3 -->
<g id="edge3_Node000003_Node000004" class="edge">
<title>Node4&#45;&gt;Node3</title>
<g id="a_edge3_Node000003_Node000004"><a xlink:title=" ">
<path fill="none" stroke="#9a32cd" stroke-dasharray="5,2" d="M89.47,-205.99C92.44,-192.13 96.37,-173.79 98.65,-163.15"/>
<polygon fill="#9a32cd" stroke="#9a32cd" points="86.01,-205.41 87.34,-215.92 92.86,-206.87 86.01,-205.41"/>
</a>
</g>
<text text-anchor="start" x="99" y="-186.5" font-family="Helvetica,sans-Serif" font-size="10.00" fill="grey">priv</text>
</g>
<!-- Node5 -->
<g id="Node000005" class="node">
<title>Node5</title>
<g id="a_Node000005"><a xlink:href="struct__EvViewAccessible.html" target="_top" xlink:title=" ">
<polygon fill="white" stroke="#666666" points="136.5,-307 26.5,-307 26.5,-288 136.5,-288 136.5,-307"/>
<text text-anchor="middle" x="81.5" y="-295" font-family="Helvetica,sans-Serif" font-size="10.00">_EvViewAccessible</text>
</a>
</g>
</g>
<!-- Node5&#45;&gt;Node4 -->
<g id="edge4_Node000004_Node000005" class="edge">
<title>Node5&#45;&gt;Node4</title>
<g id="a_edge4_Node000004_Node000005"><a xlink:title=" ">
<path fill="none" stroke="#9a32cd" stroke-dasharray="5,2" d="M82.58,-277.58C83.37,-263.76 84.4,-245.68 85.01,-235.15"/>
<polygon fill="#9a32cd" stroke="#9a32cd" points="79.07,-277.73 81.99,-287.92 86.06,-278.13 79.07,-277.73"/>
</a>
</g>
<text text-anchor="start" x="87.5" y="-258.5" font-family="Helvetica,sans-Serif" font-size="10.00" fill="grey">view_accessible</text>
</g>
<!-- Node6 -->
<g id="Node000006" class="node">
<title>Node6</title>
<g id="a_Node000006"><a xlink:title=" ">
<polygon fill="white" stroke="#666666" points="152.5,-379 8.5,-379 8.5,-360 152.5,-360 152.5,-379"/>
<text text-anchor="middle" x="80.5" y="-367" font-family="Helvetica,sans-Serif" font-size="10.00">_EvViewAccessiblePrivate</text>
</a>
</g>
</g>
<!-- Node6&#45;&gt;Node5 -->
<g id="edge5_Node000005_Node000006" class="edge">
<title>Node6&#45;&gt;Node5</title>
<g id="a_edge5_Node000005_Node000006"><a xlink:title=" ">
<path fill="none" stroke="#9a32cd" stroke-dasharray="5,2" d="M80.77,-349.58C80.97,-335.76 81.23,-317.68 81.38,-307.15"/>
<polygon fill="#9a32cd" stroke="#9a32cd" points="77.27,-349.87 80.62,-359.92 84.27,-349.97 77.27,-349.87"/>
</a>
</g>
<text text-anchor="start" x="85" y="-330.5" font-family="Helvetica,sans-Serif" font-size="10.00" fill="grey">priv</text>
</g>
<!-- Node7 -->
<g id="Node000007" class="node">
<title>Node7</title>
<g id="a_Node000007"><a xlink:title=" ">
<polygon fill="white" stroke="#666666" points="137.5,-451 23.5,-451 23.5,-432 137.5,-432 137.5,-451"/>
<text text-anchor="middle" x="80.5" y="-439" font-family="Helvetica,sans-Serif" font-size="10.00">_EvDocumentModel</text>
</a>
</g>
</g>
<!-- Node7&#45;&gt;Node6 -->
<g id="edge6_Node000006_Node000007" class="edge">
<title>Node7&#45;&gt;Node6</title>
<g id="a_edge6_Node000006_Node000007"><a xlink:title=" ">
<path fill="none" stroke="#9a32cd" stroke-dasharray="5,2" d="M80.5,-421.58C80.5,-407.76 80.5,-389.68 80.5,-379.15"/>
<polygon fill="#9a32cd" stroke="#9a32cd" points="77,-421.92 80.5,-431.92 84,-421.92 77,-421.92"/>
</a>
</g>
<text text-anchor="start" x="84" y="-402.5" font-family="Helvetica,sans-Serif" font-size="10.00" fill="grey">model</text>
</g>
<!-- Node8 -->
<g id="Node000008" class="node">
<title>Node8</title>
<g id="a_Node000008"><a xlink:href="struct__EvDocument.html" target="_top" xlink:title=" ">
<polygon fill="white" stroke="#666666" points="122.5,-523 38.5,-523 38.5,-504 122.5,-504 122.5,-523"/>
<text text-anchor="middle" x="80.5" y="-511" font-family="Helvetica,sans-Serif" font-size="10.00">_EvDocument</text>
</a>
</g>
</g>
<!-- Node8&#45;&gt;Node7 -->
<g id="edge7_Node000007_Node000008" class="edge">
<title>Node8&#45;&gt;Node7</title>
<g id="a_edge7_Node000007_Node000008"><a xlink:title=" ">
<path fill="none" stroke="#9a32cd" stroke-dasharray="5,2" d="M80.5,-493.58C80.5,-479.76 80.5,-461.68 80.5,-451.15"/>
<polygon fill="#9a32cd" stroke="#9a32cd" points="77,-493.92 80.5,-503.92 84,-493.92 77,-493.92"/>
</a>
</g>
<text text-anchor="start" x="84" y="-474.5" font-family="Helvetica,sans-Serif" font-size="10.00" fill="grey">document</text>
</g>
<!-- Node9 -->
<g id="Node000009" class="node">
<title>Node9</title>
<g id="a_Node000009"><a xlink:title=" ">
<polygon fill="white" stroke="#666666" points="140,-595 21,-595 21,-576 140,-576 140,-595"/>
<text text-anchor="middle" x="80.5" y="-583" font-family="Helvetica,sans-Serif" font-size="10.00">_EvDocumentPrivate</text>
</a>
</g>
</g>
<!-- Node9&#45;&gt;Node8 -->
<g id="edge8_Node000008_Node000009" class="edge">
<title>Node9&#45;&gt;Node8</title>
<g id="a_edge8_Node000008_Node000009"><a xlink:title=" ">
<path fill="none" stroke="#9a32cd" stroke-dasharray="5,2" d="M80.5,-565.58C80.5,-551.76 80.5,-533.68 80.5,-523.15"/>
<polygon fill="#9a32cd" stroke="#9a32cd" points="77,-565.92 80.5,-575.92 84,-565.92 77,-565.92"/>
</a>
</g>
<text text-anchor="start" x="84" y="-546.5" font-family="Helvetica,sans-Serif" font-size="10.00" fill="grey">priv</text>
</g>
<!-- Node10 -->
<g id="Node000010" class="node">
<title>Node10</title>
<g id="a_Node000010"><a xlink:title=" ">
<polygon fill="white" stroke="#666666" points="77,-667 0,-667 0,-648 77,-648 77,-667"/>
<text text-anchor="middle" x="38.5" y="-655" font-family="Helvetica,sans-Serif" font-size="10.00">_EvPageSize</text>
</a>
</g>
</g>
<!-- Node10&#45;&gt;Node9 -->
<g id="edge9_Node000009_Node000010" class="edge">
<title>Node10&#45;&gt;Node9</title>
<g id="a_edge9_Node000009_Node000010"><a xlink:title=" ">
<path fill="none" stroke="#9a32cd" stroke-dasharray="5,2" d="M41.72,-637.95C43.69,-629.86 46.78,-620.53 51.5,-613 55.85,-606.07 62.49,-599.81 68.33,-595.12"/>
<polygon fill="#9a32cd" stroke="#9a32cd" points="38.25,-637.43 39.67,-647.93 45.11,-638.84 38.25,-637.43"/>
</a>
</g>
<text text-anchor="start" x="55" y="-618.5" font-family="Helvetica,sans-Serif" font-size="10.00" fill="grey">page_sizes</text>
</g>
<!-- Node11 -->
<g id="Node000011" class="node">
<title>Node11</title>
<g id="a_Node000011"><a xlink:href="struct__EvDocumentInfo.html" target="_top" xlink:title=" ">
<polygon fill="white" stroke="#666666" points="198,-667 95,-667 95,-648 198,-648 198,-667"/>
<text text-anchor="middle" x="146.5" y="-655" font-family="Helvetica,sans-Serif" font-size="10.00">_EvDocumentInfo</text>
</a>
</g>
</g>
<!-- Node11&#45;&gt;Node9 -->
<g id="edge10_Node000009_Node000011" class="edge">
<title>Node11&#45;&gt;Node9</title>
<g id="a_edge10_Node000009_Node000011"><a xlink:title=" ">
<path fill="none" stroke="#9a32cd" stroke-dasharray="5,2" d="M134.54,-639.48C128.35,-631.15 120.45,-621.18 112.5,-613 106.16,-606.48 98.31,-599.96 91.97,-595.02"/>
<polygon fill="#9a32cd" stroke="#9a32cd" points="131.8,-641.66 140.49,-647.72 137.47,-637.56 131.8,-641.66"/>
</a>
</g>
<text text-anchor="start" x="130" y="-618.5" font-family="Helvetica,sans-Serif" font-size="10.00" fill="grey">info</text>
</g>
<!-- Node12 -->
<g id="Node000012" class="node">
<title>Node12</title>
<g id="a_Node000012"><a xlink:href="struct__EvDocumentLicense.html" target="_top" xlink:title=" ">
<polygon fill="white" stroke="#666666" points="207,-739 86,-739 86,-720 207,-720 207,-739"/>
<text text-anchor="middle" x="146.5" y="-727" font-family="Helvetica,sans-Serif" font-size="10.00">_EvDocumentLicense</text>
</a>
</g>
</g>
<!-- Node12&#45;&gt;Node11 -->
<g id="edge11_Node000011_Node000012" class="edge">
<title>Node12&#45;&gt;Node11</title>
<g id="a_edge11_Node000011_Node000012"><a xlink:title=" ">
<path fill="none" stroke="#9a32cd" stroke-dasharray="5,2" d="M146.5,-709.58C146.5,-695.76 146.5,-677.68 146.5,-667.15"/>
<polygon fill="#9a32cd" stroke="#9a32cd" points="143,-709.92 146.5,-719.92 150,-709.92 143,-709.92"/>
</a>
</g>
<text text-anchor="start" x="150" y="-690.5" font-family="Helvetica,sans-Serif" font-size="10.00" fill="grey">license</text>
</g>
<!-- Node13 -->
<g id="Node000013" class="node">
<title>Node13</title>
<g id="a_Node000013"><a xlink:href="struct__EvFormField.html" target="_top" xlink:title=" ">
<polygon fill="white" stroke="#666666" points="255.5,-163 173.5,-163 173.5,-144 255.5,-144 255.5,-163"/>
<text text-anchor="middle" x="214.5" y="-151" font-family="Helvetica,sans-Serif" font-size="10.00">_EvFormField</text>
</a>
</g>
</g>
<!-- Node13&#45;&gt;Node2 -->
<g id="edge12_Node000002_Node000013" class="edge">
<title>Node13&#45;&gt;Node2</title>
<g id="a_edge12_Node000002_Node000013"><a xlink:title=" ">
<path fill="none" stroke="#9a32cd" stroke-dasharray="5,2" d="M214.5,-133.58C214.5,-119.76 214.5,-101.68 214.5,-91.15"/>
<polygon fill="#9a32cd" stroke="#9a32cd" points="211,-133.92 214.5,-143.92 218,-133.92 211,-133.92"/>
</a>
</g>
<text text-anchor="start" x="217.5" y="-114.5" font-family="Helvetica,sans-Serif" font-size="10.00" fill="grey">form_field</text>
</g>
<!-- Node14 -->
<g id="Node000014" class="node">
<title>Node14</title>
<g id="a_Node000014"><a xlink:title=" ">
<polygon fill="white" stroke="#666666" points="242.5,-235 188.5,-235 188.5,-216 242.5,-216 242.5,-235"/>
<text text-anchor="middle" x="215.5" y="-223" font-family="Helvetica,sans-Serif" font-size="10.00">_EvLink</text>
</a>
</g>
</g>
<!-- Node14&#45;&gt;Node13 -->
<g id="edge13_Node000013_Node000014" class="edge">
<title>Node14&#45;&gt;Node13</title>
<g id="a_edge13_Node000013_Node000014"><a xlink:title=" ">
<path fill="none" stroke="#9a32cd" stroke-dasharray="5,2" d="M215.23,-205.58C215.03,-191.76 214.77,-173.68 214.62,-163.15"/>
<polygon fill="#9a32cd" stroke="#9a32cd" points="211.73,-205.97 215.38,-215.92 218.73,-205.87 211.73,-205.97"/>
</a>
</g>
<text text-anchor="start" x="218" y="-186.5" font-family="Helvetica,sans-Serif" font-size="10.00" fill="grey">activation_link</text>
</g>
<!-- Node15 -->
<g id="Node000015" class="node">
<title>Node15</title>
<g id="a_Node000015"><a xlink:title=" ">
<polygon fill="white" stroke="#666666" points="260,-307 171,-307 171,-288 260,-288 260,-307"/>
<text text-anchor="middle" x="215.5" y="-295" font-family="Helvetica,sans-Serif" font-size="10.00">_EvLinkPrivate</text>
</a>
</g>
</g>
<!-- Node15&#45;&gt;Node14 -->
<g id="edge14_Node000014_Node000015" class="edge">
<title>Node15&#45;&gt;Node14</title>
<g id="a_edge14_Node000014_Node000015"><a xlink:title=" ">
<path fill="none" stroke="#9a32cd" stroke-dasharray="5,2" d="M215.5,-277.58C215.5,-263.76 215.5,-245.68 215.5,-235.15"/>
<polygon fill="#9a32cd" stroke="#9a32cd" points="212,-277.92 215.5,-287.92 219,-277.92 212,-277.92"/>
</a>
</g>
<text text-anchor="start" x="219" y="-258.5" font-family="Helvetica,sans-Serif" font-size="10.00" fill="grey">priv</text>
</g>
<!-- Node16 -->
<g id="Node000016" class="node">
<title>Node16</title>
<g id="a_Node000016"><a xlink:title=" ">
<polygon fill="white" stroke="#666666" points="258,-379 173,-379 173,-360 258,-360 258,-379"/>
<text text-anchor="middle" x="215.5" y="-367" font-family="Helvetica,sans-Serif" font-size="10.00">_EvLinkAction</text>
</a>
</g>
</g>
<!-- Node16&#45;&gt;Node15 -->
<g id="edge15_Node000015_Node000016" class="edge">
<title>Node16&#45;&gt;Node15</title>
<g id="a_edge15_Node000015_Node000016"><a xlink:title=" ">
<path fill="none" stroke="#9a32cd" stroke-dasharray="5,2" d="M215.5,-349.58C215.5,-335.76 215.5,-317.68 215.5,-307.15"/>
<polygon fill="#9a32cd" stroke="#9a32cd" points="212,-349.92 215.5,-359.92 219,-349.92 212,-349.92"/>
</a>
</g>
<text text-anchor="start" x="219" y="-330.5" font-family="Helvetica,sans-Serif" font-size="10.00" fill="grey">action</text>
</g>
<!-- Node17 -->
<g id="Node000017" class="node">
<title>Node17</title>
<g id="a_Node000017"><a xlink:title=" ">
<polygon fill="white" stroke="#666666" points="275,-451 156,-451 156,-432 275,-432 275,-451"/>
<text text-anchor="middle" x="215.5" y="-439" font-family="Helvetica,sans-Serif" font-size="10.00">_EvLinkActionPrivate</text>
</a>
</g>
</g>
<!-- Node17&#45;&gt;Node16 -->
<g id="edge16_Node000016_Node000017" class="edge">
<title>Node17&#45;&gt;Node16</title>
<g id="a_edge16_Node000016_Node000017"><a xlink:title=" ">
<path fill="none" stroke="#9a32cd" stroke-dasharray="5,2" d="M215.5,-421.58C215.5,-407.76 215.5,-389.68 215.5,-379.15"/>
<polygon fill="#9a32cd" stroke="#9a32cd" points="212,-421.92 215.5,-431.92 219,-421.92 212,-421.92"/>
</a>
</g>
<text text-anchor="start" x="219" y="-402.5" font-family="Helvetica,sans-Serif" font-size="10.00" fill="grey">priv</text>
</g>
<!-- Node18 -->
<g id="Node000018" class="node">
<title>Node18</title>
<g id="a_Node000018"><a xlink:title=" ">
<polygon fill="white" stroke="#666666" points="254,-523 177,-523 177,-504 254,-504 254,-523"/>
<text text-anchor="middle" x="215.5" y="-511" font-family="Helvetica,sans-Serif" font-size="10.00">_EvLinkDest</text>
</a>
</g>
</g>
<!-- Node18&#45;&gt;Node17 -->
<g id="edge17_Node000017_Node000018" class="edge">
<title>Node18&#45;&gt;Node17</title>
<g id="a_edge17_Node000017_Node000018"><a xlink:title=" ">
<path fill="none" stroke="#9a32cd" stroke-dasharray="5,2" d="M215.5,-493.58C215.5,-479.76 215.5,-461.68 215.5,-451.15"/>
<polygon fill="#9a32cd" stroke="#9a32cd" points="212,-493.92 215.5,-503.92 219,-493.92 212,-493.92"/>
</a>
</g>
<text text-anchor="start" x="218.5" y="-474.5" font-family="Helvetica,sans-Serif" font-size="10.00" fill="grey">dest</text>
</g>
<!-- Node19 -->
<g id="Node000019" class="node">
<title>Node19</title>
<g id="a_Node000019"><a xlink:title=" ">
<polygon fill="white" stroke="#666666" points="271,-595 160,-595 160,-576 271,-576 271,-595"/>
<text text-anchor="middle" x="215.5" y="-583" font-family="Helvetica,sans-Serif" font-size="10.00">_EvLinkDestPrivate</text>
</a>
</g>
</g>
<!-- Node19&#45;&gt;Node18 -->
<g id="edge18_Node000018_Node000019" class="edge">
<title>Node19&#45;&gt;Node18</title>
<g id="a_edge18_Node000018_Node000019"><a xlink:title=" ">
<path fill="none" stroke="#9a32cd" stroke-dasharray="5,2" d="M215.5,-565.58C215.5,-551.76 215.5,-533.68 215.5,-523.15"/>
<polygon fill="#9a32cd" stroke="#9a32cd" points="212,-565.92 215.5,-575.92 219,-565.92 212,-565.92"/>
</a>
</g>
<text text-anchor="start" x="219" y="-546.5" font-family="Helvetica,sans-Serif" font-size="10.00" fill="grey">priv</text>
</g>
<!-- Node20 -->
<g id="Node000020" class="node">
<title>Node20</title>
<g id="a_Node000020"><a xlink:href="struct__EvPage.html" target="_top" xlink:title=" ">
<polygon fill="white" stroke="#666666" points="345,-235 288,-235 288,-216 345,-216 345,-235"/>
<text text-anchor="middle" x="316.5" y="-223" font-family="Helvetica,sans-Serif" font-size="10.00">_EvPage</text>
</a>
</g>
</g>
<!-- Node20&#45;&gt;Node13 -->
<g id="edge19_Node000013_Node000020" class="edge">
<title>Node20&#45;&gt;Node13</title>
<g id="a_edge19_Node000013_Node000020"><a xlink:title=" ">
<path fill="none" stroke="#9a32cd" stroke-dasharray="5,2" d="M310.94,-206.2C307.46,-197.51 302.16,-187.6 294.5,-181 283.64,-171.64 269.37,-165.56 255.89,-161.63"/>
<polygon fill="#9a32cd" stroke="#9a32cd" points="307.72,-207.61 314.31,-215.9 314.33,-205.31 307.72,-207.61"/>
</a>
</g>
<text text-anchor="start" x="310" y="-186.5" font-family="Helvetica,sans-Serif" font-size="10.00" fill="grey">page</text>
</g>
<!-- Node21 -->
<g id="Node000021" class="node">
<title>Node21</title>
<g id="a_Node000021"><a xlink:href="struct__EvRectangle.html" target="_top" xlink:title=" ">
<polygon fill="white" stroke="#666666" points="357,-163 274,-163 274,-144 357,-144 357,-163"/>
<text text-anchor="middle" x="315.5" y="-151" font-family="Helvetica,sans-Serif" font-size="10.00">_EvRectangle</text>
</a>
</g>
</g>
<!-- Node21&#45;&gt;Node2 -->
<g id="edge20_Node000002_Node000021" class="edge">
<title>Node21&#45;&gt;Node2</title>
<g id="a_edge20_Node000002_Node000021"><a xlink:title=" ">
<path fill="none" stroke="#9a32cd" stroke-dasharray="5,2" d="M302.74,-136.04C295.24,-127.17 285.16,-116.54 274.5,-109 263.99,-101.57 251.07,-95.54 239.91,-91.11"/>
<polygon fill="#9a32cd" stroke="#9a32cd" points="300.06,-138.28 309.08,-143.84 305.49,-133.87 300.06,-138.28"/>
</a>
</g>
<text text-anchor="start" x="295.5" y="-114.5" font-family="Helvetica,sans-Serif" font-size="10.00" fill="grey">area</text>
</g>
</g>
</svg>
