<?xml version="1.0" encoding="UTF-8" standalone="no"?>
<!DOCTYPE svg PUBLIC "-//W3C//DTD SVG 1.1//EN"
 "http://www.w3.org/Graphics/SVG/1.1/DTD/svg11.dtd">
<!-- Generated by graphviz version 2.43.0 (0)
 -->
<!-- Title: CajaTrashBar Pages: 1 -->
<svg width="3150pt" height="534pt"
 viewBox="0.00 0.00 3150.00 534.00" xmlns="http://www.w3.org/2000/svg" xmlns:xlink="http://www.w3.org/1999/xlink">
<g id="graph0" class="graph" transform="scale(1 1) rotate(0) translate(4 530)">
<title>CajaTrashBar</title>
<!-- Node1 -->
<g id="Node000001" class="node">
<title>Node1</title>
<g id="a_Node000001"><a xlink:title=" ">
<polygon fill="#999999" stroke="#666666" points="100,-163 20,-163 20,-144 100,-144 100,-163"/>
<text text-anchor="middle" x="60" y="-151" font-family="Helvetica,sans-Serif" font-size="10.00">CajaTrashBar</text>
</a>
</g>
</g>
<!-- Node2 -->
<g id="Node000002" class="node">
<title>Node2</title>
<g id="a_Node000002"><a xlink:title=" ">
<polygon fill="white" stroke="#666666" points="120,-250 0,-250 0,-231 120,-231 120,-250"/>
<text text-anchor="middle" x="60" y="-238" font-family="Helvetica,sans-Serif" font-size="10.00">_CajaTrashBarPrivate</text>
</a>
</g>
</g>
<!-- Node2&#45;&gt;Node1 -->
<g id="edge1_Node000001_Node000002" class="edge">
<title>Node2&#45;&gt;Node1</title>
<g id="a_edge1_Node000001_Node000002"><a xlink:title=" ">
<path fill="none" stroke="#9a32cd" stroke-dasharray="5,2" d="M60,-220.62C60,-202.79 60,-176.83 60,-163.36"/>
<polygon fill="#9a32cd" stroke="#9a32cd" points="56.5,-220.72 60,-230.72 63.5,-220.72 56.5,-220.72"/>
</a>
</g>
<text text-anchor="start" x="63.5" y="-194" font-family="Helvetica,sans-Serif" font-size="10.00" fill="grey">priv</text>
</g>
<!-- Node3 -->
<g id="Node000003" class="node">
<title>Node3</title>
<g id="a_Node000003"><a xlink:href="structCajaWindow.html" target="_top" xlink:title=" ">
<polygon fill="white" stroke="#666666" points="428.5,-337 351.5,-337 351.5,-318 428.5,-318 428.5,-337"/>
<text text-anchor="middle" x="390" y="-325" font-family="Helvetica,sans-Serif" font-size="10.00">CajaWindow</text>
</a>
</g>
</g>
<!-- Node3&#45;&gt;Node2 -->
<g id="edge2_Node000002_Node000003" class="edge">
<title>Node3&#45;&gt;Node2</title>
<g id="a_edge2_Node000002_Node000003"><a xlink:title=" ">
<path fill="none" stroke="#9a32cd" stroke-dasharray="5,2" d="M341.39,-321.14C308.04,-316.88 262.95,-309.96 224,-300 170.85,-286.4 110.63,-262.68 80.08,-250.02"/>
<polygon fill="#9a32cd" stroke="#9a32cd" points="340.99,-324.62 351.35,-322.38 341.86,-317.67 340.99,-324.62"/>
</a>
</g>
<text text-anchor="start" x="227" y="-281" font-family="Helvetica,sans-Serif" font-size="10.00" fill="grey">window</text>
</g>
<!-- Node6 -->
<g id="Node000006" class="node">
<title>Node6</title>
<g id="a_Node000006"><a xlink:href="struct__CajaWindowPane.html" target="_top" xlink:title=" ">
<polygon fill="white" stroke="#666666" points="698,-250 592,-250 592,-231 698,-231 698,-250"/>
<text text-anchor="middle" x="645" y="-238" font-family="Helvetica,sans-Serif" font-size="10.00">_CajaWindowPane</text>
</a>
</g>
</g>
<!-- Node3&#45;&gt;Node6 -->
<g id="edge6_Node000006_Node000003" class="edge">
<title>Node3&#45;&gt;Node6</title>
<g id="a_edge6_Node000006_Node000003"><a xlink:title=" ">
<path fill="none" stroke="#9a32cd" stroke-dasharray="5,2" d="M438.74,-318.24C461.31,-313.82 488.31,-307.7 512,-300 555.18,-285.97 603.39,-262.75 628.21,-250.2"/>
<polygon fill="#9a32cd" stroke="#9a32cd" points="437.88,-314.84 428.71,-320.14 439.19,-321.71 437.88,-314.84"/>
</a>
</g>
<text text-anchor="start" x="591" y="-281" font-family="Helvetica,sans-Serif" font-size="10.00" fill="grey">window</text>
</g>
<!-- Node7 -->
<g id="Node000007" class="node">
<title>Node7</title>
<g id="a_Node000007"><a xlink:href="structCajaWindowSlot.html" target="_top" xlink:title=" ">
<polygon fill="white" stroke="#666666" points="710,-163 614,-163 614,-144 710,-144 710,-163"/>
<text text-anchor="middle" x="662" y="-151" font-family="Helvetica,sans-Serif" font-size="10.00">CajaWindowSlot</text>
</a>
</g>
</g>
<!-- Node3&#45;&gt;Node7 -->
<g id="edge53_Node000007_Node000003" class="edge">
<title>Node3&#45;&gt;Node7</title>
<g id="a_edge53_Node000007_Node000003"><a xlink:title=" ">
<path fill="none" stroke="#9a32cd" stroke-dasharray="5,2" d="M408.65,-311.5C426.05,-296.93 452.09,-273.62 471,-250 493.29,-222.15 482.65,-201.28 512,-181 528.21,-169.8 576.36,-162.66 613.79,-158.65"/>
<polygon fill="#9a32cd" stroke="#9a32cd" points="406.37,-308.85 400.88,-317.91 410.82,-314.25 406.37,-308.85"/>
</a>
</g>
<text text-anchor="start" x="485" y="-237.5" font-family="Helvetica,sans-Serif" font-size="10.00" fill="grey">open_callback</text>
</g>
<!-- Node4 -->
<g id="Node000004" class="node">
<title>Node4</title>
<g id="a_Node000004"><a xlink:href="struct__CajaWindowPrivate.html" target="_top" xlink:title=" ">
<polygon fill="white" stroke="#666666" points="340.5,-163 223.5,-163 223.5,-144 340.5,-144 340.5,-163"/>
<text text-anchor="middle" x="282" y="-151" font-family="Helvetica,sans-Serif" font-size="10.00">_CajaWindowPrivate</text>
</a>
</g>
</g>
<!-- Node4&#45;&gt;Node3 -->
<g id="edge3_Node000003_Node000004" class="edge">
<title>Node4&#45;&gt;Node3</title>
<g id="a_edge3_Node000003_Node000004"><a xlink:title=" ">
<path fill="none" stroke="#9a32cd" stroke-dasharray="5,2" d="M279.57,-173.14C277.84,-193.37 277.77,-225.99 291,-250 309.13,-282.92 347.97,-306.28 371.25,-317.97"/>
<polygon fill="#9a32cd" stroke="#9a32cd" points="283.06,-173.39 280.66,-163.07 276.1,-172.63 283.06,-173.39"/>
</a>
</g>
<text text-anchor="start" x="294" y="-237.5" font-family="Helvetica,sans-Serif" font-size="10.00" fill="grey">details</text>
</g>
<!-- Node5 -->
<g id="Node000005" class="node">
<title>Node5</title>
<g id="a_Node000005"><a xlink:href="structCajaBookmarkList.html" target="_top" xlink:title=" ">
<polygon fill="white" stroke="#666666" points="244,-250 138,-250 138,-231 244,-231 244,-250"/>
<text text-anchor="middle" x="191" y="-238" font-family="Helvetica,sans-Serif" font-size="10.00">CajaBookmarkList</text>
</a>
</g>
</g>
<!-- Node5&#45;&gt;Node4 -->
<g id="edge4_Node000004_Node000005" class="edge">
<title>Node5&#45;&gt;Node4</title>
<g id="a_edge4_Node000004_Node000005"><a xlink:title=" ">
<path fill="none" stroke="#9a32cd" stroke-dasharray="5,2" d="M186.09,-221.11C183.89,-208.57 183.43,-192.25 192,-181 199.7,-170.89 211.06,-164.48 223.14,-160.46"/>
<polygon fill="#9a32cd" stroke="#9a32cd" points="182.69,-221.94 188.28,-230.94 189.52,-220.42 182.69,-221.94"/>
</a>
</g>
<text text-anchor="start" x="195" y="-194" font-family="Helvetica,sans-Serif" font-size="10.00" fill="grey">bookmark_list</text>
</g>
<!-- Node6&#45;&gt;Node4 -->
<g id="edge5_Node000004_Node000006" class="edge">
<title>Node6&#45;&gt;Node4</title>
<g id="a_edge5_Node000004_Node000006"><a xlink:title=" ">
<path fill="none" stroke="#9a32cd" stroke-dasharray="5,2" d="M594.22,-228.43C578.5,-224.34 561.3,-219.16 546,-213 518.69,-202 515.98,-190.15 488,-181 439.85,-165.25 382.5,-158.81 340.55,-156.2"/>
<polygon fill="#9a32cd" stroke="#9a32cd" points="593.75,-231.92 604.3,-230.96 595.45,-225.13 593.75,-231.92"/>
</a>
</g>
<text text-anchor="start" x="549" y="-194" font-family="Helvetica,sans-Serif" font-size="10.00" fill="grey">active_pane</text>
</g>
<!-- Node6&#45;&gt;Node7 -->
<g id="edge8_Node000007_Node000006" class="edge">
<title>Node6&#45;&gt;Node7</title>
<g id="a_edge8_Node000007_Node000006"><a xlink:title=" ">
<path fill="none" stroke="#9a32cd" stroke-dasharray="5,2" d="M671.36,-224.82C675.25,-221.46 678.71,-217.52 681,-213 687.42,-200.31 685.35,-194.54 681,-181 678.85,-174.32 674.33,-167.89 670.23,-163.04"/>
<polygon fill="#9a32cd" stroke="#9a32cd" points="669.03,-222.19 663.01,-230.91 673.16,-227.85 669.03,-222.19"/>
</a>
</g>
<text text-anchor="start" x="688.5" y="-194" font-family="Helvetica,sans-Serif" font-size="10.00" fill="grey">pane</text>
</g>
<!-- Node7&#45;&gt;Node6 -->
<g id="edge7_Node000006_Node000007" class="edge">
<title>Node7&#45;&gt;Node6</title>
<g id="a_edge7_Node000006_Node000007"><a xlink:title=" ">
<path fill="none" stroke="#9a32cd" stroke-dasharray="5,2" d="M632.24,-168.47C627.73,-171.91 623.68,-176.07 621,-181 614.2,-193.49 615.88,-199.73 621,-213 623.68,-219.95 629.12,-226.21 634.15,-230.89"/>
<polygon fill="#9a32cd" stroke="#9a32cd" points="634.19,-171.37 640.69,-163.01 630.39,-165.49 634.19,-171.37"/>
</a>
</g>
<text text-anchor="start" x="624" y="-194" font-family="Helvetica,sans-Serif" font-size="10.00" fill="grey">active_slot</text>
</g>
<!-- Node28 -->
<g id="Node000028" class="node">
<title>Node28</title>
<g id="a_Node000028"><a xlink:title=" ">
<polygon fill="white" stroke="#666666" points="625.5,-91 494.5,-91 494.5,-72 625.5,-72 625.5,-91"/>
<text text-anchor="middle" x="560" y="-79" font-family="Helvetica,sans-Serif" font-size="10.00">CajaQueryEditorDetails</text>
</a>
</g>
</g>
<!-- Node7&#45;&gt;Node28 -->
<g id="edge52_Node000028_Node000007" class="edge">
<title>Node7&#45;&gt;Node28</title>
<g id="a_edge52_Node000028_Node000007"><a xlink:title=" ">
<path fill="none" stroke="#9a32cd" stroke-dasharray="5,2" d="M640.79,-138.13C635.01,-134.21 628.76,-129.95 623,-126 605.45,-113.98 585.23,-99.99 572.53,-91.19"/>
<polygon fill="#9a32cd" stroke="#9a32cd" points="639.1,-141.21 649.34,-143.93 643.03,-135.42 639.1,-141.21"/>
</a>
</g>
<text text-anchor="start" x="626.5" y="-114.5" font-family="Helvetica,sans-Serif" font-size="10.00" fill="grey">slot</text>
</g>
<!-- Node8 -->
<g id="Node000008" class="node">
<title>Node8</title>
<g id="a_Node000008"><a xlink:href="structCajaBookmark.html" target="_top" xlink:title=" ">
<polygon fill="white" stroke="#666666" points="902.5,-250 813.5,-250 813.5,-231 902.5,-231 902.5,-250"/>
<text text-anchor="middle" x="858" y="-238" font-family="Helvetica,sans-Serif" font-size="10.00">CajaBookmark</text>
</a>
</g>
</g>
<!-- Node8&#45;&gt;Node7 -->
<g id="edge9_Node000007_Node000008" class="edge">
<title>Node8&#45;&gt;Node7</title>
<g id="a_edge9_Node000007_Node000008"><a xlink:title=" ">
<path fill="none" stroke="#9a32cd" stroke-dasharray="5,2" d="M826.26,-226.96C817.48,-222.97 808.14,-218.23 800,-213 781.71,-201.25 782.24,-191.13 763,-181 746.72,-172.42 727.47,-166.48 710.17,-162.44"/>
<polygon fill="#9a32cd" stroke="#9a32cd" points="824.9,-230.19 835.47,-230.97 827.7,-223.77 824.9,-230.19"/>
</a>
</g>
<text text-anchor="start" x="803" y="-202" font-family="Helvetica,sans-Serif" font-size="10.00" fill="grey">current_location_bookmark</text>
<text text-anchor="start" x="803" y="-187" font-family="Helvetica,sans-Serif" font-size="10.00" fill="grey">last_location_bookmark</text>
</g>
<!-- Node9 -->
<g id="Node000009" class="node">
<title>Node9</title>
<g id="a_Node000009"><a xlink:title=" ">
<polygon fill="white" stroke="#666666" points="925.5,-337 802.5,-337 802.5,-318 925.5,-318 925.5,-337"/>
<text text-anchor="middle" x="864" y="-325" font-family="Helvetica,sans-Serif" font-size="10.00">CajaBookmarkDetails</text>
</a>
</g>
</g>
<!-- Node9&#45;&gt;Node8 -->
<g id="edge10_Node000008_Node000009" class="edge">
<title>Node9&#45;&gt;Node8</title>
<g id="a_edge10_Node000008_Node000009"><a xlink:title=" ">
<path fill="none" stroke="#9a32cd" stroke-dasharray="5,2" d="M862.67,-307.62C861.41,-289.79 859.58,-263.83 858.63,-250.36"/>
<polygon fill="#9a32cd" stroke="#9a32cd" points="859.18,-307.99 863.38,-317.72 866.17,-307.5 859.18,-307.99"/>
</a>
</g>
<text text-anchor="start" x="865" y="-281" font-family="Helvetica,sans-Serif" font-size="10.00" fill="grey">details</text>
</g>
<!-- Node10 -->
<g id="Node000010" class="node">
<title>Node10</title>
<g id="a_Node000010"><a xlink:href="structCajaFile.html" target="_top" xlink:title=" ">
<polygon fill="white" stroke="#666666" points="1730,-454 1674,-454 1674,-435 1730,-435 1730,-454"/>
<text text-anchor="middle" x="1702" y="-442" font-family="Helvetica,sans-Serif" font-size="10.00">CajaFile</text>
</a>
</g>
</g>
<!-- Node10&#45;&gt;Node7 -->
<g id="edge47_Node000007_Node000010" class="edge">
<title>Node10&#45;&gt;Node7</title>
<g id="a_edge47_Node000007_Node000010"><a xlink:title=" ">
<path fill="none" stroke="#9a32cd" stroke-dasharray="5,2" d="M1663.52,-443.06C1504.46,-441.12 904.94,-432.81 868,-417 799.81,-387.82 785.63,-364.5 749,-300 722.12,-252.66 754.68,-222.96 720,-181 713.23,-172.81 703.38,-167.03 693.71,-163.01"/>
<polygon fill="#9a32cd" stroke="#9a32cd" points="1663.73,-446.56 1673.77,-443.18 1663.82,-439.56 1663.73,-446.56"/>
</a>
</g>
<text text-anchor="start" x="752" y="-289" font-family="Helvetica,sans-Serif" font-size="10.00" fill="grey">determine_view_file</text>
<text text-anchor="start" x="752" y="-274" font-family="Helvetica,sans-Serif" font-size="10.00" fill="grey">viewed_file</text>
</g>
<!-- Node10&#45;&gt;Node9 -->
<g id="edge11_Node000009_Node000010" class="edge">
<title>Node10&#45;&gt;Node9</title>
<g id="a_edge11_Node000009_Node000010"><a xlink:title=" ">
<path fill="none" stroke="#9a32cd" stroke-dasharray="5,2" d="M1663.25,-443.21C1509.66,-441.92 950.45,-435.94 918,-417 887.07,-398.94 871.59,-355.48 866.24,-337.02"/>
<polygon fill="#9a32cd" stroke="#9a32cd" points="1663.56,-446.71 1673.59,-443.29 1663.62,-439.71 1663.56,-446.71"/>
</a>
</g>
<text text-anchor="start" x="921" y="-383" font-family="Helvetica,sans-Serif" font-size="10.00" fill="grey">file</text>
</g>
<!-- Node13 -->
<g id="Node000013" class="node">
<title>Node13</title>
<g id="a_Node000013"><a xlink:href="struct__CajaDirectoryPrivate.html" target="_top" xlink:title=" ">
<polygon fill="white" stroke="#666666" points="2046.5,-337 1923.5,-337 1923.5,-318 2046.5,-318 2046.5,-337"/>
<text text-anchor="middle" x="1985" y="-325" font-family="Helvetica,sans-Serif" font-size="10.00">_CajaDirectoryPrivate</text>
</a>
</g>
</g>
<!-- Node10&#45;&gt;Node13 -->
<g id="edge15_Node000013_Node000010" class="edge">
<title>Node10&#45;&gt;Node13</title>
<g id="a_edge15_Node000013_Node000010"><a xlink:title=" ">
<path fill="none" stroke="#9a32cd" stroke-dasharray="5,2" d="M1726.05,-429.68C1759.93,-410.69 1824.04,-376.45 1882,-355 1901.91,-347.63 1924.72,-341.54 1943.81,-337.06"/>
<polygon fill="#9a32cd" stroke="#9a32cd" points="1723.93,-426.87 1716.94,-434.83 1727.37,-432.96 1723.93,-426.87"/>
</a>
</g>
<text text-anchor="start" x="1885.5" y="-406" font-family="Helvetica,sans-Serif" font-size="10.00" fill="grey">as_file</text>
<text text-anchor="start" x="1885.5" y="-391" font-family="Helvetica,sans-Serif" font-size="10.00" fill="grey">deep_count_file</text>
<text text-anchor="start" x="1885.5" y="-376" font-family="Helvetica,sans-Serif" font-size="10.00" fill="grey">extension_info_file</text>
<text text-anchor="start" x="1885.5" y="-361" font-family="Helvetica,sans-Serif" font-size="10.00" fill="grey">get_info_file</text>
</g>
<!-- Node16 -->
<g id="Node000016" class="node">
<title>Node16</title>
<g id="a_Node000016"><a xlink:title=" ">
<polygon fill="white" stroke="#666666" points="1175,-163 1065,-163 1065,-144 1175,-144 1175,-163"/>
<text text-anchor="middle" x="1120" y="-151" font-family="Helvetica,sans-Serif" font-size="10.00">DirectoryLoadState</text>
</a>
</g>
</g>
<!-- Node10&#45;&gt;Node16 -->
<g id="edge20_Node000016_Node000010" class="edge">
<title>Node10&#45;&gt;Node16</title>
<g id="a_edge20_Node000016_Node000010"><a xlink:title=" ">
<path fill="none" stroke="#9a32cd" stroke-dasharray="5,2" d="M1663.7,-443.44C1571.59,-442.94 1339.8,-439.42 1266,-417 1167.47,-387.06 1117.24,-389.33 1066,-300 1038.25,-251.62 1090.68,-186.35 1111.77,-163.13"/>
<polygon fill="#9a32cd" stroke="#9a32cd" points="1663.7,-446.94 1673.72,-443.49 1663.73,-439.94 1663.7,-446.94"/>
</a>
</g>
<text text-anchor="start" x="1069.5" y="-281" font-family="Helvetica,sans-Serif" font-size="10.00" fill="grey">load_directory_file</text>
</g>
<!-- Node17 -->
<g id="Node000017" class="node">
<title>Node17</title>
<g id="a_Node000017"><a xlink:title=" ">
<polygon fill="white" stroke="#666666" points="2529,-163 2413,-163 2413,-144 2529,-144 2529,-163"/>
<text text-anchor="middle" x="2471" y="-151" font-family="Helvetica,sans-Serif" font-size="10.00">DirectoryCountState</text>
</a>
</g>
</g>
<!-- Node10&#45;&gt;Node17 -->
<g id="edge23_Node000017_Node000010" class="edge">
<title>Node10&#45;&gt;Node17</title>
<g id="a_edge23_Node000017_Node000010"><a xlink:title=" ">
<path fill="none" stroke="#9a32cd" stroke-dasharray="5,2" d="M1740.22,-441.99C1871.53,-436.77 2296.95,-419.71 2311,-417 2465.03,-387.27 2497.62,-356.41 2644,-300 2697.53,-279.37 2731.25,-297.78 2763,-250 2767.67,-242.97 2767.86,-237.9 2763,-231 2736.25,-193.04 2606.56,-170.97 2529.3,-160.99"/>
<polygon fill="#9a32cd" stroke="#9a32cd" points="1740.06,-438.49 1730.21,-442.38 1740.34,-445.49 1740.06,-438.49"/>
</a>
</g>
<text text-anchor="start" x="2750" y="-281" font-family="Helvetica,sans-Serif" font-size="10.00" fill="grey">count_file</text>
</g>
<!-- Node19 -->
<g id="Node000019" class="node">
<title>Node19</title>
<g id="a_Node000019"><a xlink:title=" ">
<polygon fill="white" stroke="#666666" points="1337.5,-163 1250.5,-163 1250.5,-144 1337.5,-144 1337.5,-163"/>
<text text-anchor="middle" x="1294" y="-151" font-family="Helvetica,sans-Serif" font-size="10.00">MimeListState</text>
</a>
</g>
</g>
<!-- Node10&#45;&gt;Node19 -->
<g id="edge28_Node000019_Node000010" class="edge">
<title>Node10&#45;&gt;Node19</title>
<g id="a_edge28_Node000019_Node000010"><a xlink:title=" ">
<path fill="none" stroke="#9a32cd" stroke-dasharray="5,2" d="M1663.82,-444.09C1559.57,-443.33 1270.09,-424.95 1154,-250 1124.72,-205.87 1205.83,-176.59 1256.57,-163.09"/>
<polygon fill="#9a32cd" stroke="#9a32cd" points="1663.89,-447.59 1673.89,-444.11 1663.9,-440.59 1663.89,-447.59"/>
</a>
</g>
<text text-anchor="start" x="1198" y="-281" font-family="Helvetica,sans-Serif" font-size="10.00" fill="grey">mime_list_file</text>
</g>
<!-- Node21 -->
<g id="Node000021" class="node">
<title>Node21</title>
<g id="a_Node000021"><a xlink:title=" ">
<polygon fill="white" stroke="#666666" points="2110,-163 2016,-163 2016,-144 2110,-144 2110,-163"/>
<text text-anchor="middle" x="2063" y="-151" font-family="Helvetica,sans-Serif" font-size="10.00">ThumbnailState</text>
</a>
</g>
</g>
<!-- Node10&#45;&gt;Node21 -->
<g id="edge33_Node000021_Node000010" class="edge">
<title>Node10&#45;&gt;Node21</title>
<g id="a_edge33_Node000021_Node000010"><a xlink:title=" ">
<path fill="none" stroke="#9a32cd" stroke-dasharray="5,2" d="M1740.33,-441.7C1835.58,-437.12 2076.47,-424.83 2092,-417 2184.87,-370.18 2277.72,-325.37 2234,-231 2212.53,-184.67 2153.08,-166.39 2110.31,-159.19"/>
<polygon fill="#9a32cd" stroke="#9a32cd" points="1740.07,-438.21 1730.25,-442.18 1740.41,-445.2 1740.07,-438.21"/>
</a>
</g>
<text text-anchor="start" x="2248" y="-281" font-family="Helvetica,sans-Serif" font-size="10.00" fill="grey">file</text>
</g>
<!-- Node22 -->
<g id="Node000022" class="node">
<title>Node22</title>
<g id="a_Node000022"><a xlink:title=" ">
<polygon fill="white" stroke="#666666" points="2221.5,-163 2148.5,-163 2148.5,-144 2221.5,-144 2221.5,-163"/>
<text text-anchor="middle" x="2185" y="-151" font-family="Helvetica,sans-Serif" font-size="10.00">MountState</text>
</a>
</g>
</g>
<!-- Node10&#45;&gt;Node22 -->
<g id="edge36_Node000022_Node000010" class="edge">
<title>Node10&#45;&gt;Node22</title>
<g id="a_edge36_Node000022_Node000010"><a xlink:title=" ">
<path fill="none" stroke="#9a32cd" stroke-dasharray="5,2" d="M1740.36,-442.03C1842.84,-437.99 2117.93,-426.42 2158,-417 2341.95,-373.76 2444.88,-407.69 2549,-250 2567.96,-221.28 2492.51,-192.8 2452,-181 2367.59,-156.4 2342.43,-172.3 2255,-163 2244.17,-161.85 2232.4,-160.47 2221.67,-159.16"/>
<polygon fill="#9a32cd" stroke="#9a32cd" points="1740.01,-438.54 1730.15,-442.43 1740.28,-445.54 1740.01,-438.54"/>
</a>
</g>
<text text-anchor="start" x="2537" y="-281" font-family="Helvetica,sans-Serif" font-size="10.00" fill="grey">file</text>
</g>
<!-- Node23 -->
<g id="Node000023" class="node">
<title>Node23</title>
<g id="a_Node000023"><a xlink:title=" ">
<polygon fill="white" stroke="#666666" points="2697,-163 2583,-163 2583,-144 2697,-144 2697,-163"/>
<text text-anchor="middle" x="2640" y="-151" font-family="Helvetica,sans-Serif" font-size="10.00">FilesystemInfoState</text>
</a>
</g>
</g>
<!-- Node10&#45;&gt;Node23 -->
<g id="edge39_Node000023_Node000010" class="edge">
<title>Node10&#45;&gt;Node23</title>
<g id="a_edge39_Node000023_Node000010"><a xlink:title=" ">
<path fill="none" stroke="#9a32cd" stroke-dasharray="5,2" d="M1740.17,-442.09C1785.97,-440.41 1865.1,-437.49 1933,-435 2042.33,-430.99 2317.13,-435.25 2425,-417 2599.24,-387.52 2673.18,-417.69 2805,-300 2846.42,-263.02 2879.63,-222.72 2843,-181 2824.33,-159.73 2750.33,-154.67 2697.07,-153.88"/>
<polygon fill="#9a32cd" stroke="#9a32cd" points="1739.96,-438.6 1730.09,-442.46 1740.21,-445.59 1739.96,-438.6"/>
</a>
</g>
<text text-anchor="start" x="2839" y="-281" font-family="Helvetica,sans-Serif" font-size="10.00" fill="grey">file</text>
</g>
<!-- Node24 -->
<g id="Node000024" class="node">
<title>Node24</title>
<g id="a_Node000024"><a xlink:title=" ">
<polygon fill="white" stroke="#666666" points="1744,-163 1622,-163 1622,-144 1744,-144 1744,-163"/>
<text text-anchor="middle" x="1683" y="-151" font-family="Helvetica,sans-Serif" font-size="10.00">TopLeftTextReadState</text>
</a>
</g>
</g>
<!-- Node10&#45;&gt;Node24 -->
<g id="edge42_Node000024_Node000010" class="edge">
<title>Node10&#45;&gt;Node24</title>
<g id="a_edge42_Node000024_Node000010"><a xlink:title=" ">
<path fill="none" stroke="#9a32cd" stroke-dasharray="5,2" d="M1663.89,-435.95C1650.08,-431.92 1634.95,-425.89 1623,-417 1550.09,-362.75 1532.51,-336.62 1505,-250 1502.44,-241.95 1499.9,-237.73 1505,-231 1522.84,-207.45 1541.5,-223.8 1569,-213 1606.27,-198.37 1647.49,-175.39 1668.68,-163.04"/>
<polygon fill="#9a32cd" stroke="#9a32cd" points="1663.08,-439.36 1673.64,-438.54 1664.88,-432.59 1663.08,-439.36"/>
</a>
</g>
<text text-anchor="start" x="1525" y="-281" font-family="Helvetica,sans-Serif" font-size="10.00" fill="grey">file</text>
</g>
<!-- Node25 -->
<g id="Node000025" class="node">
<title>Node25</title>
<g id="a_Node000025"><a xlink:title=" ">
<polygon fill="white" stroke="#666666" points="1872,-163 1766,-163 1766,-144 1872,-144 1872,-163"/>
<text text-anchor="middle" x="1819" y="-151" font-family="Helvetica,sans-Serif" font-size="10.00">LinkInfoReadState</text>
</a>
</g>
</g>
<!-- Node10&#45;&gt;Node25 -->
<g id="edge45_Node000025_Node000010" class="edge">
<title>Node10&#45;&gt;Node25</title>
<g id="a_edge45_Node000025_Node000010"><a xlink:title=" ">
<path fill="none" stroke="#9a32cd" stroke-dasharray="5,2" d="M1694.62,-425.08C1679.92,-385.03 1652.05,-288.97 1697,-231 1716.68,-205.61 1739.58,-229.73 1767,-213 1788.11,-200.12 1805.49,-175.98 1813.77,-163.11"/>
<polygon fill="#9a32cd" stroke="#9a32cd" points="1691.43,-426.52 1698.27,-434.61 1697.97,-424.02 1691.43,-426.52"/>
</a>
</g>
<text text-anchor="start" x="1681" y="-281" font-family="Helvetica,sans-Serif" font-size="10.00" fill="grey">file</text>
</g>
<!-- Node11 -->
<g id="Node000011" class="node">
<title>Node11</title>
<g id="a_Node000011"><a xlink:href="struct__CajaFilePrivate.html" target="_top" xlink:title=" ">
<polygon fill="white" stroke="#666666" points="2957.5,-163 2862.5,-163 2862.5,-144 2957.5,-144 2957.5,-163"/>
<text text-anchor="middle" x="2910" y="-151" font-family="Helvetica,sans-Serif" font-size="10.00">_CajaFilePrivate</text>
</a>
</g>
</g>
<!-- Node11&#45;&gt;Node10 -->
<g id="edge12_Node000010_Node000011" class="edge">
<title>Node11&#45;&gt;Node10</title>
<g id="a_edge12_Node000010_Node000011"><a xlink:title=" ">
<path fill="none" stroke="#9a32cd" stroke-dasharray="5,2" d="M2967.57,-157.45C3003.69,-160.64 3045.52,-167.27 3057,-181 3076.72,-204.59 3071.31,-226.08 3052,-250 2914.86,-419.89 2804.52,-376.38 2590,-417 2446.49,-444.17 2078.98,-430.31 1933,-435 1859.8,-437.35 1773.57,-440.67 1730.09,-442.38"/>
<polygon fill="#9a32cd" stroke="#9a32cd" points="2967.82,-153.96 2957.57,-156.64 2967.25,-160.93 2967.82,-153.96"/>
</a>
</g>
<text text-anchor="start" x="3039" y="-281" font-family="Helvetica,sans-Serif" font-size="10.00" fill="grey">details</text>
</g>
<!-- Node12 -->
<g id="Node000012" class="node">
<title>Node12</title>
<g id="a_Node000012"><a xlink:href="structCajaDirectory.html" target="_top" xlink:title=" ">
<polygon fill="white" stroke="#666666" points="2026.5,-250 1943.5,-250 1943.5,-231 2026.5,-231 2026.5,-250"/>
<text text-anchor="middle" x="1985" y="-238" font-family="Helvetica,sans-Serif" font-size="10.00">CajaDirectory</text>
</a>
</g>
</g>
<!-- Node12&#45;&gt;Node11 -->
<g id="edge13_Node000011_Node000012" class="edge">
<title>Node12&#45;&gt;Node11</title>
<g id="a_edge13_Node000011_Node000012"><a xlink:title=" ">
<path fill="none" stroke="#9a32cd" stroke-dasharray="5,2" d="M2036.54,-231.44C2038.04,-231.28 2039.53,-231.13 2041,-231 2298.72,-207.54 2365.95,-242.95 2623,-213 2716.19,-202.14 2824.13,-176.55 2877.15,-163.1"/>
<polygon fill="#9a32cd" stroke="#9a32cd" points="2036.04,-227.97 2026.52,-232.63 2036.87,-234.93 2036.04,-227.97"/>
</a>
</g>
<text text-anchor="start" x="2804" y="-194" font-family="Helvetica,sans-Serif" font-size="10.00" fill="grey">directory</text>
</g>
<!-- Node12&#45;&gt;Node16 -->
<g id="edge19_Node000016_Node000012" class="edge">
<title>Node12&#45;&gt;Node16</title>
<g id="a_edge19_Node000016_Node000012"><a xlink:title=" ">
<path fill="none" stroke="#9a32cd" stroke-dasharray="5,2" d="M1933.46,-231.44C1931.96,-231.28 1930.47,-231.13 1929,-231 1682.79,-208.41 1618.16,-245 1373,-213 1290.3,-202.2 1195,-176.46 1148.5,-163.01"/>
<polygon fill="#9a32cd" stroke="#9a32cd" points="1933.13,-234.93 1943.48,-232.64 1933.96,-227.98 1933.13,-234.93"/>
</a>
</g>
<text text-anchor="start" x="1376" y="-194" font-family="Helvetica,sans-Serif" font-size="10.00" fill="grey">directory</text>
</g>
<!-- Node12&#45;&gt;Node17 -->
<g id="edge22_Node000017_Node000012" class="edge">
<title>Node12&#45;&gt;Node17</title>
<g id="a_edge22_Node000017_Node000012"><a xlink:title=" ">
<path fill="none" stroke="#9a32cd" stroke-dasharray="5,2" d="M2036.55,-231.51C2038.05,-231.33 2039.53,-231.16 2041,-231 2158.35,-218.13 2190.41,-236.95 2306,-213 2334.2,-207.16 2411.06,-177.91 2449.09,-163.11"/>
<polygon fill="#9a32cd" stroke="#9a32cd" points="2036.01,-228.05 2026.54,-232.8 2036.91,-234.99 2036.01,-228.05"/>
</a>
</g>
<text text-anchor="start" x="2401" y="-194" font-family="Helvetica,sans-Serif" font-size="10.00" fill="grey">directory</text>
</g>
<!-- Node18 -->
<g id="Node000018" class="node">
<title>Node18</title>
<g id="a_Node000018"><a xlink:title=" ">
<polygon fill="white" stroke="#666666" points="1569,-163 1473,-163 1473,-144 1569,-144 1569,-163"/>
<text text-anchor="middle" x="1521" y="-151" font-family="Helvetica,sans-Serif" font-size="10.00">DeepCountState</text>
</a>
</g>
</g>
<!-- Node12&#45;&gt;Node18 -->
<g id="edge25_Node000018_Node000012" class="edge">
<title>Node12&#45;&gt;Node18</title>
<g id="a_edge25_Node000018_Node000012"><a xlink:title=" ">
<path fill="none" stroke="#9a32cd" stroke-dasharray="5,2" d="M1933.45,-231.54C1931.95,-231.35 1930.46,-231.17 1929,-231 1834.65,-219.87 1809.33,-230.74 1716,-213 1652.28,-200.89 1579.72,-176.08 1543.73,-163"/>
<polygon fill="#9a32cd" stroke="#9a32cd" points="1933.08,-235.02 1943.45,-232.88 1934,-228.09 1933.08,-235.02"/>
</a>
</g>
<text text-anchor="start" x="1719" y="-194" font-family="Helvetica,sans-Serif" font-size="10.00" fill="grey">directory</text>
</g>
<!-- Node12&#45;&gt;Node19 -->
<g id="edge27_Node000019_Node000012" class="edge">
<title>Node12&#45;&gt;Node19</title>
<g id="a_edge27_Node000019_Node000012"><a xlink:title=" ">
<path fill="none" stroke="#9a32cd" stroke-dasharray="5,2" d="M1933.46,-231.47C1931.96,-231.3 1930.47,-231.15 1929,-231 1758.98,-214.16 1713.78,-239.52 1545,-213 1491.32,-204.57 1479.9,-193.43 1427,-181 1397.32,-174.03 1363.63,-167.33 1337.59,-162.41"/>
<polygon fill="#9a32cd" stroke="#9a32cd" points="1933.12,-234.96 1943.47,-232.71 1933.97,-228.01 1933.12,-234.96"/>
</a>
</g>
<text text-anchor="start" x="1548" y="-194" font-family="Helvetica,sans-Serif" font-size="10.00" fill="grey">directory</text>
</g>
<!-- Node20 -->
<g id="Node000020" class="node">
<title>Node20</title>
<g id="a_Node000020"><a xlink:title=" ">
<polygon fill="white" stroke="#666666" points="2342,-163 2264,-163 2264,-144 2342,-144 2342,-163"/>
<text text-anchor="middle" x="2303" y="-151" font-family="Helvetica,sans-Serif" font-size="10.00">GetInfoState</text>
</a>
</g>
</g>
<!-- Node12&#45;&gt;Node20 -->
<g id="edge30_Node000020_Node000012" class="edge">
<title>Node12&#45;&gt;Node20</title>
<g id="a_edge30_Node000020_Node000012"><a xlink:title=" ">
<path fill="none" stroke="#9a32cd" stroke-dasharray="5,2" d="M2036.56,-231.64C2038.06,-231.42 2039.54,-231.21 2041,-231 2100.48,-222.49 2117.27,-229.67 2175,-213 2217.96,-200.6 2264.91,-176.03 2288.19,-163.03"/>
<polygon fill="#9a32cd" stroke="#9a32cd" points="2035.96,-228.19 2026.58,-233.11 2036.98,-235.12 2035.96,-228.19"/>
</a>
</g>
<text text-anchor="start" x="2255" y="-194" font-family="Helvetica,sans-Serif" font-size="10.00" fill="grey">directory</text>
</g>
<!-- Node12&#45;&gt;Node21 -->
<g id="edge32_Node000021_Node000012" class="edge">
<title>Node12&#45;&gt;Node21</title>
<g id="a_edge32_Node000021_Node000012"><a xlink:title=" ">
<path fill="none" stroke="#9a32cd" stroke-dasharray="5,2" d="M1985.22,-220.61C1986.32,-208.06 1989.66,-191.95 1999,-181 2006.03,-172.77 2016.02,-167.05 2026.03,-163.09"/>
<polygon fill="#9a32cd" stroke="#9a32cd" points="1981.71,-220.72 1984.74,-230.87 1988.71,-221.05 1981.71,-220.72"/>
</a>
</g>
<text text-anchor="start" x="2002" y="-194" font-family="Helvetica,sans-Serif" font-size="10.00" fill="grey">directory</text>
</g>
<!-- Node12&#45;&gt;Node22 -->
<g id="edge35_Node000022_Node000012" class="edge">
<title>Node12&#45;&gt;Node22</title>
<g id="a_edge35_Node000022_Node000012"><a xlink:title=" ">
<path fill="none" stroke="#9a32cd" stroke-dasharray="5,2" d="M2017.62,-227.31C2028.89,-222.96 2041.56,-217.91 2053,-213 2083.69,-199.82 2090.45,-194.5 2121,-181 2135.08,-174.78 2151.08,-168.15 2163.56,-163.08"/>
<polygon fill="#9a32cd" stroke="#9a32cd" points="2016.23,-224.09 2008.14,-230.93 2018.73,-230.63 2016.23,-224.09"/>
</a>
</g>
<text text-anchor="start" x="2124" y="-194" font-family="Helvetica,sans-Serif" font-size="10.00" fill="grey">directory</text>
</g>
<!-- Node12&#45;&gt;Node23 -->
<g id="edge38_Node000023_Node000012" class="edge">
<title>Node12&#45;&gt;Node23</title>
<g id="a_edge38_Node000023_Node000012"><a xlink:title=" ">
<path fill="none" stroke="#9a32cd" stroke-dasharray="5,2" d="M2036.54,-231.46C2038.04,-231.3 2039.53,-231.14 2041,-231 2222.98,-213.26 2271.88,-244.42 2452,-213 2514.13,-202.16 2584.35,-176.56 2618.74,-163.1"/>
<polygon fill="#9a32cd" stroke="#9a32cd" points="2036.03,-228 2026.53,-232.69 2036.88,-234.95 2036.03,-228"/>
</a>
</g>
<text text-anchor="start" x="2572" y="-194" font-family="Helvetica,sans-Serif" font-size="10.00" fill="grey">directory</text>
</g>
<!-- Node12&#45;&gt;Node24 -->
<g id="edge41_Node000024_Node000012" class="edge">
<title>Node12&#45;&gt;Node24</title>
<g id="a_edge41_Node000024_Node000012"><a xlink:title=" ">
<path fill="none" stroke="#9a32cd" stroke-dasharray="5,2" d="M1933.25,-230.48C1901.73,-224.78 1864.61,-217.63 1849,-213 1812.69,-202.22 1805.71,-193.64 1770,-181 1751.39,-174.41 1730.22,-167.94 1713.41,-163.04"/>
<polygon fill="#9a32cd" stroke="#9a32cd" points="1932.79,-233.95 1943.25,-232.27 1934.03,-227.06 1932.79,-233.95"/>
</a>
</g>
<text text-anchor="start" x="1852" y="-194" font-family="Helvetica,sans-Serif" font-size="10.00" fill="grey">directory</text>
</g>
<!-- Node12&#45;&gt;Node25 -->
<g id="edge44_Node000025_Node000012" class="edge">
<title>Node12&#45;&gt;Node25</title>
<g id="a_edge44_Node000025_Node000012"><a xlink:title=" ">
<path fill="none" stroke="#9a32cd" stroke-dasharray="5,2" d="M1954.47,-226.65C1946.8,-222.78 1938.82,-218.17 1932,-213 1916.71,-201.4 1919.16,-191.36 1903,-181 1890.38,-172.91 1875.12,-167.13 1861.08,-163.08"/>
<polygon fill="#9a32cd" stroke="#9a32cd" points="1953.04,-229.84 1963.57,-230.98 1956.05,-223.52 1953.04,-229.84"/>
</a>
</g>
<text text-anchor="start" x="1935" y="-194" font-family="Helvetica,sans-Serif" font-size="10.00" fill="grey">directory</text>
</g>
<!-- Node13&#45;&gt;Node12 -->
<g id="edge14_Node000012_Node000013" class="edge">
<title>Node13&#45;&gt;Node12</title>
<g id="a_edge14_Node000012_Node000013"><a xlink:title=" ">
<path fill="none" stroke="#9a32cd" stroke-dasharray="5,2" d="M1985,-307.62C1985,-289.79 1985,-263.83 1985,-250.36"/>
<polygon fill="#9a32cd" stroke="#9a32cd" points="1981.5,-307.72 1985,-317.72 1988.5,-307.72 1981.5,-307.72"/>
</a>
</g>
<text text-anchor="start" x="1988" y="-281" font-family="Helvetica,sans-Serif" font-size="10.00" fill="grey">details</text>
</g>
<!-- Node14 -->
<g id="Node000014" class="node">
<title>Node14</title>
<g id="a_Node000014"><a xlink:title=" ">
<polygon fill="white" stroke="#666666" points="2028.5,-454 1941.5,-454 1941.5,-435 2028.5,-435 2028.5,-454"/>
<text text-anchor="middle" x="1985" y="-442" font-family="Helvetica,sans-Serif" font-size="10.00">CajaFileQueue</text>
</a>
</g>
</g>
<!-- Node14&#45;&gt;Node13 -->
<g id="edge16_Node000013_Node000014" class="edge">
<title>Node14&#45;&gt;Node13</title>
<g id="a_edge16_Node000013_Node000014"><a xlink:title=" ">
<path fill="none" stroke="#9a32cd" stroke-dasharray="5,2" d="M1985,-424.75C1985,-399.56 1985,-355.82 1985,-337.24"/>
<polygon fill="#9a32cd" stroke="#9a32cd" points="1981.5,-424.86 1985,-434.86 1988.5,-424.86 1981.5,-424.86"/>
</a>
</g>
<text text-anchor="start" x="1988.5" y="-398" font-family="Helvetica,sans-Serif" font-size="10.00" fill="grey">extension_queue</text>
<text text-anchor="start" x="1988.5" y="-383" font-family="Helvetica,sans-Serif" font-size="10.00" fill="grey">high_priority_queue</text>
<text text-anchor="start" x="1988.5" y="-368" font-family="Helvetica,sans-Serif" font-size="10.00" fill="grey">low_priority_queue</text>
</g>
<!-- Node15 -->
<g id="Node000015" class="node">
<title>Node15</title>
<g id="a_Node000015"><a xlink:title=" ">
<polygon fill="white" stroke="#666666" points="3142,-454 3066,-454 3066,-435 3142,-435 3142,-454"/>
<text text-anchor="middle" x="3104" y="-442" font-family="Helvetica,sans-Serif" font-size="10.00">CajaMonitor</text>
</a>
</g>
</g>
<!-- Node15&#45;&gt;Node13 -->
<g id="edge17_Node000013_Node000015" class="edge">
<title>Node15&#45;&gt;Node13</title>
<g id="a_edge17_Node000013_Node000015"><a xlink:title=" ">
<path fill="none" stroke="#9a32cd" stroke-dasharray="5,2" d="M3055.61,-438.53C2875.86,-420.05 2246.73,-355.4 2046.61,-334.83"/>
<polygon fill="#9a32cd" stroke="#9a32cd" points="3055.5,-442.03 3065.81,-439.57 3056.22,-435.07 3055.5,-442.03"/>
</a>
</g>
<text text-anchor="start" x="2836.5" y="-383" font-family="Helvetica,sans-Serif" font-size="10.00" fill="grey">monitor</text>
</g>
<!-- Node16&#45;&gt;Node13 -->
<g id="edge18_Node000013_Node000016" class="edge">
<title>Node16&#45;&gt;Node13</title>
<g id="a_edge18_Node000013_Node000016"><a xlink:title=" ">
<path fill="none" stroke="#9a32cd" stroke-dasharray="5,2" d="M1126.34,-172.71C1134.79,-194.31 1151.79,-229.91 1178,-250 1241.18,-298.43 1271.44,-287.14 1350,-300 1459.02,-317.85 1786.03,-323.99 1923.28,-325.82"/>
<polygon fill="#9a32cd" stroke="#9a32cd" points="1129.54,-171.27 1122.79,-163.1 1122.98,-173.7 1129.54,-171.27"/>
</a>
</g>
<text text-anchor="start" x="1181" y="-237.5" font-family="Helvetica,sans-Serif" font-size="10.00" fill="grey">directory_load_in_progress</text>
</g>
<!-- Node17&#45;&gt;Node13 -->
<g id="edge21_Node000013_Node000017" class="edge">
<title>Node17&#45;&gt;Node13</title>
<g id="a_edge21_Node000013_Node000017"><a xlink:title=" ">
<path fill="none" stroke="#9a32cd" stroke-dasharray="5,2" d="M2468.94,-173.08C2465.67,-194.25 2457.41,-228.65 2437,-250 2400.17,-288.52 2379.59,-286.63 2328,-300 2276.54,-313.34 2130.82,-320.94 2046.79,-324.33"/>
<polygon fill="#9a32cd" stroke="#9a32cd" points="2472.42,-173.48 2470.26,-163.11 2465.48,-172.56 2472.42,-173.48"/>
</a>
</g>
<text text-anchor="start" x="2453.5" y="-237.5" font-family="Helvetica,sans-Serif" font-size="10.00" fill="grey">count_in_progress</text>
</g>
<!-- Node18&#45;&gt;Node13 -->
<g id="edge24_Node000013_Node000018" class="edge">
<title>Node18&#45;&gt;Node13</title>
<g id="a_edge24_Node000013_Node000018"><a xlink:title=" ">
<path fill="none" stroke="#9a32cd" stroke-dasharray="5,2" d="M1504.4,-171.1C1502.19,-174.17 1500.26,-177.52 1499,-181 1494.17,-194.38 1492.64,-200.28 1499,-213 1527.82,-270.64 1554.63,-277.45 1615,-300 1669.75,-320.45 1832.85,-325.22 1923.14,-326.27"/>
<polygon fill="#9a32cd" stroke="#9a32cd" points="1507.24,-173.17 1511.03,-163.28 1501.9,-168.64 1507.24,-173.17"/>
</a>
</g>
<text text-anchor="start" x="1525" y="-237.5" font-family="Helvetica,sans-Serif" font-size="10.00" fill="grey">deep_count_in_progress</text>
</g>
<!-- Node19&#45;&gt;Node13 -->
<g id="edge26_Node000013_Node000019" class="edge">
<title>Node19&#45;&gt;Node13</title>
<g id="a_edge26_Node000013_Node000019"><a xlink:title=" ">
<path fill="none" stroke="#9a32cd" stroke-dasharray="5,2" d="M1295.36,-173.41C1296.97,-185.51 1300.45,-201.11 1308,-213 1341.24,-265.32 1358.99,-278.16 1417,-300 1463.34,-317.45 1785.9,-323.82 1923.27,-325.77"/>
<polygon fill="#9a32cd" stroke="#9a32cd" points="1298.81,-172.71 1294.33,-163.11 1291.85,-173.41 1298.81,-172.71"/>
</a>
</g>
<text text-anchor="start" x="1337.5" y="-237.5" font-family="Helvetica,sans-Serif" font-size="10.00" fill="grey">mime_list_in_progress</text>
</g>
<!-- Node20&#45;&gt;Node13 -->
<g id="edge29_Node000013_Node000020" class="edge">
<title>Node20&#45;&gt;Node13</title>
<g id="a_edge29_Node000013_Node000020"><a xlink:title=" ">
<path fill="none" stroke="#9a32cd" stroke-dasharray="5,2" d="M2310.54,-172.52C2321.97,-203.07 2339.16,-265.08 2307,-300 2289.76,-318.72 2135.11,-324.22 2046.56,-325.83"/>
<polygon fill="#9a32cd" stroke="#9a32cd" points="2313.75,-171.14 2306.82,-163.12 2307.24,-173.71 2313.75,-171.14"/>
</a>
</g>
<text text-anchor="start" x="2328" y="-237.5" font-family="Helvetica,sans-Serif" font-size="10.00" fill="grey">get_info_in_progress</text>
</g>
<!-- Node21&#45;&gt;Node13 -->
<g id="edge31_Node000013_Node000021" class="edge">
<title>Node21&#45;&gt;Node13</title>
<g id="a_edge31_Node000013_Node000021"><a xlink:title=" ">
<path fill="none" stroke="#9a32cd" stroke-dasharray="5,2" d="M2063.11,-173.58C2062.34,-203.36 2057.03,-261.49 2029,-300 2023.33,-307.79 2014.62,-313.72 2006.43,-317.98"/>
<polygon fill="#9a32cd" stroke="#9a32cd" points="2066.61,-173.36 2063.21,-163.33 2059.61,-173.29 2066.61,-173.36"/>
</a>
</g>
<text text-anchor="start" x="2059" y="-237.5" font-family="Helvetica,sans-Serif" font-size="10.00" fill="grey">thumbnail_state</text>
</g>
<!-- Node22&#45;&gt;Node13 -->
<g id="edge34_Node000013_Node000022" class="edge">
<title>Node22&#45;&gt;Node13</title>
<g id="a_edge34_Node000013_Node000022"><a xlink:title=" ">
<path fill="none" stroke="#9a32cd" stroke-dasharray="5,2" d="M2182.3,-173.13C2180.17,-184.91 2176.61,-200.25 2171,-213 2163.01,-231.17 2160.78,-236.76 2146,-250 2107.16,-284.79 2049.7,-306.93 2014.96,-317.99"/>
<polygon fill="#9a32cd" stroke="#9a32cd" points="2185.78,-173.57 2183.92,-163.14 2178.87,-172.45 2185.78,-173.57"/>
</a>
</g>
<text text-anchor="start" x="2165" y="-237.5" font-family="Helvetica,sans-Serif" font-size="10.00" fill="grey">mount_state</text>
</g>
<!-- Node23&#45;&gt;Node13 -->
<g id="edge37_Node000013_Node000023" class="edge">
<title>Node23&#45;&gt;Node13</title>
<g id="a_edge37_Node000013_Node000023"><a xlink:title=" ">
<path fill="none" stroke="#9a32cd" stroke-dasharray="5,2" d="M2644.03,-173.06C2649.63,-204.45 2655.45,-267.76 2620,-300 2599.02,-319.08 2202.06,-324.61 2046.65,-326.04"/>
<polygon fill="#9a32cd" stroke="#9a32cd" points="2647.43,-172.18 2642.05,-163.05 2640.56,-173.54 2647.43,-172.18"/>
</a>
</g>
<text text-anchor="start" x="2650" y="-237.5" font-family="Helvetica,sans-Serif" font-size="10.00" fill="grey">filesystem_info_state</text>
</g>
<!-- Node24&#45;&gt;Node13 -->
<g id="edge40_Node000013_Node000024" class="edge">
<title>Node24&#45;&gt;Node13</title>
<g id="a_edge40_Node000013_Node000024"><a xlink:title=" ">
<path fill="none" stroke="#9a32cd" stroke-dasharray="5,2" d="M1684.26,-173.3C1686.74,-194.95 1694.12,-230.08 1716,-250 1773.18,-302.05 1863.32,-318.94 1923.28,-324.28"/>
<polygon fill="#9a32cd" stroke="#9a32cd" points="1687.73,-172.74 1683.34,-163.1 1680.75,-173.37 1687.73,-172.74"/>
</a>
</g>
<text text-anchor="start" x="1719" y="-237.5" font-family="Helvetica,sans-Serif" font-size="10.00" fill="grey">top_left_read_state</text>
</g>
<!-- Node25&#45;&gt;Node13 -->
<g id="edge43_Node000013_Node000025" class="edge">
<title>Node25&#45;&gt;Node13</title>
<g id="a_edge43_Node000013_Node000025"><a xlink:title=" ">
<path fill="none" stroke="#9a32cd" stroke-dasharray="5,2" d="M1815.97,-173.12C1813.66,-193.8 1813.14,-227.28 1829,-250 1855.68,-288.21 1906.98,-308.16 1943.46,-317.98"/>
<polygon fill="#9a32cd" stroke="#9a32cd" points="1819.46,-173.47 1817.35,-163.09 1812.52,-172.52 1819.46,-173.47"/>
</a>
</g>
<text text-anchor="start" x="1832" y="-237.5" font-family="Helvetica,sans-Serif" font-size="10.00" fill="grey">link_info_read_state</text>
</g>
<!-- Node26 -->
<g id="Node000026" class="node">
<title>Node26</title>
<g id="a_Node000026"><a xlink:href="structCajaFileSortByEmblemCache.html" target="_top" xlink:title=" ">
<polygon fill="white" stroke="#666666" points="3043,-250 2885,-250 2885,-231 3043,-231 3043,-250"/>
<text text-anchor="middle" x="2964" y="-238" font-family="Helvetica,sans-Serif" font-size="10.00">CajaFileSortByEmblemCache</text>
</a>
</g>
</g>
<!-- Node26&#45;&gt;Node11 -->
<g id="edge46_Node000011_Node000026" class="edge">
<title>Node26&#45;&gt;Node11</title>
<g id="a_edge46_Node000011_Node000026"><a xlink:title=" ">
<path fill="none" stroke="#9a32cd" stroke-dasharray="5,2" d="M2924.21,-225.91C2918.98,-222.48 2914.3,-218.24 2911,-213 2901.36,-197.7 2904.64,-175.4 2907.54,-163.22"/>
<polygon fill="#9a32cd" stroke="#9a32cd" points="2922.93,-229.19 2933.38,-230.92 2926.29,-223.05 2922.93,-229.19"/>
</a>
</g>
<text text-anchor="start" x="2914" y="-194" font-family="Helvetica,sans-Serif" font-size="10.00" fill="grey">compare_by_emblem_cache</text>
</g>
<!-- Node27 -->
<g id="Node000027" class="node">
<title>Node27</title>
<g id="a_Node000027"><a xlink:href="structCajaQueryEditor.html" target="_top" xlink:title=" ">
<polygon fill="white" stroke="#666666" points="659,-19 563,-19 563,0 659,0 659,-19"/>
<text text-anchor="middle" x="611" y="-7" font-family="Helvetica,sans-Serif" font-size="10.00">CajaQueryEditor</text>
</a>
</g>
</g>
<!-- Node27&#45;&gt;Node7 -->
<g id="edge48_Node000007_Node000027" class="edge">
<title>Node27&#45;&gt;Node7</title>
<g id="a_edge48_Node000007_Node000027"><a xlink:title=" ">
<path fill="none" stroke="#9a32cd" stroke-dasharray="5,2" d="M628.17,-26.96C630.75,-30.09 633.16,-33.5 635,-37 654.22,-73.66 659.9,-123.95 661.46,-143.87"/>
<polygon fill="#9a32cd" stroke="#9a32cd" points="630.55,-24.38 621.2,-19.4 625.41,-29.13 630.55,-24.38"/>
</a>
</g>
<text text-anchor="start" x="656" y="-78.5" font-family="Helvetica,sans-Serif" font-size="10.00" fill="grey">query_editor</text>
</g>
<!-- Node28&#45;&gt;Node27 -->
<g id="edge49_Node000027_Node000028" class="edge">
<title>Node28&#45;&gt;Node27</title>
<g id="a_edge49_Node000027_Node000028"><a xlink:title=" ">
<path fill="none" stroke="#9a32cd" stroke-dasharray="5,2" d="M572.3,-63.62C582.52,-49.59 596.64,-30.21 604.7,-19.15"/>
<polygon fill="#9a32cd" stroke="#9a32cd" points="569.31,-61.77 566.25,-71.92 574.97,-65.9 569.31,-61.77"/>
</a>
</g>
<text text-anchor="start" x="594" y="-42.5" font-family="Helvetica,sans-Serif" font-size="10.00" fill="grey">details</text>
</g>
<!-- Node29 -->
<g id="Node000029" class="node">
<title>Node29</title>
<g id="a_Node000029"><a xlink:href="structCajaSearchBar.html" target="_top" xlink:title=" ">
<polygon fill="white" stroke="#666666" points="522,-163 434,-163 434,-144 522,-144 522,-163"/>
<text text-anchor="middle" x="478" y="-151" font-family="Helvetica,sans-Serif" font-size="10.00">CajaSearchBar</text>
</a>
</g>
</g>
<!-- Node29&#45;&gt;Node28 -->
<g id="edge50_Node000028_Node000029" class="edge">
<title>Node29&#45;&gt;Node28</title>
<g id="a_edge50_Node000028_Node000029"><a xlink:title=" ">
<path fill="none" stroke="#9a32cd" stroke-dasharray="5,2" d="M495.93,-137.19C512.46,-123.08 536.42,-102.63 549.86,-91.15"/>
<polygon fill="#9a32cd" stroke="#9a32cd" points="493.39,-134.76 488.05,-143.92 497.93,-140.09 493.39,-134.76"/>
</a>
</g>
<text text-anchor="start" x="531" y="-114.5" font-family="Helvetica,sans-Serif" font-size="10.00" fill="grey">bar</text>
</g>
<!-- Node30 -->
<g id="Node000030" class="node">
<title>Node30</title>
<g id="a_Node000030"><a xlink:title=" ">
<polygon fill="white" stroke="#666666" points="462,-250 340,-250 340,-231 462,-231 462,-250"/>
<text text-anchor="middle" x="401" y="-238" font-family="Helvetica,sans-Serif" font-size="10.00">CajaSearchBarDetails</text>
</a>
</g>
</g>
<!-- Node30&#45;&gt;Node29 -->
<g id="edge51_Node000029_Node000030" class="edge">
<title>Node30&#45;&gt;Node29</title>
<g id="a_edge51_Node000029_Node000030"><a xlink:title=" ">
<path fill="none" stroke="#9a32cd" stroke-dasharray="5,2" d="M411.83,-222.26C419.92,-210.07 431.66,-193.69 444,-181 450.47,-174.35 458.65,-167.92 465.36,-163.06"/>
<polygon fill="#9a32cd" stroke="#9a32cd" points="408.67,-220.7 406.19,-231 414.55,-224.5 408.67,-220.7"/>
</a>
</g>
<text text-anchor="start" x="447" y="-194" font-family="Helvetica,sans-Serif" font-size="10.00" fill="grey">details</text>
</g>
<!-- Node31 -->
<g id="Node000031" class="node">
<title>Node31</title>
<g id="a_Node000031"><a xlink:href="structCajaApplication.html" target="_top" xlink:title=" ">
<polygon fill="white" stroke="#666666" points="436.5,-454 343.5,-454 343.5,-435 436.5,-435 436.5,-454"/>
<text text-anchor="middle" x="390" y="-442" font-family="Helvetica,sans-Serif" font-size="10.00">CajaApplication</text>
</a>
</g>
</g>
<!-- Node31&#45;&gt;Node3 -->
<g id="edge54_Node000003_Node000031" class="edge">
<title>Node31&#45;&gt;Node3</title>
<g id="a_edge54_Node000003_Node000031"><a xlink:title=" ">
<path fill="none" stroke="#9a32cd" stroke-dasharray="5,2" d="M390,-424.75C390,-399.56 390,-355.82 390,-337.24"/>
<polygon fill="#9a32cd" stroke="#9a32cd" points="386.5,-424.86 390,-434.86 393.5,-424.86 386.5,-424.86"/>
</a>
</g>
<text text-anchor="start" x="393.5" y="-383" font-family="Helvetica,sans-Serif" font-size="10.00" fill="grey">application</text>
</g>
<!-- Node32 -->
<g id="Node000032" class="node">
<title>Node32</title>
<g id="a_Node000032"><a xlink:title=" ">
<polygon fill="white" stroke="#666666" points="393.5,-526 260.5,-526 260.5,-507 393.5,-507 393.5,-526"/>
<text text-anchor="middle" x="327" y="-514" font-family="Helvetica,sans-Serif" font-size="10.00">_CajaApplicationPrivate</text>
</a>
</g>
</g>
<!-- Node32&#45;&gt;Node31 -->
<g id="edge55_Node000031_Node000032" class="edge">
<title>Node32&#45;&gt;Node31</title>
<g id="a_edge55_Node000031_Node000032"><a xlink:title=" ">
<path fill="none" stroke="#9a32cd" stroke-dasharray="5,2" d="M341.48,-499.41C354.15,-485.33 372.07,-465.42 382.21,-454.15"/>
<polygon fill="#9a32cd" stroke="#9a32cd" points="338.81,-497.14 334.73,-506.92 344.02,-501.83 338.81,-497.14"/>
</a>
</g>
<text text-anchor="start" x="369.5" y="-477.5" font-family="Helvetica,sans-Serif" font-size="10.00" fill="grey">priv</text>
</g>
<!-- Node33 -->
<g id="Node000033" class="node">
<title>Node33</title>
<g id="a_Node000033"><a xlink:href="struct__EggSMClient.html" target="_top" xlink:title=" ">
<polygon fill="white" stroke="#666666" points="494.5,-526 411.5,-526 411.5,-507 494.5,-507 494.5,-526"/>
<text text-anchor="middle" x="453" y="-514" font-family="Helvetica,sans-Serif" font-size="10.00">_EggSMClient</text>
</a>
</g>
</g>
<!-- Node33&#45;&gt;Node31 -->
<g id="edge56_Node000031_Node000033" class="edge">
<title>Node33&#45;&gt;Node31</title>
<g id="a_edge56_Node000031_Node000033"><a xlink:title=" ">
<path fill="none" stroke="#9a32cd" stroke-dasharray="5,2" d="M438.52,-499.41C425.85,-485.33 407.93,-465.42 397.79,-454.15"/>
<polygon fill="#9a32cd" stroke="#9a32cd" points="435.98,-501.83 445.27,-506.92 441.19,-497.14 435.98,-501.83"/>
</a>
</g>
<text text-anchor="start" x="431.5" y="-477.5" font-family="Helvetica,sans-Serif" font-size="10.00" fill="grey">smclient</text>
</g>
</g>
</svg>
