<?xml version="1.0" encoding="UTF-8" standalone="no"?>
<!DOCTYPE svg PUBLIC "-//W3C//DTD SVG 1.1//EN"
 "http://www.w3.org/Graphics/SVG/1.1/DTD/svg11.dtd">
<!-- Generated by graphviz version 2.43.0 (0)
 -->
<!-- Title: BaseAssistant Pages: 1 -->
<svg width="501pt" height="171pt"
 viewBox="0.00 0.00 501.00 171.00" xmlns="http://www.w3.org/2000/svg" xmlns:xlink="http://www.w3.org/1999/xlink">
<g id="graph0" class="graph" transform="scale(1 1) rotate(0) translate(4 167)">
<title>BaseAssistant</title>
<!-- Node1 -->
<g id="Node000001" class="node">
<title>Node1</title>
<g id="a_Node000001"><a xlink:title=" ">
<polygon fill="#999999" stroke="#666666" points="137.5,-19 51.5,-19 51.5,0 137.5,0 137.5,-19"/>
<text text-anchor="middle" x="94.5" y="-7" font-family="Helvetica,sans-Serif" font-size="10.00">BaseAssistant</text>
</a>
</g>
</g>
<!-- Node2 -->
<g id="Node000002" class="node">
<title>Node2</title>
<g id="a_Node000002"><a xlink:href="structBaseWindow.html" target="_top" xlink:title=" ">
<polygon fill="white" stroke="#666666" points="227.5,-91 147.5,-91 147.5,-72 227.5,-72 227.5,-91"/>
<text text-anchor="middle" x="187.5" y="-79" font-family="Helvetica,sans-Serif" font-size="10.00">BaseWindow</text>
</a>
</g>
</g>
<!-- Node2&#45;&gt;Node1 -->
<g id="edge1_Node000001_Node000002" class="edge">
<title>Node2&#45;&gt;Node1</title>
<g id="a_edge1_Node000001_Node000002"><a xlink:title=" ">
<path fill="none" stroke="#9a32cd" stroke-dasharray="5,2" d="M151.03,-67.92C142.83,-64.16 134.5,-59.53 127.5,-54 115.15,-44.24 104.94,-28.85 99.29,-19.23"/>
<polygon fill="#9a32cd" stroke="#9a32cd" points="149.93,-71.25 160.5,-71.93 152.66,-64.81 149.93,-71.25"/>
</a>
</g>
<text text-anchor="start" x="130.5" y="-42.5" font-family="Helvetica,sans-Serif" font-size="10.00" fill="grey">parent</text>
</g>
<!-- Node3 -->
<g id="Node000003" class="node">
<title>Node3</title>
<g id="a_Node000003"><a xlink:title=" ">
<polygon fill="white" stroke="#666666" points="340,-19 221,-19 221,0 340,0 340,-19"/>
<text text-anchor="middle" x="280.5" y="-7" font-family="Helvetica,sans-Serif" font-size="10.00">_BaseWindowPrivate</text>
</a>
</g>
</g>
<!-- Node2&#45;&gt;Node3 -->
<g id="edge3_Node000003_Node000002" class="edge">
<title>Node2&#45;&gt;Node3</title>
<g id="a_edge3_Node000003_Node000002"><a xlink:title=" ">
<path fill="none" stroke="#9a32cd" stroke-dasharray="5,2" d="M181.05,-62.12C179.3,-53.69 179.15,-44.03 184.5,-37 193.35,-25.38 206.82,-18.54 220.89,-14.59"/>
<polygon fill="#9a32cd" stroke="#9a32cd" points="177.72,-63.2 183.83,-71.86 184.45,-61.28 177.72,-63.2"/>
</a>
</g>
<text text-anchor="start" x="187.5" y="-42.5" font-family="Helvetica,sans-Serif" font-size="10.00" fill="grey">parent</text>
</g>
<!-- Node3&#45;&gt;Node2 -->
<g id="edge2_Node000002_Node000003" class="edge">
<title>Node3&#45;&gt;Node2</title>
<g id="a_edge2_Node000002_Node000003"><a xlink:title=" ">
<path fill="none" stroke="#9a32cd" stroke-dasharray="5,2" d="M260.29,-25.36C255.39,-29.08 250.21,-33.12 245.5,-37 236.75,-44.2 235.43,-47.02 226.5,-54 218.37,-60.35 208.8,-66.87 201.17,-71.85"/>
<polygon fill="#9a32cd" stroke="#9a32cd" points="262.74,-27.89 268.65,-19.1 258.55,-22.29 262.74,-27.89"/>
</a>
</g>
<text text-anchor="start" x="249" y="-42.5" font-family="Helvetica,sans-Serif" font-size="10.00" fill="grey">private</text>
</g>
<!-- Node4 -->
<g id="Node000004" class="node">
<title>Node4</title>
<g id="a_Node000004"><a xlink:href="structBaseApplication.html" target="_top" xlink:title=" ">
<polygon fill="white" stroke="#666666" points="350,-91 255,-91 255,-72 350,-72 350,-91"/>
<text text-anchor="middle" x="302.5" y="-79" font-family="Helvetica,sans-Serif" font-size="10.00">BaseApplication</text>
</a>
</g>
</g>
<!-- Node4&#45;&gt;Node3 -->
<g id="edge4_Node000003_Node000004" class="edge">
<title>Node4&#45;&gt;Node3</title>
<g id="a_edge4_Node000003_Node000004"><a xlink:title=" ">
<path fill="none" stroke="#9a32cd" stroke-dasharray="5,2" d="M297.78,-61.92C295.7,-54.17 293.14,-45.1 290.5,-37 288.55,-31.02 286.05,-24.39 284.04,-19.26"/>
<polygon fill="#9a32cd" stroke="#9a32cd" points="294.43,-62.97 300.34,-71.76 301.21,-61.2 294.43,-62.97"/>
</a>
</g>
<text text-anchor="start" x="300" y="-42.5" font-family="Helvetica,sans-Serif" font-size="10.00" fill="grey">application</text>
</g>
<!-- Node5 -->
<g id="Node000005" class="node">
<title>Node5</title>
<g id="a_Node000005"><a xlink:title=" ">
<polygon fill="white" stroke="#666666" points="360,-163 225,-163 225,-144 360,-144 360,-163"/>
<text text-anchor="middle" x="292.5" y="-151" font-family="Helvetica,sans-Serif" font-size="10.00">_BaseApplicationPrivate</text>
</a>
</g>
</g>
<!-- Node5&#45;&gt;Node4 -->
<g id="edge5_Node000004_Node000005" class="edge">
<title>Node5&#45;&gt;Node4</title>
<g id="a_edge5_Node000004_Node000005"><a xlink:title=" ">
<path fill="none" stroke="#9a32cd" stroke-dasharray="5,2" d="M295.14,-133.99C297.12,-120.13 299.74,-101.79 301.26,-91.15"/>
<polygon fill="#9a32cd" stroke="#9a32cd" points="291.68,-133.52 293.73,-143.92 298.61,-134.51 291.68,-133.52"/>
</a>
</g>
<text text-anchor="start" x="303" y="-114.5" font-family="Helvetica,sans-Serif" font-size="10.00" fill="grey">private</text>
</g>
<!-- Node6 -->
<g id="Node000006" class="node">
<title>Node6</title>
<g id="a_Node000006"><a xlink:href="structBaseBuilder.html" target="_top" xlink:title=" ">
<polygon fill="white" stroke="#666666" points="453,-91 378,-91 378,-72 453,-72 453,-91"/>
<text text-anchor="middle" x="415.5" y="-79" font-family="Helvetica,sans-Serif" font-size="10.00">BaseBuilder</text>
</a>
</g>
</g>
<!-- Node6&#45;&gt;Node3 -->
<g id="edge6_Node000003_Node000006" class="edge">
<title>Node6&#45;&gt;Node3</title>
<g id="a_edge6_Node000003_Node000006"><a xlink:title=" ">
<path fill="none" stroke="#9a32cd" stroke-dasharray="5,2" d="M399.06,-64.62C388.9,-55.51 375.22,-44.45 361.5,-37 347.32,-29.31 330.54,-23.36 315.93,-19.07"/>
<polygon fill="#9a32cd" stroke="#9a32cd" points="396.97,-67.46 406.68,-71.68 401.73,-62.32 396.97,-67.46"/>
</a>
</g>
<text text-anchor="start" x="387.5" y="-42.5" font-family="Helvetica,sans-Serif" font-size="10.00" fill="grey">builder</text>
</g>
<!-- Node7 -->
<g id="Node000007" class="node">
<title>Node7</title>
<g id="a_Node000007"><a xlink:title=" ">
<polygon fill="white" stroke="#666666" points="493,-163 378,-163 378,-144 493,-144 493,-163"/>
<text text-anchor="middle" x="435.5" y="-151" font-family="Helvetica,sans-Serif" font-size="10.00">_BaseBuilderPrivate</text>
</a>
</g>
</g>
<!-- Node7&#45;&gt;Node6 -->
<g id="edge7_Node000006_Node000007" class="edge">
<title>Node7&#45;&gt;Node6</title>
<g id="a_edge7_Node000006_Node000007"><a xlink:title=" ">
<path fill="none" stroke="#9a32cd" stroke-dasharray="5,2" d="M430.21,-133.99C426.25,-120.13 421.01,-101.79 417.97,-91.15"/>
<polygon fill="#9a32cd" stroke="#9a32cd" points="426.93,-135.26 433.05,-143.92 433.67,-133.34 426.93,-135.26"/>
</a>
</g>
<text text-anchor="start" x="431" y="-114.5" font-family="Helvetica,sans-Serif" font-size="10.00" fill="grey">private</text>
</g>
<!-- Node8 -->
<g id="Node000008" class="node">
<title>Node8</title>
<g id="a_Node000008"><a xlink:title=" ">
<polygon fill="white" stroke="#666666" points="125,-91 0,-91 0,-72 125,-72 125,-91"/>
<text text-anchor="middle" x="62.5" y="-79" font-family="Helvetica,sans-Serif" font-size="10.00">_BaseAssistantPrivate</text>
</a>
</g>
</g>
<!-- Node8&#45;&gt;Node1 -->
<g id="edge8_Node000001_Node000008" class="edge">
<title>Node8&#45;&gt;Node1</title>
<g id="a_edge8_Node000001_Node000008"><a xlink:title=" ">
<path fill="none" stroke="#9a32cd" stroke-dasharray="5,2" d="M59.63,-61.54C59.25,-53.61 59.93,-44.51 63.5,-37 66.96,-29.71 73.49,-23.66 79.66,-19.18"/>
<polygon fill="#9a32cd" stroke="#9a32cd" points="56.17,-62.1 60.68,-71.68 63.13,-61.38 56.17,-62.1"/>
</a>
</g>
<text text-anchor="start" x="67" y="-42.5" font-family="Helvetica,sans-Serif" font-size="10.00" fill="grey">private</text>
</g>
</g>
</svg>
