<?xml version="1.0" encoding="UTF-8" standalone="no"?>
<!DOCTYPE svg PUBLIC "-//W3C//DTD SVG 1.1//EN"
 "http://www.w3.org/Graphics/SVG/1.1/DTD/svg11.dtd">
<!-- Generated by graphviz version 2.43.0 (0)
 -->
<!-- Title: parser_state Pages: 1 -->
<svg width="448pt" height="214pt"
 viewBox="0.00 0.00 448.00 214.00" xmlns="http://www.w3.org/2000/svg" xmlns:xlink="http://www.w3.org/1999/xlink">
<g id="graph0" class="graph" transform="scale(1 1) rotate(0) translate(4 210)">
<title>parser_state</title>
<!-- Node1 -->
<g id="Node000001" class="node">
<title>Node1</title>
<g id="a_Node000001"><a xlink:title=" ">
<polygon fill="#999999" stroke="#666666" points="356.5,-134 279.5,-134 279.5,-115 356.5,-115 356.5,-134"/>
<text text-anchor="middle" x="318" y="-122" font-family="Helvetica,sans-Serif" font-size="10.00">parser_state</text>
</a>
</g>
</g>
<!-- Node2 -->
<g id="Node000002" class="node">
<title>Node2</title>
<g id="a_Node000002"><a xlink:href="structparse__node.html" target="_top" xlink:title=" ">
<polygon fill="white" stroke="#666666" points="381.5,-33 308.5,-33 308.5,-14 381.5,-14 381.5,-33"/>
<text text-anchor="middle" x="345" y="-21" font-family="Helvetica,sans-Serif" font-size="10.00">parse_node</text>
</a>
</g>
</g>
<!-- Node1&#45;&gt;Node2 -->
<g id="edge4_Node000002_Node000001" class="edge">
<title>Node1&#45;&gt;Node2</title>
<g id="a_edge4_Node000002_Node000001"><a xlink:title=" ">
<path fill="none" stroke="#9a32cd" stroke-dasharray="5,2" d="M323.09,-104.82C328.95,-83.36 338.31,-49.04 342.65,-33.12"/>
<polygon fill="#9a32cd" stroke="#9a32cd" points="319.65,-104.15 320.4,-114.71 326.4,-105.99 319.65,-104.15"/>
</a>
</g>
<text text-anchor="start" x="336.5" y="-78" font-family="Helvetica,sans-Serif" font-size="10.00" fill="grey">state</text>
</g>
<!-- Node4 -->
<g id="Node000004" class="node">
<title>Node4</title>
<g id="a_Node000004"><a xlink:href="structLexerState.html" target="_top" xlink:title=" ">
<polygon fill="white" stroke="#666666" points="176,-33 108,-33 108,-14 176,-14 176,-33"/>
<text text-anchor="middle" x="142" y="-21" font-family="Helvetica,sans-Serif" font-size="10.00">LexerState</text>
</a>
</g>
</g>
<!-- Node1&#45;&gt;Node4 -->
<g id="edge8_Node000004_Node000001" class="edge">
<title>Node1&#45;&gt;Node4</title>
<g id="a_edge8_Node000004_Node000001"><a xlink:title=" ">
<path fill="none" stroke="#9a32cd" stroke-dasharray="5,2" d="M269.25,-117C229.82,-111.36 179.63,-103.16 172,-97 161.61,-88.62 149.54,-50.57 144.46,-33.2"/>
<polygon fill="#9a32cd" stroke="#9a32cd" points="268.88,-120.49 279.27,-118.42 269.86,-113.55 268.88,-120.49"/>
</a>
</g>
<text text-anchor="start" x="175" y="-78" font-family="Helvetica,sans-Serif" font-size="10.00" fill="grey">parent</text>
</g>
<!-- Node2&#45;&gt;Node1 -->
<g id="edge1_Node000001_Node000002" class="edge">
<title>Node2&#45;&gt;Node1</title>
<g id="a_edge1_Node000001_Node000002"><a xlink:title=" ">
<path fill="none" stroke="#9a32cd" stroke-dasharray="5,2" d="M361.36,-41.02C374.36,-56.22 388.6,-79.07 377,-97 371.63,-105.3 362.98,-111.02 353.94,-114.96"/>
<polygon fill="#9a32cd" stroke="#9a32cd" points="363.76,-38.46 354.43,-33.44 358.59,-43.18 363.76,-38.46"/>
</a>
</g>
<text text-anchor="start" x="384.5" y="-86" font-family="Helvetica,sans-Serif" font-size="10.00" fill="grey">right_most</text>
<text text-anchor="start" x="384.5" y="-71" font-family="Helvetica,sans-Serif" font-size="10.00" fill="grey">root</text>
</g>
<!-- Node2&#45;&gt;Node2 -->
<g id="edge2_Node000002_Node000002" class="edge">
<title>Node2&#45;&gt;Node2</title>
<g id="a_edge2_Node000002_Node000002"><a xlink:title=" ">
<path fill="none" stroke="#9a32cd" stroke-dasharray="5,2" d="M378.4,-34C390.06,-34.13 399.5,-30.64 399.5,-23.5 399.5,-14.37 384.04,-11.19 368.24,-13.97"/>
<polygon fill="#9a32cd" stroke="#9a32cd" points="378.53,-30.49 368.24,-33.03 377.87,-37.46 378.53,-30.49"/>
</a>
</g>
<text text-anchor="start" x="402.5" y="-35.5" font-family="Helvetica,sans-Serif" font-size="10.00" fill="grey">left</text>
<text text-anchor="start" x="402.5" y="-20.5" font-family="Helvetica,sans-Serif" font-size="10.00" fill="grey">parent</text>
<text text-anchor="start" x="402.5" y="-5.5" font-family="Helvetica,sans-Serif" font-size="10.00" fill="grey">right</text>
</g>
<!-- Node3 -->
<g id="Node000003" class="node">
<title>Node3</title>
<g id="a_Node000003"><a xlink:href="structLexerToken.html" target="_top" xlink:title=" ">
<polygon fill="white" stroke="#666666" points="231.5,-134 160.5,-134 160.5,-115 231.5,-115 231.5,-134"/>
<text text-anchor="middle" x="196" y="-122" font-family="Helvetica,sans-Serif" font-size="10.00">LexerToken</text>
</a>
</g>
</g>
<!-- Node3&#45;&gt;Node2 -->
<g id="edge3_Node000002_Node000003" class="edge">
<title>Node3&#45;&gt;Node2</title>
<g id="a_edge3_Node000002_Node000003"><a xlink:title=" ">
<path fill="none" stroke="#9a32cd" stroke-dasharray="5,2" d="M206.95,-105.91C217.1,-89.8 231.19,-68 235,-65 256.41,-48.11 285.55,-37.81 308.45,-31.82"/>
<polygon fill="#9a32cd" stroke="#9a32cd" points="203.87,-104.22 201.53,-114.56 209.81,-107.94 203.87,-104.22"/>
</a>
</g>
<text text-anchor="start" x="238" y="-78" font-family="Helvetica,sans-Serif" font-size="10.00" fill="grey">token</text>
</g>
<!-- Node3&#45;&gt;Node4 -->
<g id="edge7_Node000004_Node000003" class="edge">
<title>Node3&#45;&gt;Node4</title>
<g id="a_edge7_Node000004_Node000003"><a xlink:title=" ">
<path fill="none" stroke="#9a32cd" stroke-dasharray="5,2" d="M150.13,-119.61C135.58,-115.96 120.96,-109.22 112,-97 97.02,-76.57 119.64,-47.55 133.14,-33.21"/>
<polygon fill="#9a32cd" stroke="#9a32cd" points="149.61,-123.08 160.12,-121.69 151.03,-116.23 149.61,-123.08"/>
</a>
</g>
<text text-anchor="start" x="115.5" y="-78" font-family="Helvetica,sans-Serif" font-size="10.00" fill="grey">tokens</text>
</g>
<!-- Node4&#45;&gt;Node1 -->
<g id="edge5_Node000001_Node000004" class="edge">
<title>Node4&#45;&gt;Node1</title>
<g id="a_edge5_Node000001_Node000004"><a xlink:title=" ">
<path fill="none" stroke="#9a32cd" stroke-dasharray="5,2" d="M186.2,-30.97C212.34,-36.55 244.92,-46.72 269,-65 282.55,-75.29 279.08,-83.95 290,-97 295.41,-103.47 302.28,-109.99 307.86,-114.94"/>
<polygon fill="#9a32cd" stroke="#9a32cd" points="186.66,-27.49 176.17,-28.98 185.3,-34.36 186.66,-27.49"/>
</a>
</g>
<text text-anchor="start" x="293.5" y="-78" font-family="Helvetica,sans-Serif" font-size="10.00" fill="grey">lexer</text>
</g>
<!-- Node5 -->
<g id="Node000005" class="node">
<title>Node5</title>
<g id="a_Node000005"><a xlink:href="structPreLexerState.html" target="_top" xlink:title=" ">
<polygon fill="white" stroke="#666666" points="84,-134 0,-134 0,-115 84,-115 84,-134"/>
<text text-anchor="middle" x="42" y="-122" font-family="Helvetica,sans-Serif" font-size="10.00">PreLexerState</text>
</a>
</g>
</g>
<!-- Node5&#45;&gt;Node4 -->
<g id="edge6_Node000004_Node000005" class="edge">
<title>Node5&#45;&gt;Node4</title>
<g id="a_edge6_Node000004_Node000005"><a xlink:title=" ">
<path fill="none" stroke="#9a32cd" stroke-dasharray="5,2" d="M43.15,-104.74C44.79,-92.25 48.72,-76.15 58,-65 71.05,-49.32 91.6,-39.27 109.11,-33.1"/>
<polygon fill="#9a32cd" stroke="#9a32cd" points="39.64,-104.66 42.19,-114.94 46.61,-105.32 39.64,-104.66"/>
</a>
</g>
<text text-anchor="start" x="61" y="-78" font-family="Helvetica,sans-Serif" font-size="10.00" fill="grey">prelexer</text>
</g>
<!-- Node6 -->
<g id="Node000006" class="node">
<title>Node6</title>
<g id="a_Node000006"><a xlink:href="structMPEquationOptions.html" target="_top" xlink:title=" ">
<polygon fill="white" stroke="#666666" points="319,-206 207,-206 207,-187 319,-187 319,-206"/>
<text text-anchor="middle" x="263" y="-194" font-family="Helvetica,sans-Serif" font-size="10.00">MPEquationOptions</text>
</a>
</g>
</g>
<!-- Node6&#45;&gt;Node1 -->
<g id="edge9_Node000001_Node000006" class="edge">
<title>Node6&#45;&gt;Node1</title>
<g id="a_edge9_Node000001_Node000006"><a xlink:title=" ">
<path fill="none" stroke="#9a32cd" stroke-dasharray="5,2" d="M275.95,-179.01C286.99,-164.96 302.43,-145.32 311.2,-134.15"/>
<polygon fill="#9a32cd" stroke="#9a32cd" points="273.17,-176.89 269.74,-186.92 278.67,-181.22 273.17,-176.89"/>
</a>
</g>
<text text-anchor="start" x="301.5" y="-157.5" font-family="Helvetica,sans-Serif" font-size="10.00" fill="grey">options</text>
</g>
<!-- Node7 -->
<g id="Node000007" class="node">
<title>Node7</title>
<g id="a_Node000007"><a xlink:href="structMPNumber.html" target="_top" xlink:title=" ">
<polygon fill="white" stroke="#666666" points="408.5,-206 337.5,-206 337.5,-187 408.5,-187 408.5,-206"/>
<text text-anchor="middle" x="373" y="-194" font-family="Helvetica,sans-Serif" font-size="10.00">MPNumber</text>
</a>
</g>
</g>
<!-- Node7&#45;&gt;Node1 -->
<g id="edge10_Node000001_Node000007" class="edge">
<title>Node7&#45;&gt;Node1</title>
<g id="a_edge10_Node000001_Node000007"><a xlink:title=" ">
<path fill="none" stroke="#9a32cd" stroke-dasharray="5,2" d="M363,-178.04C357.99,-169.84 351.6,-160.11 345,-152 339.77,-145.58 333.15,-139.06 327.77,-134.1"/>
<polygon fill="#9a32cd" stroke="#9a32cd" points="360.06,-179.95 368.16,-186.78 366.08,-176.39 360.06,-179.95"/>
</a>
</g>
<text text-anchor="start" x="359" y="-157.5" font-family="Helvetica,sans-Serif" font-size="10.00" fill="grey">ret</text>
</g>
</g>
</svg>
