<?xml version="1.0" encoding="UTF-8" standalone="no"?>
<!DOCTYPE svg PUBLIC "-//W3C//DTD SVG 1.1//EN"
 "http://www.w3.org/Graphics/SVG/1.1/DTD/svg11.dtd">
<!-- Generated by graphviz version 2.43.0 (0)
 -->
<!-- Title: _CactTreeModelPrivate Pages: 1 -->
<!--zoomable 315 -->

<svg id="main" version="1.1" xmlns="http://www.w3.org/2000/svg" xmlns:xlink="http://www.w3.org/1999/xlink" xml:space="preserve" onload="init(evt)">

<style type="text/css"><![CDATA[
.node, .edge {opacity: 0.7;}
.node.selected, .edge.selected {opacity: 1;}
.edge:hover path { stroke: red; }
.edge:hover polygon { stroke: red; fill: red; }
]]></style>

<defs>
  <circle id="rim" cx="0" cy="0" r="7"/>
  <circle id="rim2" cx="0" cy="0" r="3.5"/>
  <g id="zoomPlus">
    <use xlink:href="#rim" fill="#404040"><set attributeName="fill" to="#808080" begin="zoomplus.mouseover" end="zoomplus.mouseout"/></use>
    <path d="M-4,0h8M0,-4v8" fill="none" stroke="white" stroke-width="1.5" pointer-events="none"/>
  </g>
  <g id="zoomMin">
    <use xlink:href="#rim" fill="#404040"><set attributeName="fill" to="#808080" begin="zoomminus.mouseover" end="zoomminus.mouseout"/></use>
    <path d="M-4,0h8" fill="none" stroke="white" stroke-width="1.5" pointer-events="none"/>
  </g>
  <g id="arrowUp" transform="translate(30 24)">
    <use xlink:href="#rim"/>
    <path pointer-events="none" fill="none" stroke="white" stroke-width="1.5" d="M0,-3.0v7 M-2.5,-0.5L0,-3.0L2.5,-0.5"/>
  </g>
  <g id="arrowRight" transform="rotate(90) translate(36 -43)">
    <use xlink:href="#rim"/>
    <path pointer-events="none" fill="none" stroke="white" stroke-width="1.5" d="M0,-3.0v7 M-2.5,-0.5L0,-3.0L2.5,-0.5"/>
  </g>
  <g id="arrowDown" transform="rotate(180) translate(-30 -48)">
    <use xlink:href="#rim"/>
    <path pointer-events="none" fill="none" stroke="white" stroke-width="1.5" d="M0,-3.0v7 M-2.5,-0.5L0,-3.0L2.5,-0.5"/>
  </g>
  <g id="arrowLeft" transform="rotate(270) translate(-36 17)">
    <use xlink:href="#rim"/>
    <path pointer-events="none" fill="none" stroke="white" stroke-width="1.5" d="M0,-3.0v7 M-2.5,-0.5L0,-3.0L2.5,-0.5"/>
  </g>
  <g id="resetDef">
    <use xlink:href="#rim2" fill="#404040"><set attributeName="fill" to="#808080" begin="reset.mouseover" end="reset.mouseout"/></use>
  </g>
</defs>
<script type="application/ecmascript">
var viewWidth = 546;
var viewHeight = 315;
var sectionId = 'dynsection-0';
</script>
<script type="application/ecmascript" xlink:href="svg.min.js"/>
<svg id="graph" class="graph">
<g id="viewport">
<title>_CactTreeModelPrivate</title>
<!-- Node1 -->
<g id="Node000001" class="node">
<title>Node1</title>
<g id="a_Node000001"><a xlink:title=" ">
<polygon fill="#999999" stroke="#666666" points="221,-19 93,-19 93,0 221,0 221,-19"/>
<text text-anchor="middle" x="157" y="-7" font-family="Helvetica,sans-Serif" font-size="10.00">_CactTreeModelPrivate</text>
</a>
</g>
</g>
<!-- Node2 -->
<g id="Node000002" class="node">
<title>Node2</title>
<g id="a_Node000002"><a xlink:href="structBaseWindow.html" target="_top" xlink:title=" ">
<polygon fill="white" stroke="#666666" points="248,-235 168,-235 168,-216 248,-216 248,-235"/>
<text text-anchor="middle" x="208" y="-223" font-family="Helvetica,sans-Serif" font-size="10.00">BaseWindow</text>
</a>
</g>
</g>
<!-- Node2&#45;&gt;Node1 -->
<g id="edge1_Node000001_Node000002" class="edge">
<title>Node2&#45;&gt;Node1</title>
<g id="a_edge1_Node000001_Node000002"><a xlink:title=" ">
<path fill="none" stroke="#9a32cd" stroke-dasharray="5,2" d="M208.34,-205.67C208.28,-170.8 204.89,-94.47 179,-37 176.05,-30.46 171.04,-24.23 166.54,-19.45"/>
<polygon fill="#9a32cd" stroke="#9a32cd" points="204.84,-205.79 208.26,-215.82 211.84,-205.85 204.84,-205.79"/>
</a>
</g>
<text text-anchor="start" x="206" y="-114.5" font-family="Helvetica,sans-Serif" font-size="10.00" fill="grey">window</text>
</g>
<!-- Node3 -->
<g id="Node000003" class="node">
<title>Node3</title>
<g id="a_Node000003"><a xlink:title=" ">
<polygon fill="white" stroke="#666666" points="378.5,-163 259.5,-163 259.5,-144 378.5,-144 378.5,-163"/>
<text text-anchor="middle" x="319" y="-151" font-family="Helvetica,sans-Serif" font-size="10.00">_BaseWindowPrivate</text>
</a>
</g>
</g>
<!-- Node2&#45;&gt;Node3 -->
<g id="edge3_Node000003_Node000002" class="edge">
<title>Node2&#45;&gt;Node3</title>
<g id="a_edge3_Node000003_Node000002"><a xlink:title=" ">
<path fill="none" stroke="#9a32cd" stroke-dasharray="5,2" d="M210.38,-205.86C212.4,-197.22 216.12,-187.46 223,-181 232.96,-171.65 245.91,-165.55 259.06,-161.58"/>
<polygon fill="#9a32cd" stroke="#9a32cd" points="206.9,-205.42 208.63,-215.87 213.8,-206.62 206.9,-205.42"/>
</a>
</g>
<text text-anchor="start" x="226" y="-186.5" font-family="Helvetica,sans-Serif" font-size="10.00" fill="grey">parent</text>
</g>
<!-- Node9 -->
<g id="Node000009" class="node">
<title>Node9</title>
<g id="a_Node000009"><a xlink:title=" ">
<polygon fill="white" stroke="#666666" points="164.5,-163 39.5,-163 39.5,-144 164.5,-144 164.5,-163"/>
<text text-anchor="middle" x="102" y="-151" font-family="Helvetica,sans-Serif" font-size="10.00">_CactClipboardPrivate</text>
</a>
</g>
</g>
<!-- Node2&#45;&gt;Node9 -->
<g id="edge10_Node000009_Node000002" class="edge">
<title>Node2&#45;&gt;Node9</title>
<g id="a_edge10_Node000009_Node000002"><a xlink:title=" ">
<path fill="none" stroke="#9a32cd" stroke-dasharray="5,2" d="M162.33,-212.49C152.78,-208.76 143.14,-204 135,-198 122.18,-188.55 111.97,-172.77 106.47,-163.04"/>
<polygon fill="#9a32cd" stroke="#9a32cd" points="161.21,-215.8 171.81,-215.88 163.57,-209.21 161.21,-215.8"/>
</a>
</g>
<text text-anchor="start" x="138" y="-186.5" font-family="Helvetica,sans-Serif" font-size="10.00" fill="grey">window</text>
</g>
<!-- Node3&#45;&gt;Node2 -->
<g id="edge2_Node000002_Node000003" class="edge">
<title>Node3&#45;&gt;Node2</title>
<g id="a_edge2_Node000002_Node000003"><a xlink:title=" ">
<path fill="none" stroke="#9a32cd" stroke-dasharray="5,2" d="M298.79,-169.36C293.89,-173.08 288.71,-177.12 284,-181 275.25,-188.2 274.46,-191.77 265,-198 254.16,-205.14 241.08,-211.37 230.18,-215.99"/>
<polygon fill="#9a32cd" stroke="#9a32cd" points="301.24,-171.89 307.15,-163.1 297.05,-166.29 301.24,-171.89"/>
</a>
</g>
<text text-anchor="start" x="287.5" y="-186.5" font-family="Helvetica,sans-Serif" font-size="10.00" fill="grey">private</text>
</g>
<!-- Node4 -->
<g id="Node000004" class="node">
<title>Node4</title>
<g id="a_Node000004"><a xlink:href="structBaseApplication.html" target="_top" xlink:title=" ">
<polygon fill="white" stroke="#666666" points="501.5,-235 406.5,-235 406.5,-216 501.5,-216 501.5,-235"/>
<text text-anchor="middle" x="454" y="-223" font-family="Helvetica,sans-Serif" font-size="10.00">BaseApplication</text>
</a>
</g>
</g>
<!-- Node4&#45;&gt;Node3 -->
<g id="edge4_Node000003_Node000004" class="edge">
<title>Node4&#45;&gt;Node3</title>
<g id="a_edge4_Node000003_Node000004"><a xlink:title=" ">
<path fill="none" stroke="#9a32cd" stroke-dasharray="5,2" d="M430.69,-210.91C415.31,-202.09 394.64,-190.52 376,-181 363.66,-174.7 349.53,-168.13 338.43,-163.11"/>
<polygon fill="#9a32cd" stroke="#9a32cd" points="429.1,-214.03 439.51,-216 432.6,-207.97 429.1,-214.03"/>
</a>
</g>
<text text-anchor="start" x="409.5" y="-186.5" font-family="Helvetica,sans-Serif" font-size="10.00" fill="grey">application</text>
</g>
<!-- Node5 -->
<g id="Node000005" class="node">
<title>Node5</title>
<g id="a_Node000005"><a xlink:title=" ">
<polygon fill="white" stroke="#666666" points="537.5,-307 402.5,-307 402.5,-288 537.5,-288 537.5,-307"/>
<text text-anchor="middle" x="470" y="-295" font-family="Helvetica,sans-Serif" font-size="10.00">_BaseApplicationPrivate</text>
</a>
</g>
</g>
<!-- Node5&#45;&gt;Node4 -->
<g id="edge5_Node000004_Node000005" class="edge">
<title>Node5&#45;&gt;Node4</title>
<g id="a_edge5_Node000004_Node000005"><a xlink:title=" ">
<path fill="none" stroke="#9a32cd" stroke-dasharray="5,2" d="M465.77,-277.99C462.6,-264.13 458.41,-245.79 455.98,-235.15"/>
<polygon fill="#9a32cd" stroke="#9a32cd" points="462.4,-278.95 468.04,-287.92 469.22,-277.39 462.4,-278.95"/>
</a>
</g>
<text text-anchor="start" x="466.5" y="-258.5" font-family="Helvetica,sans-Serif" font-size="10.00" fill="grey">private</text>
</g>
<!-- Node6 -->
<g id="Node000006" class="node">
<title>Node6</title>
<g id="a_Node000006"><a xlink:href="structBaseBuilder.html" target="_top" xlink:title=" ">
<polygon fill="white" stroke="#666666" points="372.5,-235 297.5,-235 297.5,-216 372.5,-216 372.5,-235"/>
<text text-anchor="middle" x="335" y="-223" font-family="Helvetica,sans-Serif" font-size="10.00">BaseBuilder</text>
</a>
</g>
</g>
<!-- Node6&#45;&gt;Node3 -->
<g id="edge6_Node000003_Node000006" class="edge">
<title>Node6&#45;&gt;Node3</title>
<g id="a_edge6_Node000003_Node000006"><a xlink:title=" ">
<path fill="none" stroke="#9a32cd" stroke-dasharray="5,2" d="M333.32,-205.59C332.4,-197.89 331.02,-188.94 329,-181 327.45,-174.9 324.95,-168.27 322.84,-163.17"/>
<polygon fill="#9a32cd" stroke="#9a32cd" points="329.86,-206.14 334.37,-215.72 336.82,-205.42 329.86,-206.14"/>
</a>
</g>
<text text-anchor="start" x="335" y="-186.5" font-family="Helvetica,sans-Serif" font-size="10.00" fill="grey">builder</text>
</g>
<!-- Node7 -->
<g id="Node000007" class="node">
<title>Node7</title>
<g id="a_Node000007"><a xlink:title=" ">
<polygon fill="white" stroke="#666666" points="384.5,-307 269.5,-307 269.5,-288 384.5,-288 384.5,-307"/>
<text text-anchor="middle" x="327" y="-295" font-family="Helvetica,sans-Serif" font-size="10.00">_BaseBuilderPrivate</text>
</a>
</g>
</g>
<!-- Node7&#45;&gt;Node6 -->
<g id="edge7_Node000006_Node000007" class="edge">
<title>Node7&#45;&gt;Node6</title>
<g id="a_edge7_Node000006_Node000007"><a xlink:title=" ">
<path fill="none" stroke="#9a32cd" stroke-dasharray="5,2" d="M329.16,-277.58C330.74,-263.76 332.81,-245.68 334.01,-235.15"/>
<polygon fill="#9a32cd" stroke="#9a32cd" points="325.64,-277.58 327.98,-287.92 332.59,-278.38 325.64,-277.58"/>
</a>
</g>
<text text-anchor="start" x="334.5" y="-258.5" font-family="Helvetica,sans-Serif" font-size="10.00" fill="grey">private</text>
</g>
<!-- Node8 -->
<g id="Node000008" class="node">
<title>Node8</title>
<g id="a_Node000008"><a xlink:href="structCactClipboard.html" target="_top" xlink:title=" ">
<polygon fill="white" stroke="#666666" points="159.5,-91 74.5,-91 74.5,-72 159.5,-72 159.5,-91"/>
<text text-anchor="middle" x="117" y="-79" font-family="Helvetica,sans-Serif" font-size="10.00">CactClipboard</text>
</a>
</g>
</g>
<!-- Node8&#45;&gt;Node1 -->
<g id="edge8_Node000001_Node000008" class="edge">
<title>Node8&#45;&gt;Node1</title>
<g id="a_edge8_Node000001_Node000008"><a xlink:title=" ">
<path fill="none" stroke="#9a32cd" stroke-dasharray="5,2" d="M118.69,-61.94C120.06,-53.84 122.53,-44.51 127,-37 131.19,-29.95 137.89,-23.77 143.9,-19.16"/>
<polygon fill="#9a32cd" stroke="#9a32cd" points="115.21,-61.56 117.43,-71.92 122.16,-62.43 115.21,-61.56"/>
</a>
</g>
<text text-anchor="start" x="130" y="-42.5" font-family="Helvetica,sans-Serif" font-size="10.00" fill="grey">clipboard</text>
</g>
<!-- Node9&#45;&gt;Node8 -->
<g id="edge9_Node000008_Node000009" class="edge">
<title>Node9&#45;&gt;Node8</title>
<g id="a_edge9_Node000008_Node000009"><a xlink:title=" ">
<path fill="none" stroke="#9a32cd" stroke-dasharray="5,2" d="M105.97,-133.99C108.94,-120.13 112.87,-101.79 115.15,-91.15"/>
<polygon fill="#9a32cd" stroke="#9a32cd" points="102.51,-133.41 103.84,-143.92 109.36,-134.87 102.51,-133.41"/>
</a>
</g>
<text text-anchor="start" x="115.5" y="-114.5" font-family="Helvetica,sans-Serif" font-size="10.00" fill="grey">private</text>
</g>
<!-- Node10 -->
<g id="Node000010" class="node">
<title>Node10</title>
<g id="a_Node000010"><a xlink:title=" ">
<polygon fill="white" stroke="#666666" points="78,-235 0,-235 0,-216 78,-216 78,-235"/>
<text text-anchor="middle" x="39" y="-223" font-family="Helvetica,sans-Serif" font-size="10.00">PrimaryData</text>
</a>
</g>
</g>
<!-- Node10&#45;&gt;Node9 -->
<g id="edge11_Node000009_Node000010" class="edge">
<title>Node10&#45;&gt;Node9</title>
<g id="a_edge11_Node000009_Node000010"><a xlink:title=" ">
<path fill="none" stroke="#9a32cd" stroke-dasharray="5,2" d="M35.1,-205.51C34.46,-197.33 35.23,-188.05 40,-181 45.64,-172.66 54.49,-166.94 63.75,-163.01"/>
<polygon fill="#9a32cd" stroke="#9a32cd" points="31.68,-206.28 36.6,-215.66 38.61,-205.26 31.68,-206.28"/>
</a>
</g>
<text text-anchor="start" x="43" y="-186.5" font-family="Helvetica,sans-Serif" font-size="10.00" fill="grey">primary_data</text>
</g>
</g>
</svg>

<g id="navigator" transform="translate(0 0)" fill="#404254">
  <rect fill="#f2f5e9" fill-opacity="0.5" stroke="#606060" stroke-width=".5" x="0" y="0" width="60" height="60"/>
  <use id="zoomplus" xlink:href="#zoomPlus" x="17" y="9" onmousedown="handleZoom(evt,'in')"/>
  <use id="zoomminus" xlink:href="#zoomMin" x="42" y="9" onmousedown="handleZoom(evt,'out')"/>
  <use id="reset" xlink:href="#resetDef" x="30" y="36" onmousedown="handleReset()"/>
   <use id="arrowup" xlink:href="#arrowUp" x="0" y="0" onmousedown="handlePan(0,-1)"/>
  <use id="arrowright" xlink:href="#arrowRight" x="0" y="0" onmousedown="handlePan(1,0)"/>
  <use id="arrowdown" xlink:href="#arrowDown" x="0" y="0" onmousedown="handlePan(0,1)"/>
  <use id="arrowleft" xlink:href="#arrowLeft" x="0" y="0" onmousedown="handlePan(-1,0)"/>
</g>
<svg viewBox="0 0 15 15" width="100%" height="30px" preserveAspectRatio="xMaxYMin meet">
 <g id="arrow_out" transform="scale(0.3 0.3)">
  <a xlink:href="struct__CactTreeModelPrivate__coll__graph_org.svg" target="_base">
   <rect id="button" ry="5" rx="5" y="6" x="6" height="38" width="38"
        fill="#f2f5e9" fill-opacity="0.5" stroke="#606060" stroke-width="1.0"/>
   <path id="arrow"
     d="M 11.500037,31.436501 C 11.940474,20.09759 22.043105,11.32322 32.158766,21.979434 L 37.068811,17.246167 C 37.068811,17.246167 37.088388,32 37.088388,32 L 22.160133,31.978069 C 22.160133,31.978069 26.997745,27.140456 26.997745,27.140456 C 18.528582,18.264221 13.291696,25.230495 11.500037,31.436501 z"
     style="fill:#404040;"/>
  </a>
 </g>
</svg>

<style type='text/css'>
<![CDATA[
[data-mouse-over-selected='false'] { opacity: 0.7; }
[data-mouse-over-selected='true']  { opacity: 1.0; }
]]>
</style>
<script type="application/ecmascript"><![CDATA[
document.addEventListener('DOMContentLoaded', (event) => {
  highlightEdges();
  highlightAdjacentNodes();
});
]]></script>
</svg>
