<?xml version="1.0" encoding="UTF-8" standalone="no"?>
<!DOCTYPE svg PUBLIC "-//W3C//DTD SVG 1.1//EN"
 "http://www.w3.org/Graphics/SVG/1.1/DTD/svg11.dtd">
<!-- Generated by graphviz version 2.43.0 (0)
 -->
<!-- Title: _EvDocumentLinksInterface Pages: 1 -->
<svg width="213pt" height="171pt"
 viewBox="0.00 0.00 213.00 171.00" xmlns="http://www.w3.org/2000/svg" xmlns:xlink="http://www.w3.org/1999/xlink">

<svg id="main" version="1.1" xmlns="http://www.w3.org/2000/svg" xmlns:xlink="http://www.w3.org/1999/xlink" xml:space="preserve">

<style type="text/css"><![CDATA[
.node, .edge {opacity: 0.7;}
.node.selected, .edge.selected {opacity: 1;}
.edge:hover path { stroke: red; }
.edge:hover polygon { stroke: red; fill: red; }
]]></style>
<script type="application/ecmascript" xlink:href="svg.min.js"/>
<svg id="graph" class="graph">
<g id="graph0" class="graph" transform="scale(1 1) rotate(0) translate(4 167)">
<title>_EvDocumentLinksInterface</title>
<!-- Node1 -->
<g id="Node000001" class="node">
<title>Node1</title>
<g id="a_Node000001"><a xlink:title=" ">
<polygon fill="#999999" stroke="#666666" points="167,-19 14,-19 14,0 167,0 167,-19"/>
<text text-anchor="middle" x="90.5" y="-7" font-family="Helvetica,sans-Serif" font-size="10.00">_EvDocumentLinksInterface</text>
</a>
</g>
</g>
<!-- Node2 -->
<g id="Node000002" class="node">
<title>Node2</title>
<g id="a_Node000002"><a xlink:title=" ">
<polygon fill="white" stroke="#666666" points="93,-91 0,-91 0,-72 93,-72 93,-91"/>
<text text-anchor="middle" x="46.5" y="-79" font-family="Helvetica,sans-Serif" font-size="10.00">_EvMappingList</text>
</a>
</g>
</g>
<!-- Node2&#45;&gt;Node1 -->
<g id="edge1_Node000001_Node000002" class="edge">
<title>Node2&#45;&gt;Node1</title>
<g id="a_edge1_Node000001_Node000002"><a xlink:title=" ">
<path fill="none" stroke="#9a32cd" stroke-dasharray="5,2" d="M50.61,-62.23C52.98,-54.08 56.5,-44.61 61.5,-37 65.99,-30.16 72.65,-23.91 78.45,-19.2"/>
<polygon fill="#9a32cd" stroke="#9a32cd" points="47.21,-61.37 48.13,-71.93 54,-63.1 47.21,-61.37"/>
</a>
</g>
<text text-anchor="start" x="65" y="-42.5" font-family="Helvetica,sans-Serif" font-size="10.00" fill="grey">get_links</text>
</g>
<!-- Node3 -->
<g id="Node000003" class="node">
<title>Node3</title>
<g id="a_Node000003"><a xlink:title=" ">
<polygon fill="white" stroke="#666666" points="188,-91 111,-91 111,-72 188,-72 188,-91"/>
<text text-anchor="middle" x="149.5" y="-79" font-family="Helvetica,sans-Serif" font-size="10.00">_EvLinkDest</text>
</a>
</g>
</g>
<!-- Node3&#45;&gt;Node1 -->
<g id="edge2_Node000001_Node000003" class="edge">
<title>Node3&#45;&gt;Node1</title>
<g id="a_edge2_Node000001_Node000003"><a xlink:title=" ">
<path fill="none" stroke="#9a32cd" stroke-dasharray="5,2" d="M135.61,-64.01C123.76,-49.96 107.2,-30.32 97.79,-19.15"/>
<polygon fill="#9a32cd" stroke="#9a32cd" points="133.14,-66.53 142.27,-71.92 138.5,-62.01 133.14,-66.53"/>
</a>
</g>
<text text-anchor="start" x="129.5" y="-42.5" font-family="Helvetica,sans-Serif" font-size="10.00" fill="grey">find_link_dest</text>
</g>
<!-- Node4 -->
<g id="Node000004" class="node">
<title>Node4</title>
<g id="a_Node000004"><a xlink:title=" ">
<polygon fill="white" stroke="#666666" points="205,-163 94,-163 94,-144 205,-144 205,-163"/>
<text text-anchor="middle" x="149.5" y="-151" font-family="Helvetica,sans-Serif" font-size="10.00">_EvLinkDestPrivate</text>
</a>
</g>
</g>
<!-- Node4&#45;&gt;Node3 -->
<g id="edge3_Node000003_Node000004" class="edge">
<title>Node4&#45;&gt;Node3</title>
<g id="a_edge3_Node000003_Node000004"><a xlink:title=" ">
<path fill="none" stroke="#9a32cd" stroke-dasharray="5,2" d="M149.5,-133.58C149.5,-119.76 149.5,-101.68 149.5,-91.15"/>
<polygon fill="#9a32cd" stroke="#9a32cd" points="146,-133.92 149.5,-143.92 153,-133.92 146,-133.92"/>
</a>
</g>
<text text-anchor="start" x="153" y="-114.5" font-family="Helvetica,sans-Serif" font-size="10.00" fill="grey">priv</text>
</g>
</g>
</svg>
</svg>

<style type='text/css'>
<![CDATA[
[data-mouse-over-selected='false'] { opacity: 0.7; }
[data-mouse-over-selected='true']  { opacity: 1.0; }
]]>
</style>
<script type="application/ecmascript"><![CDATA[
document.addEventListener('DOMContentLoaded', (event) => {
  highlightEdges();
  highlightAdjacentNodes();
});
]]></script>
</svg>
