<?xml version="1.0" encoding="UTF-8" standalone="no"?>
<!DOCTYPE svg PUBLIC "-//W3C//DTD SVG 1.1//EN"
 "http://www.w3.org/Graphics/SVG/1.1/DTD/svg11.dtd">
<!-- Generated by graphviz version 2.43.0 (0)
 -->
<!-- Title: FMTreeModel Pages: 1 -->
<!--zoomable 1147 -->

<svg id="main" version="1.1" xmlns="http://www.w3.org/2000/svg" xmlns:xlink="http://www.w3.org/1999/xlink" xml:space="preserve" onload="init(evt)">

<style type="text/css"><![CDATA[
.node, .edge {opacity: 0.7;}
.node.selected, .edge.selected {opacity: 1;}
.edge:hover path { stroke: red; }
.edge:hover polygon { stroke: red; fill: red; }
]]></style>

<defs>
  <circle id="rim" cx="0" cy="0" r="7"/>
  <circle id="rim2" cx="0" cy="0" r="3.5"/>
  <g id="zoomPlus">
    <use xlink:href="#rim" fill="#404040"><set attributeName="fill" to="#808080" begin="zoomplus.mouseover" end="zoomplus.mouseout"/></use>
    <path d="M-4,0h8M0,-4v8" fill="none" stroke="white" stroke-width="1.5" pointer-events="none"/>
  </g>
  <g id="zoomMin">
    <use xlink:href="#rim" fill="#404040"><set attributeName="fill" to="#808080" begin="zoomminus.mouseover" end="zoomminus.mouseout"/></use>
    <path d="M-4,0h8" fill="none" stroke="white" stroke-width="1.5" pointer-events="none"/>
  </g>
  <g id="arrowUp" transform="translate(30 24)">
    <use xlink:href="#rim"/>
    <path pointer-events="none" fill="none" stroke="white" stroke-width="1.5" d="M0,-3.0v7 M-2.5,-0.5L0,-3.0L2.5,-0.5"/>
  </g>
  <g id="arrowRight" transform="rotate(90) translate(36 -43)">
    <use xlink:href="#rim"/>
    <path pointer-events="none" fill="none" stroke="white" stroke-width="1.5" d="M0,-3.0v7 M-2.5,-0.5L0,-3.0L2.5,-0.5"/>
  </g>
  <g id="arrowDown" transform="rotate(180) translate(-30 -48)">
    <use xlink:href="#rim"/>
    <path pointer-events="none" fill="none" stroke="white" stroke-width="1.5" d="M0,-3.0v7 M-2.5,-0.5L0,-3.0L2.5,-0.5"/>
  </g>
  <g id="arrowLeft" transform="rotate(270) translate(-36 17)">
    <use xlink:href="#rim"/>
    <path pointer-events="none" fill="none" stroke="white" stroke-width="1.5" d="M0,-3.0v7 M-2.5,-0.5L0,-3.0L2.5,-0.5"/>
  </g>
  <g id="resetDef">
    <use xlink:href="#rim2" fill="#404040"><set attributeName="fill" to="#808080" begin="reset.mouseover" end="reset.mouseout"/></use>
  </g>
</defs>
<script type="application/ecmascript">
var viewWidth = 1159;
var viewHeight = 1147;
var sectionId = 'dynsection-0';
</script>
<script type="application/ecmascript" xlink:href="svg.min.js"/>
<svg id="graph" class="graph">
<g id="viewport">
<title>FMTreeModel</title>
<!-- Node1 -->
<g id="Node000001" class="node">
<title>Node1</title>
<g id="a_Node000001"><a xlink:title=" ">
<polygon fill="#999999" stroke="#666666" points="328.5,-1128.79 246.5,-1128.79 246.5,-1109.79 328.5,-1109.79 328.5,-1128.79"/>
<text text-anchor="middle" x="287.5" y="-1116.79" font-family="Helvetica,sans-Serif" font-size="10.00">FMTreeModel</text>
</a>
</g>
</g>
<!-- Node21 -->
<g id="Node000021" class="node">
<title>Node21</title>
<g id="a_Node000021"><a xlink:title=" ">
<polygon fill="white" stroke="#666666" points="613,-1100.79 509,-1100.79 509,-1081.79 613,-1081.79 613,-1100.79"/>
<text text-anchor="middle" x="561" y="-1088.79" font-family="Helvetica,sans-Serif" font-size="10.00">FMTreeModelRoot</text>
</a>
</g>
</g>
<!-- Node1&#45;&gt;Node21 -->
<g id="edge40_Node000021_Node000001" class="edge">
<title>Node1&#45;&gt;Node21</title>
<g id="a_edge40_Node000021_Node000001"><a xlink:title=" ">
<path fill="none" stroke="#9a32cd" stroke-dasharray="5,2" d="M338.71,-1109.54C348.08,-1107.94 357.82,-1106.44 367,-1105.29 414.84,-1099.31 469.69,-1095.63 508.66,-1093.56"/>
<polygon fill="#9a32cd" stroke="#9a32cd" points="337.96,-1106.11 328.72,-1111.29 339.17,-1113.01 337.96,-1106.11"/>
</a>
</g>
<text text-anchor="start" x="400.5" y="-1110.79" font-family="Helvetica,sans-Serif" font-size="10.00" fill="grey">model</text>
</g>
<!-- Node2 -->
<g id="Node000002" class="node">
<title>Node2</title>
<g id="a_Node000002"><a xlink:title=" ">
<polygon fill="white" stroke="#666666" points="1151,-1115.79 1035,-1115.79 1035,-1096.79 1151,-1096.79 1151,-1115.79"/>
<text text-anchor="middle" x="1093" y="-1103.79" font-family="Helvetica,sans-Serif" font-size="10.00">FMTreeModelDetails</text>
</a>
</g>
</g>
<!-- Node2&#45;&gt;Node1 -->
<g id="edge1_Node000001_Node000002" class="edge">
<title>Node2&#45;&gt;Node1</title>
<g id="a_edge1_Node000001_Node000002"><a xlink:title=" ">
<path fill="none" stroke="#9a32cd" stroke-dasharray="5,2" d="M1024.55,-1111.63C999.3,-1113.43 970.35,-1115.24 944,-1116.29 730.82,-1124.82 677.35,-1120.96 464,-1122.29 420.89,-1122.56 410.1,-1123.12 367,-1122.29 354.59,-1122.05 341.09,-1121.61 328.83,-1121.13"/>
<polygon fill="#9a32cd" stroke="#9a32cd" points="1025.04,-1115.11 1034.76,-1110.9 1024.53,-1108.13 1025.04,-1115.11"/>
</a>
</g>
<text text-anchor="start" x="714" y="-1127.79" font-family="Helvetica,sans-Serif" font-size="10.00" fill="grey">details</text>
</g>
<!-- Node3 -->
<g id="Node000003" class="node">
<title>Node3</title>
<g id="a_Node000003"><a xlink:title=" ">
<polygon fill="white" stroke="#666666" points="914,-1027.79 852,-1027.79 852,-1008.79 914,-1008.79 914,-1027.79"/>
<text text-anchor="middle" x="883" y="-1015.79" font-family="Helvetica,sans-Serif" font-size="10.00">TreeNode</text>
</a>
</g>
</g>
<!-- Node3&#45;&gt;Node2 -->
<g id="edge2_Node000002_Node000003" class="edge">
<title>Node3&#45;&gt;Node2</title>
<g id="a_edge2_Node000002_Node000003"><a xlink:title=" ">
<path fill="none" stroke="#9a32cd" stroke-dasharray="5,2" d="M915.97,-1031.82C958.4,-1049.77 1032.27,-1081.02 1069.37,-1096.72"/>
<polygon fill="#9a32cd" stroke="#9a32cd" points="917.23,-1028.55 906.66,-1027.88 914.5,-1035 917.23,-1028.55"/>
</a>
</g>
<text text-anchor="start" x="965.5" y="-1078.79" font-family="Helvetica,sans-Serif" font-size="10.00" fill="grey">root_node</text>
</g>
<!-- Node3&#45;&gt;Node3 -->
<g id="edge42_Node000003_Node000003" class="edge">
<title>Node3&#45;&gt;Node3</title>
<g id="a_edge42_Node000003_Node000003"><a xlink:title=" ">
<path fill="none" stroke="#9a32cd" stroke-dasharray="5,2" d="M863.37,-1037.35C864.68,-1042.17 871.23,-1045.79 883,-1045.79 901.84,-1045.79 907.29,-1036.53 899.34,-1027.87"/>
<polygon fill="#9a32cd" stroke="#9a32cd" points="866.69,-1038.47 866.66,-1027.87 860.07,-1036.17 866.69,-1038.47"/>
</a>
</g>
<text text-anchor="start" x="859" y="-1096.79" font-family="Helvetica,sans-Serif" font-size="10.00" fill="grey">first_child</text>
<text text-anchor="start" x="859" y="-1081.79" font-family="Helvetica,sans-Serif" font-size="10.00" fill="grey">next</text>
<text text-anchor="start" x="859" y="-1066.79" font-family="Helvetica,sans-Serif" font-size="10.00" fill="grey">parent</text>
<text text-anchor="start" x="859" y="-1051.79" font-family="Helvetica,sans-Serif" font-size="10.00" fill="grey">prev</text>
</g>
<!-- Node3&#45;&gt;Node21 -->
<g id="edge41_Node000021_Node000003" class="edge">
<title>Node3&#45;&gt;Node21</title>
<g id="a_edge41_Node000021_Node000003"><a xlink:title=" ">
<path fill="none" stroke="#9a32cd" stroke-dasharray="5,2" d="M862.84,-1034.69C847.87,-1046.5 825.97,-1061.65 804,-1069.29 740.85,-1091.27 663.13,-1094.46 613.09,-1093.71"/>
<polygon fill="#9a32cd" stroke="#9a32cd" points="865.26,-1037.24 870.81,-1028.21 860.84,-1031.81 865.26,-1037.24"/>
</a>
</g>
<text text-anchor="start" x="707" y="-1098.79" font-family="Helvetica,sans-Serif" font-size="10.00" fill="grey">root_node</text>
</g>
<!-- Node4 -->
<g id="Node000004" class="node">
<title>Node4</title>
<g id="a_Node000004"><a xlink:href="structCajaFile.html" target="_top" xlink:title=" ">
<polygon fill="white" stroke="#666666" points="71.5,-423.79 15.5,-423.79 15.5,-404.79 71.5,-404.79 71.5,-423.79"/>
<text text-anchor="middle" x="43.5" y="-411.79" font-family="Helvetica,sans-Serif" font-size="10.00">CajaFile</text>
</a>
</g>
</g>
<!-- Node4&#45;&gt;Node3 -->
<g id="edge3_Node000003_Node000004" class="edge">
<title>Node4&#45;&gt;Node3</title>
<g id="a_edge3_Node000003_Node000004"><a xlink:title=" ">
<path fill="none" stroke="#9a32cd" stroke-dasharray="5,2" d="M45.94,-433.96C51.25,-503.18 71.24,-734.92 105,-800.29 139.47,-867.03 164.6,-875.02 226,-918.29 283.03,-958.49 299.53,-969.52 367,-987.29 545.86,-1034.42 771.26,-1025.69 851.74,-1020.55"/>
<polygon fill="#9a32cd" stroke="#9a32cd" points="49.43,-433.67 45.19,-423.96 42.45,-434.2 49.43,-433.67"/>
</a>
</g>
<text text-anchor="start" x="407.5" y="-1012.79" font-family="Helvetica,sans-Serif" font-size="10.00" fill="grey">file</text>
</g>
<!-- Node7 -->
<g id="Node000007" class="node">
<title>Node7</title>
<g id="a_Node000007"><a xlink:href="struct__CajaDirectoryPrivate.html" target="_top" xlink:title=" ">
<polygon fill="white" stroke="#666666" points="349,-614.79 226,-614.79 226,-595.79 349,-595.79 349,-614.79"/>
<text text-anchor="middle" x="287.5" y="-602.79" font-family="Helvetica,sans-Serif" font-size="10.00">_CajaDirectoryPrivate</text>
</a>
</g>
</g>
<!-- Node4&#45;&gt;Node7 -->
<g id="edge7_Node000007_Node000004" class="edge">
<title>Node4&#45;&gt;Node7</title>
<g id="a_edge7_Node000007_Node000004"><a xlink:title=" ">
<path fill="none" stroke="#9a32cd" stroke-dasharray="5,2" d="M55.63,-432.46C66.7,-449.53 84.89,-475.11 105,-493.29 156.64,-539.98 230.32,-578.49 265.81,-595.66"/>
<polygon fill="#9a32cd" stroke="#9a32cd" points="58.55,-430.53 50.25,-423.95 52.64,-434.27 58.55,-430.53"/>
</a>
</g>
<text text-anchor="start" x="110.5" y="-614.29" font-family="Helvetica,sans-Serif" font-size="10.00" fill="grey">as_file</text>
<text text-anchor="start" x="110.5" y="-599.29" font-family="Helvetica,sans-Serif" font-size="10.00" fill="grey">deep_count_file</text>
<text text-anchor="start" x="110.5" y="-584.29" font-family="Helvetica,sans-Serif" font-size="10.00" fill="grey">extension_info_file</text>
<text text-anchor="start" x="110.5" y="-569.29" font-family="Helvetica,sans-Serif" font-size="10.00" fill="grey">get_info_file</text>
</g>
<!-- Node10 -->
<g id="Node000010" class="node">
<title>Node10</title>
<g id="a_Node000010"><a xlink:title=" ">
<polygon fill="white" stroke="#666666" points="938,-237.79 828,-237.79 828,-218.79 938,-218.79 938,-237.79"/>
<text text-anchor="middle" x="883" y="-225.79" font-family="Helvetica,sans-Serif" font-size="10.00">DirectoryLoadState</text>
</a>
</g>
</g>
<!-- Node4&#45;&gt;Node10 -->
<g id="edge12_Node000010_Node000004" class="edge">
<title>Node4&#45;&gt;Node10</title>
<g id="a_edge12_Node000010_Node000004"><a xlink:title=" ">
<path fill="none" stroke="#9a32cd" stroke-dasharray="5,2" d="M55.76,-395.73C66.52,-379.47 84.16,-356.3 105,-342.29 174.16,-295.79 288.19,-230.12 658,-177.29 722.24,-168.12 741.81,-158.77 804,-177.29 830.98,-185.33 857.32,-206 871.42,-218.42"/>
<polygon fill="#9a32cd" stroke="#9a32cd" points="52.67,-394.07 50.25,-404.39 58.57,-397.83 52.67,-394.07"/>
</a>
</g>
<text text-anchor="start" x="370.5" y="-238.79" font-family="Helvetica,sans-Serif" font-size="10.00" fill="grey">load_directory_file</text>
</g>
<!-- Node11 -->
<g id="Node000011" class="node">
<title>Node11</title>
<g id="a_Node000011"><a xlink:title=" ">
<polygon fill="white" stroke="#666666" points="941,-146.79 825,-146.79 825,-127.79 941,-127.79 941,-146.79"/>
<text text-anchor="middle" x="883" y="-134.79" font-family="Helvetica,sans-Serif" font-size="10.00">DirectoryCountState</text>
</a>
</g>
</g>
<!-- Node4&#45;&gt;Node11 -->
<g id="edge15_Node000011_Node000004" class="edge">
<title>Node4&#45;&gt;Node11</title>
<g id="a_edge15_Node000011_Node000004"><a xlink:title=" ">
<path fill="none" stroke="#9a32cd" stroke-dasharray="5,2" d="M48.62,-394.6C55.53,-366.15 72.07,-313.55 105,-282.29 167.47,-222.99 280.14,-149.22 658,-86.29 722.01,-75.63 741.81,-67.77 804,-86.29 830.98,-94.33 857.32,-115 871.42,-127.42"/>
<polygon fill="#9a32cd" stroke="#9a32cd" points="45.16,-394.02 46.36,-404.55 51.99,-395.57 45.16,-394.02"/>
</a>
</g>
<text text-anchor="start" x="391.5" y="-155.79" font-family="Helvetica,sans-Serif" font-size="10.00" fill="grey">count_file</text>
</g>
<!-- Node13 -->
<g id="Node000013" class="node">
<title>Node13</title>
<g id="a_Node000013"><a xlink:title=" ">
<polygon fill="white" stroke="#666666" points="926.5,-507.79 839.5,-507.79 839.5,-488.79 926.5,-488.79 926.5,-507.79"/>
<text text-anchor="middle" x="883" y="-495.79" font-family="Helvetica,sans-Serif" font-size="10.00">MimeListState</text>
</a>
</g>
</g>
<!-- Node4&#45;&gt;Node13 -->
<g id="edge20_Node000013_Node000004" class="edge">
<title>Node4&#45;&gt;Node13</title>
<g id="a_edge20_Node000013_Node000004"><a xlink:title=" ">
<path fill="none" stroke="#9a32cd" stroke-dasharray="5,2" d="M82.03,-416.85C157.67,-421.9 333.84,-433.22 482,-439.29 517.76,-440.76 769.83,-436.65 804,-447.29 830.88,-455.66 857.25,-476.22 871.39,-488.52"/>
<polygon fill="#9a32cd" stroke="#9a32cd" points="81.83,-413.32 71.62,-416.15 81.36,-420.31 81.83,-413.32"/>
</a>
</g>
<text text-anchor="start" x="380.5" y="-444.79" font-family="Helvetica,sans-Serif" font-size="10.00" fill="grey">mime_list_file</text>
</g>
<!-- Node15 -->
<g id="Node000015" class="node">
<title>Node15</title>
<g id="a_Node000015"><a xlink:title=" ">
<polygon fill="white" stroke="#666666" points="930,-742.79 836,-742.79 836,-723.79 930,-723.79 930,-742.79"/>
<text text-anchor="middle" x="883" y="-730.79" font-family="Helvetica,sans-Serif" font-size="10.00">ThumbnailState</text>
</a>
</g>
</g>
<!-- Node4&#45;&gt;Node15 -->
<g id="edge25_Node000015_Node000004" class="edge">
<title>Node4&#45;&gt;Node15</title>
<g id="a_edge25_Node000015_Node000004"><a xlink:title=" ">
<path fill="none" stroke="#9a32cd" stroke-dasharray="5,2" d="M46,-434.27C49.86,-474.4 62.96,-566.35 105,-629.29 223.48,-806.66 280.46,-856.44 482,-926.29 548.35,-949.29 577.19,-957.7 640,-926.29 651.93,-920.33 646.69,-909.36 658,-902.29 714.04,-867.29 756.29,-919.99 804,-874.29 829.07,-850.28 805.69,-828.94 822,-798.29 834.12,-775.52 856.17,-754.64 869.9,-742.98"/>
<polygon fill="#9a32cd" stroke="#9a32cd" points="49.48,-433.84 45.13,-424.18 42.51,-434.45 49.48,-433.84"/>
</a>
</g>
<text text-anchor="start" x="407.5" y="-925.79" font-family="Helvetica,sans-Serif" font-size="10.00" fill="grey">file</text>
</g>
<!-- Node16 -->
<g id="Node000016" class="node">
<title>Node16</title>
<g id="a_Node000016"><a xlink:title=" ">
<polygon fill="white" stroke="#666666" points="919.5,-417.79 846.5,-417.79 846.5,-398.79 919.5,-398.79 919.5,-417.79"/>
<text text-anchor="middle" x="883" y="-405.79" font-family="Helvetica,sans-Serif" font-size="10.00">MountState</text>
</a>
</g>
</g>
<!-- Node4&#45;&gt;Node16 -->
<g id="edge28_Node000016_Node000004" class="edge">
<title>Node4&#45;&gt;Node16</title>
<g id="a_edge28_Node000016_Node000004"><a xlink:title=" ">
<path fill="none" stroke="#9a32cd" stroke-dasharray="5,2" d="M81.58,-404.9C89.29,-403.17 97.38,-401.53 105,-400.29 348.32,-360.71 411.6,-364.91 658,-357.29 722.86,-355.29 741.81,-338.77 804,-357.29 830.98,-365.33 857.32,-386 871.42,-398.42"/>
<polygon fill="#9a32cd" stroke="#9a32cd" points="80.7,-401.51 71.75,-407.18 82.29,-408.33 80.7,-401.51"/>
</a>
</g>
<text text-anchor="start" x="407.5" y="-373.79" font-family="Helvetica,sans-Serif" font-size="10.00" fill="grey">file</text>
</g>
<!-- Node17 -->
<g id="Node000017" class="node">
<title>Node17</title>
<g id="a_Node000017"><a xlink:title=" ">
<polygon fill="white" stroke="#666666" points="940,-327.79 826,-327.79 826,-308.79 940,-308.79 940,-327.79"/>
<text text-anchor="middle" x="883" y="-315.79" font-family="Helvetica,sans-Serif" font-size="10.00">FilesystemInfoState</text>
</a>
</g>
</g>
<!-- Node4&#45;&gt;Node17 -->
<g id="edge31_Node000017_Node000004" class="edge">
<title>Node4&#45;&gt;Node17</title>
<g id="a_edge31_Node000017_Node000004"><a xlink:title=" ">
<path fill="none" stroke="#9a32cd" stroke-dasharray="5,2" d="M68.18,-399.25C79.05,-392.91 92.31,-385.94 105,-381.29 340.62,-294.93 408.35,-292.76 658,-267.29 722.55,-260.71 741.81,-248.77 804,-267.29 830.98,-275.33 857.32,-296 871.42,-308.42"/>
<polygon fill="#9a32cd" stroke="#9a32cd" points="66.09,-396.42 59.33,-404.58 69.7,-402.42 66.09,-396.42"/>
</a>
</g>
<text text-anchor="start" x="407.5" y="-308.79" font-family="Helvetica,sans-Serif" font-size="10.00" fill="grey">file</text>
</g>
<!-- Node18 -->
<g id="Node000018" class="node">
<title>Node18</title>
<g id="a_Node000018"><a xlink:title=" ">
<polygon fill="white" stroke="#666666" points="944,-605.79 822,-605.79 822,-586.79 944,-586.79 944,-605.79"/>
<text text-anchor="middle" x="883" y="-593.79" font-family="Helvetica,sans-Serif" font-size="10.00">TopLeftTextReadState</text>
</a>
</g>
</g>
<!-- Node4&#45;&gt;Node18 -->
<g id="edge34_Node000018_Node000004" class="edge">
<title>Node4&#45;&gt;Node18</title>
<g id="a_edge34_Node000018_Node000004"><a xlink:title=" ">
<path fill="none" stroke="#9a32cd" stroke-dasharray="5,2" d="M78.68,-427.43C87.22,-430.51 96.4,-433.66 105,-436.29 408.6,-529.07 490.8,-531.42 804,-583.29 810.77,-584.41 817.87,-585.59 824.92,-586.76"/>
<polygon fill="#9a32cd" stroke="#9a32cd" points="79.62,-424.04 69.03,-423.87 77.2,-430.61 79.62,-424.04"/>
</a>
</g>
<text text-anchor="start" x="407.5" y="-532.79" font-family="Helvetica,sans-Serif" font-size="10.00" fill="grey">file</text>
</g>
<!-- Node19 -->
<g id="Node000019" class="node">
<title>Node19</title>
<g id="a_Node000019"><a xlink:title=" ">
<polygon fill="white" stroke="#666666" points="936,-962.79 830,-962.79 830,-943.79 936,-943.79 936,-962.79"/>
<text text-anchor="middle" x="883" y="-950.79" font-family="Helvetica,sans-Serif" font-size="10.00">LinkInfoReadState</text>
</a>
</g>
</g>
<!-- Node4&#45;&gt;Node19 -->
<g id="edge37_Node000019_Node000004" class="edge">
<title>Node4&#45;&gt;Node19</title>
<g id="a_edge37_Node000019_Node000004"><a xlink:title=" ">
<path fill="none" stroke="#9a32cd" stroke-dasharray="5,2" d="M44.9,-434.22C46.64,-483.94 55.9,-616.36 105,-712.29 175.46,-849.97 221.57,-888.69 367,-941.29 527.42,-999.32 734.71,-977.53 829.95,-962.66"/>
<polygon fill="#9a32cd" stroke="#9a32cd" points="48.39,-433.81 44.61,-423.92 41.39,-434.01 48.39,-433.81"/>
</a>
</g>
<text text-anchor="start" x="407.5" y="-971.79" font-family="Helvetica,sans-Serif" font-size="10.00" fill="grey">file</text>
</g>
<!-- Node5 -->
<g id="Node000005" class="node">
<title>Node5</title>
<g id="a_Node000005"><a xlink:href="struct__CajaFilePrivate.html" target="_top" xlink:title=" ">
<polygon fill="white" stroke="#666666" points="930.5,-43.79 835.5,-43.79 835.5,-24.79 930.5,-24.79 930.5,-43.79"/>
<text text-anchor="middle" x="883" y="-31.79" font-family="Helvetica,sans-Serif" font-size="10.00">_CajaFilePrivate</text>
</a>
</g>
</g>
<!-- Node5&#45;&gt;Node4 -->
<g id="edge4_Node000004_Node000005" class="edge">
<title>Node5&#45;&gt;Node4</title>
<g id="a_edge4_Node000004_Node000005"><a xlink:title=" ">
<path fill="none" stroke="#9a32cd" stroke-dasharray="5,2" d="M830.46,-22.73C753.44,-7.48 604.25,14.18 482,-15.29 299.01,-59.41 225.06,-63.31 105,-208.29 54.12,-269.73 46.03,-372.4 44.74,-404.44"/>
<polygon fill="#9a32cd" stroke="#9a32cd" points="829.9,-26.19 840.39,-24.74 831.29,-19.33 829.9,-26.19"/>
</a>
</g>
<text text-anchor="start" x="398.5" y="-48.79" font-family="Helvetica,sans-Serif" font-size="10.00" fill="grey">details</text>
</g>
<!-- Node6 -->
<g id="Node000006" class="node">
<title>Node6</title>
<g id="a_Node000006"><a xlink:href="structCajaDirectory.html" target="_top" xlink:title=" ">
<polygon fill="white" stroke="#666666" points="602.5,-591.79 519.5,-591.79 519.5,-572.79 602.5,-572.79 602.5,-591.79"/>
<text text-anchor="middle" x="561" y="-579.79" font-family="Helvetica,sans-Serif" font-size="10.00">CajaDirectory</text>
</a>
</g>
</g>
<!-- Node6&#45;&gt;Node3 -->
<g id="edge43_Node000003_Node000006" class="edge">
<title>Node6&#45;&gt;Node3</title>
<g id="a_edge43_Node000003_Node000006"><a xlink:title=" ">
<path fill="none" stroke="#9a32cd" stroke-dasharray="5,2" d="M612.43,-588.25C623.04,-591.86 633.09,-597.51 640,-606.29 680.35,-657.55 622.69,-844.44 658,-899.29 681.71,-936.14 803.92,-987.61 857.16,-1008.7"/>
<polygon fill="#9a32cd" stroke="#9a32cd" points="613.18,-584.83 602.61,-585.47 611.28,-591.56 613.18,-584.83"/>
</a>
</g>
<text text-anchor="start" x="709" y="-990.79" font-family="Helvetica,sans-Serif" font-size="10.00" fill="grey">directory</text>
</g>
<!-- Node6&#45;&gt;Node5 -->
<g id="edge5_Node000005_Node000006" class="edge">
<title>Node6&#45;&gt;Node5</title>
<g id="a_edge5_Node000005_Node000006"><a xlink:title=" ">
<path fill="none" stroke="#9a32cd" stroke-dasharray="5,2" d="M590.85,-567.66C608.39,-557.07 629.39,-541.01 640,-520.29 678.44,-445.24 611.35,-211.53 658,-141.29 681.19,-106.38 798.44,-62.75 853.44,-43.81"/>
<polygon fill="#9a32cd" stroke="#9a32cd" points="589,-564.68 582.06,-572.69 592.48,-570.75 589,-564.68"/>
</a>
</g>
<text text-anchor="start" x="709" y="-146.79" font-family="Helvetica,sans-Serif" font-size="10.00" fill="grey">directory</text>
</g>
<!-- Node6&#45;&gt;Node10 -->
<g id="edge11_Node000010_Node000006" class="edge">
<title>Node6&#45;&gt;Node10</title>
<g id="a_edge11_Node000010_Node000006"><a xlink:title=" ">
<path fill="none" stroke="#9a32cd" stroke-dasharray="5,2" d="M590.22,-567.7C607.7,-557.06 628.88,-540.9 640,-520.29 660.98,-481.41 631.9,-357.94 658,-322.29 681.42,-290.31 791.25,-254.61 847.94,-237.9"/>
<polygon fill="#9a32cd" stroke="#9a32cd" points="588.38,-564.72 581.48,-572.76 591.89,-570.77 588.38,-564.72"/>
</a>
</g>
<text text-anchor="start" x="709" y="-327.79" font-family="Helvetica,sans-Serif" font-size="10.00" fill="grey">directory</text>
</g>
<!-- Node6&#45;&gt;Node11 -->
<g id="edge14_Node000011_Node000006" class="edge">
<title>Node6&#45;&gt;Node11</title>
<g id="a_edge14_Node000011_Node000006"><a xlink:title=" ">
<path fill="none" stroke="#9a32cd" stroke-dasharray="5,2" d="M590.74,-567.6C608.24,-557 629.24,-540.93 640,-520.29 669.66,-463.44 620.95,-284.63 658,-232.29 681,-199.8 791.58,-163.65 848.29,-146.85"/>
<polygon fill="#9a32cd" stroke="#9a32cd" points="588.9,-564.62 581.98,-572.64 592.4,-570.69 588.9,-564.62"/>
</a>
</g>
<text text-anchor="start" x="709" y="-237.79" font-family="Helvetica,sans-Serif" font-size="10.00" fill="grey">directory</text>
</g>
<!-- Node12 -->
<g id="Node000012" class="node">
<title>Node12</title>
<g id="a_Node000012"><a xlink:title=" ">
<polygon fill="white" stroke="#666666" points="931,-687.79 835,-687.79 835,-668.79 931,-668.79 931,-687.79"/>
<text text-anchor="middle" x="883" y="-675.79" font-family="Helvetica,sans-Serif" font-size="10.00">DeepCountState</text>
</a>
</g>
</g>
<!-- Node6&#45;&gt;Node12 -->
<g id="edge17_Node000012_Node000006" class="edge">
<title>Node6&#45;&gt;Node12</title>
<g id="a_edge17_Node000012_Node000006"><a xlink:title=" ">
<path fill="none" stroke="#9a32cd" stroke-dasharray="5,2" d="M605.73,-594.74C616.99,-598.22 629.02,-602.18 640,-606.29 648.2,-609.36 649.77,-611.3 658,-614.29 721.3,-637.27 797.01,-657.43 842.22,-668.72"/>
<polygon fill="#9a32cd" stroke="#9a32cd" points="606.67,-591.37 596.08,-591.81 604.64,-598.07 606.67,-591.37"/>
</a>
</g>
<text text-anchor="start" x="709" y="-663.79" font-family="Helvetica,sans-Serif" font-size="10.00" fill="grey">directory</text>
</g>
<!-- Node6&#45;&gt;Node13 -->
<g id="edge19_Node000013_Node000006" class="edge">
<title>Node6&#45;&gt;Node13</title>
<g id="a_edge19_Node000013_Node000006"><a xlink:title=" ">
<path fill="none" stroke="#9a32cd" stroke-dasharray="5,2" d="M608.25,-570.15C672.43,-553.3 787.19,-523.18 845.64,-507.84"/>
<polygon fill="#9a32cd" stroke="#9a32cd" points="607.18,-566.81 598.4,-572.74 608.96,-573.58 607.18,-566.81"/>
</a>
</g>
<text text-anchor="start" x="709" y="-560.79" font-family="Helvetica,sans-Serif" font-size="10.00" fill="grey">directory</text>
</g>
<!-- Node14 -->
<g id="Node000014" class="node">
<title>Node14</title>
<g id="a_Node000014"><a xlink:title=" ">
<polygon fill="white" stroke="#666666" points="922,-826.79 844,-826.79 844,-807.79 922,-807.79 922,-826.79"/>
<text text-anchor="middle" x="883" y="-814.79" font-family="Helvetica,sans-Serif" font-size="10.00">GetInfoState</text>
</a>
</g>
</g>
<!-- Node6&#45;&gt;Node14 -->
<g id="edge22_Node000014_Node000006" class="edge">
<title>Node6&#45;&gt;Node14</title>
<g id="a_edge22_Node000014_Node000006"><a xlink:title=" ">
<path fill="none" stroke="#9a32cd" stroke-dasharray="5,2" d="M612.48,-588.93C622.89,-592.53 632.84,-598 640,-606.29 674.39,-646.11 625.62,-681.83 658,-723.29 670.88,-739.79 798.46,-787.22 855.12,-807.69"/>
<polygon fill="#9a32cd" stroke="#9a32cd" points="613.45,-585.57 602.87,-586.12 611.49,-592.29 613.45,-585.57"/>
</a>
</g>
<text text-anchor="start" x="709" y="-793.79" font-family="Helvetica,sans-Serif" font-size="10.00" fill="grey">directory</text>
</g>
<!-- Node6&#45;&gt;Node15 -->
<g id="edge24_Node000015_Node000006" class="edge">
<title>Node6&#45;&gt;Node15</title>
<g id="a_edge24_Node000015_Node000006"><a xlink:title=" ">
<path fill="none" stroke="#9a32cd" stroke-dasharray="5,2" d="M612.58,-589.62C622.78,-593.2 632.63,-598.49 640,-606.29 662.95,-630.58 633.38,-656.69 658,-679.29 706.39,-723.71 740.64,-684.94 804,-702.29 824.1,-707.8 846.08,-716.82 861.57,-723.72"/>
<polygon fill="#9a32cd" stroke="#9a32cd" points="613.34,-586.2 602.75,-586.69 611.34,-592.91 613.34,-586.2"/>
</a>
</g>
<text text-anchor="start" x="709" y="-707.79" font-family="Helvetica,sans-Serif" font-size="10.00" fill="grey">directory</text>
</g>
<!-- Node6&#45;&gt;Node16 -->
<g id="edge27_Node000016_Node000006" class="edge">
<title>Node6&#45;&gt;Node16</title>
<g id="a_edge27_Node000016_Node000006"><a xlink:title=" ">
<path fill="none" stroke="#9a32cd" stroke-dasharray="5,2" d="M583.78,-566.52C599.88,-554.5 622.03,-537.19 640,-520.29 648.71,-512.1 648.22,-507.18 658,-500.29 717.8,-458.16 799.79,-430.8 846.18,-417.59"/>
<polygon fill="#9a32cd" stroke="#9a32cd" points="581.49,-563.86 575.52,-572.62 585.65,-569.49 581.49,-563.86"/>
</a>
</g>
<text text-anchor="start" x="709" y="-505.79" font-family="Helvetica,sans-Serif" font-size="10.00" fill="grey">directory</text>
</g>
<!-- Node6&#45;&gt;Node17 -->
<g id="edge30_Node000017_Node000006" class="edge">
<title>Node6&#45;&gt;Node17</title>
<g id="a_edge30_Node000017_Node000006"><a xlink:title=" ">
<path fill="none" stroke="#9a32cd" stroke-dasharray="5,2" d="M589.4,-567.63C606.75,-556.87 628.07,-540.62 640,-520.29 665.07,-477.57 627.17,-449.07 658,-410.29 682.53,-379.44 791.29,-344.43 847.74,-327.9"/>
<polygon fill="#9a32cd" stroke="#9a32cd" points="587.59,-564.64 580.77,-572.75 591.16,-570.66 587.59,-564.64"/>
</a>
</g>
<text text-anchor="start" x="709" y="-415.79" font-family="Helvetica,sans-Serif" font-size="10.00" fill="grey">directory</text>
</g>
<!-- Node6&#45;&gt;Node18 -->
<g id="edge33_Node000018_Node000006" class="edge">
<title>Node6&#45;&gt;Node18</title>
<g id="a_edge33_Node000018_Node000006"><a xlink:title=" ">
<path fill="none" stroke="#9a32cd" stroke-dasharray="5,2" d="M612.71,-584.51C669.52,-587 761.54,-591.02 821.91,-593.66"/>
<polygon fill="#9a32cd" stroke="#9a32cd" points="612.67,-581.01 602.53,-584.07 612.37,-588 612.67,-581.01"/>
</a>
</g>
<text text-anchor="start" x="709" y="-598.79" font-family="Helvetica,sans-Serif" font-size="10.00" fill="grey">directory</text>
</g>
<!-- Node6&#45;&gt;Node19 -->
<g id="edge36_Node000019_Node000006" class="edge">
<title>Node6&#45;&gt;Node19</title>
<g id="a_edge36_Node000019_Node000006"><a xlink:title=" ">
<path fill="none" stroke="#9a32cd" stroke-dasharray="5,2" d="M612.57,-588.49C623.07,-592.1 633.04,-597.69 640,-606.29 668.49,-641.5 632.51,-771.86 658,-809.29 698.83,-869.26 744.17,-841.27 804,-882.29 831.49,-901.14 859.31,-929.07 873.11,-943.65"/>
<polygon fill="#9a32cd" stroke="#9a32cd" points="613.43,-585.1 602.85,-585.7 611.5,-591.83 613.43,-585.1"/>
</a>
</g>
<text text-anchor="start" x="709" y="-887.79" font-family="Helvetica,sans-Serif" font-size="10.00" fill="grey">directory</text>
</g>
<!-- Node7&#45;&gt;Node6 -->
<g id="edge6_Node000006_Node000007" class="edge">
<title>Node7&#45;&gt;Node6</title>
<g id="a_edge6_Node000006_Node000007"><a xlink:title=" ">
<path fill="none" stroke="#9a32cd" stroke-dasharray="5,2" d="M359.36,-597.99C361.94,-597.75 364.49,-597.52 367,-597.29 419.55,-592.57 480.24,-588 519.31,-585.17"/>
<polygon fill="#9a32cd" stroke="#9a32cd" points="358.96,-594.51 349.34,-598.95 359.63,-601.48 358.96,-594.51"/>
</a>
</g>
<text text-anchor="start" x="398.5" y="-602.79" font-family="Helvetica,sans-Serif" font-size="10.00" fill="grey">details</text>
</g>
<!-- Node8 -->
<g id="Node000008" class="node">
<title>Node8</title>
<g id="a_Node000008"><a xlink:title=" ">
<polygon fill="white" stroke="#666666" points="87,-1100.79 0,-1100.79 0,-1081.79 87,-1081.79 87,-1100.79"/>
<text text-anchor="middle" x="43.5" y="-1088.79" font-family="Helvetica,sans-Serif" font-size="10.00">CajaFileQueue</text>
</a>
</g>
</g>
<!-- Node8&#45;&gt;Node7 -->
<g id="edge8_Node000007_Node000008" class="edge">
<title>Node8&#45;&gt;Node7</title>
<g id="a_edge8_Node000007_Node000008"><a xlink:title=" ">
<path fill="none" stroke="#9a32cd" stroke-dasharray="5,2" d="M74.97,-1076.88C79.13,-1074.53 83.25,-1071.97 87,-1069.29 147.59,-1025.95 171.36,-1018.16 208,-953.29 276.08,-832.77 285.12,-657.44 286.32,-614.87"/>
<polygon fill="#9a32cd" stroke="#9a32cd" points="73.13,-1073.9 65.95,-1081.69 76.42,-1080.08 73.13,-1073.9"/>
</a>
</g>
<text text-anchor="start" x="108.5" y="-1090.79" font-family="Helvetica,sans-Serif" font-size="10.00" fill="grey">extension_queue</text>
<text text-anchor="start" x="108.5" y="-1075.79" font-family="Helvetica,sans-Serif" font-size="10.00" fill="grey">high_priority_queue</text>
<text text-anchor="start" x="108.5" y="-1060.79" font-family="Helvetica,sans-Serif" font-size="10.00" fill="grey">low_priority_queue</text>
</g>
<!-- Node9 -->
<g id="Node000009" class="node">
<title>Node9</title>
<g id="a_Node000009"><a xlink:title=" ">
<polygon fill="white" stroke="#666666" points="81.5,-1060.79 5.5,-1060.79 5.5,-1041.79 81.5,-1041.79 81.5,-1060.79"/>
<text text-anchor="middle" x="43.5" y="-1048.79" font-family="Helvetica,sans-Serif" font-size="10.00">CajaMonitor</text>
</a>
</g>
</g>
<!-- Node9&#45;&gt;Node7 -->
<g id="edge9_Node000007_Node000009" class="edge">
<title>Node9&#45;&gt;Node7</title>
<g id="a_edge9_Node000007_Node000009"><a xlink:title=" ">
<path fill="none" stroke="#9a32cd" stroke-dasharray="5,2" d="M54.64,-1032.61C95.94,-956.48 250.85,-670.99 281.29,-614.89"/>
<polygon fill="#9a32cd" stroke="#9a32cd" points="51.47,-1031.1 49.78,-1041.56 57.63,-1034.44 51.47,-1031.1"/>
</a>
</g>
<text text-anchor="start" x="137.5" y="-937.79" font-family="Helvetica,sans-Serif" font-size="10.00" fill="grey">monitor</text>
</g>
<!-- Node10&#45;&gt;Node7 -->
<g id="edge10_Node000007_Node000010" class="edge">
<title>Node10&#45;&gt;Node7</title>
<g id="a_edge10_Node000007_Node000010"><a xlink:title=" ">
<path fill="none" stroke="#9a32cd" stroke-dasharray="5,2" d="M817.56,-229.16C772.32,-231.02 710.72,-236.07 658,-249.29 575.69,-269.94 541.71,-263 482,-323.29 467.13,-338.3 479.72,-353.17 464,-367.29 430.62,-397.27 399.92,-364.8 367,-395.29 305.32,-452.42 291.84,-562.65 289.13,-595.7"/>
<polygon fill="#9a32cd" stroke="#9a32cd" points="817.96,-232.65 827.82,-228.78 817.7,-225.65 817.96,-232.65"/>
</a>
</g>
<text text-anchor="start" x="495" y="-328.79" font-family="Helvetica,sans-Serif" font-size="10.00" fill="grey">directory_load_in_progress</text>
</g>
<!-- Node11&#45;&gt;Node7 -->
<g id="edge13_Node000007_Node000011" class="edge">
<title>Node11&#45;&gt;Node7</title>
<g id="a_edge13_Node000007_Node000011"><a xlink:title=" ">
<path fill="none" stroke="#9a32cd" stroke-dasharray="5,2" d="M814.34,-138.21C769.42,-140.14 709.46,-145.25 658,-158.29 575.58,-179.18 539.3,-170.47 482,-233.29 464.38,-252.61 481.9,-270.24 464,-289.29 432.3,-323.04 398.09,-292.99 367,-327.29 292.57,-409.41 288.15,-556.93 288.33,-595.73"/>
<polygon fill="#9a32cd" stroke="#9a32cd" points="814.7,-141.7 824.56,-137.82 814.43,-134.71 814.7,-141.7"/>
</a>
</g>
<text text-anchor="start" x="517" y="-238.79" font-family="Helvetica,sans-Serif" font-size="10.00" fill="grey">count_in_progress</text>
</g>
<!-- Node12&#45;&gt;Node7 -->
<g id="edge16_Node000007_Node000012" class="edge">
<title>Node12&#45;&gt;Node7</title>
<g id="a_edge16_Node000007_Node000012"><a xlink:title=" ">
<path fill="none" stroke="#9a32cd" stroke-dasharray="5,2" d="M848.05,-692.58C838.41,-698.1 828.72,-705.29 822,-714.29 802.79,-740.04 829.39,-764.61 804,-784.29 765.49,-814.15 407.32,-774.65 367,-747.29 318.51,-714.4 297,-641.21 290.63,-614.93"/>
<polygon fill="#9a32cd" stroke="#9a32cd" points="849.94,-695.53 857.18,-687.79 846.69,-689.33 849.94,-695.53"/>
</a>
</g>
<text text-anchor="start" x="502" y="-797.79" font-family="Helvetica,sans-Serif" font-size="10.00" fill="grey">deep_count_in_progress</text>
</g>
<!-- Node13&#45;&gt;Node7 -->
<g id="edge18_Node000007_Node000013" class="edge">
<title>Node13&#45;&gt;Node7</title>
<g id="a_edge18_Node000007_Node000013"><a xlink:title=" ">
<path fill="none" stroke="#9a32cd" stroke-dasharray="5,2" d="M829.01,-500.93C751.81,-505.61 604.29,-517.71 482,-546.29 421.81,-560.36 352.92,-582.97 315.75,-595.73"/>
<polygon fill="#9a32cd" stroke="#9a32cd" points="829.65,-504.4 839.43,-500.32 829.24,-497.41 829.65,-504.4"/>
</a>
</g>
<text text-anchor="start" x="506" y="-551.79" font-family="Helvetica,sans-Serif" font-size="10.00" fill="grey">mime_list_in_progress</text>
</g>
<!-- Node14&#45;&gt;Node7 -->
<g id="edge21_Node000007_Node000014" class="edge">
<title>Node14&#45;&gt;Node7</title>
<g id="a_edge21_Node000007_Node000014"><a xlink:title=" ">
<path fill="none" stroke="#9a32cd" stroke-dasharray="5,2" d="M855.33,-831.26C840.62,-838.18 821.79,-845.78 804,-849.29 707.29,-868.36 440.17,-839.33 367,-773.29 316.57,-727.78 295.94,-643.16 290.25,-614.82"/>
<polygon fill="#9a32cd" stroke="#9a32cd" points="856.89,-834.4 864.34,-826.87 853.82,-828.11 856.89,-834.4"/>
</a>
</g>
<text text-anchor="start" x="510" y="-856.79" font-family="Helvetica,sans-Serif" font-size="10.00" fill="grey">get_info_in_progress</text>
</g>
<!-- Node15&#45;&gt;Node7 -->
<g id="edge23_Node000007_Node000015" class="edge">
<title>Node15&#45;&gt;Node7</title>
<g id="a_edge23_Node000007_Node000015"><a xlink:title=" ">
<path fill="none" stroke="#9a32cd" stroke-dasharray="5,2" d="M825.47,-733.31C779.92,-732.47 714.41,-729.35 658,-719.29 525.11,-695.59 495.52,-673.59 367,-632.29 349.71,-626.74 330.42,-620.11 315.29,-614.81"/>
<polygon fill="#9a32cd" stroke="#9a32cd" points="825.68,-736.81 835.73,-733.46 825.79,-729.81 825.68,-736.81"/>
</a>
</g>
<text text-anchor="start" x="521" y="-721.79" font-family="Helvetica,sans-Serif" font-size="10.00" fill="grey">thumbnail_state</text>
</g>
<!-- Node16&#45;&gt;Node7 -->
<g id="edge26_Node000007_Node000016" class="edge">
<title>Node16&#45;&gt;Node7</title>
<g id="a_edge26_Node000007_Node000016"><a xlink:title=" ">
<path fill="none" stroke="#9a32cd" stroke-dasharray="5,2" d="M835.98,-408.21C790.25,-409.05 718.4,-412.89 658,-427.29 589.87,-443.53 427.81,-513.55 367,-548.29 341.7,-562.75 314.75,-583.7 299.93,-595.76"/>
<polygon fill="#9a32cd" stroke="#9a32cd" points="836.23,-411.71 846.18,-408.06 836.13,-404.71 836.23,-411.71"/>
</a>
</g>
<text text-anchor="start" x="530" y="-497.79" font-family="Helvetica,sans-Serif" font-size="10.00" fill="grey">mount_state</text>
</g>
<!-- Node17&#45;&gt;Node7 -->
<g id="edge29_Node000007_Node000017" class="edge">
<title>Node17&#45;&gt;Node7</title>
<g id="a_edge29_Node000007_Node000017"><a xlink:title=" ">
<path fill="none" stroke="#9a32cd" stroke-dasharray="5,2" d="M815.76,-319.32C770.7,-321.27 710.05,-326.37 658,-339.29 575.81,-359.7 551.14,-363.39 482,-412.29 472.24,-419.2 474.14,-425.94 464,-432.29 425.97,-456.11 401.95,-432.15 367,-460.29 320.84,-497.45 298.01,-569.32 290.95,-595.47"/>
<polygon fill="#9a32cd" stroke="#9a32cd" points="816.14,-322.8 825.99,-318.91 815.86,-315.81 816.14,-322.8"/>
</a>
</g>
<text text-anchor="start" x="508" y="-417.79" font-family="Helvetica,sans-Serif" font-size="10.00" fill="grey">filesystem_info_state</text>
</g>
<!-- Node18&#45;&gt;Node7 -->
<g id="edge32_Node000007_Node000018" class="edge">
<title>Node18&#45;&gt;Node7</title>
<g id="a_edge32_Node000007_Node000018"><a xlink:title=" ">
<path fill="none" stroke="#9a32cd" stroke-dasharray="5,2" d="M838.23,-608.23C827.15,-610.74 815.21,-613.02 804,-614.29 611.03,-636.27 560.91,-625.37 367,-614.29 361.25,-613.96 355.27,-613.5 349.3,-612.96"/>
<polygon fill="#9a32cd" stroke="#9a32cd" points="839.2,-611.59 848.12,-605.87 837.58,-604.78 839.2,-611.59"/>
</a>
</g>
<text text-anchor="start" x="514" y="-632.79" font-family="Helvetica,sans-Serif" font-size="10.00" fill="grey">top_left_read_state</text>
</g>
<!-- Node19&#45;&gt;Node7 -->
<g id="edge35_Node000007_Node000019" class="edge">
<title>Node19&#45;&gt;Node7</title>
<g id="a_edge35_Node000007_Node000019"><a xlink:title=" ">
<path fill="none" stroke="#9a32cd" stroke-dasharray="5,2" d="M819.53,-956.09C709.82,-957.29 483.16,-942.47 367,-810.29 313.16,-749.03 294.48,-646.94 289.8,-615.09"/>
<polygon fill="#9a32cd" stroke="#9a32cd" points="819.83,-959.59 829.77,-955.93 819.72,-952.59 819.83,-959.59"/>
</a>
</g>
<text text-anchor="start" x="511" y="-947.79" font-family="Helvetica,sans-Serif" font-size="10.00" fill="grey">link_info_read_state</text>
</g>
<!-- Node20 -->
<g id="Node000020" class="node">
<title>Node20</title>
<g id="a_Node000020"><a xlink:href="structCajaFileSortByEmblemCache.html" target="_top" xlink:title=" ">
<polygon fill="white" stroke="#666666" points="640,-43.79 482,-43.79 482,-24.79 640,-24.79 640,-43.79"/>
<text text-anchor="middle" x="561" y="-31.79" font-family="Helvetica,sans-Serif" font-size="10.00">CajaFileSortByEmblemCache</text>
</a>
</g>
</g>
<!-- Node20&#45;&gt;Node5 -->
<g id="edge38_Node000005_Node000020" class="edge">
<title>Node20&#45;&gt;Node5</title>
<g id="a_edge38_Node000005_Node000020"><a xlink:title=" ">
<path fill="none" stroke="#9a32cd" stroke-dasharray="5,2" d="M650.48,-34.29C710.3,-34.29 786.9,-34.29 835.23,-34.29"/>
<polygon fill="#9a32cd" stroke="#9a32cd" points="650.28,-30.79 640.28,-34.29 650.28,-37.79 650.28,-30.79"/>
</a>
</g>
<text text-anchor="start" x="661" y="-39.79" font-family="Helvetica,sans-Serif" font-size="10.00" fill="grey">compare_by_emblem_cache</text>
</g>
<!-- Node21&#45;&gt;Node3 -->
<g id="edge39_Node000003_Node000021" class="edge">
<title>Node21&#45;&gt;Node3</title>
<g id="a_edge39_Node000003_Node000021"><a xlink:title=" ">
<path fill="none" stroke="#9a32cd" stroke-dasharray="5,2" d="M590.92,-1077.46C609.66,-1069.02 634.81,-1058.67 658,-1052.29 667.27,-1049.74 793.02,-1031.26 851.93,-1022.66"/>
<polygon fill="#9a32cd" stroke="#9a32cd" points="589.38,-1074.31 581.75,-1081.66 592.3,-1080.68 589.38,-1074.31"/>
</a>
</g>
<text text-anchor="start" x="721" y="-1057.79" font-family="Helvetica,sans-Serif" font-size="10.00" fill="grey">root</text>
</g>
</g>
</svg>

<g id="navigator" transform="translate(0 0)" fill="#404254">
  <rect fill="#f2f5e9" fill-opacity="0.5" stroke="#606060" stroke-width=".5" x="0" y="0" width="60" height="60"/>
  <use id="zoomplus" xlink:href="#zoomPlus" x="17" y="9" onmousedown="handleZoom(evt,'in')"/>
  <use id="zoomminus" xlink:href="#zoomMin" x="42" y="9" onmousedown="handleZoom(evt,'out')"/>
  <use id="reset" xlink:href="#resetDef" x="30" y="36" onmousedown="handleReset()"/>
   <use id="arrowup" xlink:href="#arrowUp" x="0" y="0" onmousedown="handlePan(0,-1)"/>
  <use id="arrowright" xlink:href="#arrowRight" x="0" y="0" onmousedown="handlePan(1,0)"/>
  <use id="arrowdown" xlink:href="#arrowDown" x="0" y="0" onmousedown="handlePan(0,1)"/>
  <use id="arrowleft" xlink:href="#arrowLeft" x="0" y="0" onmousedown="handlePan(-1,0)"/>
</g>
<svg viewBox="0 0 15 15" width="100%" height="30px" preserveAspectRatio="xMaxYMin meet">
 <g id="arrow_out" transform="scale(0.3 0.3)">
  <a xlink:href="structFMTreeModel__coll__graph_org.svg" target="_base">
   <rect id="button" ry="5" rx="5" y="6" x="6" height="38" width="38"
        fill="#f2f5e9" fill-opacity="0.5" stroke="#606060" stroke-width="1.0"/>
   <path id="arrow"
     d="M 11.500037,31.436501 C 11.940474,20.09759 22.043105,11.32322 32.158766,21.979434 L 37.068811,17.246167 C 37.068811,17.246167 37.088388,32 37.088388,32 L 22.160133,31.978069 C 22.160133,31.978069 26.997745,27.140456 26.997745,27.140456 C 18.528582,18.264221 13.291696,25.230495 11.500037,31.436501 z"
     style="fill:#404040;"/>
  </a>
 </g>
</svg>

<style type='text/css'>
<![CDATA[
[data-mouse-over-selected='false'] { opacity: 0.7; }
[data-mouse-over-selected='true']  { opacity: 1.0; }
]]>
</style>
<script type="application/ecmascript"><![CDATA[
document.addEventListener('DOMContentLoaded', (event) => {
  highlightEdges();
  highlightAdjacentNodes();
});
]]></script>
</svg>
