<?xml version="1.0" encoding="UTF-8" standalone="no"?>
<!DOCTYPE svg PUBLIC "-//W3C//DTD SVG 1.1//EN"
 "http://www.w3.org/Graphics/SVG/1.1/DTD/svg11.dtd">
<!-- Generated by graphviz version 2.43.0 (0)
 -->
<!-- Title: CajaLocationEntry Pages: 1 -->
<svg width="247pt" height="171pt"
 viewBox="0.00 0.00 247.00 171.00" xmlns="http://www.w3.org/2000/svg" xmlns:xlink="http://www.w3.org/1999/xlink">

<svg id="main" version="1.1" xmlns="http://www.w3.org/2000/svg" xmlns:xlink="http://www.w3.org/1999/xlink" xml:space="preserve">

<style type="text/css"><![CDATA[
.node, .edge {opacity: 0.7;}
.node.selected, .edge.selected {opacity: 1;}
.edge:hover path { stroke: red; }
.edge:hover polygon { stroke: red; fill: red; }
]]></style>
<script type="application/ecmascript" xlink:href="svg.min.js"/>
<svg id="graph" class="graph">
<g id="graph0" class="graph" transform="scale(1 1) rotate(0) translate(4 167)">
<title>CajaLocationEntry</title>
<!-- Node1 -->
<g id="Node000001" class="node">
<title>Node1</title>
<g id="a_Node000001"><a xlink:title=" ">
<polygon fill="#999999" stroke="#666666" points="190.5,-19 85.5,-19 85.5,0 190.5,0 190.5,-19"/>
<text text-anchor="middle" x="138" y="-7" font-family="Helvetica,sans-Serif" font-size="10.00">CajaLocationEntry</text>
</a>
</g>
</g>
<!-- Node2 -->
<g id="Node000002" class="node">
<title>Node2</title>
<g id="a_Node000002"><a xlink:href="structCajaEntry.html" target="_top" xlink:title=" ">
<polygon fill="white" stroke="#666666" points="81,-91 17,-91 17,-72 81,-72 81,-91"/>
<text text-anchor="middle" x="49" y="-79" font-family="Helvetica,sans-Serif" font-size="10.00">CajaEntry</text>
</a>
</g>
</g>
<!-- Node2&#45;&gt;Node1 -->
<g id="edge1_Node000001_Node000002" class="edge">
<title>Node2&#45;&gt;Node1</title>
<g id="a_edge1_Node000001_Node000002"><a xlink:title=" ">
<path fill="none" stroke="#9a32cd" stroke-dasharray="5,2" d="M67.97,-65.58C85.93,-51.46 112.27,-30.74 127,-19.15"/>
<polygon fill="#9a32cd" stroke="#9a32cd" points="65.61,-62.98 59.91,-71.92 69.94,-68.49 65.61,-62.98"/>
</a>
</g>
<text text-anchor="start" x="108" y="-42.5" font-family="Helvetica,sans-Serif" font-size="10.00" fill="grey">parent</text>
</g>
<!-- Node3 -->
<g id="Node000003" class="node">
<title>Node3</title>
<g id="a_Node000003"><a xlink:title=" ">
<polygon fill="white" stroke="#666666" points="98,-163 0,-163 0,-144 98,-144 98,-163"/>
<text text-anchor="middle" x="49" y="-151" font-family="Helvetica,sans-Serif" font-size="10.00">CajaEntryDetails</text>
</a>
</g>
</g>
<!-- Node3&#45;&gt;Node2 -->
<g id="edge2_Node000002_Node000003" class="edge">
<title>Node3&#45;&gt;Node2</title>
<g id="a_edge2_Node000002_Node000003"><a xlink:title=" ">
<path fill="none" stroke="#9a32cd" stroke-dasharray="5,2" d="M49,-133.58C49,-119.76 49,-101.68 49,-91.15"/>
<polygon fill="#9a32cd" stroke="#9a32cd" points="45.5,-133.92 49,-143.92 52.5,-133.92 45.5,-133.92"/>
</a>
</g>
<text text-anchor="start" x="52" y="-114.5" font-family="Helvetica,sans-Serif" font-size="10.00" fill="grey">details</text>
</g>
<!-- Node4 -->
<g id="Node000004" class="node">
<title>Node4</title>
<g id="a_Node000004"><a xlink:title=" ">
<polygon fill="white" stroke="#666666" points="239,-91 99,-91 99,-72 239,-72 239,-91"/>
<text text-anchor="middle" x="169" y="-79" font-family="Helvetica,sans-Serif" font-size="10.00">CajaLocationEntryDetails</text>
</a>
</g>
</g>
<!-- Node4&#45;&gt;Node1 -->
<g id="edge3_Node000001_Node000004" class="edge">
<title>Node4&#45;&gt;Node1</title>
<g id="a_edge3_Node000001_Node000004"><a xlink:title=" ">
<path fill="none" stroke="#9a32cd" stroke-dasharray="5,2" d="M160.98,-62.4C154.82,-48.49 146.59,-29.89 141.83,-19.15"/>
<polygon fill="#9a32cd" stroke="#9a32cd" points="157.95,-64.19 165.2,-71.92 164.35,-61.36 157.95,-64.19"/>
</a>
</g>
<text text-anchor="start" x="160" y="-42.5" font-family="Helvetica,sans-Serif" font-size="10.00" fill="grey">details</text>
</g>
</g>
</svg>
</svg>

<style type='text/css'>
<![CDATA[
[data-mouse-over-selected='false'] { opacity: 0.7; }
[data-mouse-over-selected='true']  { opacity: 1.0; }
]]>
</style>
<script type="application/ecmascript"><![CDATA[
document.addEventListener('DOMContentLoaded', (event) => {
  highlightEdges();
  highlightAdjacentNodes();
});
]]></script>
</svg>
