<?xml version="1.0" encoding="UTF-8" standalone="no"?>
<!DOCTYPE svg PUBLIC "-//W3C//DTD SVG 1.1//EN"
 "http://www.w3.org/Graphics/SVG/1.1/DTD/svg11.dtd">
<!-- Generated by graphviz version 2.43.0 (0)
 -->
<!-- Title: DropboxClient Pages: 1 -->
<svg width="290pt" height="99pt"
 viewBox="0.00 0.00 289.50 99.00" xmlns="http://www.w3.org/2000/svg" xmlns:xlink="http://www.w3.org/1999/xlink">
<g id="graph0" class="graph" transform="scale(1 1) rotate(0) translate(4 95)">
<title>DropboxClient</title>
<!-- Node1 -->
<g id="Node000001" class="node">
<title>Node1</title>
<g id="a_Node000001"><a xlink:title=" ">
<polygon fill="#999999" stroke="#666666" points="186.5,-19 100.5,-19 100.5,0 186.5,0 186.5,-19"/>
<text text-anchor="middle" x="143.5" y="-7" font-family="Helvetica,sans-Serif" font-size="10.00">DropboxClient</text>
</a>
</g>
</g>
<!-- Node2 -->
<g id="Node000002" class="node">
<title>Node2</title>
<g id="a_Node000002"><a xlink:href="structDropboxCommandClient.html" target="_top" xlink:title=" ">
<polygon fill="white" stroke="#666666" points="137,-91 0,-91 0,-72 137,-72 137,-91"/>
<text text-anchor="middle" x="68.5" y="-79" font-family="Helvetica,sans-Serif" font-size="10.00">DropboxCommandClient</text>
</a>
</g>
</g>
<!-- Node2&#45;&gt;Node1 -->
<g id="edge1_Node000001_Node000002" class="edge">
<title>Node2&#45;&gt;Node1</title>
<g id="a_edge1_Node000001_Node000002"><a xlink:title=" ">
<path fill="none" stroke="#9a32cd" stroke-dasharray="5,2" d="M85.32,-64.8C100.42,-50.71 122.04,-30.53 134.23,-19.15"/>
<polygon fill="#9a32cd" stroke="#9a32cd" points="82.62,-62.53 77.7,-71.92 87.4,-67.65 82.62,-62.53"/>
</a>
</g>
<text text-anchor="start" x="119" y="-42.5" font-family="Helvetica,sans-Serif" font-size="10.00" fill="grey">dcc</text>
</g>
<!-- Node3 -->
<g id="Node000003" class="node">
<title>Node3</title>
<g id="a_Node000003"><a xlink:href="structCajaDropboxHookserv.html" target="_top" xlink:title=" ">
<polygon fill="white" stroke="#666666" points="281.5,-91 155.5,-91 155.5,-72 281.5,-72 281.5,-91"/>
<text text-anchor="middle" x="218.5" y="-79" font-family="Helvetica,sans-Serif" font-size="10.00">CajaDropboxHookserv</text>
</a>
</g>
</g>
<!-- Node3&#45;&gt;Node1 -->
<g id="edge2_Node000001_Node000003" class="edge">
<title>Node3&#45;&gt;Node1</title>
<g id="a_edge2_Node000001_Node000003"><a xlink:title=" ">
<path fill="none" stroke="#9a32cd" stroke-dasharray="5,2" d="M201.68,-64.8C186.58,-50.71 164.96,-30.53 152.77,-19.15"/>
<polygon fill="#9a32cd" stroke="#9a32cd" points="199.6,-67.65 209.3,-71.92 204.38,-62.53 199.6,-67.65"/>
</a>
</g>
<text text-anchor="start" x="192.5" y="-42.5" font-family="Helvetica,sans-Serif" font-size="10.00" fill="grey">hookserv</text>
</g>
</g>
</svg>
