<?xml version="1.0" encoding="UTF-8" standalone="no"?>
<!DOCTYPE svg PUBLIC "-//W3C//DTD SVG 1.1//EN"
 "http://www.w3.org/Graphics/SVG/1.1/DTD/svg11.dtd">
<!-- Generated by graphviz version 2.43.0 (0)
 -->
<!-- Title: _EomImage Pages: 1 -->
<svg width="160pt" height="258pt"
 viewBox="0.00 0.00 159.50 258.00" xmlns="http://www.w3.org/2000/svg" xmlns:xlink="http://www.w3.org/1999/xlink">
<g id="graph0" class="graph" transform="scale(1 1) rotate(0) translate(4 254)">
<title>_EomImage</title>
<!-- Node1 -->
<g id="Node000001" class="node">
<title>Node1</title>
<g id="a_Node000001"><a xlink:title=" ">
<polygon fill="#999999" stroke="#666666" points="100.5,-19 26.5,-19 26.5,0 100.5,0 100.5,-19"/>
<text text-anchor="middle" x="63.5" y="-7" font-family="Helvetica,sans-Serif" font-size="10.00">_EomImage</text>
</a>
</g>
</g>
<!-- Node2 -->
<g id="Node000002" class="node">
<title>Node2</title>
<g id="a_Node000002"><a xlink:href="struct__EomImagePrivate.html" target="_top" xlink:title=" ">
<polygon fill="white" stroke="#666666" points="118,-91 9,-91 9,-72 118,-72 118,-91"/>
<text text-anchor="middle" x="63.5" y="-79" font-family="Helvetica,sans-Serif" font-size="10.00">_EomImagePrivate</text>
</a>
</g>
</g>
<!-- Node2&#45;&gt;Node1 -->
<g id="edge1_Node000001_Node000002" class="edge">
<title>Node2&#45;&gt;Node1</title>
<g id="a_edge1_Node000001_Node000002"><a xlink:title=" ">
<path fill="none" stroke="#9a32cd" stroke-dasharray="5,2" d="M63.5,-61.58C63.5,-47.76 63.5,-29.68 63.5,-19.15"/>
<polygon fill="#9a32cd" stroke="#9a32cd" points="60,-61.92 63.5,-71.92 67,-61.92 60,-61.92"/>
</a>
</g>
<text text-anchor="start" x="67" y="-42.5" font-family="Helvetica,sans-Serif" font-size="10.00" fill="grey">priv</text>
</g>
<!-- Node3 -->
<g id="Node000003" class="node">
<title>Node3</title>
<g id="a_Node000003"><a xlink:href="struct__EomTransform.html" target="_top" xlink:title=" ">
<polygon fill="white" stroke="#666666" points="109.5,-178 17.5,-178 17.5,-159 109.5,-159 109.5,-178"/>
<text text-anchor="middle" x="63.5" y="-166" font-family="Helvetica,sans-Serif" font-size="10.00">_EomTransform</text>
</a>
</g>
</g>
<!-- Node3&#45;&gt;Node2 -->
<g id="edge2_Node000002_Node000003" class="edge">
<title>Node3&#45;&gt;Node2</title>
<g id="a_edge2_Node000002_Node000003"><a xlink:title=" ">
<path fill="none" stroke="#9a32cd" stroke-dasharray="5,2" d="M63.5,-148.62C63.5,-130.79 63.5,-104.83 63.5,-91.36"/>
<polygon fill="#9a32cd" stroke="#9a32cd" points="60,-148.72 63.5,-158.72 67,-148.72 60,-148.72"/>
</a>
</g>
<text text-anchor="start" x="66.5" y="-130" font-family="Helvetica,sans-Serif" font-size="10.00" fill="grey">trans</text>
<text text-anchor="start" x="66.5" y="-115" font-family="Helvetica,sans-Serif" font-size="10.00" fill="grey">trans_autorotate</text>
</g>
<!-- Node4 -->
<g id="Node000004" class="node">
<title>Node4</title>
<g id="a_Node000004"><a xlink:title=" ">
<polygon fill="white" stroke="#666666" points="127,-250 0,-250 0,-231 127,-231 127,-250"/>
<text text-anchor="middle" x="63.5" y="-238" font-family="Helvetica,sans-Serif" font-size="10.00">_EomTransformPrivate</text>
</a>
</g>
</g>
<!-- Node4&#45;&gt;Node3 -->
<g id="edge3_Node000003_Node000004" class="edge">
<title>Node4&#45;&gt;Node3</title>
<g id="a_edge3_Node000003_Node000004"><a xlink:title=" ">
<path fill="none" stroke="#9a32cd" stroke-dasharray="5,2" d="M63.5,-220.58C63.5,-206.76 63.5,-188.68 63.5,-178.15"/>
<polygon fill="#9a32cd" stroke="#9a32cd" points="60,-220.92 63.5,-230.92 67,-220.92 60,-220.92"/>
</a>
</g>
<text text-anchor="start" x="67" y="-201.5" font-family="Helvetica,sans-Serif" font-size="10.00" fill="grey">priv</text>
</g>
</g>
</svg>
