<?xml version="1.0" encoding="UTF-8" standalone="no"?>
<!DOCTYPE svg PUBLIC "-//W3C//DTD SVG 1.1//EN"
 "http://www.w3.org/Graphics/SVG/1.1/DTD/svg11.dtd">
<!-- Generated by graphviz version 2.43.0 (0)
 -->
<!-- Title: _MatePanelAppletFrame Pages: 1 -->
<svg width="639pt" height="243pt"
 viewBox="0.00 0.00 638.50 243.00" xmlns="http://www.w3.org/2000/svg" xmlns:xlink="http://www.w3.org/1999/xlink">
<g id="graph0" class="graph" transform="scale(1 1) rotate(0) translate(4 239)">
<title>_MatePanelAppletFrame</title>
<!-- Node1 -->
<g id="Node000001" class="node">
<title>Node1</title>
<g id="a_Node000001"><a xlink:title=" ">
<polygon fill="#999999" stroke="#666666" points="228,-19 93,-19 93,0 228,0 228,-19"/>
<text text-anchor="middle" x="160.5" y="-7" font-family="Helvetica,sans-Serif" font-size="10.00">_MatePanelAppletFrame</text>
</a>
</g>
</g>
<!-- Node2 -->
<g id="Node000002" class="node">
<title>Node2</title>
<g id="a_Node000002"><a xlink:title=" ">
<polygon fill="white" stroke="#666666" points="245.5,-91 75.5,-91 75.5,-72 245.5,-72 245.5,-91"/>
<text text-anchor="middle" x="160.5" y="-79" font-family="Helvetica,sans-Serif" font-size="10.00">_MatePanelAppletFramePrivate</text>
</a>
</g>
</g>
<!-- Node2&#45;&gt;Node1 -->
<g id="edge1_Node000001_Node000002" class="edge">
<title>Node2&#45;&gt;Node1</title>
<g id="a_edge1_Node000001_Node000002"><a xlink:title=" ">
<path fill="none" stroke="#9a32cd" stroke-dasharray="5,2" d="M160.5,-61.58C160.5,-47.76 160.5,-29.68 160.5,-19.15"/>
<polygon fill="#9a32cd" stroke="#9a32cd" points="157,-61.92 160.5,-71.92 164,-61.92 157,-61.92"/>
</a>
</g>
<text text-anchor="start" x="164" y="-42.5" font-family="Helvetica,sans-Serif" font-size="10.00" fill="grey">priv</text>
</g>
<!-- Node3 -->
<g id="Node000003" class="node">
<title>Node3</title>
<g id="a_Node000003"><a xlink:href="struct__PanelWidget.html" target="_top" xlink:title=" ">
<polygon fill="white" stroke="#666666" points="329,-163 246,-163 246,-144 329,-144 329,-163"/>
<text text-anchor="middle" x="287.5" y="-151" font-family="Helvetica,sans-Serif" font-size="10.00">_PanelWidget</text>
</a>
</g>
</g>
<!-- Node3&#45;&gt;Node2 -->
<g id="edge2_Node000002_Node000003" class="edge">
<title>Node3&#45;&gt;Node2</title>
<g id="a_edge2_Node000002_Node000003"><a xlink:title=" ">
<path fill="none" stroke="#9a32cd" stroke-dasharray="5,2" d="M261.87,-139.17C254.53,-135.13 246.6,-130.55 239.5,-126 228.8,-119.14 227.41,-115.53 216.5,-109 205.15,-102.21 191.78,-95.82 180.95,-91.03"/>
<polygon fill="#9a32cd" stroke="#9a32cd" points="260.28,-142.29 270.75,-143.95 263.6,-136.12 260.28,-142.29"/>
</a>
</g>
<text text-anchor="start" x="242.5" y="-114.5" font-family="Helvetica,sans-Serif" font-size="10.00" fill="grey">panel</text>
</g>
<!-- Node7 -->
<g id="Node000007" class="node">
<title>Node7</title>
<g id="a_Node000007"><a xlink:title=" ">
<polygon fill="white" stroke="#666666" points="476,-91 353,-91 353,-72 476,-72 476,-91"/>
<text text-anchor="middle" x="414.5" y="-79" font-family="Helvetica,sans-Serif" font-size="10.00">_PanelToplevelPrivate</text>
</a>
</g>
</g>
<!-- Node3&#45;&gt;Node7 -->
<g id="edge9_Node000007_Node000003" class="edge">
<title>Node3&#45;&gt;Node7</title>
<g id="a_edge9_Node000007_Node000003"><a xlink:title=" ">
<path fill="none" stroke="#9a32cd" stroke-dasharray="5,2" d="M303.3,-136.7C313.07,-127.62 326.24,-116.56 339.5,-109 352.82,-101.41 368.69,-95.42 382.39,-91.07"/>
<polygon fill="#9a32cd" stroke="#9a32cd" points="300.76,-134.29 295.97,-143.74 305.61,-139.34 300.76,-134.29"/>
</a>
</g>
<text text-anchor="start" x="342.5" y="-114.5" font-family="Helvetica,sans-Serif" font-size="10.00" fill="grey">panel_widget</text>
</g>
<!-- Node4 -->
<g id="Node000004" class="node">
<title>Node4</title>
<g id="a_Node000004"><a xlink:href="struct__AppletData.html" target="_top" xlink:title=" ">
<polygon fill="white" stroke="#666666" points="77,-235 0,-235 0,-216 77,-216 77,-235"/>
<text text-anchor="middle" x="38.5" y="-223" font-family="Helvetica,sans-Serif" font-size="10.00">_AppletData</text>
</a>
</g>
</g>
<!-- Node4&#45;&gt;Node3 -->
<g id="edge3_Node000003_Node000004" class="edge">
<title>Node4&#45;&gt;Node3</title>
<g id="a_edge3_Node000003_Node000004"><a xlink:title=" ">
<path fill="none" stroke="#9a32cd" stroke-dasharray="5,2" d="M46.74,-206.6C51.93,-197.41 59.55,-186.92 69.5,-181 76.98,-176.56 184.58,-164.98 245.76,-158.7"/>
<polygon fill="#9a32cd" stroke="#9a32cd" points="43.47,-205.3 42.06,-215.8 49.71,-208.47 43.47,-205.3"/>
</a>
</g>
<text text-anchor="start" x="73" y="-186.5" font-family="Helvetica,sans-Serif" font-size="10.00" fill="grey">currently_dragged_applet</text>
</g>
<!-- Node5 -->
<g id="Node000005" class="node">
<title>Node5</title>
<g id="a_Node000005"><a xlink:href="struct__PanelBackground.html" target="_top" xlink:title=" ">
<polygon fill="white" stroke="#666666" points="531.5,-235 425.5,-235 425.5,-216 531.5,-216 531.5,-235"/>
<text text-anchor="middle" x="478.5" y="-223" font-family="Helvetica,sans-Serif" font-size="10.00">_PanelBackground</text>
</a>
</g>
</g>
<!-- Node5&#45;&gt;Node3 -->
<g id="edge4_Node000003_Node000005" class="edge">
<title>Node5&#45;&gt;Node3</title>
<g id="a_edge4_Node000003_Node000005"><a xlink:title=" ">
<path fill="none" stroke="#9a32cd" stroke-dasharray="5,2" d="M450.81,-211.45C442.82,-207.4 434.18,-202.75 426.5,-198 415.69,-191.31 415.05,-186.31 403.5,-181 380.03,-170.22 351.83,-163.65 329.1,-159.75"/>
<polygon fill="#9a32cd" stroke="#9a32cd" points="449.29,-214.61 459.8,-215.9 452.39,-208.33 449.29,-214.61"/>
</a>
</g>
<text text-anchor="start" x="429.5" y="-186.5" font-family="Helvetica,sans-Serif" font-size="10.00" fill="grey">background</text>
</g>
<!-- Node5&#45;&gt;Node5 -->
<g id="edge5_Node000005_Node000005" class="edge">
<title>Node5&#45;&gt;Node5</title>
<g id="a_edge5_Node000005_Node000005"><a xlink:title=" ">
<path fill="none" stroke="#9a32cd" stroke-dasharray="5,2" d="M541.93,-230.52C546.62,-229.39 549.5,-227.72 549.5,-225.5 549.5,-221.95 542.13,-219.8 531.76,-219.05"/>
<polygon fill="#9a32cd" stroke="#9a32cd" points="541.17,-227.09 531.76,-231.95 542.15,-234.02 541.17,-227.09"/>
</a>
</g>
<text text-anchor="start" x="553" y="-222.5" font-family="Helvetica,sans-Serif" font-size="10.00" fill="grey">notify_changed</text>
</g>
<!-- Node6 -->
<g id="Node000006" class="node">
<title>Node6</title>
<g id="a_Node000006"><a xlink:href="struct__PanelToplevel.html" target="_top" xlink:title=" ">
<polygon fill="white" stroke="#666666" points="437,-19 348,-19 348,0 437,0 437,-19"/>
<text text-anchor="middle" x="392.5" y="-7" font-family="Helvetica,sans-Serif" font-size="10.00">_PanelToplevel</text>
</a>
</g>
</g>
<!-- Node5&#45;&gt;Node6 -->
<g id="edge7_Node000006_Node000005" class="edge">
<title>Node5&#45;&gt;Node6</title>
<g id="a_edge7_Node000006_Node000005"><a xlink:title=" ">
<path fill="none" stroke="#9a32cd" stroke-dasharray="5,2" d="M487.71,-206.89C488.86,-203.99 489.86,-200.96 490.5,-198 497.5,-165.57 523.42,-167.71 485.5,-72 477.95,-52.95 472.05,-49.07 455.5,-37 444.95,-29.31 431.84,-23.33 420.31,-19.02"/>
<polygon fill="#9a32cd" stroke="#9a32cd" points="484.52,-205.45 483.48,-215.99 490.87,-208.4 484.52,-205.45"/>
</a>
</g>
<text text-anchor="start" x="505.5" y="-114.5" font-family="Helvetica,sans-Serif" font-size="10.00" fill="grey">background</text>
</g>
<!-- Node6&#45;&gt;Node3 -->
<g id="edge6_Node000003_Node000006" class="edge">
<title>Node6&#45;&gt;Node3</title>
<g id="a_edge6_Node000003_Node000006"><a xlink:title=" ">
<path fill="none" stroke="#9a32cd" stroke-dasharray="5,2" d="M355.62,-23.01C333.94,-32.61 308.65,-48.31 297.5,-72 286.23,-95.96 286.12,-128.14 286.86,-143.55"/>
<polygon fill="#9a32cd" stroke="#9a32cd" points="357.06,-26.21 364.95,-19.15 354.38,-19.74 357.06,-26.21"/>
</a>
</g>
<text text-anchor="start" x="300.5" y="-78.5" font-family="Helvetica,sans-Serif" font-size="10.00" fill="grey">toplevel</text>
</g>
<!-- Node6&#45;&gt;Node7 -->
<g id="edge11_Node000007_Node000006" class="edge">
<title>Node6&#45;&gt;Node7</title>
<g id="a_edge11_Node000007_Node000006"><a xlink:title=" ">
<path fill="none" stroke="#9a32cd" stroke-dasharray="5,2" d="M351.2,-23.78C345.76,-27.24 340.9,-31.58 337.5,-37 333.48,-43.4 333.11,-47.85 337.5,-54 343.41,-62.29 352.09,-68.01 361.51,-71.95"/>
<polygon fill="#9a32cd" stroke="#9a32cd" points="352.92,-26.83 360.09,-19.03 349.62,-20.65 352.92,-26.83"/>
</a>
</g>
<text text-anchor="start" x="340.5" y="-42.5" font-family="Helvetica,sans-Serif" font-size="10.00" fill="grey">attach_toplevel</text>
</g>
<!-- Node7&#45;&gt;Node6 -->
<g id="edge8_Node000006_Node000007" class="edge">
<title>Node7&#45;&gt;Node6</title>
<g id="a_edge8_Node000006_Node000007"><a xlink:title=" ">
<path fill="none" stroke="#9a32cd" stroke-dasharray="5,2" d="M423.23,-62.28C425.83,-54.26 427.14,-44.89 423.5,-37 420.12,-29.67 413.61,-23.61 407.42,-19.15"/>
<polygon fill="#9a32cd" stroke="#9a32cd" points="419.88,-61.22 419.36,-71.8 426.36,-63.85 419.88,-61.22"/>
</a>
</g>
<text text-anchor="start" x="430" y="-42.5" font-family="Helvetica,sans-Serif" font-size="10.00" fill="grey">priv</text>
</g>
<!-- Node8 -->
<g id="Node000008" class="node">
<title>Node8</title>
<g id="a_Node000008"><a xlink:href="struct__PanelFrame.html" target="_top" xlink:title=" ">
<polygon fill="white" stroke="#666666" points="455,-163 376,-163 376,-144 455,-144 455,-163"/>
<text text-anchor="middle" x="415.5" y="-151" font-family="Helvetica,sans-Serif" font-size="10.00">_PanelFrame</text>
</a>
</g>
</g>
<!-- Node8&#45;&gt;Node7 -->
<g id="edge10_Node000007_Node000008" class="edge">
<title>Node8&#45;&gt;Node7</title>
<g id="a_edge10_Node000007_Node000008"><a xlink:title=" ">
<path fill="none" stroke="#9a32cd" stroke-dasharray="5,2" d="M415.23,-133.58C415.03,-119.76 414.77,-101.68 414.62,-91.15"/>
<polygon fill="#9a32cd" stroke="#9a32cd" points="411.73,-133.97 415.38,-143.92 418.73,-133.87 411.73,-133.97"/>
</a>
</g>
<text text-anchor="start" x="418.5" y="-114.5" font-family="Helvetica,sans-Serif" font-size="10.00" fill="grey">inner_frame</text>
</g>
<!-- Node9 -->
<g id="Node000009" class="node">
<title>Node9</title>
<g id="a_Node000009"><a xlink:href="struct__AppletSizeHints.html" target="_top" xlink:title=" ">
<polygon fill="white" stroke="#666666" points="233,-235 134,-235 134,-216 233,-216 233,-235"/>
<text text-anchor="middle" x="183.5" y="-223" font-family="Helvetica,sans-Serif" font-size="10.00">_AppletSizeHints</text>
</a>
</g>
</g>
<!-- Node9&#45;&gt;Node3 -->
<g id="edge12_Node000003_Node000009" class="edge">
<title>Node9&#45;&gt;Node3</title>
<g id="a_edge12_Node000003_Node000009"><a xlink:title=" ">
<path fill="none" stroke="#9a32cd" stroke-dasharray="5,2" d="M195.22,-207.58C202.05,-198.71 211.32,-188.23 221.5,-181 232.37,-173.28 245.82,-167.36 257.73,-163.09"/>
<polygon fill="#9a32cd" stroke="#9a32cd" points="192.34,-205.59 189.25,-215.72 197.99,-209.72 192.34,-205.59"/>
</a>
</g>
<text text-anchor="start" x="224.5" y="-186.5" font-family="Helvetica,sans-Serif" font-size="10.00" fill="grey">applets_hints</text>
</g>
<!-- Node10 -->
<g id="Node000010" class="node">
<title>Node10</title>
<g id="a_Node000010"><a xlink:href="struct__AppletSizeHintsAlloc.html" target="_top" xlink:title=" ">
<polygon fill="white" stroke="#666666" points="374,-235 251,-235 251,-216 374,-216 374,-235"/>
<text text-anchor="middle" x="312.5" y="-223" font-family="Helvetica,sans-Serif" font-size="10.00">_AppletSizeHintsAlloc</text>
</a>
</g>
</g>
<!-- Node10&#45;&gt;Node3 -->
<g id="edge13_Node000003_Node000010" class="edge">
<title>Node10&#45;&gt;Node3</title>
<g id="a_edge13_Node000003_Node000010"><a xlink:title=" ">
<path fill="none" stroke="#9a32cd" stroke-dasharray="5,2" d="M306.04,-206.4C301.07,-192.49 294.43,-173.89 290.59,-163.15"/>
<polygon fill="#9a32cd" stroke="#9a32cd" points="302.77,-207.68 309.43,-215.92 309.37,-205.32 302.77,-207.68"/>
</a>
</g>
<text text-anchor="start" x="306.5" y="-186.5" font-family="Helvetica,sans-Serif" font-size="10.00" fill="grey">applets_using_hint</text>
</g>
<!-- Node11 -->
<g id="Node000011" class="node">
<title>Node11</title>
<g id="a_Node000011"><a xlink:href="structAppletInfo.html" target="_top" xlink:title=" ">
<polygon fill="white" stroke="#666666" points="188,-163 121,-163 121,-144 188,-144 188,-163"/>
<text text-anchor="middle" x="154.5" y="-151" font-family="Helvetica,sans-Serif" font-size="10.00">AppletInfo</text>
</a>
</g>
</g>
<!-- Node11&#45;&gt;Node2 -->
<g id="edge14_Node000002_Node000011" class="edge">
<title>Node11&#45;&gt;Node2</title>
<g id="a_edge14_Node000002_Node000011"><a xlink:title=" ">
<path fill="none" stroke="#9a32cd" stroke-dasharray="5,2" d="M154.26,-133.72C154.34,-126.04 154.65,-117.08 155.5,-109 156.13,-103.04 157.38,-96.42 158.47,-91.28"/>
<polygon fill="#9a32cd" stroke="#9a32cd" points="150.76,-133.81 154.28,-143.81 157.76,-133.8 150.76,-133.81"/>
</a>
</g>
<text text-anchor="start" x="159" y="-114.5" font-family="Helvetica,sans-Serif" font-size="10.00" fill="grey">applet_info</text>
</g>
</g>
</svg>
