<?xml version="1.0" encoding="UTF-8" standalone="no"?>
<!DOCTYPE svg PUBLIC "-//W3C//DTD SVG 1.1//EN"
 "http://www.w3.org/Graphics/SVG/1.1/DTD/svg11.dtd">
<!-- Generated by graphviz version 2.43.0 (0)
 -->
<!-- Title: _PulseSinkControlClass Pages: 1 -->
<svg width="300pt" height="243pt"
 viewBox="0.00 0.00 300.00 243.00" xmlns="http://www.w3.org/2000/svg" xmlns:xlink="http://www.w3.org/1999/xlink">
<g id="graph0" class="graph" transform="scale(1 1) rotate(0) translate(4 239)">
<title>_PulseSinkControlClass</title>
<!-- Node1 -->
<g id="Node000001" class="node">
<title>Node1</title>
<g id="a_Node000001"><a xlink:title=" ">
<polygon fill="#999999" stroke="#666666" points="222.5,-19 91.5,-19 91.5,0 222.5,0 222.5,-19"/>
<text text-anchor="middle" x="157" y="-7" font-family="Helvetica,sans-Serif" font-size="10.00">_PulseSinkControlClass</text>
</a>
</g>
</g>
<!-- Node2 -->
<g id="Node000002" class="node">
<title>Node2</title>
<g id="a_Node000002"><a xlink:href="struct__PulseStreamControlClass.html" target="_top" xlink:title=" ">
<polygon fill="white" stroke="#666666" points="229.5,-91 84.5,-91 84.5,-72 229.5,-72 229.5,-91"/>
<text text-anchor="middle" x="157" y="-79" font-family="Helvetica,sans-Serif" font-size="10.00">_PulseStreamControlClass</text>
</a>
</g>
</g>
<!-- Node2&#45;&gt;Node1 -->
<g id="edge1_Node000001_Node000002" class="edge">
<title>Node2&#45;&gt;Node1</title>
<g id="a_edge1_Node000001_Node000002"><a xlink:title=" ">
<path fill="none" stroke="#9a32cd" stroke-dasharray="5,2" d="M157,-61.58C157,-47.76 157,-29.68 157,-19.15"/>
<polygon fill="#9a32cd" stroke="#9a32cd" points="153.5,-61.92 157,-71.92 160.5,-61.92 153.5,-61.92"/>
</a>
</g>
<text text-anchor="start" x="160" y="-42.5" font-family="Helvetica,sans-Serif" font-size="10.00" fill="grey">parent_class</text>
</g>
<!-- Node3 -->
<g id="Node000003" class="node">
<title>Node3</title>
<g id="a_Node000003"><a xlink:href="struct__MateMixerStreamControlClass.html" target="_top" xlink:title=" ">
<polygon fill="white" stroke="#666666" points="170,-163 0,-163 0,-144 170,-144 170,-163"/>
<text text-anchor="middle" x="85" y="-151" font-family="Helvetica,sans-Serif" font-size="10.00">_MateMixerStreamControlClass</text>
</a>
</g>
</g>
<!-- Node3&#45;&gt;Node2 -->
<g id="edge2_Node000002_Node000003" class="edge">
<title>Node3&#45;&gt;Node2</title>
<g id="a_edge2_Node000002_Node000003"><a xlink:title=" ">
<path fill="none" stroke="#9a32cd" stroke-dasharray="5,2" d="M99.72,-136.66C107.65,-128.28 117.69,-117.91 127,-109 133.43,-102.85 140.93,-96.23 146.82,-91.14"/>
<polygon fill="#9a32cd" stroke="#9a32cd" points="97.15,-134.28 92.86,-143.97 102.25,-139.07 97.15,-134.28"/>
</a>
</g>
<text text-anchor="start" x="130" y="-114.5" font-family="Helvetica,sans-Serif" font-size="10.00" fill="grey">parent_class</text>
</g>
<!-- Node4 -->
<g id="Node000004" class="node">
<title>Node4</title>
<g id="a_Node000004"><a xlink:href="struct__MateMixerAppInfo.html" target="_top" xlink:title=" ">
<polygon fill="white" stroke="#666666" points="140.5,-235 29.5,-235 29.5,-216 140.5,-216 140.5,-235"/>
<text text-anchor="middle" x="85" y="-223" font-family="Helvetica,sans-Serif" font-size="10.00">_MateMixerAppInfo</text>
</a>
</g>
</g>
<!-- Node4&#45;&gt;Node3 -->
<g id="edge3_Node000003_Node000004" class="edge">
<title>Node4&#45;&gt;Node3</title>
<g id="a_edge3_Node000003_Node000004"><a xlink:title=" ">
<path fill="none" stroke="#9a32cd" stroke-dasharray="5,2" d="M85,-205.58C85,-191.76 85,-173.68 85,-163.15"/>
<polygon fill="#9a32cd" stroke="#9a32cd" points="81.5,-205.92 85,-215.92 88.5,-205.92 81.5,-205.92"/>
</a>
</g>
<text text-anchor="start" x="88" y="-186.5" font-family="Helvetica,sans-Serif" font-size="10.00" fill="grey">get_app_info</text>
</g>
<!-- Node5 -->
<g id="Node000005" class="node">
<title>Node5</title>
<g id="a_Node000005"><a xlink:href="struct__PulseMonitor.html" target="_top" xlink:title=" ">
<polygon fill="white" stroke="#666666" points="274,-163 188,-163 188,-144 274,-144 274,-163"/>
<text text-anchor="middle" x="231" y="-151" font-family="Helvetica,sans-Serif" font-size="10.00">_PulseMonitor</text>
</a>
</g>
</g>
<!-- Node5&#45;&gt;Node2 -->
<g id="edge4_Node000002_Node000005" class="edge">
<title>Node5&#45;&gt;Node2</title>
<g id="a_edge4_Node000002_Node000005"><a xlink:title=" ">
<path fill="none" stroke="#9a32cd" stroke-dasharray="5,2" d="M218.92,-135.82C212.35,-127.31 203.78,-117.08 195,-109 187.78,-102.35 178.81,-96.02 171.4,-91.22"/>
<polygon fill="#9a32cd" stroke="#9a32cd" points="216.18,-138 224.98,-143.9 221.78,-133.8 216.18,-138"/>
</a>
</g>
<text text-anchor="start" x="214.5" y="-114.5" font-family="Helvetica,sans-Serif" font-size="10.00" fill="grey">create_monitor</text>
</g>
<!-- Node6 -->
<g id="Node000006" class="node">
<title>Node6</title>
<g id="a_Node000006"><a xlink:title=" ">
<polygon fill="white" stroke="#666666" points="291,-235 171,-235 171,-216 291,-216 291,-235"/>
<text text-anchor="middle" x="231" y="-223" font-family="Helvetica,sans-Serif" font-size="10.00">_PulseMonitorPrivate</text>
</a>
</g>
</g>
<!-- Node6&#45;&gt;Node5 -->
<g id="edge5_Node000005_Node000006" class="edge">
<title>Node6&#45;&gt;Node5</title>
<g id="a_edge5_Node000005_Node000006"><a xlink:title=" ">
<path fill="none" stroke="#9a32cd" stroke-dasharray="5,2" d="M231,-205.58C231,-191.76 231,-173.68 231,-163.15"/>
<polygon fill="#9a32cd" stroke="#9a32cd" points="227.5,-205.92 231,-215.92 234.5,-205.92 227.5,-205.92"/>
</a>
</g>
<text text-anchor="start" x="234.5" y="-186.5" font-family="Helvetica,sans-Serif" font-size="10.00" fill="grey">priv</text>
</g>
</g>
</svg>
