<?xml version="1.0" encoding="UTF-8" standalone="no"?>
<!DOCTYPE svg PUBLIC "-//W3C//DTD SVG 1.1//EN"
 "http://www.w3.org/Graphics/SVG/1.1/DTD/svg11.dtd">
<!-- Generated by graphviz version 2.43.0 (0)
 -->
<!-- Title: _PlumaTabLabel Pages: 1 -->
<!--zoomable 572 -->

<svg id="main" version="1.1" xmlns="http://www.w3.org/2000/svg" xmlns:xlink="http://www.w3.org/1999/xlink" xml:space="preserve" onload="init(evt)">

<style type="text/css"><![CDATA[
.node, .edge {opacity: 0.7;}
.node.selected, .edge.selected {opacity: 1;}
.edge:hover path { stroke: red; }
.edge:hover polygon { stroke: red; fill: red; }
]]></style>

<defs>
  <circle id="rim" cx="0" cy="0" r="7"/>
  <circle id="rim2" cx="0" cy="0" r="3.5"/>
  <g id="zoomPlus">
    <use xlink:href="#rim" fill="#404040"><set attributeName="fill" to="#808080" begin="zoomplus.mouseover" end="zoomplus.mouseout"/></use>
    <path d="M-4,0h8M0,-4v8" fill="none" stroke="white" stroke-width="1.5" pointer-events="none"/>
  </g>
  <g id="zoomMin">
    <use xlink:href="#rim" fill="#404040"><set attributeName="fill" to="#808080" begin="zoomminus.mouseover" end="zoomminus.mouseout"/></use>
    <path d="M-4,0h8" fill="none" stroke="white" stroke-width="1.5" pointer-events="none"/>
  </g>
  <g id="arrowUp" transform="translate(30 24)">
    <use xlink:href="#rim"/>
    <path pointer-events="none" fill="none" stroke="white" stroke-width="1.5" d="M0,-3.0v7 M-2.5,-0.5L0,-3.0L2.5,-0.5"/>
  </g>
  <g id="arrowRight" transform="rotate(90) translate(36 -43)">
    <use xlink:href="#rim"/>
    <path pointer-events="none" fill="none" stroke="white" stroke-width="1.5" d="M0,-3.0v7 M-2.5,-0.5L0,-3.0L2.5,-0.5"/>
  </g>
  <g id="arrowDown" transform="rotate(180) translate(-30 -48)">
    <use xlink:href="#rim"/>
    <path pointer-events="none" fill="none" stroke="white" stroke-width="1.5" d="M0,-3.0v7 M-2.5,-0.5L0,-3.0L2.5,-0.5"/>
  </g>
  <g id="arrowLeft" transform="rotate(270) translate(-36 17)">
    <use xlink:href="#rim"/>
    <path pointer-events="none" fill="none" stroke="white" stroke-width="1.5" d="M0,-3.0v7 M-2.5,-0.5L0,-3.0L2.5,-0.5"/>
  </g>
  <g id="resetDef">
    <use xlink:href="#rim2" fill="#404040"><set attributeName="fill" to="#808080" begin="reset.mouseover" end="reset.mouseout"/></use>
  </g>
</defs>
<script type="application/ecmascript">
var viewWidth = 850;
var viewHeight = 572;
var sectionId = 'dynsection-0';
</script>
<script type="application/ecmascript" xlink:href="svg.min.js"/>
<svg id="graph" class="graph">
<g id="viewport">
<title>_PlumaTabLabel</title>
<!-- Node1 -->
<g id="Node000001" class="node">
<title>Node1</title>
<g id="a_Node000001"><a xlink:title=" ">
<polygon fill="#999999" stroke="#666666" points="193,-19 98,-19 98,0 193,0 193,-19"/>
<text text-anchor="middle" x="145.5" y="-7" font-family="Helvetica,sans-Serif" font-size="10.00">_PlumaTabLabel</text>
</a>
</g>
</g>
<!-- Node2 -->
<g id="Node000002" class="node">
<title>Node2</title>
<g id="a_Node000002"><a xlink:title=" ">
<polygon fill="white" stroke="#666666" points="210.5,-91 80.5,-91 80.5,-72 210.5,-72 210.5,-91"/>
<text text-anchor="middle" x="145.5" y="-79" font-family="Helvetica,sans-Serif" font-size="10.00">_PlumaTabLabelPrivate</text>
</a>
</g>
</g>
<!-- Node2&#45;&gt;Node1 -->
<g id="edge1_Node000001_Node000002" class="edge">
<title>Node2&#45;&gt;Node1</title>
<g id="a_edge1_Node000001_Node000002"><a xlink:title=" ">
<path fill="none" stroke="#9a32cd" stroke-dasharray="5,2" d="M145.5,-61.58C145.5,-47.76 145.5,-29.68 145.5,-19.15"/>
<polygon fill="#9a32cd" stroke="#9a32cd" points="142,-61.92 145.5,-71.92 149,-61.92 142,-61.92"/>
</a>
</g>
<text text-anchor="start" x="149" y="-42.5" font-family="Helvetica,sans-Serif" font-size="10.00" fill="grey">priv</text>
</g>
<!-- Node3 -->
<g id="Node000003" class="node">
<title>Node3</title>
<g id="a_Node000003"><a xlink:href="struct__PlumaTab.html" target="_top" xlink:title=" ">
<polygon fill="white" stroke="#666666" points="180,-163 111,-163 111,-144 180,-144 180,-163"/>
<text text-anchor="middle" x="145.5" y="-151" font-family="Helvetica,sans-Serif" font-size="10.00">_PlumaTab</text>
</a>
</g>
</g>
<!-- Node3&#45;&gt;Node2 -->
<g id="edge2_Node000002_Node000003" class="edge">
<title>Node3&#45;&gt;Node2</title>
<g id="a_edge2_Node000002_Node000003"><a xlink:title=" ">
<path fill="none" stroke="#9a32cd" stroke-dasharray="5,2" d="M145.5,-133.58C145.5,-119.76 145.5,-101.68 145.5,-91.15"/>
<polygon fill="#9a32cd" stroke="#9a32cd" points="142,-133.92 145.5,-143.92 149,-133.92 142,-133.92"/>
</a>
</g>
<text text-anchor="start" x="148.5" y="-114.5" font-family="Helvetica,sans-Serif" font-size="10.00" fill="grey">tab</text>
</g>
<!-- Node4 -->
<g id="Node000004" class="node">
<title>Node4</title>
<g id="a_Node000004"><a xlink:title=" ">
<polygon fill="white" stroke="#666666" points="197.5,-235 93.5,-235 93.5,-216 197.5,-216 197.5,-235"/>
<text text-anchor="middle" x="145.5" y="-223" font-family="Helvetica,sans-Serif" font-size="10.00">_PlumaTabPrivate</text>
</a>
</g>
</g>
<!-- Node4&#45;&gt;Node3 -->
<g id="edge3_Node000003_Node000004" class="edge">
<title>Node4&#45;&gt;Node3</title>
<g id="a_edge3_Node000003_Node000004"><a xlink:title=" ">
<path fill="none" stroke="#9a32cd" stroke-dasharray="5,2" d="M145.5,-205.58C145.5,-191.76 145.5,-173.68 145.5,-163.15"/>
<polygon fill="#9a32cd" stroke="#9a32cd" points="142,-205.92 145.5,-215.92 149,-205.92 142,-205.92"/>
</a>
</g>
<text text-anchor="start" x="149" y="-186.5" font-family="Helvetica,sans-Serif" font-size="10.00" fill="grey">priv</text>
</g>
<!-- Node5 -->
<g id="Node000005" class="node">
<title>Node5</title>
<g id="a_Node000005"><a xlink:href="struct__PlumaPrintJob.html" target="_top" xlink:title=" ">
<polygon fill="white" stroke="#666666" points="121.5,-307 31.5,-307 31.5,-288 121.5,-288 121.5,-307"/>
<text text-anchor="middle" x="76.5" y="-295" font-family="Helvetica,sans-Serif" font-size="10.00">_PlumaPrintJob</text>
</a>
</g>
</g>
<!-- Node5&#45;&gt;Node4 -->
<g id="edge4_Node000004_Node000005" class="edge">
<title>Node5&#45;&gt;Node4</title>
<g id="a_edge4_Node000004_Node000005"><a xlink:title=" ">
<path fill="none" stroke="#9a32cd" stroke-dasharray="5,2" d="M79.09,-277.8C81.05,-269.43 84.49,-259.9 90.5,-253 97.53,-244.93 107.58,-239.1 117.16,-235"/>
<polygon fill="#9a32cd" stroke="#9a32cd" points="75.61,-277.37 77.27,-287.83 82.5,-278.62 75.61,-277.37"/>
</a>
</g>
<text text-anchor="start" x="94" y="-258.5" font-family="Helvetica,sans-Serif" font-size="10.00" fill="grey">print_job</text>
</g>
<!-- Node6 -->
<g id="Node000006" class="node">
<title>Node6</title>
<g id="a_Node000006"><a xlink:title=" ">
<polygon fill="white" stroke="#666666" points="125,-394 0,-394 0,-375 125,-375 125,-394"/>
<text text-anchor="middle" x="62.5" y="-382" font-family="Helvetica,sans-Serif" font-size="10.00">_PlumaPrintJobPrivate</text>
</a>
</g>
</g>
<!-- Node6&#45;&gt;Node5 -->
<g id="edge5_Node000005_Node000006" class="edge">
<title>Node6&#45;&gt;Node5</title>
<g id="a_edge5_Node000005_Node000006"><a xlink:title=" ">
<path fill="none" stroke="#9a32cd" stroke-dasharray="5,2" d="M65.61,-364.62C68.55,-346.79 72.82,-320.83 75.04,-307.36"/>
<polygon fill="#9a32cd" stroke="#9a32cd" points="62.12,-364.29 63.95,-374.72 69.02,-365.43 62.12,-364.29"/>
</a>
</g>
<text text-anchor="start" x="76" y="-338" font-family="Helvetica,sans-Serif" font-size="10.00" fill="grey">priv</text>
</g>
<!-- Node7 -->
<g id="Node000007" class="node">
<title>Node7</title>
<g id="a_Node000007"><a xlink:href="struct__PlumaView.html" target="_top" xlink:title=" ">
<polygon fill="white" stroke="#666666" points="100,-481 23,-481 23,-462 100,-462 100,-481"/>
<text text-anchor="middle" x="61.5" y="-469" font-family="Helvetica,sans-Serif" font-size="10.00">_PlumaView</text>
</a>
</g>
</g>
<!-- Node7&#45;&gt;Node6 -->
<g id="edge6_Node000006_Node000007" class="edge">
<title>Node7&#45;&gt;Node6</title>
<g id="a_edge6_Node000006_Node000007"><a xlink:title=" ">
<path fill="none" stroke="#9a32cd" stroke-dasharray="5,2" d="M61.72,-451.62C61.93,-433.79 62.24,-407.83 62.4,-394.36"/>
<polygon fill="#9a32cd" stroke="#9a32cd" points="58.22,-451.68 61.6,-461.72 65.22,-451.77 58.22,-451.68"/>
</a>
</g>
<text text-anchor="start" x="65.5" y="-425" font-family="Helvetica,sans-Serif" font-size="10.00" fill="grey">view</text>
</g>
<!-- Node8 -->
<g id="Node000008" class="node">
<title>Node8</title>
<g id="a_Node000008"><a xlink:title=" ">
<polygon fill="white" stroke="#666666" points="117,-558.5 6,-558.5 6,-539.5 117,-539.5 117,-558.5"/>
<text text-anchor="middle" x="61.5" y="-546.5" font-family="Helvetica,sans-Serif" font-size="10.00">_PlumaViewPrivate</text>
</a>
</g>
</g>
<!-- Node8&#45;&gt;Node7 -->
<g id="edge7_Node000007_Node000008" class="edge">
<title>Node8&#45;&gt;Node7</title>
<g id="a_edge7_Node000007_Node000008"><a xlink:title=" ">
<path fill="none" stroke="#9a32cd" stroke-dasharray="5,2" d="M61.5,-528.9C61.5,-513.51 61.5,-492.61 61.5,-481.06"/>
<polygon fill="#9a32cd" stroke="#9a32cd" points="58,-529.34 61.5,-539.34 65,-529.34 58,-529.34"/>
</a>
</g>
<text text-anchor="start" x="65" y="-504.5" font-family="Helvetica,sans-Serif" font-size="10.00" fill="grey">priv</text>
</g>
<!-- Node9 -->
<g id="Node000009" class="node">
<title>Node9</title>
<g id="a_Node000009"><a xlink:href="struct__PlumaDocument.html" target="_top" xlink:title=" ">
<polygon fill="white" stroke="#666666" points="348,-481 245,-481 245,-462 348,-462 348,-481"/>
<text text-anchor="middle" x="296.5" y="-469" font-family="Helvetica,sans-Serif" font-size="10.00">_PlumaDocument</text>
</a>
</g>
</g>
<!-- Node9&#45;&gt;Node6 -->
<g id="edge8_Node000006_Node000009" class="edge">
<title>Node9&#45;&gt;Node6</title>
<g id="a_edge8_Node000006_Node000009"><a xlink:title=" ">
<path fill="none" stroke="#9a32cd" stroke-dasharray="5,2" d="M234.77,-466.6C190.42,-462.85 135.13,-455.94 115.5,-444 100.54,-434.9 104.25,-424.99 92.5,-412 86.63,-405.51 79.27,-398.98 73.31,-394.04"/>
<polygon fill="#9a32cd" stroke="#9a32cd" points="234.66,-470.1 244.91,-467.42 235.22,-463.13 234.66,-470.1"/>
</a>
</g>
<text text-anchor="start" x="118.5" y="-425" font-family="Helvetica,sans-Serif" font-size="10.00" fill="grey">doc</text>
</g>
<!-- Node10 -->
<g id="Node000010" class="node">
<title>Node10</title>
<g id="a_Node000010"><a xlink:title=" ">
<polygon fill="white" stroke="#666666" points="483,-235 346,-235 346,-216 483,-216 483,-235"/>
<text text-anchor="middle" x="414.5" y="-223" font-family="Helvetica,sans-Serif" font-size="10.00">_PlumaDocumentPrivate</text>
</a>
</g>
</g>
<!-- Node9&#45;&gt;Node10 -->
<g id="edge22_Node000010_Node000009" class="edge">
<title>Node9&#45;&gt;Node10</title>
<g id="a_edge22_Node000010_Node000009"><a xlink:title=" ">
<path fill="none" stroke="#9a32cd" stroke-dasharray="5,2" d="M266.51,-457.64C217.06,-434.45 126.87,-382.66 158.5,-325 194.57,-259.24 283.16,-237.11 345.99,-229.82"/>
<polygon fill="#9a32cd" stroke="#9a32cd" points="265.26,-460.91 275.81,-461.89 268.17,-454.55 265.26,-460.91"/>
</a>
</g>
<text text-anchor="start" x="161.5" y="-338" font-family="Helvetica,sans-Serif" font-size="10.00" fill="grey">mount_operation_factory</text>
</g>
<!-- Node13 -->
<g id="Node000013" class="node">
<title>Node13</title>
<g id="a_Node000013"><a xlink:title=" ">
<polygon fill="white" stroke="#666666" points="781.5,-394 611.5,-394 611.5,-375 781.5,-375 781.5,-394"/>
<text text-anchor="middle" x="696.5" y="-382" font-family="Helvetica,sans-Serif" font-size="10.00">_PlumaDocumentLoaderPrivate</text>
</a>
</g>
</g>
<!-- Node9&#45;&gt;Node13 -->
<g id="edge13_Node000013_Node000009" class="edge">
<title>Node9&#45;&gt;Node13</title>
<g id="a_edge13_Node000013_Node000009"><a xlink:title=" ">
<path fill="none" stroke="#9a32cd" stroke-dasharray="5,2" d="M358.42,-469.31C396.06,-466.77 444.42,-460.21 484.5,-444 506.92,-434.93 506.16,-421.25 528.5,-412 554.42,-401.27 584.23,-394.85 611.49,-391.03"/>
<polygon fill="#9a32cd" stroke="#9a32cd" points="357.88,-465.83 348.11,-469.92 358.3,-472.82 357.88,-465.83"/>
</a>
</g>
<text text-anchor="start" x="532" y="-425" font-family="Helvetica,sans-Serif" font-size="10.00" fill="grey">document</text>
</g>
<!-- Node17 -->
<g id="Node000017" class="node">
<title>Node17</title>
<g id="a_Node000017"><a xlink:title=" ">
<polygon fill="white" stroke="#666666" points="548,-394 383,-394 383,-375 548,-375 548,-394"/>
<text text-anchor="middle" x="465.5" y="-382" font-family="Helvetica,sans-Serif" font-size="10.00">_PlumaDocumentSaverPrivate</text>
</a>
</g>
</g>
<!-- Node9&#45;&gt;Node17 -->
<g id="edge19_Node000017_Node000009" class="edge">
<title>Node9&#45;&gt;Node17</title>
<g id="a_edge19_Node000017_Node000009"><a xlink:title=" ">
<path fill="none" stroke="#9a32cd" stroke-dasharray="5,2" d="M312.13,-454.52C325.85,-441.34 346.94,-423.07 368.5,-412 384.18,-403.94 402.59,-398.12 419.13,-394.02"/>
<polygon fill="#9a32cd" stroke="#9a32cd" points="309.61,-452.08 304.95,-461.6 314.53,-457.07 309.61,-452.08"/>
</a>
</g>
<text text-anchor="start" x="372" y="-425" font-family="Helvetica,sans-Serif" font-size="10.00" fill="grey">document</text>
</g>
<!-- Node10&#45;&gt;Node9 -->
<g id="edge9_Node000009_Node000010" class="edge">
<title>Node10&#45;&gt;Node9</title>
<g id="a_edge9_Node000009_Node000010"><a xlink:title=" ">
<path fill="none" stroke="#9a32cd" stroke-dasharray="5,2" d="M404.78,-244.12C394.07,-262.1 375.29,-289.76 352.5,-307 335.32,-319.99 320.24,-307.63 307.5,-325 276.18,-367.69 288.67,-437.65 294.31,-461.9"/>
<polygon fill="#9a32cd" stroke="#9a32cd" points="407.93,-245.66 409.88,-235.25 401.86,-242.17 407.93,-245.66"/>
</a>
</g>
<text text-anchor="start" x="311" y="-338" font-family="Helvetica,sans-Serif" font-size="10.00" fill="grey">priv</text>
</g>
<!-- Node11 -->
<g id="Node000011" class="node">
<title>Node11</title>
<g id="a_Node000011"><a xlink:title=" ">
<polygon fill="white" stroke="#666666" points="553,-481 456,-481 456,-462 553,-462 553,-481"/>
<text text-anchor="middle" x="504.5" y="-469" font-family="Helvetica,sans-Serif" font-size="10.00">_PlumaEncoding</text>
</a>
</g>
</g>
<!-- Node11&#45;&gt;Node4 -->
<g id="edge23_Node000004_Node000011" class="edge">
<title>Node11&#45;&gt;Node4</title>
<g id="a_edge23_Node000004_Node000011"><a xlink:title=" ">
<path fill="none" stroke="#9a32cd" stroke-dasharray="5,2" d="M456.07,-458.84C444.91,-455.04 433.42,-450.16 423.5,-444 397.07,-427.58 393.6,-418.56 374.5,-394 352.46,-365.66 362.19,-345.18 332.5,-325 293.34,-298.39 269.65,-328.57 227.5,-307 192.87,-289.28 163.42,-251.85 151.35,-235.02"/>
<polygon fill="#9a32cd" stroke="#9a32cd" points="455.16,-462.22 465.75,-461.91 457.28,-455.55 455.16,-462.22"/>
</a>
</g>
<text text-anchor="start" x="359.5" y="-338" font-family="Helvetica,sans-Serif" font-size="10.00" fill="grey">tmp_encoding</text>
</g>
<!-- Node11&#45;&gt;Node10 -->
<g id="edge10_Node000010_Node000011" class="edge">
<title>Node11&#45;&gt;Node10</title>
<g id="a_edge10_Node000010_Node000011"><a xlink:title=" ">
<path fill="none" stroke="#9a32cd" stroke-dasharray="5,2" d="M548.57,-457.23C554.09,-453.78 559,-449.44 562.5,-444 580.81,-415.5 541.08,-288.83 540.5,-288 520.59,-259.3 483.41,-243.45 454.58,-235.06"/>
<polygon fill="#9a32cd" stroke="#9a32cd" points="546.78,-454.22 539.54,-461.96 550.03,-460.42 546.78,-454.22"/>
</a>
</g>
<text text-anchor="start" x="562" y="-346" font-family="Helvetica,sans-Serif" font-size="10.00" fill="grey">encoding</text>
<text text-anchor="start" x="562" y="-331" font-family="Helvetica,sans-Serif" font-size="10.00" fill="grey">requested_encoding</text>
</g>
<!-- Node11&#45;&gt;Node13 -->
<g id="edge14_Node000013_Node000011" class="edge">
<title>Node11&#45;&gt;Node13</title>
<g id="a_edge14_Node000013_Node000011"><a xlink:title=" ">
<path fill="none" stroke="#9a32cd" stroke-dasharray="5,2" d="M560.88,-458.65C570.39,-454.99 579.69,-450.22 587.5,-444 600.44,-433.7 593.44,-422.15 606.5,-412 617.17,-403.7 630.39,-398 643.37,-394.08"/>
<polygon fill="#9a32cd" stroke="#9a32cd" points="559.66,-455.37 551.36,-461.95 561.96,-461.98 559.66,-455.37"/>
</a>
</g>
<text text-anchor="start" x="609.5" y="-433" font-family="Helvetica,sans-Serif" font-size="10.00" fill="grey">auto_detected_encoding</text>
<text text-anchor="start" x="609.5" y="-418" font-family="Helvetica,sans-Serif" font-size="10.00" fill="grey">encoding</text>
</g>
<!-- Node11&#45;&gt;Node17 -->
<g id="edge20_Node000017_Node000011" class="edge">
<title>Node11&#45;&gt;Node17</title>
<g id="a_edge20_Node000017_Node000011"><a xlink:title=" ">
<path fill="none" stroke="#9a32cd" stroke-dasharray="5,2" d="M448.03,-457.24C442.35,-453.8 437.29,-449.46 433.5,-444 425.39,-432.32 427.45,-424.87 433.5,-412 437,-404.56 443.73,-398.49 450.12,-394.05"/>
<polygon fill="#9a32cd" stroke="#9a32cd" points="446.87,-460.58 457.38,-461.96 450.03,-454.33 446.87,-460.58"/>
</a>
</g>
<text text-anchor="start" x="437" y="-425" font-family="Helvetica,sans-Serif" font-size="10.00" fill="grey">encoding</text>
</g>
<!-- Node12 -->
<g id="Node000012" class="node">
<title>Node12</title>
<g id="a_Node000012"><a xlink:href="struct__PlumaDocumentLoader.html" target="_top" xlink:title=" ">
<polygon fill="white" stroke="#666666" points="756.5,-307 620.5,-307 620.5,-288 756.5,-288 756.5,-307"/>
<text text-anchor="middle" x="688.5" y="-295" font-family="Helvetica,sans-Serif" font-size="10.00">_PlumaDocumentLoader</text>
</a>
</g>
</g>
<!-- Node12&#45;&gt;Node10 -->
<g id="edge11_Node000010_Node000012" class="edge">
<title>Node12&#45;&gt;Node10</title>
<g id="a_edge11_Node000010_Node000012"><a xlink:title=" ">
<path fill="none" stroke="#9a32cd" stroke-dasharray="5,2" d="M663.65,-283.23C644.25,-273.43 616.34,-260.53 590.5,-253 555.79,-242.88 516.05,-236.48 483.12,-232.51"/>
<polygon fill="#9a32cd" stroke="#9a32cd" points="662.21,-286.43 672.7,-287.89 665.41,-280.2 662.21,-286.43"/>
</a>
</g>
<text text-anchor="start" x="637" y="-258.5" font-family="Helvetica,sans-Serif" font-size="10.00" fill="grey">loader</text>
</g>
<!-- Node13&#45;&gt;Node12 -->
<g id="edge12_Node000012_Node000013" class="edge">
<title>Node13&#45;&gt;Node12</title>
<g id="a_edge12_Node000012_Node000013"><a xlink:title=" ">
<path fill="none" stroke="#9a32cd" stroke-dasharray="5,2" d="M694.72,-364.62C693.05,-346.79 690.6,-320.83 689.33,-307.36"/>
<polygon fill="#9a32cd" stroke="#9a32cd" points="691.25,-365.1 695.67,-374.72 698.22,-364.44 691.25,-365.1"/>
</a>
</g>
<text text-anchor="start" x="697" y="-338" font-family="Helvetica,sans-Serif" font-size="10.00" fill="grey">priv</text>
</g>
<!-- Node14 -->
<g id="Node000014" class="node">
<title>Node14</title>
<g id="a_Node000014"><a xlink:href="struct__PlumaSmartCharsetConverter.html" target="_top" xlink:title=" ">
<polygon fill="white" stroke="#666666" points="842,-481 675,-481 675,-462 842,-462 842,-481"/>
<text text-anchor="middle" x="758.5" y="-469" font-family="Helvetica,sans-Serif" font-size="10.00">_PlumaSmartCharsetConverter</text>
</a>
</g>
</g>
<!-- Node14&#45;&gt;Node13 -->
<g id="edge15_Node000013_Node000014" class="edge">
<title>Node14&#45;&gt;Node13</title>
<g id="a_edge15_Node000013_Node000014"><a xlink:title=" ">
<path fill="none" stroke="#9a32cd" stroke-dasharray="5,2" d="M754.61,-451.67C751.35,-439.4 745.71,-423.57 736.5,-412 730.58,-404.57 722,-398.51 714.31,-394.06"/>
<polygon fill="#9a32cd" stroke="#9a32cd" points="751.28,-452.79 756.97,-461.72 758.09,-451.19 751.28,-452.79"/>
</a>
</g>
<text text-anchor="start" x="755" y="-425" font-family="Helvetica,sans-Serif" font-size="10.00" fill="grey">converter</text>
</g>
<!-- Node15 -->
<g id="Node000015" class="node">
<title>Node15</title>
<g id="a_Node000015"><a xlink:title=" ">
<polygon fill="white" stroke="#666666" points="842,-564 675,-564 675,-534 842,-534 842,-564"/>
<text text-anchor="start" x="683" y="-552" font-family="Helvetica,sans-Serif" font-size="10.00">_PlumaSmartCharsetConverter</text>
<text text-anchor="middle" x="758.5" y="-541" font-family="Helvetica,sans-Serif" font-size="10.00">Private</text>
</a>
</g>
</g>
<!-- Node15&#45;&gt;Node14 -->
<g id="edge16_Node000014_Node000015" class="edge">
<title>Node15&#45;&gt;Node14</title>
<g id="a_edge16_Node000014_Node000015"><a xlink:title=" ">
<path fill="none" stroke="#9a32cd" stroke-dasharray="5,2" d="M758.5,-523.4C758.5,-508.81 758.5,-491.22 758.5,-481.01"/>
<polygon fill="#9a32cd" stroke="#9a32cd" points="755,-523.8 758.5,-533.8 762,-523.8 755,-523.8"/>
</a>
</g>
<text text-anchor="start" x="762" y="-504.5" font-family="Helvetica,sans-Serif" font-size="10.00" fill="grey">priv</text>
</g>
<!-- Node16 -->
<g id="Node000016" class="node">
<title>Node16</title>
<g id="a_Node000016"><a xlink:href="struct__PlumaDocumentSaver.html" target="_top" xlink:title=" ">
<polygon fill="white" stroke="#666666" points="531,-307 400,-307 400,-288 531,-288 531,-307"/>
<text text-anchor="middle" x="465.5" y="-295" font-family="Helvetica,sans-Serif" font-size="10.00">_PlumaDocumentSaver</text>
</a>
</g>
</g>
<!-- Node16&#45;&gt;Node10 -->
<g id="edge17_Node000010_Node000016" class="edge">
<title>Node16&#45;&gt;Node10</title>
<g id="a_edge17_Node000010_Node000016"><a xlink:title=" ">
<path fill="none" stroke="#9a32cd" stroke-dasharray="5,2" d="M453.2,-279.62C442.98,-265.59 428.86,-246.21 420.8,-235.15"/>
<polygon fill="#9a32cd" stroke="#9a32cd" points="450.53,-281.9 459.25,-287.92 456.19,-277.77 450.53,-281.9"/>
</a>
</g>
<text text-anchor="start" x="448.5" y="-258.5" font-family="Helvetica,sans-Serif" font-size="10.00" fill="grey">saver</text>
</g>
<!-- Node17&#45;&gt;Node16 -->
<g id="edge18_Node000016_Node000017" class="edge">
<title>Node17&#45;&gt;Node16</title>
<g id="a_edge18_Node000016_Node000017"><a xlink:title=" ">
<path fill="none" stroke="#9a32cd" stroke-dasharray="5,2" d="M465.5,-364.62C465.5,-346.79 465.5,-320.83 465.5,-307.36"/>
<polygon fill="#9a32cd" stroke="#9a32cd" points="462,-364.72 465.5,-374.72 469,-364.72 462,-364.72"/>
</a>
</g>
<text text-anchor="start" x="469" y="-338" font-family="Helvetica,sans-Serif" font-size="10.00" fill="grey">priv</text>
</g>
<!-- Node18 -->
<g id="Node000018" class="node">
<title>Node18</title>
<g id="a_Node000018"><a xlink:title=" ">
<polygon fill="white" stroke="#666666" points="343,-307 236,-307 236,-288 343,-288 343,-307"/>
<text text-anchor="middle" x="289.5" y="-295" font-family="Helvetica,sans-Serif" font-size="10.00">_PlumaTextRegion</text>
</a>
</g>
</g>
<!-- Node18&#45;&gt;Node10 -->
<g id="edge21_Node000010_Node000018" class="edge">
<title>Node18&#45;&gt;Node10</title>
<g id="a_edge21_Node000010_Node000018"><a xlink:title=" ">
<path fill="none" stroke="#9a32cd" stroke-dasharray="5,2" d="M278.51,-278.95C274.62,-270.33 272.53,-260.25 278.5,-253 287.45,-242.14 316.62,-235.67 345.67,-231.85"/>
<polygon fill="#9a32cd" stroke="#9a32cd" points="275.49,-280.72 283.33,-287.85 281.65,-277.39 275.49,-280.72"/>
</a>
</g>
<text text-anchor="start" x="281.5" y="-258.5" font-family="Helvetica,sans-Serif" font-size="10.00" fill="grey">to_search_region</text>
</g>
</g>
</svg>

<g id="navigator" transform="translate(0 0)" fill="#404254">
  <rect fill="#f2f5e9" fill-opacity="0.5" stroke="#606060" stroke-width=".5" x="0" y="0" width="60" height="60"/>
  <use id="zoomplus" xlink:href="#zoomPlus" x="17" y="9" onmousedown="handleZoom(evt,'in')"/>
  <use id="zoomminus" xlink:href="#zoomMin" x="42" y="9" onmousedown="handleZoom(evt,'out')"/>
  <use id="reset" xlink:href="#resetDef" x="30" y="36" onmousedown="handleReset()"/>
   <use id="arrowup" xlink:href="#arrowUp" x="0" y="0" onmousedown="handlePan(0,-1)"/>
  <use id="arrowright" xlink:href="#arrowRight" x="0" y="0" onmousedown="handlePan(1,0)"/>
  <use id="arrowdown" xlink:href="#arrowDown" x="0" y="0" onmousedown="handlePan(0,1)"/>
  <use id="arrowleft" xlink:href="#arrowLeft" x="0" y="0" onmousedown="handlePan(-1,0)"/>
</g>
<svg viewBox="0 0 15 15" width="100%" height="30px" preserveAspectRatio="xMaxYMin meet">
 <g id="arrow_out" transform="scale(0.3 0.3)">
  <a xlink:href="struct__PlumaTabLabel__coll__graph_org.svg" target="_base">
   <rect id="button" ry="5" rx="5" y="6" x="6" height="38" width="38"
        fill="#f2f5e9" fill-opacity="0.5" stroke="#606060" stroke-width="1.0"/>
   <path id="arrow"
     d="M 11.500037,31.436501 C 11.940474,20.09759 22.043105,11.32322 32.158766,21.979434 L 37.068811,17.246167 C 37.068811,17.246167 37.088388,32 37.088388,32 L 22.160133,31.978069 C 22.160133,31.978069 26.997745,27.140456 26.997745,27.140456 C 18.528582,18.264221 13.291696,25.230495 11.500037,31.436501 z"
     style="fill:#404040;"/>
  </a>
 </g>
</svg>

<style type='text/css'>
<![CDATA[
[data-mouse-over-selected='false'] { opacity: 0.7; }
[data-mouse-over-selected='true']  { opacity: 1.0; }
]]>
</style>
<script type="application/ecmascript"><![CDATA[
document.addEventListener('DOMContentLoaded', (event) => {
  highlightEdges();
  highlightAdjacentNodes();
});
]]></script>
</svg>
