<?xml version="1.0" encoding="UTF-8" standalone="no"?>
<!DOCTYPE svg PUBLIC "-//W3C//DTD SVG 1.1//EN"
 "http://www.w3.org/Graphics/SVG/1.1/DTD/svg11.dtd">
<!-- Generated by graphviz version 2.43.0 (0)
 -->
<!-- Title: _CactMenubarPrivate Pages: 1 -->
<svg width="509pt" height="459pt"
 viewBox="0.00 0.00 509.00 459.00" xmlns="http://www.w3.org/2000/svg" xmlns:xlink="http://www.w3.org/1999/xlink">
<g id="graph0" class="graph" transform="scale(1 1) rotate(0) translate(4 455)">
<title>_CactMenubarPrivate</title>
<!-- Node1 -->
<g id="Node000001" class="node">
<title>Node1</title>
<g id="a_Node000001"><a xlink:title=" ">
<polygon fill="#999999" stroke="#666666" points="157,-19 36,-19 36,0 157,0 157,-19"/>
<text text-anchor="middle" x="96.5" y="-7" font-family="Helvetica,sans-Serif" font-size="10.00">_CactMenubarPrivate</text>
</a>
</g>
</g>
<!-- Node2 -->
<g id="Node000002" class="node">
<title>Node2</title>
<g id="a_Node000002"><a xlink:href="structBaseWindow.html" target="_top" xlink:title=" ">
<polygon fill="white" stroke="#666666" points="241.5,-235 161.5,-235 161.5,-216 241.5,-216 241.5,-235"/>
<text text-anchor="middle" x="201.5" y="-223" font-family="Helvetica,sans-Serif" font-size="10.00">BaseWindow</text>
</a>
</g>
</g>
<!-- Node2&#45;&gt;Node1 -->
<g id="edge1_Node000001_Node000002" class="edge">
<title>Node2&#45;&gt;Node1</title>
<g id="a_edge1_Node000001_Node000002"><a xlink:title=" ">
<path fill="none" stroke="#9a32cd" stroke-dasharray="5,2" d="M203.73,-205.5C206.97,-168.53 208.67,-86.23 167.5,-37 160.58,-28.72 150.81,-23.03 140.72,-19.12"/>
<polygon fill="#9a32cd" stroke="#9a32cd" points="200.21,-205.51 202.67,-215.81 207.17,-206.22 200.21,-205.51"/>
</a>
</g>
<text text-anchor="start" x="204.5" y="-114.5" font-family="Helvetica,sans-Serif" font-size="10.00" fill="grey">window</text>
</g>
<!-- Node3 -->
<g id="Node000003" class="node">
<title>Node3</title>
<g id="a_Node000003"><a xlink:title=" ">
<polygon fill="white" stroke="#666666" points="378,-163 259,-163 259,-144 378,-144 378,-163"/>
<text text-anchor="middle" x="318.5" y="-151" font-family="Helvetica,sans-Serif" font-size="10.00">_BaseWindowPrivate</text>
</a>
</g>
</g>
<!-- Node2&#45;&gt;Node3 -->
<g id="edge3_Node000003_Node000002" class="edge">
<title>Node2&#45;&gt;Node3</title>
<g id="a_edge3_Node000003_Node000002"><a xlink:title=" ">
<path fill="none" stroke="#9a32cd" stroke-dasharray="5,2" d="M206.49,-206.05C209.72,-197.31 214.81,-187.42 222.5,-181 232.86,-172.36 245.81,-166.53 258.83,-162.59"/>
<polygon fill="#9a32cd" stroke="#9a32cd" points="203.08,-205.22 203.4,-215.81 209.75,-207.33 203.08,-205.22"/>
</a>
</g>
<text text-anchor="start" x="225.5" y="-186.5" font-family="Helvetica,sans-Serif" font-size="10.00" fill="grey">parent</text>
</g>
<!-- Node14 -->
<g id="Node000014" class="node">
<title>Node14</title>
<g id="a_Node000014"><a xlink:title=" ">
<polygon fill="white" stroke="#666666" points="164,-163 29,-163 29,-144 164,-144 164,-163"/>
<text text-anchor="middle" x="96.5" y="-151" font-family="Helvetica,sans-Serif" font-size="10.00">_CactSortButtonsPrivate</text>
</a>
</g>
</g>
<!-- Node2&#45;&gt;Node14 -->
<g id="edge15_Node000014_Node000002" class="edge">
<title>Node2&#45;&gt;Node14</title>
<g id="a_edge15_Node000014_Node000002"><a xlink:title=" ">
<path fill="none" stroke="#9a32cd" stroke-dasharray="5,2" d="M161.69,-212.35C152.32,-208.54 142.69,-203.78 134.5,-198 120.9,-188.4 108.96,-172.96 102.25,-163.29"/>
<polygon fill="#9a32cd" stroke="#9a32cd" points="160.69,-215.72 171.28,-215.98 163.16,-209.17 160.69,-215.72"/>
</a>
</g>
<text text-anchor="start" x="137.5" y="-186.5" font-family="Helvetica,sans-Serif" font-size="10.00" fill="grey">window</text>
</g>
<!-- Node3&#45;&gt;Node2 -->
<g id="edge2_Node000002_Node000003" class="edge">
<title>Node3&#45;&gt;Node2</title>
<g id="a_edge2_Node000002_Node000003"><a xlink:title=" ">
<path fill="none" stroke="#9a32cd" stroke-dasharray="5,2" d="M298.29,-169.36C293.39,-173.08 288.21,-177.12 283.5,-181 274.75,-188.2 274.08,-191.94 264.5,-198 252.87,-205.36 238.84,-211.49 226.98,-215.99"/>
<polygon fill="#9a32cd" stroke="#9a32cd" points="300.74,-171.89 306.65,-163.1 296.55,-166.29 300.74,-171.89"/>
</a>
</g>
<text text-anchor="start" x="287" y="-186.5" font-family="Helvetica,sans-Serif" font-size="10.00" fill="grey">private</text>
</g>
<!-- Node4 -->
<g id="Node000004" class="node">
<title>Node4</title>
<g id="a_Node000004"><a xlink:href="structBaseApplication.html" target="_top" xlink:title=" ">
<polygon fill="white" stroke="#666666" points="368,-235 273,-235 273,-216 368,-216 368,-235"/>
<text text-anchor="middle" x="320.5" y="-223" font-family="Helvetica,sans-Serif" font-size="10.00">BaseApplication</text>
</a>
</g>
</g>
<!-- Node4&#45;&gt;Node3 -->
<g id="edge4_Node000003_Node000004" class="edge">
<title>Node4&#45;&gt;Node3</title>
<g id="a_edge4_Node000003_Node000004"><a xlink:title=" ">
<path fill="none" stroke="#9a32cd" stroke-dasharray="5,2" d="M326.8,-206.12C327.5,-203.43 328.11,-200.66 328.5,-198 329.6,-190.53 329.86,-188.43 328.5,-181 327.37,-174.81 324.87,-168.18 322.65,-163.11"/>
<polygon fill="#9a32cd" stroke="#9a32cd" points="323.41,-205.23 323.83,-215.81 330.11,-207.28 323.41,-205.23"/>
</a>
</g>
<text text-anchor="start" x="332" y="-186.5" font-family="Helvetica,sans-Serif" font-size="10.00" fill="grey">application</text>
</g>
<!-- Node5 -->
<g id="Node000005" class="node">
<title>Node5</title>
<g id="a_Node000005"><a xlink:title=" ">
<polygon fill="white" stroke="#666666" points="368,-307 233,-307 233,-288 368,-288 368,-307"/>
<text text-anchor="middle" x="300.5" y="-295" font-family="Helvetica,sans-Serif" font-size="10.00">_BaseApplicationPrivate</text>
</a>
</g>
</g>
<!-- Node5&#45;&gt;Node4 -->
<g id="edge5_Node000004_Node000005" class="edge">
<title>Node5&#45;&gt;Node4</title>
<g id="a_edge5_Node000004_Node000005"><a xlink:title=" ">
<path fill="none" stroke="#9a32cd" stroke-dasharray="5,2" d="M305.79,-277.99C309.75,-264.13 314.99,-245.79 318.03,-235.15"/>
<polygon fill="#9a32cd" stroke="#9a32cd" points="302.33,-277.34 302.95,-287.92 309.07,-279.26 302.33,-277.34"/>
</a>
</g>
<text text-anchor="start" x="316" y="-258.5" font-family="Helvetica,sans-Serif" font-size="10.00" fill="grey">private</text>
</g>
<!-- Node6 -->
<g id="Node000006" class="node">
<title>Node6</title>
<g id="a_Node000006"><a xlink:href="structBaseBuilder.html" target="_top" xlink:title=" ">
<polygon fill="white" stroke="#666666" points="479,-235 404,-235 404,-216 479,-216 479,-235"/>
<text text-anchor="middle" x="441.5" y="-223" font-family="Helvetica,sans-Serif" font-size="10.00">BaseBuilder</text>
</a>
</g>
</g>
<!-- Node6&#45;&gt;Node3 -->
<g id="edge6_Node000003_Node000006" class="edge">
<title>Node6&#45;&gt;Node3</title>
<g id="a_edge6_Node000003_Node000006"><a xlink:title=" ">
<path fill="none" stroke="#9a32cd" stroke-dasharray="5,2" d="M426.85,-208.36C417.94,-199.32 405.9,-188.4 393.5,-181 380.57,-173.29 365.06,-167.34 351.5,-163.05"/>
<polygon fill="#9a32cd" stroke="#9a32cd" points="424.39,-210.86 433.82,-215.7 429.47,-206.04 424.39,-210.86"/>
</a>
</g>
<text text-anchor="start" x="417.5" y="-186.5" font-family="Helvetica,sans-Serif" font-size="10.00" fill="grey">builder</text>
</g>
<!-- Node7 -->
<g id="Node000007" class="node">
<title>Node7</title>
<g id="a_Node000007"><a xlink:title=" ">
<polygon fill="white" stroke="#666666" points="501,-307 386,-307 386,-288 501,-288 501,-307"/>
<text text-anchor="middle" x="443.5" y="-295" font-family="Helvetica,sans-Serif" font-size="10.00">_BaseBuilderPrivate</text>
</a>
</g>
</g>
<!-- Node7&#45;&gt;Node6 -->
<g id="edge7_Node000006_Node000007" class="edge">
<title>Node7&#45;&gt;Node6</title>
<g id="a_edge7_Node000006_Node000007"><a xlink:title=" ">
<path fill="none" stroke="#9a32cd" stroke-dasharray="5,2" d="M442.96,-277.58C442.56,-263.76 442.05,-245.68 441.75,-235.15"/>
<polygon fill="#9a32cd" stroke="#9a32cd" points="439.47,-278.02 443.25,-287.92 446.47,-277.82 439.47,-278.02"/>
</a>
</g>
<text text-anchor="start" x="446" y="-258.5" font-family="Helvetica,sans-Serif" font-size="10.00" fill="grey">private</text>
</g>
<!-- Node8 -->
<g id="Node000008" class="node">
<title>Node8</title>
<g id="a_Node000008"><a xlink:href="structNAUpdater.html" target="_top" xlink:title=" ">
<polygon fill="white" stroke="#666666" points="85.5,-235 15.5,-235 15.5,-216 85.5,-216 85.5,-235"/>
<text text-anchor="middle" x="50.5" y="-223" font-family="Helvetica,sans-Serif" font-size="10.00">NAUpdater</text>
</a>
</g>
</g>
<!-- Node8&#45;&gt;Node1 -->
<g id="edge8_Node000001_Node000008" class="edge">
<title>Node8&#45;&gt;Node1</title>
<g id="a_edge8_Node000001_Node000008"><a xlink:title=" ">
<path fill="none" stroke="#9a32cd" stroke-dasharray="5,2" d="M38.92,-207.04C31.77,-195.17 23.26,-178.81 19.5,-163 17.55,-154.78 18.36,-152.37 19.5,-144 23.99,-111.09 23.31,-101 39.5,-72 51.56,-50.39 72.74,-30.36 85.61,-19.34"/>
<polygon fill="#9a32cd" stroke="#9a32cd" points="36.18,-209.25 44.48,-215.84 42.1,-205.52 36.18,-209.25"/>
</a>
</g>
<text text-anchor="start" x="27.5" y="-114.5" font-family="Helvetica,sans-Serif" font-size="10.00" fill="grey">updater</text>
</g>
<!-- Node8&#45;&gt;Node14 -->
<g id="edge16_Node000014_Node000008" class="edge">
<title>Node8&#45;&gt;Node14</title>
<g id="a_edge16_Node000014_Node000008"><a xlink:title=" ">
<path fill="none" stroke="#9a32cd" stroke-dasharray="5,2" d="M51.35,-205.73C52.45,-197.6 54.76,-188.29 59.5,-181 64.32,-173.58 72.01,-167.58 79.13,-163.18"/>
<polygon fill="#9a32cd" stroke="#9a32cd" points="47.85,-205.53 50.48,-215.79 54.83,-206.13 47.85,-205.53"/>
</a>
</g>
<text text-anchor="start" x="62.5" y="-186.5" font-family="Helvetica,sans-Serif" font-size="10.00" fill="grey">updater</text>
</g>
<!-- Node9 -->
<g id="Node000009" class="node">
<title>Node9</title>
<g id="a_Node000009"><a xlink:href="structNAPivot.html" target="_top" xlink:title=" ">
<polygon fill="white" stroke="#666666" points="75.5,-307 19.5,-307 19.5,-288 75.5,-288 75.5,-307"/>
<text text-anchor="middle" x="47.5" y="-295" font-family="Helvetica,sans-Serif" font-size="10.00">NAPivot</text>
</a>
</g>
</g>
<!-- Node9&#45;&gt;Node8 -->
<g id="edge9_Node000008_Node000009" class="edge">
<title>Node9&#45;&gt;Node8</title>
<g id="a_edge9_Node000008_Node000009"><a xlink:title=" ">
<path fill="none" stroke="#9a32cd" stroke-dasharray="5,2" d="M48.31,-277.58C48.9,-263.76 49.68,-245.68 50.13,-235.15"/>
<polygon fill="#9a32cd" stroke="#9a32cd" points="44.8,-277.78 47.87,-287.92 51.79,-278.08 44.8,-277.78"/>
</a>
</g>
<text text-anchor="start" x="52.5" y="-258.5" font-family="Helvetica,sans-Serif" font-size="10.00" fill="grey">parent</text>
</g>
<!-- Node10 -->
<g id="Node000010" class="node">
<title>Node10</title>
<g id="a_Node000010"><a xlink:title=" ">
<polygon fill="white" stroke="#666666" points="95,-379 0,-379 0,-360 95,-360 95,-379"/>
<text text-anchor="middle" x="47.5" y="-367" font-family="Helvetica,sans-Serif" font-size="10.00">_NAPivotPrivate</text>
</a>
</g>
</g>
<!-- Node10&#45;&gt;Node9 -->
<g id="edge10_Node000009_Node000010" class="edge">
<title>Node10&#45;&gt;Node9</title>
<g id="a_edge10_Node000009_Node000010"><a xlink:title=" ">
<path fill="none" stroke="#9a32cd" stroke-dasharray="5,2" d="M47.5,-349.58C47.5,-335.76 47.5,-317.68 47.5,-307.15"/>
<polygon fill="#9a32cd" stroke="#9a32cd" points="44,-349.92 47.5,-359.92 51,-349.92 44,-349.92"/>
</a>
</g>
<text text-anchor="start" x="51" y="-330.5" font-family="Helvetica,sans-Serif" font-size="10.00" fill="grey">private</text>
</g>
<!-- Node11 -->
<g id="Node000011" class="node">
<title>Node11</title>
<g id="a_Node000011"><a xlink:href="structNATimeout.html" target="_top" xlink:title=" ">
<polygon fill="white" stroke="#666666" points="83,-451 12,-451 12,-432 83,-432 83,-451"/>
<text text-anchor="middle" x="47.5" y="-439" font-family="Helvetica,sans-Serif" font-size="10.00">NATimeout</text>
</a>
</g>
</g>
<!-- Node11&#45;&gt;Node10 -->
<g id="edge11_Node000010_Node000011" class="edge">
<title>Node11&#45;&gt;Node10</title>
<g id="a_edge11_Node000010_Node000011"><a xlink:title=" ">
<path fill="none" stroke="#9a32cd" stroke-dasharray="5,2" d="M47.5,-421.58C47.5,-407.76 47.5,-389.68 47.5,-379.15"/>
<polygon fill="#9a32cd" stroke="#9a32cd" points="44,-421.92 47.5,-431.92 51,-421.92 44,-421.92"/>
</a>
</g>
<text text-anchor="start" x="51" y="-402.5" font-family="Helvetica,sans-Serif" font-size="10.00" fill="grey">change_timeout</text>
</g>
<!-- Node12 -->
<g id="Node000012" class="node">
<title>Node12</title>
<g id="a_Node000012"><a xlink:title=" ">
<polygon fill="white" stroke="#666666" points="203.5,-307 93.5,-307 93.5,-288 203.5,-288 203.5,-307"/>
<text text-anchor="middle" x="148.5" y="-295" font-family="Helvetica,sans-Serif" font-size="10.00">_NAUpdaterPrivate</text>
</a>
</g>
</g>
<!-- Node12&#45;&gt;Node8 -->
<g id="edge12_Node000008_Node000012" class="edge">
<title>Node12&#45;&gt;Node8</title>
<g id="a_edge12_Node000008_Node000012"><a xlink:title=" ">
<path fill="none" stroke="#9a32cd" stroke-dasharray="5,2" d="M129.73,-281.59C118.75,-273.01 104.52,-262.15 91.5,-253 82.63,-246.76 72.38,-240.14 64.34,-235.07"/>
<polygon fill="#9a32cd" stroke="#9a32cd" points="127.74,-284.47 137.76,-287.9 132.06,-278.97 127.74,-284.47"/>
</a>
</g>
<text text-anchor="start" x="117" y="-258.5" font-family="Helvetica,sans-Serif" font-size="10.00" fill="grey">private</text>
</g>
<!-- Node13 -->
<g id="Node000013" class="node">
<title>Node13</title>
<g id="a_Node000013"><a xlink:href="structCactSortButtons.html" target="_top" xlink:title=" ">
<polygon fill="white" stroke="#666666" points="144,-91 49,-91 49,-72 144,-72 144,-91"/>
<text text-anchor="middle" x="96.5" y="-79" font-family="Helvetica,sans-Serif" font-size="10.00">CactSortButtons</text>
</a>
</g>
</g>
<!-- Node13&#45;&gt;Node1 -->
<g id="edge13_Node000001_Node000013" class="edge">
<title>Node13&#45;&gt;Node1</title>
<g id="a_edge13_Node000001_Node000013"><a xlink:title=" ">
<path fill="none" stroke="#9a32cd" stroke-dasharray="5,2" d="M96.5,-61.58C96.5,-47.76 96.5,-29.68 96.5,-19.15"/>
<polygon fill="#9a32cd" stroke="#9a32cd" points="93,-61.92 96.5,-71.92 100,-61.92 93,-61.92"/>
</a>
</g>
<text text-anchor="start" x="100" y="-42.5" font-family="Helvetica,sans-Serif" font-size="10.00" fill="grey">sort_buttons</text>
</g>
<!-- Node14&#45;&gt;Node13 -->
<g id="edge14_Node000013_Node000014" class="edge">
<title>Node14&#45;&gt;Node13</title>
<g id="a_edge14_Node000013_Node000014"><a xlink:title=" ">
<path fill="none" stroke="#9a32cd" stroke-dasharray="5,2" d="M96.5,-133.58C96.5,-119.76 96.5,-101.68 96.5,-91.15"/>
<polygon fill="#9a32cd" stroke="#9a32cd" points="93,-133.92 96.5,-143.92 100,-133.92 93,-133.92"/>
</a>
</g>
<text text-anchor="start" x="100" y="-114.5" font-family="Helvetica,sans-Serif" font-size="10.00" fill="grey">private</text>
</g>
</g>
</svg>
