<?xml version="1.0" encoding="UTF-8" standalone="no"?>
<!DOCTYPE svg PUBLIC "-//W3C//DTD SVG 1.1//EN"
 "http://www.w3.org/Graphics/SVG/1.1/DTD/svg11.dtd">
<!-- Generated by graphviz version 2.43.0 (0)
 -->
<!-- Title: _CajaWindowPane Pages: 1 -->
<svg width="1371pt" height="1344pt"
 viewBox="0.00 0.00 1371.00 1343.84" xmlns="http://www.w3.org/2000/svg" xmlns:xlink="http://www.w3.org/1999/xlink">
<g id="graph0" class="graph" transform="scale(1 1) rotate(0) translate(4 1339.84)">
<title>_CajaWindowPane</title>
<!-- Node1 -->
<g id="Node000001" class="node">
<title>Node1</title>
<g id="a_Node000001"><a xlink:title=" ">
<polygon fill="#999999" stroke="#666666" points="119.5,-1237.34 13.5,-1237.34 13.5,-1218.34 119.5,-1218.34 119.5,-1237.34"/>
<text text-anchor="middle" x="66.5" y="-1225.34" font-family="Helvetica,sans-Serif" font-size="10.00">_CajaWindowPane</text>
</a>
</g>
</g>
<!-- Node3 -->
<g id="Node000003" class="node">
<title>Node3</title>
<g id="a_Node000003"><a xlink:href="struct__CajaWindowPrivate.html" target="_top" xlink:title=" ">
<polygon fill="white" stroke="#666666" points="392,-1215.34 275,-1215.34 275,-1196.34 392,-1196.34 392,-1215.34"/>
<text text-anchor="middle" x="333.5" y="-1203.34" font-family="Helvetica,sans-Serif" font-size="10.00">_CajaWindowPrivate</text>
</a>
</g>
</g>
<!-- Node1&#45;&gt;Node3 -->
<g id="edge4_Node000003_Node000001" class="edge">
<title>Node1&#45;&gt;Node3</title>
<g id="a_edge4_Node000003_Node000001"><a xlink:title=" ">
<path fill="none" stroke="#9a32cd" stroke-dasharray="5,2" d="M124.13,-1216.57C133.09,-1215.11 142.28,-1213.79 151,-1212.84 192.22,-1208.37 238.99,-1206.64 274.72,-1206.02"/>
<polygon fill="#9a32cd" stroke="#9a32cd" points="123.41,-1213.14 114.15,-1218.28 124.59,-1220.04 123.41,-1213.14"/>
</a>
</g>
<text text-anchor="start" x="172.5" y="-1218.34" font-family="Helvetica,sans-Serif" font-size="10.00" fill="grey">active_pane</text>
</g>
<!-- Node8 -->
<g id="Node000008" class="node">
<title>Node8</title>
<g id="a_Node000008"><a xlink:href="structCajaWindowSlot.html" target="_top" xlink:title=" ">
<polygon fill="white" stroke="#666666" points="986,-1212.34 890,-1212.34 890,-1193.34 986,-1193.34 986,-1212.34"/>
<text text-anchor="middle" x="938" y="-1200.34" font-family="Helvetica,sans-Serif" font-size="10.00">CajaWindowSlot</text>
</a>
</g>
</g>
<!-- Node1&#45;&gt;Node8 -->
<g id="edge9_Node000008_Node000001" class="edge">
<title>Node1&#45;&gt;Node8</title>
<g id="a_edge9_Node000008_Node000001"><a xlink:title=" ">
<path fill="none" stroke="#9a32cd" stroke-dasharray="5,2" d="M129.95,-1229.5C137.05,-1229.64 144.18,-1229.76 151,-1229.84 196.77,-1230.39 208.22,-1230.29 254,-1229.84 522.93,-1227.17 591.54,-1246 859,-1217.84 870.52,-1216.63 882.88,-1214.6 894.28,-1212.41"/>
<polygon fill="#9a32cd" stroke="#9a32cd" points="129.68,-1225.99 119.61,-1229.28 129.53,-1232.99 129.68,-1225.99"/>
</a>
</g>
<text text-anchor="start" x="454" y="-1238.34" font-family="Helvetica,sans-Serif" font-size="10.00" fill="grey">pane</text>
</g>
<!-- Node2 -->
<g id="Node000002" class="node">
<title>Node2</title>
<g id="a_Node000002"><a xlink:href="structCajaWindow.html" target="_top" xlink:title=" ">
<polygon fill="white" stroke="#666666" points="654.5,-1186.34 577.5,-1186.34 577.5,-1167.34 654.5,-1167.34 654.5,-1186.34"/>
<text text-anchor="middle" x="616" y="-1174.34" font-family="Helvetica,sans-Serif" font-size="10.00">CajaWindow</text>
</a>
</g>
</g>
<!-- Node2&#45;&gt;Node1 -->
<g id="edge1_Node000001_Node000002" class="edge">
<title>Node2&#45;&gt;Node1</title>
<g id="a_edge1_Node000001_Node000002"><a xlink:title=" ">
<path fill="none" stroke="#9a32cd" stroke-dasharray="5,2" d="M567,-1174.87C522.44,-1173.15 454.25,-1170.78 395,-1169.84 340.34,-1168.97 326.18,-1162.58 272,-1169.84 216.75,-1177.24 204.59,-1187.51 151,-1202.84 133.69,-1207.79 114.43,-1213.54 98.77,-1218.28"/>
<polygon fill="#9a32cd" stroke="#9a32cd" points="567.12,-1178.38 577.25,-1175.27 567.39,-1171.39 567.12,-1178.38"/>
</a>
</g>
<text text-anchor="start" x="314.5" y="-1175.34" font-family="Helvetica,sans-Serif" font-size="10.00" fill="grey">window</text>
</g>
<!-- Node2&#45;&gt;Node8 -->
<g id="edge54_Node000008_Node000002" class="edge">
<title>Node2&#45;&gt;Node8</title>
<g id="a_edge54_Node000008_Node000002"><a xlink:title=" ">
<path fill="none" stroke="#9a32cd" stroke-dasharray="5,2" d="M664.73,-1180.72C725.41,-1185.65 829.53,-1194.11 889.91,-1199.01"/>
<polygon fill="#9a32cd" stroke="#9a32cd" points="664.9,-1177.22 654.65,-1179.9 664.33,-1184.2 664.9,-1177.22"/>
</a>
</g>
<text text-anchor="start" x="751" y="-1202.34" font-family="Helvetica,sans-Serif" font-size="10.00" fill="grey">open_callback</text>
</g>
<!-- Node3&#45;&gt;Node2 -->
<g id="edge2_Node000002_Node000003" class="edge">
<title>Node3&#45;&gt;Node2</title>
<g id="a_edge2_Node000002_Node000003"><a xlink:title=" ">
<path fill="none" stroke="#9a32cd" stroke-dasharray="5,2" d="M402.3,-1198.83C457.28,-1193.15 532.76,-1185.34 577.44,-1180.72"/>
<polygon fill="#9a32cd" stroke="#9a32cd" points="401.87,-1195.36 392.28,-1199.87 402.59,-1202.32 401.87,-1195.36"/>
</a>
</g>
<text text-anchor="start" x="449" y="-1203.34" font-family="Helvetica,sans-Serif" font-size="10.00" fill="grey">details</text>
</g>
<!-- Node4 -->
<g id="Node000004" class="node">
<title>Node4</title>
<g id="a_Node000004"><a xlink:href="structCajaBookmarkList.html" target="_top" xlink:title=" ">
<polygon fill="white" stroke="#666666" points="119.5,-1156.34 13.5,-1156.34 13.5,-1137.34 119.5,-1137.34 119.5,-1156.34"/>
<text text-anchor="middle" x="66.5" y="-1144.34" font-family="Helvetica,sans-Serif" font-size="10.00">CajaBookmarkList</text>
</a>
</g>
</g>
<!-- Node4&#45;&gt;Node3 -->
<g id="edge3_Node000003_Node000004" class="edge">
<title>Node4&#45;&gt;Node3</title>
<g id="a_edge3_Node000003_Node000004"><a xlink:title=" ">
<path fill="none" stroke="#9a32cd" stroke-dasharray="5,2" d="M125.99,-1158.4C162.81,-1165.84 211.29,-1175.94 254,-1185.84 267.84,-1189.05 282.98,-1192.84 296.23,-1196.25"/>
<polygon fill="#9a32cd" stroke="#9a32cd" points="126.42,-1154.91 115.93,-1156.37 125.04,-1161.77 126.42,-1154.91"/>
</a>
</g>
<text text-anchor="start" x="167.5" y="-1191.34" font-family="Helvetica,sans-Serif" font-size="10.00" fill="grey">bookmark_list</text>
</g>
<!-- Node5 -->
<g id="Node000005" class="node">
<title>Node5</title>
<g id="a_Node000005"><a xlink:href="structCajaApplication.html" target="_top" xlink:title=" ">
<polygon fill="white" stroke="#666666" points="380,-1116.34 287,-1116.34 287,-1097.34 380,-1097.34 380,-1116.34"/>
<text text-anchor="middle" x="333.5" y="-1104.34" font-family="Helvetica,sans-Serif" font-size="10.00">CajaApplication</text>
</a>
</g>
</g>
<!-- Node5&#45;&gt;Node2 -->
<g id="edge5_Node000002_Node000005" class="edge">
<title>Node5&#45;&gt;Node2</title>
<g id="a_edge5_Node000002_Node000005"><a xlink:title=" ">
<path fill="none" stroke="#9a32cd" stroke-dasharray="5,2" d="M390.22,-1108.99C427.35,-1111.58 476.87,-1117.28 519,-1129.84 548.88,-1138.75 580.88,-1156.2 599.36,-1167.15"/>
<polygon fill="#9a32cd" stroke="#9a32cd" points="390.3,-1105.49 380.09,-1108.34 389.85,-1112.47 390.3,-1105.49"/>
</a>
</g>
<text text-anchor="start" x="439" y="-1135.34" font-family="Helvetica,sans-Serif" font-size="10.00" fill="grey">application</text>
</g>
<!-- Node6 -->
<g id="Node000006" class="node">
<title>Node6</title>
<g id="a_Node000006"><a xlink:title=" ">
<polygon fill="white" stroke="#666666" points="133,-1116.34 0,-1116.34 0,-1097.34 133,-1097.34 133,-1116.34"/>
<text text-anchor="middle" x="66.5" y="-1104.34" font-family="Helvetica,sans-Serif" font-size="10.00">_CajaApplicationPrivate</text>
</a>
</g>
</g>
<!-- Node6&#45;&gt;Node5 -->
<g id="edge6_Node000005_Node000006" class="edge">
<title>Node6&#45;&gt;Node5</title>
<g id="a_edge6_Node000005_Node000006"><a xlink:title=" ">
<path fill="none" stroke="#9a32cd" stroke-dasharray="5,2" d="M143.02,-1106.84C189.42,-1106.84 247.34,-1106.84 286.85,-1106.84"/>
<polygon fill="#9a32cd" stroke="#9a32cd" points="143.01,-1103.34 133.01,-1106.84 143.01,-1110.34 143.01,-1103.34"/>
</a>
</g>
<text text-anchor="start" x="193.5" y="-1112.34" font-family="Helvetica,sans-Serif" font-size="10.00" fill="grey">priv</text>
</g>
<!-- Node7 -->
<g id="Node000007" class="node">
<title>Node7</title>
<g id="a_Node000007"><a xlink:href="struct__EggSMClient.html" target="_top" xlink:title=" ">
<polygon fill="white" stroke="#666666" points="108,-1076.34 25,-1076.34 25,-1057.34 108,-1057.34 108,-1076.34"/>
<text text-anchor="middle" x="66.5" y="-1064.34" font-family="Helvetica,sans-Serif" font-size="10.00">_EggSMClient</text>
</a>
</g>
</g>
<!-- Node7&#45;&gt;Node5 -->
<g id="edge7_Node000005_Node000007" class="edge">
<title>Node7&#45;&gt;Node5</title>
<g id="a_edge7_Node000005_Node000007"><a xlink:title=" ">
<path fill="none" stroke="#9a32cd" stroke-dasharray="5,2" d="M118.36,-1069.82C156.03,-1072.56 208.5,-1077.49 254,-1085.84 269.82,-1088.74 287.12,-1093.23 301.44,-1097.3"/>
<polygon fill="#9a32cd" stroke="#9a32cd" points="118.37,-1066.31 108.15,-1069.1 117.88,-1073.29 118.37,-1066.31"/>
</a>
</g>
<text text-anchor="start" x="181.5" y="-1091.34" font-family="Helvetica,sans-Serif" font-size="10.00" fill="grey">smclient</text>
</g>
<!-- Node8&#45;&gt;Node1 -->
<g id="edge8_Node000001_Node000008" class="edge">
<title>Node8&#45;&gt;Node1</title>
<g id="a_edge8_Node000001_Node000008"><a xlink:title=" ">
<path fill="none" stroke="#9a32cd" stroke-dasharray="5,2" d="M919.7,-1219.4C904.91,-1232.36 882.35,-1249.4 859,-1256.84 709.1,-1304.64 305.84,-1285.73 151,-1257.84 128.71,-1253.83 104.49,-1244.53 87.9,-1237.34"/>
<polygon fill="#9a32cd" stroke="#9a32cd" points="922.42,-1221.66 927.47,-1212.35 917.71,-1216.48 922.42,-1221.66"/>
</a>
</g>
<text text-anchor="start" x="439" y="-1291.34" font-family="Helvetica,sans-Serif" font-size="10.00" fill="grey">active_slot</text>
</g>
<!-- Node29 -->
<g id="Node000029" class="node">
<title>Node29</title>
<g id="a_Node000029"><a xlink:title=" ">
<polygon fill="white" stroke="#666666" points="1191,-1212.34 1060,-1212.34 1060,-1193.34 1191,-1193.34 1191,-1212.34"/>
<text text-anchor="middle" x="1125.5" y="-1200.34" font-family="Helvetica,sans-Serif" font-size="10.00">CajaQueryEditorDetails</text>
</a>
</g>
</g>
<!-- Node8&#45;&gt;Node29 -->
<g id="edge53_Node000029_Node000008" class="edge">
<title>Node8&#45;&gt;Node29</title>
<g id="a_edge53_Node000029_Node000008"><a xlink:title=" ">
<path fill="none" stroke="#9a32cd" stroke-dasharray="5,2" d="M996.52,-1202.84C1016.57,-1202.84 1039.2,-1202.84 1059.8,-1202.84"/>
<polygon fill="#9a32cd" stroke="#9a32cd" points="996.29,-1199.34 986.29,-1202.84 996.29,-1206.34 996.29,-1199.34"/>
</a>
</g>
<text text-anchor="start" x="1020.5" y="-1208.34" font-family="Helvetica,sans-Serif" font-size="10.00" fill="grey">slot</text>
</g>
<!-- Node9 -->
<g id="Node000009" class="node">
<title>Node9</title>
<g id="a_Node000009"><a xlink:href="structCajaBookmark.html" target="_top" xlink:title=" ">
<polygon fill="white" stroke="#666666" points="660.5,-1125.34 571.5,-1125.34 571.5,-1106.34 660.5,-1106.34 660.5,-1125.34"/>
<text text-anchor="middle" x="616" y="-1113.34" font-family="Helvetica,sans-Serif" font-size="10.00">CajaBookmark</text>
</a>
</g>
</g>
<!-- Node9&#45;&gt;Node8 -->
<g id="edge10_Node000008_Node000009" class="edge">
<title>Node9&#45;&gt;Node8</title>
<g id="a_edge10_Node000008_Node000009"><a xlink:title=" ">
<path fill="none" stroke="#9a32cd" stroke-dasharray="5,2" d="M670.89,-1116.46C721.12,-1118.63 797.34,-1126.05 859,-1149.84 885.58,-1160.09 912.06,-1180.89 926.3,-1193.17"/>
<polygon fill="#9a32cd" stroke="#9a32cd" points="671.01,-1112.96 660.89,-1116.08 670.75,-1119.95 671.01,-1112.96"/>
</a>
</g>
<text text-anchor="start" x="719" y="-1170.84" font-family="Helvetica,sans-Serif" font-size="10.00" fill="grey">current_location_bookmark</text>
<text text-anchor="start" x="719" y="-1155.84" font-family="Helvetica,sans-Serif" font-size="10.00" fill="grey">last_location_bookmark</text>
</g>
<!-- Node10 -->
<g id="Node000010" class="node">
<title>Node10</title>
<g id="a_Node000010"><a xlink:title=" ">
<polygon fill="white" stroke="#666666" points="395,-1054.34 272,-1054.34 272,-1035.34 395,-1035.34 395,-1054.34"/>
<text text-anchor="middle" x="333.5" y="-1042.34" font-family="Helvetica,sans-Serif" font-size="10.00">CajaBookmarkDetails</text>
</a>
</g>
</g>
<!-- Node10&#45;&gt;Node9 -->
<g id="edge11_Node000009_Node000010" class="edge">
<title>Node10&#45;&gt;Node9</title>
<g id="a_edge11_Node000009_Node000010"><a xlink:title=" ">
<path fill="none" stroke="#9a32cd" stroke-dasharray="5,2" d="M383.47,-1056.9C420.68,-1066.1 473.09,-1079.14 519,-1090.84 538.69,-1095.86 560.63,-1101.56 578.55,-1106.25"/>
<polygon fill="#9a32cd" stroke="#9a32cd" points="383.95,-1053.42 373.4,-1054.42 382.27,-1060.21 383.95,-1053.42"/>
</a>
</g>
<text text-anchor="start" x="449" y="-1096.34" font-family="Helvetica,sans-Serif" font-size="10.00" fill="grey">details</text>
</g>
<!-- Node11 -->
<g id="Node000011" class="node">
<title>Node11</title>
<g id="a_Node000011"><a xlink:href="structCajaFile.html" target="_top" xlink:title=" ">
<polygon fill="white" stroke="#666666" points="94.5,-708.34 38.5,-708.34 38.5,-689.34 94.5,-689.34 94.5,-708.34"/>
<text text-anchor="middle" x="66.5" y="-696.34" font-family="Helvetica,sans-Serif" font-size="10.00">CajaFile</text>
</a>
</g>
</g>
<!-- Node11&#45;&gt;Node8 -->
<g id="edge48_Node000008_Node000011" class="edge">
<title>Node11&#45;&gt;Node8</title>
<g id="a_edge48_Node000008_Node000011"><a xlink:title=" ">
<path fill="none" stroke="#9a32cd" stroke-dasharray="5,2" d="M75.41,-718.12C87.88,-746.53 114.47,-799.92 151,-833.84 399.19,-1064.33 578.9,-925.4 859,-1115.84 891.04,-1137.63 918.69,-1175.33 930.66,-1193.08"/>
<polygon fill="#9a32cd" stroke="#9a32cd" points="78.48,-716.38 71.34,-708.55 72.03,-719.12 78.48,-716.38"/>
</a>
</g>
<text text-anchor="start" x="416" y="-1015.84" font-family="Helvetica,sans-Serif" font-size="10.00" fill="grey">determine_view_file</text>
<text text-anchor="start" x="416" y="-1000.84" font-family="Helvetica,sans-Serif" font-size="10.00" fill="grey">viewed_file</text>
</g>
<!-- Node11&#45;&gt;Node10 -->
<g id="edge12_Node000010_Node000011" class="edge">
<title>Node11&#45;&gt;Node10</title>
<g id="a_edge12_Node000010_Node000011"><a xlink:title=" ">
<path fill="none" stroke="#9a32cd" stroke-dasharray="5,2" d="M70.21,-718.6C78.98,-779.79 108.56,-964.45 151,-1004.84 182.9,-1035.2 232.39,-1044.56 271.63,-1046.68"/>
<polygon fill="#9a32cd" stroke="#9a32cd" points="73.63,-717.8 68.77,-708.38 66.7,-718.77 73.63,-717.8"/>
</a>
</g>
<text text-anchor="start" x="194.5" y="-1050.34" font-family="Helvetica,sans-Serif" font-size="10.00" fill="grey">file</text>
</g>
<!-- Node14 -->
<g id="Node000014" class="node">
<title>Node14</title>
<g id="a_Node000014"><a xlink:href="struct__CajaDirectoryPrivate.html" target="_top" xlink:title=" ">
<polygon fill="white" stroke="#666666" points="395,-361.34 272,-361.34 272,-342.34 395,-342.34 395,-361.34"/>
<text text-anchor="middle" x="333.5" y="-349.34" font-family="Helvetica,sans-Serif" font-size="10.00">_CajaDirectoryPrivate</text>
</a>
</g>
</g>
<!-- Node11&#45;&gt;Node14 -->
<g id="edge16_Node000014_Node000011" class="edge">
<title>Node11&#45;&gt;Node14</title>
<g id="a_edge16_Node000014_Node000011"><a xlink:title=" ">
<path fill="none" stroke="#9a32cd" stroke-dasharray="5,2" d="M75.13,-679.95C88.17,-648.77 116.7,-585.3 151,-537.84 205.71,-462.14 290.61,-387.25 321.11,-361.36"/>
<polygon fill="#9a32cd" stroke="#9a32cd" points="71.88,-678.63 71.31,-689.21 78.35,-681.3 71.88,-678.63"/>
</a>
</g>
<text text-anchor="start" x="156.5" y="-588.84" font-family="Helvetica,sans-Serif" font-size="10.00" fill="grey">as_file</text>
<text text-anchor="start" x="156.5" y="-573.84" font-family="Helvetica,sans-Serif" font-size="10.00" fill="grey">deep_count_file</text>
<text text-anchor="start" x="156.5" y="-558.84" font-family="Helvetica,sans-Serif" font-size="10.00" fill="grey">extension_info_file</text>
<text text-anchor="start" x="156.5" y="-543.84" font-family="Helvetica,sans-Serif" font-size="10.00" fill="grey">get_info_file</text>
</g>
<!-- Node17 -->
<g id="Node000017" class="node">
<title>Node17</title>
<g id="a_Node000017"><a xlink:title=" ">
<polygon fill="white" stroke="#666666" points="993,-263.34 883,-263.34 883,-244.34 993,-244.34 993,-263.34"/>
<text text-anchor="middle" x="938" y="-251.34" font-family="Helvetica,sans-Serif" font-size="10.00">DirectoryLoadState</text>
</a>
</g>
</g>
<!-- Node11&#45;&gt;Node17 -->
<g id="edge21_Node000017_Node000011" class="edge">
<title>Node11&#45;&gt;Node17</title>
<g id="a_edge21_Node000017_Node000011"><a xlink:title=" ">
<path fill="none" stroke="#9a32cd" stroke-dasharray="5,2" d="M69,-679.06C73.56,-630.41 90.86,-502.85 151,-418.84 230.03,-308.46 282.15,-297.98 413,-261.84 579.19,-215.94 786.47,-233.61 882.94,-245.89"/>
<polygon fill="#9a32cd" stroke="#9a32cd" points="65.5,-678.91 68.14,-689.17 72.48,-679.51 65.5,-678.91"/>
</a>
</g>
<text text-anchor="start" x="421" y="-267.34" font-family="Helvetica,sans-Serif" font-size="10.00" fill="grey">load_directory_file</text>
</g>
<!-- Node18 -->
<g id="Node000018" class="node">
<title>Node18</title>
<g id="a_Node000018"><a xlink:title=" ">
<polygon fill="white" stroke="#666666" points="996,-833.34 880,-833.34 880,-814.34 996,-814.34 996,-833.34"/>
<text text-anchor="middle" x="938" y="-821.34" font-family="Helvetica,sans-Serif" font-size="10.00">DirectoryCountState</text>
</a>
</g>
</g>
<!-- Node11&#45;&gt;Node18 -->
<g id="edge24_Node000018_Node000011" class="edge">
<title>Node11&#45;&gt;Node18</title>
<g id="a_edge24_Node000018_Node000011"><a xlink:title=" ">
<path fill="none" stroke="#9a32cd" stroke-dasharray="5,2" d="M86.29,-715.07C102.4,-728.1 126.77,-745.83 151,-755.84 383.96,-852.06 460.96,-828.98 713,-831.84 777.88,-832.58 794.2,-835.16 859,-831.84 865.8,-831.49 872.92,-830.98 879.97,-830.37"/>
<polygon fill="#9a32cd" stroke="#9a32cd" points="88.17,-712.08 78.24,-708.39 83.7,-717.47 88.17,-712.08"/>
</a>
</g>
<text text-anchor="start" x="442" y="-838.34" font-family="Helvetica,sans-Serif" font-size="10.00" fill="grey">count_file</text>
</g>
<!-- Node20 -->
<g id="Node000020" class="node">
<title>Node20</title>
<g id="a_Node000020"><a xlink:title=" ">
<polygon fill="white" stroke="#666666" points="981.5,-83.34 894.5,-83.34 894.5,-64.34 981.5,-64.34 981.5,-83.34"/>
<text text-anchor="middle" x="938" y="-71.34" font-family="Helvetica,sans-Serif" font-size="10.00">MimeListState</text>
</a>
</g>
</g>
<!-- Node11&#45;&gt;Node20 -->
<g id="edge29_Node000020_Node000011" class="edge">
<title>Node11&#45;&gt;Node20</title>
<g id="a_edge29_Node000020_Node000011"><a xlink:title=" ">
<path fill="none" stroke="#9a32cd" stroke-dasharray="5,2" d="M69.53,-679.27C80.07,-578.29 129,-120.08 151,-99.84 259.77,0.22 746.73,-50.37 894.41,-68.36"/>
<polygon fill="#9a32cd" stroke="#9a32cd" points="66.04,-679 68.48,-689.31 73,-679.73 66.04,-679"/>
</a>
</g>
<text text-anchor="start" x="431" y="-46.34" font-family="Helvetica,sans-Serif" font-size="10.00" fill="grey">mime_list_file</text>
</g>
<!-- Node22 -->
<g id="Node000022" class="node">
<title>Node22</title>
<g id="a_Node000022"><a xlink:title=" ">
<polygon fill="white" stroke="#666666" points="985,-743.34 891,-743.34 891,-724.34 985,-724.34 985,-743.34"/>
<text text-anchor="middle" x="938" y="-731.34" font-family="Helvetica,sans-Serif" font-size="10.00">ThumbnailState</text>
</a>
</g>
</g>
<!-- Node11&#45;&gt;Node22 -->
<g id="edge34_Node000022_Node000011" class="edge">
<title>Node11&#45;&gt;Node22</title>
<g id="a_edge34_Node000022_Node000011"><a xlink:title=" ">
<path fill="none" stroke="#9a32cd" stroke-dasharray="5,2" d="M94.7,-712.92C110.65,-720.4 131.44,-728.85 151,-732.84 395.76,-782.8 463.2,-739.84 713,-741.84 777.89,-742.36 794.2,-745.16 859,-741.84 869.33,-741.31 880.4,-740.39 890.87,-739.36"/>
<polygon fill="#9a32cd" stroke="#9a32cd" points="95.98,-709.65 85.46,-708.44 92.93,-715.95 95.98,-709.65"/>
</a>
</g>
<text text-anchor="start" x="458" y="-762.34" font-family="Helvetica,sans-Serif" font-size="10.00" fill="grey">file</text>
</g>
<!-- Node23 -->
<g id="Node000023" class="node">
<title>Node23</title>
<g id="a_Node000023"><a xlink:title=" ">
<polygon fill="white" stroke="#666666" points="974.5,-401.34 901.5,-401.34 901.5,-382.34 974.5,-382.34 974.5,-401.34"/>
<text text-anchor="middle" x="938" y="-389.34" font-family="Helvetica,sans-Serif" font-size="10.00">MountState</text>
</a>
</g>
</g>
<!-- Node11&#45;&gt;Node23 -->
<g id="edge37_Node000023_Node000011" class="edge">
<title>Node11&#45;&gt;Node23</title>
<g id="a_edge37_Node000023_Node000011"><a xlink:title=" ">
<path fill="none" stroke="#9a32cd" stroke-dasharray="5,2" d="M104.36,-685.8C183.02,-658.32 373.52,-593.64 537,-552.84 606.35,-535.53 632.72,-557.91 695,-522.84 705.42,-516.97 703,-509.4 713,-502.84 770.22,-465.28 803.91,-494.46 859,-453.84 870.02,-445.72 866.98,-438.17 877,-428.84 889,-417.67 904.88,-408.05 917.29,-401.43"/>
<polygon fill="#9a32cd" stroke="#9a32cd" points="102.73,-682.66 94.45,-689.27 105.04,-689.27 102.73,-682.66"/>
</a>
</g>
<text text-anchor="start" x="458" y="-591.34" font-family="Helvetica,sans-Serif" font-size="10.00" fill="grey">file</text>
</g>
<!-- Node24 -->
<g id="Node000024" class="node">
<title>Node24</title>
<g id="a_Node000024"><a xlink:title=" ">
<polygon fill="white" stroke="#666666" points="995,-653.34 881,-653.34 881,-634.34 995,-634.34 995,-653.34"/>
<text text-anchor="middle" x="938" y="-641.34" font-family="Helvetica,sans-Serif" font-size="10.00">FilesystemInfoState</text>
</a>
</g>
</g>
<!-- Node11&#45;&gt;Node24 -->
<g id="edge40_Node000024_Node000011" class="edge">
<title>Node11&#45;&gt;Node24</title>
<g id="a_edge40_Node000024_Node000011"><a xlink:title=" ">
<path fill="none" stroke="#9a32cd" stroke-dasharray="5,2" d="M104.76,-699.48C184.2,-700.8 376.1,-703.81 537,-704.84 607.22,-705.29 631.54,-734.91 695,-704.84 706.42,-699.43 702.09,-689.21 713,-682.84 727.32,-674.48 819.31,-660.3 880.87,-651.53"/>
<polygon fill="#9a32cd" stroke="#9a32cd" points="104.81,-695.98 94.75,-699.31 104.69,-702.98 104.81,-695.98"/>
</a>
</g>
<text text-anchor="start" x="458" y="-710.34" font-family="Helvetica,sans-Serif" font-size="10.00" fill="grey">file</text>
</g>
<!-- Node25 -->
<g id="Node000025" class="node">
<title>Node25</title>
<g id="a_Node000025"><a xlink:title=" ">
<polygon fill="white" stroke="#666666" points="999,-173.34 877,-173.34 877,-154.34 999,-154.34 999,-173.34"/>
<text text-anchor="middle" x="938" y="-161.34" font-family="Helvetica,sans-Serif" font-size="10.00">TopLeftTextReadState</text>
</a>
</g>
</g>
<!-- Node11&#45;&gt;Node25 -->
<g id="edge43_Node000025_Node000011" class="edge">
<title>Node11&#45;&gt;Node25</title>
<g id="a_edge43_Node000025_Node000011"><a xlink:title=" ">
<path fill="none" stroke="#9a32cd" stroke-dasharray="5,2" d="M69.37,-679.11C76.4,-608.69 103.32,-370.88 151,-313.84 336.32,-92.14 739.38,-131.68 884.01,-154.3"/>
<polygon fill="#9a32cd" stroke="#9a32cd" points="65.87,-678.96 68.38,-689.25 72.84,-679.64 65.87,-678.96"/>
</a>
</g>
<text text-anchor="start" x="458" y="-169.34" font-family="Helvetica,sans-Serif" font-size="10.00" fill="grey">file</text>
</g>
<!-- Node26 -->
<g id="Node000026" class="node">
<title>Node26</title>
<g id="a_Node000026"><a xlink:title=" ">
<polygon fill="white" stroke="#666666" points="991,-563.34 885,-563.34 885,-544.34 991,-544.34 991,-563.34"/>
<text text-anchor="middle" x="938" y="-551.34" font-family="Helvetica,sans-Serif" font-size="10.00">LinkInfoReadState</text>
</a>
</g>
</g>
<!-- Node11&#45;&gt;Node26 -->
<g id="edge46_Node000026_Node000011" class="edge">
<title>Node11&#45;&gt;Node26</title>
<g id="a_edge46_Node000026_Node000011"><a xlink:title=" ">
<path fill="none" stroke="#9a32cd" stroke-dasharray="5,2" d="M104.71,-694.54C235.67,-679.32 668.79,-628.1 695,-613.84 705.8,-607.96 702.32,-598.92 713,-592.84 727.73,-584.46 823.52,-569.77 884.97,-561.01"/>
<polygon fill="#9a32cd" stroke="#9a32cd" points="104.28,-691.07 94.75,-695.7 105.09,-698.02 104.28,-691.07"/>
</a>
</g>
<text text-anchor="start" x="458" y="-662.34" font-family="Helvetica,sans-Serif" font-size="10.00" fill="grey">file</text>
</g>
<!-- Node12 -->
<g id="Node000012" class="node">
<title>Node12</title>
<g id="a_Node000012"><a xlink:href="struct__CajaFilePrivate.html" target="_top" xlink:title=" ">
<polygon fill="white" stroke="#666666" points="985.5,-931.34 890.5,-931.34 890.5,-912.34 985.5,-912.34 985.5,-931.34"/>
<text text-anchor="middle" x="938" y="-919.34" font-family="Helvetica,sans-Serif" font-size="10.00">_CajaFilePrivate</text>
</a>
</g>
</g>
<!-- Node12&#45;&gt;Node11 -->
<g id="edge13_Node000011_Node000012" class="edge">
<title>Node12&#45;&gt;Node11</title>
<g id="a_edge13_Node000011_Node000012"><a xlink:title=" ">
<path fill="none" stroke="#9a32cd" stroke-dasharray="5,2" d="M893.23,-933.78C882.15,-936.29 870.21,-938.56 859,-939.84 716.78,-956.04 677.38,-961.82 537,-933.84 357.27,-898.02 303.17,-890.97 151,-788.84 116.84,-765.92 86.73,-726.4 73.98,-708.35"/>
<polygon fill="#9a32cd" stroke="#9a32cd" points="894.2,-937.14 903.12,-931.42 892.58,-930.33 894.2,-937.14"/>
</a>
</g>
<text text-anchor="start" x="449" y="-935.34" font-family="Helvetica,sans-Serif" font-size="10.00" fill="grey">details</text>
</g>
<!-- Node13 -->
<g id="Node000013" class="node">
<title>Node13</title>
<g id="a_Node000013"><a xlink:href="structCajaDirectory.html" target="_top" xlink:title=" ">
<polygon fill="white" stroke="#666666" points="657.5,-402.34 574.5,-402.34 574.5,-383.34 657.5,-383.34 657.5,-402.34"/>
<text text-anchor="middle" x="616" y="-390.34" font-family="Helvetica,sans-Serif" font-size="10.00">CajaDirectory</text>
</a>
</g>
</g>
<!-- Node13&#45;&gt;Node12 -->
<g id="edge14_Node000012_Node000013" class="edge">
<title>Node13&#45;&gt;Node12</title>
<g id="a_edge14_Node000012_Node000013"><a xlink:title=" ">
<path fill="none" stroke="#9a32cd" stroke-dasharray="5,2" d="M667.53,-398.72C678.13,-402.34 688.16,-408.01 695,-416.84 721.77,-451.4 689.17,-773.19 713,-809.84 736.28,-845.66 855.8,-892.48 910.1,-912.31"/>
<polygon fill="#9a32cd" stroke="#9a32cd" points="668.28,-395.3 657.7,-395.95 666.38,-402.04 668.28,-395.3"/>
</a>
</g>
<text text-anchor="start" x="764" y="-897.34" font-family="Helvetica,sans-Serif" font-size="10.00" fill="grey">directory</text>
</g>
<!-- Node13&#45;&gt;Node17 -->
<g id="edge20_Node000017_Node000013" class="edge">
<title>Node13&#45;&gt;Node17</title>
<g id="a_edge20_Node000017_Node000013"><a xlink:title=" ">
<path fill="none" stroke="#9a32cd" stroke-dasharray="5,2" d="M663.35,-380.58C713.2,-366.49 794.06,-340.97 859,-307.84 884.09,-295.04 910.46,-275.25 925.21,-263.52"/>
<polygon fill="#9a32cd" stroke="#9a32cd" points="662.19,-377.27 653.5,-383.33 664.07,-384.01 662.19,-377.27"/>
</a>
</g>
<text text-anchor="start" x="764" y="-370.34" font-family="Helvetica,sans-Serif" font-size="10.00" fill="grey">directory</text>
</g>
<!-- Node13&#45;&gt;Node18 -->
<g id="edge23_Node000018_Node000013" class="edge">
<title>Node13&#45;&gt;Node18</title>
<g id="a_edge23_Node000018_Node000013"><a xlink:title=" ">
<path fill="none" stroke="#9a32cd" stroke-dasharray="5,2" d="M667.45,-398.79C678.05,-402.4 688.1,-408.05 695,-416.84 737.06,-470.42 674.37,-666.74 713,-722.84 719.18,-731.82 858.43,-790.91 914.2,-814.31"/>
<polygon fill="#9a32cd" stroke="#9a32cd" points="668.2,-395.36 657.62,-396.01 666.3,-402.1 668.2,-395.36"/>
</a>
</g>
<text text-anchor="start" x="764" y="-794.34" font-family="Helvetica,sans-Serif" font-size="10.00" fill="grey">directory</text>
</g>
<!-- Node19 -->
<g id="Node000019" class="node">
<title>Node19</title>
<g id="a_Node000019"><a xlink:title=" ">
<polygon fill="white" stroke="#666666" points="986,-457.34 890,-457.34 890,-438.34 986,-438.34 986,-457.34"/>
<text text-anchor="middle" x="938" y="-445.34" font-family="Helvetica,sans-Serif" font-size="10.00">DeepCountState</text>
</a>
</g>
</g>
<!-- Node13&#45;&gt;Node19 -->
<g id="edge26_Node000019_Node000013" class="edge">
<title>Node13&#45;&gt;Node19</title>
<g id="a_edge26_Node000019_Node000013"><a xlink:title=" ">
<path fill="none" stroke="#9a32cd" stroke-dasharray="5,2" d="M667.51,-401.97C682.17,-404.57 698.22,-407.37 713,-409.84 777.79,-420.68 794.29,-421.53 859,-432.84 868.92,-434.58 879.52,-436.54 889.61,-438.46"/>
<polygon fill="#9a32cd" stroke="#9a32cd" points="668.07,-398.52 657.61,-400.21 666.84,-405.41 668.07,-398.52"/>
</a>
</g>
<text text-anchor="start" x="764" y="-438.34" font-family="Helvetica,sans-Serif" font-size="10.00" fill="grey">directory</text>
</g>
<!-- Node13&#45;&gt;Node20 -->
<g id="edge28_Node000020_Node000013" class="edge">
<title>Node13&#45;&gt;Node20</title>
<g id="a_edge28_Node000020_Node000013"><a xlink:title=" ">
<path fill="none" stroke="#9a32cd" stroke-dasharray="5,2" d="M656.95,-379.16C671.2,-372.27 685.95,-362.43 695,-348.84 732.71,-292.22 673.28,-252.07 713,-196.84 754.91,-138.58 796.84,-163.72 859,-127.84 883.11,-113.93 909.38,-94.85 924.45,-83.49"/>
<polygon fill="#9a32cd" stroke="#9a32cd" points="655.44,-376 647.73,-383.26 658.29,-382.4 655.44,-376"/>
</a>
</g>
<text text-anchor="start" x="764" y="-202.34" font-family="Helvetica,sans-Serif" font-size="10.00" fill="grey">directory</text>
</g>
<!-- Node21 -->
<g id="Node000021" class="node">
<title>Node21</title>
<g id="a_Node000021"><a xlink:title=" ">
<polygon fill="white" stroke="#666666" points="977,-29.34 899,-29.34 899,-10.34 977,-10.34 977,-29.34"/>
<text text-anchor="middle" x="938" y="-17.34" font-family="Helvetica,sans-Serif" font-size="10.00">GetInfoState</text>
</a>
</g>
</g>
<!-- Node13&#45;&gt;Node21 -->
<g id="edge31_Node000021_Node000013" class="edge">
<title>Node13&#45;&gt;Node21</title>
<g id="a_edge31_Node000021_Node000013"><a xlink:title=" ">
<path fill="none" stroke="#9a32cd" stroke-dasharray="5,2" d="M657.6,-379.2C671.78,-372.35 686.32,-362.52 695,-348.84 723.91,-303.32 680.91,-150.18 713,-106.84 756.94,-47.49 847.2,-28.62 898.72,-22.63"/>
<polygon fill="#9a32cd" stroke="#9a32cd" points="656.12,-376.03 648.39,-383.28 658.95,-382.43 656.12,-376.03"/>
</a>
</g>
<text text-anchor="start" x="764" y="-112.34" font-family="Helvetica,sans-Serif" font-size="10.00" fill="grey">directory</text>
</g>
<!-- Node13&#45;&gt;Node22 -->
<g id="edge33_Node000022_Node000013" class="edge">
<title>Node13&#45;&gt;Node22</title>
<g id="a_edge33_Node000022_Node000013"><a xlink:title=" ">
<path fill="none" stroke="#9a32cd" stroke-dasharray="5,2" d="M667.59,-399.02C678.09,-402.63 688.06,-408.23 695,-416.84 724.81,-453.83 685.78,-590.91 713,-629.84 725.41,-647.59 857.7,-702.08 912.96,-724.28"/>
<polygon fill="#9a32cd" stroke="#9a32cd" points="668.45,-395.63 657.87,-396.23 666.52,-402.35 668.45,-395.63"/>
</a>
</g>
<text text-anchor="start" x="764" y="-707.34" font-family="Helvetica,sans-Serif" font-size="10.00" fill="grey">directory</text>
</g>
<!-- Node13&#45;&gt;Node23 -->
<g id="edge36_Node000023_Node000013" class="edge">
<title>Node13&#45;&gt;Node23</title>
<g id="a_edge36_Node000023_Node000013"><a xlink:title=" ">
<path fill="none" stroke="#9a32cd" stroke-dasharray="5,2" d="M667.57,-392.68C732.69,-392.48 844.25,-392.13 901.23,-391.95"/>
<polygon fill="#9a32cd" stroke="#9a32cd" points="667.52,-389.18 657.53,-392.71 667.54,-396.18 667.52,-389.18"/>
</a>
</g>
<text text-anchor="start" x="764" y="-398.34" font-family="Helvetica,sans-Serif" font-size="10.00" fill="grey">directory</text>
</g>
<!-- Node13&#45;&gt;Node24 -->
<g id="edge39_Node000024_Node000013" class="edge">
<title>Node13&#45;&gt;Node24</title>
<g id="a_edge39_Node000024_Node000013"><a xlink:title=" ">
<path fill="none" stroke="#9a32cd" stroke-dasharray="5,2" d="M667.24,-399.32C677.75,-402.92 687.81,-408.43 695,-416.84 731.75,-459.85 679.01,-497.62 713,-542.84 719.55,-551.56 858.58,-610.8 914.25,-634.28"/>
<polygon fill="#9a32cd" stroke="#9a32cd" points="668.11,-395.92 657.53,-396.52 666.17,-402.65 668.11,-395.92"/>
</a>
</g>
<text text-anchor="start" x="764" y="-614.34" font-family="Helvetica,sans-Serif" font-size="10.00" fill="grey">directory</text>
</g>
<!-- Node13&#45;&gt;Node25 -->
<g id="edge42_Node000025_Node000013" class="edge">
<title>Node13&#45;&gt;Node25</title>
<g id="a_edge42_Node000025_Node000013"><a xlink:title=" ">
<path fill="none" stroke="#9a32cd" stroke-dasharray="5,2" d="M654.5,-378.98C668.98,-371.94 684.55,-362.04 695,-348.84 712.82,-326.35 694.39,-308.68 713,-286.84 759.56,-232.22 796.84,-253.72 859,-217.84 883.11,-203.93 909.38,-184.85 924.45,-173.49"/>
<polygon fill="#9a32cd" stroke="#9a32cd" points="652.87,-375.88 645.2,-383.2 655.76,-382.25 652.87,-375.88"/>
</a>
</g>
<text text-anchor="start" x="764" y="-292.34" font-family="Helvetica,sans-Serif" font-size="10.00" fill="grey">directory</text>
</g>
<!-- Node13&#45;&gt;Node26 -->
<g id="edge45_Node000026_Node000013" class="edge">
<title>Node13&#45;&gt;Node26</title>
<g id="a_edge45_Node000026_Node000013"><a xlink:title=" ">
<path fill="none" stroke="#9a32cd" stroke-dasharray="5,2" d="M667.65,-401.82C677.49,-405.3 687.17,-410.14 695,-416.84 708.89,-428.74 699.86,-441.12 713,-453.84 728.42,-468.76 858.34,-522.15 912.96,-544.2"/>
<polygon fill="#9a32cd" stroke="#9a32cd" points="668.4,-398.39 657.81,-398.77 666.33,-405.08 668.4,-398.39"/>
</a>
</g>
<text text-anchor="start" x="764" y="-527.34" font-family="Helvetica,sans-Serif" font-size="10.00" fill="grey">directory</text>
</g>
<!-- Node14&#45;&gt;Node13 -->
<g id="edge15_Node000013_Node000014" class="edge">
<title>Node14&#45;&gt;Node13</title>
<g id="a_edge15_Node000013_Node000014"><a xlink:title=" ">
<path fill="none" stroke="#9a32cd" stroke-dasharray="5,2" d="M405.13,-362.16C458.64,-369.99 530.27,-380.46 574.49,-386.92"/>
<polygon fill="#9a32cd" stroke="#9a32cd" points="405.42,-358.67 395.02,-360.69 404.41,-365.6 405.42,-358.67"/>
</a>
</g>
<text text-anchor="start" x="449" y="-384.34" font-family="Helvetica,sans-Serif" font-size="10.00" fill="grey">details</text>
</g>
<!-- Node15 -->
<g id="Node000015" class="node">
<title>Node15</title>
<g id="a_Node000015"><a xlink:title=" ">
<polygon fill="white" stroke="#666666" points="110,-89.34 23,-89.34 23,-70.34 110,-70.34 110,-89.34"/>
<text text-anchor="middle" x="66.5" y="-77.34" font-family="Helvetica,sans-Serif" font-size="10.00">CajaFileQueue</text>
</a>
</g>
</g>
<!-- Node15&#45;&gt;Node14 -->
<g id="edge17_Node000014_Node000015" class="edge">
<title>Node15&#45;&gt;Node14</title>
<g id="a_edge17_Node000014_Node000015"><a xlink:title=" ">
<path fill="none" stroke="#9a32cd" stroke-dasharray="5,2" d="M119.26,-92.21C160.51,-104.46 217.26,-126.98 254,-164.84 305.98,-218.41 325.7,-311.5 330.95,-341.92"/>
<polygon fill="#9a32cd" stroke="#9a32cd" points="119.97,-88.78 109.39,-89.39 118.05,-95.51 119.97,-88.78"/>
</a>
</g>
<text text-anchor="start" x="154.5" y="-200.34" font-family="Helvetica,sans-Serif" font-size="10.00" fill="grey">extension_queue</text>
<text text-anchor="start" x="154.5" y="-185.34" font-family="Helvetica,sans-Serif" font-size="10.00" fill="grey">high_priority_queue</text>
<text text-anchor="start" x="154.5" y="-170.34" font-family="Helvetica,sans-Serif" font-size="10.00" fill="grey">low_priority_queue</text>
</g>
<!-- Node16 -->
<g id="Node000016" class="node">
<title>Node16</title>
<g id="a_Node000016"><a xlink:title=" ">
<polygon fill="white" stroke="#666666" points="104.5,-159.34 28.5,-159.34 28.5,-140.34 104.5,-140.34 104.5,-159.34"/>
<text text-anchor="middle" x="66.5" y="-147.34" font-family="Helvetica,sans-Serif" font-size="10.00">CajaMonitor</text>
</a>
</g>
</g>
<!-- Node16&#45;&gt;Node14 -->
<g id="edge18_Node000014_Node000016" class="edge">
<title>Node16&#45;&gt;Node14</title>
<g id="a_edge18_Node000014_Node000016"><a xlink:title=" ">
<path fill="none" stroke="#9a32cd" stroke-dasharray="5,2" d="M88.55,-165.89C141.25,-206.05 277.62,-310.01 319.85,-342.2"/>
<polygon fill="#9a32cd" stroke="#9a32cd" points="90.36,-162.86 80.28,-159.58 86.11,-168.43 90.36,-162.86"/>
</a>
</g>
<text text-anchor="start" x="183.5" y="-292.34" font-family="Helvetica,sans-Serif" font-size="10.00" fill="grey">monitor</text>
</g>
<!-- Node17&#45;&gt;Node14 -->
<g id="edge19_Node000014_Node000017" class="edge">
<title>Node17&#45;&gt;Node14</title>
<g id="a_edge19_Node000014_Node000017"><a xlink:title=" ">
<path fill="none" stroke="#9a32cd" stroke-dasharray="5,2" d="M872.62,-251.19C771.53,-249.14 570.82,-253.62 413,-310.84 390.02,-319.17 365.3,-332.97 349.87,-342.23"/>
<polygon fill="#9a32cd" stroke="#9a32cd" points="872.6,-254.69 882.68,-251.43 872.76,-247.69 872.6,-254.69"/>
</a>
</g>
<text text-anchor="start" x="550" y="-281.34" font-family="Helvetica,sans-Serif" font-size="10.00" fill="grey">directory_load_in_progress</text>
</g>
<!-- Node18&#45;&gt;Node14 -->
<g id="edge22_Node000014_Node000018" class="edge">
<title>Node18&#45;&gt;Node14</title>
<g id="a_edge22_Node000014_Node000018"><a xlink:title=" ">
<path fill="none" stroke="#9a32cd" stroke-dasharray="5,2" d="M869.43,-825.38C824.54,-825.01 764.59,-821.8 713,-809.84 630.5,-790.72 591.79,-801.41 537,-736.84 514.26,-710.04 543.49,-685.05 519,-659.84 485.04,-624.9 447.71,-666.04 413,-631.84 333.33,-553.37 332.76,-401.07 334.05,-361.45"/>
<polygon fill="#9a32cd" stroke="#9a32cd" points="869.62,-828.89 879.63,-825.42 869.65,-821.89 869.62,-828.89"/>
</a>
</g>
<text text-anchor="start" x="572" y="-812.34" font-family="Helvetica,sans-Serif" font-size="10.00" fill="grey">count_in_progress</text>
</g>
<!-- Node19&#45;&gt;Node14 -->
<g id="edge25_Node000014_Node000019" class="edge">
<title>Node19&#45;&gt;Node14</title>
<g id="a_edge25_Node000014_Node000019"><a xlink:title=" ">
<path fill="none" stroke="#9a32cd" stroke-dasharray="5,2" d="M879.93,-452.18C781.29,-457.61 574,-459.89 413,-399.84 387.71,-390.41 361.6,-372.51 346.77,-361.44"/>
<polygon fill="#9a32cd" stroke="#9a32cd" points="880.21,-455.67 889.99,-451.59 879.81,-448.68 880.21,-455.67"/>
</a>
</g>
<text text-anchor="start" x="557" y="-458.34" font-family="Helvetica,sans-Serif" font-size="10.00" fill="grey">deep_count_in_progress</text>
</g>
<!-- Node20&#45;&gt;Node14 -->
<g id="edge27_Node000014_Node000020" class="edge">
<title>Node20&#45;&gt;Node14</title>
<g id="a_edge27_Node000014_Node000020"><a xlink:title=" ">
<path fill="none" stroke="#9a32cd" stroke-dasharray="5,2" d="M884.26,-72.2C838.41,-71.94 770.49,-74.37 713,-87.84 630.38,-107.2 593.87,-98.86 537,-161.84 518.63,-182.19 538.75,-201.83 519,-220.84 483.9,-254.64 453.52,-221.78 413,-248.84 375.98,-273.57 349.27,-321.66 339.06,-342.18"/>
<polygon fill="#9a32cd" stroke="#9a32cd" points="884.24,-75.7 894.28,-72.3 884.31,-68.7 884.24,-75.7"/>
</a>
</g>
<text text-anchor="start" x="561" y="-167.34" font-family="Helvetica,sans-Serif" font-size="10.00" fill="grey">mime_list_in_progress</text>
</g>
<!-- Node21&#45;&gt;Node14 -->
<g id="edge30_Node000014_Node000021" class="edge">
<title>Node21&#45;&gt;Node14</title>
<g id="a_edge30_Node000014_Node000021"><a xlink:title=" ">
<path fill="none" stroke="#9a32cd" stroke-dasharray="5,2" d="M888.98,-10.21C805.74,3.46 634.27,17.78 537,-71.84 508.92,-97.71 545.35,-128.21 519,-155.84 485.37,-191.1 450.39,-152.6 413,-183.84 360.87,-227.39 341.34,-313.28 336.09,-342.13"/>
<polygon fill="#9a32cd" stroke="#9a32cd" points="888.47,-13.67 898.92,-11.91 889.65,-6.77 888.47,-13.67"/>
</a>
</g>
<text text-anchor="start" x="565" y="-77.34" font-family="Helvetica,sans-Serif" font-size="10.00" fill="grey">get_info_in_progress</text>
</g>
<!-- Node22&#45;&gt;Node14 -->
<g id="edge32_Node000014_Node000022" class="edge">
<title>Node22&#45;&gt;Node14</title>
<g id="a_edge32_Node000014_Node000022"><a xlink:title=" ">
<path fill="none" stroke="#9a32cd" stroke-dasharray="5,2" d="M880.87,-735.42C835.11,-735.5 769.11,-732.85 713,-719.84 630.5,-700.72 595.06,-708.49 537,-646.84 520.23,-629.04 533.94,-614.21 519,-594.84 484.37,-549.94 449.72,-567.05 413,-523.84 368.36,-471.32 344.13,-389.22 336.87,-361.42"/>
<polygon fill="#9a32cd" stroke="#9a32cd" points="880.91,-738.92 890.89,-735.36 880.87,-731.92 880.91,-738.92"/>
</a>
</g>
<text text-anchor="start" x="576" y="-721.34" font-family="Helvetica,sans-Serif" font-size="10.00" fill="grey">thumbnail_state</text>
</g>
<!-- Node23&#45;&gt;Node14 -->
<g id="edge35_Node000014_Node000023" class="edge">
<title>Node23&#45;&gt;Node14</title>
<g id="a_edge35_Node000014_Node000023"><a xlink:title=" ">
<path fill="none" stroke="#9a32cd" stroke-dasharray="5,2" d="M920.92,-374.57C906.34,-360.28 883.45,-341.05 859,-332.84 683.21,-273.84 455.47,-320.65 369.45,-342.33"/>
<polygon fill="#9a32cd" stroke="#9a32cd" points="918.61,-377.22 928.12,-381.9 923.61,-372.31 918.61,-377.22"/>
</a>
</g>
<text text-anchor="start" x="585" y="-317.34" font-family="Helvetica,sans-Serif" font-size="10.00" fill="grey">mount_state</text>
</g>
<!-- Node24&#45;&gt;Node14 -->
<g id="edge38_Node000014_Node000024" class="edge">
<title>Node24&#45;&gt;Node14</title>
<g id="a_edge38_Node000014_Node000024"><a xlink:title=" ">
<path fill="none" stroke="#9a32cd" stroke-dasharray="5,2" d="M870.35,-645.39C825.36,-645.05 764.94,-641.88 713,-629.84 630.5,-610.72 611.44,-597.22 537,-556.84 478.27,-524.98 459.73,-519.6 413,-471.84 378.18,-436.26 349.85,-383.03 339.13,-361.45"/>
<polygon fill="#9a32cd" stroke="#9a32cd" points="870.56,-648.89 880.57,-645.42 870.58,-641.89 870.56,-648.89"/>
</a>
</g>
<text text-anchor="start" x="563" y="-631.34" font-family="Helvetica,sans-Serif" font-size="10.00" fill="grey">filesystem_info_state</text>
</g>
<!-- Node25&#45;&gt;Node14 -->
<g id="edge41_Node000014_Node000025" class="edge">
<title>Node25&#45;&gt;Node14</title>
<g id="a_edge41_Node000014_Node000025"><a xlink:title=" ">
<path fill="none" stroke="#9a32cd" stroke-dasharray="5,2" d="M866.47,-163.65C822.07,-164.66 763.76,-168.06 713,-177.84 632.13,-193.43 612.44,-202.81 537,-235.84 528.62,-239.51 527.41,-242.24 519,-245.84 473.64,-265.26 455.68,-254.09 413,-278.84 383.38,-296.02 355.78,-326.21 342.61,-341.84"/>
<polygon fill="#9a32cd" stroke="#9a32cd" points="866.65,-167.14 876.58,-163.45 866.51,-160.15 866.65,-167.14"/>
</a>
</g>
<text text-anchor="start" x="569" y="-241.34" font-family="Helvetica,sans-Serif" font-size="10.00" fill="grey">top_left_read_state</text>
</g>
<!-- Node26&#45;&gt;Node14 -->
<g id="edge44_Node000014_Node000026" class="edge">
<title>Node26&#45;&gt;Node14</title>
<g id="a_edge44_Node000014_Node000026"><a xlink:title=" ">
<path fill="none" stroke="#9a32cd" stroke-dasharray="5,2" d="M874.56,-554.79C829.26,-554.3 766.76,-551.21 713,-539.84 573.91,-510.43 533.07,-504.97 413,-428.84 382.85,-409.73 354.86,-377.45 341.96,-361.44"/>
<polygon fill="#9a32cd" stroke="#9a32cd" points="874.8,-558.29 884.82,-554.85 874.84,-551.29 874.8,-558.29"/>
</a>
</g>
<text text-anchor="start" x="566" y="-541.34" font-family="Helvetica,sans-Serif" font-size="10.00" fill="grey">link_info_read_state</text>
</g>
<!-- Node27 -->
<g id="Node000027" class="node">
<title>Node27</title>
<g id="a_Node000027"><a xlink:href="structCajaFileSortByEmblemCache.html" target="_top" xlink:title=" ">
<polygon fill="white" stroke="#666666" points="695,-925.34 537,-925.34 537,-906.34 695,-906.34 695,-925.34"/>
<text text-anchor="middle" x="616" y="-913.34" font-family="Helvetica,sans-Serif" font-size="10.00">CajaFileSortByEmblemCache</text>
</a>
</g>
</g>
<!-- Node27&#45;&gt;Node12 -->
<g id="edge47_Node000012_Node000027" class="edge">
<title>Node27&#45;&gt;Node12</title>
<g id="a_edge47_Node000012_Node000027"><a xlink:title=" ">
<path fill="none" stroke="#9a32cd" stroke-dasharray="5,2" d="M705.48,-917.5C765.3,-918.62 841.9,-920.06 890.23,-920.96"/>
<polygon fill="#9a32cd" stroke="#9a32cd" points="705.34,-914 695.28,-917.31 705.21,-921 705.34,-914"/>
</a>
</g>
<text text-anchor="start" x="716" y="-926.34" font-family="Helvetica,sans-Serif" font-size="10.00" fill="grey">compare_by_emblem_cache</text>
</g>
<!-- Node28 -->
<g id="Node000028" class="node">
<title>Node28</title>
<g id="a_Node000028"><a xlink:href="structCajaQueryEditor.html" target="_top" xlink:title=" ">
<polygon fill="white" stroke="#666666" points="1363,-1235.34 1267,-1235.34 1267,-1216.34 1363,-1216.34 1363,-1235.34"/>
<text text-anchor="middle" x="1315" y="-1223.34" font-family="Helvetica,sans-Serif" font-size="10.00">CajaQueryEditor</text>
</a>
</g>
</g>
<!-- Node28&#45;&gt;Node8 -->
<g id="edge49_Node000008_Node000028" class="edge">
<title>Node28&#45;&gt;Node8</title>
<g id="a_edge49_Node000008_Node000028"><a xlink:title=" ">
<path fill="none" stroke="#9a32cd" stroke-dasharray="5,2" d="M1256.73,-1234.21C1254.12,-1234.45 1251.54,-1234.67 1249,-1234.84 1146.02,-1241.94 1118.91,-1240.3 1017,-1223.84 1000.8,-1221.23 983.12,-1216.61 968.69,-1212.38"/>
<polygon fill="#9a32cd" stroke="#9a32cd" points="1257.28,-1237.67 1266.86,-1233.14 1256.55,-1230.71 1257.28,-1237.67"/>
</a>
</g>
<text text-anchor="start" x="1094.5" y="-1244.34" font-family="Helvetica,sans-Serif" font-size="10.00" fill="grey">query_editor</text>
</g>
<!-- Node29&#45;&gt;Node28 -->
<g id="edge50_Node000028_Node000029" class="edge">
<title>Node29&#45;&gt;Node28</title>
<g id="a_edge50_Node000028_Node000029"><a xlink:title=" ">
<path fill="none" stroke="#9a32cd" stroke-dasharray="5,2" d="M1201.26,-1211.99C1217.03,-1213.92 1233.56,-1215.95 1249,-1217.84 1254.76,-1218.55 1260.8,-1219.29 1266.78,-1220.03"/>
<polygon fill="#9a32cd" stroke="#9a32cd" points="1201.38,-1208.48 1191.03,-1210.74 1200.53,-1215.42 1201.38,-1208.48"/>
</a>
</g>
<text text-anchor="start" x="1212" y="-1223.34" font-family="Helvetica,sans-Serif" font-size="10.00" fill="grey">details</text>
</g>
<!-- Node30 -->
<g id="Node000030" class="node">
<title>Node30</title>
<g id="a_Node000030"><a xlink:href="structCajaSearchBar.html" target="_top" xlink:title=" ">
<polygon fill="white" stroke="#666666" points="982,-1323.34 894,-1323.34 894,-1304.34 982,-1304.34 982,-1323.34"/>
<text text-anchor="middle" x="938" y="-1311.34" font-family="Helvetica,sans-Serif" font-size="10.00">CajaSearchBar</text>
</a>
</g>
</g>
<!-- Node30&#45;&gt;Node29 -->
<g id="edge51_Node000029_Node000030" class="edge">
<title>Node30&#45;&gt;Node29</title>
<g id="a_edge51_Node000029_Node000030"><a xlink:title=" ">
<path fill="none" stroke="#9a32cd" stroke-dasharray="5,2" d="M958.27,-1297.48C981.29,-1278.54 1021.53,-1247.35 1060,-1226.84 1070.54,-1221.22 1082.69,-1216.33 1093.58,-1212.45"/>
<polygon fill="#9a32cd" stroke="#9a32cd" points="955.78,-1295 950.33,-1304.09 960.26,-1300.38 955.78,-1295"/>
</a>
</g>
<text text-anchor="start" x="1021.5" y="-1258.34" font-family="Helvetica,sans-Serif" font-size="10.00" fill="grey">bar</text>
</g>
<!-- Node31 -->
<g id="Node000031" class="node">
<title>Node31</title>
<g id="a_Node000031"><a xlink:title=" ">
<polygon fill="white" stroke="#666666" points="677,-1330.34 555,-1330.34 555,-1311.34 677,-1311.34 677,-1330.34"/>
<text text-anchor="middle" x="616" y="-1318.34" font-family="Helvetica,sans-Serif" font-size="10.00">CajaSearchBarDetails</text>
</a>
</g>
</g>
<!-- Node31&#45;&gt;Node30 -->
<g id="edge52_Node000030_Node000031" class="edge">
<title>Node31&#45;&gt;Node30</title>
<g id="a_edge52_Node000030_Node000031"><a xlink:title=" ">
<path fill="none" stroke="#9a32cd" stroke-dasharray="5,2" d="M687.46,-1319.3C750.57,-1317.92 841.08,-1315.94 893.98,-1314.78"/>
<polygon fill="#9a32cd" stroke="#9a32cd" points="687.11,-1315.81 677.19,-1319.52 687.26,-1322.8 687.11,-1315.81"/>
</a>
</g>
<text text-anchor="start" x="769" y="-1324.34" font-family="Helvetica,sans-Serif" font-size="10.00" fill="grey">details</text>
</g>
</g>
</svg>
