<?xml version="1.0" encoding="UTF-8" standalone="no"?>
<!DOCTYPE svg PUBLIC "-//W3C//DTD SVG 1.1//EN"
 "http://www.w3.org/Graphics/SVG/1.1/DTD/svg11.dtd">
<!-- Generated by graphviz version 2.43.0 (0)
 -->
<!-- Title: _PulseExtStream Pages: 1 -->
<svg width="1064pt" height="260pt"
 viewBox="0.00 0.00 1064.00 259.50" xmlns="http://www.w3.org/2000/svg" xmlns:xlink="http://www.w3.org/1999/xlink">
<g id="graph0" class="graph" transform="scale(1 1) rotate(0) translate(4 255.5)">
<title>_PulseExtStream</title>
<!-- Node1 -->
<g id="Node000001" class="node">
<title>Node1</title>
<g id="a_Node000001"><a xlink:title=" ">
<polygon fill="#999999" stroke="#666666" points="795,-184 696,-184 696,-165 795,-165 795,-184"/>
<text text-anchor="middle" x="745.5" y="-172" font-family="Helvetica,sans-Serif" font-size="10.00">_PulseExtStream</text>
</a>
</g>
</g>
<!-- Node2 -->
<g id="Node000002" class="node">
<title>Node2</title>
<g id="a_Node000002"><a xlink:href="struct__MateMixerStoredControl.html" target="_top" xlink:title=" ">
<polygon fill="white" stroke="#666666" points="615.5,-164 475.5,-164 475.5,-145 615.5,-145 615.5,-164"/>
<text text-anchor="middle" x="545.5" y="-152" font-family="Helvetica,sans-Serif" font-size="10.00">_MateMixerStoredControl</text>
</a>
</g>
</g>
<!-- Node2&#45;&gt;Node1 -->
<g id="edge1_Node000001_Node000002" class="edge">
<title>Node2&#45;&gt;Node1</title>
<g id="a_edge1_Node000001_Node000002"><a xlink:title=" ">
<path fill="none" stroke="#9a32cd" stroke-dasharray="5,2" d="M625.85,-152.07C641.53,-152.45 657.82,-153.46 673,-155.5 687.13,-157.4 702.45,-161.23 715.27,-164.95"/>
<polygon fill="#9a32cd" stroke="#9a32cd" points="625.71,-148.57 615.66,-151.91 625.6,-155.57 625.71,-148.57"/>
</a>
</g>
<text text-anchor="start" x="638" y="-161" font-family="Helvetica,sans-Serif" font-size="10.00" fill="grey">parent</text>
</g>
<!-- Node3 -->
<g id="Node000003" class="node">
<title>Node3</title>
<g id="a_Node000003"><a xlink:href="struct__MateMixerStreamControl.html" target="_top" xlink:title=" ">
<polygon fill="white" stroke="#666666" points="362.5,-91 218.5,-91 218.5,-72 362.5,-72 362.5,-91"/>
<text text-anchor="middle" x="290.5" y="-79" font-family="Helvetica,sans-Serif" font-size="10.00">_MateMixerStreamControl</text>
</a>
</g>
</g>
<!-- Node3&#45;&gt;Node2 -->
<g id="edge2_Node000002_Node000003" class="edge">
<title>Node3&#45;&gt;Node2</title>
<g id="a_edge2_Node000002_Node000003"><a xlink:title=" ">
<path fill="none" stroke="#9a32cd" stroke-dasharray="5,2" d="M334.44,-93.89C384.47,-108.33 466.05,-131.86 511.42,-144.95"/>
<polygon fill="#9a32cd" stroke="#9a32cd" points="335.15,-90.45 324.58,-91.04 333.21,-97.18 335.15,-90.45"/>
</a>
</g>
<text text-anchor="start" x="411" y="-135" font-family="Helvetica,sans-Serif" font-size="10.00" fill="grey">object</text>
</g>
<!-- Node6 -->
<g id="Node000006" class="node">
<title>Node6</title>
<g id="a_Node000006"><a xlink:title=" ">
<polygon fill="white" stroke="#666666" points="617,-51 474,-51 474,-32 617,-32 617,-51"/>
<text text-anchor="middle" x="545.5" y="-39" font-family="Helvetica,sans-Serif" font-size="10.00">_MateMixerStreamPrivate</text>
</a>
</g>
</g>
<!-- Node3&#45;&gt;Node6 -->
<g id="edge8_Node000006_Node000003" class="edge">
<title>Node3&#45;&gt;Node6</title>
<g id="a_edge8_Node000006_Node000003"><a xlink:title=" ">
<path fill="none" stroke="#9a32cd" stroke-dasharray="5,2" d="M327.33,-68.66C347.28,-62.08 372.72,-54.6 396,-50.5 421.18,-46.06 449.1,-43.71 473.86,-42.5"/>
<polygon fill="#9a32cd" stroke="#9a32cd" points="326.09,-65.39 317.73,-71.9 328.32,-72.02 326.09,-65.39"/>
</a>
</g>
<text text-anchor="start" x="409" y="-56" font-family="Helvetica,sans-Serif" font-size="10.00" fill="grey">control</text>
</g>
<!-- Node4 -->
<g id="Node000004" class="node">
<title>Node4</title>
<g id="a_Node000004"><a xlink:title=" ">
<polygon fill="white" stroke="#666666" points="1056,-72 877,-72 877,-53 1056,-53 1056,-72"/>
<text text-anchor="middle" x="966.5" y="-60" font-family="Helvetica,sans-Serif" font-size="10.00">_MateMixerStreamControlPrivate</text>
</a>
</g>
</g>
<!-- Node4&#45;&gt;Node3 -->
<g id="edge3_Node000003_Node000004" class="edge">
<title>Node4&#45;&gt;Node3</title>
<g id="a_edge3_Node000003_Node000004"><a xlink:title=" ">
<path fill="none" stroke="#9a32cd" stroke-dasharray="5,2" d="M866.74,-67.21C864.13,-67.31 861.55,-67.41 859,-67.5 680.48,-73.89 470.28,-78.25 362.74,-80.25"/>
<polygon fill="#9a32cd" stroke="#9a32cd" points="867.03,-70.7 876.88,-66.81 866.75,-63.71 867.03,-70.7"/>
</a>
</g>
<text text-anchor="start" x="645" y="-80" font-family="Helvetica,sans-Serif" font-size="10.00" fill="grey">priv</text>
</g>
<!-- Node5 -->
<g id="Node000005" class="node">
<title>Node5</title>
<g id="a_Node000005"><a xlink:href="struct__MateMixerStream.html" target="_top" xlink:title=" ">
<polygon fill="white" stroke="#666666" points="800,-52 691,-52 691,-33 800,-33 800,-52"/>
<text text-anchor="middle" x="745.5" y="-40" font-family="Helvetica,sans-Serif" font-size="10.00">_MateMixerStream</text>
</a>
</g>
</g>
<!-- Node5&#45;&gt;Node4 -->
<g id="edge4_Node000004_Node000005" class="edge">
<title>Node5&#45;&gt;Node4</title>
<g id="a_edge4_Node000004_Node000005"><a xlink:title=" ">
<path fill="none" stroke="#9a32cd" stroke-dasharray="5,2" d="M810.32,-46.58C826.23,-47.72 843.25,-49.05 859,-50.5 867.15,-51.25 875.65,-52.09 884.13,-52.98"/>
<polygon fill="#9a32cd" stroke="#9a32cd" points="810.26,-43.07 800.04,-45.86 809.77,-50.05 810.26,-43.07"/>
</a>
</g>
<text text-anchor="start" x="821.5" y="-56" font-family="Helvetica,sans-Serif" font-size="10.00" fill="grey">stream</text>
</g>
<!-- Node6&#45;&gt;Node5 -->
<g id="edge5_Node000005_Node000006" class="edge">
<title>Node6&#45;&gt;Node5</title>
<g id="a_edge5_Node000005_Node000006"><a xlink:title=" ">
<path fill="none" stroke="#9a32cd" stroke-dasharray="5,2" d="M627.2,-41.91C648.58,-42.02 671.14,-42.13 690.7,-42.23"/>
<polygon fill="#9a32cd" stroke="#9a32cd" points="627.16,-38.41 617.14,-41.86 627.13,-45.41 627.16,-38.41"/>
</a>
</g>
<text text-anchor="start" x="645" y="-48" font-family="Helvetica,sans-Serif" font-size="10.00" fill="grey">priv</text>
</g>
<!-- Node7 -->
<g id="Node000007" class="node">
<title>Node7</title>
<g id="a_Node000007"><a xlink:href="struct__MateMixerDevice.html" target="_top" xlink:title=" ">
<polygon fill="white" stroke="#666666" points="344,-19 237,-19 237,0 344,0 344,-19"/>
<text text-anchor="middle" x="290.5" y="-7" font-family="Helvetica,sans-Serif" font-size="10.00">_MateMixerDevice</text>
</a>
</g>
</g>
<!-- Node7&#45;&gt;Node6 -->
<g id="edge6_Node000006_Node000007" class="edge">
<title>Node7&#45;&gt;Node6</title>
<g id="a_edge6_Node000006_Node000007"><a xlink:title=" ">
<path fill="none" stroke="#9a32cd" stroke-dasharray="5,2" d="M354.31,-5.05C385.16,-4.09 422.75,-4.74 456,-10.5 479.9,-14.64 505.96,-24.46 523.57,-31.95"/>
<polygon fill="#9a32cd" stroke="#9a32cd" points="353.98,-1.56 344.12,-5.43 354.25,-8.55 353.98,-1.56"/>
</a>
</g>
<text text-anchor="start" x="410" y="-16" font-family="Helvetica,sans-Serif" font-size="10.00" fill="grey">device</text>
</g>
<!-- Node8 -->
<g id="Node000008" class="node">
<title>Node8</title>
<g id="a_Node000008"><a xlink:title=" ">
<polygon fill="white" stroke="#666666" points="142,-19 0,-19 0,0 142,0 142,-19"/>
<text text-anchor="middle" x="71" y="-7" font-family="Helvetica,sans-Serif" font-size="10.00">_MateMixerDevicePrivate</text>
</a>
</g>
</g>
<!-- Node8&#45;&gt;Node7 -->
<g id="edge7_Node000007_Node000008" class="edge">
<title>Node8&#45;&gt;Node7</title>
<g id="a_edge7_Node000007_Node000008"><a xlink:title=" ">
<path fill="none" stroke="#9a32cd" stroke-dasharray="5,2" d="M152.28,-9.5C180.51,-9.5 211.49,-9.5 236.87,-9.5"/>
<polygon fill="#9a32cd" stroke="#9a32cd" points="152.02,-6 142.02,-9.5 152.02,-13 152.02,-6"/>
</a>
</g>
<text text-anchor="start" x="163.5" y="-15" font-family="Helvetica,sans-Serif" font-size="10.00" fill="grey">priv</text>
</g>
<!-- Node9 -->
<g id="Node000009" class="node">
<title>Node9</title>
<g id="a_Node000009"><a xlink:title=" ">
<polygon fill="white" stroke="#666666" points="378,-164 203,-164 203,-145 378,-145 378,-164"/>
<text text-anchor="middle" x="290.5" y="-152" font-family="Helvetica,sans-Serif" font-size="10.00">_MateMixerStoredControlPrivate</text>
</a>
</g>
</g>
<!-- Node9&#45;&gt;Node2 -->
<g id="edge9_Node000002_Node000009" class="edge">
<title>Node9&#45;&gt;Node2</title>
<g id="a_edge9_Node000002_Node000009"><a xlink:title=" ">
<path fill="none" stroke="#9a32cd" stroke-dasharray="5,2" d="M388.38,-154.5C417.39,-154.5 448.61,-154.5 475.45,-154.5"/>
<polygon fill="#9a32cd" stroke="#9a32cd" points="388.21,-151 378.21,-154.5 388.21,-158 388.21,-151"/>
</a>
</g>
<text text-anchor="start" x="417" y="-160" font-family="Helvetica,sans-Serif" font-size="10.00" fill="grey">priv</text>
</g>
<!-- Node10 -->
<g id="Node000010" class="node">
<title>Node10</title>
<g id="a_Node000010"><a xlink:title=" ">
<polygon fill="white" stroke="#666666" points="612.5,-204 478.5,-204 478.5,-185 612.5,-185 612.5,-204"/>
<text text-anchor="middle" x="545.5" y="-192" font-family="Helvetica,sans-Serif" font-size="10.00">_PulseExtStreamPrivate</text>
</a>
</g>
</g>
<!-- Node10&#45;&gt;Node1 -->
<g id="edge10_Node000001_Node000010" class="edge">
<title>Node10&#45;&gt;Node1</title>
<g id="a_edge10_Node000001_Node000010"><a xlink:title=" ">
<path fill="none" stroke="#9a32cd" stroke-dasharray="5,2" d="M622.74,-186.8C647.32,-184.32 673.88,-181.63 695.9,-179.41"/>
<polygon fill="#9a32cd" stroke="#9a32cd" points="622.3,-183.33 612.71,-187.81 623.01,-190.29 622.3,-183.33"/>
</a>
</g>
<text text-anchor="start" x="645" y="-191" font-family="Helvetica,sans-Serif" font-size="10.00" fill="grey">priv</text>
</g>
<!-- Node11 -->
<g id="Node000011" class="node">
<title>Node11</title>
<g id="a_Node000011"><a xlink:href="struct__MateMixerAppInfo.html" target="_top" xlink:title=" ">
<polygon fill="white" stroke="#666666" points="346,-204 235,-204 235,-185 346,-185 346,-204"/>
<text text-anchor="middle" x="290.5" y="-192" font-family="Helvetica,sans-Serif" font-size="10.00">_MateMixerAppInfo</text>
</a>
</g>
</g>
<!-- Node11&#45;&gt;Node10 -->
<g id="edge11_Node000010_Node000011" class="edge">
<title>Node11&#45;&gt;Node10</title>
<g id="a_edge11_Node000010_Node000011"><a xlink:title=" ">
<path fill="none" stroke="#9a32cd" stroke-dasharray="5,2" d="M356.37,-194.5C393.78,-194.5 440.7,-194.5 478.33,-194.5"/>
<polygon fill="#9a32cd" stroke="#9a32cd" points="356.09,-191 346.09,-194.5 356.09,-198 356.09,-191"/>
</a>
</g>
<text text-anchor="start" x="405" y="-200" font-family="Helvetica,sans-Serif" font-size="10.00" fill="grey">app_info</text>
</g>
<!-- Node12 -->
<g id="Node000012" class="node">
<title>Node12</title>
<g id="a_Node000012"><a xlink:href="struct__PulseConnection.html" target="_top" xlink:title=" ">
<polygon fill="white" stroke="#666666" points="342,-244 239,-244 239,-225 342,-225 342,-244"/>
<text text-anchor="middle" x="290.5" y="-232" font-family="Helvetica,sans-Serif" font-size="10.00">_PulseConnection</text>
</a>
</g>
</g>
<!-- Node12&#45;&gt;Node10 -->
<g id="edge12_Node000010_Node000012" class="edge">
<title>Node12&#45;&gt;Node10</title>
<g id="a_edge12_Node000010_Node000012"><a xlink:title=" ">
<path fill="none" stroke="#9a32cd" stroke-dasharray="5,2" d="M352.28,-227.37C383.38,-223.47 421.79,-218.26 456,-212.5 470.53,-210.05 486.33,-206.98 500.49,-204.06"/>
<polygon fill="#9a32cd" stroke="#9a32cd" points="351.52,-223.94 342.03,-228.64 352.38,-230.88 351.52,-223.94"/>
</a>
</g>
<text text-anchor="start" x="399" y="-227" font-family="Helvetica,sans-Serif" font-size="10.00" fill="grey">connection</text>
</g>
<!-- Node13 -->
<g id="Node000013" class="node">
<title>Node13</title>
<g id="a_Node000013"><a xlink:title=" ">
<polygon fill="white" stroke="#666666" points="139.5,-244 2.5,-244 2.5,-225 139.5,-225 139.5,-244"/>
<text text-anchor="middle" x="71" y="-232" font-family="Helvetica,sans-Serif" font-size="10.00">_PulseConnectionPrivate</text>
</a>
</g>
</g>
<!-- Node13&#45;&gt;Node12 -->
<g id="edge13_Node000012_Node000013" class="edge">
<title>Node13&#45;&gt;Node12</title>
<g id="a_edge13_Node000012_Node000013"><a xlink:title=" ">
<path fill="none" stroke="#9a32cd" stroke-dasharray="5,2" d="M149.94,-234.5C179.52,-234.5 212.43,-234.5 238.85,-234.5"/>
<polygon fill="#9a32cd" stroke="#9a32cd" points="149.63,-231 139.63,-234.5 149.63,-238 149.63,-231"/>
</a>
</g>
<text text-anchor="start" x="163.5" y="-240" font-family="Helvetica,sans-Serif" font-size="10.00" fill="grey">priv</text>
</g>
</g>
</svg>
