<?xml version="1.0" encoding="UTF-8" standalone="no"?>
<!DOCTYPE svg PUBLIC "-//W3C//DTD SVG 1.1//EN"
 "http://www.w3.org/Graphics/SVG/1.1/DTD/svg11.dtd">
<!-- Generated by graphviz version 2.43.0 (0)
 -->
<!-- Title: _AlsaDeviceClass Pages: 1 -->
<!--zoomable 459 -->

<svg id="main" version="1.1" xmlns="http://www.w3.org/2000/svg" xmlns:xlink="http://www.w3.org/1999/xlink" xml:space="preserve" onload="init(evt)">

<style type="text/css"><![CDATA[
.node, .edge {opacity: 0.7;}
.node.selected, .edge.selected {opacity: 1;}
.edge:hover path { stroke: red; }
.edge:hover polygon { stroke: red; fill: red; }
]]></style>

<defs>
  <circle id="rim" cx="0" cy="0" r="7"/>
  <circle id="rim2" cx="0" cy="0" r="3.5"/>
  <g id="zoomPlus">
    <use xlink:href="#rim" fill="#404040"><set attributeName="fill" to="#808080" begin="zoomplus.mouseover" end="zoomplus.mouseout"/></use>
    <path d="M-4,0h8M0,-4v8" fill="none" stroke="white" stroke-width="1.5" pointer-events="none"/>
  </g>
  <g id="zoomMin">
    <use xlink:href="#rim" fill="#404040"><set attributeName="fill" to="#808080" begin="zoomminus.mouseover" end="zoomminus.mouseout"/></use>
    <path d="M-4,0h8" fill="none" stroke="white" stroke-width="1.5" pointer-events="none"/>
  </g>
  <g id="arrowUp" transform="translate(30 24)">
    <use xlink:href="#rim"/>
    <path pointer-events="none" fill="none" stroke="white" stroke-width="1.5" d="M0,-3.0v7 M-2.5,-0.5L0,-3.0L2.5,-0.5"/>
  </g>
  <g id="arrowRight" transform="rotate(90) translate(36 -43)">
    <use xlink:href="#rim"/>
    <path pointer-events="none" fill="none" stroke="white" stroke-width="1.5" d="M0,-3.0v7 M-2.5,-0.5L0,-3.0L2.5,-0.5"/>
  </g>
  <g id="arrowDown" transform="rotate(180) translate(-30 -48)">
    <use xlink:href="#rim"/>
    <path pointer-events="none" fill="none" stroke="white" stroke-width="1.5" d="M0,-3.0v7 M-2.5,-0.5L0,-3.0L2.5,-0.5"/>
  </g>
  <g id="arrowLeft" transform="rotate(270) translate(-36 17)">
    <use xlink:href="#rim"/>
    <path pointer-events="none" fill="none" stroke="white" stroke-width="1.5" d="M0,-3.0v7 M-2.5,-0.5L0,-3.0L2.5,-0.5"/>
  </g>
  <g id="resetDef">
    <use xlink:href="#rim2" fill="#404040"><set attributeName="fill" to="#808080" begin="reset.mouseover" end="reset.mouseout"/></use>
  </g>
</defs>
<script type="application/ecmascript">
var viewWidth = 667;
var viewHeight = 459;
var sectionId = 'dynsection-0';
</script>
<script type="application/ecmascript" xlink:href="svg.min.js"/>
<svg id="graph" class="graph">
<g id="viewport">
<title>_AlsaDeviceClass</title>
<!-- Node1 -->
<g id="Node000001" class="node">
<title>Node1</title>
<g id="a_Node000001"><a xlink:title=" ">
<polygon fill="#999999" stroke="#666666" points="472,-19 369,-19 369,0 472,0 472,-19"/>
<text text-anchor="middle" x="420.5" y="-7" font-family="Helvetica,sans-Serif" font-size="10.00">_AlsaDeviceClass</text>
</a>
</g>
</g>
<!-- Node2 -->
<g id="Node000002" class="node">
<title>Node2</title>
<g id="a_Node000002"><a xlink:href="struct__MateMixerDeviceClass.html" target="_top" xlink:title=" ">
<polygon fill="white" stroke="#666666" points="487.5,-91 353.5,-91 353.5,-72 487.5,-72 487.5,-91"/>
<text text-anchor="middle" x="420.5" y="-79" font-family="Helvetica,sans-Serif" font-size="10.00">_MateMixerDeviceClass</text>
</a>
</g>
</g>
<!-- Node2&#45;&gt;Node1 -->
<g id="edge1_Node000001_Node000002" class="edge">
<title>Node2&#45;&gt;Node1</title>
<g id="a_edge1_Node000001_Node000002"><a xlink:title=" ">
<path fill="none" stroke="#9a32cd" stroke-dasharray="5,2" d="M420.5,-61.58C420.5,-47.76 420.5,-29.68 420.5,-19.15"/>
<polygon fill="#9a32cd" stroke="#9a32cd" points="417,-61.92 420.5,-71.92 424,-61.92 417,-61.92"/>
</a>
</g>
<text text-anchor="start" x="423.5" y="-42.5" font-family="Helvetica,sans-Serif" font-size="10.00" fill="grey">parent_class</text>
</g>
<!-- Node3 -->
<g id="Node000003" class="node">
<title>Node3</title>
<g id="a_Node000003"><a xlink:href="struct__MateMixerStream.html" target="_top" xlink:title=" ">
<polygon fill="white" stroke="#666666" points="533,-451 424,-451 424,-432 533,-432 533,-451"/>
<text text-anchor="middle" x="478.5" y="-439" font-family="Helvetica,sans-Serif" font-size="10.00">_MateMixerStream</text>
</a>
</g>
</g>
<!-- Node3&#45;&gt;Node2 -->
<g id="edge2_Node000002_Node000003" class="edge">
<title>Node3&#45;&gt;Node2</title>
<g id="a_edge2_Node000002_Node000003"><a xlink:title=" ">
<path fill="none" stroke="#9a32cd" stroke-dasharray="5,2" d="M535.54,-429.01C565.68,-419.26 596.5,-401.67 596.5,-370.5 596.5,-370.5 596.5,-370.5 596.5,-152.5 596.5,-103.67 537.28,-87.93 487.54,-83.33"/>
<polygon fill="#9a32cd" stroke="#9a32cd" points="534.4,-425.7 525.82,-431.91 536.4,-432.41 534.4,-425.7"/>
</a>
</g>
<text text-anchor="start" x="599.5" y="-258.5" font-family="Helvetica,sans-Serif" font-size="10.00" fill="grey">get_stream</text>
</g>
<!-- Node8 -->
<g id="Node000008" class="node">
<title>Node8</title>
<g id="a_Node000008"><a xlink:title=" ">
<polygon fill="white" stroke="#666666" points="568,-379 389,-379 389,-360 568,-360 568,-379"/>
<text text-anchor="middle" x="478.5" y="-367" font-family="Helvetica,sans-Serif" font-size="10.00">_MateMixerStreamControlPrivate</text>
</a>
</g>
</g>
<!-- Node3&#45;&gt;Node8 -->
<g id="edge8_Node000008_Node000003" class="edge">
<title>Node3&#45;&gt;Node8</title>
<g id="a_edge8_Node000008_Node000003"><a xlink:title=" ">
<path fill="none" stroke="#9a32cd" stroke-dasharray="5,2" d="M478.5,-421.58C478.5,-407.76 478.5,-389.68 478.5,-379.15"/>
<polygon fill="#9a32cd" stroke="#9a32cd" points="475,-421.92 478.5,-431.92 482,-421.92 475,-421.92"/>
</a>
</g>
<text text-anchor="start" x="482" y="-402.5" font-family="Helvetica,sans-Serif" font-size="10.00" fill="grey">stream</text>
</g>
<!-- Node4 -->
<g id="Node000004" class="node">
<title>Node4</title>
<g id="a_Node000004"><a xlink:title=" ">
<polygon fill="white" stroke="#666666" points="493,-235 350,-235 350,-216 493,-216 493,-235"/>
<text text-anchor="middle" x="421.5" y="-223" font-family="Helvetica,sans-Serif" font-size="10.00">_MateMixerStreamPrivate</text>
</a>
</g>
</g>
<!-- Node4&#45;&gt;Node3 -->
<g id="edge3_Node000003_Node000004" class="edge">
<title>Node4&#45;&gt;Node3</title>
<g id="a_edge3_Node000003_Node000004"><a xlink:title=" ">
<path fill="none" stroke="#9a32cd" stroke-dasharray="5,2" d="M408.26,-243.36C399.81,-255.15 389.53,-271.65 384.5,-288 364.16,-354.09 373.61,-366.55 380.5,-379 395.47,-406.07 427.89,-422.83 451.35,-431.88"/>
<polygon fill="#9a32cd" stroke="#9a32cd" points="411.32,-245.11 414.51,-235.01 405.71,-240.92 411.32,-245.11"/>
</a>
</g>
<text text-anchor="start" x="378" y="-330.5" font-family="Helvetica,sans-Serif" font-size="10.00" fill="grey">priv</text>
</g>
<!-- Node5 -->
<g id="Node000005" class="node">
<title>Node5</title>
<g id="a_Node000005"><a xlink:href="struct__MateMixerDevice.html" target="_top" xlink:title=" ">
<polygon fill="white" stroke="#666666" points="307,-307 200,-307 200,-288 307,-288 307,-307"/>
<text text-anchor="middle" x="253.5" y="-295" font-family="Helvetica,sans-Serif" font-size="10.00">_MateMixerDevice</text>
</a>
</g>
</g>
<!-- Node5&#45;&gt;Node4 -->
<g id="edge4_Node000004_Node000005" class="edge">
<title>Node5&#45;&gt;Node4</title>
<g id="a_edge4_Node000004_Node000005"><a xlink:title=" ">
<path fill="none" stroke="#9a32cd" stroke-dasharray="5,2" d="M271.39,-281.43C285.49,-269.66 303.43,-254.98 307.5,-253 324.4,-244.77 343.97,-239.03 362.07,-235.05"/>
<polygon fill="#9a32cd" stroke="#9a32cd" points="269.08,-278.8 263.66,-287.9 273.58,-284.16 269.08,-278.8"/>
</a>
</g>
<text text-anchor="start" x="311" y="-258.5" font-family="Helvetica,sans-Serif" font-size="10.00" fill="grey">device</text>
</g>
<!-- Node14 -->
<g id="Node000014" class="node">
<title>Node14</title>
<g id="a_Node000014"><a xlink:title=" ">
<polygon fill="white" stroke="#666666" points="331.5,-235 157.5,-235 157.5,-216 331.5,-216 331.5,-235"/>
<text text-anchor="middle" x="244.5" y="-223" font-family="Helvetica,sans-Serif" font-size="10.00">_MateMixerDeviceSwitchPrivate</text>
</a>
</g>
</g>
<!-- Node5&#45;&gt;Node14 -->
<g id="edge15_Node000014_Node000005" class="edge">
<title>Node5&#45;&gt;Node14</title>
<g id="a_edge15_Node000014_Node000005"><a xlink:title=" ">
<path fill="none" stroke="#9a32cd" stroke-dasharray="5,2" d="M247.26,-278.12C246.54,-275.42 245.92,-272.66 245.5,-270 243.6,-258.06 243.68,-244.06 244.01,-235.23"/>
<polygon fill="#9a32cd" stroke="#9a32cd" points="243.95,-279.27 250.23,-287.81 250.64,-277.22 243.95,-279.27"/>
</a>
</g>
<text text-anchor="start" x="249" y="-258.5" font-family="Helvetica,sans-Serif" font-size="10.00" fill="grey">device</text>
</g>
<!-- Node6 -->
<g id="Node000006" class="node">
<title>Node6</title>
<g id="a_Node000006"><a xlink:title=" ">
<polygon fill="white" stroke="#666666" points="324.5,-379 182.5,-379 182.5,-360 324.5,-360 324.5,-379"/>
<text text-anchor="middle" x="253.5" y="-367" font-family="Helvetica,sans-Serif" font-size="10.00">_MateMixerDevicePrivate</text>
</a>
</g>
</g>
<!-- Node6&#45;&gt;Node5 -->
<g id="edge5_Node000005_Node000006" class="edge">
<title>Node6&#45;&gt;Node5</title>
<g id="a_edge5_Node000005_Node000006"><a xlink:title=" ">
<path fill="none" stroke="#9a32cd" stroke-dasharray="5,2" d="M253.5,-349.58C253.5,-335.76 253.5,-317.68 253.5,-307.15"/>
<polygon fill="#9a32cd" stroke="#9a32cd" points="250,-349.92 253.5,-359.92 257,-349.92 250,-349.92"/>
</a>
</g>
<text text-anchor="start" x="257" y="-330.5" font-family="Helvetica,sans-Serif" font-size="10.00" fill="grey">priv</text>
</g>
<!-- Node7 -->
<g id="Node000007" class="node">
<title>Node7</title>
<g id="a_Node000007"><a xlink:href="struct__MateMixerStreamControl.html" target="_top" xlink:title=" ">
<polygon fill="white" stroke="#666666" points="537.5,-307 393.5,-307 393.5,-288 537.5,-288 537.5,-307"/>
<text text-anchor="middle" x="465.5" y="-295" font-family="Helvetica,sans-Serif" font-size="10.00">_MateMixerStreamControl</text>
</a>
</g>
</g>
<!-- Node7&#45;&gt;Node4 -->
<g id="edge6_Node000004_Node000007" class="edge">
<title>Node7&#45;&gt;Node4</title>
<g id="a_edge6_Node000004_Node000007"><a xlink:title=" ">
<path fill="none" stroke="#9a32cd" stroke-dasharray="5,2" d="M454.63,-279.21C445.84,-265.22 433.82,-246.1 426.94,-235.15"/>
<polygon fill="#9a32cd" stroke="#9a32cd" points="451.82,-281.31 460.1,-287.92 457.75,-277.59 451.82,-281.31"/>
</a>
</g>
<text text-anchor="start" x="451.5" y="-258.5" font-family="Helvetica,sans-Serif" font-size="10.00" fill="grey">control</text>
</g>
<!-- Node8&#45;&gt;Node7 -->
<g id="edge7_Node000007_Node000008" class="edge">
<title>Node8&#45;&gt;Node7</title>
<g id="a_edge7_Node000007_Node000008"><a xlink:title=" ">
<path fill="none" stroke="#9a32cd" stroke-dasharray="5,2" d="M475.06,-349.99C472.49,-336.13 469.08,-317.79 467.11,-307.15"/>
<polygon fill="#9a32cd" stroke="#9a32cd" points="471.64,-350.72 476.91,-359.92 478.52,-349.45 471.64,-350.72"/>
</a>
</g>
<text text-anchor="start" x="477" y="-330.5" font-family="Helvetica,sans-Serif" font-size="10.00" fill="grey">priv</text>
</g>
<!-- Node9 -->
<g id="Node000009" class="node">
<title>Node9</title>
<g id="a_Node000009"><a xlink:href="struct__MateMixerDeviceSwitch.html" target="_top" xlink:title=" ">
<polygon fill="white" stroke="#666666" points="314.5,-163 174.5,-163 174.5,-144 314.5,-144 314.5,-163"/>
<text text-anchor="middle" x="244.5" y="-151" font-family="Helvetica,sans-Serif" font-size="10.00">_MateMixerDeviceSwitch</text>
</a>
</g>
</g>
<!-- Node9&#45;&gt;Node2 -->
<g id="edge9_Node000002_Node000009" class="edge">
<title>Node9&#45;&gt;Node2</title>
<g id="a_edge9_Node000002_Node000009"><a xlink:title=" ">
<path fill="none" stroke="#9a32cd" stroke-dasharray="5,2" d="M275.47,-140.18C310.94,-126.08 368.11,-103.34 399.02,-91.04"/>
<polygon fill="#9a32cd" stroke="#9a32cd" points="274.08,-136.97 266.08,-143.92 276.67,-143.47 274.08,-136.97"/>
</a>
</g>
<text text-anchor="start" x="356" y="-114.5" font-family="Helvetica,sans-Serif" font-size="10.00" fill="grey">get_switch</text>
</g>
<!-- Node10 -->
<g id="Node000010" class="node">
<title>Node10</title>
<g id="a_Node000010"><a xlink:href="struct__MateMixerSwitch.html" target="_top" xlink:title=" ">
<polygon fill="white" stroke="#666666" points="139.5,-235 33.5,-235 33.5,-216 139.5,-216 139.5,-235"/>
<text text-anchor="middle" x="86.5" y="-223" font-family="Helvetica,sans-Serif" font-size="10.00">_MateMixerSwitch</text>
</a>
</g>
</g>
<!-- Node10&#45;&gt;Node9 -->
<g id="edge10_Node000009_Node000010" class="edge">
<title>Node10&#45;&gt;Node9</title>
<g id="a_edge10_Node000009_Node000010"><a xlink:title=" ">
<path fill="none" stroke="#9a32cd" stroke-dasharray="5,2" d="M115.1,-211.83C146.89,-197.74 197.4,-175.37 224.97,-163.15"/>
<polygon fill="#9a32cd" stroke="#9a32cd" points="113.6,-208.67 105.87,-215.92 116.43,-215.07 113.6,-208.67"/>
</a>
</g>
<text text-anchor="start" x="188" y="-186.5" font-family="Helvetica,sans-Serif" font-size="10.00" fill="grey">object</text>
</g>
<!-- Node11 -->
<g id="Node000011" class="node">
<title>Node11</title>
<g id="a_Node000011"><a xlink:title=" ">
<polygon fill="white" stroke="#666666" points="156.5,-307 16.5,-307 16.5,-288 156.5,-288 156.5,-307"/>
<text text-anchor="middle" x="86.5" y="-295" font-family="Helvetica,sans-Serif" font-size="10.00">_MateMixerSwitchPrivate</text>
</a>
</g>
</g>
<!-- Node11&#45;&gt;Node10 -->
<g id="edge11_Node000010_Node000011" class="edge">
<title>Node11&#45;&gt;Node10</title>
<g id="a_edge11_Node000010_Node000011"><a xlink:title=" ">
<path fill="none" stroke="#9a32cd" stroke-dasharray="5,2" d="M86.5,-277.58C86.5,-263.76 86.5,-245.68 86.5,-235.15"/>
<polygon fill="#9a32cd" stroke="#9a32cd" points="83,-277.92 86.5,-287.92 90,-277.92 83,-277.92"/>
</a>
</g>
<text text-anchor="start" x="90" y="-258.5" font-family="Helvetica,sans-Serif" font-size="10.00" fill="grey">priv</text>
</g>
<!-- Node12 -->
<g id="Node000012" class="node">
<title>Node12</title>
<g id="a_Node000012"><a xlink:href="struct__MateMixerSwitchOption.html" target="_top" xlink:title=" ">
<polygon fill="white" stroke="#666666" points="155.5,-379 17.5,-379 17.5,-360 155.5,-360 155.5,-379"/>
<text text-anchor="middle" x="86.5" y="-367" font-family="Helvetica,sans-Serif" font-size="10.00">_MateMixerSwitchOption</text>
</a>
</g>
</g>
<!-- Node12&#45;&gt;Node11 -->
<g id="edge12_Node000011_Node000012" class="edge">
<title>Node12&#45;&gt;Node11</title>
<g id="a_edge12_Node000011_Node000012"><a xlink:title=" ">
<path fill="none" stroke="#9a32cd" stroke-dasharray="5,2" d="M86.5,-349.58C86.5,-335.76 86.5,-317.68 86.5,-307.15"/>
<polygon fill="#9a32cd" stroke="#9a32cd" points="83,-349.92 86.5,-359.92 90,-349.92 83,-349.92"/>
</a>
</g>
<text text-anchor="start" x="90" y="-330.5" font-family="Helvetica,sans-Serif" font-size="10.00" fill="grey">active</text>
</g>
<!-- Node13 -->
<g id="Node000013" class="node">
<title>Node13</title>
<g id="a_Node000013"><a xlink:title=" ">
<polygon fill="white" stroke="#666666" points="173,-451 0,-451 0,-432 173,-432 173,-451"/>
<text text-anchor="middle" x="86.5" y="-439" font-family="Helvetica,sans-Serif" font-size="10.00">_MateMixerSwitchOptionPrivate</text>
</a>
</g>
</g>
<!-- Node13&#45;&gt;Node12 -->
<g id="edge13_Node000012_Node000013" class="edge">
<title>Node13&#45;&gt;Node12</title>
<g id="a_edge13_Node000012_Node000013"><a xlink:title=" ">
<path fill="none" stroke="#9a32cd" stroke-dasharray="5,2" d="M86.5,-421.58C86.5,-407.76 86.5,-389.68 86.5,-379.15"/>
<polygon fill="#9a32cd" stroke="#9a32cd" points="83,-421.92 86.5,-431.92 90,-421.92 83,-421.92"/>
</a>
</g>
<text text-anchor="start" x="90" y="-402.5" font-family="Helvetica,sans-Serif" font-size="10.00" fill="grey">priv</text>
</g>
<!-- Node14&#45;&gt;Node9 -->
<g id="edge14_Node000009_Node000014" class="edge">
<title>Node14&#45;&gt;Node9</title>
<g id="a_edge14_Node000009_Node000014"><a xlink:title=" ">
<path fill="none" stroke="#9a32cd" stroke-dasharray="5,2" d="M244.5,-205.58C244.5,-191.76 244.5,-173.68 244.5,-163.15"/>
<polygon fill="#9a32cd" stroke="#9a32cd" points="241,-205.92 244.5,-215.92 248,-205.92 241,-205.92"/>
</a>
</g>
<text text-anchor="start" x="248" y="-186.5" font-family="Helvetica,sans-Serif" font-size="10.00" fill="grey">priv</text>
</g>
</g>
</svg>

<g id="navigator" transform="translate(0 0)" fill="#404254">
  <rect fill="#f2f5e9" fill-opacity="0.5" stroke="#606060" stroke-width=".5" x="0" y="0" width="60" height="60"/>
  <use id="zoomplus" xlink:href="#zoomPlus" x="17" y="9" onmousedown="handleZoom(evt,'in')"/>
  <use id="zoomminus" xlink:href="#zoomMin" x="42" y="9" onmousedown="handleZoom(evt,'out')"/>
  <use id="reset" xlink:href="#resetDef" x="30" y="36" onmousedown="handleReset()"/>
   <use id="arrowup" xlink:href="#arrowUp" x="0" y="0" onmousedown="handlePan(0,-1)"/>
  <use id="arrowright" xlink:href="#arrowRight" x="0" y="0" onmousedown="handlePan(1,0)"/>
  <use id="arrowdown" xlink:href="#arrowDown" x="0" y="0" onmousedown="handlePan(0,1)"/>
  <use id="arrowleft" xlink:href="#arrowLeft" x="0" y="0" onmousedown="handlePan(-1,0)"/>
</g>
<svg viewBox="0 0 15 15" width="100%" height="30px" preserveAspectRatio="xMaxYMin meet">
 <g id="arrow_out" transform="scale(0.3 0.3)">
  <a xlink:href="struct__AlsaDeviceClass__coll__graph_org.svg" target="_base">
   <rect id="button" ry="5" rx="5" y="6" x="6" height="38" width="38"
        fill="#f2f5e9" fill-opacity="0.5" stroke="#606060" stroke-width="1.0"/>
   <path id="arrow"
     d="M 11.500037,31.436501 C 11.940474,20.09759 22.043105,11.32322 32.158766,21.979434 L 37.068811,17.246167 C 37.068811,17.246167 37.088388,32 37.088388,32 L 22.160133,31.978069 C 22.160133,31.978069 26.997745,27.140456 26.997745,27.140456 C 18.528582,18.264221 13.291696,25.230495 11.500037,31.436501 z"
     style="fill:#404040;"/>
  </a>
 </g>
</svg>

<style type='text/css'>
<![CDATA[
[data-mouse-over-selected='false'] { opacity: 0.7; }
[data-mouse-over-selected='true']  { opacity: 1.0; }
]]>
</style>
<script type="application/ecmascript"><![CDATA[
document.addEventListener('DOMContentLoaded', (event) => {
  highlightEdges();
  highlightAdjacentNodes();
});
]]></script>
</svg>
