<?xml version="1.0" encoding="UTF-8" standalone="no"?>
<!DOCTYPE svg PUBLIC "-//W3C//DTD SVG 1.1//EN"
 "http://www.w3.org/Graphics/SVG/1.1/DTD/svg11.dtd">
<!-- Generated by graphviz version 2.43.0 (0)
 -->
<!-- Title: _PulseStreamControlClass Pages: 1 -->
<svg width="300pt" height="171pt"
 viewBox="0.00 0.00 300.00 171.00" xmlns="http://www.w3.org/2000/svg" xmlns:xlink="http://www.w3.org/1999/xlink">
<g id="graph0" class="graph" transform="scale(1 1) rotate(0) translate(4 167)">
<title>_PulseStreamControlClass</title>
<!-- Node1 -->
<g id="Node000001" class="node">
<title>Node1</title>
<g id="a_Node000001"><a xlink:title=" ">
<polygon fill="#999999" stroke="#666666" points="229.5,-19 84.5,-19 84.5,0 229.5,0 229.5,-19"/>
<text text-anchor="middle" x="157" y="-7" font-family="Helvetica,sans-Serif" font-size="10.00">_PulseStreamControlClass</text>
</a>
</g>
</g>
<!-- Node2 -->
<g id="Node000002" class="node">
<title>Node2</title>
<g id="a_Node000002"><a xlink:href="struct__MateMixerStreamControlClass.html" target="_top" xlink:title=" ">
<polygon fill="white" stroke="#666666" points="170,-91 0,-91 0,-72 170,-72 170,-91"/>
<text text-anchor="middle" x="85" y="-79" font-family="Helvetica,sans-Serif" font-size="10.00">_MateMixerStreamControlClass</text>
</a>
</g>
</g>
<!-- Node2&#45;&gt;Node1 -->
<g id="edge1_Node000001_Node000002" class="edge">
<title>Node2&#45;&gt;Node1</title>
<g id="a_edge1_Node000001_Node000002"><a xlink:title=" ">
<path fill="none" stroke="#9a32cd" stroke-dasharray="5,2" d="M99.72,-64.66C107.65,-56.28 117.69,-45.91 127,-37 133.43,-30.85 140.93,-24.23 146.82,-19.14"/>
<polygon fill="#9a32cd" stroke="#9a32cd" points="97.15,-62.28 92.86,-71.97 102.25,-67.07 97.15,-62.28"/>
</a>
</g>
<text text-anchor="start" x="130" y="-42.5" font-family="Helvetica,sans-Serif" font-size="10.00" fill="grey">parent_class</text>
</g>
<!-- Node3 -->
<g id="Node000003" class="node">
<title>Node3</title>
<g id="a_Node000003"><a xlink:href="struct__MateMixerAppInfo.html" target="_top" xlink:title=" ">
<polygon fill="white" stroke="#666666" points="140.5,-163 29.5,-163 29.5,-144 140.5,-144 140.5,-163"/>
<text text-anchor="middle" x="85" y="-151" font-family="Helvetica,sans-Serif" font-size="10.00">_MateMixerAppInfo</text>
</a>
</g>
</g>
<!-- Node3&#45;&gt;Node2 -->
<g id="edge2_Node000002_Node000003" class="edge">
<title>Node3&#45;&gt;Node2</title>
<g id="a_edge2_Node000002_Node000003"><a xlink:title=" ">
<path fill="none" stroke="#9a32cd" stroke-dasharray="5,2" d="M85,-133.58C85,-119.76 85,-101.68 85,-91.15"/>
<polygon fill="#9a32cd" stroke="#9a32cd" points="81.5,-133.92 85,-143.92 88.5,-133.92 81.5,-133.92"/>
</a>
</g>
<text text-anchor="start" x="88" y="-114.5" font-family="Helvetica,sans-Serif" font-size="10.00" fill="grey">get_app_info</text>
</g>
<!-- Node4 -->
<g id="Node000004" class="node">
<title>Node4</title>
<g id="a_Node000004"><a xlink:href="struct__PulseMonitor.html" target="_top" xlink:title=" ">
<polygon fill="white" stroke="#666666" points="274,-91 188,-91 188,-72 274,-72 274,-91"/>
<text text-anchor="middle" x="231" y="-79" font-family="Helvetica,sans-Serif" font-size="10.00">_PulseMonitor</text>
</a>
</g>
</g>
<!-- Node4&#45;&gt;Node1 -->
<g id="edge3_Node000001_Node000004" class="edge">
<title>Node4&#45;&gt;Node1</title>
<g id="a_edge3_Node000001_Node000004"><a xlink:title=" ">
<path fill="none" stroke="#9a32cd" stroke-dasharray="5,2" d="M218.92,-63.82C212.35,-55.31 203.78,-45.08 195,-37 187.78,-30.35 178.81,-24.02 171.4,-19.22"/>
<polygon fill="#9a32cd" stroke="#9a32cd" points="216.18,-66 224.98,-71.9 221.78,-61.8 216.18,-66"/>
</a>
</g>
<text text-anchor="start" x="214.5" y="-42.5" font-family="Helvetica,sans-Serif" font-size="10.00" fill="grey">create_monitor</text>
</g>
<!-- Node5 -->
<g id="Node000005" class="node">
<title>Node5</title>
<g id="a_Node000005"><a xlink:title=" ">
<polygon fill="white" stroke="#666666" points="291,-163 171,-163 171,-144 291,-144 291,-163"/>
<text text-anchor="middle" x="231" y="-151" font-family="Helvetica,sans-Serif" font-size="10.00">_PulseMonitorPrivate</text>
</a>
</g>
</g>
<!-- Node5&#45;&gt;Node4 -->
<g id="edge4_Node000004_Node000005" class="edge">
<title>Node5&#45;&gt;Node4</title>
<g id="a_edge4_Node000004_Node000005"><a xlink:title=" ">
<path fill="none" stroke="#9a32cd" stroke-dasharray="5,2" d="M231,-133.58C231,-119.76 231,-101.68 231,-91.15"/>
<polygon fill="#9a32cd" stroke="#9a32cd" points="227.5,-133.92 231,-143.92 234.5,-133.92 227.5,-133.92"/>
</a>
</g>
<text text-anchor="start" x="234.5" y="-114.5" font-family="Helvetica,sans-Serif" font-size="10.00" fill="grey">priv</text>
</g>
</g>
</svg>
