<?xml version="1.0" encoding="UTF-8" standalone="no"?>
<!DOCTYPE svg PUBLIC "-//W3C//DTD SVG 1.1//EN"
 "http://www.w3.org/Graphics/SVG/1.1/DTD/svg11.dtd">
<!-- Generated by graphviz version 2.43.0 (0)
 -->
<!-- Title: CajaIconContainerClass Pages: 1 -->
<svg width="244pt" height="99pt"
 viewBox="0.00 0.00 243.50 99.00" xmlns="http://www.w3.org/2000/svg" xmlns:xlink="http://www.w3.org/1999/xlink">

<svg id="main" version="1.1" xmlns="http://www.w3.org/2000/svg" xmlns:xlink="http://www.w3.org/1999/xlink" xml:space="preserve">

<style type="text/css"><![CDATA[
.node, .edge {opacity: 0.7;}
.node.selected, .edge.selected {opacity: 1;}
.edge:hover path { stroke: red; }
.edge:hover polygon { stroke: red; fill: red; }
]]></style>
<script type="application/ecmascript" xlink:href="svg.min.js"/>
<svg id="graph" class="graph">
<g id="graph0" class="graph" transform="scale(1 1) rotate(0) translate(4 95)">
<title>CajaIconContainerClass</title>
<!-- Node1 -->
<g id="Node000001" class="node">
<title>Node1</title>
<g id="a_Node000001"><a xlink:title=" ">
<polygon fill="#999999" stroke="#666666" points="169.5,-19 37.5,-19 37.5,0 169.5,0 169.5,-19"/>
<text text-anchor="middle" x="103.5" y="-7" font-family="Helvetica,sans-Serif" font-size="10.00">CajaIconContainerClass</text>
</a>
</g>
</g>
<!-- Node2 -->
<g id="Node000002" class="node">
<title>Node2</title>
<g id="a_Node000002"><a xlink:href="struct__EelCanvasClass.html" target="_top" xlink:title=" ">
<polygon fill="white" stroke="#666666" points="99,-91 0,-91 0,-72 99,-72 99,-91"/>
<text text-anchor="middle" x="49.5" y="-79" font-family="Helvetica,sans-Serif" font-size="10.00">_EelCanvasClass</text>
</a>
</g>
</g>
<!-- Node2&#45;&gt;Node1 -->
<g id="edge1_Node000001_Node000002" class="edge">
<title>Node2&#45;&gt;Node1</title>
<g id="a_edge1_Node000001_Node000002"><a xlink:title=" ">
<path fill="none" stroke="#9a32cd" stroke-dasharray="5,2" d="M58.69,-62.67C63.26,-54.5 69.16,-44.91 75.5,-37 80.69,-30.52 87.42,-24.11 92.98,-19.21"/>
<polygon fill="#9a32cd" stroke="#9a32cd" points="55.49,-61.24 53.84,-71.71 61.65,-64.56 55.49,-61.24"/>
</a>
</g>
<text text-anchor="start" x="79" y="-42.5" font-family="Helvetica,sans-Serif" font-size="10.00" fill="grey">parent_slot</text>
</g>
<!-- Node3 -->
<g id="Node000003" class="node">
<title>Node3</title>
<g id="a_Node000003"><a xlink:title=" ">
<polygon fill="white" stroke="#666666" points="200,-91 117,-91 117,-72 200,-72 200,-91"/>
<text text-anchor="middle" x="158.5" y="-79" font-family="Helvetica,sans-Serif" font-size="10.00">_CajaIconInfo</text>
</a>
</g>
</g>
<!-- Node3&#45;&gt;Node1 -->
<g id="edge2_Node000001_Node000003" class="edge">
<title>Node3&#45;&gt;Node1</title>
<g id="a_edge2_Node000001_Node000003"><a xlink:title=" ">
<path fill="none" stroke="#9a32cd" stroke-dasharray="5,2" d="M151.44,-62.4C147.72,-54.16 142.65,-44.58 136.5,-37 130.95,-30.15 123.35,-23.9 116.84,-19.19"/>
<polygon fill="#9a32cd" stroke="#9a32cd" points="148.31,-63.99 155.4,-71.86 154.77,-61.29 148.31,-63.99"/>
</a>
</g>
<text text-anchor="start" x="150" y="-42.5" font-family="Helvetica,sans-Serif" font-size="10.00" fill="grey">get_icon_images</text>
</g>
</g>
</svg>
</svg>

<style type='text/css'>
<![CDATA[
[data-mouse-over-selected='false'] { opacity: 0.7; }
[data-mouse-over-selected='true']  { opacity: 1.0; }
]]>
</style>
<script type="application/ecmascript"><![CDATA[
document.addEventListener('DOMContentLoaded', (event) => {
  highlightEdges();
  highlightAdjacentNodes();
});
]]></script>
</svg>
