<?xml version="1.0" encoding="UTF-8" standalone="no"?>
<!DOCTYPE svg PUBLIC "-//W3C//DTD SVG 1.1//EN"
 "http://www.w3.org/Graphics/SVG/1.1/DTD/svg11.dtd">
<!-- Generated by graphviz version 2.43.0 (0)
 -->
<!-- Title: _MateMixerStream Pages: 1 -->
<svg width="386pt" height="243pt"
 viewBox="0.00 0.00 385.50 243.00" xmlns="http://www.w3.org/2000/svg" xmlns:xlink="http://www.w3.org/1999/xlink">
<g id="graph0" class="graph" transform="scale(1 1) rotate(0) translate(4 239)">
<title>_MateMixerStream</title>
<!-- Node1 -->
<g id="Node000001" class="node">
<title>Node1</title>
<g id="a_Node000001"><a xlink:title=" ">
<polygon fill="#999999" stroke="#666666" points="203,-235 94,-235 94,-216 203,-216 203,-235"/>
<text text-anchor="middle" x="148.5" y="-223" font-family="Helvetica,sans-Serif" font-size="10.00">_MateMixerStream</text>
</a>
</g>
</g>
<!-- Node6 -->
<g id="Node000006" class="node">
<title>Node6</title>
<g id="a_Node000006"><a xlink:title=" ">
<polygon fill="white" stroke="#666666" points="179,-163 0,-163 0,-144 179,-144 179,-163"/>
<text text-anchor="middle" x="89.5" y="-151" font-family="Helvetica,sans-Serif" font-size="10.00">_MateMixerStreamControlPrivate</text>
</a>
</g>
</g>
<!-- Node1&#45;&gt;Node6 -->
<g id="edge6_Node000006_Node000001" class="edge">
<title>Node1&#45;&gt;Node6</title>
<g id="a_edge6_Node000006_Node000001"><a xlink:title=" ">
<path fill="none" stroke="#9a32cd" stroke-dasharray="5,2" d="M134.61,-208.01C122.76,-193.96 106.2,-174.32 96.79,-163.15"/>
<polygon fill="#9a32cd" stroke="#9a32cd" points="132.14,-210.53 141.27,-215.92 137.5,-206.01 132.14,-210.53"/>
</a>
</g>
<text text-anchor="start" x="130" y="-186.5" font-family="Helvetica,sans-Serif" font-size="10.00" fill="grey">stream</text>
</g>
<!-- Node2 -->
<g id="Node000002" class="node">
<title>Node2</title>
<g id="a_Node000002"><a xlink:title=" ">
<polygon fill="white" stroke="#666666" points="279,-19 136,-19 136,0 279,0 279,-19"/>
<text text-anchor="middle" x="207.5" y="-7" font-family="Helvetica,sans-Serif" font-size="10.00">_MateMixerStreamPrivate</text>
</a>
</g>
</g>
<!-- Node2&#45;&gt;Node1 -->
<g id="edge1_Node000001_Node000002" class="edge">
<title>Node2&#45;&gt;Node1</title>
<g id="a_edge1_Node000001_Node000002"><a xlink:title=" ">
<path fill="none" stroke="#9a32cd" stroke-dasharray="5,2" d="M206.83,-29.29C205.4,-58.45 200.97,-116.1 187.5,-163 182.78,-179.44 180.76,-183.62 171.5,-198 167.41,-204.35 161.89,-210.77 157.28,-215.7"/>
<polygon fill="#9a32cd" stroke="#9a32cd" points="210.33,-29.42 207.26,-19.28 203.34,-29.13 210.33,-29.42"/>
</a>
</g>
<text text-anchor="start" x="203" y="-114.5" font-family="Helvetica,sans-Serif" font-size="10.00" fill="grey">priv</text>
</g>
<!-- Node3 -->
<g id="Node000003" class="node">
<title>Node3</title>
<g id="a_Node000003"><a xlink:href="struct__MateMixerDevice.html" target="_top" xlink:title=" ">
<polygon fill="white" stroke="#666666" points="352,-91 245,-91 245,-72 352,-72 352,-91"/>
<text text-anchor="middle" x="298.5" y="-79" font-family="Helvetica,sans-Serif" font-size="10.00">_MateMixerDevice</text>
</a>
</g>
</g>
<!-- Node3&#45;&gt;Node2 -->
<g id="edge2_Node000002_Node000003" class="edge">
<title>Node3&#45;&gt;Node2</title>
<g id="a_edge2_Node000002_Node000003"><a xlink:title=" ">
<path fill="none" stroke="#9a32cd" stroke-dasharray="5,2" d="M279.11,-65.58C260.74,-51.46 233.81,-30.74 218.75,-19.15"/>
<polygon fill="#9a32cd" stroke="#9a32cd" points="277.28,-68.59 287.34,-71.92 281.55,-63.05 277.28,-68.59"/>
</a>
</g>
<text text-anchor="start" x="268" y="-42.5" font-family="Helvetica,sans-Serif" font-size="10.00" fill="grey">device</text>
</g>
<!-- Node4 -->
<g id="Node000004" class="node">
<title>Node4</title>
<g id="a_Node000004"><a xlink:title=" ">
<polygon fill="white" stroke="#666666" points="377.5,-163 235.5,-163 235.5,-144 377.5,-144 377.5,-163"/>
<text text-anchor="middle" x="306.5" y="-151" font-family="Helvetica,sans-Serif" font-size="10.00">_MateMixerDevicePrivate</text>
</a>
</g>
</g>
<!-- Node4&#45;&gt;Node3 -->
<g id="edge3_Node000003_Node000004" class="edge">
<title>Node4&#45;&gt;Node3</title>
<g id="a_edge3_Node000003_Node000004"><a xlink:title=" ">
<path fill="none" stroke="#9a32cd" stroke-dasharray="5,2" d="M304.34,-133.58C302.76,-119.76 300.69,-101.68 299.49,-91.15"/>
<polygon fill="#9a32cd" stroke="#9a32cd" points="300.91,-134.38 305.52,-143.92 307.86,-133.58 300.91,-134.38"/>
</a>
</g>
<text text-anchor="start" x="307" y="-114.5" font-family="Helvetica,sans-Serif" font-size="10.00" fill="grey">priv</text>
</g>
<!-- Node5 -->
<g id="Node000005" class="node">
<title>Node5</title>
<g id="a_Node000005"><a xlink:href="struct__MateMixerStreamControl.html" target="_top" xlink:title=" ">
<polygon fill="white" stroke="#666666" points="175.5,-91 31.5,-91 31.5,-72 175.5,-72 175.5,-91"/>
<text text-anchor="middle" x="103.5" y="-79" font-family="Helvetica,sans-Serif" font-size="10.00">_MateMixerStreamControl</text>
</a>
</g>
</g>
<!-- Node5&#45;&gt;Node2 -->
<g id="edge4_Node000002_Node000005" class="edge">
<title>Node5&#45;&gt;Node2</title>
<g id="a_edge4_Node000002_Node000005"><a xlink:title=" ">
<path fill="none" stroke="#9a32cd" stroke-dasharray="5,2" d="M119.55,-64.62C128.96,-55.82 141.34,-45.07 153.5,-37 164.03,-30.01 176.67,-23.71 187.07,-19"/>
<polygon fill="#9a32cd" stroke="#9a32cd" points="116.94,-62.28 112.14,-71.73 121.78,-67.33 116.94,-62.28"/>
</a>
</g>
<text text-anchor="start" x="156.5" y="-42.5" font-family="Helvetica,sans-Serif" font-size="10.00" fill="grey">control</text>
</g>
<!-- Node6&#45;&gt;Node5 -->
<g id="edge5_Node000005_Node000006" class="edge">
<title>Node6&#45;&gt;Node5</title>
<g id="a_edge5_Node000005_Node000006"><a xlink:title=" ">
<path fill="none" stroke="#9a32cd" stroke-dasharray="5,2" d="M93.2,-133.99C95.97,-120.13 99.64,-101.79 101.77,-91.15"/>
<polygon fill="#9a32cd" stroke="#9a32cd" points="89.75,-133.42 91.22,-143.92 96.61,-134.8 89.75,-133.42"/>
</a>
</g>
<text text-anchor="start" x="102" y="-114.5" font-family="Helvetica,sans-Serif" font-size="10.00" fill="grey">priv</text>
</g>
</g>
</svg>
