<?xml version="1.0" encoding="UTF-8" standalone="no"?>
<!DOCTYPE svg PUBLIC "-//W3C//DTD SVG 1.1//EN"
 "http://www.w3.org/Graphics/SVG/1.1/DTD/svg11.dtd">
<!-- Generated by graphviz version 2.43.0 (0)
 -->
<!-- Title: _MetaFrameStyleSet Pages: 1 -->
<!--zoomable 598 -->

<svg id="main" version="1.1" xmlns="http://www.w3.org/2000/svg" xmlns:xlink="http://www.w3.org/1999/xlink" xml:space="preserve" onload="init(evt)">

<style type="text/css"><![CDATA[
.node, .edge {opacity: 0.7;}
.node.selected, .edge.selected {opacity: 1;}
.edge:hover path { stroke: red; }
.edge:hover polygon { stroke: red; fill: red; }
]]></style>

<defs>
  <circle id="rim" cx="0" cy="0" r="7"/>
  <circle id="rim2" cx="0" cy="0" r="3.5"/>
  <g id="zoomPlus">
    <use xlink:href="#rim" fill="#404040"><set attributeName="fill" to="#808080" begin="zoomplus.mouseover" end="zoomplus.mouseout"/></use>
    <path d="M-4,0h8M0,-4v8" fill="none" stroke="white" stroke-width="1.5" pointer-events="none"/>
  </g>
  <g id="zoomMin">
    <use xlink:href="#rim" fill="#404040"><set attributeName="fill" to="#808080" begin="zoomminus.mouseover" end="zoomminus.mouseout"/></use>
    <path d="M-4,0h8" fill="none" stroke="white" stroke-width="1.5" pointer-events="none"/>
  </g>
  <g id="arrowUp" transform="translate(30 24)">
    <use xlink:href="#rim"/>
    <path pointer-events="none" fill="none" stroke="white" stroke-width="1.5" d="M0,-3.0v7 M-2.5,-0.5L0,-3.0L2.5,-0.5"/>
  </g>
  <g id="arrowRight" transform="rotate(90) translate(36 -43)">
    <use xlink:href="#rim"/>
    <path pointer-events="none" fill="none" stroke="white" stroke-width="1.5" d="M0,-3.0v7 M-2.5,-0.5L0,-3.0L2.5,-0.5"/>
  </g>
  <g id="arrowDown" transform="rotate(180) translate(-30 -48)">
    <use xlink:href="#rim"/>
    <path pointer-events="none" fill="none" stroke="white" stroke-width="1.5" d="M0,-3.0v7 M-2.5,-0.5L0,-3.0L2.5,-0.5"/>
  </g>
  <g id="arrowLeft" transform="rotate(270) translate(-36 17)">
    <use xlink:href="#rim"/>
    <path pointer-events="none" fill="none" stroke="white" stroke-width="1.5" d="M0,-3.0v7 M-2.5,-0.5L0,-3.0L2.5,-0.5"/>
  </g>
  <g id="resetDef">
    <use xlink:href="#rim2" fill="#404040"><set attributeName="fill" to="#808080" begin="reset.mouseover" end="reset.mouseout"/></use>
  </g>
</defs>
<script type="application/ecmascript">
var viewWidth = 851;
var viewHeight = 598;
var sectionId = 'dynsection-0';
</script>
<script type="application/ecmascript" xlink:href="svg.min.js"/>
<svg id="graph" class="graph">
<g id="viewport">
<title>_MetaFrameStyleSet</title>
<!-- Node1 -->
<g id="Node000001" class="node">
<title>Node1</title>
<g id="a_Node000001"><a xlink:title=" ">
<polygon fill="#999999" stroke="#666666" points="209,-30.55 91,-30.55 91,-11.55 209,-11.55 209,-30.55"/>
<text text-anchor="middle" x="150" y="-18.55" font-family="Helvetica,sans-Serif" font-size="10.00">_MetaFrameStyleSet</text>
</a>
</g>
</g>
<!-- Node1&#45;&gt;Node1 -->
<g id="edge1_Node000001_Node000001" class="edge">
<title>Node1&#45;&gt;Node1</title>
<g id="a_edge1_Node000001_Node000001"><a xlink:title=" ">
<path fill="none" stroke="#9a32cd" stroke-dasharray="5,2" d="M170.27,-35.41C196.11,-47.17 227,-42.39 227,-21.05 227,2.79 188.4,5.96 161.4,-11.55"/>
<polygon fill="#9a32cd" stroke="#9a32cd" points="171.86,-32.28 161.4,-30.55 168.5,-38.42 171.86,-32.28"/>
</a>
</g>
<text text-anchor="start" x="230" y="-18.05" font-family="Helvetica,sans-Serif" font-size="10.00" fill="grey">parent</text>
</g>
<!-- Node2 -->
<g id="Node000002" class="node">
<title>Node2</title>
<g id="a_Node000002"><a xlink:href="struct__MetaFrameStyle.html" target="_top" xlink:title=" ">
<polygon fill="white" stroke="#666666" points="201,-252.55 99,-252.55 99,-233.55 201,-233.55 201,-252.55"/>
<text text-anchor="middle" x="150" y="-240.55" font-family="Helvetica,sans-Serif" font-size="10.00">_MetaFrameStyle</text>
</a>
</g>
</g>
<!-- Node2&#45;&gt;Node1 -->
<g id="edge2_Node000001_Node000002" class="edge">
<title>Node2&#45;&gt;Node1</title>
<g id="a_edge2_Node000001_Node000002"><a xlink:title=" ">
<path fill="none" stroke="#9a32cd" stroke-dasharray="5,2" d="M150,-223.23C150,-177.79 150,-63.46 150,-30.86"/>
<polygon fill="#9a32cd" stroke="#9a32cd" points="146.5,-223.43 150,-233.43 153.5,-223.43 146.5,-223.43"/>
</a>
</g>
<text text-anchor="start" x="153.5" y="-204.05" font-family="Helvetica,sans-Serif" font-size="10.00" fill="grey">maximized_and_shaded</text>
<text text-anchor="start" x="153.5" y="-189.05" font-family="Helvetica,sans-Serif" font-size="10.00" fill="grey">  _styles</text>
<text text-anchor="start" x="153.5" y="-174.05" font-family="Helvetica,sans-Serif" font-size="10.00" fill="grey">maximized_styles</text>
<text text-anchor="start" x="153.5" y="-159.05" font-family="Helvetica,sans-Serif" font-size="10.00" fill="grey">normal_styles</text>
<text text-anchor="start" x="153.5" y="-144.05" font-family="Helvetica,sans-Serif" font-size="10.00" fill="grey">shaded_styles</text>
<text text-anchor="start" x="153.5" y="-129.05" font-family="Helvetica,sans-Serif" font-size="10.00" fill="grey">tiled_left_and_shaded</text>
<text text-anchor="start" x="153.5" y="-114.05" font-family="Helvetica,sans-Serif" font-size="10.00" fill="grey">  _styles</text>
<text text-anchor="start" x="153.5" y="-99.05" font-family="Helvetica,sans-Serif" font-size="10.00" fill="grey">tiled_left_styles</text>
<text text-anchor="start" x="153.5" y="-84.05" font-family="Helvetica,sans-Serif" font-size="10.00" fill="grey">tiled_right_and_shaded</text>
<text text-anchor="start" x="153.5" y="-69.05" font-family="Helvetica,sans-Serif" font-size="10.00" fill="grey">  _styles</text>
<text text-anchor="start" x="153.5" y="-54.05" font-family="Helvetica,sans-Serif" font-size="10.00" fill="grey">tiled_right_styles</text>
</g>
<!-- Node2&#45;&gt;Node2 -->
<g id="edge3_Node000002_Node000002" class="edge">
<title>Node2&#45;&gt;Node2</title>
<g id="a_edge3_Node000002_Node000002"><a xlink:title=" ">
<path fill="none" stroke="#9a32cd" stroke-dasharray="5,2" d="M169.08,-257.86C192.04,-269.04 219,-264.11 219,-243.05 219,-219.21 184.41,-216.04 160.22,-233.55"/>
<polygon fill="#9a32cd" stroke="#9a32cd" points="170.6,-254.69 160.22,-252.55 167,-260.69 170.6,-254.69"/>
</a>
</g>
<text text-anchor="start" x="222" y="-240.05" font-family="Helvetica,sans-Serif" font-size="10.00" fill="grey">parent</text>
</g>
<!-- Node3 -->
<g id="Node000003" class="node">
<title>Node3</title>
<g id="a_Node000003"><a xlink:href="struct__MetaDrawOpList.html" target="_top" xlink:title=" ">
<polygon fill="white" stroke="#666666" points="828.5,-496.05 725.5,-496.05 725.5,-477.05 828.5,-477.05 828.5,-496.05"/>
<text text-anchor="middle" x="777" y="-484.05" font-family="Helvetica,sans-Serif" font-size="10.00">_MetaDrawOpList</text>
</a>
</g>
</g>
<!-- Node3&#45;&gt;Node2 -->
<g id="edge4_Node000002_Node000003" class="edge">
<title>Node3&#45;&gt;Node2</title>
<g id="a_edge4_Node000002_Node000003"><a xlink:title=" ">
<path fill="none" stroke="#9a32cd" stroke-dasharray="5,2" d="M750.5,-472.34C724.38,-459.19 688.05,-440.56 686,-437.55 664.93,-406.71 694.22,-296.13 667,-270.55 650.22,-254.78 328.79,-247.28 201.38,-244.91"/>
<polygon fill="#9a32cd" stroke="#9a32cd" points="749.08,-475.54 759.58,-476.89 752.21,-469.28 749.08,-475.54"/>
</a>
</g>
<text text-anchor="start" x="689.5" y="-359.05" font-family="Helvetica,sans-Serif" font-size="10.00" fill="grey">buttons</text>
<text text-anchor="start" x="689.5" y="-344.05" font-family="Helvetica,sans-Serif" font-size="10.00" fill="grey">pieces</text>
</g>
<!-- Node4 -->
<g id="Node000004" class="node">
<title>Node4</title>
<g id="a_Node000004"><a xlink:href="struct__MetaDrawOp.html" target="_top" xlink:title=" ">
<polygon fill="white" stroke="#666666" points="592,-252.55 506,-252.55 506,-233.55 592,-233.55 592,-252.55"/>
<text text-anchor="middle" x="549" y="-240.55" font-family="Helvetica,sans-Serif" font-size="10.00">_MetaDrawOp</text>
</a>
</g>
</g>
<!-- Node3&#45;&gt;Node4 -->
<g id="edge12_Node000004_Node000003" class="edge">
<title>Node3&#45;&gt;Node4</title>
<g id="a_edge12_Node000004_Node000003"><a xlink:title=" ">
<path fill="none" stroke="#9a32cd" stroke-dasharray="5,2" d="M765.99,-468.21C760.9,-459.36 755.27,-448.24 752,-437.55 741.08,-401.83 759.02,-297.35 733,-270.55 714.06,-251.04 640.34,-245.73 592.16,-244.39"/>
<polygon fill="#9a32cd" stroke="#9a32cd" points="763,-470.03 771.16,-476.78 768.99,-466.41 763,-470.03"/>
</a>
</g>
<text text-anchor="start" x="755.5" y="-351.05" font-family="Helvetica,sans-Serif" font-size="10.00" fill="grey">op_list</text>
</g>
<!-- Node4&#45;&gt;Node3 -->
<g id="edge5_Node000003_Node000004" class="edge">
<title>Node4&#45;&gt;Node3</title>
<g id="a_edge5_Node000003_Node000004"><a xlink:title=" ">
<path fill="none" stroke="#9a32cd" stroke-dasharray="5,2" d="M602.39,-246.08C670.88,-249.24 782.37,-256.49 795,-270.55 849.56,-331.31 798.14,-444.5 781.68,-476.76"/>
<polygon fill="#9a32cd" stroke="#9a32cd" points="602.35,-242.58 592.21,-245.63 602.04,-249.57 602.35,-242.58"/>
</a>
</g>
<text text-anchor="start" x="822" y="-351.05" font-family="Helvetica,sans-Serif" font-size="10.00" fill="grey">ops</text>
</g>
<!-- Node5 -->
<g id="Node000005" class="node">
<title>Node5</title>
<g id="a_Node000005"><a xlink:href="struct__MetaColorSpec.html" target="_top" xlink:title=" ">
<polygon fill="white" stroke="#666666" points="223.5,-496.05 128.5,-496.05 128.5,-477.05 223.5,-477.05 223.5,-496.05"/>
<text text-anchor="middle" x="176" y="-484.05" font-family="Helvetica,sans-Serif" font-size="10.00">_MetaColorSpec</text>
</a>
</g>
</g>
<!-- Node5&#45;&gt;Node2 -->
<g id="edge14_Node000002_Node000005" class="edge">
<title>Node5&#45;&gt;Node2</title>
<g id="a_edge14_Node000002_Node000005"><a xlink:title=" ">
<path fill="none" stroke="#9a32cd" stroke-dasharray="5,2" d="M164.49,-468.34C159.27,-459.54 153.69,-448.4 151,-437.55 133.81,-368.09 144.53,-280.26 148.62,-252.72"/>
<polygon fill="#9a32cd" stroke="#9a32cd" points="161.56,-470.26 169.84,-476.87 167.49,-466.54 161.56,-470.26"/>
</a>
</g>
<text text-anchor="start" x="154" y="-351.05" font-family="Helvetica,sans-Serif" font-size="10.00" fill="grey">window_background_color</text>
</g>
<!-- Node5&#45;&gt;Node4 -->
<g id="edge6_Node000004_Node000005" class="edge">
<title>Node5&#45;&gt;Node4</title>
<g id="a_edge6_Node000004_Node000005"><a xlink:title=" ">
<path fill="none" stroke="#9a32cd" stroke-dasharray="5,2" d="M231.66,-473.96C252.19,-466.86 273.67,-455.53 287,-437.55 309.24,-407.55 279.53,-296.9 306,-270.55 319.87,-256.74 439.97,-249.08 505.97,-245.87"/>
<polygon fill="#9a32cd" stroke="#9a32cd" points="230.49,-470.66 222.01,-477.03 232.61,-477.34 230.49,-470.66"/>
</a>
</g>
<text text-anchor="start" x="309.5" y="-359.05" font-family="Helvetica,sans-Serif" font-size="10.00" fill="grey">color_spec</text>
<text text-anchor="start" x="309.5" y="-344.05" font-family="Helvetica,sans-Serif" font-size="10.00" fill="grey">colorize_spec</text>
</g>
<!-- Node5&#45;&gt;Node5 -->
<g id="edge7_Node000005_Node000005" class="edge">
<title>Node5&#45;&gt;Node5</title>
<g id="a_edge7_Node000005_Node000005"><a xlink:title=" ">
<path fill="none" stroke="#9a32cd" stroke-dasharray="5,2" d="M214.02,-497C229,-497.53 241.5,-494.04 241.5,-486.55 241.5,-477.42 222.92,-474.25 203.94,-477.03"/>
<polygon fill="#9a32cd" stroke="#9a32cd" points="214.21,-493.5 203.94,-496.08 213.58,-500.47 214.21,-493.5"/>
</a>
</g>
<text text-anchor="start" x="244.5" y="-506.55" font-family="Helvetica,sans-Serif" font-size="10.00" fill="grey">background</text>
<text text-anchor="start" x="244.5" y="-491.55" font-family="Helvetica,sans-Serif" font-size="10.00" fill="grey">base</text>
<text text-anchor="start" x="244.5" y="-476.55" font-family="Helvetica,sans-Serif" font-size="10.00" fill="grey">fallback</text>
<text text-anchor="start" x="244.5" y="-461.55" font-family="Helvetica,sans-Serif" font-size="10.00" fill="grey">foreground</text>
</g>
<!-- Node6 -->
<g id="Node000006" class="node">
<title>Node6</title>
<g id="a_Node000006"><a xlink:href="struct__MetaDrawSpec.html" target="_top" xlink:title=" ">
<polygon fill="white" stroke="#666666" points="418.5,-496.05 323.5,-496.05 323.5,-477.05 418.5,-477.05 418.5,-496.05"/>
<text text-anchor="middle" x="371" y="-484.05" font-family="Helvetica,sans-Serif" font-size="10.00">_MetaDrawSpec</text>
</a>
</g>
</g>
<!-- Node6&#45;&gt;Node4 -->
<g id="edge8_Node000004_Node000006" class="edge">
<title>Node6&#45;&gt;Node4</title>
<g id="a_edge8_Node000004_Node000006"><a xlink:title=" ">
<path fill="none" stroke="#9a32cd" stroke-dasharray="5,2" d="M376.13,-467.11C378.47,-458.23 381.13,-447.39 383,-437.55 390,-400.78 379.22,-297.69 405,-270.55 418.57,-256.27 468.5,-249.57 505.78,-246.5"/>
<polygon fill="#9a32cd" stroke="#9a32cd" points="372.75,-466.21 373.52,-476.77 379.51,-468.04 372.75,-466.21"/>
</a>
</g>
<text text-anchor="start" x="408.5" y="-426.05" font-family="Helvetica,sans-Serif" font-size="10.00" fill="grey">ellipsize_width</text>
<text text-anchor="start" x="408.5" y="-411.05" font-family="Helvetica,sans-Serif" font-size="10.00" fill="grey">height</text>
<text text-anchor="start" x="408.5" y="-396.05" font-family="Helvetica,sans-Serif" font-size="10.00" fill="grey">tile_height</text>
<text text-anchor="start" x="408.5" y="-381.05" font-family="Helvetica,sans-Serif" font-size="10.00" fill="grey">tile_width</text>
<text text-anchor="start" x="408.5" y="-366.05" font-family="Helvetica,sans-Serif" font-size="10.00" fill="grey">tile_xoffset</text>
<text text-anchor="start" x="408.5" y="-351.05" font-family="Helvetica,sans-Serif" font-size="10.00" fill="grey">tile_yoffset</text>
<text text-anchor="start" x="408.5" y="-336.05" font-family="Helvetica,sans-Serif" font-size="10.00" fill="grey">width</text>
<text text-anchor="start" x="408.5" y="-321.05" font-family="Helvetica,sans-Serif" font-size="10.00" fill="grey">x</text>
<text text-anchor="start" x="408.5" y="-306.05" font-family="Helvetica,sans-Serif" font-size="10.00" fill="grey">x1</text>
<text text-anchor="start" x="408.5" y="-291.05" font-family="Helvetica,sans-Serif" font-size="10.00" fill="grey">x2</text>
<text text-anchor="start" x="408.5" y="-276.05" font-family="Helvetica,sans-Serif" font-size="10.00" fill="grey"> &#160;...</text>
</g>
<!-- Node7 -->
<g id="Node000007" class="node">
<title>Node7</title>
<g id="a_Node000007"><a xlink:href="structPosToken.html" target="_top" xlink:title=" ">
<polygon fill="white" stroke="#666666" points="402,-589.55 340,-589.55 340,-570.55 402,-570.55 402,-589.55"/>
<text text-anchor="middle" x="371" y="-577.55" font-family="Helvetica,sans-Serif" font-size="10.00">PosToken</text>
</a>
</g>
</g>
<!-- Node7&#45;&gt;Node6 -->
<g id="edge9_Node000006_Node000007" class="edge">
<title>Node7&#45;&gt;Node6</title>
<g id="a_edge9_Node000006_Node000007"><a xlink:title=" ">
<path fill="none" stroke="#9a32cd" stroke-dasharray="5,2" d="M371,-560.09C371,-540.48 371,-510.71 371,-496.17"/>
<polygon fill="#9a32cd" stroke="#9a32cd" points="367.5,-560.28 371,-570.28 374.5,-560.28 367.5,-560.28"/>
</a>
</g>
<text text-anchor="start" x="374.5" y="-541.05" font-family="Helvetica,sans-Serif" font-size="10.00" fill="grey">tokens</text>
</g>
<!-- Node8 -->
<g id="Node000008" class="node">
<title>Node8</title>
<g id="a_Node000008"><a xlink:href="struct__MetaAlphaGradientSpec.html" target="_top" xlink:title=" ">
<polygon fill="white" stroke="#666666" points="577,-496.05 437,-496.05 437,-477.05 577,-477.05 577,-496.05"/>
<text text-anchor="middle" x="507" y="-484.05" font-family="Helvetica,sans-Serif" font-size="10.00">_MetaAlphaGradientSpec</text>
</a>
</g>
</g>
<!-- Node8&#45;&gt;Node4 -->
<g id="edge10_Node000004_Node000008" class="edge">
<title>Node8&#45;&gt;Node4</title>
<g id="a_edge10_Node000004_Node000008"><a xlink:title=" ">
<path fill="none" stroke="#9a32cd" stroke-dasharray="5,2" d="M501.59,-467.14C491.23,-428.08 472.6,-335.22 508,-270.55 512.31,-262.67 520.08,-256.77 527.71,-252.57"/>
<polygon fill="#9a32cd" stroke="#9a32cd" points="498.3,-468.36 504.35,-477.05 505.04,-466.48 498.3,-468.36"/>
</a>
</g>
<text text-anchor="start" x="511.5" y="-351.05" font-family="Helvetica,sans-Serif" font-size="10.00" fill="grey">alpha_spec</text>
</g>
<!-- Node9 -->
<g id="Node000009" class="node">
<title>Node9</title>
<g id="a_Node000009"><a xlink:href="struct__MetaGradientSpec.html" target="_top" xlink:title=" ">
<polygon fill="white" stroke="#666666" points="707,-496.05 595,-496.05 595,-477.05 707,-477.05 707,-496.05"/>
<text text-anchor="middle" x="651" y="-484.05" font-family="Helvetica,sans-Serif" font-size="10.00">_MetaGradientSpec</text>
</a>
</g>
</g>
<!-- Node9&#45;&gt;Node4 -->
<g id="edge11_Node000004_Node000009" class="edge">
<title>Node9&#45;&gt;Node4</title>
<g id="a_edge11_Node000004_Node000009"><a xlink:title=" ">
<path fill="none" stroke="#9a32cd" stroke-dasharray="5,2" d="M626.25,-471.63C613.92,-463.37 599.97,-451.72 592,-437.55 555.27,-372.25 597.6,-339.8 569,-270.55 566.27,-263.95 561.49,-257.52 557.29,-252.65"/>
<polygon fill="#9a32cd" stroke="#9a32cd" points="624.52,-474.68 634.84,-477.05 628.25,-468.75 624.52,-474.68"/>
</a>
</g>
<text text-anchor="start" x="595.5" y="-351.05" font-family="Helvetica,sans-Serif" font-size="10.00" fill="grey">gradient_spec</text>
</g>
<!-- Node10 -->
<g id="Node000010" class="node">
<title>Node10</title>
<g id="a_Node000010"><a xlink:href="struct__MetaFrameLayout.html" target="_top" xlink:title=" ">
<polygon fill="white" stroke="#666666" points="110,-496.05 0,-496.05 0,-477.05 110,-477.05 110,-496.05"/>
<text text-anchor="middle" x="55" y="-484.05" font-family="Helvetica,sans-Serif" font-size="10.00">_MetaFrameLayout</text>
</a>
</g>
</g>
<!-- Node10&#45;&gt;Node2 -->
<g id="edge13_Node000002_Node000010" class="edge">
<title>Node10&#45;&gt;Node2</title>
<g id="a_edge13_Node000002_Node000010"><a xlink:title=" ">
<path fill="none" stroke="#9a32cd" stroke-dasharray="5,2" d="M54.03,-466.72C52.95,-426.51 55.71,-331.02 101,-270.55 106.97,-262.58 116.07,-256.73 124.81,-252.59"/>
<polygon fill="#9a32cd" stroke="#9a32cd" points="50.54,-466.86 54.42,-476.72 57.53,-466.59 50.54,-466.86"/>
</a>
</g>
<text text-anchor="start" x="104.5" y="-351.05" font-family="Helvetica,sans-Serif" font-size="10.00" fill="grey">layout</text>
</g>
</g>
</svg>

<g id="navigator" transform="translate(0 0)" fill="#404254">
  <rect fill="#f2f5e9" fill-opacity="0.5" stroke="#606060" stroke-width=".5" x="0" y="0" width="60" height="60"/>
  <use id="zoomplus" xlink:href="#zoomPlus" x="17" y="9" onmousedown="handleZoom(evt,'in')"/>
  <use id="zoomminus" xlink:href="#zoomMin" x="42" y="9" onmousedown="handleZoom(evt,'out')"/>
  <use id="reset" xlink:href="#resetDef" x="30" y="36" onmousedown="handleReset()"/>
   <use id="arrowup" xlink:href="#arrowUp" x="0" y="0" onmousedown="handlePan(0,-1)"/>
  <use id="arrowright" xlink:href="#arrowRight" x="0" y="0" onmousedown="handlePan(1,0)"/>
  <use id="arrowdown" xlink:href="#arrowDown" x="0" y="0" onmousedown="handlePan(0,1)"/>
  <use id="arrowleft" xlink:href="#arrowLeft" x="0" y="0" onmousedown="handlePan(-1,0)"/>
</g>
<svg viewBox="0 0 15 15" width="100%" height="30px" preserveAspectRatio="xMaxYMin meet">
 <g id="arrow_out" transform="scale(0.3 0.3)">
  <a xlink:href="struct__MetaFrameStyleSet__coll__graph_org.svg" target="_base">
   <rect id="button" ry="5" rx="5" y="6" x="6" height="38" width="38"
        fill="#f2f5e9" fill-opacity="0.5" stroke="#606060" stroke-width="1.0"/>
   <path id="arrow"
     d="M 11.500037,31.436501 C 11.940474,20.09759 22.043105,11.32322 32.158766,21.979434 L 37.068811,17.246167 C 37.068811,17.246167 37.088388,32 37.088388,32 L 22.160133,31.978069 C 22.160133,31.978069 26.997745,27.140456 26.997745,27.140456 C 18.528582,18.264221 13.291696,25.230495 11.500037,31.436501 z"
     style="fill:#404040;"/>
  </a>
 </g>
</svg>

<style type='text/css'>
<![CDATA[
[data-mouse-over-selected='false'] { opacity: 0.7; }
[data-mouse-over-selected='true']  { opacity: 1.0; }
]]>
</style>
<script type="application/ecmascript"><![CDATA[
document.addEventListener('DOMContentLoaded', (event) => {
  highlightEdges();
  highlightAdjacentNodes();
});
]]></script>
</svg>
