<?xml version="1.0" encoding="UTF-8" standalone="no"?>
<!DOCTYPE svg PUBLIC "-//W3C//DTD SVG 1.1//EN"
 "http://www.w3.org/Graphics/SVG/1.1/DTD/svg11.dtd">
<!-- Generated by graphviz version 2.43.0 (0)
 -->
<!-- Title: _AppResizer Pages: 1 -->
<!--zoomable 301 -->

<svg id="main" version="1.1" xmlns="http://www.w3.org/2000/svg" xmlns:xlink="http://www.w3.org/1999/xlink" xml:space="preserve" onload="init(evt)">

<style type="text/css"><![CDATA[
.node, .edge {opacity: 0.7;}
.node.selected, .edge.selected {opacity: 1;}
.edge:hover path { stroke: red; }
.edge:hover polygon { stroke: red; fill: red; }
]]></style>

<defs>
  <circle id="rim" cx="0" cy="0" r="7"/>
  <circle id="rim2" cx="0" cy="0" r="3.5"/>
  <g id="zoomPlus">
    <use xlink:href="#rim" fill="#404040"><set attributeName="fill" to="#808080" begin="zoomplus.mouseover" end="zoomplus.mouseout"/></use>
    <path d="M-4,0h8M0,-4v8" fill="none" stroke="white" stroke-width="1.5" pointer-events="none"/>
  </g>
  <g id="zoomMin">
    <use xlink:href="#rim" fill="#404040"><set attributeName="fill" to="#808080" begin="zoomminus.mouseover" end="zoomminus.mouseout"/></use>
    <path d="M-4,0h8" fill="none" stroke="white" stroke-width="1.5" pointer-events="none"/>
  </g>
  <g id="arrowUp" transform="translate(30 24)">
    <use xlink:href="#rim"/>
    <path pointer-events="none" fill="none" stroke="white" stroke-width="1.5" d="M0,-3.0v7 M-2.5,-0.5L0,-3.0L2.5,-0.5"/>
  </g>
  <g id="arrowRight" transform="rotate(90) translate(36 -43)">
    <use xlink:href="#rim"/>
    <path pointer-events="none" fill="none" stroke="white" stroke-width="1.5" d="M0,-3.0v7 M-2.5,-0.5L0,-3.0L2.5,-0.5"/>
  </g>
  <g id="arrowDown" transform="rotate(180) translate(-30 -48)">
    <use xlink:href="#rim"/>
    <path pointer-events="none" fill="none" stroke="white" stroke-width="1.5" d="M0,-3.0v7 M-2.5,-0.5L0,-3.0L2.5,-0.5"/>
  </g>
  <g id="arrowLeft" transform="rotate(270) translate(-36 17)">
    <use xlink:href="#rim"/>
    <path pointer-events="none" fill="none" stroke="white" stroke-width="1.5" d="M0,-3.0v7 M-2.5,-0.5L0,-3.0L2.5,-0.5"/>
  </g>
  <g id="resetDef">
    <use xlink:href="#rim2" fill="#404040"><set attributeName="fill" to="#808080" begin="reset.mouseover" end="reset.mouseout"/></use>
  </g>
</defs>
<script type="application/ecmascript">
var viewWidth = 775;
var viewHeight = 301;
var sectionId = 'dynsection-0';
</script>
<script type="application/ecmascript" xlink:href="svg.min.js"/>
<svg id="graph" class="graph">
<g id="viewport">
<title>_AppResizer</title>
<!-- Node1 -->
<g id="Node000001" class="node">
<title>Node1</title>
<g id="a_Node000001"><a xlink:title=" ">
<polygon fill="#999999" stroke="#666666" points="332,-19 255,-19 255,0 332,0 332,-19"/>
<text text-anchor="middle" x="293.5" y="-7" font-family="Helvetica,sans-Serif" font-size="10.00">_AppResizer</text>
</a>
</g>
</g>
<!-- Node2 -->
<g id="Node000002" class="node">
<title>Node2</title>
<g id="a_Node000002"><a xlink:href="struct__AppShellData.html" target="_top" xlink:title=" ">
<polygon fill="white" stroke="#666666" points="337.5,-91 249.5,-91 249.5,-72 337.5,-72 337.5,-91"/>
<text text-anchor="middle" x="293.5" y="-79" font-family="Helvetica,sans-Serif" font-size="10.00">_AppShellData</text>
</a>
</g>
</g>
<!-- Node2&#45;&gt;Node1 -->
<g id="edge1_Node000001_Node000002" class="edge">
<title>Node2&#45;&gt;Node1</title>
<g id="a_edge1_Node000001_Node000002"><a xlink:title=" ">
<path fill="none" stroke="#9a32cd" stroke-dasharray="5,2" d="M293.5,-61.58C293.5,-47.76 293.5,-29.68 293.5,-19.15"/>
<polygon fill="#9a32cd" stroke="#9a32cd" points="290,-61.92 293.5,-71.92 297,-61.92 290,-61.92"/>
</a>
</g>
<text text-anchor="start" x="296.5" y="-42.5" font-family="Helvetica,sans-Serif" font-size="10.00" fill="grey">app_data</text>
</g>
<!-- Node3 -->
<g id="Node000003" class="node">
<title>Node3</title>
<g id="a_Node000003"><a xlink:href="struct__Tile.html" target="_top" xlink:title=" ">
<polygon fill="white" stroke="#666666" points="80.5,-178 40.5,-178 40.5,-159 80.5,-159 80.5,-178"/>
<text text-anchor="middle" x="60.5" y="-166" font-family="Helvetica,sans-Serif" font-size="10.00">_Tile</text>
</a>
</g>
</g>
<!-- Node3&#45;&gt;Node2 -->
<g id="edge2_Node000002_Node000003" class="edge">
<title>Node3&#45;&gt;Node2</title>
<g id="a_edge2_Node000002_Node000003"><a xlink:title=" ">
<path fill="none" stroke="#9a32cd" stroke-dasharray="5,2" d="M90.25,-158.46C103.52,-153.95 119.13,-147.96 132.5,-141 154.59,-129.49 155.73,-119.09 178.5,-109 200.88,-99.08 227.43,-92.65 249.37,-88.61"/>
<polygon fill="#9a32cd" stroke="#9a32cd" points="89.05,-155.17 80.64,-161.61 91.23,-161.82 89.05,-155.17"/>
</a>
</g>
<text text-anchor="start" x="182" y="-122" font-family="Helvetica,sans-Serif" font-size="10.00" fill="grey">last_clicked_launcher</text>
</g>
<!-- Node4 -->
<g id="Node000004" class="node">
<title>Node4</title>
<g id="a_Node000004"><a xlink:href="struct__TileAction.html" target="_top" xlink:title=" ">
<polygon fill="white" stroke="#666666" points="71,-91 0,-91 0,-72 71,-72 71,-91"/>
<text text-anchor="middle" x="35.5" y="-79" font-family="Helvetica,sans-Serif" font-size="10.00">_TileAction</text>
</a>
</g>
</g>
<!-- Node3&#45;&gt;Node4 -->
<g id="edge4_Node000004_Node000003" class="edge">
<title>Node3&#45;&gt;Node4</title>
<g id="a_edge4_Node000004_Node000003"><a xlink:title=" ">
<path fill="none" stroke="#9a32cd" stroke-dasharray="5,2" d="M30.91,-157.45C23.63,-153.5 16.72,-148.15 12.5,-141 5.27,-128.75 7.52,-122.32 12.5,-109 15.06,-102.15 20.27,-95.9 25.09,-91.19"/>
<polygon fill="#9a32cd" stroke="#9a32cd" points="29.62,-160.71 40.16,-161.74 32.56,-154.36 29.62,-160.71"/>
</a>
</g>
<text text-anchor="start" x="15.5" y="-130" font-family="Helvetica,sans-Serif" font-size="10.00" fill="grey">func</text>
<text text-anchor="start" x="15.5" y="-115" font-family="Helvetica,sans-Serif" font-size="10.00" fill="grey">tile</text>
</g>
<!-- Node4&#45;&gt;Node3 -->
<g id="edge3_Node000003_Node000004" class="edge">
<title>Node4&#45;&gt;Node3</title>
<g id="a_edge3_Node000003_Node000004"><a xlink:title=" ">
<path fill="none" stroke="#9a32cd" stroke-dasharray="5,2" d="M40.93,-100.98C46.19,-118.85 53.93,-145.17 57.92,-158.72"/>
<polygon fill="#9a32cd" stroke="#9a32cd" points="44.28,-99.96 38.1,-91.36 37.57,-101.94 44.28,-99.96"/>
</a>
</g>
<text text-anchor="start" x="55.5" y="-130" font-family="Helvetica,sans-Serif" font-size="10.00" fill="grey">actions</text>
<text text-anchor="start" x="55.5" y="-115" font-family="Helvetica,sans-Serif" font-size="10.00" fill="grey">default_action</text>
</g>
<!-- Node5 -->
<g id="Node000005" class="node">
<title>Node5</title>
<g id="a_Node000005"><a xlink:href="structSlabSection.html" target="_top" xlink:title=" ">
<polygon fill="white" stroke="#666666" points="330.5,-178 256.5,-178 256.5,-159 330.5,-159 330.5,-178"/>
<text text-anchor="middle" x="293.5" y="-166" font-family="Helvetica,sans-Serif" font-size="10.00">SlabSection</text>
</a>
</g>
</g>
<!-- Node5&#45;&gt;Node2 -->
<g id="edge5_Node000002_Node000005" class="edge">
<title>Node5&#45;&gt;Node2</title>
<g id="a_edge5_Node000002_Node000005"><a xlink:title=" ">
<path fill="none" stroke="#9a32cd" stroke-dasharray="5,2" d="M293.5,-148.62C293.5,-130.79 293.5,-104.83 293.5,-91.36"/>
<polygon fill="#9a32cd" stroke="#9a32cd" points="290,-148.72 293.5,-158.72 297,-148.72 290,-148.72"/>
</a>
</g>
<text text-anchor="start" x="297" y="-122" font-family="Helvetica,sans-Serif" font-size="10.00" fill="grey">selected_group</text>
</g>
<!-- Node6 -->
<g id="Node000006" class="node">
<title>Node6</title>
<g id="a_Node000006"><a xlink:href="structNewAppConfig.html" target="_top" xlink:title=" ">
<polygon fill="white" stroke="#666666" points="441.5,-178 353.5,-178 353.5,-159 441.5,-159 441.5,-178"/>
<text text-anchor="middle" x="397.5" y="-166" font-family="Helvetica,sans-Serif" font-size="10.00">NewAppConfig</text>
</a>
</g>
</g>
<!-- Node6&#45;&gt;Node2 -->
<g id="edge6_Node000002_Node000006" class="edge">
<title>Node6&#45;&gt;Node2</title>
<g id="a_edge6_Node000002_Node000006"><a xlink:title=" ">
<path fill="none" stroke="#9a32cd" stroke-dasharray="5,2" d="M394.77,-148.6C391.98,-135.81 386.43,-119.43 375.5,-109 365.22,-99.19 351.27,-93.01 337.8,-89.12"/>
<polygon fill="#9a32cd" stroke="#9a32cd" points="391.36,-149.43 396.57,-158.66 398.25,-148.2 391.36,-149.43"/>
</a>
</g>
<text text-anchor="start" x="397" y="-122" font-family="Helvetica,sans-Serif" font-size="10.00" fill="grey">new_apps</text>
</g>
<!-- Node7 -->
<g id="Node000007" class="node">
<title>Node7</title>
<g id="a_Node000007"><a xlink:title=" ">
<polygon fill="white" stroke="#666666" points="698.5,-178 604.5,-178 604.5,-159 698.5,-159 698.5,-178"/>
<text text-anchor="middle" x="651.5" y="-166" font-family="Helvetica,sans-Serif" font-size="10.00">_MateMenuTree</text>
</a>
</g>
</g>
<!-- Node7&#45;&gt;Node2 -->
<g id="edge7_Node000002_Node000007" class="edge">
<title>Node7&#45;&gt;Node2</title>
<g id="a_edge7_Node000002_Node000007"><a xlink:title=" ">
<path fill="none" stroke="#9a32cd" stroke-dasharray="5,2" d="M616.31,-155.75C576.81,-142.89 510.62,-122.33 452.5,-109 441.45,-106.47 380.72,-96.53 337.6,-89.57"/>
<polygon fill="#9a32cd" stroke="#9a32cd" points="615.41,-159.14 626,-158.93 617.59,-152.49 615.41,-159.14"/>
</a>
</g>
<text text-anchor="start" x="569.5" y="-122" font-family="Helvetica,sans-Serif" font-size="10.00" fill="grey">tree</text>
</g>
<!-- Node10 -->
<g id="Node000010" class="node">
<title>Node10</title>
<g id="a_Node000010"><a xlink:title=" ">
<polygon fill="white" stroke="#666666" points="707,-91 596,-91 596,-72 707,-72 707,-91"/>
<text text-anchor="middle" x="651.5" y="-79" font-family="Helvetica,sans-Serif" font-size="10.00">MateMenuTreeItem</text>
</a>
</g>
</g>
<!-- Node7&#45;&gt;Node10 -->
<g id="edge13_Node000010_Node000007" class="edge">
<title>Node7&#45;&gt;Node10</title>
<g id="a_edge13_Node000010_Node000007"><a xlink:title=" ">
<path fill="none" stroke="#9a32cd" stroke-dasharray="5,2" d="M651.5,-148.62C651.5,-130.79 651.5,-104.83 651.5,-91.36"/>
<polygon fill="#9a32cd" stroke="#9a32cd" points="648,-148.72 651.5,-158.72 655,-148.72 648,-148.72"/>
</a>
</g>
<text text-anchor="start" x="654.5" y="-122" font-family="Helvetica,sans-Serif" font-size="10.00" fill="grey">tree</text>
</g>
<!-- Node8 -->
<g id="Node000008" class="node">
<title>Node8</title>
<g id="a_Node000008"><a xlink:title=" ">
<polygon fill="white" stroke="#666666" points="702.5,-271.5 600.5,-271.5 600.5,-252.5 702.5,-252.5 702.5,-271.5"/>
<text text-anchor="middle" x="651.5" y="-259.5" font-family="Helvetica,sans-Serif" font-size="10.00">MenuLayoutNode</text>
</a>
</g>
</g>
<!-- Node8&#45;&gt;Node7 -->
<g id="edge8_Node000007_Node000008" class="edge">
<title>Node8&#45;&gt;Node7</title>
<g id="a_edge8_Node000007_Node000008"><a xlink:title=" ">
<path fill="none" stroke="#9a32cd" stroke-dasharray="5,2" d="M651.5,-242.04C651.5,-222.42 651.5,-192.66 651.5,-178.11"/>
<polygon fill="#9a32cd" stroke="#9a32cd" points="648,-242.23 651.5,-252.23 655,-242.23 648,-242.23"/>
</a>
</g>
<text text-anchor="start" x="655" y="-201.5" font-family="Helvetica,sans-Serif" font-size="10.00" fill="grey">layout</text>
</g>
<!-- Node8&#45;&gt;Node8 -->
<g id="edge9_Node000008_Node000008" class="edge">
<title>Node8&#45;&gt;Node8</title>
<g id="a_edge9_Node000008_Node000008"><a xlink:title=" ">
<path fill="none" stroke="#9a32cd" stroke-dasharray="5,2" d="M691.1,-272.43C707.08,-273.04 720.5,-269.56 720.5,-262 720.5,-252.87 700.92,-249.69 680.93,-252.47"/>
<polygon fill="#9a32cd" stroke="#9a32cd" points="691.2,-268.93 680.93,-271.53 690.58,-275.9 691.2,-268.93"/>
</a>
</g>
<text text-anchor="start" x="723.5" y="-282" font-family="Helvetica,sans-Serif" font-size="10.00" fill="grey">children</text>
<text text-anchor="start" x="723.5" y="-267" font-family="Helvetica,sans-Serif" font-size="10.00" fill="grey">next</text>
<text text-anchor="start" x="723.5" y="-252" font-family="Helvetica,sans-Serif" font-size="10.00" fill="grey">parent</text>
<text text-anchor="start" x="723.5" y="-237" font-family="Helvetica,sans-Serif" font-size="10.00" fill="grey">prev</text>
</g>
<!-- Node9 -->
<g id="Node000009" class="node">
<title>Node9</title>
<g id="a_Node000009"><a xlink:title=" ">
<polygon fill="white" stroke="#666666" points="711.5,-19 577.5,-19 577.5,0 711.5,0 711.5,-19"/>
<text text-anchor="middle" x="644.5" y="-7" font-family="Helvetica,sans-Serif" font-size="10.00">MateMenuTreeDirectory</text>
</a>
</g>
</g>
<!-- Node9&#45;&gt;Node7 -->
<g id="edge10_Node000007_Node000009" class="edge">
<title>Node9&#45;&gt;Node7</title>
<g id="a_edge10_Node000007_Node000009"><a xlink:title=" ">
<path fill="none" stroke="#9a32cd" stroke-dasharray="5,2" d="M704.01,-23.83C709.65,-27.27 714.68,-31.58 718.5,-37 748.41,-79.48 688.11,-137.13 662.37,-158.79"/>
<polygon fill="#9a32cd" stroke="#9a32cd" points="705.21,-20.51 694.71,-19.12 702.05,-26.76 705.21,-20.51"/>
</a>
</g>
<text text-anchor="start" x="728.5" y="-78.5" font-family="Helvetica,sans-Serif" font-size="10.00" fill="grey">root</text>
</g>
<!-- Node9&#45;&gt;Node10 -->
<g id="edge12_Node000010_Node000009" class="edge">
<title>Node9&#45;&gt;Node10</title>
<g id="a_edge12_Node000010_Node000009"><a xlink:title=" ">
<path fill="none" stroke="#9a32cd" stroke-dasharray="5,2" d="M666.27,-25.55C669.61,-28.91 672.58,-32.75 674.5,-37 677.61,-43.89 677.14,-46.92 674.5,-54 671.94,-60.85 666.73,-67.1 661.91,-71.81"/>
<polygon fill="#9a32cd" stroke="#9a32cd" points="668.5,-22.86 658.63,-19.01 663.95,-28.18 668.5,-22.86"/>
</a>
</g>
<text text-anchor="start" x="679.5" y="-42.5" font-family="Helvetica,sans-Serif" font-size="10.00" fill="grey">parent</text>
</g>
<!-- Node10&#45;&gt;Node9 -->
<g id="edge11_Node000009_Node000010" class="edge">
<title>Node10&#45;&gt;Node9</title>
<g id="a_edge11_Node000009_Node000010"><a xlink:title=" ">
<path fill="none" stroke="#9a32cd" stroke-dasharray="5,2" d="M646.77,-61.76C646.26,-59.17 645.81,-56.53 645.5,-54 644.02,-42 644,-28.01 644.19,-19.2"/>
<polygon fill="#9a32cd" stroke="#9a32cd" points="643.41,-62.78 649.05,-71.74 650.24,-61.22 643.41,-62.78"/>
</a>
</g>
<text text-anchor="start" x="649" y="-42.5" font-family="Helvetica,sans-Serif" font-size="10.00" fill="grey">item</text>
</g>
<!-- Node11 -->
<g id="Node000011" class="node">
<title>Node11</title>
<g id="a_Node000011"><a xlink:title=" ">
<polygon fill="white" stroke="#666666" points="439,-91 356,-91 356,-72 439,-72 439,-91"/>
<text text-anchor="middle" x="397.5" y="-79" font-family="Helvetica,sans-Serif" font-size="10.00">DesktopEntry</text>
</a>
</g>
</g>
<!-- Node11&#45;&gt;Node9 -->
<g id="edge14_Node000009_Node000011" class="edge">
<title>Node11&#45;&gt;Node9</title>
<g id="a_edge14_Node000009_Node000011"><a xlink:title=" ">
<path fill="none" stroke="#9a32cd" stroke-dasharray="5,2" d="M406.36,-62.89C411.97,-53.62 420.14,-42.97 430.5,-37 454.83,-22.99 524.12,-16.3 577.33,-13.16"/>
<polygon fill="#9a32cd" stroke="#9a32cd" points="403.21,-61.35 401.44,-71.79 409.34,-64.73 403.21,-61.35"/>
</a>
</g>
<text text-anchor="start" x="434" y="-42.5" font-family="Helvetica,sans-Serif" font-size="10.00" fill="grey">directory_entry</text>
</g>
<!-- Node12 -->
<g id="Node000012" class="node">
<title>Node12</title>
<g id="a_Node000012"><a xlink:href="structMenuLayoutValues.html" target="_top" xlink:title=" ">
<polygon fill="white" stroke="#666666" points="566,-91 457,-91 457,-72 566,-72 566,-91"/>
<text text-anchor="middle" x="511.5" y="-79" font-family="Helvetica,sans-Serif" font-size="10.00">MenuLayoutValues</text>
</a>
</g>
</g>
<!-- Node12&#45;&gt;Node9 -->
<g id="edge15_Node000009_Node000012" class="edge">
<title>Node12&#45;&gt;Node9</title>
<g id="a_edge15_Node000009_Node000012"><a xlink:title=" ">
<path fill="none" stroke="#9a32cd" stroke-dasharray="5,2" d="M513.28,-61.73C515.06,-53.06 518.57,-43.31 525.5,-37 533.99,-29.26 556.65,-23.32 579.96,-19.05"/>
<polygon fill="#9a32cd" stroke="#9a32cd" points="509.79,-61.4 511.83,-71.8 516.72,-62.4 509.79,-61.4"/>
</a>
</g>
<text text-anchor="start" x="529" y="-42.5" font-family="Helvetica,sans-Serif" font-size="10.00" fill="grey">default_layout_values</text>
</g>
</g>
</svg>

<g id="navigator" transform="translate(0 0)" fill="#404254">
  <rect fill="#f2f5e9" fill-opacity="0.5" stroke="#606060" stroke-width=".5" x="0" y="0" width="60" height="60"/>
  <use id="zoomplus" xlink:href="#zoomPlus" x="17" y="9" onmousedown="handleZoom(evt,'in')"/>
  <use id="zoomminus" xlink:href="#zoomMin" x="42" y="9" onmousedown="handleZoom(evt,'out')"/>
  <use id="reset" xlink:href="#resetDef" x="30" y="36" onmousedown="handleReset()"/>
   <use id="arrowup" xlink:href="#arrowUp" x="0" y="0" onmousedown="handlePan(0,-1)"/>
  <use id="arrowright" xlink:href="#arrowRight" x="0" y="0" onmousedown="handlePan(1,0)"/>
  <use id="arrowdown" xlink:href="#arrowDown" x="0" y="0" onmousedown="handlePan(0,1)"/>
  <use id="arrowleft" xlink:href="#arrowLeft" x="0" y="0" onmousedown="handlePan(-1,0)"/>
</g>
<svg viewBox="0 0 15 15" width="100%" height="30px" preserveAspectRatio="xMaxYMin meet">
 <g id="arrow_out" transform="scale(0.3 0.3)">
  <a xlink:href="struct__AppResizer__coll__graph_org.svg" target="_base">
   <rect id="button" ry="5" rx="5" y="6" x="6" height="38" width="38"
        fill="#f2f5e9" fill-opacity="0.5" stroke="#606060" stroke-width="1.0"/>
   <path id="arrow"
     d="M 11.500037,31.436501 C 11.940474,20.09759 22.043105,11.32322 32.158766,21.979434 L 37.068811,17.246167 C 37.068811,17.246167 37.088388,32 37.088388,32 L 22.160133,31.978069 C 22.160133,31.978069 26.997745,27.140456 26.997745,27.140456 C 18.528582,18.264221 13.291696,25.230495 11.500037,31.436501 z"
     style="fill:#404040;"/>
  </a>
 </g>
</svg>

<style type='text/css'>
<![CDATA[
[data-mouse-over-selected='false'] { opacity: 0.7; }
[data-mouse-over-selected='true']  { opacity: 1.0; }
]]>
</style>
<script type="application/ecmascript"><![CDATA[
document.addEventListener('DOMContentLoaded', (event) => {
  highlightEdges();
  highlightAdjacentNodes();
});
]]></script>
</svg>
