<?xml version="1.0" encoding="UTF-8" standalone="no"?>
<!DOCTYPE svg PUBLIC "-//W3C//DTD SVG 1.1//EN"
 "http://www.w3.org/Graphics/SVG/1.1/DTD/svg11.dtd">
<!-- Generated by graphviz version 2.43.0 (0)
 -->
<!-- Title: MateRRConfig Pages: 1 -->
<svg width="642pt" height="417pt"
 viewBox="0.00 0.00 641.50 417.00" xmlns="http://www.w3.org/2000/svg" xmlns:xlink="http://www.w3.org/1999/xlink">
<g id="graph0" class="graph" transform="scale(1 1) rotate(0) translate(4 413)">
<title>MateRRConfig</title>
<!-- Node1 -->
<g id="Node000001" class="node">
<title>Node1</title>
<g id="a_Node000001"><a xlink:title=" ">
<polygon fill="#999999" stroke="#666666" points="112.5,-178 26.5,-178 26.5,-159 112.5,-159 112.5,-178"/>
<text text-anchor="middle" x="69.5" y="-166" font-family="Helvetica,sans-Serif" font-size="10.00">MateRRConfig</text>
</a>
</g>
</g>
<!-- Node2 -->
<g id="Node000002" class="node">
<title>Node2</title>
<g id="a_Node000002"><a xlink:href="structMateRRConfigPrivate.html" target="_top" xlink:title=" ">
<polygon fill="white" stroke="#666666" points="130.5,-265 10.5,-265 10.5,-246 130.5,-246 130.5,-265"/>
<text text-anchor="middle" x="70.5" y="-253" font-family="Helvetica,sans-Serif" font-size="10.00">MateRRConfigPrivate</text>
</a>
</g>
</g>
<!-- Node2&#45;&gt;Node1 -->
<g id="edge1_Node000001_Node000002" class="edge">
<title>Node2&#45;&gt;Node1</title>
<g id="a_edge1_Node000001_Node000002"><a xlink:title=" ">
<path fill="none" stroke="#9a32cd" stroke-dasharray="5,2" d="M70.28,-235.62C70.07,-217.79 69.76,-191.83 69.6,-178.36"/>
<polygon fill="#9a32cd" stroke="#9a32cd" points="66.78,-235.77 70.4,-245.72 73.78,-235.68 66.78,-235.77"/>
</a>
</g>
<text text-anchor="start" x="74" y="-209" font-family="Helvetica,sans-Serif" font-size="10.00" fill="grey">priv</text>
</g>
<!-- Node3 -->
<g id="Node000003" class="node">
<title>Node3</title>
<g id="a_Node000003"><a xlink:href="structMateRRScreen.html" target="_top" xlink:title=" ">
<polygon fill="white" stroke="#666666" points="235.5,-337 147.5,-337 147.5,-318 235.5,-318 235.5,-337"/>
<text text-anchor="middle" x="191.5" y="-325" font-family="Helvetica,sans-Serif" font-size="10.00">MateRRScreen</text>
</a>
</g>
</g>
<!-- Node3&#45;&gt;Node2 -->
<g id="edge2_Node000002_Node000003" class="edge">
<title>Node3&#45;&gt;Node2</title>
<g id="a_edge2_Node000002_Node000003"><a xlink:title=" ">
<path fill="none" stroke="#9a32cd" stroke-dasharray="5,2" d="M163.26,-313.51C155.11,-309.46 146.32,-304.79 138.5,-300 127.66,-293.36 126.1,-290.01 115.5,-283 105.97,-276.7 94.92,-270.18 86.16,-265.19"/>
<polygon fill="#9a32cd" stroke="#9a32cd" points="161.91,-316.74 172.43,-317.95 164.96,-310.44 161.91,-316.74"/>
</a>
</g>
<text text-anchor="start" x="142" y="-288.5" font-family="Helvetica,sans-Serif" font-size="10.00" fill="grey">screen</text>
</g>
<!-- Node5 -->
<g id="Node000005" class="node">
<title>Node5</title>
<g id="a_Node000005"><a xlink:href="structScreenInfo.html" target="_top" xlink:title=" ">
<polygon fill="white" stroke="#666666" points="400.5,-265 332.5,-265 332.5,-246 400.5,-246 400.5,-265"/>
<text text-anchor="middle" x="366.5" y="-253" font-family="Helvetica,sans-Serif" font-size="10.00">ScreenInfo</text>
</a>
</g>
</g>
<!-- Node3&#45;&gt;Node5 -->
<g id="edge16_Node000005_Node000003" class="edge">
<title>Node3&#45;&gt;Node5</title>
<g id="a_edge16_Node000005_Node000003"><a xlink:title=" ">
<path fill="none" stroke="#9a32cd" stroke-dasharray="5,2" d="M222.29,-314.18C257.56,-300.08 314.41,-277.34 345.14,-265.04"/>
<polygon fill="#9a32cd" stroke="#9a32cd" points="220.94,-310.95 212.96,-317.92 223.54,-317.45 220.94,-310.95"/>
</a>
</g>
<text text-anchor="start" x="303" y="-288.5" font-family="Helvetica,sans-Serif" font-size="10.00" fill="grey">screen</text>
</g>
<!-- Node4 -->
<g id="Node000004" class="node">
<title>Node4</title>
<g id="a_Node000004"><a xlink:href="structMateRRScreenPrivate.html" target="_top" xlink:title=" ">
<polygon fill="white" stroke="#666666" points="252.5,-178 130.5,-178 130.5,-159 252.5,-159 252.5,-178"/>
<text text-anchor="middle" x="191.5" y="-166" font-family="Helvetica,sans-Serif" font-size="10.00">MateRRScreenPrivate</text>
</a>
</g>
</g>
<!-- Node4&#45;&gt;Node3 -->
<g id="edge3_Node000003_Node000004" class="edge">
<title>Node4&#45;&gt;Node3</title>
<g id="a_edge3_Node000003_Node000004"><a xlink:title=" ">
<path fill="none" stroke="#9a32cd" stroke-dasharray="5,2" d="M191.5,-188.31C191.5,-222.31 191.5,-292.78 191.5,-317.61"/>
<polygon fill="#9a32cd" stroke="#9a32cd" points="195,-188.29 191.5,-178.29 188,-188.29 195,-188.29"/>
</a>
</g>
<text text-anchor="start" x="195" y="-252.5" font-family="Helvetica,sans-Serif" font-size="10.00" fill="grey">priv</text>
</g>
<!-- Node5&#45;&gt;Node4 -->
<g id="edge4_Node000004_Node000005" class="edge">
<title>Node5&#45;&gt;Node4</title>
<g id="a_edge4_Node000004_Node000005"><a xlink:title=" ">
<path fill="none" stroke="#9a32cd" stroke-dasharray="5,2" d="M322.31,-250.47C299.46,-246.95 271.77,-240.35 249.5,-228 226.74,-215.38 207.02,-191.14 197.53,-178.17"/>
<polygon fill="#9a32cd" stroke="#9a32cd" points="322.04,-253.97 332.43,-251.88 323.01,-247.03 322.04,-253.97"/>
</a>
</g>
<text text-anchor="start" x="253" y="-209" font-family="Helvetica,sans-Serif" font-size="10.00" fill="grey">info</text>
</g>
<!-- Node6 -->
<g id="Node000006" class="node">
<title>Node6</title>
<g id="a_Node000006"><a xlink:title=" ">
<polygon fill="white" stroke="#666666" points="355.5,-106 267.5,-106 267.5,-87 355.5,-87 355.5,-106"/>
<text text-anchor="middle" x="311.5" y="-94" font-family="Helvetica,sans-Serif" font-size="10.00">MateRROutput</text>
</a>
</g>
</g>
<!-- Node5&#45;&gt;Node6 -->
<g id="edge6_Node000006_Node000005" class="edge">
<title>Node5&#45;&gt;Node6</title>
<g id="a_edge6_Node000006_Node000005"><a xlink:title=" ">
<path fill="none" stroke="#9a32cd" stroke-dasharray="5,2" d="M347.85,-238.83C332.71,-224.74 312.59,-202.52 304.5,-178 296.24,-152.95 303.89,-121.28 308.53,-106.22"/>
<polygon fill="#9a32cd" stroke="#9a32cd" points="345.86,-241.74 355.65,-245.79 350.52,-236.52 345.86,-241.74"/>
</a>
</g>
<text text-anchor="start" x="308" y="-165.5" font-family="Helvetica,sans-Serif" font-size="10.00" fill="grey">info</text>
</g>
<!-- Node7 -->
<g id="Node000007" class="node">
<title>Node7</title>
<g id="a_Node000007"><a xlink:title=" ">
<polygon fill="white" stroke="#666666" points="484.5,-19 410.5,-19 410.5,0 484.5,0 484.5,-19"/>
<text text-anchor="middle" x="447.5" y="-7" font-family="Helvetica,sans-Serif" font-size="10.00">MateRRCrtc</text>
</a>
</g>
</g>
<!-- Node5&#45;&gt;Node7 -->
<g id="edge8_Node000007_Node000005" class="edge">
<title>Node5&#45;&gt;Node7</title>
<g id="a_edge8_Node000007_Node000005"><a xlink:title=" ">
<path fill="none" stroke="#9a32cd" stroke-dasharray="5,2" d="M410.79,-254.35C462.03,-253.22 542.12,-248.15 563.5,-228 625.28,-169.78 622.57,-97.97 563.5,-37 552.65,-25.8 514.24,-18.59 484.56,-14.56"/>
<polygon fill="#9a32cd" stroke="#9a32cd" points="410.57,-250.86 400.64,-254.54 410.7,-257.86 410.57,-250.86"/>
</a>
</g>
<text text-anchor="start" x="612" y="-129.5" font-family="Helvetica,sans-Serif" font-size="10.00" fill="grey">info</text>
</g>
<!-- Node8 -->
<g id="Node000008" class="node">
<title>Node8</title>
<g id="a_Node000008"><a xlink:title=" ">
<polygon fill="white" stroke="#666666" points="492.5,-178 410.5,-178 410.5,-159 492.5,-159 492.5,-178"/>
<text text-anchor="middle" x="451.5" y="-166" font-family="Helvetica,sans-Serif" font-size="10.00">MateRRMode</text>
</a>
</g>
</g>
<!-- Node5&#45;&gt;Node8 -->
<g id="edge10_Node000008_Node000005" class="edge">
<title>Node5&#45;&gt;Node8</title>
<g id="a_edge10_Node000008_Node000005"><a xlink:title=" ">
<path fill="none" stroke="#9a32cd" stroke-dasharray="5,2" d="M410.96,-251.93C427.33,-248.56 444.33,-241.68 454.5,-228 465.42,-213.31 459.5,-190.36 455.02,-178.02"/>
<polygon fill="#9a32cd" stroke="#9a32cd" points="410.21,-248.5 400.92,-253.6 411.36,-255.41 410.21,-248.5"/>
</a>
</g>
<text text-anchor="start" x="464" y="-209" font-family="Helvetica,sans-Serif" font-size="10.00" fill="grey">info</text>
</g>
<!-- Node6&#45;&gt;Node5 -->
<g id="edge5_Node000005_Node000006" class="edge">
<title>Node6&#45;&gt;Node5</title>
<g id="a_edge5_Node000005_Node000006"><a xlink:title=" ">
<path fill="none" stroke="#9a32cd" stroke-dasharray="5,2" d="M317.93,-115.87C329.79,-149.7 354.65,-220.67 363.39,-245.61"/>
<polygon fill="#9a32cd" stroke="#9a32cd" points="321.19,-114.57 314.58,-106.29 314.58,-116.89 321.19,-114.57"/>
</a>
</g>
<text text-anchor="start" x="342" y="-165.5" font-family="Helvetica,sans-Serif" font-size="10.00" fill="grey">outputs</text>
</g>
<!-- Node6&#45;&gt;Node6 -->
<g id="edge12_Node000006_Node000006" class="edge">
<title>Node6&#45;&gt;Node6</title>
<g id="a_edge12_Node000006_Node000006"><a xlink:title=" ">
<path fill="none" stroke="#9a32cd" stroke-dasharray="5,2" d="M365.76,-101.8C370.52,-100.68 373.5,-98.92 373.5,-96.5 373.5,-92.63 365.87,-90.43 355.52,-89.88"/>
<polygon fill="#9a32cd" stroke="#9a32cd" points="365,-98.37 355.52,-103.12 365.89,-105.32 365,-98.37"/>
</a>
</g>
<text text-anchor="start" x="376.5" y="-93.5" font-family="Helvetica,sans-Serif" font-size="10.00" fill="grey">clones</text>
</g>
<!-- Node6&#45;&gt;Node7 -->
<g id="edge11_Node000007_Node000006" class="edge">
<title>Node6&#45;&gt;Node7</title>
<g id="a_edge11_Node000007_Node000006"><a xlink:title=" ">
<path fill="none" stroke="#9a32cd" stroke-dasharray="5,2" d="M258.02,-83.42C251.53,-79.8 245.71,-75.1 241.5,-69 233.42,-57.3 232.11,-47.68 241.5,-37 263.05,-12.5 357.11,-9.4 410.37,-9.68"/>
<polygon fill="#9a32cd" stroke="#9a32cd" points="256.66,-86.64 267.2,-87.71 259.62,-80.3 256.66,-86.64"/>
</a>
</g>
<text text-anchor="start" x="245" y="-58" font-family="Helvetica,sans-Serif" font-size="10.00" fill="grey">current_outputs</text>
<text text-anchor="start" x="245" y="-43" font-family="Helvetica,sans-Serif" font-size="10.00" fill="grey">possible_outputs</text>
</g>
<!-- Node7&#45;&gt;Node5 -->
<g id="edge14_Node000005_Node000007" class="edge">
<title>Node7&#45;&gt;Node5</title>
<g id="a_edge14_Node000005_Node000007"><a xlink:title=" ">
<path fill="none" stroke="#9a32cd" stroke-dasharray="5,2" d="M470.72,-24.84C489.99,-38.23 516.03,-60.15 527.5,-87 553.01,-146.68 537.41,-184.21 489.5,-228 476.68,-239.72 432.34,-247.1 400.57,-251.02"/>
<polygon fill="#9a32cd" stroke="#9a32cd" points="472.42,-21.76 462.16,-19.13 468.54,-27.59 472.42,-21.76"/>
</a>
</g>
<text text-anchor="start" x="542.5" y="-129.5" font-family="Helvetica,sans-Serif" font-size="10.00" fill="grey">crtcs</text>
</g>
<!-- Node7&#45;&gt;Node6 -->
<g id="edge7_Node000006_Node000007" class="edge">
<title>Node7&#45;&gt;Node6</title>
<g id="a_edge7_Node000006_Node000007"><a xlink:title=" ">
<path fill="none" stroke="#9a32cd" stroke-dasharray="5,2" d="M400.49,-18.13C385.79,-22.08 370.13,-28.04 357.5,-37 343.21,-47.13 345.36,-55.26 334.5,-69 329.66,-75.12 323.91,-81.74 319.37,-86.84"/>
<polygon fill="#9a32cd" stroke="#9a32cd" points="401.57,-21.47 410.46,-15.7 399.92,-14.67 401.57,-21.47"/>
</a>
</g>
<text text-anchor="start" x="360.5" y="-58" font-family="Helvetica,sans-Serif" font-size="10.00" fill="grey">current_crtc</text>
<text text-anchor="start" x="360.5" y="-43" font-family="Helvetica,sans-Serif" font-size="10.00" fill="grey">possible_crtcs</text>
</g>
<!-- Node8&#45;&gt;Node5 -->
<g id="edge15_Node000005_Node000008" class="edge">
<title>Node8&#45;&gt;Node5</title>
<g id="a_edge15_Node000005_Node000008"><a xlink:title=" ">
<path fill="none" stroke="#9a32cd" stroke-dasharray="5,2" d="M400.73,-180.79C392.74,-184.5 385.23,-189.44 379.5,-196 367.17,-210.1 365.75,-233.29 366,-245.82"/>
<polygon fill="#9a32cd" stroke="#9a32cd" points="402.29,-183.93 410.27,-176.96 399.68,-177.44 402.29,-183.93"/>
</a>
</g>
<text text-anchor="start" x="383" y="-217" font-family="Helvetica,sans-Serif" font-size="10.00" fill="grey">clone_modes</text>
<text text-anchor="start" x="383" y="-202" font-family="Helvetica,sans-Serif" font-size="10.00" fill="grey">modes</text>
</g>
<!-- Node8&#45;&gt;Node6 -->
<g id="edge13_Node000006_Node000008" class="edge">
<title>Node8&#45;&gt;Node6</title>
<g id="a_edge13_Node000006_Node000008"><a xlink:title=" ">
<path fill="none" stroke="#9a32cd" stroke-dasharray="5,2" d="M422.43,-154.81C413.11,-150.59 402.79,-145.75 393.5,-141 379.85,-134.03 377,-131.26 363.5,-124 352.08,-117.86 339.08,-111.23 328.93,-106.14"/>
<polygon fill="#9a32cd" stroke="#9a32cd" points="421.14,-158.07 431.7,-158.96 424,-151.68 421.14,-158.07"/>
</a>
</g>
<text text-anchor="start" x="396.5" y="-129.5" font-family="Helvetica,sans-Serif" font-size="10.00" fill="grey">modes</text>
</g>
<!-- Node8&#45;&gt;Node7 -->
<g id="edge9_Node000007_Node000008" class="edge">
<title>Node8&#45;&gt;Node7</title>
<g id="a_edge9_Node000007_Node000008"><a xlink:title=" ">
<path fill="none" stroke="#9a32cd" stroke-dasharray="5,2" d="M451.02,-148.56C450.15,-114.46 448.35,-44 447.72,-19.29"/>
<polygon fill="#9a32cd" stroke="#9a32cd" points="447.52,-148.7 451.27,-158.61 454.52,-148.52 447.52,-148.7"/>
</a>
</g>
<text text-anchor="start" x="452.5" y="-93.5" font-family="Helvetica,sans-Serif" font-size="10.00" fill="grey">current_mode</text>
</g>
<!-- Node9 -->
<g id="Node000009" class="node">
<title>Node9</title>
<g id="a_Node000009"><a xlink:href="structMateRROutputInfo.html" target="_top" xlink:title=" ">
<polygon fill="white" stroke="#666666" points="124,-337 17,-337 17,-318 124,-318 124,-337"/>
<text text-anchor="middle" x="70.5" y="-325" font-family="Helvetica,sans-Serif" font-size="10.00">MateRROutputInfo</text>
</a>
</g>
</g>
<!-- Node9&#45;&gt;Node2 -->
<g id="edge17_Node000002_Node000009" class="edge">
<title>Node9&#45;&gt;Node2</title>
<g id="a_edge17_Node000002_Node000009"><a xlink:title=" ">
<path fill="none" stroke="#9a32cd" stroke-dasharray="5,2" d="M70.5,-307.58C70.5,-293.76 70.5,-275.68 70.5,-265.15"/>
<polygon fill="#9a32cd" stroke="#9a32cd" points="67,-307.92 70.5,-317.92 74,-307.92 67,-307.92"/>
</a>
</g>
<text text-anchor="start" x="74" y="-288.5" font-family="Helvetica,sans-Serif" font-size="10.00" fill="grey">outputs</text>
</g>
<!-- Node10 -->
<g id="Node000010" class="node">
<title>Node10</title>
<g id="a_Node000010"><a xlink:href="structMateRROutputInfoPrivate.html" target="_top" xlink:title=" ">
<polygon fill="white" stroke="#666666" points="141,-409 0,-409 0,-390 141,-390 141,-409"/>
<text text-anchor="middle" x="70.5" y="-397" font-family="Helvetica,sans-Serif" font-size="10.00">MateRROutputInfoPrivate</text>
</a>
</g>
</g>
<!-- Node10&#45;&gt;Node9 -->
<g id="edge18_Node000009_Node000010" class="edge">
<title>Node10&#45;&gt;Node9</title>
<g id="a_edge18_Node000009_Node000010"><a xlink:title=" ">
<path fill="none" stroke="#9a32cd" stroke-dasharray="5,2" d="M70.5,-379.58C70.5,-365.76 70.5,-347.68 70.5,-337.15"/>
<polygon fill="#9a32cd" stroke="#9a32cd" points="67,-379.92 70.5,-389.92 74,-379.92 67,-379.92"/>
</a>
</g>
<text text-anchor="start" x="74" y="-360.5" font-family="Helvetica,sans-Serif" font-size="10.00" fill="grey">priv</text>
</g>
</g>
</svg>
