<?xml version="1.0" encoding="UTF-8" standalone="no"?>
<!DOCTYPE svg PUBLIC "-//W3C//DTD SVG 1.1//EN"
 "http://www.w3.org/Graphics/SVG/1.1/DTD/svg11.dtd">
<!-- Generated by graphviz version 2.43.0 (0)
 -->
<!-- Title: CajaFileOperation Pages: 1 -->
<svg width="1474pt" height="1081pt"
 viewBox="0.00 0.00 1474.00 1080.51" xmlns="http://www.w3.org/2000/svg" xmlns:xlink="http://www.w3.org/1999/xlink">
<g id="graph0" class="graph" transform="scale(1 1) rotate(0) translate(4 1076.51)">
<title>CajaFileOperation</title>
<!-- Node1 -->
<g id="Node000001" class="node">
<title>Node1</title>
<g id="a_Node000001"><a xlink:title=" ">
<polygon fill="#999999" stroke="#666666" points="861.5,-936.01 757.5,-936.01 757.5,-917.01 861.5,-917.01 861.5,-936.01"/>
<text text-anchor="middle" x="809.5" y="-924.01" font-family="Helvetica,sans-Serif" font-size="10.00">CajaFileOperation</text>
</a>
</g>
</g>
<!-- Node2 -->
<g id="Node000002" class="node">
<title>Node2</title>
<g id="a_Node000002"><a xlink:href="structCajaFile.html" target="_top" xlink:title=" ">
<polygon fill="white" stroke="#666666" points="562,-579.01 506,-579.01 506,-560.01 562,-560.01 562,-579.01"/>
<text text-anchor="middle" x="534" y="-567.01" font-family="Helvetica,sans-Serif" font-size="10.00">CajaFile</text>
</a>
</g>
</g>
<!-- Node2&#45;&gt;Node1 -->
<g id="edge1_Node000001_Node000002" class="edge">
<title>Node2&#45;&gt;Node1</title>
<g id="a_edge1_Node000001_Node000002"><a xlink:title=" ">
<path fill="none" stroke="#9a32cd" stroke-dasharray="5,2" d="M534.5,-589.11C534.24,-643.68 541.44,-798.52 627,-877.51 661.39,-909.26 684.9,-886.98 730,-899.51 748.05,-904.52 768.01,-911.41 783.29,-916.97"/>
<polygon fill="#9a32cd" stroke="#9a32cd" points="538,-589.1 534.64,-579.05 531,-589 538,-589.1"/>
</a>
</g>
<text text-anchor="start" x="658.5" y="-920.51" font-family="Helvetica,sans-Serif" font-size="10.00" fill="grey">callback</text>
<text text-anchor="start" x="658.5" y="-905.51" font-family="Helvetica,sans-Serif" font-size="10.00" fill="grey">file</text>
</g>
<!-- Node5 -->
<g id="Node000005" class="node">
<title>Node5</title>
<g id="a_Node000005"><a xlink:href="struct__CajaDirectoryPrivate.html" target="_top" xlink:title=" ">
<polygon fill="white" stroke="#666666" points="871,-463.01 748,-463.01 748,-444.01 871,-444.01 871,-463.01"/>
<text text-anchor="middle" x="809.5" y="-451.01" font-family="Helvetica,sans-Serif" font-size="10.00">_CajaDirectoryPrivate</text>
</a>
</g>
</g>
<!-- Node2&#45;&gt;Node5 -->
<g id="edge5_Node000005_Node000002" class="edge">
<title>Node2&#45;&gt;Node5</title>
<g id="a_edge5_Node000005_Node000002"><a xlink:title=" ">
<path fill="none" stroke="#9a32cd" stroke-dasharray="5,2" d="M550.58,-552.58C567.64,-535.08 596.64,-508.31 627,-493.51 628.57,-492.74 711.38,-474.64 764.59,-463.06"/>
<polygon fill="#9a32cd" stroke="#9a32cd" points="547.98,-550.23 543.61,-559.88 553.05,-555.06 547.98,-550.23"/>
</a>
</g>
<text text-anchor="start" x="632.5" y="-544.51" font-family="Helvetica,sans-Serif" font-size="10.00" fill="grey">as_file</text>
<text text-anchor="start" x="632.5" y="-529.51" font-family="Helvetica,sans-Serif" font-size="10.00" fill="grey">deep_count_file</text>
<text text-anchor="start" x="632.5" y="-514.51" font-family="Helvetica,sans-Serif" font-size="10.00" fill="grey">extension_info_file</text>
<text text-anchor="start" x="632.5" y="-499.51" font-family="Helvetica,sans-Serif" font-size="10.00" fill="grey">get_info_file</text>
</g>
<!-- Node8 -->
<g id="Node000008" class="node">
<title>Node8</title>
<g id="a_Node000008"><a xlink:title=" ">
<polygon fill="white" stroke="#666666" points="1460,-159.01 1350,-159.01 1350,-140.01 1460,-140.01 1460,-159.01"/>
<text text-anchor="middle" x="1405" y="-147.01" font-family="Helvetica,sans-Serif" font-size="10.00">DirectoryLoadState</text>
</a>
</g>
</g>
<!-- Node2&#45;&gt;Node8 -->
<g id="edge10_Node000008_Node000002" class="edge">
<title>Node2&#45;&gt;Node8</title>
<g id="a_edge10_Node000008_Node000002"><a xlink:title=" ">
<path fill="none" stroke="#9a32cd" stroke-dasharray="5,2" d="M552.31,-552.71C569.99,-534.35 596.56,-503.17 609,-470.51 625.59,-426.95 600.81,-300.07 627,-261.51 700.14,-153.81 762.29,-160.42 889,-130.51 1058.8,-90.42 1268.73,-122.43 1359.14,-139.96"/>
<polygon fill="#9a32cd" stroke="#9a32cd" points="549.66,-550.41 545.12,-559.98 554.64,-555.33 549.66,-550.41"/>
</a>
</g>
<text text-anchor="start" x="892.5" y="-136.01" font-family="Helvetica,sans-Serif" font-size="10.00" fill="grey">load_directory_file</text>
</g>
<!-- Node9 -->
<g id="Node000009" class="node">
<title>Node9</title>
<g id="a_Node000009"><a xlink:title=" ">
<polygon fill="white" stroke="#666666" points="1463,-64.01 1347,-64.01 1347,-45.01 1463,-45.01 1463,-64.01"/>
<text text-anchor="middle" x="1405" y="-52.01" font-family="Helvetica,sans-Serif" font-size="10.00">DirectoryCountState</text>
</a>
</g>
</g>
<!-- Node2&#45;&gt;Node9 -->
<g id="edge13_Node000009_Node000002" class="edge">
<title>Node2&#45;&gt;Node9</title>
<g id="a_edge13_Node000009_Node000002"><a xlink:title=" ">
<path fill="none" stroke="#9a32cd" stroke-dasharray="5,2" d="M553.01,-552.23C570.83,-533.86 597.11,-503.02 609,-470.51 632.17,-407.16 589.77,-223.75 627,-167.51 791.23,80.56 1240.18,-12.22 1369.01,-44.97"/>
<polygon fill="#9a32cd" stroke="#9a32cd" points="550.08,-550.21 545.5,-559.76 555.04,-555.15 550.08,-550.21"/>
</a>
</g>
<text text-anchor="start" x="913.5" y="-18.01" font-family="Helvetica,sans-Serif" font-size="10.00" fill="grey">count_file</text>
</g>
<!-- Node11 -->
<g id="Node000011" class="node">
<title>Node11</title>
<g id="a_Node000011"><a xlink:title=" ">
<polygon fill="white" stroke="#666666" points="1448.5,-949.01 1361.5,-949.01 1361.5,-930.01 1448.5,-930.01 1448.5,-949.01"/>
<text text-anchor="middle" x="1405" y="-937.01" font-family="Helvetica,sans-Serif" font-size="10.00">MimeListState</text>
</a>
</g>
</g>
<!-- Node2&#45;&gt;Node11 -->
<g id="edge18_Node000011_Node000002" class="edge">
<title>Node2&#45;&gt;Node11</title>
<g id="a_edge18_Node000011_Node000002"><a xlink:title=" ">
<path fill="none" stroke="#9a32cd" stroke-dasharray="5,2" d="M538.11,-589.21C550.41,-666.01 596.51,-942.28 627,-966.51 864.49,-1155.26 1283.86,-991.78 1382.71,-949.06"/>
<polygon fill="#9a32cd" stroke="#9a32cd" points="541.51,-588.35 536.49,-579.02 534.6,-589.45 541.51,-588.35"/>
</a>
</g>
<text text-anchor="start" x="902.5" y="-1061.01" font-family="Helvetica,sans-Serif" font-size="10.00" fill="grey">mime_list_file</text>
</g>
<!-- Node13 -->
<g id="Node000013" class="node">
<title>Node13</title>
<g id="a_Node000013"><a xlink:title=" ">
<polygon fill="white" stroke="#666666" points="1452,-859.01 1358,-859.01 1358,-840.01 1452,-840.01 1452,-859.01"/>
<text text-anchor="middle" x="1405" y="-847.01" font-family="Helvetica,sans-Serif" font-size="10.00">ThumbnailState</text>
</a>
</g>
</g>
<!-- Node2&#45;&gt;Node13 -->
<g id="edge23_Node000013_Node000002" class="edge">
<title>Node2&#45;&gt;Node13</title>
<g id="a_edge23_Node000013_Node000002"><a xlink:title=" ">
<path fill="none" stroke="#9a32cd" stroke-dasharray="5,2" d="M552.27,-586.19C610.05,-640.58 804.27,-811.99 1004,-859.51 1129.19,-889.29 1282.66,-870.74 1357.92,-858.2"/>
<polygon fill="#9a32cd" stroke="#9a32cd" points="554.41,-583.4 544.75,-579.04 549.59,-588.47 554.41,-583.4"/>
</a>
</g>
<text text-anchor="start" x="929.5" y="-860.01" font-family="Helvetica,sans-Serif" font-size="10.00" fill="grey">file</text>
</g>
<!-- Node14 -->
<g id="Node000014" class="node">
<title>Node14</title>
<g id="a_Node000014"><a xlink:title=" ">
<polygon fill="white" stroke="#666666" points="1441.5,-664.01 1368.5,-664.01 1368.5,-645.01 1441.5,-645.01 1441.5,-664.01"/>
<text text-anchor="middle" x="1405" y="-652.01" font-family="Helvetica,sans-Serif" font-size="10.00">MountState</text>
</a>
</g>
</g>
<!-- Node2&#45;&gt;Node14 -->
<g id="edge26_Node000014_Node000002" class="edge">
<title>Node2&#45;&gt;Node14</title>
<g id="a_edge26_Node000014_Node000002"><a xlink:title=" ">
<path fill="none" stroke="#9a32cd" stroke-dasharray="5,2" d="M572.28,-575.48C588.99,-578.08 608.97,-581.09 627,-583.51 794.19,-605.98 836.07,-611.51 1004,-627.51 1082.08,-634.95 1101.75,-635.17 1180,-640.51 1246.48,-645.04 1324.09,-649.77 1368.3,-652.4"/>
<polygon fill="#9a32cd" stroke="#9a32cd" points="572.76,-572.02 562.34,-573.92 571.68,-578.93 572.76,-572.02"/>
</a>
</g>
<text text-anchor="start" x="929.5" y="-632.01" font-family="Helvetica,sans-Serif" font-size="10.00" fill="grey">file</text>
</g>
<!-- Node15 -->
<g id="Node000015" class="node">
<title>Node15</title>
<g id="a_Node000015"><a xlink:title=" ">
<polygon fill="white" stroke="#666666" points="1462,-574.01 1348,-574.01 1348,-555.01 1462,-555.01 1462,-574.01"/>
<text text-anchor="middle" x="1405" y="-562.01" font-family="Helvetica,sans-Serif" font-size="10.00">FilesystemInfoState</text>
</a>
</g>
</g>
<!-- Node2&#45;&gt;Node15 -->
<g id="edge29_Node000015_Node000002" class="edge">
<title>Node2&#45;&gt;Node15</title>
<g id="a_edge29_Node000015_Node000002"><a xlink:title=" ">
<path fill="none" stroke="#9a32cd" stroke-dasharray="5,2" d="M572.45,-569.29C709.49,-568.51 1184.13,-565.77 1347.91,-564.83"/>
<polygon fill="#9a32cd" stroke="#9a32cd" points="572.42,-565.79 562.44,-569.35 572.46,-572.79 572.42,-565.79"/>
</a>
</g>
<text text-anchor="start" x="929.5" y="-573.01" font-family="Helvetica,sans-Serif" font-size="10.00" fill="grey">file</text>
</g>
<!-- Node16 -->
<g id="Node000016" class="node">
<title>Node16</title>
<g id="a_Node000016"><a xlink:title=" ">
<polygon fill="white" stroke="#666666" points="1466,-339.01 1344,-339.01 1344,-320.01 1466,-320.01 1466,-339.01"/>
<text text-anchor="middle" x="1405" y="-327.01" font-family="Helvetica,sans-Serif" font-size="10.00">TopLeftTextReadState</text>
</a>
</g>
</g>
<!-- Node2&#45;&gt;Node16 -->
<g id="edge32_Node000016_Node000002" class="edge">
<title>Node2&#45;&gt;Node16</title>
<g id="a_edge32_Node000016_Node000002"><a xlink:title=" ">
<path fill="none" stroke="#9a32cd" stroke-dasharray="5,2" d="M551.61,-552.42C568.7,-533.82 594.79,-502.45 609,-470.51 625.76,-432.84 596.01,-406.7 627,-379.51 680.44,-332.62 1170.77,-329.03 1343.85,-329.24"/>
<polygon fill="#9a32cd" stroke="#9a32cd" points="548.97,-550.12 544.68,-559.8 554.07,-554.91 548.97,-550.12"/>
</a>
</g>
<text text-anchor="start" x="929.5" y="-345.01" font-family="Helvetica,sans-Serif" font-size="10.00" fill="grey">file</text>
</g>
<!-- Node17 -->
<g id="Node000017" class="node">
<title>Node17</title>
<g id="a_Node000017"><a xlink:title=" ">
<polygon fill="white" stroke="#666666" points="1458,-249.01 1352,-249.01 1352,-230.01 1458,-230.01 1458,-249.01"/>
<text text-anchor="middle" x="1405" y="-237.01" font-family="Helvetica,sans-Serif" font-size="10.00">LinkInfoReadState</text>
</a>
</g>
</g>
<!-- Node2&#45;&gt;Node17 -->
<g id="edge35_Node000017_Node000002" class="edge">
<title>Node2&#45;&gt;Node17</title>
<g id="a_edge35_Node000017_Node000002"><a xlink:title=" ">
<path fill="none" stroke="#9a32cd" stroke-dasharray="5,2" d="M551.91,-552.55C569.26,-534.06 595.56,-502.78 609,-470.51 629.91,-420.32 594.34,-392.97 627,-349.51 703.95,-247.12 763.86,-256.8 889,-229.51 1054.79,-193.35 1257.75,-216.29 1351.69,-230.58"/>
<polygon fill="#9a32cd" stroke="#9a32cd" points="549.27,-550.25 544.87,-559.88 554.32,-555.1 549.27,-550.25"/>
</a>
</g>
<text text-anchor="start" x="929.5" y="-235.01" font-family="Helvetica,sans-Serif" font-size="10.00" fill="grey">file</text>
</g>
<!-- Node3 -->
<g id="Node000003" class="node">
<title>Node3</title>
<g id="a_Node000003"><a xlink:href="struct__CajaFilePrivate.html" target="_top" xlink:title=" ">
<polygon fill="white" stroke="#666666" points="1452.5,-754.01 1357.5,-754.01 1357.5,-735.01 1452.5,-735.01 1452.5,-754.01"/>
<text text-anchor="middle" x="1405" y="-742.01" font-family="Helvetica,sans-Serif" font-size="10.00">_CajaFilePrivate</text>
</a>
</g>
</g>
<!-- Node3&#45;&gt;Node2 -->
<g id="edge2_Node000002_Node000003" class="edge">
<title>Node3&#45;&gt;Node2</title>
<g id="a_edge2_Node000002_Node000003"><a xlink:title=" ">
<path fill="none" stroke="#9a32cd" stroke-dasharray="5,2" d="M1347.3,-743.11C1269.62,-740.74 1125.85,-734.71 1004,-720.51 829.87,-700.21 791.23,-665.83 627,-604.51 604.27,-596.02 578.45,-586.18 559.96,-579.1"/>
<polygon fill="#9a32cd" stroke="#9a32cd" points="1347.25,-746.61 1357.35,-743.41 1347.46,-739.61 1347.25,-746.61"/>
</a>
</g>
<text text-anchor="start" x="920.5" y="-724.01" font-family="Helvetica,sans-Serif" font-size="10.00" fill="grey">details</text>
</g>
<!-- Node4 -->
<g id="Node000004" class="node">
<title>Node4</title>
<g id="a_Node000004"><a xlink:href="structCajaDirectory.html" target="_top" xlink:title=" ">
<polygon fill="white" stroke="#666666" points="1124.5,-463.01 1041.5,-463.01 1041.5,-444.01 1124.5,-444.01 1124.5,-463.01"/>
<text text-anchor="middle" x="1083" y="-451.01" font-family="Helvetica,sans-Serif" font-size="10.00">CajaDirectory</text>
</a>
</g>
</g>
<!-- Node4&#45;&gt;Node3 -->
<g id="edge3_Node000003_Node000004" class="edge">
<title>Node4&#45;&gt;Node3</title>
<g id="a_edge3_Node000003_Node000004"><a xlink:title=" ">
<path fill="none" stroke="#9a32cd" stroke-dasharray="5,2" d="M1134.44,-459.82C1144.94,-463.42 1154.95,-468.98 1162,-477.51 1208.72,-534.02 1137.12,-582.03 1180,-641.51 1192.61,-659 1324.15,-712.77 1379.58,-734.87"/>
<polygon fill="#9a32cd" stroke="#9a32cd" points="1135.3,-456.42 1124.72,-457.02 1133.37,-463.15 1135.3,-456.42"/>
</a>
</g>
<text text-anchor="start" x="1231" y="-718.01" font-family="Helvetica,sans-Serif" font-size="10.00" fill="grey">directory</text>
</g>
<!-- Node4&#45;&gt;Node8 -->
<g id="edge9_Node000008_Node000004" class="edge">
<title>Node4&#45;&gt;Node8</title>
<g id="a_edge9_Node000008_Node000004"><a xlink:title=" ">
<path fill="none" stroke="#9a32cd" stroke-dasharray="5,2" d="M1131.99,-440.01C1143.53,-434.53 1154.63,-426.94 1162,-416.51 1207.36,-352.28 1132.83,-303.42 1180,-240.51 1203.48,-209.19 1311.63,-175.21 1368.63,-159.06"/>
<polygon fill="#9a32cd" stroke="#9a32cd" points="1130.53,-436.83 1122.7,-443.97 1133.27,-443.26 1130.53,-436.83"/>
</a>
</g>
<text text-anchor="start" x="1231" y="-246.01" font-family="Helvetica,sans-Serif" font-size="10.00" fill="grey">directory</text>
</g>
<!-- Node4&#45;&gt;Node9 -->
<g id="edge12_Node000009_Node000004" class="edge">
<title>Node4&#45;&gt;Node9</title>
<g id="a_edge12_Node000009_Node000004"><a xlink:title=" ">
<path fill="none" stroke="#9a32cd" stroke-dasharray="5,2" d="M1132.54,-440.02C1143.97,-434.55 1154.88,-426.97 1162,-416.51 1195.1,-367.91 1146.16,-200.6 1180,-152.51 1218.42,-97.92 1294.15,-73.42 1346.87,-62.64"/>
<polygon fill="#9a32cd" stroke="#9a32cd" points="1131.15,-436.81 1123.34,-443.97 1133.91,-443.24 1131.15,-436.81"/>
</a>
</g>
<text text-anchor="start" x="1231" y="-158.01" font-family="Helvetica,sans-Serif" font-size="10.00" fill="grey">directory</text>
</g>
<!-- Node10 -->
<g id="Node000010" class="node">
<title>Node10</title>
<g id="a_Node000010"><a xlink:title=" ">
<polygon fill="white" stroke="#666666" points="1453,-493.01 1357,-493.01 1357,-474.01 1453,-474.01 1453,-493.01"/>
<text text-anchor="middle" x="1405" y="-481.01" font-family="Helvetica,sans-Serif" font-size="10.00">DeepCountState</text>
</a>
</g>
</g>
<!-- Node4&#45;&gt;Node10 -->
<g id="edge15_Node000010_Node000004" class="edge">
<title>Node4&#45;&gt;Node10</title>
<g id="a_edge15_Node000010_Node000004"><a xlink:title=" ">
<path fill="none" stroke="#9a32cd" stroke-dasharray="5,2" d="M1134.88,-454.77C1183.97,-456.43 1260.31,-460.19 1326,-468.51 1336.94,-469.89 1348.67,-471.88 1359.61,-473.95"/>
<polygon fill="#9a32cd" stroke="#9a32cd" points="1134.93,-451.27 1124.83,-454.45 1134.71,-458.27 1134.93,-451.27"/>
</a>
</g>
<text text-anchor="start" x="1231" y="-474.01" font-family="Helvetica,sans-Serif" font-size="10.00" fill="grey">directory</text>
</g>
<!-- Node4&#45;&gt;Node11 -->
<g id="edge17_Node000011_Node000004" class="edge">
<title>Node4&#45;&gt;Node11</title>
<g id="a_edge17_Node000011_Node000004"><a xlink:title=" ">
<path fill="none" stroke="#9a32cd" stroke-dasharray="5,2" d="M1134.5,-459.41C1145.11,-463.03 1155.14,-468.69 1162,-477.51 1211.45,-541.09 1134.5,-773.05 1180,-839.51 1186.13,-848.47 1324.73,-906.65 1380.79,-929.92"/>
<polygon fill="#9a32cd" stroke="#9a32cd" points="1135.26,-455.99 1124.68,-456.64 1133.35,-462.72 1135.26,-455.99"/>
</a>
</g>
<text text-anchor="start" x="1231" y="-911.01" font-family="Helvetica,sans-Serif" font-size="10.00" fill="grey">directory</text>
</g>
<!-- Node12 -->
<g id="Node000012" class="node">
<title>Node12</title>
<g id="a_Node000012"><a xlink:title=" ">
<polygon fill="white" stroke="#666666" points="1444,-420.01 1366,-420.01 1366,-401.01 1444,-401.01 1444,-420.01"/>
<text text-anchor="middle" x="1405" y="-408.01" font-family="Helvetica,sans-Serif" font-size="10.00">GetInfoState</text>
</a>
</g>
</g>
<!-- Node4&#45;&gt;Node12 -->
<g id="edge20_Node000012_Node000004" class="edge">
<title>Node4&#45;&gt;Node12</title>
<g id="a_edge20_Node000012_Node000004"><a xlink:title=" ">
<path fill="none" stroke="#9a32cd" stroke-dasharray="5,2" d="M1134.45,-443.99C1149.11,-441.38 1165.17,-438.68 1180,-436.51 1245.08,-426.98 1321.21,-418.76 1365.86,-414.24"/>
<polygon fill="#9a32cd" stroke="#9a32cd" points="1133.77,-440.56 1124.55,-445.77 1135.01,-447.45 1133.77,-440.56"/>
</a>
</g>
<text text-anchor="start" x="1231" y="-442.01" font-family="Helvetica,sans-Serif" font-size="10.00" fill="grey">directory</text>
</g>
<!-- Node4&#45;&gt;Node13 -->
<g id="edge22_Node000013_Node000004" class="edge">
<title>Node4&#45;&gt;Node13</title>
<g id="a_edge22_Node000013_Node000004"><a xlink:title=" ">
<path fill="none" stroke="#9a32cd" stroke-dasharray="5,2" d="M1134.46,-459.45C1145.06,-463.06 1155.11,-468.71 1162,-477.51 1205.38,-532.88 1133.14,-741.05 1180,-793.51 1223.86,-842.61 1262.62,-800.7 1326,-818.51 1345.92,-824.11 1367.74,-833.03 1383.22,-839.87"/>
<polygon fill="#9a32cd" stroke="#9a32cd" points="1135.21,-456.02 1124.64,-456.67 1133.31,-462.76 1135.21,-456.02"/>
</a>
</g>
<text text-anchor="start" x="1231" y="-824.01" font-family="Helvetica,sans-Serif" font-size="10.00" fill="grey">directory</text>
</g>
<!-- Node4&#45;&gt;Node14 -->
<g id="edge25_Node000014_Node000004" class="edge">
<title>Node4&#45;&gt;Node14</title>
<g id="a_edge25_Node000014_Node000004"><a xlink:title=" ">
<path fill="none" stroke="#9a32cd" stroke-dasharray="5,2" d="M1134.65,-460.78C1144.85,-464.36 1154.67,-469.66 1162,-477.51 1185.98,-503.2 1157.62,-527.41 1180,-554.51 1186.92,-562.88 1325.05,-621.41 1380.88,-644.84"/>
<polygon fill="#9a32cd" stroke="#9a32cd" points="1135.41,-457.35 1124.82,-457.85 1133.41,-464.06 1135.41,-457.35"/>
</a>
</g>
<text text-anchor="start" x="1231" y="-626.01" font-family="Helvetica,sans-Serif" font-size="10.00" fill="grey">directory</text>
</g>
<!-- Node4&#45;&gt;Node15 -->
<g id="edge28_Node000015_Node000004" class="edge">
<title>Node4&#45;&gt;Node15</title>
<g id="a_edge28_Node000015_Node000004"><a xlink:title=" ">
<path fill="none" stroke="#9a32cd" stroke-dasharray="5,2" d="M1132.68,-466.1C1142.58,-469.32 1152.78,-473.13 1162,-477.51 1170.69,-481.63 1171.3,-485.41 1180,-489.51 1241.31,-518.4 1262.01,-511.2 1326,-533.51 1344.85,-540.08 1365.86,-548.5 1381.33,-554.9"/>
<polygon fill="#9a32cd" stroke="#9a32cd" points="1133.51,-462.69 1122.92,-463.08 1131.44,-469.38 1133.51,-462.69"/>
</a>
</g>
<text text-anchor="start" x="1231" y="-539.01" font-family="Helvetica,sans-Serif" font-size="10.00" fill="grey">directory</text>
</g>
<!-- Node4&#45;&gt;Node16 -->
<g id="edge31_Node000016_Node000004" class="edge">
<title>Node4&#45;&gt;Node16</title>
<g id="a_edge31_Node000016_Node000004"><a xlink:title=" ">
<path fill="none" stroke="#9a32cd" stroke-dasharray="5,2" d="M1119.09,-439.93C1133.04,-433.77 1148.86,-425.77 1162,-416.51 1171.25,-409.99 1170.31,-404.35 1180,-398.51 1232.11,-367.12 1299.75,-348.86 1347.01,-339.1"/>
<polygon fill="#9a32cd" stroke="#9a32cd" points="1117.62,-436.76 1109.79,-443.9 1120.36,-443.2 1117.62,-436.76"/>
</a>
</g>
<text text-anchor="start" x="1231" y="-404.01" font-family="Helvetica,sans-Serif" font-size="10.00" fill="grey">directory</text>
</g>
<!-- Node4&#45;&gt;Node17 -->
<g id="edge34_Node000017_Node000004" class="edge">
<title>Node4&#45;&gt;Node17</title>
<g id="a_edge34_Node000017_Node000004"><a xlink:title=" ">
<path fill="none" stroke="#9a32cd" stroke-dasharray="5,2" d="M1130.41,-440.01C1142.29,-434.49 1153.96,-426.88 1162,-416.51 1187.8,-383.24 1152.83,-355.67 1180,-323.51 1204.53,-294.48 1308.45,-264.03 1365.73,-249.02"/>
<polygon fill="#9a32cd" stroke="#9a32cd" points="1128.78,-436.9 1120.91,-444 1131.49,-443.35 1128.78,-436.9"/>
</a>
</g>
<text text-anchor="start" x="1231" y="-329.01" font-family="Helvetica,sans-Serif" font-size="10.00" fill="grey">directory</text>
</g>
<!-- Node5&#45;&gt;Node4 -->
<g id="edge4_Node000004_Node000005" class="edge">
<title>Node5&#45;&gt;Node4</title>
<g id="a_edge4_Node000004_Node000005"><a xlink:title=" ">
<path fill="none" stroke="#9a32cd" stroke-dasharray="5,2" d="M881.38,-453.51C932.31,-453.51 999.16,-453.51 1041.37,-453.51"/>
<polygon fill="#9a32cd" stroke="#9a32cd" points="881.09,-450.01 871.09,-453.51 881.09,-457.01 881.09,-450.01"/>
</a>
</g>
<text text-anchor="start" x="920.5" y="-459.01" font-family="Helvetica,sans-Serif" font-size="10.00" fill="grey">details</text>
</g>
<!-- Node6 -->
<g id="Node000006" class="node">
<title>Node6</title>
<g id="a_Node000006"><a xlink:title=" ">
<polygon fill="white" stroke="#666666" points="577.5,-392.01 490.5,-392.01 490.5,-373.01 577.5,-373.01 577.5,-392.01"/>
<text text-anchor="middle" x="534" y="-380.01" font-family="Helvetica,sans-Serif" font-size="10.00">CajaFileQueue</text>
</a>
</g>
</g>
<!-- Node6&#45;&gt;Node5 -->
<g id="edge6_Node000005_Node000006" class="edge">
<title>Node6&#45;&gt;Node5</title>
<g id="a_edge6_Node000005_Node000006"><a xlink:title=" ">
<path fill="none" stroke="#9a32cd" stroke-dasharray="5,2" d="M587.8,-381.28C627.89,-381.92 683.8,-386.21 730,-402.51 756.36,-411.81 782.74,-431.63 797.21,-443.64"/>
<polygon fill="#9a32cd" stroke="#9a32cd" points="587.74,-377.78 577.71,-381.19 587.68,-384.78 587.74,-377.78"/>
</a>
</g>
<text text-anchor="start" x="630.5" y="-438.01" font-family="Helvetica,sans-Serif" font-size="10.00" fill="grey">extension_queue</text>
<text text-anchor="start" x="630.5" y="-423.01" font-family="Helvetica,sans-Serif" font-size="10.00" fill="grey">high_priority_queue</text>
<text text-anchor="start" x="630.5" y="-408.01" font-family="Helvetica,sans-Serif" font-size="10.00" fill="grey">low_priority_queue</text>
</g>
<!-- Node7 -->
<g id="Node000007" class="node">
<title>Node7</title>
<g id="a_Node000007"><a xlink:title=" ">
<polygon fill="white" stroke="#666666" points="572,-462.01 496,-462.01 496,-443.01 572,-443.01 572,-462.01"/>
<text text-anchor="middle" x="534" y="-450.01" font-family="Helvetica,sans-Serif" font-size="10.00">CajaMonitor</text>
</a>
</g>
</g>
<!-- Node7&#45;&gt;Node5 -->
<g id="edge7_Node000005_Node000007" class="edge">
<title>Node7&#45;&gt;Node5</title>
<g id="a_edge7_Node000005_Node000007"><a xlink:title=" ">
<path fill="none" stroke="#9a32cd" stroke-dasharray="5,2" d="M582.43,-452.68C628.27,-452.85 697.92,-453.1 747.79,-453.29"/>
<polygon fill="#9a32cd" stroke="#9a32cd" points="582.18,-449.18 572.17,-452.65 582.16,-456.18 582.18,-449.18"/>
</a>
</g>
<text text-anchor="start" x="659.5" y="-459.01" font-family="Helvetica,sans-Serif" font-size="10.00" fill="grey">monitor</text>
</g>
<!-- Node8&#45;&gt;Node5 -->
<g id="edge8_Node000005_Node000008" class="edge">
<title>Node8&#45;&gt;Node5</title>
<g id="a_edge8_Node000005_Node000008"><a xlink:title=" ">
<path fill="none" stroke="#9a32cd" stroke-dasharray="5,2" d="M1339.65,-144.93C1217.17,-137.6 956.7,-129.11 889,-183.51 846.29,-217.83 818.12,-399.6 811.83,-443.81"/>
<polygon fill="#9a32cd" stroke="#9a32cd" points="1339.8,-148.45 1350,-145.57 1340.23,-141.46 1339.8,-148.45"/>
</a>
</g>
<text text-anchor="start" x="1017" y="-153.01" font-family="Helvetica,sans-Serif" font-size="10.00" fill="grey">directory_load_in_progress</text>
</g>
<!-- Node9&#45;&gt;Node5 -->
<g id="edge11_Node000005_Node000009" class="edge">
<title>Node9&#45;&gt;Node5</title>
<g id="a_edge11_Node000005_Node000009"><a xlink:title=" ">
<path fill="none" stroke="#9a32cd" stroke-dasharray="5,2" d="M1336.81,-49.88C1212.63,-42.82 953.93,-35.62 889,-92.51 833.76,-140.9 814.53,-391.58 811.09,-443.92"/>
<polygon fill="#9a32cd" stroke="#9a32cd" points="1336.77,-53.38 1346.95,-50.47 1337.17,-46.39 1336.77,-53.38"/>
</a>
</g>
<text text-anchor="start" x="1039" y="-60.01" font-family="Helvetica,sans-Serif" font-size="10.00" fill="grey">count_in_progress</text>
</g>
<!-- Node10&#45;&gt;Node5 -->
<g id="edge14_Node000005_Node000010" class="edge">
<title>Node10&#45;&gt;Node5</title>
<g id="a_edge14_Node000005_Node000010"><a xlink:title=" ">
<path fill="none" stroke="#9a32cd" stroke-dasharray="5,2" d="M1346.76,-487.4C1251.27,-492.8 1053.66,-499.33 889,-474.51 872.54,-472.03 854.57,-467.37 839.99,-463.07"/>
<polygon fill="#9a32cd" stroke="#9a32cd" points="1347.01,-490.89 1356.79,-486.82 1346.6,-483.9 1347.01,-490.89"/>
</a>
</g>
<text text-anchor="start" x="1024" y="-498.01" font-family="Helvetica,sans-Serif" font-size="10.00" fill="grey">deep_count_in_progress</text>
</g>
<!-- Node11&#45;&gt;Node5 -->
<g id="edge16_Node000005_Node000011" class="edge">
<title>Node11&#45;&gt;Node5</title>
<g id="a_edge16_Node000005_Node000011"><a xlink:title=" ">
<path fill="none" stroke="#9a32cd" stroke-dasharray="5,2" d="M1351.02,-942.32C1233.16,-947.36 954.47,-952.29 889,-890.51 824.11,-829.28 812.39,-521.43 810.74,-463.07"/>
<polygon fill="#9a32cd" stroke="#9a32cd" points="1351.41,-945.8 1361.25,-941.86 1351.1,-938.81 1351.41,-945.8"/>
</a>
</g>
<text text-anchor="start" x="1028" y="-950.01" font-family="Helvetica,sans-Serif" font-size="10.00" fill="grey">mime_list_in_progress</text>
</g>
<!-- Node12&#45;&gt;Node5 -->
<g id="edge19_Node000005_Node000012" class="edge">
<title>Node12&#45;&gt;Node5</title>
<g id="a_edge19_Node000005_Node000012"><a xlink:title=" ">
<path fill="none" stroke="#9a32cd" stroke-dasharray="5,2" d="M1355.69,-408.77C1280.35,-406.64 1130.39,-404.74 1004,-417.51 950.62,-422.9 889.94,-435.22 850.99,-443.94"/>
<polygon fill="#9a32cd" stroke="#9a32cd" points="1355.72,-412.27 1365.82,-409.07 1355.93,-405.28 1355.72,-412.27"/>
</a>
</g>
<text text-anchor="start" x="1032" y="-423.01" font-family="Helvetica,sans-Serif" font-size="10.00" fill="grey">get_info_in_progress</text>
</g>
<!-- Node13&#45;&gt;Node5 -->
<g id="edge21_Node000005_Node000013" class="edge">
<title>Node13&#45;&gt;Node5</title>
<g id="a_edge21_Node000005_Node000013"><a xlink:title=" ">
<path fill="none" stroke="#9a32cd" stroke-dasharray="5,2" d="M1347.49,-848.56C1227.07,-845.29 951.07,-830.69 889,-765.51 845.38,-719.7 817.5,-510.71 811.65,-463.16"/>
<polygon fill="#9a32cd" stroke="#9a32cd" points="1347.53,-852.07 1357.61,-848.82 1347.71,-845.07 1347.53,-852.07"/>
</a>
</g>
<text text-anchor="start" x="1043" y="-844.01" font-family="Helvetica,sans-Serif" font-size="10.00" fill="grey">thumbnail_state</text>
</g>
<!-- Node14&#45;&gt;Node5 -->
<g id="edge24_Node000005_Node000014" class="edge">
<title>Node14&#45;&gt;Node5</title>
<g id="a_edge24_Node000005_Node000014"><a xlink:title=" ">
<path fill="none" stroke="#9a32cd" stroke-dasharray="5,2" d="M1358.32,-663.13C1246.67,-683.14 963.6,-727.18 889,-674.51 816.49,-623.32 810.55,-499.05 810.38,-463.29"/>
<polygon fill="#9a32cd" stroke="#9a32cd" points="1359.05,-666.55 1368.27,-661.33 1357.8,-659.66 1359.05,-666.55"/>
</a>
</g>
<text text-anchor="start" x="1052" y="-705.01" font-family="Helvetica,sans-Serif" font-size="10.00" fill="grey">mount_state</text>
</g>
<!-- Node15&#45;&gt;Node5 -->
<g id="edge27_Node000005_Node000015" class="edge">
<title>Node15&#45;&gt;Node5</title>
<g id="a_edge27_Node000005_Node000015"><a xlink:title=" ">
<path fill="none" stroke="#9a32cd" stroke-dasharray="5,2" d="M1338.18,-575.65C1216.92,-594.81 963.8,-628.06 889,-585.51 841.03,-558.22 819.31,-488.76 812.75,-463.17"/>
<polygon fill="#9a32cd" stroke="#9a32cd" points="1338.77,-579.1 1348.09,-574.07 1337.66,-572.19 1338.77,-579.1"/>
</a>
</g>
<text text-anchor="start" x="1030" y="-612.01" font-family="Helvetica,sans-Serif" font-size="10.00" fill="grey">filesystem_info_state</text>
</g>
<!-- Node16&#45;&gt;Node5 -->
<g id="edge30_Node000005_Node000016" class="edge">
<title>Node16&#45;&gt;Node5</title>
<g id="a_edge30_Node000005_Node000016"><a xlink:title=" ">
<path fill="none" stroke="#9a32cd" stroke-dasharray="5,2" d="M1333.63,-319.13C1331.06,-318.89 1328.51,-318.69 1326,-318.51 1132.21,-304.91 1057.37,-230.6 889,-327.51 842.99,-353.99 820.2,-419.44 813.05,-444"/>
<polygon fill="#9a32cd" stroke="#9a32cd" points="1333.32,-322.61 1343.62,-320.14 1334.03,-315.65 1333.32,-322.61"/>
</a>
</g>
<text text-anchor="start" x="1036" y="-298.01" font-family="Helvetica,sans-Serif" font-size="10.00" fill="grey">top_left_read_state</text>
</g>
<!-- Node17&#45;&gt;Node5 -->
<g id="edge33_Node000005_Node000017" class="edge">
<title>Node17&#45;&gt;Node5</title>
<g id="a_edge33_Node000005_Node000017"><a xlink:title=" ">
<path fill="none" stroke="#9a32cd" stroke-dasharray="5,2" d="M1341.46,-236.43C1219.74,-231.75 956.95,-228.53 889,-283.51 835.68,-326.65 816.93,-414.16 811.98,-443.6"/>
<polygon fill="#9a32cd" stroke="#9a32cd" points="1341.61,-239.93 1351.74,-236.84 1341.89,-232.94 1341.61,-239.93"/>
</a>
</g>
<text text-anchor="start" x="1033" y="-252.01" font-family="Helvetica,sans-Serif" font-size="10.00" fill="grey">link_info_read_state</text>
</g>
<!-- Node18 -->
<g id="Node000018" class="node">
<title>Node18</title>
<g id="a_Node000018"><a xlink:href="structCajaFileSortByEmblemCache.html" target="_top" xlink:title=" ">
<polygon fill="white" stroke="#666666" points="1162,-792.01 1004,-792.01 1004,-773.01 1162,-773.01 1162,-792.01"/>
<text text-anchor="middle" x="1083" y="-780.01" font-family="Helvetica,sans-Serif" font-size="10.00">CajaFileSortByEmblemCache</text>
</a>
</g>
</g>
<!-- Node18&#45;&gt;Node3 -->
<g id="edge36_Node000003_Node000018" class="edge">
<title>Node18&#45;&gt;Node3</title>
<g id="a_edge36_Node000003_Node000018"><a xlink:title=" ">
<path fill="none" stroke="#9a32cd" stroke-dasharray="5,2" d="M1172.47,-773.26C1218.33,-768.31 1275.21,-761.92 1326,-755.51 1336.18,-754.22 1347.08,-752.75 1357.42,-751.3"/>
<polygon fill="#9a32cd" stroke="#9a32cd" points="1171.83,-769.81 1162.27,-774.36 1172.58,-776.77 1171.83,-769.81"/>
</a>
</g>
<text text-anchor="start" x="1183" y="-778.01" font-family="Helvetica,sans-Serif" font-size="10.00" fill="grey">compare_by_emblem_cache</text>
</g>
<!-- Node19 -->
<g id="Node000019" class="node">
<title>Node19</title>
<g id="a_Node000019"><a xlink:title=" ">
<polygon fill="white" stroke="#666666" points="609,-964.01 459,-964.01 459,-945.01 609,-945.01 609,-964.01"/>
<text text-anchor="middle" x="534" y="-952.01" font-family="Helvetica,sans-Serif" font-size="10.00">_CajaUndoStackActionData</text>
</a>
</g>
</g>
<!-- Node19&#45;&gt;Node1 -->
<g id="edge37_Node000001_Node000019" class="edge">
<title>Node19&#45;&gt;Node1</title>
<g id="a_edge37_Node000001_Node000019"><a xlink:title=" ">
<path fill="none" stroke="#9a32cd" stroke-dasharray="5,2" d="M619.1,-945.9C664.29,-941.27 718.54,-935.72 757.37,-931.74"/>
<polygon fill="#9a32cd" stroke="#9a32cd" points="618.6,-942.43 609.01,-946.93 619.32,-949.4 618.6,-942.43"/>
</a>
</g>
<text text-anchor="start" x="639.5" y="-951.01" font-family="Helvetica,sans-Serif" font-size="10.00" fill="grey">undo_redo_data</text>
</g>
<!-- Node20 -->
<g id="Node000020" class="node">
<title>Node20</title>
<g id="a_Node000020"><a xlink:href="struct__CajaUndoStackManager.html" target="_top" xlink:title=" ">
<polygon fill="white" stroke="#666666" points="373,-964.01 234,-964.01 234,-945.01 373,-945.01 373,-964.01"/>
<text text-anchor="middle" x="303.5" y="-952.01" font-family="Helvetica,sans-Serif" font-size="10.00">_CajaUndoStackManager</text>
</a>
</g>
</g>
<!-- Node20&#45;&gt;Node19 -->
<g id="edge38_Node000019_Node000020" class="edge">
<title>Node20&#45;&gt;Node19</title>
<g id="a_edge38_Node000019_Node000020"><a xlink:title=" ">
<path fill="none" stroke="#9a32cd" stroke-dasharray="5,2" d="M383.06,-954.51C407.64,-954.51 434.66,-954.51 458.92,-954.51"/>
<polygon fill="#9a32cd" stroke="#9a32cd" points="383.06,-951.01 373.06,-954.51 383.06,-958.01 383.06,-951.01"/>
</a>
</g>
<text text-anchor="start" x="394" y="-960.01" font-family="Helvetica,sans-Serif" font-size="10.00" fill="grey">manager</text>
</g>
<!-- Node21 -->
<g id="Node000021" class="node">
<title>Node21</title>
<g id="a_Node000021"><a xlink:title=" ">
<polygon fill="white" stroke="#666666" points="173,-964.01 0,-964.01 0,-945.01 173,-945.01 173,-964.01"/>
<text text-anchor="middle" x="86.5" y="-952.01" font-family="Helvetica,sans-Serif" font-size="10.00">_CajaUndoStackManagerPrivate</text>
</a>
</g>
</g>
<!-- Node21&#45;&gt;Node20 -->
<g id="edge39_Node000020_Node000021" class="edge">
<title>Node21&#45;&gt;Node20</title>
<g id="a_edge39_Node000020_Node000021"><a xlink:title=" ">
<path fill="none" stroke="#9a32cd" stroke-dasharray="5,2" d="M183.56,-954.51C200.47,-954.51 217.76,-954.51 233.74,-954.51"/>
<polygon fill="#9a32cd" stroke="#9a32cd" points="183.09,-951.01 173.09,-954.51 183.09,-958.01 183.09,-951.01"/>
</a>
</g>
<text text-anchor="start" x="194.5" y="-960.01" font-family="Helvetica,sans-Serif" font-size="10.00" fill="grey">priv</text>
</g>
</g>
</svg>
