<?xml version="1.0" encoding="UTF-8" standalone="no"?>
<!DOCTYPE svg PUBLIC "-//W3C//DTD SVG 1.1//EN"
 "http://www.w3.org/Graphics/SVG/1.1/DTD/svg11.dtd">
<!-- Generated by graphviz version 2.43.0 (0)
 -->
<!-- Title: _GSearchMonitor Pages: 1 -->
<svg width="176pt" height="171pt"
 viewBox="0.00 0.00 175.50 171.00" xmlns="http://www.w3.org/2000/svg" xmlns:xlink="http://www.w3.org/1999/xlink">
<g id="graph0" class="graph" transform="scale(1 1) rotate(0) translate(4 167)">
<title>_GSearchMonitor</title>
<!-- Node1 -->
<g id="Node000001" class="node">
<title>Node1</title>
<g id="a_Node000001"><a xlink:title=" ">
<polygon fill="#999999" stroke="#666666" points="123.5,-19 23.5,-19 23.5,0 123.5,0 123.5,-19"/>
<text text-anchor="middle" x="73.5" y="-7" font-family="Helvetica,sans-Serif" font-size="10.00">_GSearchMonitor</text>
</a>
</g>
</g>
<!-- Node2 -->
<g id="Node000002" class="node">
<title>Node2</title>
<g id="a_Node000002"><a xlink:href="struct__GSearchWindow.html" target="_top" xlink:title=" ">
<polygon fill="white" stroke="#666666" points="124,-91 23,-91 23,-72 124,-72 124,-91"/>
<text text-anchor="middle" x="73.5" y="-79" font-family="Helvetica,sans-Serif" font-size="10.00">_GSearchWindow</text>
</a>
</g>
</g>
<!-- Node2&#45;&gt;Node1 -->
<g id="edge1_Node000001_Node000002" class="edge">
<title>Node2&#45;&gt;Node1</title>
<g id="a_edge1_Node000001_Node000002"><a xlink:title=" ">
<path fill="none" stroke="#9a32cd" stroke-dasharray="5,2" d="M73.5,-61.58C73.5,-47.76 73.5,-29.68 73.5,-19.15"/>
<polygon fill="#9a32cd" stroke="#9a32cd" points="70,-61.92 73.5,-71.92 77,-61.92 70,-61.92"/>
</a>
</g>
<text text-anchor="start" x="77" y="-42.5" font-family="Helvetica,sans-Serif" font-size="10.00" fill="grey">gsearch</text>
</g>
<!-- Node3 -->
<g id="Node000003" class="node">
<title>Node3</title>
<g id="a_Node000003"><a xlink:href="struct__GSearchCommandDetails.html" target="_top" xlink:title=" ">
<polygon fill="white" stroke="#666666" points="147,-163 0,-163 0,-144 147,-144 147,-163"/>
<text text-anchor="middle" x="73.5" y="-151" font-family="Helvetica,sans-Serif" font-size="10.00">_GSearchCommandDetails</text>
</a>
</g>
</g>
<!-- Node3&#45;&gt;Node2 -->
<g id="edge2_Node000002_Node000003" class="edge">
<title>Node3&#45;&gt;Node2</title>
<g id="a_edge2_Node000002_Node000003"><a xlink:title=" ">
<path fill="none" stroke="#9a32cd" stroke-dasharray="5,2" d="M73.5,-133.58C73.5,-119.76 73.5,-101.68 73.5,-91.15"/>
<polygon fill="#9a32cd" stroke="#9a32cd" points="70,-133.92 73.5,-143.92 77,-133.92 70,-133.92"/>
</a>
</g>
<text text-anchor="start" x="76.5" y="-114.5" font-family="Helvetica,sans-Serif" font-size="10.00" fill="grey">command_details</text>
</g>
</g>
</svg>
