<?xml version="1.0" encoding="UTF-8" standalone="no"?>
<!DOCTYPE svg PUBLIC "-//W3C//DTD SVG 1.1//EN"
 "http://www.w3.org/Graphics/SVG/1.1/DTD/svg11.dtd">
<!-- Generated by graphviz version 2.43.0 (0)
 -->
<!-- Title: FooScrollArea Pages: 1 -->
<svg width="289pt" height="243pt"
 viewBox="0.00 0.00 288.60 243.00" xmlns="http://www.w3.org/2000/svg" xmlns:xlink="http://www.w3.org/1999/xlink">
<g id="graph0" class="graph" transform="scale(1 1) rotate(0) translate(4 239)">
<title>FooScrollArea</title>
<!-- Node1 -->
<g id="Node000001" class="node">
<title>Node1</title>
<g id="a_Node000001"><a xlink:title=" ">
<polygon fill="#999999" stroke="#666666" points="95.1,-235 12.1,-235 12.1,-216 95.1,-216 95.1,-235"/>
<text text-anchor="middle" x="53.6" y="-223" font-family="Helvetica,sans-Serif" font-size="10.00">FooScrollArea</text>
</a>
</g>
</g>
<!-- Node2 -->
<g id="Node000002" class="node">
<title>Node2</title>
<g id="a_Node000002"><a xlink:title=" ">
<polygon fill="white" stroke="#666666" points="174.6,-19 56.6,-19 56.6,0 174.6,0 174.6,-19"/>
<text text-anchor="middle" x="115.6" y="-7" font-family="Helvetica,sans-Serif" font-size="10.00">FooScrollAreaPrivate</text>
</a>
</g>
</g>
<!-- Node1&#45;&gt;Node2 -->
<g id="edge7_Node000002_Node000001" class="edge">
<title>Node1&#45;&gt;Node2</title>
<g id="a_edge7_Node000002_Node000001"><a xlink:title=" ">
<path fill="none" stroke="#9a32cd" stroke-dasharray="5,2" d="M38.18,-208.1C19.48,-186.16 -8.27,-145.74 2.6,-109 16.05,-63.58 67.49,-32.96 96.11,-19.05"/>
<polygon fill="#9a32cd" stroke="#9a32cd" points="35.78,-210.66 45.04,-215.81 41.01,-206.01 35.78,-210.66"/>
</a>
</g>
<text text-anchor="start" x="6.1" y="-114.5" font-family="Helvetica,sans-Serif" font-size="10.00" fill="grey">grab_func</text>
</g>
<!-- Node5 -->
<g id="Node000005" class="node">
<title>Node5</title>
<g id="a_Node000005"><a xlink:title=" ">
<polygon fill="white" stroke="#666666" points="84.6,-163 22.6,-163 22.6,-144 84.6,-144 84.6,-163"/>
<text text-anchor="middle" x="53.6" y="-151" font-family="Helvetica,sans-Serif" font-size="10.00">InputPath</text>
</a>
</g>
</g>
<!-- Node1&#45;&gt;Node5 -->
<g id="edge5_Node000005_Node000001" class="edge">
<title>Node1&#45;&gt;Node5</title>
<g id="a_edge5_Node000005_Node000001"><a xlink:title=" ">
<path fill="none" stroke="#9a32cd" stroke-dasharray="5,2" d="M53.6,-205.58C53.6,-191.76 53.6,-173.68 53.6,-163.15"/>
<polygon fill="#9a32cd" stroke="#9a32cd" points="50.1,-205.92 53.6,-215.92 57.1,-205.92 50.1,-205.92"/>
</a>
</g>
<text text-anchor="start" x="56.6" y="-186.5" font-family="Helvetica,sans-Serif" font-size="10.00" fill="grey">func</text>
</g>
<!-- Node2&#45;&gt;Node1 -->
<g id="edge1_Node000001_Node000002" class="edge">
<title>Node2&#45;&gt;Node1</title>
<g id="a_edge1_Node000001_Node000002"><a xlink:title=" ">
<path fill="none" stroke="#9a32cd" stroke-dasharray="5,2" d="M136.92,-25.93C140.05,-29.21 142.81,-32.93 144.6,-37 167.21,-88.28 166.37,-113.76 139.6,-163 125.58,-188.8 95.49,-206.38 74.9,-215.93"/>
<polygon fill="#9a32cd" stroke="#9a32cd" points="139.07,-23.15 129.27,-19.11 134.41,-28.38 139.07,-23.15"/>
</a>
</g>
<text text-anchor="start" x="163.1" y="-114.5" font-family="Helvetica,sans-Serif" font-size="10.00" fill="grey">priv</text>
</g>
<!-- Node3 -->
<g id="Node000003" class="node">
<title>Node3</title>
<g id="a_Node000003"><a xlink:href="structAutoScrollInfo.html" target="_top" xlink:title=" ">
<polygon fill="white" stroke="#666666" points="272.1,-91 187.1,-91 187.1,-72 272.1,-72 272.1,-91"/>
<text text-anchor="middle" x="229.6" y="-79" font-family="Helvetica,sans-Serif" font-size="10.00">AutoScrollInfo</text>
</a>
</g>
</g>
<!-- Node3&#45;&gt;Node2 -->
<g id="edge2_Node000002_Node000003" class="edge">
<title>Node3&#45;&gt;Node2</title>
<g id="a_edge2_Node000002_Node000003"><a xlink:title=" ">
<path fill="none" stroke="#9a32cd" stroke-dasharray="5,2" d="M211.69,-65.22C200.81,-56.35 186.39,-45.33 172.6,-37 161.21,-30.11 147.73,-23.77 136.74,-19.02"/>
<polygon fill="#9a32cd" stroke="#9a32cd" points="209.65,-68.08 219.58,-71.77 214.12,-62.69 209.65,-68.08"/>
</a>
</g>
<text text-anchor="start" x="199.6" y="-42.5" font-family="Helvetica,sans-Serif" font-size="10.00" fill="grey">auto_scroll_info</text>
</g>
<!-- Node4 -->
<g id="Node000004" class="node">
<title>Node4</title>
<g id="a_Node000004"><a xlink:title=" ">
<polygon fill="white" stroke="#666666" points="110.1,-91 35.1,-91 35.1,-72 110.1,-72 110.1,-91"/>
<text text-anchor="middle" x="72.6" y="-79" font-family="Helvetica,sans-Serif" font-size="10.00">InputRegion</text>
</a>
</g>
</g>
<!-- Node4&#45;&gt;Node2 -->
<g id="edge3_Node000002_Node000004" class="edge">
<title>Node4&#45;&gt;Node2</title>
<g id="a_edge3_Node000002_Node000004"><a xlink:title=" ">
<path fill="none" stroke="#9a32cd" stroke-dasharray="5,2" d="M69.25,-61.84C68.71,-53.73 69.41,-44.41 73.6,-37 78.02,-29.2 85.79,-23.36 93.44,-19.18"/>
<polygon fill="#9a32cd" stroke="#9a32cd" points="65.79,-62.39 70.53,-71.86 72.73,-61.5 65.79,-62.39"/>
</a>
</g>
<text text-anchor="start" x="77.1" y="-42.5" font-family="Helvetica,sans-Serif" font-size="10.00" fill="grey">current_input</text>
</g>
<!-- Node5&#45;&gt;Node4 -->
<g id="edge4_Node000004_Node000005" class="edge">
<title>Node5&#45;&gt;Node4</title>
<g id="a_edge4_Node000004_Node000005"><a xlink:title=" ">
<path fill="none" stroke="#9a32cd" stroke-dasharray="5,2" d="M58.63,-133.99C62.39,-120.13 67.37,-101.79 70.26,-91.15"/>
<polygon fill="#9a32cd" stroke="#9a32cd" points="55.18,-133.35 55.93,-143.92 61.93,-135.18 55.18,-133.35"/>
</a>
</g>
<text text-anchor="start" x="68.6" y="-114.5" font-family="Helvetica,sans-Serif" font-size="10.00" fill="grey">paths</text>
</g>
<!-- Node5&#45;&gt;Node5 -->
<g id="edge6_Node000005_Node000005" class="edge">
<title>Node5&#45;&gt;Node5</title>
<g id="a_edge6_Node000005_Node000005"><a xlink:title=" ">
<path fill="none" stroke="#9a32cd" stroke-dasharray="5,2" d="M94.76,-159.25C99.51,-158.19 102.6,-156.27 102.6,-153.5 102.6,-149.07 94.69,-146.82 84.71,-146.75"/>
<polygon fill="#9a32cd" stroke="#9a32cd" points="94.31,-155.78 84.71,-160.25 95,-162.74 94.31,-155.78"/>
</a>
</g>
<text text-anchor="start" x="105.6" y="-150.5" font-family="Helvetica,sans-Serif" font-size="10.00" fill="grey">next</text>
</g>
</g>
</svg>
