<?xml version="1.0" encoding="UTF-8" standalone="no"?>
<!DOCTYPE svg PUBLIC "-//W3C//DTD SVG 1.1//EN"
 "http://www.w3.org/Graphics/SVG/1.1/DTD/svg11.dtd">
<!-- Generated by graphviz version 2.43.0 (0)
 -->
<!-- Title: _EvFormField Pages: 1 -->
<svg width="198pt" height="459pt"
 viewBox="0.00 0.00 198.00 459.00" xmlns="http://www.w3.org/2000/svg" xmlns:xlink="http://www.w3.org/1999/xlink">
<g id="graph0" class="graph" transform="scale(1 1) rotate(0) translate(4 455)">
<title>_EvFormField</title>
<!-- Node1 -->
<g id="Node000001" class="node">
<title>Node1</title>
<g id="a_Node000001"><a xlink:title=" ">
<polygon fill="#999999" stroke="#666666" points="151.5,-19 69.5,-19 69.5,0 151.5,0 151.5,-19"/>
<text text-anchor="middle" x="110.5" y="-7" font-family="Helvetica,sans-Serif" font-size="10.00">_EvFormField</text>
</a>
</g>
</g>
<!-- Node2 -->
<g id="Node000002" class="node">
<title>Node2</title>
<g id="a_Node000002"><a xlink:title=" ">
<polygon fill="white" stroke="#666666" points="86.5,-91 32.5,-91 32.5,-72 86.5,-72 86.5,-91"/>
<text text-anchor="middle" x="59.5" y="-79" font-family="Helvetica,sans-Serif" font-size="10.00">_EvLink</text>
</a>
</g>
</g>
<!-- Node2&#45;&gt;Node1 -->
<g id="edge1_Node000001_Node000002" class="edge">
<title>Node2&#45;&gt;Node1</title>
<g id="a_edge1_Node000001_Node000002"><a xlink:title=" ">
<path fill="none" stroke="#9a32cd" stroke-dasharray="5,2" d="M55.89,-61.69C55.3,-53.55 56.02,-44.25 60.5,-37 65.51,-28.89 73.9,-23.12 82.39,-19.09"/>
<polygon fill="#9a32cd" stroke="#9a32cd" points="52.44,-62.34 57.27,-71.77 59.38,-61.38 52.44,-62.34"/>
</a>
</g>
<text text-anchor="start" x="64" y="-42.5" font-family="Helvetica,sans-Serif" font-size="10.00" fill="grey">activation_link</text>
</g>
<!-- Node3 -->
<g id="Node000003" class="node">
<title>Node3</title>
<g id="a_Node000003"><a xlink:title=" ">
<polygon fill="white" stroke="#666666" points="104,-163 15,-163 15,-144 104,-144 104,-163"/>
<text text-anchor="middle" x="59.5" y="-151" font-family="Helvetica,sans-Serif" font-size="10.00">_EvLinkPrivate</text>
</a>
</g>
</g>
<!-- Node3&#45;&gt;Node2 -->
<g id="edge2_Node000002_Node000003" class="edge">
<title>Node3&#45;&gt;Node2</title>
<g id="a_edge2_Node000002_Node000003"><a xlink:title=" ">
<path fill="none" stroke="#9a32cd" stroke-dasharray="5,2" d="M59.5,-133.58C59.5,-119.76 59.5,-101.68 59.5,-91.15"/>
<polygon fill="#9a32cd" stroke="#9a32cd" points="56,-133.92 59.5,-143.92 63,-133.92 56,-133.92"/>
</a>
</g>
<text text-anchor="start" x="63" y="-114.5" font-family="Helvetica,sans-Serif" font-size="10.00" fill="grey">priv</text>
</g>
<!-- Node4 -->
<g id="Node000004" class="node">
<title>Node4</title>
<g id="a_Node000004"><a xlink:title=" ">
<polygon fill="white" stroke="#666666" points="102,-235 17,-235 17,-216 102,-216 102,-235"/>
<text text-anchor="middle" x="59.5" y="-223" font-family="Helvetica,sans-Serif" font-size="10.00">_EvLinkAction</text>
</a>
</g>
</g>
<!-- Node4&#45;&gt;Node3 -->
<g id="edge3_Node000003_Node000004" class="edge">
<title>Node4&#45;&gt;Node3</title>
<g id="a_edge3_Node000003_Node000004"><a xlink:title=" ">
<path fill="none" stroke="#9a32cd" stroke-dasharray="5,2" d="M59.5,-205.58C59.5,-191.76 59.5,-173.68 59.5,-163.15"/>
<polygon fill="#9a32cd" stroke="#9a32cd" points="56,-205.92 59.5,-215.92 63,-205.92 56,-205.92"/>
</a>
</g>
<text text-anchor="start" x="63" y="-186.5" font-family="Helvetica,sans-Serif" font-size="10.00" fill="grey">action</text>
</g>
<!-- Node5 -->
<g id="Node000005" class="node">
<title>Node5</title>
<g id="a_Node000005"><a xlink:title=" ">
<polygon fill="white" stroke="#666666" points="119,-307 0,-307 0,-288 119,-288 119,-307"/>
<text text-anchor="middle" x="59.5" y="-295" font-family="Helvetica,sans-Serif" font-size="10.00">_EvLinkActionPrivate</text>
</a>
</g>
</g>
<!-- Node5&#45;&gt;Node4 -->
<g id="edge4_Node000004_Node000005" class="edge">
<title>Node5&#45;&gt;Node4</title>
<g id="a_edge4_Node000004_Node000005"><a xlink:title=" ">
<path fill="none" stroke="#9a32cd" stroke-dasharray="5,2" d="M59.5,-277.58C59.5,-263.76 59.5,-245.68 59.5,-235.15"/>
<polygon fill="#9a32cd" stroke="#9a32cd" points="56,-277.92 59.5,-287.92 63,-277.92 56,-277.92"/>
</a>
</g>
<text text-anchor="start" x="63" y="-258.5" font-family="Helvetica,sans-Serif" font-size="10.00" fill="grey">priv</text>
</g>
<!-- Node6 -->
<g id="Node000006" class="node">
<title>Node6</title>
<g id="a_Node000006"><a xlink:title=" ">
<polygon fill="white" stroke="#666666" points="98,-379 21,-379 21,-360 98,-360 98,-379"/>
<text text-anchor="middle" x="59.5" y="-367" font-family="Helvetica,sans-Serif" font-size="10.00">_EvLinkDest</text>
</a>
</g>
</g>
<!-- Node6&#45;&gt;Node5 -->
<g id="edge5_Node000005_Node000006" class="edge">
<title>Node6&#45;&gt;Node5</title>
<g id="a_edge5_Node000005_Node000006"><a xlink:title=" ">
<path fill="none" stroke="#9a32cd" stroke-dasharray="5,2" d="M59.5,-349.58C59.5,-335.76 59.5,-317.68 59.5,-307.15"/>
<polygon fill="#9a32cd" stroke="#9a32cd" points="56,-349.92 59.5,-359.92 63,-349.92 56,-349.92"/>
</a>
</g>
<text text-anchor="start" x="62.5" y="-330.5" font-family="Helvetica,sans-Serif" font-size="10.00" fill="grey">dest</text>
</g>
<!-- Node7 -->
<g id="Node000007" class="node">
<title>Node7</title>
<g id="a_Node000007"><a xlink:title=" ">
<polygon fill="white" stroke="#666666" points="115,-451 4,-451 4,-432 115,-432 115,-451"/>
<text text-anchor="middle" x="59.5" y="-439" font-family="Helvetica,sans-Serif" font-size="10.00">_EvLinkDestPrivate</text>
</a>
</g>
</g>
<!-- Node7&#45;&gt;Node6 -->
<g id="edge6_Node000006_Node000007" class="edge">
<title>Node7&#45;&gt;Node6</title>
<g id="a_edge6_Node000006_Node000007"><a xlink:title=" ">
<path fill="none" stroke="#9a32cd" stroke-dasharray="5,2" d="M59.5,-421.58C59.5,-407.76 59.5,-389.68 59.5,-379.15"/>
<polygon fill="#9a32cd" stroke="#9a32cd" points="56,-421.92 59.5,-431.92 63,-421.92 56,-421.92"/>
</a>
</g>
<text text-anchor="start" x="63" y="-402.5" font-family="Helvetica,sans-Serif" font-size="10.00" fill="grey">priv</text>
</g>
<!-- Node8 -->
<g id="Node000008" class="node">
<title>Node8</title>
<g id="a_Node000008"><a xlink:href="struct__EvPage.html" target="_top" xlink:title=" ">
<polygon fill="white" stroke="#666666" points="190,-91 133,-91 133,-72 190,-72 190,-91"/>
<text text-anchor="middle" x="161.5" y="-79" font-family="Helvetica,sans-Serif" font-size="10.00">_EvPage</text>
</a>
</g>
</g>
<!-- Node8&#45;&gt;Node1 -->
<g id="edge7_Node000001_Node000008" class="edge">
<title>Node8&#45;&gt;Node1</title>
<g id="a_edge7_Node000001_Node000008"><a xlink:title=" ">
<path fill="none" stroke="#9a32cd" stroke-dasharray="5,2" d="M154.22,-62.57C150.45,-54.37 145.4,-44.77 139.5,-37 134.47,-30.37 127.65,-24.04 121.88,-19.23"/>
<polygon fill="#9a32cd" stroke="#9a32cd" points="151.1,-64.17 158.27,-71.97 157.52,-61.4 151.1,-64.17"/>
</a>
</g>
<text text-anchor="start" x="152" y="-42.5" font-family="Helvetica,sans-Serif" font-size="10.00" fill="grey">page</text>
</g>
</g>
</svg>
