<?xml version="1.0" encoding="UTF-8" standalone="no"?>
<!DOCTYPE svg PUBLIC "-//W3C//DTD SVG 1.1//EN"
 "http://www.w3.org/Graphics/SVG/1.1/DTD/svg11.dtd">
<!-- Generated by graphviz version 2.43.0 (0)
 -->
<!-- Title: CactClipboard Pages: 1 -->
<svg width="505pt" height="243pt"
 viewBox="0.00 0.00 504.50 243.00" xmlns="http://www.w3.org/2000/svg" xmlns:xlink="http://www.w3.org/1999/xlink">
<g id="graph0" class="graph" transform="scale(1 1) rotate(0) translate(4 239)">
<title>CactClipboard</title>
<!-- Node1 -->
<g id="Node000001" class="node">
<title>Node1</title>
<g id="a_Node000001"><a xlink:title=" ">
<polygon fill="#999999" stroke="#666666" points="149.5,-19 64.5,-19 64.5,0 149.5,0 149.5,-19"/>
<text text-anchor="middle" x="107" y="-7" font-family="Helvetica,sans-Serif" font-size="10.00">CactClipboard</text>
</a>
</g>
</g>
<!-- Node2 -->
<g id="Node000002" class="node">
<title>Node2</title>
<g id="a_Node000002"><a xlink:title=" ">
<polygon fill="white" stroke="#666666" points="169.5,-91 44.5,-91 44.5,-72 169.5,-72 169.5,-91"/>
<text text-anchor="middle" x="107" y="-79" font-family="Helvetica,sans-Serif" font-size="10.00">_CactClipboardPrivate</text>
</a>
</g>
</g>
<!-- Node2&#45;&gt;Node1 -->
<g id="edge1_Node000001_Node000002" class="edge">
<title>Node2&#45;&gt;Node1</title>
<g id="a_edge1_Node000001_Node000002"><a xlink:title=" ">
<path fill="none" stroke="#9a32cd" stroke-dasharray="5,2" d="M107,-61.58C107,-47.76 107,-29.68 107,-19.15"/>
<polygon fill="#9a32cd" stroke="#9a32cd" points="103.5,-61.92 107,-71.92 110.5,-61.92 103.5,-61.92"/>
</a>
</g>
<text text-anchor="start" x="110.5" y="-42.5" font-family="Helvetica,sans-Serif" font-size="10.00" fill="grey">private</text>
</g>
<!-- Node3 -->
<g id="Node000003" class="node">
<title>Node3</title>
<g id="a_Node000003"><a xlink:href="structBaseWindow.html" target="_top" xlink:title=" ">
<polygon fill="white" stroke="#666666" points="241,-163 161,-163 161,-144 241,-144 241,-163"/>
<text text-anchor="middle" x="201" y="-151" font-family="Helvetica,sans-Serif" font-size="10.00">BaseWindow</text>
</a>
</g>
</g>
<!-- Node3&#45;&gt;Node2 -->
<g id="edge2_Node000002_Node000003" class="edge">
<title>Node3&#45;&gt;Node2</title>
<g id="a_edge2_Node000002_Node000003"><a xlink:title=" ">
<path fill="none" stroke="#9a32cd" stroke-dasharray="5,2" d="M168.87,-139.62C161.04,-135.79 152.93,-131.21 146,-126 132.54,-115.89 120.14,-100.6 113.08,-91.1"/>
<polygon fill="#9a32cd" stroke="#9a32cd" points="167.65,-142.9 178.19,-143.9 170.57,-136.54 167.65,-142.9"/>
</a>
</g>
<text text-anchor="start" x="149" y="-114.5" font-family="Helvetica,sans-Serif" font-size="10.00" fill="grey">window</text>
</g>
<!-- Node4 -->
<g id="Node000004" class="node">
<title>Node4</title>
<g id="a_Node000004"><a xlink:title=" ">
<polygon fill="white" stroke="#666666" points="347.5,-91 228.5,-91 228.5,-72 347.5,-72 347.5,-91"/>
<text text-anchor="middle" x="288" y="-79" font-family="Helvetica,sans-Serif" font-size="10.00">_BaseWindowPrivate</text>
</a>
</g>
</g>
<!-- Node3&#45;&gt;Node4 -->
<g id="edge4_Node000004_Node000003" class="edge">
<title>Node3&#45;&gt;Node4</title>
<g id="a_edge4_Node000004_Node000003"><a xlink:title=" ">
<path fill="none" stroke="#9a32cd" stroke-dasharray="5,2" d="M194.6,-134.17C192.86,-125.74 192.71,-116.08 198,-109 205.41,-99.09 216.36,-92.72 228.08,-88.68"/>
<polygon fill="#9a32cd" stroke="#9a32cd" points="191.26,-135.22 197.36,-143.88 198,-133.31 191.26,-135.22"/>
</a>
</g>
<text text-anchor="start" x="201" y="-114.5" font-family="Helvetica,sans-Serif" font-size="10.00" fill="grey">parent</text>
</g>
<!-- Node4&#45;&gt;Node3 -->
<g id="edge3_Node000003_Node000004" class="edge">
<title>Node4&#45;&gt;Node3</title>
<g id="a_edge3_Node000003_Node000004"><a xlink:title=" ">
<path fill="none" stroke="#9a32cd" stroke-dasharray="5,2" d="M270.73,-98.25C257.65,-110.17 241.65,-124.7 240,-126 231.89,-132.38 222.32,-138.9 214.69,-143.87"/>
<polygon fill="#9a32cd" stroke="#9a32cd" points="273.31,-100.63 278.35,-91.31 268.6,-95.46 273.31,-100.63"/>
</a>
</g>
<text text-anchor="start" x="262.5" y="-114.5" font-family="Helvetica,sans-Serif" font-size="10.00" fill="grey">private</text>
</g>
<!-- Node5 -->
<g id="Node000005" class="node">
<title>Node5</title>
<g id="a_Node000005"><a xlink:href="structBaseApplication.html" target="_top" xlink:title=" ">
<polygon fill="white" stroke="#666666" points="363.5,-163 268.5,-163 268.5,-144 363.5,-144 363.5,-163"/>
<text text-anchor="middle" x="316" y="-151" font-family="Helvetica,sans-Serif" font-size="10.00">BaseApplication</text>
</a>
</g>
</g>
<!-- Node5&#45;&gt;Node4 -->
<g id="edge5_Node000004_Node000005" class="edge">
<title>Node5&#45;&gt;Node4</title>
<g id="a_edge5_Node000004_Node000005"><a xlink:title=" ">
<path fill="none" stroke="#9a32cd" stroke-dasharray="5,2" d="M312.07,-133.94C310.1,-126.08 307.41,-116.92 304,-109 301.28,-102.68 297.28,-96.06 293.96,-91.01"/>
<polygon fill="#9a32cd" stroke="#9a32cd" points="308.71,-134.96 314.36,-143.93 315.54,-133.4 308.71,-134.96"/>
</a>
</g>
<text text-anchor="start" x="312.5" y="-114.5" font-family="Helvetica,sans-Serif" font-size="10.00" fill="grey">application</text>
</g>
<!-- Node6 -->
<g id="Node000006" class="node">
<title>Node6</title>
<g id="a_Node000006"><a xlink:title=" ">
<polygon fill="white" stroke="#666666" points="363.5,-235 228.5,-235 228.5,-216 363.5,-216 363.5,-235"/>
<text text-anchor="middle" x="296" y="-223" font-family="Helvetica,sans-Serif" font-size="10.00">_BaseApplicationPrivate</text>
</a>
</g>
</g>
<!-- Node6&#45;&gt;Node5 -->
<g id="edge6_Node000005_Node000006" class="edge">
<title>Node6&#45;&gt;Node5</title>
<g id="a_edge6_Node000005_Node000006"><a xlink:title=" ">
<path fill="none" stroke="#9a32cd" stroke-dasharray="5,2" d="M301.29,-205.99C305.25,-192.13 310.49,-173.79 313.53,-163.15"/>
<polygon fill="#9a32cd" stroke="#9a32cd" points="297.83,-205.34 298.45,-215.92 304.57,-207.26 297.83,-205.34"/>
</a>
</g>
<text text-anchor="start" x="311.5" y="-186.5" font-family="Helvetica,sans-Serif" font-size="10.00" fill="grey">private</text>
</g>
<!-- Node7 -->
<g id="Node000007" class="node">
<title>Node7</title>
<g id="a_Node000007"><a xlink:href="structBaseBuilder.html" target="_top" xlink:title=" ">
<polygon fill="white" stroke="#666666" points="466.5,-163 391.5,-163 391.5,-144 466.5,-144 466.5,-163"/>
<text text-anchor="middle" x="429" y="-151" font-family="Helvetica,sans-Serif" font-size="10.00">BaseBuilder</text>
</a>
</g>
</g>
<!-- Node7&#45;&gt;Node4 -->
<g id="edge7_Node000004_Node000007" class="edge">
<title>Node7&#45;&gt;Node4</title>
<g id="a_edge7_Node000004_Node000007"><a xlink:title=" ">
<path fill="none" stroke="#9a32cd" stroke-dasharray="5,2" d="M412.93,-137.15C402.52,-127.91 388.28,-116.51 374,-109 359.2,-101.22 341.75,-95.31 326.45,-91.08"/>
<polygon fill="#9a32cd" stroke="#9a32cd" points="410.65,-139.81 420.39,-143.99 415.38,-134.65 410.65,-139.81"/>
</a>
</g>
<text text-anchor="start" x="402" y="-114.5" font-family="Helvetica,sans-Serif" font-size="10.00" fill="grey">builder</text>
</g>
<!-- Node8 -->
<g id="Node000008" class="node">
<title>Node8</title>
<g id="a_Node000008"><a xlink:title=" ">
<polygon fill="white" stroke="#666666" points="496.5,-235 381.5,-235 381.5,-216 496.5,-216 496.5,-235"/>
<text text-anchor="middle" x="439" y="-223" font-family="Helvetica,sans-Serif" font-size="10.00">_BaseBuilderPrivate</text>
</a>
</g>
</g>
<!-- Node8&#45;&gt;Node7 -->
<g id="edge8_Node000007_Node000008" class="edge">
<title>Node8&#45;&gt;Node7</title>
<g id="a_edge8_Node000007_Node000008"><a xlink:title=" ">
<path fill="none" stroke="#9a32cd" stroke-dasharray="5,2" d="M436.36,-205.99C434.38,-192.13 431.76,-173.79 430.24,-163.15"/>
<polygon fill="#9a32cd" stroke="#9a32cd" points="432.89,-206.51 437.77,-215.92 439.82,-205.52 432.89,-206.51"/>
</a>
</g>
<text text-anchor="start" x="438.5" y="-186.5" font-family="Helvetica,sans-Serif" font-size="10.00" fill="grey">private</text>
</g>
<!-- Node9 -->
<g id="Node000009" class="node">
<title>Node9</title>
<g id="a_Node000009"><a xlink:title=" ">
<polygon fill="white" stroke="#666666" points="78,-163 0,-163 0,-144 78,-144 78,-163"/>
<text text-anchor="middle" x="39" y="-151" font-family="Helvetica,sans-Serif" font-size="10.00">PrimaryData</text>
</a>
</g>
</g>
<!-- Node9&#45;&gt;Node2 -->
<g id="edge9_Node000002_Node000009" class="edge">
<title>Node9&#45;&gt;Node2</title>
<g id="a_edge9_Node000002_Node000009"><a xlink:title=" ">
<path fill="none" stroke="#9a32cd" stroke-dasharray="5,2" d="M35.06,-134.03C34.32,-125.7 35.02,-116.15 40,-109 45.79,-100.69 54.63,-94.98 64,-91.07"/>
<polygon fill="#9a32cd" stroke="#9a32cd" points="31.62,-134.63 36.63,-143.97 38.53,-133.54 31.62,-134.63"/>
</a>
</g>
<text text-anchor="start" x="43" y="-114.5" font-family="Helvetica,sans-Serif" font-size="10.00" fill="grey">primary_data</text>
</g>
</g>
</svg>
