<?xml version="1.0" encoding="UTF-8" standalone="no"?>
<!DOCTYPE svg PUBLIC "-//W3C//DTD SVG 1.1//EN"
 "http://www.w3.org/Graphics/SVG/1.1/DTD/svg11.dtd">
<!-- Generated by graphviz version 2.43.0 (0)
 -->
<!-- Title: _EvSidebarLinks Pages: 1 -->
<!--zoomable 459 -->

<svg id="main" version="1.1" xmlns="http://www.w3.org/2000/svg" xmlns:xlink="http://www.w3.org/1999/xlink" xml:space="preserve" onload="init(evt)">

<style type="text/css"><![CDATA[
.node, .edge {opacity: 0.7;}
.node.selected, .edge.selected {opacity: 1;}
.edge:hover path { stroke: red; }
.edge:hover polygon { stroke: red; fill: red; }
]]></style>

<defs>
  <circle id="rim" cx="0" cy="0" r="7"/>
  <circle id="rim2" cx="0" cy="0" r="3.5"/>
  <g id="zoomPlus">
    <use xlink:href="#rim" fill="#404040"><set attributeName="fill" to="#808080" begin="zoomplus.mouseover" end="zoomplus.mouseout"/></use>
    <path d="M-4,0h8M0,-4v8" fill="none" stroke="white" stroke-width="1.5" pointer-events="none"/>
  </g>
  <g id="zoomMin">
    <use xlink:href="#rim" fill="#404040"><set attributeName="fill" to="#808080" begin="zoomminus.mouseover" end="zoomminus.mouseout"/></use>
    <path d="M-4,0h8" fill="none" stroke="white" stroke-width="1.5" pointer-events="none"/>
  </g>
  <g id="arrowUp" transform="translate(30 24)">
    <use xlink:href="#rim"/>
    <path pointer-events="none" fill="none" stroke="white" stroke-width="1.5" d="M0,-3.0v7 M-2.5,-0.5L0,-3.0L2.5,-0.5"/>
  </g>
  <g id="arrowRight" transform="rotate(90) translate(36 -43)">
    <use xlink:href="#rim"/>
    <path pointer-events="none" fill="none" stroke="white" stroke-width="1.5" d="M0,-3.0v7 M-2.5,-0.5L0,-3.0L2.5,-0.5"/>
  </g>
  <g id="arrowDown" transform="rotate(180) translate(-30 -48)">
    <use xlink:href="#rim"/>
    <path pointer-events="none" fill="none" stroke="white" stroke-width="1.5" d="M0,-3.0v7 M-2.5,-0.5L0,-3.0L2.5,-0.5"/>
  </g>
  <g id="arrowLeft" transform="rotate(270) translate(-36 17)">
    <use xlink:href="#rim"/>
    <path pointer-events="none" fill="none" stroke="white" stroke-width="1.5" d="M0,-3.0v7 M-2.5,-0.5L0,-3.0L2.5,-0.5"/>
  </g>
  <g id="resetDef">
    <use xlink:href="#rim2" fill="#404040"><set attributeName="fill" to="#808080" begin="reset.mouseover" end="reset.mouseout"/></use>
  </g>
</defs>
<script type="application/ecmascript">
var viewWidth = 258;
var viewHeight = 459;
var sectionId = 'dynsection-0';
</script>
<script type="application/ecmascript" xlink:href="svg.min.js"/>
<svg id="graph" class="graph">
<g id="viewport">
<title>_EvSidebarLinks</title>
<!-- Node1 -->
<g id="Node000001" class="node">
<title>Node1</title>
<g id="a_Node000001"><a xlink:title=" ">
<polygon fill="#999999" stroke="#666666" points="140.71,-19 44.71,-19 44.71,0 140.71,0 140.71,-19"/>
<text text-anchor="middle" x="92.71" y="-7" font-family="Helvetica,sans-Serif" font-size="10.00">_EvSidebarLinks</text>
</a>
</g>
</g>
<!-- Node2 -->
<g id="Node000002" class="node">
<title>Node2</title>
<g id="a_Node000002"><a xlink:title=" ">
<polygon fill="white" stroke="#666666" points="158.21,-91 27.21,-91 27.21,-72 158.21,-72 158.21,-91"/>
<text text-anchor="middle" x="92.71" y="-79" font-family="Helvetica,sans-Serif" font-size="10.00">_EvSidebarLinksPrivate</text>
</a>
</g>
</g>
<!-- Node2&#45;&gt;Node1 -->
<g id="edge1_Node000001_Node000002" class="edge">
<title>Node2&#45;&gt;Node1</title>
<g id="a_edge1_Node000001_Node000002"><a xlink:title=" ">
<path fill="none" stroke="#9a32cd" stroke-dasharray="5,2" d="M92.71,-61.58C92.71,-47.76 92.71,-29.68 92.71,-19.15"/>
<polygon fill="#9a32cd" stroke="#9a32cd" points="89.21,-61.92 92.71,-71.92 96.21,-61.92 89.21,-61.92"/>
</a>
</g>
<text text-anchor="start" x="96.21" y="-42.5" font-family="Helvetica,sans-Serif" font-size="10.00" fill="grey">priv</text>
</g>
<!-- Node3 -->
<g id="Node000003" class="node">
<title>Node3</title>
<g id="a_Node000003"><a xlink:href="struct__EvJob.html" target="_top" xlink:title=" ">
<polygon fill="white" stroke="#666666" points="117.21,-163 68.21,-163 68.21,-144 117.21,-144 117.21,-163"/>
<text text-anchor="middle" x="92.71" y="-151" font-family="Helvetica,sans-Serif" font-size="10.00">_EvJob</text>
</a>
</g>
</g>
<!-- Node3&#45;&gt;Node2 -->
<g id="edge2_Node000002_Node000003" class="edge">
<title>Node3&#45;&gt;Node2</title>
<g id="a_edge2_Node000002_Node000003"><a xlink:title=" ">
<path fill="none" stroke="#9a32cd" stroke-dasharray="5,2" d="M92.71,-133.58C92.71,-119.76 92.71,-101.68 92.71,-91.15"/>
<polygon fill="#9a32cd" stroke="#9a32cd" points="89.21,-133.92 92.71,-143.92 96.21,-133.92 89.21,-133.92"/>
</a>
</g>
<text text-anchor="start" x="95.71" y="-114.5" font-family="Helvetica,sans-Serif" font-size="10.00" fill="grey">job</text>
</g>
<!-- Node4 -->
<g id="Node000004" class="node">
<title>Node4</title>
<g id="a_Node000004"><a xlink:href="struct__EvDocument.html" target="_top" xlink:title=" ">
<polygon fill="white" stroke="#666666" points="134.71,-235 50.71,-235 50.71,-216 134.71,-216 134.71,-235"/>
<text text-anchor="middle" x="92.71" y="-223" font-family="Helvetica,sans-Serif" font-size="10.00">_EvDocument</text>
</a>
</g>
</g>
<!-- Node4&#45;&gt;Node2 -->
<g id="edge8_Node000002_Node000004" class="edge">
<title>Node4&#45;&gt;Node2</title>
<g id="a_edge8_Node000002_Node000004"><a xlink:title=" ">
<path fill="none" stroke="#9a32cd" stroke-dasharray="5,2" d="M60.37,-211.63C40.09,-201.66 15.61,-185.69 3.71,-163 -13.62,-129.97 36.8,-103.78 68.69,-91"/>
<polygon fill="#9a32cd" stroke="#9a32cd" points="59.08,-214.89 69.62,-215.92 62.02,-208.54 59.08,-214.89"/>
</a>
</g>
<text text-anchor="start" x="7.21" y="-150.5" font-family="Helvetica,sans-Serif" font-size="10.00" fill="grey">document</text>
</g>
<!-- Node4&#45;&gt;Node3 -->
<g id="edge3_Node000003_Node000004" class="edge">
<title>Node4&#45;&gt;Node3</title>
<g id="a_edge3_Node000003_Node000004"><a xlink:title=" ">
<path fill="none" stroke="#9a32cd" stroke-dasharray="5,2" d="M92.71,-205.58C92.71,-191.76 92.71,-173.68 92.71,-163.15"/>
<polygon fill="#9a32cd" stroke="#9a32cd" points="89.21,-205.92 92.71,-215.92 96.21,-205.92 89.21,-205.92"/>
</a>
</g>
<text text-anchor="start" x="96.21" y="-186.5" font-family="Helvetica,sans-Serif" font-size="10.00" fill="grey">document</text>
</g>
<!-- Node9 -->
<g id="Node000009" class="node">
<title>Node9</title>
<g id="a_Node000009"><a xlink:title=" ">
<polygon fill="white" stroke="#666666" points="249.71,-163 135.71,-163 135.71,-144 249.71,-144 249.71,-163"/>
<text text-anchor="middle" x="192.71" y="-151" font-family="Helvetica,sans-Serif" font-size="10.00">_EvDocumentModel</text>
</a>
</g>
</g>
<!-- Node4&#45;&gt;Node9 -->
<g id="edge10_Node000009_Node000004" class="edge">
<title>Node4&#45;&gt;Node9</title>
<g id="a_edge10_Node000009_Node000004"><a xlink:title=" ">
<path fill="none" stroke="#9a32cd" stroke-dasharray="5,2" d="M126.77,-211.93C135.28,-208.07 144.13,-203.39 151.71,-198 165.74,-188.01 178.81,-172.69 186.27,-163.15"/>
<polygon fill="#9a32cd" stroke="#9a32cd" points="125.22,-208.79 117.4,-215.94 127.97,-215.22 125.22,-208.79"/>
</a>
</g>
<text text-anchor="start" x="173.21" y="-186.5" font-family="Helvetica,sans-Serif" font-size="10.00" fill="grey">document</text>
</g>
<!-- Node5 -->
<g id="Node000005" class="node">
<title>Node5</title>
<g id="a_Node000005"><a xlink:title=" ">
<polygon fill="white" stroke="#666666" points="152.21,-307 33.21,-307 33.21,-288 152.21,-288 152.21,-307"/>
<text text-anchor="middle" x="92.71" y="-295" font-family="Helvetica,sans-Serif" font-size="10.00">_EvDocumentPrivate</text>
</a>
</g>
</g>
<!-- Node5&#45;&gt;Node4 -->
<g id="edge4_Node000004_Node000005" class="edge">
<title>Node5&#45;&gt;Node4</title>
<g id="a_edge4_Node000004_Node000005"><a xlink:title=" ">
<path fill="none" stroke="#9a32cd" stroke-dasharray="5,2" d="M92.71,-277.58C92.71,-263.76 92.71,-245.68 92.71,-235.15"/>
<polygon fill="#9a32cd" stroke="#9a32cd" points="89.21,-277.92 92.71,-287.92 96.21,-277.92 89.21,-277.92"/>
</a>
</g>
<text text-anchor="start" x="96.21" y="-258.5" font-family="Helvetica,sans-Serif" font-size="10.00" fill="grey">priv</text>
</g>
<!-- Node6 -->
<g id="Node000006" class="node">
<title>Node6</title>
<g id="a_Node000006"><a xlink:title=" ">
<polygon fill="white" stroke="#666666" points="89.21,-379 12.21,-379 12.21,-360 89.21,-360 89.21,-379"/>
<text text-anchor="middle" x="50.71" y="-367" font-family="Helvetica,sans-Serif" font-size="10.00">_EvPageSize</text>
</a>
</g>
</g>
<!-- Node6&#45;&gt;Node5 -->
<g id="edge5_Node000005_Node000006" class="edge">
<title>Node6&#45;&gt;Node5</title>
<g id="a_edge5_Node000005_Node000006"><a xlink:title=" ">
<path fill="none" stroke="#9a32cd" stroke-dasharray="5,2" d="M53.93,-349.95C55.9,-341.86 58.98,-332.53 63.71,-325 68.06,-318.07 74.7,-311.81 80.53,-307.12"/>
<polygon fill="#9a32cd" stroke="#9a32cd" points="50.46,-349.43 51.87,-359.93 57.32,-350.84 50.46,-349.43"/>
</a>
</g>
<text text-anchor="start" x="67.21" y="-330.5" font-family="Helvetica,sans-Serif" font-size="10.00" fill="grey">page_sizes</text>
</g>
<!-- Node7 -->
<g id="Node000007" class="node">
<title>Node7</title>
<g id="a_Node000007"><a xlink:href="struct__EvDocumentInfo.html" target="_top" xlink:title=" ">
<polygon fill="white" stroke="#666666" points="210.21,-379 107.21,-379 107.21,-360 210.21,-360 210.21,-379"/>
<text text-anchor="middle" x="158.71" y="-367" font-family="Helvetica,sans-Serif" font-size="10.00">_EvDocumentInfo</text>
</a>
</g>
</g>
<!-- Node7&#45;&gt;Node5 -->
<g id="edge6_Node000005_Node000007" class="edge">
<title>Node7&#45;&gt;Node5</title>
<g id="a_edge6_Node000005_Node000007"><a xlink:title=" ">
<path fill="none" stroke="#9a32cd" stroke-dasharray="5,2" d="M146.74,-351.48C140.56,-343.15 132.66,-333.18 124.71,-325 118.37,-318.48 110.52,-311.96 104.18,-307.02"/>
<polygon fill="#9a32cd" stroke="#9a32cd" points="144,-353.66 152.7,-359.72 149.67,-349.56 144,-353.66"/>
</a>
</g>
<text text-anchor="start" x="141.21" y="-330.5" font-family="Helvetica,sans-Serif" font-size="10.00" fill="grey">info</text>
</g>
<!-- Node8 -->
<g id="Node000008" class="node">
<title>Node8</title>
<g id="a_Node000008"><a xlink:href="struct__EvDocumentLicense.html" target="_top" xlink:title=" ">
<polygon fill="white" stroke="#666666" points="219.21,-451 98.21,-451 98.21,-432 219.21,-432 219.21,-451"/>
<text text-anchor="middle" x="158.71" y="-439" font-family="Helvetica,sans-Serif" font-size="10.00">_EvDocumentLicense</text>
</a>
</g>
</g>
<!-- Node8&#45;&gt;Node7 -->
<g id="edge7_Node000007_Node000008" class="edge">
<title>Node8&#45;&gt;Node7</title>
<g id="a_edge7_Node000007_Node000008"><a xlink:title=" ">
<path fill="none" stroke="#9a32cd" stroke-dasharray="5,2" d="M158.71,-421.58C158.71,-407.76 158.71,-389.68 158.71,-379.15"/>
<polygon fill="#9a32cd" stroke="#9a32cd" points="155.21,-421.92 158.71,-431.92 162.21,-421.92 155.21,-421.92"/>
</a>
</g>
<text text-anchor="start" x="162.21" y="-402.5" font-family="Helvetica,sans-Serif" font-size="10.00" fill="grey">license</text>
</g>
<!-- Node9&#45;&gt;Node2 -->
<g id="edge9_Node000002_Node000009" class="edge">
<title>Node9&#45;&gt;Node2</title>
<g id="a_edge9_Node000002_Node000009"><a xlink:title=" ">
<path fill="none" stroke="#9a32cd" stroke-dasharray="5,2" d="M172.21,-138.16C152.02,-124.02 121.84,-102.89 105.07,-91.15"/>
<polygon fill="#9a32cd" stroke="#9a32cd" points="170.24,-141.05 180.44,-143.92 174.26,-135.31 170.24,-141.05"/>
</a>
</g>
<text text-anchor="start" x="156.71" y="-114.5" font-family="Helvetica,sans-Serif" font-size="10.00" fill="grey">doc_model</text>
</g>
</g>
</svg>

<g id="navigator" transform="translate(0 0)" fill="#404254">
  <rect fill="#f2f5e9" fill-opacity="0.5" stroke="#606060" stroke-width=".5" x="0" y="0" width="60" height="60"/>
  <use id="zoomplus" xlink:href="#zoomPlus" x="17" y="9" onmousedown="handleZoom(evt,'in')"/>
  <use id="zoomminus" xlink:href="#zoomMin" x="42" y="9" onmousedown="handleZoom(evt,'out')"/>
  <use id="reset" xlink:href="#resetDef" x="30" y="36" onmousedown="handleReset()"/>
   <use id="arrowup" xlink:href="#arrowUp" x="0" y="0" onmousedown="handlePan(0,-1)"/>
  <use id="arrowright" xlink:href="#arrowRight" x="0" y="0" onmousedown="handlePan(1,0)"/>
  <use id="arrowdown" xlink:href="#arrowDown" x="0" y="0" onmousedown="handlePan(0,1)"/>
  <use id="arrowleft" xlink:href="#arrowLeft" x="0" y="0" onmousedown="handlePan(-1,0)"/>
</g>
<svg viewBox="0 0 15 15" width="100%" height="30px" preserveAspectRatio="xMaxYMin meet">
 <g id="arrow_out" transform="scale(0.3 0.3)">
  <a xlink:href="struct__EvSidebarLinks__coll__graph_org.svg" target="_base">
   <rect id="button" ry="5" rx="5" y="6" x="6" height="38" width="38"
        fill="#f2f5e9" fill-opacity="0.5" stroke="#606060" stroke-width="1.0"/>
   <path id="arrow"
     d="M 11.500037,31.436501 C 11.940474,20.09759 22.043105,11.32322 32.158766,21.979434 L 37.068811,17.246167 C 37.068811,17.246167 37.088388,32 37.088388,32 L 22.160133,31.978069 C 22.160133,31.978069 26.997745,27.140456 26.997745,27.140456 C 18.528582,18.264221 13.291696,25.230495 11.500037,31.436501 z"
     style="fill:#404040;"/>
  </a>
 </g>
</svg>

<style type='text/css'>
<![CDATA[
[data-mouse-over-selected='false'] { opacity: 0.7; }
[data-mouse-over-selected='true']  { opacity: 1.0; }
]]>
</style>
<script type="application/ecmascript"><![CDATA[
document.addEventListener('DOMContentLoaded', (event) => {
  highlightEdges();
  highlightAdjacentNodes();
});
]]></script>
</svg>
