<?xml version="1.0" encoding="UTF-8" standalone="no"?>
<!DOCTYPE svg PUBLIC "-//W3C//DTD SVG 1.1//EN"
 "http://www.w3.org/Graphics/SVG/1.1/DTD/svg11.dtd">
<!-- Generated by graphviz version 2.43.0 (0)
 -->
<!-- Title: _FrWindow Pages: 1 -->
<svg width="1337pt" height="327pt"
 viewBox="0.00 0.00 1337.00 327.40" xmlns="http://www.w3.org/2000/svg" xmlns:xlink="http://www.w3.org/1999/xlink">
<g id="graph0" class="graph" transform="scale(1 1) rotate(0) translate(4 323.4)">
<title>_FrWindow</title>
<!-- Node1 -->
<g id="Node000001" class="node">
<title>Node1</title>
<g id="a_Node000001"><a xlink:title=" ">
<polygon fill="#999999" stroke="#666666" points="1329,-287.9 1259,-287.9 1259,-268.9 1329,-268.9 1329,-287.9"/>
<text text-anchor="middle" x="1294" y="-275.9" font-family="Helvetica,sans-Serif" font-size="10.00">_FrWindow</text>
</a>
</g>
</g>
<!-- Node2 -->
<g id="Node000002" class="node">
<title>Node2</title>
<g id="a_Node000002"><a xlink:href="struct__FrArchive.html" target="_top" xlink:title=" ">
<polygon fill="white" stroke="#666666" points="712,-141.9 644,-141.9 644,-122.9 712,-122.9 712,-141.9"/>
<text text-anchor="middle" x="678" y="-129.9" font-family="Helvetica,sans-Serif" font-size="10.00">_FrArchive</text>
</a>
</g>
</g>
<!-- Node2&#45;&gt;Node1 -->
<g id="edge1_Node000001_Node000002" class="edge">
<title>Node2&#45;&gt;Node1</title>
<g id="a_edge1_Node000001_Node000002"><a xlink:title=" ">
<path fill="none" stroke="#9a32cd" stroke-dasharray="5,2" d="M684.34,-151.79C691.45,-174.55 706.02,-212.23 730,-236.4 760.1,-266.73 774.7,-268.44 816,-279.4 977.09,-322.14 1179.69,-297.06 1258.98,-284.38"/>
<polygon fill="#9a32cd" stroke="#9a32cd" points="687.62,-150.55 681.43,-141.95 680.9,-152.53 687.62,-150.55"/>
</a>
</g>
<text text-anchor="start" x="979.5" y="-307.9" font-family="Helvetica,sans-Serif" font-size="10.00" fill="grey">archive</text>
</g>
<!-- Node8 -->
<g id="Node000008" class="node">
<title>Node8</title>
<g id="a_Node000008"><a xlink:title=" ">
<polygon fill="white" stroke="#666666" points="1189,-50.9 1079,-50.9 1079,-31.9 1189,-31.9 1189,-50.9"/>
<text text-anchor="middle" x="1134" y="-38.9" font-family="Helvetica,sans-Serif" font-size="10.00">_FrArchivePrivData</text>
</a>
</g>
</g>
<!-- Node2&#45;&gt;Node8 -->
<g id="edge11_Node000008_Node000002" class="edge">
<title>Node2&#45;&gt;Node8</title>
<g id="a_edge11_Node000008_Node000002"><a xlink:title=" ">
<path fill="none" stroke="#9a32cd" stroke-dasharray="5,2" d="M721.01,-120.03C747.98,-112.43 783.84,-102.92 816,-96.4 919.86,-75.34 948.11,-83.29 1052,-62.4 1067.81,-59.22 1085.14,-54.85 1099.69,-50.92"/>
<polygon fill="#9a32cd" stroke="#9a32cd" points="719.8,-116.74 711.14,-122.84 721.72,-123.47 719.8,-116.74"/>
</a>
</g>
<text text-anchor="start" x="833.5" y="-101.9" font-family="Helvetica,sans-Serif" font-size="10.00" fill="grey">fake_load_func</text>
</g>
<!-- Node9 -->
<g id="Node000009" class="node">
<title>Node9</title>
<g id="a_Node000009"><a xlink:title=" ">
<polygon fill="white" stroke="#666666" points="925,-50.9 816,-50.9 816,-31.9 925,-31.9 925,-50.9"/>
<text text-anchor="middle" x="870.5" y="-38.9" font-family="Helvetica,sans-Serif" font-size="10.00">DroppedItemsData</text>
</a>
</g>
</g>
<!-- Node2&#45;&gt;Node9 -->
<g id="edge13_Node000009_Node000002" class="edge">
<title>Node2&#45;&gt;Node9</title>
<g id="a_edge13_Node000009_Node000002"><a xlink:title=" ">
<path fill="none" stroke="#9a32cd" stroke-dasharray="5,2" d="M686.25,-113.22C694.12,-95.29 708.51,-69.38 730,-56.4 755.44,-41.03 788.31,-36.91 815.76,-36.8"/>
<polygon fill="#9a32cd" stroke="#9a32cd" points="682.92,-112.12 682.37,-122.7 689.4,-114.77 682.92,-112.12"/>
</a>
</g>
<text text-anchor="start" x="746" y="-61.9" font-family="Helvetica,sans-Serif" font-size="10.00" fill="grey">archive</text>
</g>
<!-- Node10 -->
<g id="Node000010" class="node">
<title>Node10</title>
<g id="a_Node000010"><a xlink:title=" ">
<polygon fill="white" stroke="#666666" points="1198,-224.9 1070,-224.9 1070,-205.9 1198,-205.9 1198,-224.9"/>
<text text-anchor="middle" x="1134" y="-212.9" font-family="Helvetica,sans-Serif" font-size="10.00">_FrWindowPrivateData</text>
</a>
</g>
</g>
<!-- Node2&#45;&gt;Node10 -->
<g id="edge19_Node000010_Node000002" class="edge">
<title>Node2&#45;&gt;Node10</title>
<g id="a_edge19_Node000010_Node000002"><a xlink:title=" ">
<path fill="none" stroke="#9a32cd" stroke-dasharray="5,2" d="M721.95,-140.25C805.63,-155.55 990.23,-189.3 1080.81,-205.86"/>
<polygon fill="#9a32cd" stroke="#9a32cd" points="722.48,-136.79 712.02,-138.44 721.22,-143.68 722.48,-136.79"/>
</a>
</g>
<text text-anchor="start" x="823.5" y="-181.9" font-family="Helvetica,sans-Serif" font-size="10.00" fill="grey">copy_from_archive</text>
</g>
<!-- Node12 -->
<g id="Node000012" class="node">
<title>Node12</title>
<g id="a_Node000012"><a xlink:title=" ">
<polygon fill="white" stroke="#666666" points="916,-232.9 825,-232.9 825,-213.9 916,-213.9 916,-232.9"/>
<text text-anchor="middle" x="870.5" y="-220.9" font-family="Helvetica,sans-Serif" font-size="10.00">FRConvertData</text>
</a>
</g>
</g>
<!-- Node2&#45;&gt;Node12 -->
<g id="edge17_Node000012_Node000002" class="edge">
<title>Node2&#45;&gt;Node12</title>
<g id="a_edge17_Node000012_Node000002"><a xlink:title=" ">
<path fill="none" stroke="#9a32cd" stroke-dasharray="5,2" d="M689.94,-150.79C698.99,-164.37 713.07,-182.19 730,-192.4 758.68,-209.69 795.91,-217.37 824.69,-220.76"/>
<polygon fill="#9a32cd" stroke="#9a32cd" points="692.82,-148.79 684.51,-142.22 686.91,-152.54 692.82,-148.79"/>
</a>
</g>
<text text-anchor="start" x="733" y="-220.9" font-family="Helvetica,sans-Serif" font-size="10.00" fill="grey">new_archive</text>
</g>
<!-- Node3 -->
<g id="Node000003" class="node">
<title>Node3</title>
<g id="a_Node000003"><a xlink:href="struct__FrCommand.html" target="_top" xlink:title=" ">
<polygon fill="white" stroke="#666666" points="553,-95.9 472,-95.9 472,-76.9 553,-76.9 553,-95.9"/>
<text text-anchor="middle" x="512.5" y="-83.9" font-family="Helvetica,sans-Serif" font-size="10.00">_FrCommand</text>
</a>
</g>
</g>
<!-- Node3&#45;&gt;Node2 -->
<g id="edge2_Node000002_Node000003" class="edge">
<title>Node3&#45;&gt;Node2</title>
<g id="a_edge2_Node000002_Node000003"><a xlink:title=" ">
<path fill="none" stroke="#9a32cd" stroke-dasharray="5,2" d="M563.34,-88.6C583.26,-90.62 606.14,-94.39 626,-101.4 640.07,-106.37 654.45,-115.55 664.34,-122.64"/>
<polygon fill="#9a32cd" stroke="#9a32cd" points="563.49,-85.1 553.22,-87.7 562.87,-92.08 563.49,-85.1"/>
</a>
</g>
<text text-anchor="start" x="574.5" y="-106.9" font-family="Helvetica,sans-Serif" font-size="10.00" fill="grey">command</text>
</g>
<!-- Node4 -->
<g id="Node000004" class="node">
<title>Node4</title>
<g id="a_Node000004"><a xlink:href="struct__FrProcess.html" target="_top" xlink:title=" ">
<polygon fill="white" stroke="#666666" points="392,-99.9 324,-99.9 324,-80.9 392,-80.9 392,-99.9"/>
<text text-anchor="middle" x="358" y="-87.9" font-family="Helvetica,sans-Serif" font-size="10.00">_FrProcess</text>
</a>
</g>
</g>
<!-- Node4&#45;&gt;Node2 -->
<g id="edge8_Node000002_Node000004" class="edge">
<title>Node4&#45;&gt;Node2</title>
<g id="a_edge8_Node000002_Node000004"><a xlink:title=" ">
<path fill="none" stroke="#9a32cd" stroke-dasharray="5,2" d="M388.94,-103.81C395.75,-106.39 403.03,-108.78 410,-110.4 492.46,-129.53 592.62,-132.58 643.64,-132.74"/>
<polygon fill="#9a32cd" stroke="#9a32cd" points="389.99,-100.46 379.41,-99.98 387.38,-106.96 389.99,-100.46"/>
</a>
</g>
<text text-anchor="start" x="493.5" y="-134.9" font-family="Helvetica,sans-Serif" font-size="10.00" fill="grey">process</text>
</g>
<!-- Node4&#45;&gt;Node3 -->
<g id="edge3_Node000003_Node000004" class="edge">
<title>Node4&#45;&gt;Node3</title>
<g id="a_edge3_Node000003_Node000004"><a xlink:title=" ">
<path fill="none" stroke="#9a32cd" stroke-dasharray="5,2" d="M402.14,-89.27C424.08,-88.69 450.57,-88 471.99,-87.44"/>
<polygon fill="#9a32cd" stroke="#9a32cd" points="401.99,-85.77 392.09,-89.53 402.18,-92.77 401.99,-85.77"/>
</a>
</g>
<text text-anchor="start" x="413" y="-94.9" font-family="Helvetica,sans-Serif" font-size="10.00" fill="grey">process</text>
</g>
<!-- Node5 -->
<g id="Node000005" class="node">
<title>Node5</title>
<g id="a_Node000005"><a xlink:href="structFrChannelData.html" target="_top" xlink:title=" ">
<polygon fill="white" stroke="#666666" points="256,-139.9 167,-139.9 167,-120.9 256,-120.9 256,-139.9"/>
<text text-anchor="middle" x="211.5" y="-127.9" font-family="Helvetica,sans-Serif" font-size="10.00">FrChannelData</text>
</a>
</g>
</g>
<!-- Node5&#45;&gt;Node4 -->
<g id="edge4_Node000004_Node000005" class="edge">
<title>Node5&#45;&gt;Node4</title>
<g id="a_edge4_Node000004_Node000005"><a xlink:title=" ">
<path fill="none" stroke="#9a32cd" stroke-dasharray="5,2" d="M265.92,-118.88C279.1,-115.75 293.12,-112.18 306,-108.4 314.47,-105.92 323.6,-102.83 331.75,-99.92"/>
<polygon fill="#9a32cd" stroke="#9a32cd" points="264.99,-115.5 256.05,-121.18 266.58,-122.32 264.99,-115.5"/>
</a>
</g>
<text text-anchor="start" x="285.5" y="-136.4" font-family="Helvetica,sans-Serif" font-size="10.00" fill="grey">err</text>
<text text-anchor="start" x="285.5" y="-121.4" font-family="Helvetica,sans-Serif" font-size="10.00" fill="grey">out</text>
</g>
<!-- Node6 -->
<g id="Node000006" class="node">
<title>Node6</title>
<g id="a_Node000006"><a xlink:href="structFrProcError.html" target="_top" xlink:title=" ">
<polygon fill="white" stroke="#666666" points="70,-102.9 0,-102.9 0,-83.9 70,-83.9 70,-102.9"/>
<text text-anchor="middle" x="35" y="-90.9" font-family="Helvetica,sans-Serif" font-size="10.00">FrProcError</text>
</a>
</g>
</g>
<!-- Node6&#45;&gt;Node2 -->
<g id="edge9_Node000002_Node000006" class="edge">
<title>Node6&#45;&gt;Node2</title>
<g id="a_edge9_Node000002_Node000006"><a xlink:title=" ">
<path fill="none" stroke="#9a32cd" stroke-dasharray="5,2" d="M55.04,-109.66C85.66,-134.08 148.68,-177.4 210.5,-177.4 210.5,-177.4 210.5,-177.4 513.5,-177.4 566.49,-177.4 625.8,-155.15 656.34,-141.94"/>
<polygon fill="#9a32cd" stroke="#9a32cd" points="56.91,-106.66 46.95,-103.04 52.47,-112.08 56.91,-106.66"/>
</a>
</g>
<text text-anchor="start" x="346" y="-182.9" font-family="Helvetica,sans-Serif" font-size="10.00" fill="grey">error</text>
</g>
<!-- Node6&#45;&gt;Node4 -->
<g id="edge5_Node000004_Node000006" class="edge">
<title>Node6&#45;&gt;Node4</title>
<g id="a_edge5_Node000004_Node000006"><a xlink:title=" ">
<path fill="none" stroke="#9a32cd" stroke-dasharray="5,2" d="M70.77,-80.44C95.31,-72 129.18,-61.78 160,-57.4 205.32,-50.95 217.87,-49.71 263,-57.4 289.09,-61.85 317.57,-72.77 336.26,-80.83"/>
<polygon fill="#9a32cd" stroke="#9a32cd" points="69.46,-77.19 61.19,-83.81 71.78,-83.79 69.46,-77.19"/>
</a>
</g>
<text text-anchor="start" x="199.5" y="-62.9" font-family="Helvetica,sans-Serif" font-size="10.00" fill="grey">error</text>
</g>
<!-- Node7 -->
<g id="Node000007" class="node">
<title>Node7</title>
<g id="a_Node000007"><a xlink:title=" ">
<polygon fill="white" stroke="#666666" points="263,-102.9 160,-102.9 160,-83.9 263,-83.9 263,-102.9"/>
<text text-anchor="middle" x="211.5" y="-90.9" font-family="Helvetica,sans-Serif" font-size="10.00">_FrProcessPrivate</text>
</a>
</g>
</g>
<!-- Node6&#45;&gt;Node7 -->
<g id="edge7_Node000007_Node000006" class="edge">
<title>Node6&#45;&gt;Node7</title>
<g id="a_edge7_Node000007_Node000006"><a xlink:title=" ">
<path fill="none" stroke="#9a32cd" stroke-dasharray="5,2" d="M80.09,-93.4C104.41,-93.4 134.72,-93.4 160,-93.4"/>
<polygon fill="#9a32cd" stroke="#9a32cd" points="80.06,-89.9 70.06,-93.4 80.06,-96.9 80.06,-89.9"/>
</a>
</g>
<text text-anchor="start" x="91" y="-98.9" font-family="Helvetica,sans-Serif" font-size="10.00" fill="grey">first_error</text>
</g>
<!-- Node7&#45;&gt;Node4 -->
<g id="edge6_Node000004_Node000007" class="edge">
<title>Node7&#45;&gt;Node4</title>
<g id="a_edge6_Node000004_Node000007"><a xlink:title=" ">
<path fill="none" stroke="#9a32cd" stroke-dasharray="5,2" d="M273.38,-91.57C275.95,-91.51 278.5,-91.45 281,-91.4 294.98,-91.1 310.42,-90.88 323.7,-90.72"/>
<polygon fill="#9a32cd" stroke="#9a32cd" points="273.28,-88.07 263.37,-91.82 273.46,-95.07 273.28,-88.07"/>
</a>
</g>
<text text-anchor="start" x="284.5" y="-96.9" font-family="Helvetica,sans-Serif" font-size="10.00" fill="grey">priv</text>
</g>
<!-- Node8&#45;&gt;Node2 -->
<g id="edge10_Node000002_Node000008" class="edge">
<title>Node8&#45;&gt;Node2</title>
<g id="a_edge10_Node000002_Node000008"><a xlink:title=" ">
<path fill="none" stroke="#9a32cd" stroke-dasharray="5,2" d="M1090.43,-29.14C1029.4,-13.25 913.65,10.62 816,-5.4 776.2,-11.93 760.64,-8.17 730,-34.4 701.44,-58.85 686.72,-103.31 681.39,-122.8"/>
<polygon fill="#9a32cd" stroke="#9a32cd" points="1089.89,-32.62 1100.45,-31.81 1091.69,-25.86 1089.89,-32.62"/>
</a>
</g>
<text text-anchor="start" x="861.5" y="-10.9" font-family="Helvetica,sans-Serif" font-size="10.00" fill="grey">priv</text>
</g>
<!-- Node9&#45;&gt;Node8 -->
<g id="edge12_Node000008_Node000009" class="edge">
<title>Node9&#45;&gt;Node8</title>
<g id="a_edge12_Node000008_Node000009"><a xlink:title=" ">
<path fill="none" stroke="#9a32cd" stroke-dasharray="5,2" d="M935.33,-41.4C979.23,-41.4 1036.91,-41.4 1078.62,-41.4"/>
<polygon fill="#9a32cd" stroke="#9a32cd" points="935.05,-37.9 925.05,-41.4 935.05,-44.9 935.05,-37.9"/>
</a>
</g>
<text text-anchor="start" x="947.5" y="-46.9" font-family="Helvetica,sans-Serif" font-size="10.00" fill="grey">dropped_items_data</text>
</g>
<!-- Node10&#45;&gt;Node1 -->
<g id="edge14_Node000001_Node000010" class="edge">
<title>Node10&#45;&gt;Node1</title>
<g id="a_edge14_Node000001_Node000010"><a xlink:title=" ">
<path fill="none" stroke="#9a32cd" stroke-dasharray="5,2" d="M1168.67,-228.83C1198.82,-240.85 1242.29,-258.18 1269.04,-268.85"/>
<polygon fill="#9a32cd" stroke="#9a32cd" points="1169.58,-225.42 1159,-224.97 1166.99,-231.92 1169.58,-225.42"/>
</a>
</g>
<text text-anchor="start" x="1219.5" y="-260.9" font-family="Helvetica,sans-Serif" font-size="10.00" fill="grey">priv</text>
</g>
<!-- Node11 -->
<g id="Node000011" class="node">
<title>Node11</title>
<g id="a_Node000011"><a xlink:title=" ">
<polygon fill="white" stroke="#666666" points="914.5,-141.9 826.5,-141.9 826.5,-122.9 914.5,-122.9 914.5,-141.9"/>
<text text-anchor="middle" x="870.5" y="-129.9" font-family="Helvetica,sans-Serif" font-size="10.00">FRBatchAction</text>
</a>
</g>
</g>
<!-- Node11&#45;&gt;Node10 -->
<g id="edge15_Node000010_Node000011" class="edge">
<title>Node11&#45;&gt;Node10</title>
<g id="a_edge15_Node000010_Node000011"><a xlink:title=" ">
<path fill="none" stroke="#9a32cd" stroke-dasharray="5,2" d="M924.87,-128.51C961.89,-127.77 1011.6,-130.76 1052,-147.4 1083.58,-160.4 1112.03,-190.41 1125.23,-205.85"/>
<polygon fill="#9a32cd" stroke="#9a32cd" points="924.67,-125.01 914.78,-128.8 924.88,-132.01 924.67,-125.01"/>
</a>
</g>
<text text-anchor="start" x="946.5" y="-152.9" font-family="Helvetica,sans-Serif" font-size="10.00" fill="grey">current_batch_action</text>
</g>
<!-- Node12&#45;&gt;Node10 -->
<g id="edge16_Node000010_Node000012" class="edge">
<title>Node12&#45;&gt;Node10</title>
<g id="a_edge16_Node000010_Node000012"><a xlink:title=" ">
<path fill="none" stroke="#9a32cd" stroke-dasharray="5,2" d="M926.21,-217.52C931.88,-217.07 937.55,-216.68 943,-216.4 985.17,-214.23 1032.67,-213.98 1069.63,-214.27"/>
<polygon fill="#9a32cd" stroke="#9a32cd" points="925.74,-214.05 916.08,-218.4 926.34,-221.02 925.74,-214.05"/>
</a>
</g>
<text text-anchor="start" x="965.5" y="-221.9" font-family="Helvetica,sans-Serif" font-size="10.00" fill="grey">convert_data</text>
</g>
<!-- Node13 -->
<g id="Node000013" class="node">
<title>Node13</title>
<g id="a_Node000013"><a xlink:title=" ">
<polygon fill="white" stroke="#666666" points="918,-269.9 823,-269.9 823,-250.9 918,-250.9 918,-269.9"/>
<text text-anchor="middle" x="870.5" y="-257.9" font-family="Helvetica,sans-Serif" font-size="10.00">FrClipboardData</text>
</a>
</g>
</g>
<!-- Node13&#45;&gt;Node10 -->
<g id="edge18_Node000010_Node000013" class="edge">
<title>Node13&#45;&gt;Node10</title>
<g id="a_edge18_Node000010_Node000013"><a xlink:title=" ">
<path fill="none" stroke="#9a32cd" stroke-dasharray="5,2" d="M928.23,-252.95C963.87,-248.02 1010.74,-241.06 1052,-233.4 1065.31,-230.93 1079.77,-227.85 1092.74,-224.93"/>
<polygon fill="#9a32cd" stroke="#9a32cd" points="927.45,-249.53 918.02,-254.36 928.4,-256.46 927.45,-249.53"/>
</a>
</g>
<text text-anchor="start" x="961.5" y="-271.4" font-family="Helvetica,sans-Serif" font-size="10.00" fill="grey">clipboard_data</text>
<text text-anchor="start" x="961.5" y="-256.4" font-family="Helvetica,sans-Serif" font-size="10.00" fill="grey">copy_data</text>
</g>
</g>
</svg>
