<?xml version="1.0" encoding="UTF-8" standalone="no"?>
<!DOCTYPE svg PUBLIC "-//W3C//DTD SVG 1.1//EN"
 "http://www.w3.org/Graphics/SVG/1.1/DTD/svg11.dtd">
<!-- Generated by graphviz version 2.43.0 (0)
 -->
<!-- Title: BaseAssistantClass Pages: 1 -->
<svg width="304pt" height="315pt"
 viewBox="0.00 0.00 304.00 315.00" xmlns="http://www.w3.org/2000/svg" xmlns:xlink="http://www.w3.org/1999/xlink">
<g id="graph0" class="graph" transform="scale(1 1) rotate(0) translate(4 311)">
<title>BaseAssistantClass</title>
<!-- Node1 -->
<g id="Node000001" class="node">
<title>Node1</title>
<g id="a_Node000001"><a xlink:title=" ">
<polygon fill="#999999" stroke="#666666" points="239,-19 127,-19 127,0 239,0 239,-19"/>
<text text-anchor="middle" x="183" y="-7" font-family="Helvetica,sans-Serif" font-size="10.00">BaseAssistantClass</text>
</a>
</g>
</g>
<!-- Node2 -->
<g id="Node000002" class="node">
<title>Node2</title>
<g id="a_Node000002"><a xlink:href="structBaseWindowClass.html" target="_top" xlink:title=" ">
<polygon fill="white" stroke="#666666" points="126,-91 20,-91 20,-72 126,-72 126,-91"/>
<text text-anchor="middle" x="73" y="-79" font-family="Helvetica,sans-Serif" font-size="10.00">BaseWindowClass</text>
</a>
</g>
</g>
<!-- Node2&#45;&gt;Node1 -->
<g id="edge1_Node000001_Node000002" class="edge">
<title>Node2&#45;&gt;Node1</title>
<g id="a_edge1_Node000001_Node000002"><a xlink:title=" ">
<path fill="none" stroke="#9a32cd" stroke-dasharray="5,2" d="M94.95,-66.53C117.15,-52.4 150.79,-31 169.4,-19.15"/>
<polygon fill="#9a32cd" stroke="#9a32cd" points="93.05,-63.6 86.49,-71.92 96.8,-69.5 93.05,-63.6"/>
</a>
</g>
<text text-anchor="start" x="145" y="-42.5" font-family="Helvetica,sans-Serif" font-size="10.00" fill="grey">parent</text>
</g>
<!-- Node3 -->
<g id="Node000003" class="node">
<title>Node3</title>
<g id="a_Node000003"><a xlink:title=" ">
<polygon fill="white" stroke="#666666" points="146,-163 0,-163 0,-144 146,-144 146,-163"/>
<text text-anchor="middle" x="73" y="-151" font-family="Helvetica,sans-Serif" font-size="10.00">_BaseWindowClassPrivate</text>
</a>
</g>
</g>
<!-- Node3&#45;&gt;Node2 -->
<g id="edge2_Node000002_Node000003" class="edge">
<title>Node3&#45;&gt;Node2</title>
<g id="a_edge2_Node000002_Node000003"><a xlink:title=" ">
<path fill="none" stroke="#9a32cd" stroke-dasharray="5,2" d="M73,-133.58C73,-119.76 73,-101.68 73,-91.15"/>
<polygon fill="#9a32cd" stroke="#9a32cd" points="69.5,-133.92 73,-143.92 76.5,-133.92 69.5,-133.92"/>
</a>
</g>
<text text-anchor="start" x="76.5" y="-114.5" font-family="Helvetica,sans-Serif" font-size="10.00" fill="grey">private</text>
</g>
<!-- Node4 -->
<g id="Node000004" class="node">
<title>Node4</title>
<g id="a_Node000004"><a xlink:href="structBaseBuilder.html" target="_top" xlink:title=" ">
<polygon fill="white" stroke="#666666" points="110.5,-235 35.5,-235 35.5,-216 110.5,-216 110.5,-235"/>
<text text-anchor="middle" x="73" y="-223" font-family="Helvetica,sans-Serif" font-size="10.00">BaseBuilder</text>
</a>
</g>
</g>
<!-- Node4&#45;&gt;Node3 -->
<g id="edge3_Node000003_Node000004" class="edge">
<title>Node4&#45;&gt;Node3</title>
<g id="a_edge3_Node000003_Node000004"><a xlink:title=" ">
<path fill="none" stroke="#9a32cd" stroke-dasharray="5,2" d="M73,-205.58C73,-191.76 73,-173.68 73,-163.15"/>
<polygon fill="#9a32cd" stroke="#9a32cd" points="69.5,-205.92 73,-215.92 76.5,-205.92 69.5,-205.92"/>
</a>
</g>
<text text-anchor="start" x="76" y="-186.5" font-family="Helvetica,sans-Serif" font-size="10.00" fill="grey">builder</text>
</g>
<!-- Node5 -->
<g id="Node000005" class="node">
<title>Node5</title>
<g id="a_Node000005"><a xlink:title=" ">
<polygon fill="white" stroke="#666666" points="130.5,-307 15.5,-307 15.5,-288 130.5,-288 130.5,-307"/>
<text text-anchor="middle" x="73" y="-295" font-family="Helvetica,sans-Serif" font-size="10.00">_BaseBuilderPrivate</text>
</a>
</g>
</g>
<!-- Node5&#45;&gt;Node4 -->
<g id="edge4_Node000004_Node000005" class="edge">
<title>Node5&#45;&gt;Node4</title>
<g id="a_edge4_Node000004_Node000005"><a xlink:title=" ">
<path fill="none" stroke="#9a32cd" stroke-dasharray="5,2" d="M73,-277.58C73,-263.76 73,-245.68 73,-235.15"/>
<polygon fill="#9a32cd" stroke="#9a32cd" points="69.5,-277.92 73,-287.92 76.5,-277.92 69.5,-277.92"/>
</a>
</g>
<text text-anchor="start" x="76.5" y="-258.5" font-family="Helvetica,sans-Serif" font-size="10.00" fill="grey">private</text>
</g>
<!-- Node6 -->
<g id="Node000006" class="node">
<title>Node6</title>
<g id="a_Node000006"><a xlink:title=" ">
<polygon fill="white" stroke="#666666" points="296,-91 144,-91 144,-72 296,-72 296,-91"/>
<text text-anchor="middle" x="220" y="-79" font-family="Helvetica,sans-Serif" font-size="10.00">_BaseAssistantClassPrivate</text>
</a>
</g>
</g>
<!-- Node6&#45;&gt;Node1 -->
<g id="edge5_Node000001_Node000006" class="edge">
<title>Node6&#45;&gt;Node1</title>
<g id="a_edge5_Node000001_Node000006"><a xlink:title=" ">
<path fill="none" stroke="#9a32cd" stroke-dasharray="5,2" d="M210.65,-62.81C203.27,-48.86 193.31,-30 187.57,-19.15"/>
<polygon fill="#9a32cd" stroke="#9a32cd" points="207.7,-64.71 215.46,-71.92 213.88,-61.44 207.7,-64.71"/>
</a>
</g>
<text text-anchor="start" x="208.5" y="-42.5" font-family="Helvetica,sans-Serif" font-size="10.00" fill="grey">private</text>
</g>
</g>
</svg>
