<?xml version="1.0" encoding="UTF-8" standalone="no"?>
<!DOCTYPE svg PUBLIC "-//W3C//DTD SVG 1.1//EN"
 "http://www.w3.org/Graphics/SVG/1.1/DTD/svg11.dtd">
<!-- Generated by graphviz version 2.43.0 (0)
 -->
<!-- Title: _GvcMixerDialog Pages: 1 -->
<!--zoomable 474 -->

<svg id="main" version="1.1" xmlns="http://www.w3.org/2000/svg" xmlns:xlink="http://www.w3.org/1999/xlink" xml:space="preserve" onload="init(evt)">

<style type="text/css"><![CDATA[
.node, .edge {opacity: 0.7;}
.node.selected, .edge.selected {opacity: 1;}
.edge:hover path { stroke: red; }
.edge:hover polygon { stroke: red; fill: red; }
]]></style>

<defs>
  <circle id="rim" cx="0" cy="0" r="7"/>
  <circle id="rim2" cx="0" cy="0" r="3.5"/>
  <g id="zoomPlus">
    <use xlink:href="#rim" fill="#404040"><set attributeName="fill" to="#808080" begin="zoomplus.mouseover" end="zoomplus.mouseout"/></use>
    <path d="M-4,0h8M0,-4v8" fill="none" stroke="white" stroke-width="1.5" pointer-events="none"/>
  </g>
  <g id="zoomMin">
    <use xlink:href="#rim" fill="#404040"><set attributeName="fill" to="#808080" begin="zoomminus.mouseover" end="zoomminus.mouseout"/></use>
    <path d="M-4,0h8" fill="none" stroke="white" stroke-width="1.5" pointer-events="none"/>
  </g>
  <g id="arrowUp" transform="translate(30 24)">
    <use xlink:href="#rim"/>
    <path pointer-events="none" fill="none" stroke="white" stroke-width="1.5" d="M0,-3.0v7 M-2.5,-0.5L0,-3.0L2.5,-0.5"/>
  </g>
  <g id="arrowRight" transform="rotate(90) translate(36 -43)">
    <use xlink:href="#rim"/>
    <path pointer-events="none" fill="none" stroke="white" stroke-width="1.5" d="M0,-3.0v7 M-2.5,-0.5L0,-3.0L2.5,-0.5"/>
  </g>
  <g id="arrowDown" transform="rotate(180) translate(-30 -48)">
    <use xlink:href="#rim"/>
    <path pointer-events="none" fill="none" stroke="white" stroke-width="1.5" d="M0,-3.0v7 M-2.5,-0.5L0,-3.0L2.5,-0.5"/>
  </g>
  <g id="arrowLeft" transform="rotate(270) translate(-36 17)">
    <use xlink:href="#rim"/>
    <path pointer-events="none" fill="none" stroke="white" stroke-width="1.5" d="M0,-3.0v7 M-2.5,-0.5L0,-3.0L2.5,-0.5"/>
  </g>
  <g id="resetDef">
    <use xlink:href="#rim2" fill="#404040"><set attributeName="fill" to="#808080" begin="reset.mouseover" end="reset.mouseout"/></use>
  </g>
</defs>
<script type="application/ecmascript">
var viewWidth = 851;
var viewHeight = 474;
var sectionId = 'dynsection-0';
</script>
<script type="application/ecmascript" xlink:href="svg.min.js"/>
<svg id="graph" class="graph">
<g id="viewport">
<title>_GvcMixerDialog</title>
<!-- Node1 -->
<g id="Node000001" class="node">
<title>Node1</title>
<g id="a_Node000001"><a xlink:title=" ">
<polygon fill="#999999" stroke="#666666" points="650.5,-19 551.5,-19 551.5,0 650.5,0 650.5,-19"/>
<text text-anchor="middle" x="601" y="-7" font-family="Helvetica,sans-Serif" font-size="10.00">_GvcMixerDialog</text>
</a>
</g>
</g>
<!-- Node2 -->
<g id="Node000002" class="node">
<title>Node2</title>
<g id="a_Node000002"><a xlink:title=" ">
<polygon fill="white" stroke="#666666" points="668,-91 534,-91 534,-72 668,-72 668,-91"/>
<text text-anchor="middle" x="601" y="-79" font-family="Helvetica,sans-Serif" font-size="10.00">_GvcMixerDialogPrivate</text>
</a>
</g>
</g>
<!-- Node2&#45;&gt;Node1 -->
<g id="edge1_Node000001_Node000002" class="edge">
<title>Node2&#45;&gt;Node1</title>
<g id="a_edge1_Node000001_Node000002"><a xlink:title=" ">
<path fill="none" stroke="#9a32cd" stroke-dasharray="5,2" d="M601,-61.58C601,-47.76 601,-29.68 601,-19.15"/>
<polygon fill="#9a32cd" stroke="#9a32cd" points="597.5,-61.92 601,-71.92 604.5,-61.92 597.5,-61.92"/>
</a>
</g>
<text text-anchor="start" x="604.5" y="-42.5" font-family="Helvetica,sans-Serif" font-size="10.00" fill="grey">priv</text>
</g>
<!-- Node3 -->
<g id="Node000003" class="node">
<title>Node3</title>
<g id="a_Node000003"><a xlink:href="struct__MateMixerContext.html" target="_top" xlink:title=" ">
<polygon fill="white" stroke="#666666" points="657,-163 545,-163 545,-144 657,-144 657,-163"/>
<text text-anchor="middle" x="601" y="-151" font-family="Helvetica,sans-Serif" font-size="10.00">_MateMixerContext</text>
</a>
</g>
</g>
<!-- Node3&#45;&gt;Node2 -->
<g id="edge2_Node000002_Node000003" class="edge">
<title>Node3&#45;&gt;Node2</title>
<g id="a_edge2_Node000002_Node000003"><a xlink:title=" ">
<path fill="none" stroke="#9a32cd" stroke-dasharray="5,2" d="M601,-133.58C601,-119.76 601,-101.68 601,-91.15"/>
<polygon fill="#9a32cd" stroke="#9a32cd" points="597.5,-133.92 601,-143.92 604.5,-133.92 597.5,-133.92"/>
</a>
</g>
<text text-anchor="start" x="604.5" y="-114.5" font-family="Helvetica,sans-Serif" font-size="10.00" fill="grey">context</text>
</g>
<!-- Node4 -->
<g id="Node000004" class="node">
<title>Node4</title>
<g id="a_Node000004"><a xlink:title=" ">
<polygon fill="white" stroke="#666666" points="674,-235 528,-235 528,-216 674,-216 674,-235"/>
<text text-anchor="middle" x="601" y="-223" font-family="Helvetica,sans-Serif" font-size="10.00">_MateMixerContextPrivate</text>
</a>
</g>
</g>
<!-- Node4&#45;&gt;Node3 -->
<g id="edge3_Node000003_Node000004" class="edge">
<title>Node4&#45;&gt;Node3</title>
<g id="a_edge3_Node000003_Node000004"><a xlink:title=" ">
<path fill="none" stroke="#9a32cd" stroke-dasharray="5,2" d="M601,-205.58C601,-191.76 601,-173.68 601,-163.15"/>
<polygon fill="#9a32cd" stroke="#9a32cd" points="597.5,-205.92 601,-215.92 604.5,-205.92 597.5,-205.92"/>
</a>
</g>
<text text-anchor="start" x="604.5" y="-186.5" font-family="Helvetica,sans-Serif" font-size="10.00" fill="grey">priv</text>
</g>
<!-- Node5 -->
<g id="Node000005" class="node">
<title>Node5</title>
<g id="a_Node000005"><a xlink:href="struct__MateMixerBackend.html" target="_top" xlink:title=" ">
<polygon fill="white" stroke="#666666" points="527.5,-307 412.5,-307 412.5,-288 527.5,-288 527.5,-307"/>
<text text-anchor="middle" x="470" y="-295" font-family="Helvetica,sans-Serif" font-size="10.00">_MateMixerBackend</text>
</a>
</g>
</g>
<!-- Node5&#45;&gt;Node4 -->
<g id="edge4_Node000004_Node000005" class="edge">
<title>Node5&#45;&gt;Node4</title>
<g id="a_edge4_Node000004_Node000005"><a xlink:title=" ">
<path fill="none" stroke="#9a32cd" stroke-dasharray="5,2" d="M494.68,-282.92C510.46,-274.28 531.39,-262.89 550,-253 561.45,-246.91 574.43,-240.17 584.42,-235.01"/>
<polygon fill="#9a32cd" stroke="#9a32cd" points="492.67,-280.03 485.59,-287.91 496.04,-286.17 492.67,-280.03"/>
</a>
</g>
<text text-anchor="start" x="553.5" y="-258.5" font-family="Helvetica,sans-Serif" font-size="10.00" fill="grey">backend</text>
</g>
<!-- Node6 -->
<g id="Node000006" class="node">
<title>Node6</title>
<g id="a_Node000006"><a xlink:title=" ">
<polygon fill="white" stroke="#666666" points="544.5,-379 395.5,-379 395.5,-360 544.5,-360 544.5,-379"/>
<text text-anchor="middle" x="470" y="-367" font-family="Helvetica,sans-Serif" font-size="10.00">_MateMixerBackendPrivate</text>
</a>
</g>
</g>
<!-- Node6&#45;&gt;Node5 -->
<g id="edge5_Node000005_Node000006" class="edge">
<title>Node6&#45;&gt;Node5</title>
<g id="a_edge5_Node000005_Node000006"><a xlink:title=" ">
<path fill="none" stroke="#9a32cd" stroke-dasharray="5,2" d="M470,-349.58C470,-335.76 470,-317.68 470,-307.15"/>
<polygon fill="#9a32cd" stroke="#9a32cd" points="466.5,-349.92 470,-359.92 473.5,-349.92 466.5,-349.92"/>
</a>
</g>
<text text-anchor="start" x="473.5" y="-330.5" font-family="Helvetica,sans-Serif" font-size="10.00" fill="grey">priv</text>
</g>
<!-- Node7 -->
<g id="Node000007" class="node">
<title>Node7</title>
<g id="a_Node000007"><a xlink:href="struct__MateMixerStream.html" target="_top" xlink:title=" ">
<polygon fill="white" stroke="#666666" points="342.5,-466 233.5,-466 233.5,-447 342.5,-447 342.5,-466"/>
<text text-anchor="middle" x="288" y="-454" font-family="Helvetica,sans-Serif" font-size="10.00">_MateMixerStream</text>
</a>
</g>
</g>
<!-- Node7&#45;&gt;Node6 -->
<g id="edge6_Node000006_Node000007" class="edge">
<title>Node7&#45;&gt;Node6</title>
<g id="a_edge6_Node000006_Node000007"><a xlink:title=" ">
<path fill="none" stroke="#9a32cd" stroke-dasharray="5,2" d="M315.83,-442.5C353.55,-424.89 419.82,-393.93 451.77,-379.01"/>
<polygon fill="#9a32cd" stroke="#9a32cd" points="314.03,-439.48 306.45,-446.88 316.99,-445.82 314.03,-439.48"/>
</a>
</g>
<text text-anchor="start" x="415" y="-418" font-family="Helvetica,sans-Serif" font-size="10.00" fill="grey">default_input</text>
<text text-anchor="start" x="415" y="-403" font-family="Helvetica,sans-Serif" font-size="10.00" fill="grey">default_output</text>
</g>
<!-- Node12 -->
<g id="Node000012" class="node">
<title>Node12</title>
<g id="a_Node000012"><a xlink:title=" ">
<polygon fill="white" stroke="#666666" points="377.5,-379 198.5,-379 198.5,-360 377.5,-360 377.5,-379"/>
<text text-anchor="middle" x="288" y="-367" font-family="Helvetica,sans-Serif" font-size="10.00">_MateMixerStreamControlPrivate</text>
</a>
</g>
</g>
<!-- Node7&#45;&gt;Node12 -->
<g id="edge12_Node000012_Node000007" class="edge">
<title>Node7&#45;&gt;Node12</title>
<g id="a_edge12_Node000012_Node000007"><a xlink:title=" ">
<path fill="none" stroke="#9a32cd" stroke-dasharray="5,2" d="M288,-436.62C288,-418.79 288,-392.83 288,-379.36"/>
<polygon fill="#9a32cd" stroke="#9a32cd" points="284.5,-436.72 288,-446.72 291.5,-436.72 284.5,-436.72"/>
</a>
</g>
<text text-anchor="start" x="291.5" y="-410" font-family="Helvetica,sans-Serif" font-size="10.00" fill="grey">stream</text>
</g>
<!-- Node8 -->
<g id="Node000008" class="node">
<title>Node8</title>
<g id="a_Node000008"><a xlink:title=" ">
<polygon fill="white" stroke="#666666" points="241.5,-235 98.5,-235 98.5,-216 241.5,-216 241.5,-235"/>
<text text-anchor="middle" x="170" y="-223" font-family="Helvetica,sans-Serif" font-size="10.00">_MateMixerStreamPrivate</text>
</a>
</g>
</g>
<!-- Node8&#45;&gt;Node7 -->
<g id="edge7_Node000007_Node000008" class="edge">
<title>Node8&#45;&gt;Node7</title>
<g id="a_edge7_Node000007_Node000008"><a xlink:title=" ">
<path fill="none" stroke="#9a32cd" stroke-dasharray="5,2" d="M167.94,-245.13C165.51,-275.37 164.5,-336.05 189,-379 207.62,-411.64 246.29,-435.1 269.4,-446.88"/>
<polygon fill="#9a32cd" stroke="#9a32cd" points="171.43,-245.42 168.89,-235.14 164.46,-244.76 171.43,-245.42"/>
</a>
</g>
<text text-anchor="start" x="178.5" y="-330.5" font-family="Helvetica,sans-Serif" font-size="10.00" fill="grey">priv</text>
</g>
<!-- Node9 -->
<g id="Node000009" class="node">
<title>Node9</title>
<g id="a_Node000009"><a xlink:href="struct__MateMixerDevice.html" target="_top" xlink:title=" ">
<polygon fill="white" stroke="#666666" points="133.5,-307 26.5,-307 26.5,-288 133.5,-288 133.5,-307"/>
<text text-anchor="middle" x="80" y="-295" font-family="Helvetica,sans-Serif" font-size="10.00">_MateMixerDevice</text>
</a>
</g>
</g>
<!-- Node9&#45;&gt;Node8 -->
<g id="edge8_Node000008_Node000009" class="edge">
<title>Node9&#45;&gt;Node8</title>
<g id="a_edge8_Node000008_Node000009"><a xlink:title=" ">
<path fill="none" stroke="#9a32cd" stroke-dasharray="5,2" d="M91.78,-279.61C98.46,-270.89 107.39,-260.54 117,-253 126.39,-245.64 138.15,-239.51 148.21,-235"/>
<polygon fill="#9a32cd" stroke="#9a32cd" points="88.78,-277.78 85.7,-287.92 94.43,-281.91 88.78,-277.78"/>
</a>
</g>
<text text-anchor="start" x="120.5" y="-258.5" font-family="Helvetica,sans-Serif" font-size="10.00" fill="grey">device</text>
</g>
<!-- Node10 -->
<g id="Node000010" class="node">
<title>Node10</title>
<g id="a_Node000010"><a xlink:title=" ">
<polygon fill="white" stroke="#666666" points="142,-379 0,-379 0,-360 142,-360 142,-379"/>
<text text-anchor="middle" x="71" y="-367" font-family="Helvetica,sans-Serif" font-size="10.00">_MateMixerDevicePrivate</text>
</a>
</g>
</g>
<!-- Node10&#45;&gt;Node9 -->
<g id="edge9_Node000009_Node000010" class="edge">
<title>Node10&#45;&gt;Node9</title>
<g id="a_edge9_Node000009_Node000010"><a xlink:title=" ">
<path fill="none" stroke="#9a32cd" stroke-dasharray="5,2" d="M73.38,-349.99C75.16,-336.13 77.52,-317.79 78.89,-307.15"/>
<polygon fill="#9a32cd" stroke="#9a32cd" points="69.91,-349.55 72.1,-359.92 76.85,-350.44 69.91,-349.55"/>
</a>
</g>
<text text-anchor="start" x="80.5" y="-330.5" font-family="Helvetica,sans-Serif" font-size="10.00" fill="grey">priv</text>
</g>
<!-- Node11 -->
<g id="Node000011" class="node">
<title>Node11</title>
<g id="a_Node000011"><a xlink:href="struct__MateMixerStreamControl.html" target="_top" xlink:title=" ">
<polygon fill="white" stroke="#666666" points="347,-307 203,-307 203,-288 347,-288 347,-307"/>
<text text-anchor="middle" x="275" y="-295" font-family="Helvetica,sans-Serif" font-size="10.00">_MateMixerStreamControl</text>
</a>
</g>
</g>
<!-- Node11&#45;&gt;Node8 -->
<g id="edge10_Node000008_Node000011" class="edge">
<title>Node11&#45;&gt;Node8</title>
<g id="a_edge10_Node000008_Node000011"><a xlink:title=" ">
<path fill="none" stroke="#9a32cd" stroke-dasharray="5,2" d="M253.77,-282.34C232.57,-268.21 200.67,-246.95 182.98,-235.15"/>
<polygon fill="#9a32cd" stroke="#9a32cd" points="251.86,-285.28 262.12,-287.92 255.75,-279.46 251.86,-285.28"/>
</a>
</g>
<text text-anchor="start" x="238" y="-258.5" font-family="Helvetica,sans-Serif" font-size="10.00" fill="grey">control</text>
</g>
<!-- Node12&#45;&gt;Node11 -->
<g id="edge11_Node000011_Node000012" class="edge">
<title>Node12&#45;&gt;Node11</title>
<g id="a_edge11_Node000011_Node000012"><a xlink:title=" ">
<path fill="none" stroke="#9a32cd" stroke-dasharray="5,2" d="M284.56,-349.99C281.99,-336.13 278.58,-317.79 276.61,-307.15"/>
<polygon fill="#9a32cd" stroke="#9a32cd" points="281.14,-350.72 286.41,-359.92 288.02,-349.45 281.14,-350.72"/>
</a>
</g>
<text text-anchor="start" x="287.5" y="-330.5" font-family="Helvetica,sans-Serif" font-size="10.00" fill="grey">priv</text>
</g>
<!-- Node13 -->
<g id="Node000013" class="node">
<title>Node13</title>
<g id="a_Node000013"><a xlink:href="struct__MateMixerAppInfo.html" target="_top" xlink:title=" ">
<polygon fill="white" stroke="#666666" points="656.5,-307 545.5,-307 545.5,-288 656.5,-288 656.5,-307"/>
<text text-anchor="middle" x="601" y="-295" font-family="Helvetica,sans-Serif" font-size="10.00">_MateMixerAppInfo</text>
</a>
</g>
</g>
<!-- Node13&#45;&gt;Node4 -->
<g id="edge13_Node000004_Node000013" class="edge">
<title>Node13&#45;&gt;Node4</title>
<g id="a_edge13_Node000004_Node000013"><a xlink:title=" ">
<path fill="none" stroke="#9a32cd" stroke-dasharray="5,2" d="M601,-277.58C601,-263.76 601,-245.68 601,-235.15"/>
<polygon fill="#9a32cd" stroke="#9a32cd" points="597.5,-277.92 601,-287.92 604.5,-277.92 597.5,-277.92"/>
</a>
</g>
<text text-anchor="start" x="604.5" y="-258.5" font-family="Helvetica,sans-Serif" font-size="10.00" fill="grey">app_info</text>
</g>
<!-- Node14 -->
<g id="Node000014" class="node">
<title>Node14</title>
<g id="a_Node000014"><a xlink:href="struct__MateMixerBackendModule.html" target="_top" xlink:title=" ">
<polygon fill="white" stroke="#666666" points="825.5,-307 674.5,-307 674.5,-288 825.5,-288 825.5,-307"/>
<text text-anchor="middle" x="750" y="-295" font-family="Helvetica,sans-Serif" font-size="10.00">_MateMixerBackendModule</text>
</a>
</g>
</g>
<!-- Node14&#45;&gt;Node4 -->
<g id="edge14_Node000004_Node000014" class="edge">
<title>Node14&#45;&gt;Node4</title>
<g id="a_edge14_Node000004_Node000014"><a xlink:title=" ">
<path fill="none" stroke="#9a32cd" stroke-dasharray="5,2" d="M722.64,-283.65C692.64,-269.55 645.31,-247.32 619.42,-235.15"/>
<polygon fill="#9a32cd" stroke="#9a32cd" points="721.19,-286.83 731.73,-287.92 724.17,-280.5 721.19,-286.83"/>
</a>
</g>
<text text-anchor="start" x="697.5" y="-258.5" font-family="Helvetica,sans-Serif" font-size="10.00" fill="grey">module</text>
</g>
<!-- Node15 -->
<g id="Node000015" class="node">
<title>Node15</title>
<g id="a_Node000015"><a xlink:title=" ">
<polygon fill="white" stroke="#666666" points="842.5,-379 657.5,-379 657.5,-360 842.5,-360 842.5,-379"/>
<text text-anchor="middle" x="750" y="-367" font-family="Helvetica,sans-Serif" font-size="10.00">_MateMixerBackendModulePrivate</text>
</a>
</g>
</g>
<!-- Node15&#45;&gt;Node14 -->
<g id="edge15_Node000014_Node000015" class="edge">
<title>Node15&#45;&gt;Node14</title>
<g id="a_edge15_Node000014_Node000015"><a xlink:title=" ">
<path fill="none" stroke="#9a32cd" stroke-dasharray="5,2" d="M750,-349.58C750,-335.76 750,-317.68 750,-307.15"/>
<polygon fill="#9a32cd" stroke="#9a32cd" points="746.5,-349.92 750,-359.92 753.5,-349.92 746.5,-349.92"/>
</a>
</g>
<text text-anchor="start" x="753.5" y="-330.5" font-family="Helvetica,sans-Serif" font-size="10.00" fill="grey">priv</text>
</g>
<!-- Node16 -->
<g id="Node000016" class="node">
<title>Node16</title>
<g id="a_Node000016"><a xlink:href="struct__MateMixerBackendInfo.html" target="_top" xlink:title=" ">
<polygon fill="white" stroke="#666666" points="817,-466 683,-466 683,-447 817,-447 817,-466"/>
<text text-anchor="middle" x="750" y="-454" font-family="Helvetica,sans-Serif" font-size="10.00">_MateMixerBackendInfo</text>
</a>
</g>
</g>
<!-- Node16&#45;&gt;Node15 -->
<g id="edge16_Node000015_Node000016" class="edge">
<title>Node16&#45;&gt;Node15</title>
<g id="a_edge16_Node000015_Node000016"><a xlink:title=" ">
<path fill="none" stroke="#9a32cd" stroke-dasharray="5,2" d="M750,-436.62C750,-418.79 750,-392.83 750,-379.36"/>
<polygon fill="#9a32cd" stroke="#9a32cd" points="746.5,-436.72 750,-446.72 753.5,-436.72 746.5,-436.72"/>
</a>
</g>
<text text-anchor="start" x="753" y="-410" font-family="Helvetica,sans-Serif" font-size="10.00" fill="grey">get_info</text>
</g>
</g>
</svg>

<g id="navigator" transform="translate(0 0)" fill="#404254">
  <rect fill="#f2f5e9" fill-opacity="0.5" stroke="#606060" stroke-width=".5" x="0" y="0" width="60" height="60"/>
  <use id="zoomplus" xlink:href="#zoomPlus" x="17" y="9" onmousedown="handleZoom(evt,'in')"/>
  <use id="zoomminus" xlink:href="#zoomMin" x="42" y="9" onmousedown="handleZoom(evt,'out')"/>
  <use id="reset" xlink:href="#resetDef" x="30" y="36" onmousedown="handleReset()"/>
   <use id="arrowup" xlink:href="#arrowUp" x="0" y="0" onmousedown="handlePan(0,-1)"/>
  <use id="arrowright" xlink:href="#arrowRight" x="0" y="0" onmousedown="handlePan(1,0)"/>
  <use id="arrowdown" xlink:href="#arrowDown" x="0" y="0" onmousedown="handlePan(0,1)"/>
  <use id="arrowleft" xlink:href="#arrowLeft" x="0" y="0" onmousedown="handlePan(-1,0)"/>
</g>
<svg viewBox="0 0 15 15" width="100%" height="30px" preserveAspectRatio="xMaxYMin meet">
 <g id="arrow_out" transform="scale(0.3 0.3)">
  <a xlink:href="struct__GvcMixerDialog__coll__graph_org.svg" target="_base">
   <rect id="button" ry="5" rx="5" y="6" x="6" height="38" width="38"
        fill="#f2f5e9" fill-opacity="0.5" stroke="#606060" stroke-width="1.0"/>
   <path id="arrow"
     d="M 11.500037,31.436501 C 11.940474,20.09759 22.043105,11.32322 32.158766,21.979434 L 37.068811,17.246167 C 37.068811,17.246167 37.088388,32 37.088388,32 L 22.160133,31.978069 C 22.160133,31.978069 26.997745,27.140456 26.997745,27.140456 C 18.528582,18.264221 13.291696,25.230495 11.500037,31.436501 z"
     style="fill:#404040;"/>
  </a>
 </g>
</svg>

<style type='text/css'>
<![CDATA[
[data-mouse-over-selected='false'] { opacity: 0.7; }
[data-mouse-over-selected='true']  { opacity: 1.0; }
]]>
</style>
<script type="application/ecmascript"><![CDATA[
document.addEventListener('DOMContentLoaded', (event) => {
  highlightEdges();
  highlightAdjacentNodes();
});
]]></script>
</svg>
