<?xml version="1.0" encoding="UTF-8" standalone="no"?>
<!DOCTYPE svg PUBLIC "-//W3C//DTD SVG 1.1//EN"
 "http://www.w3.org/Graphics/SVG/1.1/DTD/svg11.dtd">
<!-- Generated by graphviz version 2.43.0 (0)
 -->
<!-- Title: _BaobabRingschart Pages: 1 -->
<svg width="290pt" height="171pt"
 viewBox="0.00 0.00 289.50 171.00" xmlns="http://www.w3.org/2000/svg" xmlns:xlink="http://www.w3.org/1999/xlink">
<g id="graph0" class="graph" transform="scale(1 1) rotate(0) translate(4 167)">
<title>_BaobabRingschart</title>
<!-- Node1 -->
<g id="Node000001" class="node">
<title>Node1</title>
<g id="a_Node000001"><a xlink:title=" ">
<polygon fill="#999999" stroke="#666666" points="180.5,-19 70.5,-19 70.5,0 180.5,0 180.5,-19"/>
<text text-anchor="middle" x="125.5" y="-7" font-family="Helvetica,sans-Serif" font-size="10.00">_BaobabRingschart</text>
</a>
</g>
</g>
<!-- Node2 -->
<g id="Node000002" class="node">
<title>Node2</title>
<g id="a_Node000002"><a xlink:href="struct__BaobabChart.html" target="_top" xlink:title=" ">
<polygon fill="white" stroke="#666666" points="102,-91 17,-91 17,-72 102,-72 102,-91"/>
<text text-anchor="middle" x="59.5" y="-79" font-family="Helvetica,sans-Serif" font-size="10.00">_BaobabChart</text>
</a>
</g>
</g>
<!-- Node2&#45;&gt;Node1 -->
<g id="edge1_Node000001_Node000002" class="edge">
<title>Node2&#45;&gt;Node1</title>
<g id="a_edge1_Node000001_Node000002"><a xlink:title=" ">
<path fill="none" stroke="#9a32cd" stroke-dasharray="5,2" d="M74.67,-64.41C87.94,-50.33 106.72,-30.42 117.34,-19.15"/>
<polygon fill="#9a32cd" stroke="#9a32cd" points="71.91,-62.24 67.59,-71.92 77,-67.04 71.91,-62.24"/>
</a>
</g>
<text text-anchor="start" x="103.5" y="-42.5" font-family="Helvetica,sans-Serif" font-size="10.00" fill="grey">parent</text>
</g>
<!-- Node3 -->
<g id="Node000003" class="node">
<title>Node3</title>
<g id="a_Node000003"><a xlink:title=" ">
<polygon fill="white" stroke="#666666" points="119,-163 0,-163 0,-144 119,-144 119,-163"/>
<text text-anchor="middle" x="59.5" y="-151" font-family="Helvetica,sans-Serif" font-size="10.00">_BaobabChartPrivate</text>
</a>
</g>
</g>
<!-- Node3&#45;&gt;Node2 -->
<g id="edge2_Node000002_Node000003" class="edge">
<title>Node3&#45;&gt;Node2</title>
<g id="a_edge2_Node000002_Node000003"><a xlink:title=" ">
<path fill="none" stroke="#9a32cd" stroke-dasharray="5,2" d="M59.5,-133.58C59.5,-119.76 59.5,-101.68 59.5,-91.15"/>
<polygon fill="#9a32cd" stroke="#9a32cd" points="56,-133.92 59.5,-143.92 63,-133.92 56,-133.92"/>
</a>
</g>
<text text-anchor="start" x="63" y="-114.5" font-family="Helvetica,sans-Serif" font-size="10.00" fill="grey">priv</text>
</g>
<!-- Node4 -->
<g id="Node000004" class="node">
<title>Node4</title>
<g id="a_Node000004"><a xlink:title=" ">
<polygon fill="white" stroke="#666666" points="265,-91 120,-91 120,-72 265,-72 265,-91"/>
<text text-anchor="middle" x="192.5" y="-79" font-family="Helvetica,sans-Serif" font-size="10.00">_BaobabRingschartPrivate</text>
</a>
</g>
</g>
<!-- Node4&#45;&gt;Node1 -->
<g id="edge3_Node000001_Node000004" class="edge">
<title>Node4&#45;&gt;Node1</title>
<g id="a_edge3_Node000001_Node000004"><a xlink:title=" ">
<path fill="none" stroke="#9a32cd" stroke-dasharray="5,2" d="M177.1,-64.41C163.63,-50.33 144.57,-30.42 133.78,-19.15"/>
<polygon fill="#9a32cd" stroke="#9a32cd" points="174.84,-67.11 184.28,-71.92 179.9,-62.27 174.84,-67.11"/>
</a>
</g>
<text text-anchor="start" x="170" y="-42.5" font-family="Helvetica,sans-Serif" font-size="10.00" fill="grey">priv</text>
</g>
<!-- Node5 -->
<g id="Node000005" class="node">
<title>Node5</title>
<g id="a_Node000005"><a xlink:href="struct__BaobabChartItem.html" target="_top" xlink:title=" ">
<polygon fill="white" stroke="#666666" points="246,-163 139,-163 139,-144 246,-144 246,-163"/>
<text text-anchor="middle" x="192.5" y="-151" font-family="Helvetica,sans-Serif" font-size="10.00">_BaobabChartItem</text>
</a>
</g>
</g>
<!-- Node5&#45;&gt;Node4 -->
<g id="edge4_Node000004_Node000005" class="edge">
<title>Node5&#45;&gt;Node4</title>
<g id="a_edge4_Node000004_Node000005"><a xlink:title=" ">
<path fill="none" stroke="#9a32cd" stroke-dasharray="5,2" d="M192.5,-133.58C192.5,-119.76 192.5,-101.68 192.5,-91.15"/>
<polygon fill="#9a32cd" stroke="#9a32cd" points="189,-133.92 192.5,-143.92 196,-133.92 189,-133.92"/>
</a>
</g>
<text text-anchor="start" x="196" y="-114.5" font-family="Helvetica,sans-Serif" font-size="10.00" fill="grey">highlighted_item</text>
</g>
</g>
</svg>
