<?xml version="1.0" encoding="UTF-8" standalone="no"?>
<!DOCTYPE svg PUBLIC "-//W3C//DTD SVG 1.1//EN"
 "http://www.w3.org/Graphics/SVG/1.1/DTD/svg11.dtd">
<!-- Generated by graphviz version 2.43.0 (0)
 -->
<!-- Title: CactApplicationClass Pages: 1 -->
<svg width="327pt" height="171pt"
 viewBox="0.00 0.00 327.00 171.00" xmlns="http://www.w3.org/2000/svg" xmlns:xlink="http://www.w3.org/1999/xlink">
<g id="graph0" class="graph" transform="scale(1 1) rotate(0) translate(4 167)">
<title>CactApplicationClass</title>
<!-- Node1 -->
<g id="Node000001" class="node">
<title>Node1</title>
<g id="a_Node000001"><a xlink:title=" ">
<polygon fill="#999999" stroke="#666666" points="219,-19 100,-19 100,0 219,0 219,-19"/>
<text text-anchor="middle" x="159.5" y="-7" font-family="Helvetica,sans-Serif" font-size="10.00">CactApplicationClass</text>
</a>
</g>
</g>
<!-- Node2 -->
<g id="Node000002" class="node">
<title>Node2</title>
<g id="a_Node000002"><a xlink:href="structBaseApplicationClass.html" target="_top" xlink:title=" ">
<polygon fill="white" stroke="#666666" points="141.5,-91 19.5,-91 19.5,-72 141.5,-72 141.5,-91"/>
<text text-anchor="middle" x="80.5" y="-79" font-family="Helvetica,sans-Serif" font-size="10.00">BaseApplicationClass</text>
</a>
</g>
</g>
<!-- Node2&#45;&gt;Node1 -->
<g id="edge1_Node000001_Node000002" class="edge">
<title>Node2&#45;&gt;Node1</title>
<g id="a_edge1_Node000001_Node000002"><a xlink:title=" ">
<path fill="none" stroke="#9a32cd" stroke-dasharray="5,2" d="M97.77,-65.19C113.7,-51.08 136.78,-30.63 149.73,-19.15"/>
<polygon fill="#9a32cd" stroke="#9a32cd" points="95.35,-62.67 90.19,-71.92 99.99,-67.9 95.35,-62.67"/>
</a>
</g>
<text text-anchor="start" x="132.5" y="-42.5" font-family="Helvetica,sans-Serif" font-size="10.00" fill="grey">parent</text>
</g>
<!-- Node3 -->
<g id="Node000003" class="node">
<title>Node3</title>
<g id="a_Node000003"><a xlink:title=" ">
<polygon fill="white" stroke="#666666" points="161,-163 0,-163 0,-144 161,-144 161,-163"/>
<text text-anchor="middle" x="80.5" y="-151" font-family="Helvetica,sans-Serif" font-size="10.00">_BaseApplicationClassPrivate</text>
</a>
</g>
</g>
<!-- Node3&#45;&gt;Node2 -->
<g id="edge2_Node000002_Node000003" class="edge">
<title>Node3&#45;&gt;Node2</title>
<g id="a_edge2_Node000002_Node000003"><a xlink:title=" ">
<path fill="none" stroke="#9a32cd" stroke-dasharray="5,2" d="M80.5,-133.58C80.5,-119.76 80.5,-101.68 80.5,-91.15"/>
<polygon fill="#9a32cd" stroke="#9a32cd" points="77,-133.92 80.5,-143.92 84,-133.92 77,-133.92"/>
</a>
</g>
<text text-anchor="start" x="84" y="-114.5" font-family="Helvetica,sans-Serif" font-size="10.00" fill="grey">private</text>
</g>
<!-- Node4 -->
<g id="Node000004" class="node">
<title>Node4</title>
<g id="a_Node000004"><a xlink:title=" ">
<polygon fill="white" stroke="#666666" points="319,-91 160,-91 160,-72 319,-72 319,-91"/>
<text text-anchor="middle" x="239.5" y="-79" font-family="Helvetica,sans-Serif" font-size="10.00">_CactApplicationClassPrivate</text>
</a>
</g>
</g>
<!-- Node4&#45;&gt;Node1 -->
<g id="edge3_Node000001_Node000004" class="edge">
<title>Node4&#45;&gt;Node1</title>
<g id="a_edge3_Node000001_Node000004"><a xlink:title=" ">
<path fill="none" stroke="#9a32cd" stroke-dasharray="5,2" d="M222.01,-65.19C205.88,-51.08 182.51,-30.63 169.39,-19.15"/>
<polygon fill="#9a32cd" stroke="#9a32cd" points="219.86,-67.97 229.69,-71.92 224.47,-62.7 219.86,-67.97"/>
</a>
</g>
<text text-anchor="start" x="212" y="-42.5" font-family="Helvetica,sans-Serif" font-size="10.00" fill="grey">private</text>
</g>
</g>
</svg>
