<?xml version="1.0" encoding="UTF-8" standalone="no"?>
<!DOCTYPE svg PUBLIC "-//W3C//DTD SVG 1.1//EN"
 "http://www.w3.org/Graphics/SVG/1.1/DTD/svg11.dtd">
<!-- Generated by graphviz version 2.43.0 (0)
 -->
<!-- Title: _MatekbdKeyboardDrawing Pages: 1 -->
<svg width="483pt" height="162pt"
 viewBox="0.00 0.00 483.00 161.50" xmlns="http://www.w3.org/2000/svg" xmlns:xlink="http://www.w3.org/1999/xlink">

<svg id="main" version="1.1" xmlns="http://www.w3.org/2000/svg" xmlns:xlink="http://www.w3.org/1999/xlink" xml:space="preserve">

<style type="text/css"><![CDATA[
.node, .edge {opacity: 0.7;}
.node.selected, .edge.selected {opacity: 1;}
.edge:hover path { stroke: red; }
.edge:hover polygon { stroke: red; fill: red; }
]]></style>
<script type="application/ecmascript" xlink:href="svg.min.js"/>
<svg id="graph" class="graph">
<g id="graph0" class="graph" transform="scale(1 1) rotate(0) translate(4 157.5)">
<title>_MatekbdKeyboardDrawing</title>
<!-- Node1 -->
<g id="Node000001" class="node">
<title>Node1</title>
<g id="a_Node000001"><a xlink:title=" ">
<polygon fill="#999999" stroke="#666666" points="475,-83 324,-83 324,-64 475,-64 475,-83"/>
<text text-anchor="middle" x="399.5" y="-71" font-family="Helvetica,sans-Serif" font-size="10.00">_MatekbdKeyboardDrawing</text>
</a>
</g>
</g>
<!-- Node2 -->
<g id="Node000002" class="node">
<title>Node2</title>
<g id="a_Node000002"><a xlink:href="struct__MatekbdKeyboardDrawingRenderContext.html" target="_top" xlink:title=" ">
<polygon fill="white" stroke="#666666" points="186.5,-153.5 1.5,-153.5 1.5,-123.5 186.5,-123.5 186.5,-153.5"/>
<text text-anchor="start" x="9.5" y="-141.5" font-family="Helvetica,sans-Serif" font-size="10.00">_MatekbdKeyboardDrawingRender</text>
<text text-anchor="middle" x="94" y="-130.5" font-family="Helvetica,sans-Serif" font-size="10.00">Context</text>
</a>
</g>
</g>
<!-- Node2&#45;&gt;Node1 -->
<g id="edge1_Node000001_Node000002" class="edge">
<title>Node2&#45;&gt;Node1</title>
<g id="a_edge1_Node000001_Node000002"><a xlink:title=" ">
<path fill="none" stroke="#9a32cd" stroke-dasharray="5,2" d="M196.89,-127.85C231.8,-123.06 270.89,-116.43 306,-107.5 330.71,-101.22 357.99,-90.73 376.48,-83.06"/>
<polygon fill="#9a32cd" stroke="#9a32cd" points="196.14,-124.42 186.69,-129.21 197.06,-131.36 196.14,-124.42"/>
</a>
</g>
<text text-anchor="start" x="221" y="-131" font-family="Helvetica,sans-Serif" font-size="10.00" fill="grey">renderContext</text>
</g>
<!-- Node3 -->
<g id="Node000003" class="node">
<title>Node3</title>
<g id="a_Node000003"><a xlink:href="struct__MatekbdKeyboardDrawingKey.html" target="_top" xlink:title=" ">
<polygon fill="white" stroke="#666666" points="178.5,-105 9.5,-105 9.5,-86 178.5,-86 178.5,-105"/>
<text text-anchor="middle" x="94" y="-93" font-family="Helvetica,sans-Serif" font-size="10.00">_MatekbdKeyboardDrawingKey</text>
</a>
</g>
</g>
<!-- Node3&#45;&gt;Node1 -->
<g id="edge2_Node000001_Node000003" class="edge">
<title>Node3&#45;&gt;Node1</title>
<g id="a_edge2_Node000001_Node000003"><a xlink:title=" ">
<path fill="none" stroke="#9a32cd" stroke-dasharray="5,2" d="M188.74,-88.7C232.17,-85.56 283.06,-81.87 323.84,-78.91"/>
<polygon fill="#9a32cd" stroke="#9a32cd" points="188.46,-85.22 178.74,-89.43 188.96,-92.2 188.46,-85.22"/>
</a>
</g>
<text text-anchor="start" x="245" y="-92" font-family="Helvetica,sans-Serif" font-size="10.00" fill="grey">keys</text>
</g>
<!-- Node4 -->
<g id="Node000004" class="node">
<title>Node4</title>
<g id="a_Node000004"><a xlink:href="struct__MatekbdKeyboardDrawingGroupLevel.html" target="_top" xlink:title=" ">
<polygon fill="white" stroke="#666666" points="184,-67.5 4,-67.5 4,-37.5 184,-37.5 184,-67.5"/>
<text text-anchor="start" x="12" y="-55.5" font-family="Helvetica,sans-Serif" font-size="10.00">_MatekbdKeyboardDrawingGroup</text>
<text text-anchor="middle" x="94" y="-44.5" font-family="Helvetica,sans-Serif" font-size="10.00">Level</text>
</a>
</g>
</g>
<!-- Node4&#45;&gt;Node1 -->
<g id="edge3_Node000001_Node000004" class="edge">
<title>Node4&#45;&gt;Node1</title>
<g id="a_edge3_Node000001_Node000004"><a xlink:title=" ">
<path fill="none" stroke="#9a32cd" stroke-dasharray="5,2" d="M194.56,-51.06C229.83,-51.43 269.75,-52.85 306,-56.5 322.08,-58.12 339.56,-61.03 354.95,-63.99"/>
<polygon fill="#9a32cd" stroke="#9a32cd" points="194.28,-47.56 184.25,-50.98 194.23,-54.56 194.28,-47.56"/>
</a>
</g>
<text text-anchor="start" x="226" y="-62" font-family="Helvetica,sans-Serif" font-size="10.00" fill="grey">groupLevels</text>
</g>
<!-- Node5 -->
<g id="Node000005" class="node">
<title>Node5</title>
<g id="a_Node000005"><a xlink:href="struct__MatekbdKeyboardDrawingDoodad.html" target="_top" xlink:title=" ">
<polygon fill="white" stroke="#666666" points="188,-19 0,-19 0,0 188,0 188,-19"/>
<text text-anchor="middle" x="94" y="-7" font-family="Helvetica,sans-Serif" font-size="10.00">_MatekbdKeyboardDrawingDoodad</text>
</a>
</g>
</g>
<!-- Node5&#45;&gt;Node1 -->
<g id="edge4_Node000001_Node000005" class="edge">
<title>Node5&#45;&gt;Node1</title>
<g id="a_edge4_Node000001_Node000005"><a xlink:title=" ">
<path fill="none" stroke="#9a32cd" stroke-dasharray="5,2" d="M198.33,-12.08C233.02,-14.84 271.62,-20.01 306,-29.5 334.46,-37.35 364.9,-53.52 382.79,-63.92"/>
<polygon fill="#9a32cd" stroke="#9a32cd" points="198.41,-8.58 188.18,-11.33 197.9,-15.56 198.41,-8.58"/>
</a>
</g>
<text text-anchor="start" x="209" y="-35" font-family="Helvetica,sans-Serif" font-size="10.00" fill="grey">physical_indicators</text>
</g>
</g>
</svg>
</svg>

<style type='text/css'>
<![CDATA[
[data-mouse-over-selected='false'] { opacity: 0.7; }
[data-mouse-over-selected='true']  { opacity: 1.0; }
]]>
</style>
<script type="application/ecmascript"><![CDATA[
document.addEventListener('DOMContentLoaded', (event) => {
  highlightEdges();
  highlightAdjacentNodes();
});
]]></script>
</svg>
