<?xml version="1.0" encoding="UTF-8" standalone="no"?>
<!DOCTYPE svg PUBLIC "-//W3C//DTD SVG 1.1//EN"
 "http://www.w3.org/Graphics/SVG/1.1/DTD/svg11.dtd">
<!-- Generated by graphviz version 2.43.0 (0)
 -->
<!-- Title: _PlumaTab Pages: 1 -->
<svg width="850pt" height="428pt"
 viewBox="0.00 0.00 850.00 428.00" xmlns="http://www.w3.org/2000/svg" xmlns:xlink="http://www.w3.org/1999/xlink">
<g id="graph0" class="graph" transform="scale(1 1) rotate(0) translate(4 424)">
<title>_PlumaTab</title>
<!-- Node1 -->
<g id="Node000001" class="node">
<title>Node1</title>
<g id="a_Node000001"><a xlink:title=" ">
<polygon fill="#999999" stroke="#666666" points="180,-19 111,-19 111,0 180,0 180,-19"/>
<text text-anchor="middle" x="145.5" y="-7" font-family="Helvetica,sans-Serif" font-size="10.00">_PlumaTab</text>
</a>
</g>
</g>
<!-- Node2 -->
<g id="Node000002" class="node">
<title>Node2</title>
<g id="a_Node000002"><a xlink:title=" ">
<polygon fill="white" stroke="#666666" points="197.5,-91 93.5,-91 93.5,-72 197.5,-72 197.5,-91"/>
<text text-anchor="middle" x="145.5" y="-79" font-family="Helvetica,sans-Serif" font-size="10.00">_PlumaTabPrivate</text>
</a>
</g>
</g>
<!-- Node2&#45;&gt;Node1 -->
<g id="edge1_Node000001_Node000002" class="edge">
<title>Node2&#45;&gt;Node1</title>
<g id="a_edge1_Node000001_Node000002"><a xlink:title=" ">
<path fill="none" stroke="#9a32cd" stroke-dasharray="5,2" d="M145.5,-61.58C145.5,-47.76 145.5,-29.68 145.5,-19.15"/>
<polygon fill="#9a32cd" stroke="#9a32cd" points="142,-61.92 145.5,-71.92 149,-61.92 142,-61.92"/>
</a>
</g>
<text text-anchor="start" x="149" y="-42.5" font-family="Helvetica,sans-Serif" font-size="10.00" fill="grey">priv</text>
</g>
<!-- Node3 -->
<g id="Node000003" class="node">
<title>Node3</title>
<g id="a_Node000003"><a xlink:href="struct__PlumaPrintJob.html" target="_top" xlink:title=" ">
<polygon fill="white" stroke="#666666" points="121.5,-163 31.5,-163 31.5,-144 121.5,-144 121.5,-163"/>
<text text-anchor="middle" x="76.5" y="-151" font-family="Helvetica,sans-Serif" font-size="10.00">_PlumaPrintJob</text>
</a>
</g>
</g>
<!-- Node3&#45;&gt;Node2 -->
<g id="edge2_Node000002_Node000003" class="edge">
<title>Node3&#45;&gt;Node2</title>
<g id="a_edge2_Node000002_Node000003"><a xlink:title=" ">
<path fill="none" stroke="#9a32cd" stroke-dasharray="5,2" d="M79.09,-133.8C81.05,-125.43 84.49,-115.9 90.5,-109 97.53,-100.93 107.58,-95.1 117.16,-91"/>
<polygon fill="#9a32cd" stroke="#9a32cd" points="75.61,-133.37 77.27,-143.83 82.5,-134.62 75.61,-133.37"/>
</a>
</g>
<text text-anchor="start" x="94" y="-114.5" font-family="Helvetica,sans-Serif" font-size="10.00" fill="grey">print_job</text>
</g>
<!-- Node4 -->
<g id="Node000004" class="node">
<title>Node4</title>
<g id="a_Node000004"><a xlink:title=" ">
<polygon fill="white" stroke="#666666" points="125,-250 0,-250 0,-231 125,-231 125,-250"/>
<text text-anchor="middle" x="62.5" y="-238" font-family="Helvetica,sans-Serif" font-size="10.00">_PlumaPrintJobPrivate</text>
</a>
</g>
</g>
<!-- Node4&#45;&gt;Node3 -->
<g id="edge3_Node000003_Node000004" class="edge">
<title>Node4&#45;&gt;Node3</title>
<g id="a_edge3_Node000003_Node000004"><a xlink:title=" ">
<path fill="none" stroke="#9a32cd" stroke-dasharray="5,2" d="M65.61,-220.62C68.55,-202.79 72.82,-176.83 75.04,-163.36"/>
<polygon fill="#9a32cd" stroke="#9a32cd" points="62.12,-220.29 63.95,-230.72 69.02,-221.43 62.12,-220.29"/>
</a>
</g>
<text text-anchor="start" x="76" y="-194" font-family="Helvetica,sans-Serif" font-size="10.00" fill="grey">priv</text>
</g>
<!-- Node5 -->
<g id="Node000005" class="node">
<title>Node5</title>
<g id="a_Node000005"><a xlink:href="struct__PlumaView.html" target="_top" xlink:title=" ">
<polygon fill="white" stroke="#666666" points="100,-337 23,-337 23,-318 100,-318 100,-337"/>
<text text-anchor="middle" x="61.5" y="-325" font-family="Helvetica,sans-Serif" font-size="10.00">_PlumaView</text>
</a>
</g>
</g>
<!-- Node5&#45;&gt;Node4 -->
<g id="edge4_Node000004_Node000005" class="edge">
<title>Node5&#45;&gt;Node4</title>
<g id="a_edge4_Node000004_Node000005"><a xlink:title=" ">
<path fill="none" stroke="#9a32cd" stroke-dasharray="5,2" d="M61.72,-307.62C61.93,-289.79 62.24,-263.83 62.4,-250.36"/>
<polygon fill="#9a32cd" stroke="#9a32cd" points="58.22,-307.68 61.6,-317.72 65.22,-307.77 58.22,-307.68"/>
</a>
</g>
<text text-anchor="start" x="65.5" y="-281" font-family="Helvetica,sans-Serif" font-size="10.00" fill="grey">view</text>
</g>
<!-- Node6 -->
<g id="Node000006" class="node">
<title>Node6</title>
<g id="a_Node000006"><a xlink:title=" ">
<polygon fill="white" stroke="#666666" points="117,-414.5 6,-414.5 6,-395.5 117,-395.5 117,-414.5"/>
<text text-anchor="middle" x="61.5" y="-402.5" font-family="Helvetica,sans-Serif" font-size="10.00">_PlumaViewPrivate</text>
</a>
</g>
</g>
<!-- Node6&#45;&gt;Node5 -->
<g id="edge5_Node000005_Node000006" class="edge">
<title>Node6&#45;&gt;Node5</title>
<g id="a_edge5_Node000005_Node000006"><a xlink:title=" ">
<path fill="none" stroke="#9a32cd" stroke-dasharray="5,2" d="M61.5,-384.9C61.5,-369.51 61.5,-348.61 61.5,-337.06"/>
<polygon fill="#9a32cd" stroke="#9a32cd" points="58,-385.34 61.5,-395.34 65,-385.34 58,-385.34"/>
</a>
</g>
<text text-anchor="start" x="65" y="-360.5" font-family="Helvetica,sans-Serif" font-size="10.00" fill="grey">priv</text>
</g>
<!-- Node7 -->
<g id="Node000007" class="node">
<title>Node7</title>
<g id="a_Node000007"><a xlink:href="struct__PlumaDocument.html" target="_top" xlink:title=" ">
<polygon fill="white" stroke="#666666" points="348,-337 245,-337 245,-318 348,-318 348,-337"/>
<text text-anchor="middle" x="296.5" y="-325" font-family="Helvetica,sans-Serif" font-size="10.00">_PlumaDocument</text>
</a>
</g>
</g>
<!-- Node7&#45;&gt;Node4 -->
<g id="edge6_Node000004_Node000007" class="edge">
<title>Node7&#45;&gt;Node4</title>
<g id="a_edge6_Node000004_Node000007"><a xlink:title=" ">
<path fill="none" stroke="#9a32cd" stroke-dasharray="5,2" d="M234.77,-322.6C190.42,-318.85 135.13,-311.94 115.5,-300 100.54,-290.9 104.25,-280.99 92.5,-268 86.63,-261.51 79.27,-254.98 73.31,-250.04"/>
<polygon fill="#9a32cd" stroke="#9a32cd" points="234.66,-326.1 244.91,-323.42 235.22,-319.13 234.66,-326.1"/>
</a>
</g>
<text text-anchor="start" x="118.5" y="-281" font-family="Helvetica,sans-Serif" font-size="10.00" fill="grey">doc</text>
</g>
<!-- Node8 -->
<g id="Node000008" class="node">
<title>Node8</title>
<g id="a_Node000008"><a xlink:title=" ">
<polygon fill="white" stroke="#666666" points="483,-91 346,-91 346,-72 483,-72 483,-91"/>
<text text-anchor="middle" x="414.5" y="-79" font-family="Helvetica,sans-Serif" font-size="10.00">_PlumaDocumentPrivate</text>
</a>
</g>
</g>
<!-- Node7&#45;&gt;Node8 -->
<g id="edge20_Node000008_Node000007" class="edge">
<title>Node7&#45;&gt;Node8</title>
<g id="a_edge20_Node000008_Node000007"><a xlink:title=" ">
<path fill="none" stroke="#9a32cd" stroke-dasharray="5,2" d="M266.51,-313.64C217.06,-290.45 126.87,-238.66 158.5,-181 194.57,-115.24 283.16,-93.11 345.99,-85.82"/>
<polygon fill="#9a32cd" stroke="#9a32cd" points="265.26,-316.91 275.81,-317.89 268.17,-310.55 265.26,-316.91"/>
</a>
</g>
<text text-anchor="start" x="161.5" y="-194" font-family="Helvetica,sans-Serif" font-size="10.00" fill="grey">mount_operation_factory</text>
</g>
<!-- Node11 -->
<g id="Node000011" class="node">
<title>Node11</title>
<g id="a_Node000011"><a xlink:title=" ">
<polygon fill="white" stroke="#666666" points="781.5,-250 611.5,-250 611.5,-231 781.5,-231 781.5,-250"/>
<text text-anchor="middle" x="696.5" y="-238" font-family="Helvetica,sans-Serif" font-size="10.00">_PlumaDocumentLoaderPrivate</text>
</a>
</g>
</g>
<!-- Node7&#45;&gt;Node11 -->
<g id="edge11_Node000011_Node000007" class="edge">
<title>Node7&#45;&gt;Node11</title>
<g id="a_edge11_Node000011_Node000007"><a xlink:title=" ">
<path fill="none" stroke="#9a32cd" stroke-dasharray="5,2" d="M358.42,-325.31C396.06,-322.77 444.42,-316.21 484.5,-300 506.92,-290.93 506.16,-277.25 528.5,-268 554.42,-257.27 584.23,-250.85 611.49,-247.03"/>
<polygon fill="#9a32cd" stroke="#9a32cd" points="357.88,-321.83 348.11,-325.92 358.3,-328.82 357.88,-321.83"/>
</a>
</g>
<text text-anchor="start" x="532" y="-281" font-family="Helvetica,sans-Serif" font-size="10.00" fill="grey">document</text>
</g>
<!-- Node15 -->
<g id="Node000015" class="node">
<title>Node15</title>
<g id="a_Node000015"><a xlink:title=" ">
<polygon fill="white" stroke="#666666" points="548,-250 383,-250 383,-231 548,-231 548,-250"/>
<text text-anchor="middle" x="465.5" y="-238" font-family="Helvetica,sans-Serif" font-size="10.00">_PlumaDocumentSaverPrivate</text>
</a>
</g>
</g>
<!-- Node7&#45;&gt;Node15 -->
<g id="edge17_Node000015_Node000007" class="edge">
<title>Node7&#45;&gt;Node15</title>
<g id="a_edge17_Node000015_Node000007"><a xlink:title=" ">
<path fill="none" stroke="#9a32cd" stroke-dasharray="5,2" d="M312.13,-310.52C325.85,-297.34 346.94,-279.07 368.5,-268 384.18,-259.94 402.59,-254.12 419.13,-250.02"/>
<polygon fill="#9a32cd" stroke="#9a32cd" points="309.61,-308.08 304.95,-317.6 314.53,-313.07 309.61,-308.08"/>
</a>
</g>
<text text-anchor="start" x="372" y="-281" font-family="Helvetica,sans-Serif" font-size="10.00" fill="grey">document</text>
</g>
<!-- Node8&#45;&gt;Node7 -->
<g id="edge7_Node000007_Node000008" class="edge">
<title>Node8&#45;&gt;Node7</title>
<g id="a_edge7_Node000007_Node000008"><a xlink:title=" ">
<path fill="none" stroke="#9a32cd" stroke-dasharray="5,2" d="M404.78,-100.12C394.07,-118.1 375.29,-145.76 352.5,-163 335.32,-175.99 320.24,-163.63 307.5,-181 276.18,-223.69 288.67,-293.65 294.31,-317.9"/>
<polygon fill="#9a32cd" stroke="#9a32cd" points="407.93,-101.66 409.88,-91.25 401.86,-98.17 407.93,-101.66"/>
</a>
</g>
<text text-anchor="start" x="311" y="-194" font-family="Helvetica,sans-Serif" font-size="10.00" fill="grey">priv</text>
</g>
<!-- Node9 -->
<g id="Node000009" class="node">
<title>Node9</title>
<g id="a_Node000009"><a xlink:title=" ">
<polygon fill="white" stroke="#666666" points="553,-337 456,-337 456,-318 553,-318 553,-337"/>
<text text-anchor="middle" x="504.5" y="-325" font-family="Helvetica,sans-Serif" font-size="10.00">_PlumaEncoding</text>
</a>
</g>
</g>
<!-- Node9&#45;&gt;Node2 -->
<g id="edge21_Node000002_Node000009" class="edge">
<title>Node9&#45;&gt;Node2</title>
<g id="a_edge21_Node000002_Node000009"><a xlink:title=" ">
<path fill="none" stroke="#9a32cd" stroke-dasharray="5,2" d="M456.07,-314.84C444.91,-311.04 433.42,-306.16 423.5,-300 397.07,-283.58 393.6,-274.56 374.5,-250 352.46,-221.66 362.19,-201.18 332.5,-181 293.34,-154.39 269.65,-184.57 227.5,-163 192.87,-145.28 163.42,-107.85 151.35,-91.02"/>
<polygon fill="#9a32cd" stroke="#9a32cd" points="455.16,-318.22 465.75,-317.91 457.28,-311.55 455.16,-318.22"/>
</a>
</g>
<text text-anchor="start" x="359.5" y="-194" font-family="Helvetica,sans-Serif" font-size="10.00" fill="grey">tmp_encoding</text>
</g>
<!-- Node9&#45;&gt;Node8 -->
<g id="edge8_Node000008_Node000009" class="edge">
<title>Node9&#45;&gt;Node8</title>
<g id="a_edge8_Node000008_Node000009"><a xlink:title=" ">
<path fill="none" stroke="#9a32cd" stroke-dasharray="5,2" d="M548.57,-313.23C554.09,-309.78 559,-305.44 562.5,-300 580.81,-271.5 541.08,-144.83 540.5,-144 520.59,-115.3 483.41,-99.45 454.58,-91.06"/>
<polygon fill="#9a32cd" stroke="#9a32cd" points="546.78,-310.22 539.54,-317.96 550.03,-316.42 546.78,-310.22"/>
</a>
</g>
<text text-anchor="start" x="562" y="-202" font-family="Helvetica,sans-Serif" font-size="10.00" fill="grey">encoding</text>
<text text-anchor="start" x="562" y="-187" font-family="Helvetica,sans-Serif" font-size="10.00" fill="grey">requested_encoding</text>
</g>
<!-- Node9&#45;&gt;Node11 -->
<g id="edge12_Node000011_Node000009" class="edge">
<title>Node9&#45;&gt;Node11</title>
<g id="a_edge12_Node000011_Node000009"><a xlink:title=" ">
<path fill="none" stroke="#9a32cd" stroke-dasharray="5,2" d="M560.88,-314.65C570.39,-310.99 579.69,-306.22 587.5,-300 600.44,-289.7 593.44,-278.15 606.5,-268 617.17,-259.7 630.39,-254 643.37,-250.08"/>
<polygon fill="#9a32cd" stroke="#9a32cd" points="559.66,-311.37 551.36,-317.95 561.96,-317.98 559.66,-311.37"/>
</a>
</g>
<text text-anchor="start" x="609.5" y="-289" font-family="Helvetica,sans-Serif" font-size="10.00" fill="grey">auto_detected_encoding</text>
<text text-anchor="start" x="609.5" y="-274" font-family="Helvetica,sans-Serif" font-size="10.00" fill="grey">encoding</text>
</g>
<!-- Node9&#45;&gt;Node15 -->
<g id="edge18_Node000015_Node000009" class="edge">
<title>Node9&#45;&gt;Node15</title>
<g id="a_edge18_Node000015_Node000009"><a xlink:title=" ">
<path fill="none" stroke="#9a32cd" stroke-dasharray="5,2" d="M448.03,-313.24C442.35,-309.8 437.29,-305.46 433.5,-300 425.39,-288.32 427.45,-280.87 433.5,-268 437,-260.56 443.73,-254.49 450.12,-250.05"/>
<polygon fill="#9a32cd" stroke="#9a32cd" points="446.87,-316.58 457.38,-317.96 450.03,-310.33 446.87,-316.58"/>
</a>
</g>
<text text-anchor="start" x="437" y="-281" font-family="Helvetica,sans-Serif" font-size="10.00" fill="grey">encoding</text>
</g>
<!-- Node10 -->
<g id="Node000010" class="node">
<title>Node10</title>
<g id="a_Node000010"><a xlink:href="struct__PlumaDocumentLoader.html" target="_top" xlink:title=" ">
<polygon fill="white" stroke="#666666" points="756.5,-163 620.5,-163 620.5,-144 756.5,-144 756.5,-163"/>
<text text-anchor="middle" x="688.5" y="-151" font-family="Helvetica,sans-Serif" font-size="10.00">_PlumaDocumentLoader</text>
</a>
</g>
</g>
<!-- Node10&#45;&gt;Node8 -->
<g id="edge9_Node000008_Node000010" class="edge">
<title>Node10&#45;&gt;Node8</title>
<g id="a_edge9_Node000008_Node000010"><a xlink:title=" ">
<path fill="none" stroke="#9a32cd" stroke-dasharray="5,2" d="M663.65,-139.23C644.25,-129.43 616.34,-116.53 590.5,-109 555.79,-98.88 516.05,-92.48 483.12,-88.51"/>
<polygon fill="#9a32cd" stroke="#9a32cd" points="662.21,-142.43 672.7,-143.89 665.41,-136.2 662.21,-142.43"/>
</a>
</g>
<text text-anchor="start" x="637" y="-114.5" font-family="Helvetica,sans-Serif" font-size="10.00" fill="grey">loader</text>
</g>
<!-- Node11&#45;&gt;Node10 -->
<g id="edge10_Node000010_Node000011" class="edge">
<title>Node11&#45;&gt;Node10</title>
<g id="a_edge10_Node000010_Node000011"><a xlink:title=" ">
<path fill="none" stroke="#9a32cd" stroke-dasharray="5,2" d="M694.72,-220.62C693.05,-202.79 690.6,-176.83 689.33,-163.36"/>
<polygon fill="#9a32cd" stroke="#9a32cd" points="691.25,-221.1 695.67,-230.72 698.22,-220.44 691.25,-221.1"/>
</a>
</g>
<text text-anchor="start" x="697" y="-194" font-family="Helvetica,sans-Serif" font-size="10.00" fill="grey">priv</text>
</g>
<!-- Node12 -->
<g id="Node000012" class="node">
<title>Node12</title>
<g id="a_Node000012"><a xlink:href="struct__PlumaSmartCharsetConverter.html" target="_top" xlink:title=" ">
<polygon fill="white" stroke="#666666" points="842,-337 675,-337 675,-318 842,-318 842,-337"/>
<text text-anchor="middle" x="758.5" y="-325" font-family="Helvetica,sans-Serif" font-size="10.00">_PlumaSmartCharsetConverter</text>
</a>
</g>
</g>
<!-- Node12&#45;&gt;Node11 -->
<g id="edge13_Node000011_Node000012" class="edge">
<title>Node12&#45;&gt;Node11</title>
<g id="a_edge13_Node000011_Node000012"><a xlink:title=" ">
<path fill="none" stroke="#9a32cd" stroke-dasharray="5,2" d="M754.61,-307.67C751.35,-295.4 745.71,-279.57 736.5,-268 730.58,-260.57 722,-254.51 714.31,-250.06"/>
<polygon fill="#9a32cd" stroke="#9a32cd" points="751.28,-308.79 756.97,-317.72 758.09,-307.19 751.28,-308.79"/>
</a>
</g>
<text text-anchor="start" x="755" y="-281" font-family="Helvetica,sans-Serif" font-size="10.00" fill="grey">converter</text>
</g>
<!-- Node13 -->
<g id="Node000013" class="node">
<title>Node13</title>
<g id="a_Node000013"><a xlink:title=" ">
<polygon fill="white" stroke="#666666" points="842,-420 675,-420 675,-390 842,-390 842,-420"/>
<text text-anchor="start" x="683" y="-408" font-family="Helvetica,sans-Serif" font-size="10.00">_PlumaSmartCharsetConverter</text>
<text text-anchor="middle" x="758.5" y="-397" font-family="Helvetica,sans-Serif" font-size="10.00">Private</text>
</a>
</g>
</g>
<!-- Node13&#45;&gt;Node12 -->
<g id="edge14_Node000012_Node000013" class="edge">
<title>Node13&#45;&gt;Node12</title>
<g id="a_edge14_Node000012_Node000013"><a xlink:title=" ">
<path fill="none" stroke="#9a32cd" stroke-dasharray="5,2" d="M758.5,-379.4C758.5,-364.81 758.5,-347.22 758.5,-337.01"/>
<polygon fill="#9a32cd" stroke="#9a32cd" points="755,-379.8 758.5,-389.8 762,-379.8 755,-379.8"/>
</a>
</g>
<text text-anchor="start" x="762" y="-360.5" font-family="Helvetica,sans-Serif" font-size="10.00" fill="grey">priv</text>
</g>
<!-- Node14 -->
<g id="Node000014" class="node">
<title>Node14</title>
<g id="a_Node000014"><a xlink:href="struct__PlumaDocumentSaver.html" target="_top" xlink:title=" ">
<polygon fill="white" stroke="#666666" points="531,-163 400,-163 400,-144 531,-144 531,-163"/>
<text text-anchor="middle" x="465.5" y="-151" font-family="Helvetica,sans-Serif" font-size="10.00">_PlumaDocumentSaver</text>
</a>
</g>
</g>
<!-- Node14&#45;&gt;Node8 -->
<g id="edge15_Node000008_Node000014" class="edge">
<title>Node14&#45;&gt;Node8</title>
<g id="a_edge15_Node000008_Node000014"><a xlink:title=" ">
<path fill="none" stroke="#9a32cd" stroke-dasharray="5,2" d="M453.2,-135.62C442.98,-121.59 428.86,-102.21 420.8,-91.15"/>
<polygon fill="#9a32cd" stroke="#9a32cd" points="450.53,-137.9 459.25,-143.92 456.19,-133.77 450.53,-137.9"/>
</a>
</g>
<text text-anchor="start" x="448.5" y="-114.5" font-family="Helvetica,sans-Serif" font-size="10.00" fill="grey">saver</text>
</g>
<!-- Node15&#45;&gt;Node14 -->
<g id="edge16_Node000014_Node000015" class="edge">
<title>Node15&#45;&gt;Node14</title>
<g id="a_edge16_Node000014_Node000015"><a xlink:title=" ">
<path fill="none" stroke="#9a32cd" stroke-dasharray="5,2" d="M465.5,-220.62C465.5,-202.79 465.5,-176.83 465.5,-163.36"/>
<polygon fill="#9a32cd" stroke="#9a32cd" points="462,-220.72 465.5,-230.72 469,-220.72 462,-220.72"/>
</a>
</g>
<text text-anchor="start" x="469" y="-194" font-family="Helvetica,sans-Serif" font-size="10.00" fill="grey">priv</text>
</g>
<!-- Node16 -->
<g id="Node000016" class="node">
<title>Node16</title>
<g id="a_Node000016"><a xlink:title=" ">
<polygon fill="white" stroke="#666666" points="343,-163 236,-163 236,-144 343,-144 343,-163"/>
<text text-anchor="middle" x="289.5" y="-151" font-family="Helvetica,sans-Serif" font-size="10.00">_PlumaTextRegion</text>
</a>
</g>
</g>
<!-- Node16&#45;&gt;Node8 -->
<g id="edge19_Node000008_Node000016" class="edge">
<title>Node16&#45;&gt;Node8</title>
<g id="a_edge19_Node000008_Node000016"><a xlink:title=" ">
<path fill="none" stroke="#9a32cd" stroke-dasharray="5,2" d="M278.51,-134.95C274.62,-126.33 272.53,-116.25 278.5,-109 287.45,-98.14 316.62,-91.67 345.67,-87.85"/>
<polygon fill="#9a32cd" stroke="#9a32cd" points="275.49,-136.72 283.33,-143.85 281.65,-133.39 275.49,-136.72"/>
</a>
</g>
<text text-anchor="start" x="281.5" y="-114.5" font-family="Helvetica,sans-Serif" font-size="10.00" fill="grey">to_search_region</text>
</g>
</g>
</svg>
