<?xml version="1.0" encoding="UTF-8" standalone="no"?>
<!DOCTYPE svg PUBLIC "-//W3C//DTD SVG 1.1//EN"
 "http://www.w3.org/Graphics/SVG/1.1/DTD/svg11.dtd">
<!-- Generated by graphviz version 2.43.0 (0)
 -->
<!-- Title: _PlumaWordCompletionPlugin Pages: 1 -->
<svg width="172pt" height="254pt"
 viewBox="0.00 0.00 172.00 254.00" xmlns="http://www.w3.org/2000/svg" xmlns:xlink="http://www.w3.org/1999/xlink">

<svg id="main" version="1.1" xmlns="http://www.w3.org/2000/svg" xmlns:xlink="http://www.w3.org/1999/xlink" xml:space="preserve">

<style type="text/css"><![CDATA[
.node, .edge {opacity: 0.7;}
.node.selected, .edge.selected {opacity: 1;}
.edge:hover path { stroke: red; }
.edge:hover polygon { stroke: red; fill: red; }
]]></style>
<script type="application/ecmascript" xlink:href="svg.min.js"/>
<svg id="graph" class="graph">
<g id="graph0" class="graph" transform="scale(1 1) rotate(0) translate(4 250)">
<title>_PlumaWordCompletionPlugin</title>
<!-- Node1 -->
<g id="Node000001" class="node">
<title>Node1</title>
<g id="a_Node000001"><a xlink:title=" ">
<polygon fill="#999999" stroke="#666666" points="164,-19 0,-19 0,0 164,0 164,-19"/>
<text text-anchor="middle" x="82" y="-7" font-family="Helvetica,sans-Serif" font-size="10.00">_PlumaWordCompletionPlugin</text>
</a>
</g>
</g>
<!-- Node2 -->
<g id="Node000002" class="node">
<title>Node2</title>
<g id="a_Node000002"><a xlink:title=" ">
<polygon fill="white" stroke="#666666" points="164,-102 0,-102 0,-72 164,-72 164,-102"/>
<text text-anchor="start" x="8" y="-90" font-family="Helvetica,sans-Serif" font-size="10.00">_PlumaWordCompletionPlugin</text>
<text text-anchor="middle" x="82" y="-79" font-family="Helvetica,sans-Serif" font-size="10.00">Private</text>
</a>
</g>
</g>
<!-- Node2&#45;&gt;Node1 -->
<g id="edge1_Node000001_Node000002" class="edge">
<title>Node2&#45;&gt;Node1</title>
<g id="a_edge1_Node000001_Node000002"><a xlink:title=" ">
<path fill="none" stroke="#9a32cd" stroke-dasharray="5,2" d="M82,-61.4C82,-46.81 82,-29.22 82,-19.01"/>
<polygon fill="#9a32cd" stroke="#9a32cd" points="78.5,-61.8 82,-71.8 85.5,-61.8 78.5,-61.8"/>
</a>
</g>
<text text-anchor="start" x="85.5" y="-42.5" font-family="Helvetica,sans-Serif" font-size="10.00" fill="grey">priv</text>
</g>
<!-- Node3 -->
<g id="Node000003" class="node">
<title>Node3</title>
<g id="a_Node000003"><a xlink:href="struct__PlumaView.html" target="_top" xlink:title=" ">
<polygon fill="white" stroke="#666666" points="120.5,-174 43.5,-174 43.5,-155 120.5,-155 120.5,-174"/>
<text text-anchor="middle" x="82" y="-162" font-family="Helvetica,sans-Serif" font-size="10.00">_PlumaView</text>
</a>
</g>
</g>
<!-- Node3&#45;&gt;Node2 -->
<g id="edge2_Node000002_Node000003" class="edge">
<title>Node3&#45;&gt;Node2</title>
<g id="a_edge2_Node000002_Node000003"><a xlink:title=" ">
<path fill="none" stroke="#9a32cd" stroke-dasharray="5,2" d="M82,-144.57C82,-131.43 82,-114.18 82,-102.21"/>
<polygon fill="#9a32cd" stroke="#9a32cd" points="78.5,-144.84 82,-154.84 85.5,-144.84 78.5,-144.84"/>
</a>
</g>
<text text-anchor="start" x="85" y="-125.5" font-family="Helvetica,sans-Serif" font-size="10.00" fill="grey">view</text>
</g>
<!-- Node4 -->
<g id="Node000004" class="node">
<title>Node4</title>
<g id="a_Node000004"><a xlink:title=" ">
<polygon fill="white" stroke="#666666" points="137.5,-246 26.5,-246 26.5,-227 137.5,-227 137.5,-246"/>
<text text-anchor="middle" x="82" y="-234" font-family="Helvetica,sans-Serif" font-size="10.00">_PlumaViewPrivate</text>
</a>
</g>
</g>
<!-- Node4&#45;&gt;Node3 -->
<g id="edge3_Node000003_Node000004" class="edge">
<title>Node4&#45;&gt;Node3</title>
<g id="a_edge3_Node000003_Node000004"><a xlink:title=" ">
<path fill="none" stroke="#9a32cd" stroke-dasharray="5,2" d="M82,-216.58C82,-202.76 82,-184.68 82,-174.15"/>
<polygon fill="#9a32cd" stroke="#9a32cd" points="78.5,-216.92 82,-226.92 85.5,-216.92 78.5,-216.92"/>
</a>
</g>
<text text-anchor="start" x="85.5" y="-197.5" font-family="Helvetica,sans-Serif" font-size="10.00" fill="grey">priv</text>
</g>
</g>
</svg>
</svg>

<style type='text/css'>
<![CDATA[
[data-mouse-over-selected='false'] { opacity: 0.7; }
[data-mouse-over-selected='true']  { opacity: 1.0; }
]]>
</style>
<script type="application/ecmascript"><![CDATA[
document.addEventListener('DOMContentLoaded', (event) => {
  highlightEdges();
  highlightAdjacentNodes();
});
]]></script>
</svg>
