<?xml version="1.0" encoding="UTF-8" standalone="no"?>
<!DOCTYPE svg PUBLIC "-//W3C//DTD SVG 1.1//EN"
 "http://www.w3.org/Graphics/SVG/1.1/DTD/svg11.dtd">
<!-- Generated by graphviz version 2.43.0 (0)
 -->
<!-- Title: _FrCommandRar Pages: 1 -->
<svg width="285pt" height="330pt"
 viewBox="0.00 0.00 285.00 330.00" xmlns="http://www.w3.org/2000/svg" xmlns:xlink="http://www.w3.org/1999/xlink">

<svg id="main" version="1.1" xmlns="http://www.w3.org/2000/svg" xmlns:xlink="http://www.w3.org/1999/xlink" xml:space="preserve">

<style type="text/css"><![CDATA[
.node, .edge {opacity: 0.7;}
.node.selected, .edge.selected {opacity: 1;}
.edge:hover path { stroke: red; }
.edge:hover polygon { stroke: red; fill: red; }
]]></style>
<script type="application/ecmascript" xlink:href="svg.min.js"/>
<svg id="graph" class="graph">
<g id="graph0" class="graph" transform="scale(1 1) rotate(0) translate(4 326)">
<title>_FrCommandRar</title>
<!-- Node1 -->
<g id="Node000001" class="node">
<title>Node1</title>
<g id="a_Node000001"><a xlink:title=" ">
<polygon fill="#999999" stroke="#666666" points="218.5,-19 120.5,-19 120.5,0 218.5,0 218.5,-19"/>
<text text-anchor="middle" x="169.5" y="-7" font-family="Helvetica,sans-Serif" font-size="10.00">_FrCommandRar</text>
</a>
</g>
</g>
<!-- Node2 -->
<g id="Node000002" class="node">
<title>Node2</title>
<g id="a_Node000002"><a xlink:href="struct__FrCommand.html" target="_top" xlink:title=" ">
<polygon fill="white" stroke="#666666" points="166,-91 85,-91 85,-72 166,-72 166,-91"/>
<text text-anchor="middle" x="125.5" y="-79" font-family="Helvetica,sans-Serif" font-size="10.00">_FrCommand</text>
</a>
</g>
</g>
<!-- Node2&#45;&gt;Node1 -->
<g id="edge1_Node000001_Node000002" class="edge">
<title>Node2&#45;&gt;Node1</title>
<g id="a_edge1_Node000001_Node000002"><a xlink:title=" ">
<path fill="none" stroke="#9a32cd" stroke-dasharray="5,2" d="M125.9,-61.78C126.81,-53.65 128.91,-44.34 133.5,-37 138.11,-29.63 145.58,-23.64 152.52,-19.23"/>
<polygon fill="#9a32cd" stroke="#9a32cd" points="122.4,-61.62 125.27,-71.82 129.39,-62.06 122.4,-61.62"/>
</a>
</g>
<text text-anchor="start" x="137" y="-42.5" font-family="Helvetica,sans-Serif" font-size="10.00" fill="grey">__parent</text>
</g>
<!-- Node3 -->
<g id="Node000003" class="node">
<title>Node3</title>
<g id="a_Node000003"><a xlink:href="struct__FrProcess.html" target="_top" xlink:title=" ">
<polygon fill="white" stroke="#666666" points="159.5,-163 91.5,-163 91.5,-144 159.5,-144 159.5,-163"/>
<text text-anchor="middle" x="125.5" y="-151" font-family="Helvetica,sans-Serif" font-size="10.00">_FrProcess</text>
</a>
</g>
</g>
<!-- Node3&#45;&gt;Node2 -->
<g id="edge2_Node000002_Node000003" class="edge">
<title>Node3&#45;&gt;Node2</title>
<g id="a_edge2_Node000002_Node000003"><a xlink:title=" ">
<path fill="none" stroke="#9a32cd" stroke-dasharray="5,2" d="M125.5,-133.58C125.5,-119.76 125.5,-101.68 125.5,-91.15"/>
<polygon fill="#9a32cd" stroke="#9a32cd" points="122,-133.92 125.5,-143.92 129,-133.92 122,-133.92"/>
</a>
</g>
<text text-anchor="start" x="128.5" y="-114.5" font-family="Helvetica,sans-Serif" font-size="10.00" fill="grey">process</text>
</g>
<!-- Node4 -->
<g id="Node000004" class="node">
<title>Node4</title>
<g id="a_Node000004"><a xlink:href="structFrChannelData.html" target="_top" xlink:title=" ">
<polygon fill="white" stroke="#666666" points="89,-250 0,-250 0,-231 89,-231 89,-250"/>
<text text-anchor="middle" x="44.5" y="-238" font-family="Helvetica,sans-Serif" font-size="10.00">FrChannelData</text>
</a>
</g>
</g>
<!-- Node4&#45;&gt;Node3 -->
<g id="edge3_Node000003_Node000004" class="edge">
<title>Node4&#45;&gt;Node3</title>
<g id="a_edge3_Node000003_Node000004"><a xlink:title=" ">
<path fill="none" stroke="#9a32cd" stroke-dasharray="5,2" d="M55.62,-222.56C64.1,-210.3 76.51,-193.72 89.5,-181 96.38,-174.27 105.04,-167.84 112.14,-163"/>
<polygon fill="#9a32cd" stroke="#9a32cd" points="52.64,-220.71 49.95,-230.96 58.44,-224.63 52.64,-220.71"/>
</a>
</g>
<text text-anchor="start" x="92.5" y="-202" font-family="Helvetica,sans-Serif" font-size="10.00" fill="grey">err</text>
<text text-anchor="start" x="92.5" y="-187" font-family="Helvetica,sans-Serif" font-size="10.00" fill="grey">out</text>
</g>
<!-- Node5 -->
<g id="Node000005" class="node">
<title>Node5</title>
<g id="a_Node000005"><a xlink:href="structFrProcError.html" target="_top" xlink:title=" ">
<polygon fill="white" stroke="#666666" points="176.5,-322 106.5,-322 106.5,-303 176.5,-303 176.5,-322"/>
<text text-anchor="middle" x="141.5" y="-310" font-family="Helvetica,sans-Serif" font-size="10.00">FrProcError</text>
</a>
</g>
</g>
<!-- Node5&#45;&gt;Node3 -->
<g id="edge4_Node000003_Node000005" class="edge">
<title>Node5&#45;&gt;Node3</title>
<g id="a_edge4_Node000003_Node000005"><a xlink:title=" ">
<path fill="none" stroke="#9a32cd" stroke-dasharray="5,2" d="M139.57,-292.56C136.09,-258.46 128.91,-188 126.4,-163.29"/>
<polygon fill="#9a32cd" stroke="#9a32cd" points="136.1,-293.02 140.59,-302.61 143.06,-292.31 136.1,-293.02"/>
</a>
</g>
<text text-anchor="start" x="138.5" y="-237.5" font-family="Helvetica,sans-Serif" font-size="10.00" fill="grey">error</text>
</g>
<!-- Node6 -->
<g id="Node000006" class="node">
<title>Node6</title>
<g id="a_Node000006"><a xlink:title=" ">
<polygon fill="white" stroke="#666666" points="277,-250 174,-250 174,-231 277,-231 277,-250"/>
<text text-anchor="middle" x="225.5" y="-238" font-family="Helvetica,sans-Serif" font-size="10.00">_FrProcessPrivate</text>
</a>
</g>
</g>
<!-- Node5&#45;&gt;Node6 -->
<g id="edge6_Node000006_Node000005" class="edge">
<title>Node5&#45;&gt;Node6</title>
<g id="a_edge6_Node000006_Node000005"><a xlink:title=" ">
<path fill="none" stroke="#9a32cd" stroke-dasharray="5,2" d="M159.87,-296.19C176.8,-282.08 201.34,-261.63 215.12,-250.15"/>
<polygon fill="#9a32cd" stroke="#9a32cd" points="157.24,-293.83 151.8,-302.92 161.72,-299.2 157.24,-293.83"/>
</a>
</g>
<text text-anchor="start" x="195.5" y="-273.5" font-family="Helvetica,sans-Serif" font-size="10.00" fill="grey">first_error</text>
</g>
<!-- Node6&#45;&gt;Node3 -->
<g id="edge5_Node000003_Node000006" class="edge">
<title>Node6&#45;&gt;Node3</title>
<g id="a_edge5_Node000003_Node000006"><a xlink:title=" ">
<path fill="none" stroke="#9a32cd" stroke-dasharray="5,2" d="M207.29,-224.02C186.26,-206.15 152.41,-177.38 135.62,-163.1"/>
<polygon fill="#9a32cd" stroke="#9a32cd" points="205.29,-226.91 215.17,-230.72 209.82,-221.58 205.29,-226.91"/>
</a>
</g>
<text text-anchor="start" x="196" y="-194" font-family="Helvetica,sans-Serif" font-size="10.00" fill="grey">priv</text>
</g>
<!-- Node7 -->
<g id="Node000007" class="node">
<title>Node7</title>
<g id="a_Node000007"><a xlink:href="structFileData.html" target="_top" xlink:title=" ">
<polygon fill="white" stroke="#666666" points="241,-91 184,-91 184,-72 241,-72 241,-91"/>
<text text-anchor="middle" x="212.5" y="-79" font-family="Helvetica,sans-Serif" font-size="10.00">FileData</text>
</a>
</g>
</g>
<!-- Node7&#45;&gt;Node1 -->
<g id="edge7_Node000001_Node000007" class="edge">
<title>Node7&#45;&gt;Node1</title>
<g id="a_edge7_Node000001_Node000007"><a xlink:title=" ">
<path fill="none" stroke="#9a32cd" stroke-dasharray="5,2" d="M202.22,-63.01C197.49,-55.04 191.77,-45.51 186.5,-37 182.82,-31.05 178.57,-24.43 175.24,-19.29"/>
<polygon fill="#9a32cd" stroke="#9a32cd" points="199.3,-64.96 207.4,-71.79 205.33,-61.39 199.3,-64.96"/>
</a>
</g>
<text text-anchor="start" x="199.5" y="-42.5" font-family="Helvetica,sans-Serif" font-size="10.00" fill="grey">fdata</text>
</g>
</g>
</svg>
</svg>

<style type='text/css'>
<![CDATA[
[data-mouse-over-selected='false'] { opacity: 0.7; }
[data-mouse-over-selected='true']  { opacity: 1.0; }
]]>
</style>
<script type="application/ecmascript"><![CDATA[
document.addEventListener('DOMContentLoaded', (event) => {
  highlightEdges();
  highlightAdjacentNodes();
});
]]></script>
</svg>
