<?xml version="1.0" encoding="UTF-8" standalone="no"?>
<!DOCTYPE svg PUBLIC "-//W3C//DTD SVG 1.1//EN"
 "http://www.w3.org/Graphics/SVG/1.1/DTD/svg11.dtd">
<!-- Generated by graphviz version 2.43.0 (0)
 -->
<!-- Title: MonitorInfo Pages: 1 -->
<svg width="201pt" height="114pt"
 viewBox="0.00 0.00 201.00 114.00" xmlns="http://www.w3.org/2000/svg" xmlns:xlink="http://www.w3.org/1999/xlink">

<svg id="main" version="1.1" xmlns="http://www.w3.org/2000/svg" xmlns:xlink="http://www.w3.org/1999/xlink" xml:space="preserve">

<style type="text/css"><![CDATA[
.node, .edge {opacity: 0.7;}
.node.selected, .edge.selected {opacity: 1;}
.edge:hover path { stroke: red; }
.edge:hover polygon { stroke: red; fill: red; }
]]></style>
<script type="application/ecmascript" xlink:href="svg.min.js"/>
<svg id="graph" class="graph">
<g id="graph0" class="graph" transform="scale(1 1) rotate(0) translate(4 110)">
<title>MonitorInfo</title>
<!-- Node1 -->
<g id="Node000001" class="node">
<title>Node1</title>
<g id="a_Node000001"><a xlink:title=" ">
<polygon fill="#999999" stroke="#666666" points="105.5,-19 32.5,-19 32.5,0 105.5,0 105.5,-19"/>
<text text-anchor="middle" x="69" y="-7" font-family="Helvetica,sans-Serif" font-size="10.00">MonitorInfo</text>
</a>
</g>
</g>
<!-- Node2 -->
<g id="Node000002" class="node">
<title>Node2</title>
<g id="a_Node000002"><a xlink:href="structTiming.html" target="_top" xlink:title=" ">
<polygon fill="white" stroke="#666666" points="50,-106 0,-106 0,-87 50,-87 50,-106"/>
<text text-anchor="middle" x="25" y="-94" font-family="Helvetica,sans-Serif" font-size="10.00">Timing</text>
</a>
</g>
</g>
<!-- Node2&#45;&gt;Node1 -->
<g id="edge1_Node000001_Node000002" class="edge">
<title>Node2&#45;&gt;Node1</title>
<g id="a_edge1_Node000001_Node000002"><a xlink:title=" ">
<path fill="none" stroke="#9a32cd" stroke-dasharray="5,2" d="M22.2,-76.58C21.36,-64.47 22.09,-48.87 29,-37 33.52,-29.22 41.35,-23.29 48.89,-19.03"/>
<polygon fill="#9a32cd" stroke="#9a32cd" points="18.76,-77.33 23.35,-86.88 25.72,-76.55 18.76,-77.33"/>
</a>
</g>
<text text-anchor="start" x="32.5" y="-58" font-family="Helvetica,sans-Serif" font-size="10.00" fill="grey">established</text>
<text text-anchor="start" x="32.5" y="-43" font-family="Helvetica,sans-Serif" font-size="10.00" fill="grey">standard</text>
</g>
<!-- Node3 -->
<g id="Node000003" class="node">
<title>Node3</title>
<g id="a_Node000003"><a xlink:href="structDetailedTiming.html" target="_top" xlink:title=" ">
<polygon fill="white" stroke="#666666" points="160,-106 68,-106 68,-87 160,-87 160,-106"/>
<text text-anchor="middle" x="114" y="-94" font-family="Helvetica,sans-Serif" font-size="10.00">DetailedTiming</text>
</a>
</g>
</g>
<!-- Node3&#45;&gt;Node1 -->
<g id="edge2_Node000001_Node000003" class="edge">
<title>Node3&#45;&gt;Node1</title>
<g id="a_edge2_Node000001_Node000003"><a xlink:title=" ">
<path fill="none" stroke="#9a32cd" stroke-dasharray="5,2" d="M108.91,-77.02C105.18,-65.11 99.48,-49.56 92,-37 88.13,-30.51 82.62,-24.09 77.96,-19.19"/>
<polygon fill="#9a32cd" stroke="#9a32cd" points="105.58,-78.13 111.76,-86.74 112.3,-76.16 105.58,-78.13"/>
</a>
</g>
<text text-anchor="start" x="108" y="-50" font-family="Helvetica,sans-Serif" font-size="10.00" fill="grey">detailed_timings</text>
</g>
</g>
</svg>
</svg>

<style type='text/css'>
<![CDATA[
[data-mouse-over-selected='false'] { opacity: 0.7; }
[data-mouse-over-selected='true']  { opacity: 1.0; }
]]>
</style>
<script type="application/ecmascript"><![CDATA[
document.addEventListener('DOMContentLoaded', (event) => {
  highlightEdges();
  highlightAdjacentNodes();
});
]]></script>
</svg>
