<?xml version="1.0" encoding="UTF-8" standalone="no"?>
<!DOCTYPE svg PUBLIC "-//W3C//DTD SVG 1.1//EN"
 "http://www.w3.org/Graphics/SVG/1.1/DTD/svg11.dtd">
<!-- Generated by graphviz version 2.43.0 (0)
 -->
<!-- Title: _PlumaDocumentLoader Pages: 1 -->
<!--zoomable 356 -->

<svg id="main" version="1.1" xmlns="http://www.w3.org/2000/svg" xmlns:xlink="http://www.w3.org/1999/xlink" xml:space="preserve" onload="init(evt)">

<style type="text/css"><![CDATA[
.node, .edge {opacity: 0.7;}
.node.selected, .edge.selected {opacity: 1;}
.edge:hover path { stroke: red; }
.edge:hover polygon { stroke: red; fill: red; }
]]></style>

<defs>
  <circle id="rim" cx="0" cy="0" r="7"/>
  <circle id="rim2" cx="0" cy="0" r="3.5"/>
  <g id="zoomPlus">
    <use xlink:href="#rim" fill="#404040"><set attributeName="fill" to="#808080" begin="zoomplus.mouseover" end="zoomplus.mouseout"/></use>
    <path d="M-4,0h8M0,-4v8" fill="none" stroke="white" stroke-width="1.5" pointer-events="none"/>
  </g>
  <g id="zoomMin">
    <use xlink:href="#rim" fill="#404040"><set attributeName="fill" to="#808080" begin="zoomminus.mouseover" end="zoomminus.mouseout"/></use>
    <path d="M-4,0h8" fill="none" stroke="white" stroke-width="1.5" pointer-events="none"/>
  </g>
  <g id="arrowUp" transform="translate(30 24)">
    <use xlink:href="#rim"/>
    <path pointer-events="none" fill="none" stroke="white" stroke-width="1.5" d="M0,-3.0v7 M-2.5,-0.5L0,-3.0L2.5,-0.5"/>
  </g>
  <g id="arrowRight" transform="rotate(90) translate(36 -43)">
    <use xlink:href="#rim"/>
    <path pointer-events="none" fill="none" stroke="white" stroke-width="1.5" d="M0,-3.0v7 M-2.5,-0.5L0,-3.0L2.5,-0.5"/>
  </g>
  <g id="arrowDown" transform="rotate(180) translate(-30 -48)">
    <use xlink:href="#rim"/>
    <path pointer-events="none" fill="none" stroke="white" stroke-width="1.5" d="M0,-3.0v7 M-2.5,-0.5L0,-3.0L2.5,-0.5"/>
  </g>
  <g id="arrowLeft" transform="rotate(270) translate(-36 17)">
    <use xlink:href="#rim"/>
    <path pointer-events="none" fill="none" stroke="white" stroke-width="1.5" d="M0,-3.0v7 M-2.5,-0.5L0,-3.0L2.5,-0.5"/>
  </g>
  <g id="resetDef">
    <use xlink:href="#rim2" fill="#404040"><set attributeName="fill" to="#808080" begin="reset.mouseover" end="reset.mouseout"/></use>
  </g>
</defs>
<script type="application/ecmascript">
var viewWidth = 675;
var viewHeight = 356;
var sectionId = 'dynsection-0';
</script>
<script type="application/ecmascript" xlink:href="svg.min.js"/>
<svg id="graph" class="graph">
<g id="viewport">
<title>_PlumaDocumentLoader</title>
<!-- Node1 -->
<g id="Node000001" class="node">
<title>Node1</title>
<g id="a_Node000001"><a xlink:title=" ">
<polygon fill="#999999" stroke="#666666" points="136,-348 0,-348 0,-329 136,-329 136,-348"/>
<text text-anchor="middle" x="68" y="-336" font-family="Helvetica,sans-Serif" font-size="10.00">_PlumaDocumentLoader</text>
</a>
</g>
</g>
<!-- Node4 -->
<g id="Node000004" class="node">
<title>Node4</title>
<g id="a_Node000004"><a xlink:title=" ">
<polygon fill="white" stroke="#666666" points="374.5,-255.5 237.5,-255.5 237.5,-236.5 374.5,-236.5 374.5,-255.5"/>
<text text-anchor="middle" x="306" y="-243.5" font-family="Helvetica,sans-Serif" font-size="10.00">_PlumaDocumentPrivate</text>
</a>
</g>
</g>
<!-- Node1&#45;&gt;Node4 -->
<g id="edge5_Node000004_Node000001" class="edge">
<title>Node1&#45;&gt;Node4</title>
<g id="a_edge5_Node000004_Node000001"><a xlink:title=" ">
<path fill="none" stroke="#9a32cd" stroke-dasharray="5,2" d="M95.52,-324.68C122.75,-312.22 165.8,-293.17 204,-279 227.84,-270.16 255.38,-261.62 275.82,-255.58"/>
<polygon fill="#9a32cd" stroke="#9a32cd" points="93.86,-321.59 86.24,-328.95 96.78,-327.95 93.86,-321.59"/>
</a>
</g>
<text text-anchor="start" x="207.5" y="-292" font-family="Helvetica,sans-Serif" font-size="10.00" fill="grey">loader</text>
</g>
<!-- Node2 -->
<g id="Node000002" class="node">
<title>Node2</title>
<g id="a_Node000002"><a xlink:title=" ">
<polygon fill="white" stroke="#666666" points="221,-91 51,-91 51,-72 221,-72 221,-91"/>
<text text-anchor="middle" x="136" y="-79" font-family="Helvetica,sans-Serif" font-size="10.00">_PlumaDocumentLoaderPrivate</text>
</a>
</g>
</g>
<!-- Node2&#45;&gt;Node1 -->
<g id="edge1_Node000001_Node000002" class="edge">
<title>Node2&#45;&gt;Node1</title>
<g id="a_edge1_Node000001_Node000002"><a xlink:title=" ">
<path fill="none" stroke="#9a32cd" stroke-dasharray="5,2" d="M101.73,-95.24C80.66,-105.07 55.4,-120.94 43,-144 8.68,-207.85 49.21,-300.17 63.43,-328.74"/>
<polygon fill="#9a32cd" stroke="#9a32cd" points="103.31,-98.37 111.06,-91.15 100.5,-91.96 103.31,-98.37"/>
</a>
</g>
<text text-anchor="start" x="35.5" y="-194" font-family="Helvetica,sans-Serif" font-size="10.00" fill="grey">priv</text>
</g>
<!-- Node3 -->
<g id="Node000003" class="node">
<title>Node3</title>
<g id="a_Node000003"><a xlink:href="struct__PlumaDocument.html" target="_top" xlink:title=" ">
<polygon fill="white" stroke="#666666" points="408.5,-163 305.5,-163 305.5,-144 408.5,-144 408.5,-163"/>
<text text-anchor="middle" x="357" y="-151" font-family="Helvetica,sans-Serif" font-size="10.00">_PlumaDocument</text>
</a>
</g>
</g>
<!-- Node3&#45;&gt;Node2 -->
<g id="edge2_Node000002_Node000003" class="edge">
<title>Node3&#45;&gt;Node2</title>
<g id="a_edge2_Node000002_Node000003"><a xlink:title=" ">
<path fill="none" stroke="#9a32cd" stroke-dasharray="5,2" d="M330.88,-139.13C323.39,-135.09 315.28,-130.52 308,-126 296.9,-119.1 296.06,-114.05 284,-109 264.14,-100.68 241.71,-94.97 220.43,-91.05"/>
<polygon fill="#9a32cd" stroke="#9a32cd" points="329.46,-142.33 339.93,-143.92 332.73,-136.15 329.46,-142.33"/>
</a>
</g>
<text text-anchor="start" x="311.5" y="-114.5" font-family="Helvetica,sans-Serif" font-size="10.00" fill="grey">document</text>
</g>
<!-- Node3&#45;&gt;Node4 -->
<g id="edge11_Node000004_Node000003" class="edge">
<title>Node3&#45;&gt;Node4</title>
<g id="a_edge11_Node000004_Node000003"><a xlink:title=" ">
<path fill="none" stroke="#9a32cd" stroke-dasharray="5,2" d="M295.95,-166.45C289.33,-170.1 283.41,-174.85 279,-181 270.72,-192.56 274.12,-199.64 279,-213 282.34,-222.15 289.58,-230.49 295.73,-236.36"/>
<polygon fill="#9a32cd" stroke="#9a32cd" points="297.72,-169.49 305.33,-162.12 294.79,-163.13 297.72,-169.49"/>
</a>
</g>
<text text-anchor="start" x="282" y="-194" font-family="Helvetica,sans-Serif" font-size="10.00" fill="grey">mount_operation_factory</text>
</g>
<!-- Node7 -->
<g id="Node000007" class="node">
<title>Node7</title>
<g id="a_Node000007"><a xlink:title=" ">
<polygon fill="white" stroke="#666666" points="466.5,-91 301.5,-91 301.5,-72 466.5,-72 466.5,-91"/>
<text text-anchor="middle" x="384" y="-79" font-family="Helvetica,sans-Serif" font-size="10.00">_PlumaDocumentSaverPrivate</text>
</a>
</g>
</g>
<!-- Node3&#45;&gt;Node7 -->
<g id="edge8_Node000007_Node000003" class="edge">
<title>Node3&#45;&gt;Node7</title>
<g id="a_edge8_Node000007_Node000003"><a xlink:title=" ">
<path fill="none" stroke="#9a32cd" stroke-dasharray="5,2" d="M363.98,-134.4C369.35,-120.49 376.52,-101.89 380.66,-91.15"/>
<polygon fill="#9a32cd" stroke="#9a32cd" points="360.64,-133.33 360.31,-143.92 367.18,-135.85 360.64,-133.33"/>
</a>
</g>
<text text-anchor="start" x="376.5" y="-114.5" font-family="Helvetica,sans-Serif" font-size="10.00" fill="grey">document</text>
</g>
<!-- Node4&#45;&gt;Node3 -->
<g id="edge3_Node000003_Node000004" class="edge">
<title>Node4&#45;&gt;Node3</title>
<g id="a_edge3_Node000003_Node000004"><a xlink:title=" ">
<path fill="none" stroke="#9a32cd" stroke-dasharray="5,2" d="M384.37,-234.54C395.55,-229.69 405.72,-222.78 413,-213 421.49,-201.59 420.61,-193.02 413,-181 407.76,-172.73 399.17,-166.99 390.28,-163.03"/>
<polygon fill="#9a32cd" stroke="#9a32cd" points="382.9,-231.35 374.77,-238.15 385.36,-237.91 382.9,-231.35"/>
</a>
</g>
<text text-anchor="start" x="422.5" y="-194" font-family="Helvetica,sans-Serif" font-size="10.00" fill="grey">priv</text>
</g>
<!-- Node5 -->
<g id="Node000005" class="node">
<title>Node5</title>
<g id="a_Node000005"><a xlink:title=" ">
<polygon fill="white" stroke="#666666" points="531.5,-348 434.5,-348 434.5,-329 531.5,-329 531.5,-348"/>
<text text-anchor="middle" x="483" y="-336" font-family="Helvetica,sans-Serif" font-size="10.00">_PlumaEncoding</text>
</a>
</g>
</g>
<!-- Node5&#45;&gt;Node2 -->
<g id="edge12_Node000002_Node000005" class="edge">
<title>Node5&#45;&gt;Node2</title>
<g id="a_edge12_Node000002_Node000005"><a xlink:title=" ">
<path fill="none" stroke="#9a32cd" stroke-dasharray="5,2" d="M481.58,-318.58C477.44,-268.91 463.61,-136.74 432,-109 424.09,-102.06 305.9,-93.19 221.29,-87.68"/>
<polygon fill="#9a32cd" stroke="#9a32cd" points="478.11,-319.14 482.39,-328.84 485.09,-318.59 478.11,-319.14"/>
</a>
</g>
<text text-anchor="start" x="471" y="-202" font-family="Helvetica,sans-Serif" font-size="10.00" fill="grey">auto_detected_encoding</text>
<text text-anchor="start" x="471" y="-187" font-family="Helvetica,sans-Serif" font-size="10.00" fill="grey">encoding</text>
</g>
<!-- Node5&#45;&gt;Node4 -->
<g id="edge4_Node000004_Node000005" class="edge">
<title>Node5&#45;&gt;Node4</title>
<g id="a_edge4_Node000004_Node000005"><a xlink:title=" ">
<path fill="none" stroke="#9a32cd" stroke-dasharray="5,2" d="M424.28,-333.02C403.92,-329.32 381.76,-322.72 364,-311 349.38,-301.35 352.64,-292.09 341,-279 333.45,-270.51 323.87,-261.87 316.64,-255.72"/>
<polygon fill="#9a32cd" stroke="#9a32cd" points="423.99,-336.52 434.42,-334.65 425.11,-329.6 423.99,-336.52"/>
</a>
</g>
<text text-anchor="start" x="367.5" y="-300" font-family="Helvetica,sans-Serif" font-size="10.00" fill="grey">encoding</text>
<text text-anchor="start" x="367.5" y="-285" font-family="Helvetica,sans-Serif" font-size="10.00" fill="grey">requested_encoding</text>
</g>
<!-- Node5&#45;&gt;Node7 -->
<g id="edge9_Node000007_Node000005" class="edge">
<title>Node5&#45;&gt;Node7</title>
<g id="a_edge9_Node000007_Node000005"><a xlink:title=" ">
<path fill="none" stroke="#9a32cd" stroke-dasharray="5,2" d="M508.72,-324.19C554.49,-298.64 642.35,-239.98 610,-181 579.89,-126.12 510.43,-101.8 456.4,-91.03"/>
<polygon fill="#9a32cd" stroke="#9a32cd" points="507.02,-321.13 499.91,-328.99 510.37,-327.28 507.02,-321.13"/>
</a>
</g>
<text text-anchor="start" x="619.5" y="-194" font-family="Helvetica,sans-Serif" font-size="10.00" fill="grey">encoding</text>
</g>
<!-- Node6 -->
<g id="Node000006" class="node">
<title>Node6</title>
<g id="a_Node000006"><a xlink:href="struct__PlumaDocumentSaver.html" target="_top" xlink:title=" ">
<polygon fill="white" stroke="#666666" points="330.5,-19 199.5,-19 199.5,0 330.5,0 330.5,-19"/>
<text text-anchor="middle" x="265" y="-7" font-family="Helvetica,sans-Serif" font-size="10.00">_PlumaDocumentSaver</text>
</a>
</g>
</g>
<!-- Node6&#45;&gt;Node4 -->
<g id="edge6_Node000004_Node000006" class="edge">
<title>Node6&#45;&gt;Node4</title>
<g id="a_edge6_Node000004_Node000006"><a xlink:title=" ">
<path fill="none" stroke="#9a32cd" stroke-dasharray="5,2" d="M258.63,-28.84C251.51,-51.57 241.52,-91.54 246,-126 251.15,-165.66 247.82,-179.07 269,-213 274.94,-222.51 284.59,-230.72 292.55,-236.44"/>
<polygon fill="#9a32cd" stroke="#9a32cd" points="262.01,-29.76 261.82,-19.16 255.36,-27.56 262.01,-29.76"/>
</a>
</g>
<text text-anchor="start" x="249" y="-114.5" font-family="Helvetica,sans-Serif" font-size="10.00" fill="grey">saver</text>
</g>
<!-- Node7&#45;&gt;Node6 -->
<g id="edge7_Node000006_Node000007" class="edge">
<title>Node7&#45;&gt;Node6</title>
<g id="a_edge7_Node000006_Node000007"><a xlink:title=" ">
<path fill="none" stroke="#9a32cd" stroke-dasharray="5,2" d="M360.58,-66.72C336.56,-52.59 299.94,-31.05 279.71,-19.15"/>
<polygon fill="#9a32cd" stroke="#9a32cd" points="359.01,-69.86 369.41,-71.92 362.56,-63.83 359.01,-69.86"/>
</a>
</g>
<text text-anchor="start" x="341.5" y="-42.5" font-family="Helvetica,sans-Serif" font-size="10.00" fill="grey">priv</text>
</g>
<!-- Node8 -->
<g id="Node000008" class="node">
<title>Node8</title>
<g id="a_Node000008"><a xlink:title=" ">
<polygon fill="white" stroke="#666666" points="303.5,-348 196.5,-348 196.5,-329 303.5,-329 303.5,-348"/>
<text text-anchor="middle" x="250" y="-336" font-family="Helvetica,sans-Serif" font-size="10.00">_PlumaTextRegion</text>
</a>
</g>
</g>
<!-- Node8&#45;&gt;Node4 -->
<g id="edge10_Node000004_Node000008" class="edge">
<title>Node8&#45;&gt;Node4</title>
<g id="a_edge10_Node000004_Node000008"><a xlink:title=" ">
<path fill="none" stroke="#9a32cd" stroke-dasharray="5,2" d="M245.86,-318.92C244.17,-306.75 244,-290.94 251,-279 257.37,-268.14 268.98,-260.6 279.89,-255.59"/>
<polygon fill="#9a32cd" stroke="#9a32cd" points="242.43,-319.65 247.67,-328.86 249.32,-318.39 242.43,-319.65"/>
</a>
</g>
<text text-anchor="start" x="254" y="-292" font-family="Helvetica,sans-Serif" font-size="10.00" fill="grey">to_search_region</text>
</g>
<!-- Node9 -->
<g id="Node000009" class="node">
<title>Node9</title>
<g id="a_Node000009"><a xlink:href="struct__PlumaSmartCharsetConverter.html" target="_top" xlink:title=" ">
<polygon fill="white" stroke="#666666" points="219.5,-163 52.5,-163 52.5,-144 219.5,-144 219.5,-163"/>
<text text-anchor="middle" x="136" y="-151" font-family="Helvetica,sans-Serif" font-size="10.00">_PlumaSmartCharsetConverter</text>
</a>
</g>
</g>
<!-- Node9&#45;&gt;Node2 -->
<g id="edge13_Node000002_Node000009" class="edge">
<title>Node9&#45;&gt;Node2</title>
<g id="a_edge13_Node000002_Node000009"><a xlink:title=" ">
<path fill="none" stroke="#9a32cd" stroke-dasharray="5,2" d="M136,-133.58C136,-119.76 136,-101.68 136,-91.15"/>
<polygon fill="#9a32cd" stroke="#9a32cd" points="132.5,-133.92 136,-143.92 139.5,-133.92 132.5,-133.92"/>
</a>
</g>
<text text-anchor="start" x="139.5" y="-114.5" font-family="Helvetica,sans-Serif" font-size="10.00" fill="grey">converter</text>
</g>
<!-- Node10 -->
<g id="Node000010" class="node">
<title>Node10</title>
<g id="a_Node000010"><a xlink:title=" ">
<polygon fill="white" stroke="#666666" points="219.5,-261 52.5,-261 52.5,-231 219.5,-231 219.5,-261"/>
<text text-anchor="start" x="60.5" y="-249" font-family="Helvetica,sans-Serif" font-size="10.00">_PlumaSmartCharsetConverter</text>
<text text-anchor="middle" x="136" y="-238" font-family="Helvetica,sans-Serif" font-size="10.00">Private</text>
</a>
</g>
</g>
<!-- Node10&#45;&gt;Node9 -->
<g id="edge14_Node000009_Node000010" class="edge">
<title>Node10&#45;&gt;Node9</title>
<g id="a_edge14_Node000009_Node000010"><a xlink:title=" ">
<path fill="none" stroke="#9a32cd" stroke-dasharray="5,2" d="M136,-220.78C136,-201.7 136,-176.21 136,-163.1"/>
<polygon fill="#9a32cd" stroke="#9a32cd" points="132.5,-220.86 136,-230.86 139.5,-220.86 132.5,-220.86"/>
</a>
</g>
<text text-anchor="start" x="139.5" y="-194" font-family="Helvetica,sans-Serif" font-size="10.00" fill="grey">priv</text>
</g>
</g>
</svg>

<g id="navigator" transform="translate(0 0)" fill="#404254">
  <rect fill="#f2f5e9" fill-opacity="0.5" stroke="#606060" stroke-width=".5" x="0" y="0" width="60" height="60"/>
  <use id="zoomplus" xlink:href="#zoomPlus" x="17" y="9" onmousedown="handleZoom(evt,'in')"/>
  <use id="zoomminus" xlink:href="#zoomMin" x="42" y="9" onmousedown="handleZoom(evt,'out')"/>
  <use id="reset" xlink:href="#resetDef" x="30" y="36" onmousedown="handleReset()"/>
   <use id="arrowup" xlink:href="#arrowUp" x="0" y="0" onmousedown="handlePan(0,-1)"/>
  <use id="arrowright" xlink:href="#arrowRight" x="0" y="0" onmousedown="handlePan(1,0)"/>
  <use id="arrowdown" xlink:href="#arrowDown" x="0" y="0" onmousedown="handlePan(0,1)"/>
  <use id="arrowleft" xlink:href="#arrowLeft" x="0" y="0" onmousedown="handlePan(-1,0)"/>
</g>
<svg viewBox="0 0 15 15" width="100%" height="30px" preserveAspectRatio="xMaxYMin meet">
 <g id="arrow_out" transform="scale(0.3 0.3)">
  <a xlink:href="struct__PlumaDocumentLoader__coll__graph_org.svg" target="_base">
   <rect id="button" ry="5" rx="5" y="6" x="6" height="38" width="38"
        fill="#f2f5e9" fill-opacity="0.5" stroke="#606060" stroke-width="1.0"/>
   <path id="arrow"
     d="M 11.500037,31.436501 C 11.940474,20.09759 22.043105,11.32322 32.158766,21.979434 L 37.068811,17.246167 C 37.068811,17.246167 37.088388,32 37.088388,32 L 22.160133,31.978069 C 22.160133,31.978069 26.997745,27.140456 26.997745,27.140456 C 18.528582,18.264221 13.291696,25.230495 11.500037,31.436501 z"
     style="fill:#404040;"/>
  </a>
 </g>
</svg>

<style type='text/css'>
<![CDATA[
[data-mouse-over-selected='false'] { opacity: 0.7; }
[data-mouse-over-selected='true']  { opacity: 1.0; }
]]>
</style>
<script type="application/ecmascript"><![CDATA[
document.addEventListener('DOMContentLoaded', (event) => {
  highlightEdges();
  highlightAdjacentNodes();
});
]]></script>
</svg>
