<?xml version="1.0" encoding="UTF-8" standalone="no"?>
<!DOCTYPE svg PUBLIC "-//W3C//DTD SVG 1.1//EN"
 "http://www.w3.org/Graphics/SVG/1.1/DTD/svg11.dtd">
<!-- Generated by graphviz version 2.43.0 (0)
 -->
<!-- Title: _GvcBalanceBar Pages: 1 -->
<svg width="372pt" height="315pt"
 viewBox="0.00 0.00 371.50 315.00" xmlns="http://www.w3.org/2000/svg" xmlns:xlink="http://www.w3.org/1999/xlink">
<g id="graph0" class="graph" transform="scale(1 1) rotate(0) translate(4 311)">
<title>_GvcBalanceBar</title>
<!-- Node1 -->
<g id="Node000001" class="node">
<title>Node1</title>
<g id="a_Node000001"><a xlink:title=" ">
<polygon fill="#999999" stroke="#666666" points="113.5,-91 17.5,-91 17.5,-72 113.5,-72 113.5,-91"/>
<text text-anchor="middle" x="65.5" y="-79" font-family="Helvetica,sans-Serif" font-size="10.00">_GvcBalanceBar</text>
</a>
</g>
</g>
<!-- Node2 -->
<g id="Node000002" class="node">
<title>Node2</title>
<g id="a_Node000002"><a xlink:title=" ">
<polygon fill="white" stroke="#666666" points="131,-163 0,-163 0,-144 131,-144 131,-163"/>
<text text-anchor="middle" x="65.5" y="-151" font-family="Helvetica,sans-Serif" font-size="10.00">_GvcBalanceBarPrivate</text>
</a>
</g>
</g>
<!-- Node2&#45;&gt;Node1 -->
<g id="edge1_Node000001_Node000002" class="edge">
<title>Node2&#45;&gt;Node1</title>
<g id="a_edge1_Node000001_Node000002"><a xlink:title=" ">
<path fill="none" stroke="#9a32cd" stroke-dasharray="5,2" d="M65.5,-133.58C65.5,-119.76 65.5,-101.68 65.5,-91.15"/>
<polygon fill="#9a32cd" stroke="#9a32cd" points="62,-133.92 65.5,-143.92 69,-133.92 62,-133.92"/>
</a>
</g>
<text text-anchor="start" x="69" y="-114.5" font-family="Helvetica,sans-Serif" font-size="10.00" fill="grey">priv</text>
</g>
<!-- Node3 -->
<g id="Node000003" class="node">
<title>Node3</title>
<g id="a_Node000003"><a xlink:href="struct__MateMixerStreamControl.html" target="_top" xlink:title=" ">
<polygon fill="white" stroke="#666666" points="220.5,-235 76.5,-235 76.5,-216 220.5,-216 220.5,-235"/>
<text text-anchor="middle" x="148.5" y="-223" font-family="Helvetica,sans-Serif" font-size="10.00">_MateMixerStreamControl</text>
</a>
</g>
</g>
<!-- Node3&#45;&gt;Node2 -->
<g id="edge2_Node000002_Node000003" class="edge">
<title>Node3&#45;&gt;Node2</title>
<g id="a_edge2_Node000002_Node000003"><a xlink:title=" ">
<path fill="none" stroke="#9a32cd" stroke-dasharray="5,2" d="M123.59,-210.75C117.45,-206.94 111.04,-202.57 105.5,-198 92.52,-187.29 79.76,-172.45 72.26,-163.17"/>
<polygon fill="#9a32cd" stroke="#9a32cd" points="121.89,-213.81 132.27,-215.92 125.47,-207.8 121.89,-213.81"/>
</a>
</g>
<text text-anchor="start" x="108.5" y="-186.5" font-family="Helvetica,sans-Serif" font-size="10.00" fill="grey">control</text>
</g>
<!-- Node6 -->
<g id="Node000006" class="node">
<title>Node6</title>
<g id="a_Node000006"><a xlink:title=" ">
<polygon fill="white" stroke="#666666" points="331,-163 188,-163 188,-144 331,-144 331,-163"/>
<text text-anchor="middle" x="259.5" y="-151" font-family="Helvetica,sans-Serif" font-size="10.00">_MateMixerStreamPrivate</text>
</a>
</g>
</g>
<!-- Node3&#45;&gt;Node6 -->
<g id="edge8_Node000006_Node000003" class="edge">
<title>Node3&#45;&gt;Node6</title>
<g id="a_edge8_Node000006_Node000003"><a xlink:title=" ">
<path fill="none" stroke="#9a32cd" stroke-dasharray="5,2" d="M170.65,-210.53C193.05,-196.4 226.99,-175 245.78,-163.15"/>
<polygon fill="#9a32cd" stroke="#9a32cd" points="168.7,-207.62 162.11,-215.92 172.44,-213.54 168.7,-207.62"/>
</a>
</g>
<text text-anchor="start" x="220.5" y="-186.5" font-family="Helvetica,sans-Serif" font-size="10.00" fill="grey">control</text>
</g>
<!-- Node4 -->
<g id="Node000004" class="node">
<title>Node4</title>
<g id="a_Node000004"><a xlink:title=" ">
<polygon fill="white" stroke="#666666" points="265,-19 86,-19 86,0 265,0 265,-19"/>
<text text-anchor="middle" x="175.5" y="-7" font-family="Helvetica,sans-Serif" font-size="10.00">_MateMixerStreamControlPrivate</text>
</a>
</g>
</g>
<!-- Node4&#45;&gt;Node3 -->
<g id="edge3_Node000003_Node000004" class="edge">
<title>Node4&#45;&gt;Node3</title>
<g id="a_edge3_Node000003_Node000004"><a xlink:title=" ">
<path fill="none" stroke="#9a32cd" stroke-dasharray="5,2" d="M173.17,-28.98C167.58,-73.25 153.6,-184.05 149.59,-215.85"/>
<polygon fill="#9a32cd" stroke="#9a32cd" points="176.64,-29.39 174.42,-19.03 169.7,-28.51 176.64,-29.39"/>
</a>
</g>
<text text-anchor="start" x="167" y="-114.5" font-family="Helvetica,sans-Serif" font-size="10.00" fill="grey">priv</text>
</g>
<!-- Node5 -->
<g id="Node000005" class="node">
<title>Node5</title>
<g id="a_Node000005"><a xlink:href="struct__MateMixerStream.html" target="_top" xlink:title=" ">
<polygon fill="white" stroke="#666666" points="305,-91 196,-91 196,-72 305,-72 305,-91"/>
<text text-anchor="middle" x="250.5" y="-79" font-family="Helvetica,sans-Serif" font-size="10.00">_MateMixerStream</text>
</a>
</g>
</g>
<!-- Node5&#45;&gt;Node4 -->
<g id="edge4_Node000004_Node000005" class="edge">
<title>Node5&#45;&gt;Node4</title>
<g id="a_edge4_Node000004_Node000005"><a xlink:title=" ">
<path fill="none" stroke="#9a32cd" stroke-dasharray="5,2" d="M233.68,-64.8C218.58,-50.71 196.96,-30.53 184.77,-19.15"/>
<polygon fill="#9a32cd" stroke="#9a32cd" points="231.6,-67.65 241.3,-71.92 236.38,-62.53 231.6,-67.65"/>
</a>
</g>
<text text-anchor="start" x="226" y="-42.5" font-family="Helvetica,sans-Serif" font-size="10.00" fill="grey">stream</text>
</g>
<!-- Node6&#45;&gt;Node5 -->
<g id="edge5_Node000005_Node000006" class="edge">
<title>Node6&#45;&gt;Node5</title>
<g id="a_edge5_Node000005_Node000006"><a xlink:title=" ">
<path fill="none" stroke="#9a32cd" stroke-dasharray="5,2" d="M257.12,-133.99C255.34,-120.13 252.98,-101.79 251.61,-91.15"/>
<polygon fill="#9a32cd" stroke="#9a32cd" points="253.65,-134.44 258.4,-143.92 260.59,-133.55 253.65,-134.44"/>
</a>
</g>
<text text-anchor="start" x="260" y="-114.5" font-family="Helvetica,sans-Serif" font-size="10.00" fill="grey">priv</text>
</g>
<!-- Node7 -->
<g id="Node000007" class="node">
<title>Node7</title>
<g id="a_Node000007"><a xlink:href="struct__MateMixerDevice.html" target="_top" xlink:title=" ">
<polygon fill="white" stroke="#666666" points="346,-235 239,-235 239,-216 346,-216 346,-235"/>
<text text-anchor="middle" x="292.5" y="-223" font-family="Helvetica,sans-Serif" font-size="10.00">_MateMixerDevice</text>
</a>
</g>
</g>
<!-- Node7&#45;&gt;Node6 -->
<g id="edge6_Node000006_Node000007" class="edge">
<title>Node7&#45;&gt;Node6</title>
<g id="a_edge6_Node000006_Node000007"><a xlink:title=" ">
<path fill="none" stroke="#9a32cd" stroke-dasharray="5,2" d="M284.16,-206.81C277.58,-192.86 268.69,-174 263.58,-163.15"/>
<polygon fill="#9a32cd" stroke="#9a32cd" points="281.02,-208.36 288.45,-215.92 287.36,-205.38 281.02,-208.36"/>
</a>
</g>
<text text-anchor="start" x="284" y="-186.5" font-family="Helvetica,sans-Serif" font-size="10.00" fill="grey">device</text>
</g>
<!-- Node8 -->
<g id="Node000008" class="node">
<title>Node8</title>
<g id="a_Node000008"><a xlink:title=" ">
<polygon fill="white" stroke="#666666" points="363.5,-307 221.5,-307 221.5,-288 363.5,-288 363.5,-307"/>
<text text-anchor="middle" x="292.5" y="-295" font-family="Helvetica,sans-Serif" font-size="10.00">_MateMixerDevicePrivate</text>
</a>
</g>
</g>
<!-- Node8&#45;&gt;Node7 -->
<g id="edge7_Node000007_Node000008" class="edge">
<title>Node8&#45;&gt;Node7</title>
<g id="a_edge7_Node000007_Node000008"><a xlink:title=" ">
<path fill="none" stroke="#9a32cd" stroke-dasharray="5,2" d="M292.5,-277.58C292.5,-263.76 292.5,-245.68 292.5,-235.15"/>
<polygon fill="#9a32cd" stroke="#9a32cd" points="289,-277.92 292.5,-287.92 296,-277.92 289,-277.92"/>
</a>
</g>
<text text-anchor="start" x="296" y="-258.5" font-family="Helvetica,sans-Serif" font-size="10.00" fill="grey">priv</text>
</g>
</g>
</svg>
