<?xml version="1.0" encoding="UTF-8" standalone="no"?>
<!DOCTYPE svg PUBLIC "-//W3C//DTD SVG 1.1//EN"
 "http://www.w3.org/Graphics/SVG/1.1/DTD/svg11.dtd">
<!-- Generated by graphviz version 2.43.0 (0)
 -->
<!-- Title: _PulseBackend Pages: 1 -->
<svg width="819pt" height="258pt"
 viewBox="0.00 0.00 819.00 258.00" xmlns="http://www.w3.org/2000/svg" xmlns:xlink="http://www.w3.org/1999/xlink">
<g id="graph0" class="graph" transform="scale(1 1) rotate(0) translate(4 254)">
<title>_PulseBackend</title>
<!-- Node1 -->
<g id="Node000001" class="node">
<title>Node1</title>
<g id="a_Node000001"><a xlink:title=" ">
<polygon fill="#999999" stroke="#666666" points="592,-19 503,-19 503,0 592,0 592,-19"/>
<text text-anchor="middle" x="547.5" y="-7" font-family="Helvetica,sans-Serif" font-size="10.00">_PulseBackend</text>
</a>
</g>
</g>
<!-- Node2 -->
<g id="Node000002" class="node">
<title>Node2</title>
<g id="a_Node000002"><a xlink:href="struct__MateMixerBackend.html" target="_top" xlink:title=" ">
<polygon fill="white" stroke="#666666" points="534,-91 419,-91 419,-72 534,-72 534,-91"/>
<text text-anchor="middle" x="476.5" y="-79" font-family="Helvetica,sans-Serif" font-size="10.00">_MateMixerBackend</text>
</a>
</g>
</g>
<!-- Node2&#45;&gt;Node1 -->
<g id="edge1_Node000001_Node000002" class="edge">
<title>Node2&#45;&gt;Node1</title>
<g id="a_edge1_Node000001_Node000002"><a xlink:title=" ">
<path fill="none" stroke="#9a32cd" stroke-dasharray="5,2" d="M492.42,-64.8C506.72,-50.71 527.19,-30.53 538.72,-19.15"/>
<polygon fill="#9a32cd" stroke="#9a32cd" points="489.87,-62.4 485.21,-71.92 494.78,-67.39 489.87,-62.4"/>
</a>
</g>
<text text-anchor="start" x="523.5" y="-42.5" font-family="Helvetica,sans-Serif" font-size="10.00" fill="grey">parent</text>
</g>
<!-- Node3 -->
<g id="Node000003" class="node">
<title>Node3</title>
<g id="a_Node000003"><a xlink:title=" ">
<polygon fill="white" stroke="#666666" points="544,-163 395,-163 395,-144 544,-144 544,-163"/>
<text text-anchor="middle" x="469.5" y="-151" font-family="Helvetica,sans-Serif" font-size="10.00">_MateMixerBackendPrivate</text>
</a>
</g>
</g>
<!-- Node3&#45;&gt;Node2 -->
<g id="edge2_Node000002_Node000003" class="edge">
<title>Node3&#45;&gt;Node2</title>
<g id="a_edge2_Node000002_Node000003"><a xlink:title=" ">
<path fill="none" stroke="#9a32cd" stroke-dasharray="5,2" d="M471.39,-133.58C472.77,-119.76 474.58,-101.68 475.63,-91.15"/>
<polygon fill="#9a32cd" stroke="#9a32cd" points="467.87,-133.62 470.36,-143.92 474.84,-134.31 467.87,-133.62"/>
</a>
</g>
<text text-anchor="start" x="478" y="-114.5" font-family="Helvetica,sans-Serif" font-size="10.00" fill="grey">priv</text>
</g>
<!-- Node4 -->
<g id="Node000004" class="node">
<title>Node4</title>
<g id="a_Node000004"><a xlink:href="struct__MateMixerStream.html" target="_top" xlink:title=" ">
<polygon fill="white" stroke="#666666" points="422,-250 313,-250 313,-231 422,-231 422,-250"/>
<text text-anchor="middle" x="367.5" y="-238" font-family="Helvetica,sans-Serif" font-size="10.00">_MateMixerStream</text>
</a>
</g>
</g>
<!-- Node4&#45;&gt;Node3 -->
<g id="edge3_Node000003_Node000004" class="edge">
<title>Node4&#45;&gt;Node3</title>
<g id="a_edge3_Node000003_Node000004"><a xlink:title=" ">
<path fill="none" stroke="#9a32cd" stroke-dasharray="5,2" d="M385.79,-224.26C407.22,-206.4 441.97,-177.44 459.18,-163.1"/>
<polygon fill="#9a32cd" stroke="#9a32cd" points="383.47,-221.63 378.03,-230.72 387.95,-227.01 383.47,-221.63"/>
</a>
</g>
<text text-anchor="start" x="440.5" y="-202" font-family="Helvetica,sans-Serif" font-size="10.00" fill="grey">default_input</text>
<text text-anchor="start" x="440.5" y="-187" font-family="Helvetica,sans-Serif" font-size="10.00" fill="grey">default_output</text>
</g>
<!-- Node9 -->
<g id="Node000009" class="node">
<title>Node9</title>
<g id="a_Node000009"><a xlink:title=" ">
<polygon fill="white" stroke="#666666" points="179,-163 0,-163 0,-144 179,-144 179,-163"/>
<text text-anchor="middle" x="89.5" y="-151" font-family="Helvetica,sans-Serif" font-size="10.00">_MateMixerStreamControlPrivate</text>
</a>
</g>
</g>
<!-- Node4&#45;&gt;Node9 -->
<g id="edge9_Node000009_Node000004" class="edge">
<title>Node4&#45;&gt;Node9</title>
<g id="a_edge9_Node000009_Node000004"><a xlink:title=" ">
<path fill="none" stroke="#9a32cd" stroke-dasharray="5,2" d="M329.94,-228.02C273.39,-210.73 167.66,-178.4 117.41,-163.03"/>
<polygon fill="#9a32cd" stroke="#9a32cd" points="328.99,-231.38 339.57,-230.96 331.03,-224.69 328.99,-231.38"/>
</a>
</g>
<text text-anchor="start" x="282" y="-194" font-family="Helvetica,sans-Serif" font-size="10.00" fill="grey">stream</text>
</g>
<!-- Node5 -->
<g id="Node000005" class="node">
<title>Node5</title>
<g id="a_Node000005"><a xlink:title=" ">
<polygon fill="white" stroke="#666666" points="340,-19 197,-19 197,0 340,0 340,-19"/>
<text text-anchor="middle" x="268.5" y="-7" font-family="Helvetica,sans-Serif" font-size="10.00">_MateMixerStreamPrivate</text>
</a>
</g>
</g>
<!-- Node5&#45;&gt;Node4 -->
<g id="edge4_Node000004_Node000005" class="edge">
<title>Node5&#45;&gt;Node4</title>
<g id="a_edge4_Node000004_Node000005"><a xlink:title=" ">
<path fill="none" stroke="#9a32cd" stroke-dasharray="5,2" d="M295.85,-24.37C301.44,-27.99 306.99,-32.24 311.5,-37 323.67,-49.85 324.08,-55.51 330.5,-72 353.18,-130.28 363.55,-205.66 366.54,-230.86"/>
<polygon fill="#9a32cd" stroke="#9a32cd" points="297.55,-21.31 287.17,-19.21 293.98,-27.33 297.55,-21.31"/>
</a>
</g>
<text text-anchor="start" x="351" y="-114.5" font-family="Helvetica,sans-Serif" font-size="10.00" fill="grey">priv</text>
</g>
<!-- Node6 -->
<g id="Node000006" class="node">
<title>Node6</title>
<g id="a_Node000006"><a xlink:href="struct__MateMixerDevice.html" target="_top" xlink:title=" ">
<polygon fill="white" stroke="#666666" points="322,-91 215,-91 215,-72 322,-72 322,-91"/>
<text text-anchor="middle" x="268.5" y="-79" font-family="Helvetica,sans-Serif" font-size="10.00">_MateMixerDevice</text>
</a>
</g>
</g>
<!-- Node6&#45;&gt;Node5 -->
<g id="edge5_Node000005_Node000006" class="edge">
<title>Node6&#45;&gt;Node5</title>
<g id="a_edge5_Node000005_Node000006"><a xlink:title=" ">
<path fill="none" stroke="#9a32cd" stroke-dasharray="5,2" d="M268.5,-61.58C268.5,-47.76 268.5,-29.68 268.5,-19.15"/>
<polygon fill="#9a32cd" stroke="#9a32cd" points="265,-61.92 268.5,-71.92 272,-61.92 265,-61.92"/>
</a>
</g>
<text text-anchor="start" x="272" y="-42.5" font-family="Helvetica,sans-Serif" font-size="10.00" fill="grey">device</text>
</g>
<!-- Node7 -->
<g id="Node000007" class="node">
<title>Node7</title>
<g id="a_Node000007"><a xlink:title=" ">
<polygon fill="white" stroke="#666666" points="339.5,-163 197.5,-163 197.5,-144 339.5,-144 339.5,-163"/>
<text text-anchor="middle" x="268.5" y="-151" font-family="Helvetica,sans-Serif" font-size="10.00">_MateMixerDevicePrivate</text>
</a>
</g>
</g>
<!-- Node7&#45;&gt;Node6 -->
<g id="edge6_Node000006_Node000007" class="edge">
<title>Node7&#45;&gt;Node6</title>
<g id="a_edge6_Node000006_Node000007"><a xlink:title=" ">
<path fill="none" stroke="#9a32cd" stroke-dasharray="5,2" d="M268.5,-133.58C268.5,-119.76 268.5,-101.68 268.5,-91.15"/>
<polygon fill="#9a32cd" stroke="#9a32cd" points="265,-133.92 268.5,-143.92 272,-133.92 265,-133.92"/>
</a>
</g>
<text text-anchor="start" x="272" y="-114.5" font-family="Helvetica,sans-Serif" font-size="10.00" fill="grey">priv</text>
</g>
<!-- Node8 -->
<g id="Node000008" class="node">
<title>Node8</title>
<g id="a_Node000008"><a xlink:href="struct__MateMixerStreamControl.html" target="_top" xlink:title=" ">
<polygon fill="white" stroke="#666666" points="187.5,-91 43.5,-91 43.5,-72 187.5,-72 187.5,-91"/>
<text text-anchor="middle" x="115.5" y="-79" font-family="Helvetica,sans-Serif" font-size="10.00">_MateMixerStreamControl</text>
</a>
</g>
</g>
<!-- Node8&#45;&gt;Node5 -->
<g id="edge7_Node000005_Node000008" class="edge">
<title>Node8&#45;&gt;Node5</title>
<g id="a_edge7_Node000005_Node000008"><a xlink:title=" ">
<path fill="none" stroke="#9a32cd" stroke-dasharray="5,2" d="M143.59,-67.65C174.4,-53.55 223,-31.32 249.59,-19.15"/>
<polygon fill="#9a32cd" stroke="#9a32cd" points="141.9,-64.57 134.26,-71.92 144.81,-70.94 141.9,-64.57"/>
</a>
</g>
<text text-anchor="start" x="213.5" y="-42.5" font-family="Helvetica,sans-Serif" font-size="10.00" fill="grey">control</text>
</g>
<!-- Node9&#45;&gt;Node8 -->
<g id="edge8_Node000008_Node000009" class="edge">
<title>Node9&#45;&gt;Node8</title>
<g id="a_edge8_Node000008_Node000009"><a xlink:title=" ">
<path fill="none" stroke="#9a32cd" stroke-dasharray="5,2" d="M96.22,-134.4C101.39,-120.49 108.3,-101.89 112.29,-91.15"/>
<polygon fill="#9a32cd" stroke="#9a32cd" points="92.89,-133.32 92.69,-143.92 99.45,-135.76 92.89,-133.32"/>
</a>
</g>
<text text-anchor="start" x="110" y="-114.5" font-family="Helvetica,sans-Serif" font-size="10.00" fill="grey">priv</text>
</g>
<!-- Node10 -->
<g id="Node000010" class="node">
<title>Node10</title>
<g id="a_Node000010"><a xlink:title=" ">
<polygon fill="white" stroke="#666666" points="679.5,-91 555.5,-91 555.5,-72 679.5,-72 679.5,-91"/>
<text text-anchor="middle" x="617.5" y="-79" font-family="Helvetica,sans-Serif" font-size="10.00">_PulseBackendPrivate</text>
</a>
</g>
</g>
<!-- Node10&#45;&gt;Node1 -->
<g id="edge10_Node000001_Node000010" class="edge">
<title>Node10&#45;&gt;Node1</title>
<g id="a_edge10_Node000001_Node000010"><a xlink:title=" ">
<path fill="none" stroke="#9a32cd" stroke-dasharray="5,2" d="M601.8,-64.8C587.71,-50.71 567.53,-30.53 556.15,-19.15"/>
<polygon fill="#9a32cd" stroke="#9a32cd" points="599.37,-67.32 608.92,-71.92 604.32,-62.37 599.37,-67.32"/>
</a>
</g>
<text text-anchor="start" x="595" y="-42.5" font-family="Helvetica,sans-Serif" font-size="10.00" fill="grey">priv</text>
</g>
<!-- Node11 -->
<g id="Node000011" class="node">
<title>Node11</title>
<g id="a_Node000011"><a xlink:href="struct__MateMixerAppInfo.html" target="_top" xlink:title=" ">
<polygon fill="white" stroke="#666666" points="673,-163 562,-163 562,-144 673,-144 673,-163"/>
<text text-anchor="middle" x="617.5" y="-151" font-family="Helvetica,sans-Serif" font-size="10.00">_MateMixerAppInfo</text>
</a>
</g>
</g>
<!-- Node11&#45;&gt;Node10 -->
<g id="edge11_Node000010_Node000011" class="edge">
<title>Node11&#45;&gt;Node10</title>
<g id="a_edge11_Node000010_Node000011"><a xlink:title=" ">
<path fill="none" stroke="#9a32cd" stroke-dasharray="5,2" d="M617.5,-133.58C617.5,-119.76 617.5,-101.68 617.5,-91.15"/>
<polygon fill="#9a32cd" stroke="#9a32cd" points="614,-133.92 617.5,-143.92 621,-133.92 614,-133.92"/>
</a>
</g>
<text text-anchor="start" x="621" y="-114.5" font-family="Helvetica,sans-Serif" font-size="10.00" fill="grey">app_info</text>
</g>
<!-- Node12 -->
<g id="Node000012" class="node">
<title>Node12</title>
<g id="a_Node000012"><a xlink:href="struct__PulseConnection.html" target="_top" xlink:title=" ">
<polygon fill="white" stroke="#666666" points="794,-163 691,-163 691,-144 794,-144 794,-163"/>
<text text-anchor="middle" x="742.5" y="-151" font-family="Helvetica,sans-Serif" font-size="10.00">_PulseConnection</text>
</a>
</g>
</g>
<!-- Node12&#45;&gt;Node10 -->
<g id="edge12_Node000010_Node000012" class="edge">
<title>Node12&#45;&gt;Node10</title>
<g id="a_edge12_Node000010_Node000012"><a xlink:title=" ">
<path fill="none" stroke="#9a32cd" stroke-dasharray="5,2" d="M720.62,-138.66C706.48,-129.87 687.6,-118.42 670.5,-109 659.15,-102.75 646.13,-96.23 635.84,-91.22"/>
<polygon fill="#9a32cd" stroke="#9a32cd" points="718.82,-141.66 729.15,-144 722.53,-135.73 718.82,-141.66"/>
</a>
</g>
<text text-anchor="start" x="702.5" y="-114.5" font-family="Helvetica,sans-Serif" font-size="10.00" fill="grey">connection</text>
</g>
<!-- Node13 -->
<g id="Node000013" class="node">
<title>Node13</title>
<g id="a_Node000013"><a xlink:title=" ">
<polygon fill="white" stroke="#666666" points="811,-250 674,-250 674,-231 811,-231 811,-250"/>
<text text-anchor="middle" x="742.5" y="-238" font-family="Helvetica,sans-Serif" font-size="10.00">_PulseConnectionPrivate</text>
</a>
</g>
</g>
<!-- Node13&#45;&gt;Node12 -->
<g id="edge13_Node000012_Node000013" class="edge">
<title>Node13&#45;&gt;Node12</title>
<g id="a_edge13_Node000012_Node000013"><a xlink:title=" ">
<path fill="none" stroke="#9a32cd" stroke-dasharray="5,2" d="M742.5,-220.62C742.5,-202.79 742.5,-176.83 742.5,-163.36"/>
<polygon fill="#9a32cd" stroke="#9a32cd" points="739,-220.72 742.5,-230.72 746,-220.72 739,-220.72"/>
</a>
</g>
<text text-anchor="start" x="746" y="-194" font-family="Helvetica,sans-Serif" font-size="10.00" fill="grey">priv</text>
</g>
</g>
</svg>
