<?xml version="1.0" encoding="UTF-8" standalone="no"?>
<!DOCTYPE svg PUBLIC "-//W3C//DTD SVG 1.1//EN"
 "http://www.w3.org/Graphics/SVG/1.1/DTD/svg11.dtd">
<!-- Generated by graphviz version 2.43.0 (0)
 -->
<!-- Title: _TerminalWindow Pages: 1 -->
<svg width="407pt" height="387pt"
 viewBox="0.00 0.00 407.14 387.00" xmlns="http://www.w3.org/2000/svg" xmlns:xlink="http://www.w3.org/1999/xlink">
<g id="graph0" class="graph" transform="scale(1 1) rotate(0) translate(4 383)">
<title>_TerminalWindow</title>
<!-- Node1 -->
<g id="Node000001" class="node">
<title>Node1</title>
<g id="a_Node000001"><a xlink:title=" ">
<polygon fill="#999999" stroke="#666666" points="150.14,-235 47.14,-235 47.14,-216 150.14,-216 150.14,-235"/>
<text text-anchor="middle" x="98.64" y="-223" font-family="Helvetica,sans-Serif" font-size="10.00">_TerminalWindow</text>
</a>
</g>
</g>
<!-- Node4 -->
<g id="Node000004" class="node">
<title>Node4</title>
<g id="a_Node000004"><a xlink:title=" ">
<polygon fill="white" stroke="#666666" points="172.14,-163 25.14,-163 25.14,-144 172.14,-144 172.14,-163"/>
<text text-anchor="middle" x="98.64" y="-151" font-family="Helvetica,sans-Serif" font-size="10.00">_TerminalTabsMenuPrivate</text>
</a>
</g>
</g>
<!-- Node1&#45;&gt;Node4 -->
<g id="edge4_Node000004_Node000001" class="edge">
<title>Node1&#45;&gt;Node4</title>
<g id="a_edge4_Node000004_Node000001"><a xlink:title=" ">
<path fill="none" stroke="#9a32cd" stroke-dasharray="5,2" d="M98.64,-205.58C98.64,-191.76 98.64,-173.68 98.64,-163.15"/>
<polygon fill="#9a32cd" stroke="#9a32cd" points="95.14,-205.92 98.64,-215.92 102.14,-205.92 95.14,-205.92"/>
</a>
</g>
<text text-anchor="start" x="101.64" y="-186.5" font-family="Helvetica,sans-Serif" font-size="10.00" fill="grey">window</text>
</g>
<!-- Node5 -->
<g id="Node000005" class="node">
<title>Node5</title>
<g id="a_Node000005"><a xlink:href="struct__TerminalScreenPopupInfo.html" target="_top" xlink:title=" ">
<polygon fill="white" stroke="#666666" points="302.64,-91 156.64,-91 156.64,-72 302.64,-72 302.64,-91"/>
<text text-anchor="middle" x="229.64" y="-79" font-family="Helvetica,sans-Serif" font-size="10.00">_TerminalScreenPopupInfo</text>
</a>
</g>
</g>
<!-- Node1&#45;&gt;Node5 -->
<g id="edge6_Node000005_Node000001" class="edge">
<title>Node1&#45;&gt;Node5</title>
<g id="a_edge6_Node000005_Node000001"><a xlink:title=" ">
<path fill="none" stroke="#9a32cd" stroke-dasharray="5,2" d="M126.3,-211.05C133.2,-207.21 140.4,-202.77 146.64,-198 186.68,-167.43 215.61,-112.24 225.71,-91.08"/>
<polygon fill="#9a32cd" stroke="#9a32cd" points="124.39,-208.1 117.2,-215.88 127.68,-214.28 124.39,-208.1"/>
</a>
</g>
<text text-anchor="start" x="198.64" y="-150.5" font-family="Helvetica,sans-Serif" font-size="10.00" fill="grey">window</text>
</g>
<!-- Node2 -->
<g id="Node000002" class="node">
<title>Node2</title>
<g id="a_Node000002"><a xlink:title=" ">
<polygon fill="white" stroke="#666666" points="240.14,-19 103.14,-19 103.14,0 240.14,0 240.14,-19"/>
<text text-anchor="middle" x="171.64" y="-7" font-family="Helvetica,sans-Serif" font-size="10.00">_TerminalWindowPrivate</text>
</a>
</g>
</g>
<!-- Node2&#45;&gt;Node1 -->
<g id="edge1_Node000001_Node000002" class="edge">
<title>Node2&#45;&gt;Node1</title>
<g id="a_edge1_Node000001_Node000002"><a xlink:title=" ">
<path fill="none" stroke="#9a32cd" stroke-dasharray="5,2" d="M95.68,-21.63C65.56,-30.18 33.82,-45.29 15.64,-72 -7.12,-105.43 -2.55,-126.88 15.64,-163 28.55,-188.63 57.74,-206.24 77.83,-215.85"/>
<polygon fill="#9a32cd" stroke="#9a32cd" points="96.61,-25.01 105.39,-19.08 94.83,-18.24 96.61,-25.01"/>
</a>
</g>
<text text-anchor="start" x="5.14" y="-114.5" font-family="Helvetica,sans-Serif" font-size="10.00" fill="grey">priv</text>
</g>
<!-- Node3 -->
<g id="Node000003" class="node">
<title>Node3</title>
<g id="a_Node000003"><a xlink:href="struct__TerminalTabsMenu.html" target="_top" xlink:title=" ">
<polygon fill="white" stroke="#666666" points="138.14,-91 25.14,-91 25.14,-72 138.14,-72 138.14,-91"/>
<text text-anchor="middle" x="81.64" y="-79" font-family="Helvetica,sans-Serif" font-size="10.00">_TerminalTabsMenu</text>
</a>
</g>
</g>
<!-- Node3&#45;&gt;Node2 -->
<g id="edge2_Node000002_Node000003" class="edge">
<title>Node3&#45;&gt;Node2</title>
<g id="a_edge2_Node000002_Node000003"><a xlink:title=" ">
<path fill="none" stroke="#9a32cd" stroke-dasharray="5,2" d="M97.9,-64.46C106.92,-55.91 118.53,-45.44 129.64,-37 138.16,-30.53 148.28,-24.11 156.45,-19.21"/>
<polygon fill="#9a32cd" stroke="#9a32cd" points="95.2,-62.21 90.44,-71.67 100.06,-67.24 95.2,-62.21"/>
</a>
</g>
<text text-anchor="start" x="133.14" y="-42.5" font-family="Helvetica,sans-Serif" font-size="10.00" fill="grey">tabs_menu</text>
</g>
<!-- Node4&#45;&gt;Node3 -->
<g id="edge3_Node000003_Node000004" class="edge">
<title>Node4&#45;&gt;Node3</title>
<g id="a_edge3_Node000003_Node000004"><a xlink:title=" ">
<path fill="none" stroke="#9a32cd" stroke-dasharray="5,2" d="M94.15,-133.99C90.78,-120.13 86.33,-101.79 83.74,-91.15"/>
<polygon fill="#9a32cd" stroke="#9a32cd" points="90.8,-135.03 96.56,-143.92 97.6,-133.37 90.8,-135.03"/>
</a>
</g>
<text text-anchor="start" x="96.14" y="-114.5" font-family="Helvetica,sans-Serif" font-size="10.00" fill="grey">priv</text>
</g>
<!-- Node5&#45;&gt;Node2 -->
<g id="edge5_Node000002_Node000005" class="edge">
<title>Node5&#45;&gt;Node2</title>
<g id="a_edge5_Node000002_Node000005"><a xlink:title=" ">
<path fill="none" stroke="#9a32cd" stroke-dasharray="5,2" d="M215.98,-64.01C204.34,-49.96 188.06,-30.32 178.81,-19.15"/>
<polygon fill="#9a32cd" stroke="#9a32cd" points="213.45,-66.45 222.53,-71.92 218.84,-61.98 213.45,-66.45"/>
</a>
</g>
<text text-anchor="start" x="211.14" y="-42.5" font-family="Helvetica,sans-Serif" font-size="10.00" fill="grey">popup_info</text>
</g>
<!-- Node6 -->
<g id="Node000006" class="node">
<title>Node6</title>
<g id="a_Node000006"><a xlink:href="struct__TerminalScreen.html" target="_top" xlink:title=" ">
<polygon fill="white" stroke="#666666" points="382.14,-163 285.14,-163 285.14,-144 382.14,-144 382.14,-163"/>
<text text-anchor="middle" x="333.64" y="-151" font-family="Helvetica,sans-Serif" font-size="10.00">_TerminalScreen</text>
</a>
</g>
</g>
<!-- Node6&#45;&gt;Node2 -->
<g id="edge11_Node000002_Node000006" class="edge">
<title>Node6&#45;&gt;Node2</title>
<g id="a_edge11_Node000002_Node000006"><a xlink:title=" ">
<path fill="none" stroke="#9a32cd" stroke-dasharray="5,2" d="M330.36,-133.9C328.85,-126.15 326.89,-117.08 324.64,-109 319.98,-92.21 321.32,-86.5 311.64,-72 298.71,-52.63 293.15,-48.04 272.64,-37 257.4,-28.79 239.47,-23.02 222.99,-19.01"/>
<polygon fill="#9a32cd" stroke="#9a32cd" points="326.92,-134.56 332.19,-143.75 333.81,-133.28 326.92,-134.56"/>
</a>
</g>
<text text-anchor="start" x="323.64" y="-78.5" font-family="Helvetica,sans-Serif" font-size="10.00" fill="grey">active_screen</text>
</g>
<!-- Node6&#45;&gt;Node5 -->
<g id="edge7_Node000005_Node000006" class="edge">
<title>Node6&#45;&gt;Node5</title>
<g id="a_edge7_Node000005_Node000006"><a xlink:title=" ">
<path fill="none" stroke="#9a32cd" stroke-dasharray="5,2" d="M307.11,-138.82C300,-134.89 292.42,-130.46 285.64,-126 268.78,-114.89 250.54,-100.17 239.61,-91.01"/>
<polygon fill="#9a32cd" stroke="#9a32cd" points="305.92,-142.15 316.38,-143.81 309.23,-135.98 305.92,-142.15"/>
</a>
</g>
<text text-anchor="start" x="289.14" y="-114.5" font-family="Helvetica,sans-Serif" font-size="10.00" fill="grey">screen</text>
</g>
<!-- Node7 -->
<g id="Node000007" class="node">
<title>Node7</title>
<g id="a_Node000007"><a xlink:title=" ">
<polygon fill="white" stroke="#666666" points="399.14,-235 268.14,-235 268.14,-216 399.14,-216 399.14,-235"/>
<text text-anchor="middle" x="333.64" y="-223" font-family="Helvetica,sans-Serif" font-size="10.00">_TerminalScreenPrivate</text>
</a>
</g>
</g>
<!-- Node7&#45;&gt;Node6 -->
<g id="edge8_Node000006_Node000007" class="edge">
<title>Node7&#45;&gt;Node6</title>
<g id="a_edge8_Node000006_Node000007"><a xlink:title=" ">
<path fill="none" stroke="#9a32cd" stroke-dasharray="5,2" d="M333.64,-205.58C333.64,-191.76 333.64,-173.68 333.64,-163.15"/>
<polygon fill="#9a32cd" stroke="#9a32cd" points="330.14,-205.92 333.64,-215.92 337.14,-205.92 330.14,-205.92"/>
</a>
</g>
<text text-anchor="start" x="337.14" y="-186.5" font-family="Helvetica,sans-Serif" font-size="10.00" fill="grey">priv</text>
</g>
<!-- Node8 -->
<g id="Node000008" class="node">
<title>Node8</title>
<g id="a_Node000008"><a xlink:href="struct__TerminalProfile.html" target="_top" xlink:title=" ">
<polygon fill="white" stroke="#666666" points="381.14,-307 286.14,-307 286.14,-288 381.14,-288 381.14,-307"/>
<text text-anchor="middle" x="333.64" y="-295" font-family="Helvetica,sans-Serif" font-size="10.00">_TerminalProfile</text>
</a>
</g>
</g>
<!-- Node8&#45;&gt;Node7 -->
<g id="edge9_Node000007_Node000008" class="edge">
<title>Node8&#45;&gt;Node7</title>
<g id="a_edge9_Node000007_Node000008"><a xlink:title=" ">
<path fill="none" stroke="#9a32cd" stroke-dasharray="5,2" d="M333.64,-277.58C333.64,-263.76 333.64,-245.68 333.64,-235.15"/>
<polygon fill="#9a32cd" stroke="#9a32cd" points="330.14,-277.92 333.64,-287.92 337.14,-277.92 330.14,-277.92"/>
</a>
</g>
<text text-anchor="start" x="337.14" y="-258.5" font-family="Helvetica,sans-Serif" font-size="10.00" fill="grey">profile</text>
</g>
<!-- Node9 -->
<g id="Node000009" class="node">
<title>Node9</title>
<g id="a_Node000009"><a xlink:title=" ">
<polygon fill="white" stroke="#666666" points="398.14,-379 269.14,-379 269.14,-360 398.14,-360 398.14,-379"/>
<text text-anchor="middle" x="333.64" y="-367" font-family="Helvetica,sans-Serif" font-size="10.00">_TerminalProfilePrivate</text>
</a>
</g>
</g>
<!-- Node9&#45;&gt;Node8 -->
<g id="edge10_Node000008_Node000009" class="edge">
<title>Node9&#45;&gt;Node8</title>
<g id="a_edge10_Node000008_Node000009"><a xlink:title=" ">
<path fill="none" stroke="#9a32cd" stroke-dasharray="5,2" d="M333.64,-349.58C333.64,-335.76 333.64,-317.68 333.64,-307.15"/>
<polygon fill="#9a32cd" stroke="#9a32cd" points="330.14,-349.92 333.64,-359.92 337.14,-349.92 330.14,-349.92"/>
</a>
</g>
<text text-anchor="start" x="337.14" y="-330.5" font-family="Helvetica,sans-Serif" font-size="10.00" fill="grey">priv</text>
</g>
</g>
</svg>
