<?xml version="1.0" encoding="UTF-8" standalone="no"?>
<!DOCTYPE svg PUBLIC "-//W3C//DTD SVG 1.1//EN"
 "http://www.w3.org/Graphics/SVG/1.1/DTD/svg11.dtd">
<!-- Generated by graphviz version 2.43.0 (0)
 -->
<!-- Title: _EomWindow Pages: 1 -->
<svg width="343pt" height="447pt"
 viewBox="0.00 0.00 342.50 447.00" xmlns="http://www.w3.org/2000/svg" xmlns:xlink="http://www.w3.org/1999/xlink">
<g id="graph0" class="graph" transform="scale(1 1) rotate(0) translate(4 443)">
<title>_EomWindow</title>
<!-- Node1 -->
<g id="Node000001" class="node">
<title>Node1</title>
<g id="a_Node000001"><a xlink:title=" ">
<polygon fill="#999999" stroke="#666666" points="226,-19 143,-19 143,0 226,0 226,-19"/>
<text text-anchor="middle" x="184.5" y="-7" font-family="Helvetica,sans-Serif" font-size="10.00">_EomWindow</text>
</a>
</g>
</g>
<!-- Node2 -->
<g id="Node000002" class="node">
<title>Node2</title>
<g id="a_Node000002"><a xlink:title=" ">
<polygon fill="white" stroke="#666666" points="243,-91 126,-91 126,-72 243,-72 243,-91"/>
<text text-anchor="middle" x="184.5" y="-79" font-family="Helvetica,sans-Serif" font-size="10.00">_EomWindowPrivate</text>
</a>
</g>
</g>
<!-- Node2&#45;&gt;Node1 -->
<g id="edge1_Node000001_Node000002" class="edge">
<title>Node2&#45;&gt;Node1</title>
<g id="a_edge1_Node000001_Node000002"><a xlink:title=" ">
<path fill="none" stroke="#9a32cd" stroke-dasharray="5,2" d="M184.5,-61.58C184.5,-47.76 184.5,-29.68 184.5,-19.15"/>
<polygon fill="#9a32cd" stroke="#9a32cd" points="181,-61.92 184.5,-71.92 188,-61.92 181,-61.92"/>
</a>
</g>
<text text-anchor="start" x="188" y="-42.5" font-family="Helvetica,sans-Serif" font-size="10.00" fill="grey">priv</text>
</g>
<!-- Node3 -->
<g id="Node000003" class="node">
<title>Node3</title>
<g id="a_Node000003"><a xlink:href="struct__EomListStore.html" target="_top" xlink:title=" ">
<polygon fill="white" stroke="#666666" points="120.5,-208 34.5,-208 34.5,-189 120.5,-189 120.5,-208"/>
<text text-anchor="middle" x="77.5" y="-196" font-family="Helvetica,sans-Serif" font-size="10.00">_EomListStore</text>
</a>
</g>
</g>
<!-- Node3&#45;&gt;Node2 -->
<g id="edge2_Node000002_Node000003" class="edge">
<title>Node3&#45;&gt;Node2</title>
<g id="a_edge2_Node000002_Node000003"><a xlink:title=" ">
<path fill="none" stroke="#9a32cd" stroke-dasharray="5,2" d="M89.39,-180.54C102.85,-161.94 125.98,-131.72 149.5,-109 156.3,-102.43 164.72,-96.01 171.6,-91.13"/>
<polygon fill="#9a32cd" stroke="#9a32cd" points="86.4,-178.71 83.44,-188.88 92.1,-182.77 86.4,-178.71"/>
</a>
</g>
<text text-anchor="start" x="153" y="-137" font-family="Helvetica,sans-Serif" font-size="10.00" fill="grey">store</text>
</g>
<!-- Node4 -->
<g id="Node000004" class="node">
<title>Node4</title>
<g id="a_Node000004"><a xlink:title=" ">
<polygon fill="white" stroke="#666666" points="121,-280 0,-280 0,-261 121,-261 121,-280"/>
<text text-anchor="middle" x="60.5" y="-268" font-family="Helvetica,sans-Serif" font-size="10.00">_EomListStorePrivate</text>
</a>
</g>
</g>
<!-- Node4&#45;&gt;Node3 -->
<g id="edge3_Node000003_Node000004" class="edge">
<title>Node4&#45;&gt;Node3</title>
<g id="a_edge3_Node000003_Node000004"><a xlink:title=" ">
<path fill="none" stroke="#9a32cd" stroke-dasharray="5,2" d="M65,-250.99C68.36,-237.13 72.82,-218.79 75.4,-208.15"/>
<polygon fill="#9a32cd" stroke="#9a32cd" points="61.54,-250.37 62.58,-260.92 68.35,-252.03 61.54,-250.37"/>
</a>
</g>
<text text-anchor="start" x="75" y="-231.5" font-family="Helvetica,sans-Serif" font-size="10.00" fill="grey">priv</text>
</g>
<!-- Node5 -->
<g id="Node000005" class="node">
<title>Node5</title>
<g id="a_Node000005"><a xlink:href="struct__EomImage.html" target="_top" xlink:title=" ">
<polygon fill="white" stroke="#666666" points="221.5,-208 147.5,-208 147.5,-189 221.5,-189 221.5,-208"/>
<text text-anchor="middle" x="184.5" y="-196" font-family="Helvetica,sans-Serif" font-size="10.00">_EomImage</text>
</a>
</g>
</g>
<!-- Node5&#45;&gt;Node2 -->
<g id="edge4_Node000002_Node000005" class="edge">
<title>Node5&#45;&gt;Node2</title>
<g id="a_edge4_Node000002_Node000005"><a xlink:title=" ">
<path fill="none" stroke="#9a32cd" stroke-dasharray="5,2" d="M184.5,-178.75C184.5,-153.56 184.5,-109.82 184.5,-91.24"/>
<polygon fill="#9a32cd" stroke="#9a32cd" points="181,-178.86 184.5,-188.86 188,-178.86 181,-178.86"/>
</a>
</g>
<text text-anchor="start" x="188" y="-137" font-family="Helvetica,sans-Serif" font-size="10.00" fill="grey">image</text>
</g>
<!-- Node6 -->
<g id="Node000006" class="node">
<title>Node6</title>
<g id="a_Node000006"><a xlink:href="struct__EomImagePrivate.html" target="_top" xlink:title=" ">
<polygon fill="white" stroke="#666666" points="248,-280 139,-280 139,-261 248,-261 248,-280"/>
<text text-anchor="middle" x="193.5" y="-268" font-family="Helvetica,sans-Serif" font-size="10.00">_EomImagePrivate</text>
</a>
</g>
</g>
<!-- Node6&#45;&gt;Node5 -->
<g id="edge5_Node000005_Node000006" class="edge">
<title>Node6&#45;&gt;Node5</title>
<g id="a_edge5_Node000005_Node000006"><a xlink:title=" ">
<path fill="none" stroke="#9a32cd" stroke-dasharray="5,2" d="M191.12,-250.99C189.34,-237.13 186.98,-218.79 185.61,-208.15"/>
<polygon fill="#9a32cd" stroke="#9a32cd" points="187.65,-251.44 192.4,-260.92 194.59,-250.55 187.65,-251.44"/>
</a>
</g>
<text text-anchor="start" x="193" y="-231.5" font-family="Helvetica,sans-Serif" font-size="10.00" fill="grey">priv</text>
</g>
<!-- Node7 -->
<g id="Node000007" class="node">
<title>Node7</title>
<g id="a_Node000007"><a xlink:href="struct__EomTransform.html" target="_top" xlink:title=" ">
<polygon fill="white" stroke="#666666" points="239.5,-367 147.5,-367 147.5,-348 239.5,-348 239.5,-367"/>
<text text-anchor="middle" x="193.5" y="-355" font-family="Helvetica,sans-Serif" font-size="10.00">_EomTransform</text>
</a>
</g>
</g>
<!-- Node7&#45;&gt;Node6 -->
<g id="edge6_Node000006_Node000007" class="edge">
<title>Node7&#45;&gt;Node6</title>
<g id="a_edge6_Node000006_Node000007"><a xlink:title=" ">
<path fill="none" stroke="#9a32cd" stroke-dasharray="5,2" d="M193.5,-337.62C193.5,-319.79 193.5,-293.83 193.5,-280.36"/>
<polygon fill="#9a32cd" stroke="#9a32cd" points="190,-337.72 193.5,-347.72 197,-337.72 190,-337.72"/>
</a>
</g>
<text text-anchor="start" x="196.5" y="-319" font-family="Helvetica,sans-Serif" font-size="10.00" fill="grey">trans</text>
<text text-anchor="start" x="196.5" y="-304" font-family="Helvetica,sans-Serif" font-size="10.00" fill="grey">trans_autorotate</text>
</g>
<!-- Node8 -->
<g id="Node000008" class="node">
<title>Node8</title>
<g id="a_Node000008"><a xlink:title=" ">
<polygon fill="white" stroke="#666666" points="257,-439 130,-439 130,-420 257,-420 257,-439"/>
<text text-anchor="middle" x="193.5" y="-427" font-family="Helvetica,sans-Serif" font-size="10.00">_EomTransformPrivate</text>
</a>
</g>
</g>
<!-- Node8&#45;&gt;Node7 -->
<g id="edge7_Node000007_Node000008" class="edge">
<title>Node8&#45;&gt;Node7</title>
<g id="a_edge7_Node000007_Node000008"><a xlink:title=" ">
<path fill="none" stroke="#9a32cd" stroke-dasharray="5,2" d="M193.5,-409.58C193.5,-395.76 193.5,-377.68 193.5,-367.15"/>
<polygon fill="#9a32cd" stroke="#9a32cd" points="190,-409.92 193.5,-419.92 197,-409.92 190,-409.92"/>
</a>
</g>
<text text-anchor="start" x="197" y="-390.5" font-family="Helvetica,sans-Serif" font-size="10.00" fill="grey">priv</text>
</g>
<!-- Node9 -->
<g id="Node000009" class="node">
<title>Node9</title>
<g id="a_Node000009"><a xlink:href="struct__EomJob.html" target="_top" xlink:title=" ">
<polygon fill="white" stroke="#666666" points="299,-208 240,-208 240,-189 299,-189 299,-208"/>
<text text-anchor="middle" x="269.5" y="-196" font-family="Helvetica,sans-Serif" font-size="10.00">_EomJob</text>
</a>
</g>
</g>
<!-- Node9&#45;&gt;Node2 -->
<g id="edge8_Node000002_Node000009" class="edge">
<title>Node9&#45;&gt;Node2</title>
<g id="a_edge8_Node000002_Node000009"><a xlink:title=" ">
<path fill="none" stroke="#9a32cd" stroke-dasharray="5,2" d="M263.67,-179.18C256.87,-160.01 244.13,-129.85 225.5,-109 218.95,-101.67 209.92,-95.54 202,-91.03"/>
<polygon fill="#9a32cd" stroke="#9a32cd" points="260.4,-180.45 266.91,-188.81 267.04,-178.22 260.4,-180.45"/>
</a>
</g>
<text text-anchor="start" x="263" y="-160" font-family="Helvetica,sans-Serif" font-size="10.00" fill="grey">copy_job</text>
<text text-anchor="start" x="263" y="-145" font-family="Helvetica,sans-Serif" font-size="10.00" fill="grey">load_job</text>
<text text-anchor="start" x="263" y="-130" font-family="Helvetica,sans-Serif" font-size="10.00" fill="grey">save_job</text>
<text text-anchor="start" x="263" y="-115" font-family="Helvetica,sans-Serif" font-size="10.00" fill="grey">transform_job</text>
</g>
</g>
</svg>
