<?xml version="1.0" encoding="UTF-8" standalone="no"?>
<!DOCTYPE svg PUBLIC "-//W3C//DTD SVG 1.1//EN"
 "http://www.w3.org/Graphics/SVG/1.1/DTD/svg11.dtd">
<!-- Generated by graphviz version 2.43.0 (0)
 -->
<!-- Title: _PlumaQuickHighlightPlugin Pages: 1 -->
<!--zoomable 367 -->

<svg id="main" version="1.1" xmlns="http://www.w3.org/2000/svg" xmlns:xlink="http://www.w3.org/1999/xlink" xml:space="preserve" onload="init(evt)">

<style type="text/css"><![CDATA[
.node, .edge {opacity: 0.7;}
.node.selected, .edge.selected {opacity: 1;}
.edge:hover path { stroke: red; }
.edge:hover polygon { stroke: red; fill: red; }
]]></style>

<defs>
  <circle id="rim" cx="0" cy="0" r="7"/>
  <circle id="rim2" cx="0" cy="0" r="3.5"/>
  <g id="zoomPlus">
    <use xlink:href="#rim" fill="#404040"><set attributeName="fill" to="#808080" begin="zoomplus.mouseover" end="zoomplus.mouseout"/></use>
    <path d="M-4,0h8M0,-4v8" fill="none" stroke="white" stroke-width="1.5" pointer-events="none"/>
  </g>
  <g id="zoomMin">
    <use xlink:href="#rim" fill="#404040"><set attributeName="fill" to="#808080" begin="zoomminus.mouseover" end="zoomminus.mouseout"/></use>
    <path d="M-4,0h8" fill="none" stroke="white" stroke-width="1.5" pointer-events="none"/>
  </g>
  <g id="arrowUp" transform="translate(30 24)">
    <use xlink:href="#rim"/>
    <path pointer-events="none" fill="none" stroke="white" stroke-width="1.5" d="M0,-3.0v7 M-2.5,-0.5L0,-3.0L2.5,-0.5"/>
  </g>
  <g id="arrowRight" transform="rotate(90) translate(36 -43)">
    <use xlink:href="#rim"/>
    <path pointer-events="none" fill="none" stroke="white" stroke-width="1.5" d="M0,-3.0v7 M-2.5,-0.5L0,-3.0L2.5,-0.5"/>
  </g>
  <g id="arrowDown" transform="rotate(180) translate(-30 -48)">
    <use xlink:href="#rim"/>
    <path pointer-events="none" fill="none" stroke="white" stroke-width="1.5" d="M0,-3.0v7 M-2.5,-0.5L0,-3.0L2.5,-0.5"/>
  </g>
  <g id="arrowLeft" transform="rotate(270) translate(-36 17)">
    <use xlink:href="#rim"/>
    <path pointer-events="none" fill="none" stroke="white" stroke-width="1.5" d="M0,-3.0v7 M-2.5,-0.5L0,-3.0L2.5,-0.5"/>
  </g>
  <g id="resetDef">
    <use xlink:href="#rim2" fill="#404040"><set attributeName="fill" to="#808080" begin="reset.mouseover" end="reset.mouseout"/></use>
  </g>
</defs>
<script type="application/ecmascript">
var viewWidth = 782;
var viewHeight = 367;
var sectionId = 'dynsection-0';
</script>
<script type="application/ecmascript" xlink:href="svg.min.js"/>
<svg id="graph" class="graph">
<g id="viewport">
<title>_PlumaQuickHighlightPlugin</title>
<!-- Node1 -->
<g id="Node000001" class="node">
<title>Node1</title>
<g id="a_Node000001"><a xlink:title=" ">
<polygon fill="#999999" stroke="#666666" points="155,-91 0,-91 0,-72 155,-72 155,-91"/>
<text text-anchor="middle" x="77.5" y="-79" font-family="Helvetica,sans-Serif" font-size="10.00">_PlumaQuickHighlightPlugin</text>
</a>
</g>
</g>
<!-- Node2 -->
<g id="Node000002" class="node">
<title>Node2</title>
<g id="a_Node000002"><a xlink:title=" ">
<polygon fill="white" stroke="#666666" points="155,-189 0,-189 0,-159 155,-159 155,-189"/>
<text text-anchor="start" x="8" y="-177" font-family="Helvetica,sans-Serif" font-size="10.00">_PlumaQuickHighlightPlugin</text>
<text text-anchor="middle" x="77.5" y="-166" font-family="Helvetica,sans-Serif" font-size="10.00">Private</text>
</a>
</g>
</g>
<!-- Node2&#45;&gt;Node1 -->
<g id="edge1_Node000001_Node000002" class="edge">
<title>Node2&#45;&gt;Node1</title>
<g id="a_edge1_Node000001_Node000002"><a xlink:title=" ">
<path fill="none" stroke="#9a32cd" stroke-dasharray="5,2" d="M77.5,-148.78C77.5,-129.7 77.5,-104.21 77.5,-91.1"/>
<polygon fill="#9a32cd" stroke="#9a32cd" points="74,-148.86 77.5,-158.86 81,-148.86 74,-148.86"/>
</a>
</g>
<text text-anchor="start" x="81" y="-122" font-family="Helvetica,sans-Serif" font-size="10.00" fill="grey">priv</text>
</g>
<!-- Node3 -->
<g id="Node000003" class="node">
<title>Node3</title>
<g id="a_Node000003"><a xlink:href="struct__PlumaView.html" target="_top" xlink:title=" ">
<polygon fill="white" stroke="#666666" points="116,-276 39,-276 39,-257 116,-257 116,-276"/>
<text text-anchor="middle" x="77.5" y="-264" font-family="Helvetica,sans-Serif" font-size="10.00">_PlumaView</text>
</a>
</g>
</g>
<!-- Node3&#45;&gt;Node2 -->
<g id="edge2_Node000002_Node000003" class="edge">
<title>Node3&#45;&gt;Node2</title>
<g id="a_edge2_Node000002_Node000003"><a xlink:title=" ">
<path fill="none" stroke="#9a32cd" stroke-dasharray="5,2" d="M77.5,-246.38C77.5,-229.24 77.5,-204.49 77.5,-189.09"/>
<polygon fill="#9a32cd" stroke="#9a32cd" points="74,-246.82 77.5,-256.82 81,-246.82 74,-246.82"/>
</a>
</g>
<text text-anchor="start" x="80.5" y="-220" font-family="Helvetica,sans-Serif" font-size="10.00" fill="grey">view</text>
</g>
<!-- Node4 -->
<g id="Node000004" class="node">
<title>Node4</title>
<g id="a_Node000004"><a xlink:title=" ">
<polygon fill="white" stroke="#666666" points="133,-353.5 22,-353.5 22,-334.5 133,-334.5 133,-353.5"/>
<text text-anchor="middle" x="77.5" y="-341.5" font-family="Helvetica,sans-Serif" font-size="10.00">_PlumaViewPrivate</text>
</a>
</g>
</g>
<!-- Node4&#45;&gt;Node3 -->
<g id="edge3_Node000003_Node000004" class="edge">
<title>Node4&#45;&gt;Node3</title>
<g id="a_edge3_Node000003_Node000004"><a xlink:title=" ">
<path fill="none" stroke="#9a32cd" stroke-dasharray="5,2" d="M77.5,-323.9C77.5,-308.51 77.5,-287.61 77.5,-276.06"/>
<polygon fill="#9a32cd" stroke="#9a32cd" points="74,-324.34 77.5,-334.34 81,-324.34 74,-324.34"/>
</a>
</g>
<text text-anchor="start" x="81" y="-299.5" font-family="Helvetica,sans-Serif" font-size="10.00" fill="grey">priv</text>
</g>
<!-- Node5 -->
<g id="Node000005" class="node">
<title>Node5</title>
<g id="a_Node000005"><a xlink:href="struct__PlumaDocument.html" target="_top" xlink:title=" ">
<polygon fill="white" stroke="#666666" points="282,-276 179,-276 179,-257 282,-257 282,-276"/>
<text text-anchor="middle" x="230.5" y="-264" font-family="Helvetica,sans-Serif" font-size="10.00">_PlumaDocument</text>
</a>
</g>
</g>
<!-- Node5&#45;&gt;Node2 -->
<g id="edge4_Node000002_Node000005" class="edge">
<title>Node5&#45;&gt;Node2</title>
<g id="a_edge4_Node000002_Node000005"><a xlink:title=" ">
<path fill="none" stroke="#9a32cd" stroke-dasharray="5,2" d="M169.25,-255.07C157.08,-251.26 144.87,-246.07 134.5,-239 119.81,-228.99 122.25,-220.34 110.5,-207 105.12,-200.89 98.79,-194.57 93.12,-189.18"/>
<polygon fill="#9a32cd" stroke="#9a32cd" points="168.39,-258.46 178.97,-257.84 170.31,-251.73 168.39,-258.46"/>
</a>
</g>
<text text-anchor="start" x="138" y="-220" font-family="Helvetica,sans-Serif" font-size="10.00" fill="grey">buffer</text>
</g>
<!-- Node6 -->
<g id="Node000006" class="node">
<title>Node6</title>
<g id="a_Node000006"><a xlink:title=" ">
<polygon fill="white" stroke="#666666" points="526,-19 389,-19 389,0 526,0 526,-19"/>
<text text-anchor="middle" x="457.5" y="-7" font-family="Helvetica,sans-Serif" font-size="10.00">_PlumaDocumentPrivate</text>
</a>
</g>
</g>
<!-- Node5&#45;&gt;Node6 -->
<g id="edge18_Node000006_Node000005" class="edge">
<title>Node5&#45;&gt;Node6</title>
<g id="a_edge18_Node000006_Node000005"><a xlink:title=" ">
<path fill="none" stroke="#9a32cd" stroke-dasharray="5,2" d="M227.99,-246.31C223.6,-209.62 216.25,-131.17 230.5,-109 265.63,-54.34 338.48,-29.88 392.23,-19.02"/>
<polygon fill="#9a32cd" stroke="#9a32cd" points="224.57,-247.15 229.28,-256.63 231.52,-246.28 224.57,-247.15"/>
</a>
</g>
<text text-anchor="start" x="233.5" y="-122" font-family="Helvetica,sans-Serif" font-size="10.00" fill="grey">mount_operation_factory</text>
</g>
<!-- Node9 -->
<g id="Node000009" class="node">
<title>Node9</title>
<g id="a_Node000009"><a xlink:title=" ">
<polygon fill="white" stroke="#666666" points="690.5,-183.5 520.5,-183.5 520.5,-164.5 690.5,-164.5 690.5,-183.5"/>
<text text-anchor="middle" x="605.5" y="-171.5" font-family="Helvetica,sans-Serif" font-size="10.00">_PlumaDocumentLoaderPrivate</text>
</a>
</g>
</g>
<!-- Node5&#45;&gt;Node9 -->
<g id="edge9_Node000009_Node000005" class="edge">
<title>Node5&#45;&gt;Node9</title>
<g id="a_edge9_Node000009_Node000005"><a xlink:title=" ">
<path fill="none" stroke="#9a32cd" stroke-dasharray="5,2" d="M292.38,-262.11C323.62,-258.75 361.57,-252.11 393.5,-239 416.2,-229.68 415.93,-216.64 438.5,-207 465.1,-195.63 495.81,-188.28 523.58,-183.53"/>
<polygon fill="#9a32cd" stroke="#9a32cd" points="291.67,-258.66 282.06,-263.12 292.36,-265.63 291.67,-258.66"/>
</a>
</g>
<text text-anchor="start" x="442" y="-220" font-family="Helvetica,sans-Serif" font-size="10.00" fill="grey">document</text>
</g>
<!-- Node13 -->
<g id="Node000013" class="node">
<title>Node13</title>
<g id="a_Node000013"><a xlink:title=" ">
<polygon fill="white" stroke="#666666" points="424,-183.5 259,-183.5 259,-164.5 424,-164.5 424,-183.5"/>
<text text-anchor="middle" x="341.5" y="-171.5" font-family="Helvetica,sans-Serif" font-size="10.00">_PlumaDocumentSaverPrivate</text>
</a>
</g>
</g>
<!-- Node5&#45;&gt;Node13 -->
<g id="edge15_Node000013_Node000005" class="edge">
<title>Node5&#45;&gt;Node13</title>
<g id="a_edge15_Node000013_Node000005"><a xlink:title=" ">
<path fill="none" stroke="#9a32cd" stroke-dasharray="5,2" d="M239.34,-247.51C246.95,-232.59 257.75,-212.91 264.5,-207 276.92,-196.13 293.54,-188.59 308.17,-183.58"/>
<polygon fill="#9a32cd" stroke="#9a32cd" points="236.01,-246.34 234.66,-256.85 242.27,-249.47 236.01,-246.34"/>
</a>
</g>
<text text-anchor="start" x="268" y="-220" font-family="Helvetica,sans-Serif" font-size="10.00" fill="grey">document</text>
</g>
<!-- Node6&#45;&gt;Node5 -->
<g id="edge5_Node000005_Node000006" class="edge">
<title>Node6&#45;&gt;Node5</title>
<g id="a_edge5_Node000005_Node000006"><a xlink:title=" ">
<path fill="none" stroke="#9a32cd" stroke-dasharray="5,2" d="M378.75,-10.97C318.87,-12.82 242.64,-18.84 217.5,-37 178.19,-65.39 176.88,-93.11 184.5,-141 191.7,-186.25 198.62,-196.81 216.5,-239 219.1,-245.13 222.6,-251.76 225.45,-256.85"/>
<polygon fill="#9a32cd" stroke="#9a32cd" points="379.07,-14.47 388.97,-10.69 378.87,-7.47 379.07,-14.47"/>
</a>
</g>
<text text-anchor="start" x="188" y="-122" font-family="Helvetica,sans-Serif" font-size="10.00" fill="grey">priv</text>
</g>
<!-- Node7 -->
<g id="Node000007" class="node">
<title>Node7</title>
<g id="a_Node000007"><a xlink:title=" ">
<polygon fill="white" stroke="#666666" points="534,-276 437,-276 437,-257 534,-257 534,-276"/>
<text text-anchor="middle" x="485.5" y="-264" font-family="Helvetica,sans-Serif" font-size="10.00">_PlumaEncoding</text>
</a>
</g>
</g>
<!-- Node7&#45;&gt;Node6 -->
<g id="edge6_Node000006_Node000007" class="edge">
<title>Node7&#45;&gt;Node6</title>
<g id="a_edge6_Node000006_Node000007"><a xlink:title=" ">
<path fill="none" stroke="#9a32cd" stroke-dasharray="5,2" d="M484.87,-246.69C483.17,-199.44 477.95,-76.68 468.5,-37 467.02,-30.8 464.27,-24.17 461.89,-19.1"/>
<polygon fill="#9a32cd" stroke="#9a32cd" points="481.38,-246.88 485.22,-256.75 488.37,-246.64 481.38,-246.88"/>
</a>
</g>
<text text-anchor="start" x="484" y="-130" font-family="Helvetica,sans-Serif" font-size="10.00" fill="grey">encoding</text>
<text text-anchor="start" x="484" y="-115" font-family="Helvetica,sans-Serif" font-size="10.00" fill="grey">requested_encoding</text>
</g>
<!-- Node7&#45;&gt;Node9 -->
<g id="edge10_Node000009_Node000007" class="edge">
<title>Node7&#45;&gt;Node9</title>
<g id="a_edge10_Node000009_Node000007"><a xlink:title=" ">
<path fill="none" stroke="#9a32cd" stroke-dasharray="5,2" d="M493,-247.43C499.53,-232.46 508.94,-212.74 515.5,-207 528.35,-195.75 545.43,-188.37 561.25,-183.57"/>
<polygon fill="#9a32cd" stroke="#9a32cd" points="489.71,-246.23 489.02,-256.81 496.15,-248.97 489.71,-246.23"/>
</a>
</g>
<text text-anchor="start" x="518.5" y="-228" font-family="Helvetica,sans-Serif" font-size="10.00" fill="grey">auto_detected_encoding</text>
<text text-anchor="start" x="518.5" y="-213" font-family="Helvetica,sans-Serif" font-size="10.00" fill="grey">encoding</text>
</g>
<!-- Node7&#45;&gt;Node13 -->
<g id="edge16_Node000013_Node000007" class="edge">
<title>Node7&#45;&gt;Node13</title>
<g id="a_edge16_Node000013_Node000007"><a xlink:title=" ">
<path fill="none" stroke="#9a32cd" stroke-dasharray="5,2" d="M426.65,-262C392.23,-258.6 353.44,-251.95 342.5,-239 329.3,-223.38 334.56,-197.15 338.56,-183.63"/>
<polygon fill="#9a32cd" stroke="#9a32cd" points="426.41,-265.5 436.69,-262.92 427.05,-258.53 426.41,-265.5"/>
</a>
</g>
<text text-anchor="start" x="346" y="-220" font-family="Helvetica,sans-Serif" font-size="10.00" fill="grey">encoding</text>
</g>
<!-- Node8 -->
<g id="Node000008" class="node">
<title>Node8</title>
<g id="a_Node000008"><a xlink:href="struct__PlumaDocumentLoader.html" target="_top" xlink:title=" ">
<polygon fill="white" stroke="#666666" points="648.5,-91 512.5,-91 512.5,-72 648.5,-72 648.5,-91"/>
<text text-anchor="middle" x="580.5" y="-79" font-family="Helvetica,sans-Serif" font-size="10.00">_PlumaDocumentLoader</text>
</a>
</g>
</g>
<!-- Node8&#45;&gt;Node6 -->
<g id="edge7_Node000006_Node000008" class="edge">
<title>Node8&#45;&gt;Node6</title>
<g id="a_edge7_Node000006_Node000008"><a xlink:title=" ">
<path fill="none" stroke="#9a32cd" stroke-dasharray="5,2" d="M556.62,-66.91C531.8,-52.78 493.71,-31.1 472.71,-19.15"/>
<polygon fill="#9a32cd" stroke="#9a32cd" points="555,-70.01 565.42,-71.92 558.46,-63.93 555,-70.01"/>
</a>
</g>
<text text-anchor="start" x="537" y="-42.5" font-family="Helvetica,sans-Serif" font-size="10.00" fill="grey">loader</text>
</g>
<!-- Node9&#45;&gt;Node8 -->
<g id="edge8_Node000008_Node000009" class="edge">
<title>Node9&#45;&gt;Node8</title>
<g id="a_edge8_Node000008_Node000009"><a xlink:title=" ">
<path fill="none" stroke="#9a32cd" stroke-dasharray="5,2" d="M601.78,-154.25C599.07,-141.4 595.08,-124.03 590.5,-109 588.67,-102.98 586.17,-96.35 584.13,-91.23"/>
<polygon fill="#9a32cd" stroke="#9a32cd" points="598.38,-155.11 603.82,-164.21 605.24,-153.71 598.38,-155.11"/>
</a>
</g>
<text text-anchor="start" x="602" y="-122" font-family="Helvetica,sans-Serif" font-size="10.00" fill="grey">priv</text>
</g>
<!-- Node10 -->
<g id="Node000010" class="node">
<title>Node10</title>
<g id="a_Node000010"><a xlink:href="struct__PlumaSmartCharsetConverter.html" target="_top" xlink:title=" ">
<polygon fill="white" stroke="#666666" points="751,-276 584,-276 584,-257 751,-257 751,-276"/>
<text text-anchor="middle" x="667.5" y="-264" font-family="Helvetica,sans-Serif" font-size="10.00">_PlumaSmartCharsetConverter</text>
</a>
</g>
</g>
<!-- Node10&#45;&gt;Node9 -->
<g id="edge11_Node000009_Node000010" class="edge">
<title>Node10&#45;&gt;Node9</title>
<g id="a_edge11_Node000009_Node000010"><a xlink:title=" ">
<path fill="none" stroke="#9a32cd" stroke-dasharray="5,2" d="M663.27,-246.94C659.86,-234.77 654.19,-218.97 645.5,-207 638.6,-197.5 628.18,-189.29 619.71,-183.56"/>
<polygon fill="#9a32cd" stroke="#9a32cd" points="659.93,-248.03 665.78,-256.87 666.72,-246.32 659.93,-248.03"/>
</a>
</g>
<text text-anchor="start" x="664" y="-220" font-family="Helvetica,sans-Serif" font-size="10.00" fill="grey">converter</text>
</g>
<!-- Node11 -->
<g id="Node000011" class="node">
<title>Node11</title>
<g id="a_Node000011"><a xlink:title=" ">
<polygon fill="white" stroke="#666666" points="751,-359 584,-359 584,-329 751,-329 751,-359"/>
<text text-anchor="start" x="592" y="-347" font-family="Helvetica,sans-Serif" font-size="10.00">_PlumaSmartCharsetConverter</text>
<text text-anchor="middle" x="667.5" y="-336" font-family="Helvetica,sans-Serif" font-size="10.00">Private</text>
</a>
</g>
</g>
<!-- Node11&#45;&gt;Node10 -->
<g id="edge12_Node000010_Node000011" class="edge">
<title>Node11&#45;&gt;Node10</title>
<g id="a_edge12_Node000010_Node000011"><a xlink:title=" ">
<path fill="none" stroke="#9a32cd" stroke-dasharray="5,2" d="M667.5,-318.4C667.5,-303.81 667.5,-286.22 667.5,-276.01"/>
<polygon fill="#9a32cd" stroke="#9a32cd" points="664,-318.8 667.5,-328.8 671,-318.8 664,-318.8"/>
</a>
</g>
<text text-anchor="start" x="671" y="-299.5" font-family="Helvetica,sans-Serif" font-size="10.00" fill="grey">priv</text>
</g>
<!-- Node12 -->
<g id="Node000012" class="node">
<title>Node12</title>
<g id="a_Node000012"><a xlink:href="struct__PlumaDocumentSaver.html" target="_top" xlink:title=" ">
<polygon fill="white" stroke="#666666" points="452,-91 321,-91 321,-72 452,-72 452,-91"/>
<text text-anchor="middle" x="386.5" y="-79" font-family="Helvetica,sans-Serif" font-size="10.00">_PlumaDocumentSaver</text>
</a>
</g>
</g>
<!-- Node12&#45;&gt;Node6 -->
<g id="edge13_Node000006_Node000012" class="edge">
<title>Node12&#45;&gt;Node6</title>
<g id="a_edge13_Node000006_Node000012"><a xlink:title=" ">
<path fill="none" stroke="#9a32cd" stroke-dasharray="5,2" d="M402.42,-64.8C416.72,-50.71 437.19,-30.53 448.72,-19.15"/>
<polygon fill="#9a32cd" stroke="#9a32cd" points="399.87,-62.4 395.21,-71.92 404.78,-67.39 399.87,-62.4"/>
</a>
</g>
<text text-anchor="start" x="433.5" y="-42.5" font-family="Helvetica,sans-Serif" font-size="10.00" fill="grey">saver</text>
</g>
<!-- Node13&#45;&gt;Node12 -->
<g id="edge14_Node000012_Node000013" class="edge">
<title>Node13&#45;&gt;Node12</title>
<g id="a_edge14_Node000012_Node000013"><a xlink:title=" ">
<path fill="none" stroke="#9a32cd" stroke-dasharray="5,2" d="M354.87,-156.16C358.27,-151.42 361.75,-146.15 364.5,-141 373.51,-124.16 380.53,-102.83 384.04,-91.14"/>
<polygon fill="#9a32cd" stroke="#9a32cd" points="351.84,-154.36 348.6,-164.45 357.42,-158.58 351.84,-154.36"/>
</a>
</g>
<text text-anchor="start" x="382" y="-122" font-family="Helvetica,sans-Serif" font-size="10.00" fill="grey">priv</text>
</g>
<!-- Node14 -->
<g id="Node000014" class="node">
<title>Node14</title>
<g id="a_Node000014"><a xlink:title=" ">
<polygon fill="white" stroke="#666666" points="774,-91 667,-91 667,-72 774,-72 774,-91"/>
<text text-anchor="middle" x="720.5" y="-79" font-family="Helvetica,sans-Serif" font-size="10.00">_PlumaTextRegion</text>
</a>
</g>
</g>
<!-- Node14&#45;&gt;Node6 -->
<g id="edge17_Node000006_Node000014" class="edge">
<title>Node14&#45;&gt;Node6</title>
<g id="a_edge17_Node000006_Node000014"><a xlink:title=" ">
<path fill="none" stroke="#9a32cd" stroke-dasharray="5,2" d="M683.91,-68.86C654.5,-59.68 612.03,-46.83 574.5,-37 549.32,-30.4 520.83,-23.93 498.27,-19.03"/>
<polygon fill="#9a32cd" stroke="#9a32cd" points="683.15,-72.29 693.74,-71.94 685.25,-65.61 683.15,-72.29"/>
</a>
</g>
<text text-anchor="start" x="637.5" y="-42.5" font-family="Helvetica,sans-Serif" font-size="10.00" fill="grey">to_search_region</text>
</g>
</g>
</svg>

<g id="navigator" transform="translate(0 0)" fill="#404254">
  <rect fill="#f2f5e9" fill-opacity="0.5" stroke="#606060" stroke-width=".5" x="0" y="0" width="60" height="60"/>
  <use id="zoomplus" xlink:href="#zoomPlus" x="17" y="9" onmousedown="handleZoom(evt,'in')"/>
  <use id="zoomminus" xlink:href="#zoomMin" x="42" y="9" onmousedown="handleZoom(evt,'out')"/>
  <use id="reset" xlink:href="#resetDef" x="30" y="36" onmousedown="handleReset()"/>
   <use id="arrowup" xlink:href="#arrowUp" x="0" y="0" onmousedown="handlePan(0,-1)"/>
  <use id="arrowright" xlink:href="#arrowRight" x="0" y="0" onmousedown="handlePan(1,0)"/>
  <use id="arrowdown" xlink:href="#arrowDown" x="0" y="0" onmousedown="handlePan(0,1)"/>
  <use id="arrowleft" xlink:href="#arrowLeft" x="0" y="0" onmousedown="handlePan(-1,0)"/>
</g>
<svg viewBox="0 0 15 15" width="100%" height="30px" preserveAspectRatio="xMaxYMin meet">
 <g id="arrow_out" transform="scale(0.3 0.3)">
  <a xlink:href="struct__PlumaQuickHighlightPlugin__coll__graph_org.svg" target="_base">
   <rect id="button" ry="5" rx="5" y="6" x="6" height="38" width="38"
        fill="#f2f5e9" fill-opacity="0.5" stroke="#606060" stroke-width="1.0"/>
   <path id="arrow"
     d="M 11.500037,31.436501 C 11.940474,20.09759 22.043105,11.32322 32.158766,21.979434 L 37.068811,17.246167 C 37.068811,17.246167 37.088388,32 37.088388,32 L 22.160133,31.978069 C 22.160133,31.978069 26.997745,27.140456 26.997745,27.140456 C 18.528582,18.264221 13.291696,25.230495 11.500037,31.436501 z"
     style="fill:#404040;"/>
  </a>
 </g>
</svg>

<style type='text/css'>
<![CDATA[
[data-mouse-over-selected='false'] { opacity: 0.7; }
[data-mouse-over-selected='true']  { opacity: 1.0; }
]]>
</style>
<script type="application/ecmascript"><![CDATA[
document.addEventListener('DOMContentLoaded', (event) => {
  highlightEdges();
  highlightAdjacentNodes();
});
]]></script>
</svg>
