<?xml version="1.0" encoding="UTF-8" standalone="no"?>
<!DOCTYPE svg PUBLIC "-//W3C//DTD SVG 1.1//EN"
 "http://www.w3.org/Graphics/SVG/1.1/DTD/svg11.dtd">
<!-- Generated by graphviz version 2.43.0 (0)
 -->
<!-- Title: _EomJobModel Pages: 1 -->
<svg width="189pt" height="171pt"
 viewBox="0.00 0.00 189.00 171.00" xmlns="http://www.w3.org/2000/svg" xmlns:xlink="http://www.w3.org/1999/xlink">
<g id="graph0" class="graph" transform="scale(1 1) rotate(0) translate(4 167)">
<title>_EomJobModel</title>
<!-- Node1 -->
<g id="Node000001" class="node">
<title>Node1</title>
<g id="a_Node000001"><a xlink:title=" ">
<polygon fill="#999999" stroke="#666666" points="104,-19 15,-19 15,0 104,0 104,-19"/>
<text text-anchor="middle" x="59.5" y="-7" font-family="Helvetica,sans-Serif" font-size="10.00">_EomJobModel</text>
</a>
</g>
</g>
<!-- Node2 -->
<g id="Node000002" class="node">
<title>Node2</title>
<g id="a_Node000002"><a xlink:href="struct__EomJob.html" target="_top" xlink:title=" ">
<polygon fill="white" stroke="#666666" points="59,-91 0,-91 0,-72 59,-72 59,-91"/>
<text text-anchor="middle" x="29.5" y="-79" font-family="Helvetica,sans-Serif" font-size="10.00">_EomJob</text>
</a>
</g>
</g>
<!-- Node2&#45;&gt;Node1 -->
<g id="edge1_Node000001_Node000002" class="edge">
<title>Node2&#45;&gt;Node1</title>
<g id="a_edge1_Node000001_Node000002"><a xlink:title=" ">
<path fill="none" stroke="#9a32cd" stroke-dasharray="5,2" d="M35.66,-62.08C38.44,-54.25 41.9,-45.08 45.5,-37 48.21,-30.92 51.71,-24.29 54.53,-19.19"/>
<polygon fill="#9a32cd" stroke="#9a32cd" points="32.3,-61.1 32.35,-71.7 38.91,-63.38 32.3,-61.1"/>
</a>
</g>
<text text-anchor="start" x="48.5" y="-42.5" font-family="Helvetica,sans-Serif" font-size="10.00" fill="grey">parent</text>
</g>
<!-- Node3 -->
<g id="Node000003" class="node">
<title>Node3</title>
<g id="a_Node000003"><a xlink:href="struct__EomListStore.html" target="_top" xlink:title=" ">
<polygon fill="white" stroke="#666666" points="163.5,-91 77.5,-91 77.5,-72 163.5,-72 163.5,-91"/>
<text text-anchor="middle" x="120.5" y="-79" font-family="Helvetica,sans-Serif" font-size="10.00">_EomListStore</text>
</a>
</g>
</g>
<!-- Node3&#45;&gt;Node1 -->
<g id="edge2_Node000001_Node000003" class="edge">
<title>Node3&#45;&gt;Node1</title>
<g id="a_edge2_Node000001_Node000003"><a xlink:title=" ">
<path fill="none" stroke="#9a32cd" stroke-dasharray="5,2" d="M106.7,-64.03C99.79,-55.85 91.27,-45.85 83.5,-37 78.26,-31.03 72.26,-24.4 67.57,-19.27"/>
<polygon fill="#9a32cd" stroke="#9a32cd" points="104.09,-66.37 113.21,-71.77 109.45,-61.86 104.09,-66.37"/>
</a>
</g>
<text text-anchor="start" x="101" y="-42.5" font-family="Helvetica,sans-Serif" font-size="10.00" fill="grey">store</text>
</g>
<!-- Node4 -->
<g id="Node000004" class="node">
<title>Node4</title>
<g id="a_Node000004"><a xlink:title=" ">
<polygon fill="white" stroke="#666666" points="181,-163 60,-163 60,-144 181,-144 181,-163"/>
<text text-anchor="middle" x="120.5" y="-151" font-family="Helvetica,sans-Serif" font-size="10.00">_EomListStorePrivate</text>
</a>
</g>
</g>
<!-- Node4&#45;&gt;Node3 -->
<g id="edge3_Node000003_Node000004" class="edge">
<title>Node4&#45;&gt;Node3</title>
<g id="a_edge3_Node000003_Node000004"><a xlink:title=" ">
<path fill="none" stroke="#9a32cd" stroke-dasharray="5,2" d="M120.5,-133.58C120.5,-119.76 120.5,-101.68 120.5,-91.15"/>
<polygon fill="#9a32cd" stroke="#9a32cd" points="117,-133.92 120.5,-143.92 124,-133.92 117,-133.92"/>
</a>
</g>
<text text-anchor="start" x="124" y="-114.5" font-family="Helvetica,sans-Serif" font-size="10.00" fill="grey">priv</text>
</g>
</g>
</svg>
