<?xml version="1.0" encoding="UTF-8" standalone="no"?>
<!DOCTYPE svg PUBLIC "-//W3C//DTD SVG 1.1//EN"
 "http://www.w3.org/Graphics/SVG/1.1/DTD/svg11.dtd">
<!-- Generated by graphviz version 2.43.0 (0)
 -->
<!-- Title: _GvcStatusIcon Pages: 1 -->
<svg width="2124pt" height="267pt"
 viewBox="0.00 0.00 2124.00 266.50" xmlns="http://www.w3.org/2000/svg" xmlns:xlink="http://www.w3.org/1999/xlink">
<g id="graph0" class="graph" transform="scale(1 1) rotate(0) translate(4 262.5)">
<title>_GvcStatusIcon</title>
<!-- Node1 -->
<g id="Node000001" class="node">
<title>Node1</title>
<g id="a_Node000001"><a xlink:title=" ">
<polygon fill="#999999" stroke="#666666" points="2116,-139 2024,-139 2024,-120 2116,-120 2116,-139"/>
<text text-anchor="middle" x="2070" y="-127" font-family="Helvetica,sans-Serif" font-size="10.00">_GvcStatusIcon</text>
</a>
</g>
</g>
<!-- Node2 -->
<g id="Node000002" class="node">
<title>Node2</title>
<g id="a_Node000002"><a xlink:title=" ">
<polygon fill="white" stroke="#666666" points="1963,-139 1837,-139 1837,-120 1963,-120 1963,-139"/>
<text text-anchor="middle" x="1900" y="-127" font-family="Helvetica,sans-Serif" font-size="10.00">_GvcStatusIconPrivate</text>
</a>
</g>
</g>
<!-- Node2&#45;&gt;Node1 -->
<g id="edge1_Node000001_Node000002" class="edge">
<title>Node2&#45;&gt;Node1</title>
<g id="a_edge1_Node000001_Node000002"><a xlink:title=" ">
<path fill="none" stroke="#9a32cd" stroke-dasharray="5,2" d="M1973.14,-129.5C1990.4,-129.5 2008.34,-129.5 2023.97,-129.5"/>
<polygon fill="#9a32cd" stroke="#9a32cd" points="1973.08,-126 1963.08,-129.5 1973.08,-133 1973.08,-126"/>
</a>
</g>
<text text-anchor="start" x="1984.5" y="-135" font-family="Helvetica,sans-Serif" font-size="10.00" fill="grey">priv</text>
</g>
<!-- Node3 -->
<g id="Node000003" class="node">
<title>Node3</title>
<g id="a_Node000003"><a xlink:href="struct__GvcStreamStatusIcon.html" target="_top" xlink:title=" ">
<polygon fill="white" stroke="#666666" points="924,-240 797,-240 797,-221 924,-221 924,-240"/>
<text text-anchor="middle" x="860.5" y="-228" font-family="Helvetica,sans-Serif" font-size="10.00">_GvcStreamStatusIcon</text>
</a>
</g>
</g>
<!-- Node3&#45;&gt;Node2 -->
<g id="edge2_Node000002_Node000003" class="edge">
<title>Node3&#45;&gt;Node2</title>
<g id="a_edge2_Node000002_Node000003"><a xlink:title=" ">
<path fill="none" stroke="#9a32cd" stroke-dasharray="5,2" d="M934.31,-228.96C994.01,-227.84 1080.72,-226.5 1156.5,-226.5 1156.5,-226.5 1156.5,-226.5 1703,-226.5 1781.21,-226.5 1860.47,-163.69 1888.44,-139.16"/>
<polygon fill="#9a32cd" stroke="#9a32cd" points="934.15,-225.47 924.22,-229.16 934.29,-232.46 934.15,-225.47"/>
</a>
</g>
<text text-anchor="start" x="1360" y="-247.5" font-family="Helvetica,sans-Serif" font-size="10.00" fill="grey">icon_input</text>
<text text-anchor="start" x="1360" y="-232.5" font-family="Helvetica,sans-Serif" font-size="10.00" fill="grey">icon_output</text>
</g>
<!-- Node4 -->
<g id="Node000004" class="node">
<title>Node4</title>
<g id="a_Node000004"><a xlink:title=" ">
<polygon fill="white" stroke="#666666" points="584,-243 423,-243 423,-224 584,-224 584,-243"/>
<text text-anchor="middle" x="503.5" y="-231" font-family="Helvetica,sans-Serif" font-size="10.00">_GvcStreamStatusIconPrivate</text>
</a>
</g>
</g>
<!-- Node4&#45;&gt;Node3 -->
<g id="edge3_Node000003_Node000004" class="edge">
<title>Node4&#45;&gt;Node3</title>
<g id="a_edge3_Node000003_Node000004"><a xlink:title=" ">
<path fill="none" stroke="#9a32cd" stroke-dasharray="5,2" d="M594.54,-232.74C657.78,-232.2 740.78,-231.5 796.9,-231.03"/>
<polygon fill="#9a32cd" stroke="#9a32cd" points="594.14,-229.24 584.17,-232.83 594.2,-236.24 594.14,-229.24"/>
</a>
</g>
<text text-anchor="start" x="605.5" y="-238" font-family="Helvetica,sans-Serif" font-size="10.00" fill="grey">priv</text>
</g>
<!-- Node5 -->
<g id="Node000005" class="node">
<title>Node5</title>
<g id="a_Node000005"><a xlink:href="struct__MateMixerStreamControl.html" target="_top" xlink:title=" ">
<polygon fill="white" stroke="#666666" points="347,-204 203,-204 203,-185 347,-185 347,-204"/>
<text text-anchor="middle" x="275" y="-192" font-family="Helvetica,sans-Serif" font-size="10.00">_MateMixerStreamControl</text>
</a>
</g>
</g>
<!-- Node5&#45;&gt;Node4 -->
<g id="edge4_Node000004_Node000005" class="edge">
<title>Node5&#45;&gt;Node4</title>
<g id="a_edge4_Node000004_Node000005"><a xlink:title=" ">
<path fill="none" stroke="#9a32cd" stroke-dasharray="5,2" d="M341.57,-205.79C375.07,-211.56 415.38,-218.5 447.27,-223.99"/>
<polygon fill="#9a32cd" stroke="#9a32cd" points="341.86,-202.29 331.41,-204.04 340.67,-209.19 341.86,-202.29"/>
</a>
</g>
<text text-anchor="start" x="368" y="-221" font-family="Helvetica,sans-Serif" font-size="10.00" fill="grey">control</text>
</g>
<!-- Node8 -->
<g id="Node000008" class="node">
<title>Node8</title>
<g id="a_Node000008"><a xlink:title=" ">
<polygon fill="white" stroke="#666666" points="575,-139 432,-139 432,-120 575,-120 575,-139"/>
<text text-anchor="middle" x="503.5" y="-127" font-family="Helvetica,sans-Serif" font-size="10.00">_MateMixerStreamPrivate</text>
</a>
</g>
</g>
<!-- Node5&#45;&gt;Node8 -->
<g id="edge10_Node000008_Node000005" class="edge">
<title>Node5&#45;&gt;Node8</title>
<g id="a_edge10_Node000008_Node000005"><a xlink:title=" ">
<path fill="none" stroke="#9a32cd" stroke-dasharray="5,2" d="M311.15,-181.41C327.42,-175.57 347.08,-168.83 365,-163.5 396.35,-154.19 432.24,-145.37 459.49,-139.05"/>
<polygon fill="#9a32cd" stroke="#9a32cd" points="309.71,-178.21 301.5,-184.91 312.09,-184.79 309.71,-178.21"/>
</a>
</g>
<text text-anchor="start" x="368" y="-169" font-family="Helvetica,sans-Serif" font-size="10.00" fill="grey">control</text>
</g>
<!-- Node6 -->
<g id="Node000006" class="node">
<title>Node6</title>
<g id="a_Node000006"><a xlink:title=" ">
<polygon fill="white" stroke="#666666" points="1124,-190 945,-190 945,-171 1124,-171 1124,-190"/>
<text text-anchor="middle" x="1034.5" y="-178" font-family="Helvetica,sans-Serif" font-size="10.00">_MateMixerStreamControlPrivate</text>
</a>
</g>
</g>
<!-- Node6&#45;&gt;Node5 -->
<g id="edge5_Node000005_Node000006" class="edge">
<title>Node6&#45;&gt;Node5</title>
<g id="a_edge5_Node000005_Node000006"><a xlink:title=" ">
<path fill="none" stroke="#9a32cd" stroke-dasharray="5,2" d="M934.33,-182.33C779.26,-185.2 483.08,-190.67 347.26,-193.18"/>
<polygon fill="#9a32cd" stroke="#9a32cd" points="934.86,-185.82 944.79,-182.14 934.73,-178.82 934.86,-185.82"/>
</a>
</g>
<text text-anchor="start" x="605.5" y="-193" font-family="Helvetica,sans-Serif" font-size="10.00" fill="grey">priv</text>
</g>
<!-- Node7 -->
<g id="Node000007" class="node">
<title>Node7</title>
<g id="a_Node000007"><a xlink:href="struct__MateMixerStream.html" target="_top" xlink:title=" ">
<polygon fill="white" stroke="#666666" points="766.5,-139 657.5,-139 657.5,-120 766.5,-120 766.5,-139"/>
<text text-anchor="middle" x="712" y="-127" font-family="Helvetica,sans-Serif" font-size="10.00">_MateMixerStream</text>
</a>
</g>
</g>
<!-- Node7&#45;&gt;Node2 -->
<g id="edge20_Node000002_Node000007" class="edge">
<title>Node7&#45;&gt;Node2</title>
<g id="a_edge20_Node000002_Node000007"><a xlink:title=" ">
<path fill="none" stroke="#9a32cd" stroke-dasharray="5,2" d="M776.63,-129.5C841.3,-129.5 944.37,-129.5 1033.5,-129.5 1033.5,-129.5 1033.5,-129.5 1703,-129.5 1747.75,-129.5 1798.24,-129.5 1836.77,-129.5"/>
<polygon fill="#9a32cd" stroke="#9a32cd" points="776.59,-126 766.59,-129.5 776.59,-133 776.59,-126"/>
</a>
</g>
<text text-anchor="start" x="1377" y="-135" font-family="Helvetica,sans-Serif" font-size="10.00" fill="grey">input</text>
</g>
<!-- Node7&#45;&gt;Node6 -->
<g id="edge6_Node000006_Node000007" class="edge">
<title>Node7&#45;&gt;Node6</title>
<g id="a_edge6_Node000006_Node000007"><a xlink:title=" ">
<path fill="none" stroke="#9a32cd" stroke-dasharray="5,2" d="M776.67,-139.63C833.98,-148.75 917.58,-162.05 973.68,-170.98"/>
<polygon fill="#9a32cd" stroke="#9a32cd" points="777.07,-136.15 766.64,-138.04 775.97,-143.06 777.07,-136.15"/>
</a>
</g>
<text text-anchor="start" x="843.5" y="-168" font-family="Helvetica,sans-Serif" font-size="10.00" fill="grey">stream</text>
</g>
<!-- Node14 -->
<g id="Node000014" class="node">
<title>Node14</title>
<g id="a_Node000014"><a xlink:title=" ">
<polygon fill="white" stroke="#666666" points="1109,-79 960,-79 960,-60 1109,-60 1109,-79"/>
<text text-anchor="middle" x="1034.5" y="-67" font-family="Helvetica,sans-Serif" font-size="10.00">_MateMixerBackendPrivate</text>
</a>
</g>
</g>
<!-- Node7&#45;&gt;Node14 -->
<g id="edge15_Node000014_Node000007" class="edge">
<title>Node7&#45;&gt;Node14</title>
<g id="a_edge15_Node000014_Node000007"><a xlink:title=" ">
<path fill="none" stroke="#9a32cd" stroke-dasharray="5,2" d="M734.89,-113.98C751.19,-103.33 774.43,-89.99 797,-83.5 850.07,-68.24 912.52,-65.13 959.91,-65.63"/>
<polygon fill="#9a32cd" stroke="#9a32cd" points="732.49,-111.37 726.15,-119.86 736.4,-117.18 732.49,-111.37"/>
</a>
</g>
<text text-anchor="start" x="824.5" y="-104.5" font-family="Helvetica,sans-Serif" font-size="10.00" fill="grey">default_input</text>
<text text-anchor="start" x="824.5" y="-89.5" font-family="Helvetica,sans-Serif" font-size="10.00" fill="grey">default_output</text>
</g>
<!-- Node8&#45;&gt;Node7 -->
<g id="edge7_Node000007_Node000008" class="edge">
<title>Node8&#45;&gt;Node7</title>
<g id="a_edge7_Node000007_Node000008"><a xlink:title=" ">
<path fill="none" stroke="#9a32cd" stroke-dasharray="5,2" d="M585.48,-129.5C609.58,-129.5 635.37,-129.5 657.27,-129.5"/>
<polygon fill="#9a32cd" stroke="#9a32cd" points="585.28,-126 575.28,-129.5 585.28,-133 585.28,-126"/>
</a>
</g>
<text text-anchor="start" x="605.5" y="-135" font-family="Helvetica,sans-Serif" font-size="10.00" fill="grey">priv</text>
</g>
<!-- Node9 -->
<g id="Node000009" class="node">
<title>Node9</title>
<g id="a_Node000009"><a xlink:href="struct__MateMixerDevice.html" target="_top" xlink:title=" ">
<polygon fill="white" stroke="#666666" points="328.5,-132 221.5,-132 221.5,-113 328.5,-113 328.5,-132"/>
<text text-anchor="middle" x="275" y="-120" font-family="Helvetica,sans-Serif" font-size="10.00">_MateMixerDevice</text>
</a>
</g>
</g>
<!-- Node9&#45;&gt;Node8 -->
<g id="edge8_Node000008_Node000009" class="edge">
<title>Node9&#45;&gt;Node8</title>
<g id="a_edge8_Node000008_Node000009"><a xlink:title=" ">
<path fill="none" stroke="#9a32cd" stroke-dasharray="5,2" d="M338.84,-122.31C359.88,-122.43 383.46,-122.75 405,-123.5 413.73,-123.8 422.89,-124.23 431.96,-124.71"/>
<polygon fill="#9a32cd" stroke="#9a32cd" points="338.75,-118.81 328.73,-122.27 338.72,-125.81 338.75,-118.81"/>
</a>
</g>
<text text-anchor="start" x="369" y="-129" font-family="Helvetica,sans-Serif" font-size="10.00" fill="grey">device</text>
</g>
<!-- Node10 -->
<g id="Node000010" class="node">
<title>Node10</title>
<g id="a_Node000010"><a xlink:title=" ">
<polygon fill="white" stroke="#666666" points="142,-132 0,-132 0,-113 142,-113 142,-132"/>
<text text-anchor="middle" x="71" y="-120" font-family="Helvetica,sans-Serif" font-size="10.00">_MateMixerDevicePrivate</text>
</a>
</g>
</g>
<!-- Node10&#45;&gt;Node9 -->
<g id="edge9_Node000009_Node000010" class="edge">
<title>Node10&#45;&gt;Node9</title>
<g id="a_edge9_Node000009_Node000010"><a xlink:title=" ">
<path fill="none" stroke="#9a32cd" stroke-dasharray="5,2" d="M152.26,-122.5C175.46,-122.5 200.18,-122.5 221.24,-122.5"/>
<polygon fill="#9a32cd" stroke="#9a32cd" points="152.08,-119 142.08,-122.5 152.08,-126 152.08,-119"/>
</a>
</g>
<text text-anchor="start" x="163.5" y="-128" font-family="Helvetica,sans-Serif" font-size="10.00" fill="grey">priv</text>
</g>
<!-- Node11 -->
<g id="Node000011" class="node">
<title>Node11</title>
<g id="a_Node000011"><a xlink:href="struct__MateMixerContext.html" target="_top" xlink:title=" ">
<polygon fill="white" stroke="#666666" points="1758,-96 1646,-96 1646,-77 1758,-77 1758,-96"/>
<text text-anchor="middle" x="1702" y="-84" font-family="Helvetica,sans-Serif" font-size="10.00">_MateMixerContext</text>
</a>
</g>
</g>
<!-- Node11&#45;&gt;Node2 -->
<g id="edge11_Node000002_Node000011" class="edge">
<title>Node11&#45;&gt;Node2</title>
<g id="a_edge11_Node000002_Node000011"><a xlink:title=" ">
<path fill="none" stroke="#9a32cd" stroke-dasharray="5,2" d="M1768.31,-90.18C1784.99,-91.96 1802.78,-94.59 1819,-98.5 1840,-103.56 1862.87,-112.83 1878.76,-119.92"/>
<polygon fill="#9a32cd" stroke="#9a32cd" points="1768.39,-86.67 1758.09,-89.18 1767.7,-93.64 1768.39,-86.67"/>
</a>
</g>
<text text-anchor="start" x="1779.5" y="-104" font-family="Helvetica,sans-Serif" font-size="10.00" fill="grey">context</text>
</g>
<!-- Node12 -->
<g id="Node000012" class="node">
<title>Node12</title>
<g id="a_Node000012"><a xlink:title=" ">
<polygon fill="white" stroke="#666666" points="1585,-79 1439,-79 1439,-60 1585,-60 1585,-79"/>
<text text-anchor="middle" x="1512" y="-67" font-family="Helvetica,sans-Serif" font-size="10.00">_MateMixerContextPrivate</text>
</a>
</g>
</g>
<!-- Node12&#45;&gt;Node11 -->
<g id="edge12_Node000011_Node000012" class="edge">
<title>Node12&#45;&gt;Node11</title>
<g id="a_edge12_Node000011_Node000012"><a xlink:title=" ">
<path fill="none" stroke="#9a32cd" stroke-dasharray="5,2" d="M1595.18,-76.93C1612.36,-78.48 1630.08,-80.09 1645.98,-81.53"/>
<polygon fill="#9a32cd" stroke="#9a32cd" points="1595.42,-73.44 1585.15,-76.02 1594.79,-80.41 1595.42,-73.44"/>
</a>
</g>
<text text-anchor="start" x="1606.5" y="-86" font-family="Helvetica,sans-Serif" font-size="10.00" fill="grey">priv</text>
</g>
<!-- Node13 -->
<g id="Node000013" class="node">
<title>Node13</title>
<g id="a_Node000013"><a xlink:href="struct__MateMixerBackend.html" target="_top" xlink:title=" ">
<polygon fill="white" stroke="#666666" points="1321,-60 1206,-60 1206,-41 1321,-41 1321,-60"/>
<text text-anchor="middle" x="1263.5" y="-48" font-family="Helvetica,sans-Serif" font-size="10.00">_MateMixerBackend</text>
</a>
</g>
</g>
<!-- Node13&#45;&gt;Node12 -->
<g id="edge13_Node000012_Node000013" class="edge">
<title>Node13&#45;&gt;Node12</title>
<g id="a_edge13_Node000012_Node000013"><a xlink:title=" ">
<path fill="none" stroke="#9a32cd" stroke-dasharray="5,2" d="M1331.17,-47.45C1359.01,-46.97 1391.64,-47.43 1421,-50.5 1438.79,-52.36 1458.24,-56.23 1474.49,-59.99"/>
<polygon fill="#9a32cd" stroke="#9a32cd" points="1331.07,-43.95 1321.15,-47.67 1331.22,-50.95 1331.07,-43.95"/>
</a>
</g>
<text text-anchor="start" x="1369" y="-56" font-family="Helvetica,sans-Serif" font-size="10.00" fill="grey">backend</text>
</g>
<!-- Node14&#45;&gt;Node13 -->
<g id="edge14_Node000013_Node000014" class="edge">
<title>Node14&#45;&gt;Node13</title>
<g id="a_edge14_Node000013_Node000014"><a xlink:title=" ">
<path fill="none" stroke="#9a32cd" stroke-dasharray="5,2" d="M1119.25,-62.49C1148.04,-60.08 1179.57,-57.44 1205.71,-55.25"/>
<polygon fill="#9a32cd" stroke="#9a32cd" points="1118.87,-59.01 1109.2,-63.33 1119.46,-65.98 1118.87,-59.01"/>
</a>
</g>
<text text-anchor="start" x="1148.5" y="-66" font-family="Helvetica,sans-Serif" font-size="10.00" fill="grey">priv</text>
</g>
<!-- Node15 -->
<g id="Node000015" class="node">
<title>Node15</title>
<g id="a_Node000015"><a xlink:href="struct__MateMixerAppInfo.html" target="_top" xlink:title=" ">
<polygon fill="white" stroke="#666666" points="1319,-99 1208,-99 1208,-80 1319,-80 1319,-99"/>
<text text-anchor="middle" x="1263.5" y="-87" font-family="Helvetica,sans-Serif" font-size="10.00">_MateMixerAppInfo</text>
</a>
</g>
</g>
<!-- Node15&#45;&gt;Node12 -->
<g id="edge16_Node000012_Node000015" class="edge">
<title>Node15&#45;&gt;Node12</title>
<g id="a_edge16_Node000012_Node000015"><a xlink:title=" ">
<path fill="none" stroke="#9a32cd" stroke-dasharray="5,2" d="M1329.37,-84.24C1362.96,-81.51 1404.06,-78.18 1438.67,-75.37"/>
<polygon fill="#9a32cd" stroke="#9a32cd" points="1328.89,-80.76 1319.21,-85.06 1329.46,-87.74 1328.89,-80.76"/>
</a>
</g>
<text text-anchor="start" x="1368" y="-88" font-family="Helvetica,sans-Serif" font-size="10.00" fill="grey">app_info</text>
</g>
<!-- Node16 -->
<g id="Node000016" class="node">
<title>Node16</title>
<g id="a_Node000016"><a xlink:href="struct__MateMixerBackendModule.html" target="_top" xlink:title=" ">
<polygon fill="white" stroke="#666666" points="1339,-19 1188,-19 1188,0 1339,0 1339,-19"/>
<text text-anchor="middle" x="1263.5" y="-7" font-family="Helvetica,sans-Serif" font-size="10.00">_MateMixerBackendModule</text>
</a>
</g>
</g>
<!-- Node16&#45;&gt;Node12 -->
<g id="edge17_Node000012_Node000016" class="edge">
<title>Node16&#45;&gt;Node12</title>
<g id="a_edge17_Node000012_Node000016"><a xlink:title=" ">
<path fill="none" stroke="#9a32cd" stroke-dasharray="5,2" d="M1349.11,-13.44C1372.69,-15.95 1398.11,-19.99 1421,-26.5 1448.32,-34.27 1477.57,-49.73 1495.07,-59.84"/>
<polygon fill="#9a32cd" stroke="#9a32cd" points="1349.42,-9.95 1339.13,-12.46 1348.73,-16.92 1349.42,-9.95"/>
</a>
</g>
<text text-anchor="start" x="1371" y="-32" font-family="Helvetica,sans-Serif" font-size="10.00" fill="grey">module</text>
</g>
<!-- Node17 -->
<g id="Node000017" class="node">
<title>Node17</title>
<g id="a_Node000017"><a xlink:title=" ">
<polygon fill="white" stroke="#666666" points="1127,-19 942,-19 942,0 1127,0 1127,-19"/>
<text text-anchor="middle" x="1034.5" y="-7" font-family="Helvetica,sans-Serif" font-size="10.00">_MateMixerBackendModulePrivate</text>
</a>
</g>
</g>
<!-- Node17&#45;&gt;Node16 -->
<g id="edge18_Node000016_Node000017" class="edge">
<title>Node17&#45;&gt;Node16</title>
<g id="a_edge18_Node000016_Node000017"><a xlink:title=" ">
<path fill="none" stroke="#9a32cd" stroke-dasharray="5,2" d="M1137.65,-9.5C1154.57,-9.5 1171.83,-9.5 1187.9,-9.5"/>
<polygon fill="#9a32cd" stroke="#9a32cd" points="1137.18,-6 1127.18,-9.5 1137.18,-13 1137.18,-6"/>
</a>
</g>
<text text-anchor="start" x="1148.5" y="-15" font-family="Helvetica,sans-Serif" font-size="10.00" fill="grey">priv</text>
</g>
<!-- Node18 -->
<g id="Node000018" class="node">
<title>Node18</title>
<g id="a_Node000018"><a xlink:href="struct__MateMixerBackendInfo.html" target="_top" xlink:title=" ">
<polygon fill="white" stroke="#666666" points="779,-19 645,-19 645,0 779,0 779,-19"/>
<text text-anchor="middle" x="712" y="-7" font-family="Helvetica,sans-Serif" font-size="10.00">_MateMixerBackendInfo</text>
</a>
</g>
</g>
<!-- Node18&#45;&gt;Node17 -->
<g id="edge19_Node000017_Node000018" class="edge">
<title>Node18&#45;&gt;Node17</title>
<g id="a_edge19_Node000017_Node000018"><a xlink:title=" ">
<path fill="none" stroke="#9a32cd" stroke-dasharray="5,2" d="M789.17,-9.5C834.93,-9.5 893.45,-9.5 941.75,-9.5"/>
<polygon fill="#9a32cd" stroke="#9a32cd" points="789.02,-6 779.02,-9.5 789.02,-13 789.02,-6"/>
</a>
</g>
<text text-anchor="start" x="840.5" y="-15" font-family="Helvetica,sans-Serif" font-size="10.00" fill="grey">get_info</text>
</g>
</g>
</svg>
