<?xml version="1.0" encoding="UTF-8" standalone="no"?>
<!DOCTYPE svg PUBLIC "-//W3C//DTD SVG 1.1//EN"
 "http://www.w3.org/Graphics/SVG/1.1/DTD/svg11.dtd">
<!-- Generated by graphviz version 2.43.0 (0)
 -->
<!-- Title: CategoryData Pages: 1 -->
<svg width="310pt" height="114pt"
 viewBox="0.00 0.00 309.50 114.00" xmlns="http://www.w3.org/2000/svg" xmlns:xlink="http://www.w3.org/1999/xlink">
<g id="graph0" class="graph" transform="scale(1 1) rotate(0) translate(4 110)">
<title>CategoryData</title>
<!-- Node1 -->
<g id="Node000001" class="node">
<title>Node1</title>
<g id="a_Node000001"><a xlink:title=" ">
<polygon fill="#999999" stroke="#666666" points="253.5,-19 169.5,-19 169.5,0 253.5,0 253.5,-19"/>
<text text-anchor="middle" x="211.5" y="-7" font-family="Helvetica,sans-Serif" font-size="10.00">CategoryData</text>
</a>
</g>
</g>
<!-- Node2 -->
<g id="Node000002" class="node">
<title>Node2</title>
<g id="a_Node000002"><a xlink:href="struct__Tile.html" target="_top" xlink:title=" ">
<polygon fill="white" stroke="#666666" points="80.5,-106 40.5,-106 40.5,-87 80.5,-87 80.5,-106"/>
<text text-anchor="middle" x="60.5" y="-94" font-family="Helvetica,sans-Serif" font-size="10.00">_Tile</text>
</a>
</g>
</g>
<!-- Node2&#45;&gt;Node1 -->
<g id="edge1_Node000001_Node000002" class="edge">
<title>Node2&#45;&gt;Node1</title>
<g id="a_edge1_Node000001_Node000002"><a xlink:title=" ">
<path fill="none" stroke="#9a32cd" stroke-dasharray="5,2" d="M90.59,-88.62C104.29,-84.48 120.16,-78.19 132.5,-69 146.76,-58.38 142.77,-48.29 156.5,-37 165.67,-29.46 177.34,-23.45 187.57,-19.06"/>
<polygon fill="#9a32cd" stroke="#9a32cd" points="89.34,-85.34 80.63,-91.38 91.2,-92.08 89.34,-85.34"/>
</a>
</g>
<text text-anchor="start" x="159.5" y="-50" font-family="Helvetica,sans-Serif" font-size="10.00" fill="grey">group_launcher</text>
</g>
<!-- Node3 -->
<g id="Node000003" class="node">
<title>Node3</title>
<g id="a_Node000003"><a xlink:href="struct__TileAction.html" target="_top" xlink:title=" ">
<polygon fill="white" stroke="#666666" points="71,-19 0,-19 0,0 71,0 71,-19"/>
<text text-anchor="middle" x="35.5" y="-7" font-family="Helvetica,sans-Serif" font-size="10.00">_TileAction</text>
</a>
</g>
</g>
<!-- Node2&#45;&gt;Node3 -->
<g id="edge3_Node000003_Node000002" class="edge">
<title>Node2&#45;&gt;Node3</title>
<g id="a_edge3_Node000003_Node000002"><a xlink:title=" ">
<path fill="none" stroke="#9a32cd" stroke-dasharray="5,2" d="M30.91,-85.45C23.63,-81.5 16.72,-76.15 12.5,-69 5.27,-56.75 7.52,-50.32 12.5,-37 15.06,-30.15 20.27,-23.9 25.09,-19.19"/>
<polygon fill="#9a32cd" stroke="#9a32cd" points="29.62,-88.71 40.16,-89.74 32.56,-82.36 29.62,-88.71"/>
</a>
</g>
<text text-anchor="start" x="15.5" y="-58" font-family="Helvetica,sans-Serif" font-size="10.00" fill="grey">func</text>
<text text-anchor="start" x="15.5" y="-43" font-family="Helvetica,sans-Serif" font-size="10.00" fill="grey">tile</text>
</g>
<!-- Node3&#45;&gt;Node2 -->
<g id="edge2_Node000002_Node000003" class="edge">
<title>Node3&#45;&gt;Node2</title>
<g id="a_edge2_Node000002_Node000003"><a xlink:title=" ">
<path fill="none" stroke="#9a32cd" stroke-dasharray="5,2" d="M40.93,-28.98C46.19,-46.85 53.93,-73.17 57.92,-86.72"/>
<polygon fill="#9a32cd" stroke="#9a32cd" points="44.28,-27.96 38.1,-19.36 37.57,-29.94 44.28,-27.96"/>
</a>
</g>
<text text-anchor="start" x="55.5" y="-58" font-family="Helvetica,sans-Serif" font-size="10.00" fill="grey">actions</text>
<text text-anchor="start" x="55.5" y="-43" font-family="Helvetica,sans-Serif" font-size="10.00" fill="grey">default_action</text>
</g>
<!-- Node4 -->
<g id="Node000004" class="node">
<title>Node4</title>
<g id="a_Node000004"><a xlink:href="structSlabSection.html" target="_top" xlink:title=" ">
<polygon fill="white" stroke="#666666" points="301.5,-106 227.5,-106 227.5,-87 301.5,-87 301.5,-106"/>
<text text-anchor="middle" x="264.5" y="-94" font-family="Helvetica,sans-Serif" font-size="10.00">SlabSection</text>
</a>
</g>
</g>
<!-- Node4&#45;&gt;Node1 -->
<g id="edge4_Node000001_Node000004" class="edge">
<title>Node4&#45;&gt;Node1</title>
<g id="a_edge4_Node000001_Node000004"><a xlink:title=" ">
<path fill="none" stroke="#9a32cd" stroke-dasharray="5,2" d="M260.14,-77.03C256.68,-64.9 250.99,-49.11 242.5,-37 237.62,-30.04 230.51,-23.79 224.32,-19.1"/>
<polygon fill="#9a32cd" stroke="#9a32cd" points="256.8,-78.12 262.71,-86.92 263.58,-76.36 256.8,-78.12"/>
</a>
</g>
<text text-anchor="start" x="261.5" y="-50" font-family="Helvetica,sans-Serif" font-size="10.00" fill="grey">section</text>
</g>
</g>
</svg>
