<?xml version="1.0" encoding="UTF-8" standalone="no"?>
<!DOCTYPE svg PUBLIC "-//W3C//DTD SVG 1.1//EN"
 "http://www.w3.org/Graphics/SVG/1.1/DTD/svg11.dtd">
<!-- Generated by graphviz version 2.43.0 (0)
 -->
<!-- Title: _EvNavigationAction Pages: 1 -->
<svg width="160pt" height="243pt"
 viewBox="0.00 0.00 160.00 243.00" xmlns="http://www.w3.org/2000/svg" xmlns:xlink="http://www.w3.org/1999/xlink">
<g id="graph0" class="graph" transform="scale(1 1) rotate(0) translate(4 239)">
<title>_EvNavigationAction</title>
<!-- Node1 -->
<g id="Node000001" class="node">
<title>Node1</title>
<g id="a_Node000001"><a xlink:title=" ">
<polygon fill="#999999" stroke="#666666" points="135,-19 17,-19 17,0 135,0 135,-19"/>
<text text-anchor="middle" x="76" y="-7" font-family="Helvetica,sans-Serif" font-size="10.00">_EvNavigationAction</text>
</a>
</g>
</g>
<!-- Node2 -->
<g id="Node000002" class="node">
<title>Node2</title>
<g id="a_Node000002"><a xlink:title=" ">
<polygon fill="white" stroke="#666666" points="152,-91 0,-91 0,-72 152,-72 152,-91"/>
<text text-anchor="middle" x="76" y="-79" font-family="Helvetica,sans-Serif" font-size="10.00">_EvNavigationActionPrivate</text>
</a>
</g>
</g>
<!-- Node2&#45;&gt;Node1 -->
<g id="edge1_Node000001_Node000002" class="edge">
<title>Node2&#45;&gt;Node1</title>
<g id="a_edge1_Node000001_Node000002"><a xlink:title=" ">
<path fill="none" stroke="#9a32cd" stroke-dasharray="5,2" d="M76,-61.58C76,-47.76 76,-29.68 76,-19.15"/>
<polygon fill="#9a32cd" stroke="#9a32cd" points="72.5,-61.92 76,-71.92 79.5,-61.92 72.5,-61.92"/>
</a>
</g>
<text text-anchor="start" x="79.5" y="-42.5" font-family="Helvetica,sans-Serif" font-size="10.00" fill="grey">priv</text>
</g>
<!-- Node3 -->
<g id="Node000003" class="node">
<title>Node3</title>
<g id="a_Node000003"><a xlink:href="struct__EvHistory.html" target="_top" xlink:title=" ">
<polygon fill="white" stroke="#666666" points="110.5,-163 41.5,-163 41.5,-144 110.5,-144 110.5,-163"/>
<text text-anchor="middle" x="76" y="-151" font-family="Helvetica,sans-Serif" font-size="10.00">_EvHistory</text>
</a>
</g>
</g>
<!-- Node3&#45;&gt;Node2 -->
<g id="edge2_Node000002_Node000003" class="edge">
<title>Node3&#45;&gt;Node2</title>
<g id="a_edge2_Node000002_Node000003"><a xlink:title=" ">
<path fill="none" stroke="#9a32cd" stroke-dasharray="5,2" d="M76,-133.58C76,-119.76 76,-101.68 76,-91.15"/>
<polygon fill="#9a32cd" stroke="#9a32cd" points="72.5,-133.92 76,-143.92 79.5,-133.92 72.5,-133.92"/>
</a>
</g>
<text text-anchor="start" x="79" y="-114.5" font-family="Helvetica,sans-Serif" font-size="10.00" fill="grey">history</text>
</g>
<!-- Node4 -->
<g id="Node000004" class="node">
<title>Node4</title>
<g id="a_Node000004"><a xlink:title=" ">
<polygon fill="white" stroke="#666666" points="128,-235 24,-235 24,-216 128,-216 128,-235"/>
<text text-anchor="middle" x="76" y="-223" font-family="Helvetica,sans-Serif" font-size="10.00">_EvHistoryPrivate</text>
</a>
</g>
</g>
<!-- Node4&#45;&gt;Node3 -->
<g id="edge3_Node000003_Node000004" class="edge">
<title>Node4&#45;&gt;Node3</title>
<g id="a_edge3_Node000003_Node000004"><a xlink:title=" ">
<path fill="none" stroke="#9a32cd" stroke-dasharray="5,2" d="M76,-205.58C76,-191.76 76,-173.68 76,-163.15"/>
<polygon fill="#9a32cd" stroke="#9a32cd" points="72.5,-205.92 76,-215.92 79.5,-205.92 72.5,-205.92"/>
</a>
</g>
<text text-anchor="start" x="79.5" y="-186.5" font-family="Helvetica,sans-Serif" font-size="10.00" fill="grey">priv</text>
</g>
</g>
</svg>
