<?xml version="1.0" encoding="UTF-8" standalone="no"?>
<!DOCTYPE svg PUBLIC "-//W3C//DTD SVG 1.1//EN"
 "http://www.w3.org/Graphics/SVG/1.1/DTD/svg11.dtd">
<!-- Generated by graphviz version 2.43.0 (0)
 -->
<!-- Title: _EelCanvasGroup Pages: 1 -->
<svg width="257pt" height="162pt"
 viewBox="0.00 0.00 257.00 162.39" xmlns="http://www.w3.org/2000/svg" xmlns:xlink="http://www.w3.org/1999/xlink">
<g id="graph0" class="graph" transform="scale(1 1) rotate(0) translate(4 158.39)">
<title>_EelCanvasGroup</title>
<!-- Node1 -->
<g id="Node000001" class="node">
<title>Node1</title>
<g id="a_Node000001"><a xlink:title=" ">
<polygon fill="#999999" stroke="#666666" points="102,-19 0,-19 0,0 102,0 102,-19"/>
<text text-anchor="middle" x="51" y="-7" font-family="Helvetica,sans-Serif" font-size="10.00">_EelCanvasGroup</text>
</a>
</g>
</g>
<!-- Node2 -->
<g id="Node000002" class="node">
<title>Node2</title>
<g id="a_Node000002"><a xlink:href="struct__EelCanvasItem.html" target="_top" xlink:title=" ">
<polygon fill="white" stroke="#666666" points="150.5,-151 55.5,-151 55.5,-132 150.5,-132 150.5,-151"/>
<text text-anchor="middle" x="103" y="-139" font-family="Helvetica,sans-Serif" font-size="10.00">_EelCanvasItem</text>
</a>
</g>
</g>
<!-- Node2&#45;&gt;Node1 -->
<g id="edge1_Node000001_Node000002" class="edge">
<title>Node2&#45;&gt;Node1</title>
<g id="a_edge1_Node000001_Node000002"><a xlink:title=" ">
<path fill="none" stroke="#9a32cd" stroke-dasharray="5,2" d="M64.98,-126.91C59.82,-123.48 55.21,-119.23 52,-114 33.29,-83.53 43.06,-37.89 48.34,-19.08"/>
<polygon fill="#9a32cd" stroke="#9a32cd" points="63.57,-130.13 74.01,-131.95 66.98,-124.02 63.57,-130.13"/>
</a>
</g>
<text text-anchor="start" x="55.5" y="-72.5" font-family="Helvetica,sans-Serif" font-size="10.00" fill="grey">item</text>
</g>
<!-- Node2&#45;&gt;Node2 -->
<g id="edge4_Node000002_Node000002" class="edge">
<title>Node2&#45;&gt;Node2</title>
<g id="a_edge4_Node000002_Node000002"><a xlink:title=" ">
<path fill="none" stroke="#9a32cd" stroke-dasharray="5,2" d="M133.25,-153.09C151.4,-155.69 168.5,-151.83 168.5,-141.5 168.5,-129.32 144.7,-126.13 123.45,-131.94"/>
<polygon fill="#9a32cd" stroke="#9a32cd" points="133.96,-149.66 123.45,-151.06 132.54,-156.52 133.96,-149.66"/>
</a>
</g>
<text text-anchor="start" x="171.5" y="-138.5" font-family="Helvetica,sans-Serif" font-size="10.00" fill="grey">parent</text>
</g>
<!-- Node3 -->
<g id="Node000003" class="node">
<title>Node3</title>
<g id="a_Node000003"><a xlink:href="struct__EelCanvas.html" target="_top" xlink:title=" ">
<polygon fill="white" stroke="#666666" points="224.5,-19 151.5,-19 151.5,0 224.5,0 224.5,-19"/>
<text text-anchor="middle" x="188" y="-7" font-family="Helvetica,sans-Serif" font-size="10.00">_EelCanvas</text>
</a>
</g>
</g>
<!-- Node2&#45;&gt;Node3 -->
<g id="edge3_Node000003_Node000002" class="edge">
<title>Node2&#45;&gt;Node3</title>
<g id="a_edge3_Node000003_Node000002"><a xlink:title=" ">
<path fill="none" stroke="#9a32cd" stroke-dasharray="5,2" d="M96.27,-122.35C89.24,-99.95 81.57,-61.8 100,-37 111.8,-21.12 132.82,-14.41 151.35,-11.71"/>
<polygon fill="#9a32cd" stroke="#9a32cd" points="93.01,-123.62 99.55,-131.95 99.63,-121.36 93.01,-123.62"/>
</a>
</g>
<text text-anchor="start" x="103" y="-102.5" font-family="Helvetica,sans-Serif" font-size="10.00" fill="grey">current_item</text>
<text text-anchor="start" x="103" y="-87.5" font-family="Helvetica,sans-Serif" font-size="10.00" fill="grey">focused_item</text>
<text text-anchor="start" x="103" y="-72.5" font-family="Helvetica,sans-Serif" font-size="10.00" fill="grey">grabbed_item</text>
<text text-anchor="start" x="103" y="-57.5" font-family="Helvetica,sans-Serif" font-size="10.00" fill="grey">new_current_item</text>
<text text-anchor="start" x="103" y="-42.5" font-family="Helvetica,sans-Serif" font-size="10.00" fill="grey">root</text>
</g>
<!-- Node3&#45;&gt;Node2 -->
<g id="edge2_Node000002_Node000003" class="edge">
<title>Node3&#45;&gt;Node2</title>
<g id="a_edge2_Node000002_Node000003"><a xlink:title=" ">
<path fill="none" stroke="#9a32cd" stroke-dasharray="5,2" d="M196.48,-28.37C205.72,-50.76 216.85,-89.18 198,-114 186.92,-128.59 168.51,-135.62 150.83,-138.85"/>
<polygon fill="#9a32cd" stroke="#9a32cd" points="199.61,-26.79 192.36,-19.06 193.21,-29.62 199.61,-26.79"/>
</a>
</g>
<text text-anchor="start" x="211.5" y="-72.5" font-family="Helvetica,sans-Serif" font-size="10.00" fill="grey">canvas</text>
</g>
</g>
</svg>
