<?xml version="1.0" encoding="UTF-8" standalone="no"?>
<!DOCTYPE svg PUBLIC "-//W3C//DTD SVG 1.1//EN"
 "http://www.w3.org/Graphics/SVG/1.1/DTD/svg11.dtd">
<!-- Generated by graphviz version 2.43.0 (0)
 -->
<!-- Title: MsdXrandrPlugin Pages: 1 -->
<svg width="818pt" height="705pt"
 viewBox="0.00 0.00 817.50 705.00" xmlns="http://www.w3.org/2000/svg" xmlns:xlink="http://www.w3.org/1999/xlink">
<g id="graph0" class="graph" transform="scale(1 1) rotate(0) translate(4 701)">
<title>MsdXrandrPlugin</title>
<!-- Node1 -->
<g id="Node000001" class="node">
<title>Node1</title>
<g id="a_Node000001"><a xlink:title=" ">
<polygon fill="#999999" stroke="#666666" points="135,-19 36,-19 36,0 135,0 135,-19"/>
<text text-anchor="middle" x="85.5" y="-7" font-family="Helvetica,sans-Serif" font-size="10.00">MsdXrandrPlugin</text>
</a>
</g>
</g>
<!-- Node2 -->
<g id="Node000002" class="node">
<title>Node2</title>
<g id="a_Node000002"><a xlink:href="structMateSettingsPlugin.html" target="_top" xlink:title=" ">
<polygon fill="white" stroke="#666666" points="111,-91 0,-91 0,-72 111,-72 111,-91"/>
<text text-anchor="middle" x="55.5" y="-79" font-family="Helvetica,sans-Serif" font-size="10.00">MateSettingsPlugin</text>
</a>
</g>
</g>
<!-- Node2&#45;&gt;Node1 -->
<g id="edge1_Node000001_Node000002" class="edge">
<title>Node2&#45;&gt;Node1</title>
<g id="a_edge1_Node000001_Node000002"><a xlink:title=" ">
<path fill="none" stroke="#9a32cd" stroke-dasharray="5,2" d="M63.26,-62.4C69.22,-48.49 77.19,-29.89 81.79,-19.15"/>
<polygon fill="#9a32cd" stroke="#9a32cd" points="59.9,-61.35 59.18,-71.92 66.33,-64.1 59.9,-61.35"/>
</a>
</g>
<text text-anchor="start" x="77.5" y="-42.5" font-family="Helvetica,sans-Serif" font-size="10.00" fill="grey">parent</text>
</g>
<!-- Node3 -->
<g id="Node000003" class="node">
<title>Node3</title>
<g id="a_Node000003"><a xlink:title=" ">
<polygon fill="white" stroke="#666666" points="263.5,-91 129.5,-91 129.5,-72 263.5,-72 263.5,-91"/>
<text text-anchor="middle" x="196.5" y="-79" font-family="Helvetica,sans-Serif" font-size="10.00">MsdXrandrPluginPrivate</text>
</a>
</g>
</g>
<!-- Node3&#45;&gt;Node1 -->
<g id="edge2_Node000001_Node000003" class="edge">
<title>Node3&#45;&gt;Node1</title>
<g id="a_edge2_Node000001_Node000003"><a xlink:title=" ">
<path fill="none" stroke="#9a32cd" stroke-dasharray="5,2" d="M174.35,-66.53C151.95,-52.4 118.01,-31 99.22,-19.15"/>
<polygon fill="#9a32cd" stroke="#9a32cd" points="172.56,-69.54 182.89,-71.92 176.3,-63.62 172.56,-69.54"/>
</a>
</g>
<text text-anchor="start" x="158" y="-42.5" font-family="Helvetica,sans-Serif" font-size="10.00" fill="grey">priv</text>
</g>
<!-- Node4 -->
<g id="Node000004" class="node">
<title>Node4</title>
<g id="a_Node000004"><a xlink:href="structMsdXrandrManager.html" target="_top" xlink:title=" ">
<polygon fill="white" stroke="#666666" points="252.5,-163 140.5,-163 140.5,-144 252.5,-144 252.5,-163"/>
<text text-anchor="middle" x="196.5" y="-151" font-family="Helvetica,sans-Serif" font-size="10.00">MsdXrandrManager</text>
</a>
</g>
</g>
<!-- Node4&#45;&gt;Node3 -->
<g id="edge3_Node000003_Node000004" class="edge">
<title>Node4&#45;&gt;Node3</title>
<g id="a_edge3_Node000003_Node000004"><a xlink:title=" ">
<path fill="none" stroke="#9a32cd" stroke-dasharray="5,2" d="M196.5,-133.58C196.5,-119.76 196.5,-101.68 196.5,-91.15"/>
<polygon fill="#9a32cd" stroke="#9a32cd" points="193,-133.92 196.5,-143.92 200,-133.92 193,-133.92"/>
</a>
</g>
<text text-anchor="start" x="199.5" y="-114.5" font-family="Helvetica,sans-Serif" font-size="10.00" fill="grey">manager</text>
</g>
<!-- Node5 -->
<g id="Node000005" class="node">
<title>Node5</title>
<g id="a_Node000005"><a xlink:title=" ">
<polygon fill="white" stroke="#666666" points="269.5,-235 123.5,-235 123.5,-216 269.5,-216 269.5,-235"/>
<text text-anchor="middle" x="196.5" y="-223" font-family="Helvetica,sans-Serif" font-size="10.00">MsdXrandrManagerPrivate</text>
</a>
</g>
</g>
<!-- Node5&#45;&gt;Node4 -->
<g id="edge4_Node000004_Node000005" class="edge">
<title>Node5&#45;&gt;Node4</title>
<g id="a_edge4_Node000004_Node000005"><a xlink:title=" ">
<path fill="none" stroke="#9a32cd" stroke-dasharray="5,2" d="M196.5,-205.58C196.5,-191.76 196.5,-173.68 196.5,-163.15"/>
<polygon fill="#9a32cd" stroke="#9a32cd" points="193,-205.92 196.5,-215.92 200,-205.92 193,-205.92"/>
</a>
</g>
<text text-anchor="start" x="200" y="-186.5" font-family="Helvetica,sans-Serif" font-size="10.00" fill="grey">priv</text>
</g>
<!-- Node6 -->
<g id="Node000006" class="node">
<title>Node6</title>
<g id="a_Node000006"><a xlink:href="structMateRRScreen.html" target="_top" xlink:title=" ">
<polygon fill="white" stroke="#666666" points="656.5,-625 568.5,-625 568.5,-606 656.5,-606 656.5,-625"/>
<text text-anchor="middle" x="612.5" y="-613" font-family="Helvetica,sans-Serif" font-size="10.00">MateRRScreen</text>
</a>
</g>
</g>
<!-- Node6&#45;&gt;Node5 -->
<g id="edge5_Node000005_Node000006" class="edge">
<title>Node6&#45;&gt;Node5</title>
<g id="a_edge5_Node000005_Node000006"><a xlink:title=" ">
<path fill="none" stroke="#9a32cd" stroke-dasharray="5,2" d="M666.64,-609.23C706.4,-602.02 753.5,-584.94 753.5,-544.5 753.5,-544.5 753.5,-544.5 753.5,-296.5 753.5,-248.29 420.72,-232.78 269.6,-228.23"/>
<polygon fill="#9a32cd" stroke="#9a32cd" points="666.03,-605.78 656.73,-610.86 667.16,-612.69 666.03,-605.78"/>
</a>
</g>
<text text-anchor="start" x="756.5" y="-417.5" font-family="Helvetica,sans-Serif" font-size="10.00" fill="grey">rw_screen</text>
</g>
<!-- Node8 -->
<g id="Node000008" class="node">
<title>Node8</title>
<g id="a_Node000008"><a xlink:href="structScreenInfo.html" target="_top" xlink:title=" ">
<polygon fill="white" stroke="#666666" points="470.5,-553 402.5,-553 402.5,-534 470.5,-534 470.5,-553"/>
<text text-anchor="middle" x="436.5" y="-541" font-family="Helvetica,sans-Serif" font-size="10.00">ScreenInfo</text>
</a>
</g>
</g>
<!-- Node6&#45;&gt;Node8 -->
<g id="edge19_Node000008_Node000006" class="edge">
<title>Node6&#45;&gt;Node8</title>
<g id="a_edge19_Node000008_Node000006"><a xlink:title=" ">
<path fill="none" stroke="#9a32cd" stroke-dasharray="5,2" d="M582.82,-602.07C561.62,-593.24 532.38,-581.21 506.5,-571 490.91,-564.85 473.25,-558.17 459.58,-553.05"/>
<polygon fill="#9a32cd" stroke="#9a32cd" points="581.67,-605.38 592.25,-605.99 584.36,-598.92 581.67,-605.38"/>
</a>
</g>
<text text-anchor="start" x="550" y="-576.5" font-family="Helvetica,sans-Serif" font-size="10.00" fill="grey">screen</text>
</g>
<!-- Node13 -->
<g id="Node000013" class="node">
<title>Node13</title>
<g id="a_Node000013"><a xlink:href="structMateRRConfigPrivate.html" target="_top" xlink:title=" ">
<polygon fill="white" stroke="#666666" points="376.5,-553 256.5,-553 256.5,-534 376.5,-534 376.5,-553"/>
<text text-anchor="middle" x="316.5" y="-541" font-family="Helvetica,sans-Serif" font-size="10.00">MateRRConfigPrivate</text>
</a>
</g>
</g>
<!-- Node6&#45;&gt;Node13 -->
<g id="edge22_Node000013_Node000006" class="edge">
<title>Node6&#45;&gt;Node13</title>
<g id="a_edge22_Node000013_Node000006"><a xlink:title=" ">
<path fill="none" stroke="#9a32cd" stroke-dasharray="5,2" d="M558.11,-606.32C529.75,-601.68 494.59,-595.34 463.5,-588 420.5,-577.85 371.46,-562.57 342.29,-553.08"/>
<polygon fill="#9a32cd" stroke="#9a32cd" points="557.8,-609.82 568.23,-607.96 558.91,-602.91 557.8,-609.82"/>
</a>
</g>
<text text-anchor="start" x="467" y="-576.5" font-family="Helvetica,sans-Serif" font-size="10.00" fill="grey">screen</text>
</g>
<!-- Node7 -->
<g id="Node000007" class="node">
<title>Node7</title>
<g id="a_Node000007"><a xlink:href="structMateRRScreenPrivate.html" target="_top" xlink:title=" ">
<polygon fill="white" stroke="#666666" points="725.5,-466 603.5,-466 603.5,-447 725.5,-447 725.5,-466"/>
<text text-anchor="middle" x="664.5" y="-454" font-family="Helvetica,sans-Serif" font-size="10.00">MateRRScreenPrivate</text>
</a>
</g>
</g>
<!-- Node7&#45;&gt;Node6 -->
<g id="edge6_Node000006_Node000007" class="edge">
<title>Node7&#45;&gt;Node6</title>
<g id="a_edge6_Node000006_Node000007"><a xlink:title=" ">
<path fill="none" stroke="#9a32cd" stroke-dasharray="5,2" d="M658.42,-475.87C647.21,-509.7 623.7,-580.67 615.44,-605.61"/>
<polygon fill="#9a32cd" stroke="#9a32cd" points="661.77,-476.89 661.59,-466.29 655.12,-474.69 661.77,-476.89"/>
</a>
</g>
<text text-anchor="start" x="642" y="-540.5" font-family="Helvetica,sans-Serif" font-size="10.00" fill="grey">priv</text>
</g>
<!-- Node8&#45;&gt;Node7 -->
<g id="edge7_Node000007_Node000008" class="edge">
<title>Node8&#45;&gt;Node7</title>
<g id="a_edge7_Node000007_Node000008"><a xlink:title=" ">
<path fill="none" stroke="#9a32cd" stroke-dasharray="5,2" d="M480.69,-537.08C503.96,-533.16 532.55,-526.63 556.5,-516 578.93,-506.04 580.06,-495.94 601.5,-484 614.04,-477.01 628.8,-470.71 640.88,-466.01"/>
<polygon fill="#9a32cd" stroke="#9a32cd" points="480.08,-533.63 470.75,-538.65 481.17,-540.55 480.08,-533.63"/>
</a>
</g>
<text text-anchor="start" x="605" y="-497" font-family="Helvetica,sans-Serif" font-size="10.00" fill="grey">info</text>
</g>
<!-- Node9 -->
<g id="Node000009" class="node">
<title>Node9</title>
<g id="a_Node000009"><a xlink:title=" ">
<polygon fill="white" stroke="#666666" points="561.5,-394 473.5,-394 473.5,-375 561.5,-375 561.5,-394"/>
<text text-anchor="middle" x="517.5" y="-382" font-family="Helvetica,sans-Serif" font-size="10.00">MateRROutput</text>
</a>
</g>
</g>
<!-- Node8&#45;&gt;Node9 -->
<g id="edge9_Node000009_Node000008" class="edge">
<title>Node8&#45;&gt;Node9</title>
<g id="a_edge9_Node000009_Node000008"><a xlink:title=" ">
<path fill="none" stroke="#9a32cd" stroke-dasharray="5,2" d="M473.56,-529.06C479.26,-525.57 484.55,-521.27 488.5,-516 507.21,-491.02 494.68,-477.45 501.5,-447 505.74,-428.05 511.72,-406.09 515.03,-394.21"/>
<polygon fill="#9a32cd" stroke="#9a32cd" points="471.61,-526.12 464.4,-533.88 474.88,-532.32 471.61,-526.12"/>
</a>
</g>
<text text-anchor="start" x="505" y="-453.5" font-family="Helvetica,sans-Serif" font-size="10.00" fill="grey">info</text>
</g>
<!-- Node10 -->
<g id="Node000010" class="node">
<title>Node10</title>
<g id="a_Node000010"><a xlink:title=" ">
<polygon fill="white" stroke="#666666" points="418.5,-307 344.5,-307 344.5,-288 418.5,-288 418.5,-307"/>
<text text-anchor="middle" x="381.5" y="-295" font-family="Helvetica,sans-Serif" font-size="10.00">MateRRCrtc</text>
</a>
</g>
</g>
<!-- Node8&#45;&gt;Node10 -->
<g id="edge11_Node000010_Node000008" class="edge">
<title>Node8&#45;&gt;Node10</title>
<g id="a_edge11_Node000010_Node000008"><a xlink:title=" ">
<path fill="none" stroke="#9a32cd" stroke-dasharray="5,2" d="M392.63,-536.08C380.52,-532.19 368.52,-525.97 360.5,-516 308.67,-451.56 360.34,-339.15 376.82,-307.19"/>
<polygon fill="#9a32cd" stroke="#9a32cd" points="391.72,-539.46 402.29,-538.72 393.56,-532.71 391.72,-539.46"/>
</a>
</g>
<text text-anchor="start" x="344" y="-417.5" font-family="Helvetica,sans-Serif" font-size="10.00" fill="grey">info</text>
</g>
<!-- Node11 -->
<g id="Node000011" class="node">
<title>Node11</title>
<g id="a_Node000011"><a xlink:title=" ">
<polygon fill="white" stroke="#666666" points="445.5,-466 363.5,-466 363.5,-447 445.5,-447 445.5,-466"/>
<text text-anchor="middle" x="404.5" y="-454" font-family="Helvetica,sans-Serif" font-size="10.00">MateRRMode</text>
</a>
</g>
</g>
<!-- Node8&#45;&gt;Node11 -->
<g id="edge13_Node000011_Node000008" class="edge">
<title>Node8&#45;&gt;Node11</title>
<g id="a_edge13_Node000011_Node000008"><a xlink:title=" ">
<path fill="none" stroke="#9a32cd" stroke-dasharray="5,2" d="M392.81,-533.79C383.65,-529.88 375.09,-524.21 369.5,-516 361.5,-504.24 363.17,-496.74 369.5,-484 373.23,-476.49 380.22,-470.54 386.97,-466.2"/>
<polygon fill="#9a32cd" stroke="#9a32cd" points="391.88,-537.18 402.48,-537.27 394.25,-530.59 391.88,-537.18"/>
</a>
</g>
<text text-anchor="start" x="373" y="-497" font-family="Helvetica,sans-Serif" font-size="10.00" fill="grey">info</text>
</g>
<!-- Node9&#45;&gt;Node8 -->
<g id="edge8_Node000008_Node000009" class="edge">
<title>Node9&#45;&gt;Node8</title>
<g id="a_edge8_Node000008_Node000009"><a xlink:title=" ">
<path fill="none" stroke="#9a32cd" stroke-dasharray="5,2" d="M523.5,-403.98C531.14,-431.31 540.64,-482.84 516.5,-516 505.99,-530.43 487.33,-537.13 470.67,-540.18"/>
<polygon fill="#9a32cd" stroke="#9a32cd" points="526.78,-402.74 520.54,-394.17 520.08,-404.76 526.78,-402.74"/>
</a>
</g>
<text text-anchor="start" x="535" y="-453.5" font-family="Helvetica,sans-Serif" font-size="10.00" fill="grey">outputs</text>
</g>
<!-- Node9&#45;&gt;Node9 -->
<g id="edge15_Node000009_Node000009" class="edge">
<title>Node9&#45;&gt;Node9</title>
<g id="a_edge15_Node000009_Node000009"><a xlink:title=" ">
<path fill="none" stroke="#9a32cd" stroke-dasharray="5,2" d="M571.76,-389.8C576.52,-388.68 579.5,-386.92 579.5,-384.5 579.5,-380.63 571.87,-378.43 561.52,-377.88"/>
<polygon fill="#9a32cd" stroke="#9a32cd" points="571,-386.37 561.52,-391.12 571.89,-393.32 571,-386.37"/>
</a>
</g>
<text text-anchor="start" x="582.5" y="-381.5" font-family="Helvetica,sans-Serif" font-size="10.00" fill="grey">clones</text>
</g>
<!-- Node9&#45;&gt;Node10 -->
<g id="edge14_Node000010_Node000009" class="edge">
<title>Node9&#45;&gt;Node10</title>
<g id="a_edge14_Node000010_Node000009"><a xlink:title=" ">
<path fill="none" stroke="#9a32cd" stroke-dasharray="5,2" d="M514.43,-364.71C511.33,-351.72 505.25,-335.04 493.5,-325 472.84,-307.35 442.52,-300.97 418.64,-298.88"/>
<polygon fill="#9a32cd" stroke="#9a32cd" points="511.08,-365.78 516.45,-374.91 517.94,-364.43 511.08,-365.78"/>
</a>
</g>
<text text-anchor="start" x="515" y="-346" font-family="Helvetica,sans-Serif" font-size="10.00" fill="grey">current_outputs</text>
<text text-anchor="start" x="515" y="-331" font-family="Helvetica,sans-Serif" font-size="10.00" fill="grey">possible_outputs</text>
</g>
<!-- Node10&#45;&gt;Node8 -->
<g id="edge17_Node000008_Node000010" class="edge">
<title>Node10&#45;&gt;Node8</title>
<g id="a_edge17_Node000008_Node000010"><a xlink:title=" ">
<path fill="none" stroke="#9a32cd" stroke-dasharray="5,2" d="M363.21,-313.75C337.96,-336.73 296.51,-382.55 305.5,-429 313.42,-469.92 309.41,-488.24 340.5,-516 349.72,-524.23 378.6,-531.54 402.29,-536.38"/>
<polygon fill="#9a32cd" stroke="#9a32cd" points="365.55,-316.34 370.75,-307.11 360.93,-311.09 365.55,-316.34"/>
</a>
</g>
<text text-anchor="start" x="308.5" y="-417.5" font-family="Helvetica,sans-Serif" font-size="10.00" fill="grey">crtcs</text>
</g>
<!-- Node10&#45;&gt;Node9 -->
<g id="edge10_Node000009_Node000010" class="edge">
<title>Node10&#45;&gt;Node9</title>
<g id="a_edge10_Node000009_Node000010"><a xlink:title=" ">
<path fill="none" stroke="#9a32cd" stroke-dasharray="5,2" d="M390.55,-316.29C398.57,-331.41 410.12,-351.52 417.5,-357 426.58,-363.75 450.95,-370.27 473.35,-375.16"/>
<polygon fill="#9a32cd" stroke="#9a32cd" points="393.58,-314.54 385.87,-307.27 387.37,-317.76 393.58,-314.54"/>
</a>
</g>
<text text-anchor="start" x="420.5" y="-346" font-family="Helvetica,sans-Serif" font-size="10.00" fill="grey">current_crtc</text>
<text text-anchor="start" x="420.5" y="-331" font-family="Helvetica,sans-Serif" font-size="10.00" fill="grey">possible_crtcs</text>
</g>
<!-- Node11&#45;&gt;Node8 -->
<g id="edge18_Node000008_Node000011" class="edge">
<title>Node11&#45;&gt;Node8</title>
<g id="a_edge18_Node000008_Node000011"><a xlink:title=" ">
<path fill="none" stroke="#9a32cd" stroke-dasharray="5,2" d="M406.69,-476.19C408.55,-487.98 411.84,-503.33 417.5,-516 420.36,-522.41 424.91,-528.83 428.84,-533.74"/>
<polygon fill="#9a32cd" stroke="#9a32cd" points="410.15,-475.61 405.33,-466.17 403.21,-476.55 410.15,-475.61"/>
</a>
</g>
<text text-anchor="start" x="421" y="-505" font-family="Helvetica,sans-Serif" font-size="10.00" fill="grey">clone_modes</text>
<text text-anchor="start" x="421" y="-490" font-family="Helvetica,sans-Serif" font-size="10.00" fill="grey">modes</text>
</g>
<!-- Node11&#45;&gt;Node9 -->
<g id="edge16_Node000009_Node000011" class="edge">
<title>Node11&#45;&gt;Node9</title>
<g id="a_edge16_Node000009_Node000011"><a xlink:title=" ">
<path fill="none" stroke="#9a32cd" stroke-dasharray="5,2" d="M410.29,-437.37C413.94,-428.58 419.51,-418.53 427.5,-412 440.49,-401.38 457.59,-395.02 473.4,-391.2"/>
<polygon fill="#9a32cd" stroke="#9a32cd" points="406.98,-436.24 406.85,-446.83 413.55,-438.63 406.98,-436.24"/>
</a>
</g>
<text text-anchor="start" x="430.5" y="-417.5" font-family="Helvetica,sans-Serif" font-size="10.00" fill="grey">modes</text>
</g>
<!-- Node11&#45;&gt;Node10 -->
<g id="edge12_Node000010_Node000011" class="edge">
<title>Node11&#45;&gt;Node10</title>
<g id="a_edge12_Node000010_Node000011"><a xlink:title=" ">
<path fill="none" stroke="#9a32cd" stroke-dasharray="5,2" d="M399.62,-436.99C396.59,-424.84 392.83,-408.57 390.5,-394 385.41,-362.26 382.88,-324.1 381.94,-307.24"/>
<polygon fill="#9a32cd" stroke="#9a32cd" points="396.27,-438 402.15,-446.81 403.05,-436.25 396.27,-438"/>
</a>
</g>
<text text-anchor="start" x="393.5" y="-381.5" font-family="Helvetica,sans-Serif" font-size="10.00" fill="grey">current_mode</text>
</g>
<!-- Node12 -->
<g id="Node000012" class="node">
<title>Node12</title>
<g id="a_Node000012"><a xlink:href="structMateRRConfig.html" target="_top" xlink:title=" ">
<polygon fill="white" stroke="#666666" points="239.5,-466 153.5,-466 153.5,-447 239.5,-447 239.5,-466"/>
<text text-anchor="middle" x="196.5" y="-454" font-family="Helvetica,sans-Serif" font-size="10.00">MateRRConfig</text>
</a>
</g>
</g>
<!-- Node12&#45;&gt;Node5 -->
<g id="edge20_Node000005_Node000012" class="edge">
<title>Node12&#45;&gt;Node5</title>
<g id="a_edge20_Node000005_Node000012"><a xlink:title=" ">
<path fill="none" stroke="#9a32cd" stroke-dasharray="5,2" d="M196.5,-436.52C196.5,-389.43 196.5,-268.66 196.5,-235.21"/>
<polygon fill="#9a32cd" stroke="#9a32cd" points="193,-436.8 196.5,-446.8 200,-436.8 193,-436.8"/>
</a>
</g>
<text text-anchor="start" x="200" y="-346" font-family="Helvetica,sans-Serif" font-size="10.00" fill="grey">configuration</text>
<text text-anchor="start" x="200" y="-331" font-family="Helvetica,sans-Serif" font-size="10.00" fill="grey">fn_f7_configs</text>
</g>
<!-- Node17 -->
<g id="Node000017" class="node">
<title>Node17</title>
<g id="a_Node000017"><a xlink:title=" ">
<polygon fill="white" stroke="#666666" points="168,-394 37,-394 37,-375 168,-375 168,-394"/>
<text text-anchor="middle" x="102.5" y="-382" font-family="Helvetica,sans-Serif" font-size="10.00">_MateRRLabelerPrivate</text>
</a>
</g>
</g>
<!-- Node12&#45;&gt;Node17 -->
<g id="edge27_Node000017_Node000012" class="edge">
<title>Node12&#45;&gt;Node17</title>
<g id="a_edge27_Node000017_Node000012"><a xlink:title=" ">
<path fill="none" stroke="#9a32cd" stroke-dasharray="5,2" d="M168.22,-442.36C160.89,-438.46 153.18,-433.91 146.5,-429 132.3,-418.57 118.24,-403.65 109.96,-394.28"/>
<polygon fill="#9a32cd" stroke="#9a32cd" points="166.7,-445.51 177.2,-446.92 169.87,-439.27 166.7,-445.51"/>
</a>
</g>
<text text-anchor="start" x="149.5" y="-417.5" font-family="Helvetica,sans-Serif" font-size="10.00" fill="grey">config</text>
</g>
<!-- Node13&#45;&gt;Node12 -->
<g id="edge21_Node000012_Node000013" class="edge">
<title>Node13&#45;&gt;Node12</title>
<g id="a_edge21_Node000012_Node000013"><a xlink:title=" ">
<path fill="none" stroke="#9a32cd" stroke-dasharray="5,2" d="M271.53,-530.54C261.78,-526.78 251.89,-522 243.5,-516 224.43,-502.35 208.94,-478.98 201.43,-466.3"/>
<polygon fill="#9a32cd" stroke="#9a32cd" points="270.58,-533.91 281.17,-533.96 272.92,-527.32 270.58,-533.91"/>
</a>
</g>
<text text-anchor="start" x="247" y="-497" font-family="Helvetica,sans-Serif" font-size="10.00" fill="grey">priv</text>
</g>
<!-- Node14 -->
<g id="Node000014" class="node">
<title>Node14</title>
<g id="a_Node000014"><a xlink:href="structMateRROutputInfo.html" target="_top" xlink:title=" ">
<polygon fill="white" stroke="#666666" points="370,-625 263,-625 263,-606 370,-606 370,-625"/>
<text text-anchor="middle" x="316.5" y="-613" font-family="Helvetica,sans-Serif" font-size="10.00">MateRROutputInfo</text>
</a>
</g>
</g>
<!-- Node14&#45;&gt;Node13 -->
<g id="edge23_Node000013_Node000014" class="edge">
<title>Node14&#45;&gt;Node13</title>
<g id="a_edge23_Node000013_Node000014"><a xlink:title=" ">
<path fill="none" stroke="#9a32cd" stroke-dasharray="5,2" d="M316.5,-595.58C316.5,-581.76 316.5,-563.68 316.5,-553.15"/>
<polygon fill="#9a32cd" stroke="#9a32cd" points="313,-595.92 316.5,-605.92 320,-595.92 313,-595.92"/>
</a>
</g>
<text text-anchor="start" x="320" y="-576.5" font-family="Helvetica,sans-Serif" font-size="10.00" fill="grey">outputs</text>
</g>
<!-- Node15 -->
<g id="Node000015" class="node">
<title>Node15</title>
<g id="a_Node000015"><a xlink:href="structMateRROutputInfoPrivate.html" target="_top" xlink:title=" ">
<polygon fill="white" stroke="#666666" points="387,-697 246,-697 246,-678 387,-678 387,-697"/>
<text text-anchor="middle" x="316.5" y="-685" font-family="Helvetica,sans-Serif" font-size="10.00">MateRROutputInfoPrivate</text>
</a>
</g>
</g>
<!-- Node15&#45;&gt;Node14 -->
<g id="edge24_Node000014_Node000015" class="edge">
<title>Node15&#45;&gt;Node14</title>
<g id="a_edge24_Node000014_Node000015"><a xlink:title=" ">
<path fill="none" stroke="#9a32cd" stroke-dasharray="5,2" d="M316.5,-667.58C316.5,-653.76 316.5,-635.68 316.5,-625.15"/>
<polygon fill="#9a32cd" stroke="#9a32cd" points="313,-667.92 316.5,-677.92 320,-667.92 313,-667.92"/>
</a>
</g>
<text text-anchor="start" x="320" y="-648.5" font-family="Helvetica,sans-Serif" font-size="10.00" fill="grey">priv</text>
</g>
<!-- Node16 -->
<g id="Node000016" class="node">
<title>Node16</title>
<g id="a_Node000016"><a xlink:href="struct__MateRRLabeler.html" target="_top" xlink:title=" ">
<polygon fill="white" stroke="#666666" points="164.5,-307 68.5,-307 68.5,-288 164.5,-288 164.5,-307"/>
<text text-anchor="middle" x="116.5" y="-295" font-family="Helvetica,sans-Serif" font-size="10.00">_MateRRLabeler</text>
</a>
</g>
</g>
<!-- Node16&#45;&gt;Node5 -->
<g id="edge25_Node000005_Node000016" class="edge">
<title>Node16&#45;&gt;Node5</title>
<g id="a_edge25_Node000005_Node000016"><a xlink:title=" ">
<path fill="none" stroke="#9a32cd" stroke-dasharray="5,2" d="M124.22,-278.62C128.61,-270.04 134.78,-260.11 142.5,-253 150.87,-245.29 161.91,-239.34 171.82,-235.05"/>
<polygon fill="#9a32cd" stroke="#9a32cd" points="120.98,-277.28 119.9,-287.82 127.32,-280.26 120.98,-277.28"/>
</a>
</g>
<text text-anchor="start" x="145.5" y="-258.5" font-family="Helvetica,sans-Serif" font-size="10.00" fill="grey">labeler</text>
</g>
<!-- Node17&#45;&gt;Node16 -->
<g id="edge26_Node000016_Node000017" class="edge">
<title>Node17&#45;&gt;Node16</title>
<g id="a_edge26_Node000016_Node000017"><a xlink:title=" ">
<path fill="none" stroke="#9a32cd" stroke-dasharray="5,2" d="M105.61,-364.62C108.55,-346.79 112.82,-320.83 115.04,-307.36"/>
<polygon fill="#9a32cd" stroke="#9a32cd" points="102.12,-364.29 103.95,-374.72 109.02,-365.43 102.12,-364.29"/>
</a>
</g>
<text text-anchor="start" x="116" y="-338" font-family="Helvetica,sans-Serif" font-size="10.00" fill="grey">priv</text>
</g>
</g>
</svg>
