<?xml version="1.0" encoding="UTF-8" standalone="no"?>
<!DOCTYPE svg PUBLIC "-//W3C//DTD SVG 1.1//EN"
 "http://www.w3.org/Graphics/SVG/1.1/DTD/svg11.dtd">
<!-- Generated by graphviz version 2.43.0 (0)
 -->
<!-- Title: ListHead Pages: 1 -->
<svg width="103pt" height="127pt"
 viewBox="0.00 0.00 103.00 127.00" xmlns="http://www.w3.org/2000/svg" xmlns:xlink="http://www.w3.org/1999/xlink">
<g id="graph0" class="graph" transform="scale(1 1) rotate(0) translate(4 123)">
<title>ListHead</title>
<!-- Node1 -->
<g id="Node000001" class="node">
<title>Node1</title>
<g id="a_Node000001"><a xlink:title=" ">
<polygon fill="#999999" stroke="#666666" points="59,-19 0,-19 0,0 59,0 59,-19"/>
<text text-anchor="middle" x="29.5" y="-7" font-family="Helvetica,sans-Serif" font-size="10.00">ListHead</text>
</a>
</g>
</g>
<!-- Node2 -->
<g id="Node000002" class="node">
<title>Node2</title>
<g id="a_Node000002"><a xlink:href="struct__List.html" target="_top" xlink:title=" ">
<polygon fill="white" stroke="#666666" points="49,-112.5 10,-112.5 10,-93.5 49,-93.5 49,-112.5"/>
<text text-anchor="middle" x="29.5" y="-100.5" font-family="Helvetica,sans-Serif" font-size="10.00">_List</text>
</a>
</g>
</g>
<!-- Node2&#45;&gt;Node1 -->
<g id="edge1_Node000001_Node000002" class="edge">
<title>Node2&#45;&gt;Node1</title>
<g id="a_edge1_Node000001_Node000002"><a xlink:title=" ">
<path fill="none" stroke="#9a32cd" stroke-dasharray="5,2" d="M29.5,-83.04C29.5,-63.42 29.5,-33.66 29.5,-19.11"/>
<polygon fill="#9a32cd" stroke="#9a32cd" points="26,-83.23 29.5,-93.23 33,-83.23 26,-83.23"/>
</a>
</g>
<text text-anchor="start" x="33" y="-58" font-family="Helvetica,sans-Serif" font-size="10.00" fill="grey">head</text>
<text text-anchor="start" x="33" y="-43" font-family="Helvetica,sans-Serif" font-size="10.00" fill="grey">tail</text>
</g>
<!-- Node2&#45;&gt;Node2 -->
<g id="edge2_Node000002_Node000002" class="edge">
<title>Node2&#45;&gt;Node2</title>
<g id="a_edge2_Node000002_Node000002"><a xlink:title=" ">
<path fill="none" stroke="#9a32cd" stroke-dasharray="5,2" d="M59.33,-111.56C63.9,-110.26 67,-107.4 67,-103 67,-95.77 58.64,-92.72 49.18,-93.85"/>
<polygon fill="#9a32cd" stroke="#9a32cd" points="58.96,-108.07 49.18,-112.15 59.36,-115.06 58.96,-108.07"/>
</a>
</g>
<text text-anchor="start" x="70" y="-108" font-family="Helvetica,sans-Serif" font-size="10.00" fill="grey">next</text>
<text text-anchor="start" x="70" y="-93" font-family="Helvetica,sans-Serif" font-size="10.00" fill="grey">prev</text>
</g>
</g>
</svg>
