<?xml version="1.0" encoding="UTF-8" standalone="no"?>
<!DOCTYPE svg PUBLIC "-//W3C//DTD SVG 1.1//EN"
 "http://www.w3.org/Graphics/SVG/1.1/DTD/svg11.dtd">
<!-- Generated by graphviz version 2.43.0 (0)
 -->
<!-- Title: _TileAction Pages: 1 -->
<svg width="126pt" height="114pt"
 viewBox="0.00 0.00 125.57 114.00" xmlns="http://www.w3.org/2000/svg" xmlns:xlink="http://www.w3.org/1999/xlink">
<g id="graph0" class="graph" transform="scale(1 1) rotate(0) translate(4 110)">
<title>_TileAction</title>
<!-- Node1 -->
<g id="Node000001" class="node">
<title>Node1</title>
<g id="a_Node000001"><a xlink:title=" ">
<polygon fill="#999999" stroke="#666666" points="93.07,-106 22.07,-106 22.07,-87 93.07,-87 93.07,-106"/>
<text text-anchor="middle" x="57.57" y="-94" font-family="Helvetica,sans-Serif" font-size="10.00">_TileAction</text>
</a>
</g>
</g>
<!-- Node2 -->
<g id="Node000002" class="node">
<title>Node2</title>
<g id="a_Node000002"><a xlink:href="struct__Tile.html" target="_top" xlink:title=" ">
<polygon fill="white" stroke="#666666" points="77.57,-19 37.57,-19 37.57,0 77.57,0 77.57,-19"/>
<text text-anchor="middle" x="57.57" y="-7" font-family="Helvetica,sans-Serif" font-size="10.00">_Tile</text>
</a>
</g>
</g>
<!-- Node1&#45;&gt;Node2 -->
<g id="edge2_Node000002_Node000001" class="edge">
<title>Node1&#45;&gt;Node2</title>
<g id="a_edge2_Node000002_Node000001"><a xlink:title=" ">
<path fill="none" stroke="#9a32cd" stroke-dasharray="5,2" d="M18.61,-81.95C13.42,-78.51 8.79,-74.26 5.57,-69 -1.86,-56.87 -1.86,-49.13 5.57,-37 12.51,-25.68 25.96,-19.01 37.45,-15.19"/>
<polygon fill="#9a32cd" stroke="#9a32cd" points="17.26,-85.2 27.71,-86.98 20.65,-79.08 17.26,-85.2"/>
</a>
</g>
<text text-anchor="start" x="8.57" y="-58" font-family="Helvetica,sans-Serif" font-size="10.00" fill="grey">actions</text>
<text text-anchor="start" x="8.57" y="-43" font-family="Helvetica,sans-Serif" font-size="10.00" fill="grey">default_action</text>
</g>
<!-- Node2&#45;&gt;Node1 -->
<g id="edge1_Node000001_Node000002" class="edge">
<title>Node2&#45;&gt;Node1</title>
<g id="a_edge1_Node000001_Node000002"><a xlink:title=" ">
<path fill="none" stroke="#9a32cd" stroke-dasharray="5,2" d="M78.17,-26.03C81.18,-29.3 83.85,-32.99 85.57,-37 91.2,-50.06 91.2,-55.94 85.57,-69 82.5,-76.13 76.47,-82.24 70.78,-86.79"/>
<polygon fill="#9a32cd" stroke="#9a32cd" points="80.5,-23.42 70.78,-19.21 75.75,-28.57 80.5,-23.42"/>
</a>
</g>
<text text-anchor="start" x="92.57" y="-58" font-family="Helvetica,sans-Serif" font-size="10.00" fill="grey">func</text>
<text text-anchor="start" x="92.57" y="-43" font-family="Helvetica,sans-Serif" font-size="10.00" fill="grey">tile</text>
</g>
</g>
</svg>
