<?xml version="1.0" encoding="UTF-8" standalone="no"?>
<!DOCTYPE svg PUBLIC "-//W3C//DTD SVG 1.1//EN"
 "http://www.w3.org/Graphics/SVG/1.1/DTD/svg11.dtd">
<!-- Generated by graphviz version 2.43.0 (0)
 -->
<!-- Title: _CajaConnectServerDialog Pages: 1 -->
<svg width="242pt" height="254pt"
 viewBox="0.00 0.00 242.00 254.00" xmlns="http://www.w3.org/2000/svg" xmlns:xlink="http://www.w3.org/1999/xlink">
<g id="graph0" class="graph" transform="scale(1 1) rotate(0) translate(4 250)">
<title>_CajaConnectServerDialog</title>
<!-- Node1 -->
<g id="Node000001" class="node">
<title>Node1</title>
<g id="a_Node000001"><a xlink:title=" ">
<polygon fill="#999999" stroke="#666666" points="202.5,-19 56.5,-19 56.5,0 202.5,0 202.5,-19"/>
<text text-anchor="middle" x="129.5" y="-7" font-family="Helvetica,sans-Serif" font-size="10.00">_CajaConnectServerDialog</text>
</a>
</g>
</g>
<!-- Node2 -->
<g id="Node000002" class="node">
<title>Node2</title>
<g id="a_Node000002"><a xlink:title=" ">
<polygon fill="white" stroke="#666666" points="202.5,-102 56.5,-102 56.5,-72 202.5,-72 202.5,-102"/>
<text text-anchor="start" x="64.5" y="-90" font-family="Helvetica,sans-Serif" font-size="10.00">_CajaConnectServerDialog</text>
<text text-anchor="middle" x="129.5" y="-79" font-family="Helvetica,sans-Serif" font-size="10.00">Private</text>
</a>
</g>
</g>
<!-- Node2&#45;&gt;Node1 -->
<g id="edge1_Node000001_Node000002" class="edge">
<title>Node2&#45;&gt;Node1</title>
<g id="a_edge1_Node000001_Node000002"><a xlink:title=" ">
<path fill="none" stroke="#9a32cd" stroke-dasharray="5,2" d="M129.5,-61.4C129.5,-46.81 129.5,-29.22 129.5,-19.01"/>
<polygon fill="#9a32cd" stroke="#9a32cd" points="126,-61.8 129.5,-71.8 133,-61.8 126,-61.8"/>
</a>
</g>
<text text-anchor="start" x="132.5" y="-42.5" font-family="Helvetica,sans-Serif" font-size="10.00" fill="grey">details</text>
</g>
<!-- Node3 -->
<g id="Node000003" class="node">
<title>Node3</title>
<g id="a_Node000003"><a xlink:href="structCajaApplication.html" target="_top" xlink:title=" ">
<polygon fill="white" stroke="#666666" points="176,-174 83,-174 83,-155 176,-155 176,-174"/>
<text text-anchor="middle" x="129.5" y="-162" font-family="Helvetica,sans-Serif" font-size="10.00">CajaApplication</text>
</a>
</g>
</g>
<!-- Node3&#45;&gt;Node2 -->
<g id="edge2_Node000002_Node000003" class="edge">
<title>Node3&#45;&gt;Node2</title>
<g id="a_edge2_Node000002_Node000003"><a xlink:title=" ">
<path fill="none" stroke="#9a32cd" stroke-dasharray="5,2" d="M129.5,-144.57C129.5,-131.43 129.5,-114.18 129.5,-102.21"/>
<polygon fill="#9a32cd" stroke="#9a32cd" points="126,-144.84 129.5,-154.84 133,-144.84 126,-144.84"/>
</a>
</g>
<text text-anchor="start" x="133" y="-125.5" font-family="Helvetica,sans-Serif" font-size="10.00" fill="grey">application</text>
</g>
<!-- Node4 -->
<g id="Node000004" class="node">
<title>Node4</title>
<g id="a_Node000004"><a xlink:title=" ">
<polygon fill="white" stroke="#666666" points="133,-246 0,-246 0,-227 133,-227 133,-246"/>
<text text-anchor="middle" x="66.5" y="-234" font-family="Helvetica,sans-Serif" font-size="10.00">_CajaApplicationPrivate</text>
</a>
</g>
</g>
<!-- Node4&#45;&gt;Node3 -->
<g id="edge3_Node000003_Node000004" class="edge">
<title>Node4&#45;&gt;Node3</title>
<g id="a_edge3_Node000003_Node000004"><a xlink:title=" ">
<path fill="none" stroke="#9a32cd" stroke-dasharray="5,2" d="M80.98,-219.41C93.65,-205.33 111.57,-185.42 121.71,-174.15"/>
<polygon fill="#9a32cd" stroke="#9a32cd" points="78.31,-217.14 74.23,-226.92 83.52,-221.83 78.31,-217.14"/>
</a>
</g>
<text text-anchor="start" x="109" y="-197.5" font-family="Helvetica,sans-Serif" font-size="10.00" fill="grey">priv</text>
</g>
<!-- Node5 -->
<g id="Node000005" class="node">
<title>Node5</title>
<g id="a_Node000005"><a xlink:href="struct__EggSMClient.html" target="_top" xlink:title=" ">
<polygon fill="white" stroke="#666666" points="234,-246 151,-246 151,-227 234,-227 234,-246"/>
<text text-anchor="middle" x="192.5" y="-234" font-family="Helvetica,sans-Serif" font-size="10.00">_EggSMClient</text>
</a>
</g>
</g>
<!-- Node5&#45;&gt;Node3 -->
<g id="edge4_Node000003_Node000005" class="edge">
<title>Node5&#45;&gt;Node3</title>
<g id="a_edge4_Node000003_Node000005"><a xlink:title=" ">
<path fill="none" stroke="#9a32cd" stroke-dasharray="5,2" d="M178.02,-219.41C165.35,-205.33 147.43,-185.42 137.29,-174.15"/>
<polygon fill="#9a32cd" stroke="#9a32cd" points="175.48,-221.83 184.77,-226.92 180.69,-217.14 175.48,-221.83"/>
</a>
</g>
<text text-anchor="start" x="171" y="-197.5" font-family="Helvetica,sans-Serif" font-size="10.00" fill="grey">smclient</text>
</g>
</g>
</svg>
