<?xml version="1.0" encoding="UTF-8" standalone="no"?>
<!DOCTYPE svg PUBLIC "-//W3C//DTD SVG 1.1//EN"
 "http://www.w3.org/Graphics/SVG/1.1/DTD/svg11.dtd">
<!-- Generated by graphviz version 2.43.0 (0)
 -->
<!-- Title: NAObjectItem Pages: 1 -->
<svg width="290pt" height="243pt"
 viewBox="0.00 0.00 289.50 243.00" xmlns="http://www.w3.org/2000/svg" xmlns:xlink="http://www.w3.org/1999/xlink">
<g id="graph0" class="graph" transform="scale(1 1) rotate(0) translate(4 239)">
<title>NAObjectItem</title>
<!-- Node1 -->
<g id="Node000001" class="node">
<title>Node1</title>
<g id="a_Node000001"><a xlink:title=" ">
<polygon fill="#999999" stroke="#666666" points="203.5,-19 118.5,-19 118.5,0 203.5,0 203.5,-19"/>
<text text-anchor="middle" x="161" y="-7" font-family="Helvetica,sans-Serif" font-size="10.00">NAObjectItem</text>
</a>
</g>
</g>
<!-- Node2 -->
<g id="Node000002" class="node">
<title>Node2</title>
<g id="a_Node000002"><a xlink:href="structNAObjectId.html" target="_top" xlink:title=" ">
<polygon fill="white" stroke="#666666" points="138.5,-91 67.5,-91 67.5,-72 138.5,-72 138.5,-91"/>
<text text-anchor="middle" x="103" y="-79" font-family="Helvetica,sans-Serif" font-size="10.00">NAObjectId</text>
</a>
</g>
</g>
<!-- Node2&#45;&gt;Node1 -->
<g id="edge1_Node000001_Node000002" class="edge">
<title>Node2&#45;&gt;Node1</title>
<g id="a_edge1_Node000001_Node000002"><a xlink:title=" ">
<path fill="none" stroke="#9a32cd" stroke-dasharray="5,2" d="M116.66,-64.01C128.3,-49.96 144.58,-30.32 153.83,-19.15"/>
<polygon fill="#9a32cd" stroke="#9a32cd" points="113.8,-61.98 110.11,-71.92 119.19,-66.45 113.8,-61.98"/>
</a>
</g>
<text text-anchor="start" x="142" y="-42.5" font-family="Helvetica,sans-Serif" font-size="10.00" fill="grey">parent</text>
</g>
<!-- Node3 -->
<g id="Node000003" class="node">
<title>Node3</title>
<g id="a_Node000003"><a xlink:href="structNAObject.html" target="_top" xlink:title=" ">
<polygon fill="white" stroke="#666666" points="82,-163 20,-163 20,-144 82,-144 82,-163"/>
<text text-anchor="middle" x="51" y="-151" font-family="Helvetica,sans-Serif" font-size="10.00">NAObject</text>
</a>
</g>
</g>
<!-- Node3&#45;&gt;Node2 -->
<g id="edge2_Node000002_Node000003" class="edge">
<title>Node3&#45;&gt;Node2</title>
<g id="a_edge2_Node000002_Node000003"><a xlink:title=" ">
<path fill="none" stroke="#9a32cd" stroke-dasharray="5,2" d="M63.54,-135.62C73.96,-121.59 88.36,-102.21 96.57,-91.15"/>
<polygon fill="#9a32cd" stroke="#9a32cd" points="60.53,-133.8 57.38,-143.92 66.15,-137.98 60.53,-133.8"/>
</a>
</g>
<text text-anchor="start" x="87" y="-114.5" font-family="Helvetica,sans-Serif" font-size="10.00" fill="grey">parent</text>
</g>
<!-- Node4 -->
<g id="Node000004" class="node">
<title>Node4</title>
<g id="a_Node000004"><a xlink:title=" ">
<polygon fill="white" stroke="#666666" points="102,-235 0,-235 0,-216 102,-216 102,-235"/>
<text text-anchor="middle" x="51" y="-223" font-family="Helvetica,sans-Serif" font-size="10.00">_NAObjectPrivate</text>
</a>
</g>
</g>
<!-- Node4&#45;&gt;Node3 -->
<g id="edge3_Node000003_Node000004" class="edge">
<title>Node4&#45;&gt;Node3</title>
<g id="a_edge3_Node000003_Node000004"><a xlink:title=" ">
<path fill="none" stroke="#9a32cd" stroke-dasharray="5,2" d="M51,-205.58C51,-191.76 51,-173.68 51,-163.15"/>
<polygon fill="#9a32cd" stroke="#9a32cd" points="47.5,-205.92 51,-215.92 54.5,-205.92 47.5,-205.92"/>
</a>
</g>
<text text-anchor="start" x="54.5" y="-186.5" font-family="Helvetica,sans-Serif" font-size="10.00" fill="grey">private</text>
</g>
<!-- Node5 -->
<g id="Node000005" class="node">
<title>Node5</title>
<g id="a_Node000005"><a xlink:title=" ">
<polygon fill="white" stroke="#666666" points="211.5,-163 100.5,-163 100.5,-144 211.5,-144 211.5,-163"/>
<text text-anchor="middle" x="156" y="-151" font-family="Helvetica,sans-Serif" font-size="10.00">_NAObjectIdPrivate</text>
</a>
</g>
</g>
<!-- Node5&#45;&gt;Node2 -->
<g id="edge4_Node000002_Node000005" class="edge">
<title>Node5&#45;&gt;Node2</title>
<g id="a_edge4_Node000002_Node000005"><a xlink:title=" ">
<path fill="none" stroke="#9a32cd" stroke-dasharray="5,2" d="M144.98,-135.6C139.49,-127.42 132.61,-117.54 126,-109 121.22,-102.84 115.47,-96.21 110.92,-91.13"/>
<polygon fill="#9a32cd" stroke="#9a32cd" points="142.08,-137.56 150.52,-143.96 147.92,-133.69 142.08,-137.56"/>
</a>
</g>
<text text-anchor="start" x="142.5" y="-114.5" font-family="Helvetica,sans-Serif" font-size="10.00" fill="grey">private</text>
</g>
<!-- Node6 -->
<g id="Node000006" class="node">
<title>Node6</title>
<g id="a_Node000006"><a xlink:title=" ">
<polygon fill="white" stroke="#666666" points="281.5,-91 156.5,-91 156.5,-72 281.5,-72 281.5,-91"/>
<text text-anchor="middle" x="219" y="-79" font-family="Helvetica,sans-Serif" font-size="10.00">_NAObjectItemPrivate</text>
</a>
</g>
</g>
<!-- Node6&#45;&gt;Node1 -->
<g id="edge5_Node000001_Node000006" class="edge">
<title>Node6&#45;&gt;Node1</title>
<g id="a_edge5_Node000001_Node000006"><a xlink:title=" ">
<path fill="none" stroke="#9a32cd" stroke-dasharray="5,2" d="M205.34,-64.01C193.7,-49.96 177.42,-30.32 168.17,-19.15"/>
<polygon fill="#9a32cd" stroke="#9a32cd" points="202.81,-66.45 211.89,-71.92 208.2,-61.98 202.81,-66.45"/>
</a>
</g>
<text text-anchor="start" x="199.5" y="-42.5" font-family="Helvetica,sans-Serif" font-size="10.00" fill="grey">private</text>
</g>
</g>
</svg>
