<?xml version="1.0" encoding="UTF-8" standalone="no"?>
<!DOCTYPE svg PUBLIC "-//W3C//DTD SVG 1.1//EN"
 "http://www.w3.org/Graphics/SVG/1.1/DTD/svg11.dtd">
<!-- Generated by graphviz version 2.43.0 (0)
 -->
<!-- Title: ScreenInfo Pages: 1 -->
<!--zoomable 273 -->

<svg id="main" version="1.1" xmlns="http://www.w3.org/2000/svg" xmlns:xlink="http://www.w3.org/1999/xlink" xml:space="preserve" onload="init(evt)">

<style type="text/css"><![CDATA[
.node, .edge {opacity: 0.7;}
.node.selected, .edge.selected {opacity: 1;}
.edge:hover path { stroke: red; }
.edge:hover polygon { stroke: red; fill: red; }
]]></style>

<defs>
  <circle id="rim" cx="0" cy="0" r="7"/>
  <circle id="rim2" cx="0" cy="0" r="3.5"/>
  <g id="zoomPlus">
    <use xlink:href="#rim" fill="#404040"><set attributeName="fill" to="#808080" begin="zoomplus.mouseover" end="zoomplus.mouseout"/></use>
    <path d="M-4,0h8M0,-4v8" fill="none" stroke="white" stroke-width="1.5" pointer-events="none"/>
  </g>
  <g id="zoomMin">
    <use xlink:href="#rim" fill="#404040"><set attributeName="fill" to="#808080" begin="zoomminus.mouseover" end="zoomminus.mouseout"/></use>
    <path d="M-4,0h8" fill="none" stroke="white" stroke-width="1.5" pointer-events="none"/>
  </g>
  <g id="arrowUp" transform="translate(30 24)">
    <use xlink:href="#rim"/>
    <path pointer-events="none" fill="none" stroke="white" stroke-width="1.5" d="M0,-3.0v7 M-2.5,-0.5L0,-3.0L2.5,-0.5"/>
  </g>
  <g id="arrowRight" transform="rotate(90) translate(36 -43)">
    <use xlink:href="#rim"/>
    <path pointer-events="none" fill="none" stroke="white" stroke-width="1.5" d="M0,-3.0v7 M-2.5,-0.5L0,-3.0L2.5,-0.5"/>
  </g>
  <g id="arrowDown" transform="rotate(180) translate(-30 -48)">
    <use xlink:href="#rim"/>
    <path pointer-events="none" fill="none" stroke="white" stroke-width="1.5" d="M0,-3.0v7 M-2.5,-0.5L0,-3.0L2.5,-0.5"/>
  </g>
  <g id="arrowLeft" transform="rotate(270) translate(-36 17)">
    <use xlink:href="#rim"/>
    <path pointer-events="none" fill="none" stroke="white" stroke-width="1.5" d="M0,-3.0v7 M-2.5,-0.5L0,-3.0L2.5,-0.5"/>
  </g>
  <g id="resetDef">
    <use xlink:href="#rim2" fill="#404040"><set attributeName="fill" to="#808080" begin="reset.mouseover" end="reset.mouseout"/></use>
  </g>
</defs>
<script type="application/ecmascript">
var viewWidth = 552;
var viewHeight = 273;
var sectionId = 'dynsection-0';
</script>
<script type="application/ecmascript" xlink:href="svg.min.js"/>
<svg id="graph" class="graph">
<g id="viewport">
<title>ScreenInfo</title>
<!-- Node1 -->
<g id="Node000001" class="node">
<title>Node1</title>
<g id="a_Node000001"><a xlink:title=" ">
<polygon fill="#999999" stroke="#666666" points="236.98,-265 168.98,-265 168.98,-246 236.98,-246 236.98,-265"/>
<text text-anchor="middle" x="202.98" y="-253" font-family="Helvetica,sans-Serif" font-size="10.00">ScreenInfo</text>
</a>
</g>
</g>
<!-- Node2 -->
<g id="Node000002" class="node">
<title>Node2</title>
<g id="a_Node000002"><a xlink:title=" ">
<polygon fill="white" stroke="#666666" points="124.98,-106 36.98,-106 36.98,-87 124.98,-87 124.98,-106"/>
<text text-anchor="middle" x="80.98" y="-94" font-family="Helvetica,sans-Serif" font-size="10.00">MateRROutput</text>
</a>
</g>
</g>
<!-- Node1&#45;&gt;Node2 -->
<g id="edge2_Node000002_Node000001" class="edge">
<title>Node1&#45;&gt;Node2</title>
<g id="a_edge2_Node000002_Node000001"><a xlink:title=" ">
<path fill="none" stroke="#9a32cd" stroke-dasharray="5,2" d="M165.93,-242.27C137.89,-230.72 101.78,-210.27 86.98,-178 76,-154.05 77.91,-121.86 79.7,-106.45"/>
<polygon fill="#9a32cd" stroke="#9a32cd" points="164.87,-245.62 175.46,-245.99 167.41,-239.1 164.87,-245.62"/>
</a>
</g>
<text text-anchor="start" x="90.48" y="-165.5" font-family="Helvetica,sans-Serif" font-size="10.00" fill="grey">info</text>
</g>
<!-- Node3 -->
<g id="Node000003" class="node">
<title>Node3</title>
<g id="a_Node000003"><a xlink:title=" ">
<polygon fill="white" stroke="#666666" points="149.98,-19 75.98,-19 75.98,0 149.98,0 149.98,-19"/>
<text text-anchor="middle" x="112.98" y="-7" font-family="Helvetica,sans-Serif" font-size="10.00">MateRRCrtc</text>
</a>
</g>
</g>
<!-- Node1&#45;&gt;Node3 -->
<g id="edge4_Node000003_Node000001" class="edge">
<title>Node1&#45;&gt;Node3</title>
<g id="a_edge4_Node000003_Node000001"><a xlink:title=" ">
<path fill="none" stroke="#9a32cd" stroke-dasharray="5,2" d="M158.51,-251.5C137.82,-248.21 113.88,-241.52 95.98,-228 31.01,-178.93 25.91,-147.69 4.98,-69 1.33,-55.26 -3.79,-48.19 4.98,-37 13.77,-25.8 48.28,-18.71 75.96,-14.71"/>
<polygon fill="#9a32cd" stroke="#9a32cd" points="158.3,-255 168.68,-252.89 159.24,-248.07 158.3,-255"/>
</a>
</g>
<text text-anchor="start" x="29.48" y="-129.5" font-family="Helvetica,sans-Serif" font-size="10.00" fill="grey">info</text>
</g>
<!-- Node4 -->
<g id="Node000004" class="node">
<title>Node4</title>
<g id="a_Node000004"><a xlink:title=" ">
<polygon fill="white" stroke="#666666" points="261.98,-178 179.98,-178 179.98,-159 261.98,-159 261.98,-178"/>
<text text-anchor="middle" x="220.98" y="-166" font-family="Helvetica,sans-Serif" font-size="10.00">MateRRMode</text>
</a>
</g>
</g>
<!-- Node1&#45;&gt;Node4 -->
<g id="edge6_Node000004_Node000001" class="edge">
<title>Node1&#45;&gt;Node4</title>
<g id="a_edge6_Node000004_Node000001"><a xlink:title=" ">
<path fill="none" stroke="#9a32cd" stroke-dasharray="5,2" d="M185.85,-238.27C183.45,-235.11 181.34,-231.64 179.98,-228 175.01,-214.68 173.18,-208.49 179.98,-196 184.28,-188.11 192.05,-182.21 199.67,-178.01"/>
<polygon fill="#9a32cd" stroke="#9a32cd" points="183.3,-240.67 192.57,-245.81 188.53,-236.01 183.3,-240.67"/>
</a>
</g>
<text text-anchor="start" x="183.48" y="-209" font-family="Helvetica,sans-Serif" font-size="10.00" fill="grey">info</text>
</g>
<!-- Node6 -->
<g id="Node000006" class="node">
<title>Node6</title>
<g id="a_Node000006"><a xlink:href="structMateRRScreenPrivate.html" target="_top" xlink:title=" ">
<polygon fill="white" stroke="#666666" points="543.98,-178 421.98,-178 421.98,-159 543.98,-159 543.98,-178"/>
<text text-anchor="middle" x="482.98" y="-166" font-family="Helvetica,sans-Serif" font-size="10.00">MateRRScreenPrivate</text>
</a>
</g>
</g>
<!-- Node1&#45;&gt;Node6 -->
<g id="edge14_Node000006_Node000001" class="edge">
<title>Node1&#45;&gt;Node6</title>
<g id="a_edge14_Node000006_Node000001"><a xlink:title=" ">
<path fill="none" stroke="#9a32cd" stroke-dasharray="5,2" d="M247.51,-252.26C283.74,-249.39 335.76,-242.85 378.98,-228 414.84,-215.68 452.57,-191.08 471.18,-178.05"/>
<polygon fill="#9a32cd" stroke="#9a32cd" points="246.98,-248.79 237.26,-253.01 247.49,-255.77 246.98,-248.79"/>
</a>
</g>
<text text-anchor="start" x="445.48" y="-209" font-family="Helvetica,sans-Serif" font-size="10.00" fill="grey">info</text>
</g>
<!-- Node2&#45;&gt;Node1 -->
<g id="edge1_Node000001_Node000002" class="edge">
<title>Node2&#45;&gt;Node1</title>
<g id="a_edge1_Node000001_Node000002"><a xlink:title=" ">
<path fill="none" stroke="#9a32cd" stroke-dasharray="5,2" d="M90.24,-115.44C99.14,-132.15 113.36,-157.48 127.98,-178 145,-201.87 150.07,-207.47 170.98,-228 177.47,-234.37 185.32,-240.89 191.62,-245.86"/>
<polygon fill="#9a32cd" stroke="#9a32cd" points="93.18,-113.51 85.43,-106.28 86.98,-116.76 93.18,-113.51"/>
</a>
</g>
<text text-anchor="start" x="131.48" y="-165.5" font-family="Helvetica,sans-Serif" font-size="10.00" fill="grey">outputs</text>
</g>
<!-- Node2&#45;&gt;Node2 -->
<g id="edge8_Node000002_Node000002" class="edge">
<title>Node2&#45;&gt;Node2</title>
<g id="a_edge8_Node000002_Node000002"><a xlink:title=" ">
<path fill="none" stroke="#9a32cd" stroke-dasharray="5,2" d="M135.24,-101.8C140,-100.68 142.98,-98.92 142.98,-96.5 142.98,-92.63 135.35,-90.43 125.01,-89.88"/>
<polygon fill="#9a32cd" stroke="#9a32cd" points="134.48,-98.37 125.01,-103.12 135.37,-105.32 134.48,-98.37"/>
</a>
</g>
<text text-anchor="start" x="145.98" y="-93.5" font-family="Helvetica,sans-Serif" font-size="10.00" fill="grey">clones</text>
</g>
<!-- Node2&#45;&gt;Node3 -->
<g id="edge7_Node000003_Node000002" class="edge">
<title>Node2&#45;&gt;Node3</title>
<g id="a_edge7_Node000003_Node000002"><a xlink:title=" ">
<path fill="none" stroke="#9a32cd" stroke-dasharray="5,2" d="M87.87,-77.25C88.91,-74.49 89.98,-71.67 90.98,-69 97.64,-51.33 105.41,-30.66 109.71,-19.22"/>
<polygon fill="#9a32cd" stroke="#9a32cd" points="84.57,-76.08 84.32,-86.67 91.12,-78.55 84.57,-76.08"/>
</a>
</g>
<text text-anchor="start" x="106.48" y="-58" font-family="Helvetica,sans-Serif" font-size="10.00" fill="grey">current_outputs</text>
<text text-anchor="start" x="106.48" y="-43" font-family="Helvetica,sans-Serif" font-size="10.00" fill="grey">possible_outputs</text>
</g>
<!-- Node3&#45;&gt;Node1 -->
<g id="edge10_Node000001_Node000003" class="edge">
<title>Node3&#45;&gt;Node1</title>
<g id="a_edge10_Node000001_Node000003"><a xlink:title=" ">
<path fill="none" stroke="#9a32cd" stroke-dasharray="5,2" d="M160.24,-14.02C206.02,-20.33 272.44,-37.95 299.98,-87 330.74,-141.78 329.41,-179.09 289.98,-228 277.4,-243.61 255.89,-250.26 237.41,-252.99"/>
<polygon fill="#9a32cd" stroke="#9a32cd" points="160.59,-10.53 150.23,-12.77 159.72,-17.48 160.59,-10.53"/>
</a>
</g>
<text text-anchor="start" x="322.98" y="-129.5" font-family="Helvetica,sans-Serif" font-size="10.00" fill="grey">crtcs</text>
</g>
<!-- Node3&#45;&gt;Node2 -->
<g id="edge3_Node000002_Node000003" class="edge">
<title>Node3&#45;&gt;Node2</title>
<g id="a_edge3_Node000002_Node000003"><a xlink:title=" ">
<path fill="none" stroke="#9a32cd" stroke-dasharray="5,2" d="M65.82,-17.68C44.02,-22.06 21.51,-28.47 14.98,-37 6.34,-48.29 7.02,-57.22 14.98,-69 20.58,-77.29 29.25,-82.98 38.48,-86.9"/>
<polygon fill="#9a32cd" stroke="#9a32cd" points="66.56,-21.11 75.73,-15.81 65.26,-14.23 66.56,-21.11"/>
</a>
</g>
<text text-anchor="start" x="17.98" y="-58" font-family="Helvetica,sans-Serif" font-size="10.00" fill="grey">current_crtc</text>
<text text-anchor="start" x="17.98" y="-43" font-family="Helvetica,sans-Serif" font-size="10.00" fill="grey">possible_crtcs</text>
</g>
<!-- Node4&#45;&gt;Node1 -->
<g id="edge11_Node000001_Node000004" class="edge">
<title>Node4&#45;&gt;Node1</title>
<g id="a_edge11_Node000001_Node000004"><a xlink:title=" ">
<path fill="none" stroke="#9a32cd" stroke-dasharray="5,2" d="M217.02,-188.23C213.23,-206.1 207.7,-232.24 204.84,-245.72"/>
<polygon fill="#9a32cd" stroke="#9a32cd" points="220.46,-188.86 219.11,-178.36 213.61,-187.41 220.46,-188.86"/>
</a>
</g>
<text text-anchor="start" x="218.48" y="-217" font-family="Helvetica,sans-Serif" font-size="10.00" fill="grey">clone_modes</text>
<text text-anchor="start" x="218.48" y="-202" font-family="Helvetica,sans-Serif" font-size="10.00" fill="grey">modes</text>
</g>
<!-- Node4&#45;&gt;Node2 -->
<g id="edge9_Node000002_Node000004" class="edge">
<title>Node4&#45;&gt;Node2</title>
<g id="a_edge9_Node000002_Node000004"><a xlink:title=" ">
<path fill="none" stroke="#9a32cd" stroke-dasharray="5,2" d="M191.91,-154.81C182.59,-150.59 172.28,-145.75 162.98,-141 149.33,-134.03 146.48,-131.26 132.98,-124 121.56,-117.86 108.56,-111.23 98.42,-106.14"/>
<polygon fill="#9a32cd" stroke="#9a32cd" points="190.62,-158.07 201.18,-158.96 193.48,-151.68 190.62,-158.07"/>
</a>
</g>
<text text-anchor="start" x="165.98" y="-129.5" font-family="Helvetica,sans-Serif" font-size="10.00" fill="grey">modes</text>
</g>
<!-- Node4&#45;&gt;Node3 -->
<g id="edge5_Node000003_Node000004" class="edge">
<title>Node4&#45;&gt;Node3</title>
<g id="a_edge5_Node000003_Node000004"><a xlink:title=" ">
<path fill="none" stroke="#9a32cd" stroke-dasharray="5,2" d="M222.91,-148.93C224.72,-121.08 223.83,-68.4 195.98,-37 184.44,-23.99 166.52,-17.32 150.28,-13.92"/>
<polygon fill="#9a32cd" stroke="#9a32cd" points="219.42,-148.66 222.07,-158.91 226.39,-149.24 219.42,-148.66"/>
</a>
</g>
<text text-anchor="start" x="224.98" y="-93.5" font-family="Helvetica,sans-Serif" font-size="10.00" fill="grey">current_mode</text>
</g>
<!-- Node5 -->
<g id="Node000005" class="node">
<title>Node5</title>
<g id="a_Node000005"><a xlink:href="structMateRRScreen.html" target="_top" xlink:title=" ">
<polygon fill="white" stroke="#666666" points="459.98,-106 371.98,-106 371.98,-87 459.98,-87 459.98,-106"/>
<text text-anchor="middle" x="415.98" y="-94" font-family="Helvetica,sans-Serif" font-size="10.00">MateRRScreen</text>
</a>
</g>
</g>
<!-- Node5&#45;&gt;Node1 -->
<g id="edge12_Node000001_Node000005" class="edge">
<title>Node5&#45;&gt;Node1</title>
<g id="a_edge12_Node000001_Node000005"><a xlink:title=" ">
<path fill="none" stroke="#9a32cd" stroke-dasharray="5,2" d="M403.97,-114.47C395.4,-126.72 383.73,-143.71 373.98,-159 354.8,-189.08 362.06,-207.34 332.98,-228 304.91,-247.95 265.29,-253.64 237.19,-254.91"/>
<polygon fill="#9a32cd" stroke="#9a32cd" points="406.94,-116.34 409.83,-106.14 401.21,-112.31 406.94,-116.34"/>
</a>
</g>
<text text-anchor="start" x="377.48" y="-165.5" font-family="Helvetica,sans-Serif" font-size="10.00" fill="grey">screen</text>
</g>
<!-- Node6&#45;&gt;Node5 -->
<g id="edge13_Node000005_Node000006" class="edge">
<title>Node6&#45;&gt;Node5</title>
<g id="a_edge13_Node000005_Node000006"><a xlink:title=" ">
<path fill="none" stroke="#9a32cd" stroke-dasharray="5,2" d="M467.58,-151.41C454.11,-137.33 435.05,-117.42 424.26,-106.15"/>
<polygon fill="#9a32cd" stroke="#9a32cd" points="465.32,-154.11 474.77,-158.92 470.38,-149.27 465.32,-154.11"/>
</a>
</g>
<text text-anchor="start" x="460.48" y="-129.5" font-family="Helvetica,sans-Serif" font-size="10.00" fill="grey">priv</text>
</g>
</g>
</svg>

<g id="navigator" transform="translate(0 0)" fill="#404254">
  <rect fill="#f2f5e9" fill-opacity="0.5" stroke="#606060" stroke-width=".5" x="0" y="0" width="60" height="60"/>
  <use id="zoomplus" xlink:href="#zoomPlus" x="17" y="9" onmousedown="handleZoom(evt,'in')"/>
  <use id="zoomminus" xlink:href="#zoomMin" x="42" y="9" onmousedown="handleZoom(evt,'out')"/>
  <use id="reset" xlink:href="#resetDef" x="30" y="36" onmousedown="handleReset()"/>
   <use id="arrowup" xlink:href="#arrowUp" x="0" y="0" onmousedown="handlePan(0,-1)"/>
  <use id="arrowright" xlink:href="#arrowRight" x="0" y="0" onmousedown="handlePan(1,0)"/>
  <use id="arrowdown" xlink:href="#arrowDown" x="0" y="0" onmousedown="handlePan(0,1)"/>
  <use id="arrowleft" xlink:href="#arrowLeft" x="0" y="0" onmousedown="handlePan(-1,0)"/>
</g>
<svg viewBox="0 0 15 15" width="100%" height="30px" preserveAspectRatio="xMaxYMin meet">
 <g id="arrow_out" transform="scale(0.3 0.3)">
  <a xlink:href="structScreenInfo__coll__graph_org.svg" target="_base">
   <rect id="button" ry="5" rx="5" y="6" x="6" height="38" width="38"
        fill="#f2f5e9" fill-opacity="0.5" stroke="#606060" stroke-width="1.0"/>
   <path id="arrow"
     d="M 11.500037,31.436501 C 11.940474,20.09759 22.043105,11.32322 32.158766,21.979434 L 37.068811,17.246167 C 37.068811,17.246167 37.088388,32 37.088388,32 L 22.160133,31.978069 C 22.160133,31.978069 26.997745,27.140456 26.997745,27.140456 C 18.528582,18.264221 13.291696,25.230495 11.500037,31.436501 z"
     style="fill:#404040;"/>
  </a>
 </g>
</svg>

<style type='text/css'>
<![CDATA[
[data-mouse-over-selected='false'] { opacity: 0.7; }
[data-mouse-over-selected='true']  { opacity: 1.0; }
]]>
</style>
<script type="application/ecmascript"><![CDATA[
document.addEventListener('DOMContentLoaded', (event) => {
  highlightEdges();
  highlightAdjacentNodes();
});
]]></script>
</svg>
