<?xml version="1.0" encoding="UTF-8" standalone="no"?>
<!DOCTYPE svg PUBLIC "-//W3C//DTD SVG 1.1//EN"
 "http://www.w3.org/Graphics/SVG/1.1/DTD/svg11.dtd">
<!-- Generated by graphviz version 2.43.0 (0)
 -->
<!-- Title: CactAddCapabilityDialog Pages: 1 -->
<svg width="613pt" height="254pt"
 viewBox="0.00 0.00 613.00 254.00" xmlns="http://www.w3.org/2000/svg" xmlns:xlink="http://www.w3.org/1999/xlink">
<g id="graph0" class="graph" transform="scale(1 1) rotate(0) translate(4 250)">
<title>CactAddCapabilityDialog</title>
<!-- Node1 -->
<g id="Node000001" class="node">
<title>Node1</title>
<g id="a_Node000001"><a xlink:title=" ">
<polygon fill="#999999" stroke="#666666" points="539.5,-19 401.5,-19 401.5,0 539.5,0 539.5,-19"/>
<text text-anchor="middle" x="470.5" y="-7" font-family="Helvetica,sans-Serif" font-size="10.00">CactAddCapabilityDialog</text>
</a>
</g>
</g>
<!-- Node2 -->
<g id="Node000002" class="node">
<title>Node2</title>
<g id="a_Node000002"><a xlink:href="structBaseDialog.html" target="_top" xlink:title=" ">
<polygon fill="white" stroke="#666666" points="443.5,-96.5 371.5,-96.5 371.5,-77.5 443.5,-77.5 443.5,-96.5"/>
<text text-anchor="middle" x="407.5" y="-84.5" font-family="Helvetica,sans-Serif" font-size="10.00">BaseDialog</text>
</a>
</g>
</g>
<!-- Node2&#45;&gt;Node1 -->
<g id="edge1_Node000001_Node000002" class="edge">
<title>Node2&#45;&gt;Node1</title>
<g id="a_edge1_Node000001_Node000002"><a xlink:title=" ">
<path fill="none" stroke="#9a32cd" stroke-dasharray="5,2" d="M421.23,-69.55C434.2,-54 453.15,-31.29 463.36,-19.06"/>
<polygon fill="#9a32cd" stroke="#9a32cd" points="418.45,-67.42 414.73,-77.34 423.82,-71.9 418.45,-67.42"/>
</a>
</g>
<text text-anchor="start" x="451.5" y="-42.5" font-family="Helvetica,sans-Serif" font-size="10.00" fill="grey">parent</text>
</g>
<!-- Node3 -->
<g id="Node000003" class="node">
<title>Node3</title>
<g id="a_Node000003"><a xlink:href="structBaseWindow.html" target="_top" xlink:title=" ">
<polygon fill="white" stroke="#666666" points="353.5,-174 273.5,-174 273.5,-155 353.5,-155 353.5,-174"/>
<text text-anchor="middle" x="313.5" y="-162" font-family="Helvetica,sans-Serif" font-size="10.00">BaseWindow</text>
</a>
</g>
</g>
<!-- Node3&#45;&gt;Node2 -->
<g id="edge2_Node000002_Node000003" class="edge">
<title>Node3&#45;&gt;Node2</title>
<g id="a_edge2_Node000002_Node000003"><a xlink:title=" ">
<path fill="none" stroke="#9a32cd" stroke-dasharray="5,2" d="M333.61,-148.52C338.51,-144.8 343.72,-140.79 348.5,-137 365.82,-123.26 385.48,-106.74 397.17,-96.82"/>
<polygon fill="#9a32cd" stroke="#9a32cd" points="331.15,-145.99 325.27,-154.8 335.36,-151.58 331.15,-145.99"/>
</a>
</g>
<text text-anchor="start" x="371.5" y="-125.5" font-family="Helvetica,sans-Serif" font-size="10.00" fill="grey">parent</text>
</g>
<!-- Node4 -->
<g id="Node000004" class="node">
<title>Node4</title>
<g id="a_Node000004"><a xlink:title=" ">
<polygon fill="white" stroke="#666666" points="281,-96.5 162,-96.5 162,-77.5 281,-77.5 281,-96.5"/>
<text text-anchor="middle" x="221.5" y="-84.5" font-family="Helvetica,sans-Serif" font-size="10.00">_BaseWindowPrivate</text>
</a>
</g>
</g>
<!-- Node3&#45;&gt;Node4 -->
<g id="edge4_Node000004_Node000003" class="edge">
<title>Node3&#45;&gt;Node4</title>
<g id="a_edge4_Node000004_Node000003"><a xlink:title=" ">
<path fill="none" stroke="#9a32cd" stroke-dasharray="5,2" d="M272.11,-151.07C264.03,-147.4 256.05,-142.77 249.5,-137 236.85,-125.86 228.56,-107.57 224.48,-96.77"/>
<polygon fill="#9a32cd" stroke="#9a32cd" points="270.97,-154.39 281.55,-154.95 273.63,-147.91 270.97,-154.39"/>
</a>
</g>
<text text-anchor="start" x="252.5" y="-125.5" font-family="Helvetica,sans-Serif" font-size="10.00" fill="grey">parent</text>
</g>
<!-- Node4&#45;&gt;Node3 -->
<g id="edge3_Node000003_Node000004" class="edge">
<title>Node4&#45;&gt;Node3</title>
<g id="a_edge3_Node000003_Node000004"><a xlink:title=" ">
<path fill="none" stroke="#9a32cd" stroke-dasharray="5,2" d="M260.79,-100.45C271.67,-105.28 282.86,-111.69 291.5,-120 301.63,-129.74 307.87,-145.14 311.01,-154.76"/>
<polygon fill="#9a32cd" stroke="#9a32cd" points="261.96,-97.14 251.38,-96.61 259.32,-103.63 261.96,-97.14"/>
</a>
</g>
<text text-anchor="start" x="307" y="-125.5" font-family="Helvetica,sans-Serif" font-size="10.00" fill="grey">private</text>
</g>
<!-- Node5 -->
<g id="Node000005" class="node">
<title>Node5</title>
<g id="a_Node000005"><a xlink:href="structBaseApplication.html" target="_top" xlink:title=" ">
<polygon fill="white" stroke="#666666" points="130,-174 35,-174 35,-155 130,-155 130,-174"/>
<text text-anchor="middle" x="82.5" y="-162" font-family="Helvetica,sans-Serif" font-size="10.00">BaseApplication</text>
</a>
</g>
</g>
<!-- Node5&#45;&gt;Node4 -->
<g id="edge5_Node000004_Node000005" class="edge">
<title>Node5&#45;&gt;Node4</title>
<g id="a_edge5_Node000004_Node000005"><a xlink:title=" ">
<path fill="none" stroke="#9a32cd" stroke-dasharray="5,2" d="M95.09,-146.96C102.73,-137.9 113.18,-127.11 124.5,-120 141.77,-109.15 163.1,-101.59 181.35,-96.56"/>
<polygon fill="#9a32cd" stroke="#9a32cd" points="92.22,-144.95 88.68,-154.94 97.67,-149.33 92.22,-144.95"/>
</a>
</g>
<text text-anchor="start" x="128" y="-125.5" font-family="Helvetica,sans-Serif" font-size="10.00" fill="grey">application</text>
</g>
<!-- Node6 -->
<g id="Node000006" class="node">
<title>Node6</title>
<g id="a_Node000006"><a xlink:title=" ">
<polygon fill="white" stroke="#666666" points="135,-246 0,-246 0,-227 135,-227 135,-246"/>
<text text-anchor="middle" x="67.5" y="-234" font-family="Helvetica,sans-Serif" font-size="10.00">_BaseApplicationPrivate</text>
</a>
</g>
</g>
<!-- Node6&#45;&gt;Node5 -->
<g id="edge6_Node000005_Node000006" class="edge">
<title>Node6&#45;&gt;Node5</title>
<g id="a_edge6_Node000005_Node000006"><a xlink:title=" ">
<path fill="none" stroke="#9a32cd" stroke-dasharray="5,2" d="M71.47,-216.99C74.44,-203.13 78.37,-184.79 80.65,-174.15"/>
<polygon fill="#9a32cd" stroke="#9a32cd" points="68.01,-216.41 69.34,-226.92 74.86,-217.87 68.01,-216.41"/>
</a>
</g>
<text text-anchor="start" x="81" y="-197.5" font-family="Helvetica,sans-Serif" font-size="10.00" fill="grey">private</text>
</g>
<!-- Node7 -->
<g id="Node000007" class="node">
<title>Node7</title>
<g id="a_Node000007"><a xlink:href="structBaseBuilder.html" target="_top" xlink:title=" ">
<polygon fill="white" stroke="#666666" points="241,-174 166,-174 166,-155 241,-155 241,-174"/>
<text text-anchor="middle" x="203.5" y="-162" font-family="Helvetica,sans-Serif" font-size="10.00">BaseBuilder</text>
</a>
</g>
</g>
<!-- Node7&#45;&gt;Node4 -->
<g id="edge7_Node000004_Node000007" class="edge">
<title>Node7&#45;&gt;Node4</title>
<g id="a_edge7_Node000004_Node000007"><a xlink:title=" ">
<path fill="none" stroke="#9a32cd" stroke-dasharray="5,2" d="M192.93,-146.13C189.38,-138.06 187.09,-128.41 190.5,-120 194.33,-110.54 202.45,-102.32 209.42,-96.59"/>
<polygon fill="#9a32cd" stroke="#9a32cd" points="189.84,-147.77 197.59,-155 196.04,-144.52 189.84,-147.77"/>
</a>
</g>
<text text-anchor="start" x="193.5" y="-125.5" font-family="Helvetica,sans-Serif" font-size="10.00" fill="grey">builder</text>
</g>
<!-- Node8 -->
<g id="Node000008" class="node">
<title>Node8</title>
<g id="a_Node000008"><a xlink:title=" ">
<polygon fill="white" stroke="#666666" points="268,-246 153,-246 153,-227 268,-227 268,-246"/>
<text text-anchor="middle" x="210.5" y="-234" font-family="Helvetica,sans-Serif" font-size="10.00">_BaseBuilderPrivate</text>
</a>
</g>
</g>
<!-- Node8&#45;&gt;Node7 -->
<g id="edge8_Node000007_Node000008" class="edge">
<title>Node8&#45;&gt;Node7</title>
<g id="a_edge8_Node000007_Node000008"><a xlink:title=" ">
<path fill="none" stroke="#9a32cd" stroke-dasharray="5,2" d="M208.61,-216.58C207.23,-202.76 205.42,-184.68 204.37,-174.15"/>
<polygon fill="#9a32cd" stroke="#9a32cd" points="205.16,-217.31 209.64,-226.92 212.13,-216.62 205.16,-217.31"/>
</a>
</g>
<text text-anchor="start" x="212" y="-197.5" font-family="Helvetica,sans-Serif" font-size="10.00" fill="grey">private</text>
</g>
<!-- Node9 -->
<g id="Node000009" class="node">
<title>Node9</title>
<g id="a_Node000009"><a xlink:title=" ">
<polygon fill="white" stroke="#666666" points="494.5,-174 382.5,-174 382.5,-155 494.5,-155 494.5,-174"/>
<text text-anchor="middle" x="438.5" y="-162" font-family="Helvetica,sans-Serif" font-size="10.00">_BaseDialogPrivate</text>
</a>
</g>
</g>
<!-- Node9&#45;&gt;Node2 -->
<g id="edge9_Node000002_Node000009" class="edge">
<title>Node9&#45;&gt;Node2</title>
<g id="a_edge9_Node000002_Node000009"><a xlink:title=" ">
<path fill="none" stroke="#9a32cd" stroke-dasharray="5,2" d="M431.03,-145.29C424.68,-129.84 415.85,-108.34 411.01,-96.56"/>
<polygon fill="#9a32cd" stroke="#9a32cd" points="427.91,-146.92 434.94,-154.84 434.38,-144.26 427.91,-146.92"/>
</a>
</g>
<text text-anchor="start" x="432" y="-125.5" font-family="Helvetica,sans-Serif" font-size="10.00" fill="grey">private</text>
</g>
<!-- Node10 -->
<g id="Node000010" class="node">
<title>Node10</title>
<g id="a_Node000010"><a xlink:title=" ">
<polygon fill="white" stroke="#666666" points="605,-102 462,-102 462,-72 605,-72 605,-102"/>
<text text-anchor="start" x="470" y="-90" font-family="Helvetica,sans-Serif" font-size="10.00">_CactAddCapabilityDialog</text>
<text text-anchor="middle" x="533.5" y="-79" font-family="Helvetica,sans-Serif" font-size="10.00">Private</text>
</a>
</g>
</g>
<!-- Node10&#45;&gt;Node1 -->
<g id="edge10_Node000001_Node000010" class="edge">
<title>Node10&#45;&gt;Node1</title>
<g id="a_edge10_Node000001_Node000010"><a xlink:title=" ">
<path fill="none" stroke="#9a32cd" stroke-dasharray="5,2" d="M515.09,-63.94C502.54,-48.9 486.62,-29.82 477.6,-19.01"/>
<polygon fill="#9a32cd" stroke="#9a32cd" points="512.56,-66.36 521.65,-71.8 517.93,-61.88 512.56,-66.36"/>
</a>
</g>
<text text-anchor="start" x="509" y="-42.5" font-family="Helvetica,sans-Serif" font-size="10.00" fill="grey">private</text>
</g>
</g>
</svg>
