<?xml version="1.0" encoding="UTF-8" standalone="no"?>
<!DOCTYPE svg PUBLIC "-//W3C//DTD SVG 1.1//EN"
 "http://www.w3.org/Graphics/SVG/1.1/DTD/svg11.dtd">
<!-- Generated by graphviz version 2.43.0 (0)
 -->
<!-- Title: NAObjectProfileClass Pages: 1 -->
<svg width="364pt" height="243pt"
 viewBox="0.00 0.00 363.50 243.00" xmlns="http://www.w3.org/2000/svg" xmlns:xlink="http://www.w3.org/1999/xlink">
<g id="graph0" class="graph" transform="scale(1 1) rotate(0) translate(4 239)">
<title>NAObjectProfileClass</title>
<!-- Node1 -->
<g id="Node000001" class="node">
<title>Node1</title>
<g id="a_Node000001"><a xlink:title=" ">
<polygon fill="#999999" stroke="#666666" points="261.5,-19 142.5,-19 142.5,0 261.5,0 261.5,-19"/>
<text text-anchor="middle" x="202" y="-7" font-family="Helvetica,sans-Serif" font-size="10.00">NAObjectProfileClass</text>
</a>
</g>
</g>
<!-- Node2 -->
<g id="Node000002" class="node">
<title>Node2</title>
<g id="a_Node000002"><a xlink:href="structNAObjectIdClass.html" target="_top" xlink:title=" ">
<polygon fill="white" stroke="#666666" points="178,-91 80,-91 80,-72 178,-72 178,-91"/>
<text text-anchor="middle" x="129" y="-79" font-family="Helvetica,sans-Serif" font-size="10.00">NAObjectIdClass</text>
</a>
</g>
</g>
<!-- Node2&#45;&gt;Node1 -->
<g id="edge1_Node000001_Node000002" class="edge">
<title>Node2&#45;&gt;Node1</title>
<g id="a_edge1_Node000001_Node000002"><a xlink:title=" ">
<path fill="none" stroke="#9a32cd" stroke-dasharray="5,2" d="M145.37,-64.8C160.07,-50.71 181.12,-30.53 192.98,-19.15"/>
<polygon fill="#9a32cd" stroke="#9a32cd" points="142.75,-62.47 137.95,-71.92 147.59,-67.52 142.75,-62.47"/>
</a>
</g>
<text text-anchor="start" x="178" y="-42.5" font-family="Helvetica,sans-Serif" font-size="10.00" fill="grey">parent</text>
</g>
<!-- Node3 -->
<g id="Node000003" class="node">
<title>Node3</title>
<g id="a_Node000003"><a xlink:href="structNAObjectClass.html" target="_top" xlink:title=" ">
<polygon fill="white" stroke="#666666" points="108.5,-163 19.5,-163 19.5,-144 108.5,-144 108.5,-163"/>
<text text-anchor="middle" x="64" y="-151" font-family="Helvetica,sans-Serif" font-size="10.00">NAObjectClass</text>
</a>
</g>
</g>
<!-- Node3&#45;&gt;Node2 -->
<g id="edge2_Node000002_Node000003" class="edge">
<title>Node3&#45;&gt;Node2</title>
<g id="a_edge2_Node000002_Node000003"><a xlink:title=" ">
<path fill="none" stroke="#9a32cd" stroke-dasharray="5,2" d="M78.94,-136.41C92.01,-122.33 110.5,-102.42 120.96,-91.15"/>
<polygon fill="#9a32cd" stroke="#9a32cd" points="76.21,-134.21 71.97,-143.92 81.34,-138.97 76.21,-134.21"/>
</a>
</g>
<text text-anchor="start" x="108" y="-114.5" font-family="Helvetica,sans-Serif" font-size="10.00" fill="grey">parent</text>
</g>
<!-- Node4 -->
<g id="Node000004" class="node">
<title>Node4</title>
<g id="a_Node000004"><a xlink:title=" ">
<polygon fill="white" stroke="#666666" points="128,-235 0,-235 0,-216 128,-216 128,-235"/>
<text text-anchor="middle" x="64" y="-223" font-family="Helvetica,sans-Serif" font-size="10.00">_NAObjectClassPrivate</text>
</a>
</g>
</g>
<!-- Node4&#45;&gt;Node3 -->
<g id="edge3_Node000003_Node000004" class="edge">
<title>Node4&#45;&gt;Node3</title>
<g id="a_edge3_Node000003_Node000004"><a xlink:title=" ">
<path fill="none" stroke="#9a32cd" stroke-dasharray="5,2" d="M64,-205.58C64,-191.76 64,-173.68 64,-163.15"/>
<polygon fill="#9a32cd" stroke="#9a32cd" points="60.5,-205.92 64,-215.92 67.5,-205.92 60.5,-205.92"/>
</a>
</g>
<text text-anchor="start" x="67.5" y="-186.5" font-family="Helvetica,sans-Serif" font-size="10.00" fill="grey">private</text>
</g>
<!-- Node5 -->
<g id="Node000005" class="node">
<title>Node5</title>
<g id="a_Node000005"><a xlink:title=" ">
<polygon fill="white" stroke="#666666" points="263.5,-163 126.5,-163 126.5,-144 263.5,-144 263.5,-163"/>
<text text-anchor="middle" x="195" y="-151" font-family="Helvetica,sans-Serif" font-size="10.00">_NAObjectIdClassPrivate</text>
</a>
</g>
</g>
<!-- Node5&#45;&gt;Node2 -->
<g id="edge4_Node000002_Node000005" class="edge">
<title>Node5&#45;&gt;Node2</title>
<g id="a_edge4_Node000002_Node000005"><a xlink:title=" ">
<path fill="none" stroke="#9a32cd" stroke-dasharray="5,2" d="M179.83,-136.41C166.56,-122.33 147.78,-102.42 137.16,-91.15"/>
<polygon fill="#9a32cd" stroke="#9a32cd" points="177.5,-139.04 186.91,-143.92 182.59,-134.24 177.5,-139.04"/>
</a>
</g>
<text text-anchor="start" x="173.5" y="-114.5" font-family="Helvetica,sans-Serif" font-size="10.00" fill="grey">private</text>
</g>
<!-- Node6 -->
<g id="Node000006" class="node">
<title>Node6</title>
<g id="a_Node000006"><a xlink:title=" ">
<polygon fill="white" stroke="#666666" points="355.5,-91 196.5,-91 196.5,-72 355.5,-72 355.5,-91"/>
<text text-anchor="middle" x="276" y="-79" font-family="Helvetica,sans-Serif" font-size="10.00">_NAObjectProfileClassPrivate</text>
</a>
</g>
</g>
<!-- Node6&#45;&gt;Node1 -->
<g id="edge5_Node000001_Node000006" class="edge">
<title>Node6&#45;&gt;Node1</title>
<g id="a_edge5_Node000001_Node000006"><a xlink:title=" ">
<path fill="none" stroke="#9a32cd" stroke-dasharray="5,2" d="M259.41,-64.8C244.5,-50.71 223.17,-30.53 211.15,-19.15"/>
<polygon fill="#9a32cd" stroke="#9a32cd" points="257.26,-67.59 266.93,-71.92 262.07,-62.5 257.26,-67.59"/>
</a>
</g>
<text text-anchor="start" x="250.5" y="-42.5" font-family="Helvetica,sans-Serif" font-size="10.00" fill="grey">private</text>
</g>
</g>
</svg>
