<?xml version="1.0" encoding="UTF-8" standalone="no"?>
<!DOCTYPE svg PUBLIC "-//W3C//DTD SVG 1.1//EN"
 "http://www.w3.org/Graphics/SVG/1.1/DTD/svg11.dtd">
<!-- Generated by graphviz version 2.43.0 (0)
 -->
<!-- Title: terminal&#45;profile.c Pages: 1 -->
<!--zoomable 247 -->

<svg id="main" version="1.1" xmlns="http://www.w3.org/2000/svg" xmlns:xlink="http://www.w3.org/1999/xlink" xml:space="preserve" onload="init(evt)">

<style type="text/css"><![CDATA[
.node, .edge {opacity: 0.7;}
.node.selected, .edge.selected {opacity: 1;}
.edge:hover path { stroke: red; }
.edge:hover polygon { stroke: red; fill: red; }
]]></style>

<defs>
  <circle id="rim" cx="0" cy="0" r="7"/>
  <circle id="rim2" cx="0" cy="0" r="3.5"/>
  <g id="zoomPlus">
    <use xlink:href="#rim" fill="#404040"><set attributeName="fill" to="#808080" begin="zoomplus.mouseover" end="zoomplus.mouseout"/></use>
    <path d="M-4,0h8M0,-4v8" fill="none" stroke="white" stroke-width="1.5" pointer-events="none"/>
  </g>
  <g id="zoomMin">
    <use xlink:href="#rim" fill="#404040"><set attributeName="fill" to="#808080" begin="zoomminus.mouseover" end="zoomminus.mouseout"/></use>
    <path d="M-4,0h8" fill="none" stroke="white" stroke-width="1.5" pointer-events="none"/>
  </g>
  <g id="arrowUp" transform="translate(30 24)">
    <use xlink:href="#rim"/>
    <path pointer-events="none" fill="none" stroke="white" stroke-width="1.5" d="M0,-3.0v7 M-2.5,-0.5L0,-3.0L2.5,-0.5"/>
  </g>
  <g id="arrowRight" transform="rotate(90) translate(36 -43)">
    <use xlink:href="#rim"/>
    <path pointer-events="none" fill="none" stroke="white" stroke-width="1.5" d="M0,-3.0v7 M-2.5,-0.5L0,-3.0L2.5,-0.5"/>
  </g>
  <g id="arrowDown" transform="rotate(180) translate(-30 -48)">
    <use xlink:href="#rim"/>
    <path pointer-events="none" fill="none" stroke="white" stroke-width="1.5" d="M0,-3.0v7 M-2.5,-0.5L0,-3.0L2.5,-0.5"/>
  </g>
  <g id="arrowLeft" transform="rotate(270) translate(-36 17)">
    <use xlink:href="#rim"/>
    <path pointer-events="none" fill="none" stroke="white" stroke-width="1.5" d="M0,-3.0v7 M-2.5,-0.5L0,-3.0L2.5,-0.5"/>
  </g>
  <g id="resetDef">
    <use xlink:href="#rim2" fill="#404040"><set attributeName="fill" to="#808080" begin="reset.mouseover" end="reset.mouseout"/></use>
  </g>
</defs>
<script type="application/ecmascript">
var viewWidth = 1070;
var viewHeight = 247;
var sectionId = 'dynsection-0';
</script>
<script type="application/ecmascript" xlink:href="svg.min.js"/>
<svg id="graph" class="graph">
<g id="viewport">
<title>terminal&#45;profile.c</title>
<!-- Node1 -->
<g id="Node000001" class="node">
<title>Node1</title>
<g id="a_Node000001"><a xlink:title=" ">
<polygon fill="#999999" stroke="#666666" points="378,-239 277,-239 277,-220 378,-220 378,-239"/>
<text text-anchor="middle" x="327.5" y="-227" font-family="Helvetica,sans-Serif" font-size="10.00">terminal&#45;profile.c</text>
</a>
</g>
</g>
<!-- Node2 -->
<g id="Node000002" class="node">
<title>Node2</title>
<g id="a_Node000002"><a xlink:title=" ">
<polygon fill="#e0e0e0" stroke="#999999" points="55,-184 0,-184 0,-165 55,-165 55,-184"/>
<text text-anchor="middle" x="27.5" y="-172" font-family="Helvetica,sans-Serif" font-size="10.00">config.h</text>
</a>
</g>
</g>
<!-- Node1&#45;&gt;Node2 -->
<g id="edge1_Node000001_Node000002" class="edge">
<title>Node1&#45;&gt;Node2</title>
<g id="a_edge1_Node000001_Node000002"><a xlink:title=" ">
<path fill="none" stroke="#63b8ff" d="M276.71,-220.94C225.61,-213.11 144.31,-200.04 65.47,-184.3"/>
<polygon fill="#63b8ff" stroke="#63b8ff" points="65.86,-180.81 55.37,-182.27 64.48,-187.67 65.86,-180.81"/>
</a>
</g>
</g>
<!-- Node3 -->
<g id="Node000003" class="node">
<title>Node3</title>
<g id="a_Node000003"><a xlink:title=" ">
<polygon fill="#e0e0e0" stroke="#999999" points="126,-184 73,-184 73,-165 126,-165 126,-184"/>
<text text-anchor="middle" x="99.5" y="-172" font-family="Helvetica,sans-Serif" font-size="10.00">string.h</text>
</a>
</g>
</g>
<!-- Node1&#45;&gt;Node3 -->
<g id="edge2_Node000001_Node000003" class="edge">
<title>Node1&#45;&gt;Node3</title>
<g id="a_edge2_Node000001_Node000003"><a xlink:title=" ">
<path fill="none" stroke="#63b8ff" d="M289.75,-219.93C252.87,-211.53 194.89,-198.25 136.07,-184.35"/>
<polygon fill="#63b8ff" stroke="#63b8ff" points="136.78,-180.93 126.25,-182.03 135.17,-187.74 136.78,-180.93"/>
</a>
</g>
</g>
<!-- Node4 -->
<g id="Node000004" class="node">
<title>Node4</title>
<g id="a_Node000004"><a xlink:title=" ">
<polygon fill="#e0e0e0" stroke="#999999" points="197,-184 144,-184 144,-165 197,-165 197,-184"/>
<text text-anchor="middle" x="170.5" y="-172" font-family="Helvetica,sans-Serif" font-size="10.00">stdlib.h</text>
</a>
</g>
</g>
<!-- Node1&#45;&gt;Node4 -->
<g id="edge3_Node000001_Node000004" class="edge">
<title>Node1&#45;&gt;Node4</title>
<g id="a_edge3_Node000001_Node000004"><a xlink:title=" ">
<path fill="none" stroke="#63b8ff" d="M302.28,-219.98C276.14,-211.16 235.1,-197.31 205.77,-187.41"/>
<polygon fill="#63b8ff" stroke="#63b8ff" points="206.52,-183.96 195.92,-184.08 204.28,-190.6 206.52,-183.96"/>
</a>
</g>
</g>
<!-- Node5 -->
<g id="Node000005" class="node">
<title>Node5</title>
<g id="a_Node000005"><a xlink:title=" ">
<polygon fill="#e0e0e0" stroke="#999999" points="410.5,-19 350.5,-19 350.5,0 410.5,0 410.5,-19"/>
<text text-anchor="middle" x="380.5" y="-7" font-family="Helvetica,sans-Serif" font-size="10.00">gtk/gtk.h</text>
</a>
</g>
</g>
<!-- Node1&#45;&gt;Node5 -->
<g id="edge4_Node000001_Node000005" class="edge">
<title>Node1&#45;&gt;Node5</title>
<g id="a_edge4_Node000001_Node000005"><a xlink:title=" ">
<path fill="none" stroke="#63b8ff" d="M314.36,-219.83C276.55,-193.85 172.99,-114.69 218.5,-55 233.23,-35.67 297.43,-22.65 340.45,-15.92"/>
<polygon fill="#63b8ff" stroke="#63b8ff" points="340.99,-19.37 350.35,-14.42 339.94,-12.45 340.99,-19.37"/>
</a>
</g>
</g>
<!-- Node6 -->
<g id="Node000006" class="node">
<title>Node6</title>
<g id="a_Node000006"><a xlink:href="terminal-app_8h.html" target="_top" xlink:title=" ">
<polygon fill="white" stroke="#666666" points="515,-184 426,-184 426,-165 515,-165 515,-184"/>
<text text-anchor="middle" x="470.5" y="-172" font-family="Helvetica,sans-Serif" font-size="10.00">terminal&#45;app.h</text>
</a>
</g>
</g>
<!-- Node1&#45;&gt;Node6 -->
<g id="edge5_Node000001_Node000006" class="edge">
<title>Node1&#45;&gt;Node6</title>
<g id="a_edge5_Node000001_Node000006"><a xlink:title=" ">
<path fill="none" stroke="#63b8ff" d="M350.48,-219.98C374,-211.27 410.79,-197.63 437.44,-187.75"/>
<polygon fill="#63b8ff" stroke="#63b8ff" points="438.95,-190.93 447.11,-184.17 436.51,-184.36 438.95,-190.93"/>
</a>
</g>
</g>
<!-- Node8 -->
<g id="Node000008" class="node">
<title>Node8</title>
<g id="a_Node000008"><a xlink:href="terminal-screen_8h.html" target="_top" xlink:title=" ">
<polygon fill="white" stroke="#666666" points="424,-129 321,-129 321,-110 424,-110 424,-129"/>
<text text-anchor="middle" x="372.5" y="-117" font-family="Helvetica,sans-Serif" font-size="10.00">terminal&#45;screen.h</text>
</a>
</g>
</g>
<!-- Node1&#45;&gt;Node8 -->
<g id="edge22_Node000001_Node000008" class="edge">
<title>Node1&#45;&gt;Node8</title>
<g id="a_edge22_Node000001_Node000008"><a xlink:title=" ">
<path fill="none" stroke="#63b8ff" d="M331.18,-219.66C338.54,-202.01 355.17,-162.09 364.94,-138.64"/>
<polygon fill="#63b8ff" stroke="#63b8ff" points="368.28,-139.74 368.89,-129.16 361.82,-137.04 368.28,-139.74"/>
</a>
</g>
</g>
<!-- Node10 -->
<g id="Node000010" class="node">
<title>Node10</title>
<g id="a_Node000010"><a xlink:href="terminal-profile_8h.html" target="_top" xlink:title=" ">
<polygon fill="white" stroke="#666666" points="329,-74 228,-74 228,-55 329,-55 329,-74"/>
<text text-anchor="middle" x="278.5" y="-62" font-family="Helvetica,sans-Serif" font-size="10.00">terminal&#45;profile.h</text>
</a>
</g>
</g>
<!-- Node1&#45;&gt;Node10 -->
<g id="edge21_Node000001_Node000010" class="edge">
<title>Node1&#45;&gt;Node10</title>
<g id="a_edge21_Node000001_Node000010"><a xlink:title=" ">
<path fill="none" stroke="#63b8ff" d="M324.87,-219.74C317.19,-194.2 294.71,-119.43 284.13,-84.23"/>
<polygon fill="#63b8ff" stroke="#63b8ff" points="287.38,-82.88 281.15,-74.31 280.67,-84.89 287.38,-82.88"/>
</a>
</g>
</g>
<!-- Node13 -->
<g id="Node000013" class="node">
<title>Node13</title>
<g id="a_Node000013"><a xlink:href="terminal-debug_8h.html" target="_top" xlink:title=" ">
<polygon fill="white" stroke="#666666" points="757,-184 656,-184 656,-165 757,-165 757,-184"/>
<text text-anchor="middle" x="706.5" y="-172" font-family="Helvetica,sans-Serif" font-size="10.00">terminal&#45;debug.h</text>
</a>
</g>
</g>
<!-- Node1&#45;&gt;Node13 -->
<g id="edge15_Node000001_Node000013" class="edge">
<title>Node1&#45;&gt;Node13</title>
<g id="a_edge15_Node000001_Node000013"><a xlink:title=" ">
<path fill="none" stroke="#63b8ff" d="M378.22,-221.41C447.48,-211.72 571.48,-194.38 645.65,-184.01"/>
<polygon fill="#63b8ff" stroke="#63b8ff" points="646.36,-187.44 655.78,-182.59 645.39,-180.51 646.36,-187.44"/>
</a>
</g>
</g>
<!-- Node16 -->
<g id="Node000016" class="node">
<title>Node16</title>
<g id="a_Node000016"><a xlink:href="terminal-intl_8h.html" target="_top" xlink:title=" ">
<polygon fill="white" stroke="#666666" points="900.5,-184 814.5,-184 814.5,-165 900.5,-165 900.5,-184"/>
<text text-anchor="middle" x="857.5" y="-172" font-family="Helvetica,sans-Serif" font-size="10.00">terminal&#45;intl.h</text>
</a>
</g>
</g>
<!-- Node1&#45;&gt;Node16 -->
<g id="edge19_Node000001_Node000016" class="edge">
<title>Node1&#45;&gt;Node16</title>
<g id="a_edge19_Node000001_Node000016"><a xlink:title=" ">
<path fill="none" stroke="#63b8ff" d="M378.32,-223.42C478.76,-213.37 701.83,-191.07 804.24,-180.83"/>
<polygon fill="#63b8ff" stroke="#63b8ff" points="804.75,-184.29 814.35,-179.82 804.05,-177.33 804.75,-184.29"/>
</a>
</g>
</g>
<!-- Node18 -->
<g id="Node000018" class="node">
<title>Node18</title>
<g id="a_Node000018"><a xlink:href="terminal-type-builtins_8h.html" target="_top" xlink:title=" ">
<polygon fill="white" stroke="#666666" points="1061.5,-184 929.5,-184 929.5,-165 1061.5,-165 1061.5,-184"/>
<text text-anchor="middle" x="995.5" y="-172" font-family="Helvetica,sans-Serif" font-size="10.00">terminal&#45;type&#45;builtins.h</text>
</a>
</g>
</g>
<!-- Node1&#45;&gt;Node18 -->
<g id="edge23_Node000001_Node000018" class="edge">
<title>Node1&#45;&gt;Node18</title>
<g id="a_edge23_Node000001_Node000018"><a xlink:title=" ">
<path fill="none" stroke="#63b8ff" d="M378.13,-225.01C479.21,-217.95 713.15,-201.21 909.5,-184 912.71,-183.72 915.99,-183.42 919.31,-183.12"/>
<polygon fill="#63b8ff" stroke="#63b8ff" points="919.68,-186.6 929.31,-182.19 919.03,-179.63 919.68,-186.6"/>
</a>
</g>
</g>
<!-- Node6&#45;&gt;Node5 -->
<g id="edge6_Node000006_Node000005" class="edge">
<title>Node6&#45;&gt;Node5</title>
<g id="a_edge6_Node000006_Node000005"><a xlink:title=" ">
<path fill="none" stroke="#63b8ff" d="M478.58,-164.89C497.22,-144.82 542.16,-95.04 549.5,-74 552.28,-66.03 554.66,-61.69 549.5,-55 533.91,-34.77 465.71,-21.9 420.86,-15.46"/>
<polygon fill="#63b8ff" stroke="#63b8ff" points="421.22,-11.98 410.84,-14.07 420.26,-18.91 421.22,-11.98"/>
</a>
</g>
</g>
<!-- Node7 -->
<g id="Node000007" class="node">
<title>Node7</title>
<g id="a_Node000007"><a xlink:href="terminal-encoding_8h.html" target="_top" xlink:title=" ">
<polygon fill="white" stroke="#666666" points="541,-74 426,-74 426,-55 541,-55 541,-74"/>
<text text-anchor="middle" x="483.5" y="-62" font-family="Helvetica,sans-Serif" font-size="10.00">terminal&#45;encoding.h</text>
</a>
</g>
</g>
<!-- Node6&#45;&gt;Node7 -->
<g id="edge7_Node000006_Node000007" class="edge">
<title>Node6&#45;&gt;Node7</title>
<g id="a_edge7_Node000006_Node000007"><a xlink:title=" ">
<path fill="none" stroke="#63b8ff" d="M471.56,-164.66C473.67,-147.17 478.41,-107.8 481.24,-84.27"/>
<polygon fill="#63b8ff" stroke="#63b8ff" points="484.74,-84.51 482.46,-74.16 477.79,-83.67 484.74,-84.51"/>
</a>
</g>
</g>
<!-- Node6&#45;&gt;Node8 -->
<g id="edge9_Node000006_Node000008" class="edge">
<title>Node6&#45;&gt;Node8</title>
<g id="a_edge9_Node000006_Node000008"><a xlink:title=" ">
<path fill="none" stroke="#63b8ff" d="M454.75,-164.98C439.27,-156.61 415.41,-143.7 397.36,-133.95"/>
<polygon fill="#63b8ff" stroke="#63b8ff" points="398.99,-130.85 388.53,-129.17 395.66,-137.01 398.99,-130.85"/>
</a>
</g>
</g>
<!-- Node11 -->
<g id="Node000011" class="node">
<title>Node11</title>
<g id="a_Node000011"><a xlink:href="terminal-options_8h.html" target="_top" xlink:title=" ">
<polygon fill="white" stroke="#666666" points="644,-129 537,-129 537,-110 644,-110 644,-129"/>
<text text-anchor="middle" x="590.5" y="-117" font-family="Helvetica,sans-Serif" font-size="10.00">terminal&#45;options.h</text>
</a>
</g>
</g>
<!-- Node6&#45;&gt;Node11 -->
<g id="edge13_Node000006_Node000011" class="edge">
<title>Node6&#45;&gt;Node11</title>
<g id="a_edge13_Node000006_Node000011"><a xlink:title=" ">
<path fill="none" stroke="#63b8ff" d="M489.78,-164.98C509.17,-156.42 539.31,-143.11 561.57,-133.28"/>
<polygon fill="#63b8ff" stroke="#63b8ff" points="563.14,-136.41 570.87,-129.17 560.31,-130.01 563.14,-136.41"/>
</a>
</g>
</g>
<!-- Node7&#45;&gt;Node5 -->
<g id="edge8_Node000007_Node000005" class="edge">
<title>Node7&#45;&gt;Node5</title>
<g id="a_edge8_Node000007_Node000005"><a xlink:title=" ">
<path fill="none" stroke="#63b8ff" d="M466.95,-54.98C450.61,-46.57 425.37,-33.59 406.37,-23.81"/>
<polygon fill="#63b8ff" stroke="#63b8ff" points="407.84,-20.63 397.35,-19.17 404.64,-26.86 407.84,-20.63"/>
</a>
</g>
</g>
<!-- Node9 -->
<g id="Node000009" class="node">
<title>Node9</title>
<g id="a_Node000009"><a xlink:title=" ">
<polygon fill="#e0e0e0" stroke="#999999" points="407.5,-74 347.5,-74 347.5,-55 407.5,-55 407.5,-74"/>
<text text-anchor="middle" x="377.5" y="-62" font-family="Helvetica,sans-Serif" font-size="10.00">vte/vte.h</text>
</a>
</g>
</g>
<!-- Node8&#45;&gt;Node9 -->
<g id="edge10_Node000008_Node000009" class="edge">
<title>Node8&#45;&gt;Node9</title>
<g id="a_edge10_Node000008_Node000009"><a xlink:title=" ">
<path fill="none" stroke="#63b8ff" d="M373.33,-109.75C373.98,-102.8 374.92,-92.85 375.74,-84.13"/>
<polygon fill="#63b8ff" stroke="#63b8ff" points="379.23,-84.37 376.69,-74.09 372.27,-83.72 379.23,-84.37"/>
</a>
</g>
</g>
<!-- Node8&#45;&gt;Node10 -->
<g id="edge11_Node000008_Node000010" class="edge">
<title>Node8&#45;&gt;Node10</title>
<g id="a_edge11_Node000008_Node000010"><a xlink:title=" ">
<path fill="none" stroke="#63b8ff" d="M357.4,-109.98C342.68,-101.69 320.08,-88.94 302.83,-79.22"/>
<polygon fill="#63b8ff" stroke="#63b8ff" points="304.31,-76.03 293.88,-74.17 300.87,-82.13 304.31,-76.03"/>
</a>
</g>
</g>
<!-- Node10&#45;&gt;Node5 -->
<g id="edge12_Node000010_Node000005" class="edge">
<title>Node10&#45;&gt;Node5</title>
<g id="a_edge12_Node000010_Node000005"><a xlink:title=" ">
<path fill="none" stroke="#63b8ff" d="M294.89,-54.98C311.07,-46.57 336.07,-33.59 354.88,-23.81"/>
<polygon fill="#63b8ff" stroke="#63b8ff" points="356.55,-26.89 363.81,-19.17 353.33,-20.68 356.55,-26.89"/>
</a>
</g>
</g>
<!-- Node12 -->
<g id="Node000012" class="node">
<title>Node12</title>
<g id="a_Node000012"><a xlink:title=" ">
<polygon fill="#e0e0e0" stroke="#999999" points="668.5,-74 624.5,-74 624.5,-55 668.5,-55 668.5,-74"/>
<text text-anchor="middle" x="646.5" y="-62" font-family="Helvetica,sans-Serif" font-size="10.00">glib.h</text>
</a>
</g>
</g>
<!-- Node11&#45;&gt;Node12 -->
<g id="edge14_Node000011_Node000012" class="edge">
<title>Node11&#45;&gt;Node12</title>
<g id="a_edge14_Node000011_Node000012"><a xlink:title=" ">
<path fill="none" stroke="#63b8ff" d="M599.5,-109.98C607.69,-102.23 620.01,-90.58 629.97,-81.14"/>
<polygon fill="#63b8ff" stroke="#63b8ff" points="632.48,-83.59 637.34,-74.17 627.67,-78.5 632.48,-83.59"/>
</a>
</g>
</g>
<!-- Node13&#45;&gt;Node12 -->
<g id="edge16_Node000013_Node000012" class="edge">
<title>Node13&#45;&gt;Node12</title>
<g id="a_edge16_Node000013_Node000012"><a xlink:title=" ">
<path fill="none" stroke="#63b8ff" d="M701.59,-164.66C691.7,-146.85 669.2,-106.37 656.23,-83.01"/>
<polygon fill="#63b8ff" stroke="#63b8ff" points="659.23,-81.2 651.31,-74.16 653.11,-84.6 659.23,-81.2"/>
</a>
</g>
</g>
<!-- Node14 -->
<g id="Node000014" class="node">
<title>Node14</title>
<g id="a_Node000014"><a xlink:title=" ">
<polygon fill="#e0e0e0" stroke="#999999" points="852.5,-129 796.5,-129 796.5,-110 852.5,-110 852.5,-129"/>
<text text-anchor="middle" x="824.5" y="-117" font-family="Helvetica,sans-Serif" font-size="10.00">stdarg.h</text>
</a>
</g>
</g>
<!-- Node13&#45;&gt;Node14 -->
<g id="edge17_Node000013_Node000014" class="edge">
<title>Node13&#45;&gt;Node14</title>
<g id="a_edge17_Node000013_Node000014"><a xlink:title=" ">
<path fill="none" stroke="#63b8ff" d="M725.46,-164.98C744.53,-156.42 774.16,-143.11 796.05,-133.28"/>
<polygon fill="#63b8ff" stroke="#63b8ff" points="797.51,-136.46 805.2,-129.17 794.64,-130.07 797.51,-136.46"/>
</a>
</g>
</g>
<!-- Node15 -->
<g id="Node000015" class="node">
<title>Node15</title>
<g id="a_Node000015"><a xlink:title=" ">
<polygon fill="#e0e0e0" stroke="#999999" points="778,-129 701,-129 701,-110 778,-110 778,-129"/>
<text text-anchor="middle" x="739.5" y="-117" font-family="Helvetica,sans-Serif" font-size="10.00">glib/gstdio.h</text>
</a>
</g>
</g>
<!-- Node13&#45;&gt;Node15 -->
<g id="edge18_Node000013_Node000015" class="edge">
<title>Node13&#45;&gt;Node15</title>
<g id="a_edge18_Node000013_Node000015"><a xlink:title=" ">
<path fill="none" stroke="#63b8ff" d="M711.95,-164.75C716.51,-157.42 723.17,-146.73 728.79,-137.7"/>
<polygon fill="#63b8ff" stroke="#63b8ff" points="731.84,-139.43 734.15,-129.09 725.9,-135.73 731.84,-139.43"/>
</a>
</g>
</g>
<!-- Node17 -->
<g id="Node000017" class="node">
<title>Node17</title>
<g id="a_Node000017"><a xlink:title=" ">
<polygon fill="#e0e0e0" stroke="#999999" points="944.5,-129 870.5,-129 870.5,-110 944.5,-110 944.5,-129"/>
<text text-anchor="middle" x="907.5" y="-117" font-family="Helvetica,sans-Serif" font-size="10.00">glib/gi18n.h</text>
</a>
</g>
</g>
<!-- Node16&#45;&gt;Node17 -->
<g id="edge20_Node000016_Node000017" class="edge">
<title>Node16&#45;&gt;Node17</title>
<g id="a_edge20_Node000016_Node000017"><a xlink:title=" ">
<path fill="none" stroke="#63b8ff" d="M865.76,-164.75C872.96,-157.11 883.61,-145.82 892.35,-136.56"/>
<polygon fill="#63b8ff" stroke="#63b8ff" points="895.08,-138.76 899.4,-129.09 889.99,-133.96 895.08,-138.76"/>
</a>
</g>
</g>
<!-- Node19 -->
<g id="Node000019" class="node">
<title>Node19</title>
<g id="a_Node000019"><a xlink:title=" ">
<polygon fill="#e0e0e0" stroke="#999999" points="1040,-129 963,-129 963,-110 1040,-110 1040,-129"/>
<text text-anchor="middle" x="1001.5" y="-117" font-family="Helvetica,sans-Serif" font-size="10.00">glib&#45;object.h</text>
</a>
</g>
</g>
<!-- Node18&#45;&gt;Node19 -->
<g id="edge24_Node000018_Node000019" class="edge">
<title>Node18&#45;&gt;Node19</title>
<g id="a_edge24_Node000018_Node000019"><a xlink:title=" ">
<path fill="none" stroke="#63b8ff" d="M996.49,-164.75C997.28,-157.8 998.4,-147.85 999.39,-139.13"/>
<polygon fill="#63b8ff" stroke="#63b8ff" points="1002.88,-139.42 1000.53,-129.09 995.92,-138.63 1002.88,-139.42"/>
</a>
</g>
</g>
</g>
</svg>

<g id="navigator" transform="translate(0 0)" fill="#404254">
  <rect fill="#f2f5e9" fill-opacity="0.5" stroke="#606060" stroke-width=".5" x="0" y="0" width="60" height="60"/>
  <use id="zoomplus" xlink:href="#zoomPlus" x="17" y="9" onmousedown="handleZoom(evt,'in')"/>
  <use id="zoomminus" xlink:href="#zoomMin" x="42" y="9" onmousedown="handleZoom(evt,'out')"/>
  <use id="reset" xlink:href="#resetDef" x="30" y="36" onmousedown="handleReset()"/>
   <use id="arrowup" xlink:href="#arrowUp" x="0" y="0" onmousedown="handlePan(0,-1)"/>
  <use id="arrowright" xlink:href="#arrowRight" x="0" y="0" onmousedown="handlePan(1,0)"/>
  <use id="arrowdown" xlink:href="#arrowDown" x="0" y="0" onmousedown="handlePan(0,1)"/>
  <use id="arrowleft" xlink:href="#arrowLeft" x="0" y="0" onmousedown="handlePan(-1,0)"/>
</g>
<svg viewBox="0 0 15 15" width="100%" height="30px" preserveAspectRatio="xMaxYMin meet">
 <g id="arrow_out" transform="scale(0.3 0.3)">
  <a xlink:href="terminal-profile_8c__incl_org.svg" target="_base">
   <rect id="button" ry="5" rx="5" y="6" x="6" height="38" width="38"
        fill="#f2f5e9" fill-opacity="0.5" stroke="#606060" stroke-width="1.0"/>
   <path id="arrow"
     d="M 11.500037,31.436501 C 11.940474,20.09759 22.043105,11.32322 32.158766,21.979434 L 37.068811,17.246167 C 37.068811,17.246167 37.088388,32 37.088388,32 L 22.160133,31.978069 C 22.160133,31.978069 26.997745,27.140456 26.997745,27.140456 C 18.528582,18.264221 13.291696,25.230495 11.500037,31.436501 z"
     style="fill:#404040;"/>
  </a>
 </g>
</svg>

<style type='text/css'>
<![CDATA[
[data-mouse-over-selected='false'] { opacity: 0.7; }
[data-mouse-over-selected='true']  { opacity: 1.0; }
]]>
</style>
<script type="application/ecmascript"><![CDATA[
document.addEventListener('DOMContentLoaded', (event) => {
  highlightEdges();
  highlightAdjacentNodes();
});
]]></script>
</svg>
