<?xml version="1.0" encoding="UTF-8" standalone="no"?>
<!DOCTYPE svg PUBLIC "-//W3C//DTD SVG 1.1//EN"
 "http://www.w3.org/Graphics/SVG/1.1/DTD/svg11.dtd">
<!-- Generated by graphviz version 2.43.0 (0)
 -->
<!-- Title: terminal&#45;intl.h Pages: 1 -->
<!--zoomable 82 -->

<svg id="main" version="1.1" xmlns="http://www.w3.org/2000/svg" xmlns:xlink="http://www.w3.org/1999/xlink" xml:space="preserve" onload="init(evt)">

<style type="text/css"><![CDATA[
.node, .edge {opacity: 0.7;}
.node.selected, .edge.selected {opacity: 1;}
.edge:hover path { stroke: red; }
.edge:hover polygon { stroke: red; fill: red; }
]]></style>

<defs>
  <circle id="rim" cx="0" cy="0" r="7"/>
  <circle id="rim2" cx="0" cy="0" r="3.5"/>
  <g id="zoomPlus">
    <use xlink:href="#rim" fill="#404040"><set attributeName="fill" to="#808080" begin="zoomplus.mouseover" end="zoomplus.mouseout"/></use>
    <path d="M-4,0h8M0,-4v8" fill="none" stroke="white" stroke-width="1.5" pointer-events="none"/>
  </g>
  <g id="zoomMin">
    <use xlink:href="#rim" fill="#404040"><set attributeName="fill" to="#808080" begin="zoomminus.mouseover" end="zoomminus.mouseout"/></use>
    <path d="M-4,0h8" fill="none" stroke="white" stroke-width="1.5" pointer-events="none"/>
  </g>
  <g id="arrowUp" transform="translate(30 24)">
    <use xlink:href="#rim"/>
    <path pointer-events="none" fill="none" stroke="white" stroke-width="1.5" d="M0,-3.0v7 M-2.5,-0.5L0,-3.0L2.5,-0.5"/>
  </g>
  <g id="arrowRight" transform="rotate(90) translate(36 -43)">
    <use xlink:href="#rim"/>
    <path pointer-events="none" fill="none" stroke="white" stroke-width="1.5" d="M0,-3.0v7 M-2.5,-0.5L0,-3.0L2.5,-0.5"/>
  </g>
  <g id="arrowDown" transform="rotate(180) translate(-30 -48)">
    <use xlink:href="#rim"/>
    <path pointer-events="none" fill="none" stroke="white" stroke-width="1.5" d="M0,-3.0v7 M-2.5,-0.5L0,-3.0L2.5,-0.5"/>
  </g>
  <g id="arrowLeft" transform="rotate(270) translate(-36 17)">
    <use xlink:href="#rim"/>
    <path pointer-events="none" fill="none" stroke="white" stroke-width="1.5" d="M0,-3.0v7 M-2.5,-0.5L0,-3.0L2.5,-0.5"/>
  </g>
  <g id="resetDef">
    <use xlink:href="#rim2" fill="#404040"><set attributeName="fill" to="#808080" begin="reset.mouseover" end="reset.mouseout"/></use>
  </g>
</defs>
<script type="application/ecmascript">
var viewWidth = 1794;
var viewHeight = 82;
var sectionId = 'dynsection-1';
</script>
<script type="application/ecmascript" xlink:href="svg.min.js"/>
<svg id="graph" class="graph">
<g id="viewport">
<title>terminal&#45;intl.h</title>
<!-- Node1 -->
<g id="Node000001" class="node">
<title>Node1</title>
<g id="a_Node000001"><a xlink:title=" ">
<polygon fill="#999999" stroke="#666666" points="902.5,-74 816.5,-74 816.5,-55 902.5,-55 902.5,-74"/>
<text text-anchor="middle" x="859.5" y="-62" font-family="Helvetica,sans-Serif" font-size="10.00">terminal&#45;intl.h</text>
</a>
</g>
</g>
<!-- Node2 -->
<g id="Node000002" class="node">
<title>Node2</title>
<g id="a_Node000002"><a xlink:href="profile-editor_8c.html" target="_top" xlink:title=" ">
<polygon fill="white" stroke="#666666" points="87,-19 0,-19 0,0 87,0 87,-19"/>
<text text-anchor="middle" x="43.5" y="-7" font-family="Helvetica,sans-Serif" font-size="10.00">profile&#45;editor.c</text>
</a>
</g>
</g>
<!-- Node1&#45;&gt;Node2 -->
<g id="edge1_Node000001_Node000002" class="edge">
<title>Node1&#45;&gt;Node2</title>
<g id="a_edge1_Node000001_Node000002"><a xlink:title=" ">
<path fill="none" stroke="#63b8ff" d="M806.25,-62.3C681.62,-59.08 361.39,-48.39 95.5,-19 92.77,-18.7 89.97,-18.35 87.15,-17.97"/>
<polygon fill="#63b8ff" stroke="#63b8ff" points="806.2,-65.8 816.29,-62.55 806.38,-58.8 806.2,-65.8"/>
</a>
</g>
</g>
<!-- Node3 -->
<g id="Node000003" class="node">
<title>Node3</title>
<g id="a_Node000003"><a xlink:href="skey-popup_8c.html" target="_top" xlink:title=" ">
<polygon fill="white" stroke="#666666" points="186,-19 105,-19 105,0 186,0 186,-19"/>
<text text-anchor="middle" x="145.5" y="-7" font-family="Helvetica,sans-Serif" font-size="10.00">skey&#45;popup.c</text>
</a>
</g>
</g>
<!-- Node1&#45;&gt;Node3 -->
<g id="edge2_Node000001_Node000003" class="edge">
<title>Node1&#45;&gt;Node3</title>
<g id="a_edge2_Node000001_Node000003"><a xlink:title=" ">
<path fill="none" stroke="#63b8ff" d="M806.05,-61.83C692.89,-57.87 420.94,-46.14 194.5,-19 191.76,-18.67 188.93,-18.29 186.09,-17.88"/>
<polygon fill="#63b8ff" stroke="#63b8ff" points="806.06,-65.33 816.17,-62.18 806.3,-58.33 806.06,-65.33"/>
</a>
</g>
</g>
<!-- Node4 -->
<g id="Node000004" class="node">
<title>Node4</title>
<g id="a_Node000004"><a xlink:href="terminal-accels_8c.html" target="_top" xlink:title=" ">
<polygon fill="white" stroke="#666666" points="305,-19 204,-19 204,0 305,0 305,-19"/>
<text text-anchor="middle" x="254.5" y="-7" font-family="Helvetica,sans-Serif" font-size="10.00">terminal&#45;accels.c</text>
</a>
</g>
</g>
<!-- Node1&#45;&gt;Node4 -->
<g id="edge3_Node000001_Node000004" class="edge">
<title>Node1&#45;&gt;Node4</title>
<g id="a_edge3_Node000001_Node000004"><a xlink:title=" ">
<path fill="none" stroke="#63b8ff" d="M806.01,-60.24C708.1,-54.03 493.59,-39.29 313.5,-19 310.72,-18.69 307.88,-18.35 305,-17.99"/>
<polygon fill="#63b8ff" stroke="#63b8ff" points="806.04,-63.75 816.24,-60.89 806.48,-56.76 806.04,-63.75"/>
</a>
</g>
</g>
<!-- Node5 -->
<g id="Node000005" class="node">
<title>Node5</title>
<g id="a_Node000005"><a xlink:href="terminal-actions_8c.html" target="_top" xlink:title=" ">
<polygon fill="white" stroke="#666666" points="428,-19 323,-19 323,0 428,0 428,-19"/>
<text text-anchor="middle" x="375.5" y="-7" font-family="Helvetica,sans-Serif" font-size="10.00">terminal&#45;actions.c</text>
</a>
</g>
</g>
<!-- Node1&#45;&gt;Node5 -->
<g id="edge4_Node000001_Node000005" class="edge">
<title>Node1&#45;&gt;Node5</title>
<g id="a_edge4_Node000001_Node000005"><a xlink:title=" ">
<path fill="none" stroke="#63b8ff" d="M805.99,-58.4C725.81,-50.63 569.78,-35.04 437.5,-19 434.48,-18.63 431.38,-18.25 428.25,-17.85"/>
<polygon fill="#63b8ff" stroke="#63b8ff" points="806.03,-61.92 816.32,-59.39 806.7,-54.95 806.03,-61.92"/>
</a>
</g>
</g>
<!-- Node6 -->
<g id="Node000006" class="node">
<title>Node6</title>
<g id="a_Node000006"><a xlink:href="terminal-app_8c.html" target="_top" xlink:title=" ">
<polygon fill="white" stroke="#666666" points="534.5,-19 446.5,-19 446.5,0 534.5,0 534.5,-19"/>
<text text-anchor="middle" x="490.5" y="-7" font-family="Helvetica,sans-Serif" font-size="10.00">terminal&#45;app.c</text>
</a>
</g>
</g>
<!-- Node1&#45;&gt;Node6 -->
<g id="edge5_Node000001_Node000006" class="edge">
<title>Node1&#45;&gt;Node6</title>
<g id="a_edge5_Node000001_Node000006"><a xlink:title=" ">
<path fill="none" stroke="#63b8ff" d="M806.2,-56.31C743.35,-47.76 635.74,-32.89 543.5,-19 540.64,-18.57 537.7,-18.12 534.74,-17.66"/>
<polygon fill="#63b8ff" stroke="#63b8ff" points="805.89,-59.8 816.27,-57.68 806.83,-52.86 805.89,-59.8"/>
</a>
</g>
</g>
<!-- Node7 -->
<g id="Node000007" class="node">
<title>Node7</title>
<g id="a_Node000007"><a xlink:href="terminal-encoding_8c.html" target="_top" xlink:title=" ">
<polygon fill="white" stroke="#666666" points="666.5,-19 552.5,-19 552.5,0 666.5,0 666.5,-19"/>
<text text-anchor="middle" x="609.5" y="-7" font-family="Helvetica,sans-Serif" font-size="10.00">terminal&#45;encoding.c</text>
</a>
</g>
</g>
<!-- Node1&#45;&gt;Node7 -->
<g id="edge6_Node000001_Node000007" class="edge">
<title>Node1&#45;&gt;Node7</title>
<g id="a_edge6_Node000001_Node000007"><a xlink:title=" ">
<path fill="none" stroke="#63b8ff" d="M809.4,-52.88C762.54,-42.94 693.44,-28.3 649.98,-19.08"/>
<polygon fill="#63b8ff" stroke="#63b8ff" points="808.82,-56.33 819.33,-54.98 810.28,-49.49 808.82,-56.33"/>
</a>
</g>
</g>
<!-- Node8 -->
<g id="Node000008" class="node">
<title>Node8</title>
<g id="a_Node000008"><a xlink:href="terminal-options_8c.html" target="_top" xlink:title=" ">
<polygon fill="white" stroke="#666666" points="790.5,-19 684.5,-19 684.5,0 790.5,0 790.5,-19"/>
<text text-anchor="middle" x="737.5" y="-7" font-family="Helvetica,sans-Serif" font-size="10.00">terminal&#45;options.c</text>
</a>
</g>
</g>
<!-- Node1&#45;&gt;Node8 -->
<g id="edge7_Node000001_Node000008" class="edge">
<title>Node1&#45;&gt;Node8</title>
<g id="a_edge7_Node000001_Node000008"><a xlink:title=" ">
<path fill="none" stroke="#63b8ff" d="M830.49,-50.9C807.96,-41.11 777.3,-27.79 757.46,-19.17"/>
<polygon fill="#63b8ff" stroke="#63b8ff" points="829.33,-54.21 839.9,-54.98 832.12,-47.79 829.33,-54.21"/>
</a>
</g>
</g>
<!-- Node9 -->
<g id="Node000009" class="node">
<title>Node9</title>
<g id="a_Node000009"><a xlink:href="terminal-profile_8c.html" target="_top" xlink:title=" ">
<polygon fill="white" stroke="#666666" points="910,-19 809,-19 809,0 910,0 910,-19"/>
<text text-anchor="middle" x="859.5" y="-7" font-family="Helvetica,sans-Serif" font-size="10.00">terminal&#45;profile.c</text>
</a>
</g>
</g>
<!-- Node1&#45;&gt;Node9 -->
<g id="edge8_Node000001_Node000009" class="edge">
<title>Node1&#45;&gt;Node9</title>
<g id="a_edge8_Node000001_Node000009"><a xlink:title=" ">
<path fill="none" stroke="#63b8ff" d="M859.5,-44.66C859.5,-35.93 859.5,-25.99 859.5,-19.09"/>
<polygon fill="#63b8ff" stroke="#63b8ff" points="856,-44.75 859.5,-54.75 863,-44.75 856,-44.75"/>
</a>
</g>
</g>
<!-- Node10 -->
<g id="Node000010" class="node">
<title>Node10</title>
<g id="a_Node000010"><a xlink:href="terminal-screen-container_8c.html" target="_top" xlink:title=" ">
<polygon fill="white" stroke="#666666" points="1079,-19 928,-19 928,0 1079,0 1079,-19"/>
<text text-anchor="middle" x="1003.5" y="-7" font-family="Helvetica,sans-Serif" font-size="10.00">terminal&#45;screen&#45;container.c</text>
</a>
</g>
</g>
<!-- Node1&#45;&gt;Node10 -->
<g id="edge9_Node000001_Node000010" class="edge">
<title>Node1&#45;&gt;Node10</title>
<g id="a_edge9_Node000001_Node000010"><a xlink:title=" ">
<path fill="none" stroke="#63b8ff" d="M892.32,-51.42C919.03,-41.59 956.1,-27.95 979.94,-19.17"/>
<polygon fill="#63b8ff" stroke="#63b8ff" points="890.81,-48.25 882.64,-54.98 893.23,-54.82 890.81,-48.25"/>
</a>
</g>
</g>
<!-- Node11 -->
<g id="Node000011" class="node">
<title>Node11</title>
<g id="a_Node000011"><a xlink:href="terminal-screen_8c.html" target="_top" xlink:title=" ">
<polygon fill="white" stroke="#666666" points="1199.5,-19 1097.5,-19 1097.5,0 1199.5,0 1199.5,-19"/>
<text text-anchor="middle" x="1148.5" y="-7" font-family="Helvetica,sans-Serif" font-size="10.00">terminal&#45;screen.c</text>
</a>
</g>
</g>
<!-- Node1&#45;&gt;Node11 -->
<g id="edge10_Node000001_Node000011" class="edge">
<title>Node1&#45;&gt;Node11</title>
<g id="a_edge10_Node000001_Node000011"><a xlink:title=" ">
<path fill="none" stroke="#63b8ff" d="M912.88,-53.71C967.17,-43.75 1050.43,-28.49 1102.06,-19.02"/>
<polygon fill="#63b8ff" stroke="#63b8ff" points="911.97,-50.32 902.77,-55.57 913.23,-57.2 911.97,-50.32"/>
</a>
</g>
</g>
<!-- Node12 -->
<g id="Node000012" class="node">
<title>Node12</title>
<g id="a_Node000012"><a xlink:href="terminal-tab-label_8c.html" target="_top" xlink:title=" ">
<polygon fill="white" stroke="#666666" points="1331,-19 1218,-19 1218,0 1331,0 1331,-19"/>
<text text-anchor="middle" x="1274.5" y="-7" font-family="Helvetica,sans-Serif" font-size="10.00">terminal&#45;tab&#45;label.c</text>
</a>
</g>
</g>
<!-- Node1&#45;&gt;Node12 -->
<g id="edge11_Node000001_Node000012" class="edge">
<title>Node1&#45;&gt;Node12</title>
<g id="a_edge11_Node000001_Node000012"><a xlink:title=" ">
<path fill="none" stroke="#63b8ff" d="M912.86,-56.72C981.33,-48.01 1103.76,-32.42 1208.5,-19 1211.59,-18.6 1214.77,-18.2 1217.97,-17.78"/>
<polygon fill="#63b8ff" stroke="#63b8ff" points="912.24,-53.27 902.76,-58 913.12,-60.21 912.24,-53.27"/>
</a>
</g>
</g>
<!-- Node13 -->
<g id="Node000013" class="node">
<title>Node13</title>
<g id="a_Node000013"><a xlink:href="terminal-tabs-menu_8c.html" target="_top" xlink:title=" ">
<polygon fill="white" stroke="#666666" points="1471.5,-19 1349.5,-19 1349.5,0 1471.5,0 1471.5,-19"/>
<text text-anchor="middle" x="1410.5" y="-7" font-family="Helvetica,sans-Serif" font-size="10.00">terminal&#45;tabs&#45;menu.c</text>
</a>
</g>
</g>
<!-- Node1&#45;&gt;Node13 -->
<g id="edge12_Node000001_Node000013" class="edge">
<title>Node1&#45;&gt;Node13</title>
<g id="a_edge12_Node000001_Node000013"><a xlink:title=" ">
<path fill="none" stroke="#63b8ff" d="M912.75,-59.07C1001.5,-51.59 1185.29,-35.6 1340.5,-19 1343.42,-18.69 1346.41,-18.36 1349.43,-18.02"/>
<polygon fill="#63b8ff" stroke="#63b8ff" points="912.33,-55.6 902.66,-59.92 912.92,-62.57 912.33,-55.6"/>
</a>
</g>
</g>
<!-- Node14 -->
<g id="Node000014" class="node">
<title>Node14</title>
<g id="a_Node000014"><a xlink:href="terminal-util_8c.html" target="_top" xlink:title=" ">
<polygon fill="white" stroke="#666666" points="1575.5,-19 1489.5,-19 1489.5,0 1575.5,0 1575.5,-19"/>
<text text-anchor="middle" x="1532.5" y="-7" font-family="Helvetica,sans-Serif" font-size="10.00">terminal&#45;util.c</text>
</a>
</g>
</g>
<!-- Node1&#45;&gt;Node14 -->
<g id="edge13_Node000001_Node000014" class="edge">
<title>Node1&#45;&gt;Node14</title>
<g id="a_edge13_Node000001_Node000014"><a xlink:title=" ">
<path fill="none" stroke="#63b8ff" d="M912.81,-61.31C1020.41,-56.52 1271.16,-43.56 1480.5,-19 1483.41,-18.66 1486.4,-18.27 1489.41,-17.85"/>
<polygon fill="#63b8ff" stroke="#63b8ff" points="912.38,-57.82 902.54,-61.76 912.68,-64.82 912.38,-57.82"/>
</a>
</g>
</g>
<!-- Node15 -->
<g id="Node000015" class="node">
<title>Node15</title>
<g id="a_Node000015"><a xlink:href="terminal-window_8c.html" target="_top" xlink:title=" ">
<polygon fill="white" stroke="#666666" points="1701,-19 1594,-19 1594,0 1701,0 1701,-19"/>
<text text-anchor="middle" x="1647.5" y="-7" font-family="Helvetica,sans-Serif" font-size="10.00">terminal&#45;window.c</text>
</a>
</g>
</g>
<!-- Node1&#45;&gt;Node15 -->
<g id="edge14_Node000001_Node000015" class="edge">
<title>Node1&#45;&gt;Node15</title>
<g id="a_edge14_Node000001_Node000015"><a xlink:title=" ">
<path fill="none" stroke="#63b8ff" d="M912.94,-61.55C1033.14,-56.88 1333.89,-43.56 1584.5,-19 1587.58,-18.7 1590.73,-18.36 1593.91,-18"/>
<polygon fill="#63b8ff" stroke="#63b8ff" points="912.76,-58.06 902.9,-61.94 913.03,-65.05 912.76,-58.06"/>
</a>
</g>
</g>
<!-- Node16 -->
<g id="Node000016" class="node">
<title>Node16</title>
<g id="a_Node000016"><a xlink:href="terminal_8c.html" target="_top" xlink:title=" ">
<polygon fill="white" stroke="#666666" points="1785.5,-19 1719.5,-19 1719.5,0 1785.5,0 1785.5,-19"/>
<text text-anchor="middle" x="1752.5" y="-7" font-family="Helvetica,sans-Serif" font-size="10.00">terminal.c</text>
</a>
</g>
</g>
<!-- Node1&#45;&gt;Node16 -->
<g id="edge15_Node000001_Node000016" class="edge">
<title>Node1&#45;&gt;Node16</title>
<g id="a_edge15_Node000001_Node000016"><a xlink:title=" ">
<path fill="none" stroke="#63b8ff" d="M912.67,-63.44C1046.96,-62.69 1410.46,-57 1710.5,-19 1713.3,-18.64 1716.2,-18.21 1719.1,-17.72"/>
<polygon fill="#63b8ff" stroke="#63b8ff" points="912.63,-59.94 902.65,-63.48 912.66,-66.94 912.63,-59.94"/>
</a>
</g>
</g>
</g>
</svg>

<g id="navigator" transform="translate(0 0)" fill="#404254">
  <rect fill="#f2f5e9" fill-opacity="0.5" stroke="#606060" stroke-width=".5" x="0" y="0" width="60" height="60"/>
  <use id="zoomplus" xlink:href="#zoomPlus" x="17" y="9" onmousedown="handleZoom(evt,'in')"/>
  <use id="zoomminus" xlink:href="#zoomMin" x="42" y="9" onmousedown="handleZoom(evt,'out')"/>
  <use id="reset" xlink:href="#resetDef" x="30" y="36" onmousedown="handleReset()"/>
   <use id="arrowup" xlink:href="#arrowUp" x="0" y="0" onmousedown="handlePan(0,-1)"/>
  <use id="arrowright" xlink:href="#arrowRight" x="0" y="0" onmousedown="handlePan(1,0)"/>
  <use id="arrowdown" xlink:href="#arrowDown" x="0" y="0" onmousedown="handlePan(0,1)"/>
  <use id="arrowleft" xlink:href="#arrowLeft" x="0" y="0" onmousedown="handlePan(-1,0)"/>
</g>
<svg viewBox="0 0 15 15" width="100%" height="30px" preserveAspectRatio="xMaxYMin meet">
 <g id="arrow_out" transform="scale(0.3 0.3)">
  <a xlink:href="terminal-intl_8h__dep__incl_org.svg" target="_base">
   <rect id="button" ry="5" rx="5" y="6" x="6" height="38" width="38"
        fill="#f2f5e9" fill-opacity="0.5" stroke="#606060" stroke-width="1.0"/>
   <path id="arrow"
     d="M 11.500037,31.436501 C 11.940474,20.09759 22.043105,11.32322 32.158766,21.979434 L 37.068811,17.246167 C 37.068811,17.246167 37.088388,32 37.088388,32 L 22.160133,31.978069 C 22.160133,31.978069 26.997745,27.140456 26.997745,27.140456 C 18.528582,18.264221 13.291696,25.230495 11.500037,31.436501 z"
     style="fill:#404040;"/>
  </a>
 </g>
</svg>

<style type='text/css'>
<![CDATA[
[data-mouse-over-selected='false'] { opacity: 0.7; }
[data-mouse-over-selected='true']  { opacity: 1.0; }
]]>
</style>
<script type="application/ecmascript"><![CDATA[
document.addEventListener('DOMContentLoaded', (event) => {
  highlightEdges();
  highlightAdjacentNodes();
});
]]></script>
</svg>
