<?xml version="1.0" encoding="UTF-8" standalone="no"?>
<!DOCTYPE svg PUBLIC "-//W3C//DTD SVG 1.1//EN"
 "http://www.w3.org/Graphics/SVG/1.1/DTD/svg11.dtd">
<!-- Generated by graphviz version 2.43.0 (0)
 -->
<!-- Title: terminal&#45;encoding.h Pages: 1 -->
<svg width="1148pt" height="137pt"
 viewBox="0.00 0.00 1147.50 137.00" xmlns="http://www.w3.org/2000/svg" xmlns:xlink="http://www.w3.org/1999/xlink">
<g id="graph0" class="graph" transform="scale(1 1) rotate(0) translate(4 133)">
<title>terminal&#45;encoding.h</title>
<!-- Node1 -->
<g id="Node000001" class="node">
<title>Node1</title>
<g id="a_Node000001"><a xlink:title=" ">
<polygon fill="#999999" stroke="#666666" points="497.5,-129 382.5,-129 382.5,-110 497.5,-110 497.5,-129"/>
<text text-anchor="middle" x="440" y="-117" font-family="Helvetica,sans-Serif" font-size="10.00">terminal&#45;encoding.h</text>
</a>
</g>
</g>
<!-- Node2 -->
<g id="Node000002" class="node">
<title>Node2</title>
<g id="a_Node000002"><a xlink:href="terminal-app_8c.html" target="_top" xlink:title=" ">
<polygon fill="white" stroke="#666666" points="88,-19 0,-19 0,0 88,0 88,-19"/>
<text text-anchor="middle" x="44" y="-7" font-family="Helvetica,sans-Serif" font-size="10.00">terminal&#45;app.c</text>
</a>
</g>
</g>
<!-- Node1&#45;&gt;Node2 -->
<g id="edge1_Node000001_Node000002" class="edge">
<title>Node1&#45;&gt;Node2</title>
<g id="a_edge1_Node000001_Node000002"><a xlink:title=" ">
<path fill="none" stroke="#63b8ff" d="M398.93,-107.3C319.52,-85.64 146.46,-38.44 75.41,-19.07"/>
<polygon fill="#63b8ff" stroke="#63b8ff" points="398.03,-110.68 408.6,-109.94 399.87,-103.93 398.03,-110.68"/>
</a>
</g>
</g>
<!-- Node3 -->
<g id="Node000003" class="node">
<title>Node3</title>
<g id="a_Node000003"><a xlink:href="terminal-app_8h.html" target="_top" xlink:title=" ">
<polygon fill="white" stroke="#666666" points="577.5,-74 488.5,-74 488.5,-55 577.5,-55 577.5,-74"/>
<text text-anchor="middle" x="533" y="-62" font-family="Helvetica,sans-Serif" font-size="10.00">terminal&#45;app.h</text>
</a>
</g>
</g>
<!-- Node1&#45;&gt;Node3 -->
<g id="edge2_Node000001_Node000003" class="edge">
<title>Node1&#45;&gt;Node3</title>
<g id="a_edge2_Node000001_Node000003"><a xlink:title=" ">
<path fill="none" stroke="#63b8ff" d="M463.75,-104.97C480.75,-95.28 503.13,-82.52 517.79,-74.17"/>
<polygon fill="#63b8ff" stroke="#63b8ff" points="461.9,-101.99 454.94,-109.98 465.36,-108.07 461.9,-101.99"/>
</a>
</g>
</g>
<!-- Node6 -->
<g id="Node000006" class="node">
<title>Node6</title>
<g id="a_Node000006"><a xlink:href="terminal-encoding_8c.html" target="_top" xlink:title=" ">
<polygon fill="white" stroke="#666666" points="220,-19 106,-19 106,0 220,0 220,-19"/>
<text text-anchor="middle" x="163" y="-7" font-family="Helvetica,sans-Serif" font-size="10.00">terminal&#45;encoding.c</text>
</a>
</g>
</g>
<!-- Node1&#45;&gt;Node6 -->
<g id="edge13_Node000001_Node000006" class="edge">
<title>Node1&#45;&gt;Node6</title>
<g id="a_edge13_Node000001_Node000006"><a xlink:title=" ">
<path fill="none" stroke="#63b8ff" d="M408.25,-106.12C351.42,-83.96 233.71,-38.07 184.92,-19.05"/>
<polygon fill="#63b8ff" stroke="#63b8ff" points="407.21,-109.47 417.8,-109.84 409.75,-102.95 407.21,-109.47"/>
</a>
</g>
</g>
<!-- Node11 -->
<g id="Node000011" class="node">
<title>Node11</title>
<g id="a_Node000011"><a xlink:href="terminal-window_8c.html" target="_top" xlink:title=" ">
<polygon fill="white" stroke="#666666" points="1139.5,-19 1032.5,-19 1032.5,0 1139.5,0 1139.5,-19"/>
<text text-anchor="middle" x="1086" y="-7" font-family="Helvetica,sans-Serif" font-size="10.00">terminal&#45;window.c</text>
</a>
</g>
</g>
<!-- Node1&#45;&gt;Node11 -->
<g id="edge14_Node000001_Node000011" class="edge">
<title>Node1&#45;&gt;Node11</title>
<g id="a_edge14_Node000001_Node000011"><a xlink:title=" ">
<path fill="none" stroke="#63b8ff" d="M500.89,-108.32C627.61,-87.14 917.64,-38.65 1035.15,-19"/>
<polygon fill="#63b8ff" stroke="#63b8ff" points="500.25,-104.88 490.96,-109.98 501.4,-111.78 500.25,-104.88"/>
</a>
</g>
</g>
<!-- Node3&#45;&gt;Node2 -->
<g id="edge5_Node000003_Node000002" class="edge">
<title>Node3&#45;&gt;Node2</title>
<g id="a_edge5_Node000003_Node000002"><a xlink:title=" ">
<path fill="none" stroke="#63b8ff" d="M478.16,-58.92C395.41,-51.78 233.74,-36.93 97,-19 94.14,-18.62 91.19,-18.22 88.22,-17.79"/>
<polygon fill="#63b8ff" stroke="#63b8ff" points="478.08,-62.42 488.34,-59.79 478.67,-55.45 478.08,-62.42"/>
</a>
</g>
</g>
<!-- Node4 -->
<g id="Node000004" class="node">
<title>Node4</title>
<g id="a_Node000004"><a xlink:href="terminal-accels_8c.html" target="_top" xlink:title=" ">
<polygon fill="white" stroke="#666666" points="891.5,-19 790.5,-19 790.5,0 891.5,0 891.5,-19"/>
<text text-anchor="middle" x="841" y="-7" font-family="Helvetica,sans-Serif" font-size="10.00">terminal&#45;accels.c</text>
</a>
</g>
</g>
<!-- Node3&#45;&gt;Node4 -->
<g id="edge3_Node000003_Node000004" class="edge">
<title>Node3&#45;&gt;Node4</title>
<g id="a_edge3_Node000003_Node000004"><a xlink:title=" ">
<path fill="none" stroke="#63b8ff" d="M587.83,-54.06C645.64,-44.12 735.89,-28.59 791.57,-19.01"/>
<polygon fill="#63b8ff" stroke="#63b8ff" points="587.05,-50.65 577.79,-55.79 588.23,-57.55 587.05,-50.65"/>
</a>
</g>
</g>
<!-- Node5 -->
<g id="Node000005" class="node">
<title>Node5</title>
<g id="a_Node000005"><a xlink:href="terminal-actions_8c.html" target="_top" xlink:title=" ">
<polygon fill="white" stroke="#666666" points="1014.5,-19 909.5,-19 909.5,0 1014.5,0 1014.5,-19"/>
<text text-anchor="middle" x="962" y="-7" font-family="Helvetica,sans-Serif" font-size="10.00">terminal&#45;actions.c</text>
</a>
</g>
</g>
<!-- Node3&#45;&gt;Node5 -->
<g id="edge4_Node000003_Node000005" class="edge">
<title>Node3&#45;&gt;Node5</title>
<g id="a_edge4_Node000003_Node000005"><a xlink:title=" ">
<path fill="none" stroke="#63b8ff" d="M587.68,-57.2C659.58,-48.85 789.84,-33.46 901,-19 903.76,-18.64 906.58,-18.27 909.44,-17.89"/>
<polygon fill="#63b8ff" stroke="#63b8ff" points="587.03,-53.75 577.5,-58.38 587.84,-60.71 587.03,-53.75"/>
</a>
</g>
</g>
<!-- Node3&#45;&gt;Node6 -->
<g id="edge6_Node000003_Node000006" class="edge">
<title>Node3&#45;&gt;Node6</title>
<g id="a_edge6_Node000003_Node000006"><a xlink:title=" ">
<path fill="none" stroke="#63b8ff" d="M478.11,-55.64C408.91,-45.73 290.51,-28.76 220.22,-18.7"/>
<polygon fill="#63b8ff" stroke="#63b8ff" points="477.97,-59.15 488.37,-57.11 478.97,-52.22 477.97,-59.15"/>
</a>
</g>
</g>
<!-- Node7 -->
<g id="Node000007" class="node">
<title>Node7</title>
<g id="a_Node000007"><a xlink:href="terminal-options_8c.html" target="_top" xlink:title=" ">
<polygon fill="white" stroke="#666666" points="344,-19 238,-19 238,0 344,0 344,-19"/>
<text text-anchor="middle" x="291" y="-7" font-family="Helvetica,sans-Serif" font-size="10.00">terminal&#45;options.c</text>
</a>
</g>
</g>
<!-- Node3&#45;&gt;Node7 -->
<g id="edge7_Node000003_Node000007" class="edge">
<title>Node3&#45;&gt;Node7</title>
<g id="a_edge7_Node000003_Node000007"><a xlink:title=" ">
<path fill="none" stroke="#63b8ff" d="M484.21,-52.82C438.86,-42.88 372.17,-28.28 330.19,-19.08"/>
<polygon fill="#63b8ff" stroke="#63b8ff" points="483.6,-56.26 494.12,-54.98 485.1,-49.43 483.6,-56.26"/>
</a>
</g>
</g>
<!-- Node8 -->
<g id="Node000008" class="node">
<title>Node8</title>
<g id="a_Node000008"><a xlink:href="terminal-profile_8c.html" target="_top" xlink:title=" ">
<polygon fill="white" stroke="#666666" points="463.5,-19 362.5,-19 362.5,0 463.5,0 463.5,-19"/>
<text text-anchor="middle" x="413" y="-7" font-family="Helvetica,sans-Serif" font-size="10.00">terminal&#45;profile.c</text>
</a>
</g>
</g>
<!-- Node3&#45;&gt;Node8 -->
<g id="edge8_Node000003_Node000008" class="edge">
<title>Node3&#45;&gt;Node8</title>
<g id="a_edge8_Node000003_Node000008"><a xlink:title=" ">
<path fill="none" stroke="#63b8ff" d="M504.47,-50.9C482.3,-41.11 452.15,-27.79 432.63,-19.17"/>
<polygon fill="#63b8ff" stroke="#63b8ff" points="503.16,-54.15 513.72,-54.98 505.99,-47.74 503.16,-54.15"/>
</a>
</g>
</g>
<!-- Node9 -->
<g id="Node000009" class="node">
<title>Node9</title>
<g id="a_Node000009"><a xlink:href="terminal-screen_8c.html" target="_top" xlink:title=" ">
<polygon fill="white" stroke="#666666" points="584,-19 482,-19 482,0 584,0 584,-19"/>
<text text-anchor="middle" x="533" y="-7" font-family="Helvetica,sans-Serif" font-size="10.00">terminal&#45;screen.c</text>
</a>
</g>
</g>
<!-- Node3&#45;&gt;Node9 -->
<g id="edge9_Node000003_Node000009" class="edge">
<title>Node3&#45;&gt;Node9</title>
<g id="a_edge9_Node000003_Node000009"><a xlink:title=" ">
<path fill="none" stroke="#63b8ff" d="M533,-44.66C533,-35.93 533,-25.99 533,-19.09"/>
<polygon fill="#63b8ff" stroke="#63b8ff" points="529.5,-44.75 533,-54.75 536.5,-44.75 529.5,-44.75"/>
</a>
</g>
</g>
<!-- Node10 -->
<g id="Node000010" class="node">
<title>Node10</title>
<g id="a_Node000010"><a xlink:href="terminal-util_8c.html" target="_top" xlink:title=" ">
<polygon fill="white" stroke="#666666" points="688,-19 602,-19 602,0 688,0 688,-19"/>
<text text-anchor="middle" x="645" y="-7" font-family="Helvetica,sans-Serif" font-size="10.00">terminal&#45;util.c</text>
</a>
</g>
</g>
<!-- Node3&#45;&gt;Node10 -->
<g id="edge10_Node000003_Node000010" class="edge">
<title>Node3&#45;&gt;Node10</title>
<g id="a_edge10_Node000003_Node000010"><a xlink:title=" ">
<path fill="none" stroke="#63b8ff" d="M560.19,-50.63C580.82,-40.87 608.62,-27.71 626.68,-19.17"/>
<polygon fill="#63b8ff" stroke="#63b8ff" points="558.54,-47.54 550.99,-54.98 561.53,-53.87 558.54,-47.54"/>
</a>
</g>
</g>
<!-- Node3&#45;&gt;Node11 -->
<g id="edge11_Node000003_Node000011" class="edge">
<title>Node3&#45;&gt;Node11</title>
<g id="a_edge11_Node000003_Node000011"><a xlink:title=" ">
<path fill="none" stroke="#63b8ff" d="M587.81,-59.36C678.63,-52.31 865.96,-36.99 1024,-19 1026.7,-18.69 1029.46,-18.36 1032.25,-18.02"/>
<polygon fill="#63b8ff" stroke="#63b8ff" points="587.45,-55.87 577.75,-60.14 587.99,-62.85 587.45,-55.87"/>
</a>
</g>
</g>
<!-- Node12 -->
<g id="Node000012" class="node">
<title>Node12</title>
<g id="a_Node000012"><a xlink:href="terminal_8c.html" target="_top" xlink:title=" ">
<polygon fill="white" stroke="#666666" points="772,-19 706,-19 706,0 772,0 772,-19"/>
<text text-anchor="middle" x="739" y="-7" font-family="Helvetica,sans-Serif" font-size="10.00">terminal.c</text>
</a>
</g>
</g>
<!-- Node3&#45;&gt;Node12 -->
<g id="edge12_Node000003_Node000012" class="edge">
<title>Node3&#45;&gt;Node12</title>
<g id="a_edge12_Node000003_Node000012"><a xlink:title=" ">
<path fill="none" stroke="#63b8ff" d="M576.03,-52.43C614.72,-42.48 670.73,-28.07 705.98,-18.99"/>
<polygon fill="#63b8ff" stroke="#63b8ff" points="574.91,-49.1 566.1,-54.98 576.65,-55.88 574.91,-49.1"/>
</a>
</g>
</g>
</g>
</svg>
