<?xml version="1.0" encoding="UTF-8" standalone="no"?>
<!DOCTYPE svg PUBLIC "-//W3C//DTD SVG 1.1//EN"
 "http://www.w3.org/Graphics/SVG/1.1/DTD/svg11.dtd">
<!-- Generated by graphviz version 2.43.0 (0)
 -->
<!-- Title: terminal&#45;type&#45;builtins.c Pages: 1 -->
<svg width="376pt" height="170pt"
 viewBox="0.00 0.00 375.50 170.00" xmlns="http://www.w3.org/2000/svg" xmlns:xlink="http://www.w3.org/1999/xlink">
<g id="graph0" class="graph" transform="scale(1 1) rotate(0) translate(4 166)">
<title>terminal&#45;type&#45;builtins.c</title>
<!-- Node1 -->
<g id="Node000001" class="node">
<title>Node1</title>
<g id="a_Node000001"><a xlink:title=" ">
<polygon fill="#999999" stroke="#666666" points="205,-162 74,-162 74,-143 205,-143 205,-162"/>
<text text-anchor="middle" x="139.5" y="-150" font-family="Helvetica,sans-Serif" font-size="10.00">terminal&#45;type&#45;builtins.c</text>
</a>
</g>
</g>
<!-- Node2 -->
<g id="Node000002" class="node">
<title>Node2</title>
<g id="a_Node000002"><a xlink:title=" ">
<polygon fill="#e0e0e0" stroke="#999999" points="55,-90.5 0,-90.5 0,-71.5 55,-71.5 55,-90.5"/>
<text text-anchor="middle" x="27.5" y="-78.5" font-family="Helvetica,sans-Serif" font-size="10.00">config.h</text>
</a>
</g>
</g>
<!-- Node1&#45;&gt;Node2 -->
<g id="edge1_Node000001_Node000002" class="edge">
<title>Node1&#45;&gt;Node2</title>
<g id="a_edge1_Node000001_Node000002"><a xlink:title=" ">
<path fill="none" stroke="#63b8ff" d="M124.4,-142.89C109.14,-134.11 84.96,-119.97 64.5,-107 59.13,-103.6 53.4,-99.81 48.1,-96.23"/>
<polygon fill="#63b8ff" stroke="#63b8ff" points="49.95,-93.26 39.71,-90.52 46.01,-99.04 49.95,-93.26"/>
</a>
</g>
</g>
<!-- Node3 -->
<g id="Node000003" class="node">
<title>Node3</title>
<g id="a_Node000003"><a xlink:href="terminal-type-builtins_8h.html" target="_top" xlink:title=" ">
<polygon fill="white" stroke="#666666" points="205.5,-90.5 73.5,-90.5 73.5,-71.5 205.5,-71.5 205.5,-90.5"/>
<text text-anchor="middle" x="139.5" y="-78.5" font-family="Helvetica,sans-Serif" font-size="10.00">terminal&#45;type&#45;builtins.h</text>
</a>
</g>
</g>
<!-- Node1&#45;&gt;Node3 -->
<g id="edge2_Node000001_Node000003" class="edge">
<title>Node1&#45;&gt;Node3</title>
<g id="a_edge2_Node000001_Node000003"><a xlink:title=" ">
<path fill="none" stroke="#63b8ff" d="M139.5,-142.98C139.5,-132.56 139.5,-114.61 139.5,-100.88"/>
<polygon fill="#63b8ff" stroke="#63b8ff" points="143,-100.59 139.5,-90.59 136,-100.59 143,-100.59"/>
</a>
</g>
</g>
<!-- Node5 -->
<g id="Node000005" class="node">
<title>Node5</title>
<g id="a_Node000005"><a xlink:href="terminal-profile_8h.html" target="_top" xlink:title=" ">
<polygon fill="white" stroke="#666666" points="367.5,-107 223.5,-107 223.5,-55 367.5,-55 367.5,-107"/>
<text text-anchor="start" x="231.5" y="-95" font-family="Helvetica,sans-Serif" font-size="10.00">/home/vm/dev/mate/mate</text>
<text text-anchor="start" x="231.5" y="-84" font-family="Helvetica,sans-Serif" font-size="10.00">&#45;desktop/mate&#45;terminal</text>
<text text-anchor="start" x="231.5" y="-73" font-family="Helvetica,sans-Serif" font-size="10.00">/build&#45;asan/../src/terminal</text>
<text text-anchor="middle" x="295.5" y="-62" font-family="Helvetica,sans-Serif" font-size="10.00">&#45;profile.h</text>
</a>
</g>
</g>
<!-- Node1&#45;&gt;Node5 -->
<g id="edge4_Node000001_Node000005" class="edge">
<title>Node1&#45;&gt;Node5</title>
<g id="a_edge4_Node000001_Node000005"><a xlink:title=" ">
<path fill="none" stroke="#63b8ff" d="M158.63,-142.98C176.45,-135.04 204.09,-122.73 229.87,-111.24"/>
<polygon fill="#63b8ff" stroke="#63b8ff" points="231.55,-114.32 239.26,-107.05 228.7,-107.93 231.55,-114.32"/>
</a>
</g>
</g>
<!-- Node4 -->
<g id="Node000004" class="node">
<title>Node4</title>
<g id="a_Node000004"><a xlink:title=" ">
<polygon fill="#e0e0e0" stroke="#999999" points="178,-19 101,-19 101,0 178,0 178,-19"/>
<text text-anchor="middle" x="139.5" y="-7" font-family="Helvetica,sans-Serif" font-size="10.00">glib&#45;object.h</text>
</a>
</g>
</g>
<!-- Node3&#45;&gt;Node4 -->
<g id="edge3_Node000003_Node000004" class="edge">
<title>Node3&#45;&gt;Node4</title>
<g id="a_edge3_Node000003_Node000004"><a xlink:title=" ">
<path fill="none" stroke="#63b8ff" d="M139.5,-71.48C139.5,-61.06 139.5,-43.11 139.5,-29.38"/>
<polygon fill="#63b8ff" stroke="#63b8ff" points="143,-29.09 139.5,-19.09 136,-29.09 143,-29.09"/>
</a>
</g>
</g>
<!-- Node6 -->
<g id="Node000006" class="node">
<title>Node6</title>
<g id="a_Node000006"><a xlink:title=" ">
<polygon fill="#e0e0e0" stroke="#999999" points="325.5,-19 265.5,-19 265.5,0 325.5,0 325.5,-19"/>
<text text-anchor="middle" x="295.5" y="-7" font-family="Helvetica,sans-Serif" font-size="10.00">gtk/gtk.h</text>
</a>
</g>
</g>
<!-- Node5&#45;&gt;Node6 -->
<g id="edge5_Node000005_Node000006" class="edge">
<title>Node5&#45;&gt;Node6</title>
<g id="a_edge5_Node000005_Node000006"><a xlink:title=" ">
<path fill="none" stroke="#63b8ff" d="M295.5,-54.91C295.5,-46.55 295.5,-37.38 295.5,-29.55"/>
<polygon fill="#63b8ff" stroke="#63b8ff" points="299,-29.3 295.5,-19.3 292,-29.3 299,-29.3"/>
</a>
</g>
</g>
</g>
</svg>
