<?xml version="1.0" encoding="UTF-8" standalone="no"?>
<!DOCTYPE svg PUBLIC "-//W3C//DTD SVG 1.1//EN"
 "http://www.w3.org/Graphics/SVG/1.1/DTD/svg11.dtd">
<!-- Generated by graphviz version 2.43.0 (0)
 -->
<!-- Title: terminal&#45;window.h Pages: 1 -->
<svg width="624pt" height="137pt"
 viewBox="0.00 0.00 623.50 137.00" xmlns="http://www.w3.org/2000/svg" xmlns:xlink="http://www.w3.org/1999/xlink">
<g id="graph0" class="graph" transform="scale(1 1) rotate(0) translate(4 133)">
<title>terminal&#45;window.h</title>
<!-- Node1 -->
<g id="Node000001" class="node">
<title>Node1</title>
<g id="a_Node000001"><a xlink:title=" ">
<polygon fill="#999999" stroke="#666666" points="399,-129 292,-129 292,-110 399,-110 399,-129"/>
<text text-anchor="middle" x="345.5" y="-117" font-family="Helvetica,sans-Serif" font-size="10.00">terminal&#45;window.h</text>
</a>
</g>
</g>
<!-- Node2 -->
<g id="Node000002" class="node">
<title>Node2</title>
<g id="a_Node000002"><a xlink:href="terminal-actions_8c.html" target="_top" xlink:title=" ">
<polygon fill="white" stroke="#666666" points="105,-74 0,-74 0,-55 105,-55 105,-74"/>
<text text-anchor="middle" x="52.5" y="-62" font-family="Helvetica,sans-Serif" font-size="10.00">terminal&#45;actions.c</text>
</a>
</g>
</g>
<!-- Node1&#45;&gt;Node2 -->
<g id="edge1_Node000001_Node000002" class="edge">
<title>Node1&#45;&gt;Node2</title>
<g id="a_edge1_Node000001_Node000002"><a xlink:title=" ">
<path fill="none" stroke="#63b8ff" d="M288.5,-108.19C233.56,-98.25 151.41,-83.39 99.94,-74.08"/>
<polygon fill="#63b8ff" stroke="#63b8ff" points="287.96,-111.65 298.42,-109.98 289.21,-104.76 287.96,-111.65"/>
</a>
</g>
</g>
<!-- Node3 -->
<g id="Node000003" class="node">
<title>Node3</title>
<g id="a_Node000003"><a xlink:href="terminal-app_8c.html" target="_top" xlink:title=" ">
<polygon fill="white" stroke="#666666" points="211.5,-74 123.5,-74 123.5,-55 211.5,-55 211.5,-74"/>
<text text-anchor="middle" x="167.5" y="-62" font-family="Helvetica,sans-Serif" font-size="10.00">terminal&#45;app.c</text>
</a>
</g>
</g>
<!-- Node1&#45;&gt;Node3 -->
<g id="edge2_Node000001_Node000003" class="edge">
<title>Node1&#45;&gt;Node3</title>
<g id="a_edge2_Node000001_Node000003"><a xlink:title=" ">
<path fill="none" stroke="#63b8ff" d="M307.06,-107.06C273.8,-97.15 226.42,-83.04 196.32,-74.08"/>
<polygon fill="#63b8ff" stroke="#63b8ff" points="306.32,-110.49 316.9,-109.98 308.32,-103.78 306.32,-110.49"/>
</a>
</g>
</g>
<!-- Node4 -->
<g id="Node000004" class="node">
<title>Node4</title>
<g id="a_Node000004"><a xlink:href="terminal-screen_8c.html" target="_top" xlink:title=" ">
<polygon fill="white" stroke="#666666" points="331.5,-74 229.5,-74 229.5,-55 331.5,-55 331.5,-74"/>
<text text-anchor="middle" x="280.5" y="-62" font-family="Helvetica,sans-Serif" font-size="10.00">terminal&#45;screen.c</text>
</a>
</g>
</g>
<!-- Node1&#45;&gt;Node4 -->
<g id="edge3_Node000001_Node000004" class="edge">
<title>Node1&#45;&gt;Node4</title>
<g id="a_edge3_Node000001_Node000004"><a xlink:title=" ">
<path fill="none" stroke="#63b8ff" d="M327.23,-103.6C315.58,-94.11 300.9,-82.13 291.13,-74.17"/>
<polygon fill="#63b8ff" stroke="#63b8ff" points="325.09,-106.38 335.06,-109.98 329.52,-100.95 325.09,-106.38"/>
</a>
</g>
</g>
<!-- Node5 -->
<g id="Node000005" class="node">
<title>Node5</title>
<g id="a_Node000005"><a xlink:href="terminal-tabs-menu_8h.html" target="_top" xlink:title=" ">
<polygon fill="white" stroke="#666666" points="473,-74 350,-74 350,-55 473,-55 473,-74"/>
<text text-anchor="middle" x="411.5" y="-62" font-family="Helvetica,sans-Serif" font-size="10.00">terminal&#45;tabs&#45;menu.h</text>
</a>
</g>
</g>
<!-- Node1&#45;&gt;Node5 -->
<g id="edge4_Node000001_Node000005" class="edge">
<title>Node1&#45;&gt;Node5</title>
<g id="a_edge4_Node000001_Node000005"><a xlink:title=" ">
<path fill="none" stroke="#63b8ff" d="M364.05,-103.6C375.88,-94.11 390.79,-82.13 400.7,-74.17"/>
<polygon fill="#63b8ff" stroke="#63b8ff" points="361.71,-100.99 356.1,-109.98 366.09,-106.45 361.71,-100.99"/>
</a>
</g>
</g>
<!-- Node7 -->
<g id="Node000007" class="node">
<title>Node7</title>
<g id="a_Node000007"><a xlink:href="terminal-window_8c.html" target="_top" xlink:title=" ">
<polygon fill="white" stroke="#666666" points="555,-19 448,-19 448,0 555,0 555,-19"/>
<text text-anchor="middle" x="501.5" y="-7" font-family="Helvetica,sans-Serif" font-size="10.00">terminal&#45;window.c</text>
</a>
</g>
</g>
<!-- Node1&#45;&gt;Node7 -->
<g id="edge8_Node000001_Node000007" class="edge">
<title>Node1&#45;&gt;Node7</title>
<g id="a_edge8_Node000001_Node000007"><a xlink:title=" ">
<path fill="none" stroke="#63b8ff" d="M409.35,-110.85C435.1,-104.73 463.22,-93.74 482.5,-74 497.3,-58.85 500.64,-32.68 501.35,-19.15"/>
<polygon fill="#63b8ff" stroke="#63b8ff" points="408.28,-107.5 399.25,-113.03 409.76,-114.34 408.28,-107.5"/>
</a>
</g>
</g>
<!-- Node8 -->
<g id="Node000008" class="node">
<title>Node8</title>
<g id="a_Node000008"><a xlink:href="terminal-util_8c.html" target="_top" xlink:title=" ">
<polygon fill="white" stroke="#666666" points="615.5,-74 529.5,-74 529.5,-55 615.5,-55 615.5,-74"/>
<text text-anchor="middle" x="572.5" y="-62" font-family="Helvetica,sans-Serif" font-size="10.00">terminal&#45;util.c</text>
</a>
</g>
</g>
<!-- Node1&#45;&gt;Node8 -->
<g id="edge7_Node000001_Node000008" class="edge">
<title>Node1&#45;&gt;Node8</title>
<g id="a_edge7_Node000001_Node000008"><a xlink:title=" ">
<path fill="none" stroke="#63b8ff" d="M391.8,-107.69C434.33,-97.76 496.53,-83.24 535.74,-74.08"/>
<polygon fill="#63b8ff" stroke="#63b8ff" points="390.91,-104.3 381.97,-109.98 392.51,-111.12 390.91,-104.3"/>
</a>
</g>
</g>
<!-- Node6 -->
<g id="Node000006" class="node">
<title>Node6</title>
<g id="a_Node000006"><a xlink:href="terminal-tabs-menu_8c.html" target="_top" xlink:title=" ">
<polygon fill="white" stroke="#666666" points="429.5,-19 307.5,-19 307.5,0 429.5,0 429.5,-19"/>
<text text-anchor="middle" x="368.5" y="-7" font-family="Helvetica,sans-Serif" font-size="10.00">terminal&#45;tabs&#45;menu.c</text>
</a>
</g>
</g>
<!-- Node5&#45;&gt;Node6 -->
<g id="edge5_Node000005_Node000006" class="edge">
<title>Node5&#45;&gt;Node6</title>
<g id="a_edge5_Node000005_Node000006"><a xlink:title=" ">
<path fill="none" stroke="#63b8ff" d="M398.08,-46.96C390.59,-37.72 381.56,-26.6 375.47,-19.09"/>
<polygon fill="#63b8ff" stroke="#63b8ff" points="395.38,-49.19 404.4,-54.75 400.82,-44.78 395.38,-49.19"/>
</a>
</g>
</g>
<!-- Node5&#45;&gt;Node7 -->
<g id="edge6_Node000005_Node000007" class="edge">
<title>Node5&#45;&gt;Node7</title>
<g id="a_edge6_Node000005_Node000007"><a xlink:title=" ">
<path fill="none" stroke="#63b8ff" d="M434.94,-49.7C451.34,-40.04 472.73,-27.44 486.78,-19.17"/>
<polygon fill="#63b8ff" stroke="#63b8ff" points="432.8,-46.89 425.96,-54.98 436.35,-52.93 432.8,-46.89"/>
</a>
</g>
</g>
</g>
</svg>
