<?xml version="1.0" encoding="UTF-8" standalone="no"?>
<!DOCTYPE svg PUBLIC "-//W3C//DTD SVG 1.1//EN"
 "http://www.w3.org/Graphics/SVG/1.1/DTD/svg11.dtd">
<!-- Generated by graphviz version 2.43.0 (0)
 -->
<!-- Title: terminal&#45;window.c Pages: 1 -->
<!--zoomable 302 -->

<svg id="main" version="1.1" xmlns="http://www.w3.org/2000/svg" xmlns:xlink="http://www.w3.org/1999/xlink" xml:space="preserve" onload="init(evt)">

<style type="text/css"><![CDATA[
.node, .edge {opacity: 0.7;}
.node.selected, .edge.selected {opacity: 1;}
.edge:hover path { stroke: red; }
.edge:hover polygon { stroke: red; fill: red; }
]]></style>

<defs>
  <circle id="rim" cx="0" cy="0" r="7"/>
  <circle id="rim2" cx="0" cy="0" r="3.5"/>
  <g id="zoomPlus">
    <use xlink:href="#rim" fill="#404040"><set attributeName="fill" to="#808080" begin="zoomplus.mouseover" end="zoomplus.mouseout"/></use>
    <path d="M-4,0h8M0,-4v8" fill="none" stroke="white" stroke-width="1.5" pointer-events="none"/>
  </g>
  <g id="zoomMin">
    <use xlink:href="#rim" fill="#404040"><set attributeName="fill" to="#808080" begin="zoomminus.mouseover" end="zoomminus.mouseout"/></use>
    <path d="M-4,0h8" fill="none" stroke="white" stroke-width="1.5" pointer-events="none"/>
  </g>
  <g id="arrowUp" transform="translate(30 24)">
    <use xlink:href="#rim"/>
    <path pointer-events="none" fill="none" stroke="white" stroke-width="1.5" d="M0,-3.0v7 M-2.5,-0.5L0,-3.0L2.5,-0.5"/>
  </g>
  <g id="arrowRight" transform="rotate(90) translate(36 -43)">
    <use xlink:href="#rim"/>
    <path pointer-events="none" fill="none" stroke="white" stroke-width="1.5" d="M0,-3.0v7 M-2.5,-0.5L0,-3.0L2.5,-0.5"/>
  </g>
  <g id="arrowDown" transform="rotate(180) translate(-30 -48)">
    <use xlink:href="#rim"/>
    <path pointer-events="none" fill="none" stroke="white" stroke-width="1.5" d="M0,-3.0v7 M-2.5,-0.5L0,-3.0L2.5,-0.5"/>
  </g>
  <g id="arrowLeft" transform="rotate(270) translate(-36 17)">
    <use xlink:href="#rim"/>
    <path pointer-events="none" fill="none" stroke="white" stroke-width="1.5" d="M0,-3.0v7 M-2.5,-0.5L0,-3.0L2.5,-0.5"/>
  </g>
  <g id="resetDef">
    <use xlink:href="#rim2" fill="#404040"><set attributeName="fill" to="#808080" begin="reset.mouseover" end="reset.mouseout"/></use>
  </g>
</defs>
<script type="application/ecmascript">
var viewWidth = 1670;
var viewHeight = 302;
var sectionId = 'dynsection-0';
</script>
<script type="application/ecmascript" xlink:href="svg.min.js"/>
<svg id="graph" class="graph">
<g id="viewport">
<title>terminal&#45;window.c</title>
<!-- Node1 -->
<g id="Node000001" class="node">
<title>Node1</title>
<g id="a_Node000001"><a xlink:title=" ">
<polygon fill="#999999" stroke="#666666" points="762,-294 655,-294 655,-275 762,-275 762,-294"/>
<text text-anchor="middle" x="708.5" y="-282" font-family="Helvetica,sans-Serif" font-size="10.00">terminal&#45;window.c</text>
</a>
</g>
</g>
<!-- Node2 -->
<g id="Node000002" class="node">
<title>Node2</title>
<g id="a_Node000002"><a xlink:title=" ">
<polygon fill="#e0e0e0" stroke="#999999" points="55,-239 0,-239 0,-220 55,-220 55,-239"/>
<text text-anchor="middle" x="27.5" y="-227" font-family="Helvetica,sans-Serif" font-size="10.00">config.h</text>
</a>
</g>
</g>
<!-- Node1&#45;&gt;Node2 -->
<g id="edge1_Node000001_Node000002" class="edge">
<title>Node1&#45;&gt;Node2</title>
<g id="a_edge1_Node000001_Node000002"><a xlink:title=" ">
<path fill="none" stroke="#63b8ff" d="M654.66,-282.74C545.18,-280.57 288.68,-272.21 65.26,-239.04"/>
<polygon fill="#63b8ff" stroke="#63b8ff" points="65.73,-235.57 55.32,-237.54 64.69,-242.49 65.73,-235.57"/>
</a>
</g>
</g>
<!-- Node3 -->
<g id="Node000003" class="node">
<title>Node3</title>
<g id="a_Node000003"><a xlink:title=" ">
<polygon fill="#e0e0e0" stroke="#999999" points="126,-239 73,-239 73,-220 126,-220 126,-239"/>
<text text-anchor="middle" x="99.5" y="-227" font-family="Helvetica,sans-Serif" font-size="10.00">string.h</text>
</a>
</g>
</g>
<!-- Node1&#45;&gt;Node3 -->
<g id="edge2_Node000001_Node000003" class="edge">
<title>Node1&#45;&gt;Node3</title>
<g id="a_edge2_Node000001_Node000003"><a xlink:title=" ">
<path fill="none" stroke="#63b8ff" d="M654.75,-282.21C554.42,-279.19 331.82,-269.53 136.05,-239.01"/>
<polygon fill="#63b8ff" stroke="#63b8ff" points="136.59,-235.55 126.16,-237.44 135.49,-242.46 136.59,-235.55"/>
</a>
</g>
</g>
<!-- Node4 -->
<g id="Node000004" class="node">
<title>Node4</title>
<g id="a_Node000004"><a xlink:title=" ">
<polygon fill="#e0e0e0" stroke="#999999" points="197,-239 144,-239 144,-220 197,-220 197,-239"/>
<text text-anchor="middle" x="170.5" y="-227" font-family="Helvetica,sans-Serif" font-size="10.00">stdlib.h</text>
</a>
</g>
</g>
<!-- Node1&#45;&gt;Node4 -->
<g id="edge3_Node000001_Node000004" class="edge">
<title>Node1&#45;&gt;Node4</title>
<g id="a_edge3_Node000001_Node000004"><a xlink:title=" ">
<path fill="none" stroke="#63b8ff" d="M654.94,-280.73C563.59,-275.56 371.97,-262.74 211.5,-239 210.21,-238.81 208.89,-238.6 207.56,-238.38"/>
<polygon fill="#63b8ff" stroke="#63b8ff" points="207.79,-234.87 197.33,-236.52 206.54,-241.75 207.79,-234.87"/>
</a>
</g>
</g>
<!-- Node5 -->
<g id="Node000005" class="node">
<title>Node5</title>
<g id="a_Node000005"><a xlink:title=" ">
<polygon fill="#e0e0e0" stroke="#999999" points="1073.5,-19 1013.5,-19 1013.5,0 1073.5,0 1073.5,-19"/>
<text text-anchor="middle" x="1043.5" y="-7" font-family="Helvetica,sans-Serif" font-size="10.00">gtk/gtk.h</text>
</a>
</g>
</g>
<!-- Node1&#45;&gt;Node5 -->
<g id="edge4_Node000001_Node000005" class="edge">
<title>Node1&#45;&gt;Node5</title>
<g id="a_edge4_Node000001_Node000005"><a xlink:title=" ">
<path fill="none" stroke="#63b8ff" d="M654.8,-281.68C539.39,-277.3 275.65,-264.59 244.5,-239 221.74,-220.3 225.5,-204.96 225.5,-175.5 225.5,-175.5 225.5,-175.5 225.5,-118.5 225.5,-89.04 221.37,-73.24 244.5,-55 304.35,-7.79 848.88,-8.82 1003.02,-10.08"/>
<polygon fill="#63b8ff" stroke="#63b8ff" points="1003.4,-13.58 1013.43,-10.17 1003.46,-6.58 1003.4,-13.58"/>
</a>
</g>
</g>
<!-- Node6 -->
<g id="Node000006" class="node">
<title>Node6</title>
<g id="a_Node000006"><a xlink:title=" ">
<polygon fill="#e0e0e0" stroke="#999999" points="319,-239 254,-239 254,-220 319,-220 319,-239"/>
<text text-anchor="middle" x="286.5" y="-227" font-family="Helvetica,sans-Serif" font-size="10.00">gdk/gdk.h</text>
</a>
</g>
</g>
<!-- Node1&#45;&gt;Node6 -->
<g id="edge5_Node000001_Node000006" class="edge">
<title>Node1&#45;&gt;Node6</title>
<g id="a_edge5_Node000001_Node000006"><a xlink:title=" ">
<path fill="none" stroke="#63b8ff" d="M654.82,-278.63C582.98,-271.8 451.44,-258.2 328.94,-238.94"/>
<polygon fill="#63b8ff" stroke="#63b8ff" points="329.44,-235.47 319.01,-237.36 328.34,-242.38 329.44,-235.47"/>
</a>
</g>
</g>
<!-- Node7 -->
<g id="Node000007" class="node">
<title>Node7</title>
<g id="a_Node000007"><a xlink:title=" ">
<polygon fill="#e0e0e0" stroke="#999999" points="445.5,-239 337.5,-239 337.5,-220 445.5,-220 445.5,-239"/>
<text text-anchor="middle" x="391.5" y="-227" font-family="Helvetica,sans-Serif" font-size="10.00">gdk/gdkkeysyms.h</text>
</a>
</g>
</g>
<!-- Node1&#45;&gt;Node7 -->
<g id="edge6_Node000001_Node000007" class="edge">
<title>Node1&#45;&gt;Node7</title>
<g id="a_edge6_Node000001_Node000007"><a xlink:title=" ">
<path fill="none" stroke="#63b8ff" d="M657.57,-274.98C601.73,-265.65 512.17,-250.67 452.59,-240.71"/>
<polygon fill="#63b8ff" stroke="#63b8ff" points="453.01,-237.24 442.57,-239.04 451.85,-244.14 453.01,-237.24"/>
</a>
</g>
</g>
<!-- Node8 -->
<g id="Node000008" class="node">
<title>Node8</title>
<g id="a_Node000008"><a xlink:href="terminal-accels_8h.html" target="_top" xlink:title=" ">
<polygon fill="white" stroke="#666666" points="355,-74 254,-74 254,-55 355,-55 355,-74"/>
<text text-anchor="middle" x="304.5" y="-62" font-family="Helvetica,sans-Serif" font-size="10.00">terminal&#45;accels.h</text>
</a>
</g>
</g>
<!-- Node1&#45;&gt;Node8 -->
<g id="edge7_Node000001_Node000008" class="edge">
<title>Node1&#45;&gt;Node8</title>
<g id="a_edge7_Node000001_Node000008"><a xlink:title=" ">
<path fill="none" stroke="#63b8ff" d="M654.64,-276.39C610.3,-269.6 546.23,-257.61 492.5,-239 474.66,-232.82 472.02,-227.04 454.5,-220 404.42,-199.86 376.26,-222.58 338.5,-184 311.89,-156.81 305.84,-110.24 304.63,-84.32"/>
<polygon fill="#63b8ff" stroke="#63b8ff" points="308.12,-83.91 304.36,-74 301.12,-84.09 308.12,-83.91"/>
</a>
</g>
</g>
<!-- Node9 -->
<g id="Node000009" class="node">
<title>Node9</title>
<g id="a_Node000009"><a xlink:href="terminal-actions_8h.html" target="_top" xlink:title=" ">
<polygon fill="white" stroke="#666666" points="607.5,-239 501.5,-239 501.5,-220 607.5,-220 607.5,-239"/>
<text text-anchor="middle" x="554.5" y="-227" font-family="Helvetica,sans-Serif" font-size="10.00">terminal&#45;actions.h</text>
</a>
</g>
</g>
<!-- Node1&#45;&gt;Node9 -->
<g id="edge9_Node000001_Node000009" class="edge">
<title>Node1&#45;&gt;Node9</title>
<g id="a_edge9_Node000001_Node000009"><a xlink:title=" ">
<path fill="none" stroke="#63b8ff" d="M683.76,-274.98C658.13,-266.16 617.87,-252.31 589.09,-242.41"/>
<polygon fill="#63b8ff" stroke="#63b8ff" points="590.03,-239.03 579.44,-239.08 587.75,-245.65 590.03,-239.03"/>
</a>
</g>
</g>
<!-- Node11 -->
<g id="Node000011" class="node">
<title>Node11</title>
<g id="a_Node000011"><a xlink:href="terminal-app_8h.html" target="_top" xlink:title=" ">
<polygon fill="white" stroke="#666666" points="753,-239 664,-239 664,-220 753,-220 753,-239"/>
<text text-anchor="middle" x="708.5" y="-227" font-family="Helvetica,sans-Serif" font-size="10.00">terminal&#45;app.h</text>
</a>
</g>
</g>
<!-- Node1&#45;&gt;Node11 -->
<g id="edge12_Node000001_Node000011" class="edge">
<title>Node1&#45;&gt;Node11</title>
<g id="a_edge12_Node000001_Node000011"><a xlink:title=" ">
<path fill="none" stroke="#63b8ff" d="M708.5,-274.75C708.5,-267.8 708.5,-257.85 708.5,-249.13"/>
<polygon fill="#63b8ff" stroke="#63b8ff" points="712,-249.09 708.5,-239.09 705,-249.09 712,-249.09"/>
</a>
</g>
</g>
<!-- Node12 -->
<g id="Node000012" class="node">
<title>Node12</title>
<g id="a_Node000012"><a xlink:href="terminal-encoding_8h.html" target="_top" xlink:title=" ">
<polygon fill="white" stroke="#666666" points="573,-184 458,-184 458,-165 573,-165 573,-184"/>
<text text-anchor="middle" x="515.5" y="-172" font-family="Helvetica,sans-Serif" font-size="10.00">terminal&#45;encoding.h</text>
</a>
</g>
</g>
<!-- Node1&#45;&gt;Node12 -->
<g id="edge26_Node000001_Node000012" class="edge">
<title>Node1&#45;&gt;Node12</title>
<g id="a_edge26_Node000001_Node000012"><a xlink:title=" ">
<path fill="none" stroke="#63b8ff" d="M697.61,-274.97C680.83,-262.06 647.33,-237.23 616.5,-220 594.22,-207.55 567.78,-196.01 547.54,-187.8"/>
<polygon fill="#63b8ff" stroke="#63b8ff" points="548.74,-184.51 538.15,-184.05 546.14,-191.01 548.74,-184.51"/>
</a>
</g>
</g>
<!-- Node18 -->
<g id="Node000018" class="node">
<title>Node18</title>
<g id="a_Node000018"><a xlink:href="terminal-debug_8h.html" target="_top" xlink:title=" ">
<polygon fill="white" stroke="#666666" points="915,-239 814,-239 814,-220 915,-220 915,-239"/>
<text text-anchor="middle" x="864.5" y="-227" font-family="Helvetica,sans-Serif" font-size="10.00">terminal&#45;debug.h</text>
</a>
</g>
</g>
<!-- Node1&#45;&gt;Node18 -->
<g id="edge22_Node000001_Node000018" class="edge">
<title>Node1&#45;&gt;Node18</title>
<g id="a_edge22_Node000001_Node000018"><a xlink:title=" ">
<path fill="none" stroke="#63b8ff" d="M733.56,-274.98C759.53,-266.16 800.31,-252.31 829.46,-242.41"/>
<polygon fill="#63b8ff" stroke="#63b8ff" points="830.9,-245.61 839.24,-239.08 828.65,-238.99 830.9,-245.61"/>
</a>
</g>
</g>
<!-- Node21 -->
<g id="Node000021" class="node">
<title>Node21</title>
<g id="a_Node000021"><a xlink:href="terminal-intl_8h.html" target="_top" xlink:title=" ">
<polygon fill="white" stroke="#666666" points="1071.5,-239 985.5,-239 985.5,-220 1071.5,-220 1071.5,-239"/>
<text text-anchor="middle" x="1028.5" y="-227" font-family="Helvetica,sans-Serif" font-size="10.00">terminal&#45;intl.h</text>
</a>
</g>
</g>
<!-- Node1&#45;&gt;Node21 -->
<g id="edge27_Node000001_Node000021" class="edge">
<title>Node1&#45;&gt;Node21</title>
<g id="a_edge27_Node000001_Node000021"><a xlink:title=" ">
<path fill="none" stroke="#63b8ff" d="M759.91,-274.98C819.04,-265.19 915.61,-249.2 975.42,-239.29"/>
<polygon fill="#63b8ff" stroke="#63b8ff" points="976.13,-242.72 985.42,-237.63 974.98,-235.82 976.13,-242.72"/>
</a>
</g>
</g>
<!-- Node23 -->
<g id="Node000023" class="node">
<title>Node23</title>
<g id="a_Node000023"><a xlink:href="terminal-screen-container_8h.html" target="_top" xlink:title=" ">
<polygon fill="white" stroke="#666666" points="1245.5,-184 1093.5,-184 1093.5,-165 1245.5,-165 1245.5,-184"/>
<text text-anchor="middle" x="1169.5" y="-172" font-family="Helvetica,sans-Serif" font-size="10.00">terminal&#45;screen&#45;container.h</text>
</a>
</g>
</g>
<!-- Node1&#45;&gt;Node23 -->
<g id="edge29_Node000001_Node000023" class="edge">
<title>Node1&#45;&gt;Node23</title>
<g id="a_edge29_Node000001_Node000023"><a xlink:title=" ">
<path fill="none" stroke="#63b8ff" d="M762.29,-280.35C850.97,-274.62 1023.71,-260.99 1080.5,-239 1108.54,-228.15 1135.95,-206.41 1152.78,-191.42"/>
<polygon fill="#63b8ff" stroke="#63b8ff" points="1155.55,-193.62 1160.56,-184.29 1150.82,-188.46 1155.55,-193.62"/>
</a>
</g>
</g>
<!-- Node24 -->
<g id="Node000024" class="node">
<title>Node24</title>
<g id="a_Node000024"><a xlink:href="terminal-search-dialog_8h.html" target="_top" xlink:title=" ">
<polygon fill="white" stroke="#666666" points="1209,-129 1072,-129 1072,-110 1209,-110 1209,-129"/>
<text text-anchor="middle" x="1140.5" y="-117" font-family="Helvetica,sans-Serif" font-size="10.00">terminal&#45;search&#45;dialog.h</text>
</a>
</g>
</g>
<!-- Node1&#45;&gt;Node24 -->
<g id="edge32_Node000001_Node000024" class="edge">
<title>Node1&#45;&gt;Node24</title>
<g id="a_edge32_Node000001_Node000024"><a xlink:title=" ">
<path fill="none" stroke="#63b8ff" d="M762.37,-282.83C889.02,-279.91 1199.2,-264.52 1254.5,-184 1272.63,-157.6 1235.97,-140.99 1199.51,-131.41"/>
<polygon fill="#63b8ff" stroke="#63b8ff" points="1200.33,-128.01 1189.78,-129.01 1198.65,-134.81 1200.33,-128.01"/>
</a>
</g>
</g>
<!-- Node25 -->
<g id="Node000025" class="node">
<title>Node25</title>
<g id="a_Node000025"><a xlink:href="terminal-tab-label_8h.html" target="_top" xlink:title=" ">
<polygon fill="white" stroke="#666666" points="1415.5,-184 1301.5,-184 1301.5,-165 1415.5,-165 1415.5,-184"/>
<text text-anchor="middle" x="1358.5" y="-172" font-family="Helvetica,sans-Serif" font-size="10.00">terminal&#45;tab&#45;label.h</text>
</a>
</g>
</g>
<!-- Node1&#45;&gt;Node25 -->
<g id="edge35_Node000001_Node000025" class="edge">
<title>Node1&#45;&gt;Node25</title>
<g id="a_edge35_Node000001_Node000025"><a xlink:title=" ">
<path fill="none" stroke="#63b8ff" d="M762.19,-283.63C886.76,-283.24 1191.89,-278.18 1285.5,-239 1309.82,-228.82 1331.75,-207.26 1345.09,-192.09"/>
<polygon fill="#63b8ff" stroke="#63b8ff" points="1347.78,-194.33 1351.58,-184.44 1342.44,-189.81 1347.78,-194.33"/>
</a>
</g>
</g>
<!-- Node26 -->
<g id="Node000026" class="node">
<title>Node26</title>
<g id="a_Node000026"><a xlink:href="terminal-tabs-menu_8h.html" target="_top" xlink:title=" ">
<polygon fill="white" stroke="#666666" points="1461,-239 1338,-239 1338,-220 1461,-220 1461,-239"/>
<text text-anchor="middle" x="1399.5" y="-227" font-family="Helvetica,sans-Serif" font-size="10.00">terminal&#45;tabs&#45;menu.h</text>
</a>
</g>
</g>
<!-- Node1&#45;&gt;Node26 -->
<g id="edge38_Node000001_Node000026" class="edge">
<title>Node1&#45;&gt;Node26</title>
<g id="a_edge38_Node000001_Node000026"><a xlink:title=" ">
<path fill="none" stroke="#63b8ff" d="M762.03,-280.33C868.88,-273.86 1116.16,-258.09 1323.5,-239 1324.8,-238.88 1326.12,-238.76 1327.44,-238.63"/>
<polygon fill="#63b8ff" stroke="#63b8ff" points="1328.11,-242.08 1337.72,-237.61 1327.42,-235.12 1328.11,-242.08"/>
</a>
</g>
</g>
<!-- Node27 -->
<g id="Node000027" class="node">
<title>Node27</title>
<g id="a_Node000027"><a xlink:href="terminal-window_8h.html" target="_top" xlink:title=" ">
<polygon fill="white" stroke="#666666" points="1541,-184 1434,-184 1434,-165 1541,-165 1541,-184"/>
<text text-anchor="middle" x="1487.5" y="-172" font-family="Helvetica,sans-Serif" font-size="10.00">terminal&#45;window.h</text>
</a>
</g>
</g>
<!-- Node1&#45;&gt;Node27 -->
<g id="edge45_Node000001_Node000027" class="edge">
<title>Node1&#45;&gt;Node27</title>
<g id="a_edge45_Node000001_Node000027"><a xlink:title=" ">
<path fill="none" stroke="#63b8ff" d="M762.01,-283.93C926.34,-284.78 1415.89,-283.5 1470.5,-239 1483.48,-228.42 1487.17,-209.1 1487.95,-194.54"/>
<polygon fill="#63b8ff" stroke="#63b8ff" points="1491.45,-194.18 1488.07,-184.14 1484.45,-194.1 1491.45,-194.18"/>
</a>
</g>
</g>
<!-- Node28 -->
<g id="Node000028" class="node">
<title>Node28</title>
<g id="a_Node000028"><a xlink:href="terminal-util_8h.html" target="_top" xlink:title=" ">
<polygon fill="white" stroke="#666666" points="1645.5,-184 1559.5,-184 1559.5,-165 1645.5,-165 1645.5,-184"/>
<text text-anchor="middle" x="1602.5" y="-172" font-family="Helvetica,sans-Serif" font-size="10.00">terminal&#45;util.h</text>
</a>
</g>
</g>
<!-- Node1&#45;&gt;Node28 -->
<g id="edge42_Node000001_Node000028" class="edge">
<title>Node1&#45;&gt;Node28</title>
<g id="a_edge42_Node000001_Node000028"><a xlink:title=" ">
<path fill="none" stroke="#63b8ff" d="M762.18,-283.61C915.58,-283.43 1353.61,-279.3 1490.5,-239 1525.77,-228.62 1561.96,-205.36 1583.32,-190.06"/>
<polygon fill="#63b8ff" stroke="#63b8ff" points="1585.53,-192.78 1591.52,-184.05 1581.39,-187.14 1585.53,-192.78"/>
</a>
</g>
</g>
<!-- Node29 -->
<g id="Node000029" class="node">
<title>Node29</title>
<g id="a_Node000029"><a xlink:href="terminal-version_8h.html" target="_top" xlink:title=" ">
<polygon fill="white" stroke="#666666" points="1661.5,-239 1555.5,-239 1555.5,-220 1661.5,-220 1661.5,-239"/>
<text text-anchor="middle" x="1608.5" y="-227" font-family="Helvetica,sans-Serif" font-size="10.00">terminal&#45;version.h</text>
</a>
</g>
</g>
<!-- Node1&#45;&gt;Node29 -->
<g id="edge46_Node000001_Node000029" class="edge">
<title>Node1&#45;&gt;Node29</title>
<g id="a_edge46_Node000001_Node000029"><a xlink:title=" ">
<path fill="none" stroke="#63b8ff" d="M762.2,-281.99C894.73,-277.96 1247.97,-265.42 1541.5,-239 1542.61,-238.9 1543.73,-238.8 1544.86,-238.69"/>
<polygon fill="#63b8ff" stroke="#63b8ff" points="1545.56,-242.13 1555.14,-237.62 1544.84,-235.17 1545.56,-242.13"/>
</a>
</g>
</g>
<!-- Node8&#45;&gt;Node5 -->
<g id="edge8_Node000008_Node000005" class="edge">
<title>Node8&#45;&gt;Node5</title>
<g id="a_edge8_Node000008_Node000005"><a xlink:title=" ">
<path fill="none" stroke="#63b8ff" d="M355.21,-56.55C360.03,-55.98 364.86,-55.46 369.5,-55 609.27,-31.43 898.28,-17.03 1003.08,-12.26"/>
<polygon fill="#63b8ff" stroke="#63b8ff" points="1003.38,-15.75 1013.21,-11.81 1003.07,-8.76 1003.38,-15.75"/>
</a>
</g>
</g>
<!-- Node9&#45;&gt;Node5 -->
<g id="edge11_Node000009_Node000005" class="edge">
<title>Node9&#45;&gt;Node5</title>
<g id="a_edge11_Node000009_Node000005"><a xlink:title=" ">
<path fill="none" stroke="#63b8ff" d="M506.58,-220C455.24,-210.4 379.94,-194.73 371.5,-184 366.28,-177.36 367.28,-172.32 371.5,-165 420.24,-80.47 468.53,-84.62 561.5,-55 643.47,-28.88 902.66,-16.08 1003.14,-12"/>
<polygon fill="#63b8ff" stroke="#63b8ff" points="1003.35,-15.49 1013.2,-11.6 1003.07,-8.5 1003.35,-15.49"/>
</a>
</g>
</g>
<!-- Node10 -->
<g id="Node000010" class="node">
<title>Node10</title>
<g id="a_Node000010"><a xlink:title=" ">
<polygon fill="#e0e0e0" stroke="#999999" points="440,-184 381,-184 381,-165 440,-165 440,-184"/>
<text text-anchor="middle" x="410.5" y="-172" font-family="Helvetica,sans-Serif" font-size="10.00">gio/gio.h</text>
</a>
</g>
</g>
<!-- Node9&#45;&gt;Node10 -->
<g id="edge10_Node000009_Node000010" class="edge">
<title>Node9&#45;&gt;Node10</title>
<g id="a_edge10_Node000009_Node000010"><a xlink:title=" ">
<path fill="none" stroke="#63b8ff" d="M531.36,-219.98C507.68,-211.27 470.63,-197.63 443.79,-187.75"/>
<polygon fill="#63b8ff" stroke="#63b8ff" points="444.65,-184.34 434.06,-184.17 442.23,-190.91 444.65,-184.34"/>
</a>
</g>
</g>
<!-- Node11&#45;&gt;Node5 -->
<g id="edge13_Node000011_Node000005" class="edge">
<title>Node11&#45;&gt;Node5</title>
<g id="a_edge13_Node000011_Node000005"><a xlink:title=" ">
<path fill="none" stroke="#63b8ff" d="M676.87,-219.98C644.9,-209.72 602.58,-190.63 620.5,-165 709.74,-37.4 916.13,-14.83 1003.39,-11.1"/>
<polygon fill="#63b8ff" stroke="#63b8ff" points="1003.56,-14.59 1013.43,-10.73 1003.31,-7.6 1003.56,-14.59"/>
</a>
</g>
</g>
<!-- Node11&#45;&gt;Node12 -->
<g id="edge14_Node000011_Node000012" class="edge">
<title>Node11&#45;&gt;Node12</title>
<g id="a_edge14_Node000011_Node000012"><a xlink:title=" ">
<path fill="none" stroke="#63b8ff" d="M677.49,-219.98C644.67,-210.97 592.7,-196.7 556.51,-186.76"/>
<polygon fill="#63b8ff" stroke="#63b8ff" points="557.32,-183.36 546.75,-184.08 555.47,-190.11 557.32,-183.36"/>
</a>
</g>
</g>
<!-- Node13 -->
<g id="Node000013" class="node">
<title>Node13</title>
<g id="a_Node000013"><a xlink:href="terminal-screen_8h.html" target="_top" xlink:title=" ">
<polygon fill="white" stroke="#666666" points="1330,-129 1227,-129 1227,-110 1330,-110 1330,-129"/>
<text text-anchor="middle" x="1278.5" y="-117" font-family="Helvetica,sans-Serif" font-size="10.00">terminal&#45;screen.h</text>
</a>
</g>
</g>
<!-- Node11&#45;&gt;Node13 -->
<g id="edge16_Node000011_Node000013" class="edge">
<title>Node11&#45;&gt;Node13</title>
<g id="a_edge16_Node000011_Node000013"><a xlink:title=" ">
<path fill="none" stroke="#63b8ff" d="M715.8,-219.58C728.2,-205.16 754.91,-177.14 784.5,-165 871.23,-129.41 1106.96,-139.12 1216.61,-129.05"/>
<polygon fill="#63b8ff" stroke="#63b8ff" points="1217.22,-132.51 1226.81,-128.02 1216.51,-125.55 1217.22,-132.51"/>
</a>
</g>
</g>
<!-- Node16 -->
<g id="Node000016" class="node">
<title>Node16</title>
<g id="a_Node000016"><a xlink:href="terminal-options_8h.html" target="_top" xlink:title=" ">
<polygon fill="white" stroke="#666666" points="737,-184 630,-184 630,-165 737,-165 737,-184"/>
<text text-anchor="middle" x="683.5" y="-172" font-family="Helvetica,sans-Serif" font-size="10.00">terminal&#45;options.h</text>
</a>
</g>
</g>
<!-- Node11&#45;&gt;Node16 -->
<g id="edge20_Node000011_Node000016" class="edge">
<title>Node11&#45;&gt;Node16</title>
<g id="a_edge20_Node000011_Node000016"><a xlink:title=" ">
<path fill="none" stroke="#63b8ff" d="M704.37,-219.75C700.99,-212.57 696.08,-202.18 691.88,-193.27"/>
<polygon fill="#63b8ff" stroke="#63b8ff" points="694.98,-191.64 687.55,-184.09 688.65,-194.63 694.98,-191.64"/>
</a>
</g>
</g>
<!-- Node12&#45;&gt;Node5 -->
<g id="edge15_Node000012_Node000005" class="edge">
<title>Node12&#45;&gt;Node5</title>
<g id="a_edge15_Node000012_Node000005"><a xlink:title=" ">
<path fill="none" stroke="#63b8ff" d="M517.86,-164.72C524.48,-142.04 545.51,-81.39 587.5,-55 656.22,-11.82 905.13,-9.2 1003.3,-9.92"/>
<polygon fill="#63b8ff" stroke="#63b8ff" points="1003.38,-13.42 1013.41,-10.01 1003.44,-6.42 1003.38,-13.42"/>
</a>
</g>
</g>
<!-- Node14 -->
<g id="Node000014" class="node">
<title>Node14</title>
<g id="a_Node000014"><a xlink:title=" ">
<polygon fill="#e0e0e0" stroke="#999999" points="1180.5,-74 1120.5,-74 1120.5,-55 1180.5,-55 1180.5,-74"/>
<text text-anchor="middle" x="1150.5" y="-62" font-family="Helvetica,sans-Serif" font-size="10.00">vte/vte.h</text>
</a>
</g>
</g>
<!-- Node13&#45;&gt;Node14 -->
<g id="edge17_Node000013_Node000014" class="edge">
<title>Node13&#45;&gt;Node14</title>
<g id="a_edge17_Node000013_Node000014"><a xlink:title=" ">
<path fill="none" stroke="#63b8ff" d="M1257.93,-109.98C1237.07,-101.34 1204.53,-87.87 1180.73,-78.02"/>
<polygon fill="#63b8ff" stroke="#63b8ff" points="1182.02,-74.76 1171.44,-74.17 1179.34,-81.23 1182.02,-74.76"/>
</a>
</g>
</g>
<!-- Node15 -->
<g id="Node000015" class="node">
<title>Node15</title>
<g id="a_Node000015"><a xlink:href="terminal-profile_8h.html" target="_top" xlink:title=" ">
<polygon fill="white" stroke="#666666" points="1310,-74 1209,-74 1209,-55 1310,-55 1310,-74"/>
<text text-anchor="middle" x="1259.5" y="-62" font-family="Helvetica,sans-Serif" font-size="10.00">terminal&#45;profile.h</text>
</a>
</g>
</g>
<!-- Node13&#45;&gt;Node15 -->
<g id="edge18_Node000013_Node000015" class="edge">
<title>Node13&#45;&gt;Node15</title>
<g id="a_edge18_Node000013_Node000015"><a xlink:title=" ">
<path fill="none" stroke="#63b8ff" d="M1275.36,-109.75C1272.82,-102.65 1269.14,-92.4 1265.97,-83.56"/>
<polygon fill="#63b8ff" stroke="#63b8ff" points="1269.25,-82.32 1262.58,-74.09 1262.66,-84.68 1269.25,-82.32"/>
</a>
</g>
</g>
<!-- Node15&#45;&gt;Node5 -->
<g id="edge19_Node000015_Node000005" class="edge">
<title>Node15&#45;&gt;Node5</title>
<g id="a_edge19_Node000015_Node000005"><a xlink:title=" ">
<path fill="none" stroke="#63b8ff" d="M1224.8,-54.98C1186.21,-45.52 1123.98,-30.25 1083.41,-20.29"/>
<polygon fill="#63b8ff" stroke="#63b8ff" points="1084.13,-16.87 1073.59,-17.88 1082.47,-23.67 1084.13,-16.87"/>
</a>
</g>
</g>
<!-- Node17 -->
<g id="Node000017" class="node">
<title>Node17</title>
<g id="a_Node000017"><a xlink:title=" ">
<polygon fill="#e0e0e0" stroke="#999999" points="850.5,-129 806.5,-129 806.5,-110 850.5,-110 850.5,-129"/>
<text text-anchor="middle" x="828.5" y="-117" font-family="Helvetica,sans-Serif" font-size="10.00">glib.h</text>
</a>
</g>
</g>
<!-- Node16&#45;&gt;Node17 -->
<g id="edge21_Node000016_Node000017" class="edge">
<title>Node16&#45;&gt;Node17</title>
<g id="a_edge21_Node000016_Node000017"><a xlink:title=" ">
<path fill="none" stroke="#63b8ff" d="M706.8,-164.98C731.18,-156.07 769.63,-142.02 796.77,-132.1"/>
<polygon fill="#63b8ff" stroke="#63b8ff" points="798.02,-135.37 806.21,-128.65 795.62,-128.79 798.02,-135.37"/>
</a>
</g>
</g>
<!-- Node18&#45;&gt;Node17 -->
<g id="edge23_Node000018_Node000017" class="edge">
<title>Node18&#45;&gt;Node17</title>
<g id="a_edge23_Node000018_Node000017"><a xlink:title=" ">
<path fill="none" stroke="#63b8ff" d="M897.14,-219.99C929.81,-209.81 972.78,-190.84 954.5,-165 933.5,-135.31 890.98,-125.3 861.16,-121.99"/>
<polygon fill="#63b8ff" stroke="#63b8ff" points="861.09,-118.47 850.82,-121.06 860.46,-125.44 861.09,-118.47"/>
</a>
</g>
</g>
<!-- Node19 -->
<g id="Node000019" class="node">
<title>Node19</title>
<g id="a_Node000019"><a xlink:title=" ">
<polygon fill="#e0e0e0" stroke="#999999" points="849.5,-184 793.5,-184 793.5,-165 849.5,-165 849.5,-184"/>
<text text-anchor="middle" x="821.5" y="-172" font-family="Helvetica,sans-Serif" font-size="10.00">stdarg.h</text>
</a>
</g>
</g>
<!-- Node18&#45;&gt;Node19 -->
<g id="edge24_Node000018_Node000019" class="edge">
<title>Node18&#45;&gt;Node19</title>
<g id="a_edge24_Node000018_Node000019"><a xlink:title=" ">
<path fill="none" stroke="#63b8ff" d="M857.4,-219.75C851.33,-212.26 842.41,-201.28 834.99,-192.13"/>
<polygon fill="#63b8ff" stroke="#63b8ff" points="837.49,-189.65 828.47,-184.09 832.05,-194.06 837.49,-189.65"/>
</a>
</g>
</g>
<!-- Node20 -->
<g id="Node000020" class="node">
<title>Node20</title>
<g id="a_Node000020"><a xlink:title=" ">
<polygon fill="#e0e0e0" stroke="#999999" points="945,-184 868,-184 868,-165 945,-165 945,-184"/>
<text text-anchor="middle" x="906.5" y="-172" font-family="Helvetica,sans-Serif" font-size="10.00">glib/gstdio.h</text>
</a>
</g>
</g>
<!-- Node18&#45;&gt;Node20 -->
<g id="edge25_Node000018_Node000020" class="edge">
<title>Node18&#45;&gt;Node20</title>
<g id="a_edge25_Node000018_Node000020"><a xlink:title=" ">
<path fill="none" stroke="#63b8ff" d="M871.44,-219.75C877.37,-212.26 886.07,-201.28 893.32,-192.13"/>
<polygon fill="#63b8ff" stroke="#63b8ff" points="896.23,-194.1 899.69,-184.09 890.74,-189.75 896.23,-194.1"/>
</a>
</g>
</g>
<!-- Node22 -->
<g id="Node000022" class="node">
<title>Node22</title>
<g id="a_Node000022"><a xlink:title=" ">
<polygon fill="#e0e0e0" stroke="#999999" points="1075.5,-184 1001.5,-184 1001.5,-165 1075.5,-165 1075.5,-184"/>
<text text-anchor="middle" x="1038.5" y="-172" font-family="Helvetica,sans-Serif" font-size="10.00">glib/gi18n.h</text>
</a>
</g>
</g>
<!-- Node21&#45;&gt;Node22 -->
<g id="edge28_Node000021_Node000022" class="edge">
<title>Node21&#45;&gt;Node22</title>
<g id="a_edge28_Node000021_Node000022"><a xlink:title=" ">
<path fill="none" stroke="#63b8ff" d="M1030.15,-219.75C1031.46,-212.8 1033.34,-202.85 1034.98,-194.13"/>
<polygon fill="#63b8ff" stroke="#63b8ff" points="1038.46,-194.56 1036.88,-184.09 1031.59,-193.27 1038.46,-194.56"/>
</a>
</g>
</g>
<!-- Node23&#45;&gt;Node5 -->
<g id="edge30_Node000023_Node000005" class="edge">
<title>Node23&#45;&gt;Node5</title>
<g id="a_edge30_Node000023_Node000005"><a xlink:title=" ">
<path fill="none" stroke="#63b8ff" d="M1123.87,-164.98C1102.4,-158.63 1078.32,-147.69 1063.5,-129 1040.57,-100.08 1039.78,-54.54 1041.48,-29.16"/>
<polygon fill="#63b8ff" stroke="#63b8ff" points="1044.98,-29.32 1042.37,-19.05 1038.01,-28.71 1044.98,-29.32"/>
</a>
</g>
</g>
<!-- Node23&#45;&gt;Node13 -->
<g id="edge31_Node000023_Node000013" class="edge">
<title>Node23&#45;&gt;Node13</title>
<g id="a_edge31_Node000023_Node000013"><a xlink:title=" ">
<path fill="none" stroke="#63b8ff" d="M1187.01,-164.98C1204.47,-156.5 1231.51,-143.35 1251.67,-133.54"/>
<polygon fill="#63b8ff" stroke="#63b8ff" points="1253.21,-136.69 1260.67,-129.17 1250.14,-130.4 1253.21,-136.69"/>
</a>
</g>
</g>
<!-- Node24&#45;&gt;Node5 -->
<g id="edge33_Node000024_Node000005" class="edge">
<title>Node24&#45;&gt;Node5</title>
<g id="a_edge33_Node000024_Node000005"><a xlink:title=" ">
<path fill="none" stroke="#63b8ff" d="M1132.56,-109.66C1116.28,-91.54 1078.9,-49.91 1058.11,-26.77"/>
<polygon fill="#63b8ff" stroke="#63b8ff" points="1060.56,-24.26 1051.28,-19.16 1055.35,-28.94 1060.56,-24.26"/>
</a>
</g>
</g>
<!-- Node24&#45;&gt;Node14 -->
<g id="edge34_Node000024_Node000014" class="edge">
<title>Node24&#45;&gt;Node14</title>
<g id="a_edge34_Node000024_Node000014"><a xlink:title=" ">
<path fill="none" stroke="#63b8ff" d="M1142.15,-109.75C1143.46,-102.8 1145.34,-92.85 1146.98,-84.13"/>
<polygon fill="#63b8ff" stroke="#63b8ff" points="1150.46,-84.56 1148.88,-74.09 1143.59,-83.27 1150.46,-84.56"/>
</a>
</g>
</g>
<!-- Node25&#45;&gt;Node5 -->
<g id="edge36_Node000025_Node000005" class="edge">
<title>Node25&#45;&gt;Node5</title>
<g id="a_edge36_Node000025_Node000005"><a xlink:title=" ">
<path fill="none" stroke="#63b8ff" d="M1358.55,-164.96C1358.18,-142.84 1353.88,-83.43 1319.5,-55 1284.35,-25.93 1152.05,-15.56 1084.19,-12.1"/>
<polygon fill="#63b8ff" stroke="#63b8ff" points="1084.04,-8.59 1073.88,-11.6 1083.7,-15.58 1084.04,-8.59"/>
</a>
</g>
</g>
<!-- Node25&#45;&gt;Node13 -->
<g id="edge37_Node000025_Node000013" class="edge">
<title>Node25&#45;&gt;Node13</title>
<g id="a_edge37_Node000025_Node000013"><a xlink:title=" ">
<path fill="none" stroke="#63b8ff" d="M1345.65,-164.98C1333.36,-156.84 1314.59,-144.41 1300.02,-134.76"/>
<polygon fill="#63b8ff" stroke="#63b8ff" points="1301.86,-131.78 1291.59,-129.17 1297.99,-137.61 1301.86,-131.78"/>
</a>
</g>
</g>
<!-- Node26&#45;&gt;Node27 -->
<g id="edge39_Node000026_Node000027" class="edge">
<title>Node26&#45;&gt;Node27</title>
<g id="a_edge39_Node000026_Node000027"><a xlink:title=" ">
<path fill="none" stroke="#63b8ff" d="M1413.64,-219.98C1427.29,-211.77 1448.19,-199.18 1464.28,-189.49"/>
<polygon fill="#63b8ff" stroke="#63b8ff" points="1466.34,-192.33 1473.1,-184.17 1462.73,-186.33 1466.34,-192.33"/>
</a>
</g>
</g>
<!-- Node27&#45;&gt;Node5 -->
<g id="edge40_Node000027_Node000005" class="edge">
<title>Node27&#45;&gt;Node5</title>
<g id="a_edge40_Node000027_Node000005"><a xlink:title=" ">
<path fill="none" stroke="#63b8ff" d="M1479.94,-164.81C1459.84,-142.33 1402.33,-82.14 1340.5,-55 1254.48,-17.24 1142.42,-10.59 1083.59,-9.96"/>
<polygon fill="#63b8ff" stroke="#63b8ff" points="1083.6,-6.46 1073.58,-9.91 1083.56,-13.46 1083.6,-6.46"/>
</a>
</g>
</g>
<!-- Node27&#45;&gt;Node13 -->
<g id="edge41_Node000027_Node000013" class="edge">
<title>Node27&#45;&gt;Node13</title>
<g id="a_edge41_Node000027_Node000013"><a xlink:title=" ">
<path fill="none" stroke="#63b8ff" d="M1453.92,-164.98C1418.15,-155.91 1361.38,-141.52 1322.16,-131.57"/>
<polygon fill="#63b8ff" stroke="#63b8ff" points="1322.9,-128.15 1312.34,-129.08 1321.18,-134.93 1322.9,-128.15"/>
</a>
</g>
</g>
<!-- Node28&#45;&gt;Node5 -->
<g id="edge43_Node000028_Node000005" class="edge">
<title>Node28&#45;&gt;Node5</title>
<g id="a_edge43_Node000028_Node000005"><a xlink:title=" ">
<path fill="none" stroke="#63b8ff" d="M1589.58,-164.89C1555.45,-142.62 1459.4,-82.87 1370.5,-55 1270.5,-23.65 1146.45,-14.38 1083.78,-11.65"/>
<polygon fill="#63b8ff" stroke="#63b8ff" points="1083.67,-8.14 1073.54,-11.23 1083.39,-15.13 1083.67,-8.14"/>
</a>
</g>
</g>
<!-- Node28&#45;&gt;Node13 -->
<g id="edge44_Node000028_Node000013" class="edge">
<title>Node28&#45;&gt;Node13</title>
<g id="a_edge44_Node000028_Node000013"><a xlink:title=" ">
<path fill="none" stroke="#63b8ff" d="M1559.48,-166.46C1503.27,-157.27 1404.47,-141.11 1340.27,-130.6"/>
<polygon fill="#63b8ff" stroke="#63b8ff" points="1340.71,-127.13 1330.28,-128.97 1339.58,-134.04 1340.71,-127.13"/>
</a>
</g>
</g>
</g>
</svg>

<g id="navigator" transform="translate(0 0)" fill="#404254">
  <rect fill="#f2f5e9" fill-opacity="0.5" stroke="#606060" stroke-width=".5" x="0" y="0" width="60" height="60"/>
  <use id="zoomplus" xlink:href="#zoomPlus" x="17" y="9" onmousedown="handleZoom(evt,'in')"/>
  <use id="zoomminus" xlink:href="#zoomMin" x="42" y="9" onmousedown="handleZoom(evt,'out')"/>
  <use id="reset" xlink:href="#resetDef" x="30" y="36" onmousedown="handleReset()"/>
   <use id="arrowup" xlink:href="#arrowUp" x="0" y="0" onmousedown="handlePan(0,-1)"/>
  <use id="arrowright" xlink:href="#arrowRight" x="0" y="0" onmousedown="handlePan(1,0)"/>
  <use id="arrowdown" xlink:href="#arrowDown" x="0" y="0" onmousedown="handlePan(0,1)"/>
  <use id="arrowleft" xlink:href="#arrowLeft" x="0" y="0" onmousedown="handlePan(-1,0)"/>
</g>
<svg viewBox="0 0 15 15" width="100%" height="30px" preserveAspectRatio="xMaxYMin meet">
 <g id="arrow_out" transform="scale(0.3 0.3)">
  <a xlink:href="terminal-window_8c__incl_org.svg" target="_base">
   <rect id="button" ry="5" rx="5" y="6" x="6" height="38" width="38"
        fill="#f2f5e9" fill-opacity="0.5" stroke="#606060" stroke-width="1.0"/>
   <path id="arrow"
     d="M 11.500037,31.436501 C 11.940474,20.09759 22.043105,11.32322 32.158766,21.979434 L 37.068811,17.246167 C 37.068811,17.246167 37.088388,32 37.088388,32 L 22.160133,31.978069 C 22.160133,31.978069 26.997745,27.140456 26.997745,27.140456 C 18.528582,18.264221 13.291696,25.230495 11.500037,31.436501 z"
     style="fill:#404040;"/>
  </a>
 </g>
</svg>

<style type='text/css'>
<![CDATA[
[data-mouse-over-selected='false'] { opacity: 0.7; }
[data-mouse-over-selected='true']  { opacity: 1.0; }
]]>
</style>
<script type="application/ecmascript"><![CDATA[
document.addEventListener('DOMContentLoaded', (event) => {
  highlightEdges();
  highlightAdjacentNodes();
});
]]></script>
</svg>
