<?xml version="1.0" encoding="UTF-8" standalone="no"?>
<!DOCTYPE svg PUBLIC "-//W3C//DTD SVG 1.1//EN"
 "http://www.w3.org/Graphics/SVG/1.1/DTD/svg11.dtd">
<!-- Generated by graphviz version 2.43.0 (0)
 -->
<!-- Title: terminal&#45;screen.c Pages: 1 -->
<svg width="2095pt" height="247pt"
 viewBox="0.00 0.00 2095.00 247.00" xmlns="http://www.w3.org/2000/svg" xmlns:xlink="http://www.w3.org/1999/xlink">
<g id="graph0" class="graph" transform="scale(1 1) rotate(0) translate(4 243)">
<title>terminal&#45;screen.c</title>
<!-- Node1 -->
<g id="Node000001" class="node">
<title>Node1</title>
<g id="a_Node000001"><a xlink:title=" ">
<polygon fill="#999999" stroke="#666666" points="989.5,-239 887.5,-239 887.5,-220 989.5,-220 989.5,-239"/>
<text text-anchor="middle" x="938.5" y="-227" font-family="Helvetica,sans-Serif" font-size="10.00">terminal&#45;screen.c</text>
</a>
</g>
</g>
<!-- Node2 -->
<g id="Node000002" class="node">
<title>Node2</title>
<g id="a_Node000002"><a xlink:title=" ">
<polygon fill="#e0e0e0" stroke="#999999" points="55,-184 0,-184 0,-165 55,-165 55,-184"/>
<text text-anchor="middle" x="27.5" y="-172" font-family="Helvetica,sans-Serif" font-size="10.00">config.h</text>
</a>
</g>
</g>
<!-- Node1&#45;&gt;Node2 -->
<g id="edge1_Node000001_Node000002" class="edge">
<title>Node1&#45;&gt;Node2</title>
<g id="a_edge1_Node000001_Node000002"><a xlink:title=" ">
<path fill="none" stroke="#63b8ff" d="M887.4,-229.12C753.63,-230.05 382.19,-228.23 65.61,-184.05"/>
<polygon fill="#63b8ff" stroke="#63b8ff" points="65.7,-180.53 55.31,-182.59 64.72,-187.46 65.7,-180.53"/>
</a>
</g>
</g>
<!-- Node3 -->
<g id="Node000003" class="node">
<title>Node3</title>
<g id="a_Node000003"><a xlink:title=" ">
<polygon fill="#e0e0e0" stroke="#999999" points="126,-184 73,-184 73,-165 126,-165 126,-184"/>
<text text-anchor="middle" x="99.5" y="-172" font-family="Helvetica,sans-Serif" font-size="10.00">string.h</text>
</a>
</g>
</g>
<!-- Node1&#45;&gt;Node3 -->
<g id="edge2_Node000001_Node000003" class="edge">
<title>Node1&#45;&gt;Node3</title>
<g id="a_edge2_Node000001_Node000003"><a xlink:title=" ">
<path fill="none" stroke="#63b8ff" d="M887.38,-228.28C760.43,-227.16 420.83,-220.67 140.5,-184 139.2,-183.83 137.88,-183.64 136.56,-183.44"/>
<polygon fill="#63b8ff" stroke="#63b8ff" points="136.76,-179.92 126.31,-181.65 135.56,-186.82 136.76,-179.92"/>
</a>
</g>
</g>
<!-- Node4 -->
<g id="Node000004" class="node">
<title>Node4</title>
<g id="a_Node000004"><a xlink:title=" ">
<polygon fill="#e0e0e0" stroke="#999999" points="181,-129 128,-129 128,-110 181,-110 181,-129"/>
<text text-anchor="middle" x="154.5" y="-117" font-family="Helvetica,sans-Serif" font-size="10.00">stdlib.h</text>
</a>
</g>
</g>
<!-- Node1&#45;&gt;Node4 -->
<g id="edge3_Node000001_Node000004" class="edge">
<title>Node1&#45;&gt;Node4</title>
<g id="a_edge3_Node000001_Node000004"><a xlink:title=" ">
<path fill="none" stroke="#63b8ff" d="M887.42,-228.87C725.23,-229.58 229.26,-228.1 173.5,-184 160.12,-173.42 155.87,-153.81 154.65,-139.16"/>
<polygon fill="#63b8ff" stroke="#63b8ff" points="158.15,-139.01 154.22,-129.17 151.16,-139.31 158.15,-139.01"/>
</a>
</g>
</g>
<!-- Node5 -->
<g id="Node000005" class="node">
<title>Node5</title>
<g id="a_Node000005"><a xlink:title=" ">
<polygon fill="#e0e0e0" stroke="#999999" points="1103.5,-184 1047.5,-184 1047.5,-165 1103.5,-165 1103.5,-184"/>
<text text-anchor="middle" x="1075.5" y="-172" font-family="Helvetica,sans-Serif" font-size="10.00">unistd.h</text>
</a>
</g>
</g>
<!-- Node1&#45;&gt;Node5 -->
<g id="edge4_Node000001_Node000005" class="edge">
<title>Node1&#45;&gt;Node5</title>
<g id="a_edge4_Node000001_Node000005"><a xlink:title=" ">
<path fill="none" stroke="#63b8ff" d="M960.51,-219.98C982.95,-211.3 1017.98,-197.75 1043.49,-187.88"/>
<polygon fill="#63b8ff" stroke="#63b8ff" points="1045.02,-191.04 1053.09,-184.17 1042.5,-184.51 1045.02,-191.04"/>
</a>
</g>
</g>
<!-- Node6 -->
<g id="Node000006" class="node">
<title>Node6</title>
<g id="a_Node000006"><a xlink:title=" ">
<polygon fill="#e0e0e0" stroke="#999999" points="1187.5,-184 1121.5,-184 1121.5,-165 1187.5,-165 1187.5,-184"/>
<text text-anchor="middle" x="1154.5" y="-172" font-family="Helvetica,sans-Serif" font-size="10.00">sys/wait.h</text>
</a>
</g>
</g>
<!-- Node1&#45;&gt;Node6 -->
<g id="edge5_Node000001_Node000006" class="edge">
<title>Node1&#45;&gt;Node6</title>
<g id="a_edge5_Node000001_Node000006"><a xlink:title=" ">
<path fill="none" stroke="#63b8ff" d="M973.2,-219.98C1010.8,-210.76 1070.84,-196.03 1111.43,-186.07"/>
<polygon fill="#63b8ff" stroke="#63b8ff" points="1112.42,-189.43 1121.3,-183.65 1110.75,-182.63 1112.42,-189.43"/>
</a>
</g>
</g>
<!-- Node7 -->
<g id="Node000007" class="node">
<title>Node7</title>
<g id="a_Node000007"><a xlink:title=" ">
<polygon fill="#e0e0e0" stroke="#999999" points="1265,-184 1206,-184 1206,-165 1265,-165 1265,-184"/>
<text text-anchor="middle" x="1235.5" y="-172" font-family="Helvetica,sans-Serif" font-size="10.00">gio/gio.h</text>
</a>
</g>
</g>
<!-- Node1&#45;&gt;Node7 -->
<g id="edge6_Node000001_Node000007" class="edge">
<title>Node1&#45;&gt;Node7</title>
<g id="a_edge6_Node000001_Node000007"><a xlink:title=" ">
<path fill="none" stroke="#63b8ff" d="M989.53,-220.37C1039.53,-212.26 1118.12,-199.11 1195.76,-184.07"/>
<polygon fill="#63b8ff" stroke="#63b8ff" points="1196.57,-187.48 1205.72,-182.13 1195.23,-180.61 1196.57,-187.48"/>
</a>
</g>
</g>
<!-- Node8 -->
<g id="Node000008" class="node">
<title>Node8</title>
<g id="a_Node000008"><a xlink:title=" ">
<polygon fill="#e0e0e0" stroke="#999999" points="689.5,-19 629.5,-19 629.5,0 689.5,0 689.5,-19"/>
<text text-anchor="middle" x="659.5" y="-7" font-family="Helvetica,sans-Serif" font-size="10.00">gtk/gtk.h</text>
</a>
</g>
</g>
<!-- Node1&#45;&gt;Node8 -->
<g id="edge7_Node000001_Node000008" class="edge">
<title>Node1&#45;&gt;Node8</title>
<g id="a_edge7_Node000001_Node000008"><a xlink:title=" ">
<path fill="none" stroke="#63b8ff" d="M933.24,-219.68C927.93,-210.74 919.53,-196.47 912.5,-184 880.49,-127.17 894.19,-94.79 842.5,-55 801,-23.05 739.78,-13.66 699.78,-11.11"/>
<polygon fill="#63b8ff" stroke="#63b8ff" points="699.76,-7.6 689.59,-10.58 699.39,-14.59 699.76,-7.6"/>
</a>
</g>
</g>
<!-- Node9 -->
<g id="Node000009" class="node">
<title>Node9</title>
<g id="a_Node000009"><a xlink:title=" ">
<polygon fill="#e0e0e0" stroke="#999999" points="1391.5,-184 1283.5,-184 1283.5,-165 1391.5,-165 1391.5,-184"/>
<text text-anchor="middle" x="1337.5" y="-172" font-family="Helvetica,sans-Serif" font-size="10.00">gdk/gdkkeysyms.h</text>
</a>
</g>
</g>
<!-- Node1&#45;&gt;Node9 -->
<g id="edge8_Node000001_Node000009" class="edge">
<title>Node1&#45;&gt;Node9</title>
<g id="a_edge8_Node000001_Node000009"><a xlink:title=" ">
<path fill="none" stroke="#63b8ff" d="M989.85,-221.68C1062.26,-212.06 1194.34,-194.52 1273.19,-184.04"/>
<polygon fill="#63b8ff" stroke="#63b8ff" points="1274.03,-187.46 1283.48,-182.68 1273.11,-180.52 1274.03,-187.46"/>
</a>
</g>
</g>
<!-- Node10 -->
<g id="Node000010" class="node">
<title>Node10</title>
<g id="a_Node000010"><a xlink:title=" ">
<polygon fill="#e0e0e0" stroke="#999999" points="1475,-184 1410,-184 1410,-165 1475,-165 1475,-184"/>
<text text-anchor="middle" x="1442.5" y="-172" font-family="Helvetica,sans-Serif" font-size="10.00">gdk/gdk.h</text>
</a>
</g>
</g>
<!-- Node1&#45;&gt;Node10 -->
<g id="edge9_Node000001_Node000010" class="edge">
<title>Node1&#45;&gt;Node10</title>
<g id="a_edge9_Node000001_Node000010"><a xlink:title=" ">
<path fill="none" stroke="#63b8ff" d="M989.64,-225.31C1073.23,-219.72 1244.5,-206.69 1399.79,-183.94"/>
<polygon fill="#63b8ff" stroke="#63b8ff" points="1400.62,-187.35 1410,-182.42 1399.59,-180.43 1400.62,-187.35"/>
</a>
</g>
</g>
<!-- Node11 -->
<g id="Node000011" class="node">
<title>Node11</title>
<g id="a_Node000011"><a xlink:title=" ">
<polygon fill="#e0e0e0" stroke="#999999" points="1564,-184 1493,-184 1493,-165 1564,-165 1564,-184"/>
<text text-anchor="middle" x="1528.5" y="-172" font-family="Helvetica,sans-Serif" font-size="10.00">gdk/gdkx.h</text>
</a>
</g>
</g>
<!-- Node1&#45;&gt;Node11 -->
<g id="edge10_Node000001_Node000011" class="edge">
<title>Node1&#45;&gt;Node11</title>
<g id="a_edge10_Node000001_Node000011"><a xlink:title=" ">
<path fill="none" stroke="#63b8ff" d="M989.79,-226.12C1084.92,-221.3 1295.3,-208.82 1482.66,-183.96"/>
<polygon fill="#63b8ff" stroke="#63b8ff" points="1483.25,-187.41 1492.69,-182.62 1482.32,-180.48 1483.25,-187.41"/>
</a>
</g>
</g>
<!-- Node12 -->
<g id="Node000012" class="node">
<title>Node12</title>
<g id="a_Node000012"><a xlink:title=" ">
<polygon fill="#e0e0e0" stroke="#999999" points="1715,-184 1582,-184 1582,-165 1715,-165 1715,-184"/>
<text text-anchor="middle" x="1648.5" y="-172" font-family="Helvetica,sans-Serif" font-size="10.00">gdk&#45;pixbuf/gdk&#45;pixbuf.h</text>
</a>
</g>
</g>
<!-- Node1&#45;&gt;Node12 -->
<g id="edge11_Node000001_Node000012" class="edge">
<title>Node1&#45;&gt;Node12</title>
<g id="a_edge11_Node000001_Node000012"><a xlink:title=" ">
<path fill="none" stroke="#63b8ff" d="M989.51,-225.64C1095.65,-219.52 1348.23,-204.17 1571.51,-184.05"/>
<polygon fill="#63b8ff" stroke="#63b8ff" points="1572.14,-187.51 1581.79,-183.12 1571.51,-180.54 1572.14,-187.51"/>
</a>
</g>
</g>
<!-- Node13 -->
<g id="Node000013" class="node">
<title>Node13</title>
<g id="a_Node000013"><a xlink:title=" ">
<polygon fill="#e0e0e0" stroke="#999999" points="1783.5,-184 1733.5,-184 1733.5,-165 1783.5,-165 1783.5,-184"/>
<text text-anchor="middle" x="1758.5" y="-172" font-family="Helvetica,sans-Serif" font-size="10.00">cairo.h</text>
</a>
</g>
</g>
<!-- Node1&#45;&gt;Node13 -->
<g id="edge12_Node000001_Node000013" class="edge">
<title>Node1&#45;&gt;Node13</title>
<g id="a_edge12_Node000001_Node000013"><a xlink:title=" ">
<path fill="none" stroke="#63b8ff" d="M989.8,-228.8C1115.58,-228.85 1449.07,-224.76 1723.5,-184 1723.6,-183.99 1723.7,-183.97 1723.8,-183.95"/>
<polygon fill="#63b8ff" stroke="#63b8ff" points="1724.18,-187.44 1733.37,-182.18 1722.9,-180.56 1724.18,-187.44"/>
</a>
</g>
</g>
<!-- Node14 -->
<g id="Node000014" class="node">
<title>Node14</title>
<g id="a_Node000014"><a xlink:href="terminal-accels_8h.html" target="_top" xlink:title=" ">
<polygon fill="white" stroke="#666666" points="991,-74 890,-74 890,-55 991,-55 991,-74"/>
<text text-anchor="middle" x="940.5" y="-62" font-family="Helvetica,sans-Serif" font-size="10.00">terminal&#45;accels.h</text>
</a>
</g>
</g>
<!-- Node1&#45;&gt;Node14 -->
<g id="edge13_Node000001_Node000014" class="edge">
<title>Node1&#45;&gt;Node14</title>
<g id="a_edge13_Node000001_Node000014"><a xlink:title=" ">
<path fill="none" stroke="#63b8ff" d="M933.18,-219.68C928.27,-210.97 921.31,-197.09 918.5,-184 910.89,-148.52 923.69,-106.72 932.74,-83.45"/>
<polygon fill="#63b8ff" stroke="#63b8ff" points="935.99,-84.74 936.54,-74.16 929.52,-82.09 935.99,-84.74"/>
</a>
</g>
</g>
<!-- Node15 -->
<g id="Node000015" class="node">
<title>Node15</title>
<g id="a_Node000015"><a xlink:href="terminal-app_8h.html" target="_top" xlink:title=" ">
<polygon fill="white" stroke="#666666" points="357,-184 268,-184 268,-165 357,-165 357,-184"/>
<text text-anchor="middle" x="312.5" y="-172" font-family="Helvetica,sans-Serif" font-size="10.00">terminal&#45;app.h</text>
</a>
</g>
</g>
<!-- Node1&#45;&gt;Node15 -->
<g id="edge15_Node000001_Node000015" class="edge">
<title>Node1&#45;&gt;Node15</title>
<g id="a_edge15_Node000001_Node000015"><a xlink:title=" ">
<path fill="none" stroke="#63b8ff" d="M887.18,-225.59C787.58,-219.69 561.15,-205.08 371.5,-184 370.2,-183.86 368.88,-183.7 367.55,-183.55"/>
<polygon fill="#63b8ff" stroke="#63b8ff" points="367.6,-180.03 357.24,-182.26 366.73,-186.97 367.6,-180.03"/>
</a>
</g>
</g>
<!-- Node19 -->
<g id="Node000019" class="node">
<title>Node19</title>
<g id="a_Node000019"><a xlink:href="terminal-profile_8h.html" target="_top" xlink:title=" ">
<polygon fill="white" stroke="#666666" points="497,-74 396,-74 396,-55 497,-55 497,-74"/>
<text text-anchor="middle" x="446.5" y="-62" font-family="Helvetica,sans-Serif" font-size="10.00">terminal&#45;profile.h</text>
</a>
</g>
</g>
<!-- Node1&#45;&gt;Node19 -->
<g id="edge33_Node000001_Node000019" class="edge">
<title>Node1&#45;&gt;Node19</title>
<g id="a_edge33_Node000001_Node000019"><a xlink:title=" ">
<path fill="none" stroke="#63b8ff" d="M887.21,-228.08C759.79,-226.51 436.78,-219.09 404.5,-184 387.03,-165.01 427.35,-133.64 429.5,-129 436.19,-114.59 440.63,-97.07 443.29,-84.09"/>
<polygon fill="#63b8ff" stroke="#63b8ff" points="446.77,-84.51 445.18,-74.04 439.89,-83.22 446.77,-84.51"/>
</a>
</g>
</g>
<!-- Node22 -->
<g id="Node000022" class="node">
<title>Node22</title>
<g id="a_Node000022"><a xlink:href="terminal-debug_8h.html" target="_top" xlink:title=" ">
<polygon fill="white" stroke="#666666" points="1029,-184 928,-184 928,-165 1029,-165 1029,-184"/>
<text text-anchor="middle" x="978.5" y="-172" font-family="Helvetica,sans-Serif" font-size="10.00">terminal&#45;debug.h</text>
</a>
</g>
</g>
<!-- Node1&#45;&gt;Node22 -->
<g id="edge25_Node000001_Node000022" class="edge">
<title>Node1&#45;&gt;Node22</title>
<g id="a_edge25_Node000001_Node000022"><a xlink:title=" ">
<path fill="none" stroke="#63b8ff" d="M945.11,-219.75C950.76,-212.26 959.04,-201.28 965.95,-192.13"/>
<polygon fill="#63b8ff" stroke="#63b8ff" points="968.79,-194.18 972.02,-184.09 963.2,-189.96 968.79,-194.18"/>
</a>
</g>
</g>
<!-- Node25 -->
<g id="Node000025" class="node">
<title>Node25</title>
<g id="a_Node000025"><a xlink:href="terminal-intl_8h.html" target="_top" xlink:title=" ">
<polygon fill="white" stroke="#666666" points="1887.5,-184 1801.5,-184 1801.5,-165 1887.5,-165 1887.5,-184"/>
<text text-anchor="middle" x="1844.5" y="-172" font-family="Helvetica,sans-Serif" font-size="10.00">terminal&#45;intl.h</text>
</a>
</g>
</g>
<!-- Node1&#45;&gt;Node25 -->
<g id="edge29_Node000001_Node000025" class="edge">
<title>Node1&#45;&gt;Node25</title>
<g id="a_edge29_Node000001_Node000025"><a xlink:title=" ">
<path fill="none" stroke="#63b8ff" d="M989.67,-227.79C1121.09,-225.56 1481.3,-216.79 1791.34,-183.99"/>
<polygon fill="#63b8ff" stroke="#63b8ff" points="1791.85,-187.46 1801.42,-182.92 1791.1,-180.5 1791.85,-187.46"/>
</a>
</g>
</g>
<!-- Node27 -->
<g id="Node000027" class="node">
<title>Node27</title>
<g id="a_Node000027"><a xlink:href="terminal-marshal_8h.html" target="_top" xlink:title=" ">
<polygon fill="white" stroke="#666666" points="2015.5,-184 1905.5,-184 1905.5,-165 2015.5,-165 2015.5,-184"/>
<text text-anchor="middle" x="1960.5" y="-172" font-family="Helvetica,sans-Serif" font-size="10.00">terminal&#45;marshal.h</text>
</a>
</g>
</g>
<!-- Node1&#45;&gt;Node27 -->
<g id="edge31_Node000001_Node000027" class="edge">
<title>Node1&#45;&gt;Node27</title>
<g id="a_edge31_Node000001_Node000027"><a xlink:title=" ">
<path fill="none" stroke="#63b8ff" d="M989.75,-227.66C1131.85,-225.01 1543.01,-215.11 1895.23,-184.03"/>
<polygon fill="#63b8ff" stroke="#63b8ff" points="1895.72,-187.5 1905.38,-183.13 1895.1,-180.53 1895.72,-187.5"/>
</a>
</g>
</g>
<!-- Node29 -->
<g id="Node000029" class="node">
<title>Node29</title>
<g id="a_Node000029"><a xlink:href="terminal-screen-container_8h.html" target="_top" xlink:title=" ">
<polygon fill="white" stroke="#666666" points="565.5,-184 413.5,-184 413.5,-165 565.5,-165 565.5,-184"/>
<text text-anchor="middle" x="489.5" y="-172" font-family="Helvetica,sans-Serif" font-size="10.00">terminal&#45;screen&#45;container.h</text>
</a>
</g>
</g>
<!-- Node1&#45;&gt;Node29 -->
<g id="edge34_Node000001_Node000029" class="edge">
<title>Node1&#45;&gt;Node29</title>
<g id="a_edge34_Node000001_Node000029"><a xlink:title=" ">
<path fill="none" stroke="#63b8ff" d="M887.43,-222.47C810.44,-213.38 663.89,-196.08 571.73,-185.21"/>
<polygon fill="#63b8ff" stroke="#63b8ff" points="571.94,-181.71 561.6,-184.01 571.12,-188.66 571.94,-181.71"/>
</a>
</g>
</g>
<!-- Node30 -->
<g id="Node000030" class="node">
<title>Node30</title>
<g id="a_Node000030"><a xlink:href="terminal-util_8h.html" target="_top" xlink:title=" ">
<polygon fill="white" stroke="#666666" points="669.5,-184 583.5,-184 583.5,-165 669.5,-165 669.5,-184"/>
<text text-anchor="middle" x="626.5" y="-172" font-family="Helvetica,sans-Serif" font-size="10.00">terminal&#45;util.h</text>
</a>
</g>
</g>
<!-- Node1&#45;&gt;Node30 -->
<g id="edge37_Node000001_Node000030" class="edge">
<title>Node1&#45;&gt;Node30</title>
<g id="a_edge37_Node000001_Node000030"><a xlink:title=" ">
<path fill="none" stroke="#63b8ff" d="M888.37,-219.98C831.33,-210.3 738.55,-194.53 680.1,-184.61"/>
<polygon fill="#63b8ff" stroke="#63b8ff" points="680.41,-181.11 669.96,-182.88 679.23,-188.01 680.41,-181.11"/>
</a>
</g>
</g>
<!-- Node31 -->
<g id="Node000031" class="node">
<title>Node31</title>
<g id="a_Node000031"><a xlink:href="terminal-window_8h.html" target="_top" xlink:title=" ">
<polygon fill="white" stroke="#666666" points="795,-184 688,-184 688,-165 795,-165 795,-184"/>
<text text-anchor="middle" x="741.5" y="-172" font-family="Helvetica,sans-Serif" font-size="10.00">terminal&#45;window.h</text>
</a>
</g>
</g>
<!-- Node1&#45;&gt;Node31 -->
<g id="edge40_Node000001_Node000031" class="edge">
<title>Node1&#45;&gt;Node31</title>
<g id="a_edge40_Node000001_Node000031"><a xlink:title=" ">
<path fill="none" stroke="#63b8ff" d="M906.85,-219.98C873.34,-210.97 820.3,-196.7 783.36,-186.76"/>
<polygon fill="#63b8ff" stroke="#63b8ff" points="783.97,-183.3 773.4,-184.08 782.15,-190.06 783.97,-183.3"/>
</a>
</g>
</g>
<!-- Node32 -->
<g id="Node000032" class="node">
<title>Node32</title>
<g id="a_Node000032"><a xlink:href="terminal-info-bar_8h.html" target="_top" xlink:title=" ">
<polygon fill="white" stroke="#666666" points="833.5,-74 725.5,-74 725.5,-55 833.5,-55 833.5,-74"/>
<text text-anchor="middle" x="779.5" y="-62" font-family="Helvetica,sans-Serif" font-size="10.00">terminal&#45;info&#45;bar.h</text>
</a>
</g>
</g>
<!-- Node1&#45;&gt;Node32 -->
<g id="edge43_Node000001_Node000032" class="edge">
<title>Node1&#45;&gt;Node32</title>
<g id="a_edge43_Node000001_Node000032"><a xlink:title=" ">
<path fill="none" stroke="#63b8ff" d="M910.87,-219.89C891.37,-212.72 865.6,-200.94 847.5,-184 816.59,-155.07 795.72,-108.87 785.92,-83.55"/>
<polygon fill="#63b8ff" stroke="#63b8ff" points="789.17,-82.24 782.4,-74.09 782.61,-84.68 789.17,-82.24"/>
</a>
</g>
</g>
<!-- Node33 -->
<g id="Node000033" class="node">
<title>Node33</title>
<g id="a_Node000033"><a xlink:href="eggshell_8h.html" target="_top" xlink:title=" ">
<polygon fill="white" stroke="#666666" points="250,-184 183,-184 183,-165 250,-165 250,-184"/>
<text text-anchor="middle" x="216.5" y="-172" font-family="Helvetica,sans-Serif" font-size="10.00">eggshell.h</text>
</a>
</g>
</g>
<!-- Node1&#45;&gt;Node33 -->
<g id="edge45_Node000001_Node000033" class="edge">
<title>Node1&#45;&gt;Node33</title>
<g id="a_edge45_Node000001_Node000033"><a xlink:title=" ">
<path fill="none" stroke="#63b8ff" d="M887.09,-227.49C774.88,-224.78 499.53,-215.37 260.29,-184.07"/>
<polygon fill="#63b8ff" stroke="#63b8ff" points="260.73,-180.6 250.36,-182.76 259.81,-187.54 260.73,-180.6"/>
</a>
</g>
</g>
<!-- Node34 -->
<g id="Node000034" class="node">
<title>Node34</title>
<g id="a_Node000034"><a xlink:title=" ">
<polygon fill="#e0e0e0" stroke="#999999" points="2087,-184 2034,-184 2034,-165 2087,-165 2087,-184"/>
<text text-anchor="middle" x="2060.5" y="-172" font-family="Helvetica,sans-Serif" font-size="10.00">pcre2.h</text>
</a>
</g>
</g>
<!-- Node1&#45;&gt;Node34 -->
<g id="edge48_Node000001_Node000034" class="edge">
<title>Node1&#45;&gt;Node34</title>
<g id="a_edge48_Node000001_Node000034"><a xlink:title=" ">
<path fill="none" stroke="#63b8ff" d="M989.71,-227.7C1173.66,-224.62 1801.33,-212.35 2023.9,-183.72"/>
<polygon fill="#63b8ff" stroke="#63b8ff" points="2024.42,-187.18 2033.87,-182.39 2023.49,-180.24 2024.42,-187.18"/>
</a>
</g>
</g>
<!-- Node14&#45;&gt;Node8 -->
<g id="edge14_Node000014_Node000008" class="edge">
<title>Node14&#45;&gt;Node8</title>
<g id="a_edge14_Node000014_Node000008"><a xlink:title=" ">
<path fill="none" stroke="#63b8ff" d="M895.35,-54.98C841.25,-44.78 751.42,-27.84 699.64,-18.07"/>
<polygon fill="#63b8ff" stroke="#63b8ff" points="700.29,-14.63 689.81,-16.22 698.99,-21.51 700.29,-14.63"/>
</a>
</g>
</g>
<!-- Node15&#45;&gt;Node8 -->
<g id="edge16_Node000015_Node000008" class="edge">
<title>Node15&#45;&gt;Node8</title>
<g id="a_edge16_Node000015_Node000008"><a xlink:title=" ">
<path fill="none" stroke="#63b8ff" d="M309.89,-164.76C303.76,-142.16 291.3,-81.69 324.5,-55 369.14,-19.12 540.53,-12.08 619.38,-10.77"/>
<polygon fill="#63b8ff" stroke="#63b8ff" points="619.47,-14.27 629.42,-10.62 619.37,-7.27 619.47,-14.27"/>
</a>
</g>
</g>
<!-- Node16 -->
<g id="Node000016" class="node">
<title>Node16</title>
<g id="a_Node000016"><a xlink:href="terminal-encoding_8h.html" target="_top" xlink:title=" ">
<polygon fill="white" stroke="#666666" points="257,-74 142,-74 142,-55 257,-55 257,-74"/>
<text text-anchor="middle" x="199.5" y="-62" font-family="Helvetica,sans-Serif" font-size="10.00">terminal&#45;encoding.h</text>
</a>
</g>
</g>
<!-- Node15&#45;&gt;Node16 -->
<g id="edge17_Node000015_Node000016" class="edge">
<title>Node15&#45;&gt;Node16</title>
<g id="a_edge17_Node000015_Node000016"><a xlink:title=" ">
<path fill="none" stroke="#63b8ff" d="M303.25,-164.66C284.12,-146.38 239.97,-104.18 215.89,-81.17"/>
<polygon fill="#63b8ff" stroke="#63b8ff" points="218.21,-78.54 208.56,-74.16 213.37,-83.6 218.21,-78.54"/>
</a>
</g>
</g>
<!-- Node17 -->
<g id="Node000017" class="node">
<title>Node17</title>
<g id="a_Node000017"><a xlink:href="terminal-screen_8h.html" target="_top" xlink:title=" ">
<polygon fill="white" stroke="#666666" points="631,-129 528,-129 528,-110 631,-110 631,-129"/>
<text text-anchor="middle" x="579.5" y="-117" font-family="Helvetica,sans-Serif" font-size="10.00">terminal&#45;screen.h</text>
</a>
</g>
</g>
<!-- Node15&#45;&gt;Node17 -->
<g id="edge19_Node000015_Node000017" class="edge">
<title>Node15&#45;&gt;Node17</title>
<g id="a_edge19_Node000015_Node000017"><a xlink:title=" ">
<path fill="none" stroke="#63b8ff" d="M355.4,-164.98C401.87,-155.76 476.09,-141.03 526.26,-131.07"/>
<polygon fill="#63b8ff" stroke="#63b8ff" points="527.14,-134.46 536.27,-129.08 525.78,-127.6 527.14,-134.46"/>
</a>
</g>
</g>
<!-- Node20 -->
<g id="Node000020" class="node">
<title>Node20</title>
<g id="a_Node000020"><a xlink:href="terminal-options_8h.html" target="_top" xlink:title=" ">
<polygon fill="white" stroke="#666666" points="421,-129 314,-129 314,-110 421,-110 421,-129"/>
<text text-anchor="middle" x="367.5" y="-117" font-family="Helvetica,sans-Serif" font-size="10.00">terminal&#45;options.h</text>
</a>
</g>
</g>
<!-- Node15&#45;&gt;Node20 -->
<g id="edge23_Node000015_Node000020" class="edge">
<title>Node15&#45;&gt;Node20</title>
<g id="a_edge23_Node000015_Node000020"><a xlink:title=" ">
<path fill="none" stroke="#63b8ff" d="M321.58,-164.75C329.59,-157.03 341.46,-145.6 351.12,-136.28"/>
<polygon fill="#63b8ff" stroke="#63b8ff" points="353.81,-138.55 358.59,-129.09 348.96,-133.51 353.81,-138.55"/>
</a>
</g>
</g>
<!-- Node16&#45;&gt;Node8 -->
<g id="edge18_Node000016_Node000008" class="edge">
<title>Node16&#45;&gt;Node8</title>
<g id="a_edge18_Node000016_Node000008"><a xlink:title=" ">
<path fill="none" stroke="#63b8ff" d="M257.27,-56.66C262.08,-56.1 266.87,-55.54 271.5,-55 398.34,-40.24 548.54,-23.11 619.09,-15.09"/>
<polygon fill="#63b8ff" stroke="#63b8ff" points="619.77,-18.54 629.31,-13.93 618.98,-11.58 619.77,-18.54"/>
</a>
</g>
</g>
<!-- Node18 -->
<g id="Node000018" class="node">
<title>Node18</title>
<g id="a_Node000018"><a xlink:title=" ">
<polygon fill="#e0e0e0" stroke="#999999" points="613.5,-74 553.5,-74 553.5,-55 613.5,-55 613.5,-74"/>
<text text-anchor="middle" x="583.5" y="-62" font-family="Helvetica,sans-Serif" font-size="10.00">vte/vte.h</text>
</a>
</g>
</g>
<!-- Node17&#45;&gt;Node18 -->
<g id="edge20_Node000017_Node000018" class="edge">
<title>Node17&#45;&gt;Node18</title>
<g id="a_edge20_Node000017_Node000018"><a xlink:title=" ">
<path fill="none" stroke="#63b8ff" d="M580.16,-109.75C580.68,-102.8 581.44,-92.85 582.09,-84.13"/>
<polygon fill="#63b8ff" stroke="#63b8ff" points="585.59,-84.32 582.85,-74.09 578.61,-83.8 585.59,-84.32"/>
</a>
</g>
</g>
<!-- Node17&#45;&gt;Node19 -->
<g id="edge21_Node000017_Node000019" class="edge">
<title>Node17&#45;&gt;Node19</title>
<g id="a_edge21_Node000017_Node000019"><a xlink:title=" ">
<path fill="none" stroke="#63b8ff" d="M558.13,-109.98C536.35,-101.3 502.34,-87.75 477.58,-77.88"/>
<polygon fill="#63b8ff" stroke="#63b8ff" points="478.84,-74.62 468.26,-74.17 476.25,-81.12 478.84,-74.62"/>
</a>
</g>
</g>
<!-- Node19&#45;&gt;Node8 -->
<g id="edge22_Node000019_Node000008" class="edge">
<title>Node19&#45;&gt;Node8</title>
<g id="a_edge22_Node000019_Node000008"><a xlink:title=" ">
<path fill="none" stroke="#63b8ff" d="M480.72,-54.98C518.59,-45.56 579.53,-30.4 619.55,-20.44"/>
<polygon fill="#63b8ff" stroke="#63b8ff" points="620.63,-23.78 629.49,-17.97 618.94,-16.98 620.63,-23.78"/>
</a>
</g>
</g>
<!-- Node21 -->
<g id="Node000021" class="node">
<title>Node21</title>
<g id="a_Node000021"><a xlink:title=" ">
<polygon fill="#e0e0e0" stroke="#999999" points="377.5,-74 333.5,-74 333.5,-55 377.5,-55 377.5,-74"/>
<text text-anchor="middle" x="355.5" y="-62" font-family="Helvetica,sans-Serif" font-size="10.00">glib.h</text>
</a>
</g>
</g>
<!-- Node20&#45;&gt;Node21 -->
<g id="edge24_Node000020_Node000021" class="edge">
<title>Node20&#45;&gt;Node21</title>
<g id="a_edge24_Node000020_Node000021"><a xlink:title=" ">
<path fill="none" stroke="#63b8ff" d="M365.52,-109.75C363.93,-102.72 361.64,-92.62 359.65,-83.84"/>
<polygon fill="#63b8ff" stroke="#63b8ff" points="363.07,-83.07 357.44,-74.09 356.24,-84.62 363.07,-83.07"/>
</a>
</g>
</g>
<!-- Node22&#45;&gt;Node21 -->
<g id="edge26_Node000022_Node000021" class="edge">
<title>Node22&#45;&gt;Node21</title>
<g id="a_edge26_Node000022_Node000021"><a xlink:title=" ">
<path fill="none" stroke="#63b8ff" d="M936.33,-164.98C872.31,-152.2 746.73,-127.66 639.5,-110 530.61,-92.06 499.46,-96.77 387.75,-74.03"/>
<polygon fill="#63b8ff" stroke="#63b8ff" points="388.27,-70.56 377.77,-71.97 386.86,-77.42 388.27,-70.56"/>
</a>
</g>
</g>
<!-- Node23 -->
<g id="Node000023" class="node">
<title>Node23</title>
<g id="a_Node000023"><a xlink:title=" ">
<polygon fill="#e0e0e0" stroke="#999999" points="1021.5,-129 965.5,-129 965.5,-110 1021.5,-110 1021.5,-129"/>
<text text-anchor="middle" x="993.5" y="-117" font-family="Helvetica,sans-Serif" font-size="10.00">stdarg.h</text>
</a>
</g>
</g>
<!-- Node22&#45;&gt;Node23 -->
<g id="edge27_Node000022_Node000023" class="edge">
<title>Node22&#45;&gt;Node23</title>
<g id="a_edge27_Node000022_Node000023"><a xlink:title=" ">
<path fill="none" stroke="#63b8ff" d="M980.98,-164.75C982.96,-157.72 985.82,-147.62 988.31,-138.84"/>
<polygon fill="#63b8ff" stroke="#63b8ff" points="991.71,-139.66 991.07,-129.09 984.98,-137.76 991.71,-139.66"/>
</a>
</g>
</g>
<!-- Node24 -->
<g id="Node000024" class="node">
<title>Node24</title>
<g id="a_Node000024"><a xlink:title=" ">
<polygon fill="#e0e0e0" stroke="#999999" points="1117,-129 1040,-129 1040,-110 1117,-110 1117,-129"/>
<text text-anchor="middle" x="1078.5" y="-117" font-family="Helvetica,sans-Serif" font-size="10.00">glib/gstdio.h</text>
</a>
</g>
</g>
<!-- Node22&#45;&gt;Node24 -->
<g id="edge28_Node000022_Node000024" class="edge">
<title>Node22&#45;&gt;Node24</title>
<g id="a_edge28_Node000022_Node000024"><a xlink:title=" ">
<path fill="none" stroke="#63b8ff" d="M994.57,-164.98C1010.36,-156.61 1034.72,-143.7 1053.13,-133.95"/>
<polygon fill="#63b8ff" stroke="#63b8ff" points="1054.94,-136.95 1062.14,-129.17 1051.67,-130.76 1054.94,-136.95"/>
</a>
</g>
</g>
<!-- Node26 -->
<g id="Node000026" class="node">
<title>Node26</title>
<g id="a_Node000026"><a xlink:title=" ">
<polygon fill="#e0e0e0" stroke="#999999" points="1881.5,-129 1807.5,-129 1807.5,-110 1881.5,-110 1881.5,-129"/>
<text text-anchor="middle" x="1844.5" y="-117" font-family="Helvetica,sans-Serif" font-size="10.00">glib/gi18n.h</text>
</a>
</g>
</g>
<!-- Node25&#45;&gt;Node26 -->
<g id="edge30_Node000025_Node000026" class="edge">
<title>Node25&#45;&gt;Node26</title>
<g id="a_edge30_Node000025_Node000026"><a xlink:title=" ">
<path fill="none" stroke="#63b8ff" d="M1844.5,-164.75C1844.5,-157.8 1844.5,-147.85 1844.5,-139.13"/>
<polygon fill="#63b8ff" stroke="#63b8ff" points="1848,-139.09 1844.5,-129.09 1841,-139.09 1848,-139.09"/>
</a>
</g>
</g>
<!-- Node28 -->
<g id="Node000028" class="node">
<title>Node28</title>
<g id="a_Node000028"><a xlink:title=" ">
<polygon fill="#e0e0e0" stroke="#999999" points="1999,-129 1922,-129 1922,-110 1999,-110 1999,-129"/>
<text text-anchor="middle" x="1960.5" y="-117" font-family="Helvetica,sans-Serif" font-size="10.00">glib&#45;object.h</text>
</a>
</g>
</g>
<!-- Node27&#45;&gt;Node28 -->
<g id="edge32_Node000027_Node000028" class="edge">
<title>Node27&#45;&gt;Node28</title>
<g id="a_edge32_Node000027_Node000028"><a xlink:title=" ">
<path fill="none" stroke="#63b8ff" d="M1960.5,-164.75C1960.5,-157.8 1960.5,-147.85 1960.5,-139.13"/>
<polygon fill="#63b8ff" stroke="#63b8ff" points="1964,-139.09 1960.5,-129.09 1957,-139.09 1964,-139.09"/>
</a>
</g>
</g>
<!-- Node29&#45;&gt;Node8 -->
<g id="edge35_Node000029_Node000008" class="edge">
<title>Node29&#45;&gt;Node8</title>
<g id="a_edge35_Node000029_Node000008"><a xlink:title=" ">
<path fill="none" stroke="#63b8ff" d="M491.19,-164.72C495.81,-143.05 510.62,-86.51 544.5,-55 565.21,-35.74 595.18,-24.5 619.33,-18.14"/>
<polygon fill="#63b8ff" stroke="#63b8ff" points="620.4,-21.48 629.28,-15.71 618.73,-14.69 620.4,-21.48"/>
</a>
</g>
</g>
<!-- Node29&#45;&gt;Node17 -->
<g id="edge36_Node000029_Node000017" class="edge">
<title>Node29&#45;&gt;Node17</title>
<g id="a_edge36_Node000029_Node000017"><a xlink:title=" ">
<path fill="none" stroke="#63b8ff" d="M503.96,-164.98C517.92,-156.77 539.29,-144.18 555.75,-134.49"/>
<polygon fill="#63b8ff" stroke="#63b8ff" points="557.94,-137.26 564.78,-129.17 554.38,-131.23 557.94,-137.26"/>
</a>
</g>
</g>
<!-- Node30&#45;&gt;Node8 -->
<g id="edge38_Node000030_Node000008" class="edge">
<title>Node30&#45;&gt;Node8</title>
<g id="a_edge38_Node000030_Node000008"><a xlink:title=" ">
<path fill="none" stroke="#63b8ff" d="M629.4,-164.71C632.26,-155.8 636.62,-141.55 639.5,-129 647.53,-94.05 653.79,-52.61 657.04,-29.16"/>
<polygon fill="#63b8ff" stroke="#63b8ff" points="660.52,-29.57 658.39,-19.19 653.58,-28.63 660.52,-29.57"/>
</a>
</g>
</g>
<!-- Node30&#45;&gt;Node17 -->
<g id="edge39_Node000030_Node000017" class="edge">
<title>Node30&#45;&gt;Node17</title>
<g id="a_edge39_Node000030_Node000017"><a xlink:title=" ">
<path fill="none" stroke="#63b8ff" d="M618.74,-164.75C612.03,-157.18 602.16,-146.05 593.99,-136.84"/>
<polygon fill="#63b8ff" stroke="#63b8ff" points="596.37,-134.25 587.12,-129.09 591.13,-138.89 596.37,-134.25"/>
</a>
</g>
</g>
<!-- Node31&#45;&gt;Node8 -->
<g id="edge41_Node000031_Node000008" class="edge">
<title>Node31&#45;&gt;Node8</title>
<g id="a_edge41_Node000031_Node000008"><a xlink:title=" ">
<path fill="none" stroke="#63b8ff" d="M737.09,-164.74C724.13,-138.98 685.98,-63.13 668.47,-28.33"/>
<polygon fill="#63b8ff" stroke="#63b8ff" points="671.55,-26.67 663.93,-19.31 665.3,-29.81 671.55,-26.67"/>
</a>
</g>
</g>
<!-- Node31&#45;&gt;Node17 -->
<g id="edge42_Node000031_Node000017" class="edge">
<title>Node31&#45;&gt;Node17</title>
<g id="a_edge42_Node000031_Node000017"><a xlink:title=" ">
<path fill="none" stroke="#63b8ff" d="M715.47,-164.98C688.39,-156.13 645.79,-142.19 615.49,-132.28"/>
<polygon fill="#63b8ff" stroke="#63b8ff" points="616.32,-128.87 605.73,-129.08 614.15,-135.52 616.32,-128.87"/>
</a>
</g>
</g>
<!-- Node32&#45;&gt;Node8 -->
<g id="edge44_Node000032_Node000008" class="edge">
<title>Node32&#45;&gt;Node8</title>
<g id="a_edge44_Node000032_Node000008"><a xlink:title=" ">
<path fill="none" stroke="#63b8ff" d="M760.22,-54.98C740.83,-46.42 710.69,-33.11 688.43,-23.28"/>
<polygon fill="#63b8ff" stroke="#63b8ff" points="689.69,-20.01 679.13,-19.17 686.86,-26.41 689.69,-20.01"/>
</a>
</g>
</g>
<!-- Node33&#45;&gt;Node4 -->
<g id="edge46_Node000033_Node000004" class="edge">
<title>Node33&#45;&gt;Node4</title>
<g id="a_edge46_Node000033_Node000004"><a xlink:title=" ">
<path fill="none" stroke="#63b8ff" d="M206.54,-164.98C197.37,-157.15 183.56,-145.34 172.47,-135.86"/>
<polygon fill="#63b8ff" stroke="#63b8ff" points="174.52,-133.01 164.64,-129.17 169.97,-138.33 174.52,-133.01"/>
</a>
</g>
</g>
<!-- Node33&#45;&gt;Node21 -->
<g id="edge47_Node000033_Node000021" class="edge">
<title>Node33&#45;&gt;Node21</title>
<g id="a_edge47_Node000033_Node000021"><a xlink:title=" ">
<path fill="none" stroke="#63b8ff" d="M227.87,-164.66C251.61,-146.22 306.66,-103.45 336.1,-80.57"/>
<polygon fill="#63b8ff" stroke="#63b8ff" points="338.61,-83.06 344.36,-74.16 334.31,-77.53 338.61,-83.06"/>
</a>
</g>
</g>
</g>
</svg>
