<?xml version="1.0" encoding="UTF-8" standalone="no"?>
<!DOCTYPE svg PUBLIC "-//W3C//DTD SVG 1.1//EN"
 "http://www.w3.org/Graphics/SVG/1.1/DTD/svg11.dtd">
<!-- Generated by graphviz version 2.43.0 (0)
 -->
<!-- Title: timezone&#45;menu.c Pages: 1 -->
<svg width="687pt" height="269pt"
 viewBox="0.00 0.00 686.50 269.00" xmlns="http://www.w3.org/2000/svg" xmlns:xlink="http://www.w3.org/1999/xlink">
<g id="graph0" class="graph" transform="scale(1 1) rotate(0) translate(4 265)">
<title>timezone&#45;menu.c</title>
<!-- Node1 -->
<g id="Node000001" class="node">
<title>Node1</title>
<g id="a_Node000001"><a xlink:title=" ">
<polygon fill="#999999" stroke="#666666" points="425,-261 323,-261 323,-242 425,-242 425,-261"/>
<text text-anchor="middle" x="374" y="-249" font-family="Helvetica,sans-Serif" font-size="10.00">timezone&#45;menu.c</text>
</a>
</g>
</g>
<!-- Node2 -->
<g id="Node000002" class="node">
<title>Node2</title>
<g id="a_Node000002"><a xlink:href="timezone-menu_8h.html" target="_top" xlink:title=" ">
<polygon fill="white" stroke="#666666" points="225.5,-206 122.5,-206 122.5,-187 225.5,-187 225.5,-206"/>
<text text-anchor="middle" x="174" y="-194" font-family="Helvetica,sans-Serif" font-size="10.00">timezone&#45;menu.h</text>
</a>
</g>
</g>
<!-- Node1&#45;&gt;Node2 -->
<g id="edge1_Node000001_Node000002" class="edge">
<title>Node1&#45;&gt;Node2</title>
<g id="a_edge1_Node000001_Node000002"><a xlink:title=" ">
<path fill="none" stroke="#63b8ff" d="M341.87,-241.98C307.85,-232.97 254,-218.7 216.5,-208.76"/>
<polygon fill="#63b8ff" stroke="#63b8ff" points="216.95,-205.26 206.39,-206.08 215.16,-212.03 216.95,-205.26"/>
</a>
</g>
</g>
<!-- Node10 -->
<g id="Node000010" class="node">
<title>Node10</title>
<g id="a_Node000010"><a xlink:href="weather-priv_8h.html" target="_top" xlink:title=" ">
<polygon fill="white" stroke="#666666" points="417.5,-206 330.5,-206 330.5,-187 417.5,-187 417.5,-206"/>
<text text-anchor="middle" x="374" y="-194" font-family="Helvetica,sans-Serif" font-size="10.00">weather&#45;priv.h</text>
</a>
</g>
</g>
<!-- Node1&#45;&gt;Node10 -->
<g id="edge9_Node000001_Node000010" class="edge">
<title>Node1&#45;&gt;Node10</title>
<g id="a_edge9_Node000001_Node000010"><a xlink:title=" ">
<path fill="none" stroke="#63b8ff" d="M374,-241.75C374,-234.8 374,-224.85 374,-216.13"/>
<polygon fill="#63b8ff" stroke="#63b8ff" points="377.5,-216.09 374,-206.09 370.5,-216.09 377.5,-216.09"/>
</a>
</g>
</g>
<!-- Node16 -->
<g id="Node000016" class="node">
<title>Node16</title>
<g id="a_Node000016"><a xlink:title=" ">
<polygon fill="#e0e0e0" stroke="#999999" points="488.5,-206 435.5,-206 435.5,-187 488.5,-187 488.5,-206"/>
<text text-anchor="middle" x="462" y="-194" font-family="Helvetica,sans-Serif" font-size="10.00">string.h</text>
</a>
</g>
</g>
<!-- Node1&#45;&gt;Node16 -->
<g id="edge17_Node000001_Node000016" class="edge">
<title>Node1&#45;&gt;Node16</title>
<g id="a_edge17_Node000001_Node000016"><a xlink:title=" ">
<path fill="none" stroke="#63b8ff" d="M388.14,-241.98C401.79,-233.77 422.69,-221.18 438.78,-211.49"/>
<polygon fill="#63b8ff" stroke="#63b8ff" points="440.84,-214.33 447.6,-206.17 437.23,-208.33 440.84,-214.33"/>
</a>
</g>
</g>
<!-- Node3 -->
<g id="Node000003" class="node">
<title>Node3</title>
<g id="a_Node000003"><a xlink:title=" ">
<polygon fill="#e0e0e0" stroke="#999999" points="75,-145.5 15,-145.5 15,-126.5 75,-126.5 75,-145.5"/>
<text text-anchor="middle" x="45" y="-133.5" font-family="Helvetica,sans-Serif" font-size="10.00">gtk/gtk.h</text>
</a>
</g>
</g>
<!-- Node2&#45;&gt;Node3 -->
<g id="edge2_Node000002_Node000003" class="edge">
<title>Node2&#45;&gt;Node3</title>
<g id="a_edge2_Node000002_Node000003"><a xlink:title=" ">
<path fill="none" stroke="#63b8ff" d="M155.24,-186.99C133.65,-177.2 97.97,-161.02 73.07,-149.73"/>
<polygon fill="#63b8ff" stroke="#63b8ff" points="74.33,-146.46 63.78,-145.52 71.44,-152.83 74.33,-146.46"/>
</a>
</g>
</g>
<!-- Node4 -->
<g id="Node000004" class="node">
<title>Node4</title>
<g id="a_Node000004"><a xlink:href="mateweather-location_8h.html" target="_top" xlink:title=" ">
<polygon fill="white" stroke="#666666" points="255,-151 93,-151 93,-121 255,-121 255,-151"/>
<text text-anchor="start" x="101" y="-139" font-family="Helvetica,sans-Serif" font-size="10.00">libmateweather/mateweather</text>
<text text-anchor="middle" x="174" y="-128" font-family="Helvetica,sans-Serif" font-size="10.00">&#45;location.h</text>
</a>
</g>
</g>
<!-- Node2&#45;&gt;Node4 -->
<g id="edge3_Node000002_Node000004" class="edge">
<title>Node2&#45;&gt;Node4</title>
<g id="a_edge3_Node000002_Node000004"><a xlink:title=" ">
<path fill="none" stroke="#63b8ff" d="M174,-186.87C174,-180.11 174,-170.35 174,-161.26"/>
<polygon fill="#63b8ff" stroke="#63b8ff" points="177.5,-161.11 174,-151.11 170.5,-161.11 177.5,-161.11"/>
</a>
</g>
</g>
<!-- Node5 -->
<g id="Node000005" class="node">
<title>Node5</title>
<g id="a_Node000005"><a xlink:title=" ">
<polygon fill="#e0e0e0" stroke="#999999" points="44,-79.5 0,-79.5 0,-60.5 44,-60.5 44,-79.5"/>
<text text-anchor="middle" x="22" y="-67.5" font-family="Helvetica,sans-Serif" font-size="10.00">glib.h</text>
</a>
</g>
</g>
<!-- Node4&#45;&gt;Node5 -->
<g id="edge4_Node000004_Node000005" class="edge">
<title>Node4&#45;&gt;Node5</title>
<g id="a_edge4_Node000004_Node000005"><a xlink:title=" ">
<path fill="none" stroke="#63b8ff" d="M139.19,-120.96C114.94,-111.1 81.9,-97.49 53,-85 52,-84.57 50.98,-84.12 49.95,-83.67"/>
<polygon fill="#63b8ff" stroke="#63b8ff" points="51.2,-80.4 40.64,-79.54 48.36,-86.8 51.2,-80.4"/>
</a>
</g>
</g>
<!-- Node6 -->
<g id="Node000006" class="node">
<title>Node6</title>
<g id="a_Node000006"><a xlink:href="mateweather-timezone_8h.html" target="_top" xlink:title=" ">
<polygon fill="white" stroke="#666666" points="224,-85 62,-85 62,-55 224,-55 224,-85"/>
<text text-anchor="start" x="70" y="-73" font-family="Helvetica,sans-Serif" font-size="10.00">libmateweather/mateweather</text>
<text text-anchor="middle" x="143" y="-62" font-family="Helvetica,sans-Serif" font-size="10.00">&#45;timezone.h</text>
</a>
</g>
</g>
<!-- Node4&#45;&gt;Node6 -->
<g id="edge5_Node000004_Node000006" class="edge">
<title>Node4&#45;&gt;Node6</title>
<g id="a_edge5_Node000004_Node000006"><a xlink:title=" ">
<path fill="none" stroke="#63b8ff" d="M167.12,-120.8C163.35,-113.01 158.58,-103.16 154.27,-94.28"/>
<polygon fill="#63b8ff" stroke="#63b8ff" points="157.37,-92.64 149.86,-85.16 151.07,-95.69 157.37,-92.64"/>
</a>
</g>
</g>
<!-- Node8 -->
<g id="Node000008" class="node">
<title>Node8</title>
<g id="a_Node000008"><a xlink:href="weather_8h.html" target="_top" xlink:title=" ">
<polygon fill="white" stroke="#666666" points="387.5,-79.5 242.5,-79.5 242.5,-60.5 387.5,-60.5 387.5,-79.5"/>
<text text-anchor="middle" x="315" y="-67.5" font-family="Helvetica,sans-Serif" font-size="10.00">libmateweather/weather.h</text>
</a>
</g>
</g>
<!-- Node4&#45;&gt;Node8 -->
<g id="edge7_Node000004_Node000008" class="edge">
<title>Node4&#45;&gt;Node8</title>
<g id="a_edge7_Node000004_Node000008"><a xlink:title=" ">
<path fill="none" stroke="#63b8ff" d="M204.94,-120.95C229.45,-109.83 263.39,-94.42 287.08,-83.67"/>
<polygon fill="#63b8ff" stroke="#63b8ff" points="288.58,-86.84 296.24,-79.52 285.68,-80.46 288.58,-86.84"/>
</a>
</g>
</g>
<!-- Node7 -->
<g id="Node000007" class="node">
<title>Node7</title>
<g id="a_Node000007"><a xlink:title=" ">
<polygon fill="#e0e0e0" stroke="#999999" points="181.5,-19 104.5,-19 104.5,0 181.5,0 181.5,-19"/>
<text text-anchor="middle" x="143" y="-7" font-family="Helvetica,sans-Serif" font-size="10.00">glib&#45;object.h</text>
</a>
</g>
</g>
<!-- Node6&#45;&gt;Node7 -->
<g id="edge6_Node000006_Node000007" class="edge">
<title>Node6&#45;&gt;Node7</title>
<g id="a_edge6_Node000006_Node000007"><a xlink:title=" ">
<path fill="none" stroke="#63b8ff" d="M143,-54.84C143,-47.21 143,-37.7 143,-29.45"/>
<polygon fill="#63b8ff" stroke="#63b8ff" points="146.5,-29.27 143,-19.27 139.5,-29.27 146.5,-29.27"/>
</a>
</g>
</g>
<!-- Node9 -->
<g id="Node000009" class="node">
<title>Node9</title>
<g id="a_Node000009"><a xlink:title=" ">
<polygon fill="#e0e0e0" stroke="#999999" points="381.5,-19 248.5,-19 248.5,0 381.5,0 381.5,-19"/>
<text text-anchor="middle" x="315" y="-7" font-family="Helvetica,sans-Serif" font-size="10.00">gdk&#45;pixbuf/gdk&#45;pixbuf.h</text>
</a>
</g>
</g>
<!-- Node8&#45;&gt;Node9 -->
<g id="edge8_Node000008_Node000009" class="edge">
<title>Node8&#45;&gt;Node9</title>
<g id="a_edge8_Node000008_Node000009"><a xlink:title=" ">
<path fill="none" stroke="#63b8ff" d="M315,-60.37C315,-52.25 315,-39.81 315,-29.39"/>
<polygon fill="#63b8ff" stroke="#63b8ff" points="318.5,-29.17 315,-19.17 311.5,-29.17 318.5,-29.17"/>
</a>
</g>
</g>
<!-- Node10&#45;&gt;Node4 -->
<g id="edge16_Node000010_Node000004" class="edge">
<title>Node10&#45;&gt;Node4</title>
<g id="a_edge16_Node000010_Node000004"><a xlink:title=" ">
<path fill="none" stroke="#63b8ff" d="M344.92,-186.99C315.38,-178.35 268.84,-164.74 231.77,-153.9"/>
<polygon fill="#63b8ff" stroke="#63b8ff" points="232.66,-150.51 222.08,-151.06 230.7,-157.23 232.66,-150.51"/>
</a>
</g>
</g>
<!-- Node10&#45;&gt;Node8 -->
<g id="edge15_Node000010_Node000008" class="edge">
<title>Node10&#45;&gt;Node8</title>
<g id="a_edge15_Node000010_Node000008"><a xlink:title=" ">
<path fill="none" stroke="#63b8ff" d="M348.15,-186.99C331.73,-180.09 311.8,-168.58 302,-151 291.22,-131.66 298.6,-105.87 305.89,-88.87"/>
<polygon fill="#63b8ff" stroke="#63b8ff" points="309.18,-90.09 310.26,-79.55 302.85,-87.12 309.18,-90.09"/>
</a>
</g>
</g>
<!-- Node11 -->
<g id="Node000011" class="node">
<title>Node11</title>
<g id="a_Node000011"><a xlink:title=" ">
<polygon fill="#e0e0e0" stroke="#999999" points="366.5,-145.5 311.5,-145.5 311.5,-126.5 366.5,-126.5 366.5,-145.5"/>
<text text-anchor="middle" x="339" y="-133.5" font-family="Helvetica,sans-Serif" font-size="10.00">config.h</text>
</a>
</g>
</g>
<!-- Node10&#45;&gt;Node11 -->
<g id="edge10_Node000010_Node000011" class="edge">
<title>Node10&#45;&gt;Node11</title>
<g id="a_edge10_Node000010_Node000011"><a xlink:title=" ">
<path fill="none" stroke="#63b8ff" d="M368.84,-186.87C363.77,-178.4 355.9,-165.24 349.51,-154.57"/>
<polygon fill="#63b8ff" stroke="#63b8ff" points="352.32,-152.45 344.19,-145.67 346.32,-156.05 352.32,-152.45"/>
</a>
</g>
</g>
<!-- Node12 -->
<g id="Node000012" class="node">
<title>Node12</title>
<g id="a_Node000012"><a xlink:title=" ">
<polygon fill="#e0e0e0" stroke="#999999" points="433,-145.5 385,-145.5 385,-126.5 433,-126.5 433,-145.5"/>
<text text-anchor="middle" x="409" y="-133.5" font-family="Helvetica,sans-Serif" font-size="10.00">time.h</text>
</a>
</g>
</g>
<!-- Node10&#45;&gt;Node12 -->
<g id="edge11_Node000010_Node000012" class="edge">
<title>Node10&#45;&gt;Node12</title>
<g id="a_edge11_Node000010_Node000012"><a xlink:title=" ">
<path fill="none" stroke="#63b8ff" d="M379.16,-186.87C384.23,-178.4 392.1,-165.24 398.49,-154.57"/>
<polygon fill="#63b8ff" stroke="#63b8ff" points="401.68,-156.05 403.81,-145.67 395.68,-152.45 401.68,-156.05"/>
</a>
</g>
</g>
<!-- Node13 -->
<g id="Node000013" class="node">
<title>Node13</title>
<g id="a_Node000013"><a xlink:title=" ">
<polygon fill="#e0e0e0" stroke="#999999" points="504.5,-145.5 451.5,-145.5 451.5,-126.5 504.5,-126.5 504.5,-145.5"/>
<text text-anchor="middle" x="478" y="-133.5" font-family="Helvetica,sans-Serif" font-size="10.00">libintl.h</text>
</a>
</g>
</g>
<!-- Node10&#45;&gt;Node13 -->
<g id="edge12_Node000010_Node000013" class="edge">
<title>Node10&#45;&gt;Node13</title>
<g id="a_edge12_Node000010_Node000013"><a xlink:title=" ">
<path fill="none" stroke="#63b8ff" d="M389.35,-186.87C406.32,-177.32 433.9,-161.81 453.79,-150.62"/>
<polygon fill="#63b8ff" stroke="#63b8ff" points="455.59,-153.62 462.59,-145.67 452.16,-147.52 455.59,-153.62"/>
</a>
</g>
</g>
<!-- Node14 -->
<g id="Node000014" class="node">
<title>Node14</title>
<g id="a_Node000014"><a xlink:title=" ">
<polygon fill="#e0e0e0" stroke="#999999" points="573.5,-145.5 522.5,-145.5 522.5,-126.5 573.5,-126.5 573.5,-145.5"/>
<text text-anchor="middle" x="548" y="-133.5" font-family="Helvetica,sans-Serif" font-size="10.00">math.h</text>
</a>
</g>
</g>
<!-- Node10&#45;&gt;Node14 -->
<g id="edge13_Node000010_Node000014" class="edge">
<title>Node10&#45;&gt;Node14</title>
<g id="a_edge13_Node000010_Node000014"><a xlink:title=" ">
<path fill="none" stroke="#63b8ff" d="M403.19,-186.99C431.68,-178.51 476.14,-164.79 514,-151 515.42,-150.48 516.88,-149.94 518.34,-149.38"/>
<polygon fill="#63b8ff" stroke="#63b8ff" points="519.96,-152.5 527.97,-145.57 517.39,-145.99 519.96,-152.5"/>
</a>
</g>
</g>
<!-- Node15 -->
<g id="Node000015" class="node">
<title>Node15</title>
<g id="a_Node000015"><a xlink:title=" ">
<polygon fill="#e0e0e0" stroke="#999999" points="678.5,-145.5 591.5,-145.5 591.5,-126.5 678.5,-126.5 678.5,-145.5"/>
<text text-anchor="middle" x="635" y="-133.5" font-family="Helvetica,sans-Serif" font-size="10.00">libsoup/soup.h</text>
</a>
</g>
</g>
<!-- Node10&#45;&gt;Node15 -->
<g id="edge14_Node000010_Node000015" class="edge">
<title>Node10&#45;&gt;Node15</title>
<g id="a_edge14_Node000010_Node000015"><a xlink:title=" ">
<path fill="none" stroke="#63b8ff" d="M417.38,-186.96C459.76,-178.46 526.02,-164.73 583,-151 586.67,-150.12 590.48,-149.16 594.28,-148.18"/>
<polygon fill="#63b8ff" stroke="#63b8ff" points="595.49,-151.49 604.27,-145.56 593.71,-144.71 595.49,-151.49"/>
</a>
</g>
</g>
</g>
</svg>
