<?xml version="1.0" encoding="UTF-8" standalone="no"?>
<!DOCTYPE svg PUBLIC "-//W3C//DTD SVG 1.1//EN"
 "http://www.w3.org/Graphics/SVG/1.1/DTD/svg11.dtd">
<!-- Generated by graphviz version 2.43.0 (0)
 -->
<!-- Title: weather&#45;wx.c Pages: 1 -->
<!--zoomable 258 -->

<svg id="main" version="1.1" xmlns="http://www.w3.org/2000/svg" xmlns:xlink="http://www.w3.org/1999/xlink" xml:space="preserve" onload="init(evt)">

<style type="text/css"><![CDATA[
.node, .edge {opacity: 0.7;}
.node.selected, .edge.selected {opacity: 1;}
.edge:hover path { stroke: red; }
.edge:hover polygon { stroke: red; fill: red; }
]]></style>

<defs>
  <circle id="rim" cx="0" cy="0" r="7"/>
  <circle id="rim2" cx="0" cy="0" r="3.5"/>
  <g id="zoomPlus">
    <use xlink:href="#rim" fill="#404040"><set attributeName="fill" to="#808080" begin="zoomplus.mouseover" end="zoomplus.mouseout"/></use>
    <path d="M-4,0h8M0,-4v8" fill="none" stroke="white" stroke-width="1.5" pointer-events="none"/>
  </g>
  <g id="zoomMin">
    <use xlink:href="#rim" fill="#404040"><set attributeName="fill" to="#808080" begin="zoomminus.mouseover" end="zoomminus.mouseout"/></use>
    <path d="M-4,0h8" fill="none" stroke="white" stroke-width="1.5" pointer-events="none"/>
  </g>
  <g id="arrowUp" transform="translate(30 24)">
    <use xlink:href="#rim"/>
    <path pointer-events="none" fill="none" stroke="white" stroke-width="1.5" d="M0,-3.0v7 M-2.5,-0.5L0,-3.0L2.5,-0.5"/>
  </g>
  <g id="arrowRight" transform="rotate(90) translate(36 -43)">
    <use xlink:href="#rim"/>
    <path pointer-events="none" fill="none" stroke="white" stroke-width="1.5" d="M0,-3.0v7 M-2.5,-0.5L0,-3.0L2.5,-0.5"/>
  </g>
  <g id="arrowDown" transform="rotate(180) translate(-30 -48)">
    <use xlink:href="#rim"/>
    <path pointer-events="none" fill="none" stroke="white" stroke-width="1.5" d="M0,-3.0v7 M-2.5,-0.5L0,-3.0L2.5,-0.5"/>
  </g>
  <g id="arrowLeft" transform="rotate(270) translate(-36 17)">
    <use xlink:href="#rim"/>
    <path pointer-events="none" fill="none" stroke="white" stroke-width="1.5" d="M0,-3.0v7 M-2.5,-0.5L0,-3.0L2.5,-0.5"/>
  </g>
  <g id="resetDef">
    <use xlink:href="#rim2" fill="#404040"><set attributeName="fill" to="#808080" begin="reset.mouseover" end="reset.mouseout"/></use>
  </g>
</defs>
<script type="application/ecmascript">
var viewWidth = 697;
var viewHeight = 258;
var sectionId = 'dynsection-0';
</script>
<script type="application/ecmascript" xlink:href="svg.min.js"/>
<svg id="graph" class="graph">
<g id="viewport">
<title>weather&#45;wx.c</title>
<!-- Node1 -->
<g id="Node000001" class="node">
<title>Node1</title>
<g id="a_Node000001"><a xlink:title=" ">
<polygon fill="#999999" stroke="#666666" points="152,-250 69,-250 69,-231 152,-231 152,-250"/>
<text text-anchor="middle" x="110.5" y="-238" font-family="Helvetica,sans-Serif" font-size="10.00">weather&#45;wx.c</text>
</a>
</g>
</g>
<!-- Node2 -->
<g id="Node000002" class="node">
<title>Node2</title>
<g id="a_Node000002"><a xlink:href="weather_8h.html" target="_top" xlink:title=" ">
<polygon fill="white" stroke="#666666" points="99,-79.5 34,-79.5 34,-60.5 99,-60.5 99,-79.5"/>
<text text-anchor="middle" x="66.5" y="-67.5" font-family="Helvetica,sans-Serif" font-size="10.00">weather.h</text>
</a>
</g>
</g>
<!-- Node1&#45;&gt;Node2 -->
<g id="edge1_Node000001_Node000002" class="edge">
<title>Node1&#45;&gt;Node2</title>
<g id="a_edge1_Node000001_Node000002"><a xlink:title=" ">
<path fill="none" stroke="#63b8ff" d="M105.85,-230.76C97.1,-213.81 78.34,-175.07 70.5,-140 66.78,-123.35 65.95,-103.91 65.96,-89.91"/>
<polygon fill="#63b8ff" stroke="#63b8ff" points="69.46,-89.67 66.11,-79.62 62.47,-89.57 69.46,-89.67"/>
</a>
</g>
</g>
<!-- Node4 -->
<g id="Node000004" class="node">
<title>Node4</title>
<g id="a_Node000004"><a xlink:href="weather-priv_8h.html" target="_top" xlink:title=" ">
<polygon fill="white" stroke="#666666" points="270,-195 183,-195 183,-176 270,-176 270,-195"/>
<text text-anchor="middle" x="226.5" y="-183" font-family="Helvetica,sans-Serif" font-size="10.00">weather&#45;priv.h</text>
</a>
</g>
</g>
<!-- Node1&#45;&gt;Node4 -->
<g id="edge3_Node000001_Node000004" class="edge">
<title>Node1&#45;&gt;Node4</title>
<g id="a_edge3_Node000001_Node000004"><a xlink:title=" ">
<path fill="none" stroke="#63b8ff" d="M129.14,-230.98C147.8,-222.46 176.75,-209.23 198.24,-199.41"/>
<polygon fill="#63b8ff" stroke="#63b8ff" points="199.88,-202.51 207.52,-195.17 196.97,-196.14 199.88,-202.51"/>
</a>
</g>
</g>
<!-- Node3 -->
<g id="Node000003" class="node">
<title>Node3</title>
<g id="a_Node000003"><a xlink:title=" ">
<polygon fill="#e0e0e0" stroke="#999999" points="133,-19 0,-19 0,0 133,0 133,-19"/>
<text text-anchor="middle" x="66.5" y="-7" font-family="Helvetica,sans-Serif" font-size="10.00">gdk&#45;pixbuf/gdk&#45;pixbuf.h</text>
</a>
</g>
</g>
<!-- Node2&#45;&gt;Node3 -->
<g id="edge2_Node000002_Node000003" class="edge">
<title>Node2&#45;&gt;Node3</title>
<g id="a_edge2_Node000002_Node000003"><a xlink:title=" ">
<path fill="none" stroke="#63b8ff" d="M66.5,-60.37C66.5,-52.25 66.5,-39.81 66.5,-29.39"/>
<polygon fill="#63b8ff" stroke="#63b8ff" points="70,-29.17 66.5,-19.17 63,-29.17 70,-29.17"/>
</a>
</g>
</g>
<!-- Node4&#45;&gt;Node2 -->
<g id="edge9_Node000004_Node000002" class="edge">
<title>Node4&#45;&gt;Node2</title>
<g id="a_edge9_Node000004_Node000002"><a xlink:title=" ">
<path fill="none" stroke="#63b8ff" d="M182.9,-181.55C151.7,-177.14 110.88,-166.34 85.5,-140 72.72,-126.74 68.37,-105.7 66.97,-90.34"/>
<polygon fill="#63b8ff" stroke="#63b8ff" points="70.44,-89.71 66.39,-79.92 63.45,-90.1 70.44,-89.71"/>
</a>
</g>
</g>
<!-- Node5 -->
<g id="Node000005" class="node">
<title>Node5</title>
<g id="a_Node000005"><a xlink:title=" ">
<polygon fill="#e0e0e0" stroke="#999999" points="150,-140 95,-140 95,-121 150,-121 150,-140"/>
<text text-anchor="middle" x="122.5" y="-128" font-family="Helvetica,sans-Serif" font-size="10.00">config.h</text>
</a>
</g>
</g>
<!-- Node4&#45;&gt;Node5 -->
<g id="edge4_Node000004_Node000005" class="edge">
<title>Node4&#45;&gt;Node5</title>
<g id="a_edge4_Node000004_Node000005"><a xlink:title=" ">
<path fill="none" stroke="#63b8ff" d="M209.79,-175.98C193.29,-167.57 167.8,-154.59 148.62,-144.81"/>
<polygon fill="#63b8ff" stroke="#63b8ff" points="150.01,-141.59 139.51,-140.17 146.83,-147.83 150.01,-141.59"/>
</a>
</g>
</g>
<!-- Node6 -->
<g id="Node000006" class="node">
<title>Node6</title>
<g id="a_Node000006"><a xlink:title=" ">
<polygon fill="#e0e0e0" stroke="#999999" points="216.5,-140 168.5,-140 168.5,-121 216.5,-121 216.5,-140"/>
<text text-anchor="middle" x="192.5" y="-128" font-family="Helvetica,sans-Serif" font-size="10.00">time.h</text>
</a>
</g>
</g>
<!-- Node4&#45;&gt;Node6 -->
<g id="edge5_Node000004_Node000006" class="edge">
<title>Node4&#45;&gt;Node6</title>
<g id="a_edge5_Node000004_Node000006"><a xlink:title=" ">
<path fill="none" stroke="#63b8ff" d="M220.89,-175.75C216.18,-168.42 209.33,-157.73 203.53,-148.7"/>
<polygon fill="#63b8ff" stroke="#63b8ff" points="206.36,-146.62 198.01,-140.09 200.46,-150.4 206.36,-146.62"/>
</a>
</g>
</g>
<!-- Node7 -->
<g id="Node000007" class="node">
<title>Node7</title>
<g id="a_Node000007"><a xlink:title=" ">
<polygon fill="#e0e0e0" stroke="#999999" points="288,-140 235,-140 235,-121 288,-121 288,-140"/>
<text text-anchor="middle" x="261.5" y="-128" font-family="Helvetica,sans-Serif" font-size="10.00">libintl.h</text>
</a>
</g>
</g>
<!-- Node4&#45;&gt;Node7 -->
<g id="edge6_Node000004_Node000007" class="edge">
<title>Node4&#45;&gt;Node7</title>
<g id="a_edge6_Node000004_Node000007"><a xlink:title=" ">
<path fill="none" stroke="#63b8ff" d="M232.28,-175.75C237.12,-168.42 244.18,-157.73 250.14,-148.7"/>
<polygon fill="#63b8ff" stroke="#63b8ff" points="253.24,-150.36 255.83,-140.09 247.4,-146.5 253.24,-150.36"/>
</a>
</g>
</g>
<!-- Node8 -->
<g id="Node000008" class="node">
<title>Node8</title>
<g id="a_Node000008"><a xlink:title=" ">
<polygon fill="#e0e0e0" stroke="#999999" points="357,-140 306,-140 306,-121 357,-121 357,-140"/>
<text text-anchor="middle" x="331.5" y="-128" font-family="Helvetica,sans-Serif" font-size="10.00">math.h</text>
</a>
</g>
</g>
<!-- Node4&#45;&gt;Node8 -->
<g id="edge7_Node000004_Node000008" class="edge">
<title>Node4&#45;&gt;Node8</title>
<g id="a_edge7_Node000004_Node000008"><a xlink:title=" ">
<path fill="none" stroke="#63b8ff" d="M243.37,-175.98C260.11,-167.54 286,-154.47 305.39,-144.68"/>
<polygon fill="#63b8ff" stroke="#63b8ff" points="306.97,-147.8 314.32,-140.17 303.82,-141.55 306.97,-147.8"/>
</a>
</g>
</g>
<!-- Node9 -->
<g id="Node000009" class="node">
<title>Node9</title>
<g id="a_Node000009"><a xlink:title=" ">
<polygon fill="#e0e0e0" stroke="#999999" points="462,-140 375,-140 375,-121 462,-121 462,-140"/>
<text text-anchor="middle" x="418.5" y="-128" font-family="Helvetica,sans-Serif" font-size="10.00">libsoup/soup.h</text>
</a>
</g>
</g>
<!-- Node4&#45;&gt;Node9 -->
<g id="edge8_Node000004_Node000009" class="edge">
<title>Node4&#45;&gt;Node9</title>
<g id="a_edge8_Node000004_Node000009"><a xlink:title=" ">
<path fill="none" stroke="#63b8ff" d="M257.35,-175.98C290,-166.97 341.7,-152.7 377.7,-142.76"/>
<polygon fill="#63b8ff" stroke="#63b8ff" points="378.7,-146.12 387.41,-140.08 376.84,-139.37 378.7,-146.12"/>
</a>
</g>
</g>
<!-- Node10 -->
<g id="Node000010" class="node">
<title>Node10</title>
<g id="a_Node000010"><a xlink:href="mateweather-location_8h.html" target="_top" xlink:title=" ">
<polygon fill="white" stroke="#666666" points="614.5,-140 480.5,-140 480.5,-121 614.5,-121 614.5,-140"/>
<text text-anchor="middle" x="547.5" y="-128" font-family="Helvetica,sans-Serif" font-size="10.00">mateweather&#45;location.h</text>
</a>
</g>
</g>
<!-- Node4&#45;&gt;Node10 -->
<g id="edge10_Node000004_Node000010" class="edge">
<title>Node4&#45;&gt;Node10</title>
<g id="a_edge10_Node000004_Node000010"><a xlink:title=" ">
<path fill="none" stroke="#63b8ff" d="M270.13,-177.3C325.82,-168.1 422.53,-152.13 485.77,-141.69"/>
<polygon fill="#63b8ff" stroke="#63b8ff" points="486.71,-145.08 496.01,-140 485.57,-138.18 486.71,-145.08"/>
</a>
</g>
</g>
<!-- Node10&#45;&gt;Node2 -->
<g id="edge14_Node000010_Node000002" class="edge">
<title>Node10&#45;&gt;Node2</title>
<g id="a_edge14_Node000010_Node000002"><a xlink:title=" ">
<path fill="none" stroke="#63b8ff" d="M480.37,-121.34C379.8,-109.1 192.93,-86.38 109.11,-76.18"/>
<polygon fill="#63b8ff" stroke="#63b8ff" points="109.52,-72.71 99.17,-74.97 108.68,-79.66 109.52,-72.71"/>
</a>
</g>
</g>
<!-- Node11 -->
<g id="Node000011" class="node">
<title>Node11</title>
<g id="a_Node000011"><a xlink:title=" ">
<polygon fill="#e0e0e0" stroke="#999999" points="508.5,-79.5 464.5,-79.5 464.5,-60.5 508.5,-60.5 508.5,-79.5"/>
<text text-anchor="middle" x="486.5" y="-67.5" font-family="Helvetica,sans-Serif" font-size="10.00">glib.h</text>
</a>
</g>
</g>
<!-- Node10&#45;&gt;Node11 -->
<g id="edge11_Node000010_Node000011" class="edge">
<title>Node10&#45;&gt;Node11</title>
<g id="a_edge11_Node000010_Node000011"><a xlink:title=" ">
<path fill="none" stroke="#63b8ff" d="M538.5,-120.87C529.13,-111.88 514.25,-97.61 502.8,-86.64"/>
<polygon fill="#63b8ff" stroke="#63b8ff" points="505.18,-84.06 495.54,-79.67 500.33,-89.12 505.18,-84.06"/>
</a>
</g>
</g>
<!-- Node12 -->
<g id="Node000012" class="node">
<title>Node12</title>
<g id="a_Node000012"><a xlink:href="mateweather-timezone_8h.html" target="_top" xlink:title=" ">
<polygon fill="white" stroke="#666666" points="688.5,-85 526.5,-85 526.5,-55 688.5,-55 688.5,-85"/>
<text text-anchor="start" x="534.5" y="-73" font-family="Helvetica,sans-Serif" font-size="10.00">libmateweather/mateweather</text>
<text text-anchor="middle" x="607.5" y="-62" font-family="Helvetica,sans-Serif" font-size="10.00">&#45;timezone.h</text>
</a>
</g>
</g>
<!-- Node10&#45;&gt;Node12 -->
<g id="edge12_Node000010_Node000012" class="edge">
<title>Node10&#45;&gt;Node12</title>
<g id="a_edge12_Node000010_Node000012"><a xlink:title=" ">
<path fill="none" stroke="#63b8ff" d="M556.35,-120.87C564.04,-113.37 575.5,-102.2 585.63,-92.33"/>
<polygon fill="#63b8ff" stroke="#63b8ff" points="588.31,-94.6 593.02,-85.11 583.42,-89.59 588.31,-94.6"/>
</a>
</g>
</g>
<!-- Node13 -->
<g id="Node000013" class="node">
<title>Node13</title>
<g id="a_Node000013"><a xlink:title=" ">
<polygon fill="#e0e0e0" stroke="#999999" points="646,-19 569,-19 569,0 646,0 646,-19"/>
<text text-anchor="middle" x="607.5" y="-7" font-family="Helvetica,sans-Serif" font-size="10.00">glib&#45;object.h</text>
</a>
</g>
</g>
<!-- Node12&#45;&gt;Node13 -->
<g id="edge13_Node000012_Node000013" class="edge">
<title>Node12&#45;&gt;Node13</title>
<g id="a_edge13_Node000012_Node000013"><a xlink:title=" ">
<path fill="none" stroke="#63b8ff" d="M607.5,-54.84C607.5,-47.21 607.5,-37.7 607.5,-29.45"/>
<polygon fill="#63b8ff" stroke="#63b8ff" points="611,-29.27 607.5,-19.27 604,-29.27 611,-29.27"/>
</a>
</g>
</g>
</g>
</svg>

<g id="navigator" transform="translate(0 0)" fill="#404254">
  <rect fill="#f2f5e9" fill-opacity="0.5" stroke="#606060" stroke-width=".5" x="0" y="0" width="60" height="60"/>
  <use id="zoomplus" xlink:href="#zoomPlus" x="17" y="9" onmousedown="handleZoom(evt,'in')"/>
  <use id="zoomminus" xlink:href="#zoomMin" x="42" y="9" onmousedown="handleZoom(evt,'out')"/>
  <use id="reset" xlink:href="#resetDef" x="30" y="36" onmousedown="handleReset()"/>
   <use id="arrowup" xlink:href="#arrowUp" x="0" y="0" onmousedown="handlePan(0,-1)"/>
  <use id="arrowright" xlink:href="#arrowRight" x="0" y="0" onmousedown="handlePan(1,0)"/>
  <use id="arrowdown" xlink:href="#arrowDown" x="0" y="0" onmousedown="handlePan(0,1)"/>
  <use id="arrowleft" xlink:href="#arrowLeft" x="0" y="0" onmousedown="handlePan(-1,0)"/>
</g>
<svg viewBox="0 0 15 15" width="100%" height="30px" preserveAspectRatio="xMaxYMin meet">
 <g id="arrow_out" transform="scale(0.3 0.3)">
  <a xlink:href="weather-wx_8c__incl_org.svg" target="_base">
   <rect id="button" ry="5" rx="5" y="6" x="6" height="38" width="38"
        fill="#f2f5e9" fill-opacity="0.5" stroke="#606060" stroke-width="1.0"/>
   <path id="arrow"
     d="M 11.500037,31.436501 C 11.940474,20.09759 22.043105,11.32322 32.158766,21.979434 L 37.068811,17.246167 C 37.068811,17.246167 37.088388,32 37.088388,32 L 22.160133,31.978069 C 22.160133,31.978069 26.997745,27.140456 26.997745,27.140456 C 18.528582,18.264221 13.291696,25.230495 11.500037,31.436501 z"
     style="fill:#404040;"/>
  </a>
 </g>
</svg>

<style type='text/css'>
<![CDATA[
[data-mouse-over-selected='false'] { opacity: 0.7; }
[data-mouse-over-selected='true']  { opacity: 1.0; }
]]>
</style>
<script type="application/ecmascript"><![CDATA[
document.addEventListener('DOMContentLoaded', (event) => {
  highlightEdges();
  highlightAdjacentNodes();
});
]]></script>
</svg>
