<?xml version="1.0" encoding="UTF-8" standalone="no"?>
<!DOCTYPE svg PUBLIC "-//W3C//DTD SVG 1.1//EN"
 "http://www.w3.org/Graphics/SVG/1.1/DTD/svg11.dtd">
<!-- Generated by graphviz version 2.43.0 (0)
 -->
<!-- Title: weather&#45;met.c Pages: 1 -->
<svg width="892pt" height="258pt"
 viewBox="0.00 0.00 891.50 258.00" xmlns="http://www.w3.org/2000/svg" xmlns:xlink="http://www.w3.org/1999/xlink">
<g id="graph0" class="graph" transform="scale(1 1) rotate(0) translate(4 254)">
<title>weather&#45;met.c</title>
<!-- Node1 -->
<g id="Node000001" class="node">
<title>Node1</title>
<g id="a_Node000001"><a xlink:title=" ">
<polygon fill="#999999" stroke="#666666" points="212.5,-250 124.5,-250 124.5,-231 212.5,-231 212.5,-250"/>
<text text-anchor="middle" x="168.5" y="-238" font-family="Helvetica,sans-Serif" font-size="10.00">weather&#45;met.c</text>
</a>
</g>
</g>
<!-- Node2 -->
<g id="Node000002" class="node">
<title>Node2</title>
<g id="a_Node000002"><a xlink:title=" ">
<polygon fill="#e0e0e0" stroke="#999999" points="53,-195 0,-195 0,-176 53,-176 53,-195"/>
<text text-anchor="middle" x="26.5" y="-183" font-family="Helvetica,sans-Serif" font-size="10.00">ctype.h</text>
</a>
</g>
</g>
<!-- Node1&#45;&gt;Node2 -->
<g id="edge1_Node000001_Node000002" class="edge">
<title>Node1&#45;&gt;Node2</title>
<g id="a_edge1_Node000001_Node000002"><a xlink:title=" ">
<path fill="none" stroke="#63b8ff" d="M145.69,-230.98C122.33,-222.27 85.8,-208.63 59.33,-198.75"/>
<polygon fill="#63b8ff" stroke="#63b8ff" points="60.32,-195.39 49.73,-195.17 57.87,-201.95 60.32,-195.39"/>
</a>
</g>
</g>
<!-- Node3 -->
<g id="Node000003" class="node">
<title>Node3</title>
<g id="a_Node000003"><a xlink:title=" ">
<polygon fill="#e0e0e0" stroke="#999999" points="124,-195 71,-195 71,-176 124,-176 124,-195"/>
<text text-anchor="middle" x="97.5" y="-183" font-family="Helvetica,sans-Serif" font-size="10.00">stdlib.h</text>
</a>
</g>
</g>
<!-- Node1&#45;&gt;Node3 -->
<g id="edge2_Node000001_Node000003" class="edge">
<title>Node1&#45;&gt;Node3</title>
<g id="a_edge2_Node000001_Node000003"><a xlink:title=" ">
<path fill="none" stroke="#63b8ff" d="M157.09,-230.98C146.39,-223 130.16,-210.88 117.34,-201.31"/>
<polygon fill="#63b8ff" stroke="#63b8ff" points="119.22,-198.35 109.11,-195.17 115.03,-203.96 119.22,-198.35"/>
</a>
</g>
</g>
<!-- Node4 -->
<g id="Node000004" class="node">
<title>Node4</title>
<g id="a_Node000004"><a xlink:title=" ">
<polygon fill="#e0e0e0" stroke="#999999" points="195,-195 142,-195 142,-176 195,-176 195,-195"/>
<text text-anchor="middle" x="168.5" y="-183" font-family="Helvetica,sans-Serif" font-size="10.00">string.h</text>
</a>
</g>
</g>
<!-- Node1&#45;&gt;Node4 -->
<g id="edge3_Node000001_Node000004" class="edge">
<title>Node1&#45;&gt;Node4</title>
<g id="a_edge3_Node000001_Node000004"><a xlink:title=" ">
<path fill="none" stroke="#63b8ff" d="M168.5,-230.75C168.5,-223.8 168.5,-213.85 168.5,-205.13"/>
<polygon fill="#63b8ff" stroke="#63b8ff" points="172,-205.09 168.5,-195.09 165,-205.09 172,-205.09"/>
</a>
</g>
</g>
<!-- Node5 -->
<g id="Node000005" class="node">
<title>Node5</title>
<g id="a_Node000005"><a xlink:href="weather_8h.html" target="_top" xlink:title=" ">
<polygon fill="white" stroke="#666666" points="294,-79.5 229,-79.5 229,-60.5 294,-60.5 294,-79.5"/>
<text text-anchor="middle" x="261.5" y="-67.5" font-family="Helvetica,sans-Serif" font-size="10.00">weather.h</text>
</a>
</g>
</g>
<!-- Node1&#45;&gt;Node5 -->
<g id="edge4_Node000001_Node000005" class="edge">
<title>Node1&#45;&gt;Node5</title>
<g id="a_edge4_Node000001_Node000005"><a xlink:title=" ">
<path fill="none" stroke="#63b8ff" d="M176.38,-230.74C183.93,-222.08 195.36,-208.22 203.5,-195 225.43,-159.39 244.61,-114.15 254.47,-89.34"/>
<polygon fill="#63b8ff" stroke="#63b8ff" points="257.83,-90.36 258.21,-79.77 251.31,-87.81 257.83,-90.36"/>
</a>
</g>
</g>
<!-- Node7 -->
<g id="Node000007" class="node">
<title>Node7</title>
<g id="a_Node000007"><a xlink:href="weather-priv_8h.html" target="_top" xlink:title=" ">
<polygon fill="white" stroke="#666666" points="465,-195 378,-195 378,-176 465,-176 465,-195"/>
<text text-anchor="middle" x="421.5" y="-183" font-family="Helvetica,sans-Serif" font-size="10.00">weather&#45;priv.h</text>
</a>
</g>
</g>
<!-- Node1&#45;&gt;Node7 -->
<g id="edge6_Node000001_Node000007" class="edge">
<title>Node1&#45;&gt;Node7</title>
<g id="a_edge6_Node000001_Node000007"><a xlink:title=" ">
<path fill="none" stroke="#63b8ff" d="M209.15,-230.98C253,-221.8 322.92,-207.15 370.45,-197.19"/>
<polygon fill="#63b8ff" stroke="#63b8ff" points="371.46,-200.56 380.53,-195.08 370.03,-193.71 371.46,-200.56"/>
</a>
</g>
</g>
<!-- Node6 -->
<g id="Node000006" class="node">
<title>Node6</title>
<g id="a_Node000006"><a xlink:title=" ">
<polygon fill="#e0e0e0" stroke="#999999" points="328,-19 195,-19 195,0 328,0 328,-19"/>
<text text-anchor="middle" x="261.5" y="-7" font-family="Helvetica,sans-Serif" font-size="10.00">gdk&#45;pixbuf/gdk&#45;pixbuf.h</text>
</a>
</g>
</g>
<!-- Node5&#45;&gt;Node6 -->
<g id="edge5_Node000005_Node000006" class="edge">
<title>Node5&#45;&gt;Node6</title>
<g id="a_edge5_Node000005_Node000006"><a xlink:title=" ">
<path fill="none" stroke="#63b8ff" d="M261.5,-60.37C261.5,-52.25 261.5,-39.81 261.5,-29.39"/>
<polygon fill="#63b8ff" stroke="#63b8ff" points="265,-29.17 261.5,-19.17 258,-29.17 265,-29.17"/>
</a>
</g>
</g>
<!-- Node7&#45;&gt;Node5 -->
<g id="edge12_Node000007_Node000005" class="edge">
<title>Node7&#45;&gt;Node5</title>
<g id="a_edge12_Node000007_Node000005"><a xlink:title=" ">
<path fill="none" stroke="#63b8ff" d="M377.9,-181.55C346.7,-177.14 305.88,-166.34 280.5,-140 267.72,-126.74 263.37,-105.7 261.97,-90.34"/>
<polygon fill="#63b8ff" stroke="#63b8ff" points="265.44,-89.71 261.39,-79.92 258.45,-90.1 265.44,-89.71"/>
</a>
</g>
</g>
<!-- Node8 -->
<g id="Node000008" class="node">
<title>Node8</title>
<g id="a_Node000008"><a xlink:title=" ">
<polygon fill="#e0e0e0" stroke="#999999" points="345,-140 290,-140 290,-121 345,-121 345,-140"/>
<text text-anchor="middle" x="317.5" y="-128" font-family="Helvetica,sans-Serif" font-size="10.00">config.h</text>
</a>
</g>
</g>
<!-- Node7&#45;&gt;Node8 -->
<g id="edge7_Node000007_Node000008" class="edge">
<title>Node7&#45;&gt;Node8</title>
<g id="a_edge7_Node000007_Node000008"><a xlink:title=" ">
<path fill="none" stroke="#63b8ff" d="M404.79,-175.98C388.29,-167.57 362.8,-154.59 343.62,-144.81"/>
<polygon fill="#63b8ff" stroke="#63b8ff" points="345.01,-141.59 334.51,-140.17 341.83,-147.83 345.01,-141.59"/>
</a>
</g>
</g>
<!-- Node9 -->
<g id="Node000009" class="node">
<title>Node9</title>
<g id="a_Node000009"><a xlink:title=" ">
<polygon fill="#e0e0e0" stroke="#999999" points="411.5,-140 363.5,-140 363.5,-121 411.5,-121 411.5,-140"/>
<text text-anchor="middle" x="387.5" y="-128" font-family="Helvetica,sans-Serif" font-size="10.00">time.h</text>
</a>
</g>
</g>
<!-- Node7&#45;&gt;Node9 -->
<g id="edge8_Node000007_Node000009" class="edge">
<title>Node7&#45;&gt;Node9</title>
<g id="a_edge8_Node000007_Node000009"><a xlink:title=" ">
<path fill="none" stroke="#63b8ff" d="M415.89,-175.75C411.18,-168.42 404.33,-157.73 398.53,-148.7"/>
<polygon fill="#63b8ff" stroke="#63b8ff" points="401.36,-146.62 393.01,-140.09 395.46,-150.4 401.36,-146.62"/>
</a>
</g>
</g>
<!-- Node10 -->
<g id="Node000010" class="node">
<title>Node10</title>
<g id="a_Node000010"><a xlink:title=" ">
<polygon fill="#e0e0e0" stroke="#999999" points="483,-140 430,-140 430,-121 483,-121 483,-140"/>
<text text-anchor="middle" x="456.5" y="-128" font-family="Helvetica,sans-Serif" font-size="10.00">libintl.h</text>
</a>
</g>
</g>
<!-- Node7&#45;&gt;Node10 -->
<g id="edge9_Node000007_Node000010" class="edge">
<title>Node7&#45;&gt;Node10</title>
<g id="a_edge9_Node000007_Node000010"><a xlink:title=" ">
<path fill="none" stroke="#63b8ff" d="M427.28,-175.75C432.12,-168.42 439.18,-157.73 445.14,-148.7"/>
<polygon fill="#63b8ff" stroke="#63b8ff" points="448.24,-150.36 450.83,-140.09 442.4,-146.5 448.24,-150.36"/>
</a>
</g>
</g>
<!-- Node11 -->
<g id="Node000011" class="node">
<title>Node11</title>
<g id="a_Node000011"><a xlink:title=" ">
<polygon fill="#e0e0e0" stroke="#999999" points="552,-140 501,-140 501,-121 552,-121 552,-140"/>
<text text-anchor="middle" x="526.5" y="-128" font-family="Helvetica,sans-Serif" font-size="10.00">math.h</text>
</a>
</g>
</g>
<!-- Node7&#45;&gt;Node11 -->
<g id="edge10_Node000007_Node000011" class="edge">
<title>Node7&#45;&gt;Node11</title>
<g id="a_edge10_Node000007_Node000011"><a xlink:title=" ">
<path fill="none" stroke="#63b8ff" d="M438.37,-175.98C455.11,-167.54 481,-154.47 500.39,-144.68"/>
<polygon fill="#63b8ff" stroke="#63b8ff" points="501.97,-147.8 509.32,-140.17 498.82,-141.55 501.97,-147.8"/>
</a>
</g>
</g>
<!-- Node12 -->
<g id="Node000012" class="node">
<title>Node12</title>
<g id="a_Node000012"><a xlink:title=" ">
<polygon fill="#e0e0e0" stroke="#999999" points="657,-140 570,-140 570,-121 657,-121 657,-140"/>
<text text-anchor="middle" x="613.5" y="-128" font-family="Helvetica,sans-Serif" font-size="10.00">libsoup/soup.h</text>
</a>
</g>
</g>
<!-- Node7&#45;&gt;Node12 -->
<g id="edge11_Node000007_Node000012" class="edge">
<title>Node7&#45;&gt;Node12</title>
<g id="a_edge11_Node000007_Node000012"><a xlink:title=" ">
<path fill="none" stroke="#63b8ff" d="M452.35,-175.98C485,-166.97 536.7,-152.7 572.7,-142.76"/>
<polygon fill="#63b8ff" stroke="#63b8ff" points="573.7,-146.12 582.41,-140.08 571.84,-139.37 573.7,-146.12"/>
</a>
</g>
</g>
<!-- Node13 -->
<g id="Node000013" class="node">
<title>Node13</title>
<g id="a_Node000013"><a xlink:href="mateweather-location_8h.html" target="_top" xlink:title=" ">
<polygon fill="white" stroke="#666666" points="809.5,-140 675.5,-140 675.5,-121 809.5,-121 809.5,-140"/>
<text text-anchor="middle" x="742.5" y="-128" font-family="Helvetica,sans-Serif" font-size="10.00">mateweather&#45;location.h</text>
</a>
</g>
</g>
<!-- Node7&#45;&gt;Node13 -->
<g id="edge13_Node000007_Node000013" class="edge">
<title>Node7&#45;&gt;Node13</title>
<g id="a_edge13_Node000007_Node000013"><a xlink:title=" ">
<path fill="none" stroke="#63b8ff" d="M465.13,-177.3C520.82,-168.1 617.53,-152.13 680.77,-141.69"/>
<polygon fill="#63b8ff" stroke="#63b8ff" points="681.71,-145.08 691.01,-140 680.57,-138.18 681.71,-145.08"/>
</a>
</g>
</g>
<!-- Node13&#45;&gt;Node5 -->
<g id="edge17_Node000013_Node000005" class="edge">
<title>Node13&#45;&gt;Node5</title>
<g id="a_edge17_Node000013_Node000005"><a xlink:title=" ">
<path fill="none" stroke="#63b8ff" d="M675.37,-121.34C574.8,-109.1 387.93,-86.38 304.11,-76.18"/>
<polygon fill="#63b8ff" stroke="#63b8ff" points="304.52,-72.71 294.17,-74.97 303.68,-79.66 304.52,-72.71"/>
</a>
</g>
</g>
<!-- Node14 -->
<g id="Node000014" class="node">
<title>Node14</title>
<g id="a_Node000014"><a xlink:title=" ">
<polygon fill="#e0e0e0" stroke="#999999" points="703.5,-79.5 659.5,-79.5 659.5,-60.5 703.5,-60.5 703.5,-79.5"/>
<text text-anchor="middle" x="681.5" y="-67.5" font-family="Helvetica,sans-Serif" font-size="10.00">glib.h</text>
</a>
</g>
</g>
<!-- Node13&#45;&gt;Node14 -->
<g id="edge14_Node000013_Node000014" class="edge">
<title>Node13&#45;&gt;Node14</title>
<g id="a_edge14_Node000013_Node000014"><a xlink:title=" ">
<path fill="none" stroke="#63b8ff" d="M733.5,-120.87C724.13,-111.88 709.25,-97.61 697.8,-86.64"/>
<polygon fill="#63b8ff" stroke="#63b8ff" points="700.18,-84.06 690.54,-79.67 695.33,-89.12 700.18,-84.06"/>
</a>
</g>
</g>
<!-- Node15 -->
<g id="Node000015" class="node">
<title>Node15</title>
<g id="a_Node000015"><a xlink:href="mateweather-timezone_8h.html" target="_top" xlink:title=" ">
<polygon fill="white" stroke="#666666" points="883.5,-85 721.5,-85 721.5,-55 883.5,-55 883.5,-85"/>
<text text-anchor="start" x="729.5" y="-73" font-family="Helvetica,sans-Serif" font-size="10.00">libmateweather/mateweather</text>
<text text-anchor="middle" x="802.5" y="-62" font-family="Helvetica,sans-Serif" font-size="10.00">&#45;timezone.h</text>
</a>
</g>
</g>
<!-- Node13&#45;&gt;Node15 -->
<g id="edge15_Node000013_Node000015" class="edge">
<title>Node13&#45;&gt;Node15</title>
<g id="a_edge15_Node000013_Node000015"><a xlink:title=" ">
<path fill="none" stroke="#63b8ff" d="M751.35,-120.87C759.04,-113.37 770.5,-102.2 780.63,-92.33"/>
<polygon fill="#63b8ff" stroke="#63b8ff" points="783.31,-94.6 788.02,-85.11 778.42,-89.59 783.31,-94.6"/>
</a>
</g>
</g>
<!-- Node16 -->
<g id="Node000016" class="node">
<title>Node16</title>
<g id="a_Node000016"><a xlink:title=" ">
<polygon fill="#e0e0e0" stroke="#999999" points="841,-19 764,-19 764,0 841,0 841,-19"/>
<text text-anchor="middle" x="802.5" y="-7" font-family="Helvetica,sans-Serif" font-size="10.00">glib&#45;object.h</text>
</a>
</g>
</g>
<!-- Node15&#45;&gt;Node16 -->
<g id="edge16_Node000015_Node000016" class="edge">
<title>Node15&#45;&gt;Node16</title>
<g id="a_edge16_Node000015_Node000016"><a xlink:title=" ">
<path fill="none" stroke="#63b8ff" d="M802.5,-54.84C802.5,-47.21 802.5,-37.7 802.5,-29.45"/>
<polygon fill="#63b8ff" stroke="#63b8ff" points="806,-29.27 802.5,-19.27 799,-29.27 806,-29.27"/>
</a>
</g>
</g>
</g>
</svg>
