<?xml version="1.0" encoding="UTF-8" standalone="no"?>
<!DOCTYPE svg PUBLIC "-//W3C//DTD SVG 1.1//EN"
 "http://www.w3.org/Graphics/SVG/1.1/DTD/svg11.dtd">
<!-- Generated by graphviz version 2.43.0 (0)
 -->
<!-- Title: weather&#45;priv.h Pages: 1 -->
<svg width="695pt" height="203pt"
 viewBox="0.00 0.00 694.50 203.00" xmlns="http://www.w3.org/2000/svg" xmlns:xlink="http://www.w3.org/1999/xlink">
<g id="graph0" class="graph" transform="scale(1 1) rotate(0) translate(4 199)">
<title>weather&#45;priv.h</title>
<!-- Node1 -->
<g id="Node000001" class="node">
<title>Node1</title>
<g id="a_Node000001"><a xlink:title=" ">
<polygon fill="#999999" stroke="#666666" points="280,-195 193,-195 193,-176 280,-176 280,-195"/>
<text text-anchor="middle" x="236.5" y="-183" font-family="Helvetica,sans-Serif" font-size="10.00">weather&#45;priv.h</text>
</a>
</g>
</g>
<!-- Node2 -->
<g id="Node000002" class="node">
<title>Node2</title>
<g id="a_Node000002"><a xlink:title=" ">
<polygon fill="#e0e0e0" stroke="#999999" points="55,-140 0,-140 0,-121 55,-121 55,-140"/>
<text text-anchor="middle" x="27.5" y="-128" font-family="Helvetica,sans-Serif" font-size="10.00">config.h</text>
</a>
</g>
</g>
<!-- Node1&#45;&gt;Node2 -->
<g id="edge1_Node000001_Node000002" class="edge">
<title>Node1&#45;&gt;Node2</title>
<g id="a_edge1_Node000001_Node000002"><a xlink:title=" ">
<path fill="none" stroke="#63b8ff" d="M202.92,-175.98C165.24,-166.43 104.26,-150.97 65.03,-141.02"/>
<polygon fill="#63b8ff" stroke="#63b8ff" points="65.87,-137.62 55.31,-138.55 64.15,-144.4 65.87,-137.62"/>
</a>
</g>
</g>
<!-- Node3 -->
<g id="Node000003" class="node">
<title>Node3</title>
<g id="a_Node000003"><a xlink:title=" ">
<polygon fill="#e0e0e0" stroke="#999999" points="121.5,-140 73.5,-140 73.5,-121 121.5,-121 121.5,-140"/>
<text text-anchor="middle" x="97.5" y="-128" font-family="Helvetica,sans-Serif" font-size="10.00">time.h</text>
</a>
</g>
</g>
<!-- Node1&#45;&gt;Node3 -->
<g id="edge2_Node000001_Node000003" class="edge">
<title>Node1&#45;&gt;Node3</title>
<g id="a_edge2_Node000001_Node000003"><a xlink:title=" ">
<path fill="none" stroke="#63b8ff" d="M214.17,-175.98C191.3,-167.27 155.54,-153.63 129.64,-143.75"/>
<polygon fill="#63b8ff" stroke="#63b8ff" points="130.83,-140.46 120.24,-140.17 128.34,-147 130.83,-140.46"/>
</a>
</g>
</g>
<!-- Node4 -->
<g id="Node000004" class="node">
<title>Node4</title>
<g id="a_Node000004"><a xlink:title=" ">
<polygon fill="#e0e0e0" stroke="#999999" points="193,-140 140,-140 140,-121 193,-121 193,-140"/>
<text text-anchor="middle" x="166.5" y="-128" font-family="Helvetica,sans-Serif" font-size="10.00">libintl.h</text>
</a>
</g>
</g>
<!-- Node1&#45;&gt;Node4 -->
<g id="edge3_Node000001_Node000004" class="edge">
<title>Node1&#45;&gt;Node4</title>
<g id="a_edge3_Node000001_Node000004"><a xlink:title=" ">
<path fill="none" stroke="#63b8ff" d="M225.25,-175.98C214.7,-168 198.7,-155.88 186.06,-146.31"/>
<polygon fill="#63b8ff" stroke="#63b8ff" points="188.04,-143.42 177.95,-140.17 183.81,-149 188.04,-143.42"/>
</a>
</g>
</g>
<!-- Node5 -->
<g id="Node000005" class="node">
<title>Node5</title>
<g id="a_Node000005"><a xlink:title=" ">
<polygon fill="#e0e0e0" stroke="#999999" points="262,-140 211,-140 211,-121 262,-121 262,-140"/>
<text text-anchor="middle" x="236.5" y="-128" font-family="Helvetica,sans-Serif" font-size="10.00">math.h</text>
</a>
</g>
</g>
<!-- Node1&#45;&gt;Node5 -->
<g id="edge4_Node000001_Node000005" class="edge">
<title>Node1&#45;&gt;Node5</title>
<g id="a_edge4_Node000001_Node000005"><a xlink:title=" ">
<path fill="none" stroke="#63b8ff" d="M236.5,-175.75C236.5,-168.8 236.5,-158.85 236.5,-150.13"/>
<polygon fill="#63b8ff" stroke="#63b8ff" points="240,-150.09 236.5,-140.09 233,-150.09 240,-150.09"/>
</a>
</g>
</g>
<!-- Node6 -->
<g id="Node000006" class="node">
<title>Node6</title>
<g id="a_Node000006"><a xlink:title=" ">
<polygon fill="#e0e0e0" stroke="#999999" points="367,-140 280,-140 280,-121 367,-121 367,-140"/>
<text text-anchor="middle" x="323.5" y="-128" font-family="Helvetica,sans-Serif" font-size="10.00">libsoup/soup.h</text>
</a>
</g>
</g>
<!-- Node1&#45;&gt;Node6 -->
<g id="edge5_Node000001_Node000006" class="edge">
<title>Node1&#45;&gt;Node6</title>
<g id="a_edge5_Node000001_Node000006"><a xlink:title=" ">
<path fill="none" stroke="#63b8ff" d="M250.48,-175.98C263.97,-167.77 284.63,-155.18 300.54,-145.49"/>
<polygon fill="#63b8ff" stroke="#63b8ff" points="302.55,-148.36 309.27,-140.17 298.91,-142.38 302.55,-148.36"/>
</a>
</g>
</g>
<!-- Node7 -->
<g id="Node000007" class="node">
<title>Node7</title>
<g id="a_Node000007"><a xlink:href="weather_8h.html" target="_top" xlink:title=" ">
<polygon fill="white" stroke="#666666" points="439,-79.5 374,-79.5 374,-60.5 439,-60.5 439,-79.5"/>
<text text-anchor="middle" x="406.5" y="-67.5" font-family="Helvetica,sans-Serif" font-size="10.00">weather.h</text>
</a>
</g>
</g>
<!-- Node1&#45;&gt;Node7 -->
<g id="edge6_Node000001_Node000007" class="edge">
<title>Node1&#45;&gt;Node7</title>
<g id="a_edge6_Node000001_Node000007"><a xlink:title=" ">
<path fill="none" stroke="#63b8ff" d="M280.28,-179.87C310.23,-174.65 349.14,-163.55 375.5,-140 390.32,-126.76 398.45,-105.08 402.62,-89.55"/>
<polygon fill="#63b8ff" stroke="#63b8ff" points="406.09,-90.08 405,-79.54 399.28,-88.46 406.09,-90.08"/>
</a>
</g>
</g>
<!-- Node9 -->
<g id="Node000009" class="node">
<title>Node9</title>
<g id="a_Node000009"><a xlink:href="mateweather-location_8h.html" target="_top" xlink:title=" ">
<polygon fill="white" stroke="#666666" points="557.5,-140 423.5,-140 423.5,-121 557.5,-121 557.5,-140"/>
<text text-anchor="middle" x="490.5" y="-128" font-family="Helvetica,sans-Serif" font-size="10.00">mateweather&#45;location.h</text>
</a>
</g>
</g>
<!-- Node1&#45;&gt;Node9 -->
<g id="edge8_Node000001_Node000009" class="edge">
<title>Node1&#45;&gt;Node9</title>
<g id="a_edge8_Node000001_Node000009"><a xlink:title=" ">
<path fill="none" stroke="#63b8ff" d="M277.31,-175.98C321.43,-166.78 391.83,-152.09 439.55,-142.13"/>
<polygon fill="#63b8ff" stroke="#63b8ff" points="440.3,-145.55 449.37,-140.08 438.87,-138.7 440.3,-145.55"/>
</a>
</g>
</g>
<!-- Node8 -->
<g id="Node000008" class="node">
<title>Node8</title>
<g id="a_Node000008"><a xlink:title=" ">
<polygon fill="#e0e0e0" stroke="#999999" points="473,-19 340,-19 340,0 473,0 473,-19"/>
<text text-anchor="middle" x="406.5" y="-7" font-family="Helvetica,sans-Serif" font-size="10.00">gdk&#45;pixbuf/gdk&#45;pixbuf.h</text>
</a>
</g>
</g>
<!-- Node7&#45;&gt;Node8 -->
<g id="edge7_Node000007_Node000008" class="edge">
<title>Node7&#45;&gt;Node8</title>
<g id="a_edge7_Node000007_Node000008"><a xlink:title=" ">
<path fill="none" stroke="#63b8ff" d="M406.5,-60.37C406.5,-52.25 406.5,-39.81 406.5,-29.39"/>
<polygon fill="#63b8ff" stroke="#63b8ff" points="410,-29.17 406.5,-19.17 403,-29.17 410,-29.17"/>
</a>
</g>
</g>
<!-- Node9&#45;&gt;Node7 -->
<g id="edge12_Node000009_Node000007" class="edge">
<title>Node9&#45;&gt;Node7</title>
<g id="a_edge12_Node000009_Node000007"><a xlink:title=" ">
<path fill="none" stroke="#63b8ff" d="M478.11,-120.87C464.71,-111.54 443.12,-96.51 427.15,-85.38"/>
<polygon fill="#63b8ff" stroke="#63b8ff" points="429.15,-82.51 418.95,-79.67 425.15,-88.25 429.15,-82.51"/>
</a>
</g>
</g>
<!-- Node10 -->
<g id="Node000010" class="node">
<title>Node10</title>
<g id="a_Node000010"><a xlink:title=" ">
<polygon fill="#e0e0e0" stroke="#999999" points="506.5,-79.5 462.5,-79.5 462.5,-60.5 506.5,-60.5 506.5,-79.5"/>
<text text-anchor="middle" x="484.5" y="-67.5" font-family="Helvetica,sans-Serif" font-size="10.00">glib.h</text>
</a>
</g>
</g>
<!-- Node9&#45;&gt;Node10 -->
<g id="edge9_Node000009_Node000010" class="edge">
<title>Node9&#45;&gt;Node10</title>
<g id="a_edge9_Node000009_Node000010"><a xlink:title=" ">
<path fill="none" stroke="#63b8ff" d="M489.61,-120.87C488.78,-112.75 487.51,-100.31 486.44,-89.89"/>
<polygon fill="#63b8ff" stroke="#63b8ff" points="489.89,-89.26 485.39,-79.67 482.93,-89.97 489.89,-89.26"/>
</a>
</g>
</g>
<!-- Node11 -->
<g id="Node000011" class="node">
<title>Node11</title>
<g id="a_Node000011"><a xlink:href="mateweather-timezone_8h.html" target="_top" xlink:title=" ">
<polygon fill="white" stroke="#666666" points="686.5,-85 524.5,-85 524.5,-55 686.5,-55 686.5,-85"/>
<text text-anchor="start" x="532.5" y="-73" font-family="Helvetica,sans-Serif" font-size="10.00">libmateweather/mateweather</text>
<text text-anchor="middle" x="605.5" y="-62" font-family="Helvetica,sans-Serif" font-size="10.00">&#45;timezone.h</text>
</a>
</g>
</g>
<!-- Node9&#45;&gt;Node11 -->
<g id="edge10_Node000009_Node000011" class="edge">
<title>Node9&#45;&gt;Node11</title>
<g id="a_edge10_Node000009_Node000011"><a xlink:title=" ">
<path fill="none" stroke="#63b8ff" d="M507.47,-120.87C523.51,-112.71 548.1,-100.2 568.65,-89.75"/>
<polygon fill="#63b8ff" stroke="#63b8ff" points="570.43,-92.77 577.75,-85.11 567.25,-86.53 570.43,-92.77"/>
</a>
</g>
</g>
<!-- Node12 -->
<g id="Node000012" class="node">
<title>Node12</title>
<g id="a_Node000012"><a xlink:title=" ">
<polygon fill="#e0e0e0" stroke="#999999" points="644,-19 567,-19 567,0 644,0 644,-19"/>
<text text-anchor="middle" x="605.5" y="-7" font-family="Helvetica,sans-Serif" font-size="10.00">glib&#45;object.h</text>
</a>
</g>
</g>
<!-- Node11&#45;&gt;Node12 -->
<g id="edge11_Node000011_Node000012" class="edge">
<title>Node11&#45;&gt;Node12</title>
<g id="a_edge11_Node000011_Node000012"><a xlink:title=" ">
<path fill="none" stroke="#63b8ff" d="M605.5,-54.84C605.5,-47.21 605.5,-37.7 605.5,-29.45"/>
<polygon fill="#63b8ff" stroke="#63b8ff" points="609,-29.27 605.5,-19.27 602,-29.27 609,-29.27"/>
</a>
</g>
</g>
</g>
</svg>
