<?xml version="1.0" encoding="UTF-8" standalone="no"?>
<!DOCTYPE svg PUBLIC "-//W3C//DTD SVG 1.1//EN"
 "http://www.w3.org/Graphics/SVG/1.1/DTD/svg11.dtd">
<!-- Generated by graphviz version 2.43.0 (0)
 -->
<!-- Title: weather&#45;sun.c Pages: 1 -->
<!--zoomable 258 -->

<svg id="main" version="1.1" xmlns="http://www.w3.org/2000/svg" xmlns:xlink="http://www.w3.org/1999/xlink" xml:space="preserve" onload="init(evt)">

<style type="text/css"><![CDATA[
.node, .edge {opacity: 0.7;}
.node.selected, .edge.selected {opacity: 1;}
.edge:hover path { stroke: red; }
.edge:hover polygon { stroke: red; fill: red; }
]]></style>

<defs>
  <circle id="rim" cx="0" cy="0" r="7"/>
  <circle id="rim2" cx="0" cy="0" r="3.5"/>
  <g id="zoomPlus">
    <use xlink:href="#rim" fill="#404040"><set attributeName="fill" to="#808080" begin="zoomplus.mouseover" end="zoomplus.mouseout"/></use>
    <path d="M-4,0h8M0,-4v8" fill="none" stroke="white" stroke-width="1.5" pointer-events="none"/>
  </g>
  <g id="zoomMin">
    <use xlink:href="#rim" fill="#404040"><set attributeName="fill" to="#808080" begin="zoomminus.mouseover" end="zoomminus.mouseout"/></use>
    <path d="M-4,0h8" fill="none" stroke="white" stroke-width="1.5" pointer-events="none"/>
  </g>
  <g id="arrowUp" transform="translate(30 24)">
    <use xlink:href="#rim"/>
    <path pointer-events="none" fill="none" stroke="white" stroke-width="1.5" d="M0,-3.0v7 M-2.5,-0.5L0,-3.0L2.5,-0.5"/>
  </g>
  <g id="arrowRight" transform="rotate(90) translate(36 -43)">
    <use xlink:href="#rim"/>
    <path pointer-events="none" fill="none" stroke="white" stroke-width="1.5" d="M0,-3.0v7 M-2.5,-0.5L0,-3.0L2.5,-0.5"/>
  </g>
  <g id="arrowDown" transform="rotate(180) translate(-30 -48)">
    <use xlink:href="#rim"/>
    <path pointer-events="none" fill="none" stroke="white" stroke-width="1.5" d="M0,-3.0v7 M-2.5,-0.5L0,-3.0L2.5,-0.5"/>
  </g>
  <g id="arrowLeft" transform="rotate(270) translate(-36 17)">
    <use xlink:href="#rim"/>
    <path pointer-events="none" fill="none" stroke="white" stroke-width="1.5" d="M0,-3.0v7 M-2.5,-0.5L0,-3.0L2.5,-0.5"/>
  </g>
  <g id="resetDef">
    <use xlink:href="#rim2" fill="#404040"><set attributeName="fill" to="#808080" begin="reset.mouseover" end="reset.mouseout"/></use>
  </g>
</defs>
<script type="application/ecmascript">
var viewWidth = 611;
var viewHeight = 258;
var sectionId = 'dynsection-0';
</script>
<script type="application/ecmascript" xlink:href="svg.min.js"/>
<svg id="graph" class="graph">
<g id="viewport">
<title>weather&#45;sun.c</title>
<!-- Node1 -->
<g id="Node000001" class="node">
<title>Node1</title>
<g id="a_Node000001"><a xlink:title=" ">
<polygon fill="#999999" stroke="#666666" points="234.5,-250 148.5,-250 148.5,-231 234.5,-231 234.5,-250"/>
<text text-anchor="middle" x="191.5" y="-238" font-family="Helvetica,sans-Serif" font-size="10.00">weather&#45;sun.c</text>
</a>
</g>
</g>
<!-- Node2 -->
<g id="Node000002" class="node">
<title>Node2</title>
<g id="a_Node000002"><a xlink:title=" ">
<polygon fill="#e0e0e0" stroke="#999999" points="51,-140 0,-140 0,-121 51,-121 51,-140"/>
<text text-anchor="middle" x="25.5" y="-128" font-family="Helvetica,sans-Serif" font-size="10.00">math.h</text>
</a>
</g>
</g>
<!-- Node1&#45;&gt;Node2 -->
<g id="edge1_Node000001_Node000002" class="edge">
<title>Node1&#45;&gt;Node2</title>
<g id="a_edge1_Node000001_Node000002"><a xlink:title=" ">
<path fill="none" stroke="#63b8ff" d="M178.2,-230.84C149.66,-212.28 82.35,-168.49 47.41,-145.75"/>
<polygon fill="#63b8ff" stroke="#63b8ff" points="49.16,-142.72 38.87,-140.2 45.34,-148.58 49.16,-142.72"/>
</a>
</g>
</g>
<!-- Node3 -->
<g id="Node000003" class="node">
<title>Node3</title>
<g id="a_Node000003"><a xlink:title=" ">
<polygon fill="#e0e0e0" stroke="#999999" points="117.5,-140 69.5,-140 69.5,-121 117.5,-121 117.5,-140"/>
<text text-anchor="middle" x="93.5" y="-128" font-family="Helvetica,sans-Serif" font-size="10.00">time.h</text>
</a>
</g>
</g>
<!-- Node1&#45;&gt;Node3 -->
<g id="edge2_Node000001_Node000003" class="edge">
<title>Node1&#45;&gt;Node3</title>
<g id="a_edge2_Node000001_Node000003"><a xlink:title=" ">
<path fill="none" stroke="#63b8ff" d="M183.48,-230.66C167.03,-212.54 129.26,-170.91 108.26,-147.77"/>
<polygon fill="#63b8ff" stroke="#63b8ff" points="110.67,-145.21 101.36,-140.16 105.48,-149.92 110.67,-145.21"/>
</a>
</g>
</g>
<!-- Node4 -->
<g id="Node000004" class="node">
<title>Node4</title>
<g id="a_Node000004"><a xlink:title=" ">
<polygon fill="#e0e0e0" stroke="#999999" points="602.5,-79.5 558.5,-79.5 558.5,-60.5 602.5,-60.5 602.5,-79.5"/>
<text text-anchor="middle" x="580.5" y="-67.5" font-family="Helvetica,sans-Serif" font-size="10.00">glib.h</text>
</a>
</g>
</g>
<!-- Node1&#45;&gt;Node4 -->
<g id="edge3_Node000001_Node000004" class="edge">
<title>Node1&#45;&gt;Node4</title>
<g id="a_edge3_Node000001_Node000004"><a xlink:title=" ">
<path fill="none" stroke="#63b8ff" d="M234.65,-233.89C323.46,-221.45 522.15,-188.77 567.5,-140 579.8,-126.77 582.22,-105.73 582.07,-90.36"/>
<polygon fill="#63b8ff" stroke="#63b8ff" points="585.55,-89.76 581.58,-79.93 578.55,-90.09 585.55,-89.76"/>
</a>
</g>
</g>
<!-- Node5 -->
<g id="Node000005" class="node">
<title>Node5</title>
<g id="a_Node000005"><a xlink:href="weather-priv_8h.html" target="_top" xlink:title=" ">
<polygon fill="white" stroke="#666666" points="255,-195 168,-195 168,-176 255,-176 255,-195"/>
<text text-anchor="middle" x="211.5" y="-183" font-family="Helvetica,sans-Serif" font-size="10.00">weather&#45;priv.h</text>
</a>
</g>
</g>
<!-- Node1&#45;&gt;Node5 -->
<g id="edge4_Node000001_Node000005" class="edge">
<title>Node1&#45;&gt;Node5</title>
<g id="a_edge4_Node000001_Node000005"><a xlink:title=" ">
<path fill="none" stroke="#63b8ff" d="M194.8,-230.75C197.48,-223.65 201.35,-213.4 204.69,-204.56"/>
<polygon fill="#63b8ff" stroke="#63b8ff" points="208,-205.68 208.26,-195.09 201.45,-203.21 208,-205.68"/>
</a>
</g>
</g>
<!-- Node5&#45;&gt;Node2 -->
<g id="edge8_Node000005_Node000002" class="edge">
<title>Node5&#45;&gt;Node2</title>
<g id="a_edge8_Node000005_Node000002"><a xlink:title=" ">
<path fill="none" stroke="#63b8ff" d="M181.62,-175.98C148.72,-166.61 95.86,-151.55 60.91,-141.59"/>
<polygon fill="#63b8ff" stroke="#63b8ff" points="61.69,-138.17 51.12,-138.8 59.78,-144.91 61.69,-138.17"/>
</a>
</g>
</g>
<!-- Node5&#45;&gt;Node3 -->
<g id="edge6_Node000005_Node000003" class="edge">
<title>Node5&#45;&gt;Node3</title>
<g id="a_edge6_Node000005_Node000003"><a xlink:title=" ">
<path fill="none" stroke="#63b8ff" d="M192.54,-175.98C173.47,-167.42 143.84,-154.11 121.95,-144.28"/>
<polygon fill="#63b8ff" stroke="#63b8ff" points="123.36,-141.07 112.8,-140.17 120.49,-147.46 123.36,-141.07"/>
</a>
</g>
</g>
<!-- Node6 -->
<g id="Node000006" class="node">
<title>Node6</title>
<g id="a_Node000006"><a xlink:title=" ">
<polygon fill="#e0e0e0" stroke="#999999" points="558,-140 503,-140 503,-121 558,-121 558,-140"/>
<text text-anchor="middle" x="530.5" y="-128" font-family="Helvetica,sans-Serif" font-size="10.00">config.h</text>
</a>
</g>
</g>
<!-- Node5&#45;&gt;Node6 -->
<g id="edge5_Node000005_Node000006" class="edge">
<title>Node5&#45;&gt;Node6</title>
<g id="a_edge5_Node000005_Node000006"><a xlink:title=" ">
<path fill="none" stroke="#63b8ff" d="M255.14,-178.57C308.75,-171.08 402.66,-157.26 492.82,-140.01"/>
<polygon fill="#63b8ff" stroke="#63b8ff" points="493.51,-143.44 502.66,-138.11 492.18,-136.57 493.51,-143.44"/>
</a>
</g>
</g>
<!-- Node7 -->
<g id="Node000007" class="node">
<title>Node7</title>
<g id="a_Node000007"><a xlink:title=" ">
<polygon fill="#e0e0e0" stroke="#999999" points="189,-140 136,-140 136,-121 189,-121 189,-140"/>
<text text-anchor="middle" x="162.5" y="-128" font-family="Helvetica,sans-Serif" font-size="10.00">libintl.h</text>
</a>
</g>
</g>
<!-- Node5&#45;&gt;Node7 -->
<g id="edge7_Node000005_Node000007" class="edge">
<title>Node5&#45;&gt;Node7</title>
<g id="a_edge7_Node000005_Node000007"><a xlink:title=" ">
<path fill="none" stroke="#63b8ff" d="M203.41,-175.75C196.34,-168.11 185.91,-156.82 177.35,-147.56"/>
<polygon fill="#63b8ff" stroke="#63b8ff" points="179.8,-145.06 170.44,-140.09 174.66,-149.81 179.8,-145.06"/>
</a>
</g>
</g>
<!-- Node8 -->
<g id="Node000008" class="node">
<title>Node8</title>
<g id="a_Node000008"><a xlink:title=" ">
<polygon fill="#e0e0e0" stroke="#999999" points="294,-140 207,-140 207,-121 294,-121 294,-140"/>
<text text-anchor="middle" x="250.5" y="-128" font-family="Helvetica,sans-Serif" font-size="10.00">libsoup/soup.h</text>
</a>
</g>
</g>
<!-- Node5&#45;&gt;Node8 -->
<g id="edge9_Node000005_Node000008" class="edge">
<title>Node5&#45;&gt;Node8</title>
<g id="a_edge9_Node000005_Node000008"><a xlink:title=" ">
<path fill="none" stroke="#63b8ff" d="M217.94,-175.75C223.39,-168.34 231.36,-157.5 238.06,-148.41"/>
<polygon fill="#63b8ff" stroke="#63b8ff" points="241.07,-150.22 244.18,-140.09 235.43,-146.07 241.07,-150.22"/>
</a>
</g>
</g>
<!-- Node9 -->
<g id="Node000009" class="node">
<title>Node9</title>
<g id="a_Node000009"><a xlink:href="weather_8h.html" target="_top" xlink:title=" ">
<polygon fill="white" stroke="#666666" points="355,-79.5 290,-79.5 290,-60.5 355,-60.5 355,-79.5"/>
<text text-anchor="middle" x="322.5" y="-67.5" font-family="Helvetica,sans-Serif" font-size="10.00">weather.h</text>
</a>
</g>
</g>
<!-- Node5&#45;&gt;Node9 -->
<g id="edge10_Node000005_Node000009" class="edge">
<title>Node5&#45;&gt;Node9</title>
<g id="a_edge10_Node000005_Node000009"><a xlink:title=" ">
<path fill="none" stroke="#63b8ff" d="M243.91,-175.95C263.47,-169.22 287.45,-157.9 302.5,-140 314.4,-125.85 319.22,-104.95 321.18,-89.87"/>
<polygon fill="#63b8ff" stroke="#63b8ff" points="324.68,-89.97 322.18,-79.67 317.72,-89.28 324.68,-89.97"/>
</a>
</g>
</g>
<!-- Node11 -->
<g id="Node000011" class="node">
<title>Node11</title>
<g id="a_Node000011"><a xlink:href="mateweather-location_8h.html" target="_top" xlink:title=" ">
<polygon fill="white" stroke="#666666" points="484.5,-140 350.5,-140 350.5,-121 484.5,-121 484.5,-140"/>
<text text-anchor="middle" x="417.5" y="-128" font-family="Helvetica,sans-Serif" font-size="10.00">mateweather&#45;location.h</text>
</a>
</g>
</g>
<!-- Node5&#45;&gt;Node11 -->
<g id="edge12_Node000005_Node000011" class="edge">
<title>Node5&#45;&gt;Node11</title>
<g id="a_edge12_Node000005_Node000011"><a xlink:title=" ">
<path fill="none" stroke="#63b8ff" d="M244.6,-175.98C279.78,-166.93 335.57,-152.58 374.22,-142.64"/>
<polygon fill="#63b8ff" stroke="#63b8ff" points="375.33,-145.96 384.14,-140.08 373.59,-139.18 375.33,-145.96"/>
</a>
</g>
</g>
<!-- Node10 -->
<g id="Node000010" class="node">
<title>Node10</title>
<g id="a_Node000010"><a xlink:title=" ">
<polygon fill="#e0e0e0" stroke="#999999" points="389,-19 256,-19 256,0 389,0 389,-19"/>
<text text-anchor="middle" x="322.5" y="-7" font-family="Helvetica,sans-Serif" font-size="10.00">gdk&#45;pixbuf/gdk&#45;pixbuf.h</text>
</a>
</g>
</g>
<!-- Node9&#45;&gt;Node10 -->
<g id="edge11_Node000009_Node000010" class="edge">
<title>Node9&#45;&gt;Node10</title>
<g id="a_edge11_Node000009_Node000010"><a xlink:title=" ">
<path fill="none" stroke="#63b8ff" d="M322.5,-60.37C322.5,-52.25 322.5,-39.81 322.5,-29.39"/>
<polygon fill="#63b8ff" stroke="#63b8ff" points="326,-29.17 322.5,-19.17 319,-29.17 326,-29.17"/>
</a>
</g>
</g>
<!-- Node11&#45;&gt;Node4 -->
<g id="edge13_Node000011_Node000004" class="edge">
<title>Node11&#45;&gt;Node4</title>
<g id="a_edge13_Node000011_Node000004"><a xlink:title=" ">
<path fill="none" stroke="#63b8ff" d="M442.89,-120.89C468.59,-112.1 509.44,-97.96 544.5,-85 546.1,-84.41 547.74,-83.8 549.39,-83.17"/>
<polygon fill="#63b8ff" stroke="#63b8ff" points="550.75,-86.4 558.84,-79.56 548.25,-79.86 550.75,-86.4"/>
</a>
</g>
</g>
<!-- Node11&#45;&gt;Node9 -->
<g id="edge16_Node000011_Node000009" class="edge">
<title>Node11&#45;&gt;Node9</title>
<g id="a_edge16_Node000011_Node000009"><a xlink:title=" ">
<path fill="none" stroke="#63b8ff" d="M403.48,-120.87C388.19,-111.45 363.47,-96.23 345.36,-85.08"/>
<polygon fill="#63b8ff" stroke="#63b8ff" points="346.93,-81.93 336.58,-79.67 343.25,-87.89 346.93,-81.93"/>
</a>
</g>
</g>
<!-- Node12 -->
<g id="Node000012" class="node">
<title>Node12</title>
<g id="a_Node000012"><a xlink:href="mateweather-timezone_8h.html" target="_top" xlink:title=" ">
<polygon fill="white" stroke="#666666" points="535.5,-85 373.5,-85 373.5,-55 535.5,-55 535.5,-85"/>
<text text-anchor="start" x="381.5" y="-73" font-family="Helvetica,sans-Serif" font-size="10.00">libmateweather/mateweather</text>
<text text-anchor="middle" x="454.5" y="-62" font-family="Helvetica,sans-Serif" font-size="10.00">&#45;timezone.h</text>
</a>
</g>
</g>
<!-- Node11&#45;&gt;Node12 -->
<g id="edge14_Node000011_Node000012" class="edge">
<title>Node11&#45;&gt;Node12</title>
<g id="a_edge14_Node000011_Node000012"><a xlink:title=" ">
<path fill="none" stroke="#63b8ff" d="M422.96,-120.87C427.47,-113.74 434.08,-103.28 440.09,-93.79"/>
<polygon fill="#63b8ff" stroke="#63b8ff" points="443.19,-95.44 445.57,-85.11 437.27,-91.7 443.19,-95.44"/>
</a>
</g>
</g>
<!-- Node13 -->
<g id="Node000013" class="node">
<title>Node13</title>
<g id="a_Node000013"><a xlink:title=" ">
<polygon fill="#e0e0e0" stroke="#999999" points="493,-19 416,-19 416,0 493,0 493,-19"/>
<text text-anchor="middle" x="454.5" y="-7" font-family="Helvetica,sans-Serif" font-size="10.00">glib&#45;object.h</text>
</a>
</g>
</g>
<!-- Node12&#45;&gt;Node13 -->
<g id="edge15_Node000012_Node000013" class="edge">
<title>Node12&#45;&gt;Node13</title>
<g id="a_edge15_Node000012_Node000013"><a xlink:title=" ">
<path fill="none" stroke="#63b8ff" d="M454.5,-54.84C454.5,-47.21 454.5,-37.7 454.5,-29.45"/>
<polygon fill="#63b8ff" stroke="#63b8ff" points="458,-29.27 454.5,-19.27 451,-29.27 458,-29.27"/>
</a>
</g>
</g>
</g>
</svg>

<g id="navigator" transform="translate(0 0)" fill="#404254">
  <rect fill="#f2f5e9" fill-opacity="0.5" stroke="#606060" stroke-width=".5" x="0" y="0" width="60" height="60"/>
  <use id="zoomplus" xlink:href="#zoomPlus" x="17" y="9" onmousedown="handleZoom(evt,'in')"/>
  <use id="zoomminus" xlink:href="#zoomMin" x="42" y="9" onmousedown="handleZoom(evt,'out')"/>
  <use id="reset" xlink:href="#resetDef" x="30" y="36" onmousedown="handleReset()"/>
   <use id="arrowup" xlink:href="#arrowUp" x="0" y="0" onmousedown="handlePan(0,-1)"/>
  <use id="arrowright" xlink:href="#arrowRight" x="0" y="0" onmousedown="handlePan(1,0)"/>
  <use id="arrowdown" xlink:href="#arrowDown" x="0" y="0" onmousedown="handlePan(0,1)"/>
  <use id="arrowleft" xlink:href="#arrowLeft" x="0" y="0" onmousedown="handlePan(-1,0)"/>
</g>
<svg viewBox="0 0 15 15" width="100%" height="30px" preserveAspectRatio="xMaxYMin meet">
 <g id="arrow_out" transform="scale(0.3 0.3)">
  <a xlink:href="weather-sun_8c__incl_org.svg" target="_base">
   <rect id="button" ry="5" rx="5" y="6" x="6" height="38" width="38"
        fill="#f2f5e9" fill-opacity="0.5" stroke="#606060" stroke-width="1.0"/>
   <path id="arrow"
     d="M 11.500037,31.436501 C 11.940474,20.09759 22.043105,11.32322 32.158766,21.979434 L 37.068811,17.246167 C 37.068811,17.246167 37.088388,32 37.088388,32 L 22.160133,31.978069 C 22.160133,31.978069 26.997745,27.140456 26.997745,27.140456 C 18.528582,18.264221 13.291696,25.230495 11.500037,31.436501 z"
     style="fill:#404040;"/>
  </a>
 </g>
</svg>

<style type='text/css'>
<![CDATA[
[data-mouse-over-selected='false'] { opacity: 0.7; }
[data-mouse-over-selected='true']  { opacity: 1.0; }
]]>
</style>
<script type="application/ecmascript"><![CDATA[
document.addEventListener('DOMContentLoaded', (event) => {
  highlightEdges();
  highlightAdjacentNodes();
});
]]></script>
</svg>
