<?xml version="1.0" encoding="UTF-8" standalone="no"?>
<!DOCTYPE svg PUBLIC "-//W3C//DTD SVG 1.1//EN"
 "http://www.w3.org/Graphics/SVG/1.1/DTD/svg11.dtd">
<!-- Generated by graphviz version 2.43.0 (0)
 -->
<!-- Title: weather&#45;metar.c Pages: 1 -->
<svg width="983pt" height="258pt"
 viewBox="0.00 0.00 982.50 258.00" xmlns="http://www.w3.org/2000/svg" xmlns:xlink="http://www.w3.org/1999/xlink">
<g id="graph0" class="graph" transform="scale(1 1) rotate(0) translate(4 254)">
<title>weather&#45;metar.c</title>
<!-- Node1 -->
<g id="Node000001" class="node">
<title>Node1</title>
<g id="a_Node000001"><a xlink:title=" ">
<polygon fill="#999999" stroke="#666666" points="267,-250 170,-250 170,-231 267,-231 267,-250"/>
<text text-anchor="middle" x="218.5" y="-238" font-family="Helvetica,sans-Serif" font-size="10.00">weather&#45;metar.c</text>
</a>
</g>
</g>
<!-- Node2 -->
<g id="Node000002" class="node">
<title>Node2</title>
<g id="a_Node000002"><a xlink:title=" ">
<polygon fill="#e0e0e0" stroke="#999999" points="53,-195 0,-195 0,-176 53,-176 53,-195"/>
<text text-anchor="middle" x="26.5" y="-183" font-family="Helvetica,sans-Serif" font-size="10.00">stdlib.h</text>
</a>
</g>
</g>
<!-- Node1&#45;&gt;Node2 -->
<g id="edge1_Node000001_Node000002" class="edge">
<title>Node1&#45;&gt;Node2</title>
<g id="a_edge1_Node000001_Node000002"><a xlink:title=" ">
<path fill="none" stroke="#63b8ff" d="M187.65,-230.98C153.64,-221.6 98.98,-206.51 62.9,-196.55"/>
<polygon fill="#63b8ff" stroke="#63b8ff" points="63.82,-193.17 53.25,-193.88 61.95,-199.92 63.82,-193.17"/>
</a>
</g>
</g>
<!-- Node3 -->
<g id="Node000003" class="node">
<title>Node3</title>
<g id="a_Node000003"><a xlink:title=" ">
<polygon fill="#e0e0e0" stroke="#999999" points="124,-195 71,-195 71,-176 124,-176 124,-195"/>
<text text-anchor="middle" x="97.5" y="-183" font-family="Helvetica,sans-Serif" font-size="10.00">string.h</text>
</a>
</g>
</g>
<!-- Node1&#45;&gt;Node3 -->
<g id="edge2_Node000001_Node000003" class="edge">
<title>Node1&#45;&gt;Node3</title>
<g id="a_edge2_Node000001_Node000003"><a xlink:title=" ">
<path fill="none" stroke="#63b8ff" d="M199.06,-230.98C179.51,-222.42 149.12,-209.11 126.68,-199.28"/>
<polygon fill="#63b8ff" stroke="#63b8ff" points="127.86,-195.98 117.29,-195.17 125.05,-202.39 127.86,-195.98"/>
</a>
</g>
</g>
<!-- Node4 -->
<g id="Node000004" class="node">
<title>Node4</title>
<g id="a_Node000004"><a xlink:title=" ">
<polygon fill="#e0e0e0" stroke="#999999" points="214.5,-195 142.5,-195 142.5,-176 214.5,-176 214.5,-195"/>
<text text-anchor="middle" x="178.5" y="-183" font-family="Helvetica,sans-Serif" font-size="10.00">sys/types.h</text>
</a>
</g>
</g>
<!-- Node1&#45;&gt;Node4 -->
<g id="edge3_Node000001_Node000004" class="edge">
<title>Node1&#45;&gt;Node4</title>
<g id="a_edge3_Node000001_Node000004"><a xlink:title=" ">
<path fill="none" stroke="#63b8ff" d="M211.89,-230.75C206.24,-223.26 197.96,-212.28 191.05,-203.13"/>
<polygon fill="#63b8ff" stroke="#63b8ff" points="193.8,-200.96 184.98,-195.09 188.21,-205.18 193.8,-200.96"/>
</a>
</g>
</g>
<!-- Node5 -->
<g id="Node000005" class="node">
<title>Node5</title>
<g id="a_Node000005"><a xlink:title=" ">
<polygon fill="#e0e0e0" stroke="#999999" points="286,-195 233,-195 233,-176 286,-176 286,-195"/>
<text text-anchor="middle" x="259.5" y="-183" font-family="Helvetica,sans-Serif" font-size="10.00">regex.h</text>
</a>
</g>
</g>
<!-- Node1&#45;&gt;Node5 -->
<g id="edge4_Node000001_Node000005" class="edge">
<title>Node1&#45;&gt;Node5</title>
<g id="a_edge4_Node000001_Node000005"><a xlink:title=" ">
<path fill="none" stroke="#63b8ff" d="M225.27,-230.75C231.06,-223.26 239.56,-212.28 246.64,-203.13"/>
<polygon fill="#63b8ff" stroke="#63b8ff" points="249.51,-205.14 252.86,-195.09 243.97,-200.86 249.51,-205.14"/>
</a>
</g>
</g>
<!-- Node6 -->
<g id="Node000006" class="node">
<title>Node6</title>
<g id="a_Node000006"><a xlink:href="weather_8h.html" target="_top" xlink:title=" ">
<polygon fill="white" stroke="#666666" points="385,-79.5 320,-79.5 320,-60.5 385,-60.5 385,-79.5"/>
<text text-anchor="middle" x="352.5" y="-67.5" font-family="Helvetica,sans-Serif" font-size="10.00">weather.h</text>
</a>
</g>
</g>
<!-- Node1&#45;&gt;Node6 -->
<g id="edge5_Node000001_Node000006" class="edge">
<title>Node1&#45;&gt;Node6</title>
<g id="a_edge5_Node000001_Node000006"><a xlink:title=" ">
<path fill="none" stroke="#63b8ff" d="M240.55,-230.9C257.16,-223.48 279.56,-211.38 294.5,-195 323.22,-163.5 340.17,-115.26 347.74,-89.21"/>
<polygon fill="#63b8ff" stroke="#63b8ff" points="351.13,-90.09 350.42,-79.52 344.38,-88.22 351.13,-90.09"/>
</a>
</g>
</g>
<!-- Node8 -->
<g id="Node000008" class="node">
<title>Node8</title>
<g id="a_Node000008"><a xlink:href="weather-priv_8h.html" target="_top" xlink:title=" ">
<polygon fill="white" stroke="#666666" points="556,-195 469,-195 469,-176 556,-176 556,-195"/>
<text text-anchor="middle" x="512.5" y="-183" font-family="Helvetica,sans-Serif" font-size="10.00">weather&#45;priv.h</text>
</a>
</g>
</g>
<!-- Node1&#45;&gt;Node8 -->
<g id="edge7_Node000001_Node000008" class="edge">
<title>Node1&#45;&gt;Node8</title>
<g id="a_edge7_Node000001_Node000008"><a xlink:title=" ">
<path fill="none" stroke="#63b8ff" d="M265.74,-230.98C318.45,-221.48 403.59,-206.13 458.79,-196.18"/>
<polygon fill="#63b8ff" stroke="#63b8ff" points="459.52,-199.61 468.74,-194.39 458.28,-192.72 459.52,-199.61"/>
</a>
</g>
</g>
<!-- Node7 -->
<g id="Node000007" class="node">
<title>Node7</title>
<g id="a_Node000007"><a xlink:title=" ">
<polygon fill="#e0e0e0" stroke="#999999" points="419,-19 286,-19 286,0 419,0 419,-19"/>
<text text-anchor="middle" x="352.5" y="-7" font-family="Helvetica,sans-Serif" font-size="10.00">gdk&#45;pixbuf/gdk&#45;pixbuf.h</text>
</a>
</g>
</g>
<!-- Node6&#45;&gt;Node7 -->
<g id="edge6_Node000006_Node000007" class="edge">
<title>Node6&#45;&gt;Node7</title>
<g id="a_edge6_Node000006_Node000007"><a xlink:title=" ">
<path fill="none" stroke="#63b8ff" d="M352.5,-60.37C352.5,-52.25 352.5,-39.81 352.5,-29.39"/>
<polygon fill="#63b8ff" stroke="#63b8ff" points="356,-29.17 352.5,-19.17 349,-29.17 356,-29.17"/>
</a>
</g>
</g>
<!-- Node8&#45;&gt;Node6 -->
<g id="edge13_Node000008_Node000006" class="edge">
<title>Node8&#45;&gt;Node6</title>
<g id="a_edge13_Node000008_Node000006"><a xlink:title=" ">
<path fill="none" stroke="#63b8ff" d="M468.9,-181.55C437.7,-177.14 396.88,-166.34 371.5,-140 358.72,-126.74 354.37,-105.7 352.97,-90.34"/>
<polygon fill="#63b8ff" stroke="#63b8ff" points="356.44,-89.71 352.39,-79.92 349.45,-90.1 356.44,-89.71"/>
</a>
</g>
</g>
<!-- Node9 -->
<g id="Node000009" class="node">
<title>Node9</title>
<g id="a_Node000009"><a xlink:title=" ">
<polygon fill="#e0e0e0" stroke="#999999" points="436,-140 381,-140 381,-121 436,-121 436,-140"/>
<text text-anchor="middle" x="408.5" y="-128" font-family="Helvetica,sans-Serif" font-size="10.00">config.h</text>
</a>
</g>
</g>
<!-- Node8&#45;&gt;Node9 -->
<g id="edge8_Node000008_Node000009" class="edge">
<title>Node8&#45;&gt;Node9</title>
<g id="a_edge8_Node000008_Node000009"><a xlink:title=" ">
<path fill="none" stroke="#63b8ff" d="M495.79,-175.98C479.29,-167.57 453.8,-154.59 434.62,-144.81"/>
<polygon fill="#63b8ff" stroke="#63b8ff" points="436.01,-141.59 425.51,-140.17 432.83,-147.83 436.01,-141.59"/>
</a>
</g>
</g>
<!-- Node10 -->
<g id="Node000010" class="node">
<title>Node10</title>
<g id="a_Node000010"><a xlink:title=" ">
<polygon fill="#e0e0e0" stroke="#999999" points="502.5,-140 454.5,-140 454.5,-121 502.5,-121 502.5,-140"/>
<text text-anchor="middle" x="478.5" y="-128" font-family="Helvetica,sans-Serif" font-size="10.00">time.h</text>
</a>
</g>
</g>
<!-- Node8&#45;&gt;Node10 -->
<g id="edge9_Node000008_Node000010" class="edge">
<title>Node8&#45;&gt;Node10</title>
<g id="a_edge9_Node000008_Node000010"><a xlink:title=" ">
<path fill="none" stroke="#63b8ff" d="M506.89,-175.75C502.18,-168.42 495.33,-157.73 489.53,-148.7"/>
<polygon fill="#63b8ff" stroke="#63b8ff" points="492.36,-146.62 484.01,-140.09 486.46,-150.4 492.36,-146.62"/>
</a>
</g>
</g>
<!-- Node11 -->
<g id="Node000011" class="node">
<title>Node11</title>
<g id="a_Node000011"><a xlink:title=" ">
<polygon fill="#e0e0e0" stroke="#999999" points="574,-140 521,-140 521,-121 574,-121 574,-140"/>
<text text-anchor="middle" x="547.5" y="-128" font-family="Helvetica,sans-Serif" font-size="10.00">libintl.h</text>
</a>
</g>
</g>
<!-- Node8&#45;&gt;Node11 -->
<g id="edge10_Node000008_Node000011" class="edge">
<title>Node8&#45;&gt;Node11</title>
<g id="a_edge10_Node000008_Node000011"><a xlink:title=" ">
<path fill="none" stroke="#63b8ff" d="M518.28,-175.75C523.12,-168.42 530.18,-157.73 536.14,-148.7"/>
<polygon fill="#63b8ff" stroke="#63b8ff" points="539.24,-150.36 541.83,-140.09 533.4,-146.5 539.24,-150.36"/>
</a>
</g>
</g>
<!-- Node12 -->
<g id="Node000012" class="node">
<title>Node12</title>
<g id="a_Node000012"><a xlink:title=" ">
<polygon fill="#e0e0e0" stroke="#999999" points="643,-140 592,-140 592,-121 643,-121 643,-140"/>
<text text-anchor="middle" x="617.5" y="-128" font-family="Helvetica,sans-Serif" font-size="10.00">math.h</text>
</a>
</g>
</g>
<!-- Node8&#45;&gt;Node12 -->
<g id="edge11_Node000008_Node000012" class="edge">
<title>Node8&#45;&gt;Node12</title>
<g id="a_edge11_Node000008_Node000012"><a xlink:title=" ">
<path fill="none" stroke="#63b8ff" d="M529.37,-175.98C546.11,-167.54 572,-154.47 591.39,-144.68"/>
<polygon fill="#63b8ff" stroke="#63b8ff" points="592.97,-147.8 600.32,-140.17 589.82,-141.55 592.97,-147.8"/>
</a>
</g>
</g>
<!-- Node13 -->
<g id="Node000013" class="node">
<title>Node13</title>
<g id="a_Node000013"><a xlink:title=" ">
<polygon fill="#e0e0e0" stroke="#999999" points="748,-140 661,-140 661,-121 748,-121 748,-140"/>
<text text-anchor="middle" x="704.5" y="-128" font-family="Helvetica,sans-Serif" font-size="10.00">libsoup/soup.h</text>
</a>
</g>
</g>
<!-- Node8&#45;&gt;Node13 -->
<g id="edge12_Node000008_Node000013" class="edge">
<title>Node8&#45;&gt;Node13</title>
<g id="a_edge12_Node000008_Node000013"><a xlink:title=" ">
<path fill="none" stroke="#63b8ff" d="M543.35,-175.98C576,-166.97 627.7,-152.7 663.7,-142.76"/>
<polygon fill="#63b8ff" stroke="#63b8ff" points="664.7,-146.12 673.41,-140.08 662.84,-139.37 664.7,-146.12"/>
</a>
</g>
</g>
<!-- Node14 -->
<g id="Node000014" class="node">
<title>Node14</title>
<g id="a_Node000014"><a xlink:href="mateweather-location_8h.html" target="_top" xlink:title=" ">
<polygon fill="white" stroke="#666666" points="900.5,-140 766.5,-140 766.5,-121 900.5,-121 900.5,-140"/>
<text text-anchor="middle" x="833.5" y="-128" font-family="Helvetica,sans-Serif" font-size="10.00">mateweather&#45;location.h</text>
</a>
</g>
</g>
<!-- Node8&#45;&gt;Node14 -->
<g id="edge14_Node000008_Node000014" class="edge">
<title>Node8&#45;&gt;Node14</title>
<g id="a_edge14_Node000008_Node000014"><a xlink:title=" ">
<path fill="none" stroke="#63b8ff" d="M556.13,-177.3C611.82,-168.1 708.53,-152.13 771.77,-141.69"/>
<polygon fill="#63b8ff" stroke="#63b8ff" points="772.71,-145.08 782.01,-140 771.57,-138.18 772.71,-145.08"/>
</a>
</g>
</g>
<!-- Node14&#45;&gt;Node6 -->
<g id="edge18_Node000014_Node000006" class="edge">
<title>Node14&#45;&gt;Node6</title>
<g id="a_edge18_Node000014_Node000006"><a xlink:title=" ">
<path fill="none" stroke="#63b8ff" d="M766.37,-121.34C665.8,-109.1 478.93,-86.38 395.11,-76.18"/>
<polygon fill="#63b8ff" stroke="#63b8ff" points="395.52,-72.71 385.17,-74.97 394.68,-79.66 395.52,-72.71"/>
</a>
</g>
</g>
<!-- Node15 -->
<g id="Node000015" class="node">
<title>Node15</title>
<g id="a_Node000015"><a xlink:title=" ">
<polygon fill="#e0e0e0" stroke="#999999" points="794.5,-79.5 750.5,-79.5 750.5,-60.5 794.5,-60.5 794.5,-79.5"/>
<text text-anchor="middle" x="772.5" y="-67.5" font-family="Helvetica,sans-Serif" font-size="10.00">glib.h</text>
</a>
</g>
</g>
<!-- Node14&#45;&gt;Node15 -->
<g id="edge15_Node000014_Node000015" class="edge">
<title>Node14&#45;&gt;Node15</title>
<g id="a_edge15_Node000014_Node000015"><a xlink:title=" ">
<path fill="none" stroke="#63b8ff" d="M824.5,-120.87C815.13,-111.88 800.25,-97.61 788.8,-86.64"/>
<polygon fill="#63b8ff" stroke="#63b8ff" points="791.18,-84.06 781.54,-79.67 786.33,-89.12 791.18,-84.06"/>
</a>
</g>
</g>
<!-- Node16 -->
<g id="Node000016" class="node">
<title>Node16</title>
<g id="a_Node000016"><a xlink:href="mateweather-timezone_8h.html" target="_top" xlink:title=" ">
<polygon fill="white" stroke="#666666" points="974.5,-85 812.5,-85 812.5,-55 974.5,-55 974.5,-85"/>
<text text-anchor="start" x="820.5" y="-73" font-family="Helvetica,sans-Serif" font-size="10.00">libmateweather/mateweather</text>
<text text-anchor="middle" x="893.5" y="-62" font-family="Helvetica,sans-Serif" font-size="10.00">&#45;timezone.h</text>
</a>
</g>
</g>
<!-- Node14&#45;&gt;Node16 -->
<g id="edge16_Node000014_Node000016" class="edge">
<title>Node14&#45;&gt;Node16</title>
<g id="a_edge16_Node000014_Node000016"><a xlink:title=" ">
<path fill="none" stroke="#63b8ff" d="M842.35,-120.87C850.04,-113.37 861.5,-102.2 871.63,-92.33"/>
<polygon fill="#63b8ff" stroke="#63b8ff" points="874.31,-94.6 879.02,-85.11 869.42,-89.59 874.31,-94.6"/>
</a>
</g>
</g>
<!-- Node17 -->
<g id="Node000017" class="node">
<title>Node17</title>
<g id="a_Node000017"><a xlink:title=" ">
<polygon fill="#e0e0e0" stroke="#999999" points="932,-19 855,-19 855,0 932,0 932,-19"/>
<text text-anchor="middle" x="893.5" y="-7" font-family="Helvetica,sans-Serif" font-size="10.00">glib&#45;object.h</text>
</a>
</g>
</g>
<!-- Node16&#45;&gt;Node17 -->
<g id="edge17_Node000016_Node000017" class="edge">
<title>Node16&#45;&gt;Node17</title>
<g id="a_edge17_Node000016_Node000017"><a xlink:title=" ">
<path fill="none" stroke="#63b8ff" d="M893.5,-54.84C893.5,-47.21 893.5,-37.7 893.5,-29.45"/>
<polygon fill="#63b8ff" stroke="#63b8ff" points="897,-29.27 893.5,-19.27 890,-29.27 897,-29.27"/>
</a>
</g>
</g>
</g>
</svg>
